%TF.GenerationSoftware,KiCad,Pcbnew,9.0.4*%
%TF.CreationDate,2025-08-29T10:15:57+02:00*%
%TF.ProjectId,TDA7267,54444137-3236-4372-9e6b-696361645f70,rev?*%
%TF.SameCoordinates,Original*%
%TF.FileFunction,Legend,Top*%
%TF.FilePolarity,Positive*%
%FSLAX46Y46*%
G04 Gerber Fmt 4.6, Leading zero omitted, Abs format (unit mm)*
G04 Created by KiCad (PCBNEW 9.0.4) date 2025-08-29 10:15:57*
%MOMM*%
%LPD*%
G01*
G04 APERTURE LIST*
%ADD10C,0.150000*%
%ADD11C,0.120000*%
G04 APERTURE END LIST*
D10*
X138619580Y-105566666D02*
X138667200Y-105614285D01*
X138667200Y-105614285D02*
X138714819Y-105757142D01*
X138714819Y-105757142D02*
X138714819Y-105852380D01*
X138714819Y-105852380D02*
X138667200Y-105995237D01*
X138667200Y-105995237D02*
X138571961Y-106090475D01*
X138571961Y-106090475D02*
X138476723Y-106138094D01*
X138476723Y-106138094D02*
X138286247Y-106185713D01*
X138286247Y-106185713D02*
X138143390Y-106185713D01*
X138143390Y-106185713D02*
X137952914Y-106138094D01*
X137952914Y-106138094D02*
X137857676Y-106090475D01*
X137857676Y-106090475D02*
X137762438Y-105995237D01*
X137762438Y-105995237D02*
X137714819Y-105852380D01*
X137714819Y-105852380D02*
X137714819Y-105757142D01*
X137714819Y-105757142D02*
X137762438Y-105614285D01*
X137762438Y-105614285D02*
X137810057Y-105566666D01*
X137714819Y-105233332D02*
X137714819Y-104614285D01*
X137714819Y-104614285D02*
X138095771Y-104947618D01*
X138095771Y-104947618D02*
X138095771Y-104804761D01*
X138095771Y-104804761D02*
X138143390Y-104709523D01*
X138143390Y-104709523D02*
X138191009Y-104661904D01*
X138191009Y-104661904D02*
X138286247Y-104614285D01*
X138286247Y-104614285D02*
X138524342Y-104614285D01*
X138524342Y-104614285D02*
X138619580Y-104661904D01*
X138619580Y-104661904D02*
X138667200Y-104709523D01*
X138667200Y-104709523D02*
X138714819Y-104804761D01*
X138714819Y-104804761D02*
X138714819Y-105090475D01*
X138714819Y-105090475D02*
X138667200Y-105185713D01*
X138667200Y-105185713D02*
X138619580Y-105233332D01*
X161900000Y-112554819D02*
X161900000Y-111554819D01*
X162376190Y-112554819D02*
X162376190Y-111554819D01*
X162376190Y-111554819D02*
X162947618Y-112554819D01*
X162947618Y-112554819D02*
X162947618Y-111554819D01*
X163947618Y-112554819D02*
X163376190Y-112554819D01*
X163661904Y-112554819D02*
X163661904Y-111554819D01*
X163661904Y-111554819D02*
X163566666Y-111697676D01*
X163566666Y-111697676D02*
X163471428Y-111792914D01*
X163471428Y-111792914D02*
X163376190Y-111840533D01*
X143764819Y-103504166D02*
X143288628Y-103837499D01*
X143764819Y-104075594D02*
X142764819Y-104075594D01*
X142764819Y-104075594D02*
X142764819Y-103694642D01*
X142764819Y-103694642D02*
X142812438Y-103599404D01*
X142812438Y-103599404D02*
X142860057Y-103551785D01*
X142860057Y-103551785D02*
X142955295Y-103504166D01*
X142955295Y-103504166D02*
X143098152Y-103504166D01*
X143098152Y-103504166D02*
X143193390Y-103551785D01*
X143193390Y-103551785D02*
X143241009Y-103599404D01*
X143241009Y-103599404D02*
X143288628Y-103694642D01*
X143288628Y-103694642D02*
X143288628Y-104075594D01*
X143764819Y-102551785D02*
X143764819Y-103123213D01*
X143764819Y-102837499D02*
X142764819Y-102837499D01*
X142764819Y-102837499D02*
X142907676Y-102932737D01*
X142907676Y-102932737D02*
X143002914Y-103027975D01*
X143002914Y-103027975D02*
X143050533Y-103123213D01*
X134761905Y-91794819D02*
X134761905Y-90794819D01*
X134761905Y-90794819D02*
X135000000Y-90794819D01*
X135000000Y-90794819D02*
X135142857Y-90842438D01*
X135142857Y-90842438D02*
X135238095Y-90937676D01*
X135238095Y-90937676D02*
X135285714Y-91032914D01*
X135285714Y-91032914D02*
X135333333Y-91223390D01*
X135333333Y-91223390D02*
X135333333Y-91366247D01*
X135333333Y-91366247D02*
X135285714Y-91556723D01*
X135285714Y-91556723D02*
X135238095Y-91651961D01*
X135238095Y-91651961D02*
X135142857Y-91747200D01*
X135142857Y-91747200D02*
X135000000Y-91794819D01*
X135000000Y-91794819D02*
X134761905Y-91794819D01*
X136285714Y-91794819D02*
X135714286Y-91794819D01*
X136000000Y-91794819D02*
X136000000Y-90794819D01*
X136000000Y-90794819D02*
X135904762Y-90937676D01*
X135904762Y-90937676D02*
X135809524Y-91032914D01*
X135809524Y-91032914D02*
X135714286Y-91080533D01*
X164694819Y-90276190D02*
X164694819Y-90085714D01*
X164694819Y-90085714D02*
X164742438Y-89990476D01*
X164742438Y-89990476D02*
X164837676Y-89895238D01*
X164837676Y-89895238D02*
X165028152Y-89847619D01*
X165028152Y-89847619D02*
X165361485Y-89847619D01*
X165361485Y-89847619D02*
X165551961Y-89895238D01*
X165551961Y-89895238D02*
X165647200Y-89990476D01*
X165647200Y-89990476D02*
X165694819Y-90085714D01*
X165694819Y-90085714D02*
X165694819Y-90276190D01*
X165694819Y-90276190D02*
X165647200Y-90371428D01*
X165647200Y-90371428D02*
X165551961Y-90466666D01*
X165551961Y-90466666D02*
X165361485Y-90514285D01*
X165361485Y-90514285D02*
X165028152Y-90514285D01*
X165028152Y-90514285D02*
X164837676Y-90466666D01*
X164837676Y-90466666D02*
X164742438Y-90371428D01*
X164742438Y-90371428D02*
X164694819Y-90276190D01*
X164694819Y-89419047D02*
X165504342Y-89419047D01*
X165504342Y-89419047D02*
X165599580Y-89371428D01*
X165599580Y-89371428D02*
X165647200Y-89323809D01*
X165647200Y-89323809D02*
X165694819Y-89228571D01*
X165694819Y-89228571D02*
X165694819Y-89038095D01*
X165694819Y-89038095D02*
X165647200Y-88942857D01*
X165647200Y-88942857D02*
X165599580Y-88895238D01*
X165599580Y-88895238D02*
X165504342Y-88847619D01*
X165504342Y-88847619D02*
X164694819Y-88847619D01*
X164694819Y-88514285D02*
X164694819Y-87942857D01*
X165694819Y-88228571D02*
X164694819Y-88228571D01*
X165694819Y-87085714D02*
X165694819Y-87657142D01*
X165694819Y-87371428D02*
X164694819Y-87371428D01*
X164694819Y-87371428D02*
X164837676Y-87466666D01*
X164837676Y-87466666D02*
X164932914Y-87561904D01*
X164932914Y-87561904D02*
X164980533Y-87657142D01*
X143043333Y-97147080D02*
X142995714Y-97194700D01*
X142995714Y-97194700D02*
X142852857Y-97242319D01*
X142852857Y-97242319D02*
X142757619Y-97242319D01*
X142757619Y-97242319D02*
X142614762Y-97194700D01*
X142614762Y-97194700D02*
X142519524Y-97099461D01*
X142519524Y-97099461D02*
X142471905Y-97004223D01*
X142471905Y-97004223D02*
X142424286Y-96813747D01*
X142424286Y-96813747D02*
X142424286Y-96670890D01*
X142424286Y-96670890D02*
X142471905Y-96480414D01*
X142471905Y-96480414D02*
X142519524Y-96385176D01*
X142519524Y-96385176D02*
X142614762Y-96289938D01*
X142614762Y-96289938D02*
X142757619Y-96242319D01*
X142757619Y-96242319D02*
X142852857Y-96242319D01*
X142852857Y-96242319D02*
X142995714Y-96289938D01*
X142995714Y-96289938D02*
X143043333Y-96337557D01*
X143948095Y-96242319D02*
X143471905Y-96242319D01*
X143471905Y-96242319D02*
X143424286Y-96718509D01*
X143424286Y-96718509D02*
X143471905Y-96670890D01*
X143471905Y-96670890D02*
X143567143Y-96623271D01*
X143567143Y-96623271D02*
X143805238Y-96623271D01*
X143805238Y-96623271D02*
X143900476Y-96670890D01*
X143900476Y-96670890D02*
X143948095Y-96718509D01*
X143948095Y-96718509D02*
X143995714Y-96813747D01*
X143995714Y-96813747D02*
X143995714Y-97051842D01*
X143995714Y-97051842D02*
X143948095Y-97147080D01*
X143948095Y-97147080D02*
X143900476Y-97194700D01*
X143900476Y-97194700D02*
X143805238Y-97242319D01*
X143805238Y-97242319D02*
X143567143Y-97242319D01*
X143567143Y-97242319D02*
X143471905Y-97194700D01*
X143471905Y-97194700D02*
X143424286Y-97147080D01*
X148849580Y-105979166D02*
X148897200Y-106026785D01*
X148897200Y-106026785D02*
X148944819Y-106169642D01*
X148944819Y-106169642D02*
X148944819Y-106264880D01*
X148944819Y-106264880D02*
X148897200Y-106407737D01*
X148897200Y-106407737D02*
X148801961Y-106502975D01*
X148801961Y-106502975D02*
X148706723Y-106550594D01*
X148706723Y-106550594D02*
X148516247Y-106598213D01*
X148516247Y-106598213D02*
X148373390Y-106598213D01*
X148373390Y-106598213D02*
X148182914Y-106550594D01*
X148182914Y-106550594D02*
X148087676Y-106502975D01*
X148087676Y-106502975D02*
X147992438Y-106407737D01*
X147992438Y-106407737D02*
X147944819Y-106264880D01*
X147944819Y-106264880D02*
X147944819Y-106169642D01*
X147944819Y-106169642D02*
X147992438Y-106026785D01*
X147992438Y-106026785D02*
X148040057Y-105979166D01*
X148944819Y-105026785D02*
X148944819Y-105598213D01*
X148944819Y-105312499D02*
X147944819Y-105312499D01*
X147944819Y-105312499D02*
X148087676Y-105407737D01*
X148087676Y-105407737D02*
X148182914Y-105502975D01*
X148182914Y-105502975D02*
X148230533Y-105598213D01*
X152824819Y-101049047D02*
X152824819Y-100477619D01*
X153824819Y-100763333D02*
X152824819Y-100763333D01*
X153824819Y-100144285D02*
X152824819Y-100144285D01*
X152824819Y-100144285D02*
X152824819Y-99906190D01*
X152824819Y-99906190D02*
X152872438Y-99763333D01*
X152872438Y-99763333D02*
X152967676Y-99668095D01*
X152967676Y-99668095D02*
X153062914Y-99620476D01*
X153062914Y-99620476D02*
X153253390Y-99572857D01*
X153253390Y-99572857D02*
X153396247Y-99572857D01*
X153396247Y-99572857D02*
X153586723Y-99620476D01*
X153586723Y-99620476D02*
X153681961Y-99668095D01*
X153681961Y-99668095D02*
X153777200Y-99763333D01*
X153777200Y-99763333D02*
X153824819Y-99906190D01*
X153824819Y-99906190D02*
X153824819Y-100144285D01*
X153539104Y-99191904D02*
X153539104Y-98715714D01*
X153824819Y-99287142D02*
X152824819Y-98953809D01*
X152824819Y-98953809D02*
X153824819Y-98620476D01*
X152824819Y-98382380D02*
X152824819Y-97715714D01*
X152824819Y-97715714D02*
X153824819Y-98144285D01*
X152920057Y-97382380D02*
X152872438Y-97334761D01*
X152872438Y-97334761D02*
X152824819Y-97239523D01*
X152824819Y-97239523D02*
X152824819Y-97001428D01*
X152824819Y-97001428D02*
X152872438Y-96906190D01*
X152872438Y-96906190D02*
X152920057Y-96858571D01*
X152920057Y-96858571D02*
X153015295Y-96810952D01*
X153015295Y-96810952D02*
X153110533Y-96810952D01*
X153110533Y-96810952D02*
X153253390Y-96858571D01*
X153253390Y-96858571D02*
X153824819Y-97429999D01*
X153824819Y-97429999D02*
X153824819Y-96810952D01*
X152824819Y-95953809D02*
X152824819Y-96144285D01*
X152824819Y-96144285D02*
X152872438Y-96239523D01*
X152872438Y-96239523D02*
X152920057Y-96287142D01*
X152920057Y-96287142D02*
X153062914Y-96382380D01*
X153062914Y-96382380D02*
X153253390Y-96429999D01*
X153253390Y-96429999D02*
X153634342Y-96429999D01*
X153634342Y-96429999D02*
X153729580Y-96382380D01*
X153729580Y-96382380D02*
X153777200Y-96334761D01*
X153777200Y-96334761D02*
X153824819Y-96239523D01*
X153824819Y-96239523D02*
X153824819Y-96049047D01*
X153824819Y-96049047D02*
X153777200Y-95953809D01*
X153777200Y-95953809D02*
X153729580Y-95906190D01*
X153729580Y-95906190D02*
X153634342Y-95858571D01*
X153634342Y-95858571D02*
X153396247Y-95858571D01*
X153396247Y-95858571D02*
X153301009Y-95906190D01*
X153301009Y-95906190D02*
X153253390Y-95953809D01*
X153253390Y-95953809D02*
X153205771Y-96049047D01*
X153205771Y-96049047D02*
X153205771Y-96239523D01*
X153205771Y-96239523D02*
X153253390Y-96334761D01*
X153253390Y-96334761D02*
X153301009Y-96382380D01*
X153301009Y-96382380D02*
X153396247Y-96429999D01*
X152824819Y-95525237D02*
X152824819Y-94858571D01*
X152824819Y-94858571D02*
X153824819Y-95287142D01*
X141693333Y-88254819D02*
X141360000Y-87778628D01*
X141121905Y-88254819D02*
X141121905Y-87254819D01*
X141121905Y-87254819D02*
X141502857Y-87254819D01*
X141502857Y-87254819D02*
X141598095Y-87302438D01*
X141598095Y-87302438D02*
X141645714Y-87350057D01*
X141645714Y-87350057D02*
X141693333Y-87445295D01*
X141693333Y-87445295D02*
X141693333Y-87588152D01*
X141693333Y-87588152D02*
X141645714Y-87683390D01*
X141645714Y-87683390D02*
X141598095Y-87731009D01*
X141598095Y-87731009D02*
X141502857Y-87778628D01*
X141502857Y-87778628D02*
X141121905Y-87778628D01*
X142074286Y-87350057D02*
X142121905Y-87302438D01*
X142121905Y-87302438D02*
X142217143Y-87254819D01*
X142217143Y-87254819D02*
X142455238Y-87254819D01*
X142455238Y-87254819D02*
X142550476Y-87302438D01*
X142550476Y-87302438D02*
X142598095Y-87350057D01*
X142598095Y-87350057D02*
X142645714Y-87445295D01*
X142645714Y-87445295D02*
X142645714Y-87540533D01*
X142645714Y-87540533D02*
X142598095Y-87683390D01*
X142598095Y-87683390D02*
X142026667Y-88254819D01*
X142026667Y-88254819D02*
X142645714Y-88254819D01*
X130590476Y-111554819D02*
X130923809Y-112554819D01*
X130923809Y-112554819D02*
X131257142Y-111554819D01*
X132161904Y-112459580D02*
X132114285Y-112507200D01*
X132114285Y-112507200D02*
X131971428Y-112554819D01*
X131971428Y-112554819D02*
X131876190Y-112554819D01*
X131876190Y-112554819D02*
X131733333Y-112507200D01*
X131733333Y-112507200D02*
X131638095Y-112411961D01*
X131638095Y-112411961D02*
X131590476Y-112316723D01*
X131590476Y-112316723D02*
X131542857Y-112126247D01*
X131542857Y-112126247D02*
X131542857Y-111983390D01*
X131542857Y-111983390D02*
X131590476Y-111792914D01*
X131590476Y-111792914D02*
X131638095Y-111697676D01*
X131638095Y-111697676D02*
X131733333Y-111602438D01*
X131733333Y-111602438D02*
X131876190Y-111554819D01*
X131876190Y-111554819D02*
X131971428Y-111554819D01*
X131971428Y-111554819D02*
X132114285Y-111602438D01*
X132114285Y-111602438D02*
X132161904Y-111650057D01*
X133161904Y-112459580D02*
X133114285Y-112507200D01*
X133114285Y-112507200D02*
X132971428Y-112554819D01*
X132971428Y-112554819D02*
X132876190Y-112554819D01*
X132876190Y-112554819D02*
X132733333Y-112507200D01*
X132733333Y-112507200D02*
X132638095Y-112411961D01*
X132638095Y-112411961D02*
X132590476Y-112316723D01*
X132590476Y-112316723D02*
X132542857Y-112126247D01*
X132542857Y-112126247D02*
X132542857Y-111983390D01*
X132542857Y-111983390D02*
X132590476Y-111792914D01*
X132590476Y-111792914D02*
X132638095Y-111697676D01*
X132638095Y-111697676D02*
X132733333Y-111602438D01*
X132733333Y-111602438D02*
X132876190Y-111554819D01*
X132876190Y-111554819D02*
X132971428Y-111554819D01*
X132971428Y-111554819D02*
X133114285Y-111602438D01*
X133114285Y-111602438D02*
X133161904Y-111650057D01*
X134114285Y-112554819D02*
X133542857Y-112554819D01*
X133828571Y-112554819D02*
X133828571Y-111554819D01*
X133828571Y-111554819D02*
X133733333Y-111697676D01*
X133733333Y-111697676D02*
X133638095Y-111792914D01*
X133638095Y-111792914D02*
X133542857Y-111840533D01*
X167133333Y-104959580D02*
X167085714Y-105007200D01*
X167085714Y-105007200D02*
X166942857Y-105054819D01*
X166942857Y-105054819D02*
X166847619Y-105054819D01*
X166847619Y-105054819D02*
X166704762Y-105007200D01*
X166704762Y-105007200D02*
X166609524Y-104911961D01*
X166609524Y-104911961D02*
X166561905Y-104816723D01*
X166561905Y-104816723D02*
X166514286Y-104626247D01*
X166514286Y-104626247D02*
X166514286Y-104483390D01*
X166514286Y-104483390D02*
X166561905Y-104292914D01*
X166561905Y-104292914D02*
X166609524Y-104197676D01*
X166609524Y-104197676D02*
X166704762Y-104102438D01*
X166704762Y-104102438D02*
X166847619Y-104054819D01*
X166847619Y-104054819D02*
X166942857Y-104054819D01*
X166942857Y-104054819D02*
X167085714Y-104102438D01*
X167085714Y-104102438D02*
X167133333Y-104150057D01*
X167514286Y-104150057D02*
X167561905Y-104102438D01*
X167561905Y-104102438D02*
X167657143Y-104054819D01*
X167657143Y-104054819D02*
X167895238Y-104054819D01*
X167895238Y-104054819D02*
X167990476Y-104102438D01*
X167990476Y-104102438D02*
X168038095Y-104150057D01*
X168038095Y-104150057D02*
X168085714Y-104245295D01*
X168085714Y-104245295D02*
X168085714Y-104340533D01*
X168085714Y-104340533D02*
X168038095Y-104483390D01*
X168038095Y-104483390D02*
X167466667Y-105054819D01*
X167466667Y-105054819D02*
X168085714Y-105054819D01*
X170133333Y-101259580D02*
X170085714Y-101307200D01*
X170085714Y-101307200D02*
X169942857Y-101354819D01*
X169942857Y-101354819D02*
X169847619Y-101354819D01*
X169847619Y-101354819D02*
X169704762Y-101307200D01*
X169704762Y-101307200D02*
X169609524Y-101211961D01*
X169609524Y-101211961D02*
X169561905Y-101116723D01*
X169561905Y-101116723D02*
X169514286Y-100926247D01*
X169514286Y-100926247D02*
X169514286Y-100783390D01*
X169514286Y-100783390D02*
X169561905Y-100592914D01*
X169561905Y-100592914D02*
X169609524Y-100497676D01*
X169609524Y-100497676D02*
X169704762Y-100402438D01*
X169704762Y-100402438D02*
X169847619Y-100354819D01*
X169847619Y-100354819D02*
X169942857Y-100354819D01*
X169942857Y-100354819D02*
X170085714Y-100402438D01*
X170085714Y-100402438D02*
X170133333Y-100450057D01*
X170990476Y-100354819D02*
X170800000Y-100354819D01*
X170800000Y-100354819D02*
X170704762Y-100402438D01*
X170704762Y-100402438D02*
X170657143Y-100450057D01*
X170657143Y-100450057D02*
X170561905Y-100592914D01*
X170561905Y-100592914D02*
X170514286Y-100783390D01*
X170514286Y-100783390D02*
X170514286Y-101164342D01*
X170514286Y-101164342D02*
X170561905Y-101259580D01*
X170561905Y-101259580D02*
X170609524Y-101307200D01*
X170609524Y-101307200D02*
X170704762Y-101354819D01*
X170704762Y-101354819D02*
X170895238Y-101354819D01*
X170895238Y-101354819D02*
X170990476Y-101307200D01*
X170990476Y-101307200D02*
X171038095Y-101259580D01*
X171038095Y-101259580D02*
X171085714Y-101164342D01*
X171085714Y-101164342D02*
X171085714Y-100926247D01*
X171085714Y-100926247D02*
X171038095Y-100831009D01*
X171038095Y-100831009D02*
X170990476Y-100783390D01*
X170990476Y-100783390D02*
X170895238Y-100735771D01*
X170895238Y-100735771D02*
X170704762Y-100735771D01*
X170704762Y-100735771D02*
X170609524Y-100783390D01*
X170609524Y-100783390D02*
X170561905Y-100831009D01*
X170561905Y-100831009D02*
X170514286Y-100926247D01*
X130533333Y-97259580D02*
X130485714Y-97307200D01*
X130485714Y-97307200D02*
X130342857Y-97354819D01*
X130342857Y-97354819D02*
X130247619Y-97354819D01*
X130247619Y-97354819D02*
X130104762Y-97307200D01*
X130104762Y-97307200D02*
X130009524Y-97211961D01*
X130009524Y-97211961D02*
X129961905Y-97116723D01*
X129961905Y-97116723D02*
X129914286Y-96926247D01*
X129914286Y-96926247D02*
X129914286Y-96783390D01*
X129914286Y-96783390D02*
X129961905Y-96592914D01*
X129961905Y-96592914D02*
X130009524Y-96497676D01*
X130009524Y-96497676D02*
X130104762Y-96402438D01*
X130104762Y-96402438D02*
X130247619Y-96354819D01*
X130247619Y-96354819D02*
X130342857Y-96354819D01*
X130342857Y-96354819D02*
X130485714Y-96402438D01*
X130485714Y-96402438D02*
X130533333Y-96450057D01*
X131390476Y-96688152D02*
X131390476Y-97354819D01*
X131152381Y-96307200D02*
X130914286Y-97021485D01*
X130914286Y-97021485D02*
X131533333Y-97021485D01*
X142804761Y-110054819D02*
X142471428Y-109578628D01*
X142233333Y-110054819D02*
X142233333Y-109054819D01*
X142233333Y-109054819D02*
X142614285Y-109054819D01*
X142614285Y-109054819D02*
X142709523Y-109102438D01*
X142709523Y-109102438D02*
X142757142Y-109150057D01*
X142757142Y-109150057D02*
X142804761Y-109245295D01*
X142804761Y-109245295D02*
X142804761Y-109388152D01*
X142804761Y-109388152D02*
X142757142Y-109483390D01*
X142757142Y-109483390D02*
X142709523Y-109531009D01*
X142709523Y-109531009D02*
X142614285Y-109578628D01*
X142614285Y-109578628D02*
X142233333Y-109578628D01*
X143090476Y-109054819D02*
X143423809Y-110054819D01*
X143423809Y-110054819D02*
X143757142Y-109054819D01*
X144614285Y-110054819D02*
X144042857Y-110054819D01*
X144328571Y-110054819D02*
X144328571Y-109054819D01*
X144328571Y-109054819D02*
X144233333Y-109197676D01*
X144233333Y-109197676D02*
X144138095Y-109292914D01*
X144138095Y-109292914D02*
X144042857Y-109340533D01*
D11*
%TO.C,C3*%
X139190000Y-100027500D02*
X139725000Y-100027500D01*
X139190000Y-106267500D02*
X139190000Y-100027500D01*
X139725000Y-106267500D02*
X139190000Y-106267500D01*
X141395000Y-100027500D02*
X141930000Y-100027500D01*
X141930000Y-100027500D02*
X141930000Y-106267500D01*
X141930000Y-106267500D02*
X141395000Y-106267500D01*
%TO.C,IN1*%
X160420000Y-111190000D02*
X160420000Y-117540000D01*
X170580000Y-111190000D02*
X160420000Y-111190000D01*
X170580000Y-117500000D02*
X170580000Y-111190000D01*
X170580000Y-117540000D02*
X160420000Y-117540000D01*
%TO.C,R1*%
X144190000Y-100067500D02*
X144520000Y-100067500D01*
X144190000Y-106607500D02*
X144190000Y-100067500D01*
X144520000Y-106607500D02*
X144190000Y-106607500D01*
X146600000Y-106607500D02*
X146930000Y-106607500D01*
X146930000Y-100067500D02*
X146600000Y-100067500D01*
X146930000Y-106607500D02*
X146930000Y-100067500D01*
%TO.C,D1*%
X133940000Y-93064000D02*
X133940000Y-93220000D01*
X133940000Y-95380000D02*
X133940000Y-95536000D01*
X133940000Y-93064484D02*
G75*
G02*
X137171437Y-93220000I1560000J-1235516D01*
G01*
X134459039Y-93220000D02*
G75*
G02*
X136540961Y-93220000I1040961J-1080000D01*
G01*
X136540961Y-95380000D02*
G75*
G02*
X134459039Y-95380000I-1040961J1080000D01*
G01*
X137171437Y-95380000D02*
G75*
G02*
X133940000Y-95535516I-1671437J1080000D01*
G01*
%TO.C,OUT1*%
X164220000Y-91087500D02*
X164220000Y-86047500D01*
X154100000Y-91087500D02*
X164260000Y-91087500D01*
X154060000Y-86047500D02*
X164220000Y-86047500D01*
X154060000Y-86047500D02*
X154060000Y-91087500D01*
%TO.C,C5*%
X140240000Y-92917500D02*
X146480000Y-92917500D01*
X140240000Y-93452500D02*
X140240000Y-92917500D01*
X140240000Y-95657500D02*
X140240000Y-95122500D01*
X146480000Y-92917500D02*
X146480000Y-93452500D01*
X146480000Y-95122500D02*
X146480000Y-95657500D01*
X146480000Y-95657500D02*
X140240000Y-95657500D01*
%TO.C,C1*%
X149280000Y-104030000D02*
X156720000Y-104030000D01*
X149280000Y-107770000D02*
X149280000Y-104030000D01*
X156720000Y-104030000D02*
X156720000Y-107770000D01*
X156720000Y-107770000D02*
X149280000Y-107770000D01*
%TO.C,TDA7267*%
X151120000Y-92790000D02*
X151120000Y-103070000D01*
X151120000Y-103070000D02*
X155620000Y-103070000D01*
X152370000Y-92790000D02*
X151120000Y-92790000D01*
X155620000Y-92790000D02*
X154370000Y-92790000D01*
X155620000Y-103070000D02*
X155620000Y-92790000D01*
X154370000Y-92790000D02*
G75*
G02*
X152370000Y-92790000I-1000000J0D01*
G01*
%TO.C,R2*%
X138590000Y-88517500D02*
X145130000Y-88517500D01*
X138590000Y-88847500D02*
X138590000Y-88517500D01*
X138590000Y-90927500D02*
X138590000Y-91257500D01*
X138590000Y-91257500D02*
X145130000Y-91257500D01*
X145130000Y-88517500D02*
X145130000Y-88847500D01*
X145130000Y-91257500D02*
X145130000Y-90927500D01*
%TO.C,VCC1*%
X129880000Y-111190000D02*
X129880000Y-117540000D01*
X140040000Y-111190000D02*
X129880000Y-111190000D01*
X140040000Y-117540000D02*
X129880000Y-117540000D01*
X140040000Y-117540000D02*
X140040000Y-111190000D01*
%TO.C,C2*%
X157987651Y-104285000D02*
X158787651Y-104285000D01*
X158387651Y-103885000D02*
X158387651Y-104685000D01*
X162397349Y-102520000D02*
X162397349Y-110680000D01*
X162437349Y-102520000D02*
X162437349Y-110680000D01*
X162477349Y-102521000D02*
X162477349Y-110679000D01*
X162517349Y-102522000D02*
X162517349Y-110678000D01*
X162557349Y-102523000D02*
X162557349Y-110677000D01*
X162597349Y-102525000D02*
X162597349Y-110675000D01*
X162637349Y-102527000D02*
X162637349Y-110673000D01*
X162677349Y-102530000D02*
X162677349Y-110670000D01*
X162717349Y-102532000D02*
X162717349Y-110668000D01*
X162757349Y-102536000D02*
X162757349Y-110664000D01*
X162797349Y-102539000D02*
X162797349Y-110661000D01*
X162837349Y-102544000D02*
X162837349Y-110656000D01*
X162877349Y-102548000D02*
X162877349Y-110652000D01*
X162917349Y-102553000D02*
X162917349Y-110647000D01*
X162957349Y-102558000D02*
X162957349Y-110642000D01*
X162997349Y-102564000D02*
X162997349Y-110636000D01*
X163037349Y-102570000D02*
X163037349Y-110630000D01*
X163077349Y-102577000D02*
X163077349Y-110623000D01*
X163117349Y-102583000D02*
X163117349Y-110617000D01*
X163157349Y-102591000D02*
X163157349Y-110609000D01*
X163197349Y-102598000D02*
X163197349Y-110602000D01*
X163237349Y-102607000D02*
X163237349Y-110593000D01*
X163277349Y-102615000D02*
X163277349Y-105560000D01*
X163277349Y-107640000D02*
X163277349Y-110585000D01*
X163317349Y-102624000D02*
X163317349Y-105560000D01*
X163317349Y-107640000D02*
X163317349Y-110576000D01*
X163357349Y-102633000D02*
X163357349Y-105560000D01*
X163357349Y-107640000D02*
X163357349Y-110567000D01*
X163397349Y-102643000D02*
X163397349Y-105560000D01*
X163397349Y-107640000D02*
X163397349Y-110557000D01*
X163437349Y-102653000D02*
X163437349Y-105560000D01*
X163437349Y-107640000D02*
X163437349Y-110547000D01*
X163477349Y-102664000D02*
X163477349Y-105560000D01*
X163477349Y-107640000D02*
X163477349Y-110536000D01*
X163517349Y-102675000D02*
X163517349Y-105560000D01*
X163517349Y-107640000D02*
X163517349Y-110525000D01*
X163557349Y-102687000D02*
X163557349Y-105560000D01*
X163557349Y-107640000D02*
X163557349Y-110513000D01*
X163597349Y-102699000D02*
X163597349Y-105560000D01*
X163597349Y-107640000D02*
X163597349Y-110501000D01*
X163637349Y-102711000D02*
X163637349Y-105560000D01*
X163637349Y-107640000D02*
X163637349Y-110489000D01*
X163677349Y-102724000D02*
X163677349Y-105560000D01*
X163677349Y-107640000D02*
X163677349Y-110476000D01*
X163717349Y-102737000D02*
X163717349Y-105560000D01*
X163717349Y-107640000D02*
X163717349Y-110463000D01*
X163757349Y-102751000D02*
X163757349Y-105560000D01*
X163757349Y-107640000D02*
X163757349Y-110449000D01*
X163797349Y-102765000D02*
X163797349Y-105560000D01*
X163797349Y-107640000D02*
X163797349Y-110435000D01*
X163837349Y-102780000D02*
X163837349Y-105560000D01*
X163837349Y-107640000D02*
X163837349Y-110420000D01*
X163877349Y-102795000D02*
X163877349Y-105560000D01*
X163877349Y-107640000D02*
X163877349Y-110405000D01*
X163917349Y-102811000D02*
X163917349Y-105560000D01*
X163917349Y-107640000D02*
X163917349Y-110389000D01*
X163957349Y-102827000D02*
X163957349Y-105560000D01*
X163957349Y-107640000D02*
X163957349Y-110373000D01*
X163997349Y-102843000D02*
X163997349Y-105560000D01*
X163997349Y-107640000D02*
X163997349Y-110357000D01*
X164037349Y-102860000D02*
X164037349Y-105560000D01*
X164037349Y-107640000D02*
X164037349Y-110340000D01*
X164077349Y-102878000D02*
X164077349Y-105560000D01*
X164077349Y-107640000D02*
X164077349Y-110322000D01*
X164117349Y-102896000D02*
X164117349Y-105560000D01*
X164117349Y-107640000D02*
X164117349Y-110304000D01*
X164157349Y-102915000D02*
X164157349Y-105560000D01*
X164157349Y-107640000D02*
X164157349Y-110285000D01*
X164197349Y-102934000D02*
X164197349Y-105560000D01*
X164197349Y-107640000D02*
X164197349Y-110266000D01*
X164237349Y-102954000D02*
X164237349Y-105560000D01*
X164237349Y-107640000D02*
X164237349Y-110246000D01*
X164277349Y-102974000D02*
X164277349Y-105560000D01*
X164277349Y-107640000D02*
X164277349Y-110226000D01*
X164317349Y-102995000D02*
X164317349Y-105560000D01*
X164317349Y-107640000D02*
X164317349Y-110205000D01*
X164357349Y-103016000D02*
X164357349Y-105560000D01*
X164357349Y-107640000D02*
X164357349Y-110184000D01*
X164397349Y-103038000D02*
X164397349Y-105560000D01*
X164397349Y-107640000D02*
X164397349Y-110162000D01*
X164437349Y-103061000D02*
X164437349Y-105560000D01*
X164437349Y-107640000D02*
X164437349Y-110139000D01*
X164477349Y-103084000D02*
X164477349Y-105560000D01*
X164477349Y-107640000D02*
X164477349Y-110116000D01*
X164517349Y-103107000D02*
X164517349Y-105560000D01*
X164517349Y-107640000D02*
X164517349Y-110093000D01*
X164557349Y-103132000D02*
X164557349Y-105560000D01*
X164557349Y-107640000D02*
X164557349Y-110068000D01*
X164597349Y-103157000D02*
X164597349Y-105560000D01*
X164597349Y-107640000D02*
X164597349Y-110043000D01*
X164637349Y-103182000D02*
X164637349Y-105560000D01*
X164637349Y-107640000D02*
X164637349Y-110018000D01*
X164677349Y-103208000D02*
X164677349Y-105560000D01*
X164677349Y-107640000D02*
X164677349Y-109992000D01*
X164717349Y-103235000D02*
X164717349Y-105560000D01*
X164717349Y-107640000D02*
X164717349Y-109965000D01*
X164757349Y-103263000D02*
X164757349Y-105560000D01*
X164757349Y-107640000D02*
X164757349Y-109937000D01*
X164797349Y-103291000D02*
X164797349Y-105560000D01*
X164797349Y-107640000D02*
X164797349Y-109909000D01*
X164837349Y-103320000D02*
X164837349Y-105560000D01*
X164837349Y-107640000D02*
X164837349Y-109880000D01*
X164877349Y-103350000D02*
X164877349Y-105560000D01*
X164877349Y-107640000D02*
X164877349Y-109850000D01*
X164917349Y-103381000D02*
X164917349Y-105560000D01*
X164917349Y-107640000D02*
X164917349Y-109819000D01*
X164957349Y-103412000D02*
X164957349Y-105560000D01*
X164957349Y-107640000D02*
X164957349Y-109788000D01*
X164997349Y-103444000D02*
X164997349Y-105560000D01*
X164997349Y-107640000D02*
X164997349Y-109756000D01*
X165037349Y-103477000D02*
X165037349Y-105560000D01*
X165037349Y-107640000D02*
X165037349Y-109723000D01*
X165077349Y-103511000D02*
X165077349Y-105560000D01*
X165077349Y-107640000D02*
X165077349Y-109689000D01*
X165117349Y-103545000D02*
X165117349Y-105560000D01*
X165117349Y-107640000D02*
X165117349Y-109655000D01*
X165157349Y-103581000D02*
X165157349Y-105560000D01*
X165157349Y-107640000D02*
X165157349Y-109619000D01*
X165197349Y-103618000D02*
X165197349Y-105560000D01*
X165197349Y-107640000D02*
X165197349Y-109582000D01*
X165237349Y-103655000D02*
X165237349Y-105560000D01*
X165237349Y-107640000D02*
X165237349Y-109545000D01*
X165277349Y-103694000D02*
X165277349Y-105560000D01*
X165277349Y-107640000D02*
X165277349Y-109506000D01*
X165317349Y-103733000D02*
X165317349Y-105560000D01*
X165317349Y-107640000D02*
X165317349Y-109467000D01*
X165357349Y-103774000D02*
X165357349Y-109426000D01*
X165397349Y-103816000D02*
X165397349Y-109384000D01*
X165437349Y-103859000D02*
X165437349Y-109341000D01*
X165477349Y-103904000D02*
X165477349Y-109296000D01*
X165517349Y-103949000D02*
X165517349Y-109251000D01*
X165557349Y-103996000D02*
X165557349Y-109204000D01*
X165597349Y-104045000D02*
X165597349Y-109155000D01*
X165637349Y-104095000D02*
X165637349Y-109105000D01*
X165677349Y-104147000D02*
X165677349Y-109053000D01*
X165717349Y-104200000D02*
X165717349Y-109000000D01*
X165757349Y-104256000D02*
X165757349Y-108944000D01*
X165797349Y-104313000D02*
X165797349Y-108887000D01*
X165837349Y-104373000D02*
X165837349Y-108827000D01*
X165877349Y-104435000D02*
X165877349Y-108765000D01*
X165917349Y-104499000D02*
X165917349Y-108701000D01*
X165957349Y-104566000D02*
X165957349Y-108634000D01*
X165997349Y-104636000D02*
X165997349Y-108564000D01*
X166037349Y-104710000D02*
X166037349Y-108490000D01*
X166077349Y-104787000D02*
X166077349Y-108413000D01*
X166117349Y-104869000D02*
X166117349Y-108331000D01*
X166157349Y-104956000D02*
X166157349Y-108244000D01*
X166197349Y-105048000D02*
X166197349Y-108152000D01*
X166237349Y-105147000D02*
X166237349Y-108053000D01*
X166277349Y-105254000D02*
X166277349Y-107946000D01*
X166317349Y-105372000D02*
X166317349Y-107828000D01*
X166357349Y-105503000D02*
X166357349Y-107697000D01*
X166397349Y-105653000D02*
X166397349Y-107547000D01*
X166437349Y-105832000D02*
X166437349Y-107368000D01*
X166477349Y-106067000D02*
X166477349Y-107133000D01*
X166517349Y-106600000D02*
G75*
G02*
X158277349Y-106600000I-4120000J0D01*
G01*
X158277349Y-106600000D02*
G75*
G02*
X166517349Y-106600000I4120000J0D01*
G01*
%TO.C,C6*%
X159952677Y-94025000D02*
X160952677Y-94025000D01*
X160452677Y-93525000D02*
X160452677Y-94525000D01*
X165432323Y-91820000D02*
X165432323Y-101980000D01*
X165472323Y-91820000D02*
X165472323Y-101980000D01*
X165512323Y-91821000D02*
X165512323Y-101979000D01*
X165552323Y-91821000D02*
X165552323Y-101979000D01*
X165592323Y-91823000D02*
X165592323Y-101977000D01*
X165632323Y-91824000D02*
X165632323Y-101976000D01*
X165672323Y-91826000D02*
X165672323Y-101974000D01*
X165712323Y-91828000D02*
X165712323Y-101972000D01*
X165752323Y-91830000D02*
X165752323Y-101970000D01*
X165792323Y-91833000D02*
X165792323Y-101967000D01*
X165832323Y-91836000D02*
X165832323Y-101964000D01*
X165872323Y-91839000D02*
X165872323Y-101961000D01*
X165912323Y-91843000D02*
X165912323Y-101957000D01*
X165952323Y-91846000D02*
X165952323Y-101954000D01*
X165992323Y-91851000D02*
X165992323Y-101949000D01*
X166032323Y-91855000D02*
X166032323Y-101945000D01*
X166072323Y-91860000D02*
X166072323Y-101940000D01*
X166112323Y-91865000D02*
X166112323Y-101935000D01*
X166152323Y-91871000D02*
X166152323Y-101929000D01*
X166192323Y-91877000D02*
X166192323Y-101923000D01*
X166232323Y-91883000D02*
X166232323Y-101917000D01*
X166272323Y-91889000D02*
X166272323Y-101911000D01*
X166312323Y-91896000D02*
X166312323Y-101904000D01*
X166352323Y-91903000D02*
X166352323Y-101897000D01*
X166392323Y-91911000D02*
X166392323Y-101889000D01*
X166432323Y-91919000D02*
X166432323Y-101881000D01*
X166472323Y-91927000D02*
X166472323Y-101873000D01*
X166512323Y-91935000D02*
X166512323Y-101865000D01*
X166552323Y-91944000D02*
X166552323Y-101856000D01*
X166592323Y-91953000D02*
X166592323Y-101847000D01*
X166632323Y-91963000D02*
X166632323Y-101837000D01*
X166672323Y-91972000D02*
X166672323Y-101828000D01*
X166712323Y-91983000D02*
X166712323Y-95660000D01*
X166712323Y-98140000D02*
X166712323Y-101817000D01*
X166752323Y-91993000D02*
X166752323Y-95660000D01*
X166752323Y-98140000D02*
X166752323Y-101807000D01*
X166792323Y-92004000D02*
X166792323Y-95660000D01*
X166792323Y-98140000D02*
X166792323Y-101796000D01*
X166832323Y-92015000D02*
X166832323Y-95660000D01*
X166832323Y-98140000D02*
X166832323Y-101785000D01*
X166872323Y-92027000D02*
X166872323Y-95660000D01*
X166872323Y-98140000D02*
X166872323Y-101773000D01*
X166912323Y-92039000D02*
X166912323Y-95660000D01*
X166912323Y-98140000D02*
X166912323Y-101761000D01*
X166952323Y-92051000D02*
X166952323Y-95660000D01*
X166952323Y-98140000D02*
X166952323Y-101749000D01*
X166992323Y-92063000D02*
X166992323Y-95660000D01*
X166992323Y-98140000D02*
X166992323Y-101737000D01*
X167032323Y-92076000D02*
X167032323Y-95660000D01*
X167032323Y-98140000D02*
X167032323Y-101724000D01*
X167072323Y-92090000D02*
X167072323Y-95660000D01*
X167072323Y-98140000D02*
X167072323Y-101710000D01*
X167112323Y-92103000D02*
X167112323Y-95660000D01*
X167112323Y-98140000D02*
X167112323Y-101697000D01*
X167152323Y-92118000D02*
X167152323Y-95660000D01*
X167152323Y-98140000D02*
X167152323Y-101682000D01*
X167192323Y-92132000D02*
X167192323Y-95660000D01*
X167192323Y-98140000D02*
X167192323Y-101668000D01*
X167232323Y-92147000D02*
X167232323Y-95660000D01*
X167232323Y-98140000D02*
X167232323Y-101653000D01*
X167272323Y-92162000D02*
X167272323Y-95660000D01*
X167272323Y-98140000D02*
X167272323Y-101638000D01*
X167312323Y-92178000D02*
X167312323Y-95660000D01*
X167312323Y-98140000D02*
X167312323Y-101622000D01*
X167352323Y-92194000D02*
X167352323Y-95660000D01*
X167352323Y-98140000D02*
X167352323Y-101606000D01*
X167392323Y-92210000D02*
X167392323Y-95660000D01*
X167392323Y-98140000D02*
X167392323Y-101590000D01*
X167432323Y-92227000D02*
X167432323Y-95660000D01*
X167432323Y-98140000D02*
X167432323Y-101573000D01*
X167472323Y-92244000D02*
X167472323Y-95660000D01*
X167472323Y-98140000D02*
X167472323Y-101556000D01*
X167512323Y-92262000D02*
X167512323Y-95660000D01*
X167512323Y-98140000D02*
X167512323Y-101538000D01*
X167552323Y-92280000D02*
X167552323Y-95660000D01*
X167552323Y-98140000D02*
X167552323Y-101520000D01*
X167592323Y-92298000D02*
X167592323Y-95660000D01*
X167592323Y-98140000D02*
X167592323Y-101502000D01*
X167632323Y-92317000D02*
X167632323Y-95660000D01*
X167632323Y-98140000D02*
X167632323Y-101483000D01*
X167672323Y-92336000D02*
X167672323Y-95660000D01*
X167672323Y-98140000D02*
X167672323Y-101464000D01*
X167712323Y-92356000D02*
X167712323Y-95660000D01*
X167712323Y-98140000D02*
X167712323Y-101444000D01*
X167752323Y-92376000D02*
X167752323Y-95660000D01*
X167752323Y-98140000D02*
X167752323Y-101424000D01*
X167792323Y-92396000D02*
X167792323Y-95660000D01*
X167792323Y-98140000D02*
X167792323Y-101404000D01*
X167832323Y-92417000D02*
X167832323Y-95660000D01*
X167832323Y-98140000D02*
X167832323Y-101383000D01*
X167872323Y-92439000D02*
X167872323Y-95660000D01*
X167872323Y-98140000D02*
X167872323Y-101361000D01*
X167912323Y-92461000D02*
X167912323Y-95660000D01*
X167912323Y-98140000D02*
X167912323Y-101339000D01*
X167952323Y-92483000D02*
X167952323Y-95660000D01*
X167952323Y-98140000D02*
X167952323Y-101317000D01*
X167992323Y-92506000D02*
X167992323Y-95660000D01*
X167992323Y-98140000D02*
X167992323Y-101294000D01*
X168032323Y-92529000D02*
X168032323Y-95660000D01*
X168032323Y-98140000D02*
X168032323Y-101271000D01*
X168072323Y-92553000D02*
X168072323Y-95660000D01*
X168072323Y-98140000D02*
X168072323Y-101247000D01*
X168112323Y-92577000D02*
X168112323Y-95660000D01*
X168112323Y-98140000D02*
X168112323Y-101223000D01*
X168152323Y-92602000D02*
X168152323Y-95660000D01*
X168152323Y-98140000D02*
X168152323Y-101198000D01*
X168192323Y-92628000D02*
X168192323Y-95660000D01*
X168192323Y-98140000D02*
X168192323Y-101172000D01*
X168232323Y-92653000D02*
X168232323Y-95660000D01*
X168232323Y-98140000D02*
X168232323Y-101147000D01*
X168272323Y-92680000D02*
X168272323Y-95660000D01*
X168272323Y-98140000D02*
X168272323Y-101120000D01*
X168312323Y-92707000D02*
X168312323Y-95660000D01*
X168312323Y-98140000D02*
X168312323Y-101093000D01*
X168352323Y-92734000D02*
X168352323Y-95660000D01*
X168352323Y-98140000D02*
X168352323Y-101066000D01*
X168392323Y-92762000D02*
X168392323Y-95660000D01*
X168392323Y-98140000D02*
X168392323Y-101038000D01*
X168432323Y-92791000D02*
X168432323Y-95660000D01*
X168432323Y-98140000D02*
X168432323Y-101009000D01*
X168472323Y-92820000D02*
X168472323Y-95660000D01*
X168472323Y-98140000D02*
X168472323Y-100980000D01*
X168512323Y-92850000D02*
X168512323Y-95660000D01*
X168512323Y-98140000D02*
X168512323Y-100950000D01*
X168552323Y-92880000D02*
X168552323Y-95660000D01*
X168552323Y-98140000D02*
X168552323Y-100920000D01*
X168592323Y-92912000D02*
X168592323Y-95660000D01*
X168592323Y-98140000D02*
X168592323Y-100888000D01*
X168632323Y-92943000D02*
X168632323Y-95660000D01*
X168632323Y-98140000D02*
X168632323Y-100857000D01*
X168672323Y-92976000D02*
X168672323Y-95660000D01*
X168672323Y-98140000D02*
X168672323Y-100824000D01*
X168712323Y-93009000D02*
X168712323Y-95660000D01*
X168712323Y-98140000D02*
X168712323Y-100791000D01*
X168752323Y-93042000D02*
X168752323Y-95660000D01*
X168752323Y-98140000D02*
X168752323Y-100758000D01*
X168792323Y-93077000D02*
X168792323Y-95660000D01*
X168792323Y-98140000D02*
X168792323Y-100723000D01*
X168832323Y-93112000D02*
X168832323Y-95660000D01*
X168832323Y-98140000D02*
X168832323Y-100688000D01*
X168872323Y-93148000D02*
X168872323Y-95660000D01*
X168872323Y-98140000D02*
X168872323Y-100652000D01*
X168912323Y-93184000D02*
X168912323Y-95660000D01*
X168912323Y-98140000D02*
X168912323Y-100616000D01*
X168952323Y-93222000D02*
X168952323Y-95660000D01*
X168952323Y-98140000D02*
X168952323Y-100578000D01*
X168992323Y-93260000D02*
X168992323Y-95660000D01*
X168992323Y-98140000D02*
X168992323Y-100540000D01*
X169032323Y-93299000D02*
X169032323Y-95660000D01*
X169032323Y-98140000D02*
X169032323Y-100501000D01*
X169072323Y-93339000D02*
X169072323Y-95660000D01*
X169072323Y-98140000D02*
X169072323Y-100461000D01*
X169112323Y-93380000D02*
X169112323Y-95660000D01*
X169112323Y-98140000D02*
X169112323Y-100420000D01*
X169152323Y-93422000D02*
X169152323Y-95660000D01*
X169152323Y-98140000D02*
X169152323Y-100378000D01*
X169192323Y-93465000D02*
X169192323Y-100335000D01*
X169232323Y-93509000D02*
X169232323Y-100291000D01*
X169272323Y-93553000D02*
X169272323Y-100247000D01*
X169312323Y-93599000D02*
X169312323Y-100201000D01*
X169352323Y-93646000D02*
X169352323Y-100154000D01*
X169392323Y-93695000D02*
X169392323Y-100105000D01*
X169432323Y-93744000D02*
X169432323Y-100056000D01*
X169472323Y-93795000D02*
X169472323Y-100005000D01*
X169512323Y-93847000D02*
X169512323Y-99953000D01*
X169552323Y-93900000D02*
X169552323Y-99900000D01*
X169592323Y-93955000D02*
X169592323Y-99845000D01*
X169632323Y-94012000D02*
X169632323Y-99788000D01*
X169672323Y-94070000D02*
X169672323Y-99730000D01*
X169712323Y-94130000D02*
X169712323Y-99670000D01*
X169752323Y-94192000D02*
X169752323Y-99608000D01*
X169792323Y-94256000D02*
X169792323Y-99544000D01*
X169832323Y-94322000D02*
X169832323Y-99478000D01*
X169872323Y-94390000D02*
X169872323Y-99410000D01*
X169912323Y-94461000D02*
X169912323Y-99339000D01*
X169952323Y-94535000D02*
X169952323Y-99265000D01*
X169992323Y-94612000D02*
X169992323Y-99188000D01*
X170032323Y-94692000D02*
X170032323Y-99108000D01*
X170072323Y-94776000D02*
X170072323Y-99024000D01*
X170112323Y-94863000D02*
X170112323Y-98937000D01*
X170152323Y-94956000D02*
X170152323Y-98844000D01*
X170192323Y-95054000D02*
X170192323Y-98746000D01*
X170232323Y-95158000D02*
X170232323Y-98642000D01*
X170272323Y-95270000D02*
X170272323Y-98530000D01*
X170312323Y-95391000D02*
X170312323Y-98409000D01*
X170352323Y-95523000D02*
X170352323Y-98277000D01*
X170392323Y-95670000D02*
X170392323Y-98130000D01*
X170432323Y-95838000D02*
X170432323Y-97962000D01*
X170472323Y-96038000D02*
X170472323Y-97762000D01*
X170512323Y-96301000D02*
X170512323Y-97499000D01*
X170552323Y-96900000D02*
G75*
G02*
X160312323Y-96900000I-5120000J0D01*
G01*
X160312323Y-96900000D02*
G75*
G02*
X170552323Y-96900000I5120000J0D01*
G01*
%TO.C,C4*%
X129520000Y-101833000D02*
X129520000Y-100767000D01*
X129560000Y-102068000D02*
X129560000Y-100532000D01*
X129600000Y-102247000D02*
X129600000Y-100353000D01*
X129640000Y-102397000D02*
X129640000Y-100203000D01*
X129680000Y-102528000D02*
X129680000Y-100072000D01*
X129720000Y-102646000D02*
X129720000Y-99954000D01*
X129760000Y-102753000D02*
X129760000Y-99847000D01*
X129800000Y-102852000D02*
X129800000Y-99748000D01*
X129840000Y-102944000D02*
X129840000Y-99656000D01*
X129880000Y-103031000D02*
X129880000Y-99569000D01*
X129920000Y-103113000D02*
X129920000Y-99487000D01*
X129960000Y-103190000D02*
X129960000Y-99410000D01*
X130000000Y-103264000D02*
X130000000Y-99336000D01*
X130040000Y-103334000D02*
X130040000Y-99266000D01*
X130080000Y-103401000D02*
X130080000Y-99199000D01*
X130120000Y-103465000D02*
X130120000Y-99135000D01*
X130160000Y-103527000D02*
X130160000Y-99073000D01*
X130200000Y-103587000D02*
X130200000Y-99013000D01*
X130240000Y-103644000D02*
X130240000Y-98956000D01*
X130280000Y-103700000D02*
X130280000Y-98900000D01*
X130320000Y-103753000D02*
X130320000Y-98847000D01*
X130360000Y-103805000D02*
X130360000Y-98795000D01*
X130400000Y-103855000D02*
X130400000Y-98745000D01*
X130440000Y-103904000D02*
X130440000Y-98696000D01*
X130480000Y-103951000D02*
X130480000Y-98649000D01*
X130520000Y-103996000D02*
X130520000Y-98604000D01*
X130560000Y-104041000D02*
X130560000Y-98559000D01*
X130600000Y-104084000D02*
X130600000Y-98516000D01*
X130640000Y-104126000D02*
X130640000Y-98474000D01*
X130680000Y-100260000D02*
X130680000Y-98433000D01*
X130680000Y-104167000D02*
X130680000Y-102340000D01*
X130720000Y-100260000D02*
X130720000Y-98394000D01*
X130720000Y-104206000D02*
X130720000Y-102340000D01*
X130760000Y-100260000D02*
X130760000Y-98355000D01*
X130760000Y-104245000D02*
X130760000Y-102340000D01*
X130800000Y-100260000D02*
X130800000Y-98318000D01*
X130800000Y-104282000D02*
X130800000Y-102340000D01*
X130840000Y-100260000D02*
X130840000Y-98281000D01*
X130840000Y-104319000D02*
X130840000Y-102340000D01*
X130880000Y-100260000D02*
X130880000Y-98245000D01*
X130880000Y-104355000D02*
X130880000Y-102340000D01*
X130920000Y-100260000D02*
X130920000Y-98211000D01*
X130920000Y-104389000D02*
X130920000Y-102340000D01*
X130960000Y-100260000D02*
X130960000Y-98177000D01*
X130960000Y-104423000D02*
X130960000Y-102340000D01*
X131000000Y-100260000D02*
X131000000Y-98144000D01*
X131000000Y-104456000D02*
X131000000Y-102340000D01*
X131040000Y-100260000D02*
X131040000Y-98112000D01*
X131040000Y-104488000D02*
X131040000Y-102340000D01*
X131080000Y-100260000D02*
X131080000Y-98081000D01*
X131080000Y-104519000D02*
X131080000Y-102340000D01*
X131120000Y-100260000D02*
X131120000Y-98050000D01*
X131120000Y-104550000D02*
X131120000Y-102340000D01*
X131160000Y-100260000D02*
X131160000Y-98020000D01*
X131160000Y-104580000D02*
X131160000Y-102340000D01*
X131200000Y-100260000D02*
X131200000Y-97991000D01*
X131200000Y-104609000D02*
X131200000Y-102340000D01*
X131240000Y-100260000D02*
X131240000Y-97963000D01*
X131240000Y-104637000D02*
X131240000Y-102340000D01*
X131280000Y-100260000D02*
X131280000Y-97935000D01*
X131280000Y-104665000D02*
X131280000Y-102340000D01*
X131320000Y-100260000D02*
X131320000Y-97908000D01*
X131320000Y-104692000D02*
X131320000Y-102340000D01*
X131360000Y-100260000D02*
X131360000Y-97882000D01*
X131360000Y-104718000D02*
X131360000Y-102340000D01*
X131400000Y-100260000D02*
X131400000Y-97857000D01*
X131400000Y-104743000D02*
X131400000Y-102340000D01*
X131440000Y-100260000D02*
X131440000Y-97832000D01*
X131440000Y-104768000D02*
X131440000Y-102340000D01*
X131480000Y-100260000D02*
X131480000Y-97807000D01*
X131480000Y-104793000D02*
X131480000Y-102340000D01*
X131520000Y-100260000D02*
X131520000Y-97784000D01*
X131520000Y-104816000D02*
X131520000Y-102340000D01*
X131560000Y-100260000D02*
X131560000Y-97761000D01*
X131560000Y-104839000D02*
X131560000Y-102340000D01*
X131600000Y-100260000D02*
X131600000Y-97738000D01*
X131600000Y-104862000D02*
X131600000Y-102340000D01*
X131640000Y-100260000D02*
X131640000Y-97716000D01*
X131640000Y-104884000D02*
X131640000Y-102340000D01*
X131680000Y-100260000D02*
X131680000Y-97695000D01*
X131680000Y-104905000D02*
X131680000Y-102340000D01*
X131720000Y-100260000D02*
X131720000Y-97674000D01*
X131720000Y-104926000D02*
X131720000Y-102340000D01*
X131760000Y-100260000D02*
X131760000Y-97654000D01*
X131760000Y-104946000D02*
X131760000Y-102340000D01*
X131800000Y-100260000D02*
X131800000Y-97634000D01*
X131800000Y-104966000D02*
X131800000Y-102340000D01*
X131840000Y-100260000D02*
X131840000Y-97615000D01*
X131840000Y-104985000D02*
X131840000Y-102340000D01*
X131880000Y-100260000D02*
X131880000Y-97596000D01*
X131880000Y-105004000D02*
X131880000Y-102340000D01*
X131920000Y-100260000D02*
X131920000Y-97578000D01*
X131920000Y-105022000D02*
X131920000Y-102340000D01*
X131960000Y-100260000D02*
X131960000Y-97560000D01*
X131960000Y-105040000D02*
X131960000Y-102340000D01*
X132000000Y-100260000D02*
X132000000Y-97543000D01*
X132000000Y-105057000D02*
X132000000Y-102340000D01*
X132040000Y-100260000D02*
X132040000Y-97527000D01*
X132040000Y-105073000D02*
X132040000Y-102340000D01*
X132080000Y-100260000D02*
X132080000Y-97511000D01*
X132080000Y-105089000D02*
X132080000Y-102340000D01*
X132120000Y-100260000D02*
X132120000Y-97495000D01*
X132120000Y-105105000D02*
X132120000Y-102340000D01*
X132160000Y-100260000D02*
X132160000Y-97480000D01*
X132160000Y-105120000D02*
X132160000Y-102340000D01*
X132200000Y-100260000D02*
X132200000Y-97465000D01*
X132200000Y-105135000D02*
X132200000Y-102340000D01*
X132240000Y-100260000D02*
X132240000Y-97451000D01*
X132240000Y-105149000D02*
X132240000Y-102340000D01*
X132280000Y-100260000D02*
X132280000Y-97437000D01*
X132280000Y-105163000D02*
X132280000Y-102340000D01*
X132320000Y-100260000D02*
X132320000Y-97424000D01*
X132320000Y-105176000D02*
X132320000Y-102340000D01*
X132360000Y-100260000D02*
X132360000Y-97411000D01*
X132360000Y-105189000D02*
X132360000Y-102340000D01*
X132400000Y-100260000D02*
X132400000Y-97399000D01*
X132400000Y-105201000D02*
X132400000Y-102340000D01*
X132440000Y-100260000D02*
X132440000Y-97387000D01*
X132440000Y-105213000D02*
X132440000Y-102340000D01*
X132480000Y-100260000D02*
X132480000Y-97375000D01*
X132480000Y-105225000D02*
X132480000Y-102340000D01*
X132520000Y-100260000D02*
X132520000Y-97364000D01*
X132520000Y-105236000D02*
X132520000Y-102340000D01*
X132560000Y-100260000D02*
X132560000Y-97353000D01*
X132560000Y-105247000D02*
X132560000Y-102340000D01*
X132600000Y-100260000D02*
X132600000Y-97343000D01*
X132600000Y-105257000D02*
X132600000Y-102340000D01*
X132640000Y-100260000D02*
X132640000Y-97333000D01*
X132640000Y-105267000D02*
X132640000Y-102340000D01*
X132680000Y-100260000D02*
X132680000Y-97324000D01*
X132680000Y-105276000D02*
X132680000Y-102340000D01*
X132720000Y-100260000D02*
X132720000Y-97315000D01*
X132720000Y-105285000D02*
X132720000Y-102340000D01*
X132760000Y-105293000D02*
X132760000Y-97307000D01*
X132800000Y-105302000D02*
X132800000Y-97298000D01*
X132840000Y-105309000D02*
X132840000Y-97291000D01*
X132880000Y-105317000D02*
X132880000Y-97283000D01*
X132920000Y-105323000D02*
X132920000Y-97277000D01*
X132960000Y-105330000D02*
X132960000Y-97270000D01*
X133000000Y-105336000D02*
X133000000Y-97264000D01*
X133040000Y-105342000D02*
X133040000Y-97258000D01*
X133080000Y-105347000D02*
X133080000Y-97253000D01*
X133120000Y-105352000D02*
X133120000Y-97248000D01*
X133160000Y-105356000D02*
X133160000Y-97244000D01*
X133200000Y-105361000D02*
X133200000Y-97239000D01*
X133240000Y-105364000D02*
X133240000Y-97236000D01*
X133280000Y-105368000D02*
X133280000Y-97232000D01*
X133320000Y-105370000D02*
X133320000Y-97230000D01*
X133360000Y-105373000D02*
X133360000Y-97227000D01*
X133400000Y-105375000D02*
X133400000Y-97225000D01*
X133440000Y-105377000D02*
X133440000Y-97223000D01*
X133480000Y-105378000D02*
X133480000Y-97222000D01*
X133520000Y-105379000D02*
X133520000Y-97221000D01*
X133560000Y-105380000D02*
X133560000Y-97220000D01*
X133600000Y-105380000D02*
X133600000Y-97220000D01*
X137609698Y-104015000D02*
X137609698Y-103215000D01*
X138009698Y-103615000D02*
X137209698Y-103615000D01*
X137720000Y-101300000D02*
G75*
G02*
X129480000Y-101300000I-4120000J0D01*
G01*
X129480000Y-101300000D02*
G75*
G02*
X137720000Y-101300000I4120000J0D01*
G01*
%TO.C,RV1*%
X141890000Y-108640000D02*
X158110000Y-108640000D01*
X141890000Y-116360000D02*
X141890000Y-108640000D01*
X146390000Y-116360000D02*
X153610000Y-116360000D01*
X158110000Y-108640000D02*
X158110000Y-116360000D01*
X158110000Y-116360000D02*
X141890000Y-116360000D01*
%TD*%
M02*
