%TF.GenerationSoftware,KiCad,Pcbnew,9.0.4*%
%TF.CreationDate,2025-08-29T10:15:57+02:00*%
%TF.ProjectId,TDA7267,54444137-3236-4372-9e6b-696361645f70,rev?*%
%TF.SameCoordinates,Original*%
%TF.FileFunction,Copper,L2,Bot*%
%TF.FilePolarity,Positive*%
%FSLAX46Y46*%
G04 Gerber Fmt 4.6, Leading zero omitted, Abs format (unit mm)*
G04 Created by KiCad (PCBNEW 9.0.4) date 2025-08-29 10:15:57*
%MOMM*%
%LPD*%
G01*
G04 APERTURE LIST*
G04 Aperture macros list*
%AMRoundRect*
0 Rectangle with rounded corners*
0 $1 Rounding radius*
0 $2 $3 $4 $5 $6 $7 $8 $9 X,Y pos of 4 corners*
0 Add a 4 corners polygon primitive as box body*
4,1,4,$2,$3,$4,$5,$6,$7,$8,$9,$2,$3,0*
0 Add four circle primitives for the rounded corners*
1,1,$1+$1,$2,$3*
1,1,$1+$1,$4,$5*
1,1,$1+$1,$6,$7*
1,1,$1+$1,$8,$9*
0 Add four rect primitives between the rounded corners*
20,1,$1+$1,$2,$3,$4,$5,0*
20,1,$1+$1,$4,$5,$6,$7,0*
20,1,$1+$1,$6,$7,$8,$9,0*
20,1,$1+$1,$8,$9,$2,$3,0*%
G04 Aperture macros list end*
%TA.AperFunction,ComponentPad*%
%ADD10C,1.600000*%
%TD*%
%TA.AperFunction,ComponentPad*%
%ADD11R,3.000000X3.000000*%
%TD*%
%TA.AperFunction,ComponentPad*%
%ADD12C,3.000000*%
%TD*%
%TA.AperFunction,ComponentPad*%
%ADD13R,1.800000X1.800000*%
%TD*%
%TA.AperFunction,ComponentPad*%
%ADD14C,1.800000*%
%TD*%
%TA.AperFunction,ComponentPad*%
%ADD15RoundRect,0.250000X-0.950000X-0.550000X0.950000X-0.550000X0.950000X0.550000X-0.950000X0.550000X0*%
%TD*%
%TA.AperFunction,ComponentPad*%
%ADD16O,2.400000X1.600000*%
%TD*%
%TA.AperFunction,ComponentPad*%
%ADD17RoundRect,0.250000X-0.550000X-0.550000X0.550000X-0.550000X0.550000X0.550000X-0.550000X0.550000X0*%
%TD*%
%TA.AperFunction,ComponentPad*%
%ADD18RoundRect,0.250000X-0.750000X-0.750000X0.750000X-0.750000X0.750000X0.750000X-0.750000X0.750000X0*%
%TD*%
%TA.AperFunction,ComponentPad*%
%ADD19C,2.000000*%
%TD*%
%TA.AperFunction,ComponentPad*%
%ADD20RoundRect,0.250000X0.550000X0.550000X-0.550000X0.550000X-0.550000X-0.550000X0.550000X-0.550000X0*%
%TD*%
%TA.AperFunction,ComponentPad*%
%ADD21C,2.340000*%
%TD*%
%TA.AperFunction,Conductor*%
%ADD22C,1.000000*%
%TD*%
%TA.AperFunction,Conductor*%
%ADD23C,0.500000*%
%TD*%
G04 APERTURE END LIST*
D10*
%TO.P,C3,1*%
%TO.N,GND*%
X140560000Y-105647500D03*
%TO.P,C3,2*%
%TO.N,Net-(U1-In)*%
X140560000Y-100647500D03*
%TD*%
D11*
%TO.P,IN1,1,Pin_1*%
%TO.N,Net-(IN1-Pin_1)*%
X162960000Y-115000000D03*
D12*
%TO.P,IN1,2,Pin_2*%
%TO.N,GND*%
X168040000Y-115000000D03*
%TD*%
D10*
%TO.P,R1,1*%
%TO.N,Net-(C1-Pad2)*%
X145560000Y-107147500D03*
%TO.P,R1,2*%
%TO.N,Net-(U1-In)*%
X145560000Y-99527500D03*
%TD*%
D13*
%TO.P,D1,1,K*%
%TO.N,GND*%
X134230000Y-94300000D03*
D14*
%TO.P,D1,2,A*%
%TO.N,Net-(D1-A)*%
X136770000Y-94300000D03*
%TD*%
D12*
%TO.P,OUT1,2,Pin_2*%
%TO.N,GND*%
X156600000Y-88587500D03*
D11*
%TO.P,OUT1,1,Pin_1*%
%TO.N,Net-(OUT1-Pin_1)*%
X161680000Y-88587500D03*
%TD*%
D10*
%TO.P,C5,1*%
%TO.N,GND*%
X140860000Y-94287500D03*
%TO.P,C5,2*%
%TO.N,Net-(U1-V+)*%
X145860000Y-94287500D03*
%TD*%
%TO.P,C1,1*%
%TO.N,Net-(C1-Pad1)*%
X155500000Y-105900000D03*
%TO.P,C1,2*%
%TO.N,Net-(C1-Pad2)*%
X150500000Y-105900000D03*
%TD*%
D15*
%TO.P,TDA7267,1,V+*%
%TO.N,Net-(U1-V+)*%
X149560000Y-94120000D03*
D16*
%TO.P,TDA7267,2,Out*%
%TO.N,Net-(U1-Out)*%
X149560000Y-96660000D03*
%TO.P,TDA7267,3,SRV*%
%TO.N,Net-(U1-SRV)*%
X149560000Y-99200000D03*
%TO.P,TDA7267,4,In*%
%TO.N,Net-(U1-In)*%
X149560000Y-101740000D03*
%TO.P,TDA7267,5,GND*%
%TO.N,GND*%
X157180000Y-101740000D03*
%TO.P,TDA7267,6,GND*%
X157180000Y-99200000D03*
%TO.P,TDA7267,7,GND*%
X157180000Y-96660000D03*
%TO.P,TDA7267,8,GND*%
X157180000Y-94120000D03*
%TD*%
D10*
%TO.P,R2,1*%
%TO.N,Net-(D1-A)*%
X138050000Y-89887500D03*
%TO.P,R2,2*%
%TO.N,Net-(U1-V+)*%
X145670000Y-89887500D03*
%TD*%
D11*
%TO.P,VCC1,1,Pin_1*%
%TO.N,Net-(U1-V+)*%
X132420000Y-115000000D03*
D12*
%TO.P,VCC1,2,Pin_2*%
%TO.N,GND*%
X137500000Y-115000000D03*
%TD*%
D17*
%TO.P,C2,1*%
%TO.N,Net-(U1-SRV)*%
X160497349Y-106600000D03*
D10*
%TO.P,C2,2*%
%TO.N,GND*%
X164297349Y-106600000D03*
%TD*%
D18*
%TO.P,C6,1*%
%TO.N,Net-(U1-Out)*%
X162932323Y-96900000D03*
D19*
%TO.P,C6,2*%
%TO.N,Net-(OUT1-Pin_1)*%
X167932323Y-96900000D03*
%TD*%
D20*
%TO.P,C4,1*%
%TO.N,Net-(U1-V+)*%
X135500000Y-101300000D03*
D10*
%TO.P,C4,2*%
%TO.N,GND*%
X131700000Y-101300000D03*
%TD*%
D21*
%TO.P,RV1,1,1*%
%TO.N,Net-(IN1-Pin_1)*%
X145000000Y-114750000D03*
%TO.P,RV1,2,2*%
%TO.N,Net-(C1-Pad1)*%
X150000000Y-114750000D03*
%TO.P,RV1,3,3*%
%TO.N,GND*%
X155000000Y-114750000D03*
%TD*%
D22*
%TO.N,Net-(OUT1-Pin_1)*%
X163187500Y-88587500D02*
X161680000Y-88587500D01*
D23*
%TO.N,Net-(C1-Pad2)*%
X145560000Y-107147500D02*
X149252500Y-107147500D01*
X149252500Y-107147500D02*
X150500000Y-105900000D01*
%TO.N,Net-(C1-Pad1)*%
X155500000Y-107400000D02*
X155500000Y-105900000D01*
X150000000Y-114750000D02*
X150000000Y-112900000D01*
X150000000Y-112900000D02*
X155500000Y-107400000D01*
%TO.N,Net-(U1-SRV)*%
X160497349Y-106600000D02*
X160497349Y-104697349D01*
X149560000Y-99200000D02*
X152600000Y-99200000D01*
X159200000Y-103400000D02*
X156246555Y-103400000D01*
X153700000Y-100853445D02*
X153700000Y-100700000D01*
X153700000Y-100300000D02*
X153700000Y-100700000D01*
X152600000Y-99200000D02*
X153700000Y-100300000D01*
X160497349Y-104697349D02*
X159200000Y-103400000D01*
X156246555Y-103400000D02*
X153700000Y-100853445D01*
%TO.N,Net-(U1-In)*%
X140560000Y-100647500D02*
X141400000Y-99807500D01*
X145560000Y-99527500D02*
X147772500Y-101740000D01*
X141672500Y-99527500D02*
X145560000Y-99527500D01*
X147772500Y-101740000D02*
X149560000Y-101740000D01*
X141400000Y-99800000D02*
X141672500Y-99527500D01*
X141400000Y-99807500D02*
X141400000Y-99800000D01*
D22*
%TO.N,Net-(U1-Out)*%
X156034001Y-92319000D02*
X151840000Y-96513001D01*
X160619000Y-92319000D02*
X156034001Y-92319000D01*
X162932323Y-94632323D02*
X162932323Y-96900000D01*
X151840000Y-96513001D02*
X149706999Y-96513001D01*
X149706999Y-96513001D02*
X149560000Y-96660000D01*
X160619000Y-92319000D02*
X162932323Y-94632323D01*
%TO.N,Net-(OUT1-Pin_1)*%
X163187500Y-88587500D02*
X167932323Y-93332323D01*
X167932323Y-93332323D02*
X167932323Y-96900000D01*
D23*
%TO.N,Net-(D1-A)*%
X136770000Y-91167500D02*
X138050000Y-89887500D01*
X136770000Y-94300000D02*
X136770000Y-91167500D01*
%TO.N,Net-(IN1-Pin_1)*%
X161551000Y-116749000D02*
X146999000Y-116749000D01*
X162960000Y-115340000D02*
X161551000Y-116749000D01*
X146999000Y-116749000D02*
X145000000Y-114750000D01*
X162960000Y-115000000D02*
X162960000Y-115340000D01*
%TD*%
%TA.AperFunction,Conductor*%
%TO.N,Net-(U1-V+)*%
G36*
X155125543Y-87020185D02*
G01*
X155171298Y-87072989D01*
X155181242Y-87142147D01*
X155152217Y-87205703D01*
X155146185Y-87212181D01*
X155092718Y-87265648D01*
X154933075Y-87473696D01*
X154801958Y-87700799D01*
X154801953Y-87700809D01*
X154701605Y-87943071D01*
X154701602Y-87943081D01*
X154633730Y-88196385D01*
X154599500Y-88456372D01*
X154599500Y-88718627D01*
X154622791Y-88895528D01*
X154633730Y-88978616D01*
X154694627Y-89205886D01*
X154701602Y-89231918D01*
X154701605Y-89231928D01*
X154801953Y-89474190D01*
X154801958Y-89474200D01*
X154933075Y-89701303D01*
X155092718Y-89909351D01*
X155092726Y-89909360D01*
X155278140Y-90094774D01*
X155278148Y-90094781D01*
X155486196Y-90254424D01*
X155713299Y-90385541D01*
X155713309Y-90385546D01*
X155944693Y-90481388D01*
X155955581Y-90485898D01*
X156208884Y-90553770D01*
X156457188Y-90586460D01*
X156468864Y-90587998D01*
X156468880Y-90588000D01*
X156468887Y-90588000D01*
X156731113Y-90588000D01*
X156731120Y-90588000D01*
X156991116Y-90553770D01*
X157244419Y-90485898D01*
X157486697Y-90385543D01*
X157713803Y-90254424D01*
X157921851Y-90094782D01*
X157921855Y-90094777D01*
X157921860Y-90094774D01*
X158107274Y-89909360D01*
X158107277Y-89909355D01*
X158107282Y-89909351D01*
X158266924Y-89701303D01*
X158398043Y-89474197D01*
X158498398Y-89231919D01*
X158566270Y-88978616D01*
X158600500Y-88718620D01*
X158600500Y-88456380D01*
X158566270Y-88196384D01*
X158498398Y-87943081D01*
X158487748Y-87917370D01*
X158398046Y-87700809D01*
X158398041Y-87700799D01*
X158266924Y-87473696D01*
X158107281Y-87265648D01*
X158107274Y-87265640D01*
X158053815Y-87212181D01*
X158020330Y-87150858D01*
X158025314Y-87081166D01*
X158067186Y-87025233D01*
X158132650Y-87000816D01*
X158141496Y-87000500D01*
X159555500Y-87000500D01*
X159622539Y-87020185D01*
X159668294Y-87072989D01*
X159679500Y-87124500D01*
X159679500Y-90135370D01*
X159679501Y-90135376D01*
X159685908Y-90194983D01*
X159736202Y-90329828D01*
X159736206Y-90329835D01*
X159822452Y-90445044D01*
X159822455Y-90445047D01*
X159937664Y-90531293D01*
X159937671Y-90531297D01*
X160072517Y-90581591D01*
X160072516Y-90581591D01*
X160079444Y-90582335D01*
X160132127Y-90588000D01*
X163227872Y-90587999D01*
X163287483Y-90581591D01*
X163422331Y-90531296D01*
X163504476Y-90469801D01*
X163569940Y-90445385D01*
X163638213Y-90460236D01*
X163666468Y-90481388D01*
X166895504Y-93710424D01*
X166928989Y-93771747D01*
X166931823Y-93798105D01*
X166931823Y-95727111D01*
X166912138Y-95794150D01*
X166895504Y-95814792D01*
X166787808Y-95922487D01*
X166787808Y-95922488D01*
X166787806Y-95922490D01*
X166747195Y-95978386D01*
X166648980Y-96113566D01*
X166541756Y-96324003D01*
X166468769Y-96548631D01*
X166431823Y-96781902D01*
X166431823Y-97018097D01*
X166468769Y-97251368D01*
X166541756Y-97475996D01*
X166648980Y-97686433D01*
X166787806Y-97877510D01*
X166954813Y-98044517D01*
X167145890Y-98183343D01*
X167245314Y-98234002D01*
X167356326Y-98290566D01*
X167356328Y-98290566D01*
X167356331Y-98290568D01*
X167476735Y-98329689D01*
X167580954Y-98363553D01*
X167814226Y-98400500D01*
X167814231Y-98400500D01*
X168050420Y-98400500D01*
X168283691Y-98363553D01*
X168508315Y-98290568D01*
X168718756Y-98183343D01*
X168909833Y-98044517D01*
X169076840Y-97877510D01*
X169215666Y-97686433D01*
X169322891Y-97475992D01*
X169395876Y-97251368D01*
X169432823Y-97018097D01*
X169432823Y-96781902D01*
X169395876Y-96548631D01*
X169322889Y-96324003D01*
X169266325Y-96212991D01*
X169215666Y-96113567D01*
X169076840Y-95922490D01*
X168969142Y-95814792D01*
X168935657Y-95753469D01*
X168932823Y-95727111D01*
X168932823Y-93233779D01*
X168912984Y-93134046D01*
X168912983Y-93134044D01*
X168911788Y-93128034D01*
X168894374Y-93040487D01*
X168859702Y-92956782D01*
X168818955Y-92858409D01*
X168818951Y-92858403D01*
X168709462Y-92694540D01*
X168567009Y-92552087D01*
X168566978Y-92552058D01*
X163968979Y-87954059D01*
X163968959Y-87954037D01*
X163825285Y-87810363D01*
X163825281Y-87810360D01*
X163735608Y-87750442D01*
X163690803Y-87696830D01*
X163680499Y-87647340D01*
X163680499Y-87124500D01*
X163700184Y-87057461D01*
X163752988Y-87011706D01*
X163804499Y-87000500D01*
X171375500Y-87000500D01*
X171442539Y-87020185D01*
X171488294Y-87072989D01*
X171499500Y-87124500D01*
X171499500Y-89024270D01*
X171479815Y-89091309D01*
X171427011Y-89137064D01*
X171357853Y-89147008D01*
X171294297Y-89117983D01*
X171256523Y-89059205D01*
X171255725Y-89056363D01*
X171251417Y-89040286D01*
X171193295Y-88823368D01*
X171087923Y-88568979D01*
X171087921Y-88568976D01*
X171087919Y-88568971D01*
X171022909Y-88456372D01*
X170950249Y-88330521D01*
X170782628Y-88112072D01*
X170782623Y-88112066D01*
X170587933Y-87917376D01*
X170587926Y-87917370D01*
X170369483Y-87749754D01*
X170369482Y-87749753D01*
X170369479Y-87749751D01*
X170274407Y-87694861D01*
X170131028Y-87612080D01*
X170131017Y-87612075D01*
X169876630Y-87506704D01*
X169743649Y-87471072D01*
X169610666Y-87435440D01*
X169610660Y-87435439D01*
X169610655Y-87435438D01*
X169337684Y-87399501D01*
X169337679Y-87399500D01*
X169337674Y-87399500D01*
X169062326Y-87399500D01*
X169062320Y-87399500D01*
X169062315Y-87399501D01*
X168789344Y-87435438D01*
X168789337Y-87435439D01*
X168789334Y-87435440D01*
X168733125Y-87450500D01*
X168523369Y-87506704D01*
X168268982Y-87612075D01*
X168268971Y-87612080D01*
X168030516Y-87749754D01*
X167812073Y-87917370D01*
X167812066Y-87917376D01*
X167617376Y-88112066D01*
X167617370Y-88112073D01*
X167449754Y-88330516D01*
X167312080Y-88568971D01*
X167312075Y-88568982D01*
X167206704Y-88823369D01*
X167135441Y-89089331D01*
X167135438Y-89089344D01*
X167099501Y-89362315D01*
X167099500Y-89362332D01*
X167099500Y-89637667D01*
X167099501Y-89637684D01*
X167135438Y-89910655D01*
X167135439Y-89910660D01*
X167135440Y-89910666D01*
X167156658Y-89989852D01*
X167206704Y-90176630D01*
X167312075Y-90431017D01*
X167312080Y-90431028D01*
X167343760Y-90485898D01*
X167449751Y-90669479D01*
X167449753Y-90669482D01*
X167449754Y-90669483D01*
X167617370Y-90887926D01*
X167617376Y-90887933D01*
X167812066Y-91082623D01*
X167812073Y-91082629D01*
X167907663Y-91155977D01*
X168030521Y-91250249D01*
X168148735Y-91318500D01*
X168268971Y-91387919D01*
X168268976Y-91387921D01*
X168268979Y-91387923D01*
X168523368Y-91493295D01*
X168789334Y-91564560D01*
X169062326Y-91600500D01*
X169062333Y-91600500D01*
X169337667Y-91600500D01*
X169337674Y-91600500D01*
X169610666Y-91564560D01*
X169876632Y-91493295D01*
X170131021Y-91387923D01*
X170369479Y-91250249D01*
X170587928Y-91082628D01*
X170782628Y-90887928D01*
X170950249Y-90669479D01*
X171087923Y-90431021D01*
X171193295Y-90176632D01*
X171255726Y-89943633D01*
X171292090Y-89883975D01*
X171354937Y-89853446D01*
X171424312Y-89861741D01*
X171478190Y-89906226D01*
X171499465Y-89972778D01*
X171499500Y-89975729D01*
X171499500Y-101376000D01*
X171479815Y-101443039D01*
X171427011Y-101488794D01*
X171375500Y-101500000D01*
X163624000Y-101500000D01*
X163556961Y-101480315D01*
X163511206Y-101427511D01*
X163500000Y-101376000D01*
X163500000Y-98524499D01*
X163519685Y-98457460D01*
X163572489Y-98411705D01*
X163624000Y-98400499D01*
X163732325Y-98400499D01*
X163732331Y-98400499D01*
X163835120Y-98389999D01*
X164001657Y-98334814D01*
X164150979Y-98242712D01*
X164275035Y-98118656D01*
X164367137Y-97969334D01*
X164422322Y-97802797D01*
X164432823Y-97700009D01*
X164432822Y-96099992D01*
X164422322Y-95997203D01*
X164367137Y-95830666D01*
X164275035Y-95681344D01*
X164150979Y-95557288D01*
X164001657Y-95465186D01*
X164001655Y-95465185D01*
X163995510Y-95461395D01*
X163996613Y-95459605D01*
X163951972Y-95420290D01*
X163932823Y-95354091D01*
X163932823Y-94533779D01*
X163894375Y-94340493D01*
X163894374Y-94340492D01*
X163894374Y-94340488D01*
X163894372Y-94340483D01*
X163818958Y-94158415D01*
X163818951Y-94158402D01*
X163709463Y-93994542D01*
X163686968Y-93972047D01*
X163570105Y-93855184D01*
X163570104Y-93855183D01*
X161403208Y-91688288D01*
X161403206Y-91688285D01*
X161403206Y-91688286D01*
X161396139Y-91681219D01*
X161396139Y-91681218D01*
X161256782Y-91541861D01*
X161256781Y-91541860D01*
X161256780Y-91541859D01*
X161092920Y-91432371D01*
X161092911Y-91432366D01*
X161020315Y-91402296D01*
X160964165Y-91379038D01*
X160910836Y-91356949D01*
X160910832Y-91356948D01*
X160910828Y-91356946D01*
X160814188Y-91337724D01*
X160717544Y-91318500D01*
X160717541Y-91318500D01*
X155935460Y-91318500D01*
X155935456Y-91318500D01*
X155838813Y-91337724D01*
X155742168Y-91356947D01*
X155742162Y-91356949D01*
X155688835Y-91379037D01*
X155688835Y-91379038D01*
X155667383Y-91387924D01*
X155560090Y-91432366D01*
X155560080Y-91432371D01*
X155396220Y-91541859D01*
X155337582Y-91600498D01*
X155256862Y-91681218D01*
X155256859Y-91681221D01*
X151461899Y-95476182D01*
X151400576Y-95509667D01*
X151374218Y-95512501D01*
X150602273Y-95512501D01*
X150545978Y-95498986D01*
X150459223Y-95454781D01*
X150264534Y-95391522D01*
X150080788Y-95362420D01*
X150062352Y-95359500D01*
X149057648Y-95359500D01*
X149039212Y-95362420D01*
X148855465Y-95391522D01*
X148660776Y-95454781D01*
X148478386Y-95547715D01*
X148312786Y-95668028D01*
X148168028Y-95812786D01*
X148047715Y-95978386D01*
X147954781Y-96160776D01*
X147891522Y-96355465D01*
X147860928Y-96548631D01*
X147859500Y-96557648D01*
X147859500Y-96762352D01*
X147863613Y-96788319D01*
X147874428Y-96856602D01*
X147865473Y-96925895D01*
X147820477Y-96979347D01*
X147753726Y-96999987D01*
X147751955Y-97000000D01*
X136500000Y-97000000D01*
X136500000Y-113195780D01*
X136480315Y-113262819D01*
X136438002Y-113303166D01*
X136414154Y-113316934D01*
X136386197Y-113333076D01*
X136386194Y-113333078D01*
X136386191Y-113333080D01*
X136178148Y-113492718D01*
X135992718Y-113678148D01*
X135833075Y-113886196D01*
X135701958Y-114113299D01*
X135701953Y-114113309D01*
X135601605Y-114355571D01*
X135601602Y-114355581D01*
X135533730Y-114608885D01*
X135499500Y-114868872D01*
X135499500Y-115131127D01*
X135526123Y-115333339D01*
X135533730Y-115391116D01*
X135601602Y-115644418D01*
X135601605Y-115644428D01*
X135701953Y-115886690D01*
X135701958Y-115886700D01*
X135833075Y-116113803D01*
X135992718Y-116321851D01*
X135992726Y-116321860D01*
X136178140Y-116507274D01*
X136178148Y-116507281D01*
X136178149Y-116507282D01*
X136386197Y-116666924D01*
X136437999Y-116696831D01*
X136446283Y-116705519D01*
X136457203Y-116710506D01*
X136469948Y-116730337D01*
X136486215Y-116747398D01*
X136489431Y-116760654D01*
X136494977Y-116769284D01*
X136500000Y-116804219D01*
X136500000Y-116875500D01*
X136480315Y-116942539D01*
X136427511Y-116988294D01*
X136376000Y-116999500D01*
X129624500Y-116999500D01*
X129557461Y-116979815D01*
X129511706Y-116927011D01*
X129500500Y-116875500D01*
X129500500Y-108975729D01*
X129520185Y-108908690D01*
X129572989Y-108862935D01*
X129642147Y-108852991D01*
X129705703Y-108882016D01*
X129743477Y-108940794D01*
X129744258Y-108943576D01*
X129783065Y-109088408D01*
X129806704Y-109176630D01*
X129912075Y-109431017D01*
X129912080Y-109431028D01*
X129994861Y-109574407D01*
X130049751Y-109669479D01*
X130049753Y-109669482D01*
X130049754Y-109669483D01*
X130217370Y-109887926D01*
X130217376Y-109887933D01*
X130412066Y-110082623D01*
X130412072Y-110082628D01*
X130630521Y-110250249D01*
X130783778Y-110338732D01*
X130868971Y-110387919D01*
X130868976Y-110387921D01*
X130868979Y-110387923D01*
X131123368Y-110493295D01*
X131389334Y-110564560D01*
X131662326Y-110600500D01*
X131662333Y-110600500D01*
X131937667Y-110600500D01*
X131937674Y-110600500D01*
X132210666Y-110564560D01*
X132476632Y-110493295D01*
X132731021Y-110387923D01*
X132969479Y-110250249D01*
X133187928Y-110082628D01*
X133382628Y-109887928D01*
X133550249Y-109669479D01*
X133687923Y-109431021D01*
X133793295Y-109176632D01*
X133864560Y-108910666D01*
X133900500Y-108637674D01*
X133900500Y-108362326D01*
X133864560Y-108089334D01*
X133793295Y-107823368D01*
X133687923Y-107568979D01*
X133687921Y-107568976D01*
X133687919Y-107568971D01*
X133638732Y-107483778D01*
X133550249Y-107330521D01*
X133382628Y-107112072D01*
X133382623Y-107112066D01*
X133187933Y-106917376D01*
X133187926Y-106917370D01*
X132969483Y-106749754D01*
X132969482Y-106749753D01*
X132969479Y-106749751D01*
X132874407Y-106694861D01*
X132731028Y-106612080D01*
X132731017Y-106612075D01*
X132476630Y-106506704D01*
X132343649Y-106471072D01*
X132210666Y-106435440D01*
X132210660Y-106435439D01*
X132210655Y-106435438D01*
X131937684Y-106399501D01*
X131937679Y-106399500D01*
X131937674Y-106399500D01*
X131662326Y-106399500D01*
X131662320Y-106399500D01*
X131662315Y-106399501D01*
X131389344Y-106435438D01*
X131389337Y-106435439D01*
X131389334Y-106435440D01*
X131333125Y-106450500D01*
X131123369Y-106506704D01*
X130868982Y-106612075D01*
X130868971Y-106612080D01*
X130630516Y-106749754D01*
X130412073Y-106917370D01*
X130412066Y-106917376D01*
X130217376Y-107112066D01*
X130217370Y-107112073D01*
X130049754Y-107330516D01*
X129912080Y-107568971D01*
X129912075Y-107568982D01*
X129806704Y-107823369D01*
X129744275Y-108056363D01*
X129707910Y-108116024D01*
X129645063Y-108146553D01*
X129575688Y-108138258D01*
X129521810Y-108093773D01*
X129500535Y-108027221D01*
X129500500Y-108024270D01*
X129500500Y-101197648D01*
X130399500Y-101197648D01*
X130399500Y-101402351D01*
X130431522Y-101604534D01*
X130494781Y-101799223D01*
X130587715Y-101981613D01*
X130708028Y-102147213D01*
X130852786Y-102291971D01*
X131007749Y-102404556D01*
X131018390Y-102412287D01*
X131134607Y-102471503D01*
X131200776Y-102505218D01*
X131200778Y-102505218D01*
X131200781Y-102505220D01*
X131305137Y-102539127D01*
X131395465Y-102568477D01*
X131496557Y-102584488D01*
X131597648Y-102600500D01*
X131597649Y-102600500D01*
X131802351Y-102600500D01*
X131802352Y-102600500D01*
X132004534Y-102568477D01*
X132199219Y-102505220D01*
X132381610Y-102412287D01*
X132474590Y-102344732D01*
X132547213Y-102291971D01*
X132547215Y-102291968D01*
X132547219Y-102291966D01*
X132691966Y-102147219D01*
X132691968Y-102147215D01*
X132691971Y-102147213D01*
X132744732Y-102074590D01*
X132812287Y-101981610D01*
X132905220Y-101799219D01*
X132968477Y-101604534D01*
X133000500Y-101402352D01*
X133000500Y-101197648D01*
X132968477Y-100995466D01*
X132905220Y-100800781D01*
X132905218Y-100800778D01*
X132905218Y-100800776D01*
X132871503Y-100734607D01*
X132812287Y-100618390D01*
X132804556Y-100607749D01*
X132691971Y-100452786D01*
X132547213Y-100308028D01*
X132381613Y-100187715D01*
X132381612Y-100187714D01*
X132381610Y-100187713D01*
X132324653Y-100158691D01*
X132199223Y-100094781D01*
X132004534Y-100031522D01*
X131829995Y-100003878D01*
X131802352Y-99999500D01*
X131597648Y-99999500D01*
X131573329Y-100003351D01*
X131395465Y-100031522D01*
X131200776Y-100094781D01*
X131018386Y-100187715D01*
X130852786Y-100308028D01*
X130708028Y-100452786D01*
X130587715Y-100618386D01*
X130494781Y-100800776D01*
X130431522Y-100995465D01*
X130399500Y-101197648D01*
X129500500Y-101197648D01*
X129500500Y-93352135D01*
X132829500Y-93352135D01*
X132829500Y-95247870D01*
X132829501Y-95247876D01*
X132835908Y-95307483D01*
X132886202Y-95442328D01*
X132886206Y-95442335D01*
X132972452Y-95557544D01*
X132972455Y-95557547D01*
X133087664Y-95643793D01*
X133087671Y-95643797D01*
X133222517Y-95694091D01*
X133222516Y-95694091D01*
X133229444Y-95694835D01*
X133282127Y-95700500D01*
X135177872Y-95700499D01*
X135237483Y-95694091D01*
X135372331Y-95643796D01*
X135487546Y-95557546D01*
X135573796Y-95442331D01*
X135573798Y-95442326D01*
X135603601Y-95362420D01*
X135645471Y-95306486D01*
X135710936Y-95282068D01*
X135779209Y-95296919D01*
X135807464Y-95318071D01*
X135857636Y-95368243D01*
X135857641Y-95368247D01*
X135959603Y-95442326D01*
X136035978Y-95497815D01*
X136164375Y-95563237D01*
X136232393Y-95597895D01*
X136232396Y-95597896D01*
X136337221Y-95631955D01*
X136442049Y-95666015D01*
X136659778Y-95700500D01*
X136659779Y-95700500D01*
X136880221Y-95700500D01*
X136880222Y-95700500D01*
X137097951Y-95666015D01*
X137307606Y-95597895D01*
X137504022Y-95497815D01*
X137682365Y-95368242D01*
X137838242Y-95212365D01*
X137967815Y-95034022D01*
X138067895Y-94837606D01*
X138136015Y-94627951D01*
X138170500Y-94410222D01*
X138170500Y-94189778D01*
X138169767Y-94185148D01*
X139559500Y-94185148D01*
X139559500Y-94389851D01*
X139591522Y-94592034D01*
X139654781Y-94786723D01*
X139680708Y-94837606D01*
X139746749Y-94967219D01*
X139747715Y-94969113D01*
X139868028Y-95134713D01*
X140012786Y-95279471D01*
X140162823Y-95388477D01*
X140178390Y-95399787D01*
X140281867Y-95452511D01*
X140360776Y-95492718D01*
X140360778Y-95492718D01*
X140360781Y-95492720D01*
X140421661Y-95512501D01*
X140555465Y-95555977D01*
X140565378Y-95557547D01*
X140757648Y-95588000D01*
X140757649Y-95588000D01*
X140962351Y-95588000D01*
X140962352Y-95588000D01*
X141164534Y-95555977D01*
X141359219Y-95492720D01*
X141541610Y-95399787D01*
X141653417Y-95318555D01*
X141707213Y-95279471D01*
X141707215Y-95279468D01*
X141707219Y-95279466D01*
X141851966Y-95134719D01*
X141851968Y-95134715D01*
X141851971Y-95134713D01*
X141925126Y-95034022D01*
X141972287Y-94969110D01*
X142065220Y-94786719D01*
X142128477Y-94592034D01*
X142160500Y-94389852D01*
X142160500Y-94185148D01*
X142133970Y-94017648D01*
X142128477Y-93982965D01*
X142074053Y-93815466D01*
X142065220Y-93788281D01*
X142065218Y-93788278D01*
X142065218Y-93788276D01*
X141979874Y-93620781D01*
X141972287Y-93605890D01*
X141964556Y-93595249D01*
X141851971Y-93440286D01*
X141707213Y-93295528D01*
X141541613Y-93175215D01*
X141541612Y-93175214D01*
X141541610Y-93175213D01*
X141484653Y-93146191D01*
X141359223Y-93082281D01*
X141164534Y-93019022D01*
X140989995Y-92991378D01*
X140962352Y-92987000D01*
X140757648Y-92987000D01*
X140733329Y-92990851D01*
X140555465Y-93019022D01*
X140360776Y-93082281D01*
X140178386Y-93175215D01*
X140012786Y-93295528D01*
X139868028Y-93440286D01*
X139747715Y-93605886D01*
X139654781Y-93788276D01*
X139591522Y-93982965D01*
X139559500Y-94185148D01*
X138169767Y-94185148D01*
X138136015Y-93972049D01*
X138076306Y-93788281D01*
X138067896Y-93762396D01*
X138067895Y-93762393D01*
X138033237Y-93694375D01*
X137967815Y-93565978D01*
X137876495Y-93440286D01*
X137838247Y-93387641D01*
X137838243Y-93387636D01*
X137682367Y-93231760D01*
X137682365Y-93231758D01*
X137571613Y-93151291D01*
X137528949Y-93095963D01*
X137520500Y-93050975D01*
X137520500Y-91529728D01*
X137540185Y-91462689D01*
X137556815Y-91442051D01*
X137784894Y-91213971D01*
X137846215Y-91180488D01*
X137891970Y-91179181D01*
X137947648Y-91188000D01*
X137947649Y-91188000D01*
X138152351Y-91188000D01*
X138152352Y-91188000D01*
X138354534Y-91155977D01*
X138549219Y-91092720D01*
X138731610Y-90999787D01*
X138824590Y-90932232D01*
X138897213Y-90879471D01*
X138897215Y-90879468D01*
X138897219Y-90879466D01*
X139041966Y-90734719D01*
X139041968Y-90734715D01*
X139041971Y-90734713D01*
X139094732Y-90662090D01*
X139162287Y-90569110D01*
X139255220Y-90386719D01*
X139318477Y-90192034D01*
X139350500Y-89989852D01*
X139350500Y-89785148D01*
X139318477Y-89582966D01*
X139255220Y-89388281D01*
X139255218Y-89388278D01*
X139255218Y-89388276D01*
X139221503Y-89322107D01*
X139162287Y-89205890D01*
X139119507Y-89147008D01*
X139041971Y-89040286D01*
X138897213Y-88895528D01*
X138731613Y-88775215D01*
X138731612Y-88775214D01*
X138731610Y-88775213D01*
X138674653Y-88746191D01*
X138549223Y-88682281D01*
X138354534Y-88619022D01*
X138179995Y-88591378D01*
X138152352Y-88587000D01*
X137947648Y-88587000D01*
X137923329Y-88590851D01*
X137745465Y-88619022D01*
X137550776Y-88682281D01*
X137368386Y-88775215D01*
X137202786Y-88895528D01*
X137058028Y-89040286D01*
X136937715Y-89205886D01*
X136844781Y-89388276D01*
X136781522Y-89582965D01*
X136749500Y-89785148D01*
X136749500Y-89989851D01*
X136758318Y-90045526D01*
X136749363Y-90114820D01*
X136723526Y-90152605D01*
X136187050Y-90689080D01*
X136187044Y-90689088D01*
X136137812Y-90762768D01*
X136137813Y-90762769D01*
X136104921Y-90811996D01*
X136104914Y-90812008D01*
X136048342Y-90948586D01*
X136048340Y-90948592D01*
X136019500Y-91093579D01*
X136019500Y-93050975D01*
X136018956Y-93052825D01*
X136019444Y-93054690D01*
X136009154Y-93086208D01*
X135999815Y-93118014D01*
X135998169Y-93119857D01*
X135997760Y-93121110D01*
X135989142Y-93129964D01*
X135973859Y-93147079D01*
X135971188Y-93149256D01*
X135857635Y-93231758D01*
X135803016Y-93286376D01*
X135798142Y-93290351D01*
X135771501Y-93301564D01*
X135746140Y-93315413D01*
X135739697Y-93314952D01*
X135733745Y-93317458D01*
X135705271Y-93312489D01*
X135676448Y-93310428D01*
X135671278Y-93306558D01*
X135664915Y-93305448D01*
X135643650Y-93285875D01*
X135620515Y-93268557D01*
X135616151Y-93260566D01*
X135613506Y-93258131D01*
X135612297Y-93253507D01*
X135603601Y-93237580D01*
X135573797Y-93157671D01*
X135573793Y-93157664D01*
X135487547Y-93042455D01*
X135487544Y-93042452D01*
X135372335Y-92956206D01*
X135372328Y-92956202D01*
X135237482Y-92905908D01*
X135237483Y-92905908D01*
X135177883Y-92899501D01*
X135177881Y-92899500D01*
X135177873Y-92899500D01*
X135177864Y-92899500D01*
X133282129Y-92899500D01*
X133282123Y-92899501D01*
X133222516Y-92905908D01*
X133087671Y-92956202D01*
X133087664Y-92956206D01*
X132972455Y-93042452D01*
X132972452Y-93042455D01*
X132886206Y-93157664D01*
X132886202Y-93157671D01*
X132835908Y-93292517D01*
X132829501Y-93352116D01*
X132829500Y-93352135D01*
X129500500Y-93352135D01*
X129500500Y-89975729D01*
X129520185Y-89908690D01*
X129572989Y-89862935D01*
X129642147Y-89852991D01*
X129705703Y-89882016D01*
X129743477Y-89940794D01*
X129744258Y-89943576D01*
X129783065Y-90088408D01*
X129806704Y-90176630D01*
X129912075Y-90431017D01*
X129912080Y-90431028D01*
X129943760Y-90485898D01*
X130049751Y-90669479D01*
X130049753Y-90669482D01*
X130049754Y-90669483D01*
X130217370Y-90887926D01*
X130217376Y-90887933D01*
X130412066Y-91082623D01*
X130412073Y-91082629D01*
X130507663Y-91155977D01*
X130630521Y-91250249D01*
X130748735Y-91318500D01*
X130868971Y-91387919D01*
X130868976Y-91387921D01*
X130868979Y-91387923D01*
X131123368Y-91493295D01*
X131389334Y-91564560D01*
X131662326Y-91600500D01*
X131662333Y-91600500D01*
X131937667Y-91600500D01*
X131937674Y-91600500D01*
X132210666Y-91564560D01*
X132476632Y-91493295D01*
X132731021Y-91387923D01*
X132969479Y-91250249D01*
X133187928Y-91082628D01*
X133382628Y-90887928D01*
X133550249Y-90669479D01*
X133687923Y-90431021D01*
X133793295Y-90176632D01*
X133864560Y-89910666D01*
X133900500Y-89637674D01*
X133900500Y-89362326D01*
X133864560Y-89089334D01*
X133793295Y-88823368D01*
X133687923Y-88568979D01*
X133687921Y-88568976D01*
X133687919Y-88568971D01*
X133622909Y-88456372D01*
X133550249Y-88330521D01*
X133382628Y-88112072D01*
X133382623Y-88112066D01*
X133187933Y-87917376D01*
X133187926Y-87917370D01*
X132969483Y-87749754D01*
X132969482Y-87749753D01*
X132969479Y-87749751D01*
X132874407Y-87694861D01*
X132731028Y-87612080D01*
X132731017Y-87612075D01*
X132476630Y-87506704D01*
X132343649Y-87471072D01*
X132210666Y-87435440D01*
X132210660Y-87435439D01*
X132210655Y-87435438D01*
X131937684Y-87399501D01*
X131937679Y-87399500D01*
X131937674Y-87399500D01*
X131662326Y-87399500D01*
X131662320Y-87399500D01*
X131662315Y-87399501D01*
X131389344Y-87435438D01*
X131389337Y-87435439D01*
X131389334Y-87435440D01*
X131333125Y-87450500D01*
X131123369Y-87506704D01*
X130868982Y-87612075D01*
X130868971Y-87612080D01*
X130630516Y-87749754D01*
X130412073Y-87917370D01*
X130412066Y-87917376D01*
X130217376Y-88112066D01*
X130217370Y-88112073D01*
X130049754Y-88330516D01*
X129912080Y-88568971D01*
X129912075Y-88568982D01*
X129806704Y-88823369D01*
X129787370Y-88895528D01*
X129748583Y-89040286D01*
X129744275Y-89056363D01*
X129707910Y-89116024D01*
X129645063Y-89146553D01*
X129575688Y-89138258D01*
X129521810Y-89093773D01*
X129500535Y-89027221D01*
X129500500Y-89024270D01*
X129500500Y-87124500D01*
X129520185Y-87057461D01*
X129572989Y-87011706D01*
X129624500Y-87000500D01*
X155058504Y-87000500D01*
X155125543Y-87020185D01*
G37*
%TD.AperFunction*%
%TD*%
M02*
