%TF.GenerationSoftware,KiCad,Pcbnew,9.0.4*%
%TF.CreationDate,2025-09-13T17:50:02+02:00*%
%TF.ProjectId,TDA7267,54444137-3236-4372-9e6b-696361645f70,rev?*%
%TF.SameCoordinates,Original*%
%TF.FileFunction,Copper,L2,Bot*%
%TF.FilePolarity,Positive*%
%FSLAX46Y46*%
G04 Gerber Fmt 4.6, Leading zero omitted, Abs format (unit mm)*
G04 Created by KiCad (PCBNEW 9.0.4) date 2025-09-13 17:50:02*
%MOMM*%
%LPD*%
G01*
G04 APERTURE LIST*
G04 Aperture macros list*
%AMRoundRect*
0 Rectangle with rounded corners*
0 $1 Rounding radius*
0 $2 $3 $4 $5 $6 $7 $8 $9 X,Y pos of 4 corners*
0 Add a 4 corners polygon primitive as box body*
4,1,4,$2,$3,$4,$5,$6,$7,$8,$9,$2,$3,0*
0 Add four circle primitives for the rounded corners*
1,1,$1+$1,$2,$3*
1,1,$1+$1,$4,$5*
1,1,$1+$1,$6,$7*
1,1,$1+$1,$8,$9*
0 Add four rect primitives between the rounded corners*
20,1,$1+$1,$2,$3,$4,$5,0*
20,1,$1+$1,$4,$5,$6,$7,0*
20,1,$1+$1,$6,$7,$8,$9,0*
20,1,$1+$1,$8,$9,$2,$3,0*%
G04 Aperture macros list end*
%TA.AperFunction,ComponentPad*%
%ADD10C,1.600000*%
%TD*%
%TA.AperFunction,ComponentPad*%
%ADD11R,3.000000X3.000000*%
%TD*%
%TA.AperFunction,ComponentPad*%
%ADD12C,3.000000*%
%TD*%
%TA.AperFunction,ComponentPad*%
%ADD13R,1.800000X1.800000*%
%TD*%
%TA.AperFunction,ComponentPad*%
%ADD14C,1.800000*%
%TD*%
%TA.AperFunction,ComponentPad*%
%ADD15RoundRect,0.250000X-0.950000X-0.550000X0.950000X-0.550000X0.950000X0.550000X-0.950000X0.550000X0*%
%TD*%
%TA.AperFunction,ComponentPad*%
%ADD16O,2.400000X1.600000*%
%TD*%
%TA.AperFunction,ComponentPad*%
%ADD17RoundRect,0.250000X-0.550000X-0.550000X0.550000X-0.550000X0.550000X0.550000X-0.550000X0.550000X0*%
%TD*%
%TA.AperFunction,ComponentPad*%
%ADD18RoundRect,0.250000X-0.750000X-0.750000X0.750000X-0.750000X0.750000X0.750000X-0.750000X0.750000X0*%
%TD*%
%TA.AperFunction,ComponentPad*%
%ADD19C,2.000000*%
%TD*%
%TA.AperFunction,ComponentPad*%
%ADD20RoundRect,0.250000X0.550000X0.550000X-0.550000X0.550000X-0.550000X-0.550000X0.550000X-0.550000X0*%
%TD*%
%TA.AperFunction,ComponentPad*%
%ADD21C,2.340000*%
%TD*%
%TA.AperFunction,Conductor*%
%ADD22C,0.500000*%
%TD*%
%TA.AperFunction,Conductor*%
%ADD23C,1.000000*%
%TD*%
G04 APERTURE END LIST*
D10*
%TO.P,C3,1*%
%TO.N,GND*%
X140560000Y-105647500D03*
%TO.P,C3,2*%
%TO.N,Net-(U1-In)*%
X140560000Y-100647500D03*
%TD*%
D11*
%TO.P,IN1,1,Pin_1*%
%TO.N,Net-(IN1-Pin_1)*%
X162960000Y-115000000D03*
D12*
%TO.P,IN1,2,Pin_2*%
%TO.N,GND*%
X168040000Y-115000000D03*
%TD*%
D10*
%TO.P,R1,1*%
%TO.N,Net-(C1-Pad2)*%
X145560000Y-107147500D03*
%TO.P,R1,2*%
%TO.N,Net-(U1-In)*%
X145560000Y-99527500D03*
%TD*%
D13*
%TO.P,D1,1,K*%
%TO.N,GND*%
X134230000Y-94300000D03*
D14*
%TO.P,D1,2,A*%
%TO.N,Net-(D1-A)*%
X136770000Y-94300000D03*
%TD*%
D11*
%TO.P,OUT1,1,Pin_1*%
%TO.N,Net-(OUT1-Pin_1)*%
X161680000Y-88587500D03*
D12*
%TO.P,OUT1,2,Pin_2*%
%TO.N,GND*%
X156600000Y-88587500D03*
%TD*%
D10*
%TO.P,C5,1*%
%TO.N,GND*%
X140860000Y-94287500D03*
%TO.P,C5,2*%
%TO.N,/VCC*%
X145860000Y-94287500D03*
%TD*%
%TO.P,C1,1*%
%TO.N,Net-(C1-Pad1)*%
X155500000Y-105900000D03*
%TO.P,C1,2*%
%TO.N,Net-(C1-Pad2)*%
X150500000Y-105900000D03*
%TD*%
D15*
%TO.P,U1,1,V+*%
%TO.N,/VCC*%
X149560000Y-94120000D03*
D16*
%TO.P,U1,2,Out*%
%TO.N,Net-(U1-Out)*%
X149560000Y-96660000D03*
%TO.P,U1,3,SRV*%
%TO.N,Net-(U1-SRV)*%
X149560000Y-99200000D03*
%TO.P,U1,4,In*%
%TO.N,Net-(U1-In)*%
X149560000Y-101740000D03*
%TO.P,U1,5,GND*%
%TO.N,GND*%
X157180000Y-101740000D03*
%TO.P,U1,6,GND*%
X157180000Y-99200000D03*
%TO.P,U1,7,GND*%
X157180000Y-96660000D03*
%TO.P,U1,8,GND*%
X157180000Y-94120000D03*
%TD*%
D10*
%TO.P,R2,1*%
%TO.N,Net-(D1-A)*%
X138050000Y-89887500D03*
%TO.P,R2,2*%
%TO.N,/VCC*%
X145670000Y-89887500D03*
%TD*%
D11*
%TO.P,VCC1,1,Pin_1*%
%TO.N,/VCC*%
X132420000Y-115000000D03*
D12*
%TO.P,VCC1,2,Pin_2*%
%TO.N,GND*%
X137500000Y-115000000D03*
%TD*%
D17*
%TO.P,C2,1*%
%TO.N,Net-(U1-SRV)*%
X160497349Y-106600000D03*
D10*
%TO.P,C2,2*%
%TO.N,GND*%
X164297349Y-106600000D03*
%TD*%
D18*
%TO.P,C6,1*%
%TO.N,Net-(U1-Out)*%
X162932323Y-96900000D03*
D19*
%TO.P,C6,2*%
%TO.N,Net-(OUT1-Pin_1)*%
X167932323Y-96900000D03*
%TD*%
D20*
%TO.P,C4,1*%
%TO.N,/VCC*%
X135250000Y-101300000D03*
D10*
%TO.P,C4,2*%
%TO.N,GND*%
X131450000Y-101300000D03*
%TD*%
D21*
%TO.P,RV1,1,1*%
%TO.N,Net-(IN1-Pin_1)*%
X145000000Y-114750000D03*
%TO.P,RV1,2,2*%
%TO.N,Net-(C1-Pad1)*%
X150000000Y-114750000D03*
%TO.P,RV1,3,3*%
%TO.N,GND*%
X155000000Y-114750000D03*
%TD*%
D22*
%TO.N,Net-(C1-Pad2)*%
X145560000Y-107147500D02*
X149252500Y-107147500D01*
X149252500Y-107147500D02*
X150500000Y-105900000D01*
%TO.N,Net-(C1-Pad1)*%
X155500000Y-107400000D02*
X155500000Y-105900000D01*
X150000000Y-114750000D02*
X150000000Y-112900000D01*
X150000000Y-112900000D02*
X155500000Y-107400000D01*
%TO.N,Net-(U1-SRV)*%
X160497349Y-106600000D02*
X160497349Y-104697349D01*
X149560000Y-99200000D02*
X152600000Y-99200000D01*
X159200000Y-103400000D02*
X156246555Y-103400000D01*
X153700000Y-100853445D02*
X153700000Y-100700000D01*
X153700000Y-100300000D02*
X153700000Y-100700000D01*
X152600000Y-99200000D02*
X153700000Y-100300000D01*
X160497349Y-104697349D02*
X159200000Y-103400000D01*
X156246555Y-103400000D02*
X153700000Y-100853445D01*
%TO.N,Net-(U1-In)*%
X140560000Y-100647500D02*
X141400000Y-99807500D01*
X145560000Y-99527500D02*
X147772500Y-101740000D01*
X141672500Y-99527500D02*
X145560000Y-99527500D01*
X147772500Y-101740000D02*
X149560000Y-101740000D01*
X141400000Y-99800000D02*
X141672500Y-99527500D01*
X141400000Y-99807500D02*
X141400000Y-99800000D01*
D23*
%TO.N,Net-(U1-Out)*%
X156034001Y-92319000D02*
X151840000Y-96513001D01*
X160619000Y-92319000D02*
X156034001Y-92319000D01*
X162932323Y-94632323D02*
X162932323Y-96900000D01*
X151840000Y-96513001D02*
X149706999Y-96513001D01*
X149706999Y-96513001D02*
X149560000Y-96660000D01*
X160619000Y-92319000D02*
X162932323Y-94632323D01*
%TO.N,Net-(OUT1-Pin_1)*%
X163187500Y-88587500D02*
X167932323Y-93332323D01*
X167932323Y-93332323D02*
X167932323Y-96900000D01*
X163187500Y-88587500D02*
X161680000Y-88587500D01*
D22*
%TO.N,Net-(D1-A)*%
X136770000Y-91167500D02*
X138050000Y-89887500D01*
X136770000Y-94300000D02*
X136770000Y-91167500D01*
%TO.N,Net-(IN1-Pin_1)*%
X161551000Y-116749000D02*
X146999000Y-116749000D01*
X162960000Y-115340000D02*
X161551000Y-116749000D01*
X146999000Y-116749000D02*
X145000000Y-114750000D01*
X162960000Y-115000000D02*
X162960000Y-115340000D01*
%TD*%
%TA.AperFunction,Conductor*%
%TO.N,GND*%
G36*
X160220257Y-93339185D02*
G01*
X160240899Y-93355819D01*
X161895504Y-95010424D01*
X161928989Y-95071747D01*
X161931823Y-95098105D01*
X161931823Y-95354091D01*
X161912138Y-95421130D01*
X161868054Y-95459641D01*
X161869136Y-95461395D01*
X161862990Y-95465185D01*
X161862989Y-95465186D01*
X161818349Y-95492720D01*
X161713665Y-95557289D01*
X161589612Y-95681342D01*
X161497510Y-95830663D01*
X161497509Y-95830666D01*
X161442324Y-95997203D01*
X161442324Y-95997204D01*
X161442323Y-95997204D01*
X161431823Y-96099983D01*
X161431823Y-97700001D01*
X161431824Y-97700018D01*
X161442323Y-97802796D01*
X161442324Y-97802799D01*
X161497508Y-97969331D01*
X161497510Y-97969336D01*
X161513204Y-97994780D01*
X161589611Y-98118656D01*
X161713667Y-98242712D01*
X161862989Y-98334814D01*
X162029526Y-98389999D01*
X162132314Y-98400500D01*
X163155253Y-98400499D01*
X163222291Y-98420183D01*
X163268046Y-98472987D01*
X163278913Y-98515339D01*
X163500000Y-101500000D01*
X171375500Y-101500000D01*
X171442539Y-101519685D01*
X171488294Y-101572489D01*
X171499500Y-101624000D01*
X171499500Y-108024270D01*
X171479815Y-108091309D01*
X171427011Y-108137064D01*
X171357853Y-108147008D01*
X171294297Y-108117983D01*
X171256523Y-108059205D01*
X171255725Y-108056363D01*
X171239207Y-107994717D01*
X171193295Y-107823368D01*
X171087923Y-107568979D01*
X171087921Y-107568976D01*
X171087919Y-107568971D01*
X171030391Y-107469331D01*
X170950249Y-107330521D01*
X170850111Y-107200018D01*
X170782629Y-107112073D01*
X170782623Y-107112066D01*
X170587933Y-106917376D01*
X170587926Y-106917370D01*
X170369483Y-106749754D01*
X170369482Y-106749753D01*
X170369479Y-106749751D01*
X170274407Y-106694861D01*
X170131028Y-106612080D01*
X170131017Y-106612075D01*
X169876630Y-106506704D01*
X169743649Y-106471072D01*
X169610666Y-106435440D01*
X169610660Y-106435439D01*
X169610655Y-106435438D01*
X169337684Y-106399501D01*
X169337679Y-106399500D01*
X169337674Y-106399500D01*
X169062326Y-106399500D01*
X169062320Y-106399500D01*
X169062315Y-106399501D01*
X168789344Y-106435438D01*
X168789337Y-106435439D01*
X168789334Y-106435440D01*
X168733125Y-106450500D01*
X168523369Y-106506704D01*
X168268982Y-106612075D01*
X168268971Y-106612080D01*
X168030516Y-106749754D01*
X167812073Y-106917370D01*
X167812066Y-106917376D01*
X167617376Y-107112066D01*
X167617370Y-107112073D01*
X167449754Y-107330516D01*
X167312080Y-107568971D01*
X167312075Y-107568982D01*
X167206704Y-107823369D01*
X167135441Y-108089331D01*
X167135438Y-108089344D01*
X167099501Y-108362315D01*
X167099500Y-108362332D01*
X167099500Y-108637667D01*
X167099501Y-108637684D01*
X167135438Y-108910655D01*
X167135439Y-108910660D01*
X167135440Y-108910666D01*
X167171072Y-109043649D01*
X167206704Y-109176630D01*
X167312075Y-109431017D01*
X167312080Y-109431028D01*
X167394861Y-109574407D01*
X167449751Y-109669479D01*
X167449753Y-109669482D01*
X167449754Y-109669483D01*
X167617370Y-109887926D01*
X167617376Y-109887933D01*
X167812066Y-110082623D01*
X167812072Y-110082628D01*
X168030521Y-110250249D01*
X168183778Y-110338732D01*
X168268971Y-110387919D01*
X168268976Y-110387921D01*
X168268979Y-110387923D01*
X168523368Y-110493295D01*
X168789334Y-110564560D01*
X169062326Y-110600500D01*
X169062333Y-110600500D01*
X169337667Y-110600500D01*
X169337674Y-110600500D01*
X169610666Y-110564560D01*
X169876632Y-110493295D01*
X170131021Y-110387923D01*
X170369479Y-110250249D01*
X170587928Y-110082628D01*
X170782628Y-109887928D01*
X170950249Y-109669479D01*
X171087923Y-109431021D01*
X171193295Y-109176632D01*
X171255726Y-108943633D01*
X171292090Y-108883975D01*
X171354937Y-108853446D01*
X171424312Y-108861741D01*
X171478190Y-108906226D01*
X171499465Y-108972778D01*
X171499500Y-108975729D01*
X171499500Y-116875500D01*
X171479815Y-116942539D01*
X171427011Y-116988294D01*
X171375500Y-116999500D01*
X164959001Y-116999500D01*
X164891962Y-116979815D01*
X164846207Y-116927011D01*
X164836263Y-116857853D01*
X164859734Y-116801189D01*
X164903796Y-116742331D01*
X164954091Y-116607483D01*
X164960500Y-116547873D01*
X164960499Y-113452128D01*
X164954091Y-113392517D01*
X164941235Y-113358049D01*
X164903797Y-113257671D01*
X164903793Y-113257664D01*
X164817547Y-113142455D01*
X164817544Y-113142452D01*
X164702335Y-113056206D01*
X164702328Y-113056202D01*
X164567482Y-113005908D01*
X164567483Y-113005908D01*
X164507883Y-112999501D01*
X164507881Y-112999500D01*
X164507873Y-112999500D01*
X164507864Y-112999500D01*
X161412129Y-112999500D01*
X161412123Y-112999501D01*
X161352516Y-113005908D01*
X161217671Y-113056202D01*
X161217664Y-113056206D01*
X161102455Y-113142452D01*
X161102452Y-113142455D01*
X161016206Y-113257664D01*
X161016202Y-113257671D01*
X160965908Y-113392517D01*
X160959501Y-113452116D01*
X160959501Y-113452123D01*
X160959500Y-113452135D01*
X160959501Y-115874500D01*
X160939816Y-115941539D01*
X160887013Y-115987294D01*
X160835501Y-115998500D01*
X151399058Y-115998500D01*
X151332019Y-115978815D01*
X151286264Y-115926011D01*
X151276320Y-115856853D01*
X151300682Y-115799014D01*
X151320143Y-115773651D01*
X151391950Y-115680071D01*
X151501440Y-115490428D01*
X151585241Y-115288117D01*
X151641917Y-115076598D01*
X151670500Y-114859490D01*
X151670500Y-114640510D01*
X151641917Y-114423402D01*
X151585241Y-114211883D01*
X151501440Y-114009572D01*
X151391950Y-113819929D01*
X151258643Y-113646200D01*
X151258638Y-113646194D01*
X151103805Y-113491361D01*
X151103798Y-113491355D01*
X150930070Y-113358049D01*
X150862866Y-113319249D01*
X150814651Y-113268682D01*
X150801427Y-113200075D01*
X150827395Y-113135211D01*
X150837177Y-113124189D01*
X156082952Y-107878415D01*
X156126938Y-107812584D01*
X156165084Y-107755495D01*
X156188518Y-107698920D01*
X156221659Y-107618912D01*
X156250500Y-107473917D01*
X156250500Y-107326082D01*
X156250500Y-107025416D01*
X156270185Y-106958377D01*
X156301613Y-106925099D01*
X156347219Y-106891966D01*
X156491966Y-106747219D01*
X156491968Y-106747215D01*
X156491971Y-106747213D01*
X156563848Y-106648281D01*
X156612287Y-106581610D01*
X156705220Y-106399219D01*
X156768477Y-106204534D01*
X156800500Y-106002352D01*
X156800500Y-105797648D01*
X156768477Y-105595466D01*
X156763888Y-105581344D01*
X156739127Y-105505137D01*
X156705220Y-105400781D01*
X156705218Y-105400778D01*
X156705218Y-105400776D01*
X156655554Y-105303306D01*
X156612287Y-105218390D01*
X156604556Y-105207749D01*
X156491971Y-105052786D01*
X156347213Y-104908028D01*
X156181613Y-104787715D01*
X156181612Y-104787714D01*
X156181610Y-104787713D01*
X156124653Y-104758691D01*
X155999223Y-104694781D01*
X155804534Y-104631522D01*
X155629995Y-104603878D01*
X155602352Y-104599500D01*
X155397648Y-104599500D01*
X155373329Y-104603351D01*
X155195465Y-104631522D01*
X155000776Y-104694781D01*
X154818386Y-104787715D01*
X154652786Y-104908028D01*
X154508028Y-105052786D01*
X154387715Y-105218386D01*
X154294781Y-105400776D01*
X154231522Y-105595465D01*
X154199500Y-105797648D01*
X154199500Y-106002351D01*
X154231522Y-106204534D01*
X154294781Y-106399223D01*
X154387715Y-106581613D01*
X154508028Y-106747213D01*
X154508034Y-106747219D01*
X154652781Y-106891966D01*
X154698384Y-106925098D01*
X154701724Y-106929429D01*
X154706703Y-106931703D01*
X154722832Y-106956801D01*
X154741050Y-106980425D01*
X154742303Y-106987098D01*
X154744477Y-106990481D01*
X154749500Y-107025416D01*
X154749500Y-107037769D01*
X154729815Y-107104808D01*
X154713181Y-107125450D01*
X149417050Y-112421580D01*
X149417044Y-112421588D01*
X149367812Y-112495268D01*
X149367813Y-112495269D01*
X149334921Y-112544496D01*
X149334914Y-112544508D01*
X149278342Y-112681086D01*
X149278340Y-112681092D01*
X149249500Y-112826079D01*
X149249500Y-113182783D01*
X149229815Y-113249822D01*
X149187500Y-113290170D01*
X149069929Y-113358049D01*
X148896201Y-113491355D01*
X148896194Y-113491361D01*
X148741361Y-113646194D01*
X148741355Y-113646201D01*
X148608049Y-113819929D01*
X148498565Y-114009561D01*
X148498560Y-114009573D01*
X148414758Y-114211884D01*
X148358084Y-114423399D01*
X148358082Y-114423410D01*
X148329500Y-114640502D01*
X148329500Y-114859497D01*
X148353306Y-115040314D01*
X148358083Y-115076598D01*
X148358084Y-115076600D01*
X148411748Y-115276883D01*
X148414759Y-115288117D01*
X148498560Y-115490428D01*
X148498562Y-115490433D01*
X148498565Y-115490438D01*
X148608049Y-115680070D01*
X148699318Y-115799014D01*
X148724512Y-115864183D01*
X148710474Y-115932628D01*
X148661660Y-115982617D01*
X148600942Y-115998500D01*
X147361230Y-115998500D01*
X147294191Y-115978815D01*
X147273549Y-115962181D01*
X146638873Y-115327505D01*
X146605388Y-115266182D01*
X146606778Y-115207735D01*
X146641917Y-115076598D01*
X146670500Y-114859490D01*
X146670500Y-114640510D01*
X146641917Y-114423402D01*
X146585241Y-114211883D01*
X146501440Y-114009572D01*
X146391950Y-113819929D01*
X146258643Y-113646200D01*
X146258638Y-113646194D01*
X146103805Y-113491361D01*
X146103798Y-113491355D01*
X145930070Y-113358049D01*
X145740438Y-113248565D01*
X145740433Y-113248562D01*
X145740428Y-113248560D01*
X145538117Y-113164759D01*
X145538118Y-113164759D01*
X145538115Y-113164758D01*
X145427842Y-113135211D01*
X145326598Y-113108083D01*
X145290314Y-113103306D01*
X145109497Y-113079500D01*
X145109490Y-113079500D01*
X144890510Y-113079500D01*
X144890502Y-113079500D01*
X144683853Y-113106707D01*
X144673402Y-113108083D01*
X144628699Y-113120060D01*
X144461884Y-113164758D01*
X144350570Y-113210867D01*
X144259572Y-113248560D01*
X144259569Y-113248561D01*
X144259561Y-113248565D01*
X144069929Y-113358049D01*
X143896201Y-113491355D01*
X143896194Y-113491361D01*
X143741361Y-113646194D01*
X143741355Y-113646201D01*
X143608049Y-113819929D01*
X143498565Y-114009561D01*
X143498560Y-114009573D01*
X143414758Y-114211884D01*
X143358084Y-114423399D01*
X143358082Y-114423410D01*
X143329500Y-114640502D01*
X143329500Y-114859497D01*
X143353306Y-115040314D01*
X143358083Y-115076598D01*
X143358084Y-115076600D01*
X143411748Y-115276883D01*
X143414759Y-115288117D01*
X143498560Y-115490428D01*
X143498562Y-115490433D01*
X143498565Y-115490438D01*
X143608049Y-115680070D01*
X143741355Y-115853798D01*
X143741361Y-115853805D01*
X143896194Y-116008638D01*
X143896201Y-116008644D01*
X144069929Y-116141950D01*
X144259561Y-116251434D01*
X144259563Y-116251434D01*
X144259572Y-116251440D01*
X144461883Y-116335241D01*
X144673402Y-116391917D01*
X144890510Y-116420500D01*
X144890517Y-116420500D01*
X145109483Y-116420500D01*
X145109490Y-116420500D01*
X145326598Y-116391917D01*
X145457734Y-116356779D01*
X145527580Y-116358442D01*
X145577505Y-116388873D01*
X145976451Y-116787819D01*
X146009936Y-116849142D01*
X146004952Y-116918834D01*
X145963080Y-116974767D01*
X145897616Y-116999184D01*
X145888770Y-116999500D01*
X137124000Y-116999500D01*
X137056961Y-116979815D01*
X137011206Y-116927011D01*
X137000000Y-116875500D01*
X137000000Y-107045148D01*
X144259500Y-107045148D01*
X144259500Y-107249851D01*
X144291522Y-107452034D01*
X144354781Y-107646723D01*
X144397443Y-107730450D01*
X144444787Y-107823368D01*
X144447715Y-107829113D01*
X144568028Y-107994713D01*
X144712786Y-108139471D01*
X144867749Y-108252056D01*
X144878390Y-108259787D01*
X144994607Y-108319003D01*
X145060776Y-108352718D01*
X145060778Y-108352718D01*
X145060781Y-108352720D01*
X145165137Y-108386627D01*
X145255465Y-108415977D01*
X145356557Y-108431988D01*
X145457648Y-108448000D01*
X145457649Y-108448000D01*
X145662351Y-108448000D01*
X145662352Y-108448000D01*
X145864534Y-108415977D01*
X146059219Y-108352720D01*
X146241610Y-108259787D01*
X146334590Y-108192232D01*
X146407213Y-108139471D01*
X146407215Y-108139468D01*
X146407219Y-108139466D01*
X146551966Y-107994719D01*
X146554650Y-107991024D01*
X146585100Y-107949115D01*
X146640429Y-107906449D01*
X146685418Y-107898000D01*
X149326420Y-107898000D01*
X149424876Y-107878415D01*
X149471413Y-107869158D01*
X149607995Y-107812584D01*
X149657229Y-107779686D01*
X149730916Y-107730452D01*
X150234894Y-107226471D01*
X150296215Y-107192988D01*
X150341970Y-107191681D01*
X150397648Y-107200500D01*
X150397649Y-107200500D01*
X150602351Y-107200500D01*
X150602352Y-107200500D01*
X150804534Y-107168477D01*
X150999219Y-107105220D01*
X151181610Y-107012287D01*
X151312245Y-106917376D01*
X151347213Y-106891971D01*
X151347215Y-106891968D01*
X151347219Y-106891966D01*
X151491966Y-106747219D01*
X151491968Y-106747215D01*
X151491971Y-106747213D01*
X151563848Y-106648281D01*
X151612287Y-106581610D01*
X151705220Y-106399219D01*
X151768477Y-106204534D01*
X151800500Y-106002352D01*
X151800500Y-105797648D01*
X151768477Y-105595466D01*
X151763888Y-105581344D01*
X151739127Y-105505137D01*
X151705220Y-105400781D01*
X151705218Y-105400778D01*
X151705218Y-105400776D01*
X151655554Y-105303306D01*
X151612287Y-105218390D01*
X151604556Y-105207749D01*
X151491971Y-105052786D01*
X151347213Y-104908028D01*
X151181613Y-104787715D01*
X151181612Y-104787714D01*
X151181610Y-104787713D01*
X151124653Y-104758691D01*
X150999223Y-104694781D01*
X150804534Y-104631522D01*
X150629995Y-104603878D01*
X150602352Y-104599500D01*
X150397648Y-104599500D01*
X150373329Y-104603351D01*
X150195465Y-104631522D01*
X150000776Y-104694781D01*
X149818386Y-104787715D01*
X149652786Y-104908028D01*
X149508028Y-105052786D01*
X149387715Y-105218386D01*
X149294781Y-105400776D01*
X149231522Y-105595465D01*
X149199500Y-105797648D01*
X149199500Y-106002351D01*
X149208318Y-106058026D01*
X149199363Y-106127320D01*
X149173526Y-106165105D01*
X148977951Y-106360681D01*
X148916628Y-106394166D01*
X148890270Y-106397000D01*
X146685418Y-106397000D01*
X146618379Y-106377315D01*
X146585100Y-106345885D01*
X146551971Y-106300287D01*
X146551967Y-106300282D01*
X146407213Y-106155528D01*
X146241613Y-106035215D01*
X146241612Y-106035214D01*
X146241610Y-106035213D01*
X146172483Y-105999991D01*
X146059223Y-105942281D01*
X145864534Y-105879022D01*
X145689995Y-105851378D01*
X145662352Y-105847000D01*
X145457648Y-105847000D01*
X145433329Y-105850851D01*
X145255465Y-105879022D01*
X145060776Y-105942281D01*
X144878386Y-106035215D01*
X144712786Y-106155528D01*
X144568028Y-106300286D01*
X144447715Y-106465886D01*
X144354781Y-106648276D01*
X144291522Y-106842965D01*
X144259500Y-107045148D01*
X137000000Y-107045148D01*
X137000000Y-97124000D01*
X137019685Y-97056961D01*
X137072489Y-97011206D01*
X137124000Y-97000000D01*
X147812955Y-97000000D01*
X147879994Y-97019685D01*
X147925749Y-97072489D01*
X147930886Y-97085682D01*
X147954778Y-97159216D01*
X147954779Y-97159219D01*
X148047715Y-97341613D01*
X148168028Y-97507213D01*
X148312786Y-97651971D01*
X148467749Y-97764556D01*
X148478390Y-97772287D01*
X148569840Y-97818883D01*
X148571080Y-97819515D01*
X148621876Y-97867490D01*
X148638671Y-97935311D01*
X148616134Y-98001446D01*
X148571080Y-98040485D01*
X148478386Y-98087715D01*
X148312786Y-98208028D01*
X148168028Y-98352786D01*
X148047715Y-98518386D01*
X147954781Y-98700776D01*
X147891522Y-98895465D01*
X147859500Y-99097648D01*
X147859500Y-99302351D01*
X147891522Y-99504534D01*
X147954781Y-99699223D01*
X148047715Y-99881613D01*
X148168028Y-100047213D01*
X148312786Y-100191971D01*
X148435098Y-100280834D01*
X148478390Y-100312287D01*
X148538601Y-100342966D01*
X148571080Y-100359515D01*
X148621876Y-100407490D01*
X148638671Y-100475311D01*
X148616134Y-100541446D01*
X148571080Y-100580485D01*
X148478386Y-100627715D01*
X148312786Y-100748028D01*
X148312782Y-100748032D01*
X148165022Y-100895793D01*
X148103699Y-100929278D01*
X148034007Y-100924294D01*
X147989660Y-100895793D01*
X146886473Y-99792606D01*
X146852988Y-99731283D01*
X146851681Y-99685528D01*
X146860500Y-99629852D01*
X146860500Y-99425148D01*
X146828477Y-99222966D01*
X146765220Y-99028281D01*
X146765218Y-99028278D01*
X146765218Y-99028276D01*
X146697547Y-98895466D01*
X146672287Y-98845890D01*
X146664556Y-98835249D01*
X146551971Y-98680286D01*
X146407213Y-98535528D01*
X146241613Y-98415215D01*
X146241612Y-98415214D01*
X146241610Y-98415213D01*
X146140222Y-98363553D01*
X146059223Y-98322281D01*
X145864534Y-98259022D01*
X145689995Y-98231378D01*
X145662352Y-98227000D01*
X145457648Y-98227000D01*
X145433329Y-98230851D01*
X145255465Y-98259022D01*
X145060776Y-98322281D01*
X144878386Y-98415215D01*
X144712786Y-98535528D01*
X144568032Y-98680282D01*
X144568028Y-98680287D01*
X144534900Y-98725885D01*
X144479571Y-98768551D01*
X144434582Y-98777000D01*
X141598580Y-98777000D01*
X141453592Y-98805840D01*
X141453582Y-98805843D01*
X141317011Y-98862412D01*
X141316998Y-98862419D01*
X141194084Y-98944548D01*
X141194080Y-98944551D01*
X140818631Y-99320000D01*
X140757308Y-99353485D01*
X140711554Y-99354793D01*
X140662352Y-99347000D01*
X140457648Y-99347000D01*
X140433329Y-99350851D01*
X140255465Y-99379022D01*
X140060776Y-99442281D01*
X139878386Y-99535215D01*
X139712786Y-99655528D01*
X139568028Y-99800286D01*
X139447715Y-99965886D01*
X139354781Y-100148276D01*
X139291522Y-100342965D01*
X139259500Y-100545148D01*
X139259500Y-100749851D01*
X139291522Y-100952034D01*
X139354781Y-101146723D01*
X139447715Y-101329113D01*
X139568028Y-101494713D01*
X139712786Y-101639471D01*
X139867749Y-101752056D01*
X139878390Y-101759787D01*
X139994607Y-101819003D01*
X140060776Y-101852718D01*
X140060778Y-101852718D01*
X140060781Y-101852720D01*
X140165137Y-101886627D01*
X140255465Y-101915977D01*
X140356557Y-101931988D01*
X140457648Y-101948000D01*
X140457649Y-101948000D01*
X140662351Y-101948000D01*
X140662352Y-101948000D01*
X140864534Y-101915977D01*
X141059219Y-101852720D01*
X141241610Y-101759787D01*
X141334590Y-101692232D01*
X141407213Y-101639471D01*
X141407215Y-101639468D01*
X141407219Y-101639466D01*
X141551966Y-101494719D01*
X141551968Y-101494715D01*
X141551971Y-101494713D01*
X141604732Y-101422090D01*
X141672287Y-101329110D01*
X141765220Y-101146719D01*
X141828477Y-100952034D01*
X141860500Y-100749852D01*
X141860500Y-100545148D01*
X141851681Y-100489471D01*
X141852382Y-100484046D01*
X141850470Y-100478919D01*
X141856811Y-100449765D01*
X141860635Y-100420180D01*
X141864467Y-100414575D01*
X141865322Y-100410646D01*
X141886469Y-100382397D01*
X141954549Y-100314317D01*
X142015872Y-100280834D01*
X142042229Y-100278000D01*
X144434582Y-100278000D01*
X144501621Y-100297685D01*
X144534900Y-100329115D01*
X144568028Y-100374712D01*
X144568032Y-100374717D01*
X144712786Y-100519471D01*
X144861771Y-100627713D01*
X144878390Y-100639787D01*
X144994607Y-100699003D01*
X145060776Y-100732718D01*
X145060778Y-100732718D01*
X145060781Y-100732720D01*
X145107913Y-100748034D01*
X145255465Y-100795977D01*
X145339564Y-100809297D01*
X145457648Y-100828000D01*
X145457649Y-100828000D01*
X145662350Y-100828000D01*
X145662352Y-100828000D01*
X145718027Y-100819181D01*
X145787319Y-100828135D01*
X145825106Y-100853973D01*
X147189549Y-102218416D01*
X147294084Y-102322951D01*
X147294087Y-102322953D01*
X147294088Y-102322954D01*
X147417003Y-102405083D01*
X147417006Y-102405085D01*
X147467165Y-102425861D01*
X147473580Y-102428518D01*
X147553588Y-102461659D01*
X147669741Y-102484763D01*
X147692880Y-102489365D01*
X147698581Y-102490500D01*
X147698582Y-102490500D01*
X147698583Y-102490500D01*
X147846418Y-102490500D01*
X148034582Y-102490500D01*
X148101621Y-102510185D01*
X148134900Y-102541615D01*
X148168028Y-102587212D01*
X148168032Y-102587217D01*
X148312786Y-102731971D01*
X148467749Y-102844556D01*
X148478390Y-102852287D01*
X148594607Y-102911503D01*
X148660776Y-102945218D01*
X148660778Y-102945218D01*
X148660781Y-102945220D01*
X148765137Y-102979127D01*
X148855465Y-103008477D01*
X148956557Y-103024488D01*
X149057648Y-103040500D01*
X149057649Y-103040500D01*
X150062351Y-103040500D01*
X150062352Y-103040500D01*
X150264534Y-103008477D01*
X150459219Y-102945220D01*
X150641610Y-102852287D01*
X150734590Y-102784732D01*
X150807213Y-102731971D01*
X150807215Y-102731968D01*
X150807219Y-102731966D01*
X150951966Y-102587219D01*
X150951968Y-102587215D01*
X150951971Y-102587213D01*
X151026404Y-102484763D01*
X151072287Y-102421610D01*
X151165220Y-102239219D01*
X151228477Y-102044534D01*
X151260500Y-101842352D01*
X151260500Y-101637648D01*
X151228477Y-101435466D01*
X151165220Y-101240781D01*
X151165218Y-101240778D01*
X151165218Y-101240776D01*
X151117293Y-101146719D01*
X151072287Y-101058390D01*
X151022236Y-100989500D01*
X150951971Y-100892786D01*
X150807213Y-100748028D01*
X150641614Y-100627715D01*
X150608550Y-100610868D01*
X150548917Y-100580483D01*
X150498123Y-100532511D01*
X150481328Y-100464690D01*
X150503865Y-100398555D01*
X150548917Y-100359516D01*
X150641610Y-100312287D01*
X150684902Y-100280834D01*
X150807213Y-100191971D01*
X150807215Y-100191968D01*
X150807219Y-100191966D01*
X150951966Y-100047219D01*
X150954650Y-100043524D01*
X150985100Y-100001615D01*
X151040429Y-99958949D01*
X151085418Y-99950500D01*
X152237770Y-99950500D01*
X152304809Y-99970185D01*
X152325451Y-99986819D01*
X152913181Y-100574549D01*
X152946666Y-100635872D01*
X152949500Y-100662230D01*
X152949500Y-100927363D01*
X152949500Y-100927365D01*
X152949499Y-100927365D01*
X152978340Y-101072352D01*
X152978343Y-101072362D01*
X153034914Y-101208937D01*
X153034915Y-101208939D01*
X153034916Y-101208940D01*
X153056191Y-101240781D01*
X153067812Y-101258172D01*
X153067813Y-101258175D01*
X153117046Y-101331859D01*
X153117052Y-101331866D01*
X155663604Y-103878416D01*
X155768139Y-103982951D01*
X155768142Y-103982953D01*
X155768143Y-103982954D01*
X155891058Y-104065083D01*
X155891061Y-104065085D01*
X155941220Y-104085861D01*
X155947635Y-104088518D01*
X156027643Y-104121659D01*
X156143796Y-104144763D01*
X156166935Y-104149365D01*
X156172636Y-104150500D01*
X156172637Y-104150500D01*
X156172638Y-104150500D01*
X156320473Y-104150500D01*
X158837770Y-104150500D01*
X158904809Y-104170185D01*
X158925451Y-104186819D01*
X159710530Y-104971897D01*
X159725233Y-104998824D01*
X159741826Y-105024643D01*
X159742717Y-105030843D01*
X159744015Y-105033220D01*
X159746849Y-105059578D01*
X159746849Y-105236267D01*
X159727164Y-105303306D01*
X159674360Y-105349061D01*
X159661855Y-105353972D01*
X159628020Y-105365184D01*
X159628012Y-105365187D01*
X159478691Y-105457289D01*
X159354638Y-105581342D01*
X159262536Y-105730663D01*
X159262535Y-105730666D01*
X159207350Y-105897203D01*
X159207350Y-105897204D01*
X159207349Y-105897204D01*
X159196849Y-105999983D01*
X159196849Y-107200001D01*
X159196850Y-107200018D01*
X159207349Y-107302796D01*
X159207350Y-107302799D01*
X159256802Y-107452034D01*
X159262535Y-107469334D01*
X159354637Y-107618656D01*
X159478693Y-107742712D01*
X159628015Y-107834814D01*
X159794552Y-107889999D01*
X159897340Y-107900500D01*
X161097357Y-107900499D01*
X161200146Y-107889999D01*
X161366683Y-107834814D01*
X161516005Y-107742712D01*
X161640061Y-107618656D01*
X161732163Y-107469334D01*
X161787348Y-107302797D01*
X161797849Y-107200009D01*
X161797848Y-105999992D01*
X161787348Y-105897203D01*
X161732163Y-105730666D01*
X161640061Y-105581344D01*
X161516005Y-105457288D01*
X161366683Y-105365186D01*
X161366677Y-105365184D01*
X161332843Y-105353972D01*
X161275399Y-105314199D01*
X161248577Y-105249683D01*
X161247849Y-105236267D01*
X161247849Y-104623430D01*
X161242112Y-104594591D01*
X161242112Y-104594589D01*
X161219009Y-104478444D01*
X161219008Y-104478437D01*
X161164757Y-104347466D01*
X161163113Y-104342871D01*
X161080303Y-104218937D01*
X161080302Y-104218936D01*
X161080300Y-104218933D01*
X160975765Y-104114398D01*
X160739783Y-103878416D01*
X159678421Y-102817052D01*
X159678414Y-102817046D01*
X159604729Y-102767812D01*
X159604729Y-102767813D01*
X159555491Y-102734913D01*
X159418917Y-102678343D01*
X159418907Y-102678340D01*
X159273920Y-102649500D01*
X159273918Y-102649500D01*
X156608784Y-102649500D01*
X156541745Y-102629815D01*
X156521103Y-102613181D01*
X154486819Y-100578896D01*
X154453334Y-100517573D01*
X154450500Y-100491215D01*
X154450500Y-100226079D01*
X154421659Y-100081092D01*
X154421658Y-100081091D01*
X154421658Y-100081087D01*
X154415072Y-100065186D01*
X154365086Y-99944509D01*
X154365085Y-99944507D01*
X154332186Y-99895270D01*
X154332185Y-99895268D01*
X154282956Y-99821589D01*
X154282952Y-99821584D01*
X153078421Y-98617052D01*
X153078414Y-98617046D01*
X153004729Y-98567812D01*
X153004729Y-98567813D01*
X152955491Y-98534913D01*
X152818917Y-98478343D01*
X152818907Y-98478340D01*
X152673920Y-98449500D01*
X152673918Y-98449500D01*
X151085418Y-98449500D01*
X151018379Y-98429815D01*
X150985100Y-98398385D01*
X150951971Y-98352787D01*
X150951967Y-98352782D01*
X150807213Y-98208028D01*
X150641614Y-98087715D01*
X150635006Y-98084348D01*
X150548917Y-98040483D01*
X150498123Y-97992511D01*
X150481328Y-97924690D01*
X150503865Y-97858555D01*
X150548917Y-97819516D01*
X150641610Y-97772287D01*
X150741093Y-97700009D01*
X150807213Y-97651971D01*
X150807215Y-97651968D01*
X150807219Y-97651966D01*
X150909365Y-97549820D01*
X150970688Y-97516335D01*
X150997046Y-97513501D01*
X151938542Y-97513501D01*
X151970152Y-97507213D01*
X152035188Y-97494276D01*
X152131836Y-97475052D01*
X152185165Y-97452962D01*
X152313914Y-97399633D01*
X152477782Y-97290140D01*
X152617139Y-97150783D01*
X152617140Y-97150780D01*
X152624206Y-97143715D01*
X152624208Y-97143711D01*
X156412102Y-93355819D01*
X156473425Y-93322334D01*
X156499783Y-93319500D01*
X160153218Y-93319500D01*
X160220257Y-93339185D01*
G37*
%TD.AperFunction*%
%TD*%
%TA.AperFunction,Conductor*%
%TO.N,/VCC*%
G36*
X155125543Y-87020185D02*
G01*
X155171298Y-87072989D01*
X155181242Y-87142147D01*
X155152217Y-87205703D01*
X155146185Y-87212181D01*
X155092718Y-87265648D01*
X154933075Y-87473696D01*
X154801958Y-87700799D01*
X154801953Y-87700809D01*
X154701605Y-87943071D01*
X154701602Y-87943081D01*
X154633730Y-88196385D01*
X154599500Y-88456372D01*
X154599500Y-88718627D01*
X154622791Y-88895528D01*
X154633730Y-88978616D01*
X154694627Y-89205886D01*
X154701602Y-89231918D01*
X154701605Y-89231928D01*
X154801953Y-89474190D01*
X154801958Y-89474200D01*
X154933075Y-89701303D01*
X155092718Y-89909351D01*
X155092726Y-89909360D01*
X155278140Y-90094774D01*
X155278148Y-90094781D01*
X155486196Y-90254424D01*
X155713299Y-90385541D01*
X155713309Y-90385546D01*
X155944693Y-90481388D01*
X155955581Y-90485898D01*
X156208884Y-90553770D01*
X156457188Y-90586460D01*
X156468864Y-90587998D01*
X156468880Y-90588000D01*
X156468887Y-90588000D01*
X156731113Y-90588000D01*
X156731120Y-90588000D01*
X156991116Y-90553770D01*
X157244419Y-90485898D01*
X157486697Y-90385543D01*
X157713803Y-90254424D01*
X157921851Y-90094782D01*
X157921855Y-90094777D01*
X157921860Y-90094774D01*
X158107274Y-89909360D01*
X158107277Y-89909355D01*
X158107282Y-89909351D01*
X158266924Y-89701303D01*
X158398043Y-89474197D01*
X158498398Y-89231919D01*
X158566270Y-88978616D01*
X158600500Y-88718620D01*
X158600500Y-88456380D01*
X158566270Y-88196384D01*
X158498398Y-87943081D01*
X158487748Y-87917370D01*
X158398046Y-87700809D01*
X158398041Y-87700799D01*
X158266924Y-87473696D01*
X158107281Y-87265648D01*
X158107274Y-87265640D01*
X158053815Y-87212181D01*
X158020330Y-87150858D01*
X158025314Y-87081166D01*
X158067186Y-87025233D01*
X158132650Y-87000816D01*
X158141496Y-87000500D01*
X159555500Y-87000500D01*
X159622539Y-87020185D01*
X159668294Y-87072989D01*
X159679500Y-87124500D01*
X159679500Y-90135370D01*
X159679501Y-90135376D01*
X159685908Y-90194983D01*
X159736202Y-90329828D01*
X159736206Y-90329835D01*
X159822452Y-90445044D01*
X159822455Y-90445047D01*
X159937664Y-90531293D01*
X159937671Y-90531297D01*
X160072517Y-90581591D01*
X160072516Y-90581591D01*
X160079444Y-90582335D01*
X160132127Y-90588000D01*
X163227872Y-90587999D01*
X163287483Y-90581591D01*
X163422331Y-90531296D01*
X163504476Y-90469801D01*
X163569940Y-90445385D01*
X163638213Y-90460236D01*
X163666468Y-90481388D01*
X166895504Y-93710424D01*
X166928989Y-93771747D01*
X166931823Y-93798105D01*
X166931823Y-95727111D01*
X166912138Y-95794150D01*
X166895504Y-95814792D01*
X166787808Y-95922487D01*
X166787808Y-95922488D01*
X166787806Y-95922490D01*
X166762059Y-95957928D01*
X166648980Y-96113566D01*
X166541756Y-96324003D01*
X166468769Y-96548631D01*
X166431823Y-96781902D01*
X166431823Y-97018097D01*
X166468769Y-97251368D01*
X166541756Y-97475996D01*
X166648980Y-97686433D01*
X166787806Y-97877510D01*
X166954813Y-98044517D01*
X167145890Y-98183343D01*
X167223884Y-98223083D01*
X167356326Y-98290566D01*
X167356328Y-98290566D01*
X167356331Y-98290568D01*
X167476735Y-98329689D01*
X167580954Y-98363553D01*
X167814226Y-98400500D01*
X167814231Y-98400500D01*
X168050420Y-98400500D01*
X168283691Y-98363553D01*
X168508315Y-98290568D01*
X168718756Y-98183343D01*
X168909833Y-98044517D01*
X169076840Y-97877510D01*
X169215666Y-97686433D01*
X169322891Y-97475992D01*
X169395876Y-97251368D01*
X169416049Y-97124000D01*
X169432823Y-97018097D01*
X169432823Y-96781902D01*
X169395876Y-96548631D01*
X169322889Y-96324003D01*
X169215665Y-96113566D01*
X169076840Y-95922490D01*
X168969142Y-95814792D01*
X168935657Y-95753469D01*
X168932823Y-95727111D01*
X168932823Y-93233779D01*
X168912984Y-93134046D01*
X168912983Y-93134044D01*
X168911788Y-93128034D01*
X168894374Y-93040487D01*
X168859702Y-92956782D01*
X168818955Y-92858409D01*
X168818951Y-92858403D01*
X168709462Y-92694540D01*
X168567009Y-92552087D01*
X168566978Y-92552058D01*
X163968979Y-87954059D01*
X163968959Y-87954037D01*
X163825285Y-87810363D01*
X163825281Y-87810360D01*
X163735608Y-87750442D01*
X163690803Y-87696830D01*
X163680499Y-87647340D01*
X163680499Y-87124500D01*
X163700184Y-87057461D01*
X163752988Y-87011706D01*
X163804499Y-87000500D01*
X171375500Y-87000500D01*
X171442539Y-87020185D01*
X171488294Y-87072989D01*
X171499500Y-87124500D01*
X171499500Y-89024270D01*
X171479815Y-89091309D01*
X171427011Y-89137064D01*
X171357853Y-89147008D01*
X171294297Y-89117983D01*
X171256523Y-89059205D01*
X171255725Y-89056363D01*
X171251417Y-89040286D01*
X171193295Y-88823368D01*
X171087923Y-88568979D01*
X171087921Y-88568976D01*
X171087919Y-88568971D01*
X171022909Y-88456372D01*
X170950249Y-88330521D01*
X170782628Y-88112072D01*
X170782623Y-88112066D01*
X170587933Y-87917376D01*
X170587926Y-87917370D01*
X170369483Y-87749754D01*
X170369482Y-87749753D01*
X170369479Y-87749751D01*
X170274407Y-87694861D01*
X170131028Y-87612080D01*
X170131017Y-87612075D01*
X169876630Y-87506704D01*
X169743649Y-87471072D01*
X169610666Y-87435440D01*
X169610660Y-87435439D01*
X169610655Y-87435438D01*
X169337684Y-87399501D01*
X169337679Y-87399500D01*
X169337674Y-87399500D01*
X169062326Y-87399500D01*
X169062320Y-87399500D01*
X169062315Y-87399501D01*
X168789344Y-87435438D01*
X168789337Y-87435439D01*
X168789334Y-87435440D01*
X168733125Y-87450500D01*
X168523369Y-87506704D01*
X168268982Y-87612075D01*
X168268971Y-87612080D01*
X168030516Y-87749754D01*
X167812073Y-87917370D01*
X167812066Y-87917376D01*
X167617376Y-88112066D01*
X167617370Y-88112073D01*
X167449754Y-88330516D01*
X167312080Y-88568971D01*
X167312075Y-88568982D01*
X167206704Y-88823369D01*
X167135441Y-89089331D01*
X167135438Y-89089344D01*
X167099501Y-89362315D01*
X167099500Y-89362332D01*
X167099500Y-89637667D01*
X167099501Y-89637684D01*
X167135438Y-89910655D01*
X167135439Y-89910660D01*
X167135440Y-89910666D01*
X167156658Y-89989852D01*
X167206704Y-90176630D01*
X167312075Y-90431017D01*
X167312080Y-90431028D01*
X167343760Y-90485898D01*
X167449751Y-90669479D01*
X167449753Y-90669482D01*
X167449754Y-90669483D01*
X167617370Y-90887926D01*
X167617376Y-90887933D01*
X167812066Y-91082623D01*
X167812073Y-91082629D01*
X167907663Y-91155977D01*
X168030521Y-91250249D01*
X168148735Y-91318500D01*
X168268971Y-91387919D01*
X168268976Y-91387921D01*
X168268979Y-91387923D01*
X168523368Y-91493295D01*
X168789334Y-91564560D01*
X169062326Y-91600500D01*
X169062333Y-91600500D01*
X169337667Y-91600500D01*
X169337674Y-91600500D01*
X169610666Y-91564560D01*
X169876632Y-91493295D01*
X170131021Y-91387923D01*
X170369479Y-91250249D01*
X170587928Y-91082628D01*
X170782628Y-90887928D01*
X170950249Y-90669479D01*
X171087923Y-90431021D01*
X171193295Y-90176632D01*
X171255726Y-89943633D01*
X171292090Y-89883975D01*
X171354937Y-89853446D01*
X171424312Y-89861741D01*
X171478190Y-89906226D01*
X171499465Y-89972778D01*
X171499500Y-89975729D01*
X171499500Y-100370500D01*
X171479815Y-100437539D01*
X171427011Y-100483294D01*
X171375500Y-100494500D01*
X164548927Y-100494500D01*
X164481888Y-100474815D01*
X164436133Y-100422011D01*
X164425266Y-100379660D01*
X164424587Y-100370500D01*
X164281666Y-98441061D01*
X164252863Y-98265435D01*
X164244994Y-98234767D01*
X164247398Y-98164942D01*
X164271833Y-98125336D01*
X164270554Y-98124324D01*
X164275030Y-98118661D01*
X164275030Y-98118660D01*
X164275035Y-98118656D01*
X164367137Y-97969334D01*
X164422322Y-97802797D01*
X164432823Y-97700009D01*
X164432822Y-96099992D01*
X164423466Y-96008407D01*
X164422322Y-95997203D01*
X164422321Y-95997200D01*
X164367137Y-95830666D01*
X164275035Y-95681344D01*
X164150979Y-95557288D01*
X164001657Y-95465186D01*
X164001655Y-95465185D01*
X163995510Y-95461395D01*
X163996613Y-95459605D01*
X163951972Y-95420290D01*
X163932823Y-95354091D01*
X163932823Y-94533779D01*
X163894375Y-94340493D01*
X163894374Y-94340492D01*
X163894374Y-94340488D01*
X163894372Y-94340483D01*
X163818958Y-94158415D01*
X163818951Y-94158402D01*
X163709463Y-93994542D01*
X163686968Y-93972047D01*
X163570105Y-93855184D01*
X163570104Y-93855183D01*
X161403208Y-91688288D01*
X161403206Y-91688285D01*
X161403206Y-91688286D01*
X161396139Y-91681219D01*
X161396139Y-91681218D01*
X161256782Y-91541861D01*
X161256781Y-91541860D01*
X161256780Y-91541859D01*
X161092920Y-91432371D01*
X161092911Y-91432366D01*
X161020315Y-91402296D01*
X160964165Y-91379038D01*
X160910836Y-91356949D01*
X160910832Y-91356948D01*
X160910828Y-91356946D01*
X160814188Y-91337724D01*
X160717544Y-91318500D01*
X160717541Y-91318500D01*
X155935460Y-91318500D01*
X155935456Y-91318500D01*
X155838813Y-91337724D01*
X155742168Y-91356947D01*
X155742162Y-91356949D01*
X155688835Y-91379037D01*
X155688835Y-91379038D01*
X155667383Y-91387924D01*
X155560090Y-91432366D01*
X155560080Y-91432371D01*
X155396220Y-91541859D01*
X155337582Y-91600498D01*
X155256862Y-91681218D01*
X155256859Y-91681221D01*
X151461899Y-95476182D01*
X151400576Y-95509667D01*
X151374218Y-95512501D01*
X150602273Y-95512501D01*
X150545978Y-95498986D01*
X150459223Y-95454781D01*
X150264534Y-95391522D01*
X150080788Y-95362420D01*
X150062352Y-95359500D01*
X149057648Y-95359500D01*
X149039212Y-95362420D01*
X148855465Y-95391522D01*
X148660776Y-95454781D01*
X148478386Y-95547715D01*
X148312786Y-95668028D01*
X148168032Y-95812782D01*
X148168028Y-95812787D01*
X148062578Y-95957928D01*
X148007248Y-96000594D01*
X147949715Y-96008407D01*
X147812956Y-95994500D01*
X147812955Y-95994500D01*
X137124000Y-95994500D01*
X137123347Y-95994503D01*
X137112420Y-95994566D01*
X137112406Y-95994567D01*
X136910254Y-96017481D01*
X136858753Y-96028685D01*
X136767058Y-96053217D01*
X136580475Y-96134306D01*
X136580468Y-96134310D01*
X136414033Y-96251294D01*
X136414020Y-96251305D01*
X136361225Y-96297052D01*
X136244819Y-96416169D01*
X136131693Y-96585261D01*
X136131690Y-96585268D01*
X136054916Y-96773671D01*
X136054914Y-96773677D01*
X136035233Y-96840706D01*
X136015082Y-96921597D01*
X135994500Y-97123998D01*
X135994500Y-113633734D01*
X135974815Y-113700773D01*
X135968882Y-113709212D01*
X135918050Y-113775457D01*
X135833072Y-113886201D01*
X135701958Y-114113299D01*
X135701953Y-114113309D01*
X135601605Y-114355571D01*
X135601602Y-114355581D01*
X135533730Y-114608885D01*
X135499500Y-114868872D01*
X135499500Y-115131127D01*
X135526123Y-115333339D01*
X135533730Y-115391116D01*
X135601602Y-115644418D01*
X135601605Y-115644428D01*
X135701953Y-115886690D01*
X135701958Y-115886700D01*
X135833075Y-116113803D01*
X135968875Y-116290778D01*
X135994070Y-116355947D01*
X135994500Y-116366265D01*
X135994500Y-116875500D01*
X135974815Y-116942539D01*
X135922011Y-116988294D01*
X135870500Y-116999500D01*
X129624500Y-116999500D01*
X129557461Y-116979815D01*
X129511706Y-116927011D01*
X129500500Y-116875500D01*
X129500500Y-108975729D01*
X129520185Y-108908690D01*
X129572989Y-108862935D01*
X129642147Y-108852991D01*
X129705703Y-108882016D01*
X129743477Y-108940794D01*
X129744258Y-108943576D01*
X129783065Y-109088408D01*
X129806704Y-109176630D01*
X129912075Y-109431017D01*
X129912080Y-109431028D01*
X129994861Y-109574407D01*
X130049751Y-109669479D01*
X130049753Y-109669482D01*
X130049754Y-109669483D01*
X130217370Y-109887926D01*
X130217376Y-109887933D01*
X130412066Y-110082623D01*
X130412072Y-110082628D01*
X130630521Y-110250249D01*
X130783778Y-110338732D01*
X130868971Y-110387919D01*
X130868976Y-110387921D01*
X130868979Y-110387923D01*
X131123368Y-110493295D01*
X131389334Y-110564560D01*
X131662326Y-110600500D01*
X131662333Y-110600500D01*
X131937667Y-110600500D01*
X131937674Y-110600500D01*
X132210666Y-110564560D01*
X132476632Y-110493295D01*
X132731021Y-110387923D01*
X132969479Y-110250249D01*
X133187928Y-110082628D01*
X133382628Y-109887928D01*
X133550249Y-109669479D01*
X133687923Y-109431021D01*
X133793295Y-109176632D01*
X133864560Y-108910666D01*
X133900500Y-108637674D01*
X133900500Y-108362326D01*
X133864560Y-108089334D01*
X133793295Y-107823368D01*
X133687923Y-107568979D01*
X133687921Y-107568976D01*
X133687919Y-107568971D01*
X133638732Y-107483778D01*
X133550249Y-107330521D01*
X133481099Y-107240403D01*
X133382629Y-107112073D01*
X133382623Y-107112066D01*
X133187933Y-106917376D01*
X133187926Y-106917370D01*
X132969483Y-106749754D01*
X132969482Y-106749753D01*
X132969479Y-106749751D01*
X132874407Y-106694861D01*
X132731028Y-106612080D01*
X132731017Y-106612075D01*
X132476630Y-106506704D01*
X132343649Y-106471072D01*
X132210666Y-106435440D01*
X132210660Y-106435439D01*
X132210655Y-106435438D01*
X131937684Y-106399501D01*
X131937679Y-106399500D01*
X131937674Y-106399500D01*
X131662326Y-106399500D01*
X131662320Y-106399500D01*
X131662315Y-106399501D01*
X131389344Y-106435438D01*
X131389337Y-106435439D01*
X131389334Y-106435440D01*
X131333125Y-106450500D01*
X131123369Y-106506704D01*
X130868982Y-106612075D01*
X130868971Y-106612080D01*
X130630516Y-106749754D01*
X130412073Y-106917370D01*
X130412066Y-106917376D01*
X130217376Y-107112066D01*
X130217370Y-107112073D01*
X130049754Y-107330516D01*
X129912080Y-107568971D01*
X129912075Y-107568982D01*
X129806704Y-107823369D01*
X129744275Y-108056363D01*
X129707910Y-108116024D01*
X129645063Y-108146553D01*
X129575688Y-108138258D01*
X129521810Y-108093773D01*
X129500535Y-108027221D01*
X129500500Y-108024270D01*
X129500500Y-101197648D01*
X130149500Y-101197648D01*
X130149500Y-101402351D01*
X130181522Y-101604534D01*
X130244781Y-101799223D01*
X130337715Y-101981613D01*
X130458028Y-102147213D01*
X130602786Y-102291971D01*
X130757749Y-102404556D01*
X130768390Y-102412287D01*
X130884607Y-102471503D01*
X130950776Y-102505218D01*
X130950778Y-102505218D01*
X130950781Y-102505220D01*
X131055137Y-102539127D01*
X131145465Y-102568477D01*
X131246557Y-102584488D01*
X131347648Y-102600500D01*
X131347649Y-102600500D01*
X131552351Y-102600500D01*
X131552352Y-102600500D01*
X131754534Y-102568477D01*
X131949219Y-102505220D01*
X132131610Y-102412287D01*
X132224590Y-102344732D01*
X132297213Y-102291971D01*
X132297215Y-102291968D01*
X132297219Y-102291966D01*
X132441966Y-102147219D01*
X132441968Y-102147215D01*
X132441971Y-102147213D01*
X132494732Y-102074590D01*
X132562287Y-101981610D01*
X132655220Y-101799219D01*
X132718477Y-101604534D01*
X132750500Y-101402352D01*
X132750500Y-101197648D01*
X132718477Y-100995466D01*
X132655220Y-100800781D01*
X132655218Y-100800778D01*
X132655218Y-100800776D01*
X132621503Y-100734607D01*
X132562287Y-100618390D01*
X132554556Y-100607749D01*
X132441971Y-100452786D01*
X132297213Y-100308028D01*
X132131613Y-100187715D01*
X132131612Y-100187714D01*
X132131610Y-100187713D01*
X132074653Y-100158691D01*
X131949223Y-100094781D01*
X131754534Y-100031522D01*
X131579995Y-100003878D01*
X131552352Y-99999500D01*
X131347648Y-99999500D01*
X131323329Y-100003351D01*
X131145465Y-100031522D01*
X130950776Y-100094781D01*
X130768386Y-100187715D01*
X130602786Y-100308028D01*
X130458028Y-100452786D01*
X130337715Y-100618386D01*
X130244781Y-100800776D01*
X130181522Y-100995465D01*
X130149500Y-101197648D01*
X129500500Y-101197648D01*
X129500500Y-93352135D01*
X132829500Y-93352135D01*
X132829500Y-95247870D01*
X132829501Y-95247876D01*
X132835908Y-95307483D01*
X132886202Y-95442328D01*
X132886206Y-95442335D01*
X132972452Y-95557544D01*
X132972455Y-95557547D01*
X133087664Y-95643793D01*
X133087671Y-95643797D01*
X133222517Y-95694091D01*
X133222516Y-95694091D01*
X133229444Y-95694835D01*
X133282127Y-95700500D01*
X135177872Y-95700499D01*
X135237483Y-95694091D01*
X135372331Y-95643796D01*
X135487546Y-95557546D01*
X135573796Y-95442331D01*
X135601429Y-95368243D01*
X135603601Y-95362420D01*
X135645471Y-95306486D01*
X135710936Y-95282068D01*
X135779209Y-95296919D01*
X135807464Y-95318071D01*
X135857636Y-95368243D01*
X135857641Y-95368247D01*
X135901053Y-95399787D01*
X136035978Y-95497815D01*
X136164375Y-95563237D01*
X136232393Y-95597895D01*
X136232396Y-95597896D01*
X136337221Y-95631955D01*
X136442049Y-95666015D01*
X136659778Y-95700500D01*
X136659779Y-95700500D01*
X136880221Y-95700500D01*
X136880222Y-95700500D01*
X137097951Y-95666015D01*
X137307606Y-95597895D01*
X137504022Y-95497815D01*
X137682365Y-95368242D01*
X137838242Y-95212365D01*
X137967815Y-95034022D01*
X138067895Y-94837606D01*
X138136015Y-94627951D01*
X138170500Y-94410222D01*
X138170500Y-94189778D01*
X138169767Y-94185148D01*
X139559500Y-94185148D01*
X139559500Y-94389851D01*
X139591522Y-94592034D01*
X139654781Y-94786723D01*
X139747715Y-94969113D01*
X139868028Y-95134713D01*
X140012786Y-95279471D01*
X140167014Y-95391522D01*
X140178390Y-95399787D01*
X140286320Y-95454780D01*
X140360776Y-95492718D01*
X140360778Y-95492718D01*
X140360781Y-95492720D01*
X140421661Y-95512501D01*
X140555465Y-95555977D01*
X140565378Y-95557547D01*
X140757648Y-95588000D01*
X140757649Y-95588000D01*
X140962351Y-95588000D01*
X140962352Y-95588000D01*
X141164534Y-95555977D01*
X141359219Y-95492720D01*
X141541610Y-95399787D01*
X141634590Y-95332232D01*
X141707213Y-95279471D01*
X141707215Y-95279468D01*
X141707219Y-95279466D01*
X141851966Y-95134719D01*
X141851968Y-95134715D01*
X141851971Y-95134713D01*
X141925126Y-95034022D01*
X141972287Y-94969110D01*
X142065220Y-94786719D01*
X142128477Y-94592034D01*
X142160500Y-94389852D01*
X142160500Y-94185148D01*
X142156264Y-94158402D01*
X142128477Y-93982965D01*
X142065218Y-93788276D01*
X142025550Y-93710424D01*
X141972287Y-93605890D01*
X141964556Y-93595249D01*
X141851971Y-93440286D01*
X141707213Y-93295528D01*
X141541613Y-93175215D01*
X141541612Y-93175214D01*
X141541610Y-93175213D01*
X141484653Y-93146191D01*
X141359223Y-93082281D01*
X141164534Y-93019022D01*
X140989995Y-92991378D01*
X140962352Y-92987000D01*
X140757648Y-92987000D01*
X140733329Y-92990851D01*
X140555465Y-93019022D01*
X140360776Y-93082281D01*
X140178386Y-93175215D01*
X140012786Y-93295528D01*
X139868028Y-93440286D01*
X139747715Y-93605886D01*
X139654781Y-93788276D01*
X139591522Y-93982965D01*
X139559500Y-94185148D01*
X138169767Y-94185148D01*
X138136015Y-93972049D01*
X138076306Y-93788281D01*
X138067896Y-93762396D01*
X138067895Y-93762393D01*
X137988149Y-93605886D01*
X137967815Y-93565978D01*
X137876495Y-93440286D01*
X137838247Y-93387641D01*
X137838243Y-93387636D01*
X137682367Y-93231760D01*
X137682365Y-93231758D01*
X137571613Y-93151291D01*
X137528949Y-93095963D01*
X137520500Y-93050975D01*
X137520500Y-91529728D01*
X137540185Y-91462689D01*
X137556815Y-91442051D01*
X137784894Y-91213971D01*
X137846215Y-91180488D01*
X137891970Y-91179181D01*
X137947648Y-91188000D01*
X137947649Y-91188000D01*
X138152351Y-91188000D01*
X138152352Y-91188000D01*
X138354534Y-91155977D01*
X138549219Y-91092720D01*
X138731610Y-90999787D01*
X138824590Y-90932232D01*
X138897213Y-90879471D01*
X138897215Y-90879468D01*
X138897219Y-90879466D01*
X139041966Y-90734719D01*
X139041968Y-90734715D01*
X139041971Y-90734713D01*
X139094732Y-90662090D01*
X139162287Y-90569110D01*
X139255220Y-90386719D01*
X139318477Y-90192034D01*
X139350500Y-89989852D01*
X139350500Y-89785148D01*
X139318477Y-89582966D01*
X139255220Y-89388281D01*
X139255218Y-89388278D01*
X139255218Y-89388276D01*
X139221503Y-89322107D01*
X139162287Y-89205890D01*
X139119507Y-89147008D01*
X139041971Y-89040286D01*
X138897213Y-88895528D01*
X138731613Y-88775215D01*
X138731612Y-88775214D01*
X138731610Y-88775213D01*
X138674653Y-88746191D01*
X138549223Y-88682281D01*
X138354534Y-88619022D01*
X138179995Y-88591378D01*
X138152352Y-88587000D01*
X137947648Y-88587000D01*
X137923329Y-88590851D01*
X137745465Y-88619022D01*
X137550776Y-88682281D01*
X137368386Y-88775215D01*
X137202786Y-88895528D01*
X137058028Y-89040286D01*
X136937715Y-89205886D01*
X136844781Y-89388276D01*
X136781522Y-89582965D01*
X136749500Y-89785148D01*
X136749500Y-89989851D01*
X136758318Y-90045526D01*
X136749363Y-90114820D01*
X136723526Y-90152605D01*
X136187050Y-90689080D01*
X136187044Y-90689088D01*
X136137812Y-90762768D01*
X136137813Y-90762769D01*
X136104921Y-90811996D01*
X136104914Y-90812008D01*
X136048342Y-90948586D01*
X136048340Y-90948592D01*
X136019500Y-91093579D01*
X136019500Y-93050975D01*
X136018956Y-93052825D01*
X136019444Y-93054690D01*
X136009154Y-93086208D01*
X135999815Y-93118014D01*
X135998169Y-93119857D01*
X135997760Y-93121110D01*
X135989142Y-93129964D01*
X135973859Y-93147079D01*
X135971188Y-93149256D01*
X135857635Y-93231758D01*
X135803016Y-93286376D01*
X135798142Y-93290351D01*
X135771501Y-93301564D01*
X135746140Y-93315413D01*
X135739697Y-93314952D01*
X135733745Y-93317458D01*
X135705271Y-93312489D01*
X135676448Y-93310428D01*
X135671278Y-93306558D01*
X135664915Y-93305448D01*
X135643650Y-93285875D01*
X135620515Y-93268557D01*
X135616151Y-93260566D01*
X135613506Y-93258131D01*
X135612297Y-93253507D01*
X135603601Y-93237580D01*
X135573797Y-93157671D01*
X135573793Y-93157664D01*
X135487547Y-93042455D01*
X135487544Y-93042452D01*
X135372335Y-92956206D01*
X135372328Y-92956202D01*
X135237482Y-92905908D01*
X135237483Y-92905908D01*
X135177883Y-92899501D01*
X135177881Y-92899500D01*
X135177873Y-92899500D01*
X135177864Y-92899500D01*
X133282129Y-92899500D01*
X133282123Y-92899501D01*
X133222516Y-92905908D01*
X133087671Y-92956202D01*
X133087664Y-92956206D01*
X132972455Y-93042452D01*
X132972452Y-93042455D01*
X132886206Y-93157664D01*
X132886202Y-93157671D01*
X132835908Y-93292517D01*
X132829501Y-93352116D01*
X132829500Y-93352135D01*
X129500500Y-93352135D01*
X129500500Y-89975729D01*
X129520185Y-89908690D01*
X129572989Y-89862935D01*
X129642147Y-89852991D01*
X129705703Y-89882016D01*
X129743477Y-89940794D01*
X129744258Y-89943576D01*
X129783065Y-90088408D01*
X129806704Y-90176630D01*
X129912075Y-90431017D01*
X129912080Y-90431028D01*
X129943760Y-90485898D01*
X130049751Y-90669479D01*
X130049753Y-90669482D01*
X130049754Y-90669483D01*
X130217370Y-90887926D01*
X130217376Y-90887933D01*
X130412066Y-91082623D01*
X130412073Y-91082629D01*
X130507663Y-91155977D01*
X130630521Y-91250249D01*
X130748735Y-91318500D01*
X130868971Y-91387919D01*
X130868976Y-91387921D01*
X130868979Y-91387923D01*
X131123368Y-91493295D01*
X131389334Y-91564560D01*
X131662326Y-91600500D01*
X131662333Y-91600500D01*
X131937667Y-91600500D01*
X131937674Y-91600500D01*
X132210666Y-91564560D01*
X132476632Y-91493295D01*
X132731021Y-91387923D01*
X132969479Y-91250249D01*
X133187928Y-91082628D01*
X133382628Y-90887928D01*
X133550249Y-90669479D01*
X133687923Y-90431021D01*
X133793295Y-90176632D01*
X133864560Y-89910666D01*
X133900500Y-89637674D01*
X133900500Y-89362326D01*
X133864560Y-89089334D01*
X133793295Y-88823368D01*
X133687923Y-88568979D01*
X133687921Y-88568976D01*
X133687919Y-88568971D01*
X133622909Y-88456372D01*
X133550249Y-88330521D01*
X133382628Y-88112072D01*
X133382623Y-88112066D01*
X133187933Y-87917376D01*
X133187926Y-87917370D01*
X132969483Y-87749754D01*
X132969482Y-87749753D01*
X132969479Y-87749751D01*
X132874407Y-87694861D01*
X132731028Y-87612080D01*
X132731017Y-87612075D01*
X132476630Y-87506704D01*
X132343649Y-87471072D01*
X132210666Y-87435440D01*
X132210660Y-87435439D01*
X132210655Y-87435438D01*
X131937684Y-87399501D01*
X131937679Y-87399500D01*
X131937674Y-87399500D01*
X131662326Y-87399500D01*
X131662320Y-87399500D01*
X131662315Y-87399501D01*
X131389344Y-87435438D01*
X131389337Y-87435439D01*
X131389334Y-87435440D01*
X131333125Y-87450500D01*
X131123369Y-87506704D01*
X130868982Y-87612075D01*
X130868971Y-87612080D01*
X130630516Y-87749754D01*
X130412073Y-87917370D01*
X130412066Y-87917376D01*
X130217376Y-88112066D01*
X130217370Y-88112073D01*
X130049754Y-88330516D01*
X129912080Y-88568971D01*
X129912075Y-88568982D01*
X129806704Y-88823369D01*
X129787370Y-88895528D01*
X129748583Y-89040286D01*
X129744275Y-89056363D01*
X129707910Y-89116024D01*
X129645063Y-89146553D01*
X129575688Y-89138258D01*
X129521810Y-89093773D01*
X129500535Y-89027221D01*
X129500500Y-89024270D01*
X129500500Y-87124500D01*
X129520185Y-87057461D01*
X129572989Y-87011706D01*
X129624500Y-87000500D01*
X155058504Y-87000500D01*
X155125543Y-87020185D01*
G37*
%TD.AperFunction*%
%TD*%
M02*
