%TF.GenerationSoftware,KiCad,Pcbnew,9.0.4*%
%TF.CreationDate,2025-09-13T21:48:36+02:00*%
%TF.ProjectId,TDA7267,54444137-3236-4372-9e6b-696361645f70,rev?*%
%TF.SameCoordinates,Original*%
%TF.FileFunction,Legend,Bot*%
%TF.FilePolarity,Positive*%
%FSLAX46Y46*%
G04 Gerber Fmt 4.6, Leading zero omitted, Abs format (unit mm)*
G04 Created by KiCad (PCBNEW 9.0.4) date 2025-09-13 21:48:36*
%MOMM*%
%LPD*%
G01*
G04 APERTURE LIST*
%ADD10C,0.250000*%
G04 APERTURE END LIST*
D10*
X163692669Y-108488512D02*
X162835527Y-108488512D01*
X163264098Y-109988512D02*
X163264098Y-108488512D01*
X162335527Y-109988512D02*
X162335527Y-108488512D01*
X162335527Y-108488512D02*
X161978384Y-108488512D01*
X161978384Y-108488512D02*
X161764098Y-108559941D01*
X161764098Y-108559941D02*
X161621241Y-108702798D01*
X161621241Y-108702798D02*
X161549812Y-108845655D01*
X161549812Y-108845655D02*
X161478384Y-109131369D01*
X161478384Y-109131369D02*
X161478384Y-109345655D01*
X161478384Y-109345655D02*
X161549812Y-109631369D01*
X161549812Y-109631369D02*
X161621241Y-109774226D01*
X161621241Y-109774226D02*
X161764098Y-109917084D01*
X161764098Y-109917084D02*
X161978384Y-109988512D01*
X161978384Y-109988512D02*
X162335527Y-109988512D01*
X160906955Y-109559941D02*
X160192670Y-109559941D01*
X161049812Y-109988512D02*
X160549812Y-108488512D01*
X160549812Y-108488512D02*
X160049812Y-109988512D01*
X159692670Y-108488512D02*
X158692670Y-108488512D01*
X158692670Y-108488512D02*
X159335527Y-109988512D01*
X158192670Y-108631369D02*
X158121242Y-108559941D01*
X158121242Y-108559941D02*
X157978385Y-108488512D01*
X157978385Y-108488512D02*
X157621242Y-108488512D01*
X157621242Y-108488512D02*
X157478385Y-108559941D01*
X157478385Y-108559941D02*
X157406956Y-108631369D01*
X157406956Y-108631369D02*
X157335527Y-108774226D01*
X157335527Y-108774226D02*
X157335527Y-108917084D01*
X157335527Y-108917084D02*
X157406956Y-109131369D01*
X157406956Y-109131369D02*
X158264099Y-109988512D01*
X158264099Y-109988512D02*
X157335527Y-109988512D01*
X156049814Y-108488512D02*
X156335528Y-108488512D01*
X156335528Y-108488512D02*
X156478385Y-108559941D01*
X156478385Y-108559941D02*
X156549814Y-108631369D01*
X156549814Y-108631369D02*
X156692671Y-108845655D01*
X156692671Y-108845655D02*
X156764099Y-109131369D01*
X156764099Y-109131369D02*
X156764099Y-109702798D01*
X156764099Y-109702798D02*
X156692671Y-109845655D01*
X156692671Y-109845655D02*
X156621242Y-109917084D01*
X156621242Y-109917084D02*
X156478385Y-109988512D01*
X156478385Y-109988512D02*
X156192671Y-109988512D01*
X156192671Y-109988512D02*
X156049814Y-109917084D01*
X156049814Y-109917084D02*
X155978385Y-109845655D01*
X155978385Y-109845655D02*
X155906956Y-109702798D01*
X155906956Y-109702798D02*
X155906956Y-109345655D01*
X155906956Y-109345655D02*
X155978385Y-109202798D01*
X155978385Y-109202798D02*
X156049814Y-109131369D01*
X156049814Y-109131369D02*
X156192671Y-109059941D01*
X156192671Y-109059941D02*
X156478385Y-109059941D01*
X156478385Y-109059941D02*
X156621242Y-109131369D01*
X156621242Y-109131369D02*
X156692671Y-109202798D01*
X156692671Y-109202798D02*
X156764099Y-109345655D01*
X155406957Y-108488512D02*
X154406957Y-108488512D01*
X154406957Y-108488512D02*
X155049814Y-109988512D01*
X152764100Y-108631369D02*
X152692672Y-108559941D01*
X152692672Y-108559941D02*
X152549815Y-108488512D01*
X152549815Y-108488512D02*
X152192672Y-108488512D01*
X152192672Y-108488512D02*
X152049815Y-108559941D01*
X152049815Y-108559941D02*
X151978386Y-108631369D01*
X151978386Y-108631369D02*
X151906957Y-108774226D01*
X151906957Y-108774226D02*
X151906957Y-108917084D01*
X151906957Y-108917084D02*
X151978386Y-109131369D01*
X151978386Y-109131369D02*
X152835529Y-109988512D01*
X152835529Y-109988512D02*
X151906957Y-109988512D01*
X151264101Y-109845655D02*
X151192672Y-109917084D01*
X151192672Y-109917084D02*
X151264101Y-109988512D01*
X151264101Y-109988512D02*
X151335529Y-109917084D01*
X151335529Y-109917084D02*
X151264101Y-109845655D01*
X151264101Y-109845655D02*
X151264101Y-109988512D01*
X149835529Y-108488512D02*
X150549815Y-108488512D01*
X150549815Y-108488512D02*
X150621243Y-109202798D01*
X150621243Y-109202798D02*
X150549815Y-109131369D01*
X150549815Y-109131369D02*
X150406958Y-109059941D01*
X150406958Y-109059941D02*
X150049815Y-109059941D01*
X150049815Y-109059941D02*
X149906958Y-109131369D01*
X149906958Y-109131369D02*
X149835529Y-109202798D01*
X149835529Y-109202798D02*
X149764100Y-109345655D01*
X149764100Y-109345655D02*
X149764100Y-109702798D01*
X149764100Y-109702798D02*
X149835529Y-109845655D01*
X149835529Y-109845655D02*
X149906958Y-109917084D01*
X149906958Y-109917084D02*
X150049815Y-109988512D01*
X150049815Y-109988512D02*
X150406958Y-109988512D01*
X150406958Y-109988512D02*
X150549815Y-109917084D01*
X150549815Y-109917084D02*
X150621243Y-109845655D01*
X149264101Y-108488512D02*
X148906958Y-109988512D01*
X148906958Y-109988512D02*
X148621244Y-108917084D01*
X148621244Y-108917084D02*
X148335529Y-109988512D01*
X148335529Y-109988512D02*
X147978387Y-108488512D01*
X146335529Y-109559941D02*
X145621244Y-109559941D01*
X146478386Y-109988512D02*
X145978386Y-108488512D01*
X145978386Y-108488512D02*
X145478386Y-109988512D01*
X144978387Y-109988512D02*
X144978387Y-108988512D01*
X144978387Y-109131369D02*
X144906958Y-109059941D01*
X144906958Y-109059941D02*
X144764101Y-108988512D01*
X144764101Y-108988512D02*
X144549815Y-108988512D01*
X144549815Y-108988512D02*
X144406958Y-109059941D01*
X144406958Y-109059941D02*
X144335530Y-109202798D01*
X144335530Y-109202798D02*
X144335530Y-109988512D01*
X144335530Y-109202798D02*
X144264101Y-109059941D01*
X144264101Y-109059941D02*
X144121244Y-108988512D01*
X144121244Y-108988512D02*
X143906958Y-108988512D01*
X143906958Y-108988512D02*
X143764101Y-109059941D01*
X143764101Y-109059941D02*
X143692672Y-109202798D01*
X143692672Y-109202798D02*
X143692672Y-109988512D01*
X142978387Y-108988512D02*
X142978387Y-110488512D01*
X142978387Y-109059941D02*
X142835530Y-108988512D01*
X142835530Y-108988512D02*
X142549815Y-108988512D01*
X142549815Y-108988512D02*
X142406958Y-109059941D01*
X142406958Y-109059941D02*
X142335530Y-109131369D01*
X142335530Y-109131369D02*
X142264101Y-109274226D01*
X142264101Y-109274226D02*
X142264101Y-109702798D01*
X142264101Y-109702798D02*
X142335530Y-109845655D01*
X142335530Y-109845655D02*
X142406958Y-109917084D01*
X142406958Y-109917084D02*
X142549815Y-109988512D01*
X142549815Y-109988512D02*
X142835530Y-109988512D01*
X142835530Y-109988512D02*
X142978387Y-109917084D01*
X141406958Y-109988512D02*
X141549815Y-109917084D01*
X141549815Y-109917084D02*
X141621244Y-109774226D01*
X141621244Y-109774226D02*
X141621244Y-108488512D01*
X140835530Y-109988512D02*
X140835530Y-108988512D01*
X140835530Y-108488512D02*
X140906958Y-108559941D01*
X140906958Y-108559941D02*
X140835530Y-108631369D01*
X140835530Y-108631369D02*
X140764101Y-108559941D01*
X140764101Y-108559941D02*
X140835530Y-108488512D01*
X140835530Y-108488512D02*
X140835530Y-108631369D01*
X140335529Y-108988512D02*
X139764101Y-108988512D01*
X140121244Y-109988512D02*
X140121244Y-108702798D01*
X140121244Y-108702798D02*
X140049815Y-108559941D01*
X140049815Y-108559941D02*
X139906958Y-108488512D01*
X139906958Y-108488512D02*
X139764101Y-108488512D01*
X139264101Y-109988512D02*
X139264101Y-108988512D01*
X139264101Y-108488512D02*
X139335529Y-108559941D01*
X139335529Y-108559941D02*
X139264101Y-108631369D01*
X139264101Y-108631369D02*
X139192672Y-108559941D01*
X139192672Y-108559941D02*
X139264101Y-108488512D01*
X139264101Y-108488512D02*
X139264101Y-108631369D01*
X137978386Y-109917084D02*
X138121243Y-109988512D01*
X138121243Y-109988512D02*
X138406958Y-109988512D01*
X138406958Y-109988512D02*
X138549815Y-109917084D01*
X138549815Y-109917084D02*
X138621243Y-109774226D01*
X138621243Y-109774226D02*
X138621243Y-109202798D01*
X138621243Y-109202798D02*
X138549815Y-109059941D01*
X138549815Y-109059941D02*
X138406958Y-108988512D01*
X138406958Y-108988512D02*
X138121243Y-108988512D01*
X138121243Y-108988512D02*
X137978386Y-109059941D01*
X137978386Y-109059941D02*
X137906958Y-109202798D01*
X137906958Y-109202798D02*
X137906958Y-109345655D01*
X137906958Y-109345655D02*
X138621243Y-109488512D01*
X137264101Y-109988512D02*
X137264101Y-108988512D01*
X137264101Y-109274226D02*
X137192672Y-109131369D01*
X137192672Y-109131369D02*
X137121244Y-109059941D01*
X137121244Y-109059941D02*
X136978386Y-108988512D01*
X136978386Y-108988512D02*
X136835529Y-108988512D01*
X136335530Y-109845655D02*
X136264101Y-109917084D01*
X136264101Y-109917084D02*
X136335530Y-109988512D01*
X136335530Y-109988512D02*
X136406958Y-109917084D01*
X136406958Y-109917084D02*
X136335530Y-109845655D01*
X136335530Y-109845655D02*
X136335530Y-109988512D01*
X162764098Y-110903428D02*
X163478384Y-110903428D01*
X163478384Y-110903428D02*
X163549812Y-111617714D01*
X163549812Y-111617714D02*
X163478384Y-111546285D01*
X163478384Y-111546285D02*
X163335527Y-111474857D01*
X163335527Y-111474857D02*
X162978384Y-111474857D01*
X162978384Y-111474857D02*
X162835527Y-111546285D01*
X162835527Y-111546285D02*
X162764098Y-111617714D01*
X162764098Y-111617714D02*
X162692669Y-111760571D01*
X162692669Y-111760571D02*
X162692669Y-112117714D01*
X162692669Y-112117714D02*
X162764098Y-112260571D01*
X162764098Y-112260571D02*
X162835527Y-112332000D01*
X162835527Y-112332000D02*
X162978384Y-112403428D01*
X162978384Y-112403428D02*
X163335527Y-112403428D01*
X163335527Y-112403428D02*
X163478384Y-112332000D01*
X163478384Y-112332000D02*
X163549812Y-112260571D01*
X161121241Y-111403428D02*
X160549813Y-111403428D01*
X160906956Y-110903428D02*
X160906956Y-112189142D01*
X160906956Y-112189142D02*
X160835527Y-112332000D01*
X160835527Y-112332000D02*
X160692670Y-112403428D01*
X160692670Y-112403428D02*
X160549813Y-112403428D01*
X159835527Y-112403428D02*
X159978384Y-112332000D01*
X159978384Y-112332000D02*
X160049813Y-112260571D01*
X160049813Y-112260571D02*
X160121241Y-112117714D01*
X160121241Y-112117714D02*
X160121241Y-111689142D01*
X160121241Y-111689142D02*
X160049813Y-111546285D01*
X160049813Y-111546285D02*
X159978384Y-111474857D01*
X159978384Y-111474857D02*
X159835527Y-111403428D01*
X159835527Y-111403428D02*
X159621241Y-111403428D01*
X159621241Y-111403428D02*
X159478384Y-111474857D01*
X159478384Y-111474857D02*
X159406956Y-111546285D01*
X159406956Y-111546285D02*
X159335527Y-111689142D01*
X159335527Y-111689142D02*
X159335527Y-112117714D01*
X159335527Y-112117714D02*
X159406956Y-112260571D01*
X159406956Y-112260571D02*
X159478384Y-112332000D01*
X159478384Y-112332000D02*
X159621241Y-112403428D01*
X159621241Y-112403428D02*
X159835527Y-112403428D01*
X156764098Y-112403428D02*
X157621241Y-112403428D01*
X157192670Y-112403428D02*
X157192670Y-110903428D01*
X157192670Y-110903428D02*
X157335527Y-111117714D01*
X157335527Y-111117714D02*
X157478384Y-111260571D01*
X157478384Y-111260571D02*
X157621241Y-111332000D01*
X155406956Y-110903428D02*
X156121242Y-110903428D01*
X156121242Y-110903428D02*
X156192670Y-111617714D01*
X156192670Y-111617714D02*
X156121242Y-111546285D01*
X156121242Y-111546285D02*
X155978385Y-111474857D01*
X155978385Y-111474857D02*
X155621242Y-111474857D01*
X155621242Y-111474857D02*
X155478385Y-111546285D01*
X155478385Y-111546285D02*
X155406956Y-111617714D01*
X155406956Y-111617714D02*
X155335527Y-111760571D01*
X155335527Y-111760571D02*
X155335527Y-112117714D01*
X155335527Y-112117714D02*
X155406956Y-112260571D01*
X155406956Y-112260571D02*
X155478385Y-112332000D01*
X155478385Y-112332000D02*
X155621242Y-112403428D01*
X155621242Y-112403428D02*
X155978385Y-112403428D01*
X155978385Y-112403428D02*
X156121242Y-112332000D01*
X156121242Y-112332000D02*
X156192670Y-112260571D01*
X154906956Y-110903428D02*
X154406956Y-112403428D01*
X154406956Y-112403428D02*
X153906956Y-110903428D01*
X152264100Y-112403428D02*
X152264100Y-110903428D01*
X152264100Y-110903428D02*
X151906957Y-110903428D01*
X151906957Y-110903428D02*
X151692671Y-110974857D01*
X151692671Y-110974857D02*
X151549814Y-111117714D01*
X151549814Y-111117714D02*
X151478385Y-111260571D01*
X151478385Y-111260571D02*
X151406957Y-111546285D01*
X151406957Y-111546285D02*
X151406957Y-111760571D01*
X151406957Y-111760571D02*
X151478385Y-112046285D01*
X151478385Y-112046285D02*
X151549814Y-112189142D01*
X151549814Y-112189142D02*
X151692671Y-112332000D01*
X151692671Y-112332000D02*
X151906957Y-112403428D01*
X151906957Y-112403428D02*
X152264100Y-112403428D01*
X149906957Y-112260571D02*
X149978385Y-112332000D01*
X149978385Y-112332000D02*
X150192671Y-112403428D01*
X150192671Y-112403428D02*
X150335528Y-112403428D01*
X150335528Y-112403428D02*
X150549814Y-112332000D01*
X150549814Y-112332000D02*
X150692671Y-112189142D01*
X150692671Y-112189142D02*
X150764100Y-112046285D01*
X150764100Y-112046285D02*
X150835528Y-111760571D01*
X150835528Y-111760571D02*
X150835528Y-111546285D01*
X150835528Y-111546285D02*
X150764100Y-111260571D01*
X150764100Y-111260571D02*
X150692671Y-111117714D01*
X150692671Y-111117714D02*
X150549814Y-110974857D01*
X150549814Y-110974857D02*
X150335528Y-110903428D01*
X150335528Y-110903428D02*
X150192671Y-110903428D01*
X150192671Y-110903428D02*
X149978385Y-110974857D01*
X149978385Y-110974857D02*
X149906957Y-111046285D01*
X148192671Y-112332000D02*
X148049814Y-112403428D01*
X148049814Y-112403428D02*
X147764100Y-112403428D01*
X147764100Y-112403428D02*
X147621243Y-112332000D01*
X147621243Y-112332000D02*
X147549814Y-112189142D01*
X147549814Y-112189142D02*
X147549814Y-112117714D01*
X147549814Y-112117714D02*
X147621243Y-111974857D01*
X147621243Y-111974857D02*
X147764100Y-111903428D01*
X147764100Y-111903428D02*
X147978386Y-111903428D01*
X147978386Y-111903428D02*
X148121243Y-111832000D01*
X148121243Y-111832000D02*
X148192671Y-111689142D01*
X148192671Y-111689142D02*
X148192671Y-111617714D01*
X148192671Y-111617714D02*
X148121243Y-111474857D01*
X148121243Y-111474857D02*
X147978386Y-111403428D01*
X147978386Y-111403428D02*
X147764100Y-111403428D01*
X147764100Y-111403428D02*
X147621243Y-111474857D01*
X146264100Y-111403428D02*
X146264100Y-112403428D01*
X146906957Y-111403428D02*
X146906957Y-112189142D01*
X146906957Y-112189142D02*
X146835528Y-112332000D01*
X146835528Y-112332000D02*
X146692671Y-112403428D01*
X146692671Y-112403428D02*
X146478385Y-112403428D01*
X146478385Y-112403428D02*
X146335528Y-112332000D01*
X146335528Y-112332000D02*
X146264100Y-112260571D01*
X145549814Y-111403428D02*
X145549814Y-112903428D01*
X145549814Y-111474857D02*
X145406957Y-111403428D01*
X145406957Y-111403428D02*
X145121242Y-111403428D01*
X145121242Y-111403428D02*
X144978385Y-111474857D01*
X144978385Y-111474857D02*
X144906957Y-111546285D01*
X144906957Y-111546285D02*
X144835528Y-111689142D01*
X144835528Y-111689142D02*
X144835528Y-112117714D01*
X144835528Y-112117714D02*
X144906957Y-112260571D01*
X144906957Y-112260571D02*
X144978385Y-112332000D01*
X144978385Y-112332000D02*
X145121242Y-112403428D01*
X145121242Y-112403428D02*
X145406957Y-112403428D01*
X145406957Y-112403428D02*
X145549814Y-112332000D01*
X144192671Y-111403428D02*
X144192671Y-112903428D01*
X144192671Y-111474857D02*
X144049814Y-111403428D01*
X144049814Y-111403428D02*
X143764099Y-111403428D01*
X143764099Y-111403428D02*
X143621242Y-111474857D01*
X143621242Y-111474857D02*
X143549814Y-111546285D01*
X143549814Y-111546285D02*
X143478385Y-111689142D01*
X143478385Y-111689142D02*
X143478385Y-112117714D01*
X143478385Y-112117714D02*
X143549814Y-112260571D01*
X143549814Y-112260571D02*
X143621242Y-112332000D01*
X143621242Y-112332000D02*
X143764099Y-112403428D01*
X143764099Y-112403428D02*
X144049814Y-112403428D01*
X144049814Y-112403428D02*
X144192671Y-112332000D01*
X142621242Y-112403428D02*
X142764099Y-112332000D01*
X142764099Y-112332000D02*
X142835528Y-112189142D01*
X142835528Y-112189142D02*
X142835528Y-110903428D01*
X142192671Y-111403428D02*
X141835528Y-112403428D01*
X141478385Y-111403428D02*
X141835528Y-112403428D01*
X141835528Y-112403428D02*
X141978385Y-112760571D01*
X141978385Y-112760571D02*
X142049814Y-112832000D01*
X142049814Y-112832000D02*
X142192671Y-112903428D01*
X140906957Y-112260571D02*
X140835528Y-112332000D01*
X140835528Y-112332000D02*
X140906957Y-112403428D01*
X140906957Y-112403428D02*
X140978385Y-112332000D01*
X140978385Y-112332000D02*
X140906957Y-112260571D01*
X140906957Y-112260571D02*
X140906957Y-112403428D01*
M02*
