M48
; DRILL file {KiCad 9.0.4} date 2025-09-13T21:48:33+0200
; FORMAT={-:-/ absolute / inch / decimal}
; #@! TF.CreationDate,2025-09-13T21:48:33+02:00
; #@! TF.GenerationSoftware,Kicad,Pcbnew,9.0.4
; #@! TF.FileFunction,Plated,1,2,PTH
FMAT,2
INCH
; #@! TA.AperFunction,Plated,PTH,ComponentDrill
T1C0.0315
; #@! TA.AperFunction,Plated,PTH,ComponentDrill
T2C0.0354
; #@! TA.AperFunction,Plated,PTH,ComponentDrill
T3C0.0394
; #@! TA.AperFunction,Plated,PTH,ComponentDrill
T4C0.0512
; #@! TA.AperFunction,Plated,PTH,ComponentDrill
T5C0.0598
%
G90
G05
T1
X5.1752Y-3.9882
X5.3248Y-3.9882
X5.435Y-3.5389
X5.5339Y-3.9625
X5.5339Y-4.1594
X5.5457Y-3.7121
X5.7307Y-3.9184
X5.7307Y-4.2184
X5.735Y-3.5389
X5.7425Y-3.7121
X5.8882Y-3.7055
X5.8882Y-3.8055
X5.8882Y-3.9055
X5.8882Y-4.0055
X5.9252Y-4.1693
X6.122Y-4.1693
X6.1882Y-3.7055
X6.1882Y-3.8055
X6.1882Y-3.9055
X6.1882Y-4.0055
X6.3188Y-4.1969
X6.4684Y-4.1969
T2
X5.2846Y-3.7126
X5.3846Y-3.7126
T3
X6.4147Y-3.815
X6.6115Y-3.815
T4
X5.7087Y-4.5177
X5.9055Y-4.5177
X6.1024Y-4.5177
T5
X5.2134Y-4.5276
X5.4134Y-4.5276
X6.1654Y-3.4877
X6.3654Y-3.4877
X6.4157Y-4.5276
X6.6157Y-4.5276
M30
