%TF.GenerationSoftware,KiCad,Pcbnew,9.0.4*%
%TF.CreationDate,2025-09-13T17:50:02+02:00*%
%TF.ProjectId,TDA7267,54444137-3236-4372-9e6b-696361645f70,rev?*%
%TF.SameCoordinates,Original*%
%TF.FileFunction,Soldermask,Top*%
%TF.FilePolarity,Negative*%
%FSLAX46Y46*%
G04 Gerber Fmt 4.6, Leading zero omitted, Abs format (unit mm)*
G04 Created by KiCad (PCBNEW 9.0.4) date 2025-09-13 17:50:02*
%MOMM*%
%LPD*%
G01*
G04 APERTURE LIST*
G04 Aperture macros list*
%AMRoundRect*
0 Rectangle with rounded corners*
0 $1 Rounding radius*
0 $2 $3 $4 $5 $6 $7 $8 $9 X,Y pos of 4 corners*
0 Add a 4 corners polygon primitive as box body*
4,1,4,$2,$3,$4,$5,$6,$7,$8,$9,$2,$3,0*
0 Add four circle primitives for the rounded corners*
1,1,$1+$1,$2,$3*
1,1,$1+$1,$4,$5*
1,1,$1+$1,$6,$7*
1,1,$1+$1,$8,$9*
0 Add four rect primitives between the rounded corners*
20,1,$1+$1,$2,$3,$4,$5,0*
20,1,$1+$1,$4,$5,$6,$7,0*
20,1,$1+$1,$6,$7,$8,$9,0*
20,1,$1+$1,$8,$9,$2,$3,0*%
G04 Aperture macros list end*
%ADD10C,1.600000*%
%ADD11R,3.000000X3.000000*%
%ADD12C,3.000000*%
%ADD13R,1.800000X1.800000*%
%ADD14C,1.800000*%
%ADD15C,2.200000*%
%ADD16RoundRect,0.250000X-0.950000X-0.550000X0.950000X-0.550000X0.950000X0.550000X-0.950000X0.550000X0*%
%ADD17O,2.400000X1.600000*%
%ADD18RoundRect,0.250000X-0.550000X-0.550000X0.550000X-0.550000X0.550000X0.550000X-0.550000X0.550000X0*%
%ADD19RoundRect,0.250000X-0.750000X-0.750000X0.750000X-0.750000X0.750000X0.750000X-0.750000X0.750000X0*%
%ADD20C,2.000000*%
%ADD21RoundRect,0.250000X0.550000X0.550000X-0.550000X0.550000X-0.550000X-0.550000X0.550000X-0.550000X0*%
%ADD22C,2.340000*%
G04 APERTURE END LIST*
D10*
%TO.C,C3*%
X140560000Y-105647500D03*
X140560000Y-100647500D03*
%TD*%
D11*
%TO.C,IN1*%
X162960000Y-115000000D03*
D12*
X168040000Y-115000000D03*
%TD*%
D10*
%TO.C,R1*%
X145560000Y-107147500D03*
X145560000Y-99527500D03*
%TD*%
D13*
%TO.C,D1*%
X134230000Y-94300000D03*
D14*
X136770000Y-94300000D03*
%TD*%
D15*
%TO.C,H1*%
X131800000Y-89500000D03*
%TD*%
D11*
%TO.C,OUT1*%
X161680000Y-88587500D03*
D12*
X156600000Y-88587500D03*
%TD*%
D10*
%TO.C,C5*%
X140860000Y-94287500D03*
X145860000Y-94287500D03*
%TD*%
D15*
%TO.C,H4*%
X169200000Y-108500000D03*
%TD*%
D10*
%TO.C,C1*%
X155500000Y-105900000D03*
X150500000Y-105900000D03*
%TD*%
D16*
%TO.C,U1*%
X149560000Y-94120000D03*
D17*
X149560000Y-96660000D03*
X149560000Y-99200000D03*
X149560000Y-101740000D03*
X157180000Y-101740000D03*
X157180000Y-99200000D03*
X157180000Y-96660000D03*
X157180000Y-94120000D03*
%TD*%
D10*
%TO.C,R2*%
X138050000Y-89887500D03*
X145670000Y-89887500D03*
%TD*%
D11*
%TO.C,VCC1*%
X132420000Y-115000000D03*
D12*
X137500000Y-115000000D03*
%TD*%
D15*
%TO.C,H2*%
X169200000Y-89500000D03*
%TD*%
D18*
%TO.C,C2*%
X160497349Y-106600000D03*
D10*
X164297349Y-106600000D03*
%TD*%
D19*
%TO.C,C6*%
X162932323Y-96900000D03*
D20*
X167932323Y-96900000D03*
%TD*%
D21*
%TO.C,C4*%
X135250000Y-101300000D03*
D10*
X131450000Y-101300000D03*
%TD*%
D22*
%TO.C,RV1*%
X145000000Y-114750000D03*
X150000000Y-114750000D03*
X155000000Y-114750000D03*
%TD*%
D15*
%TO.C,H3*%
X131800000Y-108500000D03*
%TD*%
M02*
