%TF.GenerationSoftware,KiCad,Pcbnew,9.0.4*%
%TF.CreationDate,2025-08-29T10:15:57+02:00*%
%TF.ProjectId,TDA7267,54444137-3236-4372-9e6b-696361645f70,rev?*%
%TF.SameCoordinates,Original*%
%TF.FileFunction,Copper,L1,Top*%
%TF.FilePolarity,Positive*%
%FSLAX46Y46*%
G04 Gerber Fmt 4.6, Leading zero omitted, Abs format (unit mm)*
G04 Created by KiCad (PCBNEW 9.0.4) date 2025-08-29 10:15:57*
%MOMM*%
%LPD*%
G01*
G04 APERTURE LIST*
G04 Aperture macros list*
%AMRoundRect*
0 Rectangle with rounded corners*
0 $1 Rounding radius*
0 $2 $3 $4 $5 $6 $7 $8 $9 X,Y pos of 4 corners*
0 Add a 4 corners polygon primitive as box body*
4,1,4,$2,$3,$4,$5,$6,$7,$8,$9,$2,$3,0*
0 Add four circle primitives for the rounded corners*
1,1,$1+$1,$2,$3*
1,1,$1+$1,$4,$5*
1,1,$1+$1,$6,$7*
1,1,$1+$1,$8,$9*
0 Add four rect primitives between the rounded corners*
20,1,$1+$1,$2,$3,$4,$5,0*
20,1,$1+$1,$4,$5,$6,$7,0*
20,1,$1+$1,$6,$7,$8,$9,0*
20,1,$1+$1,$8,$9,$2,$3,0*%
G04 Aperture macros list end*
%TA.AperFunction,ComponentPad*%
%ADD10C,1.600000*%
%TD*%
%TA.AperFunction,ComponentPad*%
%ADD11R,3.000000X3.000000*%
%TD*%
%TA.AperFunction,ComponentPad*%
%ADD12C,3.000000*%
%TD*%
%TA.AperFunction,ComponentPad*%
%ADD13R,1.800000X1.800000*%
%TD*%
%TA.AperFunction,ComponentPad*%
%ADD14C,1.800000*%
%TD*%
%TA.AperFunction,ComponentPad*%
%ADD15RoundRect,0.250000X-0.950000X-0.550000X0.950000X-0.550000X0.950000X0.550000X-0.950000X0.550000X0*%
%TD*%
%TA.AperFunction,ComponentPad*%
%ADD16O,2.400000X1.600000*%
%TD*%
%TA.AperFunction,ComponentPad*%
%ADD17RoundRect,0.250000X-0.550000X-0.550000X0.550000X-0.550000X0.550000X0.550000X-0.550000X0.550000X0*%
%TD*%
%TA.AperFunction,ComponentPad*%
%ADD18RoundRect,0.250000X-0.750000X-0.750000X0.750000X-0.750000X0.750000X0.750000X-0.750000X0.750000X0*%
%TD*%
%TA.AperFunction,ComponentPad*%
%ADD19C,2.000000*%
%TD*%
%TA.AperFunction,ComponentPad*%
%ADD20RoundRect,0.250000X0.550000X0.550000X-0.550000X0.550000X-0.550000X-0.550000X0.550000X-0.550000X0*%
%TD*%
%TA.AperFunction,ComponentPad*%
%ADD21C,2.340000*%
%TD*%
G04 APERTURE END LIST*
D10*
%TO.P,C3,1*%
%TO.N,GND*%
X140560000Y-105647500D03*
%TO.P,C3,2*%
%TO.N,Net-(U1-In)*%
X140560000Y-100647500D03*
%TD*%
D11*
%TO.P,IN1,1,Pin_1*%
%TO.N,Net-(IN1-Pin_1)*%
X162960000Y-115000000D03*
D12*
%TO.P,IN1,2,Pin_2*%
%TO.N,GND*%
X168040000Y-115000000D03*
%TD*%
D10*
%TO.P,R1,1*%
%TO.N,Net-(C1-Pad2)*%
X145560000Y-107147500D03*
%TO.P,R1,2*%
%TO.N,Net-(U1-In)*%
X145560000Y-99527500D03*
%TD*%
D13*
%TO.P,D1,1,K*%
%TO.N,GND*%
X134230000Y-94300000D03*
D14*
%TO.P,D1,2,A*%
%TO.N,Net-(D1-A)*%
X136770000Y-94300000D03*
%TD*%
D12*
%TO.P,OUT1,2,Pin_2*%
%TO.N,GND*%
X156600000Y-88587500D03*
D11*
%TO.P,OUT1,1,Pin_1*%
%TO.N,Net-(OUT1-Pin_1)*%
X161680000Y-88587500D03*
%TD*%
D10*
%TO.P,C5,1*%
%TO.N,GND*%
X140860000Y-94287500D03*
%TO.P,C5,2*%
%TO.N,Net-(U1-V+)*%
X145860000Y-94287500D03*
%TD*%
%TO.P,C1,1*%
%TO.N,Net-(C1-Pad1)*%
X155500000Y-105900000D03*
%TO.P,C1,2*%
%TO.N,Net-(C1-Pad2)*%
X150500000Y-105900000D03*
%TD*%
D15*
%TO.P,TDA7267,1,V+*%
%TO.N,Net-(U1-V+)*%
X149560000Y-94120000D03*
D16*
%TO.P,TDA7267,2,Out*%
%TO.N,Net-(U1-Out)*%
X149560000Y-96660000D03*
%TO.P,TDA7267,3,SRV*%
%TO.N,Net-(U1-SRV)*%
X149560000Y-99200000D03*
%TO.P,TDA7267,4,In*%
%TO.N,Net-(U1-In)*%
X149560000Y-101740000D03*
%TO.P,TDA7267,5,GND*%
%TO.N,GND*%
X157180000Y-101740000D03*
%TO.P,TDA7267,6,GND*%
X157180000Y-99200000D03*
%TO.P,TDA7267,7,GND*%
X157180000Y-96660000D03*
%TO.P,TDA7267,8,GND*%
X157180000Y-94120000D03*
%TD*%
D10*
%TO.P,R2,1*%
%TO.N,Net-(D1-A)*%
X138050000Y-89887500D03*
%TO.P,R2,2*%
%TO.N,Net-(U1-V+)*%
X145670000Y-89887500D03*
%TD*%
D11*
%TO.P,VCC1,1,Pin_1*%
%TO.N,Net-(U1-V+)*%
X132420000Y-115000000D03*
D12*
%TO.P,VCC1,2,Pin_2*%
%TO.N,GND*%
X137500000Y-115000000D03*
%TD*%
D17*
%TO.P,C2,1*%
%TO.N,Net-(U1-SRV)*%
X160497349Y-106600000D03*
D10*
%TO.P,C2,2*%
%TO.N,GND*%
X164297349Y-106600000D03*
%TD*%
D18*
%TO.P,C6,1*%
%TO.N,Net-(U1-Out)*%
X162932323Y-96900000D03*
D19*
%TO.P,C6,2*%
%TO.N,Net-(OUT1-Pin_1)*%
X167932323Y-96900000D03*
%TD*%
D20*
%TO.P,C4,1*%
%TO.N,Net-(U1-V+)*%
X135500000Y-101300000D03*
D10*
%TO.P,C4,2*%
%TO.N,GND*%
X131700000Y-101300000D03*
%TD*%
D21*
%TO.P,RV1,1,1*%
%TO.N,Net-(IN1-Pin_1)*%
X145000000Y-114750000D03*
%TO.P,RV1,2,2*%
%TO.N,Net-(C1-Pad1)*%
X150000000Y-114750000D03*
%TO.P,RV1,3,3*%
%TO.N,GND*%
X155000000Y-114750000D03*
%TD*%
%TA.AperFunction,Conductor*%
%TO.N,GND*%
G36*
X159622539Y-87020185D02*
G01*
X159668294Y-87072989D01*
X159679500Y-87124500D01*
X159679500Y-90135370D01*
X159679501Y-90135376D01*
X159685908Y-90194983D01*
X159736202Y-90329828D01*
X159736206Y-90329835D01*
X159822452Y-90445044D01*
X159822455Y-90445047D01*
X159937664Y-90531293D01*
X159937671Y-90531297D01*
X160072517Y-90581591D01*
X160072516Y-90581591D01*
X160079444Y-90582335D01*
X160132127Y-90588000D01*
X163227872Y-90587999D01*
X163287483Y-90581591D01*
X163422331Y-90531296D01*
X163537546Y-90445046D01*
X163623796Y-90329831D01*
X163674091Y-90194983D01*
X163680500Y-90135373D01*
X163680499Y-87124499D01*
X163700184Y-87057461D01*
X163752988Y-87011706D01*
X163804499Y-87000500D01*
X171375500Y-87000500D01*
X171442539Y-87020185D01*
X171488294Y-87072989D01*
X171499500Y-87124500D01*
X171499500Y-89024270D01*
X171479815Y-89091309D01*
X171427011Y-89137064D01*
X171357853Y-89147008D01*
X171294297Y-89117983D01*
X171256523Y-89059205D01*
X171255725Y-89056363D01*
X171251417Y-89040286D01*
X171193295Y-88823368D01*
X171087923Y-88568979D01*
X171087921Y-88568976D01*
X171087919Y-88568971D01*
X171038732Y-88483778D01*
X170950249Y-88330521D01*
X170782628Y-88112072D01*
X170782623Y-88112066D01*
X170587933Y-87917376D01*
X170587926Y-87917370D01*
X170369483Y-87749754D01*
X170369482Y-87749753D01*
X170369479Y-87749751D01*
X170274407Y-87694861D01*
X170131028Y-87612080D01*
X170131017Y-87612075D01*
X169876630Y-87506704D01*
X169743649Y-87471072D01*
X169610666Y-87435440D01*
X169610660Y-87435439D01*
X169610655Y-87435438D01*
X169337684Y-87399501D01*
X169337679Y-87399500D01*
X169337674Y-87399500D01*
X169062326Y-87399500D01*
X169062320Y-87399500D01*
X169062315Y-87399501D01*
X168789344Y-87435438D01*
X168789337Y-87435439D01*
X168789334Y-87435440D01*
X168733125Y-87450500D01*
X168523369Y-87506704D01*
X168268982Y-87612075D01*
X168268971Y-87612080D01*
X168030516Y-87749754D01*
X167812073Y-87917370D01*
X167812066Y-87917376D01*
X167617376Y-88112066D01*
X167617370Y-88112073D01*
X167449754Y-88330516D01*
X167312080Y-88568971D01*
X167312075Y-88568982D01*
X167206704Y-88823369D01*
X167135441Y-89089331D01*
X167135438Y-89089344D01*
X167099501Y-89362315D01*
X167099500Y-89362332D01*
X167099500Y-89637667D01*
X167099501Y-89637684D01*
X167135438Y-89910655D01*
X167135439Y-89910660D01*
X167135440Y-89910666D01*
X167156658Y-89989852D01*
X167206704Y-90176630D01*
X167312075Y-90431017D01*
X167312080Y-90431028D01*
X167369969Y-90531293D01*
X167449751Y-90669479D01*
X167449753Y-90669482D01*
X167449754Y-90669483D01*
X167617370Y-90887926D01*
X167617376Y-90887933D01*
X167812066Y-91082623D01*
X167812073Y-91082629D01*
X167825224Y-91092720D01*
X168030521Y-91250249D01*
X168183778Y-91338732D01*
X168268971Y-91387919D01*
X168268976Y-91387921D01*
X168268979Y-91387923D01*
X168523368Y-91493295D01*
X168789334Y-91564560D01*
X169062326Y-91600500D01*
X169062333Y-91600500D01*
X169337667Y-91600500D01*
X169337674Y-91600500D01*
X169610666Y-91564560D01*
X169876632Y-91493295D01*
X170131021Y-91387923D01*
X170369479Y-91250249D01*
X170587928Y-91082628D01*
X170782628Y-90887928D01*
X170950249Y-90669479D01*
X171087923Y-90431021D01*
X171193295Y-90176632D01*
X171255726Y-89943633D01*
X171292090Y-89883975D01*
X171354937Y-89853446D01*
X171424312Y-89861741D01*
X171478190Y-89906226D01*
X171499465Y-89972778D01*
X171499500Y-89975729D01*
X171499500Y-108024270D01*
X171479815Y-108091309D01*
X171427011Y-108137064D01*
X171357853Y-108147008D01*
X171294297Y-108117983D01*
X171256523Y-108059205D01*
X171255725Y-108056363D01*
X171247916Y-108027221D01*
X171193295Y-107823368D01*
X171087923Y-107568979D01*
X171087921Y-107568976D01*
X171087919Y-107568971D01*
X171030391Y-107469331D01*
X170950249Y-107330521D01*
X170850111Y-107200018D01*
X170782629Y-107112073D01*
X170782623Y-107112066D01*
X170587933Y-106917376D01*
X170587926Y-106917370D01*
X170369483Y-106749754D01*
X170369482Y-106749753D01*
X170369479Y-106749751D01*
X170274407Y-106694861D01*
X170131028Y-106612080D01*
X170131017Y-106612075D01*
X169876630Y-106506704D01*
X169743649Y-106471072D01*
X169610666Y-106435440D01*
X169610660Y-106435439D01*
X169610655Y-106435438D01*
X169337684Y-106399501D01*
X169337679Y-106399500D01*
X169337674Y-106399500D01*
X169062326Y-106399500D01*
X169062320Y-106399500D01*
X169062315Y-106399501D01*
X168789344Y-106435438D01*
X168789337Y-106435439D01*
X168789334Y-106435440D01*
X168733125Y-106450500D01*
X168523369Y-106506704D01*
X168268982Y-106612075D01*
X168268971Y-106612080D01*
X168030516Y-106749754D01*
X167812073Y-106917370D01*
X167812066Y-106917376D01*
X167617376Y-107112066D01*
X167617370Y-107112073D01*
X167449754Y-107330516D01*
X167312080Y-107568971D01*
X167312075Y-107568982D01*
X167206704Y-107823369D01*
X167135441Y-108089331D01*
X167135438Y-108089344D01*
X167099501Y-108362315D01*
X167099500Y-108362332D01*
X167099500Y-108637667D01*
X167099501Y-108637684D01*
X167135438Y-108910655D01*
X167135439Y-108910660D01*
X167135440Y-108910666D01*
X167171072Y-109043649D01*
X167206704Y-109176630D01*
X167312075Y-109431017D01*
X167312080Y-109431028D01*
X167394861Y-109574407D01*
X167449751Y-109669479D01*
X167449753Y-109669482D01*
X167449754Y-109669483D01*
X167617370Y-109887926D01*
X167617376Y-109887933D01*
X167812066Y-110082623D01*
X167812072Y-110082628D01*
X168030521Y-110250249D01*
X168183778Y-110338732D01*
X168268971Y-110387919D01*
X168268976Y-110387921D01*
X168268979Y-110387923D01*
X168523368Y-110493295D01*
X168789334Y-110564560D01*
X169062326Y-110600500D01*
X169062333Y-110600500D01*
X169337667Y-110600500D01*
X169337674Y-110600500D01*
X169610666Y-110564560D01*
X169876632Y-110493295D01*
X170131021Y-110387923D01*
X170369479Y-110250249D01*
X170587928Y-110082628D01*
X170782628Y-109887928D01*
X170950249Y-109669479D01*
X171087923Y-109431021D01*
X171193295Y-109176632D01*
X171255726Y-108943633D01*
X171292090Y-108883975D01*
X171354937Y-108853446D01*
X171424312Y-108861741D01*
X171478190Y-108906226D01*
X171499465Y-108972778D01*
X171499500Y-108975729D01*
X171499500Y-116875500D01*
X171479815Y-116942539D01*
X171427011Y-116988294D01*
X171375500Y-116999500D01*
X164959001Y-116999500D01*
X164891962Y-116979815D01*
X164846207Y-116927011D01*
X164836263Y-116857853D01*
X164859734Y-116801189D01*
X164903796Y-116742331D01*
X164954091Y-116607483D01*
X164960500Y-116547873D01*
X164960499Y-113452128D01*
X164954091Y-113392517D01*
X164941235Y-113358049D01*
X164903797Y-113257671D01*
X164903793Y-113257664D01*
X164817547Y-113142455D01*
X164817544Y-113142452D01*
X164702335Y-113056206D01*
X164702328Y-113056202D01*
X164567482Y-113005908D01*
X164567483Y-113005908D01*
X164507883Y-112999501D01*
X164507881Y-112999500D01*
X164507873Y-112999500D01*
X164507864Y-112999500D01*
X161412129Y-112999500D01*
X161412123Y-112999501D01*
X161352516Y-113005908D01*
X161217671Y-113056202D01*
X161217664Y-113056206D01*
X161102455Y-113142452D01*
X161102452Y-113142455D01*
X161016206Y-113257664D01*
X161016202Y-113257671D01*
X160965908Y-113392517D01*
X160959501Y-113452116D01*
X160959501Y-113452123D01*
X160959500Y-113452135D01*
X160959500Y-116547870D01*
X160959501Y-116547876D01*
X160965908Y-116607483D01*
X161016202Y-116742328D01*
X161016204Y-116742331D01*
X161060265Y-116801189D01*
X161084683Y-116866652D01*
X161069832Y-116934925D01*
X161020427Y-116984331D01*
X160960999Y-116999500D01*
X134419001Y-116999500D01*
X134351962Y-116979815D01*
X134306207Y-116927011D01*
X134296263Y-116857853D01*
X134319734Y-116801189D01*
X134363796Y-116742331D01*
X134414091Y-116607483D01*
X134420500Y-116547873D01*
X134420499Y-114640502D01*
X143329500Y-114640502D01*
X143329500Y-114859497D01*
X143353306Y-115040314D01*
X143358083Y-115076598D01*
X143414759Y-115288117D01*
X143498560Y-115490428D01*
X143498562Y-115490433D01*
X143498565Y-115490438D01*
X143608049Y-115680070D01*
X143741355Y-115853798D01*
X143741361Y-115853805D01*
X143896194Y-116008638D01*
X143896201Y-116008644D01*
X144069929Y-116141950D01*
X144259561Y-116251434D01*
X144259563Y-116251434D01*
X144259572Y-116251440D01*
X144461883Y-116335241D01*
X144673402Y-116391917D01*
X144890510Y-116420500D01*
X144890517Y-116420500D01*
X145109483Y-116420500D01*
X145109490Y-116420500D01*
X145326598Y-116391917D01*
X145538117Y-116335241D01*
X145740428Y-116251440D01*
X145930071Y-116141950D01*
X146103800Y-116008643D01*
X146258643Y-115853800D01*
X146391950Y-115680071D01*
X146501440Y-115490428D01*
X146585241Y-115288117D01*
X146641917Y-115076598D01*
X146670500Y-114859490D01*
X146670500Y-114640510D01*
X146670499Y-114640502D01*
X148329500Y-114640502D01*
X148329500Y-114859497D01*
X148353306Y-115040314D01*
X148358083Y-115076598D01*
X148414759Y-115288117D01*
X148498560Y-115490428D01*
X148498562Y-115490433D01*
X148498565Y-115490438D01*
X148608049Y-115680070D01*
X148741355Y-115853798D01*
X148741361Y-115853805D01*
X148896194Y-116008638D01*
X148896201Y-116008644D01*
X149069929Y-116141950D01*
X149259561Y-116251434D01*
X149259563Y-116251434D01*
X149259572Y-116251440D01*
X149461883Y-116335241D01*
X149673402Y-116391917D01*
X149890510Y-116420500D01*
X149890517Y-116420500D01*
X150109483Y-116420500D01*
X150109490Y-116420500D01*
X150326598Y-116391917D01*
X150538117Y-116335241D01*
X150740428Y-116251440D01*
X150930071Y-116141950D01*
X151103800Y-116008643D01*
X151258643Y-115853800D01*
X151391950Y-115680071D01*
X151501440Y-115490428D01*
X151585241Y-115288117D01*
X151641917Y-115076598D01*
X151670500Y-114859490D01*
X151670500Y-114640510D01*
X151641917Y-114423402D01*
X151585241Y-114211883D01*
X151501440Y-114009572D01*
X151391950Y-113819929D01*
X151258643Y-113646200D01*
X151258638Y-113646194D01*
X151103805Y-113491361D01*
X151103798Y-113491355D01*
X150930070Y-113358049D01*
X150740438Y-113248565D01*
X150740433Y-113248562D01*
X150740428Y-113248560D01*
X150538117Y-113164759D01*
X150538118Y-113164759D01*
X150538115Y-113164758D01*
X150432357Y-113136421D01*
X150326598Y-113108083D01*
X150290314Y-113103306D01*
X150109497Y-113079500D01*
X150109490Y-113079500D01*
X149890510Y-113079500D01*
X149890502Y-113079500D01*
X149683853Y-113106707D01*
X149673402Y-113108083D01*
X149628699Y-113120060D01*
X149461884Y-113164758D01*
X149343374Y-113213847D01*
X149259572Y-113248560D01*
X149259569Y-113248561D01*
X149259561Y-113248565D01*
X149069929Y-113358049D01*
X148896201Y-113491355D01*
X148896194Y-113491361D01*
X148741361Y-113646194D01*
X148741355Y-113646201D01*
X148608049Y-113819929D01*
X148498565Y-114009561D01*
X148498560Y-114009573D01*
X148414758Y-114211884D01*
X148358084Y-114423399D01*
X148358082Y-114423410D01*
X148329500Y-114640502D01*
X146670499Y-114640502D01*
X146641917Y-114423402D01*
X146585241Y-114211883D01*
X146501440Y-114009572D01*
X146391950Y-113819929D01*
X146258643Y-113646200D01*
X146258638Y-113646194D01*
X146103805Y-113491361D01*
X146103798Y-113491355D01*
X145930070Y-113358049D01*
X145740438Y-113248565D01*
X145740433Y-113248562D01*
X145740428Y-113248560D01*
X145538117Y-113164759D01*
X145538118Y-113164759D01*
X145538115Y-113164758D01*
X145432357Y-113136421D01*
X145326598Y-113108083D01*
X145290314Y-113103306D01*
X145109497Y-113079500D01*
X145109490Y-113079500D01*
X144890510Y-113079500D01*
X144890502Y-113079500D01*
X144683853Y-113106707D01*
X144673402Y-113108083D01*
X144628699Y-113120060D01*
X144461884Y-113164758D01*
X144343374Y-113213847D01*
X144259572Y-113248560D01*
X144259569Y-113248561D01*
X144259561Y-113248565D01*
X144069929Y-113358049D01*
X143896201Y-113491355D01*
X143896194Y-113491361D01*
X143741361Y-113646194D01*
X143741355Y-113646201D01*
X143608049Y-113819929D01*
X143498565Y-114009561D01*
X143498560Y-114009573D01*
X143414758Y-114211884D01*
X143358084Y-114423399D01*
X143358082Y-114423410D01*
X143329500Y-114640502D01*
X134420499Y-114640502D01*
X134420499Y-113452128D01*
X134414091Y-113392517D01*
X134401235Y-113358049D01*
X134363797Y-113257671D01*
X134363793Y-113257664D01*
X134277547Y-113142455D01*
X134277544Y-113142452D01*
X134162335Y-113056206D01*
X134162328Y-113056202D01*
X134027482Y-113005908D01*
X134027483Y-113005908D01*
X133967883Y-112999501D01*
X133967881Y-112999500D01*
X133967873Y-112999500D01*
X133967864Y-112999500D01*
X130872129Y-112999500D01*
X130872123Y-112999501D01*
X130812516Y-113005908D01*
X130677671Y-113056202D01*
X130677664Y-113056206D01*
X130562455Y-113142452D01*
X130562452Y-113142455D01*
X130476206Y-113257664D01*
X130476202Y-113257671D01*
X130425908Y-113392517D01*
X130419501Y-113452116D01*
X130419501Y-113452123D01*
X130419500Y-113452135D01*
X130419500Y-116547870D01*
X130419501Y-116547876D01*
X130425908Y-116607483D01*
X130476202Y-116742328D01*
X130476204Y-116742331D01*
X130520265Y-116801189D01*
X130544683Y-116866652D01*
X130529832Y-116934925D01*
X130480427Y-116984331D01*
X130420999Y-116999500D01*
X129624500Y-116999500D01*
X129557461Y-116979815D01*
X129511706Y-116927011D01*
X129500500Y-116875500D01*
X129500500Y-108975729D01*
X129520185Y-108908690D01*
X129572989Y-108862935D01*
X129642147Y-108852991D01*
X129705703Y-108882016D01*
X129743477Y-108940794D01*
X129744258Y-108943576D01*
X129783065Y-109088408D01*
X129806704Y-109176630D01*
X129912075Y-109431017D01*
X129912080Y-109431028D01*
X129994861Y-109574407D01*
X130049751Y-109669479D01*
X130049753Y-109669482D01*
X130049754Y-109669483D01*
X130217370Y-109887926D01*
X130217376Y-109887933D01*
X130412066Y-110082623D01*
X130412072Y-110082628D01*
X130630521Y-110250249D01*
X130783778Y-110338732D01*
X130868971Y-110387919D01*
X130868976Y-110387921D01*
X130868979Y-110387923D01*
X131123368Y-110493295D01*
X131389334Y-110564560D01*
X131662326Y-110600500D01*
X131662333Y-110600500D01*
X131937667Y-110600500D01*
X131937674Y-110600500D01*
X132210666Y-110564560D01*
X132476632Y-110493295D01*
X132731021Y-110387923D01*
X132969479Y-110250249D01*
X133187928Y-110082628D01*
X133382628Y-109887928D01*
X133550249Y-109669479D01*
X133687923Y-109431021D01*
X133793295Y-109176632D01*
X133864560Y-108910666D01*
X133900500Y-108637674D01*
X133900500Y-108362326D01*
X133864560Y-108089334D01*
X133793295Y-107823368D01*
X133687923Y-107568979D01*
X133687921Y-107568976D01*
X133687919Y-107568971D01*
X133630391Y-107469331D01*
X133550249Y-107330521D01*
X133450111Y-107200018D01*
X133385460Y-107115762D01*
X133382629Y-107112073D01*
X133382623Y-107112066D01*
X133315705Y-107045148D01*
X144259500Y-107045148D01*
X144259500Y-107249851D01*
X144291522Y-107452034D01*
X144354781Y-107646723D01*
X144403690Y-107742710D01*
X144444787Y-107823368D01*
X144447715Y-107829113D01*
X144568028Y-107994713D01*
X144712786Y-108139471D01*
X144867749Y-108252056D01*
X144878390Y-108259787D01*
X144994607Y-108319003D01*
X145060776Y-108352718D01*
X145060778Y-108352718D01*
X145060781Y-108352720D01*
X145165137Y-108386627D01*
X145255465Y-108415977D01*
X145356557Y-108431988D01*
X145457648Y-108448000D01*
X145457649Y-108448000D01*
X145662351Y-108448000D01*
X145662352Y-108448000D01*
X145864534Y-108415977D01*
X146059219Y-108352720D01*
X146241610Y-108259787D01*
X146334590Y-108192232D01*
X146407213Y-108139471D01*
X146407215Y-108139468D01*
X146407219Y-108139466D01*
X146551966Y-107994719D01*
X146551968Y-107994715D01*
X146551971Y-107994713D01*
X146604732Y-107922090D01*
X146672287Y-107829110D01*
X146765220Y-107646719D01*
X146828477Y-107452034D01*
X146860500Y-107249852D01*
X146860500Y-107045148D01*
X146828477Y-106842966D01*
X146765220Y-106648281D01*
X146765218Y-106648278D01*
X146765218Y-106648276D01*
X146693083Y-106506705D01*
X146672287Y-106465890D01*
X146624053Y-106399501D01*
X146551971Y-106300286D01*
X146407213Y-106155528D01*
X146241613Y-106035215D01*
X146241612Y-106035214D01*
X146241610Y-106035213D01*
X146172483Y-105999991D01*
X146059223Y-105942281D01*
X145962047Y-105910707D01*
X145864534Y-105879022D01*
X145689995Y-105851378D01*
X145662352Y-105847000D01*
X145457648Y-105847000D01*
X145433329Y-105850851D01*
X145255465Y-105879022D01*
X145060776Y-105942281D01*
X144878386Y-106035215D01*
X144712786Y-106155528D01*
X144568028Y-106300286D01*
X144447715Y-106465886D01*
X144354781Y-106648276D01*
X144291522Y-106842965D01*
X144259500Y-107045148D01*
X133315705Y-107045148D01*
X133187933Y-106917376D01*
X133187926Y-106917370D01*
X132969483Y-106749754D01*
X132969482Y-106749753D01*
X132969479Y-106749751D01*
X132874407Y-106694861D01*
X132731028Y-106612080D01*
X132731017Y-106612075D01*
X132476630Y-106506704D01*
X132343649Y-106471072D01*
X132210666Y-106435440D01*
X132210660Y-106435439D01*
X132210655Y-106435438D01*
X131937684Y-106399501D01*
X131937679Y-106399500D01*
X131937674Y-106399500D01*
X131662326Y-106399500D01*
X131662320Y-106399500D01*
X131662315Y-106399501D01*
X131389344Y-106435438D01*
X131389337Y-106435439D01*
X131389334Y-106435440D01*
X131333125Y-106450500D01*
X131123369Y-106506704D01*
X130868982Y-106612075D01*
X130868971Y-106612080D01*
X130630516Y-106749754D01*
X130412073Y-106917370D01*
X130412066Y-106917376D01*
X130217376Y-107112066D01*
X130217370Y-107112073D01*
X130049754Y-107330516D01*
X129912080Y-107568971D01*
X129912075Y-107568982D01*
X129806704Y-107823369D01*
X129769418Y-107962524D01*
X129760794Y-107994713D01*
X129744275Y-108056363D01*
X129707910Y-108116024D01*
X129645063Y-108146553D01*
X129575688Y-108138258D01*
X129521810Y-108093773D01*
X129500535Y-108027221D01*
X129500500Y-108024270D01*
X129500500Y-105797648D01*
X149199500Y-105797648D01*
X149199500Y-106002351D01*
X149231522Y-106204534D01*
X149294781Y-106399223D01*
X149387715Y-106581613D01*
X149508028Y-106747213D01*
X149652786Y-106891971D01*
X149807749Y-107004556D01*
X149818390Y-107012287D01*
X149934607Y-107071503D01*
X150000776Y-107105218D01*
X150000778Y-107105218D01*
X150000781Y-107105220D01*
X150105137Y-107139127D01*
X150195465Y-107168477D01*
X150296557Y-107184488D01*
X150397648Y-107200500D01*
X150397649Y-107200500D01*
X150602351Y-107200500D01*
X150602352Y-107200500D01*
X150804534Y-107168477D01*
X150999219Y-107105220D01*
X151181610Y-107012287D01*
X151312245Y-106917376D01*
X151347213Y-106891971D01*
X151347215Y-106891968D01*
X151347219Y-106891966D01*
X151491966Y-106747219D01*
X151491968Y-106747215D01*
X151491971Y-106747213D01*
X151563848Y-106648281D01*
X151612287Y-106581610D01*
X151705220Y-106399219D01*
X151768477Y-106204534D01*
X151800500Y-106002352D01*
X151800500Y-105797648D01*
X154199500Y-105797648D01*
X154199500Y-106002351D01*
X154231522Y-106204534D01*
X154294781Y-106399223D01*
X154387715Y-106581613D01*
X154508028Y-106747213D01*
X154652786Y-106891971D01*
X154807749Y-107004556D01*
X154818390Y-107012287D01*
X154934607Y-107071503D01*
X155000776Y-107105218D01*
X155000778Y-107105218D01*
X155000781Y-107105220D01*
X155105137Y-107139127D01*
X155195465Y-107168477D01*
X155296557Y-107184488D01*
X155397648Y-107200500D01*
X155397649Y-107200500D01*
X155602351Y-107200500D01*
X155602352Y-107200500D01*
X155804534Y-107168477D01*
X155999219Y-107105220D01*
X156181610Y-107012287D01*
X156312245Y-106917376D01*
X156347213Y-106891971D01*
X156347215Y-106891968D01*
X156347219Y-106891966D01*
X156491966Y-106747219D01*
X156491968Y-106747215D01*
X156491971Y-106747213D01*
X156563848Y-106648281D01*
X156612287Y-106581610D01*
X156705220Y-106399219D01*
X156768477Y-106204534D01*
X156800500Y-106002352D01*
X156800500Y-105999983D01*
X159196849Y-105999983D01*
X159196849Y-107200001D01*
X159196850Y-107200018D01*
X159207349Y-107302796D01*
X159207350Y-107302799D01*
X159256802Y-107452034D01*
X159262535Y-107469334D01*
X159354637Y-107618656D01*
X159478693Y-107742712D01*
X159628015Y-107834814D01*
X159794552Y-107889999D01*
X159897340Y-107900500D01*
X161097357Y-107900499D01*
X161200146Y-107889999D01*
X161366683Y-107834814D01*
X161516005Y-107742712D01*
X161640061Y-107618656D01*
X161732163Y-107469334D01*
X161787348Y-107302797D01*
X161797849Y-107200009D01*
X161797848Y-105999992D01*
X161787348Y-105897203D01*
X161732163Y-105730666D01*
X161640061Y-105581344D01*
X161516005Y-105457288D01*
X161366683Y-105365186D01*
X161200146Y-105310001D01*
X161200144Y-105310000D01*
X161097359Y-105299500D01*
X159897347Y-105299500D01*
X159897330Y-105299501D01*
X159794552Y-105310000D01*
X159794549Y-105310001D01*
X159628017Y-105365185D01*
X159628012Y-105365187D01*
X159478691Y-105457289D01*
X159354638Y-105581342D01*
X159262536Y-105730663D01*
X159262535Y-105730666D01*
X159207350Y-105897203D01*
X159207350Y-105897204D01*
X159207349Y-105897204D01*
X159196849Y-105999983D01*
X156800500Y-105999983D01*
X156800500Y-105797648D01*
X156768477Y-105595466D01*
X156763888Y-105581344D01*
X156739127Y-105505137D01*
X156705220Y-105400781D01*
X156705218Y-105400778D01*
X156705218Y-105400776D01*
X156658965Y-105310001D01*
X156612287Y-105218390D01*
X156604556Y-105207749D01*
X156491971Y-105052786D01*
X156347213Y-104908028D01*
X156181613Y-104787715D01*
X156181612Y-104787714D01*
X156181610Y-104787713D01*
X156124653Y-104758691D01*
X155999223Y-104694781D01*
X155804534Y-104631522D01*
X155629995Y-104603878D01*
X155602352Y-104599500D01*
X155397648Y-104599500D01*
X155373329Y-104603351D01*
X155195465Y-104631522D01*
X155000776Y-104694781D01*
X154818386Y-104787715D01*
X154652786Y-104908028D01*
X154508028Y-105052786D01*
X154387715Y-105218386D01*
X154294781Y-105400776D01*
X154231522Y-105595465D01*
X154199500Y-105797648D01*
X151800500Y-105797648D01*
X151768477Y-105595466D01*
X151763888Y-105581344D01*
X151739127Y-105505137D01*
X151705220Y-105400781D01*
X151705218Y-105400778D01*
X151705218Y-105400776D01*
X151658965Y-105310001D01*
X151612287Y-105218390D01*
X151604556Y-105207749D01*
X151491971Y-105052786D01*
X151347213Y-104908028D01*
X151181613Y-104787715D01*
X151181612Y-104787714D01*
X151181610Y-104787713D01*
X151124653Y-104758691D01*
X150999223Y-104694781D01*
X150804534Y-104631522D01*
X150629995Y-104603878D01*
X150602352Y-104599500D01*
X150397648Y-104599500D01*
X150373329Y-104603351D01*
X150195465Y-104631522D01*
X150000776Y-104694781D01*
X149818386Y-104787715D01*
X149652786Y-104908028D01*
X149508028Y-105052786D01*
X149387715Y-105218386D01*
X149294781Y-105400776D01*
X149231522Y-105595465D01*
X149199500Y-105797648D01*
X129500500Y-105797648D01*
X129500500Y-100699983D01*
X134199500Y-100699983D01*
X134199500Y-101900001D01*
X134199501Y-101900018D01*
X134210000Y-102002796D01*
X134210001Y-102002799D01*
X134223831Y-102044534D01*
X134265186Y-102169334D01*
X134357288Y-102318656D01*
X134481344Y-102442712D01*
X134630666Y-102534814D01*
X134797203Y-102589999D01*
X134899991Y-102600500D01*
X136100008Y-102600499D01*
X136202797Y-102589999D01*
X136369334Y-102534814D01*
X136518656Y-102442712D01*
X136642712Y-102318656D01*
X136734814Y-102169334D01*
X136789999Y-102002797D01*
X136800500Y-101900009D01*
X136800499Y-100699992D01*
X136789999Y-100597203D01*
X136772750Y-100545148D01*
X139259500Y-100545148D01*
X139259500Y-100749851D01*
X139291522Y-100952034D01*
X139354781Y-101146723D01*
X139447715Y-101329113D01*
X139568028Y-101494713D01*
X139712786Y-101639471D01*
X139867749Y-101752056D01*
X139878390Y-101759787D01*
X139994607Y-101819003D01*
X140060776Y-101852718D01*
X140060778Y-101852718D01*
X140060781Y-101852720D01*
X140165137Y-101886627D01*
X140255465Y-101915977D01*
X140356557Y-101931988D01*
X140457648Y-101948000D01*
X140457649Y-101948000D01*
X140662351Y-101948000D01*
X140662352Y-101948000D01*
X140864534Y-101915977D01*
X141059219Y-101852720D01*
X141241610Y-101759787D01*
X141334590Y-101692232D01*
X141407213Y-101639471D01*
X141407215Y-101639468D01*
X141407219Y-101639466D01*
X141551966Y-101494719D01*
X141551968Y-101494715D01*
X141551971Y-101494713D01*
X141604732Y-101422090D01*
X141672287Y-101329110D01*
X141765220Y-101146719D01*
X141828477Y-100952034D01*
X141860500Y-100749852D01*
X141860500Y-100545148D01*
X141848356Y-100468477D01*
X141828477Y-100342965D01*
X141799127Y-100252637D01*
X141765220Y-100148281D01*
X141765218Y-100148278D01*
X141765218Y-100148276D01*
X141703281Y-100026719D01*
X141672287Y-99965890D01*
X141611057Y-99881613D01*
X141551971Y-99800286D01*
X141407213Y-99655528D01*
X141241611Y-99535213D01*
X141232873Y-99530761D01*
X141232872Y-99530761D01*
X141059223Y-99442281D01*
X141006494Y-99425148D01*
X144259500Y-99425148D01*
X144259500Y-99629851D01*
X144291522Y-99832034D01*
X144354781Y-100026723D01*
X144374380Y-100065187D01*
X144438980Y-100191971D01*
X144447715Y-100209113D01*
X144568028Y-100374713D01*
X144712786Y-100519471D01*
X144861771Y-100627713D01*
X144878390Y-100639787D01*
X144994607Y-100699003D01*
X145060776Y-100732718D01*
X145060778Y-100732718D01*
X145060781Y-100732720D01*
X145107913Y-100748034D01*
X145255465Y-100795977D01*
X145356557Y-100811988D01*
X145457648Y-100828000D01*
X145457649Y-100828000D01*
X145662351Y-100828000D01*
X145662352Y-100828000D01*
X145864534Y-100795977D01*
X146059219Y-100732720D01*
X146241610Y-100639787D01*
X146334590Y-100572232D01*
X146407213Y-100519471D01*
X146407215Y-100519468D01*
X146407219Y-100519466D01*
X146551966Y-100374719D01*
X146551968Y-100374715D01*
X146551971Y-100374713D01*
X146619808Y-100281342D01*
X146672287Y-100209110D01*
X146765220Y-100026719D01*
X146828477Y-99832034D01*
X146860500Y-99629852D01*
X146860500Y-99425148D01*
X146828477Y-99222966D01*
X146765220Y-99028281D01*
X146765218Y-99028278D01*
X146765218Y-99028276D01*
X146697547Y-98895466D01*
X146672287Y-98845890D01*
X146664556Y-98835249D01*
X146551971Y-98680286D01*
X146407213Y-98535528D01*
X146241613Y-98415215D01*
X146241612Y-98415214D01*
X146241610Y-98415213D01*
X146140222Y-98363553D01*
X146059223Y-98322281D01*
X145864534Y-98259022D01*
X145689995Y-98231378D01*
X145662352Y-98227000D01*
X145457648Y-98227000D01*
X145433329Y-98230851D01*
X145255465Y-98259022D01*
X145060776Y-98322281D01*
X144878386Y-98415215D01*
X144712786Y-98535528D01*
X144568028Y-98680286D01*
X144447715Y-98845886D01*
X144354781Y-99028276D01*
X144291522Y-99222965D01*
X144259500Y-99425148D01*
X141006494Y-99425148D01*
X140864534Y-99379022D01*
X140689995Y-99351378D01*
X140662352Y-99347000D01*
X140457648Y-99347000D01*
X140433329Y-99350851D01*
X140255465Y-99379022D01*
X140060776Y-99442281D01*
X139878386Y-99535215D01*
X139712786Y-99655528D01*
X139568028Y-99800286D01*
X139447715Y-99965886D01*
X139354781Y-100148276D01*
X139291522Y-100342965D01*
X139259500Y-100545148D01*
X136772750Y-100545148D01*
X136734814Y-100430666D01*
X136642712Y-100281344D01*
X136518656Y-100157288D01*
X136369334Y-100065186D01*
X136202797Y-100010001D01*
X136202795Y-100010000D01*
X136100010Y-99999500D01*
X134899998Y-99999500D01*
X134899981Y-99999501D01*
X134797203Y-100010000D01*
X134797200Y-100010001D01*
X134630668Y-100065185D01*
X134630663Y-100065187D01*
X134481342Y-100157289D01*
X134357289Y-100281342D01*
X134265187Y-100430663D01*
X134265185Y-100430668D01*
X134252152Y-100470000D01*
X134210001Y-100597203D01*
X134210001Y-100597204D01*
X134210000Y-100597204D01*
X134199500Y-100699983D01*
X129500500Y-100699983D01*
X129500500Y-94189778D01*
X135369500Y-94189778D01*
X135369500Y-94410221D01*
X135403985Y-94627952D01*
X135472103Y-94837603D01*
X135472104Y-94837606D01*
X135572187Y-95034025D01*
X135701752Y-95212358D01*
X135701756Y-95212363D01*
X135857636Y-95368243D01*
X135857641Y-95368247D01*
X135976745Y-95454780D01*
X136035978Y-95497815D01*
X136148244Y-95555018D01*
X136232393Y-95597895D01*
X136232396Y-95597896D01*
X136290138Y-95616657D01*
X136442049Y-95666015D01*
X136659778Y-95700500D01*
X136659779Y-95700500D01*
X136880221Y-95700500D01*
X136880222Y-95700500D01*
X137097951Y-95666015D01*
X137307606Y-95597895D01*
X137504022Y-95497815D01*
X137682365Y-95368242D01*
X137838242Y-95212365D01*
X137967815Y-95034022D01*
X138067895Y-94837606D01*
X138136015Y-94627951D01*
X138170500Y-94410222D01*
X138170500Y-94189778D01*
X138169767Y-94185148D01*
X144559500Y-94185148D01*
X144559500Y-94389851D01*
X144591522Y-94592034D01*
X144654781Y-94786723D01*
X144747715Y-94969113D01*
X144868028Y-95134713D01*
X145012786Y-95279471D01*
X145153845Y-95381954D01*
X145178390Y-95399787D01*
X145286320Y-95454780D01*
X145360776Y-95492718D01*
X145360778Y-95492718D01*
X145360781Y-95492720D01*
X145465137Y-95526627D01*
X145555465Y-95555977D01*
X145656557Y-95571988D01*
X145757648Y-95588000D01*
X145757649Y-95588000D01*
X145962351Y-95588000D01*
X145962352Y-95588000D01*
X146164534Y-95555977D01*
X146359219Y-95492720D01*
X146541610Y-95399787D01*
X146634590Y-95332232D01*
X146707213Y-95279471D01*
X146707215Y-95279468D01*
X146707219Y-95279466D01*
X146851966Y-95134719D01*
X146851968Y-95134715D01*
X146851971Y-95134713D01*
X146925126Y-95034022D01*
X146972287Y-94969110D01*
X147065220Y-94786719D01*
X147128477Y-94592034D01*
X147160500Y-94389852D01*
X147160500Y-94185148D01*
X147128477Y-93982966D01*
X147065220Y-93788281D01*
X147065218Y-93788278D01*
X147065218Y-93788276D01*
X146972287Y-93605890D01*
X146960538Y-93589719D01*
X146960537Y-93589716D01*
X146909874Y-93519983D01*
X147859500Y-93519983D01*
X147859500Y-94720001D01*
X147859501Y-94720018D01*
X147870000Y-94822796D01*
X147870001Y-94822799D01*
X147874907Y-94837603D01*
X147925186Y-94989334D01*
X148017288Y-95138656D01*
X148141344Y-95262712D01*
X148290666Y-95354814D01*
X148372570Y-95381954D01*
X148430015Y-95421727D01*
X148456838Y-95486243D01*
X148444523Y-95555018D01*
X148406451Y-95599978D01*
X148312787Y-95668028D01*
X148312782Y-95668032D01*
X148168028Y-95812786D01*
X148047715Y-95978386D01*
X147954781Y-96160776D01*
X147891522Y-96355465D01*
X147860928Y-96548631D01*
X147859500Y-96557648D01*
X147859500Y-96762352D01*
X147862597Y-96781908D01*
X147891522Y-96964534D01*
X147954781Y-97159223D01*
X148047715Y-97341613D01*
X148168028Y-97507213D01*
X148312786Y-97651971D01*
X148467749Y-97764556D01*
X148478390Y-97772287D01*
X148569840Y-97818883D01*
X148571080Y-97819515D01*
X148621876Y-97867490D01*
X148638671Y-97935311D01*
X148616134Y-98001446D01*
X148571080Y-98040485D01*
X148478386Y-98087715D01*
X148312786Y-98208028D01*
X148168028Y-98352786D01*
X148047715Y-98518386D01*
X147954781Y-98700776D01*
X147891522Y-98895465D01*
X147859500Y-99097648D01*
X147859500Y-99302351D01*
X147891522Y-99504534D01*
X147954781Y-99699223D01*
X148047715Y-99881613D01*
X148168028Y-100047213D01*
X148312786Y-100191971D01*
X148435800Y-100281344D01*
X148478390Y-100312287D01*
X148538601Y-100342966D01*
X148571080Y-100359515D01*
X148621876Y-100407490D01*
X148638671Y-100475311D01*
X148616134Y-100541446D01*
X148571080Y-100580485D01*
X148478386Y-100627715D01*
X148312786Y-100748028D01*
X148168028Y-100892786D01*
X148047715Y-101058386D01*
X147954781Y-101240776D01*
X147891522Y-101435465D01*
X147859500Y-101637648D01*
X147859500Y-101842351D01*
X147891522Y-102044534D01*
X147954781Y-102239223D01*
X148047715Y-102421613D01*
X148168028Y-102587213D01*
X148312786Y-102731971D01*
X148467749Y-102844556D01*
X148478390Y-102852287D01*
X148594607Y-102911503D01*
X148660776Y-102945218D01*
X148660778Y-102945218D01*
X148660781Y-102945220D01*
X148765137Y-102979127D01*
X148855465Y-103008477D01*
X148956557Y-103024488D01*
X149057648Y-103040500D01*
X149057649Y-103040500D01*
X150062351Y-103040500D01*
X150062352Y-103040500D01*
X150264534Y-103008477D01*
X150459219Y-102945220D01*
X150641610Y-102852287D01*
X150734590Y-102784732D01*
X150807213Y-102731971D01*
X150807215Y-102731968D01*
X150807219Y-102731966D01*
X150951966Y-102587219D01*
X150951968Y-102587215D01*
X150951971Y-102587213D01*
X151004732Y-102514590D01*
X151072287Y-102421610D01*
X151165220Y-102239219D01*
X151228477Y-102044534D01*
X151260500Y-101842352D01*
X151260500Y-101637648D01*
X151228477Y-101435466D01*
X151165220Y-101240781D01*
X151165218Y-101240778D01*
X151165218Y-101240776D01*
X151117293Y-101146719D01*
X151072287Y-101058390D01*
X151064556Y-101047749D01*
X150951971Y-100892786D01*
X150807213Y-100748028D01*
X150641614Y-100627715D01*
X150635006Y-100624348D01*
X150548917Y-100580483D01*
X150498123Y-100532511D01*
X150481328Y-100464690D01*
X150503865Y-100398555D01*
X150548917Y-100359516D01*
X150641610Y-100312287D01*
X150684200Y-100281344D01*
X150807213Y-100191971D01*
X150807215Y-100191968D01*
X150807219Y-100191966D01*
X150951966Y-100047219D01*
X150951968Y-100047215D01*
X150951971Y-100047213D01*
X151011057Y-99965886D01*
X151072287Y-99881610D01*
X151165220Y-99699219D01*
X151228477Y-99504534D01*
X151260500Y-99302352D01*
X151260500Y-99097648D01*
X151228477Y-98895466D01*
X151212367Y-98845886D01*
X151165218Y-98700776D01*
X151131503Y-98634607D01*
X151072287Y-98518390D01*
X150997327Y-98415215D01*
X150951971Y-98352786D01*
X150807213Y-98208028D01*
X150641614Y-98087715D01*
X150635006Y-98084348D01*
X150548917Y-98040483D01*
X150498123Y-97992511D01*
X150481328Y-97924690D01*
X150503865Y-97858555D01*
X150548917Y-97819516D01*
X150641610Y-97772287D01*
X150741081Y-97700018D01*
X150807213Y-97651971D01*
X150807215Y-97651968D01*
X150807219Y-97651966D01*
X150951966Y-97507219D01*
X150951968Y-97507215D01*
X150951971Y-97507213D01*
X151004732Y-97434590D01*
X151072287Y-97341610D01*
X151165220Y-97159219D01*
X151228477Y-96964534D01*
X151260500Y-96762352D01*
X151260500Y-96557648D01*
X151228477Y-96355466D01*
X151165220Y-96160781D01*
X151134242Y-96099983D01*
X161431823Y-96099983D01*
X161431823Y-97700001D01*
X161431824Y-97700018D01*
X161442323Y-97802796D01*
X161442324Y-97802799D01*
X161497508Y-97969331D01*
X161497510Y-97969336D01*
X161513204Y-97994780D01*
X161589611Y-98118656D01*
X161713667Y-98242712D01*
X161862989Y-98334814D01*
X162029526Y-98389999D01*
X162132314Y-98400500D01*
X163732331Y-98400499D01*
X163835120Y-98389999D01*
X164001657Y-98334814D01*
X164150979Y-98242712D01*
X164275035Y-98118656D01*
X164367137Y-97969334D01*
X164422322Y-97802797D01*
X164432823Y-97700009D01*
X164432822Y-96781902D01*
X166431823Y-96781902D01*
X166431823Y-97018097D01*
X166468769Y-97251368D01*
X166541756Y-97475996D01*
X166631418Y-97651966D01*
X166648980Y-97686433D01*
X166787806Y-97877510D01*
X166954813Y-98044517D01*
X167145890Y-98183343D01*
X167194349Y-98208034D01*
X167356326Y-98290566D01*
X167356328Y-98290566D01*
X167356331Y-98290568D01*
X167453930Y-98322280D01*
X167580954Y-98363553D01*
X167814226Y-98400500D01*
X167814231Y-98400500D01*
X168050420Y-98400500D01*
X168283691Y-98363553D01*
X168316828Y-98352786D01*
X168508315Y-98290568D01*
X168718756Y-98183343D01*
X168909833Y-98044517D01*
X169076840Y-97877510D01*
X169215666Y-97686433D01*
X169322891Y-97475992D01*
X169395876Y-97251368D01*
X169432823Y-97018097D01*
X169432823Y-96781902D01*
X169395876Y-96548631D01*
X169322889Y-96324003D01*
X169266325Y-96212991D01*
X169215666Y-96113567D01*
X169076840Y-95922490D01*
X168909833Y-95755483D01*
X168718756Y-95616657D01*
X168686022Y-95599978D01*
X168508319Y-95509433D01*
X168283691Y-95436446D01*
X168050420Y-95399500D01*
X168050415Y-95399500D01*
X167814231Y-95399500D01*
X167814226Y-95399500D01*
X167580954Y-95436446D01*
X167356326Y-95509433D01*
X167145889Y-95616657D01*
X167056859Y-95681342D01*
X166954813Y-95755483D01*
X166954811Y-95755485D01*
X166954810Y-95755485D01*
X166787808Y-95922487D01*
X166787808Y-95922488D01*
X166787806Y-95922490D01*
X166747196Y-95978385D01*
X166648980Y-96113566D01*
X166541756Y-96324003D01*
X166468769Y-96548631D01*
X166431823Y-96781902D01*
X164432822Y-96781902D01*
X164432822Y-96099992D01*
X164422322Y-95997203D01*
X164367137Y-95830666D01*
X164275035Y-95681344D01*
X164150979Y-95557288D01*
X164054557Y-95497815D01*
X164001659Y-95465187D01*
X164001654Y-95465185D01*
X164000185Y-95464698D01*
X163835120Y-95410001D01*
X163835118Y-95410000D01*
X163732333Y-95399500D01*
X162132321Y-95399500D01*
X162132304Y-95399501D01*
X162029526Y-95410000D01*
X162029523Y-95410001D01*
X161862991Y-95465185D01*
X161862986Y-95465187D01*
X161713665Y-95557289D01*
X161589612Y-95681342D01*
X161497510Y-95830663D01*
X161497509Y-95830666D01*
X161442324Y-95997203D01*
X161442324Y-95997204D01*
X161442323Y-95997204D01*
X161431823Y-96099983D01*
X151134242Y-96099983D01*
X151072287Y-95978390D01*
X151072285Y-95978387D01*
X151072284Y-95978385D01*
X150951971Y-95812786D01*
X150807219Y-95668034D01*
X150736504Y-95616657D01*
X150713547Y-95599978D01*
X150670882Y-95544649D01*
X150664903Y-95475036D01*
X150697508Y-95413240D01*
X150747426Y-95381955D01*
X150829334Y-95354814D01*
X150978656Y-95262712D01*
X151102712Y-95138656D01*
X151194814Y-94989334D01*
X151249999Y-94822797D01*
X151260500Y-94720009D01*
X151260499Y-93519992D01*
X151249999Y-93417203D01*
X151194814Y-93250666D01*
X151102712Y-93101344D01*
X150978656Y-92977288D01*
X150829334Y-92885186D01*
X150662797Y-92830001D01*
X150662795Y-92830000D01*
X150560010Y-92819500D01*
X148559998Y-92819500D01*
X148559981Y-92819501D01*
X148457203Y-92830000D01*
X148457200Y-92830001D01*
X148290668Y-92885185D01*
X148290663Y-92885187D01*
X148141342Y-92977289D01*
X148017289Y-93101342D01*
X147925187Y-93250663D01*
X147925186Y-93250666D01*
X147870001Y-93417203D01*
X147870001Y-93417204D01*
X147870000Y-93417204D01*
X147859500Y-93519983D01*
X146909874Y-93519983D01*
X146851971Y-93440286D01*
X146707213Y-93295528D01*
X146541613Y-93175215D01*
X146541612Y-93175214D01*
X146541610Y-93175213D01*
X146484653Y-93146191D01*
X146359223Y-93082281D01*
X146164534Y-93019022D01*
X145989995Y-92991378D01*
X145962352Y-92987000D01*
X145757648Y-92987000D01*
X145733329Y-92990851D01*
X145555465Y-93019022D01*
X145360776Y-93082281D01*
X145178386Y-93175215D01*
X145012786Y-93295528D01*
X144868028Y-93440286D01*
X144747715Y-93605886D01*
X144654781Y-93788276D01*
X144591522Y-93982965D01*
X144559500Y-94185148D01*
X138169767Y-94185148D01*
X138136015Y-93972049D01*
X138076306Y-93788281D01*
X138067896Y-93762396D01*
X138067895Y-93762393D01*
X137988149Y-93605886D01*
X137967815Y-93565978D01*
X137934409Y-93519998D01*
X137838247Y-93387641D01*
X137838243Y-93387636D01*
X137682363Y-93231756D01*
X137682358Y-93231752D01*
X137504025Y-93102187D01*
X137504024Y-93102186D01*
X137504022Y-93102185D01*
X137441096Y-93070122D01*
X137307606Y-93002104D01*
X137307603Y-93002103D01*
X137097952Y-92933985D01*
X136989086Y-92916742D01*
X136880222Y-92899500D01*
X136659778Y-92899500D01*
X136587201Y-92910995D01*
X136442047Y-92933985D01*
X136232396Y-93002103D01*
X136232393Y-93002104D01*
X136035974Y-93102187D01*
X135857641Y-93231752D01*
X135857636Y-93231756D01*
X135701756Y-93387636D01*
X135701752Y-93387641D01*
X135572187Y-93565974D01*
X135472104Y-93762393D01*
X135472103Y-93762396D01*
X135403985Y-93972047D01*
X135369500Y-94189778D01*
X129500500Y-94189778D01*
X129500500Y-89975729D01*
X129520185Y-89908690D01*
X129572989Y-89862935D01*
X129642147Y-89852991D01*
X129705703Y-89882016D01*
X129743477Y-89940794D01*
X129744258Y-89943576D01*
X129756658Y-89989852D01*
X129806704Y-90176630D01*
X129912075Y-90431017D01*
X129912080Y-90431028D01*
X129969969Y-90531293D01*
X130049751Y-90669479D01*
X130049753Y-90669482D01*
X130049754Y-90669483D01*
X130217370Y-90887926D01*
X130217376Y-90887933D01*
X130412066Y-91082623D01*
X130412073Y-91082629D01*
X130425224Y-91092720D01*
X130630521Y-91250249D01*
X130783778Y-91338732D01*
X130868971Y-91387919D01*
X130868976Y-91387921D01*
X130868979Y-91387923D01*
X131123368Y-91493295D01*
X131389334Y-91564560D01*
X131662326Y-91600500D01*
X131662333Y-91600500D01*
X131937667Y-91600500D01*
X131937674Y-91600500D01*
X132210666Y-91564560D01*
X132476632Y-91493295D01*
X132731021Y-91387923D01*
X132969479Y-91250249D01*
X133187928Y-91082628D01*
X133382628Y-90887928D01*
X133550249Y-90669479D01*
X133687923Y-90431021D01*
X133793295Y-90176632D01*
X133864560Y-89910666D01*
X133881085Y-89785148D01*
X136749500Y-89785148D01*
X136749500Y-89989851D01*
X136781522Y-90192034D01*
X136844781Y-90386723D01*
X136937715Y-90569113D01*
X137058028Y-90734713D01*
X137202786Y-90879471D01*
X137357749Y-90992056D01*
X137368390Y-90999787D01*
X137484607Y-91059003D01*
X137550776Y-91092718D01*
X137550778Y-91092718D01*
X137550781Y-91092720D01*
X137655137Y-91126627D01*
X137745465Y-91155977D01*
X137846557Y-91171988D01*
X137947648Y-91188000D01*
X137947649Y-91188000D01*
X138152351Y-91188000D01*
X138152352Y-91188000D01*
X138354534Y-91155977D01*
X138549219Y-91092720D01*
X138731610Y-90999787D01*
X138824590Y-90932232D01*
X138897213Y-90879471D01*
X138897215Y-90879468D01*
X138897219Y-90879466D01*
X139041966Y-90734719D01*
X139041968Y-90734715D01*
X139041971Y-90734713D01*
X139094732Y-90662090D01*
X139162287Y-90569110D01*
X139255220Y-90386719D01*
X139318477Y-90192034D01*
X139350500Y-89989852D01*
X139350500Y-89785148D01*
X144369500Y-89785148D01*
X144369500Y-89989851D01*
X144401522Y-90192034D01*
X144464781Y-90386723D01*
X144557715Y-90569113D01*
X144678028Y-90734713D01*
X144822786Y-90879471D01*
X144977749Y-90992056D01*
X144988390Y-90999787D01*
X145104607Y-91059003D01*
X145170776Y-91092718D01*
X145170778Y-91092718D01*
X145170781Y-91092720D01*
X145275137Y-91126627D01*
X145365465Y-91155977D01*
X145466557Y-91171988D01*
X145567648Y-91188000D01*
X145567649Y-91188000D01*
X145772351Y-91188000D01*
X145772352Y-91188000D01*
X145974534Y-91155977D01*
X146169219Y-91092720D01*
X146351610Y-90999787D01*
X146444590Y-90932232D01*
X146517213Y-90879471D01*
X146517215Y-90879468D01*
X146517219Y-90879466D01*
X146661966Y-90734719D01*
X146661968Y-90734715D01*
X146661971Y-90734713D01*
X146714732Y-90662090D01*
X146782287Y-90569110D01*
X146875220Y-90386719D01*
X146938477Y-90192034D01*
X146970500Y-89989852D01*
X146970500Y-89785148D01*
X146938477Y-89582966D01*
X146875220Y-89388281D01*
X146875218Y-89388278D01*
X146875218Y-89388276D01*
X146841503Y-89322107D01*
X146782287Y-89205890D01*
X146739507Y-89147008D01*
X146661971Y-89040286D01*
X146517213Y-88895528D01*
X146351613Y-88775215D01*
X146351612Y-88775214D01*
X146351610Y-88775213D01*
X146294653Y-88746191D01*
X146169223Y-88682281D01*
X145974534Y-88619022D01*
X145799995Y-88591378D01*
X145772352Y-88587000D01*
X145567648Y-88587000D01*
X145543329Y-88590851D01*
X145365465Y-88619022D01*
X145170776Y-88682281D01*
X144988386Y-88775215D01*
X144822786Y-88895528D01*
X144678028Y-89040286D01*
X144557715Y-89205886D01*
X144464781Y-89388276D01*
X144401522Y-89582965D01*
X144369500Y-89785148D01*
X139350500Y-89785148D01*
X139318477Y-89582966D01*
X139255220Y-89388281D01*
X139255218Y-89388278D01*
X139255218Y-89388276D01*
X139221503Y-89322107D01*
X139162287Y-89205890D01*
X139119507Y-89147008D01*
X139041971Y-89040286D01*
X138897213Y-88895528D01*
X138731613Y-88775215D01*
X138731612Y-88775214D01*
X138731610Y-88775213D01*
X138674653Y-88746191D01*
X138549223Y-88682281D01*
X138354534Y-88619022D01*
X138179995Y-88591378D01*
X138152352Y-88587000D01*
X137947648Y-88587000D01*
X137923329Y-88590851D01*
X137745465Y-88619022D01*
X137550776Y-88682281D01*
X137368386Y-88775215D01*
X137202786Y-88895528D01*
X137058028Y-89040286D01*
X136937715Y-89205886D01*
X136844781Y-89388276D01*
X136781522Y-89582965D01*
X136749500Y-89785148D01*
X133881085Y-89785148D01*
X133900500Y-89637674D01*
X133900500Y-89362326D01*
X133864560Y-89089334D01*
X133793295Y-88823368D01*
X133687923Y-88568979D01*
X133687921Y-88568976D01*
X133687919Y-88568971D01*
X133638732Y-88483778D01*
X133550249Y-88330521D01*
X133382628Y-88112072D01*
X133382623Y-88112066D01*
X133187933Y-87917376D01*
X133187926Y-87917370D01*
X132969483Y-87749754D01*
X132969482Y-87749753D01*
X132969479Y-87749751D01*
X132874407Y-87694861D01*
X132731028Y-87612080D01*
X132731017Y-87612075D01*
X132476630Y-87506704D01*
X132343649Y-87471072D01*
X132210666Y-87435440D01*
X132210660Y-87435439D01*
X132210655Y-87435438D01*
X131937684Y-87399501D01*
X131937679Y-87399500D01*
X131937674Y-87399500D01*
X131662326Y-87399500D01*
X131662320Y-87399500D01*
X131662315Y-87399501D01*
X131389344Y-87435438D01*
X131389337Y-87435439D01*
X131389334Y-87435440D01*
X131333125Y-87450500D01*
X131123369Y-87506704D01*
X130868982Y-87612075D01*
X130868971Y-87612080D01*
X130630516Y-87749754D01*
X130412073Y-87917370D01*
X130412066Y-87917376D01*
X130217376Y-88112066D01*
X130217370Y-88112073D01*
X130049754Y-88330516D01*
X129912080Y-88568971D01*
X129912075Y-88568982D01*
X129806704Y-88823369D01*
X129787370Y-88895528D01*
X129748583Y-89040286D01*
X129744275Y-89056363D01*
X129707910Y-89116024D01*
X129645063Y-89146553D01*
X129575688Y-89138258D01*
X129521810Y-89093773D01*
X129500535Y-89027221D01*
X129500500Y-89024270D01*
X129500500Y-87124500D01*
X129520185Y-87057461D01*
X129572989Y-87011706D01*
X129624500Y-87000500D01*
X159555500Y-87000500D01*
X159622539Y-87020185D01*
G37*
%TD.AperFunction*%
%TD*%
M02*
