%TF.GenerationSoftware,KiCad,Pcbnew,9.0.4*%
%TF.CreationDate,2025-08-28T09:54:46+02:00*%
%TF.ProjectId,TDA7267_2x2_panel,54444137-3236-4375-9f32-78325f70616e,rev?*%
%TF.SameCoordinates,Original*%
%TF.FileFunction,Soldermask,Bot*%
%TF.FilePolarity,Negative*%
%FSLAX46Y46*%
G04 Gerber Fmt 4.6, Leading zero omitted, Abs format (unit mm)*
G04 Created by KiCad (PCBNEW 9.0.4) date 2025-08-28 09:54:46*
%MOMM*%
%LPD*%
G01*
G04 APERTURE LIST*
G04 Aperture macros list*
%AMRoundRect*
0 Rectangle with rounded corners*
0 $1 Rounding radius*
0 $2 $3 $4 $5 $6 $7 $8 $9 X,Y pos of 4 corners*
0 Add a 4 corners polygon primitive as box body*
4,1,4,$2,$3,$4,$5,$6,$7,$8,$9,$2,$3,0*
0 Add four circle primitives for the rounded corners*
1,1,$1+$1,$2,$3*
1,1,$1+$1,$4,$5*
1,1,$1+$1,$6,$7*
1,1,$1+$1,$8,$9*
0 Add four rect primitives between the rounded corners*
20,1,$1+$1,$2,$3,$4,$5,0*
20,1,$1+$1,$4,$5,$6,$7,0*
20,1,$1+$1,$6,$7,$8,$9,0*
20,1,$1+$1,$8,$9,$2,$3,0*%
G04 Aperture macros list end*
%ADD10RoundRect,0.250000X-0.950000X-0.550000X0.950000X-0.550000X0.950000X0.550000X-0.950000X0.550000X0*%
%ADD11O,2.400000X1.600000*%
%ADD12C,2.200000*%
%ADD13RoundRect,0.250000X-0.550000X-0.550000X0.550000X-0.550000X0.550000X0.550000X-0.550000X0.550000X0*%
%ADD14C,1.600000*%
%ADD15RoundRect,0.250000X0.550000X0.550000X-0.550000X0.550000X-0.550000X-0.550000X0.550000X-0.550000X0*%
%ADD16RoundRect,0.250000X-0.750000X-0.750000X0.750000X-0.750000X0.750000X0.750000X-0.750000X0.750000X0*%
%ADD17C,2.000000*%
%ADD18R,1.800000X1.800000*%
%ADD19C,1.800000*%
%ADD20R,3.000000X3.000000*%
%ADD21C,3.000000*%
%ADD22C,2.340000*%
G04 APERTURE END LIST*
D10*
%TO.C,U1*%
X94190000Y-82300000D03*
D11*
X94190000Y-84840000D03*
X94190000Y-87380000D03*
X94190000Y-89920000D03*
X101810000Y-89920000D03*
X101810000Y-87380000D03*
X101810000Y-84840000D03*
X101810000Y-82300000D03*
%TD*%
D12*
%TO.C,H4*%
X112000000Y-100550000D03*
%TD*%
D13*
%TO.C,C2*%
X103197349Y-96550000D03*
D14*
X106997349Y-96550000D03*
%TD*%
D15*
%TO.C,C4*%
X78500000Y-92950000D03*
D14*
X74700000Y-92950000D03*
%TD*%
D16*
%TO.C,C6*%
X107132323Y-82050000D03*
D17*
X112132323Y-82050000D03*
%TD*%
D18*
%TO.C,D1*%
X75460000Y-81050000D03*
D19*
X78000000Y-81050000D03*
%TD*%
D14*
%TO.C,C3*%
X84500000Y-94050000D03*
X84500000Y-89050000D03*
%TD*%
D12*
%TO.C,H1*%
X75000000Y-74050000D03*
%TD*%
%TO.C,H2*%
X112000000Y-74050000D03*
%TD*%
D14*
%TO.C,R1*%
X89500000Y-95550000D03*
X89500000Y-87930000D03*
%TD*%
D20*
%TO.C,OUT1*%
X100190000Y-73550000D03*
D21*
X95110000Y-73550000D03*
%TD*%
D14*
%TO.C,C5*%
X85000000Y-83050000D03*
X90000000Y-83050000D03*
%TD*%
%TO.C,C1*%
X98500000Y-98050000D03*
X93500000Y-98050000D03*
%TD*%
%TO.C,R2*%
X82190000Y-77550000D03*
X89810000Y-77550000D03*
%TD*%
D22*
%TO.C,RV1*%
X88000000Y-107300000D03*
X93000000Y-107300000D03*
X98000000Y-107300000D03*
%TD*%
D20*
%TO.C,VCC1*%
X75420000Y-107550000D03*
D21*
X80500000Y-107550000D03*
%TD*%
D20*
%TO.C,IN1*%
X105960000Y-107550000D03*
D21*
X111040000Y-107550000D03*
%TD*%
D12*
%TO.C,H3*%
X75000000Y-100550000D03*
%TD*%
D10*
%TO.C,U1*%
X140190000Y-40300000D03*
D11*
X140190000Y-42840000D03*
X140190000Y-45380000D03*
X140190000Y-47920000D03*
X147810000Y-47920000D03*
X147810000Y-45380000D03*
X147810000Y-42840000D03*
X147810000Y-40300000D03*
%TD*%
D12*
%TO.C,H4*%
X158000000Y-58550000D03*
%TD*%
D13*
%TO.C,C2*%
X149197349Y-54550000D03*
D14*
X152997349Y-54550000D03*
%TD*%
D15*
%TO.C,C4*%
X124500000Y-50950000D03*
D14*
X120700000Y-50950000D03*
%TD*%
D12*
%TO.C,H1*%
X121000000Y-32050000D03*
%TD*%
D16*
%TO.C,C6*%
X153132323Y-40050000D03*
D17*
X158132323Y-40050000D03*
%TD*%
D14*
%TO.C,C3*%
X130500000Y-52050000D03*
X130500000Y-47050000D03*
%TD*%
D18*
%TO.C,D1*%
X121460000Y-39050000D03*
D19*
X124000000Y-39050000D03*
%TD*%
D12*
%TO.C,H2*%
X158000000Y-32050000D03*
%TD*%
D14*
%TO.C,R1*%
X135500000Y-53550000D03*
X135500000Y-45930000D03*
%TD*%
D20*
%TO.C,OUT1*%
X146190000Y-31550000D03*
D21*
X141110000Y-31550000D03*
%TD*%
D14*
%TO.C,C5*%
X131000000Y-41050000D03*
X136000000Y-41050000D03*
%TD*%
%TO.C,C1*%
X144500000Y-56050000D03*
X139500000Y-56050000D03*
%TD*%
%TO.C,R2*%
X128190000Y-35550000D03*
X135810000Y-35550000D03*
%TD*%
D22*
%TO.C,RV1*%
X134000000Y-65300000D03*
X139000000Y-65300000D03*
X144000000Y-65300000D03*
%TD*%
D20*
%TO.C,VCC1*%
X121420000Y-65550000D03*
D21*
X126500000Y-65550000D03*
%TD*%
D20*
%TO.C,IN1*%
X151960000Y-65550000D03*
D21*
X157040000Y-65550000D03*
%TD*%
D12*
%TO.C,H3*%
X121000000Y-58550000D03*
%TD*%
%TO.C,H4*%
X112000000Y-58550000D03*
%TD*%
D13*
%TO.C,C2*%
X103197349Y-54550000D03*
D14*
X106997349Y-54550000D03*
%TD*%
D15*
%TO.C,C4*%
X78500000Y-50950000D03*
D14*
X74700000Y-50950000D03*
%TD*%
D12*
%TO.C,H1*%
X75000000Y-32050000D03*
%TD*%
D16*
%TO.C,C6*%
X107132323Y-40050000D03*
D17*
X112132323Y-40050000D03*
%TD*%
D18*
%TO.C,D1*%
X75460000Y-39050000D03*
D19*
X78000000Y-39050000D03*
%TD*%
D14*
%TO.C,C3*%
X84500000Y-52050000D03*
X84500000Y-47050000D03*
%TD*%
D10*
%TO.C,U1*%
X94190000Y-40300000D03*
D11*
X94190000Y-42840000D03*
X94190000Y-45380000D03*
X94190000Y-47920000D03*
X101810000Y-47920000D03*
X101810000Y-45380000D03*
X101810000Y-42840000D03*
X101810000Y-40300000D03*
%TD*%
D12*
%TO.C,H2*%
X112000000Y-32050000D03*
%TD*%
D14*
%TO.C,R1*%
X89500000Y-53550000D03*
X89500000Y-45930000D03*
%TD*%
D20*
%TO.C,OUT1*%
X100190000Y-31550000D03*
D21*
X95110000Y-31550000D03*
%TD*%
D14*
%TO.C,C5*%
X85000000Y-41050000D03*
X90000000Y-41050000D03*
%TD*%
%TO.C,C1*%
X98500000Y-56050000D03*
X93500000Y-56050000D03*
%TD*%
%TO.C,R2*%
X82190000Y-35550000D03*
X89810000Y-35550000D03*
%TD*%
D22*
%TO.C,RV1*%
X88000000Y-65300000D03*
X93000000Y-65300000D03*
X98000000Y-65300000D03*
%TD*%
D20*
%TO.C,VCC1*%
X75420000Y-65550000D03*
D21*
X80500000Y-65550000D03*
%TD*%
D20*
%TO.C,IN1*%
X105960000Y-65550000D03*
D21*
X111040000Y-65550000D03*
%TD*%
D12*
%TO.C,H3*%
X75000000Y-58550000D03*
%TD*%
D10*
%TO.C,U1*%
X140190000Y-82300000D03*
D11*
X140190000Y-84840000D03*
X140190000Y-87380000D03*
X140190000Y-89920000D03*
X147810000Y-89920000D03*
X147810000Y-87380000D03*
X147810000Y-84840000D03*
X147810000Y-82300000D03*
%TD*%
D12*
%TO.C,H4*%
X158000000Y-100550000D03*
%TD*%
D13*
%TO.C,C2*%
X149197349Y-96550000D03*
D14*
X152997349Y-96550000D03*
%TD*%
D15*
%TO.C,C4*%
X124500000Y-92950000D03*
D14*
X120700000Y-92950000D03*
%TD*%
D12*
%TO.C,H1*%
X121000000Y-74050000D03*
%TD*%
D16*
%TO.C,C6*%
X153132323Y-82050000D03*
D17*
X158132323Y-82050000D03*
%TD*%
D18*
%TO.C,D1*%
X121460000Y-81050000D03*
D19*
X124000000Y-81050000D03*
%TD*%
D14*
%TO.C,C3*%
X130500000Y-94050000D03*
X130500000Y-89050000D03*
%TD*%
D12*
%TO.C,H2*%
X158000000Y-74050000D03*
%TD*%
%TO.C,H3*%
X121000000Y-100550000D03*
%TD*%
D20*
%TO.C,IN1*%
X151960000Y-107550000D03*
D21*
X157040000Y-107550000D03*
%TD*%
D14*
%TO.C,R1*%
X135500000Y-95550000D03*
X135500000Y-87930000D03*
%TD*%
D20*
%TO.C,OUT1*%
X146190000Y-73550000D03*
D21*
X141110000Y-73550000D03*
%TD*%
D14*
%TO.C,C5*%
X131000000Y-83050000D03*
X136000000Y-83050000D03*
%TD*%
%TO.C,C1*%
X144500000Y-98050000D03*
X139500000Y-98050000D03*
%TD*%
%TO.C,R2*%
X128190000Y-77550000D03*
X135810000Y-77550000D03*
%TD*%
D22*
%TO.C,RV1*%
X134000000Y-107300000D03*
X139000000Y-107300000D03*
X144000000Y-107300000D03*
%TD*%
D20*
%TO.C,VCC1*%
X121420000Y-107550000D03*
D21*
X126500000Y-107550000D03*
%TD*%
M02*
