M48
; DRILL file {KiCad 9.0.4} date 2025-08-28T09:54:43+0200
; FORMAT={-:-/ absolute / inch / decimal}
; #@! TF.CreationDate,2025-08-28T09:54:43+02:00
; #@! TF.GenerationSoftware,Kicad,Pcbnew,9.0.4
; #@! TF.FileFunction,Plated,1,2,PTH
FMAT,2
INCH
; #@! TA.AperFunction,Plated,PTH,ComponentDrill
T1C0.0315
; #@! TA.AperFunction,Plated,PTH,ComponentDrill
T2C0.0354
; #@! TA.AperFunction,Plated,PTH,ComponentDrill
T3C0.0394
; #@! TA.AperFunction,Plated,PTH,ComponentDrill
T4C0.0512
; #@! TA.AperFunction,Plated,PTH,ComponentDrill
T5C0.0598
%
G90
G05
T1
X2.9409Y-2.0059
X2.9409Y-3.6594
X3.0906Y-2.0059
X3.0906Y-3.6594
X3.2358Y-1.3996
X3.2358Y-3.0531
X3.3268Y-1.8524
X3.3268Y-2.0492
X3.3268Y-3.5059
X3.3268Y-3.7028
X3.3465Y-1.6161
X3.3465Y-3.2697
X3.5236Y-1.8083
X3.5236Y-2.1083
X3.5236Y-3.4618
X3.5236Y-3.7618
X3.5358Y-1.3996
X3.5358Y-3.0531
X3.5433Y-1.6161
X3.5433Y-3.2697
X3.6811Y-2.2067
X3.6811Y-3.8602
X3.7083Y-1.5866
X3.7083Y-1.6866
X3.7083Y-1.7866
X3.7083Y-1.8866
X3.7083Y-3.2402
X3.7083Y-3.3402
X3.7083Y-3.4402
X3.7083Y-3.5402
X3.878Y-2.2067
X3.878Y-3.8602
X4.0083Y-1.5866
X4.0083Y-1.6866
X4.0083Y-1.7866
X4.0083Y-1.8866
X4.0083Y-3.2402
X4.0083Y-3.3402
X4.0083Y-3.4402
X4.0083Y-3.5402
X4.0629Y-2.1476
X4.0629Y-3.8012
X4.2125Y-2.1476
X4.2125Y-3.8012
X4.752Y-2.0059
X4.752Y-3.6594
X4.9016Y-2.0059
X4.9016Y-3.6594
X5.0469Y-1.3996
X5.0469Y-3.0531
X5.1378Y-1.8524
X5.1378Y-2.0492
X5.1378Y-3.5059
X5.1378Y-3.7028
X5.1575Y-1.6161
X5.1575Y-3.2697
X5.3346Y-1.8083
X5.3346Y-2.1083
X5.3346Y-3.4618
X5.3346Y-3.7618
X5.3469Y-1.3996
X5.3469Y-3.0531
X5.3543Y-1.6161
X5.3543Y-3.2697
X5.4921Y-2.2067
X5.4921Y-3.8602
X5.5193Y-1.5866
X5.5193Y-1.6866
X5.5193Y-1.7866
X5.5193Y-1.8866
X5.5193Y-3.2402
X5.5193Y-3.3402
X5.5193Y-3.4402
X5.5193Y-3.5402
X5.689Y-2.2067
X5.689Y-3.8602
X5.8193Y-1.5866
X5.8193Y-1.6866
X5.8193Y-1.7866
X5.8193Y-1.8866
X5.8193Y-3.2402
X5.8193Y-3.3402
X5.8193Y-3.4402
X5.8193Y-3.5402
X5.8739Y-2.1476
X5.8739Y-3.8012
X6.0235Y-2.1476
X6.0235Y-3.8012
T2
X2.9709Y-1.5374
X2.9709Y-3.1909
X3.0709Y-1.5374
X3.0709Y-3.1909
X4.7819Y-1.5374
X4.7819Y-3.1909
X4.8819Y-1.5374
X4.8819Y-3.1909
T3
X4.2178Y-1.5768
X4.2178Y-3.2303
X4.4147Y-1.5768
X4.4147Y-3.2303
X6.0288Y-1.5768
X6.0288Y-3.2303
X6.2257Y-1.5768
X6.2257Y-3.2303
T4
X3.4646Y-2.5709
X3.4646Y-4.2244
X3.6614Y-2.5709
X3.6614Y-4.2244
X3.8583Y-2.5709
X3.8583Y-4.2244
X5.2756Y-2.5709
X5.2756Y-4.2244
X5.4724Y-2.5709
X5.4724Y-4.2244
X5.6693Y-2.5709
X5.6693Y-4.2244
T5
X2.9693Y-2.5807
X2.9693Y-4.2343
X3.1693Y-2.5807
X3.1693Y-4.2343
X3.7445Y-1.2421
X3.7445Y-2.8957
X3.9445Y-1.2421
X3.9445Y-2.8957
X4.1717Y-2.5807
X4.1717Y-4.2343
X4.3717Y-2.5807
X4.3717Y-4.2343
X4.7803Y-2.5807
X4.7803Y-4.2343
X4.9803Y-2.5807
X4.9803Y-4.2343
X5.5555Y-1.2421
X5.5555Y-2.8957
X5.7555Y-1.2421
X5.7555Y-2.8957
X5.9827Y-2.5807
X5.9827Y-4.2343
X6.1827Y-2.5807
X6.1827Y-4.2343
M30
