%TF.GenerationSoftware,KiCad,Pcbnew,9.0.4*%
%TF.CreationDate,2025-08-28T09:54:45+02:00*%
%TF.ProjectId,TDA7267_2x2_panel,54444137-3236-4375-9f32-78325f70616e,rev?*%
%TF.SameCoordinates,Original*%
%TF.FileFunction,Copper,L2,Bot*%
%TF.FilePolarity,Positive*%
%FSLAX46Y46*%
G04 Gerber Fmt 4.6, Leading zero omitted, Abs format (unit mm)*
G04 Created by KiCad (PCBNEW 9.0.4) date 2025-08-28 09:54:45*
%MOMM*%
%LPD*%
G01*
G04 APERTURE LIST*
G04 Aperture macros list*
%AMRoundRect*
0 Rectangle with rounded corners*
0 $1 Rounding radius*
0 $2 $3 $4 $5 $6 $7 $8 $9 X,Y pos of 4 corners*
0 Add a 4 corners polygon primitive as box body*
4,1,4,$2,$3,$4,$5,$6,$7,$8,$9,$2,$3,0*
0 Add four circle primitives for the rounded corners*
1,1,$1+$1,$2,$3*
1,1,$1+$1,$4,$5*
1,1,$1+$1,$6,$7*
1,1,$1+$1,$8,$9*
0 Add four rect primitives between the rounded corners*
20,1,$1+$1,$2,$3,$4,$5,0*
20,1,$1+$1,$4,$5,$6,$7,0*
20,1,$1+$1,$6,$7,$8,$9,0*
20,1,$1+$1,$8,$9,$2,$3,0*%
G04 Aperture macros list end*
%TA.AperFunction,ComponentPad*%
%ADD10RoundRect,0.250000X-0.950000X-0.550000X0.950000X-0.550000X0.950000X0.550000X-0.950000X0.550000X0*%
%TD*%
%TA.AperFunction,ComponentPad*%
%ADD11O,2.400000X1.600000*%
%TD*%
%TA.AperFunction,ComponentPad*%
%ADD12RoundRect,0.250000X-0.550000X-0.550000X0.550000X-0.550000X0.550000X0.550000X-0.550000X0.550000X0*%
%TD*%
%TA.AperFunction,ComponentPad*%
%ADD13C,1.600000*%
%TD*%
%TA.AperFunction,ComponentPad*%
%ADD14RoundRect,0.250000X0.550000X0.550000X-0.550000X0.550000X-0.550000X-0.550000X0.550000X-0.550000X0*%
%TD*%
%TA.AperFunction,ComponentPad*%
%ADD15RoundRect,0.250000X-0.750000X-0.750000X0.750000X-0.750000X0.750000X0.750000X-0.750000X0.750000X0*%
%TD*%
%TA.AperFunction,ComponentPad*%
%ADD16C,2.000000*%
%TD*%
%TA.AperFunction,ComponentPad*%
%ADD17R,1.800000X1.800000*%
%TD*%
%TA.AperFunction,ComponentPad*%
%ADD18C,1.800000*%
%TD*%
%TA.AperFunction,ComponentPad*%
%ADD19R,3.000000X3.000000*%
%TD*%
%TA.AperFunction,ComponentPad*%
%ADD20C,3.000000*%
%TD*%
%TA.AperFunction,ComponentPad*%
%ADD21C,2.340000*%
%TD*%
%TA.AperFunction,Conductor*%
%ADD22C,1.000000*%
%TD*%
%TA.AperFunction,Conductor*%
%ADD23C,0.500000*%
%TD*%
G04 APERTURE END LIST*
D10*
%TO.P,U1,1,V+*%
%TO.N,Net-(U1-V+)*%
X94190000Y-82300000D03*
D11*
%TO.P,U1,2,Out*%
%TO.N,Net-(U1-Out)*%
X94190000Y-84840000D03*
%TO.P,U1,3,SRV*%
%TO.N,Net-(U1-SRV)*%
X94190000Y-87380000D03*
%TO.P,U1,4,In*%
%TO.N,Net-(U1-In)*%
X94190000Y-89920000D03*
%TO.P,U1,5,GND*%
%TO.N,GND*%
X101810000Y-89920000D03*
%TO.P,U1,6,GND*%
X101810000Y-87380000D03*
%TO.P,U1,7,GND*%
X101810000Y-84840000D03*
%TO.P,U1,8,GND*%
X101810000Y-82300000D03*
%TD*%
D12*
%TO.P,C2,1*%
%TO.N,Net-(U1-SRV)*%
X103197349Y-96550000D03*
D13*
%TO.P,C2,2*%
%TO.N,GND*%
X106997349Y-96550000D03*
%TD*%
D14*
%TO.P,C4,1*%
%TO.N,Net-(U1-V+)*%
X78500000Y-92950000D03*
D13*
%TO.P,C4,2*%
%TO.N,GND*%
X74700000Y-92950000D03*
%TD*%
D15*
%TO.P,C6,1*%
%TO.N,Net-(U1-Out)*%
X107132323Y-82050000D03*
D16*
%TO.P,C6,2*%
%TO.N,Net-(OUT1-Pin_1)*%
X112132323Y-82050000D03*
%TD*%
D17*
%TO.P,D1,1,K*%
%TO.N,GND*%
X75460000Y-81050000D03*
D18*
%TO.P,D1,2,A*%
%TO.N,Net-(D1-A)*%
X78000000Y-81050000D03*
%TD*%
D13*
%TO.P,C3,1*%
%TO.N,GND*%
X84500000Y-94050000D03*
%TO.P,C3,2*%
%TO.N,Net-(U1-In)*%
X84500000Y-89050000D03*
%TD*%
%TO.P,R1,1*%
%TO.N,Net-(C1-Pad2)*%
X89500000Y-95550000D03*
%TO.P,R1,2*%
%TO.N,Net-(U1-In)*%
X89500000Y-87930000D03*
%TD*%
D19*
%TO.P,OUT1,1,Pin_1*%
%TO.N,Net-(OUT1-Pin_1)*%
X100190000Y-73550000D03*
D20*
%TO.P,OUT1,2,Pin_2*%
%TO.N,GND*%
X95110000Y-73550000D03*
%TD*%
D13*
%TO.P,C5,1*%
%TO.N,GND*%
X85000000Y-83050000D03*
%TO.P,C5,2*%
%TO.N,Net-(U1-V+)*%
X90000000Y-83050000D03*
%TD*%
%TO.P,C1,1*%
%TO.N,Net-(C1-Pad1)*%
X98500000Y-98050000D03*
%TO.P,C1,2*%
%TO.N,Net-(C1-Pad2)*%
X93500000Y-98050000D03*
%TD*%
%TO.P,R2,1*%
%TO.N,Net-(D1-A)*%
X82190000Y-77550000D03*
%TO.P,R2,2*%
%TO.N,Net-(U1-V+)*%
X89810000Y-77550000D03*
%TD*%
D21*
%TO.P,RV1,1,1*%
%TO.N,Net-(IN1-Pin_1)*%
X88000000Y-107300000D03*
%TO.P,RV1,2,2*%
%TO.N,Net-(C1-Pad1)*%
X93000000Y-107300000D03*
%TO.P,RV1,3,3*%
%TO.N,GND*%
X98000000Y-107300000D03*
%TD*%
D19*
%TO.P,VCC1,1,Pin_1*%
%TO.N,Net-(U1-V+)*%
X75420000Y-107550000D03*
D20*
%TO.P,VCC1,2,Pin_2*%
%TO.N,GND*%
X80500000Y-107550000D03*
%TD*%
D19*
%TO.P,IN1,1,Pin_1*%
%TO.N,Net-(IN1-Pin_1)*%
X105960000Y-107550000D03*
D20*
%TO.P,IN1,2,Pin_2*%
%TO.N,GND*%
X111040000Y-107550000D03*
%TD*%
D10*
%TO.P,U1,1,V+*%
%TO.N,Net-(U1-V+)*%
X140190000Y-40300000D03*
D11*
%TO.P,U1,2,Out*%
%TO.N,Net-(U1-Out)*%
X140190000Y-42840000D03*
%TO.P,U1,3,SRV*%
%TO.N,Net-(U1-SRV)*%
X140190000Y-45380000D03*
%TO.P,U1,4,In*%
%TO.N,Net-(U1-In)*%
X140190000Y-47920000D03*
%TO.P,U1,5,GND*%
%TO.N,GND*%
X147810000Y-47920000D03*
%TO.P,U1,6,GND*%
X147810000Y-45380000D03*
%TO.P,U1,7,GND*%
X147810000Y-42840000D03*
%TO.P,U1,8,GND*%
X147810000Y-40300000D03*
%TD*%
D12*
%TO.P,C2,1*%
%TO.N,Net-(U1-SRV)*%
X149197349Y-54550000D03*
D13*
%TO.P,C2,2*%
%TO.N,GND*%
X152997349Y-54550000D03*
%TD*%
D14*
%TO.P,C4,1*%
%TO.N,Net-(U1-V+)*%
X124500000Y-50950000D03*
D13*
%TO.P,C4,2*%
%TO.N,GND*%
X120700000Y-50950000D03*
%TD*%
D15*
%TO.P,C6,1*%
%TO.N,Net-(U1-Out)*%
X153132323Y-40050000D03*
D16*
%TO.P,C6,2*%
%TO.N,Net-(OUT1-Pin_1)*%
X158132323Y-40050000D03*
%TD*%
D13*
%TO.P,C3,1*%
%TO.N,GND*%
X130500000Y-52050000D03*
%TO.P,C3,2*%
%TO.N,Net-(U1-In)*%
X130500000Y-47050000D03*
%TD*%
D17*
%TO.P,D1,1,K*%
%TO.N,GND*%
X121460000Y-39050000D03*
D18*
%TO.P,D1,2,A*%
%TO.N,Net-(D1-A)*%
X124000000Y-39050000D03*
%TD*%
D13*
%TO.P,R1,1*%
%TO.N,Net-(C1-Pad2)*%
X135500000Y-53550000D03*
%TO.P,R1,2*%
%TO.N,Net-(U1-In)*%
X135500000Y-45930000D03*
%TD*%
D19*
%TO.P,OUT1,1,Pin_1*%
%TO.N,Net-(OUT1-Pin_1)*%
X146190000Y-31550000D03*
D20*
%TO.P,OUT1,2,Pin_2*%
%TO.N,GND*%
X141110000Y-31550000D03*
%TD*%
D13*
%TO.P,C5,1*%
%TO.N,GND*%
X131000000Y-41050000D03*
%TO.P,C5,2*%
%TO.N,Net-(U1-V+)*%
X136000000Y-41050000D03*
%TD*%
%TO.P,C1,1*%
%TO.N,Net-(C1-Pad1)*%
X144500000Y-56050000D03*
%TO.P,C1,2*%
%TO.N,Net-(C1-Pad2)*%
X139500000Y-56050000D03*
%TD*%
%TO.P,R2,1*%
%TO.N,Net-(D1-A)*%
X128190000Y-35550000D03*
%TO.P,R2,2*%
%TO.N,Net-(U1-V+)*%
X135810000Y-35550000D03*
%TD*%
D21*
%TO.P,RV1,1,1*%
%TO.N,Net-(IN1-Pin_1)*%
X134000000Y-65300000D03*
%TO.P,RV1,2,2*%
%TO.N,Net-(C1-Pad1)*%
X139000000Y-65300000D03*
%TO.P,RV1,3,3*%
%TO.N,GND*%
X144000000Y-65300000D03*
%TD*%
D19*
%TO.P,VCC1,1,Pin_1*%
%TO.N,Net-(U1-V+)*%
X121420000Y-65550000D03*
D20*
%TO.P,VCC1,2,Pin_2*%
%TO.N,GND*%
X126500000Y-65550000D03*
%TD*%
D19*
%TO.P,IN1,1,Pin_1*%
%TO.N,Net-(IN1-Pin_1)*%
X151960000Y-65550000D03*
D20*
%TO.P,IN1,2,Pin_2*%
%TO.N,GND*%
X157040000Y-65550000D03*
%TD*%
D12*
%TO.P,C2,1*%
%TO.N,Net-(U1-SRV)*%
X103197349Y-54550000D03*
D13*
%TO.P,C2,2*%
%TO.N,GND*%
X106997349Y-54550000D03*
%TD*%
D14*
%TO.P,C4,1*%
%TO.N,Net-(U1-V+)*%
X78500000Y-50950000D03*
D13*
%TO.P,C4,2*%
%TO.N,GND*%
X74700000Y-50950000D03*
%TD*%
D15*
%TO.P,C6,1*%
%TO.N,Net-(U1-Out)*%
X107132323Y-40050000D03*
D16*
%TO.P,C6,2*%
%TO.N,Net-(OUT1-Pin_1)*%
X112132323Y-40050000D03*
%TD*%
D17*
%TO.P,D1,1,K*%
%TO.N,GND*%
X75460000Y-39050000D03*
D18*
%TO.P,D1,2,A*%
%TO.N,Net-(D1-A)*%
X78000000Y-39050000D03*
%TD*%
D13*
%TO.P,C3,1*%
%TO.N,GND*%
X84500000Y-52050000D03*
%TO.P,C3,2*%
%TO.N,Net-(U1-In)*%
X84500000Y-47050000D03*
%TD*%
D10*
%TO.P,U1,1,V+*%
%TO.N,Net-(U1-V+)*%
X94190000Y-40300000D03*
D11*
%TO.P,U1,2,Out*%
%TO.N,Net-(U1-Out)*%
X94190000Y-42840000D03*
%TO.P,U1,3,SRV*%
%TO.N,Net-(U1-SRV)*%
X94190000Y-45380000D03*
%TO.P,U1,4,In*%
%TO.N,Net-(U1-In)*%
X94190000Y-47920000D03*
%TO.P,U1,5,GND*%
%TO.N,GND*%
X101810000Y-47920000D03*
%TO.P,U1,6,GND*%
X101810000Y-45380000D03*
%TO.P,U1,7,GND*%
X101810000Y-42840000D03*
%TO.P,U1,8,GND*%
X101810000Y-40300000D03*
%TD*%
D13*
%TO.P,R1,1*%
%TO.N,Net-(C1-Pad2)*%
X89500000Y-53550000D03*
%TO.P,R1,2*%
%TO.N,Net-(U1-In)*%
X89500000Y-45930000D03*
%TD*%
D19*
%TO.P,OUT1,1,Pin_1*%
%TO.N,Net-(OUT1-Pin_1)*%
X100190000Y-31550000D03*
D20*
%TO.P,OUT1,2,Pin_2*%
%TO.N,GND*%
X95110000Y-31550000D03*
%TD*%
D13*
%TO.P,C5,1*%
%TO.N,GND*%
X85000000Y-41050000D03*
%TO.P,C5,2*%
%TO.N,Net-(U1-V+)*%
X90000000Y-41050000D03*
%TD*%
%TO.P,C1,1*%
%TO.N,Net-(C1-Pad1)*%
X98500000Y-56050000D03*
%TO.P,C1,2*%
%TO.N,Net-(C1-Pad2)*%
X93500000Y-56050000D03*
%TD*%
%TO.P,R2,1*%
%TO.N,Net-(D1-A)*%
X82190000Y-35550000D03*
%TO.P,R2,2*%
%TO.N,Net-(U1-V+)*%
X89810000Y-35550000D03*
%TD*%
D21*
%TO.P,RV1,1,1*%
%TO.N,Net-(IN1-Pin_1)*%
X88000000Y-65300000D03*
%TO.P,RV1,2,2*%
%TO.N,Net-(C1-Pad1)*%
X93000000Y-65300000D03*
%TO.P,RV1,3,3*%
%TO.N,GND*%
X98000000Y-65300000D03*
%TD*%
D19*
%TO.P,VCC1,1,Pin_1*%
%TO.N,Net-(U1-V+)*%
X75420000Y-65550000D03*
D20*
%TO.P,VCC1,2,Pin_2*%
%TO.N,GND*%
X80500000Y-65550000D03*
%TD*%
D19*
%TO.P,IN1,1,Pin_1*%
%TO.N,Net-(IN1-Pin_1)*%
X105960000Y-65550000D03*
D20*
%TO.P,IN1,2,Pin_2*%
%TO.N,GND*%
X111040000Y-65550000D03*
%TD*%
D10*
%TO.P,U1,1,V+*%
%TO.N,Net-(U1-V+)*%
X140190000Y-82300000D03*
D11*
%TO.P,U1,2,Out*%
%TO.N,Net-(U1-Out)*%
X140190000Y-84840000D03*
%TO.P,U1,3,SRV*%
%TO.N,Net-(U1-SRV)*%
X140190000Y-87380000D03*
%TO.P,U1,4,In*%
%TO.N,Net-(U1-In)*%
X140190000Y-89920000D03*
%TO.P,U1,5,GND*%
%TO.N,GND*%
X147810000Y-89920000D03*
%TO.P,U1,6,GND*%
X147810000Y-87380000D03*
%TO.P,U1,7,GND*%
X147810000Y-84840000D03*
%TO.P,U1,8,GND*%
X147810000Y-82300000D03*
%TD*%
D12*
%TO.P,C2,1*%
%TO.N,Net-(U1-SRV)*%
X149197349Y-96550000D03*
D13*
%TO.P,C2,2*%
%TO.N,GND*%
X152997349Y-96550000D03*
%TD*%
D14*
%TO.P,C4,1*%
%TO.N,Net-(U1-V+)*%
X124500000Y-92950000D03*
D13*
%TO.P,C4,2*%
%TO.N,GND*%
X120700000Y-92950000D03*
%TD*%
D15*
%TO.P,C6,1*%
%TO.N,Net-(U1-Out)*%
X153132323Y-82050000D03*
D16*
%TO.P,C6,2*%
%TO.N,Net-(OUT1-Pin_1)*%
X158132323Y-82050000D03*
%TD*%
D17*
%TO.P,D1,1,K*%
%TO.N,GND*%
X121460000Y-81050000D03*
D18*
%TO.P,D1,2,A*%
%TO.N,Net-(D1-A)*%
X124000000Y-81050000D03*
%TD*%
D13*
%TO.P,C3,1*%
%TO.N,GND*%
X130500000Y-94050000D03*
%TO.P,C3,2*%
%TO.N,Net-(U1-In)*%
X130500000Y-89050000D03*
%TD*%
D19*
%TO.P,IN1,1,Pin_1*%
%TO.N,Net-(IN1-Pin_1)*%
X151960000Y-107550000D03*
D20*
%TO.P,IN1,2,Pin_2*%
%TO.N,GND*%
X157040000Y-107550000D03*
%TD*%
D13*
%TO.P,R1,1*%
%TO.N,Net-(C1-Pad2)*%
X135500000Y-95550000D03*
%TO.P,R1,2*%
%TO.N,Net-(U1-In)*%
X135500000Y-87930000D03*
%TD*%
D19*
%TO.P,OUT1,1,Pin_1*%
%TO.N,Net-(OUT1-Pin_1)*%
X146190000Y-73550000D03*
D20*
%TO.P,OUT1,2,Pin_2*%
%TO.N,GND*%
X141110000Y-73550000D03*
%TD*%
D13*
%TO.P,C5,1*%
%TO.N,GND*%
X131000000Y-83050000D03*
%TO.P,C5,2*%
%TO.N,Net-(U1-V+)*%
X136000000Y-83050000D03*
%TD*%
%TO.P,C1,1*%
%TO.N,Net-(C1-Pad1)*%
X144500000Y-98050000D03*
%TO.P,C1,2*%
%TO.N,Net-(C1-Pad2)*%
X139500000Y-98050000D03*
%TD*%
%TO.P,R2,1*%
%TO.N,Net-(D1-A)*%
X128190000Y-77550000D03*
%TO.P,R2,2*%
%TO.N,Net-(U1-V+)*%
X135810000Y-77550000D03*
%TD*%
D21*
%TO.P,RV1,1,1*%
%TO.N,Net-(IN1-Pin_1)*%
X134000000Y-107300000D03*
%TO.P,RV1,2,2*%
%TO.N,Net-(C1-Pad1)*%
X139000000Y-107300000D03*
%TO.P,RV1,3,3*%
%TO.N,GND*%
X144000000Y-107300000D03*
%TD*%
D19*
%TO.P,VCC1,1,Pin_1*%
%TO.N,Net-(U1-V+)*%
X121420000Y-107550000D03*
D20*
%TO.P,VCC1,2,Pin_2*%
%TO.N,GND*%
X126500000Y-107550000D03*
%TD*%
D22*
%TO.N,Net-(U1-Out)*%
X94190000Y-84840000D02*
X95960000Y-84840000D01*
D23*
%TO.N,Net-(U1-SRV)*%
X103197349Y-95297349D02*
X101300000Y-93400000D01*
D22*
%TO.N,Net-(U1-V+)*%
X83025000Y-85425000D02*
X87625000Y-85425000D01*
X75420000Y-107180000D02*
X78500000Y-104100000D01*
%TO.N,Net-(U1-Out)*%
X95960000Y-84840000D02*
X98000000Y-82800000D01*
D23*
%TO.N,Net-(IN1-Pin_1)*%
X105960000Y-107550000D02*
X104289000Y-109221000D01*
%TO.N,Net-(U1-SRV)*%
X98000000Y-89050000D02*
X96500000Y-87550000D01*
%TO.N,Net-(U1-In)*%
X85640722Y-87930000D02*
X89500000Y-87930000D01*
%TO.N,Net-(U1-SRV)*%
X94360000Y-87550000D02*
X94190000Y-87380000D01*
D22*
%TO.N,Net-(U1-Out)*%
X104632323Y-79550000D02*
X107132323Y-82050000D01*
%TO.N,Net-(OUT1-Pin_1)*%
X112132323Y-79410773D02*
X112085335Y-79410773D01*
%TO.N,Net-(U1-V+)*%
X90000000Y-77740000D02*
X89810000Y-77550000D01*
D23*
%TO.N,Net-(U1-SRV)*%
X101300000Y-93400000D02*
X99350000Y-93400000D01*
D22*
%TO.N,Net-(U1-V+)*%
X90750000Y-82300000D02*
X94190000Y-82300000D01*
X87625000Y-85425000D02*
X90000000Y-83050000D01*
D23*
%TO.N,Net-(D1-A)*%
X78000000Y-81050000D02*
X81500000Y-77550000D01*
D22*
%TO.N,Net-(OUT1-Pin_1)*%
X106224562Y-73550000D02*
X100190000Y-73550000D01*
D23*
%TO.N,Net-(U1-In)*%
X94190000Y-89920000D02*
X91370000Y-89920000D01*
%TO.N,Net-(U1-SRV)*%
X103197349Y-96550000D02*
X103197349Y-95297349D01*
%TO.N,Net-(U1-In)*%
X89500000Y-88050000D02*
X89500000Y-87930000D01*
%TO.N,Net-(U1-SRV)*%
X99350000Y-93400000D02*
X98000000Y-92050000D01*
D22*
%TO.N,Net-(U1-Out)*%
X98000000Y-80800000D02*
X99250000Y-79550000D01*
X99250000Y-79550000D02*
X104632323Y-79550000D01*
D23*
%TO.N,Net-(U1-In)*%
X91370000Y-89920000D02*
X89500000Y-88050000D01*
D22*
%TO.N,Net-(OUT1-Pin_1)*%
X112132323Y-82050000D02*
X112132323Y-79410773D01*
D23*
%TO.N,Net-(IN1-Pin_1)*%
X104289000Y-109221000D02*
X90021000Y-109221000D01*
D22*
%TO.N,Net-(U1-V+)*%
X90000000Y-83050000D02*
X90750000Y-82300000D01*
D23*
%TO.N,Net-(U1-In)*%
X85520722Y-88050000D02*
X85640722Y-87930000D01*
D22*
%TO.N,Net-(U1-V+)*%
X75420000Y-107550000D02*
X75420000Y-107180000D01*
D23*
%TO.N,Net-(D1-A)*%
X81500000Y-77550000D02*
X82190000Y-77550000D01*
%TO.N,Net-(U1-In)*%
X85500000Y-88050000D02*
X85520722Y-88050000D01*
D22*
%TO.N,Net-(U1-V+)*%
X90000000Y-83050000D02*
X90000000Y-77740000D01*
D23*
%TO.N,Net-(U1-SRV)*%
X98000000Y-92050000D02*
X98000000Y-89050000D01*
D22*
%TO.N,Net-(OUT1-Pin_1)*%
X112085335Y-79410773D02*
X106224562Y-73550000D01*
D23*
%TO.N,Net-(IN1-Pin_1)*%
X90021000Y-109221000D02*
X88000000Y-107200000D01*
D22*
%TO.N,Net-(U1-V+)*%
X78500000Y-92950000D02*
X78500000Y-89950000D01*
D23*
%TO.N,Net-(C1-Pad1)*%
X93000000Y-107200000D02*
X93000000Y-105050000D01*
%TO.N,Net-(U1-SRV)*%
X96500000Y-87550000D02*
X94360000Y-87550000D01*
%TO.N,Net-(C1-Pad2)*%
X92000000Y-98050000D02*
X89500000Y-95550000D01*
X93500000Y-98050000D02*
X92000000Y-98050000D01*
D22*
%TO.N,Net-(U1-Out)*%
X98000000Y-82800000D02*
X98000000Y-80800000D01*
D23*
%TO.N,Net-(U1-In)*%
X84500000Y-89050000D02*
X85500000Y-88050000D01*
%TO.N,Net-(C1-Pad1)*%
X93000000Y-105050000D02*
X98500000Y-99550000D01*
D22*
%TO.N,Net-(U1-V+)*%
X78500000Y-104100000D02*
X78500000Y-92950000D01*
D23*
%TO.N,Net-(C1-Pad1)*%
X98500000Y-99550000D02*
X98500000Y-98050000D01*
D22*
%TO.N,Net-(U1-V+)*%
X78500000Y-89950000D02*
X83025000Y-85425000D01*
%TO.N,Net-(U1-Out)*%
X140190000Y-42840000D02*
X141960000Y-42840000D01*
D23*
%TO.N,Net-(U1-SRV)*%
X149197349Y-53297349D02*
X147300000Y-51400000D01*
D22*
%TO.N,Net-(U1-V+)*%
X129025000Y-43425000D02*
X133625000Y-43425000D01*
X121420000Y-65180000D02*
X124500000Y-62100000D01*
%TO.N,Net-(U1-Out)*%
X141960000Y-42840000D02*
X144000000Y-40800000D01*
D23*
%TO.N,Net-(IN1-Pin_1)*%
X151960000Y-65550000D02*
X150289000Y-67221000D01*
%TO.N,Net-(U1-SRV)*%
X144000000Y-47050000D02*
X142500000Y-45550000D01*
%TO.N,Net-(U1-In)*%
X131640722Y-45930000D02*
X135500000Y-45930000D01*
%TO.N,Net-(U1-SRV)*%
X140360000Y-45550000D02*
X140190000Y-45380000D01*
D22*
%TO.N,Net-(U1-Out)*%
X150632323Y-37550000D02*
X153132323Y-40050000D01*
%TO.N,Net-(OUT1-Pin_1)*%
X158132323Y-37410773D02*
X158085335Y-37410773D01*
%TO.N,Net-(U1-V+)*%
X136000000Y-35740000D02*
X135810000Y-35550000D01*
D23*
%TO.N,Net-(U1-SRV)*%
X147300000Y-51400000D02*
X145350000Y-51400000D01*
D22*
%TO.N,Net-(U1-V+)*%
X136750000Y-40300000D02*
X140190000Y-40300000D01*
X133625000Y-43425000D02*
X136000000Y-41050000D01*
D23*
%TO.N,Net-(D1-A)*%
X124000000Y-39050000D02*
X127500000Y-35550000D01*
D22*
%TO.N,Net-(OUT1-Pin_1)*%
X152224562Y-31550000D02*
X146190000Y-31550000D01*
D23*
%TO.N,Net-(U1-In)*%
X140190000Y-47920000D02*
X137370000Y-47920000D01*
X135500000Y-46050000D02*
X135500000Y-45930000D01*
%TO.N,Net-(U1-SRV)*%
X145350000Y-51400000D02*
X144000000Y-50050000D01*
D22*
%TO.N,Net-(U1-Out)*%
X144000000Y-38800000D02*
X145250000Y-37550000D01*
X145250000Y-37550000D02*
X150632323Y-37550000D01*
D23*
%TO.N,Net-(U1-In)*%
X137370000Y-47920000D02*
X135500000Y-46050000D01*
D22*
%TO.N,Net-(OUT1-Pin_1)*%
X158132323Y-40050000D02*
X158132323Y-37410773D01*
%TO.N,Net-(U1-V+)*%
X136000000Y-41050000D02*
X136750000Y-40300000D01*
D23*
%TO.N,Net-(U1-In)*%
X131520722Y-46050000D02*
X131640722Y-45930000D01*
D22*
%TO.N,Net-(U1-V+)*%
X121420000Y-65550000D02*
X121420000Y-65180000D01*
D23*
%TO.N,Net-(D1-A)*%
X127500000Y-35550000D02*
X128190000Y-35550000D01*
%TO.N,Net-(U1-In)*%
X131500000Y-46050000D02*
X131520722Y-46050000D01*
%TO.N,Net-(U1-SRV)*%
X144000000Y-50050000D02*
X144000000Y-47050000D01*
D22*
%TO.N,Net-(U1-V+)*%
X124500000Y-47950000D02*
X129025000Y-43425000D01*
%TO.N,Net-(OUT1-Pin_1)*%
X158085335Y-37410773D02*
X152224562Y-31550000D01*
D23*
%TO.N,Net-(IN1-Pin_1)*%
X136021000Y-67221000D02*
X134000000Y-65200000D01*
D22*
%TO.N,Net-(U1-V+)*%
X124500000Y-50950000D02*
X124500000Y-47950000D01*
D23*
%TO.N,Net-(C1-Pad1)*%
X139000000Y-65200000D02*
X139000000Y-63050000D01*
%TO.N,Net-(U1-SRV)*%
X142500000Y-45550000D02*
X140360000Y-45550000D01*
D22*
%TO.N,Net-(U1-V+)*%
X136000000Y-41050000D02*
X136000000Y-35740000D01*
D23*
%TO.N,Net-(C1-Pad2)*%
X138000000Y-56050000D02*
X135500000Y-53550000D01*
X139500000Y-56050000D02*
X138000000Y-56050000D01*
D22*
%TO.N,Net-(U1-Out)*%
X144000000Y-40800000D02*
X144000000Y-38800000D01*
D23*
%TO.N,Net-(U1-In)*%
X130500000Y-47050000D02*
X131500000Y-46050000D01*
%TO.N,Net-(IN1-Pin_1)*%
X150289000Y-67221000D02*
X136021000Y-67221000D01*
%TO.N,Net-(C1-Pad1)*%
X139000000Y-63050000D02*
X144500000Y-57550000D01*
D22*
%TO.N,Net-(U1-V+)*%
X124500000Y-62100000D02*
X124500000Y-50950000D01*
D23*
%TO.N,Net-(C1-Pad1)*%
X144500000Y-57550000D02*
X144500000Y-56050000D01*
%TO.N,Net-(U1-SRV)*%
X149197349Y-54550000D02*
X149197349Y-53297349D01*
X103197349Y-53297349D02*
X101300000Y-51400000D01*
D22*
%TO.N,Net-(U1-V+)*%
X83025000Y-43425000D02*
X87625000Y-43425000D01*
X75420000Y-65180000D02*
X78500000Y-62100000D01*
%TO.N,Net-(U1-Out)*%
X95960000Y-42840000D02*
X98000000Y-40800000D01*
D23*
%TO.N,Net-(IN1-Pin_1)*%
X105960000Y-65550000D02*
X104289000Y-67221000D01*
%TO.N,Net-(U1-SRV)*%
X98000000Y-47050000D02*
X96500000Y-45550000D01*
%TO.N,Net-(U1-In)*%
X85640722Y-45930000D02*
X89500000Y-45930000D01*
%TO.N,Net-(U1-SRV)*%
X94360000Y-45550000D02*
X94190000Y-45380000D01*
D22*
%TO.N,Net-(U1-Out)*%
X104632323Y-37550000D02*
X107132323Y-40050000D01*
%TO.N,Net-(OUT1-Pin_1)*%
X112132323Y-37410773D02*
X112085335Y-37410773D01*
%TO.N,Net-(U1-V+)*%
X90000000Y-35740000D02*
X89810000Y-35550000D01*
D23*
%TO.N,Net-(U1-SRV)*%
X101300000Y-51400000D02*
X99350000Y-51400000D01*
D22*
%TO.N,Net-(U1-V+)*%
X90750000Y-40300000D02*
X94190000Y-40300000D01*
X87625000Y-43425000D02*
X90000000Y-41050000D01*
D23*
%TO.N,Net-(D1-A)*%
X78000000Y-39050000D02*
X81500000Y-35550000D01*
D22*
%TO.N,Net-(OUT1-Pin_1)*%
X106224562Y-31550000D02*
X100190000Y-31550000D01*
D23*
%TO.N,Net-(U1-In)*%
X94190000Y-47920000D02*
X91370000Y-47920000D01*
%TO.N,Net-(U1-SRV)*%
X103197349Y-54550000D02*
X103197349Y-53297349D01*
%TO.N,Net-(U1-In)*%
X89500000Y-46050000D02*
X89500000Y-45930000D01*
%TO.N,Net-(U1-SRV)*%
X99350000Y-51400000D02*
X98000000Y-50050000D01*
D22*
%TO.N,Net-(U1-Out)*%
X98000000Y-38800000D02*
X99250000Y-37550000D01*
X99250000Y-37550000D02*
X104632323Y-37550000D01*
D23*
%TO.N,Net-(U1-In)*%
X91370000Y-47920000D02*
X89500000Y-46050000D01*
D22*
%TO.N,Net-(OUT1-Pin_1)*%
X112132323Y-40050000D02*
X112132323Y-37410773D01*
%TO.N,Net-(U1-Out)*%
X94190000Y-42840000D02*
X95960000Y-42840000D01*
D23*
%TO.N,Net-(IN1-Pin_1)*%
X104289000Y-67221000D02*
X90021000Y-67221000D01*
D22*
%TO.N,Net-(U1-V+)*%
X90000000Y-41050000D02*
X90750000Y-40300000D01*
D23*
%TO.N,Net-(U1-In)*%
X85520722Y-46050000D02*
X85640722Y-45930000D01*
D22*
%TO.N,Net-(U1-V+)*%
X75420000Y-65550000D02*
X75420000Y-65180000D01*
D23*
%TO.N,Net-(D1-A)*%
X81500000Y-35550000D02*
X82190000Y-35550000D01*
D22*
%TO.N,Net-(U1-V+)*%
X90000000Y-41050000D02*
X90000000Y-35740000D01*
D23*
%TO.N,Net-(U1-SRV)*%
X98000000Y-50050000D02*
X98000000Y-47050000D01*
D22*
%TO.N,Net-(U1-V+)*%
X78500000Y-47950000D02*
X83025000Y-43425000D01*
D23*
%TO.N,Net-(IN1-Pin_1)*%
X90021000Y-67221000D02*
X88000000Y-65200000D01*
D22*
%TO.N,Net-(U1-V+)*%
X78500000Y-50950000D02*
X78500000Y-47950000D01*
D23*
%TO.N,Net-(C1-Pad1)*%
X93000000Y-65200000D02*
X93000000Y-63050000D01*
%TO.N,Net-(U1-SRV)*%
X96500000Y-45550000D02*
X94360000Y-45550000D01*
%TO.N,Net-(C1-Pad2)*%
X92000000Y-56050000D02*
X89500000Y-53550000D01*
X93500000Y-56050000D02*
X92000000Y-56050000D01*
D22*
%TO.N,Net-(U1-Out)*%
X98000000Y-40800000D02*
X98000000Y-38800000D01*
D23*
%TO.N,Net-(U1-In)*%
X85500000Y-46050000D02*
X85520722Y-46050000D01*
X84500000Y-47050000D02*
X85500000Y-46050000D01*
%TO.N,Net-(C1-Pad1)*%
X93000000Y-63050000D02*
X98500000Y-57550000D01*
D22*
%TO.N,Net-(U1-V+)*%
X78500000Y-62100000D02*
X78500000Y-50950000D01*
D23*
%TO.N,Net-(C1-Pad1)*%
X98500000Y-57550000D02*
X98500000Y-56050000D01*
D22*
%TO.N,Net-(OUT1-Pin_1)*%
X112085335Y-37410773D02*
X106224562Y-31550000D01*
%TO.N,Net-(U1-Out)*%
X140190000Y-84840000D02*
X141960000Y-84840000D01*
D23*
%TO.N,Net-(U1-SRV)*%
X149197349Y-95297349D02*
X147300000Y-93400000D01*
D22*
%TO.N,Net-(U1-V+)*%
X129025000Y-85425000D02*
X133625000Y-85425000D01*
X121420000Y-107180000D02*
X124500000Y-104100000D01*
%TO.N,Net-(U1-Out)*%
X141960000Y-84840000D02*
X144000000Y-82800000D01*
D23*
%TO.N,Net-(IN1-Pin_1)*%
X151960000Y-107550000D02*
X150289000Y-109221000D01*
%TO.N,Net-(U1-SRV)*%
X144000000Y-89050000D02*
X142500000Y-87550000D01*
%TO.N,Net-(U1-In)*%
X131640722Y-87930000D02*
X135500000Y-87930000D01*
%TO.N,Net-(U1-SRV)*%
X140360000Y-87550000D02*
X140190000Y-87380000D01*
D22*
%TO.N,Net-(U1-Out)*%
X150632323Y-79550000D02*
X153132323Y-82050000D01*
%TO.N,Net-(OUT1-Pin_1)*%
X158132323Y-79410773D02*
X158085335Y-79410773D01*
%TO.N,Net-(U1-V+)*%
X136000000Y-77740000D02*
X135810000Y-77550000D01*
D23*
%TO.N,Net-(U1-SRV)*%
X147300000Y-93400000D02*
X145350000Y-93400000D01*
D22*
%TO.N,Net-(U1-V+)*%
X136750000Y-82300000D02*
X140190000Y-82300000D01*
X133625000Y-85425000D02*
X136000000Y-83050000D01*
D23*
%TO.N,Net-(D1-A)*%
X124000000Y-81050000D02*
X127500000Y-77550000D01*
D22*
%TO.N,Net-(OUT1-Pin_1)*%
X152224562Y-73550000D02*
X146190000Y-73550000D01*
D23*
%TO.N,Net-(U1-In)*%
X140190000Y-89920000D02*
X137370000Y-89920000D01*
%TO.N,Net-(U1-SRV)*%
X149197349Y-96550000D02*
X149197349Y-95297349D01*
%TO.N,Net-(U1-In)*%
X135500000Y-88050000D02*
X135500000Y-87930000D01*
%TO.N,Net-(U1-SRV)*%
X145350000Y-93400000D02*
X144000000Y-92050000D01*
D22*
%TO.N,Net-(U1-Out)*%
X144000000Y-80800000D02*
X145250000Y-79550000D01*
X145250000Y-79550000D02*
X150632323Y-79550000D01*
D23*
%TO.N,Net-(U1-In)*%
X137370000Y-89920000D02*
X135500000Y-88050000D01*
D22*
%TO.N,Net-(OUT1-Pin_1)*%
X158132323Y-82050000D02*
X158132323Y-79410773D01*
D23*
%TO.N,Net-(IN1-Pin_1)*%
X150289000Y-109221000D02*
X136021000Y-109221000D01*
D22*
%TO.N,Net-(U1-V+)*%
X136000000Y-83050000D02*
X136750000Y-82300000D01*
D23*
%TO.N,Net-(U1-In)*%
X131520722Y-88050000D02*
X131640722Y-87930000D01*
D22*
%TO.N,Net-(U1-V+)*%
X121420000Y-107550000D02*
X121420000Y-107180000D01*
D23*
%TO.N,Net-(D1-A)*%
X127500000Y-77550000D02*
X128190000Y-77550000D01*
%TO.N,Net-(U1-In)*%
X131500000Y-88050000D02*
X131520722Y-88050000D01*
D22*
%TO.N,Net-(U1-V+)*%
X136000000Y-83050000D02*
X136000000Y-77740000D01*
D23*
%TO.N,Net-(U1-SRV)*%
X144000000Y-92050000D02*
X144000000Y-89050000D01*
D22*
%TO.N,Net-(U1-V+)*%
X124500000Y-89950000D02*
X129025000Y-85425000D01*
%TO.N,Net-(OUT1-Pin_1)*%
X158085335Y-79410773D02*
X152224562Y-73550000D01*
D23*
%TO.N,Net-(IN1-Pin_1)*%
X136021000Y-109221000D02*
X134000000Y-107200000D01*
D22*
%TO.N,Net-(U1-V+)*%
X124500000Y-92950000D02*
X124500000Y-89950000D01*
D23*
%TO.N,Net-(C1-Pad1)*%
X139000000Y-107200000D02*
X139000000Y-105050000D01*
%TO.N,Net-(U1-SRV)*%
X142500000Y-87550000D02*
X140360000Y-87550000D01*
%TO.N,Net-(C1-Pad2)*%
X138000000Y-98050000D02*
X135500000Y-95550000D01*
X139500000Y-98050000D02*
X138000000Y-98050000D01*
D22*
%TO.N,Net-(U1-Out)*%
X144000000Y-82800000D02*
X144000000Y-80800000D01*
D23*
%TO.N,Net-(U1-In)*%
X130500000Y-89050000D02*
X131500000Y-88050000D01*
%TO.N,Net-(C1-Pad1)*%
X139000000Y-105050000D02*
X144500000Y-99550000D01*
D22*
%TO.N,Net-(U1-V+)*%
X124500000Y-104100000D02*
X124500000Y-92950000D01*
D23*
%TO.N,Net-(C1-Pad1)*%
X144500000Y-99550000D02*
X144500000Y-98050000D01*
%TD*%
%TA.AperFunction,Conductor*%
%TO.N,GND*%
G36*
X160442539Y-71019685D02*
G01*
X160488294Y-71072489D01*
X160499500Y-71124000D01*
X160499500Y-109375500D01*
X160479815Y-109442539D01*
X160427011Y-109488294D01*
X160375500Y-109499500D01*
X153996432Y-109499500D01*
X153929393Y-109479815D01*
X153883638Y-109427011D01*
X153873694Y-109357853D01*
X153897165Y-109301190D01*
X153900679Y-109296494D01*
X153903796Y-109292331D01*
X153954091Y-109157483D01*
X153960500Y-109097873D01*
X153960499Y-106002128D01*
X153954091Y-105942517D01*
X153941235Y-105908049D01*
X153903797Y-105807671D01*
X153903793Y-105807664D01*
X153817547Y-105692455D01*
X153817544Y-105692452D01*
X153702335Y-105606206D01*
X153702328Y-105606202D01*
X153567482Y-105555908D01*
X153567483Y-105555908D01*
X153507883Y-105549501D01*
X153507881Y-105549500D01*
X153507873Y-105549500D01*
X153507864Y-105549500D01*
X150412129Y-105549500D01*
X150412123Y-105549501D01*
X150352516Y-105555908D01*
X150217671Y-105606202D01*
X150217664Y-105606206D01*
X150102455Y-105692452D01*
X150102452Y-105692455D01*
X150016206Y-105807664D01*
X150016202Y-105807671D01*
X149965908Y-105942517D01*
X149959501Y-106002116D01*
X149959500Y-106002127D01*
X149959500Y-107190516D01*
X149959501Y-108346500D01*
X149939816Y-108413539D01*
X149887013Y-108459294D01*
X149835501Y-108470500D01*
X140458910Y-108470500D01*
X140391871Y-108450815D01*
X140346116Y-108398011D01*
X140336172Y-108328853D01*
X140360534Y-108271014D01*
X140375300Y-108251768D01*
X140391950Y-108230071D01*
X140501440Y-108040428D01*
X140585241Y-107838117D01*
X140641917Y-107626598D01*
X140670500Y-107409490D01*
X140670500Y-107190510D01*
X140641917Y-106973402D01*
X140585241Y-106761883D01*
X140501440Y-106559572D01*
X140500591Y-106558102D01*
X140391950Y-106369929D01*
X140258644Y-106196201D01*
X140258638Y-106196194D01*
X140103805Y-106041361D01*
X140103798Y-106041355D01*
X139930070Y-105908049D01*
X139812500Y-105840170D01*
X139764284Y-105789603D01*
X139750500Y-105732783D01*
X139750500Y-105412229D01*
X139770185Y-105345190D01*
X139786819Y-105324548D01*
X144667654Y-100443713D01*
X156649500Y-100443713D01*
X156649500Y-100656286D01*
X156682753Y-100866239D01*
X156748444Y-101068414D01*
X156844951Y-101257820D01*
X156969890Y-101429786D01*
X157120213Y-101580109D01*
X157292179Y-101705048D01*
X157292181Y-101705049D01*
X157292184Y-101705051D01*
X157481588Y-101801557D01*
X157683757Y-101867246D01*
X157893713Y-101900500D01*
X157893714Y-101900500D01*
X158106286Y-101900500D01*
X158106287Y-101900500D01*
X158316243Y-101867246D01*
X158518412Y-101801557D01*
X158707816Y-101705051D01*
X158729789Y-101689086D01*
X158879786Y-101580109D01*
X158879788Y-101580106D01*
X158879792Y-101580104D01*
X159030104Y-101429792D01*
X159030106Y-101429788D01*
X159030109Y-101429786D01*
X159155048Y-101257820D01*
X159155047Y-101257820D01*
X159155051Y-101257816D01*
X159251557Y-101068412D01*
X159317246Y-100866243D01*
X159350500Y-100656287D01*
X159350500Y-100443713D01*
X159317246Y-100233757D01*
X159251557Y-100031588D01*
X159155051Y-99842184D01*
X159155049Y-99842181D01*
X159155048Y-99842179D01*
X159030109Y-99670213D01*
X158879786Y-99519890D01*
X158707820Y-99394951D01*
X158518414Y-99298444D01*
X158518413Y-99298443D01*
X158518412Y-99298443D01*
X158316243Y-99232754D01*
X158316241Y-99232753D01*
X158316240Y-99232753D01*
X158154957Y-99207208D01*
X158106287Y-99199500D01*
X157893713Y-99199500D01*
X157845042Y-99207208D01*
X157683760Y-99232753D01*
X157481585Y-99298444D01*
X157292179Y-99394951D01*
X157120213Y-99519890D01*
X156969890Y-99670213D01*
X156844951Y-99842179D01*
X156748444Y-100031585D01*
X156682753Y-100233760D01*
X156649500Y-100443713D01*
X144667654Y-100443713D01*
X144760207Y-100351160D01*
X144877610Y-100233757D01*
X145082952Y-100028415D01*
X145110205Y-99987627D01*
X145165084Y-99905495D01*
X145191308Y-99842184D01*
X145221659Y-99768912D01*
X145250500Y-99623917D01*
X145250500Y-99476082D01*
X145250500Y-99175416D01*
X145270185Y-99108377D01*
X145301613Y-99075099D01*
X145347219Y-99041966D01*
X145491966Y-98897219D01*
X145491968Y-98897215D01*
X145491971Y-98897213D01*
X145562236Y-98800500D01*
X145612287Y-98731610D01*
X145705220Y-98549219D01*
X145768477Y-98354534D01*
X145800500Y-98152352D01*
X145800500Y-97947648D01*
X145768477Y-97745466D01*
X145705220Y-97550781D01*
X145705218Y-97550778D01*
X145705218Y-97550776D01*
X145638244Y-97419334D01*
X145612287Y-97368390D01*
X145557008Y-97292304D01*
X145491971Y-97202786D01*
X145347213Y-97058028D01*
X145181613Y-96937715D01*
X145181612Y-96937714D01*
X145181610Y-96937713D01*
X145124653Y-96908691D01*
X144999223Y-96844781D01*
X144804534Y-96781522D01*
X144629995Y-96753878D01*
X144602352Y-96749500D01*
X144397648Y-96749500D01*
X144373329Y-96753351D01*
X144195465Y-96781522D01*
X144000776Y-96844781D01*
X143818386Y-96937715D01*
X143652786Y-97058028D01*
X143508028Y-97202786D01*
X143387715Y-97368386D01*
X143294781Y-97550776D01*
X143231522Y-97745465D01*
X143199500Y-97947648D01*
X143199500Y-98152351D01*
X143231522Y-98354534D01*
X143294781Y-98549223D01*
X143387715Y-98731613D01*
X143508028Y-98897213D01*
X143508034Y-98897219D01*
X143652781Y-99041966D01*
X143698384Y-99075098D01*
X143701724Y-99079429D01*
X143706703Y-99081703D01*
X143722832Y-99106801D01*
X143741050Y-99130425D01*
X143742303Y-99137098D01*
X143744477Y-99140481D01*
X143749500Y-99175416D01*
X143749500Y-99187769D01*
X143729815Y-99254808D01*
X143713181Y-99275450D01*
X138417050Y-104571580D01*
X138417044Y-104571588D01*
X138367812Y-104645268D01*
X138367813Y-104645269D01*
X138334921Y-104694496D01*
X138334916Y-104694506D01*
X138278342Y-104831086D01*
X138278340Y-104831092D01*
X138249500Y-104976079D01*
X138249500Y-105732783D01*
X138229815Y-105799822D01*
X138187500Y-105840170D01*
X138069929Y-105908049D01*
X137896201Y-106041355D01*
X137896194Y-106041361D01*
X137741361Y-106196194D01*
X137741355Y-106196201D01*
X137608049Y-106369929D01*
X137498565Y-106559561D01*
X137498560Y-106559573D01*
X137414758Y-106761884D01*
X137358084Y-106973399D01*
X137358082Y-106973410D01*
X137329500Y-107190502D01*
X137329500Y-107409497D01*
X137353306Y-107590314D01*
X137358083Y-107626598D01*
X137386421Y-107732357D01*
X137404180Y-107798638D01*
X137414759Y-107838117D01*
X137498560Y-108040428D01*
X137498562Y-108040433D01*
X137498565Y-108040438D01*
X137608049Y-108230070D01*
X137639466Y-108271014D01*
X137664660Y-108336184D01*
X137650621Y-108404628D01*
X137601807Y-108454618D01*
X137541090Y-108470500D01*
X136383229Y-108470500D01*
X136316190Y-108450815D01*
X136295548Y-108434181D01*
X135660006Y-107798638D01*
X135626521Y-107737315D01*
X135627912Y-107678863D01*
X135641916Y-107626600D01*
X135641917Y-107626598D01*
X135670500Y-107409490D01*
X135670500Y-107190510D01*
X135641917Y-106973402D01*
X135585241Y-106761883D01*
X135501440Y-106559572D01*
X135500591Y-106558102D01*
X135391950Y-106369929D01*
X135258644Y-106196201D01*
X135258638Y-106196194D01*
X135103805Y-106041361D01*
X135103798Y-106041355D01*
X134930070Y-105908049D01*
X134740438Y-105798565D01*
X134740433Y-105798562D01*
X134740428Y-105798560D01*
X134538117Y-105714759D01*
X134538118Y-105714759D01*
X134538115Y-105714758D01*
X134432357Y-105686421D01*
X134326598Y-105658083D01*
X134290314Y-105653306D01*
X134109497Y-105629500D01*
X134109490Y-105629500D01*
X133890510Y-105629500D01*
X133890502Y-105629500D01*
X133683853Y-105656707D01*
X133673402Y-105658083D01*
X133628699Y-105670060D01*
X133461884Y-105714758D01*
X133343374Y-105763847D01*
X133259572Y-105798560D01*
X133259569Y-105798561D01*
X133259561Y-105798565D01*
X133069929Y-105908049D01*
X132896201Y-106041355D01*
X132896194Y-106041361D01*
X132741361Y-106196194D01*
X132741355Y-106196201D01*
X132608049Y-106369929D01*
X132498565Y-106559561D01*
X132498560Y-106559573D01*
X132414758Y-106761884D01*
X132358084Y-106973399D01*
X132358082Y-106973410D01*
X132329500Y-107190502D01*
X132329500Y-107409497D01*
X132353306Y-107590314D01*
X132358083Y-107626598D01*
X132386421Y-107732357D01*
X132404180Y-107798638D01*
X132414759Y-107838117D01*
X132498560Y-108040428D01*
X132498562Y-108040433D01*
X132498565Y-108040438D01*
X132608049Y-108230070D01*
X132741355Y-108403798D01*
X132741361Y-108403805D01*
X132896194Y-108558638D01*
X132896201Y-108558644D01*
X133069929Y-108691950D01*
X133259561Y-108801434D01*
X133259563Y-108801434D01*
X133259572Y-108801440D01*
X133461883Y-108885241D01*
X133673402Y-108941917D01*
X133890510Y-108970500D01*
X133890517Y-108970500D01*
X134109483Y-108970500D01*
X134109490Y-108970500D01*
X134326598Y-108941917D01*
X134536601Y-108885647D01*
X134606448Y-108887310D01*
X134656373Y-108917741D01*
X134896115Y-109157483D01*
X135026452Y-109287819D01*
X135059937Y-109349142D01*
X135054953Y-109418833D01*
X135013082Y-109474767D01*
X134947617Y-109499184D01*
X134938771Y-109499500D01*
X123456432Y-109499500D01*
X123389393Y-109479815D01*
X123343638Y-109427011D01*
X123333694Y-109357853D01*
X123357165Y-109301190D01*
X123360679Y-109296494D01*
X123363796Y-109292331D01*
X123414091Y-109157483D01*
X123420500Y-109097873D01*
X123420499Y-106645782D01*
X123440184Y-106578744D01*
X123456818Y-106558102D01*
X124356837Y-105658084D01*
X125277140Y-104737781D01*
X125306056Y-104694505D01*
X125386632Y-104573914D01*
X125462051Y-104391835D01*
X125500500Y-104198541D01*
X125500500Y-95447648D01*
X134199500Y-95447648D01*
X134199500Y-95652351D01*
X134231522Y-95854534D01*
X134294781Y-96049223D01*
X134387715Y-96231613D01*
X134508028Y-96397213D01*
X134652786Y-96541971D01*
X134807749Y-96654556D01*
X134818390Y-96662287D01*
X134934607Y-96721503D01*
X135000776Y-96755218D01*
X135000778Y-96755218D01*
X135000781Y-96755220D01*
X135105137Y-96789127D01*
X135195465Y-96818477D01*
X135279564Y-96831797D01*
X135397648Y-96850500D01*
X135397649Y-96850500D01*
X135602350Y-96850500D01*
X135602352Y-96850500D01*
X135658026Y-96841681D01*
X135727318Y-96850635D01*
X135765105Y-96876473D01*
X137521586Y-98632954D01*
X137551058Y-98652645D01*
X137595270Y-98682186D01*
X137644505Y-98715084D01*
X137644506Y-98715084D01*
X137644507Y-98715085D01*
X137644509Y-98715086D01*
X137781082Y-98771656D01*
X137781087Y-98771658D01*
X137781091Y-98771658D01*
X137781092Y-98771659D01*
X137926079Y-98800500D01*
X137926082Y-98800500D01*
X137926083Y-98800500D01*
X138073917Y-98800500D01*
X138374582Y-98800500D01*
X138441621Y-98820185D01*
X138474900Y-98851615D01*
X138508028Y-98897212D01*
X138508032Y-98897217D01*
X138652786Y-99041971D01*
X138774535Y-99130425D01*
X138818390Y-99162287D01*
X138891425Y-99199500D01*
X139000776Y-99255218D01*
X139000778Y-99255218D01*
X139000781Y-99255220D01*
X139063043Y-99275450D01*
X139195465Y-99318477D01*
X139296557Y-99334488D01*
X139397648Y-99350500D01*
X139397649Y-99350500D01*
X139602351Y-99350500D01*
X139602352Y-99350500D01*
X139804534Y-99318477D01*
X139999219Y-99255220D01*
X140181610Y-99162287D01*
X140301619Y-99075096D01*
X140347213Y-99041971D01*
X140347215Y-99041968D01*
X140347219Y-99041966D01*
X140491966Y-98897219D01*
X140491968Y-98897215D01*
X140491971Y-98897213D01*
X140562236Y-98800500D01*
X140612287Y-98731610D01*
X140705220Y-98549219D01*
X140768477Y-98354534D01*
X140800500Y-98152352D01*
X140800500Y-97947648D01*
X140768477Y-97745466D01*
X140705220Y-97550781D01*
X140705218Y-97550778D01*
X140705218Y-97550776D01*
X140638244Y-97419334D01*
X140612287Y-97368390D01*
X140557008Y-97292304D01*
X140491971Y-97202786D01*
X140347213Y-97058028D01*
X140181613Y-96937715D01*
X140181612Y-96937714D01*
X140181610Y-96937713D01*
X140124653Y-96908691D01*
X139999223Y-96844781D01*
X139804534Y-96781522D01*
X139629995Y-96753878D01*
X139602352Y-96749500D01*
X139397648Y-96749500D01*
X139373329Y-96753351D01*
X139195465Y-96781522D01*
X139000776Y-96844781D01*
X138818386Y-96937715D01*
X138652786Y-97058028D01*
X138508032Y-97202782D01*
X138508028Y-97202787D01*
X138474900Y-97248385D01*
X138470568Y-97251725D01*
X138468295Y-97256703D01*
X138443195Y-97272833D01*
X138419571Y-97291051D01*
X138412897Y-97292304D01*
X138409517Y-97294477D01*
X138374582Y-97299500D01*
X138362230Y-97299500D01*
X138295191Y-97279815D01*
X138274549Y-97263181D01*
X136826473Y-95815105D01*
X136792988Y-95753782D01*
X136791681Y-95708027D01*
X136800500Y-95652352D01*
X136800500Y-95447648D01*
X136779520Y-95315186D01*
X136768477Y-95245465D01*
X136739127Y-95155137D01*
X136705220Y-95050781D01*
X136705218Y-95050778D01*
X136705218Y-95050776D01*
X136649720Y-94941857D01*
X136612287Y-94868390D01*
X136576355Y-94818933D01*
X136491971Y-94702786D01*
X136347213Y-94558028D01*
X136181613Y-94437715D01*
X136181612Y-94437714D01*
X136181610Y-94437713D01*
X136124653Y-94408691D01*
X135999223Y-94344781D01*
X135804534Y-94281522D01*
X135629995Y-94253878D01*
X135602352Y-94249500D01*
X135397648Y-94249500D01*
X135373329Y-94253351D01*
X135195465Y-94281522D01*
X135000776Y-94344781D01*
X134818386Y-94437715D01*
X134652786Y-94558028D01*
X134508028Y-94702786D01*
X134387715Y-94868386D01*
X134294781Y-95050776D01*
X134231522Y-95245465D01*
X134199500Y-95447648D01*
X125500500Y-95447648D01*
X125500500Y-94162230D01*
X125520185Y-94095191D01*
X125536819Y-94074549D01*
X125546288Y-94065080D01*
X125642712Y-93968656D01*
X125734814Y-93819334D01*
X125789999Y-93652797D01*
X125800500Y-93550009D01*
X125800499Y-92349992D01*
X125789999Y-92247203D01*
X125734814Y-92080666D01*
X125642712Y-91931344D01*
X125536818Y-91825450D01*
X125503334Y-91764127D01*
X125500500Y-91737769D01*
X125500500Y-90415782D01*
X125520185Y-90348743D01*
X125536819Y-90328101D01*
X129403102Y-86461819D01*
X129464425Y-86428334D01*
X129490783Y-86425500D01*
X133723542Y-86425500D01*
X133754566Y-86419328D01*
X133820188Y-86406275D01*
X133916836Y-86387051D01*
X133970165Y-86364961D01*
X134098914Y-86311632D01*
X134262782Y-86202139D01*
X134402139Y-86062782D01*
X134402140Y-86062779D01*
X134409206Y-86055714D01*
X134409209Y-86055710D01*
X136088203Y-84376715D01*
X136149524Y-84343232D01*
X136156473Y-84341927D01*
X136304534Y-84318477D01*
X136499219Y-84255220D01*
X136681610Y-84162287D01*
X136774590Y-84094732D01*
X136847213Y-84041971D01*
X136847215Y-84041968D01*
X136847219Y-84041966D01*
X136991966Y-83897219D01*
X136991968Y-83897215D01*
X136991971Y-83897213D01*
X137044732Y-83824590D01*
X137112287Y-83731610D01*
X137205220Y-83549219D01*
X137258194Y-83386182D01*
X137297632Y-83328506D01*
X137361990Y-83301308D01*
X137376125Y-83300500D01*
X138577769Y-83300500D01*
X138644808Y-83320185D01*
X138665450Y-83336818D01*
X138771344Y-83442712D01*
X138920666Y-83534814D01*
X139002570Y-83561954D01*
X139060015Y-83601727D01*
X139086838Y-83666243D01*
X139074523Y-83735018D01*
X139036451Y-83779978D01*
X138942787Y-83848028D01*
X138942782Y-83848032D01*
X138798028Y-83992786D01*
X138677715Y-84158386D01*
X138584781Y-84340776D01*
X138521522Y-84535465D01*
X138489500Y-84737648D01*
X138489500Y-84942351D01*
X138521522Y-85144534D01*
X138584781Y-85339223D01*
X138648691Y-85464653D01*
X138655381Y-85477782D01*
X138677715Y-85521613D01*
X138798028Y-85687213D01*
X138942786Y-85831971D01*
X139097749Y-85944556D01*
X139108390Y-85952287D01*
X139199840Y-85998883D01*
X139201080Y-85999515D01*
X139251876Y-86047490D01*
X139268671Y-86115311D01*
X139246134Y-86181446D01*
X139201080Y-86220485D01*
X139108386Y-86267715D01*
X138942786Y-86388028D01*
X138798028Y-86532786D01*
X138677715Y-86698386D01*
X138584781Y-86880776D01*
X138521522Y-87075465D01*
X138489500Y-87277648D01*
X138489500Y-87482351D01*
X138521522Y-87684534D01*
X138584781Y-87879223D01*
X138614584Y-87937713D01*
X138662805Y-88032352D01*
X138677715Y-88061613D01*
X138798028Y-88227213D01*
X138942786Y-88371971D01*
X139073654Y-88467050D01*
X139108390Y-88492287D01*
X139199840Y-88538883D01*
X139201080Y-88539515D01*
X139251876Y-88587490D01*
X139268671Y-88655311D01*
X139246134Y-88721446D01*
X139201080Y-88760485D01*
X139108386Y-88807715D01*
X138942786Y-88928028D01*
X138798032Y-89072782D01*
X138798028Y-89072787D01*
X138764900Y-89118385D01*
X138709571Y-89161051D01*
X138664582Y-89169500D01*
X137732229Y-89169500D01*
X137665190Y-89149815D01*
X137644548Y-89133181D01*
X136810066Y-88298699D01*
X136776581Y-88237376D01*
X136775274Y-88191620D01*
X136800500Y-88032351D01*
X136800500Y-87827648D01*
X136768477Y-87625465D01*
X136717004Y-87467048D01*
X136705220Y-87430781D01*
X136705218Y-87430778D01*
X136705218Y-87430776D01*
X136641683Y-87306083D01*
X136612287Y-87248390D01*
X136583190Y-87208341D01*
X136491971Y-87082786D01*
X136347213Y-86938028D01*
X136181613Y-86817715D01*
X136181612Y-86817714D01*
X136181610Y-86817713D01*
X136107231Y-86779815D01*
X135999223Y-86724781D01*
X135804534Y-86661522D01*
X135629995Y-86633878D01*
X135602352Y-86629500D01*
X135397648Y-86629500D01*
X135373329Y-86633351D01*
X135195465Y-86661522D01*
X135000776Y-86724781D01*
X134818386Y-86817715D01*
X134652786Y-86938028D01*
X134508032Y-87082782D01*
X134508028Y-87082787D01*
X134474900Y-87128385D01*
X134419571Y-87171051D01*
X134374582Y-87179500D01*
X131566798Y-87179500D01*
X131537964Y-87185234D01*
X131537965Y-87185235D01*
X131421815Y-87208339D01*
X131421805Y-87208342D01*
X131341803Y-87241479D01*
X131341804Y-87241480D01*
X131285228Y-87264915D01*
X131223616Y-87306083D01*
X131162305Y-87347049D01*
X131162300Y-87347053D01*
X131092664Y-87416688D01*
X131073876Y-87432107D01*
X131021585Y-87467047D01*
X131021579Y-87467052D01*
X130765105Y-87723526D01*
X130703782Y-87757011D01*
X130658026Y-87758318D01*
X130602352Y-87749500D01*
X130397648Y-87749500D01*
X130373329Y-87753351D01*
X130195465Y-87781522D01*
X130000776Y-87844781D01*
X129818386Y-87937715D01*
X129652786Y-88058028D01*
X129508028Y-88202786D01*
X129387715Y-88368386D01*
X129294781Y-88550776D01*
X129231522Y-88745465D01*
X129199500Y-88947648D01*
X129199500Y-89152351D01*
X129231522Y-89354534D01*
X129294781Y-89549223D01*
X129387715Y-89731613D01*
X129508028Y-89897213D01*
X129652786Y-90041971D01*
X129807749Y-90154556D01*
X129818390Y-90162287D01*
X129934607Y-90221503D01*
X130000776Y-90255218D01*
X130000778Y-90255218D01*
X130000781Y-90255220D01*
X130105137Y-90289127D01*
X130195465Y-90318477D01*
X130296557Y-90334488D01*
X130397648Y-90350500D01*
X130397649Y-90350500D01*
X130602351Y-90350500D01*
X130602352Y-90350500D01*
X130804534Y-90318477D01*
X130999219Y-90255220D01*
X131181610Y-90162287D01*
X131274590Y-90094732D01*
X131347213Y-90041971D01*
X131347215Y-90041968D01*
X131347219Y-90041966D01*
X131491966Y-89897219D01*
X131491968Y-89897215D01*
X131491971Y-89897213D01*
X131549777Y-89817648D01*
X131612287Y-89731610D01*
X131705220Y-89549219D01*
X131768477Y-89354534D01*
X131800500Y-89152352D01*
X131800500Y-88947648D01*
X131791681Y-88891971D01*
X131792382Y-88886545D01*
X131790470Y-88881418D01*
X131796811Y-88852269D01*
X131800635Y-88822680D01*
X131804468Y-88817073D01*
X131805323Y-88813146D01*
X131826470Y-88784896D01*
X131894550Y-88716817D01*
X131955874Y-88683333D01*
X131982230Y-88680500D01*
X134374582Y-88680500D01*
X134441621Y-88700185D01*
X134474900Y-88731615D01*
X134508028Y-88777212D01*
X134508032Y-88777217D01*
X134652786Y-88921971D01*
X134807749Y-89034556D01*
X134818390Y-89042287D01*
X134878248Y-89072786D01*
X135000776Y-89135218D01*
X135000778Y-89135218D01*
X135000781Y-89135220D01*
X135045700Y-89149815D01*
X135195465Y-89198477D01*
X135296557Y-89214488D01*
X135397648Y-89230500D01*
X135397649Y-89230500D01*
X135567770Y-89230500D01*
X135634809Y-89250185D01*
X135655451Y-89266819D01*
X136891580Y-90502948D01*
X136891584Y-90502951D01*
X137014498Y-90585080D01*
X137014511Y-90585087D01*
X137151082Y-90641656D01*
X137151087Y-90641658D01*
X137151091Y-90641658D01*
X137151092Y-90641659D01*
X137296079Y-90670500D01*
X137296082Y-90670500D01*
X137443917Y-90670500D01*
X138664582Y-90670500D01*
X138731621Y-90690185D01*
X138764900Y-90721615D01*
X138798028Y-90767212D01*
X138798032Y-90767217D01*
X138942786Y-90911971D01*
X139097749Y-91024556D01*
X139108390Y-91032287D01*
X139224607Y-91091503D01*
X139290776Y-91125218D01*
X139290778Y-91125218D01*
X139290781Y-91125220D01*
X139395137Y-91159127D01*
X139485465Y-91188477D01*
X139586557Y-91204488D01*
X139687648Y-91220500D01*
X139687649Y-91220500D01*
X140692351Y-91220500D01*
X140692352Y-91220500D01*
X140894534Y-91188477D01*
X141089219Y-91125220D01*
X141271610Y-91032287D01*
X141364590Y-90964732D01*
X141437213Y-90911971D01*
X141437215Y-90911968D01*
X141437219Y-90911966D01*
X141581966Y-90767219D01*
X141581968Y-90767215D01*
X141581971Y-90767213D01*
X141652236Y-90670500D01*
X141702287Y-90601610D01*
X141795220Y-90419219D01*
X141858477Y-90224534D01*
X141890500Y-90022352D01*
X141890500Y-89817648D01*
X141858477Y-89615466D01*
X141795220Y-89420781D01*
X141795218Y-89420778D01*
X141795218Y-89420776D01*
X141746187Y-89324548D01*
X141702287Y-89238390D01*
X141654678Y-89172861D01*
X141581971Y-89072786D01*
X141437213Y-88928028D01*
X141271614Y-88807715D01*
X141211758Y-88777217D01*
X141178917Y-88760483D01*
X141128123Y-88712511D01*
X141111328Y-88644690D01*
X141133865Y-88578555D01*
X141178917Y-88539516D01*
X141271610Y-88492287D01*
X141306347Y-88467049D01*
X141437213Y-88371971D01*
X141437215Y-88371968D01*
X141437219Y-88371966D01*
X141472366Y-88336819D01*
X141533689Y-88303334D01*
X141560047Y-88300500D01*
X142137770Y-88300500D01*
X142204809Y-88320185D01*
X142225451Y-88336819D01*
X143213181Y-89324548D01*
X143246666Y-89385871D01*
X143249500Y-89412229D01*
X143249500Y-92123918D01*
X143249500Y-92123920D01*
X143249499Y-92123920D01*
X143278340Y-92268907D01*
X143278343Y-92268917D01*
X143334914Y-92405492D01*
X143367812Y-92454727D01*
X143367813Y-92454730D01*
X143417046Y-92528414D01*
X143417052Y-92528421D01*
X144871580Y-93982948D01*
X144871584Y-93982951D01*
X144994498Y-94065080D01*
X144994511Y-94065087D01*
X145088239Y-94103910D01*
X145131087Y-94121658D01*
X145131091Y-94121658D01*
X145131092Y-94121659D01*
X145276079Y-94150500D01*
X145276082Y-94150500D01*
X145423917Y-94150500D01*
X146937770Y-94150500D01*
X147004809Y-94170185D01*
X147025451Y-94186819D01*
X148124625Y-95285992D01*
X148158110Y-95347315D01*
X148153126Y-95417007D01*
X148124626Y-95461353D01*
X148054638Y-95531342D01*
X147962536Y-95680663D01*
X147962535Y-95680666D01*
X147907350Y-95847203D01*
X147907350Y-95847204D01*
X147907349Y-95847204D01*
X147896849Y-95949983D01*
X147896849Y-97150001D01*
X147896850Y-97150018D01*
X147907349Y-97252796D01*
X147907350Y-97252799D01*
X147945652Y-97368386D01*
X147962535Y-97419334D01*
X148054637Y-97568656D01*
X148178693Y-97692712D01*
X148328015Y-97784814D01*
X148494552Y-97839999D01*
X148597340Y-97850500D01*
X149797357Y-97850499D01*
X149900146Y-97839999D01*
X150066683Y-97784814D01*
X150216005Y-97692712D01*
X150340061Y-97568656D01*
X150432163Y-97419334D01*
X150487348Y-97252797D01*
X150497849Y-97150009D01*
X150497848Y-95949992D01*
X150487348Y-95847203D01*
X150432163Y-95680666D01*
X150340061Y-95531344D01*
X150216005Y-95407288D01*
X150066683Y-95315186D01*
X150052229Y-95310396D01*
X150027529Y-95302211D01*
X150017292Y-95295123D01*
X150005175Y-95292260D01*
X149989107Y-95275609D01*
X149970085Y-95262438D01*
X149964131Y-95249725D01*
X149956659Y-95241981D01*
X149944918Y-95208697D01*
X149927962Y-95123453D01*
X149919008Y-95078437D01*
X149876562Y-94975965D01*
X149862433Y-94941854D01*
X149813343Y-94868386D01*
X149780303Y-94818937D01*
X149780302Y-94818936D01*
X149780300Y-94818933D01*
X149675765Y-94714398D01*
X149210867Y-94249500D01*
X147778421Y-92817052D01*
X147778414Y-92817046D01*
X147704729Y-92767812D01*
X147704729Y-92767813D01*
X147655491Y-92734913D01*
X147518917Y-92678343D01*
X147518907Y-92678340D01*
X147373920Y-92649500D01*
X147373918Y-92649500D01*
X145712229Y-92649500D01*
X145645190Y-92629815D01*
X145624548Y-92613181D01*
X144786819Y-91775451D01*
X144753334Y-91714128D01*
X144750500Y-91687770D01*
X144750500Y-88976079D01*
X144721659Y-88831092D01*
X144721658Y-88831091D01*
X144721658Y-88831087D01*
X144699345Y-88777219D01*
X144665087Y-88694511D01*
X144665080Y-88694498D01*
X144582952Y-88571585D01*
X144550882Y-88539515D01*
X144478416Y-88467049D01*
X144202987Y-88191620D01*
X142978421Y-86967052D01*
X142978420Y-86967051D01*
X142978416Y-86967048D01*
X142880440Y-86901584D01*
X142880438Y-86901581D01*
X142855495Y-86884916D01*
X142855490Y-86884913D01*
X142718917Y-86828343D01*
X142718907Y-86828340D01*
X142573920Y-86799500D01*
X142573918Y-86799500D01*
X141829793Y-86799500D01*
X141762754Y-86779815D01*
X141719309Y-86731796D01*
X141702286Y-86698388D01*
X141581971Y-86532786D01*
X141437213Y-86388028D01*
X141271614Y-86267715D01*
X141265006Y-86264348D01*
X141178917Y-86220483D01*
X141128123Y-86172511D01*
X141111328Y-86104690D01*
X141133865Y-86038555D01*
X141178917Y-85999516D01*
X141271610Y-85952287D01*
X141392877Y-85864181D01*
X141458683Y-85840702D01*
X141465762Y-85840500D01*
X142058542Y-85840500D01*
X142089566Y-85834328D01*
X142155188Y-85821275D01*
X142251836Y-85802051D01*
X142305165Y-85779961D01*
X142433914Y-85726632D01*
X142597782Y-85617139D01*
X142737139Y-85477782D01*
X142737139Y-85477780D01*
X142747347Y-85467573D01*
X142747348Y-85467570D01*
X144777140Y-83437781D01*
X144886632Y-83273914D01*
X144962052Y-83091835D01*
X145000500Y-82898540D01*
X145000500Y-82701459D01*
X145000500Y-81265782D01*
X145020185Y-81198743D01*
X145036819Y-81178101D01*
X145628101Y-80586819D01*
X145689424Y-80553334D01*
X145715782Y-80550500D01*
X150166541Y-80550500D01*
X150233580Y-80570185D01*
X150254222Y-80586819D01*
X151595504Y-81928101D01*
X151628989Y-81989424D01*
X151631823Y-82015782D01*
X151631823Y-82850001D01*
X151631824Y-82850019D01*
X151642323Y-82952796D01*
X151642324Y-82952799D01*
X151667082Y-83027512D01*
X151697509Y-83119334D01*
X151789611Y-83268656D01*
X151913667Y-83392712D01*
X152062989Y-83484814D01*
X152229526Y-83539999D01*
X152332314Y-83550500D01*
X153932331Y-83550499D01*
X153944862Y-83549219D01*
X153950218Y-83548671D01*
X154035120Y-83539999D01*
X154201657Y-83484814D01*
X154350979Y-83392712D01*
X154475035Y-83268656D01*
X154567137Y-83119334D01*
X154622322Y-82952797D01*
X154632823Y-82850009D01*
X154632822Y-81249992D01*
X154630474Y-81227011D01*
X154622322Y-81147203D01*
X154622321Y-81147200D01*
X154567137Y-80980666D01*
X154475035Y-80831344D01*
X154350979Y-80707288D01*
X154201657Y-80615186D01*
X154035120Y-80560001D01*
X154035118Y-80560000D01*
X153932339Y-80549500D01*
X153932332Y-80549500D01*
X153098105Y-80549500D01*
X153031066Y-80529815D01*
X153010424Y-80513181D01*
X151413802Y-78916559D01*
X151413782Y-78916537D01*
X151270108Y-78772863D01*
X151270104Y-78772860D01*
X151106243Y-78663371D01*
X151106234Y-78663366D01*
X151033638Y-78633296D01*
X150977488Y-78610038D01*
X150924159Y-78587949D01*
X150924155Y-78587948D01*
X150924151Y-78587946D01*
X150827511Y-78568724D01*
X150730867Y-78549500D01*
X150730864Y-78549500D01*
X145151459Y-78549500D01*
X145151455Y-78549500D01*
X145054812Y-78568724D01*
X144958167Y-78587947D01*
X144958161Y-78587949D01*
X144904834Y-78610037D01*
X144904834Y-78610038D01*
X144859315Y-78628892D01*
X144776089Y-78663366D01*
X144776079Y-78663371D01*
X144612219Y-78772859D01*
X144566602Y-78818477D01*
X144472861Y-78912218D01*
X144472858Y-78912221D01*
X143362221Y-80022858D01*
X143362218Y-80022861D01*
X143292538Y-80092540D01*
X143222859Y-80162219D01*
X143113371Y-80326079D01*
X143113364Y-80326092D01*
X143037950Y-80508160D01*
X143037947Y-80508170D01*
X142999500Y-80701456D01*
X142999500Y-82334217D01*
X142979815Y-82401256D01*
X142963181Y-82421898D01*
X141945706Y-83439372D01*
X141884383Y-83472857D01*
X141814691Y-83467873D01*
X141758758Y-83426001D01*
X141734341Y-83360537D01*
X141749193Y-83292264D01*
X141752472Y-83286618D01*
X141824814Y-83169334D01*
X141879999Y-83002797D01*
X141890500Y-82900009D01*
X141890499Y-81699992D01*
X141879999Y-81597203D01*
X141824814Y-81430666D01*
X141732712Y-81281344D01*
X141608656Y-81157288D01*
X141471176Y-81072490D01*
X141459336Y-81065187D01*
X141459331Y-81065185D01*
X141457862Y-81064698D01*
X141292797Y-81010001D01*
X141292795Y-81010000D01*
X141190010Y-80999500D01*
X139189998Y-80999500D01*
X139189981Y-80999501D01*
X139087203Y-81010000D01*
X139087200Y-81010001D01*
X138920668Y-81065185D01*
X138920663Y-81065187D01*
X138771345Y-81157287D01*
X138665450Y-81263182D01*
X138604127Y-81296666D01*
X138577769Y-81299500D01*
X137124500Y-81299500D01*
X137057461Y-81279815D01*
X137011706Y-81227011D01*
X137000500Y-81175500D01*
X137000500Y-78107878D01*
X137013488Y-78053778D01*
X137013354Y-78053723D01*
X137013705Y-78052874D01*
X137014016Y-78051581D01*
X137015220Y-78049219D01*
X137078477Y-77854534D01*
X137110500Y-77652352D01*
X137110500Y-77447648D01*
X137078477Y-77245466D01*
X137015220Y-77050781D01*
X137015218Y-77050778D01*
X137015218Y-77050776D01*
X136969531Y-76961112D01*
X136922287Y-76868390D01*
X136914556Y-76857749D01*
X136801971Y-76702786D01*
X136657213Y-76558028D01*
X136491613Y-76437715D01*
X136491612Y-76437714D01*
X136491610Y-76437713D01*
X136434653Y-76408691D01*
X136309223Y-76344781D01*
X136114534Y-76281522D01*
X135939995Y-76253878D01*
X135912352Y-76249500D01*
X135707648Y-76249500D01*
X135683329Y-76253351D01*
X135505465Y-76281522D01*
X135310776Y-76344781D01*
X135128386Y-76437715D01*
X134962786Y-76558028D01*
X134818028Y-76702786D01*
X134697715Y-76868386D01*
X134604781Y-77050776D01*
X134541522Y-77245465D01*
X134509500Y-77447648D01*
X134509500Y-77652351D01*
X134541522Y-77854534D01*
X134604781Y-78049223D01*
X134697715Y-78231613D01*
X134818028Y-78397213D01*
X134963181Y-78542366D01*
X134996666Y-78603689D01*
X134999500Y-78630047D01*
X134999500Y-82174237D01*
X134979815Y-82241276D01*
X134975818Y-82247122D01*
X134887715Y-82368386D01*
X134794781Y-82550778D01*
X134731522Y-82745468D01*
X134708073Y-82893515D01*
X134678143Y-82956649D01*
X134673281Y-82961797D01*
X133246899Y-84388181D01*
X133185576Y-84421666D01*
X133159218Y-84424500D01*
X128926456Y-84424500D01*
X128733171Y-84462946D01*
X128733167Y-84462948D01*
X128733165Y-84462948D01*
X128733164Y-84462949D01*
X128657745Y-84494188D01*
X128657743Y-84494189D01*
X128551089Y-84538366D01*
X128551079Y-84538371D01*
X128387218Y-84647860D01*
X128387214Y-84647863D01*
X124977051Y-88058028D01*
X123862220Y-89172859D01*
X123862218Y-89172861D01*
X123806874Y-89228205D01*
X123722859Y-89312219D01*
X123613371Y-89476079D01*
X123613364Y-89476092D01*
X123537950Y-89658160D01*
X123537947Y-89658170D01*
X123499500Y-89851456D01*
X123499500Y-91737769D01*
X123479815Y-91804808D01*
X123463182Y-91825450D01*
X123357287Y-91931345D01*
X123265187Y-92080663D01*
X123265186Y-92080666D01*
X123210001Y-92247203D01*
X123210001Y-92247204D01*
X123210000Y-92247204D01*
X123199500Y-92349983D01*
X123199500Y-93550001D01*
X123199501Y-93550018D01*
X123210000Y-93652796D01*
X123210001Y-93652799D01*
X123265185Y-93819331D01*
X123265187Y-93819336D01*
X123357289Y-93968657D01*
X123463181Y-94074549D01*
X123496666Y-94135872D01*
X123499500Y-94162230D01*
X123499500Y-103634217D01*
X123479815Y-103701256D01*
X123463181Y-103721898D01*
X121671897Y-105513181D01*
X121610574Y-105546666D01*
X121584216Y-105549500D01*
X119872129Y-105549500D01*
X119872123Y-105549501D01*
X119812516Y-105555908D01*
X119677671Y-105606202D01*
X119677664Y-105606206D01*
X119562455Y-105692452D01*
X119562452Y-105692455D01*
X119476206Y-105807664D01*
X119476202Y-105807671D01*
X119425908Y-105942517D01*
X119419501Y-106002116D01*
X119419501Y-106002123D01*
X119419500Y-106002135D01*
X119419500Y-109097870D01*
X119419501Y-109097876D01*
X119425908Y-109157483D01*
X119476202Y-109292328D01*
X119476206Y-109292334D01*
X119482835Y-109301190D01*
X119507252Y-109366654D01*
X119492400Y-109434927D01*
X119442995Y-109484332D01*
X119383568Y-109499500D01*
X118124000Y-109499500D01*
X118056961Y-109479815D01*
X118011206Y-109427011D01*
X118000000Y-109375500D01*
X118000000Y-100443713D01*
X119649500Y-100443713D01*
X119649500Y-100656286D01*
X119682753Y-100866239D01*
X119748444Y-101068414D01*
X119844951Y-101257820D01*
X119969890Y-101429786D01*
X120120213Y-101580109D01*
X120292179Y-101705048D01*
X120292181Y-101705049D01*
X120292184Y-101705051D01*
X120481588Y-101801557D01*
X120683757Y-101867246D01*
X120893713Y-101900500D01*
X120893714Y-101900500D01*
X121106286Y-101900500D01*
X121106287Y-101900500D01*
X121316243Y-101867246D01*
X121518412Y-101801557D01*
X121707816Y-101705051D01*
X121729789Y-101689086D01*
X121879786Y-101580109D01*
X121879788Y-101580106D01*
X121879792Y-101580104D01*
X122030104Y-101429792D01*
X122030106Y-101429788D01*
X122030109Y-101429786D01*
X122155048Y-101257820D01*
X122155047Y-101257820D01*
X122155051Y-101257816D01*
X122251557Y-101068412D01*
X122317246Y-100866243D01*
X122350500Y-100656287D01*
X122350500Y-100443713D01*
X122317246Y-100233757D01*
X122251557Y-100031588D01*
X122155051Y-99842184D01*
X122155049Y-99842181D01*
X122155048Y-99842179D01*
X122030109Y-99670213D01*
X121879786Y-99519890D01*
X121707820Y-99394951D01*
X121518414Y-99298444D01*
X121518413Y-99298443D01*
X121518412Y-99298443D01*
X121316243Y-99232754D01*
X121316241Y-99232753D01*
X121316240Y-99232753D01*
X121154957Y-99207208D01*
X121106287Y-99199500D01*
X120893713Y-99199500D01*
X120845042Y-99207208D01*
X120683760Y-99232753D01*
X120481585Y-99298444D01*
X120292179Y-99394951D01*
X120120213Y-99519890D01*
X119969890Y-99670213D01*
X119844951Y-99842179D01*
X119748444Y-100031585D01*
X119682753Y-100233760D01*
X119649500Y-100443713D01*
X118000000Y-100443713D01*
X118000000Y-80939778D01*
X122599500Y-80939778D01*
X122599500Y-81160222D01*
X122613718Y-81249992D01*
X122633985Y-81377952D01*
X122702103Y-81587603D01*
X122702104Y-81587606D01*
X122802187Y-81784025D01*
X122931752Y-81962358D01*
X122931756Y-81962363D01*
X123087636Y-82118243D01*
X123087641Y-82118247D01*
X123164706Y-82174237D01*
X123265978Y-82247815D01*
X123394375Y-82313237D01*
X123462393Y-82347895D01*
X123462396Y-82347896D01*
X123525472Y-82368390D01*
X123672049Y-82416015D01*
X123889778Y-82450500D01*
X123889779Y-82450500D01*
X124110221Y-82450500D01*
X124110222Y-82450500D01*
X124327951Y-82416015D01*
X124537606Y-82347895D01*
X124734022Y-82247815D01*
X124912365Y-82118242D01*
X125068242Y-81962365D01*
X125197815Y-81784022D01*
X125297895Y-81587606D01*
X125366015Y-81377951D01*
X125400500Y-81160222D01*
X125400500Y-80939778D01*
X125379084Y-80804566D01*
X125388038Y-80735276D01*
X125413873Y-80697493D01*
X127405397Y-78705969D01*
X127466718Y-78672486D01*
X127536410Y-78677470D01*
X127549366Y-78683165D01*
X127594125Y-78705971D01*
X127690774Y-78755217D01*
X127690777Y-78755217D01*
X127690781Y-78755220D01*
X127825245Y-78798910D01*
X127885465Y-78818477D01*
X127986557Y-78834488D01*
X128087648Y-78850500D01*
X128087649Y-78850500D01*
X128292351Y-78850500D01*
X128292352Y-78850500D01*
X128494534Y-78818477D01*
X128689219Y-78755220D01*
X128871610Y-78662287D01*
X128973931Y-78587947D01*
X129037213Y-78541971D01*
X129037215Y-78541968D01*
X129037219Y-78541966D01*
X129181966Y-78397219D01*
X129181968Y-78397215D01*
X129181971Y-78397213D01*
X129234732Y-78324590D01*
X129302287Y-78231610D01*
X129393358Y-78052874D01*
X129395218Y-78049223D01*
X129395218Y-78049222D01*
X129395220Y-78049219D01*
X129458477Y-77854534D01*
X129490500Y-77652352D01*
X129490500Y-77447648D01*
X129458477Y-77245466D01*
X129395220Y-77050781D01*
X129395218Y-77050778D01*
X129395218Y-77050776D01*
X129349531Y-76961112D01*
X129302287Y-76868390D01*
X129294556Y-76857749D01*
X129181971Y-76702786D01*
X129037213Y-76558028D01*
X128871613Y-76437715D01*
X128871612Y-76437714D01*
X128871610Y-76437713D01*
X128814653Y-76408691D01*
X128689223Y-76344781D01*
X128494534Y-76281522D01*
X128319995Y-76253878D01*
X128292352Y-76249500D01*
X128087648Y-76249500D01*
X128063329Y-76253351D01*
X127885465Y-76281522D01*
X127690776Y-76344781D01*
X127508386Y-76437715D01*
X127342786Y-76558028D01*
X127198028Y-76702786D01*
X127077713Y-76868388D01*
X127042445Y-76937605D01*
X127019642Y-76968990D01*
X124352508Y-79636122D01*
X124291185Y-79669607D01*
X124245429Y-79670914D01*
X124110227Y-79649500D01*
X124110222Y-79649500D01*
X123889778Y-79649500D01*
X123817201Y-79660995D01*
X123672047Y-79683985D01*
X123462396Y-79752103D01*
X123462393Y-79752104D01*
X123265974Y-79852187D01*
X123087641Y-79981752D01*
X123087636Y-79981756D01*
X122931756Y-80137636D01*
X122931752Y-80137641D01*
X122802187Y-80315974D01*
X122702104Y-80512393D01*
X122702103Y-80512396D01*
X122633985Y-80722047D01*
X122605251Y-80903469D01*
X122599500Y-80939778D01*
X118000000Y-80939778D01*
X118000000Y-73943713D01*
X119649500Y-73943713D01*
X119649500Y-74156286D01*
X119682753Y-74366239D01*
X119748444Y-74568414D01*
X119844951Y-74757820D01*
X119969890Y-74929786D01*
X120120213Y-75080109D01*
X120292179Y-75205048D01*
X120292181Y-75205049D01*
X120292184Y-75205051D01*
X120481588Y-75301557D01*
X120683757Y-75367246D01*
X120893713Y-75400500D01*
X120893714Y-75400500D01*
X121106286Y-75400500D01*
X121106287Y-75400500D01*
X121316243Y-75367246D01*
X121518412Y-75301557D01*
X121707816Y-75205051D01*
X121773290Y-75157482D01*
X121879786Y-75080109D01*
X121879788Y-75080106D01*
X121879792Y-75080104D01*
X122030104Y-74929792D01*
X122030106Y-74929788D01*
X122030109Y-74929786D01*
X122155048Y-74757820D01*
X122155047Y-74757820D01*
X122155051Y-74757816D01*
X122251557Y-74568412D01*
X122317246Y-74366243D01*
X122350500Y-74156287D01*
X122350500Y-73943713D01*
X122317246Y-73733757D01*
X122251557Y-73531588D01*
X122155051Y-73342184D01*
X122155049Y-73342181D01*
X122155048Y-73342179D01*
X122030109Y-73170213D01*
X121879786Y-73019890D01*
X121707820Y-72894951D01*
X121518414Y-72798444D01*
X121518413Y-72798443D01*
X121518412Y-72798443D01*
X121316243Y-72732754D01*
X121316241Y-72732753D01*
X121316240Y-72732753D01*
X121154957Y-72707208D01*
X121106287Y-72699500D01*
X120893713Y-72699500D01*
X120845042Y-72707208D01*
X120683760Y-72732753D01*
X120481585Y-72798444D01*
X120292179Y-72894951D01*
X120120213Y-73019890D01*
X119969890Y-73170213D01*
X119844951Y-73342179D01*
X119748444Y-73531585D01*
X119682753Y-73733760D01*
X119649500Y-73943713D01*
X118000000Y-73943713D01*
X118000000Y-72002135D01*
X144189500Y-72002135D01*
X144189500Y-75097870D01*
X144189501Y-75097876D01*
X144195908Y-75157483D01*
X144246202Y-75292328D01*
X144246206Y-75292335D01*
X144332452Y-75407544D01*
X144332455Y-75407547D01*
X144447664Y-75493793D01*
X144447671Y-75493797D01*
X144582517Y-75544091D01*
X144582516Y-75544091D01*
X144589444Y-75544835D01*
X144642127Y-75550500D01*
X147737872Y-75550499D01*
X147797483Y-75544091D01*
X147932331Y-75493796D01*
X148047546Y-75407546D01*
X148133796Y-75292331D01*
X148184091Y-75157483D01*
X148190500Y-75097873D01*
X148190500Y-74674500D01*
X148210185Y-74607461D01*
X148262989Y-74561706D01*
X148314500Y-74550500D01*
X151758780Y-74550500D01*
X151825819Y-74570185D01*
X151846461Y-74586819D01*
X157095504Y-79835862D01*
X157128989Y-79897185D01*
X157131823Y-79923543D01*
X157131823Y-80877111D01*
X157112138Y-80944150D01*
X157095504Y-80964792D01*
X156987808Y-81072487D01*
X156987808Y-81072488D01*
X156987806Y-81072490D01*
X156933526Y-81147200D01*
X156848980Y-81263566D01*
X156741756Y-81474003D01*
X156668769Y-81698631D01*
X156631823Y-81931902D01*
X156631823Y-82168097D01*
X156668769Y-82401368D01*
X156741756Y-82625996D01*
X156780207Y-82701459D01*
X156848980Y-82836433D01*
X156987806Y-83027510D01*
X157154813Y-83194517D01*
X157345890Y-83333343D01*
X157445314Y-83384002D01*
X157556326Y-83440566D01*
X157556328Y-83440566D01*
X157556331Y-83440568D01*
X157640367Y-83467873D01*
X157780954Y-83513553D01*
X158014226Y-83550500D01*
X158014231Y-83550500D01*
X158250420Y-83550500D01*
X158483691Y-83513553D01*
X158708315Y-83440568D01*
X158918756Y-83333343D01*
X159109833Y-83194517D01*
X159276840Y-83027510D01*
X159415666Y-82836433D01*
X159522891Y-82625992D01*
X159595876Y-82401368D01*
X159606512Y-82334217D01*
X159632823Y-82168097D01*
X159632823Y-81931902D01*
X159595876Y-81698631D01*
X159522889Y-81474003D01*
X159466325Y-81362991D01*
X159415666Y-81263567D01*
X159276840Y-81072490D01*
X159169142Y-80964792D01*
X159135657Y-80903469D01*
X159132823Y-80877111D01*
X159132823Y-79312229D01*
X159094375Y-79118943D01*
X159094374Y-79118942D01*
X159094374Y-79118938D01*
X159094372Y-79118933D01*
X159018958Y-78936865D01*
X159018951Y-78936852D01*
X158909462Y-78772991D01*
X158909459Y-78772987D01*
X158770108Y-78633636D01*
X158770104Y-78633633D01*
X158638651Y-78545799D01*
X158619861Y-78530378D01*
X156371005Y-76281522D01*
X154033195Y-73943713D01*
X156649500Y-73943713D01*
X156649500Y-74156286D01*
X156682753Y-74366239D01*
X156748444Y-74568414D01*
X156844951Y-74757820D01*
X156969890Y-74929786D01*
X157120213Y-75080109D01*
X157292179Y-75205048D01*
X157292181Y-75205049D01*
X157292184Y-75205051D01*
X157481588Y-75301557D01*
X157683757Y-75367246D01*
X157893713Y-75400500D01*
X157893714Y-75400500D01*
X158106286Y-75400500D01*
X158106287Y-75400500D01*
X158316243Y-75367246D01*
X158518412Y-75301557D01*
X158707816Y-75205051D01*
X158773290Y-75157482D01*
X158879786Y-75080109D01*
X158879788Y-75080106D01*
X158879792Y-75080104D01*
X159030104Y-74929792D01*
X159030106Y-74929788D01*
X159030109Y-74929786D01*
X159155048Y-74757820D01*
X159155047Y-74757820D01*
X159155051Y-74757816D01*
X159251557Y-74568412D01*
X159317246Y-74366243D01*
X159350500Y-74156287D01*
X159350500Y-73943713D01*
X159317246Y-73733757D01*
X159251557Y-73531588D01*
X159155051Y-73342184D01*
X159155049Y-73342181D01*
X159155048Y-73342179D01*
X159030109Y-73170213D01*
X158879786Y-73019890D01*
X158707820Y-72894951D01*
X158518414Y-72798444D01*
X158518413Y-72798443D01*
X158518412Y-72798443D01*
X158316243Y-72732754D01*
X158316241Y-72732753D01*
X158316240Y-72732753D01*
X158154957Y-72707208D01*
X158106287Y-72699500D01*
X157893713Y-72699500D01*
X157845042Y-72707208D01*
X157683760Y-72732753D01*
X157481585Y-72798444D01*
X157292179Y-72894951D01*
X157120213Y-73019890D01*
X156969890Y-73170213D01*
X156844951Y-73342179D01*
X156748444Y-73531585D01*
X156682753Y-73733760D01*
X156649500Y-73943713D01*
X154033195Y-73943713D01*
X153008770Y-72919288D01*
X153008768Y-72919285D01*
X153008768Y-72919286D01*
X153001701Y-72912219D01*
X153001701Y-72912218D01*
X152862344Y-72772861D01*
X152862343Y-72772860D01*
X152862342Y-72772859D01*
X152698482Y-72663371D01*
X152698473Y-72663366D01*
X152625877Y-72633296D01*
X152569727Y-72610038D01*
X152516398Y-72587949D01*
X152516394Y-72587948D01*
X152516390Y-72587946D01*
X152419750Y-72568724D01*
X152323106Y-72549500D01*
X152323103Y-72549500D01*
X148314499Y-72549500D01*
X148247460Y-72529815D01*
X148201705Y-72477011D01*
X148190499Y-72425500D01*
X148190499Y-72002129D01*
X148190498Y-72002123D01*
X148190497Y-72002116D01*
X148184091Y-71942517D01*
X148133796Y-71807669D01*
X148133795Y-71807668D01*
X148133793Y-71807664D01*
X148047547Y-71692455D01*
X148047544Y-71692452D01*
X147932335Y-71606206D01*
X147932328Y-71606202D01*
X147797482Y-71555908D01*
X147797483Y-71555908D01*
X147737883Y-71549501D01*
X147737881Y-71549500D01*
X147737873Y-71549500D01*
X147737864Y-71549500D01*
X144642129Y-71549500D01*
X144642123Y-71549501D01*
X144582516Y-71555908D01*
X144447671Y-71606202D01*
X144447664Y-71606206D01*
X144332455Y-71692452D01*
X144332452Y-71692455D01*
X144246206Y-71807664D01*
X144246202Y-71807671D01*
X144195908Y-71942517D01*
X144189501Y-72002116D01*
X144189501Y-72002123D01*
X144189500Y-72002135D01*
X118000000Y-72002135D01*
X118000000Y-71124000D01*
X118019685Y-71056961D01*
X118072489Y-71011206D01*
X118124000Y-71000000D01*
X160375500Y-71000000D01*
X160442539Y-71019685D01*
G37*
%TD.AperFunction*%
%TD*%
%TA.AperFunction,Conductor*%
%TO.N,GND*%
G36*
X98295468Y-29520185D02*
G01*
X98341223Y-29572989D01*
X98351167Y-29642147D01*
X98327695Y-29698811D01*
X98246206Y-29807664D01*
X98246202Y-29807671D01*
X98195908Y-29942517D01*
X98189501Y-30002116D01*
X98189501Y-30002123D01*
X98189500Y-30002135D01*
X98189500Y-33097870D01*
X98189501Y-33097876D01*
X98195908Y-33157483D01*
X98246202Y-33292328D01*
X98246206Y-33292335D01*
X98332452Y-33407544D01*
X98332455Y-33407547D01*
X98447664Y-33493793D01*
X98447671Y-33493797D01*
X98582517Y-33544091D01*
X98582516Y-33544091D01*
X98589444Y-33544835D01*
X98642127Y-33550500D01*
X101737872Y-33550499D01*
X101797483Y-33544091D01*
X101932331Y-33493796D01*
X102047546Y-33407546D01*
X102133796Y-33292331D01*
X102184091Y-33157483D01*
X102190500Y-33097873D01*
X102190500Y-32674500D01*
X102210185Y-32607461D01*
X102262989Y-32561706D01*
X102314500Y-32550500D01*
X105758780Y-32550500D01*
X105825819Y-32570185D01*
X105846461Y-32586819D01*
X111095504Y-37835862D01*
X111128989Y-37897185D01*
X111131823Y-37923543D01*
X111131823Y-38877111D01*
X111112138Y-38944150D01*
X111095504Y-38964792D01*
X110987808Y-39072487D01*
X110987808Y-39072488D01*
X110987806Y-39072490D01*
X110933526Y-39147200D01*
X110848980Y-39263566D01*
X110741756Y-39474003D01*
X110668769Y-39698631D01*
X110631823Y-39931902D01*
X110631823Y-40168097D01*
X110668769Y-40401368D01*
X110741756Y-40625996D01*
X110780207Y-40701459D01*
X110848980Y-40836433D01*
X110987806Y-41027510D01*
X111154813Y-41194517D01*
X111345890Y-41333343D01*
X111445314Y-41384002D01*
X111556326Y-41440566D01*
X111556328Y-41440566D01*
X111556331Y-41440568D01*
X111640367Y-41467873D01*
X111780954Y-41513553D01*
X112014226Y-41550500D01*
X112014231Y-41550500D01*
X112250420Y-41550500D01*
X112483691Y-41513553D01*
X112708315Y-41440568D01*
X112918756Y-41333343D01*
X113109833Y-41194517D01*
X113276840Y-41027510D01*
X113415666Y-40836433D01*
X113522891Y-40625992D01*
X113595876Y-40401368D01*
X113606512Y-40334217D01*
X113632823Y-40168097D01*
X113632823Y-39931902D01*
X113595876Y-39698631D01*
X113522889Y-39474003D01*
X113466325Y-39362991D01*
X113415666Y-39263567D01*
X113276840Y-39072490D01*
X113169142Y-38964792D01*
X113135657Y-38903469D01*
X113132823Y-38877111D01*
X113132823Y-37312229D01*
X113094375Y-37118943D01*
X113094374Y-37118942D01*
X113094374Y-37118938D01*
X113094372Y-37118933D01*
X113018958Y-36936865D01*
X113018951Y-36936852D01*
X112909462Y-36772991D01*
X112909459Y-36772987D01*
X112770108Y-36633636D01*
X112770104Y-36633633D01*
X112638651Y-36545799D01*
X112619861Y-36530378D01*
X110371005Y-34281522D01*
X108033195Y-31943713D01*
X110649500Y-31943713D01*
X110649500Y-32156286D01*
X110682753Y-32366239D01*
X110748444Y-32568414D01*
X110844951Y-32757820D01*
X110969890Y-32929786D01*
X111120213Y-33080109D01*
X111292179Y-33205048D01*
X111292181Y-33205049D01*
X111292184Y-33205051D01*
X111481588Y-33301557D01*
X111683757Y-33367246D01*
X111893713Y-33400500D01*
X111893714Y-33400500D01*
X112106286Y-33400500D01*
X112106287Y-33400500D01*
X112316243Y-33367246D01*
X112518412Y-33301557D01*
X112707816Y-33205051D01*
X112773290Y-33157482D01*
X112879786Y-33080109D01*
X112879788Y-33080106D01*
X112879792Y-33080104D01*
X113030104Y-32929792D01*
X113030106Y-32929788D01*
X113030109Y-32929786D01*
X113155048Y-32757820D01*
X113155047Y-32757820D01*
X113155051Y-32757816D01*
X113251557Y-32568412D01*
X113317246Y-32366243D01*
X113350500Y-32156287D01*
X113350500Y-31943713D01*
X113317246Y-31733757D01*
X113251557Y-31531588D01*
X113155051Y-31342184D01*
X113155049Y-31342181D01*
X113155048Y-31342179D01*
X113030109Y-31170213D01*
X112879786Y-31019890D01*
X112707820Y-30894951D01*
X112518414Y-30798444D01*
X112518413Y-30798443D01*
X112518412Y-30798443D01*
X112316243Y-30732754D01*
X112316241Y-30732753D01*
X112316240Y-30732753D01*
X112154957Y-30707208D01*
X112106287Y-30699500D01*
X111893713Y-30699500D01*
X111845042Y-30707208D01*
X111683760Y-30732753D01*
X111481585Y-30798444D01*
X111292179Y-30894951D01*
X111120213Y-31019890D01*
X110969890Y-31170213D01*
X110844951Y-31342179D01*
X110748444Y-31531585D01*
X110682753Y-31733760D01*
X110649500Y-31943713D01*
X108033195Y-31943713D01*
X107008770Y-30919288D01*
X107008768Y-30919285D01*
X107008768Y-30919286D01*
X107001701Y-30912219D01*
X107001701Y-30912218D01*
X106862344Y-30772861D01*
X106862343Y-30772860D01*
X106862342Y-30772859D01*
X106698482Y-30663371D01*
X106698473Y-30663366D01*
X106625877Y-30633296D01*
X106569727Y-30610038D01*
X106516398Y-30587949D01*
X106516394Y-30587948D01*
X106516390Y-30587946D01*
X106419750Y-30568724D01*
X106323106Y-30549500D01*
X106323103Y-30549500D01*
X102314499Y-30549500D01*
X102247460Y-30529815D01*
X102201705Y-30477011D01*
X102190499Y-30425500D01*
X102190499Y-30002129D01*
X102190498Y-30002123D01*
X102190497Y-30002116D01*
X102184091Y-29942517D01*
X102133796Y-29807669D01*
X102133795Y-29807668D01*
X102133793Y-29807664D01*
X102052305Y-29698811D01*
X102027887Y-29633347D01*
X102042738Y-29565074D01*
X102092143Y-29515668D01*
X102151571Y-29500500D01*
X114876000Y-29500500D01*
X114943039Y-29520185D01*
X114988794Y-29572989D01*
X115000000Y-29624500D01*
X115000000Y-67876000D01*
X114980315Y-67943039D01*
X114927511Y-67988794D01*
X114876000Y-68000000D01*
X104870730Y-68000000D01*
X104803691Y-67980315D01*
X104757936Y-67927511D01*
X104747992Y-67858353D01*
X104777017Y-67794797D01*
X104783049Y-67788319D01*
X104984549Y-67586818D01*
X105045872Y-67553333D01*
X105072230Y-67550499D01*
X107507871Y-67550499D01*
X107507872Y-67550499D01*
X107567483Y-67544091D01*
X107702331Y-67493796D01*
X107817546Y-67407546D01*
X107903796Y-67292331D01*
X107954091Y-67157483D01*
X107960500Y-67097873D01*
X107960499Y-64002128D01*
X107954091Y-63942517D01*
X107941235Y-63908049D01*
X107903797Y-63807671D01*
X107903793Y-63807664D01*
X107817547Y-63692455D01*
X107817544Y-63692452D01*
X107702335Y-63606206D01*
X107702328Y-63606202D01*
X107567482Y-63555908D01*
X107567483Y-63555908D01*
X107507883Y-63549501D01*
X107507881Y-63549500D01*
X107507873Y-63549500D01*
X107507864Y-63549500D01*
X104412129Y-63549500D01*
X104412123Y-63549501D01*
X104352516Y-63555908D01*
X104217671Y-63606202D01*
X104217664Y-63606206D01*
X104102455Y-63692452D01*
X104102452Y-63692455D01*
X104016206Y-63807664D01*
X104016202Y-63807671D01*
X103965908Y-63942517D01*
X103959501Y-64002116D01*
X103959500Y-64002127D01*
X103959500Y-65190516D01*
X103959501Y-66346500D01*
X103939816Y-66413539D01*
X103887013Y-66459294D01*
X103835501Y-66470500D01*
X94458910Y-66470500D01*
X94391871Y-66450815D01*
X94346116Y-66398011D01*
X94336172Y-66328853D01*
X94360534Y-66271014D01*
X94375300Y-66251768D01*
X94391950Y-66230071D01*
X94501440Y-66040428D01*
X94585241Y-65838117D01*
X94641917Y-65626598D01*
X94670500Y-65409490D01*
X94670500Y-65190510D01*
X94641917Y-64973402D01*
X94585241Y-64761883D01*
X94501440Y-64559572D01*
X94500591Y-64558102D01*
X94391950Y-64369929D01*
X94258644Y-64196201D01*
X94258638Y-64196194D01*
X94103805Y-64041361D01*
X94103798Y-64041355D01*
X93930070Y-63908049D01*
X93812500Y-63840170D01*
X93764284Y-63789603D01*
X93750500Y-63732783D01*
X93750500Y-63412229D01*
X93770185Y-63345190D01*
X93786819Y-63324548D01*
X98667654Y-58443713D01*
X110649500Y-58443713D01*
X110649500Y-58656286D01*
X110682753Y-58866239D01*
X110748444Y-59068414D01*
X110844951Y-59257820D01*
X110969890Y-59429786D01*
X111120213Y-59580109D01*
X111292179Y-59705048D01*
X111292181Y-59705049D01*
X111292184Y-59705051D01*
X111481588Y-59801557D01*
X111683757Y-59867246D01*
X111893713Y-59900500D01*
X111893714Y-59900500D01*
X112106286Y-59900500D01*
X112106287Y-59900500D01*
X112316243Y-59867246D01*
X112518412Y-59801557D01*
X112707816Y-59705051D01*
X112729789Y-59689086D01*
X112879786Y-59580109D01*
X112879788Y-59580106D01*
X112879792Y-59580104D01*
X113030104Y-59429792D01*
X113030106Y-59429788D01*
X113030109Y-59429786D01*
X113155048Y-59257820D01*
X113155047Y-59257820D01*
X113155051Y-59257816D01*
X113251557Y-59068412D01*
X113317246Y-58866243D01*
X113350500Y-58656287D01*
X113350500Y-58443713D01*
X113317246Y-58233757D01*
X113251557Y-58031588D01*
X113155051Y-57842184D01*
X113155049Y-57842181D01*
X113155048Y-57842179D01*
X113030109Y-57670213D01*
X112879786Y-57519890D01*
X112707820Y-57394951D01*
X112518414Y-57298444D01*
X112518413Y-57298443D01*
X112518412Y-57298443D01*
X112316243Y-57232754D01*
X112316241Y-57232753D01*
X112316240Y-57232753D01*
X112154957Y-57207208D01*
X112106287Y-57199500D01*
X111893713Y-57199500D01*
X111845042Y-57207208D01*
X111683760Y-57232753D01*
X111481585Y-57298444D01*
X111292179Y-57394951D01*
X111120213Y-57519890D01*
X110969890Y-57670213D01*
X110844951Y-57842179D01*
X110748444Y-58031585D01*
X110682753Y-58233760D01*
X110649500Y-58443713D01*
X98667654Y-58443713D01*
X98760207Y-58351160D01*
X98877610Y-58233757D01*
X99082952Y-58028415D01*
X99110205Y-57987627D01*
X99165084Y-57905495D01*
X99191308Y-57842184D01*
X99221659Y-57768912D01*
X99250500Y-57623917D01*
X99250500Y-57476082D01*
X99250500Y-57175416D01*
X99270185Y-57108377D01*
X99301613Y-57075099D01*
X99347219Y-57041966D01*
X99491966Y-56897219D01*
X99491968Y-56897215D01*
X99491971Y-56897213D01*
X99562236Y-56800500D01*
X99612287Y-56731610D01*
X99705220Y-56549219D01*
X99768477Y-56354534D01*
X99800500Y-56152352D01*
X99800500Y-55947648D01*
X99768477Y-55745466D01*
X99705220Y-55550781D01*
X99705218Y-55550778D01*
X99705218Y-55550776D01*
X99638244Y-55419334D01*
X99612287Y-55368390D01*
X99557008Y-55292304D01*
X99491971Y-55202786D01*
X99347213Y-55058028D01*
X99181613Y-54937715D01*
X99181612Y-54937714D01*
X99181610Y-54937713D01*
X99124653Y-54908691D01*
X98999223Y-54844781D01*
X98804534Y-54781522D01*
X98629995Y-54753878D01*
X98602352Y-54749500D01*
X98397648Y-54749500D01*
X98373329Y-54753351D01*
X98195465Y-54781522D01*
X98000776Y-54844781D01*
X97818386Y-54937715D01*
X97652786Y-55058028D01*
X97508028Y-55202786D01*
X97387715Y-55368386D01*
X97294781Y-55550776D01*
X97231522Y-55745465D01*
X97199500Y-55947648D01*
X97199500Y-56152351D01*
X97231522Y-56354534D01*
X97294781Y-56549223D01*
X97387715Y-56731613D01*
X97508028Y-56897213D01*
X97508034Y-56897219D01*
X97652781Y-57041966D01*
X97698384Y-57075098D01*
X97701724Y-57079429D01*
X97706703Y-57081703D01*
X97722832Y-57106801D01*
X97741050Y-57130425D01*
X97742303Y-57137098D01*
X97744477Y-57140481D01*
X97749500Y-57175416D01*
X97749500Y-57187769D01*
X97729815Y-57254808D01*
X97713181Y-57275450D01*
X92417050Y-62571580D01*
X92417044Y-62571588D01*
X92367812Y-62645268D01*
X92367813Y-62645269D01*
X92334921Y-62694496D01*
X92334916Y-62694506D01*
X92278342Y-62831086D01*
X92278340Y-62831092D01*
X92249500Y-62976079D01*
X92249500Y-63732783D01*
X92229815Y-63799822D01*
X92187500Y-63840170D01*
X92069929Y-63908049D01*
X91896201Y-64041355D01*
X91896194Y-64041361D01*
X91741361Y-64196194D01*
X91741355Y-64196201D01*
X91608049Y-64369929D01*
X91498565Y-64559561D01*
X91498560Y-64559573D01*
X91414758Y-64761884D01*
X91358084Y-64973399D01*
X91358082Y-64973410D01*
X91329500Y-65190502D01*
X91329500Y-65409497D01*
X91353306Y-65590314D01*
X91358083Y-65626598D01*
X91386421Y-65732357D01*
X91404180Y-65798638D01*
X91414759Y-65838117D01*
X91498560Y-66040428D01*
X91498562Y-66040433D01*
X91498565Y-66040438D01*
X91608049Y-66230070D01*
X91639466Y-66271014D01*
X91664660Y-66336184D01*
X91650621Y-66404628D01*
X91601807Y-66454618D01*
X91541090Y-66470500D01*
X90383229Y-66470500D01*
X90316190Y-66450815D01*
X90295548Y-66434181D01*
X89660006Y-65798638D01*
X89626521Y-65737315D01*
X89627912Y-65678863D01*
X89641916Y-65626600D01*
X89641917Y-65626598D01*
X89670500Y-65409490D01*
X89670500Y-65190510D01*
X89641917Y-64973402D01*
X89585241Y-64761883D01*
X89501440Y-64559572D01*
X89500591Y-64558102D01*
X89391950Y-64369929D01*
X89258644Y-64196201D01*
X89258638Y-64196194D01*
X89103805Y-64041361D01*
X89103798Y-64041355D01*
X88930070Y-63908049D01*
X88740438Y-63798565D01*
X88740433Y-63798562D01*
X88740428Y-63798560D01*
X88538117Y-63714759D01*
X88538118Y-63714759D01*
X88538115Y-63714758D01*
X88432357Y-63686421D01*
X88326598Y-63658083D01*
X88290314Y-63653306D01*
X88109497Y-63629500D01*
X88109490Y-63629500D01*
X87890510Y-63629500D01*
X87890502Y-63629500D01*
X87683853Y-63656707D01*
X87673402Y-63658083D01*
X87628699Y-63670060D01*
X87461884Y-63714758D01*
X87343374Y-63763847D01*
X87259572Y-63798560D01*
X87259569Y-63798561D01*
X87259561Y-63798565D01*
X87069929Y-63908049D01*
X86896201Y-64041355D01*
X86896194Y-64041361D01*
X86741361Y-64196194D01*
X86741355Y-64196201D01*
X86608049Y-64369929D01*
X86498565Y-64559561D01*
X86498560Y-64559573D01*
X86414758Y-64761884D01*
X86358084Y-64973399D01*
X86358082Y-64973410D01*
X86329500Y-65190502D01*
X86329500Y-65409497D01*
X86353306Y-65590314D01*
X86358083Y-65626598D01*
X86386421Y-65732357D01*
X86404180Y-65798638D01*
X86414759Y-65838117D01*
X86498560Y-66040428D01*
X86498562Y-66040433D01*
X86498565Y-66040438D01*
X86608049Y-66230070D01*
X86741355Y-66403798D01*
X86741361Y-66403805D01*
X86896194Y-66558638D01*
X86896201Y-66558644D01*
X87069929Y-66691950D01*
X87259561Y-66801434D01*
X87259563Y-66801434D01*
X87259572Y-66801440D01*
X87461883Y-66885241D01*
X87673402Y-66941917D01*
X87890510Y-66970500D01*
X87890517Y-66970500D01*
X88109483Y-66970500D01*
X88109490Y-66970500D01*
X88326598Y-66941917D01*
X88536601Y-66885647D01*
X88606448Y-66887310D01*
X88656373Y-66917741D01*
X89146177Y-67407544D01*
X89438049Y-67699416D01*
X89526952Y-67788319D01*
X89560436Y-67849643D01*
X89555452Y-67919334D01*
X89513580Y-67975268D01*
X89448115Y-67999684D01*
X89439270Y-68000000D01*
X72624500Y-68000000D01*
X72557461Y-67980315D01*
X72511706Y-67927511D01*
X72500500Y-67876000D01*
X72500500Y-64002135D01*
X73419500Y-64002135D01*
X73419500Y-67097870D01*
X73419501Y-67097876D01*
X73425908Y-67157483D01*
X73476202Y-67292328D01*
X73476206Y-67292335D01*
X73562452Y-67407544D01*
X73562455Y-67407547D01*
X73677664Y-67493793D01*
X73677671Y-67493797D01*
X73812517Y-67544091D01*
X73812516Y-67544091D01*
X73819444Y-67544835D01*
X73872127Y-67550500D01*
X76967872Y-67550499D01*
X77027483Y-67544091D01*
X77162331Y-67493796D01*
X77277546Y-67407546D01*
X77363796Y-67292331D01*
X77414091Y-67157483D01*
X77420500Y-67097873D01*
X77420499Y-64645782D01*
X77440184Y-64578744D01*
X77456818Y-64558102D01*
X78356837Y-63658084D01*
X79277140Y-62737781D01*
X79306056Y-62694505D01*
X79386632Y-62573914D01*
X79462051Y-62391835D01*
X79500500Y-62198541D01*
X79500500Y-53447648D01*
X88199500Y-53447648D01*
X88199500Y-53652351D01*
X88231522Y-53854534D01*
X88294781Y-54049223D01*
X88387715Y-54231613D01*
X88508028Y-54397213D01*
X88652786Y-54541971D01*
X88807749Y-54654556D01*
X88818390Y-54662287D01*
X88934607Y-54721503D01*
X89000776Y-54755218D01*
X89000778Y-54755218D01*
X89000781Y-54755220D01*
X89105137Y-54789127D01*
X89195465Y-54818477D01*
X89279564Y-54831797D01*
X89397648Y-54850500D01*
X89397649Y-54850500D01*
X89602350Y-54850500D01*
X89602352Y-54850500D01*
X89658026Y-54841681D01*
X89727318Y-54850635D01*
X89765105Y-54876473D01*
X91521586Y-56632954D01*
X91551058Y-56652645D01*
X91595270Y-56682186D01*
X91644505Y-56715084D01*
X91644506Y-56715084D01*
X91644507Y-56715085D01*
X91644509Y-56715086D01*
X91781082Y-56771656D01*
X91781087Y-56771658D01*
X91781091Y-56771658D01*
X91781092Y-56771659D01*
X91926079Y-56800500D01*
X91926082Y-56800500D01*
X91926083Y-56800500D01*
X92073917Y-56800500D01*
X92374582Y-56800500D01*
X92441621Y-56820185D01*
X92474900Y-56851615D01*
X92508028Y-56897212D01*
X92508032Y-56897217D01*
X92652786Y-57041971D01*
X92774535Y-57130425D01*
X92818390Y-57162287D01*
X92891425Y-57199500D01*
X93000776Y-57255218D01*
X93000778Y-57255218D01*
X93000781Y-57255220D01*
X93063043Y-57275450D01*
X93195465Y-57318477D01*
X93296557Y-57334488D01*
X93397648Y-57350500D01*
X93397649Y-57350500D01*
X93602351Y-57350500D01*
X93602352Y-57350500D01*
X93804534Y-57318477D01*
X93999219Y-57255220D01*
X94181610Y-57162287D01*
X94301619Y-57075096D01*
X94347213Y-57041971D01*
X94347215Y-57041968D01*
X94347219Y-57041966D01*
X94491966Y-56897219D01*
X94491968Y-56897215D01*
X94491971Y-56897213D01*
X94562236Y-56800500D01*
X94612287Y-56731610D01*
X94705220Y-56549219D01*
X94768477Y-56354534D01*
X94800500Y-56152352D01*
X94800500Y-55947648D01*
X94768477Y-55745466D01*
X94705220Y-55550781D01*
X94705218Y-55550778D01*
X94705218Y-55550776D01*
X94638244Y-55419334D01*
X94612287Y-55368390D01*
X94557008Y-55292304D01*
X94491971Y-55202786D01*
X94347213Y-55058028D01*
X94181613Y-54937715D01*
X94181612Y-54937714D01*
X94181610Y-54937713D01*
X94124653Y-54908691D01*
X93999223Y-54844781D01*
X93804534Y-54781522D01*
X93629995Y-54753878D01*
X93602352Y-54749500D01*
X93397648Y-54749500D01*
X93373329Y-54753351D01*
X93195465Y-54781522D01*
X93000776Y-54844781D01*
X92818386Y-54937715D01*
X92652786Y-55058028D01*
X92508032Y-55202782D01*
X92508028Y-55202787D01*
X92474900Y-55248385D01*
X92470568Y-55251725D01*
X92468295Y-55256703D01*
X92443195Y-55272833D01*
X92419571Y-55291051D01*
X92412897Y-55292304D01*
X92409517Y-55294477D01*
X92374582Y-55299500D01*
X92362230Y-55299500D01*
X92295191Y-55279815D01*
X92274549Y-55263181D01*
X90826473Y-53815105D01*
X90792988Y-53753782D01*
X90791681Y-53708027D01*
X90800500Y-53652352D01*
X90800500Y-53447648D01*
X90779520Y-53315186D01*
X90768477Y-53245465D01*
X90739127Y-53155137D01*
X90705220Y-53050781D01*
X90705218Y-53050778D01*
X90705218Y-53050776D01*
X90649720Y-52941857D01*
X90612287Y-52868390D01*
X90576355Y-52818933D01*
X90491971Y-52702786D01*
X90347213Y-52558028D01*
X90181613Y-52437715D01*
X90181612Y-52437714D01*
X90181610Y-52437713D01*
X90124653Y-52408691D01*
X89999223Y-52344781D01*
X89804534Y-52281522D01*
X89629995Y-52253878D01*
X89602352Y-52249500D01*
X89397648Y-52249500D01*
X89373329Y-52253351D01*
X89195465Y-52281522D01*
X89000776Y-52344781D01*
X88818386Y-52437715D01*
X88652786Y-52558028D01*
X88508028Y-52702786D01*
X88387715Y-52868386D01*
X88294781Y-53050776D01*
X88231522Y-53245465D01*
X88199500Y-53447648D01*
X79500500Y-53447648D01*
X79500500Y-52162230D01*
X79520185Y-52095191D01*
X79536819Y-52074549D01*
X79546288Y-52065080D01*
X79642712Y-51968656D01*
X79734814Y-51819334D01*
X79789999Y-51652797D01*
X79800500Y-51550009D01*
X79800499Y-50349992D01*
X79789999Y-50247203D01*
X79734814Y-50080666D01*
X79642712Y-49931344D01*
X79536818Y-49825450D01*
X79503334Y-49764127D01*
X79500500Y-49737769D01*
X79500500Y-48415782D01*
X79520185Y-48348743D01*
X79536819Y-48328101D01*
X83403102Y-44461819D01*
X83464425Y-44428334D01*
X83490783Y-44425500D01*
X87723542Y-44425500D01*
X87754566Y-44419328D01*
X87820188Y-44406275D01*
X87916836Y-44387051D01*
X87970165Y-44364961D01*
X88098914Y-44311632D01*
X88262782Y-44202139D01*
X88402139Y-44062782D01*
X88402140Y-44062779D01*
X88409206Y-44055714D01*
X88409209Y-44055710D01*
X90088203Y-42376715D01*
X90149524Y-42343232D01*
X90156473Y-42341927D01*
X90304534Y-42318477D01*
X90499219Y-42255220D01*
X90681610Y-42162287D01*
X90774590Y-42094732D01*
X90847213Y-42041971D01*
X90847215Y-42041968D01*
X90847219Y-42041966D01*
X90991966Y-41897219D01*
X90991968Y-41897215D01*
X90991971Y-41897213D01*
X91044732Y-41824590D01*
X91112287Y-41731610D01*
X91205220Y-41549219D01*
X91258194Y-41386182D01*
X91297632Y-41328506D01*
X91361990Y-41301308D01*
X91376125Y-41300500D01*
X92577769Y-41300500D01*
X92644808Y-41320185D01*
X92665450Y-41336818D01*
X92771344Y-41442712D01*
X92920666Y-41534814D01*
X93002570Y-41561954D01*
X93060015Y-41601727D01*
X93086838Y-41666243D01*
X93074523Y-41735018D01*
X93036451Y-41779978D01*
X92942787Y-41848028D01*
X92942782Y-41848032D01*
X92798028Y-41992786D01*
X92677715Y-42158386D01*
X92584781Y-42340776D01*
X92521522Y-42535465D01*
X92489500Y-42737648D01*
X92489500Y-42942351D01*
X92521522Y-43144534D01*
X92584781Y-43339223D01*
X92648691Y-43464653D01*
X92655381Y-43477782D01*
X92677715Y-43521613D01*
X92798028Y-43687213D01*
X92942786Y-43831971D01*
X93097749Y-43944556D01*
X93108390Y-43952287D01*
X93199840Y-43998883D01*
X93201080Y-43999515D01*
X93251876Y-44047490D01*
X93268671Y-44115311D01*
X93246134Y-44181446D01*
X93201080Y-44220485D01*
X93108386Y-44267715D01*
X92942786Y-44388028D01*
X92798028Y-44532786D01*
X92677715Y-44698386D01*
X92584781Y-44880776D01*
X92521522Y-45075465D01*
X92489500Y-45277648D01*
X92489500Y-45482351D01*
X92521522Y-45684534D01*
X92584781Y-45879223D01*
X92614584Y-45937713D01*
X92662805Y-46032352D01*
X92677715Y-46061613D01*
X92798028Y-46227213D01*
X92942786Y-46371971D01*
X93073654Y-46467050D01*
X93108390Y-46492287D01*
X93199840Y-46538883D01*
X93201080Y-46539515D01*
X93251876Y-46587490D01*
X93268671Y-46655311D01*
X93246134Y-46721446D01*
X93201080Y-46760485D01*
X93108386Y-46807715D01*
X92942786Y-46928028D01*
X92798032Y-47072782D01*
X92798028Y-47072787D01*
X92764900Y-47118385D01*
X92709571Y-47161051D01*
X92664582Y-47169500D01*
X91732229Y-47169500D01*
X91665190Y-47149815D01*
X91644548Y-47133181D01*
X90810066Y-46298699D01*
X90776581Y-46237376D01*
X90775274Y-46191620D01*
X90800500Y-46032351D01*
X90800500Y-45827648D01*
X90768477Y-45625465D01*
X90717004Y-45467048D01*
X90705220Y-45430781D01*
X90705218Y-45430778D01*
X90705218Y-45430776D01*
X90641683Y-45306083D01*
X90612287Y-45248390D01*
X90583190Y-45208341D01*
X90491971Y-45082786D01*
X90347213Y-44938028D01*
X90181613Y-44817715D01*
X90181612Y-44817714D01*
X90181610Y-44817713D01*
X90107231Y-44779815D01*
X89999223Y-44724781D01*
X89804534Y-44661522D01*
X89629995Y-44633878D01*
X89602352Y-44629500D01*
X89397648Y-44629500D01*
X89373329Y-44633351D01*
X89195465Y-44661522D01*
X89000776Y-44724781D01*
X88818386Y-44817715D01*
X88652786Y-44938028D01*
X88508032Y-45082782D01*
X88508028Y-45082787D01*
X88474900Y-45128385D01*
X88419571Y-45171051D01*
X88374582Y-45179500D01*
X85566798Y-45179500D01*
X85537964Y-45185234D01*
X85537965Y-45185235D01*
X85421815Y-45208339D01*
X85421805Y-45208342D01*
X85341803Y-45241479D01*
X85341804Y-45241480D01*
X85285228Y-45264915D01*
X85223616Y-45306083D01*
X85162305Y-45347049D01*
X85162300Y-45347053D01*
X85092664Y-45416688D01*
X85073876Y-45432107D01*
X85021585Y-45467047D01*
X85021579Y-45467052D01*
X84765105Y-45723526D01*
X84703782Y-45757011D01*
X84658026Y-45758318D01*
X84602352Y-45749500D01*
X84397648Y-45749500D01*
X84373329Y-45753351D01*
X84195465Y-45781522D01*
X84000776Y-45844781D01*
X83818386Y-45937715D01*
X83652786Y-46058028D01*
X83508028Y-46202786D01*
X83387715Y-46368386D01*
X83294781Y-46550776D01*
X83231522Y-46745465D01*
X83199500Y-46947648D01*
X83199500Y-47152351D01*
X83231522Y-47354534D01*
X83294781Y-47549223D01*
X83387715Y-47731613D01*
X83508028Y-47897213D01*
X83652786Y-48041971D01*
X83807749Y-48154556D01*
X83818390Y-48162287D01*
X83934607Y-48221503D01*
X84000776Y-48255218D01*
X84000778Y-48255218D01*
X84000781Y-48255220D01*
X84105137Y-48289127D01*
X84195465Y-48318477D01*
X84296557Y-48334488D01*
X84397648Y-48350500D01*
X84397649Y-48350500D01*
X84602351Y-48350500D01*
X84602352Y-48350500D01*
X84804534Y-48318477D01*
X84999219Y-48255220D01*
X85181610Y-48162287D01*
X85274590Y-48094732D01*
X85347213Y-48041971D01*
X85347215Y-48041968D01*
X85347219Y-48041966D01*
X85491966Y-47897219D01*
X85491968Y-47897215D01*
X85491971Y-47897213D01*
X85549777Y-47817648D01*
X85612287Y-47731610D01*
X85705220Y-47549219D01*
X85768477Y-47354534D01*
X85800500Y-47152352D01*
X85800500Y-46947648D01*
X85791681Y-46891971D01*
X85792382Y-46886545D01*
X85790470Y-46881418D01*
X85796811Y-46852269D01*
X85800635Y-46822680D01*
X85804468Y-46817073D01*
X85805323Y-46813146D01*
X85826470Y-46784896D01*
X85894550Y-46716817D01*
X85955874Y-46683333D01*
X85982230Y-46680500D01*
X88374582Y-46680500D01*
X88441621Y-46700185D01*
X88474900Y-46731615D01*
X88508028Y-46777212D01*
X88508032Y-46777217D01*
X88652786Y-46921971D01*
X88807749Y-47034556D01*
X88818390Y-47042287D01*
X88878248Y-47072786D01*
X89000776Y-47135218D01*
X89000778Y-47135218D01*
X89000781Y-47135220D01*
X89045700Y-47149815D01*
X89195465Y-47198477D01*
X89296557Y-47214488D01*
X89397648Y-47230500D01*
X89397649Y-47230500D01*
X89567770Y-47230500D01*
X89634809Y-47250185D01*
X89655451Y-47266819D01*
X90891580Y-48502948D01*
X90891584Y-48502951D01*
X91014498Y-48585080D01*
X91014511Y-48585087D01*
X91151082Y-48641656D01*
X91151087Y-48641658D01*
X91151091Y-48641658D01*
X91151092Y-48641659D01*
X91296079Y-48670500D01*
X91296082Y-48670500D01*
X91443917Y-48670500D01*
X92664582Y-48670500D01*
X92731621Y-48690185D01*
X92764900Y-48721615D01*
X92798028Y-48767212D01*
X92798032Y-48767217D01*
X92942786Y-48911971D01*
X93097749Y-49024556D01*
X93108390Y-49032287D01*
X93224607Y-49091503D01*
X93290776Y-49125218D01*
X93290778Y-49125218D01*
X93290781Y-49125220D01*
X93395137Y-49159127D01*
X93485465Y-49188477D01*
X93586557Y-49204488D01*
X93687648Y-49220500D01*
X93687649Y-49220500D01*
X94692351Y-49220500D01*
X94692352Y-49220500D01*
X94894534Y-49188477D01*
X95089219Y-49125220D01*
X95271610Y-49032287D01*
X95364590Y-48964732D01*
X95437213Y-48911971D01*
X95437215Y-48911968D01*
X95437219Y-48911966D01*
X95581966Y-48767219D01*
X95581968Y-48767215D01*
X95581971Y-48767213D01*
X95652236Y-48670500D01*
X95702287Y-48601610D01*
X95795220Y-48419219D01*
X95858477Y-48224534D01*
X95890500Y-48022352D01*
X95890500Y-47817648D01*
X95858477Y-47615466D01*
X95795220Y-47420781D01*
X95795218Y-47420778D01*
X95795218Y-47420776D01*
X95746187Y-47324548D01*
X95702287Y-47238390D01*
X95654678Y-47172861D01*
X95581971Y-47072786D01*
X95437213Y-46928028D01*
X95271614Y-46807715D01*
X95211758Y-46777217D01*
X95178917Y-46760483D01*
X95128123Y-46712511D01*
X95111328Y-46644690D01*
X95133865Y-46578555D01*
X95178917Y-46539516D01*
X95271610Y-46492287D01*
X95306347Y-46467049D01*
X95437213Y-46371971D01*
X95437215Y-46371968D01*
X95437219Y-46371966D01*
X95472366Y-46336819D01*
X95533689Y-46303334D01*
X95560047Y-46300500D01*
X96137770Y-46300500D01*
X96204809Y-46320185D01*
X96225451Y-46336819D01*
X97213181Y-47324548D01*
X97246666Y-47385871D01*
X97249500Y-47412229D01*
X97249500Y-50123918D01*
X97249500Y-50123920D01*
X97249499Y-50123920D01*
X97278340Y-50268907D01*
X97278343Y-50268917D01*
X97334914Y-50405492D01*
X97367812Y-50454727D01*
X97367813Y-50454730D01*
X97417046Y-50528414D01*
X97417052Y-50528421D01*
X98871580Y-51982948D01*
X98871584Y-51982951D01*
X98994498Y-52065080D01*
X98994511Y-52065087D01*
X99088239Y-52103910D01*
X99131087Y-52121658D01*
X99131091Y-52121658D01*
X99131092Y-52121659D01*
X99276079Y-52150500D01*
X99276082Y-52150500D01*
X99423917Y-52150500D01*
X100937770Y-52150500D01*
X101004809Y-52170185D01*
X101025451Y-52186819D01*
X102124625Y-53285992D01*
X102158110Y-53347315D01*
X102153126Y-53417007D01*
X102124626Y-53461353D01*
X102054638Y-53531342D01*
X101962536Y-53680663D01*
X101962535Y-53680666D01*
X101907350Y-53847203D01*
X101907350Y-53847204D01*
X101907349Y-53847204D01*
X101896849Y-53949983D01*
X101896849Y-55150001D01*
X101896850Y-55150018D01*
X101907349Y-55252796D01*
X101907350Y-55252799D01*
X101945652Y-55368386D01*
X101962535Y-55419334D01*
X102054637Y-55568656D01*
X102178693Y-55692712D01*
X102328015Y-55784814D01*
X102494552Y-55839999D01*
X102597340Y-55850500D01*
X103797357Y-55850499D01*
X103900146Y-55839999D01*
X104066683Y-55784814D01*
X104216005Y-55692712D01*
X104340061Y-55568656D01*
X104432163Y-55419334D01*
X104487348Y-55252797D01*
X104497849Y-55150009D01*
X104497848Y-53949992D01*
X104487348Y-53847203D01*
X104432163Y-53680666D01*
X104340061Y-53531344D01*
X104216005Y-53407288D01*
X104066683Y-53315186D01*
X104052229Y-53310396D01*
X104027529Y-53302211D01*
X104017292Y-53295123D01*
X104005175Y-53292260D01*
X103989107Y-53275609D01*
X103970085Y-53262438D01*
X103964131Y-53249725D01*
X103956659Y-53241981D01*
X103944918Y-53208697D01*
X103927962Y-53123453D01*
X103919008Y-53078437D01*
X103876562Y-52975965D01*
X103862433Y-52941854D01*
X103813343Y-52868386D01*
X103780303Y-52818937D01*
X103780302Y-52818936D01*
X103780300Y-52818933D01*
X103675765Y-52714398D01*
X103210867Y-52249500D01*
X101778421Y-50817052D01*
X101778414Y-50817046D01*
X101704729Y-50767812D01*
X101704729Y-50767813D01*
X101655491Y-50734913D01*
X101518917Y-50678343D01*
X101518907Y-50678340D01*
X101373920Y-50649500D01*
X101373918Y-50649500D01*
X99712229Y-50649500D01*
X99645190Y-50629815D01*
X99624548Y-50613181D01*
X98786819Y-49775451D01*
X98753334Y-49714128D01*
X98750500Y-49687770D01*
X98750500Y-46976079D01*
X98721659Y-46831092D01*
X98721658Y-46831091D01*
X98721658Y-46831087D01*
X98699345Y-46777219D01*
X98665087Y-46694511D01*
X98665080Y-46694498D01*
X98582952Y-46571585D01*
X98550882Y-46539515D01*
X98478416Y-46467049D01*
X98202987Y-46191620D01*
X96978421Y-44967052D01*
X96978420Y-44967051D01*
X96978416Y-44967048D01*
X96880440Y-44901584D01*
X96880438Y-44901581D01*
X96855495Y-44884916D01*
X96855490Y-44884913D01*
X96718917Y-44828343D01*
X96718907Y-44828340D01*
X96573920Y-44799500D01*
X96573918Y-44799500D01*
X95829793Y-44799500D01*
X95762754Y-44779815D01*
X95719309Y-44731796D01*
X95702286Y-44698388D01*
X95581971Y-44532786D01*
X95437213Y-44388028D01*
X95271614Y-44267715D01*
X95265006Y-44264348D01*
X95178917Y-44220483D01*
X95128123Y-44172511D01*
X95111328Y-44104690D01*
X95133865Y-44038555D01*
X95178917Y-43999516D01*
X95271610Y-43952287D01*
X95392877Y-43864181D01*
X95458683Y-43840702D01*
X95465762Y-43840500D01*
X96058542Y-43840500D01*
X96089566Y-43834328D01*
X96155188Y-43821275D01*
X96251836Y-43802051D01*
X96305165Y-43779961D01*
X96433914Y-43726632D01*
X96597782Y-43617139D01*
X96737139Y-43477782D01*
X96737139Y-43477780D01*
X96747347Y-43467573D01*
X96747348Y-43467570D01*
X98777140Y-41437781D01*
X98886632Y-41273914D01*
X98962052Y-41091835D01*
X99000500Y-40898540D01*
X99000500Y-40701459D01*
X99000500Y-39265782D01*
X99020185Y-39198743D01*
X99036819Y-39178101D01*
X99628101Y-38586819D01*
X99689424Y-38553334D01*
X99715782Y-38550500D01*
X104166541Y-38550500D01*
X104233580Y-38570185D01*
X104254222Y-38586819D01*
X105595504Y-39928101D01*
X105628989Y-39989424D01*
X105631823Y-40015782D01*
X105631823Y-40850001D01*
X105631824Y-40850019D01*
X105642323Y-40952796D01*
X105642324Y-40952799D01*
X105667082Y-41027512D01*
X105697509Y-41119334D01*
X105789611Y-41268656D01*
X105913667Y-41392712D01*
X106062989Y-41484814D01*
X106229526Y-41539999D01*
X106332314Y-41550500D01*
X107932331Y-41550499D01*
X107944862Y-41549219D01*
X107950218Y-41548671D01*
X108035120Y-41539999D01*
X108201657Y-41484814D01*
X108350979Y-41392712D01*
X108475035Y-41268656D01*
X108567137Y-41119334D01*
X108622322Y-40952797D01*
X108632823Y-40850009D01*
X108632822Y-39249992D01*
X108630474Y-39227011D01*
X108622322Y-39147203D01*
X108622321Y-39147200D01*
X108567137Y-38980666D01*
X108475035Y-38831344D01*
X108350979Y-38707288D01*
X108201657Y-38615186D01*
X108035120Y-38560001D01*
X108035118Y-38560000D01*
X107932339Y-38549500D01*
X107932332Y-38549500D01*
X107098105Y-38549500D01*
X107031066Y-38529815D01*
X107010424Y-38513181D01*
X105413802Y-36916559D01*
X105413782Y-36916537D01*
X105270108Y-36772863D01*
X105270104Y-36772860D01*
X105106243Y-36663371D01*
X105106234Y-36663366D01*
X105033638Y-36633296D01*
X104977488Y-36610038D01*
X104924159Y-36587949D01*
X104924155Y-36587948D01*
X104924151Y-36587946D01*
X104827511Y-36568724D01*
X104730867Y-36549500D01*
X104730864Y-36549500D01*
X99151459Y-36549500D01*
X99151455Y-36549500D01*
X99054812Y-36568724D01*
X98958167Y-36587947D01*
X98958161Y-36587949D01*
X98904834Y-36610037D01*
X98904834Y-36610038D01*
X98859315Y-36628892D01*
X98776089Y-36663366D01*
X98776079Y-36663371D01*
X98612219Y-36772859D01*
X98566602Y-36818477D01*
X98472861Y-36912218D01*
X98472858Y-36912221D01*
X97362221Y-38022858D01*
X97362218Y-38022861D01*
X97292538Y-38092540D01*
X97222859Y-38162219D01*
X97113371Y-38326079D01*
X97113364Y-38326092D01*
X97037950Y-38508160D01*
X97037947Y-38508170D01*
X96999500Y-38701456D01*
X96999500Y-40334217D01*
X96979815Y-40401256D01*
X96963181Y-40421898D01*
X95945706Y-41439372D01*
X95884383Y-41472857D01*
X95814691Y-41467873D01*
X95758758Y-41426001D01*
X95734341Y-41360537D01*
X95749193Y-41292264D01*
X95752472Y-41286618D01*
X95824814Y-41169334D01*
X95879999Y-41002797D01*
X95890500Y-40900009D01*
X95890499Y-39699992D01*
X95879999Y-39597203D01*
X95824814Y-39430666D01*
X95732712Y-39281344D01*
X95608656Y-39157288D01*
X95471176Y-39072490D01*
X95459336Y-39065187D01*
X95459331Y-39065185D01*
X95457862Y-39064698D01*
X95292797Y-39010001D01*
X95292795Y-39010000D01*
X95190010Y-38999500D01*
X93189998Y-38999500D01*
X93189981Y-38999501D01*
X93087203Y-39010000D01*
X93087200Y-39010001D01*
X92920668Y-39065185D01*
X92920663Y-39065187D01*
X92771345Y-39157287D01*
X92665450Y-39263182D01*
X92604127Y-39296666D01*
X92577769Y-39299500D01*
X91124500Y-39299500D01*
X91057461Y-39279815D01*
X91011706Y-39227011D01*
X91000500Y-39175500D01*
X91000500Y-36107878D01*
X91013488Y-36053778D01*
X91013354Y-36053723D01*
X91013705Y-36052874D01*
X91014016Y-36051581D01*
X91015220Y-36049219D01*
X91078477Y-35854534D01*
X91110500Y-35652352D01*
X91110500Y-35447648D01*
X91078477Y-35245466D01*
X91015220Y-35050781D01*
X91015218Y-35050778D01*
X91015218Y-35050776D01*
X90969531Y-34961112D01*
X90922287Y-34868390D01*
X90914556Y-34857749D01*
X90801971Y-34702786D01*
X90657213Y-34558028D01*
X90491613Y-34437715D01*
X90491612Y-34437714D01*
X90491610Y-34437713D01*
X90434653Y-34408691D01*
X90309223Y-34344781D01*
X90114534Y-34281522D01*
X89939995Y-34253878D01*
X89912352Y-34249500D01*
X89707648Y-34249500D01*
X89683329Y-34253351D01*
X89505465Y-34281522D01*
X89310776Y-34344781D01*
X89128386Y-34437715D01*
X88962786Y-34558028D01*
X88818028Y-34702786D01*
X88697715Y-34868386D01*
X88604781Y-35050776D01*
X88541522Y-35245465D01*
X88509500Y-35447648D01*
X88509500Y-35652351D01*
X88541522Y-35854534D01*
X88604781Y-36049223D01*
X88697715Y-36231613D01*
X88818028Y-36397213D01*
X88963181Y-36542366D01*
X88996666Y-36603689D01*
X88999500Y-36630047D01*
X88999500Y-40174237D01*
X88979815Y-40241276D01*
X88975818Y-40247122D01*
X88887715Y-40368386D01*
X88794781Y-40550778D01*
X88731522Y-40745468D01*
X88708073Y-40893515D01*
X88678143Y-40956649D01*
X88673281Y-40961797D01*
X87246899Y-42388181D01*
X87185576Y-42421666D01*
X87159218Y-42424500D01*
X82926456Y-42424500D01*
X82733171Y-42462946D01*
X82733167Y-42462948D01*
X82733165Y-42462948D01*
X82733164Y-42462949D01*
X82657745Y-42494188D01*
X82657743Y-42494189D01*
X82551089Y-42538366D01*
X82551079Y-42538371D01*
X82387218Y-42647860D01*
X82387214Y-42647863D01*
X78977051Y-46058028D01*
X77862220Y-47172859D01*
X77862218Y-47172861D01*
X77806874Y-47228205D01*
X77722859Y-47312219D01*
X77613371Y-47476079D01*
X77613364Y-47476092D01*
X77537950Y-47658160D01*
X77537947Y-47658170D01*
X77499500Y-47851456D01*
X77499500Y-49737769D01*
X77479815Y-49804808D01*
X77463182Y-49825450D01*
X77357287Y-49931345D01*
X77265187Y-50080663D01*
X77265186Y-50080666D01*
X77210001Y-50247203D01*
X77210001Y-50247204D01*
X77210000Y-50247204D01*
X77199500Y-50349983D01*
X77199500Y-51550001D01*
X77199501Y-51550018D01*
X77210000Y-51652796D01*
X77210001Y-51652799D01*
X77265185Y-51819331D01*
X77265187Y-51819336D01*
X77357289Y-51968657D01*
X77463181Y-52074549D01*
X77496666Y-52135872D01*
X77499500Y-52162230D01*
X77499500Y-61634217D01*
X77479815Y-61701256D01*
X77463181Y-61721898D01*
X75671897Y-63513181D01*
X75610574Y-63546666D01*
X75584216Y-63549500D01*
X73872129Y-63549500D01*
X73872123Y-63549501D01*
X73812516Y-63555908D01*
X73677671Y-63606202D01*
X73677664Y-63606206D01*
X73562455Y-63692452D01*
X73562452Y-63692455D01*
X73476206Y-63807664D01*
X73476202Y-63807671D01*
X73425908Y-63942517D01*
X73419501Y-64002116D01*
X73419501Y-64002123D01*
X73419500Y-64002135D01*
X72500500Y-64002135D01*
X72500500Y-58443713D01*
X73649500Y-58443713D01*
X73649500Y-58656286D01*
X73682753Y-58866239D01*
X73748444Y-59068414D01*
X73844951Y-59257820D01*
X73969890Y-59429786D01*
X74120213Y-59580109D01*
X74292179Y-59705048D01*
X74292181Y-59705049D01*
X74292184Y-59705051D01*
X74481588Y-59801557D01*
X74683757Y-59867246D01*
X74893713Y-59900500D01*
X74893714Y-59900500D01*
X75106286Y-59900500D01*
X75106287Y-59900500D01*
X75316243Y-59867246D01*
X75518412Y-59801557D01*
X75707816Y-59705051D01*
X75729789Y-59689086D01*
X75879786Y-59580109D01*
X75879788Y-59580106D01*
X75879792Y-59580104D01*
X76030104Y-59429792D01*
X76030106Y-59429788D01*
X76030109Y-59429786D01*
X76155048Y-59257820D01*
X76155047Y-59257820D01*
X76155051Y-59257816D01*
X76251557Y-59068412D01*
X76317246Y-58866243D01*
X76350500Y-58656287D01*
X76350500Y-58443713D01*
X76317246Y-58233757D01*
X76251557Y-58031588D01*
X76155051Y-57842184D01*
X76155049Y-57842181D01*
X76155048Y-57842179D01*
X76030109Y-57670213D01*
X75879786Y-57519890D01*
X75707820Y-57394951D01*
X75518414Y-57298444D01*
X75518413Y-57298443D01*
X75518412Y-57298443D01*
X75316243Y-57232754D01*
X75316241Y-57232753D01*
X75316240Y-57232753D01*
X75154957Y-57207208D01*
X75106287Y-57199500D01*
X74893713Y-57199500D01*
X74845042Y-57207208D01*
X74683760Y-57232753D01*
X74481585Y-57298444D01*
X74292179Y-57394951D01*
X74120213Y-57519890D01*
X73969890Y-57670213D01*
X73844951Y-57842179D01*
X73748444Y-58031585D01*
X73682753Y-58233760D01*
X73649500Y-58443713D01*
X72500500Y-58443713D01*
X72500500Y-38939778D01*
X76599500Y-38939778D01*
X76599500Y-39160222D01*
X76613718Y-39249992D01*
X76633985Y-39377952D01*
X76702103Y-39587603D01*
X76702104Y-39587606D01*
X76802187Y-39784025D01*
X76931752Y-39962358D01*
X76931756Y-39962363D01*
X77087636Y-40118243D01*
X77087641Y-40118247D01*
X77164706Y-40174237D01*
X77265978Y-40247815D01*
X77394375Y-40313237D01*
X77462393Y-40347895D01*
X77462396Y-40347896D01*
X77525472Y-40368390D01*
X77672049Y-40416015D01*
X77889778Y-40450500D01*
X77889779Y-40450500D01*
X78110221Y-40450500D01*
X78110222Y-40450500D01*
X78327951Y-40416015D01*
X78537606Y-40347895D01*
X78734022Y-40247815D01*
X78912365Y-40118242D01*
X79068242Y-39962365D01*
X79197815Y-39784022D01*
X79297895Y-39587606D01*
X79366015Y-39377951D01*
X79400500Y-39160222D01*
X79400500Y-38939778D01*
X79379084Y-38804566D01*
X79388038Y-38735276D01*
X79413873Y-38697493D01*
X81405397Y-36705969D01*
X81466718Y-36672486D01*
X81536410Y-36677470D01*
X81549366Y-36683165D01*
X81594125Y-36705971D01*
X81690774Y-36755217D01*
X81690777Y-36755217D01*
X81690781Y-36755220D01*
X81825245Y-36798910D01*
X81885465Y-36818477D01*
X81986557Y-36834488D01*
X82087648Y-36850500D01*
X82087649Y-36850500D01*
X82292351Y-36850500D01*
X82292352Y-36850500D01*
X82494534Y-36818477D01*
X82689219Y-36755220D01*
X82871610Y-36662287D01*
X82973931Y-36587947D01*
X83037213Y-36541971D01*
X83037215Y-36541968D01*
X83037219Y-36541966D01*
X83181966Y-36397219D01*
X83181968Y-36397215D01*
X83181971Y-36397213D01*
X83234732Y-36324590D01*
X83302287Y-36231610D01*
X83393358Y-36052874D01*
X83395218Y-36049223D01*
X83395218Y-36049222D01*
X83395220Y-36049219D01*
X83458477Y-35854534D01*
X83490500Y-35652352D01*
X83490500Y-35447648D01*
X83458477Y-35245466D01*
X83395220Y-35050781D01*
X83395218Y-35050778D01*
X83395218Y-35050776D01*
X83349531Y-34961112D01*
X83302287Y-34868390D01*
X83294556Y-34857749D01*
X83181971Y-34702786D01*
X83037213Y-34558028D01*
X82871613Y-34437715D01*
X82871612Y-34437714D01*
X82871610Y-34437713D01*
X82814653Y-34408691D01*
X82689223Y-34344781D01*
X82494534Y-34281522D01*
X82319995Y-34253878D01*
X82292352Y-34249500D01*
X82087648Y-34249500D01*
X82063329Y-34253351D01*
X81885465Y-34281522D01*
X81690776Y-34344781D01*
X81508386Y-34437715D01*
X81342786Y-34558028D01*
X81198028Y-34702786D01*
X81077713Y-34868388D01*
X81042445Y-34937605D01*
X81019642Y-34968990D01*
X78352508Y-37636122D01*
X78291185Y-37669607D01*
X78245429Y-37670914D01*
X78110227Y-37649500D01*
X78110222Y-37649500D01*
X77889778Y-37649500D01*
X77817201Y-37660995D01*
X77672047Y-37683985D01*
X77462396Y-37752103D01*
X77462393Y-37752104D01*
X77265974Y-37852187D01*
X77087641Y-37981752D01*
X77087636Y-37981756D01*
X76931756Y-38137636D01*
X76931752Y-38137641D01*
X76802187Y-38315974D01*
X76702104Y-38512393D01*
X76702103Y-38512396D01*
X76633985Y-38722047D01*
X76605251Y-38903469D01*
X76599500Y-38939778D01*
X72500500Y-38939778D01*
X72500500Y-31943713D01*
X73649500Y-31943713D01*
X73649500Y-32156286D01*
X73682753Y-32366239D01*
X73748444Y-32568414D01*
X73844951Y-32757820D01*
X73969890Y-32929786D01*
X74120213Y-33080109D01*
X74292179Y-33205048D01*
X74292181Y-33205049D01*
X74292184Y-33205051D01*
X74481588Y-33301557D01*
X74683757Y-33367246D01*
X74893713Y-33400500D01*
X74893714Y-33400500D01*
X75106286Y-33400500D01*
X75106287Y-33400500D01*
X75316243Y-33367246D01*
X75518412Y-33301557D01*
X75707816Y-33205051D01*
X75773290Y-33157482D01*
X75879786Y-33080109D01*
X75879788Y-33080106D01*
X75879792Y-33080104D01*
X76030104Y-32929792D01*
X76030106Y-32929788D01*
X76030109Y-32929786D01*
X76155048Y-32757820D01*
X76155047Y-32757820D01*
X76155051Y-32757816D01*
X76251557Y-32568412D01*
X76317246Y-32366243D01*
X76350500Y-32156287D01*
X76350500Y-31943713D01*
X76317246Y-31733757D01*
X76251557Y-31531588D01*
X76155051Y-31342184D01*
X76155049Y-31342181D01*
X76155048Y-31342179D01*
X76030109Y-31170213D01*
X75879786Y-31019890D01*
X75707820Y-30894951D01*
X75518414Y-30798444D01*
X75518413Y-30798443D01*
X75518412Y-30798443D01*
X75316243Y-30732754D01*
X75316241Y-30732753D01*
X75316240Y-30732753D01*
X75154957Y-30707208D01*
X75106287Y-30699500D01*
X74893713Y-30699500D01*
X74845042Y-30707208D01*
X74683760Y-30732753D01*
X74481585Y-30798444D01*
X74292179Y-30894951D01*
X74120213Y-31019890D01*
X73969890Y-31170213D01*
X73844951Y-31342179D01*
X73748444Y-31531585D01*
X73682753Y-31733760D01*
X73649500Y-31943713D01*
X72500500Y-31943713D01*
X72500500Y-29624500D01*
X72520185Y-29557461D01*
X72572989Y-29511706D01*
X72624500Y-29500500D01*
X98228429Y-29500500D01*
X98295468Y-29520185D01*
G37*
%TD.AperFunction*%
%TD*%
%TA.AperFunction,Conductor*%
%TO.N,GND*%
G36*
X144295468Y-29520185D02*
G01*
X144341223Y-29572989D01*
X144351167Y-29642147D01*
X144327695Y-29698811D01*
X144246206Y-29807664D01*
X144246202Y-29807671D01*
X144195908Y-29942517D01*
X144189501Y-30002116D01*
X144189501Y-30002123D01*
X144189500Y-30002135D01*
X144189500Y-33097870D01*
X144189501Y-33097876D01*
X144195908Y-33157483D01*
X144246202Y-33292328D01*
X144246206Y-33292335D01*
X144332452Y-33407544D01*
X144332455Y-33407547D01*
X144447664Y-33493793D01*
X144447671Y-33493797D01*
X144582517Y-33544091D01*
X144582516Y-33544091D01*
X144589444Y-33544835D01*
X144642127Y-33550500D01*
X147737872Y-33550499D01*
X147797483Y-33544091D01*
X147932331Y-33493796D01*
X148047546Y-33407546D01*
X148133796Y-33292331D01*
X148184091Y-33157483D01*
X148190500Y-33097873D01*
X148190500Y-32674500D01*
X148210185Y-32607461D01*
X148262989Y-32561706D01*
X148314500Y-32550500D01*
X151758780Y-32550500D01*
X151825819Y-32570185D01*
X151846461Y-32586819D01*
X157095504Y-37835862D01*
X157128989Y-37897185D01*
X157131823Y-37923543D01*
X157131823Y-38877111D01*
X157112138Y-38944150D01*
X157095504Y-38964792D01*
X156987808Y-39072487D01*
X156987808Y-39072488D01*
X156987806Y-39072490D01*
X156933526Y-39147200D01*
X156848980Y-39263566D01*
X156741756Y-39474003D01*
X156668769Y-39698631D01*
X156631823Y-39931902D01*
X156631823Y-40168097D01*
X156668769Y-40401368D01*
X156741756Y-40625996D01*
X156780207Y-40701459D01*
X156848980Y-40836433D01*
X156987806Y-41027510D01*
X157154813Y-41194517D01*
X157345890Y-41333343D01*
X157445314Y-41384002D01*
X157556326Y-41440566D01*
X157556328Y-41440566D01*
X157556331Y-41440568D01*
X157640367Y-41467873D01*
X157780954Y-41513553D01*
X158014226Y-41550500D01*
X158014231Y-41550500D01*
X158250420Y-41550500D01*
X158483691Y-41513553D01*
X158708315Y-41440568D01*
X158918756Y-41333343D01*
X159109833Y-41194517D01*
X159276840Y-41027510D01*
X159415666Y-40836433D01*
X159522891Y-40625992D01*
X159595876Y-40401368D01*
X159606512Y-40334217D01*
X159632823Y-40168097D01*
X159632823Y-39931902D01*
X159595876Y-39698631D01*
X159522889Y-39474003D01*
X159466325Y-39362991D01*
X159415666Y-39263567D01*
X159276840Y-39072490D01*
X159169142Y-38964792D01*
X159135657Y-38903469D01*
X159132823Y-38877111D01*
X159132823Y-37312229D01*
X159094375Y-37118943D01*
X159094374Y-37118942D01*
X159094374Y-37118938D01*
X159094372Y-37118933D01*
X159018958Y-36936865D01*
X159018951Y-36936852D01*
X158909462Y-36772991D01*
X158909459Y-36772987D01*
X158770108Y-36633636D01*
X158770104Y-36633633D01*
X158638651Y-36545799D01*
X158619861Y-36530378D01*
X156371005Y-34281522D01*
X154033195Y-31943713D01*
X156649500Y-31943713D01*
X156649500Y-32156286D01*
X156682753Y-32366239D01*
X156748444Y-32568414D01*
X156844951Y-32757820D01*
X156969890Y-32929786D01*
X157120213Y-33080109D01*
X157292179Y-33205048D01*
X157292181Y-33205049D01*
X157292184Y-33205051D01*
X157481588Y-33301557D01*
X157683757Y-33367246D01*
X157893713Y-33400500D01*
X157893714Y-33400500D01*
X158106286Y-33400500D01*
X158106287Y-33400500D01*
X158316243Y-33367246D01*
X158518412Y-33301557D01*
X158707816Y-33205051D01*
X158773290Y-33157482D01*
X158879786Y-33080109D01*
X158879788Y-33080106D01*
X158879792Y-33080104D01*
X159030104Y-32929792D01*
X159030106Y-32929788D01*
X159030109Y-32929786D01*
X159155048Y-32757820D01*
X159155047Y-32757820D01*
X159155051Y-32757816D01*
X159251557Y-32568412D01*
X159317246Y-32366243D01*
X159350500Y-32156287D01*
X159350500Y-31943713D01*
X159317246Y-31733757D01*
X159251557Y-31531588D01*
X159155051Y-31342184D01*
X159155049Y-31342181D01*
X159155048Y-31342179D01*
X159030109Y-31170213D01*
X158879786Y-31019890D01*
X158707820Y-30894951D01*
X158518414Y-30798444D01*
X158518413Y-30798443D01*
X158518412Y-30798443D01*
X158316243Y-30732754D01*
X158316241Y-30732753D01*
X158316240Y-30732753D01*
X158154957Y-30707208D01*
X158106287Y-30699500D01*
X157893713Y-30699500D01*
X157845042Y-30707208D01*
X157683760Y-30732753D01*
X157481585Y-30798444D01*
X157292179Y-30894951D01*
X157120213Y-31019890D01*
X156969890Y-31170213D01*
X156844951Y-31342179D01*
X156748444Y-31531585D01*
X156682753Y-31733760D01*
X156649500Y-31943713D01*
X154033195Y-31943713D01*
X153008770Y-30919288D01*
X153008768Y-30919285D01*
X153008768Y-30919286D01*
X153001701Y-30912219D01*
X153001701Y-30912218D01*
X152862344Y-30772861D01*
X152862343Y-30772860D01*
X152862342Y-30772859D01*
X152698482Y-30663371D01*
X152698473Y-30663366D01*
X152625877Y-30633296D01*
X152569727Y-30610038D01*
X152516398Y-30587949D01*
X152516394Y-30587948D01*
X152516390Y-30587946D01*
X152419750Y-30568724D01*
X152323106Y-30549500D01*
X152323103Y-30549500D01*
X148314499Y-30549500D01*
X148247460Y-30529815D01*
X148201705Y-30477011D01*
X148190499Y-30425500D01*
X148190499Y-30002129D01*
X148190498Y-30002123D01*
X148190497Y-30002116D01*
X148184091Y-29942517D01*
X148133796Y-29807669D01*
X148133795Y-29807668D01*
X148133793Y-29807664D01*
X148052305Y-29698811D01*
X148027887Y-29633347D01*
X148042738Y-29565074D01*
X148092143Y-29515668D01*
X148151571Y-29500500D01*
X160375500Y-29500500D01*
X160442539Y-29520185D01*
X160488294Y-29572989D01*
X160499500Y-29624500D01*
X160499500Y-67876000D01*
X160479815Y-67943039D01*
X160427011Y-67988794D01*
X160375500Y-68000000D01*
X150870730Y-68000000D01*
X150803691Y-67980315D01*
X150757936Y-67927511D01*
X150747992Y-67858353D01*
X150777017Y-67794797D01*
X150783049Y-67788319D01*
X150984549Y-67586818D01*
X151045872Y-67553333D01*
X151072230Y-67550499D01*
X153507871Y-67550499D01*
X153507872Y-67550499D01*
X153567483Y-67544091D01*
X153702331Y-67493796D01*
X153817546Y-67407546D01*
X153903796Y-67292331D01*
X153954091Y-67157483D01*
X153960500Y-67097873D01*
X153960499Y-64002128D01*
X153954091Y-63942517D01*
X153941235Y-63908049D01*
X153903797Y-63807671D01*
X153903793Y-63807664D01*
X153817547Y-63692455D01*
X153817544Y-63692452D01*
X153702335Y-63606206D01*
X153702328Y-63606202D01*
X153567482Y-63555908D01*
X153567483Y-63555908D01*
X153507883Y-63549501D01*
X153507881Y-63549500D01*
X153507873Y-63549500D01*
X153507864Y-63549500D01*
X150412129Y-63549500D01*
X150412123Y-63549501D01*
X150352516Y-63555908D01*
X150217671Y-63606202D01*
X150217664Y-63606206D01*
X150102455Y-63692452D01*
X150102452Y-63692455D01*
X150016206Y-63807664D01*
X150016202Y-63807671D01*
X149965908Y-63942517D01*
X149959501Y-64002116D01*
X149959500Y-64002127D01*
X149959500Y-65190516D01*
X149959501Y-66346500D01*
X149939816Y-66413539D01*
X149887013Y-66459294D01*
X149835501Y-66470500D01*
X140458910Y-66470500D01*
X140391871Y-66450815D01*
X140346116Y-66398011D01*
X140336172Y-66328853D01*
X140360534Y-66271014D01*
X140375300Y-66251768D01*
X140391950Y-66230071D01*
X140501440Y-66040428D01*
X140585241Y-65838117D01*
X140641917Y-65626598D01*
X140670500Y-65409490D01*
X140670500Y-65190510D01*
X140641917Y-64973402D01*
X140585241Y-64761883D01*
X140501440Y-64559572D01*
X140500591Y-64558102D01*
X140391950Y-64369929D01*
X140258644Y-64196201D01*
X140258638Y-64196194D01*
X140103805Y-64041361D01*
X140103798Y-64041355D01*
X139930070Y-63908049D01*
X139812500Y-63840170D01*
X139764284Y-63789603D01*
X139750500Y-63732783D01*
X139750500Y-63412229D01*
X139770185Y-63345190D01*
X139786819Y-63324548D01*
X144667654Y-58443713D01*
X156649500Y-58443713D01*
X156649500Y-58656286D01*
X156682753Y-58866239D01*
X156748444Y-59068414D01*
X156844951Y-59257820D01*
X156969890Y-59429786D01*
X157120213Y-59580109D01*
X157292179Y-59705048D01*
X157292181Y-59705049D01*
X157292184Y-59705051D01*
X157481588Y-59801557D01*
X157683757Y-59867246D01*
X157893713Y-59900500D01*
X157893714Y-59900500D01*
X158106286Y-59900500D01*
X158106287Y-59900500D01*
X158316243Y-59867246D01*
X158518412Y-59801557D01*
X158707816Y-59705051D01*
X158729789Y-59689086D01*
X158879786Y-59580109D01*
X158879788Y-59580106D01*
X158879792Y-59580104D01*
X159030104Y-59429792D01*
X159030106Y-59429788D01*
X159030109Y-59429786D01*
X159155048Y-59257820D01*
X159155047Y-59257820D01*
X159155051Y-59257816D01*
X159251557Y-59068412D01*
X159317246Y-58866243D01*
X159350500Y-58656287D01*
X159350500Y-58443713D01*
X159317246Y-58233757D01*
X159251557Y-58031588D01*
X159155051Y-57842184D01*
X159155049Y-57842181D01*
X159155048Y-57842179D01*
X159030109Y-57670213D01*
X158879786Y-57519890D01*
X158707820Y-57394951D01*
X158518414Y-57298444D01*
X158518413Y-57298443D01*
X158518412Y-57298443D01*
X158316243Y-57232754D01*
X158316241Y-57232753D01*
X158316240Y-57232753D01*
X158154957Y-57207208D01*
X158106287Y-57199500D01*
X157893713Y-57199500D01*
X157845042Y-57207208D01*
X157683760Y-57232753D01*
X157481585Y-57298444D01*
X157292179Y-57394951D01*
X157120213Y-57519890D01*
X156969890Y-57670213D01*
X156844951Y-57842179D01*
X156748444Y-58031585D01*
X156682753Y-58233760D01*
X156649500Y-58443713D01*
X144667654Y-58443713D01*
X144760207Y-58351160D01*
X144877610Y-58233757D01*
X145082952Y-58028415D01*
X145110205Y-57987627D01*
X145165084Y-57905495D01*
X145191308Y-57842184D01*
X145221659Y-57768912D01*
X145250500Y-57623917D01*
X145250500Y-57476082D01*
X145250500Y-57175416D01*
X145270185Y-57108377D01*
X145301613Y-57075099D01*
X145347219Y-57041966D01*
X145491966Y-56897219D01*
X145491968Y-56897215D01*
X145491971Y-56897213D01*
X145562236Y-56800500D01*
X145612287Y-56731610D01*
X145705220Y-56549219D01*
X145768477Y-56354534D01*
X145800500Y-56152352D01*
X145800500Y-55947648D01*
X145768477Y-55745466D01*
X145705220Y-55550781D01*
X145705218Y-55550778D01*
X145705218Y-55550776D01*
X145638244Y-55419334D01*
X145612287Y-55368390D01*
X145557008Y-55292304D01*
X145491971Y-55202786D01*
X145347213Y-55058028D01*
X145181613Y-54937715D01*
X145181612Y-54937714D01*
X145181610Y-54937713D01*
X145124653Y-54908691D01*
X144999223Y-54844781D01*
X144804534Y-54781522D01*
X144629995Y-54753878D01*
X144602352Y-54749500D01*
X144397648Y-54749500D01*
X144373329Y-54753351D01*
X144195465Y-54781522D01*
X144000776Y-54844781D01*
X143818386Y-54937715D01*
X143652786Y-55058028D01*
X143508028Y-55202786D01*
X143387715Y-55368386D01*
X143294781Y-55550776D01*
X143231522Y-55745465D01*
X143199500Y-55947648D01*
X143199500Y-56152351D01*
X143231522Y-56354534D01*
X143294781Y-56549223D01*
X143387715Y-56731613D01*
X143508028Y-56897213D01*
X143508034Y-56897219D01*
X143652781Y-57041966D01*
X143698384Y-57075098D01*
X143701724Y-57079429D01*
X143706703Y-57081703D01*
X143722832Y-57106801D01*
X143741050Y-57130425D01*
X143742303Y-57137098D01*
X143744477Y-57140481D01*
X143749500Y-57175416D01*
X143749500Y-57187769D01*
X143729815Y-57254808D01*
X143713181Y-57275450D01*
X138417050Y-62571580D01*
X138417044Y-62571588D01*
X138367812Y-62645268D01*
X138367813Y-62645269D01*
X138334921Y-62694496D01*
X138334916Y-62694506D01*
X138278342Y-62831086D01*
X138278340Y-62831092D01*
X138249500Y-62976079D01*
X138249500Y-63732783D01*
X138229815Y-63799822D01*
X138187500Y-63840170D01*
X138069929Y-63908049D01*
X137896201Y-64041355D01*
X137896194Y-64041361D01*
X137741361Y-64196194D01*
X137741355Y-64196201D01*
X137608049Y-64369929D01*
X137498565Y-64559561D01*
X137498560Y-64559573D01*
X137414758Y-64761884D01*
X137358084Y-64973399D01*
X137358082Y-64973410D01*
X137329500Y-65190502D01*
X137329500Y-65409497D01*
X137353306Y-65590314D01*
X137358083Y-65626598D01*
X137386421Y-65732357D01*
X137404180Y-65798638D01*
X137414759Y-65838117D01*
X137498560Y-66040428D01*
X137498562Y-66040433D01*
X137498565Y-66040438D01*
X137608049Y-66230070D01*
X137639466Y-66271014D01*
X137664660Y-66336184D01*
X137650621Y-66404628D01*
X137601807Y-66454618D01*
X137541090Y-66470500D01*
X136383229Y-66470500D01*
X136316190Y-66450815D01*
X136295548Y-66434181D01*
X135660006Y-65798638D01*
X135626521Y-65737315D01*
X135627912Y-65678863D01*
X135641916Y-65626600D01*
X135641917Y-65626598D01*
X135670500Y-65409490D01*
X135670500Y-65190510D01*
X135641917Y-64973402D01*
X135585241Y-64761883D01*
X135501440Y-64559572D01*
X135500591Y-64558102D01*
X135391950Y-64369929D01*
X135258644Y-64196201D01*
X135258638Y-64196194D01*
X135103805Y-64041361D01*
X135103798Y-64041355D01*
X134930070Y-63908049D01*
X134740438Y-63798565D01*
X134740433Y-63798562D01*
X134740428Y-63798560D01*
X134538117Y-63714759D01*
X134538118Y-63714759D01*
X134538115Y-63714758D01*
X134432357Y-63686421D01*
X134326598Y-63658083D01*
X134290314Y-63653306D01*
X134109497Y-63629500D01*
X134109490Y-63629500D01*
X133890510Y-63629500D01*
X133890502Y-63629500D01*
X133683853Y-63656707D01*
X133673402Y-63658083D01*
X133628699Y-63670060D01*
X133461884Y-63714758D01*
X133343374Y-63763847D01*
X133259572Y-63798560D01*
X133259569Y-63798561D01*
X133259561Y-63798565D01*
X133069929Y-63908049D01*
X132896201Y-64041355D01*
X132896194Y-64041361D01*
X132741361Y-64196194D01*
X132741355Y-64196201D01*
X132608049Y-64369929D01*
X132498565Y-64559561D01*
X132498560Y-64559573D01*
X132414758Y-64761884D01*
X132358084Y-64973399D01*
X132358082Y-64973410D01*
X132329500Y-65190502D01*
X132329500Y-65409497D01*
X132353306Y-65590314D01*
X132358083Y-65626598D01*
X132386421Y-65732357D01*
X132404180Y-65798638D01*
X132414759Y-65838117D01*
X132498560Y-66040428D01*
X132498562Y-66040433D01*
X132498565Y-66040438D01*
X132608049Y-66230070D01*
X132741355Y-66403798D01*
X132741361Y-66403805D01*
X132896194Y-66558638D01*
X132896201Y-66558644D01*
X133069929Y-66691950D01*
X133259561Y-66801434D01*
X133259563Y-66801434D01*
X133259572Y-66801440D01*
X133461883Y-66885241D01*
X133673402Y-66941917D01*
X133890510Y-66970500D01*
X133890517Y-66970500D01*
X134109483Y-66970500D01*
X134109490Y-66970500D01*
X134326598Y-66941917D01*
X134536601Y-66885647D01*
X134606448Y-66887310D01*
X134656373Y-66917741D01*
X135146177Y-67407544D01*
X135438049Y-67699416D01*
X135526952Y-67788319D01*
X135560436Y-67849643D01*
X135555452Y-67919334D01*
X135513580Y-67975268D01*
X135448115Y-67999684D01*
X135439270Y-68000000D01*
X118124000Y-68000000D01*
X118056961Y-67980315D01*
X118011206Y-67927511D01*
X118000000Y-67876000D01*
X118000000Y-64002135D01*
X119419500Y-64002135D01*
X119419500Y-67097870D01*
X119419501Y-67097876D01*
X119425908Y-67157483D01*
X119476202Y-67292328D01*
X119476206Y-67292335D01*
X119562452Y-67407544D01*
X119562455Y-67407547D01*
X119677664Y-67493793D01*
X119677671Y-67493797D01*
X119812517Y-67544091D01*
X119812516Y-67544091D01*
X119819444Y-67544835D01*
X119872127Y-67550500D01*
X122967872Y-67550499D01*
X123027483Y-67544091D01*
X123162331Y-67493796D01*
X123277546Y-67407546D01*
X123363796Y-67292331D01*
X123414091Y-67157483D01*
X123420500Y-67097873D01*
X123420499Y-64645782D01*
X123440184Y-64578744D01*
X123456818Y-64558102D01*
X124356837Y-63658084D01*
X125277140Y-62737781D01*
X125306056Y-62694505D01*
X125386632Y-62573914D01*
X125462051Y-62391835D01*
X125500500Y-62198541D01*
X125500500Y-53447648D01*
X134199500Y-53447648D01*
X134199500Y-53652351D01*
X134231522Y-53854534D01*
X134294781Y-54049223D01*
X134387715Y-54231613D01*
X134508028Y-54397213D01*
X134652786Y-54541971D01*
X134807749Y-54654556D01*
X134818390Y-54662287D01*
X134934607Y-54721503D01*
X135000776Y-54755218D01*
X135000778Y-54755218D01*
X135000781Y-54755220D01*
X135105137Y-54789127D01*
X135195465Y-54818477D01*
X135279564Y-54831797D01*
X135397648Y-54850500D01*
X135397649Y-54850500D01*
X135602350Y-54850500D01*
X135602352Y-54850500D01*
X135658026Y-54841681D01*
X135727318Y-54850635D01*
X135765105Y-54876473D01*
X137521586Y-56632954D01*
X137551058Y-56652645D01*
X137595270Y-56682186D01*
X137644505Y-56715084D01*
X137644506Y-56715084D01*
X137644507Y-56715085D01*
X137644509Y-56715086D01*
X137781082Y-56771656D01*
X137781087Y-56771658D01*
X137781091Y-56771658D01*
X137781092Y-56771659D01*
X137926079Y-56800500D01*
X137926082Y-56800500D01*
X137926083Y-56800500D01*
X138073917Y-56800500D01*
X138374582Y-56800500D01*
X138441621Y-56820185D01*
X138474900Y-56851615D01*
X138508028Y-56897212D01*
X138508032Y-56897217D01*
X138652786Y-57041971D01*
X138774535Y-57130425D01*
X138818390Y-57162287D01*
X138891425Y-57199500D01*
X139000776Y-57255218D01*
X139000778Y-57255218D01*
X139000781Y-57255220D01*
X139063043Y-57275450D01*
X139195465Y-57318477D01*
X139296557Y-57334488D01*
X139397648Y-57350500D01*
X139397649Y-57350500D01*
X139602351Y-57350500D01*
X139602352Y-57350500D01*
X139804534Y-57318477D01*
X139999219Y-57255220D01*
X140181610Y-57162287D01*
X140301619Y-57075096D01*
X140347213Y-57041971D01*
X140347215Y-57041968D01*
X140347219Y-57041966D01*
X140491966Y-56897219D01*
X140491968Y-56897215D01*
X140491971Y-56897213D01*
X140562236Y-56800500D01*
X140612287Y-56731610D01*
X140705220Y-56549219D01*
X140768477Y-56354534D01*
X140800500Y-56152352D01*
X140800500Y-55947648D01*
X140768477Y-55745466D01*
X140705220Y-55550781D01*
X140705218Y-55550778D01*
X140705218Y-55550776D01*
X140638244Y-55419334D01*
X140612287Y-55368390D01*
X140557008Y-55292304D01*
X140491971Y-55202786D01*
X140347213Y-55058028D01*
X140181613Y-54937715D01*
X140181612Y-54937714D01*
X140181610Y-54937713D01*
X140124653Y-54908691D01*
X139999223Y-54844781D01*
X139804534Y-54781522D01*
X139629995Y-54753878D01*
X139602352Y-54749500D01*
X139397648Y-54749500D01*
X139373329Y-54753351D01*
X139195465Y-54781522D01*
X139000776Y-54844781D01*
X138818386Y-54937715D01*
X138652786Y-55058028D01*
X138508032Y-55202782D01*
X138508028Y-55202787D01*
X138474900Y-55248385D01*
X138470568Y-55251725D01*
X138468295Y-55256703D01*
X138443195Y-55272833D01*
X138419571Y-55291051D01*
X138412897Y-55292304D01*
X138409517Y-55294477D01*
X138374582Y-55299500D01*
X138362230Y-55299500D01*
X138295191Y-55279815D01*
X138274549Y-55263181D01*
X136826473Y-53815105D01*
X136792988Y-53753782D01*
X136791681Y-53708027D01*
X136800500Y-53652352D01*
X136800500Y-53447648D01*
X136779520Y-53315186D01*
X136768477Y-53245465D01*
X136739127Y-53155137D01*
X136705220Y-53050781D01*
X136705218Y-53050778D01*
X136705218Y-53050776D01*
X136649720Y-52941857D01*
X136612287Y-52868390D01*
X136576355Y-52818933D01*
X136491971Y-52702786D01*
X136347213Y-52558028D01*
X136181613Y-52437715D01*
X136181612Y-52437714D01*
X136181610Y-52437713D01*
X136124653Y-52408691D01*
X135999223Y-52344781D01*
X135804534Y-52281522D01*
X135629995Y-52253878D01*
X135602352Y-52249500D01*
X135397648Y-52249500D01*
X135373329Y-52253351D01*
X135195465Y-52281522D01*
X135000776Y-52344781D01*
X134818386Y-52437715D01*
X134652786Y-52558028D01*
X134508028Y-52702786D01*
X134387715Y-52868386D01*
X134294781Y-53050776D01*
X134231522Y-53245465D01*
X134199500Y-53447648D01*
X125500500Y-53447648D01*
X125500500Y-52162230D01*
X125520185Y-52095191D01*
X125536819Y-52074549D01*
X125546288Y-52065080D01*
X125642712Y-51968656D01*
X125734814Y-51819334D01*
X125789999Y-51652797D01*
X125800500Y-51550009D01*
X125800499Y-50349992D01*
X125789999Y-50247203D01*
X125734814Y-50080666D01*
X125642712Y-49931344D01*
X125536818Y-49825450D01*
X125503334Y-49764127D01*
X125500500Y-49737769D01*
X125500500Y-48415782D01*
X125520185Y-48348743D01*
X125536819Y-48328101D01*
X129403102Y-44461819D01*
X129464425Y-44428334D01*
X129490783Y-44425500D01*
X133723542Y-44425500D01*
X133754566Y-44419328D01*
X133820188Y-44406275D01*
X133916836Y-44387051D01*
X133970165Y-44364961D01*
X134098914Y-44311632D01*
X134262782Y-44202139D01*
X134402139Y-44062782D01*
X134402140Y-44062779D01*
X134409206Y-44055714D01*
X134409209Y-44055710D01*
X136088203Y-42376715D01*
X136149524Y-42343232D01*
X136156473Y-42341927D01*
X136304534Y-42318477D01*
X136499219Y-42255220D01*
X136681610Y-42162287D01*
X136774590Y-42094732D01*
X136847213Y-42041971D01*
X136847215Y-42041968D01*
X136847219Y-42041966D01*
X136991966Y-41897219D01*
X136991968Y-41897215D01*
X136991971Y-41897213D01*
X137044732Y-41824590D01*
X137112287Y-41731610D01*
X137205220Y-41549219D01*
X137258194Y-41386182D01*
X137297632Y-41328506D01*
X137361990Y-41301308D01*
X137376125Y-41300500D01*
X138577769Y-41300500D01*
X138644808Y-41320185D01*
X138665450Y-41336818D01*
X138771344Y-41442712D01*
X138920666Y-41534814D01*
X139002570Y-41561954D01*
X139060015Y-41601727D01*
X139086838Y-41666243D01*
X139074523Y-41735018D01*
X139036451Y-41779978D01*
X138942787Y-41848028D01*
X138942782Y-41848032D01*
X138798028Y-41992786D01*
X138677715Y-42158386D01*
X138584781Y-42340776D01*
X138521522Y-42535465D01*
X138489500Y-42737648D01*
X138489500Y-42942351D01*
X138521522Y-43144534D01*
X138584781Y-43339223D01*
X138648691Y-43464653D01*
X138655381Y-43477782D01*
X138677715Y-43521613D01*
X138798028Y-43687213D01*
X138942786Y-43831971D01*
X139097749Y-43944556D01*
X139108390Y-43952287D01*
X139199840Y-43998883D01*
X139201080Y-43999515D01*
X139251876Y-44047490D01*
X139268671Y-44115311D01*
X139246134Y-44181446D01*
X139201080Y-44220485D01*
X139108386Y-44267715D01*
X138942786Y-44388028D01*
X138798028Y-44532786D01*
X138677715Y-44698386D01*
X138584781Y-44880776D01*
X138521522Y-45075465D01*
X138489500Y-45277648D01*
X138489500Y-45482351D01*
X138521522Y-45684534D01*
X138584781Y-45879223D01*
X138614584Y-45937713D01*
X138662805Y-46032352D01*
X138677715Y-46061613D01*
X138798028Y-46227213D01*
X138942786Y-46371971D01*
X139073654Y-46467050D01*
X139108390Y-46492287D01*
X139199840Y-46538883D01*
X139201080Y-46539515D01*
X139251876Y-46587490D01*
X139268671Y-46655311D01*
X139246134Y-46721446D01*
X139201080Y-46760485D01*
X139108386Y-46807715D01*
X138942786Y-46928028D01*
X138798032Y-47072782D01*
X138798028Y-47072787D01*
X138764900Y-47118385D01*
X138709571Y-47161051D01*
X138664582Y-47169500D01*
X137732229Y-47169500D01*
X137665190Y-47149815D01*
X137644548Y-47133181D01*
X136810066Y-46298699D01*
X136776581Y-46237376D01*
X136775274Y-46191620D01*
X136800500Y-46032351D01*
X136800500Y-45827648D01*
X136768477Y-45625465D01*
X136717004Y-45467048D01*
X136705220Y-45430781D01*
X136705218Y-45430778D01*
X136705218Y-45430776D01*
X136641683Y-45306083D01*
X136612287Y-45248390D01*
X136583190Y-45208341D01*
X136491971Y-45082786D01*
X136347213Y-44938028D01*
X136181613Y-44817715D01*
X136181612Y-44817714D01*
X136181610Y-44817713D01*
X136107231Y-44779815D01*
X135999223Y-44724781D01*
X135804534Y-44661522D01*
X135629995Y-44633878D01*
X135602352Y-44629500D01*
X135397648Y-44629500D01*
X135373329Y-44633351D01*
X135195465Y-44661522D01*
X135000776Y-44724781D01*
X134818386Y-44817715D01*
X134652786Y-44938028D01*
X134508032Y-45082782D01*
X134508028Y-45082787D01*
X134474900Y-45128385D01*
X134419571Y-45171051D01*
X134374582Y-45179500D01*
X131566798Y-45179500D01*
X131537964Y-45185234D01*
X131537965Y-45185235D01*
X131421815Y-45208339D01*
X131421805Y-45208342D01*
X131341803Y-45241479D01*
X131341804Y-45241480D01*
X131285228Y-45264915D01*
X131223616Y-45306083D01*
X131162305Y-45347049D01*
X131162300Y-45347053D01*
X131092664Y-45416688D01*
X131073876Y-45432107D01*
X131021585Y-45467047D01*
X131021579Y-45467052D01*
X130765105Y-45723526D01*
X130703782Y-45757011D01*
X130658026Y-45758318D01*
X130602352Y-45749500D01*
X130397648Y-45749500D01*
X130373329Y-45753351D01*
X130195465Y-45781522D01*
X130000776Y-45844781D01*
X129818386Y-45937715D01*
X129652786Y-46058028D01*
X129508028Y-46202786D01*
X129387715Y-46368386D01*
X129294781Y-46550776D01*
X129231522Y-46745465D01*
X129199500Y-46947648D01*
X129199500Y-47152351D01*
X129231522Y-47354534D01*
X129294781Y-47549223D01*
X129387715Y-47731613D01*
X129508028Y-47897213D01*
X129652786Y-48041971D01*
X129807749Y-48154556D01*
X129818390Y-48162287D01*
X129934607Y-48221503D01*
X130000776Y-48255218D01*
X130000778Y-48255218D01*
X130000781Y-48255220D01*
X130105137Y-48289127D01*
X130195465Y-48318477D01*
X130296557Y-48334488D01*
X130397648Y-48350500D01*
X130397649Y-48350500D01*
X130602351Y-48350500D01*
X130602352Y-48350500D01*
X130804534Y-48318477D01*
X130999219Y-48255220D01*
X131181610Y-48162287D01*
X131274590Y-48094732D01*
X131347213Y-48041971D01*
X131347215Y-48041968D01*
X131347219Y-48041966D01*
X131491966Y-47897219D01*
X131491968Y-47897215D01*
X131491971Y-47897213D01*
X131549777Y-47817648D01*
X131612287Y-47731610D01*
X131705220Y-47549219D01*
X131768477Y-47354534D01*
X131800500Y-47152352D01*
X131800500Y-46947648D01*
X131791681Y-46891971D01*
X131792382Y-46886545D01*
X131790470Y-46881418D01*
X131796811Y-46852269D01*
X131800635Y-46822680D01*
X131804468Y-46817073D01*
X131805323Y-46813146D01*
X131826470Y-46784896D01*
X131894550Y-46716817D01*
X131955874Y-46683333D01*
X131982230Y-46680500D01*
X134374582Y-46680500D01*
X134441621Y-46700185D01*
X134474900Y-46731615D01*
X134508028Y-46777212D01*
X134508032Y-46777217D01*
X134652786Y-46921971D01*
X134807749Y-47034556D01*
X134818390Y-47042287D01*
X134878248Y-47072786D01*
X135000776Y-47135218D01*
X135000778Y-47135218D01*
X135000781Y-47135220D01*
X135045700Y-47149815D01*
X135195465Y-47198477D01*
X135296557Y-47214488D01*
X135397648Y-47230500D01*
X135397649Y-47230500D01*
X135567770Y-47230500D01*
X135634809Y-47250185D01*
X135655451Y-47266819D01*
X136891580Y-48502948D01*
X136891584Y-48502951D01*
X137014498Y-48585080D01*
X137014511Y-48585087D01*
X137151082Y-48641656D01*
X137151087Y-48641658D01*
X137151091Y-48641658D01*
X137151092Y-48641659D01*
X137296079Y-48670500D01*
X137296082Y-48670500D01*
X137443917Y-48670500D01*
X138664582Y-48670500D01*
X138731621Y-48690185D01*
X138764900Y-48721615D01*
X138798028Y-48767212D01*
X138798032Y-48767217D01*
X138942786Y-48911971D01*
X139097749Y-49024556D01*
X139108390Y-49032287D01*
X139224607Y-49091503D01*
X139290776Y-49125218D01*
X139290778Y-49125218D01*
X139290781Y-49125220D01*
X139395137Y-49159127D01*
X139485465Y-49188477D01*
X139586557Y-49204488D01*
X139687648Y-49220500D01*
X139687649Y-49220500D01*
X140692351Y-49220500D01*
X140692352Y-49220500D01*
X140894534Y-49188477D01*
X141089219Y-49125220D01*
X141271610Y-49032287D01*
X141364590Y-48964732D01*
X141437213Y-48911971D01*
X141437215Y-48911968D01*
X141437219Y-48911966D01*
X141581966Y-48767219D01*
X141581968Y-48767215D01*
X141581971Y-48767213D01*
X141652236Y-48670500D01*
X141702287Y-48601610D01*
X141795220Y-48419219D01*
X141858477Y-48224534D01*
X141890500Y-48022352D01*
X141890500Y-47817648D01*
X141858477Y-47615466D01*
X141795220Y-47420781D01*
X141795218Y-47420778D01*
X141795218Y-47420776D01*
X141746187Y-47324548D01*
X141702287Y-47238390D01*
X141654678Y-47172861D01*
X141581971Y-47072786D01*
X141437213Y-46928028D01*
X141271614Y-46807715D01*
X141211758Y-46777217D01*
X141178917Y-46760483D01*
X141128123Y-46712511D01*
X141111328Y-46644690D01*
X141133865Y-46578555D01*
X141178917Y-46539516D01*
X141271610Y-46492287D01*
X141306347Y-46467049D01*
X141437213Y-46371971D01*
X141437215Y-46371968D01*
X141437219Y-46371966D01*
X141472366Y-46336819D01*
X141533689Y-46303334D01*
X141560047Y-46300500D01*
X142137770Y-46300500D01*
X142204809Y-46320185D01*
X142225451Y-46336819D01*
X143213181Y-47324548D01*
X143246666Y-47385871D01*
X143249500Y-47412229D01*
X143249500Y-50123918D01*
X143249500Y-50123920D01*
X143249499Y-50123920D01*
X143278340Y-50268907D01*
X143278343Y-50268917D01*
X143334914Y-50405492D01*
X143367812Y-50454727D01*
X143367813Y-50454730D01*
X143417046Y-50528414D01*
X143417052Y-50528421D01*
X144871580Y-51982948D01*
X144871584Y-51982951D01*
X144994498Y-52065080D01*
X144994511Y-52065087D01*
X145088239Y-52103910D01*
X145131087Y-52121658D01*
X145131091Y-52121658D01*
X145131092Y-52121659D01*
X145276079Y-52150500D01*
X145276082Y-52150500D01*
X145423917Y-52150500D01*
X146937770Y-52150500D01*
X147004809Y-52170185D01*
X147025451Y-52186819D01*
X148124625Y-53285992D01*
X148158110Y-53347315D01*
X148153126Y-53417007D01*
X148124626Y-53461353D01*
X148054638Y-53531342D01*
X147962536Y-53680663D01*
X147962535Y-53680666D01*
X147907350Y-53847203D01*
X147907350Y-53847204D01*
X147907349Y-53847204D01*
X147896849Y-53949983D01*
X147896849Y-55150001D01*
X147896850Y-55150018D01*
X147907349Y-55252796D01*
X147907350Y-55252799D01*
X147945652Y-55368386D01*
X147962535Y-55419334D01*
X148054637Y-55568656D01*
X148178693Y-55692712D01*
X148328015Y-55784814D01*
X148494552Y-55839999D01*
X148597340Y-55850500D01*
X149797357Y-55850499D01*
X149900146Y-55839999D01*
X150066683Y-55784814D01*
X150216005Y-55692712D01*
X150340061Y-55568656D01*
X150432163Y-55419334D01*
X150487348Y-55252797D01*
X150497849Y-55150009D01*
X150497848Y-53949992D01*
X150487348Y-53847203D01*
X150432163Y-53680666D01*
X150340061Y-53531344D01*
X150216005Y-53407288D01*
X150066683Y-53315186D01*
X150052229Y-53310396D01*
X150027529Y-53302211D01*
X150017292Y-53295123D01*
X150005175Y-53292260D01*
X149989107Y-53275609D01*
X149970085Y-53262438D01*
X149964131Y-53249725D01*
X149956659Y-53241981D01*
X149944918Y-53208697D01*
X149927962Y-53123453D01*
X149919008Y-53078437D01*
X149876562Y-52975965D01*
X149862433Y-52941854D01*
X149813343Y-52868386D01*
X149780303Y-52818937D01*
X149780302Y-52818936D01*
X149780300Y-52818933D01*
X149675765Y-52714398D01*
X149210867Y-52249500D01*
X147778421Y-50817052D01*
X147778414Y-50817046D01*
X147704729Y-50767812D01*
X147704729Y-50767813D01*
X147655491Y-50734913D01*
X147518917Y-50678343D01*
X147518907Y-50678340D01*
X147373920Y-50649500D01*
X147373918Y-50649500D01*
X145712229Y-50649500D01*
X145645190Y-50629815D01*
X145624548Y-50613181D01*
X144786819Y-49775451D01*
X144753334Y-49714128D01*
X144750500Y-49687770D01*
X144750500Y-46976079D01*
X144721659Y-46831092D01*
X144721658Y-46831091D01*
X144721658Y-46831087D01*
X144699345Y-46777219D01*
X144665087Y-46694511D01*
X144665080Y-46694498D01*
X144582952Y-46571585D01*
X144550882Y-46539515D01*
X144478416Y-46467049D01*
X144202987Y-46191620D01*
X142978421Y-44967052D01*
X142978420Y-44967051D01*
X142978416Y-44967048D01*
X142880440Y-44901584D01*
X142880438Y-44901581D01*
X142855495Y-44884916D01*
X142855490Y-44884913D01*
X142718917Y-44828343D01*
X142718907Y-44828340D01*
X142573920Y-44799500D01*
X142573918Y-44799500D01*
X141829793Y-44799500D01*
X141762754Y-44779815D01*
X141719309Y-44731796D01*
X141702286Y-44698388D01*
X141581971Y-44532786D01*
X141437213Y-44388028D01*
X141271614Y-44267715D01*
X141265006Y-44264348D01*
X141178917Y-44220483D01*
X141128123Y-44172511D01*
X141111328Y-44104690D01*
X141133865Y-44038555D01*
X141178917Y-43999516D01*
X141271610Y-43952287D01*
X141392877Y-43864181D01*
X141458683Y-43840702D01*
X141465762Y-43840500D01*
X142058542Y-43840500D01*
X142089566Y-43834328D01*
X142155188Y-43821275D01*
X142251836Y-43802051D01*
X142305165Y-43779961D01*
X142433914Y-43726632D01*
X142597782Y-43617139D01*
X142737139Y-43477782D01*
X142737139Y-43477780D01*
X142747347Y-43467573D01*
X142747348Y-43467570D01*
X144777140Y-41437781D01*
X144886632Y-41273914D01*
X144962052Y-41091835D01*
X145000500Y-40898540D01*
X145000500Y-40701459D01*
X145000500Y-39265782D01*
X145020185Y-39198743D01*
X145036819Y-39178101D01*
X145628101Y-38586819D01*
X145689424Y-38553334D01*
X145715782Y-38550500D01*
X150166541Y-38550500D01*
X150233580Y-38570185D01*
X150254222Y-38586819D01*
X151595504Y-39928101D01*
X151628989Y-39989424D01*
X151631823Y-40015782D01*
X151631823Y-40850001D01*
X151631824Y-40850019D01*
X151642323Y-40952796D01*
X151642324Y-40952799D01*
X151667082Y-41027512D01*
X151697509Y-41119334D01*
X151789611Y-41268656D01*
X151913667Y-41392712D01*
X152062989Y-41484814D01*
X152229526Y-41539999D01*
X152332314Y-41550500D01*
X153932331Y-41550499D01*
X153944862Y-41549219D01*
X153950218Y-41548671D01*
X154035120Y-41539999D01*
X154201657Y-41484814D01*
X154350979Y-41392712D01*
X154475035Y-41268656D01*
X154567137Y-41119334D01*
X154622322Y-40952797D01*
X154632823Y-40850009D01*
X154632822Y-39249992D01*
X154630474Y-39227011D01*
X154622322Y-39147203D01*
X154622321Y-39147200D01*
X154567137Y-38980666D01*
X154475035Y-38831344D01*
X154350979Y-38707288D01*
X154201657Y-38615186D01*
X154035120Y-38560001D01*
X154035118Y-38560000D01*
X153932339Y-38549500D01*
X153932332Y-38549500D01*
X153098105Y-38549500D01*
X153031066Y-38529815D01*
X153010424Y-38513181D01*
X151413802Y-36916559D01*
X151413782Y-36916537D01*
X151270108Y-36772863D01*
X151270104Y-36772860D01*
X151106243Y-36663371D01*
X151106234Y-36663366D01*
X151033638Y-36633296D01*
X150977488Y-36610038D01*
X150924159Y-36587949D01*
X150924155Y-36587948D01*
X150924151Y-36587946D01*
X150827511Y-36568724D01*
X150730867Y-36549500D01*
X150730864Y-36549500D01*
X145151459Y-36549500D01*
X145151455Y-36549500D01*
X145054812Y-36568724D01*
X144958167Y-36587947D01*
X144958161Y-36587949D01*
X144904834Y-36610037D01*
X144904834Y-36610038D01*
X144859315Y-36628892D01*
X144776089Y-36663366D01*
X144776079Y-36663371D01*
X144612219Y-36772859D01*
X144566602Y-36818477D01*
X144472861Y-36912218D01*
X144472858Y-36912221D01*
X143362221Y-38022858D01*
X143362218Y-38022861D01*
X143292538Y-38092540D01*
X143222859Y-38162219D01*
X143113371Y-38326079D01*
X143113364Y-38326092D01*
X143037950Y-38508160D01*
X143037947Y-38508170D01*
X142999500Y-38701456D01*
X142999500Y-40334217D01*
X142979815Y-40401256D01*
X142963181Y-40421898D01*
X141945706Y-41439372D01*
X141884383Y-41472857D01*
X141814691Y-41467873D01*
X141758758Y-41426001D01*
X141734341Y-41360537D01*
X141749193Y-41292264D01*
X141752472Y-41286618D01*
X141824814Y-41169334D01*
X141879999Y-41002797D01*
X141890500Y-40900009D01*
X141890499Y-39699992D01*
X141879999Y-39597203D01*
X141824814Y-39430666D01*
X141732712Y-39281344D01*
X141608656Y-39157288D01*
X141471176Y-39072490D01*
X141459336Y-39065187D01*
X141459331Y-39065185D01*
X141457862Y-39064698D01*
X141292797Y-39010001D01*
X141292795Y-39010000D01*
X141190010Y-38999500D01*
X139189998Y-38999500D01*
X139189981Y-38999501D01*
X139087203Y-39010000D01*
X139087200Y-39010001D01*
X138920668Y-39065185D01*
X138920663Y-39065187D01*
X138771345Y-39157287D01*
X138665450Y-39263182D01*
X138604127Y-39296666D01*
X138577769Y-39299500D01*
X137124500Y-39299500D01*
X137057461Y-39279815D01*
X137011706Y-39227011D01*
X137000500Y-39175500D01*
X137000500Y-36107878D01*
X137013488Y-36053778D01*
X137013354Y-36053723D01*
X137013705Y-36052874D01*
X137014016Y-36051581D01*
X137015220Y-36049219D01*
X137078477Y-35854534D01*
X137110500Y-35652352D01*
X137110500Y-35447648D01*
X137078477Y-35245466D01*
X137015220Y-35050781D01*
X137015218Y-35050778D01*
X137015218Y-35050776D01*
X136969531Y-34961112D01*
X136922287Y-34868390D01*
X136914556Y-34857749D01*
X136801971Y-34702786D01*
X136657213Y-34558028D01*
X136491613Y-34437715D01*
X136491612Y-34437714D01*
X136491610Y-34437713D01*
X136434653Y-34408691D01*
X136309223Y-34344781D01*
X136114534Y-34281522D01*
X135939995Y-34253878D01*
X135912352Y-34249500D01*
X135707648Y-34249500D01*
X135683329Y-34253351D01*
X135505465Y-34281522D01*
X135310776Y-34344781D01*
X135128386Y-34437715D01*
X134962786Y-34558028D01*
X134818028Y-34702786D01*
X134697715Y-34868386D01*
X134604781Y-35050776D01*
X134541522Y-35245465D01*
X134509500Y-35447648D01*
X134509500Y-35652351D01*
X134541522Y-35854534D01*
X134604781Y-36049223D01*
X134697715Y-36231613D01*
X134818028Y-36397213D01*
X134963181Y-36542366D01*
X134996666Y-36603689D01*
X134999500Y-36630047D01*
X134999500Y-40174237D01*
X134979815Y-40241276D01*
X134975818Y-40247122D01*
X134887715Y-40368386D01*
X134794781Y-40550778D01*
X134731522Y-40745468D01*
X134708073Y-40893515D01*
X134678143Y-40956649D01*
X134673281Y-40961797D01*
X133246899Y-42388181D01*
X133185576Y-42421666D01*
X133159218Y-42424500D01*
X128926456Y-42424500D01*
X128733171Y-42462946D01*
X128733167Y-42462948D01*
X128733165Y-42462948D01*
X128733164Y-42462949D01*
X128657745Y-42494188D01*
X128657743Y-42494189D01*
X128551089Y-42538366D01*
X128551079Y-42538371D01*
X128387218Y-42647860D01*
X128387214Y-42647863D01*
X124977051Y-46058028D01*
X123862220Y-47172859D01*
X123862218Y-47172861D01*
X123806874Y-47228205D01*
X123722859Y-47312219D01*
X123613371Y-47476079D01*
X123613364Y-47476092D01*
X123537950Y-47658160D01*
X123537947Y-47658170D01*
X123499500Y-47851456D01*
X123499500Y-49737769D01*
X123479815Y-49804808D01*
X123463182Y-49825450D01*
X123357287Y-49931345D01*
X123265187Y-50080663D01*
X123265186Y-50080666D01*
X123210001Y-50247203D01*
X123210001Y-50247204D01*
X123210000Y-50247204D01*
X123199500Y-50349983D01*
X123199500Y-51550001D01*
X123199501Y-51550018D01*
X123210000Y-51652796D01*
X123210001Y-51652799D01*
X123265185Y-51819331D01*
X123265187Y-51819336D01*
X123357289Y-51968657D01*
X123463181Y-52074549D01*
X123496666Y-52135872D01*
X123499500Y-52162230D01*
X123499500Y-61634217D01*
X123479815Y-61701256D01*
X123463181Y-61721898D01*
X121671897Y-63513181D01*
X121610574Y-63546666D01*
X121584216Y-63549500D01*
X119872129Y-63549500D01*
X119872123Y-63549501D01*
X119812516Y-63555908D01*
X119677671Y-63606202D01*
X119677664Y-63606206D01*
X119562455Y-63692452D01*
X119562452Y-63692455D01*
X119476206Y-63807664D01*
X119476202Y-63807671D01*
X119425908Y-63942517D01*
X119419501Y-64002116D01*
X119419501Y-64002123D01*
X119419500Y-64002135D01*
X118000000Y-64002135D01*
X118000000Y-58443713D01*
X119649500Y-58443713D01*
X119649500Y-58656286D01*
X119682753Y-58866239D01*
X119748444Y-59068414D01*
X119844951Y-59257820D01*
X119969890Y-59429786D01*
X120120213Y-59580109D01*
X120292179Y-59705048D01*
X120292181Y-59705049D01*
X120292184Y-59705051D01*
X120481588Y-59801557D01*
X120683757Y-59867246D01*
X120893713Y-59900500D01*
X120893714Y-59900500D01*
X121106286Y-59900500D01*
X121106287Y-59900500D01*
X121316243Y-59867246D01*
X121518412Y-59801557D01*
X121707816Y-59705051D01*
X121729789Y-59689086D01*
X121879786Y-59580109D01*
X121879788Y-59580106D01*
X121879792Y-59580104D01*
X122030104Y-59429792D01*
X122030106Y-59429788D01*
X122030109Y-59429786D01*
X122155048Y-59257820D01*
X122155047Y-59257820D01*
X122155051Y-59257816D01*
X122251557Y-59068412D01*
X122317246Y-58866243D01*
X122350500Y-58656287D01*
X122350500Y-58443713D01*
X122317246Y-58233757D01*
X122251557Y-58031588D01*
X122155051Y-57842184D01*
X122155049Y-57842181D01*
X122155048Y-57842179D01*
X122030109Y-57670213D01*
X121879786Y-57519890D01*
X121707820Y-57394951D01*
X121518414Y-57298444D01*
X121518413Y-57298443D01*
X121518412Y-57298443D01*
X121316243Y-57232754D01*
X121316241Y-57232753D01*
X121316240Y-57232753D01*
X121154957Y-57207208D01*
X121106287Y-57199500D01*
X120893713Y-57199500D01*
X120845042Y-57207208D01*
X120683760Y-57232753D01*
X120481585Y-57298444D01*
X120292179Y-57394951D01*
X120120213Y-57519890D01*
X119969890Y-57670213D01*
X119844951Y-57842179D01*
X119748444Y-58031585D01*
X119682753Y-58233760D01*
X119649500Y-58443713D01*
X118000000Y-58443713D01*
X118000000Y-38939778D01*
X122599500Y-38939778D01*
X122599500Y-39160222D01*
X122613718Y-39249992D01*
X122633985Y-39377952D01*
X122702103Y-39587603D01*
X122702104Y-39587606D01*
X122802187Y-39784025D01*
X122931752Y-39962358D01*
X122931756Y-39962363D01*
X123087636Y-40118243D01*
X123087641Y-40118247D01*
X123164706Y-40174237D01*
X123265978Y-40247815D01*
X123394375Y-40313237D01*
X123462393Y-40347895D01*
X123462396Y-40347896D01*
X123525472Y-40368390D01*
X123672049Y-40416015D01*
X123889778Y-40450500D01*
X123889779Y-40450500D01*
X124110221Y-40450500D01*
X124110222Y-40450500D01*
X124327951Y-40416015D01*
X124537606Y-40347895D01*
X124734022Y-40247815D01*
X124912365Y-40118242D01*
X125068242Y-39962365D01*
X125197815Y-39784022D01*
X125297895Y-39587606D01*
X125366015Y-39377951D01*
X125400500Y-39160222D01*
X125400500Y-38939778D01*
X125379084Y-38804566D01*
X125388038Y-38735276D01*
X125413873Y-38697493D01*
X127405397Y-36705969D01*
X127466718Y-36672486D01*
X127536410Y-36677470D01*
X127549366Y-36683165D01*
X127594125Y-36705971D01*
X127690774Y-36755217D01*
X127690777Y-36755217D01*
X127690781Y-36755220D01*
X127825245Y-36798910D01*
X127885465Y-36818477D01*
X127986557Y-36834488D01*
X128087648Y-36850500D01*
X128087649Y-36850500D01*
X128292351Y-36850500D01*
X128292352Y-36850500D01*
X128494534Y-36818477D01*
X128689219Y-36755220D01*
X128871610Y-36662287D01*
X128973931Y-36587947D01*
X129037213Y-36541971D01*
X129037215Y-36541968D01*
X129037219Y-36541966D01*
X129181966Y-36397219D01*
X129181968Y-36397215D01*
X129181971Y-36397213D01*
X129234732Y-36324590D01*
X129302287Y-36231610D01*
X129393358Y-36052874D01*
X129395218Y-36049223D01*
X129395218Y-36049222D01*
X129395220Y-36049219D01*
X129458477Y-35854534D01*
X129490500Y-35652352D01*
X129490500Y-35447648D01*
X129458477Y-35245466D01*
X129395220Y-35050781D01*
X129395218Y-35050778D01*
X129395218Y-35050776D01*
X129349531Y-34961112D01*
X129302287Y-34868390D01*
X129294556Y-34857749D01*
X129181971Y-34702786D01*
X129037213Y-34558028D01*
X128871613Y-34437715D01*
X128871612Y-34437714D01*
X128871610Y-34437713D01*
X128814653Y-34408691D01*
X128689223Y-34344781D01*
X128494534Y-34281522D01*
X128319995Y-34253878D01*
X128292352Y-34249500D01*
X128087648Y-34249500D01*
X128063329Y-34253351D01*
X127885465Y-34281522D01*
X127690776Y-34344781D01*
X127508386Y-34437715D01*
X127342786Y-34558028D01*
X127198028Y-34702786D01*
X127077713Y-34868388D01*
X127042445Y-34937605D01*
X127019642Y-34968990D01*
X124352508Y-37636122D01*
X124291185Y-37669607D01*
X124245429Y-37670914D01*
X124110227Y-37649500D01*
X124110222Y-37649500D01*
X123889778Y-37649500D01*
X123817201Y-37660995D01*
X123672047Y-37683985D01*
X123462396Y-37752103D01*
X123462393Y-37752104D01*
X123265974Y-37852187D01*
X123087641Y-37981752D01*
X123087636Y-37981756D01*
X122931756Y-38137636D01*
X122931752Y-38137641D01*
X122802187Y-38315974D01*
X122702104Y-38512393D01*
X122702103Y-38512396D01*
X122633985Y-38722047D01*
X122605251Y-38903469D01*
X122599500Y-38939778D01*
X118000000Y-38939778D01*
X118000000Y-31943713D01*
X119649500Y-31943713D01*
X119649500Y-32156286D01*
X119682753Y-32366239D01*
X119748444Y-32568414D01*
X119844951Y-32757820D01*
X119969890Y-32929786D01*
X120120213Y-33080109D01*
X120292179Y-33205048D01*
X120292181Y-33205049D01*
X120292184Y-33205051D01*
X120481588Y-33301557D01*
X120683757Y-33367246D01*
X120893713Y-33400500D01*
X120893714Y-33400500D01*
X121106286Y-33400500D01*
X121106287Y-33400500D01*
X121316243Y-33367246D01*
X121518412Y-33301557D01*
X121707816Y-33205051D01*
X121773290Y-33157482D01*
X121879786Y-33080109D01*
X121879788Y-33080106D01*
X121879792Y-33080104D01*
X122030104Y-32929792D01*
X122030106Y-32929788D01*
X122030109Y-32929786D01*
X122155048Y-32757820D01*
X122155047Y-32757820D01*
X122155051Y-32757816D01*
X122251557Y-32568412D01*
X122317246Y-32366243D01*
X122350500Y-32156287D01*
X122350500Y-31943713D01*
X122317246Y-31733757D01*
X122251557Y-31531588D01*
X122155051Y-31342184D01*
X122155049Y-31342181D01*
X122155048Y-31342179D01*
X122030109Y-31170213D01*
X121879786Y-31019890D01*
X121707820Y-30894951D01*
X121518414Y-30798444D01*
X121518413Y-30798443D01*
X121518412Y-30798443D01*
X121316243Y-30732754D01*
X121316241Y-30732753D01*
X121316240Y-30732753D01*
X121154957Y-30707208D01*
X121106287Y-30699500D01*
X120893713Y-30699500D01*
X120845042Y-30707208D01*
X120683760Y-30732753D01*
X120481585Y-30798444D01*
X120292179Y-30894951D01*
X120120213Y-31019890D01*
X119969890Y-31170213D01*
X119844951Y-31342179D01*
X119748444Y-31531585D01*
X119682753Y-31733760D01*
X119649500Y-31943713D01*
X118000000Y-31943713D01*
X118000000Y-29624500D01*
X118019685Y-29557461D01*
X118072489Y-29511706D01*
X118124000Y-29500500D01*
X144228429Y-29500500D01*
X144295468Y-29520185D01*
G37*
%TD.AperFunction*%
%TD*%
%TA.AperFunction,Conductor*%
%TO.N,GND*%
G36*
X114943039Y-71019685D02*
G01*
X114988794Y-71072489D01*
X115000000Y-71124000D01*
X115000000Y-109375500D01*
X114980315Y-109442539D01*
X114927511Y-109488294D01*
X114876000Y-109499500D01*
X107996432Y-109499500D01*
X107929393Y-109479815D01*
X107883638Y-109427011D01*
X107873694Y-109357853D01*
X107897165Y-109301190D01*
X107900679Y-109296494D01*
X107903796Y-109292331D01*
X107954091Y-109157483D01*
X107960500Y-109097873D01*
X107960499Y-106002128D01*
X107954091Y-105942517D01*
X107941235Y-105908049D01*
X107903797Y-105807671D01*
X107903793Y-105807664D01*
X107817547Y-105692455D01*
X107817544Y-105692452D01*
X107702335Y-105606206D01*
X107702328Y-105606202D01*
X107567482Y-105555908D01*
X107567483Y-105555908D01*
X107507883Y-105549501D01*
X107507881Y-105549500D01*
X107507873Y-105549500D01*
X107507864Y-105549500D01*
X104412129Y-105549500D01*
X104412123Y-105549501D01*
X104352516Y-105555908D01*
X104217671Y-105606202D01*
X104217664Y-105606206D01*
X104102455Y-105692452D01*
X104102452Y-105692455D01*
X104016206Y-105807664D01*
X104016202Y-105807671D01*
X103965908Y-105942517D01*
X103959501Y-106002116D01*
X103959500Y-106002127D01*
X103959500Y-107190516D01*
X103959501Y-108346500D01*
X103939816Y-108413539D01*
X103887013Y-108459294D01*
X103835501Y-108470500D01*
X94458910Y-108470500D01*
X94391871Y-108450815D01*
X94346116Y-108398011D01*
X94336172Y-108328853D01*
X94360534Y-108271014D01*
X94375300Y-108251768D01*
X94391950Y-108230071D01*
X94501440Y-108040428D01*
X94585241Y-107838117D01*
X94641917Y-107626598D01*
X94670500Y-107409490D01*
X94670500Y-107190510D01*
X94641917Y-106973402D01*
X94585241Y-106761883D01*
X94501440Y-106559572D01*
X94500591Y-106558102D01*
X94391950Y-106369929D01*
X94258644Y-106196201D01*
X94258638Y-106196194D01*
X94103805Y-106041361D01*
X94103798Y-106041355D01*
X93930070Y-105908049D01*
X93812500Y-105840170D01*
X93764284Y-105789603D01*
X93750500Y-105732783D01*
X93750500Y-105412229D01*
X93770185Y-105345190D01*
X93786819Y-105324548D01*
X98667654Y-100443713D01*
X110649500Y-100443713D01*
X110649500Y-100656286D01*
X110682753Y-100866239D01*
X110748444Y-101068414D01*
X110844951Y-101257820D01*
X110969890Y-101429786D01*
X111120213Y-101580109D01*
X111292179Y-101705048D01*
X111292181Y-101705049D01*
X111292184Y-101705051D01*
X111481588Y-101801557D01*
X111683757Y-101867246D01*
X111893713Y-101900500D01*
X111893714Y-101900500D01*
X112106286Y-101900500D01*
X112106287Y-101900500D01*
X112316243Y-101867246D01*
X112518412Y-101801557D01*
X112707816Y-101705051D01*
X112729789Y-101689086D01*
X112879786Y-101580109D01*
X112879788Y-101580106D01*
X112879792Y-101580104D01*
X113030104Y-101429792D01*
X113030106Y-101429788D01*
X113030109Y-101429786D01*
X113155048Y-101257820D01*
X113155047Y-101257820D01*
X113155051Y-101257816D01*
X113251557Y-101068412D01*
X113317246Y-100866243D01*
X113350500Y-100656287D01*
X113350500Y-100443713D01*
X113317246Y-100233757D01*
X113251557Y-100031588D01*
X113155051Y-99842184D01*
X113155049Y-99842181D01*
X113155048Y-99842179D01*
X113030109Y-99670213D01*
X112879786Y-99519890D01*
X112707820Y-99394951D01*
X112518414Y-99298444D01*
X112518413Y-99298443D01*
X112518412Y-99298443D01*
X112316243Y-99232754D01*
X112316241Y-99232753D01*
X112316240Y-99232753D01*
X112154957Y-99207208D01*
X112106287Y-99199500D01*
X111893713Y-99199500D01*
X111845042Y-99207208D01*
X111683760Y-99232753D01*
X111481585Y-99298444D01*
X111292179Y-99394951D01*
X111120213Y-99519890D01*
X110969890Y-99670213D01*
X110844951Y-99842179D01*
X110748444Y-100031585D01*
X110682753Y-100233760D01*
X110649500Y-100443713D01*
X98667654Y-100443713D01*
X98760207Y-100351160D01*
X98877610Y-100233757D01*
X99082952Y-100028415D01*
X99110205Y-99987627D01*
X99165084Y-99905495D01*
X99191308Y-99842184D01*
X99221659Y-99768912D01*
X99250500Y-99623917D01*
X99250500Y-99476082D01*
X99250500Y-99175416D01*
X99270185Y-99108377D01*
X99301613Y-99075099D01*
X99347219Y-99041966D01*
X99491966Y-98897219D01*
X99491968Y-98897215D01*
X99491971Y-98897213D01*
X99562236Y-98800500D01*
X99612287Y-98731610D01*
X99705220Y-98549219D01*
X99768477Y-98354534D01*
X99800500Y-98152352D01*
X99800500Y-97947648D01*
X99768477Y-97745466D01*
X99705220Y-97550781D01*
X99705218Y-97550778D01*
X99705218Y-97550776D01*
X99638244Y-97419334D01*
X99612287Y-97368390D01*
X99557008Y-97292304D01*
X99491971Y-97202786D01*
X99347213Y-97058028D01*
X99181613Y-96937715D01*
X99181612Y-96937714D01*
X99181610Y-96937713D01*
X99124653Y-96908691D01*
X98999223Y-96844781D01*
X98804534Y-96781522D01*
X98629995Y-96753878D01*
X98602352Y-96749500D01*
X98397648Y-96749500D01*
X98373329Y-96753351D01*
X98195465Y-96781522D01*
X98000776Y-96844781D01*
X97818386Y-96937715D01*
X97652786Y-97058028D01*
X97508028Y-97202786D01*
X97387715Y-97368386D01*
X97294781Y-97550776D01*
X97231522Y-97745465D01*
X97199500Y-97947648D01*
X97199500Y-98152351D01*
X97231522Y-98354534D01*
X97294781Y-98549223D01*
X97387715Y-98731613D01*
X97508028Y-98897213D01*
X97508034Y-98897219D01*
X97652781Y-99041966D01*
X97698384Y-99075098D01*
X97701724Y-99079429D01*
X97706703Y-99081703D01*
X97722832Y-99106801D01*
X97741050Y-99130425D01*
X97742303Y-99137098D01*
X97744477Y-99140481D01*
X97749500Y-99175416D01*
X97749500Y-99187769D01*
X97729815Y-99254808D01*
X97713181Y-99275450D01*
X92417050Y-104571580D01*
X92417044Y-104571588D01*
X92367812Y-104645268D01*
X92367813Y-104645269D01*
X92334921Y-104694496D01*
X92334916Y-104694506D01*
X92278342Y-104831086D01*
X92278340Y-104831092D01*
X92249500Y-104976079D01*
X92249500Y-105732783D01*
X92229815Y-105799822D01*
X92187500Y-105840170D01*
X92069929Y-105908049D01*
X91896201Y-106041355D01*
X91896194Y-106041361D01*
X91741361Y-106196194D01*
X91741355Y-106196201D01*
X91608049Y-106369929D01*
X91498565Y-106559561D01*
X91498560Y-106559573D01*
X91414758Y-106761884D01*
X91358084Y-106973399D01*
X91358082Y-106973410D01*
X91329500Y-107190502D01*
X91329500Y-107409497D01*
X91353306Y-107590314D01*
X91358083Y-107626598D01*
X91386421Y-107732357D01*
X91404180Y-107798638D01*
X91414759Y-107838117D01*
X91498560Y-108040428D01*
X91498562Y-108040433D01*
X91498565Y-108040438D01*
X91608049Y-108230070D01*
X91639466Y-108271014D01*
X91664660Y-108336184D01*
X91650621Y-108404628D01*
X91601807Y-108454618D01*
X91541090Y-108470500D01*
X90383229Y-108470500D01*
X90316190Y-108450815D01*
X90295548Y-108434181D01*
X89660006Y-107798638D01*
X89626521Y-107737315D01*
X89627912Y-107678863D01*
X89641916Y-107626600D01*
X89641917Y-107626598D01*
X89670500Y-107409490D01*
X89670500Y-107190510D01*
X89641917Y-106973402D01*
X89585241Y-106761883D01*
X89501440Y-106559572D01*
X89500591Y-106558102D01*
X89391950Y-106369929D01*
X89258644Y-106196201D01*
X89258638Y-106196194D01*
X89103805Y-106041361D01*
X89103798Y-106041355D01*
X88930070Y-105908049D01*
X88740438Y-105798565D01*
X88740433Y-105798562D01*
X88740428Y-105798560D01*
X88538117Y-105714759D01*
X88538118Y-105714759D01*
X88538115Y-105714758D01*
X88432357Y-105686421D01*
X88326598Y-105658083D01*
X88290314Y-105653306D01*
X88109497Y-105629500D01*
X88109490Y-105629500D01*
X87890510Y-105629500D01*
X87890502Y-105629500D01*
X87683853Y-105656707D01*
X87673402Y-105658083D01*
X87628699Y-105670060D01*
X87461884Y-105714758D01*
X87343374Y-105763847D01*
X87259572Y-105798560D01*
X87259569Y-105798561D01*
X87259561Y-105798565D01*
X87069929Y-105908049D01*
X86896201Y-106041355D01*
X86896194Y-106041361D01*
X86741361Y-106196194D01*
X86741355Y-106196201D01*
X86608049Y-106369929D01*
X86498565Y-106559561D01*
X86498560Y-106559573D01*
X86414758Y-106761884D01*
X86358084Y-106973399D01*
X86358082Y-106973410D01*
X86329500Y-107190502D01*
X86329500Y-107409497D01*
X86353306Y-107590314D01*
X86358083Y-107626598D01*
X86386421Y-107732357D01*
X86404180Y-107798638D01*
X86414759Y-107838117D01*
X86498560Y-108040428D01*
X86498562Y-108040433D01*
X86498565Y-108040438D01*
X86608049Y-108230070D01*
X86741355Y-108403798D01*
X86741361Y-108403805D01*
X86896194Y-108558638D01*
X86896201Y-108558644D01*
X87069929Y-108691950D01*
X87259561Y-108801434D01*
X87259563Y-108801434D01*
X87259572Y-108801440D01*
X87461883Y-108885241D01*
X87673402Y-108941917D01*
X87890510Y-108970500D01*
X87890517Y-108970500D01*
X88109483Y-108970500D01*
X88109490Y-108970500D01*
X88326598Y-108941917D01*
X88536601Y-108885647D01*
X88606448Y-108887310D01*
X88656373Y-108917741D01*
X88896115Y-109157483D01*
X89026452Y-109287819D01*
X89059937Y-109349142D01*
X89054953Y-109418833D01*
X89013082Y-109474767D01*
X88947617Y-109499184D01*
X88938771Y-109499500D01*
X77456432Y-109499500D01*
X77389393Y-109479815D01*
X77343638Y-109427011D01*
X77333694Y-109357853D01*
X77357165Y-109301190D01*
X77360679Y-109296494D01*
X77363796Y-109292331D01*
X77414091Y-109157483D01*
X77420500Y-109097873D01*
X77420499Y-106645782D01*
X77440184Y-106578744D01*
X77456818Y-106558102D01*
X78356837Y-105658084D01*
X79277140Y-104737781D01*
X79306056Y-104694505D01*
X79386632Y-104573914D01*
X79462051Y-104391835D01*
X79500500Y-104198541D01*
X79500500Y-95447648D01*
X88199500Y-95447648D01*
X88199500Y-95652351D01*
X88231522Y-95854534D01*
X88294781Y-96049223D01*
X88387715Y-96231613D01*
X88508028Y-96397213D01*
X88652786Y-96541971D01*
X88807749Y-96654556D01*
X88818390Y-96662287D01*
X88934607Y-96721503D01*
X89000776Y-96755218D01*
X89000778Y-96755218D01*
X89000781Y-96755220D01*
X89105137Y-96789127D01*
X89195465Y-96818477D01*
X89279564Y-96831797D01*
X89397648Y-96850500D01*
X89397649Y-96850500D01*
X89602350Y-96850500D01*
X89602352Y-96850500D01*
X89658026Y-96841681D01*
X89727318Y-96850635D01*
X89765105Y-96876473D01*
X91521586Y-98632954D01*
X91551058Y-98652645D01*
X91595270Y-98682186D01*
X91644505Y-98715084D01*
X91644506Y-98715084D01*
X91644507Y-98715085D01*
X91644509Y-98715086D01*
X91781082Y-98771656D01*
X91781087Y-98771658D01*
X91781091Y-98771658D01*
X91781092Y-98771659D01*
X91926079Y-98800500D01*
X91926082Y-98800500D01*
X91926083Y-98800500D01*
X92073917Y-98800500D01*
X92374582Y-98800500D01*
X92441621Y-98820185D01*
X92474900Y-98851615D01*
X92508028Y-98897212D01*
X92508032Y-98897217D01*
X92652786Y-99041971D01*
X92774535Y-99130425D01*
X92818390Y-99162287D01*
X92891425Y-99199500D01*
X93000776Y-99255218D01*
X93000778Y-99255218D01*
X93000781Y-99255220D01*
X93063043Y-99275450D01*
X93195465Y-99318477D01*
X93296557Y-99334488D01*
X93397648Y-99350500D01*
X93397649Y-99350500D01*
X93602351Y-99350500D01*
X93602352Y-99350500D01*
X93804534Y-99318477D01*
X93999219Y-99255220D01*
X94181610Y-99162287D01*
X94301619Y-99075096D01*
X94347213Y-99041971D01*
X94347215Y-99041968D01*
X94347219Y-99041966D01*
X94491966Y-98897219D01*
X94491968Y-98897215D01*
X94491971Y-98897213D01*
X94562236Y-98800500D01*
X94612287Y-98731610D01*
X94705220Y-98549219D01*
X94768477Y-98354534D01*
X94800500Y-98152352D01*
X94800500Y-97947648D01*
X94768477Y-97745466D01*
X94705220Y-97550781D01*
X94705218Y-97550778D01*
X94705218Y-97550776D01*
X94638244Y-97419334D01*
X94612287Y-97368390D01*
X94557008Y-97292304D01*
X94491971Y-97202786D01*
X94347213Y-97058028D01*
X94181613Y-96937715D01*
X94181612Y-96937714D01*
X94181610Y-96937713D01*
X94124653Y-96908691D01*
X93999223Y-96844781D01*
X93804534Y-96781522D01*
X93629995Y-96753878D01*
X93602352Y-96749500D01*
X93397648Y-96749500D01*
X93373329Y-96753351D01*
X93195465Y-96781522D01*
X93000776Y-96844781D01*
X92818386Y-96937715D01*
X92652786Y-97058028D01*
X92508032Y-97202782D01*
X92508028Y-97202787D01*
X92474900Y-97248385D01*
X92470568Y-97251725D01*
X92468295Y-97256703D01*
X92443195Y-97272833D01*
X92419571Y-97291051D01*
X92412897Y-97292304D01*
X92409517Y-97294477D01*
X92374582Y-97299500D01*
X92362230Y-97299500D01*
X92295191Y-97279815D01*
X92274549Y-97263181D01*
X90826473Y-95815105D01*
X90792988Y-95753782D01*
X90791681Y-95708027D01*
X90800500Y-95652352D01*
X90800500Y-95447648D01*
X90779520Y-95315186D01*
X90768477Y-95245465D01*
X90739127Y-95155137D01*
X90705220Y-95050781D01*
X90705218Y-95050778D01*
X90705218Y-95050776D01*
X90649720Y-94941857D01*
X90612287Y-94868390D01*
X90576355Y-94818933D01*
X90491971Y-94702786D01*
X90347213Y-94558028D01*
X90181613Y-94437715D01*
X90181612Y-94437714D01*
X90181610Y-94437713D01*
X90124653Y-94408691D01*
X89999223Y-94344781D01*
X89804534Y-94281522D01*
X89629995Y-94253878D01*
X89602352Y-94249500D01*
X89397648Y-94249500D01*
X89373329Y-94253351D01*
X89195465Y-94281522D01*
X89000776Y-94344781D01*
X88818386Y-94437715D01*
X88652786Y-94558028D01*
X88508028Y-94702786D01*
X88387715Y-94868386D01*
X88294781Y-95050776D01*
X88231522Y-95245465D01*
X88199500Y-95447648D01*
X79500500Y-95447648D01*
X79500500Y-94162230D01*
X79520185Y-94095191D01*
X79536819Y-94074549D01*
X79546288Y-94065080D01*
X79642712Y-93968656D01*
X79734814Y-93819334D01*
X79789999Y-93652797D01*
X79800500Y-93550009D01*
X79800499Y-92349992D01*
X79789999Y-92247203D01*
X79734814Y-92080666D01*
X79642712Y-91931344D01*
X79536818Y-91825450D01*
X79503334Y-91764127D01*
X79500500Y-91737769D01*
X79500500Y-90415782D01*
X79520185Y-90348743D01*
X79536819Y-90328101D01*
X83403102Y-86461819D01*
X83464425Y-86428334D01*
X83490783Y-86425500D01*
X87723542Y-86425500D01*
X87754566Y-86419328D01*
X87820188Y-86406275D01*
X87916836Y-86387051D01*
X87970165Y-86364961D01*
X88098914Y-86311632D01*
X88262782Y-86202139D01*
X88402139Y-86062782D01*
X88402140Y-86062779D01*
X88409206Y-86055714D01*
X88409209Y-86055710D01*
X90088203Y-84376715D01*
X90149524Y-84343232D01*
X90156473Y-84341927D01*
X90304534Y-84318477D01*
X90499219Y-84255220D01*
X90681610Y-84162287D01*
X90774590Y-84094732D01*
X90847213Y-84041971D01*
X90847215Y-84041968D01*
X90847219Y-84041966D01*
X90991966Y-83897219D01*
X90991968Y-83897215D01*
X90991971Y-83897213D01*
X91044732Y-83824590D01*
X91112287Y-83731610D01*
X91205220Y-83549219D01*
X91258194Y-83386182D01*
X91297632Y-83328506D01*
X91361990Y-83301308D01*
X91376125Y-83300500D01*
X92577769Y-83300500D01*
X92644808Y-83320185D01*
X92665450Y-83336818D01*
X92771344Y-83442712D01*
X92920666Y-83534814D01*
X93002570Y-83561954D01*
X93060015Y-83601727D01*
X93086838Y-83666243D01*
X93074523Y-83735018D01*
X93036451Y-83779978D01*
X92942787Y-83848028D01*
X92942782Y-83848032D01*
X92798028Y-83992786D01*
X92677715Y-84158386D01*
X92584781Y-84340776D01*
X92521522Y-84535465D01*
X92489500Y-84737648D01*
X92489500Y-84942351D01*
X92521522Y-85144534D01*
X92584781Y-85339223D01*
X92648691Y-85464653D01*
X92655381Y-85477782D01*
X92677715Y-85521613D01*
X92798028Y-85687213D01*
X92942786Y-85831971D01*
X93097749Y-85944556D01*
X93108390Y-85952287D01*
X93199840Y-85998883D01*
X93201080Y-85999515D01*
X93251876Y-86047490D01*
X93268671Y-86115311D01*
X93246134Y-86181446D01*
X93201080Y-86220485D01*
X93108386Y-86267715D01*
X92942786Y-86388028D01*
X92798028Y-86532786D01*
X92677715Y-86698386D01*
X92584781Y-86880776D01*
X92521522Y-87075465D01*
X92489500Y-87277648D01*
X92489500Y-87482351D01*
X92521522Y-87684534D01*
X92584781Y-87879223D01*
X92614584Y-87937713D01*
X92662805Y-88032352D01*
X92677715Y-88061613D01*
X92798028Y-88227213D01*
X92942786Y-88371971D01*
X93073654Y-88467050D01*
X93108390Y-88492287D01*
X93199840Y-88538883D01*
X93201080Y-88539515D01*
X93251876Y-88587490D01*
X93268671Y-88655311D01*
X93246134Y-88721446D01*
X93201080Y-88760485D01*
X93108386Y-88807715D01*
X92942786Y-88928028D01*
X92798032Y-89072782D01*
X92798028Y-89072787D01*
X92764900Y-89118385D01*
X92709571Y-89161051D01*
X92664582Y-89169500D01*
X91732229Y-89169500D01*
X91665190Y-89149815D01*
X91644548Y-89133181D01*
X90810066Y-88298699D01*
X90776581Y-88237376D01*
X90775274Y-88191620D01*
X90800500Y-88032351D01*
X90800500Y-87827648D01*
X90768477Y-87625465D01*
X90717004Y-87467048D01*
X90705220Y-87430781D01*
X90705218Y-87430778D01*
X90705218Y-87430776D01*
X90641683Y-87306083D01*
X90612287Y-87248390D01*
X90583190Y-87208341D01*
X90491971Y-87082786D01*
X90347213Y-86938028D01*
X90181613Y-86817715D01*
X90181612Y-86817714D01*
X90181610Y-86817713D01*
X90107231Y-86779815D01*
X89999223Y-86724781D01*
X89804534Y-86661522D01*
X89629995Y-86633878D01*
X89602352Y-86629500D01*
X89397648Y-86629500D01*
X89373329Y-86633351D01*
X89195465Y-86661522D01*
X89000776Y-86724781D01*
X88818386Y-86817715D01*
X88652786Y-86938028D01*
X88508032Y-87082782D01*
X88508028Y-87082787D01*
X88474900Y-87128385D01*
X88419571Y-87171051D01*
X88374582Y-87179500D01*
X85566798Y-87179500D01*
X85537964Y-87185234D01*
X85537965Y-87185235D01*
X85421815Y-87208339D01*
X85421805Y-87208342D01*
X85341803Y-87241479D01*
X85341804Y-87241480D01*
X85285228Y-87264915D01*
X85223616Y-87306083D01*
X85162305Y-87347049D01*
X85162300Y-87347053D01*
X85092664Y-87416688D01*
X85073876Y-87432107D01*
X85021585Y-87467047D01*
X85021579Y-87467052D01*
X84765105Y-87723526D01*
X84703782Y-87757011D01*
X84658026Y-87758318D01*
X84602352Y-87749500D01*
X84397648Y-87749500D01*
X84373329Y-87753351D01*
X84195465Y-87781522D01*
X84000776Y-87844781D01*
X83818386Y-87937715D01*
X83652786Y-88058028D01*
X83508028Y-88202786D01*
X83387715Y-88368386D01*
X83294781Y-88550776D01*
X83231522Y-88745465D01*
X83199500Y-88947648D01*
X83199500Y-89152351D01*
X83231522Y-89354534D01*
X83294781Y-89549223D01*
X83387715Y-89731613D01*
X83508028Y-89897213D01*
X83652786Y-90041971D01*
X83807749Y-90154556D01*
X83818390Y-90162287D01*
X83934607Y-90221503D01*
X84000776Y-90255218D01*
X84000778Y-90255218D01*
X84000781Y-90255220D01*
X84105137Y-90289127D01*
X84195465Y-90318477D01*
X84296557Y-90334488D01*
X84397648Y-90350500D01*
X84397649Y-90350500D01*
X84602351Y-90350500D01*
X84602352Y-90350500D01*
X84804534Y-90318477D01*
X84999219Y-90255220D01*
X85181610Y-90162287D01*
X85274590Y-90094732D01*
X85347213Y-90041971D01*
X85347215Y-90041968D01*
X85347219Y-90041966D01*
X85491966Y-89897219D01*
X85491968Y-89897215D01*
X85491971Y-89897213D01*
X85549777Y-89817648D01*
X85612287Y-89731610D01*
X85705220Y-89549219D01*
X85768477Y-89354534D01*
X85800500Y-89152352D01*
X85800500Y-88947648D01*
X85791681Y-88891971D01*
X85792382Y-88886545D01*
X85790470Y-88881418D01*
X85796811Y-88852269D01*
X85800635Y-88822680D01*
X85804468Y-88817073D01*
X85805323Y-88813146D01*
X85826470Y-88784896D01*
X85894550Y-88716817D01*
X85955874Y-88683333D01*
X85982230Y-88680500D01*
X88374582Y-88680500D01*
X88441621Y-88700185D01*
X88474900Y-88731615D01*
X88508028Y-88777212D01*
X88508032Y-88777217D01*
X88652786Y-88921971D01*
X88807749Y-89034556D01*
X88818390Y-89042287D01*
X88878248Y-89072786D01*
X89000776Y-89135218D01*
X89000778Y-89135218D01*
X89000781Y-89135220D01*
X89045700Y-89149815D01*
X89195465Y-89198477D01*
X89296557Y-89214488D01*
X89397648Y-89230500D01*
X89397649Y-89230500D01*
X89567770Y-89230500D01*
X89634809Y-89250185D01*
X89655451Y-89266819D01*
X90891580Y-90502948D01*
X90891584Y-90502951D01*
X91014498Y-90585080D01*
X91014511Y-90585087D01*
X91151082Y-90641656D01*
X91151087Y-90641658D01*
X91151091Y-90641658D01*
X91151092Y-90641659D01*
X91296079Y-90670500D01*
X91296082Y-90670500D01*
X91443917Y-90670500D01*
X92664582Y-90670500D01*
X92731621Y-90690185D01*
X92764900Y-90721615D01*
X92798028Y-90767212D01*
X92798032Y-90767217D01*
X92942786Y-90911971D01*
X93097749Y-91024556D01*
X93108390Y-91032287D01*
X93224607Y-91091503D01*
X93290776Y-91125218D01*
X93290778Y-91125218D01*
X93290781Y-91125220D01*
X93395137Y-91159127D01*
X93485465Y-91188477D01*
X93586557Y-91204488D01*
X93687648Y-91220500D01*
X93687649Y-91220500D01*
X94692351Y-91220500D01*
X94692352Y-91220500D01*
X94894534Y-91188477D01*
X95089219Y-91125220D01*
X95271610Y-91032287D01*
X95364590Y-90964732D01*
X95437213Y-90911971D01*
X95437215Y-90911968D01*
X95437219Y-90911966D01*
X95581966Y-90767219D01*
X95581968Y-90767215D01*
X95581971Y-90767213D01*
X95652236Y-90670500D01*
X95702287Y-90601610D01*
X95795220Y-90419219D01*
X95858477Y-90224534D01*
X95890500Y-90022352D01*
X95890500Y-89817648D01*
X95858477Y-89615466D01*
X95795220Y-89420781D01*
X95795218Y-89420778D01*
X95795218Y-89420776D01*
X95746187Y-89324548D01*
X95702287Y-89238390D01*
X95654678Y-89172861D01*
X95581971Y-89072786D01*
X95437213Y-88928028D01*
X95271614Y-88807715D01*
X95211758Y-88777217D01*
X95178917Y-88760483D01*
X95128123Y-88712511D01*
X95111328Y-88644690D01*
X95133865Y-88578555D01*
X95178917Y-88539516D01*
X95271610Y-88492287D01*
X95306347Y-88467049D01*
X95437213Y-88371971D01*
X95437215Y-88371968D01*
X95437219Y-88371966D01*
X95472366Y-88336819D01*
X95533689Y-88303334D01*
X95560047Y-88300500D01*
X96137770Y-88300500D01*
X96204809Y-88320185D01*
X96225451Y-88336819D01*
X97213181Y-89324548D01*
X97246666Y-89385871D01*
X97249500Y-89412229D01*
X97249500Y-92123918D01*
X97249500Y-92123920D01*
X97249499Y-92123920D01*
X97278340Y-92268907D01*
X97278343Y-92268917D01*
X97334914Y-92405492D01*
X97367812Y-92454727D01*
X97367813Y-92454730D01*
X97417046Y-92528414D01*
X97417052Y-92528421D01*
X98871580Y-93982948D01*
X98871584Y-93982951D01*
X98994498Y-94065080D01*
X98994511Y-94065087D01*
X99088239Y-94103910D01*
X99131087Y-94121658D01*
X99131091Y-94121658D01*
X99131092Y-94121659D01*
X99276079Y-94150500D01*
X99276082Y-94150500D01*
X99423917Y-94150500D01*
X100937770Y-94150500D01*
X101004809Y-94170185D01*
X101025451Y-94186819D01*
X102124625Y-95285992D01*
X102158110Y-95347315D01*
X102153126Y-95417007D01*
X102124626Y-95461353D01*
X102054638Y-95531342D01*
X101962536Y-95680663D01*
X101962535Y-95680666D01*
X101907350Y-95847203D01*
X101907350Y-95847204D01*
X101907349Y-95847204D01*
X101896849Y-95949983D01*
X101896849Y-97150001D01*
X101896850Y-97150018D01*
X101907349Y-97252796D01*
X101907350Y-97252799D01*
X101945652Y-97368386D01*
X101962535Y-97419334D01*
X102054637Y-97568656D01*
X102178693Y-97692712D01*
X102328015Y-97784814D01*
X102494552Y-97839999D01*
X102597340Y-97850500D01*
X103797357Y-97850499D01*
X103900146Y-97839999D01*
X104066683Y-97784814D01*
X104216005Y-97692712D01*
X104340061Y-97568656D01*
X104432163Y-97419334D01*
X104487348Y-97252797D01*
X104497849Y-97150009D01*
X104497848Y-95949992D01*
X104487348Y-95847203D01*
X104432163Y-95680666D01*
X104340061Y-95531344D01*
X104216005Y-95407288D01*
X104066683Y-95315186D01*
X104052229Y-95310396D01*
X104027529Y-95302211D01*
X104017292Y-95295123D01*
X104005175Y-95292260D01*
X103989107Y-95275609D01*
X103970085Y-95262438D01*
X103964131Y-95249725D01*
X103956659Y-95241981D01*
X103944918Y-95208697D01*
X103927962Y-95123453D01*
X103919008Y-95078437D01*
X103876562Y-94975965D01*
X103862433Y-94941854D01*
X103813343Y-94868386D01*
X103780303Y-94818937D01*
X103780302Y-94818936D01*
X103780300Y-94818933D01*
X103675765Y-94714398D01*
X103210867Y-94249500D01*
X101778421Y-92817052D01*
X101778414Y-92817046D01*
X101704729Y-92767812D01*
X101704729Y-92767813D01*
X101655491Y-92734913D01*
X101518917Y-92678343D01*
X101518907Y-92678340D01*
X101373920Y-92649500D01*
X101373918Y-92649500D01*
X99712229Y-92649500D01*
X99645190Y-92629815D01*
X99624548Y-92613181D01*
X98786819Y-91775451D01*
X98753334Y-91714128D01*
X98750500Y-91687770D01*
X98750500Y-88976079D01*
X98721659Y-88831092D01*
X98721658Y-88831091D01*
X98721658Y-88831087D01*
X98699345Y-88777219D01*
X98665087Y-88694511D01*
X98665080Y-88694498D01*
X98582952Y-88571585D01*
X98550882Y-88539515D01*
X98478416Y-88467049D01*
X98202987Y-88191620D01*
X96978421Y-86967052D01*
X96978420Y-86967051D01*
X96978416Y-86967048D01*
X96880440Y-86901584D01*
X96880438Y-86901581D01*
X96855495Y-86884916D01*
X96855490Y-86884913D01*
X96718917Y-86828343D01*
X96718907Y-86828340D01*
X96573920Y-86799500D01*
X96573918Y-86799500D01*
X95829793Y-86799500D01*
X95762754Y-86779815D01*
X95719309Y-86731796D01*
X95702286Y-86698388D01*
X95581971Y-86532786D01*
X95437213Y-86388028D01*
X95271614Y-86267715D01*
X95265006Y-86264348D01*
X95178917Y-86220483D01*
X95128123Y-86172511D01*
X95111328Y-86104690D01*
X95133865Y-86038555D01*
X95178917Y-85999516D01*
X95271610Y-85952287D01*
X95392877Y-85864181D01*
X95458683Y-85840702D01*
X95465762Y-85840500D01*
X96058542Y-85840500D01*
X96089566Y-85834328D01*
X96155188Y-85821275D01*
X96251836Y-85802051D01*
X96305165Y-85779961D01*
X96433914Y-85726632D01*
X96597782Y-85617139D01*
X96737139Y-85477782D01*
X96737139Y-85477780D01*
X96747347Y-85467573D01*
X96747348Y-85467570D01*
X98777140Y-83437781D01*
X98886632Y-83273914D01*
X98962052Y-83091835D01*
X99000500Y-82898540D01*
X99000500Y-82701459D01*
X99000500Y-81265782D01*
X99020185Y-81198743D01*
X99036819Y-81178101D01*
X99628101Y-80586819D01*
X99689424Y-80553334D01*
X99715782Y-80550500D01*
X104166541Y-80550500D01*
X104233580Y-80570185D01*
X104254222Y-80586819D01*
X105595504Y-81928101D01*
X105628989Y-81989424D01*
X105631823Y-82015782D01*
X105631823Y-82850001D01*
X105631824Y-82850019D01*
X105642323Y-82952796D01*
X105642324Y-82952799D01*
X105667082Y-83027512D01*
X105697509Y-83119334D01*
X105789611Y-83268656D01*
X105913667Y-83392712D01*
X106062989Y-83484814D01*
X106229526Y-83539999D01*
X106332314Y-83550500D01*
X107932331Y-83550499D01*
X107944862Y-83549219D01*
X107950218Y-83548671D01*
X108035120Y-83539999D01*
X108201657Y-83484814D01*
X108350979Y-83392712D01*
X108475035Y-83268656D01*
X108567137Y-83119334D01*
X108622322Y-82952797D01*
X108632823Y-82850009D01*
X108632822Y-81249992D01*
X108630474Y-81227011D01*
X108622322Y-81147203D01*
X108622321Y-81147200D01*
X108567137Y-80980666D01*
X108475035Y-80831344D01*
X108350979Y-80707288D01*
X108201657Y-80615186D01*
X108035120Y-80560001D01*
X108035118Y-80560000D01*
X107932339Y-80549500D01*
X107932332Y-80549500D01*
X107098105Y-80549500D01*
X107031066Y-80529815D01*
X107010424Y-80513181D01*
X105413802Y-78916559D01*
X105413782Y-78916537D01*
X105270108Y-78772863D01*
X105270104Y-78772860D01*
X105106243Y-78663371D01*
X105106234Y-78663366D01*
X105033638Y-78633296D01*
X104977488Y-78610038D01*
X104924159Y-78587949D01*
X104924155Y-78587948D01*
X104924151Y-78587946D01*
X104827511Y-78568724D01*
X104730867Y-78549500D01*
X104730864Y-78549500D01*
X99151459Y-78549500D01*
X99151455Y-78549500D01*
X99054812Y-78568724D01*
X98958167Y-78587947D01*
X98958161Y-78587949D01*
X98904834Y-78610037D01*
X98904834Y-78610038D01*
X98859315Y-78628892D01*
X98776089Y-78663366D01*
X98776079Y-78663371D01*
X98612219Y-78772859D01*
X98566602Y-78818477D01*
X98472861Y-78912218D01*
X98472858Y-78912221D01*
X97362221Y-80022858D01*
X97362218Y-80022861D01*
X97292538Y-80092540D01*
X97222859Y-80162219D01*
X97113371Y-80326079D01*
X97113364Y-80326092D01*
X97037950Y-80508160D01*
X97037947Y-80508170D01*
X96999500Y-80701456D01*
X96999500Y-82334217D01*
X96979815Y-82401256D01*
X96963181Y-82421898D01*
X95945706Y-83439372D01*
X95884383Y-83472857D01*
X95814691Y-83467873D01*
X95758758Y-83426001D01*
X95734341Y-83360537D01*
X95749193Y-83292264D01*
X95752472Y-83286618D01*
X95824814Y-83169334D01*
X95879999Y-83002797D01*
X95890500Y-82900009D01*
X95890499Y-81699992D01*
X95879999Y-81597203D01*
X95824814Y-81430666D01*
X95732712Y-81281344D01*
X95608656Y-81157288D01*
X95471176Y-81072490D01*
X95459336Y-81065187D01*
X95459331Y-81065185D01*
X95457862Y-81064698D01*
X95292797Y-81010001D01*
X95292795Y-81010000D01*
X95190010Y-80999500D01*
X93189998Y-80999500D01*
X93189981Y-80999501D01*
X93087203Y-81010000D01*
X93087200Y-81010001D01*
X92920668Y-81065185D01*
X92920663Y-81065187D01*
X92771345Y-81157287D01*
X92665450Y-81263182D01*
X92604127Y-81296666D01*
X92577769Y-81299500D01*
X91124500Y-81299500D01*
X91057461Y-81279815D01*
X91011706Y-81227011D01*
X91000500Y-81175500D01*
X91000500Y-78107878D01*
X91013488Y-78053778D01*
X91013354Y-78053723D01*
X91013705Y-78052874D01*
X91014016Y-78051581D01*
X91015220Y-78049219D01*
X91078477Y-77854534D01*
X91110500Y-77652352D01*
X91110500Y-77447648D01*
X91078477Y-77245466D01*
X91015220Y-77050781D01*
X91015218Y-77050778D01*
X91015218Y-77050776D01*
X90969531Y-76961112D01*
X90922287Y-76868390D01*
X90914556Y-76857749D01*
X90801971Y-76702786D01*
X90657213Y-76558028D01*
X90491613Y-76437715D01*
X90491612Y-76437714D01*
X90491610Y-76437713D01*
X90434653Y-76408691D01*
X90309223Y-76344781D01*
X90114534Y-76281522D01*
X89939995Y-76253878D01*
X89912352Y-76249500D01*
X89707648Y-76249500D01*
X89683329Y-76253351D01*
X89505465Y-76281522D01*
X89310776Y-76344781D01*
X89128386Y-76437715D01*
X88962786Y-76558028D01*
X88818028Y-76702786D01*
X88697715Y-76868386D01*
X88604781Y-77050776D01*
X88541522Y-77245465D01*
X88509500Y-77447648D01*
X88509500Y-77652351D01*
X88541522Y-77854534D01*
X88604781Y-78049223D01*
X88697715Y-78231613D01*
X88818028Y-78397213D01*
X88963181Y-78542366D01*
X88996666Y-78603689D01*
X88999500Y-78630047D01*
X88999500Y-82174237D01*
X88979815Y-82241276D01*
X88975818Y-82247122D01*
X88887715Y-82368386D01*
X88794781Y-82550778D01*
X88731522Y-82745468D01*
X88708073Y-82893515D01*
X88678143Y-82956649D01*
X88673281Y-82961797D01*
X87246899Y-84388181D01*
X87185576Y-84421666D01*
X87159218Y-84424500D01*
X82926456Y-84424500D01*
X82733171Y-84462946D01*
X82733167Y-84462948D01*
X82733165Y-84462948D01*
X82733164Y-84462949D01*
X82657745Y-84494188D01*
X82657743Y-84494189D01*
X82551089Y-84538366D01*
X82551079Y-84538371D01*
X82387218Y-84647860D01*
X82387214Y-84647863D01*
X78977051Y-88058028D01*
X77862220Y-89172859D01*
X77862218Y-89172861D01*
X77806874Y-89228205D01*
X77722859Y-89312219D01*
X77613371Y-89476079D01*
X77613364Y-89476092D01*
X77537950Y-89658160D01*
X77537947Y-89658170D01*
X77499500Y-89851456D01*
X77499500Y-91737769D01*
X77479815Y-91804808D01*
X77463182Y-91825450D01*
X77357287Y-91931345D01*
X77265187Y-92080663D01*
X77265186Y-92080666D01*
X77210001Y-92247203D01*
X77210001Y-92247204D01*
X77210000Y-92247204D01*
X77199500Y-92349983D01*
X77199500Y-93550001D01*
X77199501Y-93550018D01*
X77210000Y-93652796D01*
X77210001Y-93652799D01*
X77265185Y-93819331D01*
X77265187Y-93819336D01*
X77357289Y-93968657D01*
X77463181Y-94074549D01*
X77496666Y-94135872D01*
X77499500Y-94162230D01*
X77499500Y-103634217D01*
X77479815Y-103701256D01*
X77463181Y-103721898D01*
X75671897Y-105513181D01*
X75610574Y-105546666D01*
X75584216Y-105549500D01*
X73872129Y-105549500D01*
X73872123Y-105549501D01*
X73812516Y-105555908D01*
X73677671Y-105606202D01*
X73677664Y-105606206D01*
X73562455Y-105692452D01*
X73562452Y-105692455D01*
X73476206Y-105807664D01*
X73476202Y-105807671D01*
X73425908Y-105942517D01*
X73419501Y-106002116D01*
X73419501Y-106002123D01*
X73419500Y-106002135D01*
X73419500Y-109097870D01*
X73419501Y-109097876D01*
X73425908Y-109157483D01*
X73476202Y-109292328D01*
X73476206Y-109292334D01*
X73482835Y-109301190D01*
X73507252Y-109366654D01*
X73492400Y-109434927D01*
X73442995Y-109484332D01*
X73383568Y-109499500D01*
X72624500Y-109499500D01*
X72557461Y-109479815D01*
X72511706Y-109427011D01*
X72500500Y-109375500D01*
X72500500Y-100443713D01*
X73649500Y-100443713D01*
X73649500Y-100656286D01*
X73682753Y-100866239D01*
X73748444Y-101068414D01*
X73844951Y-101257820D01*
X73969890Y-101429786D01*
X74120213Y-101580109D01*
X74292179Y-101705048D01*
X74292181Y-101705049D01*
X74292184Y-101705051D01*
X74481588Y-101801557D01*
X74683757Y-101867246D01*
X74893713Y-101900500D01*
X74893714Y-101900500D01*
X75106286Y-101900500D01*
X75106287Y-101900500D01*
X75316243Y-101867246D01*
X75518412Y-101801557D01*
X75707816Y-101705051D01*
X75729789Y-101689086D01*
X75879786Y-101580109D01*
X75879788Y-101580106D01*
X75879792Y-101580104D01*
X76030104Y-101429792D01*
X76030106Y-101429788D01*
X76030109Y-101429786D01*
X76155048Y-101257820D01*
X76155047Y-101257820D01*
X76155051Y-101257816D01*
X76251557Y-101068412D01*
X76317246Y-100866243D01*
X76350500Y-100656287D01*
X76350500Y-100443713D01*
X76317246Y-100233757D01*
X76251557Y-100031588D01*
X76155051Y-99842184D01*
X76155049Y-99842181D01*
X76155048Y-99842179D01*
X76030109Y-99670213D01*
X75879786Y-99519890D01*
X75707820Y-99394951D01*
X75518414Y-99298444D01*
X75518413Y-99298443D01*
X75518412Y-99298443D01*
X75316243Y-99232754D01*
X75316241Y-99232753D01*
X75316240Y-99232753D01*
X75154957Y-99207208D01*
X75106287Y-99199500D01*
X74893713Y-99199500D01*
X74845042Y-99207208D01*
X74683760Y-99232753D01*
X74481585Y-99298444D01*
X74292179Y-99394951D01*
X74120213Y-99519890D01*
X73969890Y-99670213D01*
X73844951Y-99842179D01*
X73748444Y-100031585D01*
X73682753Y-100233760D01*
X73649500Y-100443713D01*
X72500500Y-100443713D01*
X72500500Y-80939778D01*
X76599500Y-80939778D01*
X76599500Y-81160222D01*
X76613718Y-81249992D01*
X76633985Y-81377952D01*
X76702103Y-81587603D01*
X76702104Y-81587606D01*
X76802187Y-81784025D01*
X76931752Y-81962358D01*
X76931756Y-81962363D01*
X77087636Y-82118243D01*
X77087641Y-82118247D01*
X77164706Y-82174237D01*
X77265978Y-82247815D01*
X77394375Y-82313237D01*
X77462393Y-82347895D01*
X77462396Y-82347896D01*
X77525472Y-82368390D01*
X77672049Y-82416015D01*
X77889778Y-82450500D01*
X77889779Y-82450500D01*
X78110221Y-82450500D01*
X78110222Y-82450500D01*
X78327951Y-82416015D01*
X78537606Y-82347895D01*
X78734022Y-82247815D01*
X78912365Y-82118242D01*
X79068242Y-81962365D01*
X79197815Y-81784022D01*
X79297895Y-81587606D01*
X79366015Y-81377951D01*
X79400500Y-81160222D01*
X79400500Y-80939778D01*
X79379084Y-80804566D01*
X79388038Y-80735276D01*
X79413873Y-80697493D01*
X81405397Y-78705969D01*
X81466718Y-78672486D01*
X81536410Y-78677470D01*
X81549366Y-78683165D01*
X81594125Y-78705971D01*
X81690774Y-78755217D01*
X81690777Y-78755217D01*
X81690781Y-78755220D01*
X81825245Y-78798910D01*
X81885465Y-78818477D01*
X81986557Y-78834488D01*
X82087648Y-78850500D01*
X82087649Y-78850500D01*
X82292351Y-78850500D01*
X82292352Y-78850500D01*
X82494534Y-78818477D01*
X82689219Y-78755220D01*
X82871610Y-78662287D01*
X82973931Y-78587947D01*
X83037213Y-78541971D01*
X83037215Y-78541968D01*
X83037219Y-78541966D01*
X83181966Y-78397219D01*
X83181968Y-78397215D01*
X83181971Y-78397213D01*
X83234732Y-78324590D01*
X83302287Y-78231610D01*
X83393358Y-78052874D01*
X83395218Y-78049223D01*
X83395218Y-78049222D01*
X83395220Y-78049219D01*
X83458477Y-77854534D01*
X83490500Y-77652352D01*
X83490500Y-77447648D01*
X83458477Y-77245466D01*
X83395220Y-77050781D01*
X83395218Y-77050778D01*
X83395218Y-77050776D01*
X83349531Y-76961112D01*
X83302287Y-76868390D01*
X83294556Y-76857749D01*
X83181971Y-76702786D01*
X83037213Y-76558028D01*
X82871613Y-76437715D01*
X82871612Y-76437714D01*
X82871610Y-76437713D01*
X82814653Y-76408691D01*
X82689223Y-76344781D01*
X82494534Y-76281522D01*
X82319995Y-76253878D01*
X82292352Y-76249500D01*
X82087648Y-76249500D01*
X82063329Y-76253351D01*
X81885465Y-76281522D01*
X81690776Y-76344781D01*
X81508386Y-76437715D01*
X81342786Y-76558028D01*
X81198028Y-76702786D01*
X81077713Y-76868388D01*
X81042445Y-76937605D01*
X81019642Y-76968990D01*
X78352508Y-79636122D01*
X78291185Y-79669607D01*
X78245429Y-79670914D01*
X78110227Y-79649500D01*
X78110222Y-79649500D01*
X77889778Y-79649500D01*
X77817201Y-79660995D01*
X77672047Y-79683985D01*
X77462396Y-79752103D01*
X77462393Y-79752104D01*
X77265974Y-79852187D01*
X77087641Y-79981752D01*
X77087636Y-79981756D01*
X76931756Y-80137636D01*
X76931752Y-80137641D01*
X76802187Y-80315974D01*
X76702104Y-80512393D01*
X76702103Y-80512396D01*
X76633985Y-80722047D01*
X76605251Y-80903469D01*
X76599500Y-80939778D01*
X72500500Y-80939778D01*
X72500500Y-73943713D01*
X73649500Y-73943713D01*
X73649500Y-74156286D01*
X73682753Y-74366239D01*
X73748444Y-74568414D01*
X73844951Y-74757820D01*
X73969890Y-74929786D01*
X74120213Y-75080109D01*
X74292179Y-75205048D01*
X74292181Y-75205049D01*
X74292184Y-75205051D01*
X74481588Y-75301557D01*
X74683757Y-75367246D01*
X74893713Y-75400500D01*
X74893714Y-75400500D01*
X75106286Y-75400500D01*
X75106287Y-75400500D01*
X75316243Y-75367246D01*
X75518412Y-75301557D01*
X75707816Y-75205051D01*
X75773290Y-75157482D01*
X75879786Y-75080109D01*
X75879788Y-75080106D01*
X75879792Y-75080104D01*
X76030104Y-74929792D01*
X76030106Y-74929788D01*
X76030109Y-74929786D01*
X76155048Y-74757820D01*
X76155047Y-74757820D01*
X76155051Y-74757816D01*
X76251557Y-74568412D01*
X76317246Y-74366243D01*
X76350500Y-74156287D01*
X76350500Y-73943713D01*
X76317246Y-73733757D01*
X76251557Y-73531588D01*
X76155051Y-73342184D01*
X76155049Y-73342181D01*
X76155048Y-73342179D01*
X76030109Y-73170213D01*
X75879786Y-73019890D01*
X75707820Y-72894951D01*
X75518414Y-72798444D01*
X75518413Y-72798443D01*
X75518412Y-72798443D01*
X75316243Y-72732754D01*
X75316241Y-72732753D01*
X75316240Y-72732753D01*
X75154957Y-72707208D01*
X75106287Y-72699500D01*
X74893713Y-72699500D01*
X74845042Y-72707208D01*
X74683760Y-72732753D01*
X74481585Y-72798444D01*
X74292179Y-72894951D01*
X74120213Y-73019890D01*
X73969890Y-73170213D01*
X73844951Y-73342179D01*
X73748444Y-73531585D01*
X73682753Y-73733760D01*
X73649500Y-73943713D01*
X72500500Y-73943713D01*
X72500500Y-72002135D01*
X98189500Y-72002135D01*
X98189500Y-75097870D01*
X98189501Y-75097876D01*
X98195908Y-75157483D01*
X98246202Y-75292328D01*
X98246206Y-75292335D01*
X98332452Y-75407544D01*
X98332455Y-75407547D01*
X98447664Y-75493793D01*
X98447671Y-75493797D01*
X98582517Y-75544091D01*
X98582516Y-75544091D01*
X98589444Y-75544835D01*
X98642127Y-75550500D01*
X101737872Y-75550499D01*
X101797483Y-75544091D01*
X101932331Y-75493796D01*
X102047546Y-75407546D01*
X102133796Y-75292331D01*
X102184091Y-75157483D01*
X102190500Y-75097873D01*
X102190500Y-74674500D01*
X102210185Y-74607461D01*
X102262989Y-74561706D01*
X102314500Y-74550500D01*
X105758780Y-74550500D01*
X105825819Y-74570185D01*
X105846461Y-74586819D01*
X111095504Y-79835862D01*
X111128989Y-79897185D01*
X111131823Y-79923543D01*
X111131823Y-80877111D01*
X111112138Y-80944150D01*
X111095504Y-80964792D01*
X110987808Y-81072487D01*
X110987808Y-81072488D01*
X110987806Y-81072490D01*
X110933526Y-81147200D01*
X110848980Y-81263566D01*
X110741756Y-81474003D01*
X110668769Y-81698631D01*
X110631823Y-81931902D01*
X110631823Y-82168097D01*
X110668769Y-82401368D01*
X110741756Y-82625996D01*
X110780207Y-82701459D01*
X110848980Y-82836433D01*
X110987806Y-83027510D01*
X111154813Y-83194517D01*
X111345890Y-83333343D01*
X111445314Y-83384002D01*
X111556326Y-83440566D01*
X111556328Y-83440566D01*
X111556331Y-83440568D01*
X111640367Y-83467873D01*
X111780954Y-83513553D01*
X112014226Y-83550500D01*
X112014231Y-83550500D01*
X112250420Y-83550500D01*
X112483691Y-83513553D01*
X112708315Y-83440568D01*
X112918756Y-83333343D01*
X113109833Y-83194517D01*
X113276840Y-83027510D01*
X113415666Y-82836433D01*
X113522891Y-82625992D01*
X113595876Y-82401368D01*
X113606512Y-82334217D01*
X113632823Y-82168097D01*
X113632823Y-81931902D01*
X113595876Y-81698631D01*
X113522889Y-81474003D01*
X113466325Y-81362991D01*
X113415666Y-81263567D01*
X113276840Y-81072490D01*
X113169142Y-80964792D01*
X113135657Y-80903469D01*
X113132823Y-80877111D01*
X113132823Y-79312229D01*
X113094375Y-79118943D01*
X113094374Y-79118942D01*
X113094374Y-79118938D01*
X113094372Y-79118933D01*
X113018958Y-78936865D01*
X113018951Y-78936852D01*
X112909462Y-78772991D01*
X112909459Y-78772987D01*
X112770108Y-78633636D01*
X112770104Y-78633633D01*
X112638651Y-78545799D01*
X112619861Y-78530378D01*
X110371005Y-76281522D01*
X108033195Y-73943713D01*
X110649500Y-73943713D01*
X110649500Y-74156286D01*
X110682753Y-74366239D01*
X110748444Y-74568414D01*
X110844951Y-74757820D01*
X110969890Y-74929786D01*
X111120213Y-75080109D01*
X111292179Y-75205048D01*
X111292181Y-75205049D01*
X111292184Y-75205051D01*
X111481588Y-75301557D01*
X111683757Y-75367246D01*
X111893713Y-75400500D01*
X111893714Y-75400500D01*
X112106286Y-75400500D01*
X112106287Y-75400500D01*
X112316243Y-75367246D01*
X112518412Y-75301557D01*
X112707816Y-75205051D01*
X112773290Y-75157482D01*
X112879786Y-75080109D01*
X112879788Y-75080106D01*
X112879792Y-75080104D01*
X113030104Y-74929792D01*
X113030106Y-74929788D01*
X113030109Y-74929786D01*
X113155048Y-74757820D01*
X113155047Y-74757820D01*
X113155051Y-74757816D01*
X113251557Y-74568412D01*
X113317246Y-74366243D01*
X113350500Y-74156287D01*
X113350500Y-73943713D01*
X113317246Y-73733757D01*
X113251557Y-73531588D01*
X113155051Y-73342184D01*
X113155049Y-73342181D01*
X113155048Y-73342179D01*
X113030109Y-73170213D01*
X112879786Y-73019890D01*
X112707820Y-72894951D01*
X112518414Y-72798444D01*
X112518413Y-72798443D01*
X112518412Y-72798443D01*
X112316243Y-72732754D01*
X112316241Y-72732753D01*
X112316240Y-72732753D01*
X112154957Y-72707208D01*
X112106287Y-72699500D01*
X111893713Y-72699500D01*
X111845042Y-72707208D01*
X111683760Y-72732753D01*
X111481585Y-72798444D01*
X111292179Y-72894951D01*
X111120213Y-73019890D01*
X110969890Y-73170213D01*
X110844951Y-73342179D01*
X110748444Y-73531585D01*
X110682753Y-73733760D01*
X110649500Y-73943713D01*
X108033195Y-73943713D01*
X107008770Y-72919288D01*
X107008768Y-72919285D01*
X107008768Y-72919286D01*
X107001701Y-72912219D01*
X107001701Y-72912218D01*
X106862344Y-72772861D01*
X106862343Y-72772860D01*
X106862342Y-72772859D01*
X106698482Y-72663371D01*
X106698473Y-72663366D01*
X106625877Y-72633296D01*
X106569727Y-72610038D01*
X106516398Y-72587949D01*
X106516394Y-72587948D01*
X106516390Y-72587946D01*
X106419750Y-72568724D01*
X106323106Y-72549500D01*
X106323103Y-72549500D01*
X102314499Y-72549500D01*
X102247460Y-72529815D01*
X102201705Y-72477011D01*
X102190499Y-72425500D01*
X102190499Y-72002129D01*
X102190498Y-72002123D01*
X102190497Y-72002116D01*
X102184091Y-71942517D01*
X102133796Y-71807669D01*
X102133795Y-71807668D01*
X102133793Y-71807664D01*
X102047547Y-71692455D01*
X102047544Y-71692452D01*
X101932335Y-71606206D01*
X101932328Y-71606202D01*
X101797482Y-71555908D01*
X101797483Y-71555908D01*
X101737883Y-71549501D01*
X101737881Y-71549500D01*
X101737873Y-71549500D01*
X101737864Y-71549500D01*
X98642129Y-71549500D01*
X98642123Y-71549501D01*
X98582516Y-71555908D01*
X98447671Y-71606202D01*
X98447664Y-71606206D01*
X98332455Y-71692452D01*
X98332452Y-71692455D01*
X98246206Y-71807664D01*
X98246202Y-71807671D01*
X98195908Y-71942517D01*
X98189501Y-72002116D01*
X98189501Y-72002123D01*
X98189500Y-72002135D01*
X72500500Y-72002135D01*
X72500500Y-71124000D01*
X72520185Y-71056961D01*
X72572989Y-71011206D01*
X72624500Y-71000000D01*
X114876000Y-71000000D01*
X114943039Y-71019685D01*
G37*
%TD.AperFunction*%
%TD*%
M02*
