M48
; DRILL file {KiCad 9.0.4} date 2025-09-13T13:48:48+0200
; FORMAT={-:-/ absolute / inch / decimal}
; #@! TF.CreationDate,2025-09-13T13:48:48+02:00
; #@! TF.GenerationSoftware,Kicad,Pcbnew,9.0.4
; #@! TF.FileFunction,NonPlated,1,2,NPTH
FMAT,2
INCH
; #@! TA.AperFunction,NonPlated,NPTH,ComponentDrill
T1C0.0866
%
G90
G05
T1
X3.3681Y-1.7579
X3.3681Y-2.5059
X3.3681Y-3.0571
X3.3681Y-3.8051
X3.3681Y-4.3563
X3.3681Y-5.1043
X4.8406Y-1.7579
X4.8406Y-2.5059
X4.8406Y-3.0571
X4.8406Y-3.8051
X4.8406Y-4.3563
X4.8406Y-5.1043
X5.1398Y-1.7579
X5.1398Y-2.5059
X5.1398Y-3.0571
X5.1398Y-3.8051
X5.1398Y-4.3563
X5.1398Y-5.1043
X6.6122Y-1.7579
X6.6122Y-2.5059
X6.6122Y-3.0571
X6.6122Y-3.8051
X6.6122Y-4.3563
X6.6122Y-5.1043
M30
