%TF.GenerationSoftware,KiCad,Pcbnew,9.0.4*%
%TF.CreationDate,2025-09-13T13:48:51+02:00*%
%TF.ProjectId,TDA7267_3x2_panel,54444137-3236-4375-9f33-78325f70616e,rev?*%
%TF.SameCoordinates,Original*%
%TF.FileFunction,Legend,Bot*%
%TF.FilePolarity,Positive*%
%FSLAX46Y46*%
G04 Gerber Fmt 4.6, Leading zero omitted, Abs format (unit mm)*
G04 Created by KiCad (PCBNEW 9.0.4) date 2025-09-13 13:48:51*
%MOMM*%
%LPD*%
G01*
G04 APERTURE LIST*
%ADD10C,0.250000*%
%ADD11C,0.500000*%
G04 APERTURE END LIST*
D10*
X117442669Y-129638512D02*
X116585527Y-129638512D01*
X117014098Y-131138512D02*
X117014098Y-129638512D01*
X116085527Y-131138512D02*
X116085527Y-129638512D01*
X116085527Y-129638512D02*
X115728384Y-129638512D01*
X115728384Y-129638512D02*
X115514098Y-129709941D01*
X115514098Y-129709941D02*
X115371241Y-129852798D01*
X115371241Y-129852798D02*
X115299812Y-129995655D01*
X115299812Y-129995655D02*
X115228384Y-130281369D01*
X115228384Y-130281369D02*
X115228384Y-130495655D01*
X115228384Y-130495655D02*
X115299812Y-130781369D01*
X115299812Y-130781369D02*
X115371241Y-130924226D01*
X115371241Y-130924226D02*
X115514098Y-131067084D01*
X115514098Y-131067084D02*
X115728384Y-131138512D01*
X115728384Y-131138512D02*
X116085527Y-131138512D01*
X114656955Y-130709941D02*
X113942670Y-130709941D01*
X114799812Y-131138512D02*
X114299812Y-129638512D01*
X114299812Y-129638512D02*
X113799812Y-131138512D01*
X113442670Y-129638512D02*
X112442670Y-129638512D01*
X112442670Y-129638512D02*
X113085527Y-131138512D01*
X111942670Y-129781369D02*
X111871242Y-129709941D01*
X111871242Y-129709941D02*
X111728385Y-129638512D01*
X111728385Y-129638512D02*
X111371242Y-129638512D01*
X111371242Y-129638512D02*
X111228385Y-129709941D01*
X111228385Y-129709941D02*
X111156956Y-129781369D01*
X111156956Y-129781369D02*
X111085527Y-129924226D01*
X111085527Y-129924226D02*
X111085527Y-130067084D01*
X111085527Y-130067084D02*
X111156956Y-130281369D01*
X111156956Y-130281369D02*
X112014099Y-131138512D01*
X112014099Y-131138512D02*
X111085527Y-131138512D01*
X109799814Y-129638512D02*
X110085528Y-129638512D01*
X110085528Y-129638512D02*
X110228385Y-129709941D01*
X110228385Y-129709941D02*
X110299814Y-129781369D01*
X110299814Y-129781369D02*
X110442671Y-129995655D01*
X110442671Y-129995655D02*
X110514099Y-130281369D01*
X110514099Y-130281369D02*
X110514099Y-130852798D01*
X110514099Y-130852798D02*
X110442671Y-130995655D01*
X110442671Y-130995655D02*
X110371242Y-131067084D01*
X110371242Y-131067084D02*
X110228385Y-131138512D01*
X110228385Y-131138512D02*
X109942671Y-131138512D01*
X109942671Y-131138512D02*
X109799814Y-131067084D01*
X109799814Y-131067084D02*
X109728385Y-130995655D01*
X109728385Y-130995655D02*
X109656956Y-130852798D01*
X109656956Y-130852798D02*
X109656956Y-130495655D01*
X109656956Y-130495655D02*
X109728385Y-130352798D01*
X109728385Y-130352798D02*
X109799814Y-130281369D01*
X109799814Y-130281369D02*
X109942671Y-130209941D01*
X109942671Y-130209941D02*
X110228385Y-130209941D01*
X110228385Y-130209941D02*
X110371242Y-130281369D01*
X110371242Y-130281369D02*
X110442671Y-130352798D01*
X110442671Y-130352798D02*
X110514099Y-130495655D01*
X109156957Y-129638512D02*
X108156957Y-129638512D01*
X108156957Y-129638512D02*
X108799814Y-131138512D01*
X106514100Y-129781369D02*
X106442672Y-129709941D01*
X106442672Y-129709941D02*
X106299815Y-129638512D01*
X106299815Y-129638512D02*
X105942672Y-129638512D01*
X105942672Y-129638512D02*
X105799815Y-129709941D01*
X105799815Y-129709941D02*
X105728386Y-129781369D01*
X105728386Y-129781369D02*
X105656957Y-129924226D01*
X105656957Y-129924226D02*
X105656957Y-130067084D01*
X105656957Y-130067084D02*
X105728386Y-130281369D01*
X105728386Y-130281369D02*
X106585529Y-131138512D01*
X106585529Y-131138512D02*
X105656957Y-131138512D01*
X105014101Y-130995655D02*
X104942672Y-131067084D01*
X104942672Y-131067084D02*
X105014101Y-131138512D01*
X105014101Y-131138512D02*
X105085529Y-131067084D01*
X105085529Y-131067084D02*
X105014101Y-130995655D01*
X105014101Y-130995655D02*
X105014101Y-131138512D01*
X103585529Y-129638512D02*
X104299815Y-129638512D01*
X104299815Y-129638512D02*
X104371243Y-130352798D01*
X104371243Y-130352798D02*
X104299815Y-130281369D01*
X104299815Y-130281369D02*
X104156958Y-130209941D01*
X104156958Y-130209941D02*
X103799815Y-130209941D01*
X103799815Y-130209941D02*
X103656958Y-130281369D01*
X103656958Y-130281369D02*
X103585529Y-130352798D01*
X103585529Y-130352798D02*
X103514100Y-130495655D01*
X103514100Y-130495655D02*
X103514100Y-130852798D01*
X103514100Y-130852798D02*
X103585529Y-130995655D01*
X103585529Y-130995655D02*
X103656958Y-131067084D01*
X103656958Y-131067084D02*
X103799815Y-131138512D01*
X103799815Y-131138512D02*
X104156958Y-131138512D01*
X104156958Y-131138512D02*
X104299815Y-131067084D01*
X104299815Y-131067084D02*
X104371243Y-130995655D01*
X103014101Y-129638512D02*
X102656958Y-131138512D01*
X102656958Y-131138512D02*
X102371244Y-130067084D01*
X102371244Y-130067084D02*
X102085529Y-131138512D01*
X102085529Y-131138512D02*
X101728387Y-129638512D01*
X100085529Y-130709941D02*
X99371244Y-130709941D01*
X100228386Y-131138512D02*
X99728386Y-129638512D01*
X99728386Y-129638512D02*
X99228386Y-131138512D01*
X98728387Y-131138512D02*
X98728387Y-130138512D01*
X98728387Y-130281369D02*
X98656958Y-130209941D01*
X98656958Y-130209941D02*
X98514101Y-130138512D01*
X98514101Y-130138512D02*
X98299815Y-130138512D01*
X98299815Y-130138512D02*
X98156958Y-130209941D01*
X98156958Y-130209941D02*
X98085530Y-130352798D01*
X98085530Y-130352798D02*
X98085530Y-131138512D01*
X98085530Y-130352798D02*
X98014101Y-130209941D01*
X98014101Y-130209941D02*
X97871244Y-130138512D01*
X97871244Y-130138512D02*
X97656958Y-130138512D01*
X97656958Y-130138512D02*
X97514101Y-130209941D01*
X97514101Y-130209941D02*
X97442672Y-130352798D01*
X97442672Y-130352798D02*
X97442672Y-131138512D01*
X96728387Y-130138512D02*
X96728387Y-131638512D01*
X96728387Y-130209941D02*
X96585530Y-130138512D01*
X96585530Y-130138512D02*
X96299815Y-130138512D01*
X96299815Y-130138512D02*
X96156958Y-130209941D01*
X96156958Y-130209941D02*
X96085530Y-130281369D01*
X96085530Y-130281369D02*
X96014101Y-130424226D01*
X96014101Y-130424226D02*
X96014101Y-130852798D01*
X96014101Y-130852798D02*
X96085530Y-130995655D01*
X96085530Y-130995655D02*
X96156958Y-131067084D01*
X96156958Y-131067084D02*
X96299815Y-131138512D01*
X96299815Y-131138512D02*
X96585530Y-131138512D01*
X96585530Y-131138512D02*
X96728387Y-131067084D01*
X95156958Y-131138512D02*
X95299815Y-131067084D01*
X95299815Y-131067084D02*
X95371244Y-130924226D01*
X95371244Y-130924226D02*
X95371244Y-129638512D01*
X94585530Y-131138512D02*
X94585530Y-130138512D01*
X94585530Y-129638512D02*
X94656958Y-129709941D01*
X94656958Y-129709941D02*
X94585530Y-129781369D01*
X94585530Y-129781369D02*
X94514101Y-129709941D01*
X94514101Y-129709941D02*
X94585530Y-129638512D01*
X94585530Y-129638512D02*
X94585530Y-129781369D01*
X94085529Y-130138512D02*
X93514101Y-130138512D01*
X93871244Y-131138512D02*
X93871244Y-129852798D01*
X93871244Y-129852798D02*
X93799815Y-129709941D01*
X93799815Y-129709941D02*
X93656958Y-129638512D01*
X93656958Y-129638512D02*
X93514101Y-129638512D01*
X93014101Y-131138512D02*
X93014101Y-130138512D01*
X93014101Y-129638512D02*
X93085529Y-129709941D01*
X93085529Y-129709941D02*
X93014101Y-129781369D01*
X93014101Y-129781369D02*
X92942672Y-129709941D01*
X92942672Y-129709941D02*
X93014101Y-129638512D01*
X93014101Y-129638512D02*
X93014101Y-129781369D01*
X91728386Y-131067084D02*
X91871243Y-131138512D01*
X91871243Y-131138512D02*
X92156958Y-131138512D01*
X92156958Y-131138512D02*
X92299815Y-131067084D01*
X92299815Y-131067084D02*
X92371243Y-130924226D01*
X92371243Y-130924226D02*
X92371243Y-130352798D01*
X92371243Y-130352798D02*
X92299815Y-130209941D01*
X92299815Y-130209941D02*
X92156958Y-130138512D01*
X92156958Y-130138512D02*
X91871243Y-130138512D01*
X91871243Y-130138512D02*
X91728386Y-130209941D01*
X91728386Y-130209941D02*
X91656958Y-130352798D01*
X91656958Y-130352798D02*
X91656958Y-130495655D01*
X91656958Y-130495655D02*
X92371243Y-130638512D01*
X91014101Y-131138512D02*
X91014101Y-130138512D01*
X91014101Y-130424226D02*
X90942672Y-130281369D01*
X90942672Y-130281369D02*
X90871244Y-130209941D01*
X90871244Y-130209941D02*
X90728386Y-130138512D01*
X90728386Y-130138512D02*
X90585529Y-130138512D01*
X90085530Y-130995655D02*
X90014101Y-131067084D01*
X90014101Y-131067084D02*
X90085530Y-131138512D01*
X90085530Y-131138512D02*
X90156958Y-131067084D01*
X90156958Y-131067084D02*
X90085530Y-130995655D01*
X90085530Y-130995655D02*
X90085530Y-131138512D01*
X116514098Y-132053428D02*
X117228384Y-132053428D01*
X117228384Y-132053428D02*
X117299812Y-132767714D01*
X117299812Y-132767714D02*
X117228384Y-132696285D01*
X117228384Y-132696285D02*
X117085527Y-132624857D01*
X117085527Y-132624857D02*
X116728384Y-132624857D01*
X116728384Y-132624857D02*
X116585527Y-132696285D01*
X116585527Y-132696285D02*
X116514098Y-132767714D01*
X116514098Y-132767714D02*
X116442669Y-132910571D01*
X116442669Y-132910571D02*
X116442669Y-133267714D01*
X116442669Y-133267714D02*
X116514098Y-133410571D01*
X116514098Y-133410571D02*
X116585527Y-133482000D01*
X116585527Y-133482000D02*
X116728384Y-133553428D01*
X116728384Y-133553428D02*
X117085527Y-133553428D01*
X117085527Y-133553428D02*
X117228384Y-133482000D01*
X117228384Y-133482000D02*
X117299812Y-133410571D01*
X114871241Y-132553428D02*
X114299813Y-132553428D01*
X114656956Y-132053428D02*
X114656956Y-133339142D01*
X114656956Y-133339142D02*
X114585527Y-133482000D01*
X114585527Y-133482000D02*
X114442670Y-133553428D01*
X114442670Y-133553428D02*
X114299813Y-133553428D01*
X113585527Y-133553428D02*
X113728384Y-133482000D01*
X113728384Y-133482000D02*
X113799813Y-133410571D01*
X113799813Y-133410571D02*
X113871241Y-133267714D01*
X113871241Y-133267714D02*
X113871241Y-132839142D01*
X113871241Y-132839142D02*
X113799813Y-132696285D01*
X113799813Y-132696285D02*
X113728384Y-132624857D01*
X113728384Y-132624857D02*
X113585527Y-132553428D01*
X113585527Y-132553428D02*
X113371241Y-132553428D01*
X113371241Y-132553428D02*
X113228384Y-132624857D01*
X113228384Y-132624857D02*
X113156956Y-132696285D01*
X113156956Y-132696285D02*
X113085527Y-132839142D01*
X113085527Y-132839142D02*
X113085527Y-133267714D01*
X113085527Y-133267714D02*
X113156956Y-133410571D01*
X113156956Y-133410571D02*
X113228384Y-133482000D01*
X113228384Y-133482000D02*
X113371241Y-133553428D01*
X113371241Y-133553428D02*
X113585527Y-133553428D01*
X110514098Y-133553428D02*
X111371241Y-133553428D01*
X110942670Y-133553428D02*
X110942670Y-132053428D01*
X110942670Y-132053428D02*
X111085527Y-132267714D01*
X111085527Y-132267714D02*
X111228384Y-132410571D01*
X111228384Y-132410571D02*
X111371241Y-132482000D01*
X109156956Y-132053428D02*
X109871242Y-132053428D01*
X109871242Y-132053428D02*
X109942670Y-132767714D01*
X109942670Y-132767714D02*
X109871242Y-132696285D01*
X109871242Y-132696285D02*
X109728385Y-132624857D01*
X109728385Y-132624857D02*
X109371242Y-132624857D01*
X109371242Y-132624857D02*
X109228385Y-132696285D01*
X109228385Y-132696285D02*
X109156956Y-132767714D01*
X109156956Y-132767714D02*
X109085527Y-132910571D01*
X109085527Y-132910571D02*
X109085527Y-133267714D01*
X109085527Y-133267714D02*
X109156956Y-133410571D01*
X109156956Y-133410571D02*
X109228385Y-133482000D01*
X109228385Y-133482000D02*
X109371242Y-133553428D01*
X109371242Y-133553428D02*
X109728385Y-133553428D01*
X109728385Y-133553428D02*
X109871242Y-133482000D01*
X109871242Y-133482000D02*
X109942670Y-133410571D01*
X108656956Y-132053428D02*
X108156956Y-133553428D01*
X108156956Y-133553428D02*
X107656956Y-132053428D01*
X106014100Y-133553428D02*
X106014100Y-132053428D01*
X106014100Y-132053428D02*
X105656957Y-132053428D01*
X105656957Y-132053428D02*
X105442671Y-132124857D01*
X105442671Y-132124857D02*
X105299814Y-132267714D01*
X105299814Y-132267714D02*
X105228385Y-132410571D01*
X105228385Y-132410571D02*
X105156957Y-132696285D01*
X105156957Y-132696285D02*
X105156957Y-132910571D01*
X105156957Y-132910571D02*
X105228385Y-133196285D01*
X105228385Y-133196285D02*
X105299814Y-133339142D01*
X105299814Y-133339142D02*
X105442671Y-133482000D01*
X105442671Y-133482000D02*
X105656957Y-133553428D01*
X105656957Y-133553428D02*
X106014100Y-133553428D01*
X103656957Y-133410571D02*
X103728385Y-133482000D01*
X103728385Y-133482000D02*
X103942671Y-133553428D01*
X103942671Y-133553428D02*
X104085528Y-133553428D01*
X104085528Y-133553428D02*
X104299814Y-133482000D01*
X104299814Y-133482000D02*
X104442671Y-133339142D01*
X104442671Y-133339142D02*
X104514100Y-133196285D01*
X104514100Y-133196285D02*
X104585528Y-132910571D01*
X104585528Y-132910571D02*
X104585528Y-132696285D01*
X104585528Y-132696285D02*
X104514100Y-132410571D01*
X104514100Y-132410571D02*
X104442671Y-132267714D01*
X104442671Y-132267714D02*
X104299814Y-132124857D01*
X104299814Y-132124857D02*
X104085528Y-132053428D01*
X104085528Y-132053428D02*
X103942671Y-132053428D01*
X103942671Y-132053428D02*
X103728385Y-132124857D01*
X103728385Y-132124857D02*
X103656957Y-132196285D01*
X101942671Y-133482000D02*
X101799814Y-133553428D01*
X101799814Y-133553428D02*
X101514100Y-133553428D01*
X101514100Y-133553428D02*
X101371243Y-133482000D01*
X101371243Y-133482000D02*
X101299814Y-133339142D01*
X101299814Y-133339142D02*
X101299814Y-133267714D01*
X101299814Y-133267714D02*
X101371243Y-133124857D01*
X101371243Y-133124857D02*
X101514100Y-133053428D01*
X101514100Y-133053428D02*
X101728386Y-133053428D01*
X101728386Y-133053428D02*
X101871243Y-132982000D01*
X101871243Y-132982000D02*
X101942671Y-132839142D01*
X101942671Y-132839142D02*
X101942671Y-132767714D01*
X101942671Y-132767714D02*
X101871243Y-132624857D01*
X101871243Y-132624857D02*
X101728386Y-132553428D01*
X101728386Y-132553428D02*
X101514100Y-132553428D01*
X101514100Y-132553428D02*
X101371243Y-132624857D01*
X100014100Y-132553428D02*
X100014100Y-133553428D01*
X100656957Y-132553428D02*
X100656957Y-133339142D01*
X100656957Y-133339142D02*
X100585528Y-133482000D01*
X100585528Y-133482000D02*
X100442671Y-133553428D01*
X100442671Y-133553428D02*
X100228385Y-133553428D01*
X100228385Y-133553428D02*
X100085528Y-133482000D01*
X100085528Y-133482000D02*
X100014100Y-133410571D01*
X99299814Y-132553428D02*
X99299814Y-134053428D01*
X99299814Y-132624857D02*
X99156957Y-132553428D01*
X99156957Y-132553428D02*
X98871242Y-132553428D01*
X98871242Y-132553428D02*
X98728385Y-132624857D01*
X98728385Y-132624857D02*
X98656957Y-132696285D01*
X98656957Y-132696285D02*
X98585528Y-132839142D01*
X98585528Y-132839142D02*
X98585528Y-133267714D01*
X98585528Y-133267714D02*
X98656957Y-133410571D01*
X98656957Y-133410571D02*
X98728385Y-133482000D01*
X98728385Y-133482000D02*
X98871242Y-133553428D01*
X98871242Y-133553428D02*
X99156957Y-133553428D01*
X99156957Y-133553428D02*
X99299814Y-133482000D01*
X97942671Y-132553428D02*
X97942671Y-134053428D01*
X97942671Y-132624857D02*
X97799814Y-132553428D01*
X97799814Y-132553428D02*
X97514099Y-132553428D01*
X97514099Y-132553428D02*
X97371242Y-132624857D01*
X97371242Y-132624857D02*
X97299814Y-132696285D01*
X97299814Y-132696285D02*
X97228385Y-132839142D01*
X97228385Y-132839142D02*
X97228385Y-133267714D01*
X97228385Y-133267714D02*
X97299814Y-133410571D01*
X97299814Y-133410571D02*
X97371242Y-133482000D01*
X97371242Y-133482000D02*
X97514099Y-133553428D01*
X97514099Y-133553428D02*
X97799814Y-133553428D01*
X97799814Y-133553428D02*
X97942671Y-133482000D01*
X96371242Y-133553428D02*
X96514099Y-133482000D01*
X96514099Y-133482000D02*
X96585528Y-133339142D01*
X96585528Y-133339142D02*
X96585528Y-132053428D01*
X95942671Y-132553428D02*
X95585528Y-133553428D01*
X95228385Y-132553428D02*
X95585528Y-133553428D01*
X95585528Y-133553428D02*
X95728385Y-133910571D01*
X95728385Y-133910571D02*
X95799814Y-133982000D01*
X95799814Y-133982000D02*
X95942671Y-134053428D01*
X94656957Y-133410571D02*
X94585528Y-133482000D01*
X94585528Y-133482000D02*
X94656957Y-133553428D01*
X94656957Y-133553428D02*
X94728385Y-133482000D01*
X94728385Y-133482000D02*
X94656957Y-133410571D01*
X94656957Y-133410571D02*
X94656957Y-133553428D01*
X162442669Y-96638512D02*
X161585527Y-96638512D01*
X162014098Y-98138512D02*
X162014098Y-96638512D01*
X161085527Y-98138512D02*
X161085527Y-96638512D01*
X161085527Y-96638512D02*
X160728384Y-96638512D01*
X160728384Y-96638512D02*
X160514098Y-96709941D01*
X160514098Y-96709941D02*
X160371241Y-96852798D01*
X160371241Y-96852798D02*
X160299812Y-96995655D01*
X160299812Y-96995655D02*
X160228384Y-97281369D01*
X160228384Y-97281369D02*
X160228384Y-97495655D01*
X160228384Y-97495655D02*
X160299812Y-97781369D01*
X160299812Y-97781369D02*
X160371241Y-97924226D01*
X160371241Y-97924226D02*
X160514098Y-98067084D01*
X160514098Y-98067084D02*
X160728384Y-98138512D01*
X160728384Y-98138512D02*
X161085527Y-98138512D01*
X159656955Y-97709941D02*
X158942670Y-97709941D01*
X159799812Y-98138512D02*
X159299812Y-96638512D01*
X159299812Y-96638512D02*
X158799812Y-98138512D01*
X158442670Y-96638512D02*
X157442670Y-96638512D01*
X157442670Y-96638512D02*
X158085527Y-98138512D01*
X156942670Y-96781369D02*
X156871242Y-96709941D01*
X156871242Y-96709941D02*
X156728385Y-96638512D01*
X156728385Y-96638512D02*
X156371242Y-96638512D01*
X156371242Y-96638512D02*
X156228385Y-96709941D01*
X156228385Y-96709941D02*
X156156956Y-96781369D01*
X156156956Y-96781369D02*
X156085527Y-96924226D01*
X156085527Y-96924226D02*
X156085527Y-97067084D01*
X156085527Y-97067084D02*
X156156956Y-97281369D01*
X156156956Y-97281369D02*
X157014099Y-98138512D01*
X157014099Y-98138512D02*
X156085527Y-98138512D01*
X154799814Y-96638512D02*
X155085528Y-96638512D01*
X155085528Y-96638512D02*
X155228385Y-96709941D01*
X155228385Y-96709941D02*
X155299814Y-96781369D01*
X155299814Y-96781369D02*
X155442671Y-96995655D01*
X155442671Y-96995655D02*
X155514099Y-97281369D01*
X155514099Y-97281369D02*
X155514099Y-97852798D01*
X155514099Y-97852798D02*
X155442671Y-97995655D01*
X155442671Y-97995655D02*
X155371242Y-98067084D01*
X155371242Y-98067084D02*
X155228385Y-98138512D01*
X155228385Y-98138512D02*
X154942671Y-98138512D01*
X154942671Y-98138512D02*
X154799814Y-98067084D01*
X154799814Y-98067084D02*
X154728385Y-97995655D01*
X154728385Y-97995655D02*
X154656956Y-97852798D01*
X154656956Y-97852798D02*
X154656956Y-97495655D01*
X154656956Y-97495655D02*
X154728385Y-97352798D01*
X154728385Y-97352798D02*
X154799814Y-97281369D01*
X154799814Y-97281369D02*
X154942671Y-97209941D01*
X154942671Y-97209941D02*
X155228385Y-97209941D01*
X155228385Y-97209941D02*
X155371242Y-97281369D01*
X155371242Y-97281369D02*
X155442671Y-97352798D01*
X155442671Y-97352798D02*
X155514099Y-97495655D01*
X154156957Y-96638512D02*
X153156957Y-96638512D01*
X153156957Y-96638512D02*
X153799814Y-98138512D01*
X151514100Y-96781369D02*
X151442672Y-96709941D01*
X151442672Y-96709941D02*
X151299815Y-96638512D01*
X151299815Y-96638512D02*
X150942672Y-96638512D01*
X150942672Y-96638512D02*
X150799815Y-96709941D01*
X150799815Y-96709941D02*
X150728386Y-96781369D01*
X150728386Y-96781369D02*
X150656957Y-96924226D01*
X150656957Y-96924226D02*
X150656957Y-97067084D01*
X150656957Y-97067084D02*
X150728386Y-97281369D01*
X150728386Y-97281369D02*
X151585529Y-98138512D01*
X151585529Y-98138512D02*
X150656957Y-98138512D01*
X150014101Y-97995655D02*
X149942672Y-98067084D01*
X149942672Y-98067084D02*
X150014101Y-98138512D01*
X150014101Y-98138512D02*
X150085529Y-98067084D01*
X150085529Y-98067084D02*
X150014101Y-97995655D01*
X150014101Y-97995655D02*
X150014101Y-98138512D01*
X148585529Y-96638512D02*
X149299815Y-96638512D01*
X149299815Y-96638512D02*
X149371243Y-97352798D01*
X149371243Y-97352798D02*
X149299815Y-97281369D01*
X149299815Y-97281369D02*
X149156958Y-97209941D01*
X149156958Y-97209941D02*
X148799815Y-97209941D01*
X148799815Y-97209941D02*
X148656958Y-97281369D01*
X148656958Y-97281369D02*
X148585529Y-97352798D01*
X148585529Y-97352798D02*
X148514100Y-97495655D01*
X148514100Y-97495655D02*
X148514100Y-97852798D01*
X148514100Y-97852798D02*
X148585529Y-97995655D01*
X148585529Y-97995655D02*
X148656958Y-98067084D01*
X148656958Y-98067084D02*
X148799815Y-98138512D01*
X148799815Y-98138512D02*
X149156958Y-98138512D01*
X149156958Y-98138512D02*
X149299815Y-98067084D01*
X149299815Y-98067084D02*
X149371243Y-97995655D01*
X148014101Y-96638512D02*
X147656958Y-98138512D01*
X147656958Y-98138512D02*
X147371244Y-97067084D01*
X147371244Y-97067084D02*
X147085529Y-98138512D01*
X147085529Y-98138512D02*
X146728387Y-96638512D01*
X145085529Y-97709941D02*
X144371244Y-97709941D01*
X145228386Y-98138512D02*
X144728386Y-96638512D01*
X144728386Y-96638512D02*
X144228386Y-98138512D01*
X143728387Y-98138512D02*
X143728387Y-97138512D01*
X143728387Y-97281369D02*
X143656958Y-97209941D01*
X143656958Y-97209941D02*
X143514101Y-97138512D01*
X143514101Y-97138512D02*
X143299815Y-97138512D01*
X143299815Y-97138512D02*
X143156958Y-97209941D01*
X143156958Y-97209941D02*
X143085530Y-97352798D01*
X143085530Y-97352798D02*
X143085530Y-98138512D01*
X143085530Y-97352798D02*
X143014101Y-97209941D01*
X143014101Y-97209941D02*
X142871244Y-97138512D01*
X142871244Y-97138512D02*
X142656958Y-97138512D01*
X142656958Y-97138512D02*
X142514101Y-97209941D01*
X142514101Y-97209941D02*
X142442672Y-97352798D01*
X142442672Y-97352798D02*
X142442672Y-98138512D01*
X141728387Y-97138512D02*
X141728387Y-98638512D01*
X141728387Y-97209941D02*
X141585530Y-97138512D01*
X141585530Y-97138512D02*
X141299815Y-97138512D01*
X141299815Y-97138512D02*
X141156958Y-97209941D01*
X141156958Y-97209941D02*
X141085530Y-97281369D01*
X141085530Y-97281369D02*
X141014101Y-97424226D01*
X141014101Y-97424226D02*
X141014101Y-97852798D01*
X141014101Y-97852798D02*
X141085530Y-97995655D01*
X141085530Y-97995655D02*
X141156958Y-98067084D01*
X141156958Y-98067084D02*
X141299815Y-98138512D01*
X141299815Y-98138512D02*
X141585530Y-98138512D01*
X141585530Y-98138512D02*
X141728387Y-98067084D01*
X140156958Y-98138512D02*
X140299815Y-98067084D01*
X140299815Y-98067084D02*
X140371244Y-97924226D01*
X140371244Y-97924226D02*
X140371244Y-96638512D01*
X139585530Y-98138512D02*
X139585530Y-97138512D01*
X139585530Y-96638512D02*
X139656958Y-96709941D01*
X139656958Y-96709941D02*
X139585530Y-96781369D01*
X139585530Y-96781369D02*
X139514101Y-96709941D01*
X139514101Y-96709941D02*
X139585530Y-96638512D01*
X139585530Y-96638512D02*
X139585530Y-96781369D01*
X139085529Y-97138512D02*
X138514101Y-97138512D01*
X138871244Y-98138512D02*
X138871244Y-96852798D01*
X138871244Y-96852798D02*
X138799815Y-96709941D01*
X138799815Y-96709941D02*
X138656958Y-96638512D01*
X138656958Y-96638512D02*
X138514101Y-96638512D01*
X138014101Y-98138512D02*
X138014101Y-97138512D01*
X138014101Y-96638512D02*
X138085529Y-96709941D01*
X138085529Y-96709941D02*
X138014101Y-96781369D01*
X138014101Y-96781369D02*
X137942672Y-96709941D01*
X137942672Y-96709941D02*
X138014101Y-96638512D01*
X138014101Y-96638512D02*
X138014101Y-96781369D01*
X136728386Y-98067084D02*
X136871243Y-98138512D01*
X136871243Y-98138512D02*
X137156958Y-98138512D01*
X137156958Y-98138512D02*
X137299815Y-98067084D01*
X137299815Y-98067084D02*
X137371243Y-97924226D01*
X137371243Y-97924226D02*
X137371243Y-97352798D01*
X137371243Y-97352798D02*
X137299815Y-97209941D01*
X137299815Y-97209941D02*
X137156958Y-97138512D01*
X137156958Y-97138512D02*
X136871243Y-97138512D01*
X136871243Y-97138512D02*
X136728386Y-97209941D01*
X136728386Y-97209941D02*
X136656958Y-97352798D01*
X136656958Y-97352798D02*
X136656958Y-97495655D01*
X136656958Y-97495655D02*
X137371243Y-97638512D01*
X136014101Y-98138512D02*
X136014101Y-97138512D01*
X136014101Y-97424226D02*
X135942672Y-97281369D01*
X135942672Y-97281369D02*
X135871244Y-97209941D01*
X135871244Y-97209941D02*
X135728386Y-97138512D01*
X135728386Y-97138512D02*
X135585529Y-97138512D01*
X135085530Y-97995655D02*
X135014101Y-98067084D01*
X135014101Y-98067084D02*
X135085530Y-98138512D01*
X135085530Y-98138512D02*
X135156958Y-98067084D01*
X135156958Y-98067084D02*
X135085530Y-97995655D01*
X135085530Y-97995655D02*
X135085530Y-98138512D01*
X161514098Y-99053428D02*
X162228384Y-99053428D01*
X162228384Y-99053428D02*
X162299812Y-99767714D01*
X162299812Y-99767714D02*
X162228384Y-99696285D01*
X162228384Y-99696285D02*
X162085527Y-99624857D01*
X162085527Y-99624857D02*
X161728384Y-99624857D01*
X161728384Y-99624857D02*
X161585527Y-99696285D01*
X161585527Y-99696285D02*
X161514098Y-99767714D01*
X161514098Y-99767714D02*
X161442669Y-99910571D01*
X161442669Y-99910571D02*
X161442669Y-100267714D01*
X161442669Y-100267714D02*
X161514098Y-100410571D01*
X161514098Y-100410571D02*
X161585527Y-100482000D01*
X161585527Y-100482000D02*
X161728384Y-100553428D01*
X161728384Y-100553428D02*
X162085527Y-100553428D01*
X162085527Y-100553428D02*
X162228384Y-100482000D01*
X162228384Y-100482000D02*
X162299812Y-100410571D01*
X159871241Y-99553428D02*
X159299813Y-99553428D01*
X159656956Y-99053428D02*
X159656956Y-100339142D01*
X159656956Y-100339142D02*
X159585527Y-100482000D01*
X159585527Y-100482000D02*
X159442670Y-100553428D01*
X159442670Y-100553428D02*
X159299813Y-100553428D01*
X158585527Y-100553428D02*
X158728384Y-100482000D01*
X158728384Y-100482000D02*
X158799813Y-100410571D01*
X158799813Y-100410571D02*
X158871241Y-100267714D01*
X158871241Y-100267714D02*
X158871241Y-99839142D01*
X158871241Y-99839142D02*
X158799813Y-99696285D01*
X158799813Y-99696285D02*
X158728384Y-99624857D01*
X158728384Y-99624857D02*
X158585527Y-99553428D01*
X158585527Y-99553428D02*
X158371241Y-99553428D01*
X158371241Y-99553428D02*
X158228384Y-99624857D01*
X158228384Y-99624857D02*
X158156956Y-99696285D01*
X158156956Y-99696285D02*
X158085527Y-99839142D01*
X158085527Y-99839142D02*
X158085527Y-100267714D01*
X158085527Y-100267714D02*
X158156956Y-100410571D01*
X158156956Y-100410571D02*
X158228384Y-100482000D01*
X158228384Y-100482000D02*
X158371241Y-100553428D01*
X158371241Y-100553428D02*
X158585527Y-100553428D01*
X155514098Y-100553428D02*
X156371241Y-100553428D01*
X155942670Y-100553428D02*
X155942670Y-99053428D01*
X155942670Y-99053428D02*
X156085527Y-99267714D01*
X156085527Y-99267714D02*
X156228384Y-99410571D01*
X156228384Y-99410571D02*
X156371241Y-99482000D01*
X154156956Y-99053428D02*
X154871242Y-99053428D01*
X154871242Y-99053428D02*
X154942670Y-99767714D01*
X154942670Y-99767714D02*
X154871242Y-99696285D01*
X154871242Y-99696285D02*
X154728385Y-99624857D01*
X154728385Y-99624857D02*
X154371242Y-99624857D01*
X154371242Y-99624857D02*
X154228385Y-99696285D01*
X154228385Y-99696285D02*
X154156956Y-99767714D01*
X154156956Y-99767714D02*
X154085527Y-99910571D01*
X154085527Y-99910571D02*
X154085527Y-100267714D01*
X154085527Y-100267714D02*
X154156956Y-100410571D01*
X154156956Y-100410571D02*
X154228385Y-100482000D01*
X154228385Y-100482000D02*
X154371242Y-100553428D01*
X154371242Y-100553428D02*
X154728385Y-100553428D01*
X154728385Y-100553428D02*
X154871242Y-100482000D01*
X154871242Y-100482000D02*
X154942670Y-100410571D01*
X153656956Y-99053428D02*
X153156956Y-100553428D01*
X153156956Y-100553428D02*
X152656956Y-99053428D01*
X151014100Y-100553428D02*
X151014100Y-99053428D01*
X151014100Y-99053428D02*
X150656957Y-99053428D01*
X150656957Y-99053428D02*
X150442671Y-99124857D01*
X150442671Y-99124857D02*
X150299814Y-99267714D01*
X150299814Y-99267714D02*
X150228385Y-99410571D01*
X150228385Y-99410571D02*
X150156957Y-99696285D01*
X150156957Y-99696285D02*
X150156957Y-99910571D01*
X150156957Y-99910571D02*
X150228385Y-100196285D01*
X150228385Y-100196285D02*
X150299814Y-100339142D01*
X150299814Y-100339142D02*
X150442671Y-100482000D01*
X150442671Y-100482000D02*
X150656957Y-100553428D01*
X150656957Y-100553428D02*
X151014100Y-100553428D01*
X148656957Y-100410571D02*
X148728385Y-100482000D01*
X148728385Y-100482000D02*
X148942671Y-100553428D01*
X148942671Y-100553428D02*
X149085528Y-100553428D01*
X149085528Y-100553428D02*
X149299814Y-100482000D01*
X149299814Y-100482000D02*
X149442671Y-100339142D01*
X149442671Y-100339142D02*
X149514100Y-100196285D01*
X149514100Y-100196285D02*
X149585528Y-99910571D01*
X149585528Y-99910571D02*
X149585528Y-99696285D01*
X149585528Y-99696285D02*
X149514100Y-99410571D01*
X149514100Y-99410571D02*
X149442671Y-99267714D01*
X149442671Y-99267714D02*
X149299814Y-99124857D01*
X149299814Y-99124857D02*
X149085528Y-99053428D01*
X149085528Y-99053428D02*
X148942671Y-99053428D01*
X148942671Y-99053428D02*
X148728385Y-99124857D01*
X148728385Y-99124857D02*
X148656957Y-99196285D01*
X146942671Y-100482000D02*
X146799814Y-100553428D01*
X146799814Y-100553428D02*
X146514100Y-100553428D01*
X146514100Y-100553428D02*
X146371243Y-100482000D01*
X146371243Y-100482000D02*
X146299814Y-100339142D01*
X146299814Y-100339142D02*
X146299814Y-100267714D01*
X146299814Y-100267714D02*
X146371243Y-100124857D01*
X146371243Y-100124857D02*
X146514100Y-100053428D01*
X146514100Y-100053428D02*
X146728386Y-100053428D01*
X146728386Y-100053428D02*
X146871243Y-99982000D01*
X146871243Y-99982000D02*
X146942671Y-99839142D01*
X146942671Y-99839142D02*
X146942671Y-99767714D01*
X146942671Y-99767714D02*
X146871243Y-99624857D01*
X146871243Y-99624857D02*
X146728386Y-99553428D01*
X146728386Y-99553428D02*
X146514100Y-99553428D01*
X146514100Y-99553428D02*
X146371243Y-99624857D01*
X145014100Y-99553428D02*
X145014100Y-100553428D01*
X145656957Y-99553428D02*
X145656957Y-100339142D01*
X145656957Y-100339142D02*
X145585528Y-100482000D01*
X145585528Y-100482000D02*
X145442671Y-100553428D01*
X145442671Y-100553428D02*
X145228385Y-100553428D01*
X145228385Y-100553428D02*
X145085528Y-100482000D01*
X145085528Y-100482000D02*
X145014100Y-100410571D01*
X144299814Y-99553428D02*
X144299814Y-101053428D01*
X144299814Y-99624857D02*
X144156957Y-99553428D01*
X144156957Y-99553428D02*
X143871242Y-99553428D01*
X143871242Y-99553428D02*
X143728385Y-99624857D01*
X143728385Y-99624857D02*
X143656957Y-99696285D01*
X143656957Y-99696285D02*
X143585528Y-99839142D01*
X143585528Y-99839142D02*
X143585528Y-100267714D01*
X143585528Y-100267714D02*
X143656957Y-100410571D01*
X143656957Y-100410571D02*
X143728385Y-100482000D01*
X143728385Y-100482000D02*
X143871242Y-100553428D01*
X143871242Y-100553428D02*
X144156957Y-100553428D01*
X144156957Y-100553428D02*
X144299814Y-100482000D01*
X142942671Y-99553428D02*
X142942671Y-101053428D01*
X142942671Y-99624857D02*
X142799814Y-99553428D01*
X142799814Y-99553428D02*
X142514099Y-99553428D01*
X142514099Y-99553428D02*
X142371242Y-99624857D01*
X142371242Y-99624857D02*
X142299814Y-99696285D01*
X142299814Y-99696285D02*
X142228385Y-99839142D01*
X142228385Y-99839142D02*
X142228385Y-100267714D01*
X142228385Y-100267714D02*
X142299814Y-100410571D01*
X142299814Y-100410571D02*
X142371242Y-100482000D01*
X142371242Y-100482000D02*
X142514099Y-100553428D01*
X142514099Y-100553428D02*
X142799814Y-100553428D01*
X142799814Y-100553428D02*
X142942671Y-100482000D01*
X141371242Y-100553428D02*
X141514099Y-100482000D01*
X141514099Y-100482000D02*
X141585528Y-100339142D01*
X141585528Y-100339142D02*
X141585528Y-99053428D01*
X140942671Y-99553428D02*
X140585528Y-100553428D01*
X140228385Y-99553428D02*
X140585528Y-100553428D01*
X140585528Y-100553428D02*
X140728385Y-100910571D01*
X140728385Y-100910571D02*
X140799814Y-100982000D01*
X140799814Y-100982000D02*
X140942671Y-101053428D01*
X139656957Y-100410571D02*
X139585528Y-100482000D01*
X139585528Y-100482000D02*
X139656957Y-100553428D01*
X139656957Y-100553428D02*
X139728385Y-100482000D01*
X139728385Y-100482000D02*
X139656957Y-100410571D01*
X139656957Y-100410571D02*
X139656957Y-100553428D01*
X117442669Y-96638512D02*
X116585527Y-96638512D01*
X117014098Y-98138512D02*
X117014098Y-96638512D01*
X116085527Y-98138512D02*
X116085527Y-96638512D01*
X116085527Y-96638512D02*
X115728384Y-96638512D01*
X115728384Y-96638512D02*
X115514098Y-96709941D01*
X115514098Y-96709941D02*
X115371241Y-96852798D01*
X115371241Y-96852798D02*
X115299812Y-96995655D01*
X115299812Y-96995655D02*
X115228384Y-97281369D01*
X115228384Y-97281369D02*
X115228384Y-97495655D01*
X115228384Y-97495655D02*
X115299812Y-97781369D01*
X115299812Y-97781369D02*
X115371241Y-97924226D01*
X115371241Y-97924226D02*
X115514098Y-98067084D01*
X115514098Y-98067084D02*
X115728384Y-98138512D01*
X115728384Y-98138512D02*
X116085527Y-98138512D01*
X114656955Y-97709941D02*
X113942670Y-97709941D01*
X114799812Y-98138512D02*
X114299812Y-96638512D01*
X114299812Y-96638512D02*
X113799812Y-98138512D01*
X113442670Y-96638512D02*
X112442670Y-96638512D01*
X112442670Y-96638512D02*
X113085527Y-98138512D01*
X111942670Y-96781369D02*
X111871242Y-96709941D01*
X111871242Y-96709941D02*
X111728385Y-96638512D01*
X111728385Y-96638512D02*
X111371242Y-96638512D01*
X111371242Y-96638512D02*
X111228385Y-96709941D01*
X111228385Y-96709941D02*
X111156956Y-96781369D01*
X111156956Y-96781369D02*
X111085527Y-96924226D01*
X111085527Y-96924226D02*
X111085527Y-97067084D01*
X111085527Y-97067084D02*
X111156956Y-97281369D01*
X111156956Y-97281369D02*
X112014099Y-98138512D01*
X112014099Y-98138512D02*
X111085527Y-98138512D01*
X109799814Y-96638512D02*
X110085528Y-96638512D01*
X110085528Y-96638512D02*
X110228385Y-96709941D01*
X110228385Y-96709941D02*
X110299814Y-96781369D01*
X110299814Y-96781369D02*
X110442671Y-96995655D01*
X110442671Y-96995655D02*
X110514099Y-97281369D01*
X110514099Y-97281369D02*
X110514099Y-97852798D01*
X110514099Y-97852798D02*
X110442671Y-97995655D01*
X110442671Y-97995655D02*
X110371242Y-98067084D01*
X110371242Y-98067084D02*
X110228385Y-98138512D01*
X110228385Y-98138512D02*
X109942671Y-98138512D01*
X109942671Y-98138512D02*
X109799814Y-98067084D01*
X109799814Y-98067084D02*
X109728385Y-97995655D01*
X109728385Y-97995655D02*
X109656956Y-97852798D01*
X109656956Y-97852798D02*
X109656956Y-97495655D01*
X109656956Y-97495655D02*
X109728385Y-97352798D01*
X109728385Y-97352798D02*
X109799814Y-97281369D01*
X109799814Y-97281369D02*
X109942671Y-97209941D01*
X109942671Y-97209941D02*
X110228385Y-97209941D01*
X110228385Y-97209941D02*
X110371242Y-97281369D01*
X110371242Y-97281369D02*
X110442671Y-97352798D01*
X110442671Y-97352798D02*
X110514099Y-97495655D01*
X109156957Y-96638512D02*
X108156957Y-96638512D01*
X108156957Y-96638512D02*
X108799814Y-98138512D01*
X106514100Y-96781369D02*
X106442672Y-96709941D01*
X106442672Y-96709941D02*
X106299815Y-96638512D01*
X106299815Y-96638512D02*
X105942672Y-96638512D01*
X105942672Y-96638512D02*
X105799815Y-96709941D01*
X105799815Y-96709941D02*
X105728386Y-96781369D01*
X105728386Y-96781369D02*
X105656957Y-96924226D01*
X105656957Y-96924226D02*
X105656957Y-97067084D01*
X105656957Y-97067084D02*
X105728386Y-97281369D01*
X105728386Y-97281369D02*
X106585529Y-98138512D01*
X106585529Y-98138512D02*
X105656957Y-98138512D01*
X105014101Y-97995655D02*
X104942672Y-98067084D01*
X104942672Y-98067084D02*
X105014101Y-98138512D01*
X105014101Y-98138512D02*
X105085529Y-98067084D01*
X105085529Y-98067084D02*
X105014101Y-97995655D01*
X105014101Y-97995655D02*
X105014101Y-98138512D01*
X103585529Y-96638512D02*
X104299815Y-96638512D01*
X104299815Y-96638512D02*
X104371243Y-97352798D01*
X104371243Y-97352798D02*
X104299815Y-97281369D01*
X104299815Y-97281369D02*
X104156958Y-97209941D01*
X104156958Y-97209941D02*
X103799815Y-97209941D01*
X103799815Y-97209941D02*
X103656958Y-97281369D01*
X103656958Y-97281369D02*
X103585529Y-97352798D01*
X103585529Y-97352798D02*
X103514100Y-97495655D01*
X103514100Y-97495655D02*
X103514100Y-97852798D01*
X103514100Y-97852798D02*
X103585529Y-97995655D01*
X103585529Y-97995655D02*
X103656958Y-98067084D01*
X103656958Y-98067084D02*
X103799815Y-98138512D01*
X103799815Y-98138512D02*
X104156958Y-98138512D01*
X104156958Y-98138512D02*
X104299815Y-98067084D01*
X104299815Y-98067084D02*
X104371243Y-97995655D01*
X103014101Y-96638512D02*
X102656958Y-98138512D01*
X102656958Y-98138512D02*
X102371244Y-97067084D01*
X102371244Y-97067084D02*
X102085529Y-98138512D01*
X102085529Y-98138512D02*
X101728387Y-96638512D01*
X100085529Y-97709941D02*
X99371244Y-97709941D01*
X100228386Y-98138512D02*
X99728386Y-96638512D01*
X99728386Y-96638512D02*
X99228386Y-98138512D01*
X98728387Y-98138512D02*
X98728387Y-97138512D01*
X98728387Y-97281369D02*
X98656958Y-97209941D01*
X98656958Y-97209941D02*
X98514101Y-97138512D01*
X98514101Y-97138512D02*
X98299815Y-97138512D01*
X98299815Y-97138512D02*
X98156958Y-97209941D01*
X98156958Y-97209941D02*
X98085530Y-97352798D01*
X98085530Y-97352798D02*
X98085530Y-98138512D01*
X98085530Y-97352798D02*
X98014101Y-97209941D01*
X98014101Y-97209941D02*
X97871244Y-97138512D01*
X97871244Y-97138512D02*
X97656958Y-97138512D01*
X97656958Y-97138512D02*
X97514101Y-97209941D01*
X97514101Y-97209941D02*
X97442672Y-97352798D01*
X97442672Y-97352798D02*
X97442672Y-98138512D01*
X96728387Y-97138512D02*
X96728387Y-98638512D01*
X96728387Y-97209941D02*
X96585530Y-97138512D01*
X96585530Y-97138512D02*
X96299815Y-97138512D01*
X96299815Y-97138512D02*
X96156958Y-97209941D01*
X96156958Y-97209941D02*
X96085530Y-97281369D01*
X96085530Y-97281369D02*
X96014101Y-97424226D01*
X96014101Y-97424226D02*
X96014101Y-97852798D01*
X96014101Y-97852798D02*
X96085530Y-97995655D01*
X96085530Y-97995655D02*
X96156958Y-98067084D01*
X96156958Y-98067084D02*
X96299815Y-98138512D01*
X96299815Y-98138512D02*
X96585530Y-98138512D01*
X96585530Y-98138512D02*
X96728387Y-98067084D01*
X95156958Y-98138512D02*
X95299815Y-98067084D01*
X95299815Y-98067084D02*
X95371244Y-97924226D01*
X95371244Y-97924226D02*
X95371244Y-96638512D01*
X94585530Y-98138512D02*
X94585530Y-97138512D01*
X94585530Y-96638512D02*
X94656958Y-96709941D01*
X94656958Y-96709941D02*
X94585530Y-96781369D01*
X94585530Y-96781369D02*
X94514101Y-96709941D01*
X94514101Y-96709941D02*
X94585530Y-96638512D01*
X94585530Y-96638512D02*
X94585530Y-96781369D01*
X94085529Y-97138512D02*
X93514101Y-97138512D01*
X93871244Y-98138512D02*
X93871244Y-96852798D01*
X93871244Y-96852798D02*
X93799815Y-96709941D01*
X93799815Y-96709941D02*
X93656958Y-96638512D01*
X93656958Y-96638512D02*
X93514101Y-96638512D01*
X93014101Y-98138512D02*
X93014101Y-97138512D01*
X93014101Y-96638512D02*
X93085529Y-96709941D01*
X93085529Y-96709941D02*
X93014101Y-96781369D01*
X93014101Y-96781369D02*
X92942672Y-96709941D01*
X92942672Y-96709941D02*
X93014101Y-96638512D01*
X93014101Y-96638512D02*
X93014101Y-96781369D01*
X91728386Y-98067084D02*
X91871243Y-98138512D01*
X91871243Y-98138512D02*
X92156958Y-98138512D01*
X92156958Y-98138512D02*
X92299815Y-98067084D01*
X92299815Y-98067084D02*
X92371243Y-97924226D01*
X92371243Y-97924226D02*
X92371243Y-97352798D01*
X92371243Y-97352798D02*
X92299815Y-97209941D01*
X92299815Y-97209941D02*
X92156958Y-97138512D01*
X92156958Y-97138512D02*
X91871243Y-97138512D01*
X91871243Y-97138512D02*
X91728386Y-97209941D01*
X91728386Y-97209941D02*
X91656958Y-97352798D01*
X91656958Y-97352798D02*
X91656958Y-97495655D01*
X91656958Y-97495655D02*
X92371243Y-97638512D01*
X91014101Y-98138512D02*
X91014101Y-97138512D01*
X91014101Y-97424226D02*
X90942672Y-97281369D01*
X90942672Y-97281369D02*
X90871244Y-97209941D01*
X90871244Y-97209941D02*
X90728386Y-97138512D01*
X90728386Y-97138512D02*
X90585529Y-97138512D01*
X90085530Y-97995655D02*
X90014101Y-98067084D01*
X90014101Y-98067084D02*
X90085530Y-98138512D01*
X90085530Y-98138512D02*
X90156958Y-98067084D01*
X90156958Y-98067084D02*
X90085530Y-97995655D01*
X90085530Y-97995655D02*
X90085530Y-98138512D01*
X116514098Y-99053428D02*
X117228384Y-99053428D01*
X117228384Y-99053428D02*
X117299812Y-99767714D01*
X117299812Y-99767714D02*
X117228384Y-99696285D01*
X117228384Y-99696285D02*
X117085527Y-99624857D01*
X117085527Y-99624857D02*
X116728384Y-99624857D01*
X116728384Y-99624857D02*
X116585527Y-99696285D01*
X116585527Y-99696285D02*
X116514098Y-99767714D01*
X116514098Y-99767714D02*
X116442669Y-99910571D01*
X116442669Y-99910571D02*
X116442669Y-100267714D01*
X116442669Y-100267714D02*
X116514098Y-100410571D01*
X116514098Y-100410571D02*
X116585527Y-100482000D01*
X116585527Y-100482000D02*
X116728384Y-100553428D01*
X116728384Y-100553428D02*
X117085527Y-100553428D01*
X117085527Y-100553428D02*
X117228384Y-100482000D01*
X117228384Y-100482000D02*
X117299812Y-100410571D01*
X114871241Y-99553428D02*
X114299813Y-99553428D01*
X114656956Y-99053428D02*
X114656956Y-100339142D01*
X114656956Y-100339142D02*
X114585527Y-100482000D01*
X114585527Y-100482000D02*
X114442670Y-100553428D01*
X114442670Y-100553428D02*
X114299813Y-100553428D01*
X113585527Y-100553428D02*
X113728384Y-100482000D01*
X113728384Y-100482000D02*
X113799813Y-100410571D01*
X113799813Y-100410571D02*
X113871241Y-100267714D01*
X113871241Y-100267714D02*
X113871241Y-99839142D01*
X113871241Y-99839142D02*
X113799813Y-99696285D01*
X113799813Y-99696285D02*
X113728384Y-99624857D01*
X113728384Y-99624857D02*
X113585527Y-99553428D01*
X113585527Y-99553428D02*
X113371241Y-99553428D01*
X113371241Y-99553428D02*
X113228384Y-99624857D01*
X113228384Y-99624857D02*
X113156956Y-99696285D01*
X113156956Y-99696285D02*
X113085527Y-99839142D01*
X113085527Y-99839142D02*
X113085527Y-100267714D01*
X113085527Y-100267714D02*
X113156956Y-100410571D01*
X113156956Y-100410571D02*
X113228384Y-100482000D01*
X113228384Y-100482000D02*
X113371241Y-100553428D01*
X113371241Y-100553428D02*
X113585527Y-100553428D01*
X110514098Y-100553428D02*
X111371241Y-100553428D01*
X110942670Y-100553428D02*
X110942670Y-99053428D01*
X110942670Y-99053428D02*
X111085527Y-99267714D01*
X111085527Y-99267714D02*
X111228384Y-99410571D01*
X111228384Y-99410571D02*
X111371241Y-99482000D01*
X109156956Y-99053428D02*
X109871242Y-99053428D01*
X109871242Y-99053428D02*
X109942670Y-99767714D01*
X109942670Y-99767714D02*
X109871242Y-99696285D01*
X109871242Y-99696285D02*
X109728385Y-99624857D01*
X109728385Y-99624857D02*
X109371242Y-99624857D01*
X109371242Y-99624857D02*
X109228385Y-99696285D01*
X109228385Y-99696285D02*
X109156956Y-99767714D01*
X109156956Y-99767714D02*
X109085527Y-99910571D01*
X109085527Y-99910571D02*
X109085527Y-100267714D01*
X109085527Y-100267714D02*
X109156956Y-100410571D01*
X109156956Y-100410571D02*
X109228385Y-100482000D01*
X109228385Y-100482000D02*
X109371242Y-100553428D01*
X109371242Y-100553428D02*
X109728385Y-100553428D01*
X109728385Y-100553428D02*
X109871242Y-100482000D01*
X109871242Y-100482000D02*
X109942670Y-100410571D01*
X108656956Y-99053428D02*
X108156956Y-100553428D01*
X108156956Y-100553428D02*
X107656956Y-99053428D01*
X106014100Y-100553428D02*
X106014100Y-99053428D01*
X106014100Y-99053428D02*
X105656957Y-99053428D01*
X105656957Y-99053428D02*
X105442671Y-99124857D01*
X105442671Y-99124857D02*
X105299814Y-99267714D01*
X105299814Y-99267714D02*
X105228385Y-99410571D01*
X105228385Y-99410571D02*
X105156957Y-99696285D01*
X105156957Y-99696285D02*
X105156957Y-99910571D01*
X105156957Y-99910571D02*
X105228385Y-100196285D01*
X105228385Y-100196285D02*
X105299814Y-100339142D01*
X105299814Y-100339142D02*
X105442671Y-100482000D01*
X105442671Y-100482000D02*
X105656957Y-100553428D01*
X105656957Y-100553428D02*
X106014100Y-100553428D01*
X103656957Y-100410571D02*
X103728385Y-100482000D01*
X103728385Y-100482000D02*
X103942671Y-100553428D01*
X103942671Y-100553428D02*
X104085528Y-100553428D01*
X104085528Y-100553428D02*
X104299814Y-100482000D01*
X104299814Y-100482000D02*
X104442671Y-100339142D01*
X104442671Y-100339142D02*
X104514100Y-100196285D01*
X104514100Y-100196285D02*
X104585528Y-99910571D01*
X104585528Y-99910571D02*
X104585528Y-99696285D01*
X104585528Y-99696285D02*
X104514100Y-99410571D01*
X104514100Y-99410571D02*
X104442671Y-99267714D01*
X104442671Y-99267714D02*
X104299814Y-99124857D01*
X104299814Y-99124857D02*
X104085528Y-99053428D01*
X104085528Y-99053428D02*
X103942671Y-99053428D01*
X103942671Y-99053428D02*
X103728385Y-99124857D01*
X103728385Y-99124857D02*
X103656957Y-99196285D01*
X101942671Y-100482000D02*
X101799814Y-100553428D01*
X101799814Y-100553428D02*
X101514100Y-100553428D01*
X101514100Y-100553428D02*
X101371243Y-100482000D01*
X101371243Y-100482000D02*
X101299814Y-100339142D01*
X101299814Y-100339142D02*
X101299814Y-100267714D01*
X101299814Y-100267714D02*
X101371243Y-100124857D01*
X101371243Y-100124857D02*
X101514100Y-100053428D01*
X101514100Y-100053428D02*
X101728386Y-100053428D01*
X101728386Y-100053428D02*
X101871243Y-99982000D01*
X101871243Y-99982000D02*
X101942671Y-99839142D01*
X101942671Y-99839142D02*
X101942671Y-99767714D01*
X101942671Y-99767714D02*
X101871243Y-99624857D01*
X101871243Y-99624857D02*
X101728386Y-99553428D01*
X101728386Y-99553428D02*
X101514100Y-99553428D01*
X101514100Y-99553428D02*
X101371243Y-99624857D01*
X100014100Y-99553428D02*
X100014100Y-100553428D01*
X100656957Y-99553428D02*
X100656957Y-100339142D01*
X100656957Y-100339142D02*
X100585528Y-100482000D01*
X100585528Y-100482000D02*
X100442671Y-100553428D01*
X100442671Y-100553428D02*
X100228385Y-100553428D01*
X100228385Y-100553428D02*
X100085528Y-100482000D01*
X100085528Y-100482000D02*
X100014100Y-100410571D01*
X99299814Y-99553428D02*
X99299814Y-101053428D01*
X99299814Y-99624857D02*
X99156957Y-99553428D01*
X99156957Y-99553428D02*
X98871242Y-99553428D01*
X98871242Y-99553428D02*
X98728385Y-99624857D01*
X98728385Y-99624857D02*
X98656957Y-99696285D01*
X98656957Y-99696285D02*
X98585528Y-99839142D01*
X98585528Y-99839142D02*
X98585528Y-100267714D01*
X98585528Y-100267714D02*
X98656957Y-100410571D01*
X98656957Y-100410571D02*
X98728385Y-100482000D01*
X98728385Y-100482000D02*
X98871242Y-100553428D01*
X98871242Y-100553428D02*
X99156957Y-100553428D01*
X99156957Y-100553428D02*
X99299814Y-100482000D01*
X97942671Y-99553428D02*
X97942671Y-101053428D01*
X97942671Y-99624857D02*
X97799814Y-99553428D01*
X97799814Y-99553428D02*
X97514099Y-99553428D01*
X97514099Y-99553428D02*
X97371242Y-99624857D01*
X97371242Y-99624857D02*
X97299814Y-99696285D01*
X97299814Y-99696285D02*
X97228385Y-99839142D01*
X97228385Y-99839142D02*
X97228385Y-100267714D01*
X97228385Y-100267714D02*
X97299814Y-100410571D01*
X97299814Y-100410571D02*
X97371242Y-100482000D01*
X97371242Y-100482000D02*
X97514099Y-100553428D01*
X97514099Y-100553428D02*
X97799814Y-100553428D01*
X97799814Y-100553428D02*
X97942671Y-100482000D01*
X96371242Y-100553428D02*
X96514099Y-100482000D01*
X96514099Y-100482000D02*
X96585528Y-100339142D01*
X96585528Y-100339142D02*
X96585528Y-99053428D01*
X95942671Y-99553428D02*
X95585528Y-100553428D01*
X95228385Y-99553428D02*
X95585528Y-100553428D01*
X95585528Y-100553428D02*
X95728385Y-100910571D01*
X95728385Y-100910571D02*
X95799814Y-100982000D01*
X95799814Y-100982000D02*
X95942671Y-101053428D01*
X94656957Y-100410571D02*
X94585528Y-100482000D01*
X94585528Y-100482000D02*
X94656957Y-100553428D01*
X94656957Y-100553428D02*
X94728385Y-100482000D01*
X94728385Y-100482000D02*
X94656957Y-100410571D01*
X94656957Y-100410571D02*
X94656957Y-100553428D01*
X162442669Y-63638512D02*
X161585527Y-63638512D01*
X162014098Y-65138512D02*
X162014098Y-63638512D01*
X161085527Y-65138512D02*
X161085527Y-63638512D01*
X161085527Y-63638512D02*
X160728384Y-63638512D01*
X160728384Y-63638512D02*
X160514098Y-63709941D01*
X160514098Y-63709941D02*
X160371241Y-63852798D01*
X160371241Y-63852798D02*
X160299812Y-63995655D01*
X160299812Y-63995655D02*
X160228384Y-64281369D01*
X160228384Y-64281369D02*
X160228384Y-64495655D01*
X160228384Y-64495655D02*
X160299812Y-64781369D01*
X160299812Y-64781369D02*
X160371241Y-64924226D01*
X160371241Y-64924226D02*
X160514098Y-65067084D01*
X160514098Y-65067084D02*
X160728384Y-65138512D01*
X160728384Y-65138512D02*
X161085527Y-65138512D01*
X159656955Y-64709941D02*
X158942670Y-64709941D01*
X159799812Y-65138512D02*
X159299812Y-63638512D01*
X159299812Y-63638512D02*
X158799812Y-65138512D01*
X158442670Y-63638512D02*
X157442670Y-63638512D01*
X157442670Y-63638512D02*
X158085527Y-65138512D01*
X156942670Y-63781369D02*
X156871242Y-63709941D01*
X156871242Y-63709941D02*
X156728385Y-63638512D01*
X156728385Y-63638512D02*
X156371242Y-63638512D01*
X156371242Y-63638512D02*
X156228385Y-63709941D01*
X156228385Y-63709941D02*
X156156956Y-63781369D01*
X156156956Y-63781369D02*
X156085527Y-63924226D01*
X156085527Y-63924226D02*
X156085527Y-64067084D01*
X156085527Y-64067084D02*
X156156956Y-64281369D01*
X156156956Y-64281369D02*
X157014099Y-65138512D01*
X157014099Y-65138512D02*
X156085527Y-65138512D01*
X154799814Y-63638512D02*
X155085528Y-63638512D01*
X155085528Y-63638512D02*
X155228385Y-63709941D01*
X155228385Y-63709941D02*
X155299814Y-63781369D01*
X155299814Y-63781369D02*
X155442671Y-63995655D01*
X155442671Y-63995655D02*
X155514099Y-64281369D01*
X155514099Y-64281369D02*
X155514099Y-64852798D01*
X155514099Y-64852798D02*
X155442671Y-64995655D01*
X155442671Y-64995655D02*
X155371242Y-65067084D01*
X155371242Y-65067084D02*
X155228385Y-65138512D01*
X155228385Y-65138512D02*
X154942671Y-65138512D01*
X154942671Y-65138512D02*
X154799814Y-65067084D01*
X154799814Y-65067084D02*
X154728385Y-64995655D01*
X154728385Y-64995655D02*
X154656956Y-64852798D01*
X154656956Y-64852798D02*
X154656956Y-64495655D01*
X154656956Y-64495655D02*
X154728385Y-64352798D01*
X154728385Y-64352798D02*
X154799814Y-64281369D01*
X154799814Y-64281369D02*
X154942671Y-64209941D01*
X154942671Y-64209941D02*
X155228385Y-64209941D01*
X155228385Y-64209941D02*
X155371242Y-64281369D01*
X155371242Y-64281369D02*
X155442671Y-64352798D01*
X155442671Y-64352798D02*
X155514099Y-64495655D01*
X154156957Y-63638512D02*
X153156957Y-63638512D01*
X153156957Y-63638512D02*
X153799814Y-65138512D01*
X151514100Y-63781369D02*
X151442672Y-63709941D01*
X151442672Y-63709941D02*
X151299815Y-63638512D01*
X151299815Y-63638512D02*
X150942672Y-63638512D01*
X150942672Y-63638512D02*
X150799815Y-63709941D01*
X150799815Y-63709941D02*
X150728386Y-63781369D01*
X150728386Y-63781369D02*
X150656957Y-63924226D01*
X150656957Y-63924226D02*
X150656957Y-64067084D01*
X150656957Y-64067084D02*
X150728386Y-64281369D01*
X150728386Y-64281369D02*
X151585529Y-65138512D01*
X151585529Y-65138512D02*
X150656957Y-65138512D01*
X150014101Y-64995655D02*
X149942672Y-65067084D01*
X149942672Y-65067084D02*
X150014101Y-65138512D01*
X150014101Y-65138512D02*
X150085529Y-65067084D01*
X150085529Y-65067084D02*
X150014101Y-64995655D01*
X150014101Y-64995655D02*
X150014101Y-65138512D01*
X148585529Y-63638512D02*
X149299815Y-63638512D01*
X149299815Y-63638512D02*
X149371243Y-64352798D01*
X149371243Y-64352798D02*
X149299815Y-64281369D01*
X149299815Y-64281369D02*
X149156958Y-64209941D01*
X149156958Y-64209941D02*
X148799815Y-64209941D01*
X148799815Y-64209941D02*
X148656958Y-64281369D01*
X148656958Y-64281369D02*
X148585529Y-64352798D01*
X148585529Y-64352798D02*
X148514100Y-64495655D01*
X148514100Y-64495655D02*
X148514100Y-64852798D01*
X148514100Y-64852798D02*
X148585529Y-64995655D01*
X148585529Y-64995655D02*
X148656958Y-65067084D01*
X148656958Y-65067084D02*
X148799815Y-65138512D01*
X148799815Y-65138512D02*
X149156958Y-65138512D01*
X149156958Y-65138512D02*
X149299815Y-65067084D01*
X149299815Y-65067084D02*
X149371243Y-64995655D01*
X148014101Y-63638512D02*
X147656958Y-65138512D01*
X147656958Y-65138512D02*
X147371244Y-64067084D01*
X147371244Y-64067084D02*
X147085529Y-65138512D01*
X147085529Y-65138512D02*
X146728387Y-63638512D01*
X145085529Y-64709941D02*
X144371244Y-64709941D01*
X145228386Y-65138512D02*
X144728386Y-63638512D01*
X144728386Y-63638512D02*
X144228386Y-65138512D01*
X143728387Y-65138512D02*
X143728387Y-64138512D01*
X143728387Y-64281369D02*
X143656958Y-64209941D01*
X143656958Y-64209941D02*
X143514101Y-64138512D01*
X143514101Y-64138512D02*
X143299815Y-64138512D01*
X143299815Y-64138512D02*
X143156958Y-64209941D01*
X143156958Y-64209941D02*
X143085530Y-64352798D01*
X143085530Y-64352798D02*
X143085530Y-65138512D01*
X143085530Y-64352798D02*
X143014101Y-64209941D01*
X143014101Y-64209941D02*
X142871244Y-64138512D01*
X142871244Y-64138512D02*
X142656958Y-64138512D01*
X142656958Y-64138512D02*
X142514101Y-64209941D01*
X142514101Y-64209941D02*
X142442672Y-64352798D01*
X142442672Y-64352798D02*
X142442672Y-65138512D01*
X141728387Y-64138512D02*
X141728387Y-65638512D01*
X141728387Y-64209941D02*
X141585530Y-64138512D01*
X141585530Y-64138512D02*
X141299815Y-64138512D01*
X141299815Y-64138512D02*
X141156958Y-64209941D01*
X141156958Y-64209941D02*
X141085530Y-64281369D01*
X141085530Y-64281369D02*
X141014101Y-64424226D01*
X141014101Y-64424226D02*
X141014101Y-64852798D01*
X141014101Y-64852798D02*
X141085530Y-64995655D01*
X141085530Y-64995655D02*
X141156958Y-65067084D01*
X141156958Y-65067084D02*
X141299815Y-65138512D01*
X141299815Y-65138512D02*
X141585530Y-65138512D01*
X141585530Y-65138512D02*
X141728387Y-65067084D01*
X140156958Y-65138512D02*
X140299815Y-65067084D01*
X140299815Y-65067084D02*
X140371244Y-64924226D01*
X140371244Y-64924226D02*
X140371244Y-63638512D01*
X139585530Y-65138512D02*
X139585530Y-64138512D01*
X139585530Y-63638512D02*
X139656958Y-63709941D01*
X139656958Y-63709941D02*
X139585530Y-63781369D01*
X139585530Y-63781369D02*
X139514101Y-63709941D01*
X139514101Y-63709941D02*
X139585530Y-63638512D01*
X139585530Y-63638512D02*
X139585530Y-63781369D01*
X139085529Y-64138512D02*
X138514101Y-64138512D01*
X138871244Y-65138512D02*
X138871244Y-63852798D01*
X138871244Y-63852798D02*
X138799815Y-63709941D01*
X138799815Y-63709941D02*
X138656958Y-63638512D01*
X138656958Y-63638512D02*
X138514101Y-63638512D01*
X138014101Y-65138512D02*
X138014101Y-64138512D01*
X138014101Y-63638512D02*
X138085529Y-63709941D01*
X138085529Y-63709941D02*
X138014101Y-63781369D01*
X138014101Y-63781369D02*
X137942672Y-63709941D01*
X137942672Y-63709941D02*
X138014101Y-63638512D01*
X138014101Y-63638512D02*
X138014101Y-63781369D01*
X136728386Y-65067084D02*
X136871243Y-65138512D01*
X136871243Y-65138512D02*
X137156958Y-65138512D01*
X137156958Y-65138512D02*
X137299815Y-65067084D01*
X137299815Y-65067084D02*
X137371243Y-64924226D01*
X137371243Y-64924226D02*
X137371243Y-64352798D01*
X137371243Y-64352798D02*
X137299815Y-64209941D01*
X137299815Y-64209941D02*
X137156958Y-64138512D01*
X137156958Y-64138512D02*
X136871243Y-64138512D01*
X136871243Y-64138512D02*
X136728386Y-64209941D01*
X136728386Y-64209941D02*
X136656958Y-64352798D01*
X136656958Y-64352798D02*
X136656958Y-64495655D01*
X136656958Y-64495655D02*
X137371243Y-64638512D01*
X136014101Y-65138512D02*
X136014101Y-64138512D01*
X136014101Y-64424226D02*
X135942672Y-64281369D01*
X135942672Y-64281369D02*
X135871244Y-64209941D01*
X135871244Y-64209941D02*
X135728386Y-64138512D01*
X135728386Y-64138512D02*
X135585529Y-64138512D01*
X135085530Y-64995655D02*
X135014101Y-65067084D01*
X135014101Y-65067084D02*
X135085530Y-65138512D01*
X135085530Y-65138512D02*
X135156958Y-65067084D01*
X135156958Y-65067084D02*
X135085530Y-64995655D01*
X135085530Y-64995655D02*
X135085530Y-65138512D01*
X161514098Y-66053428D02*
X162228384Y-66053428D01*
X162228384Y-66053428D02*
X162299812Y-66767714D01*
X162299812Y-66767714D02*
X162228384Y-66696285D01*
X162228384Y-66696285D02*
X162085527Y-66624857D01*
X162085527Y-66624857D02*
X161728384Y-66624857D01*
X161728384Y-66624857D02*
X161585527Y-66696285D01*
X161585527Y-66696285D02*
X161514098Y-66767714D01*
X161514098Y-66767714D02*
X161442669Y-66910571D01*
X161442669Y-66910571D02*
X161442669Y-67267714D01*
X161442669Y-67267714D02*
X161514098Y-67410571D01*
X161514098Y-67410571D02*
X161585527Y-67482000D01*
X161585527Y-67482000D02*
X161728384Y-67553428D01*
X161728384Y-67553428D02*
X162085527Y-67553428D01*
X162085527Y-67553428D02*
X162228384Y-67482000D01*
X162228384Y-67482000D02*
X162299812Y-67410571D01*
X159871241Y-66553428D02*
X159299813Y-66553428D01*
X159656956Y-66053428D02*
X159656956Y-67339142D01*
X159656956Y-67339142D02*
X159585527Y-67482000D01*
X159585527Y-67482000D02*
X159442670Y-67553428D01*
X159442670Y-67553428D02*
X159299813Y-67553428D01*
X158585527Y-67553428D02*
X158728384Y-67482000D01*
X158728384Y-67482000D02*
X158799813Y-67410571D01*
X158799813Y-67410571D02*
X158871241Y-67267714D01*
X158871241Y-67267714D02*
X158871241Y-66839142D01*
X158871241Y-66839142D02*
X158799813Y-66696285D01*
X158799813Y-66696285D02*
X158728384Y-66624857D01*
X158728384Y-66624857D02*
X158585527Y-66553428D01*
X158585527Y-66553428D02*
X158371241Y-66553428D01*
X158371241Y-66553428D02*
X158228384Y-66624857D01*
X158228384Y-66624857D02*
X158156956Y-66696285D01*
X158156956Y-66696285D02*
X158085527Y-66839142D01*
X158085527Y-66839142D02*
X158085527Y-67267714D01*
X158085527Y-67267714D02*
X158156956Y-67410571D01*
X158156956Y-67410571D02*
X158228384Y-67482000D01*
X158228384Y-67482000D02*
X158371241Y-67553428D01*
X158371241Y-67553428D02*
X158585527Y-67553428D01*
X155514098Y-67553428D02*
X156371241Y-67553428D01*
X155942670Y-67553428D02*
X155942670Y-66053428D01*
X155942670Y-66053428D02*
X156085527Y-66267714D01*
X156085527Y-66267714D02*
X156228384Y-66410571D01*
X156228384Y-66410571D02*
X156371241Y-66482000D01*
X154156956Y-66053428D02*
X154871242Y-66053428D01*
X154871242Y-66053428D02*
X154942670Y-66767714D01*
X154942670Y-66767714D02*
X154871242Y-66696285D01*
X154871242Y-66696285D02*
X154728385Y-66624857D01*
X154728385Y-66624857D02*
X154371242Y-66624857D01*
X154371242Y-66624857D02*
X154228385Y-66696285D01*
X154228385Y-66696285D02*
X154156956Y-66767714D01*
X154156956Y-66767714D02*
X154085527Y-66910571D01*
X154085527Y-66910571D02*
X154085527Y-67267714D01*
X154085527Y-67267714D02*
X154156956Y-67410571D01*
X154156956Y-67410571D02*
X154228385Y-67482000D01*
X154228385Y-67482000D02*
X154371242Y-67553428D01*
X154371242Y-67553428D02*
X154728385Y-67553428D01*
X154728385Y-67553428D02*
X154871242Y-67482000D01*
X154871242Y-67482000D02*
X154942670Y-67410571D01*
X153656956Y-66053428D02*
X153156956Y-67553428D01*
X153156956Y-67553428D02*
X152656956Y-66053428D01*
X151014100Y-67553428D02*
X151014100Y-66053428D01*
X151014100Y-66053428D02*
X150656957Y-66053428D01*
X150656957Y-66053428D02*
X150442671Y-66124857D01*
X150442671Y-66124857D02*
X150299814Y-66267714D01*
X150299814Y-66267714D02*
X150228385Y-66410571D01*
X150228385Y-66410571D02*
X150156957Y-66696285D01*
X150156957Y-66696285D02*
X150156957Y-66910571D01*
X150156957Y-66910571D02*
X150228385Y-67196285D01*
X150228385Y-67196285D02*
X150299814Y-67339142D01*
X150299814Y-67339142D02*
X150442671Y-67482000D01*
X150442671Y-67482000D02*
X150656957Y-67553428D01*
X150656957Y-67553428D02*
X151014100Y-67553428D01*
X148656957Y-67410571D02*
X148728385Y-67482000D01*
X148728385Y-67482000D02*
X148942671Y-67553428D01*
X148942671Y-67553428D02*
X149085528Y-67553428D01*
X149085528Y-67553428D02*
X149299814Y-67482000D01*
X149299814Y-67482000D02*
X149442671Y-67339142D01*
X149442671Y-67339142D02*
X149514100Y-67196285D01*
X149514100Y-67196285D02*
X149585528Y-66910571D01*
X149585528Y-66910571D02*
X149585528Y-66696285D01*
X149585528Y-66696285D02*
X149514100Y-66410571D01*
X149514100Y-66410571D02*
X149442671Y-66267714D01*
X149442671Y-66267714D02*
X149299814Y-66124857D01*
X149299814Y-66124857D02*
X149085528Y-66053428D01*
X149085528Y-66053428D02*
X148942671Y-66053428D01*
X148942671Y-66053428D02*
X148728385Y-66124857D01*
X148728385Y-66124857D02*
X148656957Y-66196285D01*
X146942671Y-67482000D02*
X146799814Y-67553428D01*
X146799814Y-67553428D02*
X146514100Y-67553428D01*
X146514100Y-67553428D02*
X146371243Y-67482000D01*
X146371243Y-67482000D02*
X146299814Y-67339142D01*
X146299814Y-67339142D02*
X146299814Y-67267714D01*
X146299814Y-67267714D02*
X146371243Y-67124857D01*
X146371243Y-67124857D02*
X146514100Y-67053428D01*
X146514100Y-67053428D02*
X146728386Y-67053428D01*
X146728386Y-67053428D02*
X146871243Y-66982000D01*
X146871243Y-66982000D02*
X146942671Y-66839142D01*
X146942671Y-66839142D02*
X146942671Y-66767714D01*
X146942671Y-66767714D02*
X146871243Y-66624857D01*
X146871243Y-66624857D02*
X146728386Y-66553428D01*
X146728386Y-66553428D02*
X146514100Y-66553428D01*
X146514100Y-66553428D02*
X146371243Y-66624857D01*
X145014100Y-66553428D02*
X145014100Y-67553428D01*
X145656957Y-66553428D02*
X145656957Y-67339142D01*
X145656957Y-67339142D02*
X145585528Y-67482000D01*
X145585528Y-67482000D02*
X145442671Y-67553428D01*
X145442671Y-67553428D02*
X145228385Y-67553428D01*
X145228385Y-67553428D02*
X145085528Y-67482000D01*
X145085528Y-67482000D02*
X145014100Y-67410571D01*
X144299814Y-66553428D02*
X144299814Y-68053428D01*
X144299814Y-66624857D02*
X144156957Y-66553428D01*
X144156957Y-66553428D02*
X143871242Y-66553428D01*
X143871242Y-66553428D02*
X143728385Y-66624857D01*
X143728385Y-66624857D02*
X143656957Y-66696285D01*
X143656957Y-66696285D02*
X143585528Y-66839142D01*
X143585528Y-66839142D02*
X143585528Y-67267714D01*
X143585528Y-67267714D02*
X143656957Y-67410571D01*
X143656957Y-67410571D02*
X143728385Y-67482000D01*
X143728385Y-67482000D02*
X143871242Y-67553428D01*
X143871242Y-67553428D02*
X144156957Y-67553428D01*
X144156957Y-67553428D02*
X144299814Y-67482000D01*
X142942671Y-66553428D02*
X142942671Y-68053428D01*
X142942671Y-66624857D02*
X142799814Y-66553428D01*
X142799814Y-66553428D02*
X142514099Y-66553428D01*
X142514099Y-66553428D02*
X142371242Y-66624857D01*
X142371242Y-66624857D02*
X142299814Y-66696285D01*
X142299814Y-66696285D02*
X142228385Y-66839142D01*
X142228385Y-66839142D02*
X142228385Y-67267714D01*
X142228385Y-67267714D02*
X142299814Y-67410571D01*
X142299814Y-67410571D02*
X142371242Y-67482000D01*
X142371242Y-67482000D02*
X142514099Y-67553428D01*
X142514099Y-67553428D02*
X142799814Y-67553428D01*
X142799814Y-67553428D02*
X142942671Y-67482000D01*
X141371242Y-67553428D02*
X141514099Y-67482000D01*
X141514099Y-67482000D02*
X141585528Y-67339142D01*
X141585528Y-67339142D02*
X141585528Y-66053428D01*
X140942671Y-66553428D02*
X140585528Y-67553428D01*
X140228385Y-66553428D02*
X140585528Y-67553428D01*
X140585528Y-67553428D02*
X140728385Y-67910571D01*
X140728385Y-67910571D02*
X140799814Y-67982000D01*
X140799814Y-67982000D02*
X140942671Y-68053428D01*
X139656957Y-67410571D02*
X139585528Y-67482000D01*
X139585528Y-67482000D02*
X139656957Y-67553428D01*
X139656957Y-67553428D02*
X139728385Y-67482000D01*
X139728385Y-67482000D02*
X139656957Y-67410571D01*
X139656957Y-67410571D02*
X139656957Y-67553428D01*
X117442669Y-63638512D02*
X116585527Y-63638512D01*
X117014098Y-65138512D02*
X117014098Y-63638512D01*
X116085527Y-65138512D02*
X116085527Y-63638512D01*
X116085527Y-63638512D02*
X115728384Y-63638512D01*
X115728384Y-63638512D02*
X115514098Y-63709941D01*
X115514098Y-63709941D02*
X115371241Y-63852798D01*
X115371241Y-63852798D02*
X115299812Y-63995655D01*
X115299812Y-63995655D02*
X115228384Y-64281369D01*
X115228384Y-64281369D02*
X115228384Y-64495655D01*
X115228384Y-64495655D02*
X115299812Y-64781369D01*
X115299812Y-64781369D02*
X115371241Y-64924226D01*
X115371241Y-64924226D02*
X115514098Y-65067084D01*
X115514098Y-65067084D02*
X115728384Y-65138512D01*
X115728384Y-65138512D02*
X116085527Y-65138512D01*
X114656955Y-64709941D02*
X113942670Y-64709941D01*
X114799812Y-65138512D02*
X114299812Y-63638512D01*
X114299812Y-63638512D02*
X113799812Y-65138512D01*
X113442670Y-63638512D02*
X112442670Y-63638512D01*
X112442670Y-63638512D02*
X113085527Y-65138512D01*
X111942670Y-63781369D02*
X111871242Y-63709941D01*
X111871242Y-63709941D02*
X111728385Y-63638512D01*
X111728385Y-63638512D02*
X111371242Y-63638512D01*
X111371242Y-63638512D02*
X111228385Y-63709941D01*
X111228385Y-63709941D02*
X111156956Y-63781369D01*
X111156956Y-63781369D02*
X111085527Y-63924226D01*
X111085527Y-63924226D02*
X111085527Y-64067084D01*
X111085527Y-64067084D02*
X111156956Y-64281369D01*
X111156956Y-64281369D02*
X112014099Y-65138512D01*
X112014099Y-65138512D02*
X111085527Y-65138512D01*
X109799814Y-63638512D02*
X110085528Y-63638512D01*
X110085528Y-63638512D02*
X110228385Y-63709941D01*
X110228385Y-63709941D02*
X110299814Y-63781369D01*
X110299814Y-63781369D02*
X110442671Y-63995655D01*
X110442671Y-63995655D02*
X110514099Y-64281369D01*
X110514099Y-64281369D02*
X110514099Y-64852798D01*
X110514099Y-64852798D02*
X110442671Y-64995655D01*
X110442671Y-64995655D02*
X110371242Y-65067084D01*
X110371242Y-65067084D02*
X110228385Y-65138512D01*
X110228385Y-65138512D02*
X109942671Y-65138512D01*
X109942671Y-65138512D02*
X109799814Y-65067084D01*
X109799814Y-65067084D02*
X109728385Y-64995655D01*
X109728385Y-64995655D02*
X109656956Y-64852798D01*
X109656956Y-64852798D02*
X109656956Y-64495655D01*
X109656956Y-64495655D02*
X109728385Y-64352798D01*
X109728385Y-64352798D02*
X109799814Y-64281369D01*
X109799814Y-64281369D02*
X109942671Y-64209941D01*
X109942671Y-64209941D02*
X110228385Y-64209941D01*
X110228385Y-64209941D02*
X110371242Y-64281369D01*
X110371242Y-64281369D02*
X110442671Y-64352798D01*
X110442671Y-64352798D02*
X110514099Y-64495655D01*
X109156957Y-63638512D02*
X108156957Y-63638512D01*
X108156957Y-63638512D02*
X108799814Y-65138512D01*
X106514100Y-63781369D02*
X106442672Y-63709941D01*
X106442672Y-63709941D02*
X106299815Y-63638512D01*
X106299815Y-63638512D02*
X105942672Y-63638512D01*
X105942672Y-63638512D02*
X105799815Y-63709941D01*
X105799815Y-63709941D02*
X105728386Y-63781369D01*
X105728386Y-63781369D02*
X105656957Y-63924226D01*
X105656957Y-63924226D02*
X105656957Y-64067084D01*
X105656957Y-64067084D02*
X105728386Y-64281369D01*
X105728386Y-64281369D02*
X106585529Y-65138512D01*
X106585529Y-65138512D02*
X105656957Y-65138512D01*
X105014101Y-64995655D02*
X104942672Y-65067084D01*
X104942672Y-65067084D02*
X105014101Y-65138512D01*
X105014101Y-65138512D02*
X105085529Y-65067084D01*
X105085529Y-65067084D02*
X105014101Y-64995655D01*
X105014101Y-64995655D02*
X105014101Y-65138512D01*
X103585529Y-63638512D02*
X104299815Y-63638512D01*
X104299815Y-63638512D02*
X104371243Y-64352798D01*
X104371243Y-64352798D02*
X104299815Y-64281369D01*
X104299815Y-64281369D02*
X104156958Y-64209941D01*
X104156958Y-64209941D02*
X103799815Y-64209941D01*
X103799815Y-64209941D02*
X103656958Y-64281369D01*
X103656958Y-64281369D02*
X103585529Y-64352798D01*
X103585529Y-64352798D02*
X103514100Y-64495655D01*
X103514100Y-64495655D02*
X103514100Y-64852798D01*
X103514100Y-64852798D02*
X103585529Y-64995655D01*
X103585529Y-64995655D02*
X103656958Y-65067084D01*
X103656958Y-65067084D02*
X103799815Y-65138512D01*
X103799815Y-65138512D02*
X104156958Y-65138512D01*
X104156958Y-65138512D02*
X104299815Y-65067084D01*
X104299815Y-65067084D02*
X104371243Y-64995655D01*
X103014101Y-63638512D02*
X102656958Y-65138512D01*
X102656958Y-65138512D02*
X102371244Y-64067084D01*
X102371244Y-64067084D02*
X102085529Y-65138512D01*
X102085529Y-65138512D02*
X101728387Y-63638512D01*
X100085529Y-64709941D02*
X99371244Y-64709941D01*
X100228386Y-65138512D02*
X99728386Y-63638512D01*
X99728386Y-63638512D02*
X99228386Y-65138512D01*
X98728387Y-65138512D02*
X98728387Y-64138512D01*
X98728387Y-64281369D02*
X98656958Y-64209941D01*
X98656958Y-64209941D02*
X98514101Y-64138512D01*
X98514101Y-64138512D02*
X98299815Y-64138512D01*
X98299815Y-64138512D02*
X98156958Y-64209941D01*
X98156958Y-64209941D02*
X98085530Y-64352798D01*
X98085530Y-64352798D02*
X98085530Y-65138512D01*
X98085530Y-64352798D02*
X98014101Y-64209941D01*
X98014101Y-64209941D02*
X97871244Y-64138512D01*
X97871244Y-64138512D02*
X97656958Y-64138512D01*
X97656958Y-64138512D02*
X97514101Y-64209941D01*
X97514101Y-64209941D02*
X97442672Y-64352798D01*
X97442672Y-64352798D02*
X97442672Y-65138512D01*
X96728387Y-64138512D02*
X96728387Y-65638512D01*
X96728387Y-64209941D02*
X96585530Y-64138512D01*
X96585530Y-64138512D02*
X96299815Y-64138512D01*
X96299815Y-64138512D02*
X96156958Y-64209941D01*
X96156958Y-64209941D02*
X96085530Y-64281369D01*
X96085530Y-64281369D02*
X96014101Y-64424226D01*
X96014101Y-64424226D02*
X96014101Y-64852798D01*
X96014101Y-64852798D02*
X96085530Y-64995655D01*
X96085530Y-64995655D02*
X96156958Y-65067084D01*
X96156958Y-65067084D02*
X96299815Y-65138512D01*
X96299815Y-65138512D02*
X96585530Y-65138512D01*
X96585530Y-65138512D02*
X96728387Y-65067084D01*
X95156958Y-65138512D02*
X95299815Y-65067084D01*
X95299815Y-65067084D02*
X95371244Y-64924226D01*
X95371244Y-64924226D02*
X95371244Y-63638512D01*
X94585530Y-65138512D02*
X94585530Y-64138512D01*
X94585530Y-63638512D02*
X94656958Y-63709941D01*
X94656958Y-63709941D02*
X94585530Y-63781369D01*
X94585530Y-63781369D02*
X94514101Y-63709941D01*
X94514101Y-63709941D02*
X94585530Y-63638512D01*
X94585530Y-63638512D02*
X94585530Y-63781369D01*
X94085529Y-64138512D02*
X93514101Y-64138512D01*
X93871244Y-65138512D02*
X93871244Y-63852798D01*
X93871244Y-63852798D02*
X93799815Y-63709941D01*
X93799815Y-63709941D02*
X93656958Y-63638512D01*
X93656958Y-63638512D02*
X93514101Y-63638512D01*
X93014101Y-65138512D02*
X93014101Y-64138512D01*
X93014101Y-63638512D02*
X93085529Y-63709941D01*
X93085529Y-63709941D02*
X93014101Y-63781369D01*
X93014101Y-63781369D02*
X92942672Y-63709941D01*
X92942672Y-63709941D02*
X93014101Y-63638512D01*
X93014101Y-63638512D02*
X93014101Y-63781369D01*
X91728386Y-65067084D02*
X91871243Y-65138512D01*
X91871243Y-65138512D02*
X92156958Y-65138512D01*
X92156958Y-65138512D02*
X92299815Y-65067084D01*
X92299815Y-65067084D02*
X92371243Y-64924226D01*
X92371243Y-64924226D02*
X92371243Y-64352798D01*
X92371243Y-64352798D02*
X92299815Y-64209941D01*
X92299815Y-64209941D02*
X92156958Y-64138512D01*
X92156958Y-64138512D02*
X91871243Y-64138512D01*
X91871243Y-64138512D02*
X91728386Y-64209941D01*
X91728386Y-64209941D02*
X91656958Y-64352798D01*
X91656958Y-64352798D02*
X91656958Y-64495655D01*
X91656958Y-64495655D02*
X92371243Y-64638512D01*
X91014101Y-65138512D02*
X91014101Y-64138512D01*
X91014101Y-64424226D02*
X90942672Y-64281369D01*
X90942672Y-64281369D02*
X90871244Y-64209941D01*
X90871244Y-64209941D02*
X90728386Y-64138512D01*
X90728386Y-64138512D02*
X90585529Y-64138512D01*
X90085530Y-64995655D02*
X90014101Y-65067084D01*
X90014101Y-65067084D02*
X90085530Y-65138512D01*
X90085530Y-65138512D02*
X90156958Y-65067084D01*
X90156958Y-65067084D02*
X90085530Y-64995655D01*
X90085530Y-64995655D02*
X90085530Y-65138512D01*
X116514098Y-66053428D02*
X117228384Y-66053428D01*
X117228384Y-66053428D02*
X117299812Y-66767714D01*
X117299812Y-66767714D02*
X117228384Y-66696285D01*
X117228384Y-66696285D02*
X117085527Y-66624857D01*
X117085527Y-66624857D02*
X116728384Y-66624857D01*
X116728384Y-66624857D02*
X116585527Y-66696285D01*
X116585527Y-66696285D02*
X116514098Y-66767714D01*
X116514098Y-66767714D02*
X116442669Y-66910571D01*
X116442669Y-66910571D02*
X116442669Y-67267714D01*
X116442669Y-67267714D02*
X116514098Y-67410571D01*
X116514098Y-67410571D02*
X116585527Y-67482000D01*
X116585527Y-67482000D02*
X116728384Y-67553428D01*
X116728384Y-67553428D02*
X117085527Y-67553428D01*
X117085527Y-67553428D02*
X117228384Y-67482000D01*
X117228384Y-67482000D02*
X117299812Y-67410571D01*
X114871241Y-66553428D02*
X114299813Y-66553428D01*
X114656956Y-66053428D02*
X114656956Y-67339142D01*
X114656956Y-67339142D02*
X114585527Y-67482000D01*
X114585527Y-67482000D02*
X114442670Y-67553428D01*
X114442670Y-67553428D02*
X114299813Y-67553428D01*
X113585527Y-67553428D02*
X113728384Y-67482000D01*
X113728384Y-67482000D02*
X113799813Y-67410571D01*
X113799813Y-67410571D02*
X113871241Y-67267714D01*
X113871241Y-67267714D02*
X113871241Y-66839142D01*
X113871241Y-66839142D02*
X113799813Y-66696285D01*
X113799813Y-66696285D02*
X113728384Y-66624857D01*
X113728384Y-66624857D02*
X113585527Y-66553428D01*
X113585527Y-66553428D02*
X113371241Y-66553428D01*
X113371241Y-66553428D02*
X113228384Y-66624857D01*
X113228384Y-66624857D02*
X113156956Y-66696285D01*
X113156956Y-66696285D02*
X113085527Y-66839142D01*
X113085527Y-66839142D02*
X113085527Y-67267714D01*
X113085527Y-67267714D02*
X113156956Y-67410571D01*
X113156956Y-67410571D02*
X113228384Y-67482000D01*
X113228384Y-67482000D02*
X113371241Y-67553428D01*
X113371241Y-67553428D02*
X113585527Y-67553428D01*
X110514098Y-67553428D02*
X111371241Y-67553428D01*
X110942670Y-67553428D02*
X110942670Y-66053428D01*
X110942670Y-66053428D02*
X111085527Y-66267714D01*
X111085527Y-66267714D02*
X111228384Y-66410571D01*
X111228384Y-66410571D02*
X111371241Y-66482000D01*
X109156956Y-66053428D02*
X109871242Y-66053428D01*
X109871242Y-66053428D02*
X109942670Y-66767714D01*
X109942670Y-66767714D02*
X109871242Y-66696285D01*
X109871242Y-66696285D02*
X109728385Y-66624857D01*
X109728385Y-66624857D02*
X109371242Y-66624857D01*
X109371242Y-66624857D02*
X109228385Y-66696285D01*
X109228385Y-66696285D02*
X109156956Y-66767714D01*
X109156956Y-66767714D02*
X109085527Y-66910571D01*
X109085527Y-66910571D02*
X109085527Y-67267714D01*
X109085527Y-67267714D02*
X109156956Y-67410571D01*
X109156956Y-67410571D02*
X109228385Y-67482000D01*
X109228385Y-67482000D02*
X109371242Y-67553428D01*
X109371242Y-67553428D02*
X109728385Y-67553428D01*
X109728385Y-67553428D02*
X109871242Y-67482000D01*
X109871242Y-67482000D02*
X109942670Y-67410571D01*
X108656956Y-66053428D02*
X108156956Y-67553428D01*
X108156956Y-67553428D02*
X107656956Y-66053428D01*
X106014100Y-67553428D02*
X106014100Y-66053428D01*
X106014100Y-66053428D02*
X105656957Y-66053428D01*
X105656957Y-66053428D02*
X105442671Y-66124857D01*
X105442671Y-66124857D02*
X105299814Y-66267714D01*
X105299814Y-66267714D02*
X105228385Y-66410571D01*
X105228385Y-66410571D02*
X105156957Y-66696285D01*
X105156957Y-66696285D02*
X105156957Y-66910571D01*
X105156957Y-66910571D02*
X105228385Y-67196285D01*
X105228385Y-67196285D02*
X105299814Y-67339142D01*
X105299814Y-67339142D02*
X105442671Y-67482000D01*
X105442671Y-67482000D02*
X105656957Y-67553428D01*
X105656957Y-67553428D02*
X106014100Y-67553428D01*
X103656957Y-67410571D02*
X103728385Y-67482000D01*
X103728385Y-67482000D02*
X103942671Y-67553428D01*
X103942671Y-67553428D02*
X104085528Y-67553428D01*
X104085528Y-67553428D02*
X104299814Y-67482000D01*
X104299814Y-67482000D02*
X104442671Y-67339142D01*
X104442671Y-67339142D02*
X104514100Y-67196285D01*
X104514100Y-67196285D02*
X104585528Y-66910571D01*
X104585528Y-66910571D02*
X104585528Y-66696285D01*
X104585528Y-66696285D02*
X104514100Y-66410571D01*
X104514100Y-66410571D02*
X104442671Y-66267714D01*
X104442671Y-66267714D02*
X104299814Y-66124857D01*
X104299814Y-66124857D02*
X104085528Y-66053428D01*
X104085528Y-66053428D02*
X103942671Y-66053428D01*
X103942671Y-66053428D02*
X103728385Y-66124857D01*
X103728385Y-66124857D02*
X103656957Y-66196285D01*
X101942671Y-67482000D02*
X101799814Y-67553428D01*
X101799814Y-67553428D02*
X101514100Y-67553428D01*
X101514100Y-67553428D02*
X101371243Y-67482000D01*
X101371243Y-67482000D02*
X101299814Y-67339142D01*
X101299814Y-67339142D02*
X101299814Y-67267714D01*
X101299814Y-67267714D02*
X101371243Y-67124857D01*
X101371243Y-67124857D02*
X101514100Y-67053428D01*
X101514100Y-67053428D02*
X101728386Y-67053428D01*
X101728386Y-67053428D02*
X101871243Y-66982000D01*
X101871243Y-66982000D02*
X101942671Y-66839142D01*
X101942671Y-66839142D02*
X101942671Y-66767714D01*
X101942671Y-66767714D02*
X101871243Y-66624857D01*
X101871243Y-66624857D02*
X101728386Y-66553428D01*
X101728386Y-66553428D02*
X101514100Y-66553428D01*
X101514100Y-66553428D02*
X101371243Y-66624857D01*
X100014100Y-66553428D02*
X100014100Y-67553428D01*
X100656957Y-66553428D02*
X100656957Y-67339142D01*
X100656957Y-67339142D02*
X100585528Y-67482000D01*
X100585528Y-67482000D02*
X100442671Y-67553428D01*
X100442671Y-67553428D02*
X100228385Y-67553428D01*
X100228385Y-67553428D02*
X100085528Y-67482000D01*
X100085528Y-67482000D02*
X100014100Y-67410571D01*
X99299814Y-66553428D02*
X99299814Y-68053428D01*
X99299814Y-66624857D02*
X99156957Y-66553428D01*
X99156957Y-66553428D02*
X98871242Y-66553428D01*
X98871242Y-66553428D02*
X98728385Y-66624857D01*
X98728385Y-66624857D02*
X98656957Y-66696285D01*
X98656957Y-66696285D02*
X98585528Y-66839142D01*
X98585528Y-66839142D02*
X98585528Y-67267714D01*
X98585528Y-67267714D02*
X98656957Y-67410571D01*
X98656957Y-67410571D02*
X98728385Y-67482000D01*
X98728385Y-67482000D02*
X98871242Y-67553428D01*
X98871242Y-67553428D02*
X99156957Y-67553428D01*
X99156957Y-67553428D02*
X99299814Y-67482000D01*
X97942671Y-66553428D02*
X97942671Y-68053428D01*
X97942671Y-66624857D02*
X97799814Y-66553428D01*
X97799814Y-66553428D02*
X97514099Y-66553428D01*
X97514099Y-66553428D02*
X97371242Y-66624857D01*
X97371242Y-66624857D02*
X97299814Y-66696285D01*
X97299814Y-66696285D02*
X97228385Y-66839142D01*
X97228385Y-66839142D02*
X97228385Y-67267714D01*
X97228385Y-67267714D02*
X97299814Y-67410571D01*
X97299814Y-67410571D02*
X97371242Y-67482000D01*
X97371242Y-67482000D02*
X97514099Y-67553428D01*
X97514099Y-67553428D02*
X97799814Y-67553428D01*
X97799814Y-67553428D02*
X97942671Y-67482000D01*
X96371242Y-67553428D02*
X96514099Y-67482000D01*
X96514099Y-67482000D02*
X96585528Y-67339142D01*
X96585528Y-67339142D02*
X96585528Y-66053428D01*
X95942671Y-66553428D02*
X95585528Y-67553428D01*
X95228385Y-66553428D02*
X95585528Y-67553428D01*
X95585528Y-67553428D02*
X95728385Y-67910571D01*
X95728385Y-67910571D02*
X95799814Y-67982000D01*
X95799814Y-67982000D02*
X95942671Y-68053428D01*
X94656957Y-67410571D02*
X94585528Y-67482000D01*
X94585528Y-67482000D02*
X94656957Y-67553428D01*
X94656957Y-67553428D02*
X94728385Y-67482000D01*
X94728385Y-67482000D02*
X94656957Y-67410571D01*
X94656957Y-67410571D02*
X94656957Y-67553428D01*
D11*
X82500000Y-106645455D02*
X171100000Y-106645455D01*
D10*
X162442669Y-129638512D02*
X161585527Y-129638512D01*
X162014098Y-131138512D02*
X162014098Y-129638512D01*
X161085527Y-131138512D02*
X161085527Y-129638512D01*
X161085527Y-129638512D02*
X160728384Y-129638512D01*
X160728384Y-129638512D02*
X160514098Y-129709941D01*
X160514098Y-129709941D02*
X160371241Y-129852798D01*
X160371241Y-129852798D02*
X160299812Y-129995655D01*
X160299812Y-129995655D02*
X160228384Y-130281369D01*
X160228384Y-130281369D02*
X160228384Y-130495655D01*
X160228384Y-130495655D02*
X160299812Y-130781369D01*
X160299812Y-130781369D02*
X160371241Y-130924226D01*
X160371241Y-130924226D02*
X160514098Y-131067084D01*
X160514098Y-131067084D02*
X160728384Y-131138512D01*
X160728384Y-131138512D02*
X161085527Y-131138512D01*
X159656955Y-130709941D02*
X158942670Y-130709941D01*
X159799812Y-131138512D02*
X159299812Y-129638512D01*
X159299812Y-129638512D02*
X158799812Y-131138512D01*
X158442670Y-129638512D02*
X157442670Y-129638512D01*
X157442670Y-129638512D02*
X158085527Y-131138512D01*
X156942670Y-129781369D02*
X156871242Y-129709941D01*
X156871242Y-129709941D02*
X156728385Y-129638512D01*
X156728385Y-129638512D02*
X156371242Y-129638512D01*
X156371242Y-129638512D02*
X156228385Y-129709941D01*
X156228385Y-129709941D02*
X156156956Y-129781369D01*
X156156956Y-129781369D02*
X156085527Y-129924226D01*
X156085527Y-129924226D02*
X156085527Y-130067084D01*
X156085527Y-130067084D02*
X156156956Y-130281369D01*
X156156956Y-130281369D02*
X157014099Y-131138512D01*
X157014099Y-131138512D02*
X156085527Y-131138512D01*
X154799814Y-129638512D02*
X155085528Y-129638512D01*
X155085528Y-129638512D02*
X155228385Y-129709941D01*
X155228385Y-129709941D02*
X155299814Y-129781369D01*
X155299814Y-129781369D02*
X155442671Y-129995655D01*
X155442671Y-129995655D02*
X155514099Y-130281369D01*
X155514099Y-130281369D02*
X155514099Y-130852798D01*
X155514099Y-130852798D02*
X155442671Y-130995655D01*
X155442671Y-130995655D02*
X155371242Y-131067084D01*
X155371242Y-131067084D02*
X155228385Y-131138512D01*
X155228385Y-131138512D02*
X154942671Y-131138512D01*
X154942671Y-131138512D02*
X154799814Y-131067084D01*
X154799814Y-131067084D02*
X154728385Y-130995655D01*
X154728385Y-130995655D02*
X154656956Y-130852798D01*
X154656956Y-130852798D02*
X154656956Y-130495655D01*
X154656956Y-130495655D02*
X154728385Y-130352798D01*
X154728385Y-130352798D02*
X154799814Y-130281369D01*
X154799814Y-130281369D02*
X154942671Y-130209941D01*
X154942671Y-130209941D02*
X155228385Y-130209941D01*
X155228385Y-130209941D02*
X155371242Y-130281369D01*
X155371242Y-130281369D02*
X155442671Y-130352798D01*
X155442671Y-130352798D02*
X155514099Y-130495655D01*
X154156957Y-129638512D02*
X153156957Y-129638512D01*
X153156957Y-129638512D02*
X153799814Y-131138512D01*
X151514100Y-129781369D02*
X151442672Y-129709941D01*
X151442672Y-129709941D02*
X151299815Y-129638512D01*
X151299815Y-129638512D02*
X150942672Y-129638512D01*
X150942672Y-129638512D02*
X150799815Y-129709941D01*
X150799815Y-129709941D02*
X150728386Y-129781369D01*
X150728386Y-129781369D02*
X150656957Y-129924226D01*
X150656957Y-129924226D02*
X150656957Y-130067084D01*
X150656957Y-130067084D02*
X150728386Y-130281369D01*
X150728386Y-130281369D02*
X151585529Y-131138512D01*
X151585529Y-131138512D02*
X150656957Y-131138512D01*
X150014101Y-130995655D02*
X149942672Y-131067084D01*
X149942672Y-131067084D02*
X150014101Y-131138512D01*
X150014101Y-131138512D02*
X150085529Y-131067084D01*
X150085529Y-131067084D02*
X150014101Y-130995655D01*
X150014101Y-130995655D02*
X150014101Y-131138512D01*
X148585529Y-129638512D02*
X149299815Y-129638512D01*
X149299815Y-129638512D02*
X149371243Y-130352798D01*
X149371243Y-130352798D02*
X149299815Y-130281369D01*
X149299815Y-130281369D02*
X149156958Y-130209941D01*
X149156958Y-130209941D02*
X148799815Y-130209941D01*
X148799815Y-130209941D02*
X148656958Y-130281369D01*
X148656958Y-130281369D02*
X148585529Y-130352798D01*
X148585529Y-130352798D02*
X148514100Y-130495655D01*
X148514100Y-130495655D02*
X148514100Y-130852798D01*
X148514100Y-130852798D02*
X148585529Y-130995655D01*
X148585529Y-130995655D02*
X148656958Y-131067084D01*
X148656958Y-131067084D02*
X148799815Y-131138512D01*
X148799815Y-131138512D02*
X149156958Y-131138512D01*
X149156958Y-131138512D02*
X149299815Y-131067084D01*
X149299815Y-131067084D02*
X149371243Y-130995655D01*
X148014101Y-129638512D02*
X147656958Y-131138512D01*
X147656958Y-131138512D02*
X147371244Y-130067084D01*
X147371244Y-130067084D02*
X147085529Y-131138512D01*
X147085529Y-131138512D02*
X146728387Y-129638512D01*
X145085529Y-130709941D02*
X144371244Y-130709941D01*
X145228386Y-131138512D02*
X144728386Y-129638512D01*
X144728386Y-129638512D02*
X144228386Y-131138512D01*
X143728387Y-131138512D02*
X143728387Y-130138512D01*
X143728387Y-130281369D02*
X143656958Y-130209941D01*
X143656958Y-130209941D02*
X143514101Y-130138512D01*
X143514101Y-130138512D02*
X143299815Y-130138512D01*
X143299815Y-130138512D02*
X143156958Y-130209941D01*
X143156958Y-130209941D02*
X143085530Y-130352798D01*
X143085530Y-130352798D02*
X143085530Y-131138512D01*
X143085530Y-130352798D02*
X143014101Y-130209941D01*
X143014101Y-130209941D02*
X142871244Y-130138512D01*
X142871244Y-130138512D02*
X142656958Y-130138512D01*
X142656958Y-130138512D02*
X142514101Y-130209941D01*
X142514101Y-130209941D02*
X142442672Y-130352798D01*
X142442672Y-130352798D02*
X142442672Y-131138512D01*
X141728387Y-130138512D02*
X141728387Y-131638512D01*
X141728387Y-130209941D02*
X141585530Y-130138512D01*
X141585530Y-130138512D02*
X141299815Y-130138512D01*
X141299815Y-130138512D02*
X141156958Y-130209941D01*
X141156958Y-130209941D02*
X141085530Y-130281369D01*
X141085530Y-130281369D02*
X141014101Y-130424226D01*
X141014101Y-130424226D02*
X141014101Y-130852798D01*
X141014101Y-130852798D02*
X141085530Y-130995655D01*
X141085530Y-130995655D02*
X141156958Y-131067084D01*
X141156958Y-131067084D02*
X141299815Y-131138512D01*
X141299815Y-131138512D02*
X141585530Y-131138512D01*
X141585530Y-131138512D02*
X141728387Y-131067084D01*
X140156958Y-131138512D02*
X140299815Y-131067084D01*
X140299815Y-131067084D02*
X140371244Y-130924226D01*
X140371244Y-130924226D02*
X140371244Y-129638512D01*
X139585530Y-131138512D02*
X139585530Y-130138512D01*
X139585530Y-129638512D02*
X139656958Y-129709941D01*
X139656958Y-129709941D02*
X139585530Y-129781369D01*
X139585530Y-129781369D02*
X139514101Y-129709941D01*
X139514101Y-129709941D02*
X139585530Y-129638512D01*
X139585530Y-129638512D02*
X139585530Y-129781369D01*
X139085529Y-130138512D02*
X138514101Y-130138512D01*
X138871244Y-131138512D02*
X138871244Y-129852798D01*
X138871244Y-129852798D02*
X138799815Y-129709941D01*
X138799815Y-129709941D02*
X138656958Y-129638512D01*
X138656958Y-129638512D02*
X138514101Y-129638512D01*
X138014101Y-131138512D02*
X138014101Y-130138512D01*
X138014101Y-129638512D02*
X138085529Y-129709941D01*
X138085529Y-129709941D02*
X138014101Y-129781369D01*
X138014101Y-129781369D02*
X137942672Y-129709941D01*
X137942672Y-129709941D02*
X138014101Y-129638512D01*
X138014101Y-129638512D02*
X138014101Y-129781369D01*
X136728386Y-131067084D02*
X136871243Y-131138512D01*
X136871243Y-131138512D02*
X137156958Y-131138512D01*
X137156958Y-131138512D02*
X137299815Y-131067084D01*
X137299815Y-131067084D02*
X137371243Y-130924226D01*
X137371243Y-130924226D02*
X137371243Y-130352798D01*
X137371243Y-130352798D02*
X137299815Y-130209941D01*
X137299815Y-130209941D02*
X137156958Y-130138512D01*
X137156958Y-130138512D02*
X136871243Y-130138512D01*
X136871243Y-130138512D02*
X136728386Y-130209941D01*
X136728386Y-130209941D02*
X136656958Y-130352798D01*
X136656958Y-130352798D02*
X136656958Y-130495655D01*
X136656958Y-130495655D02*
X137371243Y-130638512D01*
X136014101Y-131138512D02*
X136014101Y-130138512D01*
X136014101Y-130424226D02*
X135942672Y-130281369D01*
X135942672Y-130281369D02*
X135871244Y-130209941D01*
X135871244Y-130209941D02*
X135728386Y-130138512D01*
X135728386Y-130138512D02*
X135585529Y-130138512D01*
X135085530Y-130995655D02*
X135014101Y-131067084D01*
X135014101Y-131067084D02*
X135085530Y-131138512D01*
X135085530Y-131138512D02*
X135156958Y-131067084D01*
X135156958Y-131067084D02*
X135085530Y-130995655D01*
X135085530Y-130995655D02*
X135085530Y-131138512D01*
X161514098Y-132053428D02*
X162228384Y-132053428D01*
X162228384Y-132053428D02*
X162299812Y-132767714D01*
X162299812Y-132767714D02*
X162228384Y-132696285D01*
X162228384Y-132696285D02*
X162085527Y-132624857D01*
X162085527Y-132624857D02*
X161728384Y-132624857D01*
X161728384Y-132624857D02*
X161585527Y-132696285D01*
X161585527Y-132696285D02*
X161514098Y-132767714D01*
X161514098Y-132767714D02*
X161442669Y-132910571D01*
X161442669Y-132910571D02*
X161442669Y-133267714D01*
X161442669Y-133267714D02*
X161514098Y-133410571D01*
X161514098Y-133410571D02*
X161585527Y-133482000D01*
X161585527Y-133482000D02*
X161728384Y-133553428D01*
X161728384Y-133553428D02*
X162085527Y-133553428D01*
X162085527Y-133553428D02*
X162228384Y-133482000D01*
X162228384Y-133482000D02*
X162299812Y-133410571D01*
X159871241Y-132553428D02*
X159299813Y-132553428D01*
X159656956Y-132053428D02*
X159656956Y-133339142D01*
X159656956Y-133339142D02*
X159585527Y-133482000D01*
X159585527Y-133482000D02*
X159442670Y-133553428D01*
X159442670Y-133553428D02*
X159299813Y-133553428D01*
X158585527Y-133553428D02*
X158728384Y-133482000D01*
X158728384Y-133482000D02*
X158799813Y-133410571D01*
X158799813Y-133410571D02*
X158871241Y-133267714D01*
X158871241Y-133267714D02*
X158871241Y-132839142D01*
X158871241Y-132839142D02*
X158799813Y-132696285D01*
X158799813Y-132696285D02*
X158728384Y-132624857D01*
X158728384Y-132624857D02*
X158585527Y-132553428D01*
X158585527Y-132553428D02*
X158371241Y-132553428D01*
X158371241Y-132553428D02*
X158228384Y-132624857D01*
X158228384Y-132624857D02*
X158156956Y-132696285D01*
X158156956Y-132696285D02*
X158085527Y-132839142D01*
X158085527Y-132839142D02*
X158085527Y-133267714D01*
X158085527Y-133267714D02*
X158156956Y-133410571D01*
X158156956Y-133410571D02*
X158228384Y-133482000D01*
X158228384Y-133482000D02*
X158371241Y-133553428D01*
X158371241Y-133553428D02*
X158585527Y-133553428D01*
X155514098Y-133553428D02*
X156371241Y-133553428D01*
X155942670Y-133553428D02*
X155942670Y-132053428D01*
X155942670Y-132053428D02*
X156085527Y-132267714D01*
X156085527Y-132267714D02*
X156228384Y-132410571D01*
X156228384Y-132410571D02*
X156371241Y-132482000D01*
X154156956Y-132053428D02*
X154871242Y-132053428D01*
X154871242Y-132053428D02*
X154942670Y-132767714D01*
X154942670Y-132767714D02*
X154871242Y-132696285D01*
X154871242Y-132696285D02*
X154728385Y-132624857D01*
X154728385Y-132624857D02*
X154371242Y-132624857D01*
X154371242Y-132624857D02*
X154228385Y-132696285D01*
X154228385Y-132696285D02*
X154156956Y-132767714D01*
X154156956Y-132767714D02*
X154085527Y-132910571D01*
X154085527Y-132910571D02*
X154085527Y-133267714D01*
X154085527Y-133267714D02*
X154156956Y-133410571D01*
X154156956Y-133410571D02*
X154228385Y-133482000D01*
X154228385Y-133482000D02*
X154371242Y-133553428D01*
X154371242Y-133553428D02*
X154728385Y-133553428D01*
X154728385Y-133553428D02*
X154871242Y-133482000D01*
X154871242Y-133482000D02*
X154942670Y-133410571D01*
X153656956Y-132053428D02*
X153156956Y-133553428D01*
X153156956Y-133553428D02*
X152656956Y-132053428D01*
X151014100Y-133553428D02*
X151014100Y-132053428D01*
X151014100Y-132053428D02*
X150656957Y-132053428D01*
X150656957Y-132053428D02*
X150442671Y-132124857D01*
X150442671Y-132124857D02*
X150299814Y-132267714D01*
X150299814Y-132267714D02*
X150228385Y-132410571D01*
X150228385Y-132410571D02*
X150156957Y-132696285D01*
X150156957Y-132696285D02*
X150156957Y-132910571D01*
X150156957Y-132910571D02*
X150228385Y-133196285D01*
X150228385Y-133196285D02*
X150299814Y-133339142D01*
X150299814Y-133339142D02*
X150442671Y-133482000D01*
X150442671Y-133482000D02*
X150656957Y-133553428D01*
X150656957Y-133553428D02*
X151014100Y-133553428D01*
X148656957Y-133410571D02*
X148728385Y-133482000D01*
X148728385Y-133482000D02*
X148942671Y-133553428D01*
X148942671Y-133553428D02*
X149085528Y-133553428D01*
X149085528Y-133553428D02*
X149299814Y-133482000D01*
X149299814Y-133482000D02*
X149442671Y-133339142D01*
X149442671Y-133339142D02*
X149514100Y-133196285D01*
X149514100Y-133196285D02*
X149585528Y-132910571D01*
X149585528Y-132910571D02*
X149585528Y-132696285D01*
X149585528Y-132696285D02*
X149514100Y-132410571D01*
X149514100Y-132410571D02*
X149442671Y-132267714D01*
X149442671Y-132267714D02*
X149299814Y-132124857D01*
X149299814Y-132124857D02*
X149085528Y-132053428D01*
X149085528Y-132053428D02*
X148942671Y-132053428D01*
X148942671Y-132053428D02*
X148728385Y-132124857D01*
X148728385Y-132124857D02*
X148656957Y-132196285D01*
X146942671Y-133482000D02*
X146799814Y-133553428D01*
X146799814Y-133553428D02*
X146514100Y-133553428D01*
X146514100Y-133553428D02*
X146371243Y-133482000D01*
X146371243Y-133482000D02*
X146299814Y-133339142D01*
X146299814Y-133339142D02*
X146299814Y-133267714D01*
X146299814Y-133267714D02*
X146371243Y-133124857D01*
X146371243Y-133124857D02*
X146514100Y-133053428D01*
X146514100Y-133053428D02*
X146728386Y-133053428D01*
X146728386Y-133053428D02*
X146871243Y-132982000D01*
X146871243Y-132982000D02*
X146942671Y-132839142D01*
X146942671Y-132839142D02*
X146942671Y-132767714D01*
X146942671Y-132767714D02*
X146871243Y-132624857D01*
X146871243Y-132624857D02*
X146728386Y-132553428D01*
X146728386Y-132553428D02*
X146514100Y-132553428D01*
X146514100Y-132553428D02*
X146371243Y-132624857D01*
X145014100Y-132553428D02*
X145014100Y-133553428D01*
X145656957Y-132553428D02*
X145656957Y-133339142D01*
X145656957Y-133339142D02*
X145585528Y-133482000D01*
X145585528Y-133482000D02*
X145442671Y-133553428D01*
X145442671Y-133553428D02*
X145228385Y-133553428D01*
X145228385Y-133553428D02*
X145085528Y-133482000D01*
X145085528Y-133482000D02*
X145014100Y-133410571D01*
X144299814Y-132553428D02*
X144299814Y-134053428D01*
X144299814Y-132624857D02*
X144156957Y-132553428D01*
X144156957Y-132553428D02*
X143871242Y-132553428D01*
X143871242Y-132553428D02*
X143728385Y-132624857D01*
X143728385Y-132624857D02*
X143656957Y-132696285D01*
X143656957Y-132696285D02*
X143585528Y-132839142D01*
X143585528Y-132839142D02*
X143585528Y-133267714D01*
X143585528Y-133267714D02*
X143656957Y-133410571D01*
X143656957Y-133410571D02*
X143728385Y-133482000D01*
X143728385Y-133482000D02*
X143871242Y-133553428D01*
X143871242Y-133553428D02*
X144156957Y-133553428D01*
X144156957Y-133553428D02*
X144299814Y-133482000D01*
X142942671Y-132553428D02*
X142942671Y-134053428D01*
X142942671Y-132624857D02*
X142799814Y-132553428D01*
X142799814Y-132553428D02*
X142514099Y-132553428D01*
X142514099Y-132553428D02*
X142371242Y-132624857D01*
X142371242Y-132624857D02*
X142299814Y-132696285D01*
X142299814Y-132696285D02*
X142228385Y-132839142D01*
X142228385Y-132839142D02*
X142228385Y-133267714D01*
X142228385Y-133267714D02*
X142299814Y-133410571D01*
X142299814Y-133410571D02*
X142371242Y-133482000D01*
X142371242Y-133482000D02*
X142514099Y-133553428D01*
X142514099Y-133553428D02*
X142799814Y-133553428D01*
X142799814Y-133553428D02*
X142942671Y-133482000D01*
X141371242Y-133553428D02*
X141514099Y-133482000D01*
X141514099Y-133482000D02*
X141585528Y-133339142D01*
X141585528Y-133339142D02*
X141585528Y-132053428D01*
X140942671Y-132553428D02*
X140585528Y-133553428D01*
X140228385Y-132553428D02*
X140585528Y-133553428D01*
X140585528Y-133553428D02*
X140728385Y-133910571D01*
X140728385Y-133910571D02*
X140799814Y-133982000D01*
X140799814Y-133982000D02*
X140942671Y-134053428D01*
X139656957Y-133410571D02*
X139585528Y-133482000D01*
X139585528Y-133482000D02*
X139656957Y-133553428D01*
X139656957Y-133553428D02*
X139728385Y-133482000D01*
X139728385Y-133482000D02*
X139656957Y-133410571D01*
X139656957Y-133410571D02*
X139656957Y-133553428D01*
D11*
X126750000Y-40945455D02*
X126750000Y-139345455D01*
X82350000Y-73595455D02*
X170950000Y-73595455D01*
M02*
