M48
; DRILL file {KiCad 9.0.4} date 2025-08-29T11:04:35+0200
; FORMAT={-:-/ absolute / inch / decimal}
; #@! TF.CreationDate,2025-08-29T11:04:35+02:00
; #@! TF.GenerationSoftware,Kicad,Pcbnew,9.0.4
; #@! TF.FileFunction,Plated,1,2,PTH
FMAT,2
INCH
; #@! TA.AperFunction,Plated,PTH,ComponentDrill
T1C0.0315
; #@! TA.AperFunction,Plated,PTH,ComponentDrill
T2C0.0354
; #@! TA.AperFunction,Plated,PTH,ComponentDrill
T3C0.0394
; #@! TA.AperFunction,Plated,PTH,ComponentDrill
T4C0.0512
; #@! TA.AperFunction,Plated,PTH,ComponentDrill
T5C0.0598
%
G90
G05
T1
X2.4685Y-2.1575
X2.4685Y-3.4961
X2.4685Y-4.8346
X2.6181Y-2.1575
X2.6181Y-3.4961
X2.6181Y-4.8346
X2.7185Y-1.7082
X2.7185Y-3.0468
X2.7185Y-4.3853
X2.8173Y-2.1318
X2.8173Y-2.3286
X2.8173Y-3.4704
X2.8173Y-3.6672
X2.8173Y-4.809
X2.8173Y-5.0058
X2.8291Y-1.8814
X2.8291Y-3.22
X2.8291Y-4.5586
X3.0142Y-2.0877
X3.0142Y-2.3877
X3.0142Y-3.4263
X3.0142Y-3.7263
X3.0142Y-4.7649
X3.0142Y-5.0649
X3.0185Y-1.7082
X3.0185Y-3.0468
X3.0185Y-4.3853
X3.026Y-1.8814
X3.026Y-3.22
X3.026Y-4.5586
X3.1717Y-1.8748
X3.1717Y-1.9748
X3.1717Y-2.0748
X3.1717Y-2.1748
X3.1717Y-3.2134
X3.1717Y-3.3134
X3.1717Y-3.4134
X3.1717Y-3.5134
X3.1717Y-4.552
X3.1717Y-4.652
X3.1717Y-4.752
X3.1717Y-4.852
X3.2087Y-2.3386
X3.2087Y-3.6772
X3.2087Y-5.0157
X3.4055Y-2.3386
X3.4055Y-3.6772
X3.4055Y-5.0157
X3.4717Y-1.8748
X3.4717Y-1.9748
X3.4717Y-2.0748
X3.4717Y-2.1748
X3.4717Y-3.2134
X3.4717Y-3.3134
X3.4717Y-3.4134
X3.4717Y-3.5134
X3.4717Y-4.552
X3.4717Y-4.652
X3.4717Y-4.752
X3.4717Y-4.852
X3.6023Y-2.3661
X3.6023Y-3.7047
X3.6023Y-5.0433
X3.7519Y-2.3661
X3.7519Y-3.7047
X3.7519Y-5.0433
X4.2795Y-2.1575
X4.2795Y-3.4961
X4.2795Y-4.8346
X4.4291Y-2.1575
X4.4291Y-3.4961
X4.4291Y-4.8346
X4.5295Y-1.7082
X4.5295Y-3.0468
X4.5295Y-4.3853
X4.6283Y-2.1318
X4.6283Y-2.3286
X4.6283Y-3.4704
X4.6283Y-3.6672
X4.6283Y-4.809
X4.6283Y-5.0058
X4.6402Y-1.8814
X4.6402Y-3.22
X4.6402Y-4.5586
X4.8252Y-2.0877
X4.8252Y-2.3877
X4.8252Y-3.4263
X4.8252Y-3.7263
X4.8252Y-4.7649
X4.8252Y-5.0649
X4.8295Y-1.7082
X4.8295Y-3.0468
X4.8295Y-4.3853
X4.837Y-1.8814
X4.837Y-3.22
X4.837Y-4.5586
X4.9827Y-1.8748
X4.9827Y-1.9748
X4.9827Y-2.0748
X4.9827Y-2.1748
X4.9827Y-3.2134
X4.9827Y-3.3134
X4.9827Y-3.4134
X4.9827Y-3.5134
X4.9827Y-4.552
X4.9827Y-4.652
X4.9827Y-4.752
X4.9827Y-4.852
X5.0197Y-2.3386
X5.0197Y-3.6772
X5.0197Y-5.0157
X5.2165Y-2.3386
X5.2165Y-3.6772
X5.2165Y-5.0157
X5.2827Y-1.8748
X5.2827Y-1.9748
X5.2827Y-2.0748
X5.2827Y-2.1748
X5.2827Y-3.2134
X5.2827Y-3.3134
X5.2827Y-3.4134
X5.2827Y-3.5134
X5.2827Y-4.552
X5.2827Y-4.652
X5.2827Y-4.752
X5.2827Y-4.852
X5.4133Y-2.3661
X5.4133Y-3.7047
X5.4133Y-5.0433
X5.5629Y-2.3661
X5.5629Y-3.7047
X5.5629Y-5.0433
T2
X2.5681Y-1.8819
X2.5681Y-3.2205
X2.5681Y-4.5591
X2.6681Y-1.8819
X2.6681Y-3.2205
X2.6681Y-4.5591
X4.3791Y-1.8819
X4.3791Y-3.2205
X4.3791Y-4.5591
X4.4791Y-1.8819
X4.4791Y-3.2205
X4.4791Y-4.5591
T3
X3.6981Y-1.9843
X3.6981Y-3.3228
X3.6981Y-4.6614
X3.895Y-1.9843
X3.895Y-3.3228
X3.895Y-4.6614
X5.5091Y-1.9843
X5.5091Y-3.3228
X5.5091Y-4.6614
X5.706Y-1.9843
X5.706Y-3.3228
X5.706Y-4.6614
T4
X2.9921Y-2.687
X2.9921Y-4.0256
X2.9921Y-5.3642
X3.189Y-2.687
X3.189Y-4.0256
X3.189Y-5.3642
X3.3858Y-2.687
X3.3858Y-4.0256
X3.3858Y-5.3642
X4.8031Y-2.687
X4.8031Y-4.0256
X4.8031Y-5.3642
X5.0Y-2.687
X5.0Y-4.0256
X5.0Y-5.3642
X5.1969Y-2.687
X5.1969Y-4.0256
X5.1969Y-5.3642
T5
X2.4969Y-2.6969
X2.4969Y-4.0354
X2.4969Y-5.374
X2.6969Y-2.6969
X2.6969Y-4.0354
X2.6969Y-5.374
X3.4488Y-1.657
X3.4488Y-2.9956
X3.4488Y-4.3342
X3.6488Y-1.657
X3.6488Y-2.9956
X3.6488Y-4.3342
X3.6992Y-2.6969
X3.6992Y-4.0354
X3.6992Y-5.374
X3.8992Y-2.6969
X3.8992Y-4.0354
X3.8992Y-5.374
X4.3079Y-2.6969
X4.3079Y-4.0354
X4.3079Y-5.374
X4.5079Y-2.6969
X4.5079Y-4.0354
X4.5079Y-5.374
X5.2598Y-1.657
X5.2598Y-2.9956
X5.2598Y-4.3342
X5.4598Y-1.657
X5.4598Y-2.9956
X5.4598Y-4.3342
X5.5102Y-2.6969
X5.5102Y-4.0354
X5.5102Y-5.374
X5.7102Y-2.6969
X5.7102Y-4.0354
X5.7102Y-5.374
M30
