M48
; DRILL file {KiCad 9.0.4} date 2025-08-29T11:04:35+0200
; FORMAT={-:-/ absolute / inch / decimal}
; #@! TF.CreationDate,2025-08-29T11:04:35+02:00
; #@! TF.GenerationSoftware,Kicad,Pcbnew,9.0.4
; #@! TF.FileFunction,NonPlated,1,2,NPTH
FMAT,2
INCH
; #@! TA.AperFunction,NonPlated,NPTH,ComponentDrill
T1C0.0866
%
G90
G05
T1
X2.4724Y-1.6929
X2.4724Y-2.4409
X2.4724Y-3.0315
X2.4724Y-3.7795
X2.4724Y-4.3701
X2.4724Y-5.1181
X3.9449Y-1.6929
X3.9449Y-2.4409
X3.9449Y-3.0315
X3.9449Y-3.7795
X3.9449Y-4.3701
X3.9449Y-5.1181
X4.2835Y-1.6929
X4.2835Y-2.4409
X4.2835Y-3.0315
X4.2835Y-3.7795
X4.2835Y-4.3701
X4.2835Y-5.1181
X5.7559Y-1.6929
X5.7559Y-2.4409
X5.7559Y-3.0315
X5.7559Y-3.7795
X5.7559Y-4.3701
X5.7559Y-5.1181
M30
