%TF.GenerationSoftware,KiCad,Pcbnew,9.0.4*%
%TF.CreationDate,2025-08-29T11:04:37+02:00*%
%TF.ProjectId,TDA7267_3x2_panel,54444137-3236-4375-9f33-78325f70616e,rev?*%
%TF.SameCoordinates,Original*%
%TF.FileFunction,Legend,Bot*%
%TF.FilePolarity,Positive*%
%FSLAX46Y46*%
G04 Gerber Fmt 4.6, Leading zero omitted, Abs format (unit mm)*
G04 Created by KiCad (PCBNEW 9.0.4) date 2025-08-29 11:04:37*
%MOMM*%
%LPD*%
G01*
G04 APERTURE LIST*
%ADD10C,0.500000*%
%ADD11C,0.250000*%
G04 APERTURE END LIST*
D10*
X60300000Y-106500000D02*
X148900000Y-106500000D01*
X60300000Y-72500000D02*
X148900000Y-72500000D01*
X104500000Y-40300000D02*
X104500000Y-138700000D01*
D11*
X93092669Y-129988512D02*
X92235527Y-129988512D01*
X92664098Y-131488512D02*
X92664098Y-129988512D01*
X91735527Y-131488512D02*
X91735527Y-129988512D01*
X91735527Y-129988512D02*
X91378384Y-129988512D01*
X91378384Y-129988512D02*
X91164098Y-130059941D01*
X91164098Y-130059941D02*
X91021241Y-130202798D01*
X91021241Y-130202798D02*
X90949812Y-130345655D01*
X90949812Y-130345655D02*
X90878384Y-130631369D01*
X90878384Y-130631369D02*
X90878384Y-130845655D01*
X90878384Y-130845655D02*
X90949812Y-131131369D01*
X90949812Y-131131369D02*
X91021241Y-131274226D01*
X91021241Y-131274226D02*
X91164098Y-131417084D01*
X91164098Y-131417084D02*
X91378384Y-131488512D01*
X91378384Y-131488512D02*
X91735527Y-131488512D01*
X90306955Y-131059941D02*
X89592670Y-131059941D01*
X90449812Y-131488512D02*
X89949812Y-129988512D01*
X89949812Y-129988512D02*
X89449812Y-131488512D01*
X89092670Y-129988512D02*
X88092670Y-129988512D01*
X88092670Y-129988512D02*
X88735527Y-131488512D01*
X87592670Y-130131369D02*
X87521242Y-130059941D01*
X87521242Y-130059941D02*
X87378385Y-129988512D01*
X87378385Y-129988512D02*
X87021242Y-129988512D01*
X87021242Y-129988512D02*
X86878385Y-130059941D01*
X86878385Y-130059941D02*
X86806956Y-130131369D01*
X86806956Y-130131369D02*
X86735527Y-130274226D01*
X86735527Y-130274226D02*
X86735527Y-130417084D01*
X86735527Y-130417084D02*
X86806956Y-130631369D01*
X86806956Y-130631369D02*
X87664099Y-131488512D01*
X87664099Y-131488512D02*
X86735527Y-131488512D01*
X85449814Y-129988512D02*
X85735528Y-129988512D01*
X85735528Y-129988512D02*
X85878385Y-130059941D01*
X85878385Y-130059941D02*
X85949814Y-130131369D01*
X85949814Y-130131369D02*
X86092671Y-130345655D01*
X86092671Y-130345655D02*
X86164099Y-130631369D01*
X86164099Y-130631369D02*
X86164099Y-131202798D01*
X86164099Y-131202798D02*
X86092671Y-131345655D01*
X86092671Y-131345655D02*
X86021242Y-131417084D01*
X86021242Y-131417084D02*
X85878385Y-131488512D01*
X85878385Y-131488512D02*
X85592671Y-131488512D01*
X85592671Y-131488512D02*
X85449814Y-131417084D01*
X85449814Y-131417084D02*
X85378385Y-131345655D01*
X85378385Y-131345655D02*
X85306956Y-131202798D01*
X85306956Y-131202798D02*
X85306956Y-130845655D01*
X85306956Y-130845655D02*
X85378385Y-130702798D01*
X85378385Y-130702798D02*
X85449814Y-130631369D01*
X85449814Y-130631369D02*
X85592671Y-130559941D01*
X85592671Y-130559941D02*
X85878385Y-130559941D01*
X85878385Y-130559941D02*
X86021242Y-130631369D01*
X86021242Y-130631369D02*
X86092671Y-130702798D01*
X86092671Y-130702798D02*
X86164099Y-130845655D01*
X84806957Y-129988512D02*
X83806957Y-129988512D01*
X83806957Y-129988512D02*
X84449814Y-131488512D01*
X82164100Y-130131369D02*
X82092672Y-130059941D01*
X82092672Y-130059941D02*
X81949815Y-129988512D01*
X81949815Y-129988512D02*
X81592672Y-129988512D01*
X81592672Y-129988512D02*
X81449815Y-130059941D01*
X81449815Y-130059941D02*
X81378386Y-130131369D01*
X81378386Y-130131369D02*
X81306957Y-130274226D01*
X81306957Y-130274226D02*
X81306957Y-130417084D01*
X81306957Y-130417084D02*
X81378386Y-130631369D01*
X81378386Y-130631369D02*
X82235529Y-131488512D01*
X82235529Y-131488512D02*
X81306957Y-131488512D01*
X80806958Y-129988512D02*
X80449815Y-131488512D01*
X80449815Y-131488512D02*
X80164101Y-130417084D01*
X80164101Y-130417084D02*
X79878386Y-131488512D01*
X79878386Y-131488512D02*
X79521244Y-129988512D01*
X77878386Y-131059941D02*
X77164101Y-131059941D01*
X78021243Y-131488512D02*
X77521243Y-129988512D01*
X77521243Y-129988512D02*
X77021243Y-131488512D01*
X76521244Y-131488512D02*
X76521244Y-130488512D01*
X76521244Y-130631369D02*
X76449815Y-130559941D01*
X76449815Y-130559941D02*
X76306958Y-130488512D01*
X76306958Y-130488512D02*
X76092672Y-130488512D01*
X76092672Y-130488512D02*
X75949815Y-130559941D01*
X75949815Y-130559941D02*
X75878387Y-130702798D01*
X75878387Y-130702798D02*
X75878387Y-131488512D01*
X75878387Y-130702798D02*
X75806958Y-130559941D01*
X75806958Y-130559941D02*
X75664101Y-130488512D01*
X75664101Y-130488512D02*
X75449815Y-130488512D01*
X75449815Y-130488512D02*
X75306958Y-130559941D01*
X75306958Y-130559941D02*
X75235529Y-130702798D01*
X75235529Y-130702798D02*
X75235529Y-131488512D01*
X74521244Y-130488512D02*
X74521244Y-131988512D01*
X74521244Y-130559941D02*
X74378387Y-130488512D01*
X74378387Y-130488512D02*
X74092672Y-130488512D01*
X74092672Y-130488512D02*
X73949815Y-130559941D01*
X73949815Y-130559941D02*
X73878387Y-130631369D01*
X73878387Y-130631369D02*
X73806958Y-130774226D01*
X73806958Y-130774226D02*
X73806958Y-131202798D01*
X73806958Y-131202798D02*
X73878387Y-131345655D01*
X73878387Y-131345655D02*
X73949815Y-131417084D01*
X73949815Y-131417084D02*
X74092672Y-131488512D01*
X74092672Y-131488512D02*
X74378387Y-131488512D01*
X74378387Y-131488512D02*
X74521244Y-131417084D01*
X72949815Y-131488512D02*
X73092672Y-131417084D01*
X73092672Y-131417084D02*
X73164101Y-131274226D01*
X73164101Y-131274226D02*
X73164101Y-129988512D01*
X72378387Y-131488512D02*
X72378387Y-130488512D01*
X72378387Y-129988512D02*
X72449815Y-130059941D01*
X72449815Y-130059941D02*
X72378387Y-130131369D01*
X72378387Y-130131369D02*
X72306958Y-130059941D01*
X72306958Y-130059941D02*
X72378387Y-129988512D01*
X72378387Y-129988512D02*
X72378387Y-130131369D01*
X71878386Y-130488512D02*
X71306958Y-130488512D01*
X71664101Y-131488512D02*
X71664101Y-130202798D01*
X71664101Y-130202798D02*
X71592672Y-130059941D01*
X71592672Y-130059941D02*
X71449815Y-129988512D01*
X71449815Y-129988512D02*
X71306958Y-129988512D01*
X70806958Y-131488512D02*
X70806958Y-130488512D01*
X70806958Y-129988512D02*
X70878386Y-130059941D01*
X70878386Y-130059941D02*
X70806958Y-130131369D01*
X70806958Y-130131369D02*
X70735529Y-130059941D01*
X70735529Y-130059941D02*
X70806958Y-129988512D01*
X70806958Y-129988512D02*
X70806958Y-130131369D01*
X69521243Y-131417084D02*
X69664100Y-131488512D01*
X69664100Y-131488512D02*
X69949815Y-131488512D01*
X69949815Y-131488512D02*
X70092672Y-131417084D01*
X70092672Y-131417084D02*
X70164100Y-131274226D01*
X70164100Y-131274226D02*
X70164100Y-130702798D01*
X70164100Y-130702798D02*
X70092672Y-130559941D01*
X70092672Y-130559941D02*
X69949815Y-130488512D01*
X69949815Y-130488512D02*
X69664100Y-130488512D01*
X69664100Y-130488512D02*
X69521243Y-130559941D01*
X69521243Y-130559941D02*
X69449815Y-130702798D01*
X69449815Y-130702798D02*
X69449815Y-130845655D01*
X69449815Y-130845655D02*
X70164100Y-130988512D01*
X68806958Y-131488512D02*
X68806958Y-130488512D01*
X68806958Y-130774226D02*
X68735529Y-130631369D01*
X68735529Y-130631369D02*
X68664101Y-130559941D01*
X68664101Y-130559941D02*
X68521243Y-130488512D01*
X68521243Y-130488512D02*
X68378386Y-130488512D01*
X67878387Y-131345655D02*
X67806958Y-131417084D01*
X67806958Y-131417084D02*
X67878387Y-131488512D01*
X67878387Y-131488512D02*
X67949815Y-131417084D01*
X67949815Y-131417084D02*
X67878387Y-131345655D01*
X67878387Y-131345655D02*
X67878387Y-131488512D01*
X92164098Y-132403428D02*
X92878384Y-132403428D01*
X92878384Y-132403428D02*
X92949812Y-133117714D01*
X92949812Y-133117714D02*
X92878384Y-133046285D01*
X92878384Y-133046285D02*
X92735527Y-132974857D01*
X92735527Y-132974857D02*
X92378384Y-132974857D01*
X92378384Y-132974857D02*
X92235527Y-133046285D01*
X92235527Y-133046285D02*
X92164098Y-133117714D01*
X92164098Y-133117714D02*
X92092669Y-133260571D01*
X92092669Y-133260571D02*
X92092669Y-133617714D01*
X92092669Y-133617714D02*
X92164098Y-133760571D01*
X92164098Y-133760571D02*
X92235527Y-133832000D01*
X92235527Y-133832000D02*
X92378384Y-133903428D01*
X92378384Y-133903428D02*
X92735527Y-133903428D01*
X92735527Y-133903428D02*
X92878384Y-133832000D01*
X92878384Y-133832000D02*
X92949812Y-133760571D01*
X90521241Y-132903428D02*
X89949813Y-132903428D01*
X90306956Y-132403428D02*
X90306956Y-133689142D01*
X90306956Y-133689142D02*
X90235527Y-133832000D01*
X90235527Y-133832000D02*
X90092670Y-133903428D01*
X90092670Y-133903428D02*
X89949813Y-133903428D01*
X89235527Y-133903428D02*
X89378384Y-133832000D01*
X89378384Y-133832000D02*
X89449813Y-133760571D01*
X89449813Y-133760571D02*
X89521241Y-133617714D01*
X89521241Y-133617714D02*
X89521241Y-133189142D01*
X89521241Y-133189142D02*
X89449813Y-133046285D01*
X89449813Y-133046285D02*
X89378384Y-132974857D01*
X89378384Y-132974857D02*
X89235527Y-132903428D01*
X89235527Y-132903428D02*
X89021241Y-132903428D01*
X89021241Y-132903428D02*
X88878384Y-132974857D01*
X88878384Y-132974857D02*
X88806956Y-133046285D01*
X88806956Y-133046285D02*
X88735527Y-133189142D01*
X88735527Y-133189142D02*
X88735527Y-133617714D01*
X88735527Y-133617714D02*
X88806956Y-133760571D01*
X88806956Y-133760571D02*
X88878384Y-133832000D01*
X88878384Y-133832000D02*
X89021241Y-133903428D01*
X89021241Y-133903428D02*
X89235527Y-133903428D01*
X86164098Y-133903428D02*
X87021241Y-133903428D01*
X86592670Y-133903428D02*
X86592670Y-132403428D01*
X86592670Y-132403428D02*
X86735527Y-132617714D01*
X86735527Y-132617714D02*
X86878384Y-132760571D01*
X86878384Y-132760571D02*
X87021241Y-132832000D01*
X84806956Y-132403428D02*
X85521242Y-132403428D01*
X85521242Y-132403428D02*
X85592670Y-133117714D01*
X85592670Y-133117714D02*
X85521242Y-133046285D01*
X85521242Y-133046285D02*
X85378385Y-132974857D01*
X85378385Y-132974857D02*
X85021242Y-132974857D01*
X85021242Y-132974857D02*
X84878385Y-133046285D01*
X84878385Y-133046285D02*
X84806956Y-133117714D01*
X84806956Y-133117714D02*
X84735527Y-133260571D01*
X84735527Y-133260571D02*
X84735527Y-133617714D01*
X84735527Y-133617714D02*
X84806956Y-133760571D01*
X84806956Y-133760571D02*
X84878385Y-133832000D01*
X84878385Y-133832000D02*
X85021242Y-133903428D01*
X85021242Y-133903428D02*
X85378385Y-133903428D01*
X85378385Y-133903428D02*
X85521242Y-133832000D01*
X85521242Y-133832000D02*
X85592670Y-133760571D01*
X84306956Y-132403428D02*
X83806956Y-133903428D01*
X83806956Y-133903428D02*
X83306956Y-132403428D01*
X81664100Y-133903428D02*
X81664100Y-132403428D01*
X81664100Y-132403428D02*
X81306957Y-132403428D01*
X81306957Y-132403428D02*
X81092671Y-132474857D01*
X81092671Y-132474857D02*
X80949814Y-132617714D01*
X80949814Y-132617714D02*
X80878385Y-132760571D01*
X80878385Y-132760571D02*
X80806957Y-133046285D01*
X80806957Y-133046285D02*
X80806957Y-133260571D01*
X80806957Y-133260571D02*
X80878385Y-133546285D01*
X80878385Y-133546285D02*
X80949814Y-133689142D01*
X80949814Y-133689142D02*
X81092671Y-133832000D01*
X81092671Y-133832000D02*
X81306957Y-133903428D01*
X81306957Y-133903428D02*
X81664100Y-133903428D01*
X79306957Y-133760571D02*
X79378385Y-133832000D01*
X79378385Y-133832000D02*
X79592671Y-133903428D01*
X79592671Y-133903428D02*
X79735528Y-133903428D01*
X79735528Y-133903428D02*
X79949814Y-133832000D01*
X79949814Y-133832000D02*
X80092671Y-133689142D01*
X80092671Y-133689142D02*
X80164100Y-133546285D01*
X80164100Y-133546285D02*
X80235528Y-133260571D01*
X80235528Y-133260571D02*
X80235528Y-133046285D01*
X80235528Y-133046285D02*
X80164100Y-132760571D01*
X80164100Y-132760571D02*
X80092671Y-132617714D01*
X80092671Y-132617714D02*
X79949814Y-132474857D01*
X79949814Y-132474857D02*
X79735528Y-132403428D01*
X79735528Y-132403428D02*
X79592671Y-132403428D01*
X79592671Y-132403428D02*
X79378385Y-132474857D01*
X79378385Y-132474857D02*
X79306957Y-132546285D01*
X77592671Y-133832000D02*
X77449814Y-133903428D01*
X77449814Y-133903428D02*
X77164100Y-133903428D01*
X77164100Y-133903428D02*
X77021243Y-133832000D01*
X77021243Y-133832000D02*
X76949814Y-133689142D01*
X76949814Y-133689142D02*
X76949814Y-133617714D01*
X76949814Y-133617714D02*
X77021243Y-133474857D01*
X77021243Y-133474857D02*
X77164100Y-133403428D01*
X77164100Y-133403428D02*
X77378386Y-133403428D01*
X77378386Y-133403428D02*
X77521243Y-133332000D01*
X77521243Y-133332000D02*
X77592671Y-133189142D01*
X77592671Y-133189142D02*
X77592671Y-133117714D01*
X77592671Y-133117714D02*
X77521243Y-132974857D01*
X77521243Y-132974857D02*
X77378386Y-132903428D01*
X77378386Y-132903428D02*
X77164100Y-132903428D01*
X77164100Y-132903428D02*
X77021243Y-132974857D01*
X75664100Y-132903428D02*
X75664100Y-133903428D01*
X76306957Y-132903428D02*
X76306957Y-133689142D01*
X76306957Y-133689142D02*
X76235528Y-133832000D01*
X76235528Y-133832000D02*
X76092671Y-133903428D01*
X76092671Y-133903428D02*
X75878385Y-133903428D01*
X75878385Y-133903428D02*
X75735528Y-133832000D01*
X75735528Y-133832000D02*
X75664100Y-133760571D01*
X74949814Y-132903428D02*
X74949814Y-134403428D01*
X74949814Y-132974857D02*
X74806957Y-132903428D01*
X74806957Y-132903428D02*
X74521242Y-132903428D01*
X74521242Y-132903428D02*
X74378385Y-132974857D01*
X74378385Y-132974857D02*
X74306957Y-133046285D01*
X74306957Y-133046285D02*
X74235528Y-133189142D01*
X74235528Y-133189142D02*
X74235528Y-133617714D01*
X74235528Y-133617714D02*
X74306957Y-133760571D01*
X74306957Y-133760571D02*
X74378385Y-133832000D01*
X74378385Y-133832000D02*
X74521242Y-133903428D01*
X74521242Y-133903428D02*
X74806957Y-133903428D01*
X74806957Y-133903428D02*
X74949814Y-133832000D01*
X73592671Y-132903428D02*
X73592671Y-134403428D01*
X73592671Y-132974857D02*
X73449814Y-132903428D01*
X73449814Y-132903428D02*
X73164099Y-132903428D01*
X73164099Y-132903428D02*
X73021242Y-132974857D01*
X73021242Y-132974857D02*
X72949814Y-133046285D01*
X72949814Y-133046285D02*
X72878385Y-133189142D01*
X72878385Y-133189142D02*
X72878385Y-133617714D01*
X72878385Y-133617714D02*
X72949814Y-133760571D01*
X72949814Y-133760571D02*
X73021242Y-133832000D01*
X73021242Y-133832000D02*
X73164099Y-133903428D01*
X73164099Y-133903428D02*
X73449814Y-133903428D01*
X73449814Y-133903428D02*
X73592671Y-133832000D01*
X72021242Y-133903428D02*
X72164099Y-133832000D01*
X72164099Y-133832000D02*
X72235528Y-133689142D01*
X72235528Y-133689142D02*
X72235528Y-132403428D01*
X71592671Y-132903428D02*
X71235528Y-133903428D01*
X70878385Y-132903428D02*
X71235528Y-133903428D01*
X71235528Y-133903428D02*
X71378385Y-134260571D01*
X71378385Y-134260571D02*
X71449814Y-134332000D01*
X71449814Y-134332000D02*
X71592671Y-134403428D01*
X70306957Y-133760571D02*
X70235528Y-133832000D01*
X70235528Y-133832000D02*
X70306957Y-133903428D01*
X70306957Y-133903428D02*
X70378385Y-133832000D01*
X70378385Y-133832000D02*
X70306957Y-133760571D01*
X70306957Y-133760571D02*
X70306957Y-133903428D01*
X139092669Y-95988512D02*
X138235527Y-95988512D01*
X138664098Y-97488512D02*
X138664098Y-95988512D01*
X137735527Y-97488512D02*
X137735527Y-95988512D01*
X137735527Y-95988512D02*
X137378384Y-95988512D01*
X137378384Y-95988512D02*
X137164098Y-96059941D01*
X137164098Y-96059941D02*
X137021241Y-96202798D01*
X137021241Y-96202798D02*
X136949812Y-96345655D01*
X136949812Y-96345655D02*
X136878384Y-96631369D01*
X136878384Y-96631369D02*
X136878384Y-96845655D01*
X136878384Y-96845655D02*
X136949812Y-97131369D01*
X136949812Y-97131369D02*
X137021241Y-97274226D01*
X137021241Y-97274226D02*
X137164098Y-97417084D01*
X137164098Y-97417084D02*
X137378384Y-97488512D01*
X137378384Y-97488512D02*
X137735527Y-97488512D01*
X136306955Y-97059941D02*
X135592670Y-97059941D01*
X136449812Y-97488512D02*
X135949812Y-95988512D01*
X135949812Y-95988512D02*
X135449812Y-97488512D01*
X135092670Y-95988512D02*
X134092670Y-95988512D01*
X134092670Y-95988512D02*
X134735527Y-97488512D01*
X133592670Y-96131369D02*
X133521242Y-96059941D01*
X133521242Y-96059941D02*
X133378385Y-95988512D01*
X133378385Y-95988512D02*
X133021242Y-95988512D01*
X133021242Y-95988512D02*
X132878385Y-96059941D01*
X132878385Y-96059941D02*
X132806956Y-96131369D01*
X132806956Y-96131369D02*
X132735527Y-96274226D01*
X132735527Y-96274226D02*
X132735527Y-96417084D01*
X132735527Y-96417084D02*
X132806956Y-96631369D01*
X132806956Y-96631369D02*
X133664099Y-97488512D01*
X133664099Y-97488512D02*
X132735527Y-97488512D01*
X131449814Y-95988512D02*
X131735528Y-95988512D01*
X131735528Y-95988512D02*
X131878385Y-96059941D01*
X131878385Y-96059941D02*
X131949814Y-96131369D01*
X131949814Y-96131369D02*
X132092671Y-96345655D01*
X132092671Y-96345655D02*
X132164099Y-96631369D01*
X132164099Y-96631369D02*
X132164099Y-97202798D01*
X132164099Y-97202798D02*
X132092671Y-97345655D01*
X132092671Y-97345655D02*
X132021242Y-97417084D01*
X132021242Y-97417084D02*
X131878385Y-97488512D01*
X131878385Y-97488512D02*
X131592671Y-97488512D01*
X131592671Y-97488512D02*
X131449814Y-97417084D01*
X131449814Y-97417084D02*
X131378385Y-97345655D01*
X131378385Y-97345655D02*
X131306956Y-97202798D01*
X131306956Y-97202798D02*
X131306956Y-96845655D01*
X131306956Y-96845655D02*
X131378385Y-96702798D01*
X131378385Y-96702798D02*
X131449814Y-96631369D01*
X131449814Y-96631369D02*
X131592671Y-96559941D01*
X131592671Y-96559941D02*
X131878385Y-96559941D01*
X131878385Y-96559941D02*
X132021242Y-96631369D01*
X132021242Y-96631369D02*
X132092671Y-96702798D01*
X132092671Y-96702798D02*
X132164099Y-96845655D01*
X130806957Y-95988512D02*
X129806957Y-95988512D01*
X129806957Y-95988512D02*
X130449814Y-97488512D01*
X128164100Y-96131369D02*
X128092672Y-96059941D01*
X128092672Y-96059941D02*
X127949815Y-95988512D01*
X127949815Y-95988512D02*
X127592672Y-95988512D01*
X127592672Y-95988512D02*
X127449815Y-96059941D01*
X127449815Y-96059941D02*
X127378386Y-96131369D01*
X127378386Y-96131369D02*
X127306957Y-96274226D01*
X127306957Y-96274226D02*
X127306957Y-96417084D01*
X127306957Y-96417084D02*
X127378386Y-96631369D01*
X127378386Y-96631369D02*
X128235529Y-97488512D01*
X128235529Y-97488512D02*
X127306957Y-97488512D01*
X126806958Y-95988512D02*
X126449815Y-97488512D01*
X126449815Y-97488512D02*
X126164101Y-96417084D01*
X126164101Y-96417084D02*
X125878386Y-97488512D01*
X125878386Y-97488512D02*
X125521244Y-95988512D01*
X123878386Y-97059941D02*
X123164101Y-97059941D01*
X124021243Y-97488512D02*
X123521243Y-95988512D01*
X123521243Y-95988512D02*
X123021243Y-97488512D01*
X122521244Y-97488512D02*
X122521244Y-96488512D01*
X122521244Y-96631369D02*
X122449815Y-96559941D01*
X122449815Y-96559941D02*
X122306958Y-96488512D01*
X122306958Y-96488512D02*
X122092672Y-96488512D01*
X122092672Y-96488512D02*
X121949815Y-96559941D01*
X121949815Y-96559941D02*
X121878387Y-96702798D01*
X121878387Y-96702798D02*
X121878387Y-97488512D01*
X121878387Y-96702798D02*
X121806958Y-96559941D01*
X121806958Y-96559941D02*
X121664101Y-96488512D01*
X121664101Y-96488512D02*
X121449815Y-96488512D01*
X121449815Y-96488512D02*
X121306958Y-96559941D01*
X121306958Y-96559941D02*
X121235529Y-96702798D01*
X121235529Y-96702798D02*
X121235529Y-97488512D01*
X120521244Y-96488512D02*
X120521244Y-97988512D01*
X120521244Y-96559941D02*
X120378387Y-96488512D01*
X120378387Y-96488512D02*
X120092672Y-96488512D01*
X120092672Y-96488512D02*
X119949815Y-96559941D01*
X119949815Y-96559941D02*
X119878387Y-96631369D01*
X119878387Y-96631369D02*
X119806958Y-96774226D01*
X119806958Y-96774226D02*
X119806958Y-97202798D01*
X119806958Y-97202798D02*
X119878387Y-97345655D01*
X119878387Y-97345655D02*
X119949815Y-97417084D01*
X119949815Y-97417084D02*
X120092672Y-97488512D01*
X120092672Y-97488512D02*
X120378387Y-97488512D01*
X120378387Y-97488512D02*
X120521244Y-97417084D01*
X118949815Y-97488512D02*
X119092672Y-97417084D01*
X119092672Y-97417084D02*
X119164101Y-97274226D01*
X119164101Y-97274226D02*
X119164101Y-95988512D01*
X118378387Y-97488512D02*
X118378387Y-96488512D01*
X118378387Y-95988512D02*
X118449815Y-96059941D01*
X118449815Y-96059941D02*
X118378387Y-96131369D01*
X118378387Y-96131369D02*
X118306958Y-96059941D01*
X118306958Y-96059941D02*
X118378387Y-95988512D01*
X118378387Y-95988512D02*
X118378387Y-96131369D01*
X117878386Y-96488512D02*
X117306958Y-96488512D01*
X117664101Y-97488512D02*
X117664101Y-96202798D01*
X117664101Y-96202798D02*
X117592672Y-96059941D01*
X117592672Y-96059941D02*
X117449815Y-95988512D01*
X117449815Y-95988512D02*
X117306958Y-95988512D01*
X116806958Y-97488512D02*
X116806958Y-96488512D01*
X116806958Y-95988512D02*
X116878386Y-96059941D01*
X116878386Y-96059941D02*
X116806958Y-96131369D01*
X116806958Y-96131369D02*
X116735529Y-96059941D01*
X116735529Y-96059941D02*
X116806958Y-95988512D01*
X116806958Y-95988512D02*
X116806958Y-96131369D01*
X115521243Y-97417084D02*
X115664100Y-97488512D01*
X115664100Y-97488512D02*
X115949815Y-97488512D01*
X115949815Y-97488512D02*
X116092672Y-97417084D01*
X116092672Y-97417084D02*
X116164100Y-97274226D01*
X116164100Y-97274226D02*
X116164100Y-96702798D01*
X116164100Y-96702798D02*
X116092672Y-96559941D01*
X116092672Y-96559941D02*
X115949815Y-96488512D01*
X115949815Y-96488512D02*
X115664100Y-96488512D01*
X115664100Y-96488512D02*
X115521243Y-96559941D01*
X115521243Y-96559941D02*
X115449815Y-96702798D01*
X115449815Y-96702798D02*
X115449815Y-96845655D01*
X115449815Y-96845655D02*
X116164100Y-96988512D01*
X114806958Y-97488512D02*
X114806958Y-96488512D01*
X114806958Y-96774226D02*
X114735529Y-96631369D01*
X114735529Y-96631369D02*
X114664101Y-96559941D01*
X114664101Y-96559941D02*
X114521243Y-96488512D01*
X114521243Y-96488512D02*
X114378386Y-96488512D01*
X113878387Y-97345655D02*
X113806958Y-97417084D01*
X113806958Y-97417084D02*
X113878387Y-97488512D01*
X113878387Y-97488512D02*
X113949815Y-97417084D01*
X113949815Y-97417084D02*
X113878387Y-97345655D01*
X113878387Y-97345655D02*
X113878387Y-97488512D01*
X138164098Y-98403428D02*
X138878384Y-98403428D01*
X138878384Y-98403428D02*
X138949812Y-99117714D01*
X138949812Y-99117714D02*
X138878384Y-99046285D01*
X138878384Y-99046285D02*
X138735527Y-98974857D01*
X138735527Y-98974857D02*
X138378384Y-98974857D01*
X138378384Y-98974857D02*
X138235527Y-99046285D01*
X138235527Y-99046285D02*
X138164098Y-99117714D01*
X138164098Y-99117714D02*
X138092669Y-99260571D01*
X138092669Y-99260571D02*
X138092669Y-99617714D01*
X138092669Y-99617714D02*
X138164098Y-99760571D01*
X138164098Y-99760571D02*
X138235527Y-99832000D01*
X138235527Y-99832000D02*
X138378384Y-99903428D01*
X138378384Y-99903428D02*
X138735527Y-99903428D01*
X138735527Y-99903428D02*
X138878384Y-99832000D01*
X138878384Y-99832000D02*
X138949812Y-99760571D01*
X136521241Y-98903428D02*
X135949813Y-98903428D01*
X136306956Y-98403428D02*
X136306956Y-99689142D01*
X136306956Y-99689142D02*
X136235527Y-99832000D01*
X136235527Y-99832000D02*
X136092670Y-99903428D01*
X136092670Y-99903428D02*
X135949813Y-99903428D01*
X135235527Y-99903428D02*
X135378384Y-99832000D01*
X135378384Y-99832000D02*
X135449813Y-99760571D01*
X135449813Y-99760571D02*
X135521241Y-99617714D01*
X135521241Y-99617714D02*
X135521241Y-99189142D01*
X135521241Y-99189142D02*
X135449813Y-99046285D01*
X135449813Y-99046285D02*
X135378384Y-98974857D01*
X135378384Y-98974857D02*
X135235527Y-98903428D01*
X135235527Y-98903428D02*
X135021241Y-98903428D01*
X135021241Y-98903428D02*
X134878384Y-98974857D01*
X134878384Y-98974857D02*
X134806956Y-99046285D01*
X134806956Y-99046285D02*
X134735527Y-99189142D01*
X134735527Y-99189142D02*
X134735527Y-99617714D01*
X134735527Y-99617714D02*
X134806956Y-99760571D01*
X134806956Y-99760571D02*
X134878384Y-99832000D01*
X134878384Y-99832000D02*
X135021241Y-99903428D01*
X135021241Y-99903428D02*
X135235527Y-99903428D01*
X132164098Y-99903428D02*
X133021241Y-99903428D01*
X132592670Y-99903428D02*
X132592670Y-98403428D01*
X132592670Y-98403428D02*
X132735527Y-98617714D01*
X132735527Y-98617714D02*
X132878384Y-98760571D01*
X132878384Y-98760571D02*
X133021241Y-98832000D01*
X130806956Y-98403428D02*
X131521242Y-98403428D01*
X131521242Y-98403428D02*
X131592670Y-99117714D01*
X131592670Y-99117714D02*
X131521242Y-99046285D01*
X131521242Y-99046285D02*
X131378385Y-98974857D01*
X131378385Y-98974857D02*
X131021242Y-98974857D01*
X131021242Y-98974857D02*
X130878385Y-99046285D01*
X130878385Y-99046285D02*
X130806956Y-99117714D01*
X130806956Y-99117714D02*
X130735527Y-99260571D01*
X130735527Y-99260571D02*
X130735527Y-99617714D01*
X130735527Y-99617714D02*
X130806956Y-99760571D01*
X130806956Y-99760571D02*
X130878385Y-99832000D01*
X130878385Y-99832000D02*
X131021242Y-99903428D01*
X131021242Y-99903428D02*
X131378385Y-99903428D01*
X131378385Y-99903428D02*
X131521242Y-99832000D01*
X131521242Y-99832000D02*
X131592670Y-99760571D01*
X130306956Y-98403428D02*
X129806956Y-99903428D01*
X129806956Y-99903428D02*
X129306956Y-98403428D01*
X127664100Y-99903428D02*
X127664100Y-98403428D01*
X127664100Y-98403428D02*
X127306957Y-98403428D01*
X127306957Y-98403428D02*
X127092671Y-98474857D01*
X127092671Y-98474857D02*
X126949814Y-98617714D01*
X126949814Y-98617714D02*
X126878385Y-98760571D01*
X126878385Y-98760571D02*
X126806957Y-99046285D01*
X126806957Y-99046285D02*
X126806957Y-99260571D01*
X126806957Y-99260571D02*
X126878385Y-99546285D01*
X126878385Y-99546285D02*
X126949814Y-99689142D01*
X126949814Y-99689142D02*
X127092671Y-99832000D01*
X127092671Y-99832000D02*
X127306957Y-99903428D01*
X127306957Y-99903428D02*
X127664100Y-99903428D01*
X125306957Y-99760571D02*
X125378385Y-99832000D01*
X125378385Y-99832000D02*
X125592671Y-99903428D01*
X125592671Y-99903428D02*
X125735528Y-99903428D01*
X125735528Y-99903428D02*
X125949814Y-99832000D01*
X125949814Y-99832000D02*
X126092671Y-99689142D01*
X126092671Y-99689142D02*
X126164100Y-99546285D01*
X126164100Y-99546285D02*
X126235528Y-99260571D01*
X126235528Y-99260571D02*
X126235528Y-99046285D01*
X126235528Y-99046285D02*
X126164100Y-98760571D01*
X126164100Y-98760571D02*
X126092671Y-98617714D01*
X126092671Y-98617714D02*
X125949814Y-98474857D01*
X125949814Y-98474857D02*
X125735528Y-98403428D01*
X125735528Y-98403428D02*
X125592671Y-98403428D01*
X125592671Y-98403428D02*
X125378385Y-98474857D01*
X125378385Y-98474857D02*
X125306957Y-98546285D01*
X123592671Y-99832000D02*
X123449814Y-99903428D01*
X123449814Y-99903428D02*
X123164100Y-99903428D01*
X123164100Y-99903428D02*
X123021243Y-99832000D01*
X123021243Y-99832000D02*
X122949814Y-99689142D01*
X122949814Y-99689142D02*
X122949814Y-99617714D01*
X122949814Y-99617714D02*
X123021243Y-99474857D01*
X123021243Y-99474857D02*
X123164100Y-99403428D01*
X123164100Y-99403428D02*
X123378386Y-99403428D01*
X123378386Y-99403428D02*
X123521243Y-99332000D01*
X123521243Y-99332000D02*
X123592671Y-99189142D01*
X123592671Y-99189142D02*
X123592671Y-99117714D01*
X123592671Y-99117714D02*
X123521243Y-98974857D01*
X123521243Y-98974857D02*
X123378386Y-98903428D01*
X123378386Y-98903428D02*
X123164100Y-98903428D01*
X123164100Y-98903428D02*
X123021243Y-98974857D01*
X121664100Y-98903428D02*
X121664100Y-99903428D01*
X122306957Y-98903428D02*
X122306957Y-99689142D01*
X122306957Y-99689142D02*
X122235528Y-99832000D01*
X122235528Y-99832000D02*
X122092671Y-99903428D01*
X122092671Y-99903428D02*
X121878385Y-99903428D01*
X121878385Y-99903428D02*
X121735528Y-99832000D01*
X121735528Y-99832000D02*
X121664100Y-99760571D01*
X120949814Y-98903428D02*
X120949814Y-100403428D01*
X120949814Y-98974857D02*
X120806957Y-98903428D01*
X120806957Y-98903428D02*
X120521242Y-98903428D01*
X120521242Y-98903428D02*
X120378385Y-98974857D01*
X120378385Y-98974857D02*
X120306957Y-99046285D01*
X120306957Y-99046285D02*
X120235528Y-99189142D01*
X120235528Y-99189142D02*
X120235528Y-99617714D01*
X120235528Y-99617714D02*
X120306957Y-99760571D01*
X120306957Y-99760571D02*
X120378385Y-99832000D01*
X120378385Y-99832000D02*
X120521242Y-99903428D01*
X120521242Y-99903428D02*
X120806957Y-99903428D01*
X120806957Y-99903428D02*
X120949814Y-99832000D01*
X119592671Y-98903428D02*
X119592671Y-100403428D01*
X119592671Y-98974857D02*
X119449814Y-98903428D01*
X119449814Y-98903428D02*
X119164099Y-98903428D01*
X119164099Y-98903428D02*
X119021242Y-98974857D01*
X119021242Y-98974857D02*
X118949814Y-99046285D01*
X118949814Y-99046285D02*
X118878385Y-99189142D01*
X118878385Y-99189142D02*
X118878385Y-99617714D01*
X118878385Y-99617714D02*
X118949814Y-99760571D01*
X118949814Y-99760571D02*
X119021242Y-99832000D01*
X119021242Y-99832000D02*
X119164099Y-99903428D01*
X119164099Y-99903428D02*
X119449814Y-99903428D01*
X119449814Y-99903428D02*
X119592671Y-99832000D01*
X118021242Y-99903428D02*
X118164099Y-99832000D01*
X118164099Y-99832000D02*
X118235528Y-99689142D01*
X118235528Y-99689142D02*
X118235528Y-98403428D01*
X117592671Y-98903428D02*
X117235528Y-99903428D01*
X116878385Y-98903428D02*
X117235528Y-99903428D01*
X117235528Y-99903428D02*
X117378385Y-100260571D01*
X117378385Y-100260571D02*
X117449814Y-100332000D01*
X117449814Y-100332000D02*
X117592671Y-100403428D01*
X116306957Y-99760571D02*
X116235528Y-99832000D01*
X116235528Y-99832000D02*
X116306957Y-99903428D01*
X116306957Y-99903428D02*
X116378385Y-99832000D01*
X116378385Y-99832000D02*
X116306957Y-99760571D01*
X116306957Y-99760571D02*
X116306957Y-99903428D01*
X93092669Y-95988512D02*
X92235527Y-95988512D01*
X92664098Y-97488512D02*
X92664098Y-95988512D01*
X91735527Y-97488512D02*
X91735527Y-95988512D01*
X91735527Y-95988512D02*
X91378384Y-95988512D01*
X91378384Y-95988512D02*
X91164098Y-96059941D01*
X91164098Y-96059941D02*
X91021241Y-96202798D01*
X91021241Y-96202798D02*
X90949812Y-96345655D01*
X90949812Y-96345655D02*
X90878384Y-96631369D01*
X90878384Y-96631369D02*
X90878384Y-96845655D01*
X90878384Y-96845655D02*
X90949812Y-97131369D01*
X90949812Y-97131369D02*
X91021241Y-97274226D01*
X91021241Y-97274226D02*
X91164098Y-97417084D01*
X91164098Y-97417084D02*
X91378384Y-97488512D01*
X91378384Y-97488512D02*
X91735527Y-97488512D01*
X90306955Y-97059941D02*
X89592670Y-97059941D01*
X90449812Y-97488512D02*
X89949812Y-95988512D01*
X89949812Y-95988512D02*
X89449812Y-97488512D01*
X89092670Y-95988512D02*
X88092670Y-95988512D01*
X88092670Y-95988512D02*
X88735527Y-97488512D01*
X87592670Y-96131369D02*
X87521242Y-96059941D01*
X87521242Y-96059941D02*
X87378385Y-95988512D01*
X87378385Y-95988512D02*
X87021242Y-95988512D01*
X87021242Y-95988512D02*
X86878385Y-96059941D01*
X86878385Y-96059941D02*
X86806956Y-96131369D01*
X86806956Y-96131369D02*
X86735527Y-96274226D01*
X86735527Y-96274226D02*
X86735527Y-96417084D01*
X86735527Y-96417084D02*
X86806956Y-96631369D01*
X86806956Y-96631369D02*
X87664099Y-97488512D01*
X87664099Y-97488512D02*
X86735527Y-97488512D01*
X85449814Y-95988512D02*
X85735528Y-95988512D01*
X85735528Y-95988512D02*
X85878385Y-96059941D01*
X85878385Y-96059941D02*
X85949814Y-96131369D01*
X85949814Y-96131369D02*
X86092671Y-96345655D01*
X86092671Y-96345655D02*
X86164099Y-96631369D01*
X86164099Y-96631369D02*
X86164099Y-97202798D01*
X86164099Y-97202798D02*
X86092671Y-97345655D01*
X86092671Y-97345655D02*
X86021242Y-97417084D01*
X86021242Y-97417084D02*
X85878385Y-97488512D01*
X85878385Y-97488512D02*
X85592671Y-97488512D01*
X85592671Y-97488512D02*
X85449814Y-97417084D01*
X85449814Y-97417084D02*
X85378385Y-97345655D01*
X85378385Y-97345655D02*
X85306956Y-97202798D01*
X85306956Y-97202798D02*
X85306956Y-96845655D01*
X85306956Y-96845655D02*
X85378385Y-96702798D01*
X85378385Y-96702798D02*
X85449814Y-96631369D01*
X85449814Y-96631369D02*
X85592671Y-96559941D01*
X85592671Y-96559941D02*
X85878385Y-96559941D01*
X85878385Y-96559941D02*
X86021242Y-96631369D01*
X86021242Y-96631369D02*
X86092671Y-96702798D01*
X86092671Y-96702798D02*
X86164099Y-96845655D01*
X84806957Y-95988512D02*
X83806957Y-95988512D01*
X83806957Y-95988512D02*
X84449814Y-97488512D01*
X82164100Y-96131369D02*
X82092672Y-96059941D01*
X82092672Y-96059941D02*
X81949815Y-95988512D01*
X81949815Y-95988512D02*
X81592672Y-95988512D01*
X81592672Y-95988512D02*
X81449815Y-96059941D01*
X81449815Y-96059941D02*
X81378386Y-96131369D01*
X81378386Y-96131369D02*
X81306957Y-96274226D01*
X81306957Y-96274226D02*
X81306957Y-96417084D01*
X81306957Y-96417084D02*
X81378386Y-96631369D01*
X81378386Y-96631369D02*
X82235529Y-97488512D01*
X82235529Y-97488512D02*
X81306957Y-97488512D01*
X80806958Y-95988512D02*
X80449815Y-97488512D01*
X80449815Y-97488512D02*
X80164101Y-96417084D01*
X80164101Y-96417084D02*
X79878386Y-97488512D01*
X79878386Y-97488512D02*
X79521244Y-95988512D01*
X77878386Y-97059941D02*
X77164101Y-97059941D01*
X78021243Y-97488512D02*
X77521243Y-95988512D01*
X77521243Y-95988512D02*
X77021243Y-97488512D01*
X76521244Y-97488512D02*
X76521244Y-96488512D01*
X76521244Y-96631369D02*
X76449815Y-96559941D01*
X76449815Y-96559941D02*
X76306958Y-96488512D01*
X76306958Y-96488512D02*
X76092672Y-96488512D01*
X76092672Y-96488512D02*
X75949815Y-96559941D01*
X75949815Y-96559941D02*
X75878387Y-96702798D01*
X75878387Y-96702798D02*
X75878387Y-97488512D01*
X75878387Y-96702798D02*
X75806958Y-96559941D01*
X75806958Y-96559941D02*
X75664101Y-96488512D01*
X75664101Y-96488512D02*
X75449815Y-96488512D01*
X75449815Y-96488512D02*
X75306958Y-96559941D01*
X75306958Y-96559941D02*
X75235529Y-96702798D01*
X75235529Y-96702798D02*
X75235529Y-97488512D01*
X74521244Y-96488512D02*
X74521244Y-97988512D01*
X74521244Y-96559941D02*
X74378387Y-96488512D01*
X74378387Y-96488512D02*
X74092672Y-96488512D01*
X74092672Y-96488512D02*
X73949815Y-96559941D01*
X73949815Y-96559941D02*
X73878387Y-96631369D01*
X73878387Y-96631369D02*
X73806958Y-96774226D01*
X73806958Y-96774226D02*
X73806958Y-97202798D01*
X73806958Y-97202798D02*
X73878387Y-97345655D01*
X73878387Y-97345655D02*
X73949815Y-97417084D01*
X73949815Y-97417084D02*
X74092672Y-97488512D01*
X74092672Y-97488512D02*
X74378387Y-97488512D01*
X74378387Y-97488512D02*
X74521244Y-97417084D01*
X72949815Y-97488512D02*
X73092672Y-97417084D01*
X73092672Y-97417084D02*
X73164101Y-97274226D01*
X73164101Y-97274226D02*
X73164101Y-95988512D01*
X72378387Y-97488512D02*
X72378387Y-96488512D01*
X72378387Y-95988512D02*
X72449815Y-96059941D01*
X72449815Y-96059941D02*
X72378387Y-96131369D01*
X72378387Y-96131369D02*
X72306958Y-96059941D01*
X72306958Y-96059941D02*
X72378387Y-95988512D01*
X72378387Y-95988512D02*
X72378387Y-96131369D01*
X71878386Y-96488512D02*
X71306958Y-96488512D01*
X71664101Y-97488512D02*
X71664101Y-96202798D01*
X71664101Y-96202798D02*
X71592672Y-96059941D01*
X71592672Y-96059941D02*
X71449815Y-95988512D01*
X71449815Y-95988512D02*
X71306958Y-95988512D01*
X70806958Y-97488512D02*
X70806958Y-96488512D01*
X70806958Y-95988512D02*
X70878386Y-96059941D01*
X70878386Y-96059941D02*
X70806958Y-96131369D01*
X70806958Y-96131369D02*
X70735529Y-96059941D01*
X70735529Y-96059941D02*
X70806958Y-95988512D01*
X70806958Y-95988512D02*
X70806958Y-96131369D01*
X69521243Y-97417084D02*
X69664100Y-97488512D01*
X69664100Y-97488512D02*
X69949815Y-97488512D01*
X69949815Y-97488512D02*
X70092672Y-97417084D01*
X70092672Y-97417084D02*
X70164100Y-97274226D01*
X70164100Y-97274226D02*
X70164100Y-96702798D01*
X70164100Y-96702798D02*
X70092672Y-96559941D01*
X70092672Y-96559941D02*
X69949815Y-96488512D01*
X69949815Y-96488512D02*
X69664100Y-96488512D01*
X69664100Y-96488512D02*
X69521243Y-96559941D01*
X69521243Y-96559941D02*
X69449815Y-96702798D01*
X69449815Y-96702798D02*
X69449815Y-96845655D01*
X69449815Y-96845655D02*
X70164100Y-96988512D01*
X68806958Y-97488512D02*
X68806958Y-96488512D01*
X68806958Y-96774226D02*
X68735529Y-96631369D01*
X68735529Y-96631369D02*
X68664101Y-96559941D01*
X68664101Y-96559941D02*
X68521243Y-96488512D01*
X68521243Y-96488512D02*
X68378386Y-96488512D01*
X67878387Y-97345655D02*
X67806958Y-97417084D01*
X67806958Y-97417084D02*
X67878387Y-97488512D01*
X67878387Y-97488512D02*
X67949815Y-97417084D01*
X67949815Y-97417084D02*
X67878387Y-97345655D01*
X67878387Y-97345655D02*
X67878387Y-97488512D01*
X92164098Y-98403428D02*
X92878384Y-98403428D01*
X92878384Y-98403428D02*
X92949812Y-99117714D01*
X92949812Y-99117714D02*
X92878384Y-99046285D01*
X92878384Y-99046285D02*
X92735527Y-98974857D01*
X92735527Y-98974857D02*
X92378384Y-98974857D01*
X92378384Y-98974857D02*
X92235527Y-99046285D01*
X92235527Y-99046285D02*
X92164098Y-99117714D01*
X92164098Y-99117714D02*
X92092669Y-99260571D01*
X92092669Y-99260571D02*
X92092669Y-99617714D01*
X92092669Y-99617714D02*
X92164098Y-99760571D01*
X92164098Y-99760571D02*
X92235527Y-99832000D01*
X92235527Y-99832000D02*
X92378384Y-99903428D01*
X92378384Y-99903428D02*
X92735527Y-99903428D01*
X92735527Y-99903428D02*
X92878384Y-99832000D01*
X92878384Y-99832000D02*
X92949812Y-99760571D01*
X90521241Y-98903428D02*
X89949813Y-98903428D01*
X90306956Y-98403428D02*
X90306956Y-99689142D01*
X90306956Y-99689142D02*
X90235527Y-99832000D01*
X90235527Y-99832000D02*
X90092670Y-99903428D01*
X90092670Y-99903428D02*
X89949813Y-99903428D01*
X89235527Y-99903428D02*
X89378384Y-99832000D01*
X89378384Y-99832000D02*
X89449813Y-99760571D01*
X89449813Y-99760571D02*
X89521241Y-99617714D01*
X89521241Y-99617714D02*
X89521241Y-99189142D01*
X89521241Y-99189142D02*
X89449813Y-99046285D01*
X89449813Y-99046285D02*
X89378384Y-98974857D01*
X89378384Y-98974857D02*
X89235527Y-98903428D01*
X89235527Y-98903428D02*
X89021241Y-98903428D01*
X89021241Y-98903428D02*
X88878384Y-98974857D01*
X88878384Y-98974857D02*
X88806956Y-99046285D01*
X88806956Y-99046285D02*
X88735527Y-99189142D01*
X88735527Y-99189142D02*
X88735527Y-99617714D01*
X88735527Y-99617714D02*
X88806956Y-99760571D01*
X88806956Y-99760571D02*
X88878384Y-99832000D01*
X88878384Y-99832000D02*
X89021241Y-99903428D01*
X89021241Y-99903428D02*
X89235527Y-99903428D01*
X86164098Y-99903428D02*
X87021241Y-99903428D01*
X86592670Y-99903428D02*
X86592670Y-98403428D01*
X86592670Y-98403428D02*
X86735527Y-98617714D01*
X86735527Y-98617714D02*
X86878384Y-98760571D01*
X86878384Y-98760571D02*
X87021241Y-98832000D01*
X84806956Y-98403428D02*
X85521242Y-98403428D01*
X85521242Y-98403428D02*
X85592670Y-99117714D01*
X85592670Y-99117714D02*
X85521242Y-99046285D01*
X85521242Y-99046285D02*
X85378385Y-98974857D01*
X85378385Y-98974857D02*
X85021242Y-98974857D01*
X85021242Y-98974857D02*
X84878385Y-99046285D01*
X84878385Y-99046285D02*
X84806956Y-99117714D01*
X84806956Y-99117714D02*
X84735527Y-99260571D01*
X84735527Y-99260571D02*
X84735527Y-99617714D01*
X84735527Y-99617714D02*
X84806956Y-99760571D01*
X84806956Y-99760571D02*
X84878385Y-99832000D01*
X84878385Y-99832000D02*
X85021242Y-99903428D01*
X85021242Y-99903428D02*
X85378385Y-99903428D01*
X85378385Y-99903428D02*
X85521242Y-99832000D01*
X85521242Y-99832000D02*
X85592670Y-99760571D01*
X84306956Y-98403428D02*
X83806956Y-99903428D01*
X83806956Y-99903428D02*
X83306956Y-98403428D01*
X81664100Y-99903428D02*
X81664100Y-98403428D01*
X81664100Y-98403428D02*
X81306957Y-98403428D01*
X81306957Y-98403428D02*
X81092671Y-98474857D01*
X81092671Y-98474857D02*
X80949814Y-98617714D01*
X80949814Y-98617714D02*
X80878385Y-98760571D01*
X80878385Y-98760571D02*
X80806957Y-99046285D01*
X80806957Y-99046285D02*
X80806957Y-99260571D01*
X80806957Y-99260571D02*
X80878385Y-99546285D01*
X80878385Y-99546285D02*
X80949814Y-99689142D01*
X80949814Y-99689142D02*
X81092671Y-99832000D01*
X81092671Y-99832000D02*
X81306957Y-99903428D01*
X81306957Y-99903428D02*
X81664100Y-99903428D01*
X79306957Y-99760571D02*
X79378385Y-99832000D01*
X79378385Y-99832000D02*
X79592671Y-99903428D01*
X79592671Y-99903428D02*
X79735528Y-99903428D01*
X79735528Y-99903428D02*
X79949814Y-99832000D01*
X79949814Y-99832000D02*
X80092671Y-99689142D01*
X80092671Y-99689142D02*
X80164100Y-99546285D01*
X80164100Y-99546285D02*
X80235528Y-99260571D01*
X80235528Y-99260571D02*
X80235528Y-99046285D01*
X80235528Y-99046285D02*
X80164100Y-98760571D01*
X80164100Y-98760571D02*
X80092671Y-98617714D01*
X80092671Y-98617714D02*
X79949814Y-98474857D01*
X79949814Y-98474857D02*
X79735528Y-98403428D01*
X79735528Y-98403428D02*
X79592671Y-98403428D01*
X79592671Y-98403428D02*
X79378385Y-98474857D01*
X79378385Y-98474857D02*
X79306957Y-98546285D01*
X77592671Y-99832000D02*
X77449814Y-99903428D01*
X77449814Y-99903428D02*
X77164100Y-99903428D01*
X77164100Y-99903428D02*
X77021243Y-99832000D01*
X77021243Y-99832000D02*
X76949814Y-99689142D01*
X76949814Y-99689142D02*
X76949814Y-99617714D01*
X76949814Y-99617714D02*
X77021243Y-99474857D01*
X77021243Y-99474857D02*
X77164100Y-99403428D01*
X77164100Y-99403428D02*
X77378386Y-99403428D01*
X77378386Y-99403428D02*
X77521243Y-99332000D01*
X77521243Y-99332000D02*
X77592671Y-99189142D01*
X77592671Y-99189142D02*
X77592671Y-99117714D01*
X77592671Y-99117714D02*
X77521243Y-98974857D01*
X77521243Y-98974857D02*
X77378386Y-98903428D01*
X77378386Y-98903428D02*
X77164100Y-98903428D01*
X77164100Y-98903428D02*
X77021243Y-98974857D01*
X75664100Y-98903428D02*
X75664100Y-99903428D01*
X76306957Y-98903428D02*
X76306957Y-99689142D01*
X76306957Y-99689142D02*
X76235528Y-99832000D01*
X76235528Y-99832000D02*
X76092671Y-99903428D01*
X76092671Y-99903428D02*
X75878385Y-99903428D01*
X75878385Y-99903428D02*
X75735528Y-99832000D01*
X75735528Y-99832000D02*
X75664100Y-99760571D01*
X74949814Y-98903428D02*
X74949814Y-100403428D01*
X74949814Y-98974857D02*
X74806957Y-98903428D01*
X74806957Y-98903428D02*
X74521242Y-98903428D01*
X74521242Y-98903428D02*
X74378385Y-98974857D01*
X74378385Y-98974857D02*
X74306957Y-99046285D01*
X74306957Y-99046285D02*
X74235528Y-99189142D01*
X74235528Y-99189142D02*
X74235528Y-99617714D01*
X74235528Y-99617714D02*
X74306957Y-99760571D01*
X74306957Y-99760571D02*
X74378385Y-99832000D01*
X74378385Y-99832000D02*
X74521242Y-99903428D01*
X74521242Y-99903428D02*
X74806957Y-99903428D01*
X74806957Y-99903428D02*
X74949814Y-99832000D01*
X73592671Y-98903428D02*
X73592671Y-100403428D01*
X73592671Y-98974857D02*
X73449814Y-98903428D01*
X73449814Y-98903428D02*
X73164099Y-98903428D01*
X73164099Y-98903428D02*
X73021242Y-98974857D01*
X73021242Y-98974857D02*
X72949814Y-99046285D01*
X72949814Y-99046285D02*
X72878385Y-99189142D01*
X72878385Y-99189142D02*
X72878385Y-99617714D01*
X72878385Y-99617714D02*
X72949814Y-99760571D01*
X72949814Y-99760571D02*
X73021242Y-99832000D01*
X73021242Y-99832000D02*
X73164099Y-99903428D01*
X73164099Y-99903428D02*
X73449814Y-99903428D01*
X73449814Y-99903428D02*
X73592671Y-99832000D01*
X72021242Y-99903428D02*
X72164099Y-99832000D01*
X72164099Y-99832000D02*
X72235528Y-99689142D01*
X72235528Y-99689142D02*
X72235528Y-98403428D01*
X71592671Y-98903428D02*
X71235528Y-99903428D01*
X70878385Y-98903428D02*
X71235528Y-99903428D01*
X71235528Y-99903428D02*
X71378385Y-100260571D01*
X71378385Y-100260571D02*
X71449814Y-100332000D01*
X71449814Y-100332000D02*
X71592671Y-100403428D01*
X70306957Y-99760571D02*
X70235528Y-99832000D01*
X70235528Y-99832000D02*
X70306957Y-99903428D01*
X70306957Y-99903428D02*
X70378385Y-99832000D01*
X70378385Y-99832000D02*
X70306957Y-99760571D01*
X70306957Y-99760571D02*
X70306957Y-99903428D01*
X139092669Y-61988512D02*
X138235527Y-61988512D01*
X138664098Y-63488512D02*
X138664098Y-61988512D01*
X137735527Y-63488512D02*
X137735527Y-61988512D01*
X137735527Y-61988512D02*
X137378384Y-61988512D01*
X137378384Y-61988512D02*
X137164098Y-62059941D01*
X137164098Y-62059941D02*
X137021241Y-62202798D01*
X137021241Y-62202798D02*
X136949812Y-62345655D01*
X136949812Y-62345655D02*
X136878384Y-62631369D01*
X136878384Y-62631369D02*
X136878384Y-62845655D01*
X136878384Y-62845655D02*
X136949812Y-63131369D01*
X136949812Y-63131369D02*
X137021241Y-63274226D01*
X137021241Y-63274226D02*
X137164098Y-63417084D01*
X137164098Y-63417084D02*
X137378384Y-63488512D01*
X137378384Y-63488512D02*
X137735527Y-63488512D01*
X136306955Y-63059941D02*
X135592670Y-63059941D01*
X136449812Y-63488512D02*
X135949812Y-61988512D01*
X135949812Y-61988512D02*
X135449812Y-63488512D01*
X135092670Y-61988512D02*
X134092670Y-61988512D01*
X134092670Y-61988512D02*
X134735527Y-63488512D01*
X133592670Y-62131369D02*
X133521242Y-62059941D01*
X133521242Y-62059941D02*
X133378385Y-61988512D01*
X133378385Y-61988512D02*
X133021242Y-61988512D01*
X133021242Y-61988512D02*
X132878385Y-62059941D01*
X132878385Y-62059941D02*
X132806956Y-62131369D01*
X132806956Y-62131369D02*
X132735527Y-62274226D01*
X132735527Y-62274226D02*
X132735527Y-62417084D01*
X132735527Y-62417084D02*
X132806956Y-62631369D01*
X132806956Y-62631369D02*
X133664099Y-63488512D01*
X133664099Y-63488512D02*
X132735527Y-63488512D01*
X131449814Y-61988512D02*
X131735528Y-61988512D01*
X131735528Y-61988512D02*
X131878385Y-62059941D01*
X131878385Y-62059941D02*
X131949814Y-62131369D01*
X131949814Y-62131369D02*
X132092671Y-62345655D01*
X132092671Y-62345655D02*
X132164099Y-62631369D01*
X132164099Y-62631369D02*
X132164099Y-63202798D01*
X132164099Y-63202798D02*
X132092671Y-63345655D01*
X132092671Y-63345655D02*
X132021242Y-63417084D01*
X132021242Y-63417084D02*
X131878385Y-63488512D01*
X131878385Y-63488512D02*
X131592671Y-63488512D01*
X131592671Y-63488512D02*
X131449814Y-63417084D01*
X131449814Y-63417084D02*
X131378385Y-63345655D01*
X131378385Y-63345655D02*
X131306956Y-63202798D01*
X131306956Y-63202798D02*
X131306956Y-62845655D01*
X131306956Y-62845655D02*
X131378385Y-62702798D01*
X131378385Y-62702798D02*
X131449814Y-62631369D01*
X131449814Y-62631369D02*
X131592671Y-62559941D01*
X131592671Y-62559941D02*
X131878385Y-62559941D01*
X131878385Y-62559941D02*
X132021242Y-62631369D01*
X132021242Y-62631369D02*
X132092671Y-62702798D01*
X132092671Y-62702798D02*
X132164099Y-62845655D01*
X130806957Y-61988512D02*
X129806957Y-61988512D01*
X129806957Y-61988512D02*
X130449814Y-63488512D01*
X128164100Y-62131369D02*
X128092672Y-62059941D01*
X128092672Y-62059941D02*
X127949815Y-61988512D01*
X127949815Y-61988512D02*
X127592672Y-61988512D01*
X127592672Y-61988512D02*
X127449815Y-62059941D01*
X127449815Y-62059941D02*
X127378386Y-62131369D01*
X127378386Y-62131369D02*
X127306957Y-62274226D01*
X127306957Y-62274226D02*
X127306957Y-62417084D01*
X127306957Y-62417084D02*
X127378386Y-62631369D01*
X127378386Y-62631369D02*
X128235529Y-63488512D01*
X128235529Y-63488512D02*
X127306957Y-63488512D01*
X126806958Y-61988512D02*
X126449815Y-63488512D01*
X126449815Y-63488512D02*
X126164101Y-62417084D01*
X126164101Y-62417084D02*
X125878386Y-63488512D01*
X125878386Y-63488512D02*
X125521244Y-61988512D01*
X123878386Y-63059941D02*
X123164101Y-63059941D01*
X124021243Y-63488512D02*
X123521243Y-61988512D01*
X123521243Y-61988512D02*
X123021243Y-63488512D01*
X122521244Y-63488512D02*
X122521244Y-62488512D01*
X122521244Y-62631369D02*
X122449815Y-62559941D01*
X122449815Y-62559941D02*
X122306958Y-62488512D01*
X122306958Y-62488512D02*
X122092672Y-62488512D01*
X122092672Y-62488512D02*
X121949815Y-62559941D01*
X121949815Y-62559941D02*
X121878387Y-62702798D01*
X121878387Y-62702798D02*
X121878387Y-63488512D01*
X121878387Y-62702798D02*
X121806958Y-62559941D01*
X121806958Y-62559941D02*
X121664101Y-62488512D01*
X121664101Y-62488512D02*
X121449815Y-62488512D01*
X121449815Y-62488512D02*
X121306958Y-62559941D01*
X121306958Y-62559941D02*
X121235529Y-62702798D01*
X121235529Y-62702798D02*
X121235529Y-63488512D01*
X120521244Y-62488512D02*
X120521244Y-63988512D01*
X120521244Y-62559941D02*
X120378387Y-62488512D01*
X120378387Y-62488512D02*
X120092672Y-62488512D01*
X120092672Y-62488512D02*
X119949815Y-62559941D01*
X119949815Y-62559941D02*
X119878387Y-62631369D01*
X119878387Y-62631369D02*
X119806958Y-62774226D01*
X119806958Y-62774226D02*
X119806958Y-63202798D01*
X119806958Y-63202798D02*
X119878387Y-63345655D01*
X119878387Y-63345655D02*
X119949815Y-63417084D01*
X119949815Y-63417084D02*
X120092672Y-63488512D01*
X120092672Y-63488512D02*
X120378387Y-63488512D01*
X120378387Y-63488512D02*
X120521244Y-63417084D01*
X118949815Y-63488512D02*
X119092672Y-63417084D01*
X119092672Y-63417084D02*
X119164101Y-63274226D01*
X119164101Y-63274226D02*
X119164101Y-61988512D01*
X118378387Y-63488512D02*
X118378387Y-62488512D01*
X118378387Y-61988512D02*
X118449815Y-62059941D01*
X118449815Y-62059941D02*
X118378387Y-62131369D01*
X118378387Y-62131369D02*
X118306958Y-62059941D01*
X118306958Y-62059941D02*
X118378387Y-61988512D01*
X118378387Y-61988512D02*
X118378387Y-62131369D01*
X117878386Y-62488512D02*
X117306958Y-62488512D01*
X117664101Y-63488512D02*
X117664101Y-62202798D01*
X117664101Y-62202798D02*
X117592672Y-62059941D01*
X117592672Y-62059941D02*
X117449815Y-61988512D01*
X117449815Y-61988512D02*
X117306958Y-61988512D01*
X116806958Y-63488512D02*
X116806958Y-62488512D01*
X116806958Y-61988512D02*
X116878386Y-62059941D01*
X116878386Y-62059941D02*
X116806958Y-62131369D01*
X116806958Y-62131369D02*
X116735529Y-62059941D01*
X116735529Y-62059941D02*
X116806958Y-61988512D01*
X116806958Y-61988512D02*
X116806958Y-62131369D01*
X115521243Y-63417084D02*
X115664100Y-63488512D01*
X115664100Y-63488512D02*
X115949815Y-63488512D01*
X115949815Y-63488512D02*
X116092672Y-63417084D01*
X116092672Y-63417084D02*
X116164100Y-63274226D01*
X116164100Y-63274226D02*
X116164100Y-62702798D01*
X116164100Y-62702798D02*
X116092672Y-62559941D01*
X116092672Y-62559941D02*
X115949815Y-62488512D01*
X115949815Y-62488512D02*
X115664100Y-62488512D01*
X115664100Y-62488512D02*
X115521243Y-62559941D01*
X115521243Y-62559941D02*
X115449815Y-62702798D01*
X115449815Y-62702798D02*
X115449815Y-62845655D01*
X115449815Y-62845655D02*
X116164100Y-62988512D01*
X114806958Y-63488512D02*
X114806958Y-62488512D01*
X114806958Y-62774226D02*
X114735529Y-62631369D01*
X114735529Y-62631369D02*
X114664101Y-62559941D01*
X114664101Y-62559941D02*
X114521243Y-62488512D01*
X114521243Y-62488512D02*
X114378386Y-62488512D01*
X113878387Y-63345655D02*
X113806958Y-63417084D01*
X113806958Y-63417084D02*
X113878387Y-63488512D01*
X113878387Y-63488512D02*
X113949815Y-63417084D01*
X113949815Y-63417084D02*
X113878387Y-63345655D01*
X113878387Y-63345655D02*
X113878387Y-63488512D01*
X138164098Y-64403428D02*
X138878384Y-64403428D01*
X138878384Y-64403428D02*
X138949812Y-65117714D01*
X138949812Y-65117714D02*
X138878384Y-65046285D01*
X138878384Y-65046285D02*
X138735527Y-64974857D01*
X138735527Y-64974857D02*
X138378384Y-64974857D01*
X138378384Y-64974857D02*
X138235527Y-65046285D01*
X138235527Y-65046285D02*
X138164098Y-65117714D01*
X138164098Y-65117714D02*
X138092669Y-65260571D01*
X138092669Y-65260571D02*
X138092669Y-65617714D01*
X138092669Y-65617714D02*
X138164098Y-65760571D01*
X138164098Y-65760571D02*
X138235527Y-65832000D01*
X138235527Y-65832000D02*
X138378384Y-65903428D01*
X138378384Y-65903428D02*
X138735527Y-65903428D01*
X138735527Y-65903428D02*
X138878384Y-65832000D01*
X138878384Y-65832000D02*
X138949812Y-65760571D01*
X136521241Y-64903428D02*
X135949813Y-64903428D01*
X136306956Y-64403428D02*
X136306956Y-65689142D01*
X136306956Y-65689142D02*
X136235527Y-65832000D01*
X136235527Y-65832000D02*
X136092670Y-65903428D01*
X136092670Y-65903428D02*
X135949813Y-65903428D01*
X135235527Y-65903428D02*
X135378384Y-65832000D01*
X135378384Y-65832000D02*
X135449813Y-65760571D01*
X135449813Y-65760571D02*
X135521241Y-65617714D01*
X135521241Y-65617714D02*
X135521241Y-65189142D01*
X135521241Y-65189142D02*
X135449813Y-65046285D01*
X135449813Y-65046285D02*
X135378384Y-64974857D01*
X135378384Y-64974857D02*
X135235527Y-64903428D01*
X135235527Y-64903428D02*
X135021241Y-64903428D01*
X135021241Y-64903428D02*
X134878384Y-64974857D01*
X134878384Y-64974857D02*
X134806956Y-65046285D01*
X134806956Y-65046285D02*
X134735527Y-65189142D01*
X134735527Y-65189142D02*
X134735527Y-65617714D01*
X134735527Y-65617714D02*
X134806956Y-65760571D01*
X134806956Y-65760571D02*
X134878384Y-65832000D01*
X134878384Y-65832000D02*
X135021241Y-65903428D01*
X135021241Y-65903428D02*
X135235527Y-65903428D01*
X132164098Y-65903428D02*
X133021241Y-65903428D01*
X132592670Y-65903428D02*
X132592670Y-64403428D01*
X132592670Y-64403428D02*
X132735527Y-64617714D01*
X132735527Y-64617714D02*
X132878384Y-64760571D01*
X132878384Y-64760571D02*
X133021241Y-64832000D01*
X130806956Y-64403428D02*
X131521242Y-64403428D01*
X131521242Y-64403428D02*
X131592670Y-65117714D01*
X131592670Y-65117714D02*
X131521242Y-65046285D01*
X131521242Y-65046285D02*
X131378385Y-64974857D01*
X131378385Y-64974857D02*
X131021242Y-64974857D01*
X131021242Y-64974857D02*
X130878385Y-65046285D01*
X130878385Y-65046285D02*
X130806956Y-65117714D01*
X130806956Y-65117714D02*
X130735527Y-65260571D01*
X130735527Y-65260571D02*
X130735527Y-65617714D01*
X130735527Y-65617714D02*
X130806956Y-65760571D01*
X130806956Y-65760571D02*
X130878385Y-65832000D01*
X130878385Y-65832000D02*
X131021242Y-65903428D01*
X131021242Y-65903428D02*
X131378385Y-65903428D01*
X131378385Y-65903428D02*
X131521242Y-65832000D01*
X131521242Y-65832000D02*
X131592670Y-65760571D01*
X130306956Y-64403428D02*
X129806956Y-65903428D01*
X129806956Y-65903428D02*
X129306956Y-64403428D01*
X127664100Y-65903428D02*
X127664100Y-64403428D01*
X127664100Y-64403428D02*
X127306957Y-64403428D01*
X127306957Y-64403428D02*
X127092671Y-64474857D01*
X127092671Y-64474857D02*
X126949814Y-64617714D01*
X126949814Y-64617714D02*
X126878385Y-64760571D01*
X126878385Y-64760571D02*
X126806957Y-65046285D01*
X126806957Y-65046285D02*
X126806957Y-65260571D01*
X126806957Y-65260571D02*
X126878385Y-65546285D01*
X126878385Y-65546285D02*
X126949814Y-65689142D01*
X126949814Y-65689142D02*
X127092671Y-65832000D01*
X127092671Y-65832000D02*
X127306957Y-65903428D01*
X127306957Y-65903428D02*
X127664100Y-65903428D01*
X125306957Y-65760571D02*
X125378385Y-65832000D01*
X125378385Y-65832000D02*
X125592671Y-65903428D01*
X125592671Y-65903428D02*
X125735528Y-65903428D01*
X125735528Y-65903428D02*
X125949814Y-65832000D01*
X125949814Y-65832000D02*
X126092671Y-65689142D01*
X126092671Y-65689142D02*
X126164100Y-65546285D01*
X126164100Y-65546285D02*
X126235528Y-65260571D01*
X126235528Y-65260571D02*
X126235528Y-65046285D01*
X126235528Y-65046285D02*
X126164100Y-64760571D01*
X126164100Y-64760571D02*
X126092671Y-64617714D01*
X126092671Y-64617714D02*
X125949814Y-64474857D01*
X125949814Y-64474857D02*
X125735528Y-64403428D01*
X125735528Y-64403428D02*
X125592671Y-64403428D01*
X125592671Y-64403428D02*
X125378385Y-64474857D01*
X125378385Y-64474857D02*
X125306957Y-64546285D01*
X123592671Y-65832000D02*
X123449814Y-65903428D01*
X123449814Y-65903428D02*
X123164100Y-65903428D01*
X123164100Y-65903428D02*
X123021243Y-65832000D01*
X123021243Y-65832000D02*
X122949814Y-65689142D01*
X122949814Y-65689142D02*
X122949814Y-65617714D01*
X122949814Y-65617714D02*
X123021243Y-65474857D01*
X123021243Y-65474857D02*
X123164100Y-65403428D01*
X123164100Y-65403428D02*
X123378386Y-65403428D01*
X123378386Y-65403428D02*
X123521243Y-65332000D01*
X123521243Y-65332000D02*
X123592671Y-65189142D01*
X123592671Y-65189142D02*
X123592671Y-65117714D01*
X123592671Y-65117714D02*
X123521243Y-64974857D01*
X123521243Y-64974857D02*
X123378386Y-64903428D01*
X123378386Y-64903428D02*
X123164100Y-64903428D01*
X123164100Y-64903428D02*
X123021243Y-64974857D01*
X121664100Y-64903428D02*
X121664100Y-65903428D01*
X122306957Y-64903428D02*
X122306957Y-65689142D01*
X122306957Y-65689142D02*
X122235528Y-65832000D01*
X122235528Y-65832000D02*
X122092671Y-65903428D01*
X122092671Y-65903428D02*
X121878385Y-65903428D01*
X121878385Y-65903428D02*
X121735528Y-65832000D01*
X121735528Y-65832000D02*
X121664100Y-65760571D01*
X120949814Y-64903428D02*
X120949814Y-66403428D01*
X120949814Y-64974857D02*
X120806957Y-64903428D01*
X120806957Y-64903428D02*
X120521242Y-64903428D01*
X120521242Y-64903428D02*
X120378385Y-64974857D01*
X120378385Y-64974857D02*
X120306957Y-65046285D01*
X120306957Y-65046285D02*
X120235528Y-65189142D01*
X120235528Y-65189142D02*
X120235528Y-65617714D01*
X120235528Y-65617714D02*
X120306957Y-65760571D01*
X120306957Y-65760571D02*
X120378385Y-65832000D01*
X120378385Y-65832000D02*
X120521242Y-65903428D01*
X120521242Y-65903428D02*
X120806957Y-65903428D01*
X120806957Y-65903428D02*
X120949814Y-65832000D01*
X119592671Y-64903428D02*
X119592671Y-66403428D01*
X119592671Y-64974857D02*
X119449814Y-64903428D01*
X119449814Y-64903428D02*
X119164099Y-64903428D01*
X119164099Y-64903428D02*
X119021242Y-64974857D01*
X119021242Y-64974857D02*
X118949814Y-65046285D01*
X118949814Y-65046285D02*
X118878385Y-65189142D01*
X118878385Y-65189142D02*
X118878385Y-65617714D01*
X118878385Y-65617714D02*
X118949814Y-65760571D01*
X118949814Y-65760571D02*
X119021242Y-65832000D01*
X119021242Y-65832000D02*
X119164099Y-65903428D01*
X119164099Y-65903428D02*
X119449814Y-65903428D01*
X119449814Y-65903428D02*
X119592671Y-65832000D01*
X118021242Y-65903428D02*
X118164099Y-65832000D01*
X118164099Y-65832000D02*
X118235528Y-65689142D01*
X118235528Y-65689142D02*
X118235528Y-64403428D01*
X117592671Y-64903428D02*
X117235528Y-65903428D01*
X116878385Y-64903428D02*
X117235528Y-65903428D01*
X117235528Y-65903428D02*
X117378385Y-66260571D01*
X117378385Y-66260571D02*
X117449814Y-66332000D01*
X117449814Y-66332000D02*
X117592671Y-66403428D01*
X116306957Y-65760571D02*
X116235528Y-65832000D01*
X116235528Y-65832000D02*
X116306957Y-65903428D01*
X116306957Y-65903428D02*
X116378385Y-65832000D01*
X116378385Y-65832000D02*
X116306957Y-65760571D01*
X116306957Y-65760571D02*
X116306957Y-65903428D01*
X93092669Y-61988512D02*
X92235527Y-61988512D01*
X92664098Y-63488512D02*
X92664098Y-61988512D01*
X91735527Y-63488512D02*
X91735527Y-61988512D01*
X91735527Y-61988512D02*
X91378384Y-61988512D01*
X91378384Y-61988512D02*
X91164098Y-62059941D01*
X91164098Y-62059941D02*
X91021241Y-62202798D01*
X91021241Y-62202798D02*
X90949812Y-62345655D01*
X90949812Y-62345655D02*
X90878384Y-62631369D01*
X90878384Y-62631369D02*
X90878384Y-62845655D01*
X90878384Y-62845655D02*
X90949812Y-63131369D01*
X90949812Y-63131369D02*
X91021241Y-63274226D01*
X91021241Y-63274226D02*
X91164098Y-63417084D01*
X91164098Y-63417084D02*
X91378384Y-63488512D01*
X91378384Y-63488512D02*
X91735527Y-63488512D01*
X90306955Y-63059941D02*
X89592670Y-63059941D01*
X90449812Y-63488512D02*
X89949812Y-61988512D01*
X89949812Y-61988512D02*
X89449812Y-63488512D01*
X89092670Y-61988512D02*
X88092670Y-61988512D01*
X88092670Y-61988512D02*
X88735527Y-63488512D01*
X87592670Y-62131369D02*
X87521242Y-62059941D01*
X87521242Y-62059941D02*
X87378385Y-61988512D01*
X87378385Y-61988512D02*
X87021242Y-61988512D01*
X87021242Y-61988512D02*
X86878385Y-62059941D01*
X86878385Y-62059941D02*
X86806956Y-62131369D01*
X86806956Y-62131369D02*
X86735527Y-62274226D01*
X86735527Y-62274226D02*
X86735527Y-62417084D01*
X86735527Y-62417084D02*
X86806956Y-62631369D01*
X86806956Y-62631369D02*
X87664099Y-63488512D01*
X87664099Y-63488512D02*
X86735527Y-63488512D01*
X85449814Y-61988512D02*
X85735528Y-61988512D01*
X85735528Y-61988512D02*
X85878385Y-62059941D01*
X85878385Y-62059941D02*
X85949814Y-62131369D01*
X85949814Y-62131369D02*
X86092671Y-62345655D01*
X86092671Y-62345655D02*
X86164099Y-62631369D01*
X86164099Y-62631369D02*
X86164099Y-63202798D01*
X86164099Y-63202798D02*
X86092671Y-63345655D01*
X86092671Y-63345655D02*
X86021242Y-63417084D01*
X86021242Y-63417084D02*
X85878385Y-63488512D01*
X85878385Y-63488512D02*
X85592671Y-63488512D01*
X85592671Y-63488512D02*
X85449814Y-63417084D01*
X85449814Y-63417084D02*
X85378385Y-63345655D01*
X85378385Y-63345655D02*
X85306956Y-63202798D01*
X85306956Y-63202798D02*
X85306956Y-62845655D01*
X85306956Y-62845655D02*
X85378385Y-62702798D01*
X85378385Y-62702798D02*
X85449814Y-62631369D01*
X85449814Y-62631369D02*
X85592671Y-62559941D01*
X85592671Y-62559941D02*
X85878385Y-62559941D01*
X85878385Y-62559941D02*
X86021242Y-62631369D01*
X86021242Y-62631369D02*
X86092671Y-62702798D01*
X86092671Y-62702798D02*
X86164099Y-62845655D01*
X84806957Y-61988512D02*
X83806957Y-61988512D01*
X83806957Y-61988512D02*
X84449814Y-63488512D01*
X82164100Y-62131369D02*
X82092672Y-62059941D01*
X82092672Y-62059941D02*
X81949815Y-61988512D01*
X81949815Y-61988512D02*
X81592672Y-61988512D01*
X81592672Y-61988512D02*
X81449815Y-62059941D01*
X81449815Y-62059941D02*
X81378386Y-62131369D01*
X81378386Y-62131369D02*
X81306957Y-62274226D01*
X81306957Y-62274226D02*
X81306957Y-62417084D01*
X81306957Y-62417084D02*
X81378386Y-62631369D01*
X81378386Y-62631369D02*
X82235529Y-63488512D01*
X82235529Y-63488512D02*
X81306957Y-63488512D01*
X80806958Y-61988512D02*
X80449815Y-63488512D01*
X80449815Y-63488512D02*
X80164101Y-62417084D01*
X80164101Y-62417084D02*
X79878386Y-63488512D01*
X79878386Y-63488512D02*
X79521244Y-61988512D01*
X77878386Y-63059941D02*
X77164101Y-63059941D01*
X78021243Y-63488512D02*
X77521243Y-61988512D01*
X77521243Y-61988512D02*
X77021243Y-63488512D01*
X76521244Y-63488512D02*
X76521244Y-62488512D01*
X76521244Y-62631369D02*
X76449815Y-62559941D01*
X76449815Y-62559941D02*
X76306958Y-62488512D01*
X76306958Y-62488512D02*
X76092672Y-62488512D01*
X76092672Y-62488512D02*
X75949815Y-62559941D01*
X75949815Y-62559941D02*
X75878387Y-62702798D01*
X75878387Y-62702798D02*
X75878387Y-63488512D01*
X75878387Y-62702798D02*
X75806958Y-62559941D01*
X75806958Y-62559941D02*
X75664101Y-62488512D01*
X75664101Y-62488512D02*
X75449815Y-62488512D01*
X75449815Y-62488512D02*
X75306958Y-62559941D01*
X75306958Y-62559941D02*
X75235529Y-62702798D01*
X75235529Y-62702798D02*
X75235529Y-63488512D01*
X74521244Y-62488512D02*
X74521244Y-63988512D01*
X74521244Y-62559941D02*
X74378387Y-62488512D01*
X74378387Y-62488512D02*
X74092672Y-62488512D01*
X74092672Y-62488512D02*
X73949815Y-62559941D01*
X73949815Y-62559941D02*
X73878387Y-62631369D01*
X73878387Y-62631369D02*
X73806958Y-62774226D01*
X73806958Y-62774226D02*
X73806958Y-63202798D01*
X73806958Y-63202798D02*
X73878387Y-63345655D01*
X73878387Y-63345655D02*
X73949815Y-63417084D01*
X73949815Y-63417084D02*
X74092672Y-63488512D01*
X74092672Y-63488512D02*
X74378387Y-63488512D01*
X74378387Y-63488512D02*
X74521244Y-63417084D01*
X72949815Y-63488512D02*
X73092672Y-63417084D01*
X73092672Y-63417084D02*
X73164101Y-63274226D01*
X73164101Y-63274226D02*
X73164101Y-61988512D01*
X72378387Y-63488512D02*
X72378387Y-62488512D01*
X72378387Y-61988512D02*
X72449815Y-62059941D01*
X72449815Y-62059941D02*
X72378387Y-62131369D01*
X72378387Y-62131369D02*
X72306958Y-62059941D01*
X72306958Y-62059941D02*
X72378387Y-61988512D01*
X72378387Y-61988512D02*
X72378387Y-62131369D01*
X71878386Y-62488512D02*
X71306958Y-62488512D01*
X71664101Y-63488512D02*
X71664101Y-62202798D01*
X71664101Y-62202798D02*
X71592672Y-62059941D01*
X71592672Y-62059941D02*
X71449815Y-61988512D01*
X71449815Y-61988512D02*
X71306958Y-61988512D01*
X70806958Y-63488512D02*
X70806958Y-62488512D01*
X70806958Y-61988512D02*
X70878386Y-62059941D01*
X70878386Y-62059941D02*
X70806958Y-62131369D01*
X70806958Y-62131369D02*
X70735529Y-62059941D01*
X70735529Y-62059941D02*
X70806958Y-61988512D01*
X70806958Y-61988512D02*
X70806958Y-62131369D01*
X69521243Y-63417084D02*
X69664100Y-63488512D01*
X69664100Y-63488512D02*
X69949815Y-63488512D01*
X69949815Y-63488512D02*
X70092672Y-63417084D01*
X70092672Y-63417084D02*
X70164100Y-63274226D01*
X70164100Y-63274226D02*
X70164100Y-62702798D01*
X70164100Y-62702798D02*
X70092672Y-62559941D01*
X70092672Y-62559941D02*
X69949815Y-62488512D01*
X69949815Y-62488512D02*
X69664100Y-62488512D01*
X69664100Y-62488512D02*
X69521243Y-62559941D01*
X69521243Y-62559941D02*
X69449815Y-62702798D01*
X69449815Y-62702798D02*
X69449815Y-62845655D01*
X69449815Y-62845655D02*
X70164100Y-62988512D01*
X68806958Y-63488512D02*
X68806958Y-62488512D01*
X68806958Y-62774226D02*
X68735529Y-62631369D01*
X68735529Y-62631369D02*
X68664101Y-62559941D01*
X68664101Y-62559941D02*
X68521243Y-62488512D01*
X68521243Y-62488512D02*
X68378386Y-62488512D01*
X67878387Y-63345655D02*
X67806958Y-63417084D01*
X67806958Y-63417084D02*
X67878387Y-63488512D01*
X67878387Y-63488512D02*
X67949815Y-63417084D01*
X67949815Y-63417084D02*
X67878387Y-63345655D01*
X67878387Y-63345655D02*
X67878387Y-63488512D01*
X92164098Y-64403428D02*
X92878384Y-64403428D01*
X92878384Y-64403428D02*
X92949812Y-65117714D01*
X92949812Y-65117714D02*
X92878384Y-65046285D01*
X92878384Y-65046285D02*
X92735527Y-64974857D01*
X92735527Y-64974857D02*
X92378384Y-64974857D01*
X92378384Y-64974857D02*
X92235527Y-65046285D01*
X92235527Y-65046285D02*
X92164098Y-65117714D01*
X92164098Y-65117714D02*
X92092669Y-65260571D01*
X92092669Y-65260571D02*
X92092669Y-65617714D01*
X92092669Y-65617714D02*
X92164098Y-65760571D01*
X92164098Y-65760571D02*
X92235527Y-65832000D01*
X92235527Y-65832000D02*
X92378384Y-65903428D01*
X92378384Y-65903428D02*
X92735527Y-65903428D01*
X92735527Y-65903428D02*
X92878384Y-65832000D01*
X92878384Y-65832000D02*
X92949812Y-65760571D01*
X90521241Y-64903428D02*
X89949813Y-64903428D01*
X90306956Y-64403428D02*
X90306956Y-65689142D01*
X90306956Y-65689142D02*
X90235527Y-65832000D01*
X90235527Y-65832000D02*
X90092670Y-65903428D01*
X90092670Y-65903428D02*
X89949813Y-65903428D01*
X89235527Y-65903428D02*
X89378384Y-65832000D01*
X89378384Y-65832000D02*
X89449813Y-65760571D01*
X89449813Y-65760571D02*
X89521241Y-65617714D01*
X89521241Y-65617714D02*
X89521241Y-65189142D01*
X89521241Y-65189142D02*
X89449813Y-65046285D01*
X89449813Y-65046285D02*
X89378384Y-64974857D01*
X89378384Y-64974857D02*
X89235527Y-64903428D01*
X89235527Y-64903428D02*
X89021241Y-64903428D01*
X89021241Y-64903428D02*
X88878384Y-64974857D01*
X88878384Y-64974857D02*
X88806956Y-65046285D01*
X88806956Y-65046285D02*
X88735527Y-65189142D01*
X88735527Y-65189142D02*
X88735527Y-65617714D01*
X88735527Y-65617714D02*
X88806956Y-65760571D01*
X88806956Y-65760571D02*
X88878384Y-65832000D01*
X88878384Y-65832000D02*
X89021241Y-65903428D01*
X89021241Y-65903428D02*
X89235527Y-65903428D01*
X86164098Y-65903428D02*
X87021241Y-65903428D01*
X86592670Y-65903428D02*
X86592670Y-64403428D01*
X86592670Y-64403428D02*
X86735527Y-64617714D01*
X86735527Y-64617714D02*
X86878384Y-64760571D01*
X86878384Y-64760571D02*
X87021241Y-64832000D01*
X84806956Y-64403428D02*
X85521242Y-64403428D01*
X85521242Y-64403428D02*
X85592670Y-65117714D01*
X85592670Y-65117714D02*
X85521242Y-65046285D01*
X85521242Y-65046285D02*
X85378385Y-64974857D01*
X85378385Y-64974857D02*
X85021242Y-64974857D01*
X85021242Y-64974857D02*
X84878385Y-65046285D01*
X84878385Y-65046285D02*
X84806956Y-65117714D01*
X84806956Y-65117714D02*
X84735527Y-65260571D01*
X84735527Y-65260571D02*
X84735527Y-65617714D01*
X84735527Y-65617714D02*
X84806956Y-65760571D01*
X84806956Y-65760571D02*
X84878385Y-65832000D01*
X84878385Y-65832000D02*
X85021242Y-65903428D01*
X85021242Y-65903428D02*
X85378385Y-65903428D01*
X85378385Y-65903428D02*
X85521242Y-65832000D01*
X85521242Y-65832000D02*
X85592670Y-65760571D01*
X84306956Y-64403428D02*
X83806956Y-65903428D01*
X83806956Y-65903428D02*
X83306956Y-64403428D01*
X81664100Y-65903428D02*
X81664100Y-64403428D01*
X81664100Y-64403428D02*
X81306957Y-64403428D01*
X81306957Y-64403428D02*
X81092671Y-64474857D01*
X81092671Y-64474857D02*
X80949814Y-64617714D01*
X80949814Y-64617714D02*
X80878385Y-64760571D01*
X80878385Y-64760571D02*
X80806957Y-65046285D01*
X80806957Y-65046285D02*
X80806957Y-65260571D01*
X80806957Y-65260571D02*
X80878385Y-65546285D01*
X80878385Y-65546285D02*
X80949814Y-65689142D01*
X80949814Y-65689142D02*
X81092671Y-65832000D01*
X81092671Y-65832000D02*
X81306957Y-65903428D01*
X81306957Y-65903428D02*
X81664100Y-65903428D01*
X79306957Y-65760571D02*
X79378385Y-65832000D01*
X79378385Y-65832000D02*
X79592671Y-65903428D01*
X79592671Y-65903428D02*
X79735528Y-65903428D01*
X79735528Y-65903428D02*
X79949814Y-65832000D01*
X79949814Y-65832000D02*
X80092671Y-65689142D01*
X80092671Y-65689142D02*
X80164100Y-65546285D01*
X80164100Y-65546285D02*
X80235528Y-65260571D01*
X80235528Y-65260571D02*
X80235528Y-65046285D01*
X80235528Y-65046285D02*
X80164100Y-64760571D01*
X80164100Y-64760571D02*
X80092671Y-64617714D01*
X80092671Y-64617714D02*
X79949814Y-64474857D01*
X79949814Y-64474857D02*
X79735528Y-64403428D01*
X79735528Y-64403428D02*
X79592671Y-64403428D01*
X79592671Y-64403428D02*
X79378385Y-64474857D01*
X79378385Y-64474857D02*
X79306957Y-64546285D01*
X77592671Y-65832000D02*
X77449814Y-65903428D01*
X77449814Y-65903428D02*
X77164100Y-65903428D01*
X77164100Y-65903428D02*
X77021243Y-65832000D01*
X77021243Y-65832000D02*
X76949814Y-65689142D01*
X76949814Y-65689142D02*
X76949814Y-65617714D01*
X76949814Y-65617714D02*
X77021243Y-65474857D01*
X77021243Y-65474857D02*
X77164100Y-65403428D01*
X77164100Y-65403428D02*
X77378386Y-65403428D01*
X77378386Y-65403428D02*
X77521243Y-65332000D01*
X77521243Y-65332000D02*
X77592671Y-65189142D01*
X77592671Y-65189142D02*
X77592671Y-65117714D01*
X77592671Y-65117714D02*
X77521243Y-64974857D01*
X77521243Y-64974857D02*
X77378386Y-64903428D01*
X77378386Y-64903428D02*
X77164100Y-64903428D01*
X77164100Y-64903428D02*
X77021243Y-64974857D01*
X75664100Y-64903428D02*
X75664100Y-65903428D01*
X76306957Y-64903428D02*
X76306957Y-65689142D01*
X76306957Y-65689142D02*
X76235528Y-65832000D01*
X76235528Y-65832000D02*
X76092671Y-65903428D01*
X76092671Y-65903428D02*
X75878385Y-65903428D01*
X75878385Y-65903428D02*
X75735528Y-65832000D01*
X75735528Y-65832000D02*
X75664100Y-65760571D01*
X74949814Y-64903428D02*
X74949814Y-66403428D01*
X74949814Y-64974857D02*
X74806957Y-64903428D01*
X74806957Y-64903428D02*
X74521242Y-64903428D01*
X74521242Y-64903428D02*
X74378385Y-64974857D01*
X74378385Y-64974857D02*
X74306957Y-65046285D01*
X74306957Y-65046285D02*
X74235528Y-65189142D01*
X74235528Y-65189142D02*
X74235528Y-65617714D01*
X74235528Y-65617714D02*
X74306957Y-65760571D01*
X74306957Y-65760571D02*
X74378385Y-65832000D01*
X74378385Y-65832000D02*
X74521242Y-65903428D01*
X74521242Y-65903428D02*
X74806957Y-65903428D01*
X74806957Y-65903428D02*
X74949814Y-65832000D01*
X73592671Y-64903428D02*
X73592671Y-66403428D01*
X73592671Y-64974857D02*
X73449814Y-64903428D01*
X73449814Y-64903428D02*
X73164099Y-64903428D01*
X73164099Y-64903428D02*
X73021242Y-64974857D01*
X73021242Y-64974857D02*
X72949814Y-65046285D01*
X72949814Y-65046285D02*
X72878385Y-65189142D01*
X72878385Y-65189142D02*
X72878385Y-65617714D01*
X72878385Y-65617714D02*
X72949814Y-65760571D01*
X72949814Y-65760571D02*
X73021242Y-65832000D01*
X73021242Y-65832000D02*
X73164099Y-65903428D01*
X73164099Y-65903428D02*
X73449814Y-65903428D01*
X73449814Y-65903428D02*
X73592671Y-65832000D01*
X72021242Y-65903428D02*
X72164099Y-65832000D01*
X72164099Y-65832000D02*
X72235528Y-65689142D01*
X72235528Y-65689142D02*
X72235528Y-64403428D01*
X71592671Y-64903428D02*
X71235528Y-65903428D01*
X70878385Y-64903428D02*
X71235528Y-65903428D01*
X71235528Y-65903428D02*
X71378385Y-66260571D01*
X71378385Y-66260571D02*
X71449814Y-66332000D01*
X71449814Y-66332000D02*
X71592671Y-66403428D01*
X70306957Y-65760571D02*
X70235528Y-65832000D01*
X70235528Y-65832000D02*
X70306957Y-65903428D01*
X70306957Y-65903428D02*
X70378385Y-65832000D01*
X70378385Y-65832000D02*
X70306957Y-65760571D01*
X70306957Y-65760571D02*
X70306957Y-65903428D01*
X139092669Y-129988512D02*
X138235527Y-129988512D01*
X138664098Y-131488512D02*
X138664098Y-129988512D01*
X137735527Y-131488512D02*
X137735527Y-129988512D01*
X137735527Y-129988512D02*
X137378384Y-129988512D01*
X137378384Y-129988512D02*
X137164098Y-130059941D01*
X137164098Y-130059941D02*
X137021241Y-130202798D01*
X137021241Y-130202798D02*
X136949812Y-130345655D01*
X136949812Y-130345655D02*
X136878384Y-130631369D01*
X136878384Y-130631369D02*
X136878384Y-130845655D01*
X136878384Y-130845655D02*
X136949812Y-131131369D01*
X136949812Y-131131369D02*
X137021241Y-131274226D01*
X137021241Y-131274226D02*
X137164098Y-131417084D01*
X137164098Y-131417084D02*
X137378384Y-131488512D01*
X137378384Y-131488512D02*
X137735527Y-131488512D01*
X136306955Y-131059941D02*
X135592670Y-131059941D01*
X136449812Y-131488512D02*
X135949812Y-129988512D01*
X135949812Y-129988512D02*
X135449812Y-131488512D01*
X135092670Y-129988512D02*
X134092670Y-129988512D01*
X134092670Y-129988512D02*
X134735527Y-131488512D01*
X133592670Y-130131369D02*
X133521242Y-130059941D01*
X133521242Y-130059941D02*
X133378385Y-129988512D01*
X133378385Y-129988512D02*
X133021242Y-129988512D01*
X133021242Y-129988512D02*
X132878385Y-130059941D01*
X132878385Y-130059941D02*
X132806956Y-130131369D01*
X132806956Y-130131369D02*
X132735527Y-130274226D01*
X132735527Y-130274226D02*
X132735527Y-130417084D01*
X132735527Y-130417084D02*
X132806956Y-130631369D01*
X132806956Y-130631369D02*
X133664099Y-131488512D01*
X133664099Y-131488512D02*
X132735527Y-131488512D01*
X131449814Y-129988512D02*
X131735528Y-129988512D01*
X131735528Y-129988512D02*
X131878385Y-130059941D01*
X131878385Y-130059941D02*
X131949814Y-130131369D01*
X131949814Y-130131369D02*
X132092671Y-130345655D01*
X132092671Y-130345655D02*
X132164099Y-130631369D01*
X132164099Y-130631369D02*
X132164099Y-131202798D01*
X132164099Y-131202798D02*
X132092671Y-131345655D01*
X132092671Y-131345655D02*
X132021242Y-131417084D01*
X132021242Y-131417084D02*
X131878385Y-131488512D01*
X131878385Y-131488512D02*
X131592671Y-131488512D01*
X131592671Y-131488512D02*
X131449814Y-131417084D01*
X131449814Y-131417084D02*
X131378385Y-131345655D01*
X131378385Y-131345655D02*
X131306956Y-131202798D01*
X131306956Y-131202798D02*
X131306956Y-130845655D01*
X131306956Y-130845655D02*
X131378385Y-130702798D01*
X131378385Y-130702798D02*
X131449814Y-130631369D01*
X131449814Y-130631369D02*
X131592671Y-130559941D01*
X131592671Y-130559941D02*
X131878385Y-130559941D01*
X131878385Y-130559941D02*
X132021242Y-130631369D01*
X132021242Y-130631369D02*
X132092671Y-130702798D01*
X132092671Y-130702798D02*
X132164099Y-130845655D01*
X130806957Y-129988512D02*
X129806957Y-129988512D01*
X129806957Y-129988512D02*
X130449814Y-131488512D01*
X128164100Y-130131369D02*
X128092672Y-130059941D01*
X128092672Y-130059941D02*
X127949815Y-129988512D01*
X127949815Y-129988512D02*
X127592672Y-129988512D01*
X127592672Y-129988512D02*
X127449815Y-130059941D01*
X127449815Y-130059941D02*
X127378386Y-130131369D01*
X127378386Y-130131369D02*
X127306957Y-130274226D01*
X127306957Y-130274226D02*
X127306957Y-130417084D01*
X127306957Y-130417084D02*
X127378386Y-130631369D01*
X127378386Y-130631369D02*
X128235529Y-131488512D01*
X128235529Y-131488512D02*
X127306957Y-131488512D01*
X126806958Y-129988512D02*
X126449815Y-131488512D01*
X126449815Y-131488512D02*
X126164101Y-130417084D01*
X126164101Y-130417084D02*
X125878386Y-131488512D01*
X125878386Y-131488512D02*
X125521244Y-129988512D01*
X123878386Y-131059941D02*
X123164101Y-131059941D01*
X124021243Y-131488512D02*
X123521243Y-129988512D01*
X123521243Y-129988512D02*
X123021243Y-131488512D01*
X122521244Y-131488512D02*
X122521244Y-130488512D01*
X122521244Y-130631369D02*
X122449815Y-130559941D01*
X122449815Y-130559941D02*
X122306958Y-130488512D01*
X122306958Y-130488512D02*
X122092672Y-130488512D01*
X122092672Y-130488512D02*
X121949815Y-130559941D01*
X121949815Y-130559941D02*
X121878387Y-130702798D01*
X121878387Y-130702798D02*
X121878387Y-131488512D01*
X121878387Y-130702798D02*
X121806958Y-130559941D01*
X121806958Y-130559941D02*
X121664101Y-130488512D01*
X121664101Y-130488512D02*
X121449815Y-130488512D01*
X121449815Y-130488512D02*
X121306958Y-130559941D01*
X121306958Y-130559941D02*
X121235529Y-130702798D01*
X121235529Y-130702798D02*
X121235529Y-131488512D01*
X120521244Y-130488512D02*
X120521244Y-131988512D01*
X120521244Y-130559941D02*
X120378387Y-130488512D01*
X120378387Y-130488512D02*
X120092672Y-130488512D01*
X120092672Y-130488512D02*
X119949815Y-130559941D01*
X119949815Y-130559941D02*
X119878387Y-130631369D01*
X119878387Y-130631369D02*
X119806958Y-130774226D01*
X119806958Y-130774226D02*
X119806958Y-131202798D01*
X119806958Y-131202798D02*
X119878387Y-131345655D01*
X119878387Y-131345655D02*
X119949815Y-131417084D01*
X119949815Y-131417084D02*
X120092672Y-131488512D01*
X120092672Y-131488512D02*
X120378387Y-131488512D01*
X120378387Y-131488512D02*
X120521244Y-131417084D01*
X118949815Y-131488512D02*
X119092672Y-131417084D01*
X119092672Y-131417084D02*
X119164101Y-131274226D01*
X119164101Y-131274226D02*
X119164101Y-129988512D01*
X118378387Y-131488512D02*
X118378387Y-130488512D01*
X118378387Y-129988512D02*
X118449815Y-130059941D01*
X118449815Y-130059941D02*
X118378387Y-130131369D01*
X118378387Y-130131369D02*
X118306958Y-130059941D01*
X118306958Y-130059941D02*
X118378387Y-129988512D01*
X118378387Y-129988512D02*
X118378387Y-130131369D01*
X117878386Y-130488512D02*
X117306958Y-130488512D01*
X117664101Y-131488512D02*
X117664101Y-130202798D01*
X117664101Y-130202798D02*
X117592672Y-130059941D01*
X117592672Y-130059941D02*
X117449815Y-129988512D01*
X117449815Y-129988512D02*
X117306958Y-129988512D01*
X116806958Y-131488512D02*
X116806958Y-130488512D01*
X116806958Y-129988512D02*
X116878386Y-130059941D01*
X116878386Y-130059941D02*
X116806958Y-130131369D01*
X116806958Y-130131369D02*
X116735529Y-130059941D01*
X116735529Y-130059941D02*
X116806958Y-129988512D01*
X116806958Y-129988512D02*
X116806958Y-130131369D01*
X115521243Y-131417084D02*
X115664100Y-131488512D01*
X115664100Y-131488512D02*
X115949815Y-131488512D01*
X115949815Y-131488512D02*
X116092672Y-131417084D01*
X116092672Y-131417084D02*
X116164100Y-131274226D01*
X116164100Y-131274226D02*
X116164100Y-130702798D01*
X116164100Y-130702798D02*
X116092672Y-130559941D01*
X116092672Y-130559941D02*
X115949815Y-130488512D01*
X115949815Y-130488512D02*
X115664100Y-130488512D01*
X115664100Y-130488512D02*
X115521243Y-130559941D01*
X115521243Y-130559941D02*
X115449815Y-130702798D01*
X115449815Y-130702798D02*
X115449815Y-130845655D01*
X115449815Y-130845655D02*
X116164100Y-130988512D01*
X114806958Y-131488512D02*
X114806958Y-130488512D01*
X114806958Y-130774226D02*
X114735529Y-130631369D01*
X114735529Y-130631369D02*
X114664101Y-130559941D01*
X114664101Y-130559941D02*
X114521243Y-130488512D01*
X114521243Y-130488512D02*
X114378386Y-130488512D01*
X113878387Y-131345655D02*
X113806958Y-131417084D01*
X113806958Y-131417084D02*
X113878387Y-131488512D01*
X113878387Y-131488512D02*
X113949815Y-131417084D01*
X113949815Y-131417084D02*
X113878387Y-131345655D01*
X113878387Y-131345655D02*
X113878387Y-131488512D01*
X138164098Y-132403428D02*
X138878384Y-132403428D01*
X138878384Y-132403428D02*
X138949812Y-133117714D01*
X138949812Y-133117714D02*
X138878384Y-133046285D01*
X138878384Y-133046285D02*
X138735527Y-132974857D01*
X138735527Y-132974857D02*
X138378384Y-132974857D01*
X138378384Y-132974857D02*
X138235527Y-133046285D01*
X138235527Y-133046285D02*
X138164098Y-133117714D01*
X138164098Y-133117714D02*
X138092669Y-133260571D01*
X138092669Y-133260571D02*
X138092669Y-133617714D01*
X138092669Y-133617714D02*
X138164098Y-133760571D01*
X138164098Y-133760571D02*
X138235527Y-133832000D01*
X138235527Y-133832000D02*
X138378384Y-133903428D01*
X138378384Y-133903428D02*
X138735527Y-133903428D01*
X138735527Y-133903428D02*
X138878384Y-133832000D01*
X138878384Y-133832000D02*
X138949812Y-133760571D01*
X136521241Y-132903428D02*
X135949813Y-132903428D01*
X136306956Y-132403428D02*
X136306956Y-133689142D01*
X136306956Y-133689142D02*
X136235527Y-133832000D01*
X136235527Y-133832000D02*
X136092670Y-133903428D01*
X136092670Y-133903428D02*
X135949813Y-133903428D01*
X135235527Y-133903428D02*
X135378384Y-133832000D01*
X135378384Y-133832000D02*
X135449813Y-133760571D01*
X135449813Y-133760571D02*
X135521241Y-133617714D01*
X135521241Y-133617714D02*
X135521241Y-133189142D01*
X135521241Y-133189142D02*
X135449813Y-133046285D01*
X135449813Y-133046285D02*
X135378384Y-132974857D01*
X135378384Y-132974857D02*
X135235527Y-132903428D01*
X135235527Y-132903428D02*
X135021241Y-132903428D01*
X135021241Y-132903428D02*
X134878384Y-132974857D01*
X134878384Y-132974857D02*
X134806956Y-133046285D01*
X134806956Y-133046285D02*
X134735527Y-133189142D01*
X134735527Y-133189142D02*
X134735527Y-133617714D01*
X134735527Y-133617714D02*
X134806956Y-133760571D01*
X134806956Y-133760571D02*
X134878384Y-133832000D01*
X134878384Y-133832000D02*
X135021241Y-133903428D01*
X135021241Y-133903428D02*
X135235527Y-133903428D01*
X132164098Y-133903428D02*
X133021241Y-133903428D01*
X132592670Y-133903428D02*
X132592670Y-132403428D01*
X132592670Y-132403428D02*
X132735527Y-132617714D01*
X132735527Y-132617714D02*
X132878384Y-132760571D01*
X132878384Y-132760571D02*
X133021241Y-132832000D01*
X130806956Y-132403428D02*
X131521242Y-132403428D01*
X131521242Y-132403428D02*
X131592670Y-133117714D01*
X131592670Y-133117714D02*
X131521242Y-133046285D01*
X131521242Y-133046285D02*
X131378385Y-132974857D01*
X131378385Y-132974857D02*
X131021242Y-132974857D01*
X131021242Y-132974857D02*
X130878385Y-133046285D01*
X130878385Y-133046285D02*
X130806956Y-133117714D01*
X130806956Y-133117714D02*
X130735527Y-133260571D01*
X130735527Y-133260571D02*
X130735527Y-133617714D01*
X130735527Y-133617714D02*
X130806956Y-133760571D01*
X130806956Y-133760571D02*
X130878385Y-133832000D01*
X130878385Y-133832000D02*
X131021242Y-133903428D01*
X131021242Y-133903428D02*
X131378385Y-133903428D01*
X131378385Y-133903428D02*
X131521242Y-133832000D01*
X131521242Y-133832000D02*
X131592670Y-133760571D01*
X130306956Y-132403428D02*
X129806956Y-133903428D01*
X129806956Y-133903428D02*
X129306956Y-132403428D01*
X127664100Y-133903428D02*
X127664100Y-132403428D01*
X127664100Y-132403428D02*
X127306957Y-132403428D01*
X127306957Y-132403428D02*
X127092671Y-132474857D01*
X127092671Y-132474857D02*
X126949814Y-132617714D01*
X126949814Y-132617714D02*
X126878385Y-132760571D01*
X126878385Y-132760571D02*
X126806957Y-133046285D01*
X126806957Y-133046285D02*
X126806957Y-133260571D01*
X126806957Y-133260571D02*
X126878385Y-133546285D01*
X126878385Y-133546285D02*
X126949814Y-133689142D01*
X126949814Y-133689142D02*
X127092671Y-133832000D01*
X127092671Y-133832000D02*
X127306957Y-133903428D01*
X127306957Y-133903428D02*
X127664100Y-133903428D01*
X125306957Y-133760571D02*
X125378385Y-133832000D01*
X125378385Y-133832000D02*
X125592671Y-133903428D01*
X125592671Y-133903428D02*
X125735528Y-133903428D01*
X125735528Y-133903428D02*
X125949814Y-133832000D01*
X125949814Y-133832000D02*
X126092671Y-133689142D01*
X126092671Y-133689142D02*
X126164100Y-133546285D01*
X126164100Y-133546285D02*
X126235528Y-133260571D01*
X126235528Y-133260571D02*
X126235528Y-133046285D01*
X126235528Y-133046285D02*
X126164100Y-132760571D01*
X126164100Y-132760571D02*
X126092671Y-132617714D01*
X126092671Y-132617714D02*
X125949814Y-132474857D01*
X125949814Y-132474857D02*
X125735528Y-132403428D01*
X125735528Y-132403428D02*
X125592671Y-132403428D01*
X125592671Y-132403428D02*
X125378385Y-132474857D01*
X125378385Y-132474857D02*
X125306957Y-132546285D01*
X123592671Y-133832000D02*
X123449814Y-133903428D01*
X123449814Y-133903428D02*
X123164100Y-133903428D01*
X123164100Y-133903428D02*
X123021243Y-133832000D01*
X123021243Y-133832000D02*
X122949814Y-133689142D01*
X122949814Y-133689142D02*
X122949814Y-133617714D01*
X122949814Y-133617714D02*
X123021243Y-133474857D01*
X123021243Y-133474857D02*
X123164100Y-133403428D01*
X123164100Y-133403428D02*
X123378386Y-133403428D01*
X123378386Y-133403428D02*
X123521243Y-133332000D01*
X123521243Y-133332000D02*
X123592671Y-133189142D01*
X123592671Y-133189142D02*
X123592671Y-133117714D01*
X123592671Y-133117714D02*
X123521243Y-132974857D01*
X123521243Y-132974857D02*
X123378386Y-132903428D01*
X123378386Y-132903428D02*
X123164100Y-132903428D01*
X123164100Y-132903428D02*
X123021243Y-132974857D01*
X121664100Y-132903428D02*
X121664100Y-133903428D01*
X122306957Y-132903428D02*
X122306957Y-133689142D01*
X122306957Y-133689142D02*
X122235528Y-133832000D01*
X122235528Y-133832000D02*
X122092671Y-133903428D01*
X122092671Y-133903428D02*
X121878385Y-133903428D01*
X121878385Y-133903428D02*
X121735528Y-133832000D01*
X121735528Y-133832000D02*
X121664100Y-133760571D01*
X120949814Y-132903428D02*
X120949814Y-134403428D01*
X120949814Y-132974857D02*
X120806957Y-132903428D01*
X120806957Y-132903428D02*
X120521242Y-132903428D01*
X120521242Y-132903428D02*
X120378385Y-132974857D01*
X120378385Y-132974857D02*
X120306957Y-133046285D01*
X120306957Y-133046285D02*
X120235528Y-133189142D01*
X120235528Y-133189142D02*
X120235528Y-133617714D01*
X120235528Y-133617714D02*
X120306957Y-133760571D01*
X120306957Y-133760571D02*
X120378385Y-133832000D01*
X120378385Y-133832000D02*
X120521242Y-133903428D01*
X120521242Y-133903428D02*
X120806957Y-133903428D01*
X120806957Y-133903428D02*
X120949814Y-133832000D01*
X119592671Y-132903428D02*
X119592671Y-134403428D01*
X119592671Y-132974857D02*
X119449814Y-132903428D01*
X119449814Y-132903428D02*
X119164099Y-132903428D01*
X119164099Y-132903428D02*
X119021242Y-132974857D01*
X119021242Y-132974857D02*
X118949814Y-133046285D01*
X118949814Y-133046285D02*
X118878385Y-133189142D01*
X118878385Y-133189142D02*
X118878385Y-133617714D01*
X118878385Y-133617714D02*
X118949814Y-133760571D01*
X118949814Y-133760571D02*
X119021242Y-133832000D01*
X119021242Y-133832000D02*
X119164099Y-133903428D01*
X119164099Y-133903428D02*
X119449814Y-133903428D01*
X119449814Y-133903428D02*
X119592671Y-133832000D01*
X118021242Y-133903428D02*
X118164099Y-133832000D01*
X118164099Y-133832000D02*
X118235528Y-133689142D01*
X118235528Y-133689142D02*
X118235528Y-132403428D01*
X117592671Y-132903428D02*
X117235528Y-133903428D01*
X116878385Y-132903428D02*
X117235528Y-133903428D01*
X117235528Y-133903428D02*
X117378385Y-134260571D01*
X117378385Y-134260571D02*
X117449814Y-134332000D01*
X117449814Y-134332000D02*
X117592671Y-134403428D01*
X116306957Y-133760571D02*
X116235528Y-133832000D01*
X116235528Y-133832000D02*
X116306957Y-133903428D01*
X116306957Y-133903428D02*
X116378385Y-133832000D01*
X116378385Y-133832000D02*
X116306957Y-133760571D01*
X116306957Y-133760571D02*
X116306957Y-133903428D01*
M02*
