M48
; DRILL file {KiCad 9.0.4} date 2025-09-13T21:56:56+0200
; FORMAT={-:-/ absolute / inch / decimal}
; #@! TF.CreationDate,2025-09-13T21:56:56+02:00
; #@! TF.GenerationSoftware,Kicad,Pcbnew,9.0.4
; #@! TF.FileFunction,Plated,1,2,PTH
FMAT,2
INCH
; #@! TA.AperFunction,Plated,PTH,ComponentDrill
T1C0.0315
; #@! TA.AperFunction,Plated,PTH,ComponentDrill
T2C0.0354
; #@! TA.AperFunction,Plated,PTH,ComponentDrill
T3C0.0394
; #@! TA.AperFunction,Plated,PTH,ComponentDrill
T4C0.0512
; #@! TA.AperFunction,Plated,PTH,ComponentDrill
T5C0.0598
%
G90
G05
T1
X3.3543Y-2.2224
X3.3543Y-3.5217
X3.3543Y-4.8209
X3.5039Y-2.2224
X3.5039Y-3.5217
X3.5039Y-4.8209
X3.6142Y-1.7731
X3.6142Y-3.0723
X3.6142Y-4.3716
X3.713Y-2.1968
X3.713Y-2.3936
X3.713Y-3.496
X3.713Y-3.6928
X3.713Y-4.7952
X3.713Y-4.992
X3.7248Y-1.9464
X3.7248Y-3.2456
X3.7248Y-4.5448
X3.9098Y-2.1527
X3.9098Y-2.4527
X3.9098Y-3.4519
X3.9098Y-3.7519
X3.9098Y-4.7511
X3.9098Y-5.0511
X3.9142Y-1.7731
X3.9142Y-3.0723
X3.9142Y-4.3716
X3.9217Y-1.9464
X3.9217Y-3.2456
X3.9217Y-4.5448
X4.0673Y-1.9398
X4.0673Y-2.0398
X4.0673Y-2.1398
X4.0673Y-2.2398
X4.0673Y-3.239
X4.0673Y-3.339
X4.0673Y-3.439
X4.0673Y-3.539
X4.0673Y-4.5382
X4.0673Y-4.6382
X4.0673Y-4.7382
X4.0673Y-4.8382
X4.1043Y-2.4035
X4.1043Y-3.7028
X4.1043Y-5.002
X4.3012Y-2.4035
X4.3012Y-3.7028
X4.3012Y-5.002
X4.3673Y-1.9398
X4.3673Y-2.0398
X4.3673Y-2.1398
X4.3673Y-2.2398
X4.3673Y-3.239
X4.3673Y-3.339
X4.3673Y-3.439
X4.3673Y-3.539
X4.3673Y-4.5382
X4.3673Y-4.6382
X4.3673Y-4.7382
X4.3673Y-4.8382
X4.4979Y-2.4311
X4.4979Y-3.7303
X4.4979Y-5.0295
X4.6475Y-2.4311
X4.6475Y-3.7303
X4.6475Y-5.0295
X5.126Y-2.2224
X5.126Y-3.5217
X5.126Y-4.8209
X5.2756Y-2.2224
X5.2756Y-3.5217
X5.2756Y-4.8209
X5.3858Y-1.7731
X5.3858Y-3.0723
X5.3858Y-4.3716
X5.4846Y-2.1968
X5.4846Y-2.3936
X5.4846Y-3.496
X5.4846Y-3.6928
X5.4846Y-4.7952
X5.4846Y-4.992
X5.4965Y-1.9464
X5.4965Y-3.2456
X5.4965Y-4.5448
X5.6815Y-2.1527
X5.6815Y-2.4527
X5.6815Y-3.4519
X5.6815Y-3.7519
X5.6815Y-4.7511
X5.6815Y-5.0511
X5.6858Y-1.7731
X5.6858Y-3.0723
X5.6858Y-4.3716
X5.6933Y-1.9464
X5.6933Y-3.2456
X5.6933Y-4.5448
X5.839Y-1.9398
X5.839Y-2.0398
X5.839Y-2.1398
X5.839Y-2.2398
X5.839Y-3.239
X5.839Y-3.339
X5.839Y-3.439
X5.839Y-3.539
X5.839Y-4.5382
X5.839Y-4.6382
X5.839Y-4.7382
X5.839Y-4.8382
X5.876Y-2.4035
X5.876Y-3.7028
X5.876Y-5.002
X6.0728Y-2.4035
X6.0728Y-3.7028
X6.0728Y-5.002
X6.139Y-1.9398
X6.139Y-2.0398
X6.139Y-2.1398
X6.139Y-2.2398
X6.139Y-3.239
X6.139Y-3.339
X6.139Y-3.439
X6.139Y-3.539
X6.139Y-4.5382
X6.139Y-4.6382
X6.139Y-4.7382
X6.139Y-4.8382
X6.2696Y-2.4311
X6.2696Y-3.7303
X6.2696Y-5.0295
X6.4192Y-2.4311
X6.4192Y-3.7303
X6.4192Y-5.0295
T2
X3.4638Y-1.9469
X3.4638Y-3.2461
X3.4638Y-4.5453
X3.5638Y-1.9469
X3.5638Y-3.2461
X3.5638Y-4.5453
X5.2354Y-1.9469
X5.2354Y-3.2461
X5.2354Y-4.5453
X5.3354Y-1.9469
X5.3354Y-3.2461
X5.3354Y-4.5453
T3
X4.5938Y-2.0492
X4.5938Y-3.3484
X4.5938Y-4.6476
X4.7906Y-2.0492
X4.7906Y-3.3484
X4.7906Y-4.6476
X6.3654Y-2.0492
X6.3654Y-3.3484
X6.3654Y-4.6476
X6.5623Y-2.0492
X6.5623Y-3.3484
X6.5623Y-4.6476
T4
X3.8878Y-2.752
X3.8878Y-4.0512
X3.8878Y-5.3504
X4.0846Y-2.752
X4.0846Y-4.0512
X4.0846Y-5.3504
X4.2815Y-2.752
X4.2815Y-4.0512
X4.2815Y-5.3504
X5.6594Y-2.752
X5.6594Y-4.0512
X5.6594Y-5.3504
X5.8563Y-2.752
X5.8563Y-4.0512
X5.8563Y-5.3504
X6.0531Y-2.752
X6.0531Y-4.0512
X6.0531Y-5.3504
T5
X3.3925Y-2.7618
X3.3925Y-4.061
X3.3925Y-5.3602
X3.5925Y-2.7618
X3.5925Y-4.061
X3.5925Y-5.3602
X4.3445Y-1.7219
X4.3445Y-3.0212
X4.3445Y-4.3204
X4.5445Y-1.7219
X4.5445Y-3.0212
X4.5445Y-4.3204
X4.5949Y-2.7618
X4.5949Y-4.061
X4.5949Y-5.3602
X4.7949Y-2.7618
X4.7949Y-4.061
X4.7949Y-5.3602
X5.1642Y-2.7618
X5.1642Y-4.061
X5.1642Y-5.3602
X5.3642Y-2.7618
X5.3642Y-4.061
X5.3642Y-5.3602
X6.1161Y-1.7219
X6.1161Y-3.0212
X6.1161Y-4.3204
X6.3161Y-1.7219
X6.3161Y-3.0212
X6.3161Y-4.3204
X6.3665Y-2.7618
X6.3665Y-4.061
X6.3665Y-5.3602
X6.5665Y-2.7618
X6.5665Y-4.061
X6.5665Y-5.3602
M30
