%TF.GenerationSoftware,KiCad,Pcbnew,9.0.4*%
%TF.CreationDate,2025-08-29T10:18:42+02:00*%
%TF.ProjectId,TDA7267,54444137-3236-4372-9e6b-696361645f70,rev?*%
%TF.SameCoordinates,Original*%
%TF.FileFunction,Legend,Bot*%
%TF.FilePolarity,Positive*%
%FSLAX46Y46*%
G04 Gerber Fmt 4.6, Leading zero omitted, Abs format (unit mm)*
G04 Created by KiCad (PCBNEW 9.0.4) date 2025-08-29 10:18:42*
%MOMM*%
%LPD*%
G01*
G04 APERTURE LIST*
%ADD10C,0.300000*%
G04 APERTURE END LIST*
D10*
X162559774Y-107785912D02*
X161702632Y-107785912D01*
X162131203Y-109285912D02*
X162131203Y-107785912D01*
X161202632Y-109285912D02*
X161202632Y-107785912D01*
X161202632Y-107785912D02*
X160845489Y-107785912D01*
X160845489Y-107785912D02*
X160631203Y-107857341D01*
X160631203Y-107857341D02*
X160488346Y-108000198D01*
X160488346Y-108000198D02*
X160416917Y-108143055D01*
X160416917Y-108143055D02*
X160345489Y-108428769D01*
X160345489Y-108428769D02*
X160345489Y-108643055D01*
X160345489Y-108643055D02*
X160416917Y-108928769D01*
X160416917Y-108928769D02*
X160488346Y-109071626D01*
X160488346Y-109071626D02*
X160631203Y-109214484D01*
X160631203Y-109214484D02*
X160845489Y-109285912D01*
X160845489Y-109285912D02*
X161202632Y-109285912D01*
X159774060Y-108857341D02*
X159059775Y-108857341D01*
X159916917Y-109285912D02*
X159416917Y-107785912D01*
X159416917Y-107785912D02*
X158916917Y-109285912D01*
X158559775Y-107785912D02*
X157559775Y-107785912D01*
X157559775Y-107785912D02*
X158202632Y-109285912D01*
X157059775Y-107928769D02*
X156988347Y-107857341D01*
X156988347Y-107857341D02*
X156845490Y-107785912D01*
X156845490Y-107785912D02*
X156488347Y-107785912D01*
X156488347Y-107785912D02*
X156345490Y-107857341D01*
X156345490Y-107857341D02*
X156274061Y-107928769D01*
X156274061Y-107928769D02*
X156202632Y-108071626D01*
X156202632Y-108071626D02*
X156202632Y-108214484D01*
X156202632Y-108214484D02*
X156274061Y-108428769D01*
X156274061Y-108428769D02*
X157131204Y-109285912D01*
X157131204Y-109285912D02*
X156202632Y-109285912D01*
X154916919Y-107785912D02*
X155202633Y-107785912D01*
X155202633Y-107785912D02*
X155345490Y-107857341D01*
X155345490Y-107857341D02*
X155416919Y-107928769D01*
X155416919Y-107928769D02*
X155559776Y-108143055D01*
X155559776Y-108143055D02*
X155631204Y-108428769D01*
X155631204Y-108428769D02*
X155631204Y-109000198D01*
X155631204Y-109000198D02*
X155559776Y-109143055D01*
X155559776Y-109143055D02*
X155488347Y-109214484D01*
X155488347Y-109214484D02*
X155345490Y-109285912D01*
X155345490Y-109285912D02*
X155059776Y-109285912D01*
X155059776Y-109285912D02*
X154916919Y-109214484D01*
X154916919Y-109214484D02*
X154845490Y-109143055D01*
X154845490Y-109143055D02*
X154774061Y-109000198D01*
X154774061Y-109000198D02*
X154774061Y-108643055D01*
X154774061Y-108643055D02*
X154845490Y-108500198D01*
X154845490Y-108500198D02*
X154916919Y-108428769D01*
X154916919Y-108428769D02*
X155059776Y-108357341D01*
X155059776Y-108357341D02*
X155345490Y-108357341D01*
X155345490Y-108357341D02*
X155488347Y-108428769D01*
X155488347Y-108428769D02*
X155559776Y-108500198D01*
X155559776Y-108500198D02*
X155631204Y-108643055D01*
X154274062Y-107785912D02*
X153274062Y-107785912D01*
X153274062Y-107785912D02*
X153916919Y-109285912D01*
X151631205Y-107928769D02*
X151559777Y-107857341D01*
X151559777Y-107857341D02*
X151416920Y-107785912D01*
X151416920Y-107785912D02*
X151059777Y-107785912D01*
X151059777Y-107785912D02*
X150916920Y-107857341D01*
X150916920Y-107857341D02*
X150845491Y-107928769D01*
X150845491Y-107928769D02*
X150774062Y-108071626D01*
X150774062Y-108071626D02*
X150774062Y-108214484D01*
X150774062Y-108214484D02*
X150845491Y-108428769D01*
X150845491Y-108428769D02*
X151702634Y-109285912D01*
X151702634Y-109285912D02*
X150774062Y-109285912D01*
X150274063Y-107785912D02*
X149916920Y-109285912D01*
X149916920Y-109285912D02*
X149631206Y-108214484D01*
X149631206Y-108214484D02*
X149345491Y-109285912D01*
X149345491Y-109285912D02*
X148988349Y-107785912D01*
X147345491Y-108857341D02*
X146631206Y-108857341D01*
X147488348Y-109285912D02*
X146988348Y-107785912D01*
X146988348Y-107785912D02*
X146488348Y-109285912D01*
X145988349Y-109285912D02*
X145988349Y-108285912D01*
X145988349Y-108428769D02*
X145916920Y-108357341D01*
X145916920Y-108357341D02*
X145774063Y-108285912D01*
X145774063Y-108285912D02*
X145559777Y-108285912D01*
X145559777Y-108285912D02*
X145416920Y-108357341D01*
X145416920Y-108357341D02*
X145345492Y-108500198D01*
X145345492Y-108500198D02*
X145345492Y-109285912D01*
X145345492Y-108500198D02*
X145274063Y-108357341D01*
X145274063Y-108357341D02*
X145131206Y-108285912D01*
X145131206Y-108285912D02*
X144916920Y-108285912D01*
X144916920Y-108285912D02*
X144774063Y-108357341D01*
X144774063Y-108357341D02*
X144702634Y-108500198D01*
X144702634Y-108500198D02*
X144702634Y-109285912D01*
X143988349Y-108285912D02*
X143988349Y-109785912D01*
X143988349Y-108357341D02*
X143845492Y-108285912D01*
X143845492Y-108285912D02*
X143559777Y-108285912D01*
X143559777Y-108285912D02*
X143416920Y-108357341D01*
X143416920Y-108357341D02*
X143345492Y-108428769D01*
X143345492Y-108428769D02*
X143274063Y-108571626D01*
X143274063Y-108571626D02*
X143274063Y-109000198D01*
X143274063Y-109000198D02*
X143345492Y-109143055D01*
X143345492Y-109143055D02*
X143416920Y-109214484D01*
X143416920Y-109214484D02*
X143559777Y-109285912D01*
X143559777Y-109285912D02*
X143845492Y-109285912D01*
X143845492Y-109285912D02*
X143988349Y-109214484D01*
X142416920Y-109285912D02*
X142559777Y-109214484D01*
X142559777Y-109214484D02*
X142631206Y-109071626D01*
X142631206Y-109071626D02*
X142631206Y-107785912D01*
X141845492Y-109285912D02*
X141845492Y-108285912D01*
X141845492Y-107785912D02*
X141916920Y-107857341D01*
X141916920Y-107857341D02*
X141845492Y-107928769D01*
X141845492Y-107928769D02*
X141774063Y-107857341D01*
X141774063Y-107857341D02*
X141845492Y-107785912D01*
X141845492Y-107785912D02*
X141845492Y-107928769D01*
X141345491Y-108285912D02*
X140774063Y-108285912D01*
X141131206Y-109285912D02*
X141131206Y-108000198D01*
X141131206Y-108000198D02*
X141059777Y-107857341D01*
X141059777Y-107857341D02*
X140916920Y-107785912D01*
X140916920Y-107785912D02*
X140774063Y-107785912D01*
X140274063Y-109285912D02*
X140274063Y-108285912D01*
X140274063Y-107785912D02*
X140345491Y-107857341D01*
X140345491Y-107857341D02*
X140274063Y-107928769D01*
X140274063Y-107928769D02*
X140202634Y-107857341D01*
X140202634Y-107857341D02*
X140274063Y-107785912D01*
X140274063Y-107785912D02*
X140274063Y-107928769D01*
X138988348Y-109214484D02*
X139131205Y-109285912D01*
X139131205Y-109285912D02*
X139416920Y-109285912D01*
X139416920Y-109285912D02*
X139559777Y-109214484D01*
X139559777Y-109214484D02*
X139631205Y-109071626D01*
X139631205Y-109071626D02*
X139631205Y-108500198D01*
X139631205Y-108500198D02*
X139559777Y-108357341D01*
X139559777Y-108357341D02*
X139416920Y-108285912D01*
X139416920Y-108285912D02*
X139131205Y-108285912D01*
X139131205Y-108285912D02*
X138988348Y-108357341D01*
X138988348Y-108357341D02*
X138916920Y-108500198D01*
X138916920Y-108500198D02*
X138916920Y-108643055D01*
X138916920Y-108643055D02*
X139631205Y-108785912D01*
X138274063Y-109285912D02*
X138274063Y-108285912D01*
X138274063Y-108571626D02*
X138202634Y-108428769D01*
X138202634Y-108428769D02*
X138131206Y-108357341D01*
X138131206Y-108357341D02*
X137988348Y-108285912D01*
X137988348Y-108285912D02*
X137845491Y-108285912D01*
X137345492Y-109143055D02*
X137274063Y-109214484D01*
X137274063Y-109214484D02*
X137345492Y-109285912D01*
X137345492Y-109285912D02*
X137416920Y-109214484D01*
X137416920Y-109214484D02*
X137345492Y-109143055D01*
X137345492Y-109143055D02*
X137345492Y-109285912D01*
X161631203Y-110200828D02*
X162345489Y-110200828D01*
X162345489Y-110200828D02*
X162416917Y-110915114D01*
X162416917Y-110915114D02*
X162345489Y-110843685D01*
X162345489Y-110843685D02*
X162202632Y-110772257D01*
X162202632Y-110772257D02*
X161845489Y-110772257D01*
X161845489Y-110772257D02*
X161702632Y-110843685D01*
X161702632Y-110843685D02*
X161631203Y-110915114D01*
X161631203Y-110915114D02*
X161559774Y-111057971D01*
X161559774Y-111057971D02*
X161559774Y-111415114D01*
X161559774Y-111415114D02*
X161631203Y-111557971D01*
X161631203Y-111557971D02*
X161702632Y-111629400D01*
X161702632Y-111629400D02*
X161845489Y-111700828D01*
X161845489Y-111700828D02*
X162202632Y-111700828D01*
X162202632Y-111700828D02*
X162345489Y-111629400D01*
X162345489Y-111629400D02*
X162416917Y-111557971D01*
X159988346Y-110700828D02*
X159416918Y-110700828D01*
X159774061Y-110200828D02*
X159774061Y-111486542D01*
X159774061Y-111486542D02*
X159702632Y-111629400D01*
X159702632Y-111629400D02*
X159559775Y-111700828D01*
X159559775Y-111700828D02*
X159416918Y-111700828D01*
X158702632Y-111700828D02*
X158845489Y-111629400D01*
X158845489Y-111629400D02*
X158916918Y-111557971D01*
X158916918Y-111557971D02*
X158988346Y-111415114D01*
X158988346Y-111415114D02*
X158988346Y-110986542D01*
X158988346Y-110986542D02*
X158916918Y-110843685D01*
X158916918Y-110843685D02*
X158845489Y-110772257D01*
X158845489Y-110772257D02*
X158702632Y-110700828D01*
X158702632Y-110700828D02*
X158488346Y-110700828D01*
X158488346Y-110700828D02*
X158345489Y-110772257D01*
X158345489Y-110772257D02*
X158274061Y-110843685D01*
X158274061Y-110843685D02*
X158202632Y-110986542D01*
X158202632Y-110986542D02*
X158202632Y-111415114D01*
X158202632Y-111415114D02*
X158274061Y-111557971D01*
X158274061Y-111557971D02*
X158345489Y-111629400D01*
X158345489Y-111629400D02*
X158488346Y-111700828D01*
X158488346Y-111700828D02*
X158702632Y-111700828D01*
X155631203Y-111700828D02*
X156488346Y-111700828D01*
X156059775Y-111700828D02*
X156059775Y-110200828D01*
X156059775Y-110200828D02*
X156202632Y-110415114D01*
X156202632Y-110415114D02*
X156345489Y-110557971D01*
X156345489Y-110557971D02*
X156488346Y-110629400D01*
X154274061Y-110200828D02*
X154988347Y-110200828D01*
X154988347Y-110200828D02*
X155059775Y-110915114D01*
X155059775Y-110915114D02*
X154988347Y-110843685D01*
X154988347Y-110843685D02*
X154845490Y-110772257D01*
X154845490Y-110772257D02*
X154488347Y-110772257D01*
X154488347Y-110772257D02*
X154345490Y-110843685D01*
X154345490Y-110843685D02*
X154274061Y-110915114D01*
X154274061Y-110915114D02*
X154202632Y-111057971D01*
X154202632Y-111057971D02*
X154202632Y-111415114D01*
X154202632Y-111415114D02*
X154274061Y-111557971D01*
X154274061Y-111557971D02*
X154345490Y-111629400D01*
X154345490Y-111629400D02*
X154488347Y-111700828D01*
X154488347Y-111700828D02*
X154845490Y-111700828D01*
X154845490Y-111700828D02*
X154988347Y-111629400D01*
X154988347Y-111629400D02*
X155059775Y-111557971D01*
X153774061Y-110200828D02*
X153274061Y-111700828D01*
X153274061Y-111700828D02*
X152774061Y-110200828D01*
X151131205Y-111700828D02*
X151131205Y-110200828D01*
X151131205Y-110200828D02*
X150774062Y-110200828D01*
X150774062Y-110200828D02*
X150559776Y-110272257D01*
X150559776Y-110272257D02*
X150416919Y-110415114D01*
X150416919Y-110415114D02*
X150345490Y-110557971D01*
X150345490Y-110557971D02*
X150274062Y-110843685D01*
X150274062Y-110843685D02*
X150274062Y-111057971D01*
X150274062Y-111057971D02*
X150345490Y-111343685D01*
X150345490Y-111343685D02*
X150416919Y-111486542D01*
X150416919Y-111486542D02*
X150559776Y-111629400D01*
X150559776Y-111629400D02*
X150774062Y-111700828D01*
X150774062Y-111700828D02*
X151131205Y-111700828D01*
X148774062Y-111557971D02*
X148845490Y-111629400D01*
X148845490Y-111629400D02*
X149059776Y-111700828D01*
X149059776Y-111700828D02*
X149202633Y-111700828D01*
X149202633Y-111700828D02*
X149416919Y-111629400D01*
X149416919Y-111629400D02*
X149559776Y-111486542D01*
X149559776Y-111486542D02*
X149631205Y-111343685D01*
X149631205Y-111343685D02*
X149702633Y-111057971D01*
X149702633Y-111057971D02*
X149702633Y-110843685D01*
X149702633Y-110843685D02*
X149631205Y-110557971D01*
X149631205Y-110557971D02*
X149559776Y-110415114D01*
X149559776Y-110415114D02*
X149416919Y-110272257D01*
X149416919Y-110272257D02*
X149202633Y-110200828D01*
X149202633Y-110200828D02*
X149059776Y-110200828D01*
X149059776Y-110200828D02*
X148845490Y-110272257D01*
X148845490Y-110272257D02*
X148774062Y-110343685D01*
X147059776Y-111629400D02*
X146916919Y-111700828D01*
X146916919Y-111700828D02*
X146631205Y-111700828D01*
X146631205Y-111700828D02*
X146488348Y-111629400D01*
X146488348Y-111629400D02*
X146416919Y-111486542D01*
X146416919Y-111486542D02*
X146416919Y-111415114D01*
X146416919Y-111415114D02*
X146488348Y-111272257D01*
X146488348Y-111272257D02*
X146631205Y-111200828D01*
X146631205Y-111200828D02*
X146845491Y-111200828D01*
X146845491Y-111200828D02*
X146988348Y-111129400D01*
X146988348Y-111129400D02*
X147059776Y-110986542D01*
X147059776Y-110986542D02*
X147059776Y-110915114D01*
X147059776Y-110915114D02*
X146988348Y-110772257D01*
X146988348Y-110772257D02*
X146845491Y-110700828D01*
X146845491Y-110700828D02*
X146631205Y-110700828D01*
X146631205Y-110700828D02*
X146488348Y-110772257D01*
X145131205Y-110700828D02*
X145131205Y-111700828D01*
X145774062Y-110700828D02*
X145774062Y-111486542D01*
X145774062Y-111486542D02*
X145702633Y-111629400D01*
X145702633Y-111629400D02*
X145559776Y-111700828D01*
X145559776Y-111700828D02*
X145345490Y-111700828D01*
X145345490Y-111700828D02*
X145202633Y-111629400D01*
X145202633Y-111629400D02*
X145131205Y-111557971D01*
X144416919Y-110700828D02*
X144416919Y-112200828D01*
X144416919Y-110772257D02*
X144274062Y-110700828D01*
X144274062Y-110700828D02*
X143988347Y-110700828D01*
X143988347Y-110700828D02*
X143845490Y-110772257D01*
X143845490Y-110772257D02*
X143774062Y-110843685D01*
X143774062Y-110843685D02*
X143702633Y-110986542D01*
X143702633Y-110986542D02*
X143702633Y-111415114D01*
X143702633Y-111415114D02*
X143774062Y-111557971D01*
X143774062Y-111557971D02*
X143845490Y-111629400D01*
X143845490Y-111629400D02*
X143988347Y-111700828D01*
X143988347Y-111700828D02*
X144274062Y-111700828D01*
X144274062Y-111700828D02*
X144416919Y-111629400D01*
X143059776Y-110700828D02*
X143059776Y-112200828D01*
X143059776Y-110772257D02*
X142916919Y-110700828D01*
X142916919Y-110700828D02*
X142631204Y-110700828D01*
X142631204Y-110700828D02*
X142488347Y-110772257D01*
X142488347Y-110772257D02*
X142416919Y-110843685D01*
X142416919Y-110843685D02*
X142345490Y-110986542D01*
X142345490Y-110986542D02*
X142345490Y-111415114D01*
X142345490Y-111415114D02*
X142416919Y-111557971D01*
X142416919Y-111557971D02*
X142488347Y-111629400D01*
X142488347Y-111629400D02*
X142631204Y-111700828D01*
X142631204Y-111700828D02*
X142916919Y-111700828D01*
X142916919Y-111700828D02*
X143059776Y-111629400D01*
X141488347Y-111700828D02*
X141631204Y-111629400D01*
X141631204Y-111629400D02*
X141702633Y-111486542D01*
X141702633Y-111486542D02*
X141702633Y-110200828D01*
X141059776Y-110700828D02*
X140702633Y-111700828D01*
X140345490Y-110700828D02*
X140702633Y-111700828D01*
X140702633Y-111700828D02*
X140845490Y-112057971D01*
X140845490Y-112057971D02*
X140916919Y-112129400D01*
X140916919Y-112129400D02*
X141059776Y-112200828D01*
X139774062Y-111557971D02*
X139702633Y-111629400D01*
X139702633Y-111629400D02*
X139774062Y-111700828D01*
X139774062Y-111700828D02*
X139845490Y-111629400D01*
X139845490Y-111629400D02*
X139774062Y-111557971D01*
X139774062Y-111557971D02*
X139774062Y-111700828D01*
M02*
