%TF.GenerationSoftware,KiCad,Pcbnew,9.0.4*%
%TF.CreationDate,2025-08-28T09:55:45+02:00*%
%TF.ProjectId,TDA7267,54444137-3236-4372-9e6b-696361645f70,rev?*%
%TF.SameCoordinates,Original*%
%TF.FileFunction,Legend,Top*%
%TF.FilePolarity,Positive*%
%FSLAX46Y46*%
G04 Gerber Fmt 4.6, Leading zero omitted, Abs format (unit mm)*
G04 Created by KiCad (PCBNEW 9.0.4) date 2025-08-28 09:55:45*
%MOMM*%
%LPD*%
G01*
G04 APERTURE LIST*
%ADD10C,0.400000*%
%ADD11C,0.150000*%
%ADD12C,0.120000*%
G04 APERTURE END LIST*
D10*
X135953633Y-79734438D02*
X137096490Y-79734438D01*
X136525061Y-81734438D02*
X136525061Y-79734438D01*
X137763157Y-81734438D02*
X137763157Y-79734438D01*
X137763157Y-79734438D02*
X138239347Y-79734438D01*
X138239347Y-79734438D02*
X138525062Y-79829676D01*
X138525062Y-79829676D02*
X138715538Y-80020152D01*
X138715538Y-80020152D02*
X138810776Y-80210628D01*
X138810776Y-80210628D02*
X138906014Y-80591580D01*
X138906014Y-80591580D02*
X138906014Y-80877295D01*
X138906014Y-80877295D02*
X138810776Y-81258247D01*
X138810776Y-81258247D02*
X138715538Y-81448723D01*
X138715538Y-81448723D02*
X138525062Y-81639200D01*
X138525062Y-81639200D02*
X138239347Y-81734438D01*
X138239347Y-81734438D02*
X137763157Y-81734438D01*
X139667919Y-81163009D02*
X140620300Y-81163009D01*
X139477443Y-81734438D02*
X140144109Y-79734438D01*
X140144109Y-79734438D02*
X140810776Y-81734438D01*
X141286967Y-79734438D02*
X142620300Y-79734438D01*
X142620300Y-79734438D02*
X141763157Y-81734438D01*
X143286967Y-79924914D02*
X143382205Y-79829676D01*
X143382205Y-79829676D02*
X143572681Y-79734438D01*
X143572681Y-79734438D02*
X144048872Y-79734438D01*
X144048872Y-79734438D02*
X144239348Y-79829676D01*
X144239348Y-79829676D02*
X144334586Y-79924914D01*
X144334586Y-79924914D02*
X144429824Y-80115390D01*
X144429824Y-80115390D02*
X144429824Y-80305866D01*
X144429824Y-80305866D02*
X144334586Y-80591580D01*
X144334586Y-80591580D02*
X143191729Y-81734438D01*
X143191729Y-81734438D02*
X144429824Y-81734438D01*
X146144110Y-79734438D02*
X145763157Y-79734438D01*
X145763157Y-79734438D02*
X145572681Y-79829676D01*
X145572681Y-79829676D02*
X145477443Y-79924914D01*
X145477443Y-79924914D02*
X145286967Y-80210628D01*
X145286967Y-80210628D02*
X145191729Y-80591580D01*
X145191729Y-80591580D02*
X145191729Y-81353485D01*
X145191729Y-81353485D02*
X145286967Y-81543961D01*
X145286967Y-81543961D02*
X145382205Y-81639200D01*
X145382205Y-81639200D02*
X145572681Y-81734438D01*
X145572681Y-81734438D02*
X145953634Y-81734438D01*
X145953634Y-81734438D02*
X146144110Y-81639200D01*
X146144110Y-81639200D02*
X146239348Y-81543961D01*
X146239348Y-81543961D02*
X146334586Y-81353485D01*
X146334586Y-81353485D02*
X146334586Y-80877295D01*
X146334586Y-80877295D02*
X146239348Y-80686819D01*
X146239348Y-80686819D02*
X146144110Y-80591580D01*
X146144110Y-80591580D02*
X145953634Y-80496342D01*
X145953634Y-80496342D02*
X145572681Y-80496342D01*
X145572681Y-80496342D02*
X145382205Y-80591580D01*
X145382205Y-80591580D02*
X145286967Y-80686819D01*
X145286967Y-80686819D02*
X145191729Y-80877295D01*
X147001253Y-79734438D02*
X148334586Y-79734438D01*
X148334586Y-79734438D02*
X147477443Y-81734438D01*
D11*
X139359580Y-99166666D02*
X139407200Y-99214285D01*
X139407200Y-99214285D02*
X139454819Y-99357142D01*
X139454819Y-99357142D02*
X139454819Y-99452380D01*
X139454819Y-99452380D02*
X139407200Y-99595237D01*
X139407200Y-99595237D02*
X139311961Y-99690475D01*
X139311961Y-99690475D02*
X139216723Y-99738094D01*
X139216723Y-99738094D02*
X139026247Y-99785713D01*
X139026247Y-99785713D02*
X138883390Y-99785713D01*
X138883390Y-99785713D02*
X138692914Y-99738094D01*
X138692914Y-99738094D02*
X138597676Y-99690475D01*
X138597676Y-99690475D02*
X138502438Y-99595237D01*
X138502438Y-99595237D02*
X138454819Y-99452380D01*
X138454819Y-99452380D02*
X138454819Y-99357142D01*
X138454819Y-99357142D02*
X138502438Y-99214285D01*
X138502438Y-99214285D02*
X138550057Y-99166666D01*
X138454819Y-98833332D02*
X138454819Y-98214285D01*
X138454819Y-98214285D02*
X138835771Y-98547618D01*
X138835771Y-98547618D02*
X138835771Y-98404761D01*
X138835771Y-98404761D02*
X138883390Y-98309523D01*
X138883390Y-98309523D02*
X138931009Y-98261904D01*
X138931009Y-98261904D02*
X139026247Y-98214285D01*
X139026247Y-98214285D02*
X139264342Y-98214285D01*
X139264342Y-98214285D02*
X139359580Y-98261904D01*
X139359580Y-98261904D02*
X139407200Y-98309523D01*
X139407200Y-98309523D02*
X139454819Y-98404761D01*
X139454819Y-98404761D02*
X139454819Y-98690475D01*
X139454819Y-98690475D02*
X139407200Y-98785713D01*
X139407200Y-98785713D02*
X139359580Y-98833332D01*
X161790000Y-110374819D02*
X161790000Y-109374819D01*
X162266190Y-110374819D02*
X162266190Y-109374819D01*
X162266190Y-109374819D02*
X162837618Y-110374819D01*
X162837618Y-110374819D02*
X162837618Y-109374819D01*
X163837618Y-110374819D02*
X163266190Y-110374819D01*
X163551904Y-110374819D02*
X163551904Y-109374819D01*
X163551904Y-109374819D02*
X163456666Y-109517676D01*
X163456666Y-109517676D02*
X163361428Y-109612914D01*
X163361428Y-109612914D02*
X163266190Y-109660533D01*
X144584819Y-99356666D02*
X144108628Y-99689999D01*
X144584819Y-99928094D02*
X143584819Y-99928094D01*
X143584819Y-99928094D02*
X143584819Y-99547142D01*
X143584819Y-99547142D02*
X143632438Y-99451904D01*
X143632438Y-99451904D02*
X143680057Y-99404285D01*
X143680057Y-99404285D02*
X143775295Y-99356666D01*
X143775295Y-99356666D02*
X143918152Y-99356666D01*
X143918152Y-99356666D02*
X144013390Y-99404285D01*
X144013390Y-99404285D02*
X144061009Y-99451904D01*
X144061009Y-99451904D02*
X144108628Y-99547142D01*
X144108628Y-99547142D02*
X144108628Y-99928094D01*
X144584819Y-98404285D02*
X144584819Y-98975713D01*
X144584819Y-98689999D02*
X143584819Y-98689999D01*
X143584819Y-98689999D02*
X143727676Y-98785237D01*
X143727676Y-98785237D02*
X143822914Y-98880475D01*
X143822914Y-98880475D02*
X143870533Y-98975713D01*
X132991905Y-92954819D02*
X132991905Y-91954819D01*
X132991905Y-91954819D02*
X133230000Y-91954819D01*
X133230000Y-91954819D02*
X133372857Y-92002438D01*
X133372857Y-92002438D02*
X133468095Y-92097676D01*
X133468095Y-92097676D02*
X133515714Y-92192914D01*
X133515714Y-92192914D02*
X133563333Y-92383390D01*
X133563333Y-92383390D02*
X133563333Y-92526247D01*
X133563333Y-92526247D02*
X133515714Y-92716723D01*
X133515714Y-92716723D02*
X133468095Y-92811961D01*
X133468095Y-92811961D02*
X133372857Y-92907200D01*
X133372857Y-92907200D02*
X133230000Y-92954819D01*
X133230000Y-92954819D02*
X132991905Y-92954819D01*
X134515714Y-92954819D02*
X133944286Y-92954819D01*
X134230000Y-92954819D02*
X134230000Y-91954819D01*
X134230000Y-91954819D02*
X134134762Y-92097676D01*
X134134762Y-92097676D02*
X134039524Y-92192914D01*
X134039524Y-92192914D02*
X133944286Y-92240533D01*
X155773809Y-85454819D02*
X155964285Y-85454819D01*
X155964285Y-85454819D02*
X156059523Y-85502438D01*
X156059523Y-85502438D02*
X156154761Y-85597676D01*
X156154761Y-85597676D02*
X156202380Y-85788152D01*
X156202380Y-85788152D02*
X156202380Y-86121485D01*
X156202380Y-86121485D02*
X156154761Y-86311961D01*
X156154761Y-86311961D02*
X156059523Y-86407200D01*
X156059523Y-86407200D02*
X155964285Y-86454819D01*
X155964285Y-86454819D02*
X155773809Y-86454819D01*
X155773809Y-86454819D02*
X155678571Y-86407200D01*
X155678571Y-86407200D02*
X155583333Y-86311961D01*
X155583333Y-86311961D02*
X155535714Y-86121485D01*
X155535714Y-86121485D02*
X155535714Y-85788152D01*
X155535714Y-85788152D02*
X155583333Y-85597676D01*
X155583333Y-85597676D02*
X155678571Y-85502438D01*
X155678571Y-85502438D02*
X155773809Y-85454819D01*
X156630952Y-85454819D02*
X156630952Y-86264342D01*
X156630952Y-86264342D02*
X156678571Y-86359580D01*
X156678571Y-86359580D02*
X156726190Y-86407200D01*
X156726190Y-86407200D02*
X156821428Y-86454819D01*
X156821428Y-86454819D02*
X157011904Y-86454819D01*
X157011904Y-86454819D02*
X157107142Y-86407200D01*
X157107142Y-86407200D02*
X157154761Y-86359580D01*
X157154761Y-86359580D02*
X157202380Y-86264342D01*
X157202380Y-86264342D02*
X157202380Y-85454819D01*
X157535714Y-85454819D02*
X158107142Y-85454819D01*
X157821428Y-86454819D02*
X157821428Y-85454819D01*
X158964285Y-86454819D02*
X158392857Y-86454819D01*
X158678571Y-86454819D02*
X158678571Y-85454819D01*
X158678571Y-85454819D02*
X158583333Y-85597676D01*
X158583333Y-85597676D02*
X158488095Y-85692914D01*
X158488095Y-85692914D02*
X158392857Y-85740533D01*
X143833333Y-93359580D02*
X143785714Y-93407200D01*
X143785714Y-93407200D02*
X143642857Y-93454819D01*
X143642857Y-93454819D02*
X143547619Y-93454819D01*
X143547619Y-93454819D02*
X143404762Y-93407200D01*
X143404762Y-93407200D02*
X143309524Y-93311961D01*
X143309524Y-93311961D02*
X143261905Y-93216723D01*
X143261905Y-93216723D02*
X143214286Y-93026247D01*
X143214286Y-93026247D02*
X143214286Y-92883390D01*
X143214286Y-92883390D02*
X143261905Y-92692914D01*
X143261905Y-92692914D02*
X143309524Y-92597676D01*
X143309524Y-92597676D02*
X143404762Y-92502438D01*
X143404762Y-92502438D02*
X143547619Y-92454819D01*
X143547619Y-92454819D02*
X143642857Y-92454819D01*
X143642857Y-92454819D02*
X143785714Y-92502438D01*
X143785714Y-92502438D02*
X143833333Y-92550057D01*
X144738095Y-92454819D02*
X144261905Y-92454819D01*
X144261905Y-92454819D02*
X144214286Y-92931009D01*
X144214286Y-92931009D02*
X144261905Y-92883390D01*
X144261905Y-92883390D02*
X144357143Y-92835771D01*
X144357143Y-92835771D02*
X144595238Y-92835771D01*
X144595238Y-92835771D02*
X144690476Y-92883390D01*
X144690476Y-92883390D02*
X144738095Y-92931009D01*
X144738095Y-92931009D02*
X144785714Y-93026247D01*
X144785714Y-93026247D02*
X144785714Y-93264342D01*
X144785714Y-93264342D02*
X144738095Y-93359580D01*
X144738095Y-93359580D02*
X144690476Y-93407200D01*
X144690476Y-93407200D02*
X144595238Y-93454819D01*
X144595238Y-93454819D02*
X144357143Y-93454819D01*
X144357143Y-93454819D02*
X144261905Y-93407200D01*
X144261905Y-93407200D02*
X144214286Y-93359580D01*
X152833333Y-103359580D02*
X152785714Y-103407200D01*
X152785714Y-103407200D02*
X152642857Y-103454819D01*
X152642857Y-103454819D02*
X152547619Y-103454819D01*
X152547619Y-103454819D02*
X152404762Y-103407200D01*
X152404762Y-103407200D02*
X152309524Y-103311961D01*
X152309524Y-103311961D02*
X152261905Y-103216723D01*
X152261905Y-103216723D02*
X152214286Y-103026247D01*
X152214286Y-103026247D02*
X152214286Y-102883390D01*
X152214286Y-102883390D02*
X152261905Y-102692914D01*
X152261905Y-102692914D02*
X152309524Y-102597676D01*
X152309524Y-102597676D02*
X152404762Y-102502438D01*
X152404762Y-102502438D02*
X152547619Y-102454819D01*
X152547619Y-102454819D02*
X152642857Y-102454819D01*
X152642857Y-102454819D02*
X152785714Y-102502438D01*
X152785714Y-102502438D02*
X152833333Y-102550057D01*
X153785714Y-103454819D02*
X153214286Y-103454819D01*
X153500000Y-103454819D02*
X153500000Y-102454819D01*
X153500000Y-102454819D02*
X153404762Y-102597676D01*
X153404762Y-102597676D02*
X153309524Y-102692914D01*
X153309524Y-102692914D02*
X153214286Y-102740533D01*
X160738095Y-93324819D02*
X160738095Y-94134342D01*
X160738095Y-94134342D02*
X160785714Y-94229580D01*
X160785714Y-94229580D02*
X160833333Y-94277200D01*
X160833333Y-94277200D02*
X160928571Y-94324819D01*
X160928571Y-94324819D02*
X161119047Y-94324819D01*
X161119047Y-94324819D02*
X161214285Y-94277200D01*
X161214285Y-94277200D02*
X161261904Y-94229580D01*
X161261904Y-94229580D02*
X161309523Y-94134342D01*
X161309523Y-94134342D02*
X161309523Y-93324819D01*
X162309523Y-94324819D02*
X161738095Y-94324819D01*
X162023809Y-94324819D02*
X162023809Y-93324819D01*
X162023809Y-93324819D02*
X161928571Y-93467676D01*
X161928571Y-93467676D02*
X161833333Y-93562914D01*
X161833333Y-93562914D02*
X161738095Y-93610533D01*
X142833333Y-87954819D02*
X142500000Y-87478628D01*
X142261905Y-87954819D02*
X142261905Y-86954819D01*
X142261905Y-86954819D02*
X142642857Y-86954819D01*
X142642857Y-86954819D02*
X142738095Y-87002438D01*
X142738095Y-87002438D02*
X142785714Y-87050057D01*
X142785714Y-87050057D02*
X142833333Y-87145295D01*
X142833333Y-87145295D02*
X142833333Y-87288152D01*
X142833333Y-87288152D02*
X142785714Y-87383390D01*
X142785714Y-87383390D02*
X142738095Y-87431009D01*
X142738095Y-87431009D02*
X142642857Y-87478628D01*
X142642857Y-87478628D02*
X142261905Y-87478628D01*
X143214286Y-87050057D02*
X143261905Y-87002438D01*
X143261905Y-87002438D02*
X143357143Y-86954819D01*
X143357143Y-86954819D02*
X143595238Y-86954819D01*
X143595238Y-86954819D02*
X143690476Y-87002438D01*
X143690476Y-87002438D02*
X143738095Y-87050057D01*
X143738095Y-87050057D02*
X143785714Y-87145295D01*
X143785714Y-87145295D02*
X143785714Y-87240533D01*
X143785714Y-87240533D02*
X143738095Y-87383390D01*
X143738095Y-87383390D02*
X143166667Y-87954819D01*
X143166667Y-87954819D02*
X143785714Y-87954819D01*
X130590476Y-111554819D02*
X130923809Y-112554819D01*
X130923809Y-112554819D02*
X131257142Y-111554819D01*
X132161904Y-112459580D02*
X132114285Y-112507200D01*
X132114285Y-112507200D02*
X131971428Y-112554819D01*
X131971428Y-112554819D02*
X131876190Y-112554819D01*
X131876190Y-112554819D02*
X131733333Y-112507200D01*
X131733333Y-112507200D02*
X131638095Y-112411961D01*
X131638095Y-112411961D02*
X131590476Y-112316723D01*
X131590476Y-112316723D02*
X131542857Y-112126247D01*
X131542857Y-112126247D02*
X131542857Y-111983390D01*
X131542857Y-111983390D02*
X131590476Y-111792914D01*
X131590476Y-111792914D02*
X131638095Y-111697676D01*
X131638095Y-111697676D02*
X131733333Y-111602438D01*
X131733333Y-111602438D02*
X131876190Y-111554819D01*
X131876190Y-111554819D02*
X131971428Y-111554819D01*
X131971428Y-111554819D02*
X132114285Y-111602438D01*
X132114285Y-111602438D02*
X132161904Y-111650057D01*
X133161904Y-112459580D02*
X133114285Y-112507200D01*
X133114285Y-112507200D02*
X132971428Y-112554819D01*
X132971428Y-112554819D02*
X132876190Y-112554819D01*
X132876190Y-112554819D02*
X132733333Y-112507200D01*
X132733333Y-112507200D02*
X132638095Y-112411961D01*
X132638095Y-112411961D02*
X132590476Y-112316723D01*
X132590476Y-112316723D02*
X132542857Y-112126247D01*
X132542857Y-112126247D02*
X132542857Y-111983390D01*
X132542857Y-111983390D02*
X132590476Y-111792914D01*
X132590476Y-111792914D02*
X132638095Y-111697676D01*
X132638095Y-111697676D02*
X132733333Y-111602438D01*
X132733333Y-111602438D02*
X132876190Y-111554819D01*
X132876190Y-111554819D02*
X132971428Y-111554819D01*
X132971428Y-111554819D02*
X133114285Y-111602438D01*
X133114285Y-111602438D02*
X133161904Y-111650057D01*
X134114285Y-112554819D02*
X133542857Y-112554819D01*
X133828571Y-112554819D02*
X133828571Y-111554819D01*
X133828571Y-111554819D02*
X133733333Y-111697676D01*
X133733333Y-111697676D02*
X133638095Y-111792914D01*
X133638095Y-111792914D02*
X133542857Y-111840533D01*
X165333333Y-100359580D02*
X165285714Y-100407200D01*
X165285714Y-100407200D02*
X165142857Y-100454819D01*
X165142857Y-100454819D02*
X165047619Y-100454819D01*
X165047619Y-100454819D02*
X164904762Y-100407200D01*
X164904762Y-100407200D02*
X164809524Y-100311961D01*
X164809524Y-100311961D02*
X164761905Y-100216723D01*
X164761905Y-100216723D02*
X164714286Y-100026247D01*
X164714286Y-100026247D02*
X164714286Y-99883390D01*
X164714286Y-99883390D02*
X164761905Y-99692914D01*
X164761905Y-99692914D02*
X164809524Y-99597676D01*
X164809524Y-99597676D02*
X164904762Y-99502438D01*
X164904762Y-99502438D02*
X165047619Y-99454819D01*
X165047619Y-99454819D02*
X165142857Y-99454819D01*
X165142857Y-99454819D02*
X165285714Y-99502438D01*
X165285714Y-99502438D02*
X165333333Y-99550057D01*
X165714286Y-99550057D02*
X165761905Y-99502438D01*
X165761905Y-99502438D02*
X165857143Y-99454819D01*
X165857143Y-99454819D02*
X166095238Y-99454819D01*
X166095238Y-99454819D02*
X166190476Y-99502438D01*
X166190476Y-99502438D02*
X166238095Y-99550057D01*
X166238095Y-99550057D02*
X166285714Y-99645295D01*
X166285714Y-99645295D02*
X166285714Y-99740533D01*
X166285714Y-99740533D02*
X166238095Y-99883390D01*
X166238095Y-99883390D02*
X165666667Y-100454819D01*
X165666667Y-100454819D02*
X166285714Y-100454819D01*
X163333333Y-84359580D02*
X163285714Y-84407200D01*
X163285714Y-84407200D02*
X163142857Y-84454819D01*
X163142857Y-84454819D02*
X163047619Y-84454819D01*
X163047619Y-84454819D02*
X162904762Y-84407200D01*
X162904762Y-84407200D02*
X162809524Y-84311961D01*
X162809524Y-84311961D02*
X162761905Y-84216723D01*
X162761905Y-84216723D02*
X162714286Y-84026247D01*
X162714286Y-84026247D02*
X162714286Y-83883390D01*
X162714286Y-83883390D02*
X162761905Y-83692914D01*
X162761905Y-83692914D02*
X162809524Y-83597676D01*
X162809524Y-83597676D02*
X162904762Y-83502438D01*
X162904762Y-83502438D02*
X163047619Y-83454819D01*
X163047619Y-83454819D02*
X163142857Y-83454819D01*
X163142857Y-83454819D02*
X163285714Y-83502438D01*
X163285714Y-83502438D02*
X163333333Y-83550057D01*
X164190476Y-83454819D02*
X164000000Y-83454819D01*
X164000000Y-83454819D02*
X163904762Y-83502438D01*
X163904762Y-83502438D02*
X163857143Y-83550057D01*
X163857143Y-83550057D02*
X163761905Y-83692914D01*
X163761905Y-83692914D02*
X163714286Y-83883390D01*
X163714286Y-83883390D02*
X163714286Y-84264342D01*
X163714286Y-84264342D02*
X163761905Y-84359580D01*
X163761905Y-84359580D02*
X163809524Y-84407200D01*
X163809524Y-84407200D02*
X163904762Y-84454819D01*
X163904762Y-84454819D02*
X164095238Y-84454819D01*
X164095238Y-84454819D02*
X164190476Y-84407200D01*
X164190476Y-84407200D02*
X164238095Y-84359580D01*
X164238095Y-84359580D02*
X164285714Y-84264342D01*
X164285714Y-84264342D02*
X164285714Y-84026247D01*
X164285714Y-84026247D02*
X164238095Y-83931009D01*
X164238095Y-83931009D02*
X164190476Y-83883390D01*
X164190476Y-83883390D02*
X164095238Y-83835771D01*
X164095238Y-83835771D02*
X163904762Y-83835771D01*
X163904762Y-83835771D02*
X163809524Y-83883390D01*
X163809524Y-83883390D02*
X163761905Y-83931009D01*
X163761905Y-83931009D02*
X163714286Y-84026247D01*
X136883333Y-104959580D02*
X136835714Y-105007200D01*
X136835714Y-105007200D02*
X136692857Y-105054819D01*
X136692857Y-105054819D02*
X136597619Y-105054819D01*
X136597619Y-105054819D02*
X136454762Y-105007200D01*
X136454762Y-105007200D02*
X136359524Y-104911961D01*
X136359524Y-104911961D02*
X136311905Y-104816723D01*
X136311905Y-104816723D02*
X136264286Y-104626247D01*
X136264286Y-104626247D02*
X136264286Y-104483390D01*
X136264286Y-104483390D02*
X136311905Y-104292914D01*
X136311905Y-104292914D02*
X136359524Y-104197676D01*
X136359524Y-104197676D02*
X136454762Y-104102438D01*
X136454762Y-104102438D02*
X136597619Y-104054819D01*
X136597619Y-104054819D02*
X136692857Y-104054819D01*
X136692857Y-104054819D02*
X136835714Y-104102438D01*
X136835714Y-104102438D02*
X136883333Y-104150057D01*
X137740476Y-104388152D02*
X137740476Y-105054819D01*
X137502381Y-104007200D02*
X137264286Y-104721485D01*
X137264286Y-104721485D02*
X137883333Y-104721485D01*
X142504761Y-108154819D02*
X142171428Y-107678628D01*
X141933333Y-108154819D02*
X141933333Y-107154819D01*
X141933333Y-107154819D02*
X142314285Y-107154819D01*
X142314285Y-107154819D02*
X142409523Y-107202438D01*
X142409523Y-107202438D02*
X142457142Y-107250057D01*
X142457142Y-107250057D02*
X142504761Y-107345295D01*
X142504761Y-107345295D02*
X142504761Y-107488152D01*
X142504761Y-107488152D02*
X142457142Y-107583390D01*
X142457142Y-107583390D02*
X142409523Y-107631009D01*
X142409523Y-107631009D02*
X142314285Y-107678628D01*
X142314285Y-107678628D02*
X141933333Y-107678628D01*
X142790476Y-107154819D02*
X143123809Y-108154819D01*
X143123809Y-108154819D02*
X143457142Y-107154819D01*
X144314285Y-108154819D02*
X143742857Y-108154819D01*
X144028571Y-108154819D02*
X144028571Y-107154819D01*
X144028571Y-107154819D02*
X143933333Y-107297676D01*
X143933333Y-107297676D02*
X143838095Y-107392914D01*
X143838095Y-107392914D02*
X143742857Y-107440533D01*
D12*
%TO.C,C3*%
X140130000Y-95880000D02*
X140665000Y-95880000D01*
X140130000Y-102120000D02*
X140130000Y-95880000D01*
X140665000Y-102120000D02*
X140130000Y-102120000D01*
X142335000Y-95880000D02*
X142870000Y-95880000D01*
X142870000Y-95880000D02*
X142870000Y-102120000D01*
X142870000Y-102120000D02*
X142335000Y-102120000D01*
%TO.C,IN1*%
X160420000Y-111190000D02*
X160420000Y-118810000D01*
X160420000Y-118810000D02*
X170580000Y-118810000D01*
X170580000Y-111190000D02*
X160420000Y-111190000D01*
X170580000Y-117540000D02*
X160420000Y-117540000D01*
X170580000Y-118810000D02*
X170580000Y-111190000D01*
%TO.C,R1*%
X145130000Y-95920000D02*
X145460000Y-95920000D01*
X145130000Y-102460000D02*
X145130000Y-95920000D01*
X145460000Y-102460000D02*
X145130000Y-102460000D01*
X147540000Y-102460000D02*
X147870000Y-102460000D01*
X147870000Y-95920000D02*
X147540000Y-95920000D01*
X147870000Y-102460000D02*
X147870000Y-95920000D01*
%TO.C,D1*%
X131170000Y-86955000D02*
X131170000Y-90045000D01*
X131170000Y-86955170D02*
G75*
G02*
X136720000Y-88500000I2560000J-1544830D01*
G01*
X136720000Y-88500000D02*
G75*
G02*
X131170000Y-90044830I-2990000J0D01*
G01*
X136230000Y-88500000D02*
G75*
G02*
X131230000Y-88500000I-2500000J0D01*
G01*
X131230000Y-88500000D02*
G75*
G02*
X136230000Y-88500000I2500000J0D01*
G01*
%TO.C,OUT1*%
X149570000Y-77190000D02*
X149570000Y-84810000D01*
X149570000Y-78460000D02*
X159730000Y-78460000D01*
X149570000Y-84810000D02*
X159730000Y-84810000D01*
X159730000Y-77190000D02*
X149570000Y-77190000D01*
X159730000Y-84810000D02*
X159730000Y-77190000D01*
%TO.C,C5*%
X141380000Y-89130000D02*
X147620000Y-89130000D01*
X141380000Y-89665000D02*
X141380000Y-89130000D01*
X141380000Y-91870000D02*
X141380000Y-91335000D01*
X147620000Y-89130000D02*
X147620000Y-89665000D01*
X147620000Y-91335000D02*
X147620000Y-91870000D01*
X147620000Y-91870000D02*
X141380000Y-91870000D01*
%TO.C,C1*%
X149880000Y-104130000D02*
X156120000Y-104130000D01*
X149880000Y-104665000D02*
X149880000Y-104130000D01*
X149880000Y-106870000D02*
X149880000Y-106335000D01*
X156120000Y-104130000D02*
X156120000Y-104665000D01*
X156120000Y-106335000D02*
X156120000Y-106870000D01*
X156120000Y-106870000D02*
X149880000Y-106870000D01*
%TO.C,U1*%
X152750000Y-88420000D02*
X152750000Y-98700000D01*
X152750000Y-98700000D02*
X157250000Y-98700000D01*
X154000000Y-88420000D02*
X152750000Y-88420000D01*
X157250000Y-88420000D02*
X156000000Y-88420000D01*
X157250000Y-98700000D02*
X157250000Y-88420000D01*
X149750000Y-88360000D02*
X160250000Y-88360000D01*
X160250000Y-98760000D01*
X149750000Y-98760000D01*
X149750000Y-88360000D01*
X156000000Y-88420000D02*
G75*
G02*
X154000000Y-88420000I-1000000J0D01*
G01*
%TO.C,R2*%
X139730000Y-83630000D02*
X146270000Y-83630000D01*
X139730000Y-83960000D02*
X139730000Y-83630000D01*
X139730000Y-86040000D02*
X139730000Y-86370000D01*
X139730000Y-86370000D02*
X146270000Y-86370000D01*
X146270000Y-83630000D02*
X146270000Y-83960000D01*
X146270000Y-86370000D02*
X146270000Y-86040000D01*
%TO.C,VCC1*%
X129880000Y-111190000D02*
X129880000Y-118810000D01*
X129880000Y-118810000D02*
X140040000Y-118810000D01*
X140040000Y-111190000D02*
X129880000Y-111190000D01*
X140040000Y-117540000D02*
X129880000Y-117540000D01*
X140040000Y-118810000D02*
X140040000Y-111190000D01*
%TO.C,C2*%
X157687651Y-101685000D02*
X158487651Y-101685000D01*
X158087651Y-101285000D02*
X158087651Y-102085000D01*
X162097349Y-99920000D02*
X162097349Y-108080000D01*
X162137349Y-99920000D02*
X162137349Y-108080000D01*
X162177349Y-99921000D02*
X162177349Y-108079000D01*
X162217349Y-99922000D02*
X162217349Y-108078000D01*
X162257349Y-99923000D02*
X162257349Y-108077000D01*
X162297349Y-99925000D02*
X162297349Y-108075000D01*
X162337349Y-99927000D02*
X162337349Y-108073000D01*
X162377349Y-99930000D02*
X162377349Y-108070000D01*
X162417349Y-99932000D02*
X162417349Y-108068000D01*
X162457349Y-99936000D02*
X162457349Y-108064000D01*
X162497349Y-99939000D02*
X162497349Y-108061000D01*
X162537349Y-99944000D02*
X162537349Y-108056000D01*
X162577349Y-99948000D02*
X162577349Y-108052000D01*
X162617349Y-99953000D02*
X162617349Y-108047000D01*
X162657349Y-99958000D02*
X162657349Y-108042000D01*
X162697349Y-99964000D02*
X162697349Y-108036000D01*
X162737349Y-99970000D02*
X162737349Y-108030000D01*
X162777349Y-99977000D02*
X162777349Y-108023000D01*
X162817349Y-99983000D02*
X162817349Y-108017000D01*
X162857349Y-99991000D02*
X162857349Y-108009000D01*
X162897349Y-99998000D02*
X162897349Y-108002000D01*
X162937349Y-100007000D02*
X162937349Y-107993000D01*
X162977349Y-100015000D02*
X162977349Y-102960000D01*
X162977349Y-105040000D02*
X162977349Y-107985000D01*
X163017349Y-100024000D02*
X163017349Y-102960000D01*
X163017349Y-105040000D02*
X163017349Y-107976000D01*
X163057349Y-100033000D02*
X163057349Y-102960000D01*
X163057349Y-105040000D02*
X163057349Y-107967000D01*
X163097349Y-100043000D02*
X163097349Y-102960000D01*
X163097349Y-105040000D02*
X163097349Y-107957000D01*
X163137349Y-100053000D02*
X163137349Y-102960000D01*
X163137349Y-105040000D02*
X163137349Y-107947000D01*
X163177349Y-100064000D02*
X163177349Y-102960000D01*
X163177349Y-105040000D02*
X163177349Y-107936000D01*
X163217349Y-100075000D02*
X163217349Y-102960000D01*
X163217349Y-105040000D02*
X163217349Y-107925000D01*
X163257349Y-100087000D02*
X163257349Y-102960000D01*
X163257349Y-105040000D02*
X163257349Y-107913000D01*
X163297349Y-100099000D02*
X163297349Y-102960000D01*
X163297349Y-105040000D02*
X163297349Y-107901000D01*
X163337349Y-100111000D02*
X163337349Y-102960000D01*
X163337349Y-105040000D02*
X163337349Y-107889000D01*
X163377349Y-100124000D02*
X163377349Y-102960000D01*
X163377349Y-105040000D02*
X163377349Y-107876000D01*
X163417349Y-100137000D02*
X163417349Y-102960000D01*
X163417349Y-105040000D02*
X163417349Y-107863000D01*
X163457349Y-100151000D02*
X163457349Y-102960000D01*
X163457349Y-105040000D02*
X163457349Y-107849000D01*
X163497349Y-100165000D02*
X163497349Y-102960000D01*
X163497349Y-105040000D02*
X163497349Y-107835000D01*
X163537349Y-100180000D02*
X163537349Y-102960000D01*
X163537349Y-105040000D02*
X163537349Y-107820000D01*
X163577349Y-100195000D02*
X163577349Y-102960000D01*
X163577349Y-105040000D02*
X163577349Y-107805000D01*
X163617349Y-100211000D02*
X163617349Y-102960000D01*
X163617349Y-105040000D02*
X163617349Y-107789000D01*
X163657349Y-100227000D02*
X163657349Y-102960000D01*
X163657349Y-105040000D02*
X163657349Y-107773000D01*
X163697349Y-100243000D02*
X163697349Y-102960000D01*
X163697349Y-105040000D02*
X163697349Y-107757000D01*
X163737349Y-100260000D02*
X163737349Y-102960000D01*
X163737349Y-105040000D02*
X163737349Y-107740000D01*
X163777349Y-100278000D02*
X163777349Y-102960000D01*
X163777349Y-105040000D02*
X163777349Y-107722000D01*
X163817349Y-100296000D02*
X163817349Y-102960000D01*
X163817349Y-105040000D02*
X163817349Y-107704000D01*
X163857349Y-100315000D02*
X163857349Y-102960000D01*
X163857349Y-105040000D02*
X163857349Y-107685000D01*
X163897349Y-100334000D02*
X163897349Y-102960000D01*
X163897349Y-105040000D02*
X163897349Y-107666000D01*
X163937349Y-100354000D02*
X163937349Y-102960000D01*
X163937349Y-105040000D02*
X163937349Y-107646000D01*
X163977349Y-100374000D02*
X163977349Y-102960000D01*
X163977349Y-105040000D02*
X163977349Y-107626000D01*
X164017349Y-100395000D02*
X164017349Y-102960000D01*
X164017349Y-105040000D02*
X164017349Y-107605000D01*
X164057349Y-100416000D02*
X164057349Y-102960000D01*
X164057349Y-105040000D02*
X164057349Y-107584000D01*
X164097349Y-100438000D02*
X164097349Y-102960000D01*
X164097349Y-105040000D02*
X164097349Y-107562000D01*
X164137349Y-100461000D02*
X164137349Y-102960000D01*
X164137349Y-105040000D02*
X164137349Y-107539000D01*
X164177349Y-100484000D02*
X164177349Y-102960000D01*
X164177349Y-105040000D02*
X164177349Y-107516000D01*
X164217349Y-100507000D02*
X164217349Y-102960000D01*
X164217349Y-105040000D02*
X164217349Y-107493000D01*
X164257349Y-100532000D02*
X164257349Y-102960000D01*
X164257349Y-105040000D02*
X164257349Y-107468000D01*
X164297349Y-100557000D02*
X164297349Y-102960000D01*
X164297349Y-105040000D02*
X164297349Y-107443000D01*
X164337349Y-100582000D02*
X164337349Y-102960000D01*
X164337349Y-105040000D02*
X164337349Y-107418000D01*
X164377349Y-100608000D02*
X164377349Y-102960000D01*
X164377349Y-105040000D02*
X164377349Y-107392000D01*
X164417349Y-100635000D02*
X164417349Y-102960000D01*
X164417349Y-105040000D02*
X164417349Y-107365000D01*
X164457349Y-100663000D02*
X164457349Y-102960000D01*
X164457349Y-105040000D02*
X164457349Y-107337000D01*
X164497349Y-100691000D02*
X164497349Y-102960000D01*
X164497349Y-105040000D02*
X164497349Y-107309000D01*
X164537349Y-100720000D02*
X164537349Y-102960000D01*
X164537349Y-105040000D02*
X164537349Y-107280000D01*
X164577349Y-100750000D02*
X164577349Y-102960000D01*
X164577349Y-105040000D02*
X164577349Y-107250000D01*
X164617349Y-100781000D02*
X164617349Y-102960000D01*
X164617349Y-105040000D02*
X164617349Y-107219000D01*
X164657349Y-100812000D02*
X164657349Y-102960000D01*
X164657349Y-105040000D02*
X164657349Y-107188000D01*
X164697349Y-100844000D02*
X164697349Y-102960000D01*
X164697349Y-105040000D02*
X164697349Y-107156000D01*
X164737349Y-100877000D02*
X164737349Y-102960000D01*
X164737349Y-105040000D02*
X164737349Y-107123000D01*
X164777349Y-100911000D02*
X164777349Y-102960000D01*
X164777349Y-105040000D02*
X164777349Y-107089000D01*
X164817349Y-100945000D02*
X164817349Y-102960000D01*
X164817349Y-105040000D02*
X164817349Y-107055000D01*
X164857349Y-100981000D02*
X164857349Y-102960000D01*
X164857349Y-105040000D02*
X164857349Y-107019000D01*
X164897349Y-101018000D02*
X164897349Y-102960000D01*
X164897349Y-105040000D02*
X164897349Y-106982000D01*
X164937349Y-101055000D02*
X164937349Y-102960000D01*
X164937349Y-105040000D02*
X164937349Y-106945000D01*
X164977349Y-101094000D02*
X164977349Y-102960000D01*
X164977349Y-105040000D02*
X164977349Y-106906000D01*
X165017349Y-101133000D02*
X165017349Y-102960000D01*
X165017349Y-105040000D02*
X165017349Y-106867000D01*
X165057349Y-101174000D02*
X165057349Y-106826000D01*
X165097349Y-101216000D02*
X165097349Y-106784000D01*
X165137349Y-101259000D02*
X165137349Y-106741000D01*
X165177349Y-101304000D02*
X165177349Y-106696000D01*
X165217349Y-101349000D02*
X165217349Y-106651000D01*
X165257349Y-101396000D02*
X165257349Y-106604000D01*
X165297349Y-101445000D02*
X165297349Y-106555000D01*
X165337349Y-101495000D02*
X165337349Y-106505000D01*
X165377349Y-101547000D02*
X165377349Y-106453000D01*
X165417349Y-101600000D02*
X165417349Y-106400000D01*
X165457349Y-101656000D02*
X165457349Y-106344000D01*
X165497349Y-101713000D02*
X165497349Y-106287000D01*
X165537349Y-101773000D02*
X165537349Y-106227000D01*
X165577349Y-101835000D02*
X165577349Y-106165000D01*
X165617349Y-101899000D02*
X165617349Y-106101000D01*
X165657349Y-101966000D02*
X165657349Y-106034000D01*
X165697349Y-102036000D02*
X165697349Y-105964000D01*
X165737349Y-102110000D02*
X165737349Y-105890000D01*
X165777349Y-102187000D02*
X165777349Y-105813000D01*
X165817349Y-102269000D02*
X165817349Y-105731000D01*
X165857349Y-102356000D02*
X165857349Y-105644000D01*
X165897349Y-102448000D02*
X165897349Y-105552000D01*
X165937349Y-102547000D02*
X165937349Y-105453000D01*
X165977349Y-102654000D02*
X165977349Y-105346000D01*
X166017349Y-102772000D02*
X166017349Y-105228000D01*
X166057349Y-102903000D02*
X166057349Y-105097000D01*
X166097349Y-103053000D02*
X166097349Y-104947000D01*
X166137349Y-103232000D02*
X166137349Y-104768000D01*
X166177349Y-103467000D02*
X166177349Y-104533000D01*
X166217349Y-104000000D02*
G75*
G02*
X157977349Y-104000000I-4120000J0D01*
G01*
X157977349Y-104000000D02*
G75*
G02*
X166217349Y-104000000I4120000J0D01*
G01*
%TO.C,C6*%
X161152677Y-86625000D02*
X162152677Y-86625000D01*
X161652677Y-86125000D02*
X161652677Y-87125000D01*
X166632323Y-84420000D02*
X166632323Y-94580000D01*
X166672323Y-84420000D02*
X166672323Y-94580000D01*
X166712323Y-84421000D02*
X166712323Y-94579000D01*
X166752323Y-84421000D02*
X166752323Y-94579000D01*
X166792323Y-84423000D02*
X166792323Y-94577000D01*
X166832323Y-84424000D02*
X166832323Y-94576000D01*
X166872323Y-84426000D02*
X166872323Y-94574000D01*
X166912323Y-84428000D02*
X166912323Y-94572000D01*
X166952323Y-84430000D02*
X166952323Y-94570000D01*
X166992323Y-84433000D02*
X166992323Y-94567000D01*
X167032323Y-84436000D02*
X167032323Y-94564000D01*
X167072323Y-84439000D02*
X167072323Y-94561000D01*
X167112323Y-84443000D02*
X167112323Y-94557000D01*
X167152323Y-84446000D02*
X167152323Y-94554000D01*
X167192323Y-84451000D02*
X167192323Y-94549000D01*
X167232323Y-84455000D02*
X167232323Y-94545000D01*
X167272323Y-84460000D02*
X167272323Y-94540000D01*
X167312323Y-84465000D02*
X167312323Y-94535000D01*
X167352323Y-84471000D02*
X167352323Y-94529000D01*
X167392323Y-84477000D02*
X167392323Y-94523000D01*
X167432323Y-84483000D02*
X167432323Y-94517000D01*
X167472323Y-84489000D02*
X167472323Y-94511000D01*
X167512323Y-84496000D02*
X167512323Y-94504000D01*
X167552323Y-84503000D02*
X167552323Y-94497000D01*
X167592323Y-84511000D02*
X167592323Y-94489000D01*
X167632323Y-84519000D02*
X167632323Y-94481000D01*
X167672323Y-84527000D02*
X167672323Y-94473000D01*
X167712323Y-84535000D02*
X167712323Y-94465000D01*
X167752323Y-84544000D02*
X167752323Y-94456000D01*
X167792323Y-84553000D02*
X167792323Y-94447000D01*
X167832323Y-84563000D02*
X167832323Y-94437000D01*
X167872323Y-84572000D02*
X167872323Y-94428000D01*
X167912323Y-84583000D02*
X167912323Y-88260000D01*
X167912323Y-90740000D02*
X167912323Y-94417000D01*
X167952323Y-84593000D02*
X167952323Y-88260000D01*
X167952323Y-90740000D02*
X167952323Y-94407000D01*
X167992323Y-84604000D02*
X167992323Y-88260000D01*
X167992323Y-90740000D02*
X167992323Y-94396000D01*
X168032323Y-84615000D02*
X168032323Y-88260000D01*
X168032323Y-90740000D02*
X168032323Y-94385000D01*
X168072323Y-84627000D02*
X168072323Y-88260000D01*
X168072323Y-90740000D02*
X168072323Y-94373000D01*
X168112323Y-84639000D02*
X168112323Y-88260000D01*
X168112323Y-90740000D02*
X168112323Y-94361000D01*
X168152323Y-84651000D02*
X168152323Y-88260000D01*
X168152323Y-90740000D02*
X168152323Y-94349000D01*
X168192323Y-84663000D02*
X168192323Y-88260000D01*
X168192323Y-90740000D02*
X168192323Y-94337000D01*
X168232323Y-84676000D02*
X168232323Y-88260000D01*
X168232323Y-90740000D02*
X168232323Y-94324000D01*
X168272323Y-84690000D02*
X168272323Y-88260000D01*
X168272323Y-90740000D02*
X168272323Y-94310000D01*
X168312323Y-84703000D02*
X168312323Y-88260000D01*
X168312323Y-90740000D02*
X168312323Y-94297000D01*
X168352323Y-84718000D02*
X168352323Y-88260000D01*
X168352323Y-90740000D02*
X168352323Y-94282000D01*
X168392323Y-84732000D02*
X168392323Y-88260000D01*
X168392323Y-90740000D02*
X168392323Y-94268000D01*
X168432323Y-84747000D02*
X168432323Y-88260000D01*
X168432323Y-90740000D02*
X168432323Y-94253000D01*
X168472323Y-84762000D02*
X168472323Y-88260000D01*
X168472323Y-90740000D02*
X168472323Y-94238000D01*
X168512323Y-84778000D02*
X168512323Y-88260000D01*
X168512323Y-90740000D02*
X168512323Y-94222000D01*
X168552323Y-84794000D02*
X168552323Y-88260000D01*
X168552323Y-90740000D02*
X168552323Y-94206000D01*
X168592323Y-84810000D02*
X168592323Y-88260000D01*
X168592323Y-90740000D02*
X168592323Y-94190000D01*
X168632323Y-84827000D02*
X168632323Y-88260000D01*
X168632323Y-90740000D02*
X168632323Y-94173000D01*
X168672323Y-84844000D02*
X168672323Y-88260000D01*
X168672323Y-90740000D02*
X168672323Y-94156000D01*
X168712323Y-84862000D02*
X168712323Y-88260000D01*
X168712323Y-90740000D02*
X168712323Y-94138000D01*
X168752323Y-84880000D02*
X168752323Y-88260000D01*
X168752323Y-90740000D02*
X168752323Y-94120000D01*
X168792323Y-84898000D02*
X168792323Y-88260000D01*
X168792323Y-90740000D02*
X168792323Y-94102000D01*
X168832323Y-84917000D02*
X168832323Y-88260000D01*
X168832323Y-90740000D02*
X168832323Y-94083000D01*
X168872323Y-84936000D02*
X168872323Y-88260000D01*
X168872323Y-90740000D02*
X168872323Y-94064000D01*
X168912323Y-84956000D02*
X168912323Y-88260000D01*
X168912323Y-90740000D02*
X168912323Y-94044000D01*
X168952323Y-84976000D02*
X168952323Y-88260000D01*
X168952323Y-90740000D02*
X168952323Y-94024000D01*
X168992323Y-84996000D02*
X168992323Y-88260000D01*
X168992323Y-90740000D02*
X168992323Y-94004000D01*
X169032323Y-85017000D02*
X169032323Y-88260000D01*
X169032323Y-90740000D02*
X169032323Y-93983000D01*
X169072323Y-85039000D02*
X169072323Y-88260000D01*
X169072323Y-90740000D02*
X169072323Y-93961000D01*
X169112323Y-85061000D02*
X169112323Y-88260000D01*
X169112323Y-90740000D02*
X169112323Y-93939000D01*
X169152323Y-85083000D02*
X169152323Y-88260000D01*
X169152323Y-90740000D02*
X169152323Y-93917000D01*
X169192323Y-85106000D02*
X169192323Y-88260000D01*
X169192323Y-90740000D02*
X169192323Y-93894000D01*
X169232323Y-85129000D02*
X169232323Y-88260000D01*
X169232323Y-90740000D02*
X169232323Y-93871000D01*
X169272323Y-85153000D02*
X169272323Y-88260000D01*
X169272323Y-90740000D02*
X169272323Y-93847000D01*
X169312323Y-85177000D02*
X169312323Y-88260000D01*
X169312323Y-90740000D02*
X169312323Y-93823000D01*
X169352323Y-85202000D02*
X169352323Y-88260000D01*
X169352323Y-90740000D02*
X169352323Y-93798000D01*
X169392323Y-85228000D02*
X169392323Y-88260000D01*
X169392323Y-90740000D02*
X169392323Y-93772000D01*
X169432323Y-85253000D02*
X169432323Y-88260000D01*
X169432323Y-90740000D02*
X169432323Y-93747000D01*
X169472323Y-85280000D02*
X169472323Y-88260000D01*
X169472323Y-90740000D02*
X169472323Y-93720000D01*
X169512323Y-85307000D02*
X169512323Y-88260000D01*
X169512323Y-90740000D02*
X169512323Y-93693000D01*
X169552323Y-85334000D02*
X169552323Y-88260000D01*
X169552323Y-90740000D02*
X169552323Y-93666000D01*
X169592323Y-85362000D02*
X169592323Y-88260000D01*
X169592323Y-90740000D02*
X169592323Y-93638000D01*
X169632323Y-85391000D02*
X169632323Y-88260000D01*
X169632323Y-90740000D02*
X169632323Y-93609000D01*
X169672323Y-85420000D02*
X169672323Y-88260000D01*
X169672323Y-90740000D02*
X169672323Y-93580000D01*
X169712323Y-85450000D02*
X169712323Y-88260000D01*
X169712323Y-90740000D02*
X169712323Y-93550000D01*
X169752323Y-85480000D02*
X169752323Y-88260000D01*
X169752323Y-90740000D02*
X169752323Y-93520000D01*
X169792323Y-85512000D02*
X169792323Y-88260000D01*
X169792323Y-90740000D02*
X169792323Y-93488000D01*
X169832323Y-85543000D02*
X169832323Y-88260000D01*
X169832323Y-90740000D02*
X169832323Y-93457000D01*
X169872323Y-85576000D02*
X169872323Y-88260000D01*
X169872323Y-90740000D02*
X169872323Y-93424000D01*
X169912323Y-85609000D02*
X169912323Y-88260000D01*
X169912323Y-90740000D02*
X169912323Y-93391000D01*
X169952323Y-85642000D02*
X169952323Y-88260000D01*
X169952323Y-90740000D02*
X169952323Y-93358000D01*
X169992323Y-85677000D02*
X169992323Y-88260000D01*
X169992323Y-90740000D02*
X169992323Y-93323000D01*
X170032323Y-85712000D02*
X170032323Y-88260000D01*
X170032323Y-90740000D02*
X170032323Y-93288000D01*
X170072323Y-85748000D02*
X170072323Y-88260000D01*
X170072323Y-90740000D02*
X170072323Y-93252000D01*
X170112323Y-85784000D02*
X170112323Y-88260000D01*
X170112323Y-90740000D02*
X170112323Y-93216000D01*
X170152323Y-85822000D02*
X170152323Y-88260000D01*
X170152323Y-90740000D02*
X170152323Y-93178000D01*
X170192323Y-85860000D02*
X170192323Y-88260000D01*
X170192323Y-90740000D02*
X170192323Y-93140000D01*
X170232323Y-85899000D02*
X170232323Y-88260000D01*
X170232323Y-90740000D02*
X170232323Y-93101000D01*
X170272323Y-85939000D02*
X170272323Y-88260000D01*
X170272323Y-90740000D02*
X170272323Y-93061000D01*
X170312323Y-85980000D02*
X170312323Y-88260000D01*
X170312323Y-90740000D02*
X170312323Y-93020000D01*
X170352323Y-86022000D02*
X170352323Y-88260000D01*
X170352323Y-90740000D02*
X170352323Y-92978000D01*
X170392323Y-86065000D02*
X170392323Y-92935000D01*
X170432323Y-86109000D02*
X170432323Y-92891000D01*
X170472323Y-86153000D02*
X170472323Y-92847000D01*
X170512323Y-86199000D02*
X170512323Y-92801000D01*
X170552323Y-86246000D02*
X170552323Y-92754000D01*
X170592323Y-86295000D02*
X170592323Y-92705000D01*
X170632323Y-86344000D02*
X170632323Y-92656000D01*
X170672323Y-86395000D02*
X170672323Y-92605000D01*
X170712323Y-86447000D02*
X170712323Y-92553000D01*
X170752323Y-86500000D02*
X170752323Y-92500000D01*
X170792323Y-86555000D02*
X170792323Y-92445000D01*
X170832323Y-86612000D02*
X170832323Y-92388000D01*
X170872323Y-86670000D02*
X170872323Y-92330000D01*
X170912323Y-86730000D02*
X170912323Y-92270000D01*
X170952323Y-86792000D02*
X170952323Y-92208000D01*
X170992323Y-86856000D02*
X170992323Y-92144000D01*
X171032323Y-86922000D02*
X171032323Y-92078000D01*
X171072323Y-86990000D02*
X171072323Y-92010000D01*
X171112323Y-87061000D02*
X171112323Y-91939000D01*
X171152323Y-87135000D02*
X171152323Y-91865000D01*
X171192323Y-87212000D02*
X171192323Y-91788000D01*
X171232323Y-87292000D02*
X171232323Y-91708000D01*
X171272323Y-87376000D02*
X171272323Y-91624000D01*
X171312323Y-87463000D02*
X171312323Y-91537000D01*
X171352323Y-87556000D02*
X171352323Y-91444000D01*
X171392323Y-87654000D02*
X171392323Y-91346000D01*
X171432323Y-87758000D02*
X171432323Y-91242000D01*
X171472323Y-87870000D02*
X171472323Y-91130000D01*
X171512323Y-87991000D02*
X171512323Y-91009000D01*
X171552323Y-88123000D02*
X171552323Y-90877000D01*
X171592323Y-88270000D02*
X171592323Y-90730000D01*
X171632323Y-88438000D02*
X171632323Y-90562000D01*
X171672323Y-88638000D02*
X171672323Y-90362000D01*
X171712323Y-88901000D02*
X171712323Y-90099000D01*
X171752323Y-89500000D02*
G75*
G02*
X161512323Y-89500000I-5120000J0D01*
G01*
X161512323Y-89500000D02*
G75*
G02*
X171752323Y-89500000I5120000J0D01*
G01*
%TO.C,C4*%
X129520000Y-100933000D02*
X129520000Y-99867000D01*
X129560000Y-101168000D02*
X129560000Y-99632000D01*
X129600000Y-101347000D02*
X129600000Y-99453000D01*
X129640000Y-101497000D02*
X129640000Y-99303000D01*
X129680000Y-101628000D02*
X129680000Y-99172000D01*
X129720000Y-101746000D02*
X129720000Y-99054000D01*
X129760000Y-101853000D02*
X129760000Y-98947000D01*
X129800000Y-101952000D02*
X129800000Y-98848000D01*
X129840000Y-102044000D02*
X129840000Y-98756000D01*
X129880000Y-102131000D02*
X129880000Y-98669000D01*
X129920000Y-102213000D02*
X129920000Y-98587000D01*
X129960000Y-102290000D02*
X129960000Y-98510000D01*
X130000000Y-102364000D02*
X130000000Y-98436000D01*
X130040000Y-102434000D02*
X130040000Y-98366000D01*
X130080000Y-102501000D02*
X130080000Y-98299000D01*
X130120000Y-102565000D02*
X130120000Y-98235000D01*
X130160000Y-102627000D02*
X130160000Y-98173000D01*
X130200000Y-102687000D02*
X130200000Y-98113000D01*
X130240000Y-102744000D02*
X130240000Y-98056000D01*
X130280000Y-102800000D02*
X130280000Y-98000000D01*
X130320000Y-102853000D02*
X130320000Y-97947000D01*
X130360000Y-102905000D02*
X130360000Y-97895000D01*
X130400000Y-102955000D02*
X130400000Y-97845000D01*
X130440000Y-103004000D02*
X130440000Y-97796000D01*
X130480000Y-103051000D02*
X130480000Y-97749000D01*
X130520000Y-103096000D02*
X130520000Y-97704000D01*
X130560000Y-103141000D02*
X130560000Y-97659000D01*
X130600000Y-103184000D02*
X130600000Y-97616000D01*
X130640000Y-103226000D02*
X130640000Y-97574000D01*
X130680000Y-99360000D02*
X130680000Y-97533000D01*
X130680000Y-103267000D02*
X130680000Y-101440000D01*
X130720000Y-99360000D02*
X130720000Y-97494000D01*
X130720000Y-103306000D02*
X130720000Y-101440000D01*
X130760000Y-99360000D02*
X130760000Y-97455000D01*
X130760000Y-103345000D02*
X130760000Y-101440000D01*
X130800000Y-99360000D02*
X130800000Y-97418000D01*
X130800000Y-103382000D02*
X130800000Y-101440000D01*
X130840000Y-99360000D02*
X130840000Y-97381000D01*
X130840000Y-103419000D02*
X130840000Y-101440000D01*
X130880000Y-99360000D02*
X130880000Y-97345000D01*
X130880000Y-103455000D02*
X130880000Y-101440000D01*
X130920000Y-99360000D02*
X130920000Y-97311000D01*
X130920000Y-103489000D02*
X130920000Y-101440000D01*
X130960000Y-99360000D02*
X130960000Y-97277000D01*
X130960000Y-103523000D02*
X130960000Y-101440000D01*
X131000000Y-99360000D02*
X131000000Y-97244000D01*
X131000000Y-103556000D02*
X131000000Y-101440000D01*
X131040000Y-99360000D02*
X131040000Y-97212000D01*
X131040000Y-103588000D02*
X131040000Y-101440000D01*
X131080000Y-99360000D02*
X131080000Y-97181000D01*
X131080000Y-103619000D02*
X131080000Y-101440000D01*
X131120000Y-99360000D02*
X131120000Y-97150000D01*
X131120000Y-103650000D02*
X131120000Y-101440000D01*
X131160000Y-99360000D02*
X131160000Y-97120000D01*
X131160000Y-103680000D02*
X131160000Y-101440000D01*
X131200000Y-99360000D02*
X131200000Y-97091000D01*
X131200000Y-103709000D02*
X131200000Y-101440000D01*
X131240000Y-99360000D02*
X131240000Y-97063000D01*
X131240000Y-103737000D02*
X131240000Y-101440000D01*
X131280000Y-99360000D02*
X131280000Y-97035000D01*
X131280000Y-103765000D02*
X131280000Y-101440000D01*
X131320000Y-99360000D02*
X131320000Y-97008000D01*
X131320000Y-103792000D02*
X131320000Y-101440000D01*
X131360000Y-99360000D02*
X131360000Y-96982000D01*
X131360000Y-103818000D02*
X131360000Y-101440000D01*
X131400000Y-99360000D02*
X131400000Y-96957000D01*
X131400000Y-103843000D02*
X131400000Y-101440000D01*
X131440000Y-99360000D02*
X131440000Y-96932000D01*
X131440000Y-103868000D02*
X131440000Y-101440000D01*
X131480000Y-99360000D02*
X131480000Y-96907000D01*
X131480000Y-103893000D02*
X131480000Y-101440000D01*
X131520000Y-99360000D02*
X131520000Y-96884000D01*
X131520000Y-103916000D02*
X131520000Y-101440000D01*
X131560000Y-99360000D02*
X131560000Y-96861000D01*
X131560000Y-103939000D02*
X131560000Y-101440000D01*
X131600000Y-99360000D02*
X131600000Y-96838000D01*
X131600000Y-103962000D02*
X131600000Y-101440000D01*
X131640000Y-99360000D02*
X131640000Y-96816000D01*
X131640000Y-103984000D02*
X131640000Y-101440000D01*
X131680000Y-99360000D02*
X131680000Y-96795000D01*
X131680000Y-104005000D02*
X131680000Y-101440000D01*
X131720000Y-99360000D02*
X131720000Y-96774000D01*
X131720000Y-104026000D02*
X131720000Y-101440000D01*
X131760000Y-99360000D02*
X131760000Y-96754000D01*
X131760000Y-104046000D02*
X131760000Y-101440000D01*
X131800000Y-99360000D02*
X131800000Y-96734000D01*
X131800000Y-104066000D02*
X131800000Y-101440000D01*
X131840000Y-99360000D02*
X131840000Y-96715000D01*
X131840000Y-104085000D02*
X131840000Y-101440000D01*
X131880000Y-99360000D02*
X131880000Y-96696000D01*
X131880000Y-104104000D02*
X131880000Y-101440000D01*
X131920000Y-99360000D02*
X131920000Y-96678000D01*
X131920000Y-104122000D02*
X131920000Y-101440000D01*
X131960000Y-99360000D02*
X131960000Y-96660000D01*
X131960000Y-104140000D02*
X131960000Y-101440000D01*
X132000000Y-99360000D02*
X132000000Y-96643000D01*
X132000000Y-104157000D02*
X132000000Y-101440000D01*
X132040000Y-99360000D02*
X132040000Y-96627000D01*
X132040000Y-104173000D02*
X132040000Y-101440000D01*
X132080000Y-99360000D02*
X132080000Y-96611000D01*
X132080000Y-104189000D02*
X132080000Y-101440000D01*
X132120000Y-99360000D02*
X132120000Y-96595000D01*
X132120000Y-104205000D02*
X132120000Y-101440000D01*
X132160000Y-99360000D02*
X132160000Y-96580000D01*
X132160000Y-104220000D02*
X132160000Y-101440000D01*
X132200000Y-99360000D02*
X132200000Y-96565000D01*
X132200000Y-104235000D02*
X132200000Y-101440000D01*
X132240000Y-99360000D02*
X132240000Y-96551000D01*
X132240000Y-104249000D02*
X132240000Y-101440000D01*
X132280000Y-99360000D02*
X132280000Y-96537000D01*
X132280000Y-104263000D02*
X132280000Y-101440000D01*
X132320000Y-99360000D02*
X132320000Y-96524000D01*
X132320000Y-104276000D02*
X132320000Y-101440000D01*
X132360000Y-99360000D02*
X132360000Y-96511000D01*
X132360000Y-104289000D02*
X132360000Y-101440000D01*
X132400000Y-99360000D02*
X132400000Y-96499000D01*
X132400000Y-104301000D02*
X132400000Y-101440000D01*
X132440000Y-99360000D02*
X132440000Y-96487000D01*
X132440000Y-104313000D02*
X132440000Y-101440000D01*
X132480000Y-99360000D02*
X132480000Y-96475000D01*
X132480000Y-104325000D02*
X132480000Y-101440000D01*
X132520000Y-99360000D02*
X132520000Y-96464000D01*
X132520000Y-104336000D02*
X132520000Y-101440000D01*
X132560000Y-99360000D02*
X132560000Y-96453000D01*
X132560000Y-104347000D02*
X132560000Y-101440000D01*
X132600000Y-99360000D02*
X132600000Y-96443000D01*
X132600000Y-104357000D02*
X132600000Y-101440000D01*
X132640000Y-99360000D02*
X132640000Y-96433000D01*
X132640000Y-104367000D02*
X132640000Y-101440000D01*
X132680000Y-99360000D02*
X132680000Y-96424000D01*
X132680000Y-104376000D02*
X132680000Y-101440000D01*
X132720000Y-99360000D02*
X132720000Y-96415000D01*
X132720000Y-104385000D02*
X132720000Y-101440000D01*
X132760000Y-104393000D02*
X132760000Y-96407000D01*
X132800000Y-104402000D02*
X132800000Y-96398000D01*
X132840000Y-104409000D02*
X132840000Y-96391000D01*
X132880000Y-104417000D02*
X132880000Y-96383000D01*
X132920000Y-104423000D02*
X132920000Y-96377000D01*
X132960000Y-104430000D02*
X132960000Y-96370000D01*
X133000000Y-104436000D02*
X133000000Y-96364000D01*
X133040000Y-104442000D02*
X133040000Y-96358000D01*
X133080000Y-104447000D02*
X133080000Y-96353000D01*
X133120000Y-104452000D02*
X133120000Y-96348000D01*
X133160000Y-104456000D02*
X133160000Y-96344000D01*
X133200000Y-104461000D02*
X133200000Y-96339000D01*
X133240000Y-104464000D02*
X133240000Y-96336000D01*
X133280000Y-104468000D02*
X133280000Y-96332000D01*
X133320000Y-104470000D02*
X133320000Y-96330000D01*
X133360000Y-104473000D02*
X133360000Y-96327000D01*
X133400000Y-104475000D02*
X133400000Y-96325000D01*
X133440000Y-104477000D02*
X133440000Y-96323000D01*
X133480000Y-104478000D02*
X133480000Y-96322000D01*
X133520000Y-104479000D02*
X133520000Y-96321000D01*
X133560000Y-104480000D02*
X133560000Y-96320000D01*
X133600000Y-104480000D02*
X133600000Y-96320000D01*
X137609698Y-103115000D02*
X137609698Y-102315000D01*
X138009698Y-102715000D02*
X137209698Y-102715000D01*
X137720000Y-100400000D02*
G75*
G02*
X129480000Y-100400000I-4120000J0D01*
G01*
X129480000Y-100400000D02*
G75*
G02*
X137720000Y-100400000I4120000J0D01*
G01*
%TO.C,RV1*%
X141890000Y-108640000D02*
X158110000Y-108640000D01*
X141890000Y-116360000D02*
X141890000Y-108640000D01*
X146390000Y-116360000D02*
X153610000Y-116360000D01*
X146390000Y-121360000D02*
X146390000Y-116360000D01*
X147890000Y-121360000D02*
X152110000Y-121360000D01*
X147890000Y-131360000D02*
X147890000Y-121360000D01*
X152110000Y-121360000D02*
X152110000Y-131360000D01*
X152110000Y-131360000D02*
X147890000Y-131360000D01*
X153610000Y-116360000D02*
X153610000Y-121360000D01*
X153610000Y-121360000D02*
X146390000Y-121360000D01*
X158110000Y-108640000D02*
X158110000Y-116360000D01*
X158110000Y-116360000D02*
X141890000Y-116360000D01*
%TD*%
M02*
