%TF.GenerationSoftware,KiCad,Pcbnew,9.0.4*%
%TF.CreationDate,2025-08-29T10:18:42+02:00*%
%TF.ProjectId,TDA7267,54444137-3236-4372-9e6b-696361645f70,rev?*%
%TF.SameCoordinates,Original*%
%TF.FileFunction,Copper,L2,Bot*%
%TF.FilePolarity,Positive*%
%FSLAX46Y46*%
G04 Gerber Fmt 4.6, Leading zero omitted, Abs format (unit mm)*
G04 Created by KiCad (PCBNEW 9.0.4) date 2025-08-29 10:18:42*
%MOMM*%
%LPD*%
G01*
G04 APERTURE LIST*
G04 Aperture macros list*
%AMRoundRect*
0 Rectangle with rounded corners*
0 $1 Rounding radius*
0 $2 $3 $4 $5 $6 $7 $8 $9 X,Y pos of 4 corners*
0 Add a 4 corners polygon primitive as box body*
4,1,4,$2,$3,$4,$5,$6,$7,$8,$9,$2,$3,0*
0 Add four circle primitives for the rounded corners*
1,1,$1+$1,$2,$3*
1,1,$1+$1,$4,$5*
1,1,$1+$1,$6,$7*
1,1,$1+$1,$8,$9*
0 Add four rect primitives between the rounded corners*
20,1,$1+$1,$2,$3,$4,$5,0*
20,1,$1+$1,$4,$5,$6,$7,0*
20,1,$1+$1,$6,$7,$8,$9,0*
20,1,$1+$1,$8,$9,$2,$3,0*%
G04 Aperture macros list end*
%TA.AperFunction,ComponentPad*%
%ADD10C,1.600000*%
%TD*%
%TA.AperFunction,ComponentPad*%
%ADD11R,3.000000X3.000000*%
%TD*%
%TA.AperFunction,ComponentPad*%
%ADD12C,3.000000*%
%TD*%
%TA.AperFunction,ComponentPad*%
%ADD13R,1.800000X1.800000*%
%TD*%
%TA.AperFunction,ComponentPad*%
%ADD14C,1.800000*%
%TD*%
%TA.AperFunction,ComponentPad*%
%ADD15RoundRect,0.250000X-0.950000X-0.550000X0.950000X-0.550000X0.950000X0.550000X-0.950000X0.550000X0*%
%TD*%
%TA.AperFunction,ComponentPad*%
%ADD16O,2.400000X1.600000*%
%TD*%
%TA.AperFunction,ComponentPad*%
%ADD17RoundRect,0.250000X-0.550000X-0.550000X0.550000X-0.550000X0.550000X0.550000X-0.550000X0.550000X0*%
%TD*%
%TA.AperFunction,ComponentPad*%
%ADD18RoundRect,0.250000X-0.750000X-0.750000X0.750000X-0.750000X0.750000X0.750000X-0.750000X0.750000X0*%
%TD*%
%TA.AperFunction,ComponentPad*%
%ADD19C,2.000000*%
%TD*%
%TA.AperFunction,ComponentPad*%
%ADD20RoundRect,0.250000X0.550000X0.550000X-0.550000X0.550000X-0.550000X-0.550000X0.550000X-0.550000X0*%
%TD*%
%TA.AperFunction,ComponentPad*%
%ADD21C,2.340000*%
%TD*%
%TA.AperFunction,Conductor*%
%ADD22C,1.000000*%
%TD*%
%TA.AperFunction,Conductor*%
%ADD23C,0.500000*%
%TD*%
G04 APERTURE END LIST*
D10*
%TO.P,C3,1*%
%TO.N,GND*%
X141700000Y-103560000D03*
%TO.P,C3,2*%
%TO.N,Net-(U1-In)*%
X141700000Y-98560000D03*
%TD*%
D11*
%TO.P,IN1,1,Pin_1*%
%TO.N,Net-(IN1-Pin_1)*%
X162960000Y-115000000D03*
D12*
%TO.P,IN1,2,Pin_2*%
%TO.N,GND*%
X168040000Y-115000000D03*
%TD*%
D10*
%TO.P,R1,1*%
%TO.N,Net-(C1-Pad2)*%
X146700000Y-105060000D03*
%TO.P,R1,2*%
%TO.N,Net-(U1-In)*%
X146700000Y-97440000D03*
%TD*%
D13*
%TO.P,D1,1,K*%
%TO.N,GND*%
X132460000Y-88500000D03*
D14*
%TO.P,D1,2,A*%
%TO.N,Net-(D1-A)*%
X135000000Y-88500000D03*
%TD*%
D11*
%TO.P,OUT1,1,Pin_1*%
%TO.N,Net-(OUT1-Pin_1)*%
X158800000Y-81000000D03*
D12*
%TO.P,OUT1,2,Pin_2*%
%TO.N,GND*%
X153720000Y-81000000D03*
%TD*%
D10*
%TO.P,C5,1*%
%TO.N,GND*%
X142000000Y-90500000D03*
%TO.P,C5,2*%
%TO.N,Net-(U1-V+)*%
X147000000Y-90500000D03*
%TD*%
%TO.P,C1,1*%
%TO.N,Net-(C1-Pad1)*%
X157500000Y-104750000D03*
%TO.P,C1,2*%
%TO.N,Net-(C1-Pad2)*%
X152500000Y-104750000D03*
%TD*%
D15*
%TO.P,U1,1,V+*%
%TO.N,Net-(U1-V+)*%
X151190000Y-89750000D03*
D16*
%TO.P,U1,2,Out*%
%TO.N,Net-(U1-Out)*%
X151190000Y-92290000D03*
%TO.P,U1,3,SRV*%
%TO.N,Net-(U1-SRV)*%
X151190000Y-94830000D03*
%TO.P,U1,4,In*%
%TO.N,Net-(U1-In)*%
X151190000Y-97370000D03*
%TO.P,U1,5,GND*%
%TO.N,GND*%
X158810000Y-97370000D03*
%TO.P,U1,6,GND*%
X158810000Y-94830000D03*
%TO.P,U1,7,GND*%
X158810000Y-92290000D03*
%TO.P,U1,8,GND*%
X158810000Y-89750000D03*
%TD*%
D10*
%TO.P,R2,1*%
%TO.N,Net-(D1-A)*%
X139190000Y-85000000D03*
%TO.P,R2,2*%
%TO.N,Net-(U1-V+)*%
X146810000Y-85000000D03*
%TD*%
D11*
%TO.P,VCC1,1,Pin_1*%
%TO.N,Net-(U1-V+)*%
X132420000Y-115000000D03*
D12*
%TO.P,VCC1,2,Pin_2*%
%TO.N,GND*%
X137500000Y-115000000D03*
%TD*%
D17*
%TO.P,C2,1*%
%TO.N,Net-(U1-SRV)*%
X164750000Y-100600000D03*
D10*
%TO.P,C2,2*%
%TO.N,GND*%
X168550000Y-100600000D03*
%TD*%
D18*
%TO.P,C6,1*%
%TO.N,Net-(U1-Out)*%
X164132323Y-89500000D03*
D19*
%TO.P,C6,2*%
%TO.N,Net-(OUT1-Pin_1)*%
X169132323Y-89500000D03*
%TD*%
D20*
%TO.P,C4,1*%
%TO.N,Net-(U1-V+)*%
X135500000Y-100400000D03*
D10*
%TO.P,C4,2*%
%TO.N,GND*%
X131700000Y-100400000D03*
%TD*%
D21*
%TO.P,RV1,1,1*%
%TO.N,Net-(IN1-Pin_1)*%
X145000000Y-114750000D03*
%TO.P,RV1,2,2*%
%TO.N,Net-(C1-Pad1)*%
X150000000Y-114750000D03*
%TO.P,RV1,3,3*%
%TO.N,GND*%
X155000000Y-114750000D03*
%TD*%
D22*
%TO.N,Net-(OUT1-Pin_1)*%
X163224562Y-81000000D02*
X158800000Y-81000000D01*
D23*
%TO.N,Net-(C1-Pad2)*%
X150000000Y-104750000D02*
X152500000Y-104750000D01*
X149690000Y-105060000D02*
X150000000Y-104750000D01*
X146700000Y-105060000D02*
X149690000Y-105060000D01*
%TO.N,Net-(C1-Pad1)*%
X157500000Y-105000000D02*
X150000000Y-112500000D01*
X150000000Y-112500000D02*
X150000000Y-114750000D01*
X157500000Y-104750000D02*
X157500000Y-105000000D01*
%TO.N,Net-(U1-SRV)*%
X154480000Y-94830000D02*
X156100000Y-96450000D01*
X157250000Y-100600000D02*
X156100000Y-99450000D01*
X164750000Y-100600000D02*
X157250000Y-100600000D01*
X156100000Y-96450000D02*
X156100000Y-99450000D01*
X151190000Y-94830000D02*
X154480000Y-94830000D01*
%TO.N,Net-(U1-In)*%
X143100000Y-97450000D02*
X143110000Y-97440000D01*
X142820000Y-97440000D02*
X141700000Y-98560000D01*
X143110000Y-97440000D02*
X142820000Y-97440000D01*
X143110000Y-97440000D02*
X146500000Y-97440000D01*
X146500000Y-97440000D02*
X151120000Y-97440000D01*
X151120000Y-97440000D02*
X151190000Y-97370000D01*
D22*
%TO.N,Net-(U1-Out)*%
X152960000Y-92290000D02*
X155000000Y-90250000D01*
X151190000Y-92290000D02*
X152960000Y-92290000D01*
X155000000Y-88250000D02*
X156250000Y-87000000D01*
X155000000Y-90250000D02*
X155000000Y-88250000D01*
X161632323Y-87000000D02*
X164132323Y-89500000D01*
X156250000Y-87000000D02*
X161632323Y-87000000D01*
%TO.N,Net-(OUT1-Pin_1)*%
X169132323Y-86860773D02*
X169085335Y-86860773D01*
X169085335Y-86860773D02*
X163224562Y-81000000D01*
X169132323Y-89500000D02*
X169132323Y-86860773D01*
D23*
%TO.N,Net-(D1-A)*%
X135000000Y-88500000D02*
X138500000Y-85000000D01*
X138500000Y-85000000D02*
X139190000Y-85000000D01*
%TO.N,Net-(IN1-Pin_1)*%
X161289000Y-116671000D02*
X147021000Y-116671000D01*
X162960000Y-115000000D02*
X161289000Y-116671000D01*
X147021000Y-116671000D02*
X145000000Y-114650000D01*
%TD*%
%TA.AperFunction,Conductor*%
%TO.N,Net-(U1-V+)*%
G36*
X152786501Y-79020185D02*
G01*
X152832256Y-79072989D01*
X152842200Y-79142147D01*
X152813175Y-79205703D01*
X152781462Y-79231887D01*
X152606196Y-79333075D01*
X152398148Y-79492718D01*
X152212718Y-79678148D01*
X152053075Y-79886196D01*
X151921958Y-80113299D01*
X151921953Y-80113309D01*
X151821605Y-80355571D01*
X151821602Y-80355581D01*
X151764423Y-80568979D01*
X151753730Y-80608885D01*
X151719500Y-80868872D01*
X151719500Y-81131127D01*
X151746123Y-81333339D01*
X151753730Y-81391116D01*
X151821602Y-81644418D01*
X151821605Y-81644428D01*
X151921953Y-81886690D01*
X151921958Y-81886700D01*
X152053075Y-82113803D01*
X152212718Y-82321851D01*
X152212726Y-82321860D01*
X152398140Y-82507274D01*
X152398148Y-82507281D01*
X152606196Y-82666924D01*
X152833299Y-82798041D01*
X152833309Y-82798046D01*
X153050299Y-82887926D01*
X153075581Y-82898398D01*
X153328884Y-82966270D01*
X153577188Y-82998960D01*
X153588864Y-83000498D01*
X153588880Y-83000500D01*
X153588887Y-83000500D01*
X153851113Y-83000500D01*
X153851120Y-83000500D01*
X154111116Y-82966270D01*
X154364419Y-82898398D01*
X154606697Y-82798043D01*
X154833803Y-82666924D01*
X155041851Y-82507282D01*
X155041855Y-82507277D01*
X155041860Y-82507274D01*
X155227274Y-82321860D01*
X155227277Y-82321855D01*
X155227282Y-82321851D01*
X155386924Y-82113803D01*
X155518043Y-81886697D01*
X155618398Y-81644419D01*
X155686270Y-81391116D01*
X155720500Y-81131120D01*
X155720500Y-80868880D01*
X155686270Y-80608884D01*
X155618398Y-80355581D01*
X155608016Y-80330516D01*
X155518046Y-80113309D01*
X155518041Y-80113299D01*
X155386924Y-79886196D01*
X155227281Y-79678148D01*
X155227274Y-79678140D01*
X155041860Y-79492726D01*
X155041851Y-79492718D01*
X154833803Y-79333075D01*
X154658538Y-79231887D01*
X154610323Y-79181320D01*
X154597099Y-79112713D01*
X154623067Y-79047849D01*
X154679981Y-79007320D01*
X154720538Y-79000500D01*
X156800999Y-79000500D01*
X156868038Y-79020185D01*
X156913793Y-79072989D01*
X156923737Y-79142147D01*
X156900265Y-79198810D01*
X156895106Y-79205703D01*
X156856204Y-79257668D01*
X156856202Y-79257671D01*
X156805908Y-79392517D01*
X156801294Y-79435438D01*
X156799501Y-79452123D01*
X156799500Y-79452135D01*
X156799500Y-82547870D01*
X156799501Y-82547876D01*
X156805908Y-82607483D01*
X156856202Y-82742328D01*
X156856206Y-82742335D01*
X156942452Y-82857544D01*
X156942455Y-82857547D01*
X157057664Y-82943793D01*
X157057671Y-82943797D01*
X157192517Y-82994091D01*
X157192516Y-82994091D01*
X157199444Y-82994835D01*
X157252127Y-83000500D01*
X160347872Y-83000499D01*
X160407483Y-82994091D01*
X160542331Y-82943796D01*
X160657546Y-82857546D01*
X160743796Y-82742331D01*
X160794091Y-82607483D01*
X160800500Y-82547873D01*
X160800500Y-82124500D01*
X160820185Y-82057461D01*
X160872989Y-82011706D01*
X160924500Y-82000500D01*
X162758780Y-82000500D01*
X162825819Y-82020185D01*
X162846461Y-82036819D01*
X168095504Y-87285862D01*
X168128989Y-87347185D01*
X168131823Y-87373543D01*
X168131823Y-88327111D01*
X168112138Y-88394150D01*
X168095504Y-88414792D01*
X167987808Y-88522487D01*
X167987808Y-88522488D01*
X167987806Y-88522490D01*
X167971611Y-88544781D01*
X167848980Y-88713566D01*
X167741756Y-88924003D01*
X167668769Y-89148631D01*
X167631823Y-89381902D01*
X167631823Y-89618097D01*
X167668769Y-89851368D01*
X167741756Y-90075996D01*
X167848980Y-90286433D01*
X167987806Y-90477510D01*
X168154813Y-90644517D01*
X168345890Y-90783343D01*
X168387480Y-90804534D01*
X168556326Y-90890566D01*
X168556328Y-90890566D01*
X168556331Y-90890568D01*
X168614644Y-90909515D01*
X168780954Y-90963553D01*
X169014226Y-91000500D01*
X169014231Y-91000500D01*
X169250420Y-91000500D01*
X169483691Y-90963553D01*
X169529850Y-90948555D01*
X169708315Y-90890568D01*
X169918756Y-90783343D01*
X170109833Y-90644517D01*
X170276840Y-90477510D01*
X170415666Y-90286433D01*
X170522891Y-90075992D01*
X170595876Y-89851368D01*
X170610736Y-89757544D01*
X170632823Y-89618097D01*
X170632823Y-89381902D01*
X170595876Y-89148631D01*
X170522889Y-88924003D01*
X170438320Y-88758028D01*
X170415666Y-88713567D01*
X170276840Y-88522490D01*
X170169142Y-88414792D01*
X170135657Y-88353469D01*
X170132823Y-88327111D01*
X170132823Y-86762229D01*
X170094375Y-86568943D01*
X170094374Y-86568942D01*
X170094374Y-86568938D01*
X170094372Y-86568933D01*
X170018958Y-86386865D01*
X170018951Y-86386852D01*
X169909462Y-86222991D01*
X169909459Y-86222987D01*
X169770108Y-86083636D01*
X169770104Y-86083633D01*
X169638651Y-85995799D01*
X169619861Y-85980378D01*
X167371005Y-83731522D01*
X165001814Y-81362332D01*
X166899500Y-81362332D01*
X166899500Y-81637667D01*
X166899501Y-81637684D01*
X166935438Y-81910655D01*
X166935439Y-81910660D01*
X166935440Y-81910666D01*
X166964785Y-82020185D01*
X167006704Y-82176630D01*
X167112075Y-82431017D01*
X167112080Y-82431028D01*
X167179543Y-82547876D01*
X167249751Y-82669479D01*
X167249753Y-82669482D01*
X167249754Y-82669483D01*
X167417370Y-82887926D01*
X167417376Y-82887933D01*
X167612066Y-83082623D01*
X167612072Y-83082628D01*
X167830521Y-83250249D01*
X167983778Y-83338732D01*
X168068971Y-83387919D01*
X168068976Y-83387921D01*
X168068979Y-83387923D01*
X168323368Y-83493295D01*
X168589334Y-83564560D01*
X168862326Y-83600500D01*
X168862333Y-83600500D01*
X169137667Y-83600500D01*
X169137674Y-83600500D01*
X169410666Y-83564560D01*
X169676632Y-83493295D01*
X169931021Y-83387923D01*
X170169479Y-83250249D01*
X170387928Y-83082628D01*
X170582628Y-82887928D01*
X170750249Y-82669479D01*
X170887923Y-82431021D01*
X170993295Y-82176632D01*
X171064560Y-81910666D01*
X171100500Y-81637674D01*
X171100500Y-81362326D01*
X171064560Y-81089334D01*
X170993295Y-80823368D01*
X170887923Y-80568979D01*
X170887921Y-80568976D01*
X170887919Y-80568971D01*
X170838732Y-80483778D01*
X170750249Y-80330521D01*
X170583625Y-80113371D01*
X170582629Y-80112073D01*
X170582623Y-80112066D01*
X170387933Y-79917376D01*
X170387926Y-79917370D01*
X170169483Y-79749754D01*
X170169482Y-79749753D01*
X170169479Y-79749751D01*
X170045461Y-79678149D01*
X169931028Y-79612080D01*
X169931017Y-79612075D01*
X169676630Y-79506704D01*
X169543649Y-79471072D01*
X169410666Y-79435440D01*
X169410660Y-79435439D01*
X169410655Y-79435438D01*
X169137684Y-79399501D01*
X169137679Y-79399500D01*
X169137674Y-79399500D01*
X168862326Y-79399500D01*
X168862320Y-79399500D01*
X168862315Y-79399501D01*
X168589344Y-79435438D01*
X168589337Y-79435439D01*
X168589334Y-79435440D01*
X168533125Y-79450500D01*
X168323369Y-79506704D01*
X168068982Y-79612075D01*
X168068971Y-79612080D01*
X167830516Y-79749754D01*
X167612073Y-79917370D01*
X167612066Y-79917376D01*
X167417376Y-80112066D01*
X167417370Y-80112073D01*
X167249754Y-80330516D01*
X167112080Y-80568971D01*
X167112075Y-80568982D01*
X167006704Y-80823369D01*
X166935441Y-81089331D01*
X166935438Y-81089344D01*
X166899501Y-81362315D01*
X166899500Y-81362332D01*
X165001814Y-81362332D01*
X164008770Y-80369288D01*
X164008768Y-80369285D01*
X164008768Y-80369286D01*
X164001701Y-80362219D01*
X164001701Y-80362218D01*
X163862344Y-80222861D01*
X163862343Y-80222860D01*
X163862342Y-80222859D01*
X163698482Y-80113371D01*
X163698473Y-80113366D01*
X163625877Y-80083296D01*
X163569727Y-80060038D01*
X163516398Y-80037949D01*
X163516394Y-80037948D01*
X163516390Y-80037946D01*
X163419750Y-80018724D01*
X163323106Y-79999500D01*
X163323103Y-79999500D01*
X160924499Y-79999500D01*
X160857460Y-79979815D01*
X160811705Y-79927011D01*
X160800499Y-79875500D01*
X160800499Y-79452129D01*
X160800498Y-79452123D01*
X160800497Y-79452116D01*
X160794091Y-79392517D01*
X160743796Y-79257669D01*
X160699734Y-79198810D01*
X160675317Y-79133348D01*
X160690168Y-79065075D01*
X160739573Y-79015669D01*
X160799001Y-79000500D01*
X171375500Y-79000500D01*
X171442539Y-79020185D01*
X171488294Y-79072989D01*
X171499500Y-79124500D01*
X171499500Y-92976000D01*
X171479815Y-93043039D01*
X171427011Y-93088794D01*
X171375500Y-93100000D01*
X160459219Y-93100000D01*
X160392180Y-93080315D01*
X160346425Y-93027511D01*
X160336481Y-92958353D01*
X160348734Y-92919705D01*
X160415218Y-92789223D01*
X160415218Y-92789222D01*
X160415220Y-92789219D01*
X160478477Y-92594534D01*
X160510500Y-92392352D01*
X160510500Y-92187648D01*
X160478477Y-91985466D01*
X160415220Y-91790781D01*
X160415218Y-91790778D01*
X160415218Y-91790776D01*
X160371623Y-91705218D01*
X160322287Y-91608390D01*
X160314556Y-91597749D01*
X160201971Y-91442786D01*
X160057213Y-91298028D01*
X159891614Y-91177715D01*
X159885006Y-91174348D01*
X159798917Y-91130483D01*
X159748123Y-91082511D01*
X159731328Y-91014690D01*
X159753865Y-90948555D01*
X159798917Y-90909516D01*
X159891610Y-90862287D01*
X159971101Y-90804534D01*
X160057213Y-90741971D01*
X160057215Y-90741968D01*
X160057219Y-90741966D01*
X160201966Y-90597219D01*
X160201968Y-90597215D01*
X160201971Y-90597213D01*
X160254732Y-90524590D01*
X160322287Y-90431610D01*
X160415220Y-90249219D01*
X160478477Y-90054534D01*
X160510500Y-89852352D01*
X160510500Y-89647648D01*
X160488142Y-89506486D01*
X160478477Y-89445465D01*
X160415218Y-89250776D01*
X160363172Y-89148631D01*
X160322287Y-89068390D01*
X160299919Y-89037603D01*
X160201971Y-88902786D01*
X160057213Y-88758028D01*
X159891613Y-88637715D01*
X159891612Y-88637714D01*
X159891610Y-88637713D01*
X159812099Y-88597200D01*
X159709223Y-88544781D01*
X159514534Y-88481522D01*
X159339995Y-88453878D01*
X159312352Y-88449500D01*
X158307648Y-88449500D01*
X158283329Y-88453351D01*
X158105465Y-88481522D01*
X157910776Y-88544781D01*
X157728386Y-88637715D01*
X157562786Y-88758028D01*
X157418028Y-88902786D01*
X157297715Y-89068386D01*
X157204781Y-89250776D01*
X157141522Y-89445465D01*
X157109500Y-89647648D01*
X157109500Y-89852351D01*
X157141522Y-90054534D01*
X157204781Y-90249223D01*
X157268691Y-90374653D01*
X157280408Y-90397648D01*
X157297715Y-90431613D01*
X157418028Y-90597213D01*
X157562786Y-90741971D01*
X157701444Y-90842710D01*
X157728390Y-90862287D01*
X157778431Y-90887784D01*
X157821080Y-90909515D01*
X157871876Y-90957490D01*
X157888671Y-91025311D01*
X157866134Y-91091446D01*
X157821080Y-91130485D01*
X157728386Y-91177715D01*
X157562786Y-91298028D01*
X157418028Y-91442786D01*
X157297715Y-91608386D01*
X157204781Y-91790776D01*
X157141522Y-91985465D01*
X157109500Y-92187648D01*
X157109500Y-92392351D01*
X157141522Y-92594534D01*
X157204781Y-92789223D01*
X157271266Y-92919705D01*
X157284162Y-92988374D01*
X157257886Y-93053115D01*
X157200779Y-93093372D01*
X157160781Y-93100000D01*
X153864281Y-93100000D01*
X153797242Y-93080315D01*
X153751487Y-93027511D01*
X153741543Y-92958353D01*
X153770568Y-92894797D01*
X153776600Y-92888319D01*
X154272568Y-92392352D01*
X155777140Y-90887781D01*
X155886632Y-90723914D01*
X155962052Y-90541835D01*
X156000500Y-90348540D01*
X156000500Y-90151459D01*
X156000500Y-88715782D01*
X156020185Y-88648743D01*
X156036819Y-88628101D01*
X156628101Y-88036819D01*
X156689424Y-88003334D01*
X156715782Y-88000500D01*
X161166541Y-88000500D01*
X161233580Y-88020185D01*
X161254222Y-88036819D01*
X162595504Y-89378101D01*
X162628989Y-89439424D01*
X162631823Y-89465782D01*
X162631823Y-90300001D01*
X162631824Y-90300019D01*
X162642323Y-90402796D01*
X162642324Y-90402799D01*
X162697508Y-90569331D01*
X162697510Y-90569336D01*
X162732392Y-90625888D01*
X162789611Y-90718656D01*
X162913667Y-90842712D01*
X163062989Y-90934814D01*
X163229526Y-90989999D01*
X163332314Y-91000500D01*
X164932331Y-91000499D01*
X164944862Y-90999219D01*
X164950218Y-90998671D01*
X165035120Y-90989999D01*
X165201657Y-90934814D01*
X165350979Y-90842712D01*
X165475035Y-90718656D01*
X165567137Y-90569334D01*
X165622322Y-90402797D01*
X165632823Y-90300009D01*
X165632822Y-88699992D01*
X165622322Y-88597203D01*
X165567137Y-88430666D01*
X165475035Y-88281344D01*
X165350979Y-88157288D01*
X165201657Y-88065186D01*
X165035120Y-88010001D01*
X165035118Y-88010000D01*
X164932339Y-87999500D01*
X164932332Y-87999500D01*
X164098105Y-87999500D01*
X164031066Y-87979815D01*
X164010424Y-87963181D01*
X162413802Y-86366559D01*
X162413782Y-86366537D01*
X162270108Y-86222863D01*
X162270104Y-86222860D01*
X162106243Y-86113371D01*
X162106234Y-86113366D01*
X162033638Y-86083296D01*
X161977488Y-86060038D01*
X161924159Y-86037949D01*
X161924155Y-86037948D01*
X161924151Y-86037946D01*
X161827511Y-86018724D01*
X161730867Y-85999500D01*
X161730864Y-85999500D01*
X156151459Y-85999500D01*
X156151455Y-85999500D01*
X156054812Y-86018724D01*
X155958167Y-86037947D01*
X155958161Y-86037949D01*
X155904834Y-86060037D01*
X155904834Y-86060038D01*
X155859315Y-86078892D01*
X155776089Y-86113366D01*
X155776079Y-86113371D01*
X155612219Y-86222859D01*
X155566602Y-86268477D01*
X155472861Y-86362218D01*
X155472858Y-86362221D01*
X154362221Y-87472858D01*
X154362218Y-87472861D01*
X154324651Y-87510428D01*
X154222859Y-87612219D01*
X154113371Y-87776079D01*
X154113364Y-87776092D01*
X154037950Y-87958160D01*
X154037947Y-87958170D01*
X153999500Y-88151456D01*
X153999500Y-89784217D01*
X153979815Y-89851256D01*
X153963181Y-89871898D01*
X152581899Y-91253181D01*
X152554971Y-91267884D01*
X152529153Y-91284477D01*
X152522952Y-91285368D01*
X152520576Y-91286666D01*
X152494218Y-91289500D01*
X152465762Y-91289500D01*
X152398723Y-91269815D01*
X152392877Y-91265818D01*
X152271613Y-91177715D01*
X152271612Y-91177714D01*
X152271610Y-91177713D01*
X152214653Y-91148691D01*
X152089223Y-91084781D01*
X151894534Y-91021522D01*
X151719995Y-90993878D01*
X151692352Y-90989500D01*
X150687648Y-90989500D01*
X150663329Y-90993351D01*
X150485465Y-91021522D01*
X150290776Y-91084781D01*
X150108386Y-91177715D01*
X149942786Y-91298028D01*
X149798028Y-91442786D01*
X149677715Y-91608386D01*
X149584781Y-91790776D01*
X149521522Y-91985465D01*
X149489500Y-92187648D01*
X149489500Y-92392351D01*
X149521522Y-92594534D01*
X149584781Y-92789223D01*
X149651266Y-92919705D01*
X149664162Y-92988374D01*
X149637886Y-93053115D01*
X149580779Y-93093372D01*
X149540781Y-93100000D01*
X139600000Y-93100000D01*
X139600000Y-114218900D01*
X139580315Y-114285939D01*
X139527511Y-114331694D01*
X139458353Y-114341638D01*
X139394797Y-114312613D01*
X139361439Y-114266353D01*
X139298046Y-114113309D01*
X139298041Y-114113299D01*
X139166924Y-113886196D01*
X139007281Y-113678148D01*
X139007274Y-113678140D01*
X138821860Y-113492726D01*
X138821851Y-113492718D01*
X138613803Y-113333075D01*
X138386700Y-113201958D01*
X138386690Y-113201953D01*
X138144428Y-113101605D01*
X138144421Y-113101603D01*
X138144419Y-113101602D01*
X137891116Y-113033730D01*
X137833339Y-113026123D01*
X137631127Y-112999500D01*
X137631120Y-112999500D01*
X137368880Y-112999500D01*
X137368872Y-112999500D01*
X137137772Y-113029926D01*
X137108884Y-113033730D01*
X136855581Y-113101602D01*
X136855571Y-113101605D01*
X136613309Y-113201953D01*
X136613299Y-113201958D01*
X136386196Y-113333075D01*
X136178148Y-113492718D01*
X135992718Y-113678148D01*
X135833075Y-113886196D01*
X135701958Y-114113299D01*
X135701953Y-114113309D01*
X135601605Y-114355571D01*
X135601602Y-114355581D01*
X135533730Y-114608885D01*
X135499500Y-114868872D01*
X135499500Y-115131127D01*
X135526123Y-115333339D01*
X135533730Y-115391116D01*
X135601602Y-115644418D01*
X135601605Y-115644428D01*
X135701953Y-115886690D01*
X135701958Y-115886700D01*
X135833075Y-116113803D01*
X135992718Y-116321851D01*
X135992726Y-116321860D01*
X136178140Y-116507274D01*
X136178148Y-116507281D01*
X136386196Y-116666924D01*
X136561462Y-116768113D01*
X136609677Y-116818680D01*
X136622901Y-116887287D01*
X136596933Y-116952151D01*
X136540019Y-116992680D01*
X136499462Y-116999500D01*
X129624500Y-116999500D01*
X129557461Y-116979815D01*
X129511706Y-116927011D01*
X129500500Y-116875500D01*
X129500500Y-107862332D01*
X129899500Y-107862332D01*
X129899500Y-108137667D01*
X129899501Y-108137684D01*
X129935438Y-108410655D01*
X129935439Y-108410660D01*
X129935440Y-108410666D01*
X129935441Y-108410668D01*
X130006704Y-108676630D01*
X130112075Y-108931017D01*
X130112080Y-108931028D01*
X130194861Y-109074407D01*
X130249751Y-109169479D01*
X130249753Y-109169482D01*
X130249754Y-109169483D01*
X130417370Y-109387926D01*
X130417376Y-109387933D01*
X130612066Y-109582623D01*
X130612072Y-109582628D01*
X130830521Y-109750249D01*
X130983778Y-109838732D01*
X131068971Y-109887919D01*
X131068976Y-109887921D01*
X131068979Y-109887923D01*
X131323368Y-109993295D01*
X131589334Y-110064560D01*
X131862326Y-110100500D01*
X131862333Y-110100500D01*
X132137667Y-110100500D01*
X132137674Y-110100500D01*
X132410666Y-110064560D01*
X132676632Y-109993295D01*
X132931021Y-109887923D01*
X133169479Y-109750249D01*
X133387928Y-109582628D01*
X133582628Y-109387928D01*
X133750249Y-109169479D01*
X133887923Y-108931021D01*
X133993295Y-108676632D01*
X134064560Y-108410666D01*
X134100500Y-108137674D01*
X134100500Y-107862326D01*
X134064560Y-107589334D01*
X133993295Y-107323368D01*
X133887923Y-107068979D01*
X133887921Y-107068976D01*
X133887919Y-107068971D01*
X133838732Y-106983778D01*
X133750249Y-106830521D01*
X133582628Y-106612072D01*
X133582623Y-106612066D01*
X133387933Y-106417376D01*
X133387926Y-106417370D01*
X133169483Y-106249754D01*
X133169482Y-106249753D01*
X133169479Y-106249751D01*
X133074407Y-106194861D01*
X132931028Y-106112080D01*
X132931017Y-106112075D01*
X132676630Y-106006704D01*
X132543649Y-105971072D01*
X132410666Y-105935440D01*
X132410660Y-105935439D01*
X132410655Y-105935438D01*
X132137684Y-105899501D01*
X132137679Y-105899500D01*
X132137674Y-105899500D01*
X131862326Y-105899500D01*
X131862320Y-105899500D01*
X131862315Y-105899501D01*
X131589344Y-105935438D01*
X131589337Y-105935439D01*
X131589334Y-105935440D01*
X131533125Y-105950500D01*
X131323369Y-106006704D01*
X131068982Y-106112075D01*
X131068971Y-106112080D01*
X130830516Y-106249754D01*
X130612073Y-106417370D01*
X130612066Y-106417376D01*
X130417376Y-106612066D01*
X130417370Y-106612073D01*
X130249754Y-106830516D01*
X130112080Y-107068971D01*
X130112075Y-107068982D01*
X130006704Y-107323369D01*
X129935441Y-107589331D01*
X129935438Y-107589344D01*
X129899501Y-107862315D01*
X129899500Y-107862332D01*
X129500500Y-107862332D01*
X129500500Y-100297648D01*
X130399500Y-100297648D01*
X130399500Y-100502351D01*
X130431522Y-100704534D01*
X130494781Y-100899223D01*
X130587715Y-101081613D01*
X130708028Y-101247213D01*
X130852786Y-101391971D01*
X131007749Y-101504556D01*
X131018390Y-101512287D01*
X131134607Y-101571503D01*
X131200776Y-101605218D01*
X131200778Y-101605218D01*
X131200781Y-101605220D01*
X131305137Y-101639127D01*
X131395465Y-101668477D01*
X131496557Y-101684488D01*
X131597648Y-101700500D01*
X131597649Y-101700500D01*
X131802351Y-101700500D01*
X131802352Y-101700500D01*
X132004534Y-101668477D01*
X132199219Y-101605220D01*
X132381610Y-101512287D01*
X132474590Y-101444732D01*
X132547213Y-101391971D01*
X132547215Y-101391968D01*
X132547219Y-101391966D01*
X132691966Y-101247219D01*
X132691968Y-101247215D01*
X132691971Y-101247213D01*
X132744732Y-101174590D01*
X132812287Y-101081610D01*
X132905220Y-100899219D01*
X132968477Y-100704534D01*
X133000500Y-100502352D01*
X133000500Y-100297648D01*
X132968477Y-100095466D01*
X132905220Y-99900781D01*
X132905218Y-99900778D01*
X132905218Y-99900776D01*
X132871503Y-99834607D01*
X132812287Y-99718390D01*
X132804556Y-99707749D01*
X132691971Y-99552786D01*
X132547213Y-99408028D01*
X132381613Y-99287715D01*
X132381612Y-99287714D01*
X132381610Y-99287713D01*
X132324653Y-99258691D01*
X132199223Y-99194781D01*
X132004534Y-99131522D01*
X131829995Y-99103878D01*
X131802352Y-99099500D01*
X131597648Y-99099500D01*
X131573329Y-99103351D01*
X131395465Y-99131522D01*
X131200776Y-99194781D01*
X131018386Y-99287715D01*
X130852786Y-99408028D01*
X130708028Y-99552786D01*
X130587715Y-99718386D01*
X130494781Y-99900776D01*
X130431522Y-100095465D01*
X130399500Y-100297648D01*
X129500500Y-100297648D01*
X129500500Y-90397648D01*
X140699500Y-90397648D01*
X140699500Y-90602351D01*
X140731522Y-90804534D01*
X140794781Y-90999223D01*
X140838376Y-91084781D01*
X140885728Y-91177715D01*
X140887715Y-91181613D01*
X141008028Y-91347213D01*
X141152786Y-91491971D01*
X141307749Y-91604556D01*
X141318390Y-91612287D01*
X141434607Y-91671503D01*
X141500776Y-91705218D01*
X141500778Y-91705218D01*
X141500781Y-91705220D01*
X141605137Y-91739127D01*
X141695465Y-91768477D01*
X141796557Y-91784488D01*
X141897648Y-91800500D01*
X141897649Y-91800500D01*
X142102351Y-91800500D01*
X142102352Y-91800500D01*
X142304534Y-91768477D01*
X142499219Y-91705220D01*
X142681610Y-91612287D01*
X142774590Y-91544732D01*
X142847213Y-91491971D01*
X142847215Y-91491968D01*
X142847219Y-91491966D01*
X142991966Y-91347219D01*
X142991968Y-91347215D01*
X142991971Y-91347213D01*
X143060288Y-91253181D01*
X143112287Y-91181610D01*
X143205220Y-90999219D01*
X143268477Y-90804534D01*
X143300500Y-90602352D01*
X143300500Y-90397648D01*
X143282885Y-90286433D01*
X143268477Y-90195465D01*
X143229659Y-90075996D01*
X143205220Y-90000781D01*
X143205218Y-90000778D01*
X143205218Y-90000776D01*
X143154124Y-89900500D01*
X143112287Y-89818390D01*
X143087459Y-89784217D01*
X142991971Y-89652786D01*
X142847213Y-89508028D01*
X142681613Y-89387715D01*
X142681612Y-89387714D01*
X142681610Y-89387713D01*
X142624653Y-89358691D01*
X142499223Y-89294781D01*
X142304534Y-89231522D01*
X142129995Y-89203878D01*
X142102352Y-89199500D01*
X141897648Y-89199500D01*
X141873329Y-89203351D01*
X141695465Y-89231522D01*
X141500776Y-89294781D01*
X141318386Y-89387715D01*
X141152786Y-89508028D01*
X141008028Y-89652786D01*
X140887715Y-89818386D01*
X140794781Y-90000776D01*
X140731522Y-90195465D01*
X140699500Y-90397648D01*
X129500500Y-90397648D01*
X129500500Y-87552135D01*
X131059500Y-87552135D01*
X131059500Y-89447870D01*
X131059501Y-89447876D01*
X131065908Y-89507483D01*
X131116202Y-89642328D01*
X131116206Y-89642335D01*
X131202452Y-89757544D01*
X131202455Y-89757547D01*
X131317664Y-89843793D01*
X131317671Y-89843797D01*
X131452517Y-89894091D01*
X131452516Y-89894091D01*
X131459444Y-89894835D01*
X131512127Y-89900500D01*
X133407872Y-89900499D01*
X133467483Y-89894091D01*
X133602331Y-89843796D01*
X133717546Y-89757546D01*
X133803796Y-89642331D01*
X133831429Y-89568243D01*
X133833601Y-89562420D01*
X133875471Y-89506486D01*
X133940936Y-89482068D01*
X134009209Y-89496919D01*
X134037464Y-89518071D01*
X134087636Y-89568243D01*
X134087641Y-89568247D01*
X134243192Y-89681260D01*
X134265978Y-89697815D01*
X134394375Y-89763237D01*
X134462393Y-89797895D01*
X134462396Y-89797896D01*
X134525472Y-89818390D01*
X134672049Y-89866015D01*
X134889778Y-89900500D01*
X134889779Y-89900500D01*
X135110221Y-89900500D01*
X135110222Y-89900500D01*
X135327951Y-89866015D01*
X135537606Y-89797895D01*
X135734022Y-89697815D01*
X135912365Y-89568242D01*
X136068242Y-89412365D01*
X136197815Y-89234022D01*
X136297895Y-89037606D01*
X136366015Y-88827951D01*
X136400500Y-88610222D01*
X136400500Y-88389778D01*
X136379084Y-88254566D01*
X136388038Y-88185276D01*
X136413873Y-88147493D01*
X138405397Y-86155969D01*
X138466718Y-86122486D01*
X138536410Y-86127470D01*
X138549366Y-86133165D01*
X138594125Y-86155971D01*
X138690774Y-86205217D01*
X138690777Y-86205217D01*
X138690781Y-86205220D01*
X138825245Y-86248910D01*
X138885465Y-86268477D01*
X138986557Y-86284488D01*
X139087648Y-86300500D01*
X139087649Y-86300500D01*
X139292351Y-86300500D01*
X139292352Y-86300500D01*
X139494534Y-86268477D01*
X139689219Y-86205220D01*
X139871610Y-86112287D01*
X139973931Y-86037947D01*
X140037213Y-85991971D01*
X140037215Y-85991968D01*
X140037219Y-85991966D01*
X140181966Y-85847219D01*
X140181968Y-85847215D01*
X140181971Y-85847213D01*
X140234732Y-85774590D01*
X140302287Y-85681610D01*
X140395220Y-85499219D01*
X140458477Y-85304534D01*
X140490500Y-85102352D01*
X140490500Y-84897648D01*
X140458477Y-84695466D01*
X140395220Y-84500781D01*
X140395218Y-84500778D01*
X140395218Y-84500776D01*
X140349531Y-84411112D01*
X140302287Y-84318390D01*
X140294556Y-84307749D01*
X140181971Y-84152786D01*
X140037213Y-84008028D01*
X139871613Y-83887715D01*
X139871612Y-83887714D01*
X139871610Y-83887713D01*
X139814653Y-83858691D01*
X139689223Y-83794781D01*
X139494534Y-83731522D01*
X139319995Y-83703878D01*
X139292352Y-83699500D01*
X139087648Y-83699500D01*
X139063329Y-83703351D01*
X138885465Y-83731522D01*
X138690776Y-83794781D01*
X138508386Y-83887715D01*
X138342786Y-84008028D01*
X138198028Y-84152786D01*
X138077713Y-84318388D01*
X138042445Y-84387605D01*
X138019642Y-84418990D01*
X135352508Y-87086122D01*
X135291185Y-87119607D01*
X135245429Y-87120914D01*
X135110227Y-87099500D01*
X135110222Y-87099500D01*
X134889778Y-87099500D01*
X134817201Y-87110995D01*
X134672047Y-87133985D01*
X134462396Y-87202103D01*
X134462393Y-87202104D01*
X134265974Y-87302187D01*
X134087641Y-87431752D01*
X134087636Y-87431756D01*
X134037463Y-87481929D01*
X133976140Y-87515413D01*
X133906448Y-87510428D01*
X133850515Y-87468557D01*
X133833601Y-87437580D01*
X133803797Y-87357671D01*
X133803793Y-87357664D01*
X133717547Y-87242455D01*
X133717544Y-87242452D01*
X133602335Y-87156206D01*
X133602328Y-87156202D01*
X133467482Y-87105908D01*
X133467483Y-87105908D01*
X133407883Y-87099501D01*
X133407881Y-87099500D01*
X133407873Y-87099500D01*
X133407864Y-87099500D01*
X131512129Y-87099500D01*
X131512123Y-87099501D01*
X131452516Y-87105908D01*
X131317671Y-87156202D01*
X131317664Y-87156206D01*
X131202455Y-87242452D01*
X131202452Y-87242455D01*
X131116206Y-87357664D01*
X131116202Y-87357671D01*
X131065908Y-87492517D01*
X131059501Y-87552116D01*
X131059500Y-87552135D01*
X129500500Y-87552135D01*
X129500500Y-81362332D01*
X129899500Y-81362332D01*
X129899500Y-81637667D01*
X129899501Y-81637684D01*
X129935438Y-81910655D01*
X129935439Y-81910660D01*
X129935440Y-81910666D01*
X129964785Y-82020185D01*
X130006704Y-82176630D01*
X130112075Y-82431017D01*
X130112080Y-82431028D01*
X130179543Y-82547876D01*
X130249751Y-82669479D01*
X130249753Y-82669482D01*
X130249754Y-82669483D01*
X130417370Y-82887926D01*
X130417376Y-82887933D01*
X130612066Y-83082623D01*
X130612072Y-83082628D01*
X130830521Y-83250249D01*
X130983778Y-83338732D01*
X131068971Y-83387919D01*
X131068976Y-83387921D01*
X131068979Y-83387923D01*
X131323368Y-83493295D01*
X131589334Y-83564560D01*
X131862326Y-83600500D01*
X131862333Y-83600500D01*
X132137667Y-83600500D01*
X132137674Y-83600500D01*
X132410666Y-83564560D01*
X132676632Y-83493295D01*
X132931021Y-83387923D01*
X133169479Y-83250249D01*
X133387928Y-83082628D01*
X133582628Y-82887928D01*
X133750249Y-82669479D01*
X133887923Y-82431021D01*
X133993295Y-82176632D01*
X134064560Y-81910666D01*
X134100500Y-81637674D01*
X134100500Y-81362326D01*
X134064560Y-81089334D01*
X133993295Y-80823368D01*
X133887923Y-80568979D01*
X133887921Y-80568976D01*
X133887919Y-80568971D01*
X133838732Y-80483778D01*
X133750249Y-80330521D01*
X133583625Y-80113371D01*
X133582629Y-80112073D01*
X133582623Y-80112066D01*
X133387933Y-79917376D01*
X133387926Y-79917370D01*
X133169483Y-79749754D01*
X133169482Y-79749753D01*
X133169479Y-79749751D01*
X133045461Y-79678149D01*
X132931028Y-79612080D01*
X132931017Y-79612075D01*
X132676630Y-79506704D01*
X132543649Y-79471072D01*
X132410666Y-79435440D01*
X132410660Y-79435439D01*
X132410655Y-79435438D01*
X132137684Y-79399501D01*
X132137679Y-79399500D01*
X132137674Y-79399500D01*
X131862326Y-79399500D01*
X131862320Y-79399500D01*
X131862315Y-79399501D01*
X131589344Y-79435438D01*
X131589337Y-79435439D01*
X131589334Y-79435440D01*
X131533125Y-79450500D01*
X131323369Y-79506704D01*
X131068982Y-79612075D01*
X131068971Y-79612080D01*
X130830516Y-79749754D01*
X130612073Y-79917370D01*
X130612066Y-79917376D01*
X130417376Y-80112066D01*
X130417370Y-80112073D01*
X130249754Y-80330516D01*
X130112080Y-80568971D01*
X130112075Y-80568982D01*
X130006704Y-80823369D01*
X129935441Y-81089331D01*
X129935438Y-81089344D01*
X129899501Y-81362315D01*
X129899500Y-81362332D01*
X129500500Y-81362332D01*
X129500500Y-79124500D01*
X129520185Y-79057461D01*
X129572989Y-79011706D01*
X129624500Y-79000500D01*
X152719462Y-79000500D01*
X152786501Y-79020185D01*
G37*
%TD.AperFunction*%
%TD*%
M02*
