M48
; DRILL file {KiCad 9.0.4} date 2025-09-15T15:44:32+0200
; FORMAT={-:-/ absolute / inch / decimal}
; #@! TF.CreationDate,2025-09-15T15:44:32+02:00
; #@! TF.GenerationSoftware,Kicad,Pcbnew,9.0.4
; #@! TF.FileFunction,Plated,1,2,PTH
FMAT,2
INCH
; #@! TA.AperFunction,Plated,PTH,ComponentDrill
T1C0.0315
; #@! TA.AperFunction,Plated,PTH,ComponentDrill
T2C0.0354
; #@! TA.AperFunction,Plated,PTH,ComponentDrill
T3C0.0394
; #@! TA.AperFunction,Plated,PTH,ComponentDrill
T4C0.0512
; #@! TA.AperFunction,Plated,PTH,ComponentDrill
T5C0.0598
%
G90
G05
T1
X5.185Y-3.9528
X5.3346Y-3.9528
X5.5Y-3.5827
X5.5787Y-3.8803
X5.5787Y-4.0772
X5.6496Y-3.5827
X5.7756Y-3.8362
X5.7756Y-4.1362
X5.8465Y-3.2087
X5.8465Y-3.4055
X5.9524Y-3.5335
X5.9524Y-3.6335
X5.9524Y-3.7335
X5.9524Y-3.8335
X5.9646Y-4.124
X6.1614Y-4.124
X6.2524Y-3.5335
X6.2524Y-3.6335
X6.2524Y-3.7335
X6.2524Y-3.8335
X6.4051Y-3.8386
X6.7051Y-3.8386
T2
X6.3764Y-4.0945
X6.4764Y-4.0945
T3
X6.4619Y-3.5236
X6.6588Y-3.5236
T4
X5.7087Y-4.5177
X5.9055Y-4.5177
X6.1024Y-4.5177
T5
X5.2134Y-4.5276
X5.4134Y-4.5276
X6.052Y-3.189
X6.252Y-3.189
X6.4157Y-4.5276
X6.6157Y-4.5276
M30
