%TF.GenerationSoftware,KiCad,Pcbnew,9.0.4*%
%TF.CreationDate,2025-08-28T09:55:45+02:00*%
%TF.ProjectId,TDA7267,54444137-3236-4372-9e6b-696361645f70,rev?*%
%TF.SameCoordinates,Original*%
%TF.FileFunction,Copper,L2,Bot*%
%TF.FilePolarity,Positive*%
%FSLAX46Y46*%
G04 Gerber Fmt 4.6, Leading zero omitted, Abs format (unit mm)*
G04 Created by KiCad (PCBNEW 9.0.4) date 2025-08-28 09:55:45*
%MOMM*%
%LPD*%
G01*
G04 APERTURE LIST*
G04 Aperture macros list*
%AMRoundRect*
0 Rectangle with rounded corners*
0 $1 Rounding radius*
0 $2 $3 $4 $5 $6 $7 $8 $9 X,Y pos of 4 corners*
0 Add a 4 corners polygon primitive as box body*
4,1,4,$2,$3,$4,$5,$6,$7,$8,$9,$2,$3,0*
0 Add four circle primitives for the rounded corners*
1,1,$1+$1,$2,$3*
1,1,$1+$1,$4,$5*
1,1,$1+$1,$6,$7*
1,1,$1+$1,$8,$9*
0 Add four rect primitives between the rounded corners*
20,1,$1+$1,$2,$3,$4,$5,0*
20,1,$1+$1,$4,$5,$6,$7,0*
20,1,$1+$1,$6,$7,$8,$9,0*
20,1,$1+$1,$8,$9,$2,$3,0*%
G04 Aperture macros list end*
%TA.AperFunction,ComponentPad*%
%ADD10C,1.600000*%
%TD*%
%TA.AperFunction,ComponentPad*%
%ADD11R,3.000000X3.000000*%
%TD*%
%TA.AperFunction,ComponentPad*%
%ADD12C,3.000000*%
%TD*%
%TA.AperFunction,ComponentPad*%
%ADD13R,1.800000X1.800000*%
%TD*%
%TA.AperFunction,ComponentPad*%
%ADD14C,1.800000*%
%TD*%
%TA.AperFunction,ComponentPad*%
%ADD15RoundRect,0.250000X-0.950000X-0.550000X0.950000X-0.550000X0.950000X0.550000X-0.950000X0.550000X0*%
%TD*%
%TA.AperFunction,ComponentPad*%
%ADD16O,2.400000X1.600000*%
%TD*%
%TA.AperFunction,ComponentPad*%
%ADD17RoundRect,0.250000X-0.550000X-0.550000X0.550000X-0.550000X0.550000X0.550000X-0.550000X0.550000X0*%
%TD*%
%TA.AperFunction,ComponentPad*%
%ADD18RoundRect,0.250000X-0.750000X-0.750000X0.750000X-0.750000X0.750000X0.750000X-0.750000X0.750000X0*%
%TD*%
%TA.AperFunction,ComponentPad*%
%ADD19C,2.000000*%
%TD*%
%TA.AperFunction,ComponentPad*%
%ADD20RoundRect,0.250000X0.550000X0.550000X-0.550000X0.550000X-0.550000X-0.550000X0.550000X-0.550000X0*%
%TD*%
%TA.AperFunction,ComponentPad*%
%ADD21C,2.340000*%
%TD*%
%TA.AperFunction,Conductor*%
%ADD22C,0.500000*%
%TD*%
%TA.AperFunction,Conductor*%
%ADD23C,1.000000*%
%TD*%
G04 APERTURE END LIST*
D10*
%TO.P,C3,1*%
%TO.N,GND*%
X141500000Y-101500000D03*
%TO.P,C3,2*%
%TO.N,Net-(U1-In)*%
X141500000Y-96500000D03*
%TD*%
D11*
%TO.P,IN1,1,Pin_1*%
%TO.N,Net-(IN1-Pin_1)*%
X162960000Y-115000000D03*
D12*
%TO.P,IN1,2,Pin_2*%
%TO.N,GND*%
X168040000Y-115000000D03*
%TD*%
D10*
%TO.P,R1,1*%
%TO.N,Net-(C1-Pad2)*%
X146500000Y-103000000D03*
%TO.P,R1,2*%
%TO.N,Net-(U1-In)*%
X146500000Y-95380000D03*
%TD*%
D13*
%TO.P,D1,1,K*%
%TO.N,GND*%
X132460000Y-88500000D03*
D14*
%TO.P,D1,2,A*%
%TO.N,Net-(D1-A)*%
X135000000Y-88500000D03*
%TD*%
D11*
%TO.P,OUT1,1,Pin_1*%
%TO.N,Net-(OUT1-Pin_1)*%
X157190000Y-81000000D03*
D12*
%TO.P,OUT1,2,Pin_2*%
%TO.N,GND*%
X152110000Y-81000000D03*
%TD*%
D10*
%TO.P,C5,1*%
%TO.N,GND*%
X142000000Y-90500000D03*
%TO.P,C5,2*%
%TO.N,Net-(U1-V+)*%
X147000000Y-90500000D03*
%TD*%
%TO.P,C1,1*%
%TO.N,Net-(C1-Pad1)*%
X155500000Y-105500000D03*
%TO.P,C1,2*%
%TO.N,Net-(C1-Pad2)*%
X150500000Y-105500000D03*
%TD*%
D15*
%TO.P,U1,1,V+*%
%TO.N,Net-(U1-V+)*%
X151190000Y-89750000D03*
D16*
%TO.P,U1,2,Out*%
%TO.N,Net-(U1-Out)*%
X151190000Y-92290000D03*
%TO.P,U1,3,SRV*%
%TO.N,Net-(U1-SRV)*%
X151190000Y-94830000D03*
%TO.P,U1,4,In*%
%TO.N,Net-(U1-In)*%
X151190000Y-97370000D03*
%TO.P,U1,5,GND*%
%TO.N,GND*%
X158810000Y-97370000D03*
%TO.P,U1,6,GND*%
X158810000Y-94830000D03*
%TO.P,U1,7,GND*%
X158810000Y-92290000D03*
%TO.P,U1,8,GND*%
X158810000Y-89750000D03*
%TD*%
D10*
%TO.P,R2,1*%
%TO.N,Net-(D1-A)*%
X139190000Y-85000000D03*
%TO.P,R2,2*%
%TO.N,Net-(U1-V+)*%
X146810000Y-85000000D03*
%TD*%
D11*
%TO.P,VCC1,1,Pin_1*%
%TO.N,Net-(U1-V+)*%
X132420000Y-115000000D03*
D12*
%TO.P,VCC1,2,Pin_2*%
%TO.N,GND*%
X137500000Y-115000000D03*
%TD*%
D17*
%TO.P,C2,1*%
%TO.N,Net-(U1-SRV)*%
X160197349Y-104000000D03*
D10*
%TO.P,C2,2*%
%TO.N,GND*%
X163997349Y-104000000D03*
%TD*%
D18*
%TO.P,C6,1*%
%TO.N,Net-(U1-Out)*%
X164132323Y-89500000D03*
D19*
%TO.P,C6,2*%
%TO.N,Net-(OUT1-Pin_1)*%
X169132323Y-89500000D03*
%TD*%
D20*
%TO.P,C4,1*%
%TO.N,Net-(U1-V+)*%
X135500000Y-100400000D03*
D10*
%TO.P,C4,2*%
%TO.N,GND*%
X131700000Y-100400000D03*
%TD*%
D21*
%TO.P,RV1,1,1*%
%TO.N,Net-(IN1-Pin_1)*%
X145000000Y-114750000D03*
%TO.P,RV1,2,2*%
%TO.N,Net-(C1-Pad1)*%
X150000000Y-114750000D03*
%TO.P,RV1,3,3*%
%TO.N,GND*%
X155000000Y-114750000D03*
%TD*%
D22*
%TO.N,Net-(C1-Pad2)*%
X150500000Y-105500000D02*
X149000000Y-105500000D01*
X149000000Y-105500000D02*
X146500000Y-103000000D01*
%TO.N,Net-(C1-Pad1)*%
X150000000Y-114650000D02*
X150000000Y-112500000D01*
X155500000Y-107000000D02*
X155500000Y-105500000D01*
X150000000Y-112500000D02*
X155500000Y-107000000D01*
%TO.N,Net-(U1-SRV)*%
X160197349Y-102747349D02*
X158300000Y-100850000D01*
X155000000Y-96500000D02*
X153500000Y-95000000D01*
X160197349Y-104000000D02*
X160197349Y-102747349D01*
X151360000Y-95000000D02*
X151190000Y-94830000D01*
X158300000Y-100850000D02*
X156350000Y-100850000D01*
X155000000Y-99500000D02*
X155000000Y-96500000D01*
X156350000Y-100850000D02*
X155000000Y-99500000D01*
X153500000Y-95000000D02*
X151360000Y-95000000D01*
%TO.N,Net-(U1-In)*%
X148370000Y-97370000D02*
X146500000Y-95500000D01*
X142520722Y-95500000D02*
X142640722Y-95380000D01*
X151190000Y-97370000D02*
X148370000Y-97370000D01*
X141500000Y-96500000D02*
X142500000Y-95500000D01*
X142500000Y-95500000D02*
X142520722Y-95500000D01*
X146500000Y-95500000D02*
X146500000Y-95380000D01*
X142640722Y-95380000D02*
X146500000Y-95380000D01*
D23*
%TO.N,Net-(U1-V+)*%
X147750000Y-89750000D02*
X151190000Y-89750000D01*
X147000000Y-90500000D02*
X147000000Y-85190000D01*
X135500000Y-97400000D02*
X140025000Y-92875000D01*
X147000000Y-90500000D02*
X147750000Y-89750000D01*
X135500000Y-111550000D02*
X135500000Y-100400000D01*
X140025000Y-92875000D02*
X144625000Y-92875000D01*
X135500000Y-100400000D02*
X135500000Y-97400000D01*
X132420000Y-114630000D02*
X135500000Y-111550000D01*
X144625000Y-92875000D02*
X147000000Y-90500000D01*
X132420000Y-115000000D02*
X132420000Y-114630000D01*
X147000000Y-85190000D02*
X146810000Y-85000000D01*
%TO.N,Net-(U1-Out)*%
X152960000Y-92290000D02*
X155000000Y-90250000D01*
X151190000Y-92290000D02*
X152960000Y-92290000D01*
X155000000Y-88250000D02*
X156250000Y-87000000D01*
X155000000Y-90250000D02*
X155000000Y-88250000D01*
X161632323Y-87000000D02*
X164132323Y-89500000D01*
X156250000Y-87000000D02*
X161632323Y-87000000D01*
%TO.N,Net-(OUT1-Pin_1)*%
X169132323Y-86860773D02*
X169085335Y-86860773D01*
X163224562Y-81000000D02*
X157190000Y-81000000D01*
X169085335Y-86860773D02*
X163224562Y-81000000D01*
X169132323Y-89500000D02*
X169132323Y-86860773D01*
D22*
%TO.N,Net-(D1-A)*%
X135000000Y-88500000D02*
X138500000Y-85000000D01*
X138500000Y-85000000D02*
X139190000Y-85000000D01*
%TO.N,Net-(IN1-Pin_1)*%
X161289000Y-116671000D02*
X147021000Y-116671000D01*
X162960000Y-115000000D02*
X161289000Y-116671000D01*
X147021000Y-116671000D02*
X145000000Y-114650000D01*
%TD*%
%TA.AperFunction,Conductor*%
%TO.N,GND*%
G36*
X155258038Y-79020185D02*
G01*
X155303793Y-79072989D01*
X155313737Y-79142147D01*
X155290265Y-79198810D01*
X155270238Y-79225562D01*
X155246204Y-79257668D01*
X155246202Y-79257671D01*
X155195908Y-79392517D01*
X155189501Y-79452116D01*
X155189501Y-79452123D01*
X155189500Y-79452135D01*
X155189500Y-82547870D01*
X155189501Y-82547876D01*
X155195908Y-82607483D01*
X155246202Y-82742328D01*
X155246206Y-82742335D01*
X155332452Y-82857544D01*
X155332455Y-82857547D01*
X155447664Y-82943793D01*
X155447671Y-82943797D01*
X155582517Y-82994091D01*
X155582516Y-82994091D01*
X155589444Y-82994835D01*
X155642127Y-83000500D01*
X158737872Y-83000499D01*
X158797483Y-82994091D01*
X158932331Y-82943796D01*
X159047546Y-82857546D01*
X159133796Y-82742331D01*
X159184091Y-82607483D01*
X159190500Y-82547873D01*
X159190500Y-82124500D01*
X159210185Y-82057461D01*
X159262989Y-82011706D01*
X159314500Y-82000500D01*
X162758780Y-82000500D01*
X162825819Y-82020185D01*
X162846461Y-82036819D01*
X168095504Y-87285862D01*
X168128989Y-87347185D01*
X168131823Y-87373543D01*
X168131823Y-88327111D01*
X168112138Y-88394150D01*
X168095504Y-88414792D01*
X167987808Y-88522487D01*
X167987808Y-88522488D01*
X167987806Y-88522490D01*
X167933526Y-88597200D01*
X167848980Y-88713566D01*
X167741756Y-88924003D01*
X167668769Y-89148631D01*
X167631823Y-89381902D01*
X167631823Y-89618097D01*
X167668769Y-89851368D01*
X167741756Y-90075996D01*
X167780207Y-90151459D01*
X167848980Y-90286433D01*
X167987806Y-90477510D01*
X168154813Y-90644517D01*
X168345890Y-90783343D01*
X168445314Y-90834002D01*
X168556326Y-90890566D01*
X168556328Y-90890566D01*
X168556331Y-90890568D01*
X168640367Y-90917873D01*
X168780954Y-90963553D01*
X169014226Y-91000500D01*
X169014231Y-91000500D01*
X169250420Y-91000500D01*
X169483691Y-90963553D01*
X169708315Y-90890568D01*
X169918756Y-90783343D01*
X170109833Y-90644517D01*
X170276840Y-90477510D01*
X170415666Y-90286433D01*
X170522891Y-90075992D01*
X170595876Y-89851368D01*
X170606512Y-89784217D01*
X170632823Y-89618097D01*
X170632823Y-89381902D01*
X170595876Y-89148631D01*
X170522889Y-88924003D01*
X170466325Y-88812991D01*
X170415666Y-88713567D01*
X170276840Y-88522490D01*
X170169142Y-88414792D01*
X170135657Y-88353469D01*
X170132823Y-88327111D01*
X170132823Y-86762229D01*
X170094375Y-86568943D01*
X170094374Y-86568942D01*
X170094374Y-86568938D01*
X170094372Y-86568933D01*
X170018958Y-86386865D01*
X170018951Y-86386852D01*
X169909462Y-86222991D01*
X169909459Y-86222987D01*
X169770108Y-86083636D01*
X169770104Y-86083633D01*
X169638651Y-85995799D01*
X169619861Y-85980378D01*
X167371005Y-83731522D01*
X165033195Y-81393713D01*
X167649500Y-81393713D01*
X167649500Y-81606286D01*
X167682753Y-81816239D01*
X167748444Y-82018414D01*
X167844951Y-82207820D01*
X167969890Y-82379786D01*
X168120213Y-82530109D01*
X168292179Y-82655048D01*
X168292181Y-82655049D01*
X168292184Y-82655051D01*
X168481588Y-82751557D01*
X168683757Y-82817246D01*
X168893713Y-82850500D01*
X168893714Y-82850500D01*
X169106286Y-82850500D01*
X169106287Y-82850500D01*
X169316243Y-82817246D01*
X169518412Y-82751557D01*
X169707816Y-82655051D01*
X169773290Y-82607482D01*
X169879786Y-82530109D01*
X169879788Y-82530106D01*
X169879792Y-82530104D01*
X170030104Y-82379792D01*
X170030106Y-82379788D01*
X170030109Y-82379786D01*
X170155048Y-82207820D01*
X170155047Y-82207820D01*
X170155051Y-82207816D01*
X170251557Y-82018412D01*
X170317246Y-81816243D01*
X170350500Y-81606287D01*
X170350500Y-81393713D01*
X170317246Y-81183757D01*
X170251557Y-80981588D01*
X170155051Y-80792184D01*
X170155049Y-80792181D01*
X170155048Y-80792179D01*
X170030109Y-80620213D01*
X169879786Y-80469890D01*
X169707820Y-80344951D01*
X169518414Y-80248444D01*
X169518413Y-80248443D01*
X169518412Y-80248443D01*
X169316243Y-80182754D01*
X169316241Y-80182753D01*
X169316240Y-80182753D01*
X169154957Y-80157208D01*
X169106287Y-80149500D01*
X168893713Y-80149500D01*
X168845042Y-80157208D01*
X168683760Y-80182753D01*
X168481585Y-80248444D01*
X168292179Y-80344951D01*
X168120213Y-80469890D01*
X167969890Y-80620213D01*
X167844951Y-80792179D01*
X167748444Y-80981585D01*
X167682753Y-81183760D01*
X167649500Y-81393713D01*
X165033195Y-81393713D01*
X164008770Y-80369288D01*
X164008768Y-80369285D01*
X164008768Y-80369286D01*
X164001701Y-80362219D01*
X164001701Y-80362218D01*
X163862344Y-80222861D01*
X163862343Y-80222860D01*
X163862342Y-80222859D01*
X163698482Y-80113371D01*
X163698473Y-80113366D01*
X163625877Y-80083296D01*
X163569727Y-80060038D01*
X163516398Y-80037949D01*
X163516394Y-80037948D01*
X163516390Y-80037946D01*
X163419750Y-80018724D01*
X163323106Y-79999500D01*
X163323103Y-79999500D01*
X159314499Y-79999500D01*
X159247460Y-79979815D01*
X159201705Y-79927011D01*
X159190499Y-79875500D01*
X159190499Y-79452129D01*
X159190498Y-79452123D01*
X159190497Y-79452116D01*
X159184091Y-79392517D01*
X159133796Y-79257669D01*
X159089734Y-79198810D01*
X159065317Y-79133348D01*
X159080168Y-79065075D01*
X159129573Y-79015669D01*
X159189001Y-79000500D01*
X171375500Y-79000500D01*
X171442539Y-79020185D01*
X171488294Y-79072989D01*
X171499500Y-79124500D01*
X171499500Y-116875500D01*
X171479815Y-116942539D01*
X171427011Y-116988294D01*
X171375500Y-116999500D01*
X164959001Y-116999500D01*
X164891962Y-116979815D01*
X164846207Y-116927011D01*
X164836263Y-116857853D01*
X164859734Y-116801189D01*
X164903796Y-116742331D01*
X164954091Y-116607483D01*
X164960500Y-116547873D01*
X164960499Y-113452128D01*
X164954091Y-113392517D01*
X164941235Y-113358049D01*
X164903797Y-113257671D01*
X164903793Y-113257664D01*
X164817547Y-113142455D01*
X164817544Y-113142452D01*
X164702335Y-113056206D01*
X164702328Y-113056202D01*
X164567482Y-113005908D01*
X164567483Y-113005908D01*
X164507883Y-112999501D01*
X164507881Y-112999500D01*
X164507873Y-112999500D01*
X164507864Y-112999500D01*
X161412129Y-112999500D01*
X161412123Y-112999501D01*
X161352516Y-113005908D01*
X161217671Y-113056202D01*
X161217664Y-113056206D01*
X161102455Y-113142452D01*
X161102452Y-113142455D01*
X161016206Y-113257664D01*
X161016202Y-113257671D01*
X160965908Y-113392517D01*
X160959501Y-113452116D01*
X160959500Y-113452127D01*
X160959500Y-114640516D01*
X160959501Y-115796500D01*
X160939816Y-115863539D01*
X160887013Y-115909294D01*
X160835501Y-115920500D01*
X151458910Y-115920500D01*
X151391871Y-115900815D01*
X151346116Y-115848011D01*
X151336172Y-115778853D01*
X151360534Y-115721014D01*
X151375300Y-115701768D01*
X151391950Y-115680071D01*
X151501440Y-115490428D01*
X151585241Y-115288117D01*
X151641917Y-115076598D01*
X151670500Y-114859490D01*
X151670500Y-114640510D01*
X151641917Y-114423402D01*
X151585241Y-114211883D01*
X151501440Y-114009572D01*
X151500591Y-114008102D01*
X151391950Y-113819929D01*
X151258644Y-113646201D01*
X151258638Y-113646194D01*
X151103805Y-113491361D01*
X151103798Y-113491355D01*
X150930070Y-113358049D01*
X150812500Y-113290170D01*
X150764284Y-113239603D01*
X150750500Y-113182783D01*
X150750500Y-112862229D01*
X150770185Y-112795190D01*
X150786819Y-112774548D01*
X155667654Y-107893713D01*
X167649500Y-107893713D01*
X167649500Y-108106286D01*
X167682753Y-108316239D01*
X167748444Y-108518414D01*
X167844951Y-108707820D01*
X167969890Y-108879786D01*
X168120213Y-109030109D01*
X168292179Y-109155048D01*
X168292181Y-109155049D01*
X168292184Y-109155051D01*
X168481588Y-109251557D01*
X168683757Y-109317246D01*
X168893713Y-109350500D01*
X168893714Y-109350500D01*
X169106286Y-109350500D01*
X169106287Y-109350500D01*
X169316243Y-109317246D01*
X169518412Y-109251557D01*
X169707816Y-109155051D01*
X169729789Y-109139086D01*
X169879786Y-109030109D01*
X169879788Y-109030106D01*
X169879792Y-109030104D01*
X170030104Y-108879792D01*
X170030106Y-108879788D01*
X170030109Y-108879786D01*
X170155048Y-108707820D01*
X170155047Y-108707820D01*
X170155051Y-108707816D01*
X170251557Y-108518412D01*
X170317246Y-108316243D01*
X170350500Y-108106287D01*
X170350500Y-107893713D01*
X170317246Y-107683757D01*
X170251557Y-107481588D01*
X170155051Y-107292184D01*
X170155049Y-107292181D01*
X170155048Y-107292179D01*
X170030109Y-107120213D01*
X169879786Y-106969890D01*
X169707820Y-106844951D01*
X169518414Y-106748444D01*
X169518413Y-106748443D01*
X169518412Y-106748443D01*
X169316243Y-106682754D01*
X169316241Y-106682753D01*
X169316240Y-106682753D01*
X169154957Y-106657208D01*
X169106287Y-106649500D01*
X168893713Y-106649500D01*
X168845042Y-106657208D01*
X168683760Y-106682753D01*
X168481585Y-106748444D01*
X168292179Y-106844951D01*
X168120213Y-106969890D01*
X167969890Y-107120213D01*
X167844951Y-107292179D01*
X167748444Y-107481585D01*
X167682753Y-107683760D01*
X167649500Y-107893713D01*
X155667654Y-107893713D01*
X155760207Y-107801160D01*
X155877610Y-107683757D01*
X156082952Y-107478415D01*
X156110205Y-107437627D01*
X156165084Y-107355495D01*
X156191308Y-107292184D01*
X156221659Y-107218912D01*
X156250500Y-107073917D01*
X156250500Y-106926082D01*
X156250500Y-106625416D01*
X156270185Y-106558377D01*
X156301613Y-106525099D01*
X156347219Y-106491966D01*
X156491966Y-106347219D01*
X156491968Y-106347215D01*
X156491971Y-106347213D01*
X156562236Y-106250500D01*
X156612287Y-106181610D01*
X156705220Y-105999219D01*
X156768477Y-105804534D01*
X156800500Y-105602352D01*
X156800500Y-105397648D01*
X156768477Y-105195466D01*
X156705220Y-105000781D01*
X156705218Y-105000778D01*
X156705218Y-105000776D01*
X156638244Y-104869334D01*
X156612287Y-104818390D01*
X156557008Y-104742304D01*
X156491971Y-104652786D01*
X156347213Y-104508028D01*
X156181613Y-104387715D01*
X156181612Y-104387714D01*
X156181610Y-104387713D01*
X156124653Y-104358691D01*
X155999223Y-104294781D01*
X155804534Y-104231522D01*
X155629995Y-104203878D01*
X155602352Y-104199500D01*
X155397648Y-104199500D01*
X155373329Y-104203351D01*
X155195465Y-104231522D01*
X155000776Y-104294781D01*
X154818386Y-104387715D01*
X154652786Y-104508028D01*
X154508028Y-104652786D01*
X154387715Y-104818386D01*
X154294781Y-105000776D01*
X154231522Y-105195465D01*
X154199500Y-105397648D01*
X154199500Y-105602351D01*
X154231522Y-105804534D01*
X154294781Y-105999223D01*
X154387715Y-106181613D01*
X154508028Y-106347213D01*
X154508034Y-106347219D01*
X154652781Y-106491966D01*
X154698384Y-106525098D01*
X154701724Y-106529429D01*
X154706703Y-106531703D01*
X154722832Y-106556801D01*
X154741050Y-106580425D01*
X154742303Y-106587098D01*
X154744477Y-106590481D01*
X154749500Y-106625416D01*
X154749500Y-106637769D01*
X154729815Y-106704808D01*
X154713181Y-106725450D01*
X149417050Y-112021580D01*
X149417044Y-112021588D01*
X149367812Y-112095268D01*
X149367813Y-112095269D01*
X149334921Y-112144496D01*
X149334916Y-112144506D01*
X149278342Y-112281086D01*
X149278340Y-112281092D01*
X149249500Y-112426079D01*
X149249500Y-113182783D01*
X149229815Y-113249822D01*
X149187500Y-113290170D01*
X149069929Y-113358049D01*
X148896201Y-113491355D01*
X148896194Y-113491361D01*
X148741361Y-113646194D01*
X148741355Y-113646201D01*
X148608049Y-113819929D01*
X148498565Y-114009561D01*
X148498560Y-114009573D01*
X148414758Y-114211884D01*
X148358084Y-114423399D01*
X148358082Y-114423410D01*
X148329500Y-114640502D01*
X148329500Y-114859497D01*
X148353306Y-115040314D01*
X148358083Y-115076598D01*
X148386421Y-115182357D01*
X148404180Y-115248638D01*
X148414759Y-115288117D01*
X148498560Y-115490428D01*
X148498562Y-115490433D01*
X148498565Y-115490438D01*
X148608049Y-115680070D01*
X148639466Y-115721014D01*
X148664660Y-115786184D01*
X148650621Y-115854628D01*
X148601807Y-115904618D01*
X148541090Y-115920500D01*
X147383229Y-115920500D01*
X147316190Y-115900815D01*
X147295548Y-115884181D01*
X146660006Y-115248638D01*
X146626521Y-115187315D01*
X146627912Y-115128863D01*
X146641916Y-115076600D01*
X146641917Y-115076598D01*
X146670500Y-114859490D01*
X146670500Y-114640510D01*
X146641917Y-114423402D01*
X146585241Y-114211883D01*
X146501440Y-114009572D01*
X146500591Y-114008102D01*
X146391950Y-113819929D01*
X146258644Y-113646201D01*
X146258638Y-113646194D01*
X146103805Y-113491361D01*
X146103798Y-113491355D01*
X145930070Y-113358049D01*
X145740438Y-113248565D01*
X145740433Y-113248562D01*
X145740428Y-113248560D01*
X145538117Y-113164759D01*
X145538118Y-113164759D01*
X145538115Y-113164758D01*
X145432357Y-113136421D01*
X145326598Y-113108083D01*
X145290314Y-113103306D01*
X145109497Y-113079500D01*
X145109490Y-113079500D01*
X144890510Y-113079500D01*
X144890502Y-113079500D01*
X144683853Y-113106707D01*
X144673402Y-113108083D01*
X144628699Y-113120060D01*
X144461884Y-113164758D01*
X144343374Y-113213847D01*
X144259572Y-113248560D01*
X144259569Y-113248561D01*
X144259561Y-113248565D01*
X144069929Y-113358049D01*
X143896201Y-113491355D01*
X143896194Y-113491361D01*
X143741361Y-113646194D01*
X143741355Y-113646201D01*
X143608049Y-113819929D01*
X143498565Y-114009561D01*
X143498560Y-114009573D01*
X143414758Y-114211884D01*
X143358084Y-114423399D01*
X143358082Y-114423410D01*
X143329500Y-114640502D01*
X143329500Y-114859497D01*
X143353306Y-115040314D01*
X143358083Y-115076598D01*
X143386421Y-115182357D01*
X143404180Y-115248638D01*
X143414759Y-115288117D01*
X143498560Y-115490428D01*
X143498562Y-115490433D01*
X143498565Y-115490438D01*
X143608049Y-115680070D01*
X143741355Y-115853798D01*
X143741361Y-115853805D01*
X143896194Y-116008638D01*
X143896201Y-116008644D01*
X144069929Y-116141950D01*
X144259561Y-116251434D01*
X144259563Y-116251434D01*
X144259572Y-116251440D01*
X144461883Y-116335241D01*
X144673402Y-116391917D01*
X144890510Y-116420500D01*
X144890517Y-116420500D01*
X145109483Y-116420500D01*
X145109490Y-116420500D01*
X145326598Y-116391917D01*
X145536601Y-116335647D01*
X145606448Y-116337310D01*
X145656373Y-116367741D01*
X145896115Y-116607483D01*
X146076452Y-116787819D01*
X146109937Y-116849142D01*
X146104953Y-116918833D01*
X146063082Y-116974767D01*
X145997617Y-116999184D01*
X145988771Y-116999500D01*
X134419001Y-116999500D01*
X134351962Y-116979815D01*
X134306207Y-116927011D01*
X134296263Y-116857853D01*
X134319734Y-116801189D01*
X134363796Y-116742331D01*
X134414091Y-116607483D01*
X134420500Y-116547873D01*
X134420499Y-114095782D01*
X134440184Y-114028744D01*
X134456818Y-114008102D01*
X135356837Y-113108084D01*
X136277140Y-112187781D01*
X136306056Y-112144505D01*
X136386632Y-112023914D01*
X136462051Y-111841835D01*
X136500500Y-111648541D01*
X136500500Y-102897648D01*
X145199500Y-102897648D01*
X145199500Y-103102351D01*
X145231522Y-103304534D01*
X145294781Y-103499223D01*
X145387715Y-103681613D01*
X145508028Y-103847213D01*
X145652786Y-103991971D01*
X145807749Y-104104556D01*
X145818390Y-104112287D01*
X145934607Y-104171503D01*
X146000776Y-104205218D01*
X146000778Y-104205218D01*
X146000781Y-104205220D01*
X146105137Y-104239127D01*
X146195465Y-104268477D01*
X146279564Y-104281797D01*
X146397648Y-104300500D01*
X146397649Y-104300500D01*
X146602350Y-104300500D01*
X146602352Y-104300500D01*
X146658026Y-104291681D01*
X146727318Y-104300635D01*
X146765105Y-104326473D01*
X148521586Y-106082954D01*
X148551058Y-106102645D01*
X148595270Y-106132186D01*
X148644505Y-106165084D01*
X148644506Y-106165084D01*
X148644507Y-106165085D01*
X148644509Y-106165086D01*
X148781082Y-106221656D01*
X148781087Y-106221658D01*
X148781091Y-106221658D01*
X148781092Y-106221659D01*
X148926079Y-106250500D01*
X148926082Y-106250500D01*
X148926083Y-106250500D01*
X149073917Y-106250500D01*
X149374582Y-106250500D01*
X149441621Y-106270185D01*
X149474900Y-106301615D01*
X149508028Y-106347212D01*
X149508032Y-106347217D01*
X149652786Y-106491971D01*
X149774535Y-106580425D01*
X149818390Y-106612287D01*
X149891425Y-106649500D01*
X150000776Y-106705218D01*
X150000778Y-106705218D01*
X150000781Y-106705220D01*
X150063043Y-106725450D01*
X150195465Y-106768477D01*
X150296557Y-106784488D01*
X150397648Y-106800500D01*
X150397649Y-106800500D01*
X150602351Y-106800500D01*
X150602352Y-106800500D01*
X150804534Y-106768477D01*
X150999219Y-106705220D01*
X151181610Y-106612287D01*
X151301619Y-106525096D01*
X151347213Y-106491971D01*
X151347215Y-106491968D01*
X151347219Y-106491966D01*
X151491966Y-106347219D01*
X151491968Y-106347215D01*
X151491971Y-106347213D01*
X151562236Y-106250500D01*
X151612287Y-106181610D01*
X151705220Y-105999219D01*
X151768477Y-105804534D01*
X151800500Y-105602352D01*
X151800500Y-105397648D01*
X151768477Y-105195466D01*
X151705220Y-105000781D01*
X151705218Y-105000778D01*
X151705218Y-105000776D01*
X151638244Y-104869334D01*
X151612287Y-104818390D01*
X151557008Y-104742304D01*
X151491971Y-104652786D01*
X151347213Y-104508028D01*
X151181613Y-104387715D01*
X151181612Y-104387714D01*
X151181610Y-104387713D01*
X151124653Y-104358691D01*
X150999223Y-104294781D01*
X150804534Y-104231522D01*
X150629995Y-104203878D01*
X150602352Y-104199500D01*
X150397648Y-104199500D01*
X150373329Y-104203351D01*
X150195465Y-104231522D01*
X150000776Y-104294781D01*
X149818386Y-104387715D01*
X149652786Y-104508028D01*
X149508032Y-104652782D01*
X149508028Y-104652787D01*
X149474900Y-104698385D01*
X149470568Y-104701725D01*
X149468295Y-104706703D01*
X149443195Y-104722833D01*
X149419571Y-104741051D01*
X149412897Y-104742304D01*
X149409517Y-104744477D01*
X149374582Y-104749500D01*
X149362230Y-104749500D01*
X149295191Y-104729815D01*
X149274549Y-104713181D01*
X147826473Y-103265105D01*
X147792988Y-103203782D01*
X147791681Y-103158027D01*
X147800500Y-103102352D01*
X147800500Y-102897648D01*
X147779520Y-102765186D01*
X147768477Y-102695465D01*
X147739127Y-102605137D01*
X147705220Y-102500781D01*
X147705218Y-102500778D01*
X147705218Y-102500776D01*
X147649720Y-102391857D01*
X147612287Y-102318390D01*
X147576355Y-102268933D01*
X147491971Y-102152786D01*
X147347213Y-102008028D01*
X147181613Y-101887715D01*
X147181612Y-101887714D01*
X147181610Y-101887713D01*
X147124653Y-101858691D01*
X146999223Y-101794781D01*
X146804534Y-101731522D01*
X146629995Y-101703878D01*
X146602352Y-101699500D01*
X146397648Y-101699500D01*
X146373329Y-101703351D01*
X146195465Y-101731522D01*
X146000776Y-101794781D01*
X145818386Y-101887715D01*
X145652786Y-102008028D01*
X145508028Y-102152786D01*
X145387715Y-102318386D01*
X145294781Y-102500776D01*
X145231522Y-102695465D01*
X145199500Y-102897648D01*
X136500500Y-102897648D01*
X136500500Y-101612230D01*
X136520185Y-101545191D01*
X136536819Y-101524549D01*
X136546288Y-101515080D01*
X136642712Y-101418656D01*
X136734814Y-101269334D01*
X136789999Y-101102797D01*
X136800500Y-101000009D01*
X136800499Y-99799992D01*
X136789999Y-99697203D01*
X136734814Y-99530666D01*
X136642712Y-99381344D01*
X136536818Y-99275450D01*
X136503334Y-99214127D01*
X136500500Y-99187769D01*
X136500500Y-97865782D01*
X136520185Y-97798743D01*
X136536819Y-97778101D01*
X140403102Y-93911819D01*
X140464425Y-93878334D01*
X140490783Y-93875500D01*
X144723542Y-93875500D01*
X144754566Y-93869328D01*
X144820188Y-93856275D01*
X144916836Y-93837051D01*
X144970165Y-93814961D01*
X145098914Y-93761632D01*
X145262782Y-93652139D01*
X145402139Y-93512782D01*
X145402140Y-93512779D01*
X145409206Y-93505714D01*
X145409209Y-93505710D01*
X147088203Y-91826715D01*
X147149524Y-91793232D01*
X147156473Y-91791927D01*
X147304534Y-91768477D01*
X147499219Y-91705220D01*
X147681610Y-91612287D01*
X147774590Y-91544732D01*
X147847213Y-91491971D01*
X147847215Y-91491968D01*
X147847219Y-91491966D01*
X147991966Y-91347219D01*
X147991968Y-91347215D01*
X147991971Y-91347213D01*
X148044732Y-91274590D01*
X148112287Y-91181610D01*
X148205220Y-90999219D01*
X148258194Y-90836182D01*
X148297632Y-90778506D01*
X148361990Y-90751308D01*
X148376125Y-90750500D01*
X149577769Y-90750500D01*
X149644808Y-90770185D01*
X149665450Y-90786818D01*
X149771344Y-90892712D01*
X149920666Y-90984814D01*
X150002570Y-91011954D01*
X150060015Y-91051727D01*
X150086838Y-91116243D01*
X150074523Y-91185018D01*
X150036451Y-91229978D01*
X149942787Y-91298028D01*
X149942782Y-91298032D01*
X149798028Y-91442786D01*
X149677715Y-91608386D01*
X149584781Y-91790776D01*
X149521522Y-91985465D01*
X149489500Y-92187648D01*
X149489500Y-92392351D01*
X149521522Y-92594534D01*
X149584781Y-92789223D01*
X149648691Y-92914653D01*
X149655381Y-92927782D01*
X149677715Y-92971613D01*
X149798028Y-93137213D01*
X149942786Y-93281971D01*
X150097749Y-93394556D01*
X150108390Y-93402287D01*
X150199840Y-93448883D01*
X150201080Y-93449515D01*
X150251876Y-93497490D01*
X150268671Y-93565311D01*
X150246134Y-93631446D01*
X150201080Y-93670485D01*
X150108386Y-93717715D01*
X149942786Y-93838028D01*
X149798028Y-93982786D01*
X149677715Y-94148386D01*
X149584781Y-94330776D01*
X149521522Y-94525465D01*
X149489500Y-94727648D01*
X149489500Y-94932351D01*
X149521522Y-95134534D01*
X149584781Y-95329223D01*
X149614584Y-95387713D01*
X149662805Y-95482352D01*
X149677715Y-95511613D01*
X149798028Y-95677213D01*
X149942786Y-95821971D01*
X150073654Y-95917050D01*
X150108390Y-95942287D01*
X150199840Y-95988883D01*
X150201080Y-95989515D01*
X150251876Y-96037490D01*
X150268671Y-96105311D01*
X150246134Y-96171446D01*
X150201080Y-96210485D01*
X150108386Y-96257715D01*
X149942786Y-96378028D01*
X149798032Y-96522782D01*
X149798028Y-96522787D01*
X149764900Y-96568385D01*
X149709571Y-96611051D01*
X149664582Y-96619500D01*
X148732229Y-96619500D01*
X148665190Y-96599815D01*
X148644548Y-96583181D01*
X147810066Y-95748699D01*
X147776581Y-95687376D01*
X147775274Y-95641620D01*
X147800500Y-95482351D01*
X147800500Y-95277648D01*
X147768477Y-95075465D01*
X147717004Y-94917048D01*
X147705220Y-94880781D01*
X147705218Y-94880778D01*
X147705218Y-94880776D01*
X147641683Y-94756083D01*
X147612287Y-94698390D01*
X147583190Y-94658341D01*
X147491971Y-94532786D01*
X147347213Y-94388028D01*
X147181613Y-94267715D01*
X147181612Y-94267714D01*
X147181610Y-94267713D01*
X147107231Y-94229815D01*
X146999223Y-94174781D01*
X146804534Y-94111522D01*
X146629995Y-94083878D01*
X146602352Y-94079500D01*
X146397648Y-94079500D01*
X146373329Y-94083351D01*
X146195465Y-94111522D01*
X146000776Y-94174781D01*
X145818386Y-94267715D01*
X145652786Y-94388028D01*
X145508032Y-94532782D01*
X145508028Y-94532787D01*
X145474900Y-94578385D01*
X145419571Y-94621051D01*
X145374582Y-94629500D01*
X142566798Y-94629500D01*
X142537964Y-94635234D01*
X142537965Y-94635235D01*
X142421815Y-94658339D01*
X142421805Y-94658342D01*
X142341803Y-94691479D01*
X142341804Y-94691480D01*
X142285228Y-94714915D01*
X142223616Y-94756083D01*
X142162305Y-94797049D01*
X142162300Y-94797053D01*
X142092664Y-94866688D01*
X142073876Y-94882107D01*
X142021585Y-94917047D01*
X142021579Y-94917052D01*
X141765105Y-95173526D01*
X141703782Y-95207011D01*
X141658026Y-95208318D01*
X141602352Y-95199500D01*
X141397648Y-95199500D01*
X141373329Y-95203351D01*
X141195465Y-95231522D01*
X141000776Y-95294781D01*
X140818386Y-95387715D01*
X140652786Y-95508028D01*
X140508028Y-95652786D01*
X140387715Y-95818386D01*
X140294781Y-96000776D01*
X140231522Y-96195465D01*
X140199500Y-96397648D01*
X140199500Y-96602351D01*
X140231522Y-96804534D01*
X140294781Y-96999223D01*
X140387715Y-97181613D01*
X140508028Y-97347213D01*
X140652786Y-97491971D01*
X140807749Y-97604556D01*
X140818390Y-97612287D01*
X140934607Y-97671503D01*
X141000776Y-97705218D01*
X141000778Y-97705218D01*
X141000781Y-97705220D01*
X141105137Y-97739127D01*
X141195465Y-97768477D01*
X141296557Y-97784488D01*
X141397648Y-97800500D01*
X141397649Y-97800500D01*
X141602351Y-97800500D01*
X141602352Y-97800500D01*
X141804534Y-97768477D01*
X141999219Y-97705220D01*
X142181610Y-97612287D01*
X142274590Y-97544732D01*
X142347213Y-97491971D01*
X142347215Y-97491968D01*
X142347219Y-97491966D01*
X142491966Y-97347219D01*
X142491968Y-97347215D01*
X142491971Y-97347213D01*
X142549777Y-97267648D01*
X142612287Y-97181610D01*
X142705220Y-96999219D01*
X142768477Y-96804534D01*
X142800500Y-96602352D01*
X142800500Y-96397648D01*
X142791681Y-96341971D01*
X142792382Y-96336545D01*
X142790470Y-96331418D01*
X142796811Y-96302269D01*
X142800635Y-96272680D01*
X142804468Y-96267073D01*
X142805323Y-96263146D01*
X142826470Y-96234896D01*
X142894550Y-96166817D01*
X142955874Y-96133333D01*
X142982230Y-96130500D01*
X145374582Y-96130500D01*
X145441621Y-96150185D01*
X145474900Y-96181615D01*
X145508028Y-96227212D01*
X145508032Y-96227217D01*
X145652786Y-96371971D01*
X145807749Y-96484556D01*
X145818390Y-96492287D01*
X145878248Y-96522786D01*
X146000776Y-96585218D01*
X146000778Y-96585218D01*
X146000781Y-96585220D01*
X146045700Y-96599815D01*
X146195465Y-96648477D01*
X146296557Y-96664488D01*
X146397648Y-96680500D01*
X146397649Y-96680500D01*
X146567770Y-96680500D01*
X146634809Y-96700185D01*
X146655451Y-96716819D01*
X147240089Y-97301456D01*
X147787048Y-97848415D01*
X147787049Y-97848416D01*
X147891584Y-97952951D01*
X147891585Y-97952952D01*
X148014498Y-98035080D01*
X148014511Y-98035087D01*
X148151082Y-98091656D01*
X148151087Y-98091658D01*
X148151091Y-98091658D01*
X148151092Y-98091659D01*
X148296079Y-98120500D01*
X148296082Y-98120500D01*
X149664582Y-98120500D01*
X149731621Y-98140185D01*
X149764900Y-98171615D01*
X149798028Y-98217212D01*
X149798032Y-98217217D01*
X149942786Y-98361971D01*
X150097749Y-98474556D01*
X150108390Y-98482287D01*
X150224607Y-98541503D01*
X150290776Y-98575218D01*
X150290778Y-98575218D01*
X150290781Y-98575220D01*
X150395137Y-98609127D01*
X150485465Y-98638477D01*
X150586557Y-98654488D01*
X150687648Y-98670500D01*
X150687649Y-98670500D01*
X151692351Y-98670500D01*
X151692352Y-98670500D01*
X151894534Y-98638477D01*
X152089219Y-98575220D01*
X152271610Y-98482287D01*
X152364590Y-98414732D01*
X152437213Y-98361971D01*
X152437215Y-98361968D01*
X152437219Y-98361966D01*
X152581966Y-98217219D01*
X152581968Y-98217215D01*
X152581971Y-98217213D01*
X152652236Y-98120500D01*
X152702287Y-98051610D01*
X152795220Y-97869219D01*
X152858477Y-97674534D01*
X152890500Y-97472352D01*
X152890500Y-97267648D01*
X152858477Y-97065466D01*
X152795220Y-96870781D01*
X152795218Y-96870778D01*
X152795218Y-96870776D01*
X152746187Y-96774548D01*
X152702287Y-96688390D01*
X152654678Y-96622861D01*
X152581971Y-96522786D01*
X152437213Y-96378028D01*
X152271614Y-96257715D01*
X152211758Y-96227217D01*
X152178917Y-96210483D01*
X152128123Y-96162511D01*
X152111328Y-96094690D01*
X152133865Y-96028555D01*
X152178917Y-95989516D01*
X152271610Y-95942287D01*
X152306347Y-95917049D01*
X152437213Y-95821971D01*
X152437215Y-95821968D01*
X152437219Y-95821966D01*
X152472366Y-95786819D01*
X152533689Y-95753334D01*
X152560047Y-95750500D01*
X153137770Y-95750500D01*
X153204809Y-95770185D01*
X153225451Y-95786819D01*
X154213181Y-96774548D01*
X154246666Y-96835871D01*
X154249500Y-96862229D01*
X154249500Y-99573918D01*
X154249500Y-99573920D01*
X154249499Y-99573920D01*
X154278340Y-99718907D01*
X154278343Y-99718917D01*
X154334914Y-99855492D01*
X154367812Y-99904727D01*
X154367813Y-99904730D01*
X154417046Y-99978414D01*
X154417052Y-99978421D01*
X155871580Y-101432948D01*
X155871584Y-101432951D01*
X155994498Y-101515080D01*
X155994511Y-101515087D01*
X156088239Y-101553910D01*
X156131087Y-101571658D01*
X156131091Y-101571658D01*
X156131092Y-101571659D01*
X156276079Y-101600500D01*
X156276082Y-101600500D01*
X156423917Y-101600500D01*
X157937770Y-101600500D01*
X158004809Y-101620185D01*
X158025451Y-101636819D01*
X159124625Y-102735992D01*
X159158110Y-102797315D01*
X159153126Y-102867007D01*
X159124626Y-102911353D01*
X159054638Y-102981342D01*
X158962536Y-103130663D01*
X158962535Y-103130666D01*
X158907350Y-103297203D01*
X158907350Y-103297204D01*
X158907349Y-103297204D01*
X158896849Y-103399983D01*
X158896849Y-104600001D01*
X158896850Y-104600018D01*
X158907349Y-104702796D01*
X158907350Y-104702799D01*
X158945652Y-104818386D01*
X158962535Y-104869334D01*
X159054637Y-105018656D01*
X159178693Y-105142712D01*
X159328015Y-105234814D01*
X159494552Y-105289999D01*
X159597340Y-105300500D01*
X160797357Y-105300499D01*
X160900146Y-105289999D01*
X161066683Y-105234814D01*
X161216005Y-105142712D01*
X161340061Y-105018656D01*
X161432163Y-104869334D01*
X161487348Y-104702797D01*
X161497849Y-104600009D01*
X161497848Y-103399992D01*
X161487348Y-103297203D01*
X161432163Y-103130666D01*
X161340061Y-102981344D01*
X161216005Y-102857288D01*
X161066683Y-102765186D01*
X161052229Y-102760396D01*
X161027529Y-102752211D01*
X161017292Y-102745123D01*
X161005175Y-102742260D01*
X160989107Y-102725609D01*
X160970085Y-102712438D01*
X160964131Y-102699725D01*
X160956659Y-102691981D01*
X160944918Y-102658697D01*
X160927962Y-102573453D01*
X160919008Y-102528437D01*
X160876562Y-102425965D01*
X160862433Y-102391854D01*
X160813343Y-102318386D01*
X160780303Y-102268937D01*
X160780302Y-102268936D01*
X160780300Y-102268933D01*
X160675765Y-102164398D01*
X160210867Y-101699500D01*
X158778421Y-100267052D01*
X158778414Y-100267046D01*
X158704729Y-100217812D01*
X158704729Y-100217813D01*
X158655491Y-100184913D01*
X158518917Y-100128343D01*
X158518907Y-100128340D01*
X158373920Y-100099500D01*
X158373918Y-100099500D01*
X156712229Y-100099500D01*
X156645190Y-100079815D01*
X156624548Y-100063181D01*
X155786819Y-99225451D01*
X155753334Y-99164128D01*
X155750500Y-99137770D01*
X155750500Y-96426079D01*
X155721659Y-96281092D01*
X155721658Y-96281091D01*
X155721658Y-96281087D01*
X155699345Y-96227219D01*
X155665087Y-96144511D01*
X155665080Y-96144498D01*
X155582952Y-96021585D01*
X155550882Y-95989515D01*
X155478416Y-95917049D01*
X155202987Y-95641620D01*
X153978421Y-94417052D01*
X153978420Y-94417051D01*
X153978416Y-94417048D01*
X153880440Y-94351584D01*
X153880438Y-94351581D01*
X153855495Y-94334916D01*
X153855490Y-94334913D01*
X153718917Y-94278343D01*
X153718907Y-94278340D01*
X153573920Y-94249500D01*
X153573918Y-94249500D01*
X152829793Y-94249500D01*
X152762754Y-94229815D01*
X152719309Y-94181796D01*
X152702286Y-94148388D01*
X152581971Y-93982786D01*
X152437213Y-93838028D01*
X152271614Y-93717715D01*
X152265006Y-93714348D01*
X152178917Y-93670483D01*
X152128123Y-93622511D01*
X152111328Y-93554690D01*
X152133865Y-93488555D01*
X152178917Y-93449516D01*
X152271610Y-93402287D01*
X152392877Y-93314181D01*
X152458683Y-93290702D01*
X152465762Y-93290500D01*
X153058542Y-93290500D01*
X153089566Y-93284328D01*
X153155188Y-93271275D01*
X153251836Y-93252051D01*
X153305165Y-93229961D01*
X153433914Y-93176632D01*
X153597782Y-93067139D01*
X153737139Y-92927782D01*
X153737139Y-92927780D01*
X153747347Y-92917573D01*
X153747348Y-92917570D01*
X155777140Y-90887781D01*
X155886632Y-90723914D01*
X155962052Y-90541835D01*
X156000500Y-90348540D01*
X156000500Y-90151459D01*
X156000500Y-88715782D01*
X156020185Y-88648743D01*
X156036819Y-88628101D01*
X156628101Y-88036819D01*
X156689424Y-88003334D01*
X156715782Y-88000500D01*
X161166541Y-88000500D01*
X161233580Y-88020185D01*
X161254222Y-88036819D01*
X162595504Y-89378101D01*
X162628989Y-89439424D01*
X162631823Y-89465782D01*
X162631823Y-90300001D01*
X162631824Y-90300019D01*
X162642323Y-90402796D01*
X162642324Y-90402799D01*
X162667082Y-90477512D01*
X162697509Y-90569334D01*
X162789611Y-90718656D01*
X162913667Y-90842712D01*
X163062989Y-90934814D01*
X163229526Y-90989999D01*
X163332314Y-91000500D01*
X164932331Y-91000499D01*
X164944862Y-90999219D01*
X164950218Y-90998671D01*
X165035120Y-90989999D01*
X165201657Y-90934814D01*
X165350979Y-90842712D01*
X165475035Y-90718656D01*
X165567137Y-90569334D01*
X165622322Y-90402797D01*
X165632823Y-90300009D01*
X165632822Y-88699992D01*
X165630474Y-88677011D01*
X165622322Y-88597203D01*
X165622321Y-88597200D01*
X165567137Y-88430666D01*
X165475035Y-88281344D01*
X165350979Y-88157288D01*
X165201657Y-88065186D01*
X165035120Y-88010001D01*
X165035118Y-88010000D01*
X164932339Y-87999500D01*
X164932332Y-87999500D01*
X164098105Y-87999500D01*
X164031066Y-87979815D01*
X164010424Y-87963181D01*
X162413802Y-86366559D01*
X162413782Y-86366537D01*
X162270108Y-86222863D01*
X162270104Y-86222860D01*
X162106243Y-86113371D01*
X162106234Y-86113366D01*
X162033638Y-86083296D01*
X161977488Y-86060038D01*
X161924159Y-86037949D01*
X161924155Y-86037948D01*
X161924151Y-86037946D01*
X161827511Y-86018724D01*
X161730867Y-85999500D01*
X161730864Y-85999500D01*
X156151459Y-85999500D01*
X156151455Y-85999500D01*
X156054812Y-86018724D01*
X155958167Y-86037947D01*
X155958161Y-86037949D01*
X155904834Y-86060037D01*
X155904834Y-86060038D01*
X155859315Y-86078892D01*
X155776089Y-86113366D01*
X155776079Y-86113371D01*
X155612219Y-86222859D01*
X155566602Y-86268477D01*
X155472861Y-86362218D01*
X155472858Y-86362221D01*
X154362221Y-87472858D01*
X154362218Y-87472861D01*
X154292538Y-87542540D01*
X154222859Y-87612219D01*
X154113371Y-87776079D01*
X154113364Y-87776092D01*
X154037950Y-87958160D01*
X154037947Y-87958170D01*
X153999500Y-88151456D01*
X153999500Y-89784217D01*
X153979815Y-89851256D01*
X153963181Y-89871898D01*
X152945706Y-90889372D01*
X152884383Y-90922857D01*
X152814691Y-90917873D01*
X152758758Y-90876001D01*
X152734341Y-90810537D01*
X152749193Y-90742264D01*
X152752472Y-90736618D01*
X152824814Y-90619334D01*
X152879999Y-90452797D01*
X152890500Y-90350009D01*
X152890499Y-89149992D01*
X152879999Y-89047203D01*
X152824814Y-88880666D01*
X152732712Y-88731344D01*
X152608656Y-88607288D01*
X152471176Y-88522490D01*
X152459336Y-88515187D01*
X152459331Y-88515185D01*
X152457862Y-88514698D01*
X152292797Y-88460001D01*
X152292795Y-88460000D01*
X152190010Y-88449500D01*
X150189998Y-88449500D01*
X150189981Y-88449501D01*
X150087203Y-88460000D01*
X150087200Y-88460001D01*
X149920668Y-88515185D01*
X149920663Y-88515187D01*
X149771345Y-88607287D01*
X149665450Y-88713182D01*
X149604127Y-88746666D01*
X149577769Y-88749500D01*
X148124500Y-88749500D01*
X148057461Y-88729815D01*
X148011706Y-88677011D01*
X148000500Y-88625500D01*
X148000500Y-85557878D01*
X148013488Y-85503778D01*
X148013354Y-85503723D01*
X148013705Y-85502874D01*
X148014016Y-85501581D01*
X148015220Y-85499219D01*
X148078477Y-85304534D01*
X148110500Y-85102352D01*
X148110500Y-84897648D01*
X148078477Y-84695466D01*
X148015220Y-84500781D01*
X148015218Y-84500778D01*
X148015218Y-84500776D01*
X147969531Y-84411112D01*
X147922287Y-84318390D01*
X147914556Y-84307749D01*
X147801971Y-84152786D01*
X147657213Y-84008028D01*
X147491613Y-83887715D01*
X147491612Y-83887714D01*
X147491610Y-83887713D01*
X147434653Y-83858691D01*
X147309223Y-83794781D01*
X147114534Y-83731522D01*
X146939995Y-83703878D01*
X146912352Y-83699500D01*
X146707648Y-83699500D01*
X146683329Y-83703351D01*
X146505465Y-83731522D01*
X146310776Y-83794781D01*
X146128386Y-83887715D01*
X145962786Y-84008028D01*
X145818028Y-84152786D01*
X145697715Y-84318386D01*
X145604781Y-84500776D01*
X145541522Y-84695465D01*
X145509500Y-84897648D01*
X145509500Y-85102351D01*
X145541522Y-85304534D01*
X145604781Y-85499223D01*
X145697715Y-85681613D01*
X145818028Y-85847213D01*
X145963181Y-85992366D01*
X145996666Y-86053689D01*
X145999500Y-86080047D01*
X145999500Y-89624237D01*
X145979815Y-89691276D01*
X145975818Y-89697122D01*
X145887715Y-89818386D01*
X145794781Y-90000778D01*
X145731522Y-90195468D01*
X145708073Y-90343515D01*
X145678143Y-90406649D01*
X145673281Y-90411797D01*
X144246899Y-91838181D01*
X144185576Y-91871666D01*
X144159218Y-91874500D01*
X139926456Y-91874500D01*
X139733171Y-91912946D01*
X139733167Y-91912948D01*
X139733165Y-91912948D01*
X139733164Y-91912949D01*
X139657745Y-91944188D01*
X139657743Y-91944189D01*
X139551089Y-91988366D01*
X139551079Y-91988371D01*
X139387218Y-92097860D01*
X139387214Y-92097863D01*
X135977051Y-95508028D01*
X134862220Y-96622859D01*
X134862218Y-96622861D01*
X134806874Y-96678205D01*
X134722859Y-96762219D01*
X134613371Y-96926079D01*
X134613364Y-96926092D01*
X134537950Y-97108160D01*
X134537947Y-97108170D01*
X134499500Y-97301456D01*
X134499500Y-99187769D01*
X134479815Y-99254808D01*
X134463182Y-99275450D01*
X134357287Y-99381345D01*
X134265187Y-99530663D01*
X134265186Y-99530666D01*
X134210001Y-99697203D01*
X134210001Y-99697204D01*
X134210000Y-99697204D01*
X134199500Y-99799983D01*
X134199500Y-101000001D01*
X134199501Y-101000018D01*
X134210000Y-101102796D01*
X134210001Y-101102799D01*
X134265185Y-101269331D01*
X134265187Y-101269336D01*
X134357289Y-101418657D01*
X134463181Y-101524549D01*
X134496666Y-101585872D01*
X134499500Y-101612230D01*
X134499500Y-111084217D01*
X134479815Y-111151256D01*
X134463181Y-111171898D01*
X132671897Y-112963181D01*
X132610574Y-112996666D01*
X132584216Y-112999500D01*
X130872129Y-112999500D01*
X130872123Y-112999501D01*
X130812516Y-113005908D01*
X130677671Y-113056202D01*
X130677664Y-113056206D01*
X130562455Y-113142452D01*
X130562452Y-113142455D01*
X130476206Y-113257664D01*
X130476202Y-113257671D01*
X130425908Y-113392517D01*
X130419501Y-113452116D01*
X130419501Y-113452123D01*
X130419500Y-113452135D01*
X130419500Y-116547870D01*
X130419501Y-116547876D01*
X130425908Y-116607483D01*
X130476202Y-116742328D01*
X130476204Y-116742331D01*
X130520265Y-116801189D01*
X130544683Y-116866652D01*
X130529832Y-116934925D01*
X130480427Y-116984331D01*
X130420999Y-116999500D01*
X129624500Y-116999500D01*
X129557461Y-116979815D01*
X129511706Y-116927011D01*
X129500500Y-116875500D01*
X129500500Y-107893713D01*
X130649500Y-107893713D01*
X130649500Y-108106286D01*
X130682753Y-108316239D01*
X130748444Y-108518414D01*
X130844951Y-108707820D01*
X130969890Y-108879786D01*
X131120213Y-109030109D01*
X131292179Y-109155048D01*
X131292181Y-109155049D01*
X131292184Y-109155051D01*
X131481588Y-109251557D01*
X131683757Y-109317246D01*
X131893713Y-109350500D01*
X131893714Y-109350500D01*
X132106286Y-109350500D01*
X132106287Y-109350500D01*
X132316243Y-109317246D01*
X132518412Y-109251557D01*
X132707816Y-109155051D01*
X132729789Y-109139086D01*
X132879786Y-109030109D01*
X132879788Y-109030106D01*
X132879792Y-109030104D01*
X133030104Y-108879792D01*
X133030106Y-108879788D01*
X133030109Y-108879786D01*
X133155048Y-108707820D01*
X133155047Y-108707820D01*
X133155051Y-108707816D01*
X133251557Y-108518412D01*
X133317246Y-108316243D01*
X133350500Y-108106287D01*
X133350500Y-107893713D01*
X133317246Y-107683757D01*
X133251557Y-107481588D01*
X133155051Y-107292184D01*
X133155049Y-107292181D01*
X133155048Y-107292179D01*
X133030109Y-107120213D01*
X132879786Y-106969890D01*
X132707820Y-106844951D01*
X132518414Y-106748444D01*
X132518413Y-106748443D01*
X132518412Y-106748443D01*
X132316243Y-106682754D01*
X132316241Y-106682753D01*
X132316240Y-106682753D01*
X132154957Y-106657208D01*
X132106287Y-106649500D01*
X131893713Y-106649500D01*
X131845042Y-106657208D01*
X131683760Y-106682753D01*
X131481585Y-106748444D01*
X131292179Y-106844951D01*
X131120213Y-106969890D01*
X130969890Y-107120213D01*
X130844951Y-107292179D01*
X130748444Y-107481585D01*
X130682753Y-107683760D01*
X130649500Y-107893713D01*
X129500500Y-107893713D01*
X129500500Y-88389778D01*
X133599500Y-88389778D01*
X133599500Y-88610222D01*
X133613718Y-88699992D01*
X133633985Y-88827952D01*
X133702103Y-89037603D01*
X133702104Y-89037606D01*
X133802187Y-89234025D01*
X133931752Y-89412358D01*
X133931756Y-89412363D01*
X134087636Y-89568243D01*
X134087641Y-89568247D01*
X134164706Y-89624237D01*
X134265978Y-89697815D01*
X134394375Y-89763237D01*
X134462393Y-89797895D01*
X134462396Y-89797896D01*
X134525472Y-89818390D01*
X134672049Y-89866015D01*
X134889778Y-89900500D01*
X134889779Y-89900500D01*
X135110221Y-89900500D01*
X135110222Y-89900500D01*
X135327951Y-89866015D01*
X135537606Y-89797895D01*
X135734022Y-89697815D01*
X135912365Y-89568242D01*
X136068242Y-89412365D01*
X136197815Y-89234022D01*
X136297895Y-89037606D01*
X136366015Y-88827951D01*
X136400500Y-88610222D01*
X136400500Y-88389778D01*
X136379084Y-88254566D01*
X136388038Y-88185276D01*
X136413873Y-88147493D01*
X138405397Y-86155969D01*
X138466718Y-86122486D01*
X138536410Y-86127470D01*
X138549366Y-86133165D01*
X138594125Y-86155971D01*
X138690774Y-86205217D01*
X138690777Y-86205217D01*
X138690781Y-86205220D01*
X138825245Y-86248910D01*
X138885465Y-86268477D01*
X138986557Y-86284488D01*
X139087648Y-86300500D01*
X139087649Y-86300500D01*
X139292351Y-86300500D01*
X139292352Y-86300500D01*
X139494534Y-86268477D01*
X139689219Y-86205220D01*
X139871610Y-86112287D01*
X139973931Y-86037947D01*
X140037213Y-85991971D01*
X140037215Y-85991968D01*
X140037219Y-85991966D01*
X140181966Y-85847219D01*
X140181968Y-85847215D01*
X140181971Y-85847213D01*
X140234732Y-85774590D01*
X140302287Y-85681610D01*
X140393358Y-85502874D01*
X140395218Y-85499223D01*
X140395218Y-85499222D01*
X140395220Y-85499219D01*
X140458477Y-85304534D01*
X140490500Y-85102352D01*
X140490500Y-84897648D01*
X140458477Y-84695466D01*
X140395220Y-84500781D01*
X140395218Y-84500778D01*
X140395218Y-84500776D01*
X140349531Y-84411112D01*
X140302287Y-84318390D01*
X140294556Y-84307749D01*
X140181971Y-84152786D01*
X140037213Y-84008028D01*
X139871613Y-83887715D01*
X139871612Y-83887714D01*
X139871610Y-83887713D01*
X139814653Y-83858691D01*
X139689223Y-83794781D01*
X139494534Y-83731522D01*
X139319995Y-83703878D01*
X139292352Y-83699500D01*
X139087648Y-83699500D01*
X139063329Y-83703351D01*
X138885465Y-83731522D01*
X138690776Y-83794781D01*
X138508386Y-83887715D01*
X138342786Y-84008028D01*
X138198028Y-84152786D01*
X138077713Y-84318388D01*
X138042445Y-84387605D01*
X138019642Y-84418990D01*
X135352508Y-87086122D01*
X135291185Y-87119607D01*
X135245429Y-87120914D01*
X135110227Y-87099500D01*
X135110222Y-87099500D01*
X134889778Y-87099500D01*
X134817201Y-87110995D01*
X134672047Y-87133985D01*
X134462396Y-87202103D01*
X134462393Y-87202104D01*
X134265974Y-87302187D01*
X134087641Y-87431752D01*
X134087636Y-87431756D01*
X133931756Y-87587636D01*
X133931752Y-87587641D01*
X133802187Y-87765974D01*
X133702104Y-87962393D01*
X133702103Y-87962396D01*
X133633985Y-88172047D01*
X133605251Y-88353469D01*
X133599500Y-88389778D01*
X129500500Y-88389778D01*
X129500500Y-81393713D01*
X130649500Y-81393713D01*
X130649500Y-81606286D01*
X130682753Y-81816239D01*
X130748444Y-82018414D01*
X130844951Y-82207820D01*
X130969890Y-82379786D01*
X131120213Y-82530109D01*
X131292179Y-82655048D01*
X131292181Y-82655049D01*
X131292184Y-82655051D01*
X131481588Y-82751557D01*
X131683757Y-82817246D01*
X131893713Y-82850500D01*
X131893714Y-82850500D01*
X132106286Y-82850500D01*
X132106287Y-82850500D01*
X132316243Y-82817246D01*
X132518412Y-82751557D01*
X132707816Y-82655051D01*
X132773290Y-82607482D01*
X132879786Y-82530109D01*
X132879788Y-82530106D01*
X132879792Y-82530104D01*
X133030104Y-82379792D01*
X133030106Y-82379788D01*
X133030109Y-82379786D01*
X133155048Y-82207820D01*
X133155047Y-82207820D01*
X133155051Y-82207816D01*
X133251557Y-82018412D01*
X133317246Y-81816243D01*
X133350500Y-81606287D01*
X133350500Y-81393713D01*
X133317246Y-81183757D01*
X133251557Y-80981588D01*
X133155051Y-80792184D01*
X133155049Y-80792181D01*
X133155048Y-80792179D01*
X133030109Y-80620213D01*
X132879786Y-80469890D01*
X132707820Y-80344951D01*
X132518414Y-80248444D01*
X132518413Y-80248443D01*
X132518412Y-80248443D01*
X132316243Y-80182754D01*
X132316241Y-80182753D01*
X132316240Y-80182753D01*
X132154957Y-80157208D01*
X132106287Y-80149500D01*
X131893713Y-80149500D01*
X131845042Y-80157208D01*
X131683760Y-80182753D01*
X131481585Y-80248444D01*
X131292179Y-80344951D01*
X131120213Y-80469890D01*
X130969890Y-80620213D01*
X130844951Y-80792179D01*
X130748444Y-80981585D01*
X130682753Y-81183760D01*
X130649500Y-81393713D01*
X129500500Y-81393713D01*
X129500500Y-79124500D01*
X129520185Y-79057461D01*
X129572989Y-79011706D01*
X129624500Y-79000500D01*
X155190999Y-79000500D01*
X155258038Y-79020185D01*
G37*
%TD.AperFunction*%
%TD*%
M02*
