%TF.GenerationSoftware,KiCad,Pcbnew,9.0.4*%
%TF.CreationDate,2025-08-29T10:18:42+02:00*%
%TF.ProjectId,TDA7267,54444137-3236-4372-9e6b-696361645f70,rev?*%
%TF.SameCoordinates,Original*%
%TF.FileFunction,Copper,L1,Top*%
%TF.FilePolarity,Positive*%
%FSLAX46Y46*%
G04 Gerber Fmt 4.6, Leading zero omitted, Abs format (unit mm)*
G04 Created by KiCad (PCBNEW 9.0.4) date 2025-08-29 10:18:42*
%MOMM*%
%LPD*%
G01*
G04 APERTURE LIST*
G04 Aperture macros list*
%AMRoundRect*
0 Rectangle with rounded corners*
0 $1 Rounding radius*
0 $2 $3 $4 $5 $6 $7 $8 $9 X,Y pos of 4 corners*
0 Add a 4 corners polygon primitive as box body*
4,1,4,$2,$3,$4,$5,$6,$7,$8,$9,$2,$3,0*
0 Add four circle primitives for the rounded corners*
1,1,$1+$1,$2,$3*
1,1,$1+$1,$4,$5*
1,1,$1+$1,$6,$7*
1,1,$1+$1,$8,$9*
0 Add four rect primitives between the rounded corners*
20,1,$1+$1,$2,$3,$4,$5,0*
20,1,$1+$1,$4,$5,$6,$7,0*
20,1,$1+$1,$6,$7,$8,$9,0*
20,1,$1+$1,$8,$9,$2,$3,0*%
G04 Aperture macros list end*
%TA.AperFunction,ComponentPad*%
%ADD10C,1.600000*%
%TD*%
%TA.AperFunction,ComponentPad*%
%ADD11R,3.000000X3.000000*%
%TD*%
%TA.AperFunction,ComponentPad*%
%ADD12C,3.000000*%
%TD*%
%TA.AperFunction,ComponentPad*%
%ADD13R,1.800000X1.800000*%
%TD*%
%TA.AperFunction,ComponentPad*%
%ADD14C,1.800000*%
%TD*%
%TA.AperFunction,ComponentPad*%
%ADD15RoundRect,0.250000X-0.950000X-0.550000X0.950000X-0.550000X0.950000X0.550000X-0.950000X0.550000X0*%
%TD*%
%TA.AperFunction,ComponentPad*%
%ADD16O,2.400000X1.600000*%
%TD*%
%TA.AperFunction,ComponentPad*%
%ADD17RoundRect,0.250000X-0.550000X-0.550000X0.550000X-0.550000X0.550000X0.550000X-0.550000X0.550000X0*%
%TD*%
%TA.AperFunction,ComponentPad*%
%ADD18RoundRect,0.250000X-0.750000X-0.750000X0.750000X-0.750000X0.750000X0.750000X-0.750000X0.750000X0*%
%TD*%
%TA.AperFunction,ComponentPad*%
%ADD19C,2.000000*%
%TD*%
%TA.AperFunction,ComponentPad*%
%ADD20RoundRect,0.250000X0.550000X0.550000X-0.550000X0.550000X-0.550000X-0.550000X0.550000X-0.550000X0*%
%TD*%
%TA.AperFunction,ComponentPad*%
%ADD21C,2.340000*%
%TD*%
G04 APERTURE END LIST*
D10*
%TO.P,C3,1*%
%TO.N,GND*%
X141700000Y-103560000D03*
%TO.P,C3,2*%
%TO.N,Net-(U1-In)*%
X141700000Y-98560000D03*
%TD*%
D11*
%TO.P,IN1,1,Pin_1*%
%TO.N,Net-(IN1-Pin_1)*%
X162960000Y-115000000D03*
D12*
%TO.P,IN1,2,Pin_2*%
%TO.N,GND*%
X168040000Y-115000000D03*
%TD*%
D10*
%TO.P,R1,1*%
%TO.N,Net-(C1-Pad2)*%
X146700000Y-105060000D03*
%TO.P,R1,2*%
%TO.N,Net-(U1-In)*%
X146700000Y-97440000D03*
%TD*%
D13*
%TO.P,D1,1,K*%
%TO.N,GND*%
X132460000Y-88500000D03*
D14*
%TO.P,D1,2,A*%
%TO.N,Net-(D1-A)*%
X135000000Y-88500000D03*
%TD*%
D11*
%TO.P,OUT1,1,Pin_1*%
%TO.N,Net-(OUT1-Pin_1)*%
X158800000Y-81000000D03*
D12*
%TO.P,OUT1,2,Pin_2*%
%TO.N,GND*%
X153720000Y-81000000D03*
%TD*%
D10*
%TO.P,C5,1*%
%TO.N,GND*%
X142000000Y-90500000D03*
%TO.P,C5,2*%
%TO.N,Net-(U1-V+)*%
X147000000Y-90500000D03*
%TD*%
%TO.P,C1,1*%
%TO.N,Net-(C1-Pad1)*%
X157500000Y-104750000D03*
%TO.P,C1,2*%
%TO.N,Net-(C1-Pad2)*%
X152500000Y-104750000D03*
%TD*%
D15*
%TO.P,U1,1,V+*%
%TO.N,Net-(U1-V+)*%
X151190000Y-89750000D03*
D16*
%TO.P,U1,2,Out*%
%TO.N,Net-(U1-Out)*%
X151190000Y-92290000D03*
%TO.P,U1,3,SRV*%
%TO.N,Net-(U1-SRV)*%
X151190000Y-94830000D03*
%TO.P,U1,4,In*%
%TO.N,Net-(U1-In)*%
X151190000Y-97370000D03*
%TO.P,U1,5,GND*%
%TO.N,GND*%
X158810000Y-97370000D03*
%TO.P,U1,6,GND*%
X158810000Y-94830000D03*
%TO.P,U1,7,GND*%
X158810000Y-92290000D03*
%TO.P,U1,8,GND*%
X158810000Y-89750000D03*
%TD*%
D10*
%TO.P,R2,1*%
%TO.N,Net-(D1-A)*%
X139190000Y-85000000D03*
%TO.P,R2,2*%
%TO.N,Net-(U1-V+)*%
X146810000Y-85000000D03*
%TD*%
D11*
%TO.P,VCC1,1,Pin_1*%
%TO.N,Net-(U1-V+)*%
X132420000Y-115000000D03*
D12*
%TO.P,VCC1,2,Pin_2*%
%TO.N,GND*%
X137500000Y-115000000D03*
%TD*%
D17*
%TO.P,C2,1*%
%TO.N,Net-(U1-SRV)*%
X164750000Y-100600000D03*
D10*
%TO.P,C2,2*%
%TO.N,GND*%
X168550000Y-100600000D03*
%TD*%
D18*
%TO.P,C6,1*%
%TO.N,Net-(U1-Out)*%
X164132323Y-89500000D03*
D19*
%TO.P,C6,2*%
%TO.N,Net-(OUT1-Pin_1)*%
X169132323Y-89500000D03*
%TD*%
D20*
%TO.P,C4,1*%
%TO.N,Net-(U1-V+)*%
X135500000Y-100400000D03*
D10*
%TO.P,C4,2*%
%TO.N,GND*%
X131700000Y-100400000D03*
%TD*%
D21*
%TO.P,RV1,1,1*%
%TO.N,Net-(IN1-Pin_1)*%
X145000000Y-114750000D03*
%TO.P,RV1,2,2*%
%TO.N,Net-(C1-Pad1)*%
X150000000Y-114750000D03*
%TO.P,RV1,3,3*%
%TO.N,GND*%
X155000000Y-114750000D03*
%TD*%
%TA.AperFunction,Conductor*%
%TO.N,GND*%
G36*
X156868038Y-79020185D02*
G01*
X156913793Y-79072989D01*
X156923737Y-79142147D01*
X156900265Y-79198810D01*
X156880238Y-79225562D01*
X156856204Y-79257668D01*
X156856202Y-79257671D01*
X156805908Y-79392517D01*
X156801294Y-79435438D01*
X156799501Y-79452123D01*
X156799500Y-79452135D01*
X156799500Y-82547870D01*
X156799501Y-82547876D01*
X156805908Y-82607483D01*
X156856202Y-82742328D01*
X156856206Y-82742335D01*
X156942452Y-82857544D01*
X156942455Y-82857547D01*
X157057664Y-82943793D01*
X157057671Y-82943797D01*
X157192517Y-82994091D01*
X157192516Y-82994091D01*
X157199444Y-82994835D01*
X157252127Y-83000500D01*
X160347872Y-83000499D01*
X160407483Y-82994091D01*
X160542331Y-82943796D01*
X160657546Y-82857546D01*
X160743796Y-82742331D01*
X160794091Y-82607483D01*
X160800500Y-82547873D01*
X160800499Y-81362332D01*
X166899500Y-81362332D01*
X166899500Y-81637667D01*
X166899501Y-81637684D01*
X166935438Y-81910655D01*
X166935439Y-81910660D01*
X166935440Y-81910666D01*
X166935441Y-81910668D01*
X167006704Y-82176630D01*
X167112075Y-82431017D01*
X167112080Y-82431028D01*
X167179543Y-82547876D01*
X167249751Y-82669479D01*
X167249753Y-82669482D01*
X167249754Y-82669483D01*
X167417370Y-82887926D01*
X167417376Y-82887933D01*
X167612066Y-83082623D01*
X167612072Y-83082628D01*
X167830521Y-83250249D01*
X167983778Y-83338732D01*
X168068971Y-83387919D01*
X168068976Y-83387921D01*
X168068979Y-83387923D01*
X168323368Y-83493295D01*
X168589334Y-83564560D01*
X168862326Y-83600500D01*
X168862333Y-83600500D01*
X169137667Y-83600500D01*
X169137674Y-83600500D01*
X169410666Y-83564560D01*
X169676632Y-83493295D01*
X169931021Y-83387923D01*
X170169479Y-83250249D01*
X170387928Y-83082628D01*
X170582628Y-82887928D01*
X170750249Y-82669479D01*
X170887923Y-82431021D01*
X170993295Y-82176632D01*
X171064560Y-81910666D01*
X171100500Y-81637674D01*
X171100500Y-81362326D01*
X171064560Y-81089334D01*
X170993295Y-80823368D01*
X170887923Y-80568979D01*
X170887921Y-80568976D01*
X170887919Y-80568971D01*
X170838732Y-80483778D01*
X170750249Y-80330521D01*
X170582628Y-80112072D01*
X170582623Y-80112066D01*
X170387933Y-79917376D01*
X170387926Y-79917370D01*
X170169483Y-79749754D01*
X170169482Y-79749753D01*
X170169479Y-79749751D01*
X170074407Y-79694861D01*
X169931028Y-79612080D01*
X169931017Y-79612075D01*
X169676630Y-79506704D01*
X169543649Y-79471072D01*
X169410666Y-79435440D01*
X169410660Y-79435439D01*
X169410655Y-79435438D01*
X169137684Y-79399501D01*
X169137679Y-79399500D01*
X169137674Y-79399500D01*
X168862326Y-79399500D01*
X168862320Y-79399500D01*
X168862315Y-79399501D01*
X168589344Y-79435438D01*
X168589337Y-79435439D01*
X168589334Y-79435440D01*
X168533125Y-79450500D01*
X168323369Y-79506704D01*
X168068982Y-79612075D01*
X168068971Y-79612080D01*
X167830516Y-79749754D01*
X167612073Y-79917370D01*
X167612066Y-79917376D01*
X167417376Y-80112066D01*
X167417370Y-80112073D01*
X167249754Y-80330516D01*
X167112080Y-80568971D01*
X167112075Y-80568982D01*
X167006704Y-80823369D01*
X166935441Y-81089331D01*
X166935438Y-81089344D01*
X166899501Y-81362315D01*
X166899500Y-81362332D01*
X160800499Y-81362332D01*
X160800499Y-80823369D01*
X160800499Y-79452129D01*
X160800498Y-79452123D01*
X160800497Y-79452116D01*
X160794091Y-79392517D01*
X160743796Y-79257669D01*
X160699734Y-79198810D01*
X160675317Y-79133348D01*
X160690168Y-79065075D01*
X160739573Y-79015669D01*
X160799001Y-79000500D01*
X171375500Y-79000500D01*
X171442539Y-79020185D01*
X171488294Y-79072989D01*
X171499500Y-79124500D01*
X171499500Y-116875500D01*
X171479815Y-116942539D01*
X171427011Y-116988294D01*
X171375500Y-116999500D01*
X164959001Y-116999500D01*
X164891962Y-116979815D01*
X164846207Y-116927011D01*
X164836263Y-116857853D01*
X164859734Y-116801189D01*
X164903796Y-116742331D01*
X164954091Y-116607483D01*
X164960500Y-116547873D01*
X164960499Y-113452128D01*
X164954091Y-113392517D01*
X164941235Y-113358049D01*
X164903797Y-113257671D01*
X164903793Y-113257664D01*
X164817547Y-113142455D01*
X164817544Y-113142452D01*
X164702335Y-113056206D01*
X164702328Y-113056202D01*
X164567482Y-113005908D01*
X164567483Y-113005908D01*
X164507883Y-112999501D01*
X164507881Y-112999500D01*
X164507873Y-112999500D01*
X164507864Y-112999500D01*
X161412129Y-112999500D01*
X161412123Y-112999501D01*
X161352516Y-113005908D01*
X161217671Y-113056202D01*
X161217664Y-113056206D01*
X161102455Y-113142452D01*
X161102452Y-113142455D01*
X161016206Y-113257664D01*
X161016202Y-113257671D01*
X160965908Y-113392517D01*
X160959501Y-113452116D01*
X160959501Y-113452123D01*
X160959500Y-113452135D01*
X160959500Y-116547870D01*
X160959501Y-116547876D01*
X160965908Y-116607483D01*
X161016202Y-116742328D01*
X161016204Y-116742331D01*
X161060265Y-116801189D01*
X161084683Y-116866652D01*
X161069832Y-116934925D01*
X161020427Y-116984331D01*
X160960999Y-116999500D01*
X134419001Y-116999500D01*
X134351962Y-116979815D01*
X134306207Y-116927011D01*
X134296263Y-116857853D01*
X134319734Y-116801189D01*
X134363796Y-116742331D01*
X134414091Y-116607483D01*
X134420500Y-116547873D01*
X134420499Y-114640502D01*
X143329500Y-114640502D01*
X143329500Y-114859497D01*
X143353306Y-115040314D01*
X143358083Y-115076598D01*
X143414759Y-115288117D01*
X143498560Y-115490428D01*
X143498562Y-115490433D01*
X143498565Y-115490438D01*
X143608049Y-115680070D01*
X143741355Y-115853798D01*
X143741361Y-115853805D01*
X143896194Y-116008638D01*
X143896201Y-116008644D01*
X144069929Y-116141950D01*
X144259561Y-116251434D01*
X144259563Y-116251434D01*
X144259572Y-116251440D01*
X144461883Y-116335241D01*
X144673402Y-116391917D01*
X144890510Y-116420500D01*
X144890517Y-116420500D01*
X145109483Y-116420500D01*
X145109490Y-116420500D01*
X145326598Y-116391917D01*
X145538117Y-116335241D01*
X145740428Y-116251440D01*
X145930071Y-116141950D01*
X146103800Y-116008643D01*
X146258643Y-115853800D01*
X146391950Y-115680071D01*
X146501440Y-115490428D01*
X146585241Y-115288117D01*
X146641917Y-115076598D01*
X146670500Y-114859490D01*
X146670500Y-114640510D01*
X146670499Y-114640502D01*
X148329500Y-114640502D01*
X148329500Y-114859497D01*
X148353306Y-115040314D01*
X148358083Y-115076598D01*
X148414759Y-115288117D01*
X148498560Y-115490428D01*
X148498562Y-115490433D01*
X148498565Y-115490438D01*
X148608049Y-115680070D01*
X148741355Y-115853798D01*
X148741361Y-115853805D01*
X148896194Y-116008638D01*
X148896201Y-116008644D01*
X149069929Y-116141950D01*
X149259561Y-116251434D01*
X149259563Y-116251434D01*
X149259572Y-116251440D01*
X149461883Y-116335241D01*
X149673402Y-116391917D01*
X149890510Y-116420500D01*
X149890517Y-116420500D01*
X150109483Y-116420500D01*
X150109490Y-116420500D01*
X150326598Y-116391917D01*
X150538117Y-116335241D01*
X150740428Y-116251440D01*
X150930071Y-116141950D01*
X151103800Y-116008643D01*
X151258643Y-115853800D01*
X151391950Y-115680071D01*
X151501440Y-115490428D01*
X151585241Y-115288117D01*
X151641917Y-115076598D01*
X151670500Y-114859490D01*
X151670500Y-114640510D01*
X151641917Y-114423402D01*
X151585241Y-114211883D01*
X151501440Y-114009572D01*
X151391950Y-113819929D01*
X151258643Y-113646200D01*
X151258638Y-113646194D01*
X151103805Y-113491361D01*
X151103798Y-113491355D01*
X150930070Y-113358049D01*
X150740438Y-113248565D01*
X150740433Y-113248562D01*
X150740428Y-113248560D01*
X150538117Y-113164759D01*
X150538118Y-113164759D01*
X150538115Y-113164758D01*
X150432357Y-113136421D01*
X150326598Y-113108083D01*
X150290314Y-113103306D01*
X150109497Y-113079500D01*
X150109490Y-113079500D01*
X149890510Y-113079500D01*
X149890502Y-113079500D01*
X149683853Y-113106707D01*
X149673402Y-113108083D01*
X149628699Y-113120060D01*
X149461884Y-113164758D01*
X149343374Y-113213847D01*
X149259572Y-113248560D01*
X149259569Y-113248561D01*
X149259561Y-113248565D01*
X149069929Y-113358049D01*
X148896201Y-113491355D01*
X148896194Y-113491361D01*
X148741361Y-113646194D01*
X148741355Y-113646201D01*
X148608049Y-113819929D01*
X148498565Y-114009561D01*
X148498560Y-114009573D01*
X148414758Y-114211884D01*
X148358084Y-114423399D01*
X148358082Y-114423410D01*
X148329500Y-114640502D01*
X146670499Y-114640502D01*
X146641917Y-114423402D01*
X146585241Y-114211883D01*
X146501440Y-114009572D01*
X146391950Y-113819929D01*
X146258643Y-113646200D01*
X146258638Y-113646194D01*
X146103805Y-113491361D01*
X146103798Y-113491355D01*
X145930070Y-113358049D01*
X145740438Y-113248565D01*
X145740433Y-113248562D01*
X145740428Y-113248560D01*
X145538117Y-113164759D01*
X145538118Y-113164759D01*
X145538115Y-113164758D01*
X145432357Y-113136421D01*
X145326598Y-113108083D01*
X145290314Y-113103306D01*
X145109497Y-113079500D01*
X145109490Y-113079500D01*
X144890510Y-113079500D01*
X144890502Y-113079500D01*
X144683853Y-113106707D01*
X144673402Y-113108083D01*
X144628699Y-113120060D01*
X144461884Y-113164758D01*
X144343374Y-113213847D01*
X144259572Y-113248560D01*
X144259569Y-113248561D01*
X144259561Y-113248565D01*
X144069929Y-113358049D01*
X143896201Y-113491355D01*
X143896194Y-113491361D01*
X143741361Y-113646194D01*
X143741355Y-113646201D01*
X143608049Y-113819929D01*
X143498565Y-114009561D01*
X143498560Y-114009573D01*
X143414758Y-114211884D01*
X143358084Y-114423399D01*
X143358082Y-114423410D01*
X143329500Y-114640502D01*
X134420499Y-114640502D01*
X134420499Y-113452128D01*
X134414091Y-113392517D01*
X134401235Y-113358049D01*
X134363797Y-113257671D01*
X134363793Y-113257664D01*
X134277547Y-113142455D01*
X134277544Y-113142452D01*
X134162335Y-113056206D01*
X134162328Y-113056202D01*
X134027482Y-113005908D01*
X134027483Y-113005908D01*
X133967883Y-112999501D01*
X133967881Y-112999500D01*
X133967873Y-112999500D01*
X133967864Y-112999500D01*
X130872129Y-112999500D01*
X130872123Y-112999501D01*
X130812516Y-113005908D01*
X130677671Y-113056202D01*
X130677664Y-113056206D01*
X130562455Y-113142452D01*
X130562452Y-113142455D01*
X130476206Y-113257664D01*
X130476202Y-113257671D01*
X130425908Y-113392517D01*
X130419501Y-113452116D01*
X130419501Y-113452123D01*
X130419500Y-113452135D01*
X130419500Y-116547870D01*
X130419501Y-116547876D01*
X130425908Y-116607483D01*
X130476202Y-116742328D01*
X130476204Y-116742331D01*
X130520265Y-116801189D01*
X130544683Y-116866652D01*
X130529832Y-116934925D01*
X130480427Y-116984331D01*
X130420999Y-116999500D01*
X129624500Y-116999500D01*
X129557461Y-116979815D01*
X129511706Y-116927011D01*
X129500500Y-116875500D01*
X129500500Y-107862332D01*
X129899500Y-107862332D01*
X129899500Y-108137667D01*
X129899501Y-108137684D01*
X129935438Y-108410655D01*
X129935439Y-108410660D01*
X129935440Y-108410666D01*
X129935441Y-108410668D01*
X130006704Y-108676630D01*
X130112075Y-108931017D01*
X130112080Y-108931028D01*
X130194861Y-109074407D01*
X130249751Y-109169479D01*
X130249753Y-109169482D01*
X130249754Y-109169483D01*
X130417370Y-109387926D01*
X130417376Y-109387933D01*
X130612066Y-109582623D01*
X130612072Y-109582628D01*
X130830521Y-109750249D01*
X130983778Y-109838732D01*
X131068971Y-109887919D01*
X131068976Y-109887921D01*
X131068979Y-109887923D01*
X131323368Y-109993295D01*
X131589334Y-110064560D01*
X131862326Y-110100500D01*
X131862333Y-110100500D01*
X132137667Y-110100500D01*
X132137674Y-110100500D01*
X132410666Y-110064560D01*
X132676632Y-109993295D01*
X132931021Y-109887923D01*
X133169479Y-109750249D01*
X133387928Y-109582628D01*
X133582628Y-109387928D01*
X133750249Y-109169479D01*
X133887923Y-108931021D01*
X133993295Y-108676632D01*
X134064560Y-108410666D01*
X134100500Y-108137674D01*
X134100500Y-107862332D01*
X166899500Y-107862332D01*
X166899500Y-108137667D01*
X166899501Y-108137684D01*
X166935438Y-108410655D01*
X166935439Y-108410660D01*
X166935440Y-108410666D01*
X166935441Y-108410668D01*
X167006704Y-108676630D01*
X167112075Y-108931017D01*
X167112080Y-108931028D01*
X167194861Y-109074407D01*
X167249751Y-109169479D01*
X167249753Y-109169482D01*
X167249754Y-109169483D01*
X167417370Y-109387926D01*
X167417376Y-109387933D01*
X167612066Y-109582623D01*
X167612072Y-109582628D01*
X167830521Y-109750249D01*
X167983778Y-109838732D01*
X168068971Y-109887919D01*
X168068976Y-109887921D01*
X168068979Y-109887923D01*
X168323368Y-109993295D01*
X168589334Y-110064560D01*
X168862326Y-110100500D01*
X168862333Y-110100500D01*
X169137667Y-110100500D01*
X169137674Y-110100500D01*
X169410666Y-110064560D01*
X169676632Y-109993295D01*
X169931021Y-109887923D01*
X170169479Y-109750249D01*
X170387928Y-109582628D01*
X170582628Y-109387928D01*
X170750249Y-109169479D01*
X170887923Y-108931021D01*
X170993295Y-108676632D01*
X171064560Y-108410666D01*
X171100500Y-108137674D01*
X171100500Y-107862326D01*
X171064560Y-107589334D01*
X170993295Y-107323368D01*
X170887923Y-107068979D01*
X170887921Y-107068976D01*
X170887919Y-107068971D01*
X170838732Y-106983778D01*
X170750249Y-106830521D01*
X170582628Y-106612072D01*
X170582623Y-106612066D01*
X170387933Y-106417376D01*
X170387926Y-106417370D01*
X170169483Y-106249754D01*
X170169482Y-106249753D01*
X170169479Y-106249751D01*
X170035308Y-106172287D01*
X169931028Y-106112080D01*
X169931017Y-106112075D01*
X169676630Y-106006704D01*
X169484486Y-105955220D01*
X169410666Y-105935440D01*
X169410660Y-105935439D01*
X169410655Y-105935438D01*
X169137684Y-105899501D01*
X169137679Y-105899500D01*
X169137674Y-105899500D01*
X168862326Y-105899500D01*
X168862320Y-105899500D01*
X168862315Y-105899501D01*
X168589344Y-105935438D01*
X168589337Y-105935439D01*
X168589334Y-105935440D01*
X168533125Y-105950500D01*
X168323369Y-106006704D01*
X168068982Y-106112075D01*
X168068971Y-106112080D01*
X167830516Y-106249754D01*
X167612073Y-106417370D01*
X167612066Y-106417376D01*
X167417376Y-106612066D01*
X167417370Y-106612073D01*
X167249754Y-106830516D01*
X167112080Y-107068971D01*
X167112075Y-107068982D01*
X167006704Y-107323369D01*
X166935441Y-107589331D01*
X166935438Y-107589344D01*
X166899501Y-107862315D01*
X166899500Y-107862332D01*
X134100500Y-107862332D01*
X134100500Y-107862326D01*
X134064560Y-107589334D01*
X133993295Y-107323368D01*
X133887923Y-107068979D01*
X133887921Y-107068976D01*
X133887919Y-107068971D01*
X133838732Y-106983778D01*
X133750249Y-106830521D01*
X133582628Y-106612072D01*
X133582623Y-106612066D01*
X133387933Y-106417376D01*
X133387926Y-106417370D01*
X133169483Y-106249754D01*
X133169482Y-106249753D01*
X133169479Y-106249751D01*
X133035308Y-106172287D01*
X132931028Y-106112080D01*
X132931017Y-106112075D01*
X132676630Y-106006704D01*
X132484486Y-105955220D01*
X132410666Y-105935440D01*
X132410660Y-105935439D01*
X132410655Y-105935438D01*
X132137684Y-105899501D01*
X132137679Y-105899500D01*
X132137674Y-105899500D01*
X131862326Y-105899500D01*
X131862320Y-105899500D01*
X131862315Y-105899501D01*
X131589344Y-105935438D01*
X131589337Y-105935439D01*
X131589334Y-105935440D01*
X131533125Y-105950500D01*
X131323369Y-106006704D01*
X131068982Y-106112075D01*
X131068971Y-106112080D01*
X130830516Y-106249754D01*
X130612073Y-106417370D01*
X130612066Y-106417376D01*
X130417376Y-106612066D01*
X130417370Y-106612073D01*
X130249754Y-106830516D01*
X130112080Y-107068971D01*
X130112075Y-107068982D01*
X130006704Y-107323369D01*
X129935441Y-107589331D01*
X129935438Y-107589344D01*
X129899501Y-107862315D01*
X129899500Y-107862332D01*
X129500500Y-107862332D01*
X129500500Y-104957648D01*
X145399500Y-104957648D01*
X145399500Y-105162351D01*
X145431522Y-105364534D01*
X145494781Y-105559223D01*
X145587715Y-105741613D01*
X145708028Y-105907213D01*
X145852786Y-106051971D01*
X145935521Y-106112080D01*
X146018390Y-106172287D01*
X146134607Y-106231503D01*
X146200776Y-106265218D01*
X146200778Y-106265218D01*
X146200781Y-106265220D01*
X146305137Y-106299127D01*
X146395465Y-106328477D01*
X146496557Y-106344488D01*
X146597648Y-106360500D01*
X146597649Y-106360500D01*
X146802351Y-106360500D01*
X146802352Y-106360500D01*
X147004534Y-106328477D01*
X147199219Y-106265220D01*
X147381610Y-106172287D01*
X147474590Y-106104732D01*
X147547213Y-106051971D01*
X147547215Y-106051968D01*
X147547219Y-106051966D01*
X147691966Y-105907219D01*
X147691968Y-105907215D01*
X147691971Y-105907213D01*
X147744732Y-105834590D01*
X147812287Y-105741610D01*
X147905220Y-105559219D01*
X147968477Y-105364534D01*
X148000500Y-105162352D01*
X148000500Y-104957648D01*
X147968477Y-104755465D01*
X147944312Y-104681095D01*
X147933445Y-104647648D01*
X151199500Y-104647648D01*
X151199500Y-104852351D01*
X151231522Y-105054534D01*
X151294781Y-105249223D01*
X151387715Y-105431613D01*
X151508028Y-105597213D01*
X151652786Y-105741971D01*
X151807749Y-105854556D01*
X151818390Y-105862287D01*
X151906574Y-105907219D01*
X152000776Y-105955218D01*
X152000778Y-105955218D01*
X152000781Y-105955220D01*
X152105137Y-105989127D01*
X152195465Y-106018477D01*
X152296557Y-106034488D01*
X152397648Y-106050500D01*
X152397649Y-106050500D01*
X152602351Y-106050500D01*
X152602352Y-106050500D01*
X152804534Y-106018477D01*
X152999219Y-105955220D01*
X153181610Y-105862287D01*
X153274590Y-105794732D01*
X153347213Y-105741971D01*
X153347215Y-105741968D01*
X153347219Y-105741966D01*
X153491966Y-105597219D01*
X153491968Y-105597215D01*
X153491971Y-105597213D01*
X153544732Y-105524590D01*
X153612287Y-105431610D01*
X153705220Y-105249219D01*
X153768477Y-105054534D01*
X153800500Y-104852352D01*
X153800500Y-104647648D01*
X156199500Y-104647648D01*
X156199500Y-104852351D01*
X156231522Y-105054534D01*
X156294781Y-105249223D01*
X156387715Y-105431613D01*
X156508028Y-105597213D01*
X156652786Y-105741971D01*
X156807749Y-105854556D01*
X156818390Y-105862287D01*
X156906574Y-105907219D01*
X157000776Y-105955218D01*
X157000778Y-105955218D01*
X157000781Y-105955220D01*
X157105137Y-105989127D01*
X157195465Y-106018477D01*
X157296557Y-106034488D01*
X157397648Y-106050500D01*
X157397649Y-106050500D01*
X157602351Y-106050500D01*
X157602352Y-106050500D01*
X157804534Y-106018477D01*
X157999219Y-105955220D01*
X158181610Y-105862287D01*
X158274590Y-105794732D01*
X158347213Y-105741971D01*
X158347215Y-105741968D01*
X158347219Y-105741966D01*
X158491966Y-105597219D01*
X158491968Y-105597215D01*
X158491971Y-105597213D01*
X158544732Y-105524590D01*
X158612287Y-105431610D01*
X158705220Y-105249219D01*
X158768477Y-105054534D01*
X158800500Y-104852352D01*
X158800500Y-104647648D01*
X158768477Y-104445466D01*
X158705220Y-104250781D01*
X158705218Y-104250778D01*
X158705218Y-104250776D01*
X158671503Y-104184607D01*
X158612287Y-104068390D01*
X158604556Y-104057749D01*
X158491971Y-103902786D01*
X158347213Y-103758028D01*
X158181613Y-103637715D01*
X158181612Y-103637714D01*
X158181610Y-103637713D01*
X158124653Y-103608691D01*
X157999223Y-103544781D01*
X157804534Y-103481522D01*
X157629995Y-103453878D01*
X157602352Y-103449500D01*
X157397648Y-103449500D01*
X157373329Y-103453351D01*
X157195465Y-103481522D01*
X157000776Y-103544781D01*
X156818386Y-103637715D01*
X156652786Y-103758028D01*
X156508028Y-103902786D01*
X156387715Y-104068386D01*
X156294781Y-104250776D01*
X156231522Y-104445465D01*
X156199500Y-104647648D01*
X153800500Y-104647648D01*
X153768477Y-104445466D01*
X153705220Y-104250781D01*
X153705218Y-104250778D01*
X153705218Y-104250776D01*
X153671503Y-104184607D01*
X153612287Y-104068390D01*
X153604556Y-104057749D01*
X153491971Y-103902786D01*
X153347213Y-103758028D01*
X153181613Y-103637715D01*
X153181612Y-103637714D01*
X153181610Y-103637713D01*
X153124653Y-103608691D01*
X152999223Y-103544781D01*
X152804534Y-103481522D01*
X152629995Y-103453878D01*
X152602352Y-103449500D01*
X152397648Y-103449500D01*
X152373329Y-103453351D01*
X152195465Y-103481522D01*
X152000776Y-103544781D01*
X151818386Y-103637715D01*
X151652786Y-103758028D01*
X151508028Y-103902786D01*
X151387715Y-104068386D01*
X151294781Y-104250776D01*
X151231522Y-104445465D01*
X151199500Y-104647648D01*
X147933445Y-104647648D01*
X147905220Y-104560781D01*
X147812287Y-104378390D01*
X147804556Y-104367749D01*
X147691971Y-104212786D01*
X147547213Y-104068028D01*
X147381613Y-103947715D01*
X147381612Y-103947714D01*
X147381610Y-103947713D01*
X147293436Y-103902786D01*
X147199223Y-103854781D01*
X147004534Y-103791522D01*
X146829995Y-103763878D01*
X146802352Y-103759500D01*
X146597648Y-103759500D01*
X146573329Y-103763351D01*
X146395465Y-103791522D01*
X146200776Y-103854781D01*
X146018386Y-103947715D01*
X145852786Y-104068028D01*
X145708028Y-104212786D01*
X145587715Y-104378386D01*
X145494781Y-104560776D01*
X145431522Y-104755465D01*
X145399500Y-104957648D01*
X129500500Y-104957648D01*
X129500500Y-99799983D01*
X134199500Y-99799983D01*
X134199500Y-101000001D01*
X134199501Y-101000018D01*
X134210000Y-101102796D01*
X134210001Y-101102799D01*
X134242214Y-101200009D01*
X134265186Y-101269334D01*
X134357288Y-101418656D01*
X134481344Y-101542712D01*
X134630666Y-101634814D01*
X134797203Y-101689999D01*
X134899991Y-101700500D01*
X136100008Y-101700499D01*
X136202797Y-101689999D01*
X136369334Y-101634814D01*
X136518656Y-101542712D01*
X136642712Y-101418656D01*
X136734814Y-101269334D01*
X136789999Y-101102797D01*
X136800500Y-101000009D01*
X136800499Y-99999983D01*
X163449500Y-99999983D01*
X163449500Y-101200001D01*
X163449501Y-101200018D01*
X163460000Y-101302796D01*
X163460001Y-101302799D01*
X163498393Y-101418656D01*
X163515186Y-101469334D01*
X163607288Y-101618656D01*
X163731344Y-101742712D01*
X163880666Y-101834814D01*
X164047203Y-101889999D01*
X164149991Y-101900500D01*
X165350008Y-101900499D01*
X165452797Y-101889999D01*
X165619334Y-101834814D01*
X165768656Y-101742712D01*
X165892712Y-101618656D01*
X165984814Y-101469334D01*
X166039999Y-101302797D01*
X166050500Y-101200009D01*
X166050499Y-99999992D01*
X166039999Y-99897203D01*
X165984814Y-99730666D01*
X165892712Y-99581344D01*
X165768656Y-99457288D01*
X165675888Y-99400069D01*
X165619336Y-99365187D01*
X165619331Y-99365185D01*
X165617862Y-99364698D01*
X165452797Y-99310001D01*
X165452795Y-99310000D01*
X165350010Y-99299500D01*
X164149998Y-99299500D01*
X164149981Y-99299501D01*
X164047203Y-99310000D01*
X164047200Y-99310001D01*
X163880668Y-99365185D01*
X163880663Y-99365187D01*
X163731342Y-99457289D01*
X163607289Y-99581342D01*
X163515187Y-99730663D01*
X163515185Y-99730668D01*
X163503736Y-99765220D01*
X163460001Y-99897203D01*
X163460001Y-99897204D01*
X163460000Y-99897204D01*
X163449500Y-99999983D01*
X136800499Y-99999983D01*
X136800499Y-99799992D01*
X136793417Y-99730668D01*
X136789999Y-99697203D01*
X136789998Y-99697200D01*
X136751606Y-99581342D01*
X136734814Y-99530666D01*
X136642712Y-99381344D01*
X136518656Y-99257288D01*
X136369334Y-99165186D01*
X136202797Y-99110001D01*
X136202795Y-99110000D01*
X136100010Y-99099500D01*
X134899998Y-99099500D01*
X134899981Y-99099501D01*
X134797203Y-99110000D01*
X134797200Y-99110001D01*
X134630668Y-99165185D01*
X134630663Y-99165187D01*
X134481342Y-99257289D01*
X134357289Y-99381342D01*
X134265187Y-99530663D01*
X134265185Y-99530668D01*
X134248393Y-99581344D01*
X134210001Y-99697203D01*
X134210001Y-99697204D01*
X134210000Y-99697204D01*
X134199500Y-99799983D01*
X129500500Y-99799983D01*
X129500500Y-98457648D01*
X140399500Y-98457648D01*
X140399500Y-98662351D01*
X140431522Y-98864534D01*
X140494781Y-99059223D01*
X140587715Y-99241613D01*
X140708028Y-99407213D01*
X140852786Y-99551971D01*
X141007749Y-99664556D01*
X141018390Y-99672287D01*
X141132959Y-99730663D01*
X141200776Y-99765218D01*
X141200778Y-99765218D01*
X141200781Y-99765220D01*
X141305137Y-99799127D01*
X141395465Y-99828477D01*
X141496557Y-99844488D01*
X141597648Y-99860500D01*
X141597649Y-99860500D01*
X141802351Y-99860500D01*
X141802352Y-99860500D01*
X142004534Y-99828477D01*
X142199219Y-99765220D01*
X142381610Y-99672287D01*
X142474590Y-99604732D01*
X142547213Y-99551971D01*
X142547215Y-99551968D01*
X142547219Y-99551966D01*
X142691966Y-99407219D01*
X142691968Y-99407215D01*
X142691971Y-99407213D01*
X142770227Y-99299501D01*
X142812287Y-99241610D01*
X142905220Y-99059219D01*
X142968477Y-98864534D01*
X143000500Y-98662352D01*
X143000500Y-98457648D01*
X142968477Y-98255466D01*
X142905220Y-98060781D01*
X142905218Y-98060778D01*
X142905218Y-98060776D01*
X142843281Y-97939219D01*
X142812287Y-97878390D01*
X142804556Y-97867749D01*
X142691971Y-97712786D01*
X142547213Y-97568028D01*
X142381611Y-97447713D01*
X142372873Y-97443261D01*
X142372872Y-97443261D01*
X142199223Y-97354781D01*
X142146494Y-97337648D01*
X145399500Y-97337648D01*
X145399500Y-97542351D01*
X145431522Y-97744534D01*
X145494781Y-97939223D01*
X145587715Y-98121613D01*
X145708028Y-98287213D01*
X145852786Y-98431971D01*
X146007749Y-98544556D01*
X146018390Y-98552287D01*
X146134607Y-98611503D01*
X146200776Y-98645218D01*
X146200778Y-98645218D01*
X146200781Y-98645220D01*
X146253505Y-98662351D01*
X146395465Y-98708477D01*
X146496557Y-98724488D01*
X146597648Y-98740500D01*
X146597649Y-98740500D01*
X146802351Y-98740500D01*
X146802352Y-98740500D01*
X147004534Y-98708477D01*
X147199219Y-98645220D01*
X147381610Y-98552287D01*
X147477962Y-98482284D01*
X147547213Y-98431971D01*
X147547215Y-98431968D01*
X147547219Y-98431966D01*
X147691966Y-98287219D01*
X147691968Y-98287215D01*
X147691971Y-98287213D01*
X147744732Y-98214590D01*
X147812287Y-98121610D01*
X147905220Y-97939219D01*
X147968477Y-97744534D01*
X148000500Y-97542352D01*
X148000500Y-97337648D01*
X147968477Y-97135466D01*
X147905220Y-96940781D01*
X147905218Y-96940778D01*
X147905218Y-96940776D01*
X147869551Y-96870776D01*
X147812287Y-96758390D01*
X147804556Y-96747749D01*
X147691971Y-96592786D01*
X147547213Y-96448028D01*
X147381613Y-96327715D01*
X147381612Y-96327714D01*
X147381610Y-96327713D01*
X147324653Y-96298691D01*
X147199223Y-96234781D01*
X147004534Y-96171522D01*
X146829995Y-96143878D01*
X146802352Y-96139500D01*
X146597648Y-96139500D01*
X146573329Y-96143351D01*
X146395465Y-96171522D01*
X146200776Y-96234781D01*
X146018386Y-96327715D01*
X145852786Y-96448028D01*
X145708028Y-96592786D01*
X145587715Y-96758386D01*
X145494781Y-96940776D01*
X145431522Y-97135465D01*
X145399500Y-97337648D01*
X142146494Y-97337648D01*
X142004534Y-97291522D01*
X141829995Y-97263878D01*
X141802352Y-97259500D01*
X141597648Y-97259500D01*
X141573329Y-97263351D01*
X141395465Y-97291522D01*
X141200776Y-97354781D01*
X141018386Y-97447715D01*
X140852786Y-97568028D01*
X140708028Y-97712786D01*
X140587715Y-97878386D01*
X140494781Y-98060776D01*
X140431522Y-98255465D01*
X140399500Y-98457648D01*
X129500500Y-98457648D01*
X129500500Y-90397648D01*
X145699500Y-90397648D01*
X145699500Y-90602351D01*
X145731522Y-90804534D01*
X145794781Y-90999223D01*
X145854407Y-91116243D01*
X145885727Y-91177713D01*
X145887715Y-91181613D01*
X146008028Y-91347213D01*
X146152786Y-91491971D01*
X146307749Y-91604556D01*
X146318390Y-91612287D01*
X146434607Y-91671503D01*
X146500776Y-91705218D01*
X146500778Y-91705218D01*
X146500781Y-91705220D01*
X146605137Y-91739127D01*
X146695465Y-91768477D01*
X146796557Y-91784488D01*
X146897648Y-91800500D01*
X146897649Y-91800500D01*
X147102351Y-91800500D01*
X147102352Y-91800500D01*
X147304534Y-91768477D01*
X147499219Y-91705220D01*
X147681610Y-91612287D01*
X147774590Y-91544732D01*
X147847213Y-91491971D01*
X147847215Y-91491968D01*
X147847219Y-91491966D01*
X147991966Y-91347219D01*
X147991968Y-91347215D01*
X147991971Y-91347213D01*
X148077145Y-91229979D01*
X148112287Y-91181610D01*
X148205220Y-90999219D01*
X148268477Y-90804534D01*
X148300500Y-90602352D01*
X148300500Y-90397648D01*
X148268477Y-90195466D01*
X148205220Y-90000781D01*
X148205218Y-90000778D01*
X148205218Y-90000776D01*
X148136553Y-89866015D01*
X148112287Y-89818390D01*
X148097397Y-89797895D01*
X147991971Y-89652786D01*
X147847213Y-89508028D01*
X147681613Y-89387715D01*
X147681612Y-89387714D01*
X147681610Y-89387713D01*
X147624653Y-89358691D01*
X147499223Y-89294781D01*
X147406842Y-89264765D01*
X147304534Y-89231522D01*
X147129995Y-89203878D01*
X147102352Y-89199500D01*
X146897648Y-89199500D01*
X146873329Y-89203351D01*
X146695465Y-89231522D01*
X146500776Y-89294781D01*
X146318386Y-89387715D01*
X146152786Y-89508028D01*
X146008028Y-89652786D01*
X145887715Y-89818386D01*
X145794781Y-90000776D01*
X145731522Y-90195465D01*
X145699500Y-90397648D01*
X129500500Y-90397648D01*
X129500500Y-88389778D01*
X133599500Y-88389778D01*
X133599500Y-88610222D01*
X133613717Y-88699983D01*
X133633985Y-88827952D01*
X133702103Y-89037603D01*
X133702104Y-89037606D01*
X133759369Y-89149992D01*
X133800911Y-89231522D01*
X133802187Y-89234025D01*
X133931752Y-89412358D01*
X133931756Y-89412363D01*
X134087636Y-89568243D01*
X134087641Y-89568247D01*
X134243192Y-89681260D01*
X134265978Y-89697815D01*
X134394375Y-89763237D01*
X134462393Y-89797895D01*
X134462396Y-89797896D01*
X134525472Y-89818390D01*
X134672049Y-89866015D01*
X134889778Y-89900500D01*
X134889779Y-89900500D01*
X135110221Y-89900500D01*
X135110222Y-89900500D01*
X135327951Y-89866015D01*
X135537606Y-89797895D01*
X135734022Y-89697815D01*
X135912365Y-89568242D01*
X136068242Y-89412365D01*
X136197815Y-89234022D01*
X136240635Y-89149983D01*
X149489500Y-89149983D01*
X149489500Y-90350001D01*
X149489501Y-90350018D01*
X149500000Y-90452796D01*
X149500001Y-90452799D01*
X149538618Y-90569336D01*
X149555186Y-90619334D01*
X149647288Y-90768656D01*
X149771344Y-90892712D01*
X149920666Y-90984814D01*
X150002570Y-91011954D01*
X150060015Y-91051727D01*
X150086838Y-91116243D01*
X150074523Y-91185018D01*
X150036451Y-91229978D01*
X149942787Y-91298028D01*
X149942782Y-91298032D01*
X149798028Y-91442786D01*
X149677715Y-91608386D01*
X149584781Y-91790776D01*
X149521522Y-91985465D01*
X149489500Y-92187648D01*
X149489500Y-92392351D01*
X149521522Y-92594534D01*
X149584781Y-92789223D01*
X149677715Y-92971613D01*
X149798028Y-93137213D01*
X149942786Y-93281971D01*
X150097749Y-93394556D01*
X150108390Y-93402287D01*
X150199840Y-93448883D01*
X150201080Y-93449515D01*
X150251876Y-93497490D01*
X150268671Y-93565311D01*
X150246134Y-93631446D01*
X150201080Y-93670485D01*
X150108386Y-93717715D01*
X149942786Y-93838028D01*
X149798028Y-93982786D01*
X149677715Y-94148386D01*
X149584781Y-94330776D01*
X149521522Y-94525465D01*
X149489500Y-94727648D01*
X149489500Y-94932351D01*
X149521522Y-95134534D01*
X149584781Y-95329223D01*
X149677715Y-95511613D01*
X149798028Y-95677213D01*
X149942786Y-95821971D01*
X150097749Y-95934556D01*
X150108390Y-95942287D01*
X150199840Y-95988883D01*
X150201080Y-95989515D01*
X150251876Y-96037490D01*
X150268671Y-96105311D01*
X150246134Y-96171446D01*
X150201080Y-96210485D01*
X150108386Y-96257715D01*
X149942786Y-96378028D01*
X149798028Y-96522786D01*
X149677715Y-96688386D01*
X149584781Y-96870776D01*
X149521522Y-97065465D01*
X149489500Y-97267648D01*
X149489500Y-97472351D01*
X149521522Y-97674534D01*
X149584781Y-97869223D01*
X149677715Y-98051613D01*
X149798028Y-98217213D01*
X149942786Y-98361971D01*
X150039135Y-98431971D01*
X150108390Y-98482287D01*
X150224607Y-98541503D01*
X150290776Y-98575218D01*
X150290778Y-98575218D01*
X150290781Y-98575220D01*
X150395137Y-98609127D01*
X150485465Y-98638477D01*
X150586557Y-98654488D01*
X150687648Y-98670500D01*
X150687649Y-98670500D01*
X151692351Y-98670500D01*
X151692352Y-98670500D01*
X151894534Y-98638477D01*
X152089219Y-98575220D01*
X152271610Y-98482287D01*
X152364590Y-98414732D01*
X152437213Y-98361971D01*
X152437215Y-98361968D01*
X152437219Y-98361966D01*
X152581966Y-98217219D01*
X152581968Y-98217215D01*
X152581971Y-98217213D01*
X152651429Y-98121610D01*
X152702287Y-98051610D01*
X152795220Y-97869219D01*
X152858477Y-97674534D01*
X152890500Y-97472352D01*
X152890500Y-97267648D01*
X152858477Y-97065466D01*
X152795220Y-96870781D01*
X152795218Y-96870778D01*
X152795218Y-96870776D01*
X152761503Y-96804607D01*
X152702287Y-96688390D01*
X152694556Y-96677749D01*
X152581971Y-96522786D01*
X152437213Y-96378028D01*
X152271614Y-96257715D01*
X152226603Y-96234781D01*
X152178917Y-96210483D01*
X152128123Y-96162511D01*
X152111328Y-96094690D01*
X152133865Y-96028555D01*
X152178917Y-95989516D01*
X152271610Y-95942287D01*
X152292770Y-95926913D01*
X152437213Y-95821971D01*
X152437215Y-95821968D01*
X152437219Y-95821966D01*
X152581966Y-95677219D01*
X152581968Y-95677215D01*
X152581971Y-95677213D01*
X152634732Y-95604590D01*
X152702287Y-95511610D01*
X152795220Y-95329219D01*
X152858477Y-95134534D01*
X152890500Y-94932352D01*
X152890500Y-94727648D01*
X152858477Y-94525466D01*
X152795220Y-94330781D01*
X152795218Y-94330778D01*
X152795218Y-94330776D01*
X152761503Y-94264607D01*
X152702287Y-94148390D01*
X152694556Y-94137749D01*
X152581971Y-93982786D01*
X152437213Y-93838028D01*
X152271614Y-93717715D01*
X152265006Y-93714348D01*
X152178917Y-93670483D01*
X152128123Y-93622511D01*
X152111328Y-93554690D01*
X152133865Y-93488555D01*
X152178917Y-93449516D01*
X152271610Y-93402287D01*
X152292770Y-93386913D01*
X152437213Y-93281971D01*
X152437215Y-93281968D01*
X152437219Y-93281966D01*
X152581966Y-93137219D01*
X152581968Y-93137215D01*
X152581971Y-93137213D01*
X152634732Y-93064590D01*
X152702287Y-92971610D01*
X152795220Y-92789219D01*
X152858477Y-92594534D01*
X152890500Y-92392352D01*
X152890500Y-92187648D01*
X152858477Y-91985466D01*
X152795220Y-91790781D01*
X152795218Y-91790778D01*
X152795218Y-91790776D01*
X152751623Y-91705218D01*
X152702287Y-91608390D01*
X152694556Y-91597749D01*
X152581971Y-91442786D01*
X152437219Y-91298034D01*
X152437211Y-91298028D01*
X152343547Y-91229978D01*
X152300882Y-91174649D01*
X152294903Y-91105036D01*
X152327508Y-91043240D01*
X152377426Y-91011955D01*
X152459334Y-90984814D01*
X152608656Y-90892712D01*
X152732712Y-90768656D01*
X152824814Y-90619334D01*
X152879999Y-90452797D01*
X152890500Y-90350009D01*
X152890499Y-89149992D01*
X152879999Y-89047203D01*
X152824814Y-88880666D01*
X152792300Y-88827952D01*
X152751578Y-88761930D01*
X152751577Y-88761928D01*
X152732714Y-88731347D01*
X152732711Y-88731343D01*
X152701351Y-88699983D01*
X162631823Y-88699983D01*
X162631823Y-90300001D01*
X162631824Y-90300018D01*
X162642323Y-90402796D01*
X162642324Y-90402799D01*
X162697508Y-90569331D01*
X162697510Y-90569336D01*
X162728347Y-90619331D01*
X162789611Y-90718656D01*
X162913667Y-90842712D01*
X163062989Y-90934814D01*
X163229526Y-90989999D01*
X163332314Y-91000500D01*
X164932331Y-91000499D01*
X164944862Y-90999219D01*
X164950218Y-90998671D01*
X165035120Y-90989999D01*
X165201657Y-90934814D01*
X165350979Y-90842712D01*
X165475035Y-90718656D01*
X165567137Y-90569334D01*
X165622322Y-90402797D01*
X165632823Y-90300009D01*
X165632822Y-89381902D01*
X167631823Y-89381902D01*
X167631823Y-89618097D01*
X167668769Y-89851368D01*
X167741756Y-90075996D01*
X167802630Y-90195466D01*
X167848980Y-90286433D01*
X167987806Y-90477510D01*
X168154813Y-90644517D01*
X168345890Y-90783343D01*
X168387480Y-90804534D01*
X168556326Y-90890566D01*
X168556328Y-90890566D01*
X168556331Y-90890568D01*
X168676735Y-90929689D01*
X168780954Y-90963553D01*
X169014226Y-91000500D01*
X169014231Y-91000500D01*
X169250420Y-91000500D01*
X169483691Y-90963553D01*
X169708315Y-90890568D01*
X169918756Y-90783343D01*
X170109833Y-90644517D01*
X170276840Y-90477510D01*
X170415666Y-90286433D01*
X170522891Y-90075992D01*
X170595876Y-89851368D01*
X170604345Y-89797895D01*
X170632823Y-89618097D01*
X170632823Y-89381902D01*
X170595876Y-89148631D01*
X170522889Y-88924003D01*
X170424725Y-88731347D01*
X170415666Y-88713567D01*
X170276840Y-88522490D01*
X170109833Y-88355483D01*
X169918756Y-88216657D01*
X169708319Y-88109433D01*
X169483691Y-88036446D01*
X169250420Y-87999500D01*
X169250415Y-87999500D01*
X169014231Y-87999500D01*
X169014226Y-87999500D01*
X168780954Y-88036446D01*
X168556326Y-88109433D01*
X168345889Y-88216657D01*
X168256859Y-88281342D01*
X168154813Y-88355483D01*
X168154811Y-88355485D01*
X168154810Y-88355485D01*
X167987808Y-88522487D01*
X167987808Y-88522488D01*
X167987806Y-88522490D01*
X167933526Y-88597200D01*
X167848980Y-88713566D01*
X167741756Y-88924003D01*
X167668769Y-89148631D01*
X167631823Y-89381902D01*
X165632822Y-89381902D01*
X165632822Y-88699992D01*
X165622322Y-88597203D01*
X165567137Y-88430666D01*
X165475035Y-88281344D01*
X165350979Y-88157288D01*
X165201657Y-88065186D01*
X165035120Y-88010001D01*
X165035118Y-88010000D01*
X164932333Y-87999500D01*
X163332321Y-87999500D01*
X163332304Y-87999501D01*
X163229526Y-88010000D01*
X163229523Y-88010001D01*
X163062991Y-88065185D01*
X163062986Y-88065187D01*
X162913665Y-88157289D01*
X162789612Y-88281342D01*
X162697510Y-88430663D01*
X162697508Y-88430668D01*
X162687788Y-88460001D01*
X162642324Y-88597203D01*
X162642324Y-88597204D01*
X162642323Y-88597204D01*
X162631823Y-88699983D01*
X152701351Y-88699983D01*
X152608657Y-88607289D01*
X152608656Y-88607288D01*
X152471176Y-88522490D01*
X152459336Y-88515187D01*
X152459331Y-88515185D01*
X152457862Y-88514698D01*
X152292797Y-88460001D01*
X152292795Y-88460000D01*
X152190010Y-88449500D01*
X150189998Y-88449500D01*
X150189981Y-88449501D01*
X150087203Y-88460000D01*
X150087200Y-88460001D01*
X149920668Y-88515185D01*
X149920663Y-88515187D01*
X149771342Y-88607289D01*
X149647289Y-88731342D01*
X149555187Y-88880663D01*
X149555185Y-88880668D01*
X149540824Y-88924008D01*
X149500001Y-89047203D01*
X149500001Y-89047204D01*
X149500000Y-89047204D01*
X149489500Y-89149983D01*
X136240635Y-89149983D01*
X136297895Y-89037606D01*
X136366015Y-88827951D01*
X136400500Y-88610222D01*
X136400500Y-88389778D01*
X136366015Y-88172049D01*
X136309952Y-87999501D01*
X136297896Y-87962396D01*
X136297895Y-87962393D01*
X136263237Y-87894375D01*
X136197815Y-87765978D01*
X136181260Y-87743192D01*
X136068247Y-87587641D01*
X136068243Y-87587636D01*
X135912363Y-87431756D01*
X135912358Y-87431752D01*
X135734025Y-87302187D01*
X135734024Y-87302186D01*
X135734022Y-87302185D01*
X135671096Y-87270122D01*
X135537606Y-87202104D01*
X135537603Y-87202103D01*
X135327952Y-87133985D01*
X135219086Y-87116742D01*
X135110222Y-87099500D01*
X134889778Y-87099500D01*
X134817201Y-87110995D01*
X134672047Y-87133985D01*
X134462396Y-87202103D01*
X134462393Y-87202104D01*
X134265974Y-87302187D01*
X134087641Y-87431752D01*
X134087636Y-87431756D01*
X133931756Y-87587636D01*
X133931752Y-87587641D01*
X133802187Y-87765974D01*
X133702104Y-87962393D01*
X133702103Y-87962396D01*
X133633985Y-88172047D01*
X133616674Y-88281344D01*
X133599500Y-88389778D01*
X129500500Y-88389778D01*
X129500500Y-84897648D01*
X137889500Y-84897648D01*
X137889500Y-85102351D01*
X137921522Y-85304534D01*
X137984781Y-85499223D01*
X138077715Y-85681613D01*
X138198028Y-85847213D01*
X138342786Y-85991971D01*
X138497749Y-86104556D01*
X138508390Y-86112287D01*
X138624607Y-86171503D01*
X138690776Y-86205218D01*
X138690778Y-86205218D01*
X138690781Y-86205220D01*
X138795137Y-86239127D01*
X138885465Y-86268477D01*
X138986557Y-86284488D01*
X139087648Y-86300500D01*
X139087649Y-86300500D01*
X139292351Y-86300500D01*
X139292352Y-86300500D01*
X139494534Y-86268477D01*
X139689219Y-86205220D01*
X139871610Y-86112287D01*
X139964590Y-86044732D01*
X140037213Y-85991971D01*
X140037215Y-85991968D01*
X140037219Y-85991966D01*
X140181966Y-85847219D01*
X140181968Y-85847215D01*
X140181971Y-85847213D01*
X140234732Y-85774590D01*
X140302287Y-85681610D01*
X140395220Y-85499219D01*
X140458477Y-85304534D01*
X140490500Y-85102352D01*
X140490500Y-84897648D01*
X145509500Y-84897648D01*
X145509500Y-85102351D01*
X145541522Y-85304534D01*
X145604781Y-85499223D01*
X145697715Y-85681613D01*
X145818028Y-85847213D01*
X145962786Y-85991971D01*
X146117749Y-86104556D01*
X146128390Y-86112287D01*
X146244607Y-86171503D01*
X146310776Y-86205218D01*
X146310778Y-86205218D01*
X146310781Y-86205220D01*
X146415137Y-86239127D01*
X146505465Y-86268477D01*
X146606557Y-86284488D01*
X146707648Y-86300500D01*
X146707649Y-86300500D01*
X146912351Y-86300500D01*
X146912352Y-86300500D01*
X147114534Y-86268477D01*
X147309219Y-86205220D01*
X147491610Y-86112287D01*
X147584590Y-86044732D01*
X147657213Y-85991971D01*
X147657215Y-85991968D01*
X147657219Y-85991966D01*
X147801966Y-85847219D01*
X147801968Y-85847215D01*
X147801971Y-85847213D01*
X147854732Y-85774590D01*
X147922287Y-85681610D01*
X148015220Y-85499219D01*
X148078477Y-85304534D01*
X148110500Y-85102352D01*
X148110500Y-84897648D01*
X148078477Y-84695466D01*
X148015220Y-84500781D01*
X148015218Y-84500778D01*
X148015218Y-84500776D01*
X147981503Y-84434607D01*
X147922287Y-84318390D01*
X147914556Y-84307749D01*
X147801971Y-84152786D01*
X147657213Y-84008028D01*
X147491613Y-83887715D01*
X147491612Y-83887714D01*
X147491610Y-83887713D01*
X147434653Y-83858691D01*
X147309223Y-83794781D01*
X147114534Y-83731522D01*
X146939995Y-83703878D01*
X146912352Y-83699500D01*
X146707648Y-83699500D01*
X146683329Y-83703351D01*
X146505465Y-83731522D01*
X146310776Y-83794781D01*
X146128386Y-83887715D01*
X145962786Y-84008028D01*
X145818028Y-84152786D01*
X145697715Y-84318386D01*
X145604781Y-84500776D01*
X145541522Y-84695465D01*
X145509500Y-84897648D01*
X140490500Y-84897648D01*
X140458477Y-84695466D01*
X140395220Y-84500781D01*
X140395218Y-84500778D01*
X140395218Y-84500776D01*
X140361503Y-84434607D01*
X140302287Y-84318390D01*
X140294556Y-84307749D01*
X140181971Y-84152786D01*
X140037213Y-84008028D01*
X139871613Y-83887715D01*
X139871612Y-83887714D01*
X139871610Y-83887713D01*
X139814653Y-83858691D01*
X139689223Y-83794781D01*
X139494534Y-83731522D01*
X139319995Y-83703878D01*
X139292352Y-83699500D01*
X139087648Y-83699500D01*
X139063329Y-83703351D01*
X138885465Y-83731522D01*
X138690776Y-83794781D01*
X138508386Y-83887715D01*
X138342786Y-84008028D01*
X138198028Y-84152786D01*
X138077715Y-84318386D01*
X137984781Y-84500776D01*
X137921522Y-84695465D01*
X137889500Y-84897648D01*
X129500500Y-84897648D01*
X129500500Y-81362332D01*
X129899500Y-81362332D01*
X129899500Y-81637667D01*
X129899501Y-81637684D01*
X129935438Y-81910655D01*
X129935439Y-81910660D01*
X129935440Y-81910666D01*
X129935441Y-81910668D01*
X130006704Y-82176630D01*
X130112075Y-82431017D01*
X130112080Y-82431028D01*
X130179543Y-82547876D01*
X130249751Y-82669479D01*
X130249753Y-82669482D01*
X130249754Y-82669483D01*
X130417370Y-82887926D01*
X130417376Y-82887933D01*
X130612066Y-83082623D01*
X130612072Y-83082628D01*
X130830521Y-83250249D01*
X130983778Y-83338732D01*
X131068971Y-83387919D01*
X131068976Y-83387921D01*
X131068979Y-83387923D01*
X131323368Y-83493295D01*
X131589334Y-83564560D01*
X131862326Y-83600500D01*
X131862333Y-83600500D01*
X132137667Y-83600500D01*
X132137674Y-83600500D01*
X132410666Y-83564560D01*
X132676632Y-83493295D01*
X132931021Y-83387923D01*
X133169479Y-83250249D01*
X133387928Y-83082628D01*
X133582628Y-82887928D01*
X133750249Y-82669479D01*
X133887923Y-82431021D01*
X133993295Y-82176632D01*
X134064560Y-81910666D01*
X134100500Y-81637674D01*
X134100500Y-81362326D01*
X134064560Y-81089334D01*
X133993295Y-80823368D01*
X133887923Y-80568979D01*
X133887921Y-80568976D01*
X133887919Y-80568971D01*
X133838732Y-80483778D01*
X133750249Y-80330521D01*
X133582628Y-80112072D01*
X133582623Y-80112066D01*
X133387933Y-79917376D01*
X133387926Y-79917370D01*
X133169483Y-79749754D01*
X133169482Y-79749753D01*
X133169479Y-79749751D01*
X133074407Y-79694861D01*
X132931028Y-79612080D01*
X132931017Y-79612075D01*
X132676630Y-79506704D01*
X132543649Y-79471072D01*
X132410666Y-79435440D01*
X132410660Y-79435439D01*
X132410655Y-79435438D01*
X132137684Y-79399501D01*
X132137679Y-79399500D01*
X132137674Y-79399500D01*
X131862326Y-79399500D01*
X131862320Y-79399500D01*
X131862315Y-79399501D01*
X131589344Y-79435438D01*
X131589337Y-79435439D01*
X131589334Y-79435440D01*
X131533125Y-79450500D01*
X131323369Y-79506704D01*
X131068982Y-79612075D01*
X131068971Y-79612080D01*
X130830516Y-79749754D01*
X130612073Y-79917370D01*
X130612066Y-79917376D01*
X130417376Y-80112066D01*
X130417370Y-80112073D01*
X130249754Y-80330516D01*
X130112080Y-80568971D01*
X130112075Y-80568982D01*
X130006704Y-80823369D01*
X129935441Y-81089331D01*
X129935438Y-81089344D01*
X129899501Y-81362315D01*
X129899500Y-81362332D01*
X129500500Y-81362332D01*
X129500500Y-79124500D01*
X129520185Y-79057461D01*
X129572989Y-79011706D01*
X129624500Y-79000500D01*
X156800999Y-79000500D01*
X156868038Y-79020185D01*
G37*
%TD.AperFunction*%
%TD*%
M02*
