%TF.GenerationSoftware,KiCad,Pcbnew,9.0.4*%
%TF.CreationDate,2025-09-15T15:44:35+02:00*%
%TF.ProjectId,TDA7267,54444137-3236-4372-9e6b-696361645f70,rev?*%
%TF.SameCoordinates,Original*%
%TF.FileFunction,Soldermask,Bot*%
%TF.FilePolarity,Negative*%
%FSLAX46Y46*%
G04 Gerber Fmt 4.6, Leading zero omitted, Abs format (unit mm)*
G04 Created by KiCad (PCBNEW 9.0.4) date 2025-09-15 15:44:35*
%MOMM*%
%LPD*%
G01*
G04 APERTURE LIST*
G04 Aperture macros list*
%AMRoundRect*
0 Rectangle with rounded corners*
0 $1 Rounding radius*
0 $2 $3 $4 $5 $6 $7 $8 $9 X,Y pos of 4 corners*
0 Add a 4 corners polygon primitive as box body*
4,1,4,$2,$3,$4,$5,$6,$7,$8,$9,$2,$3,0*
0 Add four circle primitives for the rounded corners*
1,1,$1+$1,$2,$3*
1,1,$1+$1,$4,$5*
1,1,$1+$1,$6,$7*
1,1,$1+$1,$8,$9*
0 Add four rect primitives between the rounded corners*
20,1,$1+$1,$2,$3,$4,$5,0*
20,1,$1+$1,$4,$5,$6,$7,0*
20,1,$1+$1,$6,$7,$8,$9,0*
20,1,$1+$1,$8,$9,$2,$3,0*%
G04 Aperture macros list end*
%ADD10C,1.600000*%
%ADD11RoundRect,0.250000X-0.950000X-0.550000X0.950000X-0.550000X0.950000X0.550000X-0.950000X0.550000X0*%
%ADD12O,2.400000X1.600000*%
%ADD13R,3.000000X3.000000*%
%ADD14C,3.000000*%
%ADD15R,1.800000X1.800000*%
%ADD16C,1.800000*%
%ADD17C,2.200000*%
%ADD18RoundRect,0.250000X0.550000X0.550000X-0.550000X0.550000X-0.550000X-0.550000X0.550000X-0.550000X0*%
%ADD19RoundRect,0.250000X-0.750000X-0.750000X0.750000X-0.750000X0.750000X0.750000X-0.750000X0.750000X0*%
%ADD20C,2.000000*%
%ADD21C,2.340000*%
G04 APERTURE END LIST*
D10*
%TO.C,R1*%
X146700000Y-105060000D03*
X146700000Y-97440000D03*
%TD*%
%TO.C,C3*%
X141700000Y-103560000D03*
X141700000Y-98560000D03*
%TD*%
%TO.C,C5*%
X148500000Y-86500000D03*
X148500000Y-81500000D03*
%TD*%
D11*
%TO.C,U1*%
X151190000Y-89750000D03*
D12*
X151190000Y-92290000D03*
X151190000Y-94830000D03*
X151190000Y-97370000D03*
X158810000Y-97370000D03*
X158810000Y-94830000D03*
X158810000Y-92290000D03*
X158810000Y-89750000D03*
%TD*%
D13*
%TO.C,IN1*%
X162960000Y-115000000D03*
D14*
X168040000Y-115000000D03*
%TD*%
D15*
%TO.C,D1*%
X161960000Y-104000000D03*
D16*
X164500000Y-104000000D03*
%TD*%
D17*
%TO.C,H1*%
X132000000Y-81500000D03*
%TD*%
D13*
%TO.C,OUT1*%
X158800000Y-81000000D03*
D14*
X153720000Y-81000000D03*
%TD*%
D17*
%TO.C,H4*%
X169000000Y-108000000D03*
%TD*%
D10*
%TO.C,C1*%
X156500000Y-104750000D03*
X151500000Y-104750000D03*
%TD*%
%TO.C,R2*%
X162690000Y-97500000D03*
X170310000Y-97500000D03*
%TD*%
D13*
%TO.C,VCC1*%
X132420000Y-115000000D03*
D14*
X137500000Y-115000000D03*
%TD*%
D17*
%TO.C,H2*%
X169000000Y-81500000D03*
%TD*%
D18*
%TO.C,C2*%
X143500000Y-91000000D03*
D10*
X139700000Y-91000000D03*
%TD*%
D19*
%TO.C,C6*%
X164132323Y-89500000D03*
D20*
X169132323Y-89500000D03*
%TD*%
D18*
%TO.C,C4*%
X135500000Y-100400000D03*
D10*
X131700000Y-100400000D03*
%TD*%
D21*
%TO.C,RV1*%
X145000000Y-114750000D03*
X150000000Y-114750000D03*
X155000000Y-114750000D03*
%TD*%
D17*
%TO.C,H3*%
X132000000Y-108000000D03*
%TD*%
M02*
