M48
; DRILL file {KiCad 9.0.4} date 2025-08-28T09:55:43+0200
; FORMAT={-:-/ absolute / inch / decimal}
; #@! TF.CreationDate,2025-08-28T09:55:43+02:00
; #@! TF.GenerationSoftware,Kicad,Pcbnew,9.0.4
; #@! TF.FileFunction,Plated,1,2,PTH
FMAT,2
INCH
; #@! TA.AperFunction,Plated,PTH,ComponentDrill
T1C0.0315
; #@! TA.AperFunction,Plated,PTH,ComponentDrill
T2C0.0354
; #@! TA.AperFunction,Plated,PTH,ComponentDrill
T3C0.0394
; #@! TA.AperFunction,Plated,PTH,ComponentDrill
T4C0.0512
; #@! TA.AperFunction,Plated,PTH,ComponentDrill
T5C0.0598
%
G90
G05
T1
X5.185Y-3.9528
X5.3346Y-3.9528
X5.4799Y-3.3465
X5.5709Y-3.7992
X5.5709Y-3.9961
X5.5906Y-3.563
X5.7677Y-3.7551
X5.7677Y-4.0551
X5.7799Y-3.3465
X5.7874Y-3.563
X5.9252Y-4.1535
X5.9524Y-3.5335
X5.9524Y-3.6335
X5.9524Y-3.7335
X5.9524Y-3.8335
X6.122Y-4.1535
X6.2524Y-3.5335
X6.2524Y-3.6335
X6.2524Y-3.7335
X6.2524Y-3.8335
X6.307Y-4.0945
X6.4566Y-4.0945
T2
X5.215Y-3.4843
X5.315Y-3.4843
T3
X6.4619Y-3.5236
X6.6588Y-3.5236
T4
X5.7087Y-4.5177
X5.9055Y-4.5177
X6.1024Y-4.5177
T5
X5.2134Y-4.5276
X5.4134Y-4.5276
X5.9886Y-3.189
X6.1886Y-3.189
X6.4157Y-4.5276
X6.6157Y-4.5276
M30
