%TF.GenerationSoftware,KiCad,Pcbnew,9.0.4*%
%TF.CreationDate,2025-09-13T13:15:57+02:00*%
%TF.ProjectId,TDA7267,54444137-3236-4372-9e6b-696361645f70,rev?*%
%TF.SameCoordinates,Original*%
%TF.FileFunction,Copper,L2,Bot*%
%TF.FilePolarity,Positive*%
%FSLAX46Y46*%
G04 Gerber Fmt 4.6, Leading zero omitted, Abs format (unit mm)*
G04 Created by KiCad (PCBNEW 9.0.4) date 2025-09-13 13:15:57*
%MOMM*%
%LPD*%
G01*
G04 APERTURE LIST*
G04 Aperture macros list*
%AMRoundRect*
0 Rectangle with rounded corners*
0 $1 Rounding radius*
0 $2 $3 $4 $5 $6 $7 $8 $9 X,Y pos of 4 corners*
0 Add a 4 corners polygon primitive as box body*
4,1,4,$2,$3,$4,$5,$6,$7,$8,$9,$2,$3,0*
0 Add four circle primitives for the rounded corners*
1,1,$1+$1,$2,$3*
1,1,$1+$1,$4,$5*
1,1,$1+$1,$6,$7*
1,1,$1+$1,$8,$9*
0 Add four rect primitives between the rounded corners*
20,1,$1+$1,$2,$3,$4,$5,0*
20,1,$1+$1,$4,$5,$6,$7,0*
20,1,$1+$1,$6,$7,$8,$9,0*
20,1,$1+$1,$8,$9,$2,$3,0*%
G04 Aperture macros list end*
%TA.AperFunction,ComponentPad*%
%ADD10C,1.600000*%
%TD*%
%TA.AperFunction,ComponentPad*%
%ADD11R,3.000000X3.000000*%
%TD*%
%TA.AperFunction,ComponentPad*%
%ADD12C,3.000000*%
%TD*%
%TA.AperFunction,ComponentPad*%
%ADD13R,1.800000X1.800000*%
%TD*%
%TA.AperFunction,ComponentPad*%
%ADD14C,1.800000*%
%TD*%
%TA.AperFunction,ComponentPad*%
%ADD15RoundRect,0.250000X-0.950000X-0.550000X0.950000X-0.550000X0.950000X0.550000X-0.950000X0.550000X0*%
%TD*%
%TA.AperFunction,ComponentPad*%
%ADD16O,2.400000X1.600000*%
%TD*%
%TA.AperFunction,ComponentPad*%
%ADD17RoundRect,0.250000X0.550000X0.550000X-0.550000X0.550000X-0.550000X-0.550000X0.550000X-0.550000X0*%
%TD*%
%TA.AperFunction,ComponentPad*%
%ADD18RoundRect,0.250000X-0.750000X-0.750000X0.750000X-0.750000X0.750000X0.750000X-0.750000X0.750000X0*%
%TD*%
%TA.AperFunction,ComponentPad*%
%ADD19C,2.000000*%
%TD*%
%TA.AperFunction,ComponentPad*%
%ADD20C,2.340000*%
%TD*%
%TA.AperFunction,Conductor*%
%ADD21C,0.500000*%
%TD*%
%TA.AperFunction,Conductor*%
%ADD22C,1.000000*%
%TD*%
G04 APERTURE END LIST*
D10*
%TO.P,C3,1*%
%TO.N,GND*%
X141700000Y-103560000D03*
%TO.P,C3,2*%
%TO.N,Net-(U1-In)*%
X141700000Y-98560000D03*
%TD*%
D11*
%TO.P,IN1,1,Pin_1*%
%TO.N,Net-(IN1-Pin_1)*%
X162960000Y-115000000D03*
D12*
%TO.P,IN1,2,Pin_2*%
%TO.N,GND*%
X168040000Y-115000000D03*
%TD*%
D10*
%TO.P,R1,1*%
%TO.N,Net-(C1-Pad2)*%
X146700000Y-105060000D03*
%TO.P,R1,2*%
%TO.N,Net-(U1-In)*%
X146700000Y-97440000D03*
%TD*%
D13*
%TO.P,D1,1,K*%
%TO.N,GND*%
X161960000Y-104000000D03*
D14*
%TO.P,D1,2,A*%
%TO.N,Net-(D1-A)*%
X164500000Y-104000000D03*
%TD*%
D11*
%TO.P,OUT1,1,Pin_1*%
%TO.N,Net-(OUT1-Pin_1)*%
X158800000Y-81000000D03*
D12*
%TO.P,OUT1,2,Pin_2*%
%TO.N,GND*%
X153720000Y-81000000D03*
%TD*%
D10*
%TO.P,C5,1*%
%TO.N,GND*%
X148500000Y-81500000D03*
%TO.P,C5,2*%
%TO.N,/VCC*%
X148500000Y-86500000D03*
%TD*%
%TO.P,C1,1*%
%TO.N,Net-(C1-Pad1)*%
X157500000Y-104750000D03*
%TO.P,C1,2*%
%TO.N,Net-(C1-Pad2)*%
X152500000Y-104750000D03*
%TD*%
D15*
%TO.P,U1,1,V+*%
%TO.N,/VCC*%
X151190000Y-89750000D03*
D16*
%TO.P,U1,2,Out*%
%TO.N,Net-(U1-Out)*%
X151190000Y-92290000D03*
%TO.P,U1,3,SRV*%
%TO.N,Net-(U1-SRV)*%
X151190000Y-94830000D03*
%TO.P,U1,4,In*%
%TO.N,Net-(U1-In)*%
X151190000Y-97370000D03*
%TO.P,U1,5,GND*%
%TO.N,GND*%
X158810000Y-97370000D03*
%TO.P,U1,6,GND*%
X158810000Y-94830000D03*
%TO.P,U1,7,GND*%
X158810000Y-92290000D03*
%TO.P,U1,8,GND*%
X158810000Y-89750000D03*
%TD*%
D10*
%TO.P,R2,1*%
%TO.N,Net-(D1-A)*%
X162690000Y-97500000D03*
%TO.P,R2,2*%
%TO.N,/VCC*%
X170310000Y-97500000D03*
%TD*%
D11*
%TO.P,VCC1,1,Pin_1*%
%TO.N,/VCC*%
X132420000Y-115000000D03*
D12*
%TO.P,VCC1,2,Pin_2*%
%TO.N,GND*%
X137500000Y-115000000D03*
%TD*%
D17*
%TO.P,C2,1*%
%TO.N,Net-(U1-SRV)*%
X143500000Y-91000000D03*
D10*
%TO.P,C2,2*%
%TO.N,GND*%
X139700000Y-91000000D03*
%TD*%
D18*
%TO.P,C6,1*%
%TO.N,Net-(U1-Out)*%
X164132323Y-89500000D03*
D19*
%TO.P,C6,2*%
%TO.N,Net-(OUT1-Pin_1)*%
X169132323Y-89500000D03*
%TD*%
D17*
%TO.P,C4,1*%
%TO.N,/VCC*%
X135500000Y-100400000D03*
D10*
%TO.P,C4,2*%
%TO.N,GND*%
X131700000Y-100400000D03*
%TD*%
D20*
%TO.P,RV1,1,1*%
%TO.N,Net-(IN1-Pin_1)*%
X145000000Y-114750000D03*
%TO.P,RV1,2,2*%
%TO.N,Net-(C1-Pad1)*%
X150000000Y-114750000D03*
%TO.P,RV1,3,3*%
%TO.N,GND*%
X155000000Y-114750000D03*
%TD*%
D21*
%TO.N,Net-(C1-Pad2)*%
X150000000Y-104750000D02*
X152500000Y-104750000D01*
X149690000Y-105060000D02*
X150000000Y-104750000D01*
X146700000Y-105060000D02*
X149690000Y-105060000D01*
%TO.N,Net-(C1-Pad1)*%
X157500000Y-105000000D02*
X150000000Y-112500000D01*
X150000000Y-112500000D02*
X150000000Y-114750000D01*
X157500000Y-104750000D02*
X157500000Y-105000000D01*
%TO.N,Net-(U1-SRV)*%
X151190000Y-94830000D02*
X148830000Y-94830000D01*
X148830000Y-94830000D02*
X145000000Y-91000000D01*
X145000000Y-91000000D02*
X143500000Y-91000000D01*
%TO.N,Net-(U1-In)*%
X143100000Y-97450000D02*
X143110000Y-97440000D01*
X142820000Y-97440000D02*
X141700000Y-98560000D01*
X143110000Y-97440000D02*
X142820000Y-97440000D01*
X143110000Y-97440000D02*
X146500000Y-97440000D01*
X146500000Y-97440000D02*
X151120000Y-97440000D01*
X151120000Y-97440000D02*
X151190000Y-97370000D01*
%TO.N,/VCC*%
X151190000Y-89750000D02*
X151190000Y-89690000D01*
D22*
%TO.N,Net-(U1-Out)*%
X152960000Y-92290000D02*
X155000000Y-90250000D01*
X151190000Y-92290000D02*
X152960000Y-92290000D01*
X155000000Y-88250000D02*
X156250000Y-87000000D01*
X155000000Y-90250000D02*
X155000000Y-88250000D01*
X161632323Y-87000000D02*
X164132323Y-89500000D01*
X156250000Y-87000000D02*
X161632323Y-87000000D01*
%TO.N,Net-(OUT1-Pin_1)*%
X169132323Y-86860773D02*
X169085335Y-86860773D01*
X163224562Y-81000000D02*
X158800000Y-81000000D01*
X169085335Y-86860773D02*
X163224562Y-81000000D01*
X169132323Y-89500000D02*
X169132323Y-86860773D01*
D21*
%TO.N,Net-(D1-A)*%
X164500000Y-104000000D02*
X164500000Y-99500000D01*
X162690000Y-97690000D02*
X162690000Y-97500000D01*
X164500000Y-99500000D02*
X162690000Y-97690000D01*
%TO.N,Net-(IN1-Pin_1)*%
X161289000Y-116671000D02*
X147021000Y-116671000D01*
X162960000Y-115000000D02*
X161289000Y-116671000D01*
X147021000Y-116671000D02*
X145000000Y-114650000D01*
%TD*%
%TA.AperFunction,Conductor*%
%TO.N,GND*%
G36*
X145498694Y-86269685D02*
G01*
X145536495Y-86307784D01*
X148815790Y-91500000D01*
X148815791Y-91500000D01*
X149530591Y-91500000D01*
X149597630Y-91519685D01*
X149643385Y-91572489D01*
X149653329Y-91641647D01*
X149641076Y-91680295D01*
X149584781Y-91790776D01*
X149521522Y-91985465D01*
X149489500Y-92187648D01*
X149489500Y-92392351D01*
X149521522Y-92594534D01*
X149584781Y-92789223D01*
X149648691Y-92914653D01*
X149655381Y-92927782D01*
X149677715Y-92971613D01*
X149798028Y-93137213D01*
X149942786Y-93281971D01*
X150097749Y-93394556D01*
X150108390Y-93402287D01*
X150199840Y-93448883D01*
X150201080Y-93449515D01*
X150251876Y-93497490D01*
X150268671Y-93565311D01*
X150246134Y-93631446D01*
X150201080Y-93670485D01*
X150108386Y-93717715D01*
X149942786Y-93838028D01*
X149798032Y-93982782D01*
X149798028Y-93982787D01*
X149764900Y-94028385D01*
X149709571Y-94071051D01*
X149664582Y-94079500D01*
X149192230Y-94079500D01*
X149125191Y-94059815D01*
X149104549Y-94043181D01*
X145478421Y-90417052D01*
X145478420Y-90417051D01*
X145378083Y-90350009D01*
X145378083Y-90350008D01*
X145355495Y-90334916D01*
X145355490Y-90334913D01*
X145218917Y-90278343D01*
X145218907Y-90278340D01*
X145073920Y-90249500D01*
X145073918Y-90249500D01*
X144863733Y-90249500D01*
X144796694Y-90229815D01*
X144750939Y-90177011D01*
X144746028Y-90164506D01*
X144741495Y-90150829D01*
X144734814Y-90130666D01*
X144642712Y-89981344D01*
X144518656Y-89857288D01*
X144369334Y-89765186D01*
X144202797Y-89710001D01*
X144202795Y-89710000D01*
X144100010Y-89699500D01*
X142899998Y-89699500D01*
X142899981Y-89699501D01*
X142797203Y-89710000D01*
X142797200Y-89710001D01*
X142630668Y-89765185D01*
X142630663Y-89765187D01*
X142481342Y-89857289D01*
X142357289Y-89981342D01*
X142265187Y-90130663D01*
X142265185Y-90130668D01*
X142249829Y-90177011D01*
X142210001Y-90297203D01*
X142210001Y-90297204D01*
X142210000Y-90297204D01*
X142199500Y-90399983D01*
X142199500Y-91600001D01*
X142199501Y-91600018D01*
X142210000Y-91702796D01*
X142210001Y-91702799D01*
X142265185Y-91869331D01*
X142265187Y-91869336D01*
X142290787Y-91910840D01*
X142357288Y-92018656D01*
X142481344Y-92142712D01*
X142630666Y-92234814D01*
X142797203Y-92289999D01*
X142899991Y-92300500D01*
X144100008Y-92300499D01*
X144202797Y-92289999D01*
X144369334Y-92234814D01*
X144518656Y-92142712D01*
X144642712Y-92018656D01*
X144680394Y-91957563D01*
X144732339Y-91910840D01*
X144801301Y-91899617D01*
X144865384Y-91927460D01*
X144873612Y-91934980D01*
X148351586Y-95412954D01*
X148381058Y-95432645D01*
X148425270Y-95462186D01*
X148474505Y-95495084D01*
X148474506Y-95495084D01*
X148474507Y-95495085D01*
X148474509Y-95495086D01*
X148611082Y-95551656D01*
X148611087Y-95551658D01*
X148611091Y-95551658D01*
X148611092Y-95551659D01*
X148756079Y-95580500D01*
X148756082Y-95580500D01*
X148756083Y-95580500D01*
X148903917Y-95580500D01*
X149664582Y-95580500D01*
X149731621Y-95600185D01*
X149764900Y-95631615D01*
X149798028Y-95677212D01*
X149798032Y-95677217D01*
X149942786Y-95821971D01*
X150097749Y-95934556D01*
X150108390Y-95942287D01*
X150199840Y-95988883D01*
X150201080Y-95989515D01*
X150251876Y-96037490D01*
X150268671Y-96105311D01*
X150246134Y-96171446D01*
X150201080Y-96210485D01*
X150108386Y-96257715D01*
X149942786Y-96378028D01*
X149798034Y-96522780D01*
X149798030Y-96522786D01*
X149714042Y-96638385D01*
X149658714Y-96681051D01*
X149613725Y-96689500D01*
X147825418Y-96689500D01*
X147758379Y-96669815D01*
X147725100Y-96638385D01*
X147691971Y-96592787D01*
X147691967Y-96592782D01*
X147547213Y-96448028D01*
X147381613Y-96327715D01*
X147381612Y-96327714D01*
X147381610Y-96327713D01*
X147324653Y-96298691D01*
X147199223Y-96234781D01*
X147004534Y-96171522D01*
X146829995Y-96143878D01*
X146802352Y-96139500D01*
X146597648Y-96139500D01*
X146573329Y-96143351D01*
X146395465Y-96171522D01*
X146200776Y-96234781D01*
X146018386Y-96327715D01*
X145852786Y-96448028D01*
X145708032Y-96592782D01*
X145708028Y-96592787D01*
X145674900Y-96638385D01*
X145619571Y-96681051D01*
X145574582Y-96689500D01*
X142746080Y-96689500D01*
X142601092Y-96718340D01*
X142601082Y-96718343D01*
X142464511Y-96774912D01*
X142464498Y-96774919D01*
X142341584Y-96857048D01*
X142341580Y-96857051D01*
X141965105Y-97233526D01*
X141903782Y-97267011D01*
X141858026Y-97268318D01*
X141802352Y-97259500D01*
X141597648Y-97259500D01*
X141573329Y-97263351D01*
X141395465Y-97291522D01*
X141200776Y-97354781D01*
X141018386Y-97447715D01*
X140852786Y-97568028D01*
X140708028Y-97712786D01*
X140587715Y-97878386D01*
X140494781Y-98060776D01*
X140431522Y-98255465D01*
X140399500Y-98457648D01*
X140399500Y-98662351D01*
X140431522Y-98864534D01*
X140494781Y-99059223D01*
X140548773Y-99165186D01*
X140573455Y-99213628D01*
X140587715Y-99241613D01*
X140708028Y-99407213D01*
X140852786Y-99551971D01*
X141007749Y-99664556D01*
X141018390Y-99672287D01*
X141134607Y-99731503D01*
X141200776Y-99765218D01*
X141200778Y-99765218D01*
X141200781Y-99765220D01*
X141229490Y-99774548D01*
X141395465Y-99828477D01*
X141442149Y-99835871D01*
X141597648Y-99860500D01*
X141597649Y-99860500D01*
X141802351Y-99860500D01*
X141802352Y-99860500D01*
X142004534Y-99828477D01*
X142199219Y-99765220D01*
X142381610Y-99672287D01*
X142474590Y-99604732D01*
X142547213Y-99551971D01*
X142547215Y-99551968D01*
X142547219Y-99551966D01*
X142691966Y-99407219D01*
X142691968Y-99407215D01*
X142691971Y-99407213D01*
X142744732Y-99334590D01*
X142812287Y-99241610D01*
X142905220Y-99059219D01*
X142968477Y-98864534D01*
X143000500Y-98662352D01*
X143000500Y-98457648D01*
X142991681Y-98401971D01*
X142992382Y-98396545D01*
X142990470Y-98391418D01*
X142996811Y-98362268D01*
X143000635Y-98332680D01*
X143004468Y-98327073D01*
X143005323Y-98323145D01*
X143026470Y-98294896D01*
X143084550Y-98236817D01*
X143145874Y-98203333D01*
X143172230Y-98200500D01*
X143173918Y-98200500D01*
X143212209Y-98192883D01*
X143236402Y-98190500D01*
X145574582Y-98190500D01*
X145641621Y-98210185D01*
X145674900Y-98241615D01*
X145708028Y-98287212D01*
X145708032Y-98287217D01*
X145852786Y-98431971D01*
X145935371Y-98491971D01*
X146018390Y-98552287D01*
X146134607Y-98611503D01*
X146200776Y-98645218D01*
X146200778Y-98645218D01*
X146200781Y-98645220D01*
X146253505Y-98662351D01*
X146395465Y-98708477D01*
X146496557Y-98724488D01*
X146597648Y-98740500D01*
X146597649Y-98740500D01*
X146802351Y-98740500D01*
X146802352Y-98740500D01*
X147004534Y-98708477D01*
X147199219Y-98645220D01*
X147381610Y-98552287D01*
X147477962Y-98482284D01*
X147547213Y-98431971D01*
X147547215Y-98431968D01*
X147547219Y-98431966D01*
X147691966Y-98287219D01*
X147715036Y-98255466D01*
X147725100Y-98241615D01*
X147780429Y-98198949D01*
X147825418Y-98190500D01*
X149719952Y-98190500D01*
X149786991Y-98210185D01*
X149807633Y-98226818D01*
X149942781Y-98361966D01*
X149942784Y-98361968D01*
X149942788Y-98361972D01*
X150039135Y-98431971D01*
X150108390Y-98482287D01*
X150224607Y-98541503D01*
X150290776Y-98575218D01*
X150290778Y-98575218D01*
X150290781Y-98575220D01*
X150395137Y-98609127D01*
X150485465Y-98638477D01*
X150586557Y-98654488D01*
X150687648Y-98670500D01*
X150687649Y-98670500D01*
X151692351Y-98670500D01*
X151692352Y-98670500D01*
X151894534Y-98638477D01*
X152089219Y-98575220D01*
X152271610Y-98482287D01*
X152389625Y-98396545D01*
X152437213Y-98361971D01*
X152437215Y-98361968D01*
X152437219Y-98361966D01*
X152581966Y-98217219D01*
X152581968Y-98217215D01*
X152581971Y-98217213D01*
X152634732Y-98144590D01*
X152702287Y-98051610D01*
X152795220Y-97869219D01*
X152858477Y-97674534D01*
X152890500Y-97472352D01*
X152890500Y-97397648D01*
X161389500Y-97397648D01*
X161389500Y-97602351D01*
X161421522Y-97804534D01*
X161484781Y-97999223D01*
X161577715Y-98181613D01*
X161698028Y-98347213D01*
X161842786Y-98491971D01*
X161925806Y-98552287D01*
X162008390Y-98612287D01*
X162073021Y-98645218D01*
X162190776Y-98705218D01*
X162190778Y-98705218D01*
X162190781Y-98705220D01*
X162295137Y-98739127D01*
X162385465Y-98768477D01*
X162486557Y-98784488D01*
X162587648Y-98800500D01*
X162687770Y-98800500D01*
X162754809Y-98820185D01*
X162775451Y-98836819D01*
X163713181Y-99774548D01*
X163746666Y-99835871D01*
X163749500Y-99862229D01*
X163749500Y-102750975D01*
X163729815Y-102818014D01*
X163698387Y-102851291D01*
X163619530Y-102908584D01*
X163587632Y-102931760D01*
X163431756Y-103087636D01*
X163431752Y-103087641D01*
X163302187Y-103265974D01*
X163202104Y-103462393D01*
X163202103Y-103462396D01*
X163133985Y-103672047D01*
X163099500Y-103889778D01*
X163099500Y-104110221D01*
X163133985Y-104327952D01*
X163202103Y-104537603D01*
X163202104Y-104537606D01*
X163302187Y-104734025D01*
X163431752Y-104912358D01*
X163431756Y-104912363D01*
X163587636Y-105068243D01*
X163587641Y-105068247D01*
X163627802Y-105097425D01*
X163765978Y-105197815D01*
X163866863Y-105249219D01*
X163962393Y-105297895D01*
X163962396Y-105297896D01*
X164067221Y-105331955D01*
X164172049Y-105366015D01*
X164389778Y-105400500D01*
X164389779Y-105400500D01*
X164610221Y-105400500D01*
X164610222Y-105400500D01*
X164827951Y-105366015D01*
X165037606Y-105297895D01*
X165234022Y-105197815D01*
X165412365Y-105068242D01*
X165568242Y-104912365D01*
X165697815Y-104734022D01*
X165797895Y-104537606D01*
X165866015Y-104327951D01*
X165900500Y-104110222D01*
X165900500Y-103889778D01*
X165866015Y-103672049D01*
X165824664Y-103544781D01*
X165797896Y-103462396D01*
X165797895Y-103462393D01*
X165763237Y-103394375D01*
X165697815Y-103265978D01*
X165681260Y-103243192D01*
X165568247Y-103087641D01*
X165568243Y-103087636D01*
X165412367Y-102931760D01*
X165412365Y-102931758D01*
X165301613Y-102851291D01*
X165258949Y-102795963D01*
X165250500Y-102750975D01*
X165250500Y-99426079D01*
X165223986Y-99292790D01*
X165221772Y-99281658D01*
X165221659Y-99281088D01*
X165167047Y-99149245D01*
X165166713Y-99148403D01*
X165166684Y-99148093D01*
X165165764Y-99145522D01*
X165082954Y-99021588D01*
X165082953Y-99021587D01*
X165082951Y-99021584D01*
X164978416Y-98917049D01*
X164493333Y-98431966D01*
X163989505Y-97928137D01*
X163956020Y-97866814D01*
X163958881Y-97809639D01*
X163957340Y-97809269D01*
X163958473Y-97804545D01*
X163958477Y-97804534D01*
X163990500Y-97602352D01*
X163990500Y-97397648D01*
X163958477Y-97195466D01*
X163895220Y-97000781D01*
X163895218Y-97000778D01*
X163895218Y-97000776D01*
X163861503Y-96934607D01*
X163802287Y-96818390D01*
X163770699Y-96774912D01*
X163681971Y-96652786D01*
X163537213Y-96508028D01*
X163371613Y-96387715D01*
X163371612Y-96387714D01*
X163371610Y-96387713D01*
X163314653Y-96358691D01*
X163189223Y-96294781D01*
X162994534Y-96231522D01*
X162819995Y-96203878D01*
X162792352Y-96199500D01*
X162587648Y-96199500D01*
X162563329Y-96203351D01*
X162385465Y-96231522D01*
X162190776Y-96294781D01*
X162008386Y-96387715D01*
X161842786Y-96508028D01*
X161698028Y-96652786D01*
X161577715Y-96818386D01*
X161484781Y-97000776D01*
X161421522Y-97195465D01*
X161389500Y-97397648D01*
X152890500Y-97397648D01*
X152890500Y-97267648D01*
X152858477Y-97065466D01*
X152795220Y-96870781D01*
X152795218Y-96870778D01*
X152795218Y-96870776D01*
X152746372Y-96774912D01*
X152702287Y-96688390D01*
X152688792Y-96669815D01*
X152581971Y-96522786D01*
X152437213Y-96378028D01*
X152271614Y-96257715D01*
X152226603Y-96234781D01*
X152178917Y-96210483D01*
X152128123Y-96162511D01*
X152111328Y-96094690D01*
X152133865Y-96028555D01*
X152178917Y-95989516D01*
X152271610Y-95942287D01*
X152292770Y-95926913D01*
X152437213Y-95821971D01*
X152437215Y-95821968D01*
X152437219Y-95821966D01*
X152581966Y-95677219D01*
X152581968Y-95677215D01*
X152581971Y-95677213D01*
X152652236Y-95580500D01*
X152702287Y-95511610D01*
X152795220Y-95329219D01*
X152858477Y-95134534D01*
X152890500Y-94932352D01*
X152890500Y-94727648D01*
X152858477Y-94525466D01*
X152795220Y-94330781D01*
X152795218Y-94330778D01*
X152795218Y-94330776D01*
X152747189Y-94236515D01*
X152702287Y-94148390D01*
X152652236Y-94079500D01*
X152581971Y-93982786D01*
X152437213Y-93838028D01*
X152271614Y-93717715D01*
X152265006Y-93714348D01*
X152178917Y-93670483D01*
X152128123Y-93622511D01*
X152111328Y-93554690D01*
X152133865Y-93488555D01*
X152178917Y-93449516D01*
X152271610Y-93402287D01*
X152392877Y-93314181D01*
X152458683Y-93290702D01*
X152465762Y-93290500D01*
X153058542Y-93290500D01*
X153089566Y-93284328D01*
X153155188Y-93271275D01*
X153251836Y-93252051D01*
X153305165Y-93229961D01*
X153433914Y-93176632D01*
X153597782Y-93067139D01*
X153737139Y-92927782D01*
X153737139Y-92927780D01*
X153747347Y-92917573D01*
X153747348Y-92917570D01*
X155777140Y-90887781D01*
X155886632Y-90723914D01*
X155962052Y-90541835D01*
X156000500Y-90348540D01*
X156000500Y-90151459D01*
X156000500Y-88715782D01*
X156020185Y-88648743D01*
X156036819Y-88628101D01*
X156628101Y-88036819D01*
X156689424Y-88003334D01*
X156715782Y-88000500D01*
X161166541Y-88000500D01*
X161233580Y-88020185D01*
X161254222Y-88036819D01*
X162595504Y-89378101D01*
X162628989Y-89439424D01*
X162631823Y-89465782D01*
X162631823Y-90300001D01*
X162631824Y-90300019D01*
X162642323Y-90402796D01*
X162642324Y-90402799D01*
X162658892Y-90452797D01*
X162697509Y-90569334D01*
X162789611Y-90718656D01*
X162913667Y-90842712D01*
X163062989Y-90934814D01*
X163229526Y-90989999D01*
X163332314Y-91000500D01*
X163528568Y-91000499D01*
X163595606Y-91020183D01*
X163599146Y-91022546D01*
X167874212Y-93982782D01*
X168240644Y-94236515D01*
X168284554Y-94290863D01*
X168294053Y-94338115D01*
X168302200Y-97267648D01*
X168308026Y-99362426D01*
X171375111Y-99352778D01*
X171442211Y-99372251D01*
X171488132Y-99424911D01*
X171499500Y-99476777D01*
X171499500Y-116875500D01*
X171479815Y-116942539D01*
X171427011Y-116988294D01*
X171375500Y-116999500D01*
X164959001Y-116999500D01*
X164891962Y-116979815D01*
X164846207Y-116927011D01*
X164836263Y-116857853D01*
X164859734Y-116801189D01*
X164903796Y-116742331D01*
X164954091Y-116607483D01*
X164960500Y-116547873D01*
X164960499Y-113452128D01*
X164954091Y-113392517D01*
X164941235Y-113358049D01*
X164903797Y-113257671D01*
X164903793Y-113257664D01*
X164817547Y-113142455D01*
X164817544Y-113142452D01*
X164702335Y-113056206D01*
X164702328Y-113056202D01*
X164567482Y-113005908D01*
X164567483Y-113005908D01*
X164507883Y-112999501D01*
X164507881Y-112999500D01*
X164507873Y-112999500D01*
X164507864Y-112999500D01*
X161412129Y-112999500D01*
X161412123Y-112999501D01*
X161352516Y-113005908D01*
X161217671Y-113056202D01*
X161217664Y-113056206D01*
X161102455Y-113142452D01*
X161102452Y-113142455D01*
X161016206Y-113257664D01*
X161016202Y-113257671D01*
X160965908Y-113392517D01*
X160959501Y-113452116D01*
X160959500Y-113452127D01*
X160959500Y-114640516D01*
X160959501Y-115796500D01*
X160939816Y-115863539D01*
X160887013Y-115909294D01*
X160835501Y-115920500D01*
X151458910Y-115920500D01*
X151391871Y-115900815D01*
X151346116Y-115848011D01*
X151336172Y-115778853D01*
X151360534Y-115721014D01*
X151375300Y-115701768D01*
X151391950Y-115680071D01*
X151501440Y-115490428D01*
X151585241Y-115288117D01*
X151641917Y-115076598D01*
X151670500Y-114859490D01*
X151670500Y-114640510D01*
X151641917Y-114423402D01*
X151585241Y-114211883D01*
X151501440Y-114009572D01*
X151391950Y-113819929D01*
X151258643Y-113646200D01*
X151258638Y-113646194D01*
X151103805Y-113491361D01*
X151103798Y-113491355D01*
X150930070Y-113358049D01*
X150812500Y-113290170D01*
X150764284Y-113239603D01*
X150750500Y-113182783D01*
X150750500Y-112862230D01*
X150770185Y-112795191D01*
X150786819Y-112774549D01*
X155699036Y-107862332D01*
X166899500Y-107862332D01*
X166899500Y-108137667D01*
X166899501Y-108137684D01*
X166935438Y-108410655D01*
X166935439Y-108410660D01*
X166935440Y-108410666D01*
X166935441Y-108410668D01*
X167006704Y-108676630D01*
X167112075Y-108931017D01*
X167112080Y-108931028D01*
X167194861Y-109074407D01*
X167249751Y-109169479D01*
X167249753Y-109169482D01*
X167249754Y-109169483D01*
X167417370Y-109387926D01*
X167417376Y-109387933D01*
X167612066Y-109582623D01*
X167612072Y-109582628D01*
X167830521Y-109750249D01*
X167983778Y-109838732D01*
X168068971Y-109887919D01*
X168068976Y-109887921D01*
X168068979Y-109887923D01*
X168323368Y-109993295D01*
X168589334Y-110064560D01*
X168862326Y-110100500D01*
X168862333Y-110100500D01*
X169137667Y-110100500D01*
X169137674Y-110100500D01*
X169410666Y-110064560D01*
X169676632Y-109993295D01*
X169931021Y-109887923D01*
X170169479Y-109750249D01*
X170387928Y-109582628D01*
X170582628Y-109387928D01*
X170750249Y-109169479D01*
X170887923Y-108931021D01*
X170993295Y-108676632D01*
X171064560Y-108410666D01*
X171100500Y-108137674D01*
X171100500Y-107862326D01*
X171064560Y-107589334D01*
X170993295Y-107323368D01*
X170887923Y-107068979D01*
X170887921Y-107068976D01*
X170887919Y-107068971D01*
X170838732Y-106983778D01*
X170750249Y-106830521D01*
X170582628Y-106612072D01*
X170582623Y-106612066D01*
X170387933Y-106417376D01*
X170387926Y-106417370D01*
X170169483Y-106249754D01*
X170169482Y-106249753D01*
X170169479Y-106249751D01*
X170035308Y-106172287D01*
X169931028Y-106112080D01*
X169931017Y-106112075D01*
X169676630Y-106006704D01*
X169484486Y-105955220D01*
X169410666Y-105935440D01*
X169410660Y-105935439D01*
X169410655Y-105935438D01*
X169137684Y-105899501D01*
X169137679Y-105899500D01*
X169137674Y-105899500D01*
X168862326Y-105899500D01*
X168862320Y-105899500D01*
X168862315Y-105899501D01*
X168589344Y-105935438D01*
X168589337Y-105935439D01*
X168589334Y-105935440D01*
X168533125Y-105950500D01*
X168323369Y-106006704D01*
X168068982Y-106112075D01*
X168068971Y-106112080D01*
X167830516Y-106249754D01*
X167612073Y-106417370D01*
X167612066Y-106417376D01*
X167417376Y-106612066D01*
X167417370Y-106612073D01*
X167249754Y-106830516D01*
X167112080Y-107068971D01*
X167112075Y-107068982D01*
X167006704Y-107323369D01*
X166935441Y-107589331D01*
X166935438Y-107589344D01*
X166899501Y-107862315D01*
X166899500Y-107862332D01*
X155699036Y-107862332D01*
X157474549Y-106086819D01*
X157535872Y-106053334D01*
X157562230Y-106050500D01*
X157602351Y-106050500D01*
X157602352Y-106050500D01*
X157804534Y-106018477D01*
X157999219Y-105955220D01*
X158181610Y-105862287D01*
X158292590Y-105781656D01*
X158347213Y-105741971D01*
X158347215Y-105741968D01*
X158347219Y-105741966D01*
X158491966Y-105597219D01*
X158491968Y-105597215D01*
X158491971Y-105597213D01*
X158560528Y-105502851D01*
X158612287Y-105431610D01*
X158705220Y-105249219D01*
X158768477Y-105054534D01*
X158800500Y-104852352D01*
X158800500Y-104647648D01*
X158768477Y-104445466D01*
X158705220Y-104250781D01*
X158705218Y-104250778D01*
X158705218Y-104250776D01*
X158662555Y-104167047D01*
X158612287Y-104068390D01*
X158604556Y-104057749D01*
X158491971Y-103902786D01*
X158347213Y-103758028D01*
X158181613Y-103637715D01*
X158181612Y-103637714D01*
X158181610Y-103637713D01*
X158124653Y-103608691D01*
X157999223Y-103544781D01*
X157804534Y-103481522D01*
X157629995Y-103453878D01*
X157602352Y-103449500D01*
X157397648Y-103449500D01*
X157373329Y-103453351D01*
X157195465Y-103481522D01*
X157000776Y-103544781D01*
X156818386Y-103637715D01*
X156652786Y-103758028D01*
X156508028Y-103902786D01*
X156387715Y-104068386D01*
X156294781Y-104250776D01*
X156231522Y-104445465D01*
X156199500Y-104647648D01*
X156199500Y-104852351D01*
X156216177Y-104957648D01*
X156231523Y-105054534D01*
X156235979Y-105068247D01*
X156245459Y-105097425D01*
X156247453Y-105167266D01*
X156215208Y-105223422D01*
X149417050Y-112021580D01*
X149417044Y-112021588D01*
X149367812Y-112095268D01*
X149367813Y-112095269D01*
X149334921Y-112144496D01*
X149334914Y-112144508D01*
X149278342Y-112281086D01*
X149278340Y-112281092D01*
X149249500Y-112426079D01*
X149249500Y-113182783D01*
X149229815Y-113249822D01*
X149187500Y-113290170D01*
X149069929Y-113358049D01*
X148896201Y-113491355D01*
X148896194Y-113491361D01*
X148741361Y-113646194D01*
X148741355Y-113646201D01*
X148608049Y-113819929D01*
X148498565Y-114009561D01*
X148498560Y-114009573D01*
X148414758Y-114211884D01*
X148358084Y-114423399D01*
X148358082Y-114423410D01*
X148329500Y-114640502D01*
X148329500Y-114859497D01*
X148353306Y-115040314D01*
X148358083Y-115076598D01*
X148386421Y-115182357D01*
X148404180Y-115248638D01*
X148414759Y-115288117D01*
X148498560Y-115490428D01*
X148498562Y-115490433D01*
X148498565Y-115490438D01*
X148608049Y-115680070D01*
X148639466Y-115721014D01*
X148664660Y-115786184D01*
X148650621Y-115854628D01*
X148601807Y-115904618D01*
X148541090Y-115920500D01*
X147383229Y-115920500D01*
X147316190Y-115900815D01*
X147295548Y-115884181D01*
X146660006Y-115248638D01*
X146626521Y-115187315D01*
X146627912Y-115128863D01*
X146641916Y-115076600D01*
X146641917Y-115076598D01*
X146670500Y-114859490D01*
X146670500Y-114640510D01*
X146641917Y-114423402D01*
X146585241Y-114211883D01*
X146501440Y-114009572D01*
X146391950Y-113819929D01*
X146258643Y-113646200D01*
X146258638Y-113646194D01*
X146103805Y-113491361D01*
X146103798Y-113491355D01*
X145930070Y-113358049D01*
X145740438Y-113248565D01*
X145740433Y-113248562D01*
X145740428Y-113248560D01*
X145538117Y-113164759D01*
X145538118Y-113164759D01*
X145538115Y-113164758D01*
X145432357Y-113136421D01*
X145326598Y-113108083D01*
X145290314Y-113103306D01*
X145109497Y-113079500D01*
X145109490Y-113079500D01*
X144890510Y-113079500D01*
X144890502Y-113079500D01*
X144683853Y-113106707D01*
X144673402Y-113108083D01*
X144628699Y-113120060D01*
X144461884Y-113164758D01*
X144343374Y-113213847D01*
X144259572Y-113248560D01*
X144259569Y-113248561D01*
X144259561Y-113248565D01*
X144069929Y-113358049D01*
X143896201Y-113491355D01*
X143896194Y-113491361D01*
X143741361Y-113646194D01*
X143741355Y-113646201D01*
X143608049Y-113819929D01*
X143498565Y-114009561D01*
X143498560Y-114009573D01*
X143414758Y-114211884D01*
X143358084Y-114423399D01*
X143358082Y-114423410D01*
X143329500Y-114640502D01*
X143329500Y-114859497D01*
X143353306Y-115040314D01*
X143358083Y-115076598D01*
X143386421Y-115182357D01*
X143404180Y-115248638D01*
X143414759Y-115288117D01*
X143498560Y-115490428D01*
X143498562Y-115490433D01*
X143498565Y-115490438D01*
X143608049Y-115680070D01*
X143741355Y-115853798D01*
X143741361Y-115853805D01*
X143896194Y-116008638D01*
X143896201Y-116008644D01*
X144069929Y-116141950D01*
X144259561Y-116251434D01*
X144259563Y-116251434D01*
X144259572Y-116251440D01*
X144461883Y-116335241D01*
X144673402Y-116391917D01*
X144890510Y-116420500D01*
X144890517Y-116420500D01*
X145109483Y-116420500D01*
X145109490Y-116420500D01*
X145326598Y-116391917D01*
X145536601Y-116335647D01*
X145606448Y-116337310D01*
X145656373Y-116367741D01*
X145896115Y-116607483D01*
X146076452Y-116787819D01*
X146109937Y-116849142D01*
X146104953Y-116918833D01*
X146063082Y-116974767D01*
X145997617Y-116999184D01*
X145988771Y-116999500D01*
X136624000Y-116999500D01*
X136556961Y-116979815D01*
X136511206Y-116927011D01*
X136500000Y-116875500D01*
X136500000Y-104957648D01*
X145399500Y-104957648D01*
X145399500Y-105162352D01*
X145403878Y-105189995D01*
X145431522Y-105364534D01*
X145494781Y-105559223D01*
X145587715Y-105741613D01*
X145708028Y-105907213D01*
X145852786Y-106051971D01*
X145935521Y-106112080D01*
X146018390Y-106172287D01*
X146134607Y-106231503D01*
X146200776Y-106265218D01*
X146200778Y-106265218D01*
X146200781Y-106265220D01*
X146305137Y-106299127D01*
X146395465Y-106328477D01*
X146496557Y-106344488D01*
X146597648Y-106360500D01*
X146597649Y-106360500D01*
X146802351Y-106360500D01*
X146802352Y-106360500D01*
X147004534Y-106328477D01*
X147199219Y-106265220D01*
X147381610Y-106172287D01*
X147499248Y-106086819D01*
X147547213Y-106051971D01*
X147547215Y-106051968D01*
X147547219Y-106051966D01*
X147691966Y-105907219D01*
X147694650Y-105903524D01*
X147725100Y-105861615D01*
X147780429Y-105818949D01*
X147825418Y-105810500D01*
X149763920Y-105810500D01*
X149861462Y-105791096D01*
X149908913Y-105781658D01*
X150045495Y-105725084D01*
X150135292Y-105665084D01*
X150168416Y-105642952D01*
X150276638Y-105534729D01*
X150278817Y-105532749D01*
X150307698Y-105518718D01*
X150335872Y-105503334D01*
X150340357Y-105502851D01*
X150341662Y-105502218D01*
X150343835Y-105502477D01*
X150362230Y-105500500D01*
X151374582Y-105500500D01*
X151441621Y-105520185D01*
X151474900Y-105551615D01*
X151508028Y-105597212D01*
X151508032Y-105597217D01*
X151652786Y-105741971D01*
X151807749Y-105854556D01*
X151818390Y-105862287D01*
X151906570Y-105907217D01*
X152000776Y-105955218D01*
X152000778Y-105955218D01*
X152000781Y-105955220D01*
X152105137Y-105989127D01*
X152195465Y-106018477D01*
X152296557Y-106034488D01*
X152397648Y-106050500D01*
X152397649Y-106050500D01*
X152602351Y-106050500D01*
X152602352Y-106050500D01*
X152804534Y-106018477D01*
X152999219Y-105955220D01*
X153181610Y-105862287D01*
X153292590Y-105781656D01*
X153347213Y-105741971D01*
X153347215Y-105741968D01*
X153347219Y-105741966D01*
X153491966Y-105597219D01*
X153491968Y-105597215D01*
X153491971Y-105597213D01*
X153560528Y-105502851D01*
X153612287Y-105431610D01*
X153705220Y-105249219D01*
X153768477Y-105054534D01*
X153800500Y-104852352D01*
X153800500Y-104647648D01*
X153768477Y-104445466D01*
X153705220Y-104250781D01*
X153705218Y-104250778D01*
X153705218Y-104250776D01*
X153662555Y-104167047D01*
X153612287Y-104068390D01*
X153604556Y-104057749D01*
X153491971Y-103902786D01*
X153347213Y-103758028D01*
X153181613Y-103637715D01*
X153181612Y-103637714D01*
X153181610Y-103637713D01*
X153124653Y-103608691D01*
X152999223Y-103544781D01*
X152804534Y-103481522D01*
X152629995Y-103453878D01*
X152602352Y-103449500D01*
X152397648Y-103449500D01*
X152373329Y-103453351D01*
X152195465Y-103481522D01*
X152000776Y-103544781D01*
X151818386Y-103637715D01*
X151652786Y-103758028D01*
X151508032Y-103902782D01*
X151508028Y-103902787D01*
X151474900Y-103948385D01*
X151419571Y-103991051D01*
X151374582Y-103999500D01*
X149926080Y-103999500D01*
X149781092Y-104028340D01*
X149781082Y-104028343D01*
X149644511Y-104084912D01*
X149644498Y-104084919D01*
X149521585Y-104167047D01*
X149475852Y-104212781D01*
X149415450Y-104273182D01*
X149354130Y-104306666D01*
X149327771Y-104309500D01*
X147825418Y-104309500D01*
X147758379Y-104289815D01*
X147725100Y-104258385D01*
X147691971Y-104212787D01*
X147691967Y-104212782D01*
X147547213Y-104068028D01*
X147381613Y-103947715D01*
X147381612Y-103947714D01*
X147381610Y-103947713D01*
X147293436Y-103902786D01*
X147199223Y-103854781D01*
X147004534Y-103791522D01*
X146829995Y-103763878D01*
X146802352Y-103759500D01*
X146597648Y-103759500D01*
X146573329Y-103763351D01*
X146395465Y-103791522D01*
X146200776Y-103854781D01*
X146018386Y-103947715D01*
X145852786Y-104068028D01*
X145708028Y-104212786D01*
X145587715Y-104378386D01*
X145494781Y-104560776D01*
X145431522Y-104755465D01*
X145406672Y-104912365D01*
X145399500Y-104957648D01*
X136500000Y-104957648D01*
X136500000Y-101612730D01*
X136519685Y-101545691D01*
X136536319Y-101525049D01*
X136642712Y-101418656D01*
X136734814Y-101269334D01*
X136789999Y-101102797D01*
X136800500Y-101000009D01*
X136800499Y-99799992D01*
X136789999Y-99697203D01*
X136734814Y-99530666D01*
X136642712Y-99381344D01*
X136536319Y-99274951D01*
X136502834Y-99213628D01*
X136500000Y-99187270D01*
X136500000Y-90124659D01*
X136519685Y-90057620D01*
X136524800Y-90050259D01*
X136779995Y-89710000D01*
X139337795Y-86299600D01*
X139393766Y-86257779D01*
X139436995Y-86250000D01*
X145431655Y-86250000D01*
X145498694Y-86269685D01*
G37*
%TD.AperFunction*%
%TD*%
%TA.AperFunction,Conductor*%
%TO.N,/VCC*%
G36*
X152786501Y-79020185D02*
G01*
X152832256Y-79072989D01*
X152842200Y-79142147D01*
X152813175Y-79205703D01*
X152781462Y-79231887D01*
X152606196Y-79333075D01*
X152398148Y-79492718D01*
X152212718Y-79678148D01*
X152053075Y-79886196D01*
X151921958Y-80113299D01*
X151921953Y-80113309D01*
X151821605Y-80355571D01*
X151821602Y-80355581D01*
X151764423Y-80568979D01*
X151753730Y-80608885D01*
X151719500Y-80868872D01*
X151719500Y-81131127D01*
X151746123Y-81333339D01*
X151753730Y-81391116D01*
X151821602Y-81644418D01*
X151821605Y-81644428D01*
X151921953Y-81886690D01*
X151921958Y-81886700D01*
X152053075Y-82113803D01*
X152212718Y-82321851D01*
X152212726Y-82321860D01*
X152398140Y-82507274D01*
X152398148Y-82507281D01*
X152606196Y-82666924D01*
X152833299Y-82798041D01*
X152833309Y-82798046D01*
X153050299Y-82887926D01*
X153075581Y-82898398D01*
X153328884Y-82966270D01*
X153577188Y-82998960D01*
X153588864Y-83000498D01*
X153588880Y-83000500D01*
X153588887Y-83000500D01*
X153851113Y-83000500D01*
X153851120Y-83000500D01*
X154111116Y-82966270D01*
X154364419Y-82898398D01*
X154541340Y-82825114D01*
X154606690Y-82798046D01*
X154606691Y-82798045D01*
X154606697Y-82798043D01*
X154833803Y-82666924D01*
X155041851Y-82507282D01*
X155041855Y-82507277D01*
X155041860Y-82507274D01*
X155227274Y-82321860D01*
X155227277Y-82321855D01*
X155227282Y-82321851D01*
X155386924Y-82113803D01*
X155518043Y-81886697D01*
X155618398Y-81644419D01*
X155686270Y-81391116D01*
X155720500Y-81131120D01*
X155720500Y-80868880D01*
X155686270Y-80608884D01*
X155618398Y-80355581D01*
X155593214Y-80294781D01*
X155518046Y-80113309D01*
X155518041Y-80113299D01*
X155386924Y-79886196D01*
X155227281Y-79678148D01*
X155227274Y-79678140D01*
X155041860Y-79492726D01*
X155041851Y-79492718D01*
X154833803Y-79333075D01*
X154658538Y-79231887D01*
X154610323Y-79181320D01*
X154597099Y-79112713D01*
X154623067Y-79047849D01*
X154679981Y-79007320D01*
X154720538Y-79000500D01*
X156800999Y-79000500D01*
X156868038Y-79020185D01*
X156913793Y-79072989D01*
X156923737Y-79142147D01*
X156900265Y-79198810D01*
X156895106Y-79205703D01*
X156856204Y-79257668D01*
X156856202Y-79257671D01*
X156805908Y-79392517D01*
X156801294Y-79435438D01*
X156799501Y-79452123D01*
X156799500Y-79452135D01*
X156799500Y-82547870D01*
X156799501Y-82547876D01*
X156805908Y-82607483D01*
X156856202Y-82742328D01*
X156856206Y-82742335D01*
X156942452Y-82857544D01*
X156942455Y-82857547D01*
X157057664Y-82943793D01*
X157057671Y-82943797D01*
X157192517Y-82994091D01*
X157192516Y-82994091D01*
X157199444Y-82994835D01*
X157252127Y-83000500D01*
X160347872Y-83000499D01*
X160407483Y-82994091D01*
X160542331Y-82943796D01*
X160657546Y-82857546D01*
X160743796Y-82742331D01*
X160794091Y-82607483D01*
X160800500Y-82547873D01*
X160800500Y-82124500D01*
X160820185Y-82057461D01*
X160872989Y-82011706D01*
X160924500Y-82000500D01*
X162758780Y-82000500D01*
X162825819Y-82020185D01*
X162846461Y-82036819D01*
X168095504Y-87285862D01*
X168128989Y-87347185D01*
X168131823Y-87373543D01*
X168131823Y-88327111D01*
X168112138Y-88394150D01*
X168095504Y-88414792D01*
X167987808Y-88522487D01*
X167987808Y-88522488D01*
X167987806Y-88522490D01*
X167933526Y-88597200D01*
X167848980Y-88713566D01*
X167741756Y-88924003D01*
X167668769Y-89148631D01*
X167631823Y-89381902D01*
X167631823Y-89618097D01*
X167668769Y-89851368D01*
X167741756Y-90075996D01*
X167848980Y-90286433D01*
X167987806Y-90477510D01*
X168154813Y-90644517D01*
X168345890Y-90783343D01*
X168445314Y-90834002D01*
X168556326Y-90890566D01*
X168556328Y-90890566D01*
X168556331Y-90890568D01*
X168628546Y-90914032D01*
X168780954Y-90963553D01*
X169014226Y-91000500D01*
X169014231Y-91000500D01*
X169250420Y-91000500D01*
X169483691Y-90963553D01*
X169497088Y-90959200D01*
X169708315Y-90890568D01*
X169918756Y-90783343D01*
X170109833Y-90644517D01*
X170276840Y-90477510D01*
X170415666Y-90286433D01*
X170522891Y-90075992D01*
X170595876Y-89851368D01*
X170606512Y-89784217D01*
X170632823Y-89618097D01*
X170632823Y-89381902D01*
X170595876Y-89148631D01*
X170522889Y-88924003D01*
X170415665Y-88713566D01*
X170276840Y-88522490D01*
X170169142Y-88414792D01*
X170135657Y-88353469D01*
X170132823Y-88327111D01*
X170132823Y-86762229D01*
X170094375Y-86568943D01*
X170094374Y-86568942D01*
X170094374Y-86568938D01*
X170094372Y-86568933D01*
X170018958Y-86386865D01*
X170018951Y-86386852D01*
X169909462Y-86222991D01*
X169909459Y-86222987D01*
X169770108Y-86083636D01*
X169770104Y-86083633D01*
X169638651Y-85995799D01*
X169619861Y-85980378D01*
X168883983Y-85244500D01*
X165001814Y-81362332D01*
X166899500Y-81362332D01*
X166899500Y-81637667D01*
X166899501Y-81637684D01*
X166935438Y-81910655D01*
X166935439Y-81910660D01*
X166935440Y-81910666D01*
X166964785Y-82020185D01*
X167006704Y-82176630D01*
X167112075Y-82431017D01*
X167112080Y-82431028D01*
X167179543Y-82547876D01*
X167249751Y-82669479D01*
X167249753Y-82669482D01*
X167249754Y-82669483D01*
X167417370Y-82887926D01*
X167417376Y-82887933D01*
X167612066Y-83082623D01*
X167612072Y-83082628D01*
X167830521Y-83250249D01*
X167983778Y-83338732D01*
X168068971Y-83387919D01*
X168068976Y-83387921D01*
X168068979Y-83387923D01*
X168323368Y-83493295D01*
X168589334Y-83564560D01*
X168862326Y-83600500D01*
X168862333Y-83600500D01*
X169137667Y-83600500D01*
X169137674Y-83600500D01*
X169410666Y-83564560D01*
X169676632Y-83493295D01*
X169931021Y-83387923D01*
X170169479Y-83250249D01*
X170387928Y-83082628D01*
X170582628Y-82887928D01*
X170750249Y-82669479D01*
X170887923Y-82431021D01*
X170993295Y-82176632D01*
X171064560Y-81910666D01*
X171100500Y-81637674D01*
X171100500Y-81362326D01*
X171064560Y-81089334D01*
X170993295Y-80823368D01*
X170887923Y-80568979D01*
X170887921Y-80568976D01*
X170887919Y-80568971D01*
X170838732Y-80483778D01*
X170750249Y-80330521D01*
X170583625Y-80113371D01*
X170582629Y-80112073D01*
X170582623Y-80112066D01*
X170387933Y-79917376D01*
X170387926Y-79917370D01*
X170169483Y-79749754D01*
X170169482Y-79749753D01*
X170169479Y-79749751D01*
X170045461Y-79678149D01*
X169931028Y-79612080D01*
X169931017Y-79612075D01*
X169676630Y-79506704D01*
X169543649Y-79471072D01*
X169410666Y-79435440D01*
X169410660Y-79435439D01*
X169410655Y-79435438D01*
X169137684Y-79399501D01*
X169137679Y-79399500D01*
X169137674Y-79399500D01*
X168862326Y-79399500D01*
X168862320Y-79399500D01*
X168862315Y-79399501D01*
X168589344Y-79435438D01*
X168589337Y-79435439D01*
X168589334Y-79435440D01*
X168533125Y-79450500D01*
X168323369Y-79506704D01*
X168068982Y-79612075D01*
X168068971Y-79612080D01*
X167830516Y-79749754D01*
X167612073Y-79917370D01*
X167612066Y-79917376D01*
X167417376Y-80112066D01*
X167417370Y-80112073D01*
X167249754Y-80330516D01*
X167112080Y-80568971D01*
X167112075Y-80568982D01*
X167006704Y-80823369D01*
X166935441Y-81089331D01*
X166935438Y-81089344D01*
X166899501Y-81362315D01*
X166899500Y-81362332D01*
X165001814Y-81362332D01*
X164008770Y-80369288D01*
X164008768Y-80369285D01*
X164008768Y-80369286D01*
X164001701Y-80362219D01*
X164001701Y-80362218D01*
X163862344Y-80222861D01*
X163862343Y-80222860D01*
X163862342Y-80222859D01*
X163698482Y-80113371D01*
X163698473Y-80113366D01*
X163625877Y-80083296D01*
X163569727Y-80060038D01*
X163516398Y-80037949D01*
X163516394Y-80037948D01*
X163516390Y-80037946D01*
X163419750Y-80018724D01*
X163323106Y-79999500D01*
X163323103Y-79999500D01*
X160924499Y-79999500D01*
X160857460Y-79979815D01*
X160811705Y-79927011D01*
X160800499Y-79875500D01*
X160800499Y-79452129D01*
X160800498Y-79452123D01*
X160800497Y-79452116D01*
X160794091Y-79392517D01*
X160743796Y-79257669D01*
X160699734Y-79198810D01*
X160675317Y-79133348D01*
X160690168Y-79065075D01*
X160739573Y-79015669D01*
X160799001Y-79000500D01*
X171375500Y-79000500D01*
X171442539Y-79020185D01*
X171488294Y-79072989D01*
X171499500Y-79124500D01*
X171499500Y-98223311D01*
X171479815Y-98290350D01*
X171427011Y-98336105D01*
X171375086Y-98346150D01*
X171375090Y-98347273D01*
X169434769Y-98353375D01*
X169367668Y-98333902D01*
X169321747Y-98281242D01*
X169310379Y-98229721D01*
X169308176Y-97437632D01*
X169299549Y-94335319D01*
X169279831Y-94139945D01*
X169270332Y-94092693D01*
X169252491Y-94018599D01*
X169177871Y-93829328D01*
X169066679Y-93658952D01*
X169022769Y-93604604D01*
X169022765Y-93604599D01*
X169022759Y-93604592D01*
X168967750Y-93542003D01*
X168813057Y-93409850D01*
X168813048Y-93409843D01*
X165743669Y-91284477D01*
X165372760Y-91027644D01*
X165328851Y-90973297D01*
X165321294Y-90903838D01*
X165352490Y-90841319D01*
X165355617Y-90838073D01*
X165475035Y-90718656D01*
X165567137Y-90569334D01*
X165622322Y-90402797D01*
X165632823Y-90300009D01*
X165632822Y-88699992D01*
X165622322Y-88597203D01*
X165567137Y-88430666D01*
X165475035Y-88281344D01*
X165350979Y-88157288D01*
X165201657Y-88065186D01*
X165035120Y-88010001D01*
X165035118Y-88010000D01*
X164932339Y-87999500D01*
X164932332Y-87999500D01*
X164098105Y-87999500D01*
X164031066Y-87979815D01*
X164010424Y-87963181D01*
X162413802Y-86366559D01*
X162413782Y-86366537D01*
X162270108Y-86222863D01*
X162270104Y-86222860D01*
X162106243Y-86113371D01*
X162106234Y-86113366D01*
X162033638Y-86083296D01*
X161977488Y-86060038D01*
X161924159Y-86037949D01*
X161924155Y-86037948D01*
X161924151Y-86037946D01*
X161827511Y-86018724D01*
X161730867Y-85999500D01*
X161730864Y-85999500D01*
X156151459Y-85999500D01*
X156151455Y-85999500D01*
X156054812Y-86018724D01*
X155958167Y-86037947D01*
X155958161Y-86037949D01*
X155904834Y-86060037D01*
X155904834Y-86060038D01*
X155859315Y-86078892D01*
X155776089Y-86113366D01*
X155776079Y-86113371D01*
X155612219Y-86222859D01*
X155542540Y-86292538D01*
X155472861Y-86362218D01*
X155472858Y-86362221D01*
X154362221Y-87472858D01*
X154362218Y-87472861D01*
X154292538Y-87542540D01*
X154222859Y-87612219D01*
X154113371Y-87776079D01*
X154113364Y-87776092D01*
X154037950Y-87958160D01*
X154037947Y-87958170D01*
X153999500Y-88151456D01*
X153999500Y-89784217D01*
X153979815Y-89851256D01*
X153963181Y-89871898D01*
X152581899Y-91253181D01*
X152554971Y-91267884D01*
X152529153Y-91284477D01*
X152522952Y-91285368D01*
X152520576Y-91286666D01*
X152494218Y-91289500D01*
X152465762Y-91289500D01*
X152398723Y-91269815D01*
X152392877Y-91265818D01*
X152271613Y-91177715D01*
X152271612Y-91177714D01*
X152271610Y-91177713D01*
X152214653Y-91148691D01*
X152089223Y-91084781D01*
X151894534Y-91021522D01*
X151719995Y-90993878D01*
X151692352Y-90989500D01*
X150687648Y-90989500D01*
X150555888Y-91010368D01*
X150486595Y-91001413D01*
X150435044Y-90959200D01*
X150403296Y-90914032D01*
X150382964Y-90890568D01*
X150357536Y-90861222D01*
X150238423Y-90744821D01*
X150238421Y-90744819D01*
X150069329Y-90631693D01*
X150069322Y-90631690D01*
X149880919Y-90554916D01*
X149880913Y-90554914D01*
X149813884Y-90535233D01*
X149813886Y-90535233D01*
X149813881Y-90535232D01*
X149732997Y-90515083D01*
X149732993Y-90515082D01*
X149732994Y-90515082D01*
X149530592Y-90494500D01*
X149530591Y-90494500D01*
X149438335Y-90494500D01*
X149371296Y-90474815D01*
X149333494Y-90436715D01*
X149247153Y-90300009D01*
X146775690Y-86386859D01*
X146386650Y-85770879D01*
X146386634Y-85770854D01*
X146378225Y-85757765D01*
X146328509Y-85696302D01*
X146250275Y-85599582D01*
X146212477Y-85561486D01*
X146139486Y-85494820D01*
X145970393Y-85381693D01*
X145970386Y-85381690D01*
X145781983Y-85304916D01*
X145781977Y-85304914D01*
X145714948Y-85285233D01*
X145714950Y-85285233D01*
X145714945Y-85285232D01*
X145634061Y-85265083D01*
X145634057Y-85265082D01*
X145634058Y-85265082D01*
X145431656Y-85244500D01*
X145431655Y-85244500D01*
X139436995Y-85244500D01*
X139436994Y-85244500D01*
X139258920Y-85260394D01*
X139215674Y-85268176D01*
X139158346Y-85280226D01*
X139158332Y-85280230D01*
X138966383Y-85347628D01*
X138966377Y-85347631D01*
X138791913Y-85452294D01*
X138735946Y-85494113D01*
X138671311Y-85546719D01*
X138671298Y-85546731D01*
X138533392Y-85696302D01*
X135720395Y-89446965D01*
X135699089Y-89476470D01*
X135693971Y-89483836D01*
X135693965Y-89483845D01*
X135670284Y-89522661D01*
X135631693Y-89585920D01*
X135554914Y-89774337D01*
X135535233Y-89841365D01*
X135515082Y-89922256D01*
X135494500Y-90124657D01*
X135494500Y-99187272D01*
X135500261Y-99294743D01*
X135500263Y-99294774D01*
X135503095Y-99321116D01*
X135541389Y-99508001D01*
X135620325Y-99695509D01*
X135653815Y-99756841D01*
X135696750Y-99828263D01*
X135696753Y-99828266D01*
X135696755Y-99828270D01*
X135767101Y-99914543D01*
X135794210Y-99978938D01*
X135794999Y-99992903D01*
X135794999Y-100800298D01*
X135775314Y-100867337D01*
X135763252Y-100883156D01*
X135753386Y-100894140D01*
X135736763Y-100914767D01*
X135736751Y-100914783D01*
X135631694Y-101073989D01*
X135631693Y-101073991D01*
X135554914Y-101262408D01*
X135535233Y-101329436D01*
X135515082Y-101410327D01*
X135494500Y-101612728D01*
X135494500Y-116875500D01*
X135474815Y-116942539D01*
X135422011Y-116988294D01*
X135370500Y-116999500D01*
X129624500Y-116999500D01*
X129557461Y-116979815D01*
X129511706Y-116927011D01*
X129500500Y-116875500D01*
X129500500Y-107862332D01*
X129899500Y-107862332D01*
X129899500Y-108137667D01*
X129899501Y-108137684D01*
X129935438Y-108410655D01*
X129935439Y-108410660D01*
X129935440Y-108410666D01*
X129935441Y-108410668D01*
X130006704Y-108676630D01*
X130112075Y-108931017D01*
X130112080Y-108931028D01*
X130194861Y-109074407D01*
X130249751Y-109169479D01*
X130249753Y-109169482D01*
X130249754Y-109169483D01*
X130417370Y-109387926D01*
X130417376Y-109387933D01*
X130612066Y-109582623D01*
X130612072Y-109582628D01*
X130830521Y-109750249D01*
X130983778Y-109838732D01*
X131068971Y-109887919D01*
X131068976Y-109887921D01*
X131068979Y-109887923D01*
X131323368Y-109993295D01*
X131589334Y-110064560D01*
X131862326Y-110100500D01*
X131862333Y-110100500D01*
X132137667Y-110100500D01*
X132137674Y-110100500D01*
X132410666Y-110064560D01*
X132676632Y-109993295D01*
X132931021Y-109887923D01*
X133169479Y-109750249D01*
X133387928Y-109582628D01*
X133582628Y-109387928D01*
X133750249Y-109169479D01*
X133887923Y-108931021D01*
X133993295Y-108676632D01*
X134064560Y-108410666D01*
X134100500Y-108137674D01*
X134100500Y-107862326D01*
X134064560Y-107589334D01*
X133993295Y-107323368D01*
X133887923Y-107068979D01*
X133887921Y-107068976D01*
X133887919Y-107068971D01*
X133838732Y-106983778D01*
X133750249Y-106830521D01*
X133582628Y-106612072D01*
X133582623Y-106612066D01*
X133387933Y-106417376D01*
X133387926Y-106417370D01*
X133169483Y-106249754D01*
X133169482Y-106249753D01*
X133169479Y-106249751D01*
X133074407Y-106194861D01*
X132931028Y-106112080D01*
X132931017Y-106112075D01*
X132676630Y-106006704D01*
X132543649Y-105971072D01*
X132410666Y-105935440D01*
X132410660Y-105935439D01*
X132410655Y-105935438D01*
X132137684Y-105899501D01*
X132137679Y-105899500D01*
X132137674Y-105899500D01*
X131862326Y-105899500D01*
X131862320Y-105899500D01*
X131862315Y-105899501D01*
X131589344Y-105935438D01*
X131589337Y-105935439D01*
X131589334Y-105935440D01*
X131533125Y-105950500D01*
X131323369Y-106006704D01*
X131068982Y-106112075D01*
X131068971Y-106112080D01*
X130830516Y-106249754D01*
X130612073Y-106417370D01*
X130612066Y-106417376D01*
X130417376Y-106612066D01*
X130417370Y-106612073D01*
X130249754Y-106830516D01*
X130112080Y-107068971D01*
X130112075Y-107068982D01*
X130006704Y-107323369D01*
X129935441Y-107589331D01*
X129935438Y-107589344D01*
X129899501Y-107862315D01*
X129899500Y-107862332D01*
X129500500Y-107862332D01*
X129500500Y-100297648D01*
X130399500Y-100297648D01*
X130399500Y-100502351D01*
X130431522Y-100704534D01*
X130494781Y-100899223D01*
X130558691Y-101024653D01*
X130583832Y-101073994D01*
X130587715Y-101081613D01*
X130708028Y-101247213D01*
X130852786Y-101391971D01*
X131007749Y-101504556D01*
X131018390Y-101512287D01*
X131134607Y-101571503D01*
X131200776Y-101605218D01*
X131200778Y-101605218D01*
X131200781Y-101605220D01*
X131305137Y-101639127D01*
X131395465Y-101668477D01*
X131496557Y-101684488D01*
X131597648Y-101700500D01*
X131597649Y-101700500D01*
X131802351Y-101700500D01*
X131802352Y-101700500D01*
X132004534Y-101668477D01*
X132199219Y-101605220D01*
X132381610Y-101512287D01*
X132474590Y-101444732D01*
X132547213Y-101391971D01*
X132547215Y-101391968D01*
X132547219Y-101391966D01*
X132691966Y-101247219D01*
X132691968Y-101247215D01*
X132691971Y-101247213D01*
X132744732Y-101174590D01*
X132812287Y-101081610D01*
X132905220Y-100899219D01*
X132968477Y-100704534D01*
X133000500Y-100502352D01*
X133000500Y-100297648D01*
X132968477Y-100095466D01*
X132905220Y-99900781D01*
X132905218Y-99900778D01*
X132905218Y-99900776D01*
X132868270Y-99828263D01*
X132812287Y-99718390D01*
X132795663Y-99695509D01*
X132691971Y-99552786D01*
X132547213Y-99408028D01*
X132381613Y-99287715D01*
X132381612Y-99287714D01*
X132381610Y-99287713D01*
X132324653Y-99258691D01*
X132199223Y-99194781D01*
X132004534Y-99131522D01*
X131829995Y-99103878D01*
X131802352Y-99099500D01*
X131597648Y-99099500D01*
X131573329Y-99103351D01*
X131395465Y-99131522D01*
X131200776Y-99194781D01*
X131018386Y-99287715D01*
X130852786Y-99408028D01*
X130708028Y-99552786D01*
X130587715Y-99718386D01*
X130494781Y-99900776D01*
X130431522Y-100095465D01*
X130399500Y-100297648D01*
X129500500Y-100297648D01*
X129500500Y-81362332D01*
X129899500Y-81362332D01*
X129899500Y-81637667D01*
X129899501Y-81637684D01*
X129935438Y-81910655D01*
X129935439Y-81910660D01*
X129935440Y-81910666D01*
X129964785Y-82020185D01*
X130006704Y-82176630D01*
X130112075Y-82431017D01*
X130112080Y-82431028D01*
X130179543Y-82547876D01*
X130249751Y-82669479D01*
X130249753Y-82669482D01*
X130249754Y-82669483D01*
X130417370Y-82887926D01*
X130417376Y-82887933D01*
X130612066Y-83082623D01*
X130612072Y-83082628D01*
X130830521Y-83250249D01*
X130983778Y-83338732D01*
X131068971Y-83387919D01*
X131068976Y-83387921D01*
X131068979Y-83387923D01*
X131323368Y-83493295D01*
X131589334Y-83564560D01*
X131862326Y-83600500D01*
X131862333Y-83600500D01*
X132137667Y-83600500D01*
X132137674Y-83600500D01*
X132410666Y-83564560D01*
X132676632Y-83493295D01*
X132931021Y-83387923D01*
X133169479Y-83250249D01*
X133387928Y-83082628D01*
X133582628Y-82887928D01*
X133750249Y-82669479D01*
X133887923Y-82431021D01*
X133993295Y-82176632D01*
X134064560Y-81910666D01*
X134100500Y-81637674D01*
X134100500Y-81397648D01*
X147199500Y-81397648D01*
X147199500Y-81602351D01*
X147231522Y-81804534D01*
X147294781Y-81999223D01*
X147387715Y-82181613D01*
X147508028Y-82347213D01*
X147652786Y-82491971D01*
X147807749Y-82604556D01*
X147818390Y-82612287D01*
X147930643Y-82669483D01*
X148000776Y-82705218D01*
X148000778Y-82705218D01*
X148000781Y-82705220D01*
X148105137Y-82739127D01*
X148195465Y-82768477D01*
X148296557Y-82784488D01*
X148397648Y-82800500D01*
X148397649Y-82800500D01*
X148602351Y-82800500D01*
X148602352Y-82800500D01*
X148804534Y-82768477D01*
X148999219Y-82705220D01*
X149181610Y-82612287D01*
X149274590Y-82544732D01*
X149347213Y-82491971D01*
X149347215Y-82491968D01*
X149347219Y-82491966D01*
X149491966Y-82347219D01*
X149491968Y-82347215D01*
X149491971Y-82347213D01*
X149544732Y-82274590D01*
X149612287Y-82181610D01*
X149705220Y-81999219D01*
X149768477Y-81804534D01*
X149800500Y-81602352D01*
X149800500Y-81397648D01*
X149768477Y-81195466D01*
X149747567Y-81131113D01*
X149705218Y-81000776D01*
X149671503Y-80934607D01*
X149612287Y-80818390D01*
X149604556Y-80807749D01*
X149491971Y-80652786D01*
X149347213Y-80508028D01*
X149181613Y-80387715D01*
X149181612Y-80387714D01*
X149181610Y-80387713D01*
X149124653Y-80358691D01*
X148999223Y-80294781D01*
X148804534Y-80231522D01*
X148629995Y-80203878D01*
X148602352Y-80199500D01*
X148397648Y-80199500D01*
X148373329Y-80203351D01*
X148195465Y-80231522D01*
X148000776Y-80294781D01*
X147818386Y-80387715D01*
X147652786Y-80508028D01*
X147508028Y-80652786D01*
X147387715Y-80818386D01*
X147294781Y-81000776D01*
X147231522Y-81195465D01*
X147199500Y-81397648D01*
X134100500Y-81397648D01*
X134100500Y-81362326D01*
X134064560Y-81089334D01*
X133993295Y-80823368D01*
X133887923Y-80568979D01*
X133887921Y-80568976D01*
X133887919Y-80568971D01*
X133838732Y-80483778D01*
X133750249Y-80330521D01*
X133583625Y-80113371D01*
X133582629Y-80112073D01*
X133582623Y-80112066D01*
X133387933Y-79917376D01*
X133387926Y-79917370D01*
X133169483Y-79749754D01*
X133169482Y-79749753D01*
X133169479Y-79749751D01*
X133045461Y-79678149D01*
X132931028Y-79612080D01*
X132931017Y-79612075D01*
X132676630Y-79506704D01*
X132543649Y-79471072D01*
X132410666Y-79435440D01*
X132410660Y-79435439D01*
X132410655Y-79435438D01*
X132137684Y-79399501D01*
X132137679Y-79399500D01*
X132137674Y-79399500D01*
X131862326Y-79399500D01*
X131862320Y-79399500D01*
X131862315Y-79399501D01*
X131589344Y-79435438D01*
X131589337Y-79435439D01*
X131589334Y-79435440D01*
X131533125Y-79450500D01*
X131323369Y-79506704D01*
X131068982Y-79612075D01*
X131068971Y-79612080D01*
X130830516Y-79749754D01*
X130612073Y-79917370D01*
X130612066Y-79917376D01*
X130417376Y-80112066D01*
X130417370Y-80112073D01*
X130249754Y-80330516D01*
X130112080Y-80568971D01*
X130112075Y-80568982D01*
X130006704Y-80823369D01*
X129935441Y-81089331D01*
X129935438Y-81089344D01*
X129899501Y-81362315D01*
X129899500Y-81362332D01*
X129500500Y-81362332D01*
X129500500Y-79124500D01*
X129520185Y-79057461D01*
X129572989Y-79011706D01*
X129624500Y-79000500D01*
X152719462Y-79000500D01*
X152786501Y-79020185D01*
G37*
%TD.AperFunction*%
%TD*%
M02*
