%TF.GenerationSoftware,KiCad,Pcbnew,9.0.4*%
%TF.CreationDate,2025-09-15T15:44:35+02:00*%
%TF.ProjectId,TDA7267,54444137-3236-4372-9e6b-696361645f70,rev?*%
%TF.SameCoordinates,Original*%
%TF.FileFunction,Copper,L1,Top*%
%TF.FilePolarity,Positive*%
%FSLAX46Y46*%
G04 Gerber Fmt 4.6, Leading zero omitted, Abs format (unit mm)*
G04 Created by KiCad (PCBNEW 9.0.4) date 2025-09-15 15:44:35*
%MOMM*%
%LPD*%
G01*
G04 APERTURE LIST*
G04 Aperture macros list*
%AMRoundRect*
0 Rectangle with rounded corners*
0 $1 Rounding radius*
0 $2 $3 $4 $5 $6 $7 $8 $9 X,Y pos of 4 corners*
0 Add a 4 corners polygon primitive as box body*
4,1,4,$2,$3,$4,$5,$6,$7,$8,$9,$2,$3,0*
0 Add four circle primitives for the rounded corners*
1,1,$1+$1,$2,$3*
1,1,$1+$1,$4,$5*
1,1,$1+$1,$6,$7*
1,1,$1+$1,$8,$9*
0 Add four rect primitives between the rounded corners*
20,1,$1+$1,$2,$3,$4,$5,0*
20,1,$1+$1,$4,$5,$6,$7,0*
20,1,$1+$1,$6,$7,$8,$9,0*
20,1,$1+$1,$8,$9,$2,$3,0*%
G04 Aperture macros list end*
%TA.AperFunction,ComponentPad*%
%ADD10C,1.600000*%
%TD*%
%TA.AperFunction,ComponentPad*%
%ADD11RoundRect,0.250000X-0.950000X-0.550000X0.950000X-0.550000X0.950000X0.550000X-0.950000X0.550000X0*%
%TD*%
%TA.AperFunction,ComponentPad*%
%ADD12O,2.400000X1.600000*%
%TD*%
%TA.AperFunction,ComponentPad*%
%ADD13R,3.000000X3.000000*%
%TD*%
%TA.AperFunction,ComponentPad*%
%ADD14C,3.000000*%
%TD*%
%TA.AperFunction,ComponentPad*%
%ADD15R,1.800000X1.800000*%
%TD*%
%TA.AperFunction,ComponentPad*%
%ADD16C,1.800000*%
%TD*%
%TA.AperFunction,ComponentPad*%
%ADD17RoundRect,0.250000X0.550000X0.550000X-0.550000X0.550000X-0.550000X-0.550000X0.550000X-0.550000X0*%
%TD*%
%TA.AperFunction,ComponentPad*%
%ADD18RoundRect,0.250000X-0.750000X-0.750000X0.750000X-0.750000X0.750000X0.750000X-0.750000X0.750000X0*%
%TD*%
%TA.AperFunction,ComponentPad*%
%ADD19C,2.000000*%
%TD*%
%TA.AperFunction,ComponentPad*%
%ADD20C,2.340000*%
%TD*%
G04 APERTURE END LIST*
D10*
%TO.P,R1,1*%
%TO.N,Net-(C1-Pad2)*%
X146700000Y-105060000D03*
%TO.P,R1,2*%
%TO.N,Net-(U1-In)*%
X146700000Y-97440000D03*
%TD*%
%TO.P,C3,1*%
%TO.N,GND*%
X141700000Y-103560000D03*
%TO.P,C3,2*%
%TO.N,Net-(U1-In)*%
X141700000Y-98560000D03*
%TD*%
%TO.P,C5,2*%
%TO.N,/VCC*%
X148500000Y-86500000D03*
%TO.P,C5,1*%
%TO.N,GND*%
X148500000Y-81500000D03*
%TD*%
D11*
%TO.P,U1,1,V+*%
%TO.N,/VCC*%
X151190000Y-89750000D03*
D12*
%TO.P,U1,2,Out*%
%TO.N,Net-(U1-Out)*%
X151190000Y-92290000D03*
%TO.P,U1,3,SRV*%
%TO.N,Net-(U1-SRV)*%
X151190000Y-94830000D03*
%TO.P,U1,4,In*%
%TO.N,Net-(U1-In)*%
X151190000Y-97370000D03*
%TO.P,U1,5,GND*%
%TO.N,GND*%
X158810000Y-97370000D03*
%TO.P,U1,6,GND*%
X158810000Y-94830000D03*
%TO.P,U1,7,GND*%
X158810000Y-92290000D03*
%TO.P,U1,8,GND*%
X158810000Y-89750000D03*
%TD*%
D13*
%TO.P,IN1,1,Pin_1*%
%TO.N,Net-(IN1-Pin_1)*%
X162960000Y-115000000D03*
D14*
%TO.P,IN1,2,Pin_2*%
%TO.N,GND*%
X168040000Y-115000000D03*
%TD*%
D15*
%TO.P,D1,1,K*%
%TO.N,GND*%
X161960000Y-104000000D03*
D16*
%TO.P,D1,2,A*%
%TO.N,Net-(D1-A)*%
X164500000Y-104000000D03*
%TD*%
D13*
%TO.P,OUT1,1,Pin_1*%
%TO.N,Net-(OUT1-Pin_1)*%
X158800000Y-81000000D03*
D14*
%TO.P,OUT1,2,Pin_2*%
%TO.N,GND*%
X153720000Y-81000000D03*
%TD*%
D10*
%TO.P,C1,1*%
%TO.N,Net-(C1-Pad1)*%
X156500000Y-104750000D03*
%TO.P,C1,2*%
%TO.N,Net-(C1-Pad2)*%
X151500000Y-104750000D03*
%TD*%
%TO.P,R2,1*%
%TO.N,Net-(D1-A)*%
X162690000Y-97500000D03*
%TO.P,R2,2*%
%TO.N,/VCC*%
X170310000Y-97500000D03*
%TD*%
D13*
%TO.P,VCC1,1,Pin_1*%
%TO.N,/VCC*%
X132420000Y-115000000D03*
D14*
%TO.P,VCC1,2,Pin_2*%
%TO.N,GND*%
X137500000Y-115000000D03*
%TD*%
D17*
%TO.P,C2,1*%
%TO.N,Net-(U1-SRV)*%
X143500000Y-91000000D03*
D10*
%TO.P,C2,2*%
%TO.N,GND*%
X139700000Y-91000000D03*
%TD*%
D18*
%TO.P,C6,1*%
%TO.N,Net-(U1-Out)*%
X164132323Y-89500000D03*
D19*
%TO.P,C6,2*%
%TO.N,Net-(OUT1-Pin_1)*%
X169132323Y-89500000D03*
%TD*%
D17*
%TO.P,C4,1*%
%TO.N,/VCC*%
X135500000Y-100400000D03*
D10*
%TO.P,C4,2*%
%TO.N,GND*%
X131700000Y-100400000D03*
%TD*%
D20*
%TO.P,RV1,1,1*%
%TO.N,Net-(IN1-Pin_1)*%
X145000000Y-114750000D03*
%TO.P,RV1,2,2*%
%TO.N,Net-(C1-Pad1)*%
X150000000Y-114750000D03*
%TO.P,RV1,3,3*%
%TO.N,GND*%
X155000000Y-114750000D03*
%TD*%
%TA.AperFunction,Conductor*%
%TO.N,GND*%
G36*
X157166519Y-79020185D02*
G01*
X157212274Y-79072989D01*
X157222218Y-79142147D01*
X157193193Y-79205703D01*
X157149569Y-79237932D01*
X157127235Y-79247794D01*
X157127233Y-79247795D01*
X157047794Y-79327234D01*
X157002415Y-79430006D01*
X157002415Y-79430008D01*
X156999500Y-79455131D01*
X156999500Y-82544856D01*
X156999502Y-82544882D01*
X157002413Y-82569987D01*
X157002415Y-82569991D01*
X157047793Y-82672764D01*
X157047794Y-82672765D01*
X157127235Y-82752206D01*
X157230009Y-82797585D01*
X157255135Y-82800500D01*
X160344864Y-82800499D01*
X160344879Y-82800497D01*
X160344882Y-82800497D01*
X160369987Y-82797586D01*
X160369988Y-82797585D01*
X160369991Y-82797585D01*
X160472765Y-82752206D01*
X160552206Y-82672765D01*
X160597585Y-82569991D01*
X160600500Y-82544865D01*
X160600499Y-81362332D01*
X166899500Y-81362332D01*
X166899500Y-81637667D01*
X166899501Y-81637684D01*
X166935438Y-81910655D01*
X166935439Y-81910660D01*
X166935440Y-81910666D01*
X166935441Y-81910668D01*
X167006704Y-82176630D01*
X167112075Y-82431017D01*
X167112080Y-82431028D01*
X167177815Y-82544882D01*
X167249751Y-82669479D01*
X167249753Y-82669482D01*
X167249754Y-82669483D01*
X167417370Y-82887926D01*
X167417376Y-82887933D01*
X167612066Y-83082623D01*
X167612072Y-83082628D01*
X167830521Y-83250249D01*
X167983778Y-83338732D01*
X168068971Y-83387919D01*
X168068976Y-83387921D01*
X168068979Y-83387923D01*
X168323368Y-83493295D01*
X168589334Y-83564560D01*
X168862326Y-83600500D01*
X168862333Y-83600500D01*
X169137667Y-83600500D01*
X169137674Y-83600500D01*
X169410666Y-83564560D01*
X169676632Y-83493295D01*
X169931021Y-83387923D01*
X170169479Y-83250249D01*
X170387928Y-83082628D01*
X170582628Y-82887928D01*
X170750249Y-82669479D01*
X170887923Y-82431021D01*
X170993295Y-82176632D01*
X171064560Y-81910666D01*
X171100500Y-81637674D01*
X171100500Y-81362326D01*
X171064560Y-81089334D01*
X170993295Y-80823368D01*
X170887923Y-80568979D01*
X170887921Y-80568976D01*
X170887919Y-80568971D01*
X170838732Y-80483778D01*
X170750249Y-80330521D01*
X170582628Y-80112072D01*
X170582623Y-80112066D01*
X170387933Y-79917376D01*
X170387926Y-79917370D01*
X170169483Y-79749754D01*
X170169482Y-79749753D01*
X170169479Y-79749751D01*
X170074407Y-79694861D01*
X169931028Y-79612080D01*
X169931017Y-79612075D01*
X169676630Y-79506704D01*
X169543649Y-79471072D01*
X169410666Y-79435440D01*
X169410660Y-79435439D01*
X169410655Y-79435438D01*
X169137684Y-79399501D01*
X169137679Y-79399500D01*
X169137674Y-79399500D01*
X168862326Y-79399500D01*
X168862320Y-79399500D01*
X168862315Y-79399501D01*
X168589344Y-79435438D01*
X168589337Y-79435439D01*
X168589334Y-79435440D01*
X168533125Y-79450500D01*
X168323369Y-79506704D01*
X168068982Y-79612075D01*
X168068971Y-79612080D01*
X167830516Y-79749754D01*
X167612073Y-79917370D01*
X167612066Y-79917376D01*
X167417376Y-80112066D01*
X167417370Y-80112073D01*
X167249754Y-80330516D01*
X167112080Y-80568971D01*
X167112075Y-80568982D01*
X167006704Y-80823369D01*
X166935441Y-81089331D01*
X166935438Y-81089344D01*
X166899501Y-81362315D01*
X166899500Y-81362332D01*
X160600499Y-81362332D01*
X160600499Y-80823369D01*
X160600499Y-79455143D01*
X160600499Y-79455136D01*
X160600497Y-79455117D01*
X160597586Y-79430012D01*
X160597585Y-79430010D01*
X160597585Y-79430009D01*
X160552206Y-79327235D01*
X160472765Y-79247794D01*
X160450433Y-79237933D01*
X160397058Y-79192848D01*
X160376531Y-79126061D01*
X160395370Y-79058779D01*
X160447593Y-79012363D01*
X160500521Y-79000500D01*
X171375500Y-79000500D01*
X171442539Y-79020185D01*
X171488294Y-79072989D01*
X171499500Y-79124500D01*
X171499500Y-96893968D01*
X171479815Y-96961007D01*
X171427011Y-97006762D01*
X171357853Y-97016706D01*
X171294297Y-96987681D01*
X171265015Y-96950263D01*
X171251231Y-96923211D01*
X171149414Y-96783072D01*
X171026928Y-96660586D01*
X170886788Y-96558768D01*
X170732445Y-96480127D01*
X170567701Y-96426598D01*
X170567699Y-96426597D01*
X170567698Y-96426597D01*
X170436271Y-96405781D01*
X170396611Y-96399500D01*
X170223389Y-96399500D01*
X170183728Y-96405781D01*
X170052302Y-96426597D01*
X169887552Y-96480128D01*
X169733211Y-96558768D01*
X169675652Y-96600588D01*
X169593072Y-96660586D01*
X169593070Y-96660588D01*
X169593069Y-96660588D01*
X169470588Y-96783069D01*
X169470588Y-96783070D01*
X169470586Y-96783072D01*
X169463220Y-96793211D01*
X169368768Y-96923211D01*
X169290128Y-97077552D01*
X169236597Y-97242302D01*
X169209500Y-97413389D01*
X169209500Y-97586610D01*
X169230719Y-97720586D01*
X169236598Y-97757701D01*
X169290127Y-97922445D01*
X169368768Y-98076788D01*
X169470586Y-98216928D01*
X169593072Y-98339414D01*
X169733212Y-98441232D01*
X169887555Y-98519873D01*
X170052299Y-98573402D01*
X170223389Y-98600500D01*
X170223390Y-98600500D01*
X170396610Y-98600500D01*
X170396611Y-98600500D01*
X170567701Y-98573402D01*
X170732445Y-98519873D01*
X170886788Y-98441232D01*
X171026928Y-98339414D01*
X171149414Y-98216928D01*
X171251232Y-98076788D01*
X171265015Y-98049736D01*
X171312988Y-97998941D01*
X171380809Y-97982145D01*
X171446944Y-98004681D01*
X171490396Y-98059396D01*
X171499500Y-98106031D01*
X171499500Y-116875500D01*
X171479815Y-116942539D01*
X171427011Y-116988294D01*
X171375500Y-116999500D01*
X164660520Y-116999500D01*
X164593481Y-116979815D01*
X164547726Y-116927011D01*
X164537782Y-116857853D01*
X164566807Y-116794297D01*
X164610430Y-116762067D01*
X164632765Y-116752206D01*
X164712206Y-116672765D01*
X164757585Y-116569991D01*
X164760500Y-116544865D01*
X164760499Y-113455136D01*
X164760497Y-113455117D01*
X164757586Y-113430012D01*
X164757585Y-113430010D01*
X164757585Y-113430009D01*
X164712206Y-113327235D01*
X164632765Y-113247794D01*
X164632763Y-113247793D01*
X164529992Y-113202415D01*
X164504865Y-113199500D01*
X161415143Y-113199500D01*
X161415117Y-113199502D01*
X161390012Y-113202413D01*
X161390008Y-113202415D01*
X161287235Y-113247793D01*
X161207794Y-113327234D01*
X161162415Y-113430006D01*
X161162415Y-113430008D01*
X161159500Y-113455131D01*
X161159500Y-116544856D01*
X161159502Y-116544882D01*
X161162413Y-116569987D01*
X161162415Y-116569991D01*
X161207793Y-116672764D01*
X161207794Y-116672765D01*
X161287235Y-116752206D01*
X161309564Y-116762065D01*
X161309566Y-116762066D01*
X161362942Y-116807152D01*
X161383469Y-116873939D01*
X161364630Y-116941221D01*
X161312407Y-116987637D01*
X161259479Y-116999500D01*
X134120520Y-116999500D01*
X134053481Y-116979815D01*
X134007726Y-116927011D01*
X133997782Y-116857853D01*
X134026807Y-116794297D01*
X134070430Y-116762067D01*
X134092765Y-116752206D01*
X134172206Y-116672765D01*
X134217585Y-116569991D01*
X134220500Y-116544865D01*
X134220499Y-114634269D01*
X143529500Y-114634269D01*
X143529500Y-114865730D01*
X143565709Y-115094344D01*
X143637232Y-115314473D01*
X143637233Y-115314476D01*
X143742318Y-115520713D01*
X143878359Y-115707959D01*
X143878363Y-115707964D01*
X144042035Y-115871636D01*
X144042040Y-115871640D01*
X144205366Y-115990302D01*
X144229290Y-116007684D01*
X144364106Y-116076376D01*
X144435523Y-116112766D01*
X144435526Y-116112767D01*
X144545590Y-116148528D01*
X144655657Y-116184291D01*
X144884269Y-116220500D01*
X144884270Y-116220500D01*
X145115730Y-116220500D01*
X145115731Y-116220500D01*
X145344343Y-116184291D01*
X145564476Y-116112766D01*
X145770710Y-116007684D01*
X145957966Y-115871635D01*
X146121635Y-115707966D01*
X146257684Y-115520710D01*
X146362766Y-115314476D01*
X146434291Y-115094343D01*
X146470500Y-114865731D01*
X146470500Y-114634269D01*
X148529500Y-114634269D01*
X148529500Y-114865730D01*
X148565709Y-115094344D01*
X148637232Y-115314473D01*
X148637233Y-115314476D01*
X148742318Y-115520713D01*
X148878359Y-115707959D01*
X148878363Y-115707964D01*
X149042035Y-115871636D01*
X149042040Y-115871640D01*
X149205366Y-115990302D01*
X149229290Y-116007684D01*
X149364106Y-116076376D01*
X149435523Y-116112766D01*
X149435526Y-116112767D01*
X149545590Y-116148528D01*
X149655657Y-116184291D01*
X149884269Y-116220500D01*
X149884270Y-116220500D01*
X150115730Y-116220500D01*
X150115731Y-116220500D01*
X150344343Y-116184291D01*
X150564476Y-116112766D01*
X150770710Y-116007684D01*
X150957966Y-115871635D01*
X151121635Y-115707966D01*
X151257684Y-115520710D01*
X151362766Y-115314476D01*
X151434291Y-115094343D01*
X151470500Y-114865731D01*
X151470500Y-114634269D01*
X151434291Y-114405657D01*
X151362766Y-114185524D01*
X151362766Y-114185523D01*
X151326376Y-114114106D01*
X151257684Y-113979290D01*
X151240302Y-113955366D01*
X151121640Y-113792040D01*
X151121636Y-113792035D01*
X150957964Y-113628363D01*
X150957959Y-113628359D01*
X150770713Y-113492318D01*
X150770712Y-113492317D01*
X150770710Y-113492316D01*
X150697703Y-113455117D01*
X150564476Y-113387233D01*
X150564473Y-113387232D01*
X150344344Y-113315709D01*
X150230037Y-113297604D01*
X150115731Y-113279500D01*
X149884269Y-113279500D01*
X149808065Y-113291569D01*
X149655655Y-113315709D01*
X149435526Y-113387232D01*
X149435523Y-113387233D01*
X149229286Y-113492318D01*
X149042040Y-113628359D01*
X149042035Y-113628363D01*
X148878363Y-113792035D01*
X148878359Y-113792040D01*
X148742318Y-113979286D01*
X148637233Y-114185523D01*
X148637232Y-114185526D01*
X148565709Y-114405655D01*
X148529500Y-114634269D01*
X146470500Y-114634269D01*
X146434291Y-114405657D01*
X146362766Y-114185524D01*
X146362766Y-114185523D01*
X146326376Y-114114106D01*
X146257684Y-113979290D01*
X146240302Y-113955366D01*
X146121640Y-113792040D01*
X146121636Y-113792035D01*
X145957964Y-113628363D01*
X145957959Y-113628359D01*
X145770713Y-113492318D01*
X145770712Y-113492317D01*
X145770710Y-113492316D01*
X145697703Y-113455117D01*
X145564476Y-113387233D01*
X145564473Y-113387232D01*
X145344344Y-113315709D01*
X145230037Y-113297604D01*
X145115731Y-113279500D01*
X144884269Y-113279500D01*
X144808065Y-113291569D01*
X144655655Y-113315709D01*
X144435526Y-113387232D01*
X144435523Y-113387233D01*
X144229286Y-113492318D01*
X144042040Y-113628359D01*
X144042035Y-113628363D01*
X143878363Y-113792035D01*
X143878359Y-113792040D01*
X143742318Y-113979286D01*
X143637233Y-114185523D01*
X143637232Y-114185526D01*
X143565709Y-114405655D01*
X143529500Y-114634269D01*
X134220499Y-114634269D01*
X134220499Y-113455136D01*
X134220497Y-113455117D01*
X134217586Y-113430012D01*
X134217585Y-113430010D01*
X134217585Y-113430009D01*
X134172206Y-113327235D01*
X134092765Y-113247794D01*
X134092763Y-113247793D01*
X133989992Y-113202415D01*
X133964865Y-113199500D01*
X130875143Y-113199500D01*
X130875117Y-113199502D01*
X130850012Y-113202413D01*
X130850008Y-113202415D01*
X130747235Y-113247793D01*
X130667794Y-113327234D01*
X130622415Y-113430006D01*
X130622415Y-113430008D01*
X130619500Y-113455131D01*
X130619500Y-116544856D01*
X130619502Y-116544882D01*
X130622413Y-116569987D01*
X130622415Y-116569991D01*
X130667793Y-116672764D01*
X130667794Y-116672765D01*
X130747235Y-116752206D01*
X130769564Y-116762065D01*
X130769566Y-116762066D01*
X130822942Y-116807152D01*
X130843469Y-116873939D01*
X130824630Y-116941221D01*
X130772407Y-116987637D01*
X130719479Y-116999500D01*
X129624500Y-116999500D01*
X129557461Y-116979815D01*
X129511706Y-116927011D01*
X129500500Y-116875500D01*
X129500500Y-107862332D01*
X129899500Y-107862332D01*
X129899500Y-108137667D01*
X129899501Y-108137684D01*
X129935438Y-108410655D01*
X129935439Y-108410660D01*
X129935440Y-108410666D01*
X129935441Y-108410668D01*
X130006704Y-108676630D01*
X130112075Y-108931017D01*
X130112080Y-108931028D01*
X130194861Y-109074407D01*
X130249751Y-109169479D01*
X130249753Y-109169482D01*
X130249754Y-109169483D01*
X130417370Y-109387926D01*
X130417376Y-109387933D01*
X130612066Y-109582623D01*
X130612072Y-109582628D01*
X130830521Y-109750249D01*
X130983778Y-109838732D01*
X131068971Y-109887919D01*
X131068976Y-109887921D01*
X131068979Y-109887923D01*
X131323368Y-109993295D01*
X131589334Y-110064560D01*
X131862326Y-110100500D01*
X131862333Y-110100500D01*
X132137667Y-110100500D01*
X132137674Y-110100500D01*
X132410666Y-110064560D01*
X132676632Y-109993295D01*
X132931021Y-109887923D01*
X133169479Y-109750249D01*
X133387928Y-109582628D01*
X133582628Y-109387928D01*
X133750249Y-109169479D01*
X133887923Y-108931021D01*
X133993295Y-108676632D01*
X134064560Y-108410666D01*
X134100500Y-108137674D01*
X134100500Y-107862332D01*
X166899500Y-107862332D01*
X166899500Y-108137667D01*
X166899501Y-108137684D01*
X166935438Y-108410655D01*
X166935439Y-108410660D01*
X166935440Y-108410666D01*
X166935441Y-108410668D01*
X167006704Y-108676630D01*
X167112075Y-108931017D01*
X167112080Y-108931028D01*
X167194861Y-109074407D01*
X167249751Y-109169479D01*
X167249753Y-109169482D01*
X167249754Y-109169483D01*
X167417370Y-109387926D01*
X167417376Y-109387933D01*
X167612066Y-109582623D01*
X167612072Y-109582628D01*
X167830521Y-109750249D01*
X167983778Y-109838732D01*
X168068971Y-109887919D01*
X168068976Y-109887921D01*
X168068979Y-109887923D01*
X168323368Y-109993295D01*
X168589334Y-110064560D01*
X168862326Y-110100500D01*
X168862333Y-110100500D01*
X169137667Y-110100500D01*
X169137674Y-110100500D01*
X169410666Y-110064560D01*
X169676632Y-109993295D01*
X169931021Y-109887923D01*
X170169479Y-109750249D01*
X170387928Y-109582628D01*
X170582628Y-109387928D01*
X170750249Y-109169479D01*
X170887923Y-108931021D01*
X170993295Y-108676632D01*
X171064560Y-108410666D01*
X171100500Y-108137674D01*
X171100500Y-107862326D01*
X171064560Y-107589334D01*
X170993295Y-107323368D01*
X170887923Y-107068979D01*
X170887921Y-107068976D01*
X170887919Y-107068971D01*
X170838732Y-106983778D01*
X170750249Y-106830521D01*
X170582628Y-106612072D01*
X170582623Y-106612066D01*
X170387933Y-106417376D01*
X170387926Y-106417370D01*
X170169483Y-106249754D01*
X170169482Y-106249753D01*
X170169479Y-106249751D01*
X170074407Y-106194861D01*
X169931028Y-106112080D01*
X169931017Y-106112075D01*
X169676630Y-106006704D01*
X169543649Y-105971072D01*
X169410666Y-105935440D01*
X169410660Y-105935439D01*
X169410655Y-105935438D01*
X169137684Y-105899501D01*
X169137679Y-105899500D01*
X169137674Y-105899500D01*
X168862326Y-105899500D01*
X168862320Y-105899500D01*
X168862315Y-105899501D01*
X168589344Y-105935438D01*
X168589337Y-105935439D01*
X168589334Y-105935440D01*
X168533125Y-105950500D01*
X168323369Y-106006704D01*
X168068982Y-106112075D01*
X168068971Y-106112080D01*
X167830516Y-106249754D01*
X167612073Y-106417370D01*
X167612066Y-106417376D01*
X167417376Y-106612066D01*
X167417370Y-106612073D01*
X167249754Y-106830516D01*
X167112080Y-107068971D01*
X167112075Y-107068982D01*
X167006704Y-107323369D01*
X166935441Y-107589331D01*
X166935438Y-107589344D01*
X166899501Y-107862315D01*
X166899500Y-107862332D01*
X134100500Y-107862332D01*
X134100500Y-107862326D01*
X134064560Y-107589334D01*
X133993295Y-107323368D01*
X133887923Y-107068979D01*
X133887921Y-107068976D01*
X133887919Y-107068971D01*
X133838732Y-106983778D01*
X133750249Y-106830521D01*
X133582628Y-106612072D01*
X133582623Y-106612066D01*
X133387933Y-106417376D01*
X133387926Y-106417370D01*
X133169483Y-106249754D01*
X133169482Y-106249753D01*
X133169479Y-106249751D01*
X133074407Y-106194861D01*
X132931028Y-106112080D01*
X132931017Y-106112075D01*
X132676630Y-106006704D01*
X132543649Y-105971072D01*
X132410666Y-105935440D01*
X132410660Y-105935439D01*
X132410655Y-105935438D01*
X132137684Y-105899501D01*
X132137679Y-105899500D01*
X132137674Y-105899500D01*
X131862326Y-105899500D01*
X131862320Y-105899500D01*
X131862315Y-105899501D01*
X131589344Y-105935438D01*
X131589337Y-105935439D01*
X131589334Y-105935440D01*
X131533125Y-105950500D01*
X131323369Y-106006704D01*
X131068982Y-106112075D01*
X131068971Y-106112080D01*
X130830516Y-106249754D01*
X130612073Y-106417370D01*
X130612066Y-106417376D01*
X130417376Y-106612066D01*
X130417370Y-106612073D01*
X130249754Y-106830516D01*
X130112080Y-107068971D01*
X130112075Y-107068982D01*
X130006704Y-107323369D01*
X129935441Y-107589331D01*
X129935438Y-107589344D01*
X129899501Y-107862315D01*
X129899500Y-107862332D01*
X129500500Y-107862332D01*
X129500500Y-104973389D01*
X145599500Y-104973389D01*
X145599500Y-105146611D01*
X145626598Y-105317701D01*
X145680127Y-105482445D01*
X145758768Y-105636788D01*
X145860586Y-105776928D01*
X145983072Y-105899414D01*
X146123212Y-106001232D01*
X146277555Y-106079873D01*
X146442299Y-106133402D01*
X146613389Y-106160500D01*
X146613390Y-106160500D01*
X146786610Y-106160500D01*
X146786611Y-106160500D01*
X146957701Y-106133402D01*
X147122445Y-106079873D01*
X147276788Y-106001232D01*
X147416928Y-105899414D01*
X147539414Y-105776928D01*
X147641232Y-105636788D01*
X147719873Y-105482445D01*
X147773402Y-105317701D01*
X147800500Y-105146611D01*
X147800500Y-104973389D01*
X147773402Y-104802299D01*
X147728267Y-104663389D01*
X150399500Y-104663389D01*
X150399500Y-104836610D01*
X150421163Y-104973389D01*
X150426598Y-105007701D01*
X150480127Y-105172445D01*
X150558768Y-105326788D01*
X150660586Y-105466928D01*
X150783072Y-105589414D01*
X150923212Y-105691232D01*
X151077555Y-105769873D01*
X151242299Y-105823402D01*
X151413389Y-105850500D01*
X151413390Y-105850500D01*
X151586610Y-105850500D01*
X151586611Y-105850500D01*
X151757701Y-105823402D01*
X151922445Y-105769873D01*
X152076788Y-105691232D01*
X152216928Y-105589414D01*
X152339414Y-105466928D01*
X152441232Y-105326788D01*
X152519873Y-105172445D01*
X152573402Y-105007701D01*
X152600500Y-104836611D01*
X152600500Y-104663389D01*
X155399500Y-104663389D01*
X155399500Y-104836610D01*
X155421163Y-104973389D01*
X155426598Y-105007701D01*
X155480127Y-105172445D01*
X155558768Y-105326788D01*
X155660586Y-105466928D01*
X155783072Y-105589414D01*
X155923212Y-105691232D01*
X156077555Y-105769873D01*
X156242299Y-105823402D01*
X156413389Y-105850500D01*
X156413390Y-105850500D01*
X156586610Y-105850500D01*
X156586611Y-105850500D01*
X156757701Y-105823402D01*
X156922445Y-105769873D01*
X157076788Y-105691232D01*
X157216928Y-105589414D01*
X157339414Y-105466928D01*
X157441232Y-105326788D01*
X157519873Y-105172445D01*
X157573402Y-105007701D01*
X157600500Y-104836611D01*
X157600500Y-104663389D01*
X157573402Y-104492299D01*
X157519873Y-104327555D01*
X157441232Y-104173212D01*
X157339414Y-104033072D01*
X157216928Y-103910586D01*
X157209946Y-103905513D01*
X163299500Y-103905513D01*
X163299500Y-104094486D01*
X163329059Y-104281118D01*
X163387454Y-104460836D01*
X163473240Y-104629199D01*
X163584310Y-104782073D01*
X163717927Y-104915690D01*
X163870801Y-105026760D01*
X163950347Y-105067290D01*
X164039163Y-105112545D01*
X164039165Y-105112545D01*
X164039168Y-105112547D01*
X164135497Y-105143846D01*
X164218881Y-105170940D01*
X164405514Y-105200500D01*
X164405519Y-105200500D01*
X164594486Y-105200500D01*
X164781118Y-105170940D01*
X164855994Y-105146611D01*
X164960832Y-105112547D01*
X165129199Y-105026760D01*
X165282073Y-104915690D01*
X165415690Y-104782073D01*
X165526760Y-104629199D01*
X165612547Y-104460832D01*
X165670940Y-104281118D01*
X165680527Y-104220586D01*
X165700500Y-104094486D01*
X165700500Y-103905513D01*
X165670940Y-103718881D01*
X165612545Y-103539163D01*
X165526759Y-103370800D01*
X165415690Y-103217927D01*
X165282073Y-103084310D01*
X165129199Y-102973240D01*
X164960836Y-102887454D01*
X164781118Y-102829059D01*
X164594486Y-102799500D01*
X164594481Y-102799500D01*
X164405519Y-102799500D01*
X164405514Y-102799500D01*
X164218881Y-102829059D01*
X164039163Y-102887454D01*
X163870800Y-102973240D01*
X163783579Y-103036610D01*
X163717927Y-103084310D01*
X163717925Y-103084312D01*
X163717924Y-103084312D01*
X163584312Y-103217924D01*
X163584312Y-103217925D01*
X163584310Y-103217927D01*
X163536610Y-103283579D01*
X163473240Y-103370800D01*
X163387454Y-103539163D01*
X163329059Y-103718881D01*
X163299500Y-103905513D01*
X157209946Y-103905513D01*
X157076788Y-103808768D01*
X156922445Y-103730127D01*
X156757701Y-103676598D01*
X156757699Y-103676597D01*
X156757698Y-103676597D01*
X156626271Y-103655781D01*
X156586611Y-103649500D01*
X156413389Y-103649500D01*
X156373728Y-103655781D01*
X156242302Y-103676597D01*
X156077552Y-103730128D01*
X155923211Y-103808768D01*
X155843256Y-103866859D01*
X155783072Y-103910586D01*
X155783070Y-103910588D01*
X155783069Y-103910588D01*
X155660588Y-104033069D01*
X155660588Y-104033070D01*
X155660586Y-104033072D01*
X155616859Y-104093256D01*
X155558768Y-104173211D01*
X155480128Y-104327552D01*
X155426597Y-104492302D01*
X155399500Y-104663389D01*
X152600500Y-104663389D01*
X152573402Y-104492299D01*
X152519873Y-104327555D01*
X152441232Y-104173212D01*
X152339414Y-104033072D01*
X152216928Y-103910586D01*
X152076788Y-103808768D01*
X151922445Y-103730127D01*
X151757701Y-103676598D01*
X151757699Y-103676597D01*
X151757698Y-103676597D01*
X151626271Y-103655781D01*
X151586611Y-103649500D01*
X151413389Y-103649500D01*
X151373728Y-103655781D01*
X151242302Y-103676597D01*
X151077552Y-103730128D01*
X150923211Y-103808768D01*
X150843256Y-103866859D01*
X150783072Y-103910586D01*
X150783070Y-103910588D01*
X150783069Y-103910588D01*
X150660588Y-104033069D01*
X150660588Y-104033070D01*
X150660586Y-104033072D01*
X150616859Y-104093256D01*
X150558768Y-104173211D01*
X150480128Y-104327552D01*
X150426597Y-104492302D01*
X150399500Y-104663389D01*
X147728267Y-104663389D01*
X147719873Y-104637555D01*
X147641232Y-104483212D01*
X147539414Y-104343072D01*
X147416928Y-104220586D01*
X147276788Y-104118768D01*
X147122445Y-104040127D01*
X146957701Y-103986598D01*
X146957699Y-103986597D01*
X146957698Y-103986597D01*
X146826271Y-103965781D01*
X146786611Y-103959500D01*
X146613389Y-103959500D01*
X146573728Y-103965781D01*
X146442302Y-103986597D01*
X146277552Y-104040128D01*
X146123211Y-104118768D01*
X146043256Y-104176859D01*
X145983072Y-104220586D01*
X145983070Y-104220588D01*
X145983069Y-104220588D01*
X145860588Y-104343069D01*
X145860588Y-104343070D01*
X145860586Y-104343072D01*
X145816859Y-104403256D01*
X145758768Y-104483211D01*
X145680128Y-104637552D01*
X145626597Y-104802302D01*
X145599500Y-104973389D01*
X129500500Y-104973389D01*
X129500500Y-99806898D01*
X134399500Y-99806898D01*
X134399500Y-100993102D01*
X134405126Y-101039954D01*
X134410122Y-101081561D01*
X134465639Y-101222343D01*
X134557077Y-101342922D01*
X134677656Y-101434360D01*
X134677657Y-101434360D01*
X134677658Y-101434361D01*
X134818436Y-101489877D01*
X134906898Y-101500500D01*
X134906903Y-101500500D01*
X136093097Y-101500500D01*
X136093102Y-101500500D01*
X136181564Y-101489877D01*
X136322342Y-101434361D01*
X136442922Y-101342922D01*
X136534361Y-101222342D01*
X136589877Y-101081564D01*
X136600500Y-100993102D01*
X136600500Y-99806898D01*
X136589877Y-99718436D01*
X136534361Y-99577658D01*
X136534360Y-99577657D01*
X136534360Y-99577656D01*
X136442922Y-99457077D01*
X136322343Y-99365639D01*
X136181561Y-99310122D01*
X136135926Y-99304642D01*
X136093102Y-99299500D01*
X134906898Y-99299500D01*
X134867853Y-99304188D01*
X134818438Y-99310122D01*
X134677656Y-99365639D01*
X134557077Y-99457077D01*
X134465639Y-99577656D01*
X134410122Y-99718438D01*
X134404188Y-99767853D01*
X134399500Y-99806898D01*
X129500500Y-99806898D01*
X129500500Y-98473389D01*
X140599500Y-98473389D01*
X140599500Y-98646611D01*
X140626598Y-98817701D01*
X140680127Y-98982445D01*
X140758768Y-99136788D01*
X140860586Y-99276928D01*
X140983072Y-99399414D01*
X141123212Y-99501232D01*
X141277555Y-99579873D01*
X141442299Y-99633402D01*
X141613389Y-99660500D01*
X141613390Y-99660500D01*
X141786610Y-99660500D01*
X141786611Y-99660500D01*
X141957701Y-99633402D01*
X142122445Y-99579873D01*
X142276788Y-99501232D01*
X142416928Y-99399414D01*
X142539414Y-99276928D01*
X142641232Y-99136788D01*
X142719873Y-98982445D01*
X142773402Y-98817701D01*
X142800500Y-98646611D01*
X142800500Y-98473389D01*
X142773402Y-98302299D01*
X142719873Y-98137555D01*
X142641232Y-97983212D01*
X142539414Y-97843072D01*
X142416928Y-97720586D01*
X142276788Y-97618768D01*
X142122445Y-97540127D01*
X141957701Y-97486598D01*
X141957699Y-97486597D01*
X141957698Y-97486597D01*
X141859156Y-97470990D01*
X141858335Y-97470860D01*
X141786611Y-97459500D01*
X141613389Y-97459500D01*
X141573728Y-97465781D01*
X141442302Y-97486597D01*
X141277552Y-97540128D01*
X141123211Y-97618768D01*
X141043256Y-97676859D01*
X140983072Y-97720586D01*
X140983070Y-97720588D01*
X140983069Y-97720588D01*
X140860588Y-97843069D01*
X140860588Y-97843070D01*
X140860586Y-97843072D01*
X140816859Y-97903256D01*
X140758768Y-97983211D01*
X140680128Y-98137552D01*
X140626597Y-98302302D01*
X140604593Y-98441231D01*
X140599500Y-98473389D01*
X129500500Y-98473389D01*
X129500500Y-97353389D01*
X145599500Y-97353389D01*
X145599500Y-97526611D01*
X145626598Y-97697701D01*
X145680127Y-97862445D01*
X145758768Y-98016788D01*
X145860586Y-98156928D01*
X145983072Y-98279414D01*
X146123212Y-98381232D01*
X146277555Y-98459873D01*
X146442299Y-98513402D01*
X146613389Y-98540500D01*
X146613390Y-98540500D01*
X146786610Y-98540500D01*
X146786611Y-98540500D01*
X146957701Y-98513402D01*
X147122445Y-98459873D01*
X147276788Y-98381232D01*
X147416928Y-98279414D01*
X147539414Y-98156928D01*
X147641232Y-98016788D01*
X147719873Y-97862445D01*
X147773402Y-97697701D01*
X147800500Y-97526611D01*
X147800500Y-97353389D01*
X147789413Y-97283389D01*
X149689500Y-97283389D01*
X149689500Y-97456611D01*
X149716598Y-97627701D01*
X149746778Y-97720586D01*
X149770128Y-97792447D01*
X149795923Y-97843072D01*
X149848768Y-97946788D01*
X149950586Y-98086928D01*
X150073072Y-98209414D01*
X150213212Y-98311232D01*
X150367555Y-98389873D01*
X150532299Y-98443402D01*
X150703389Y-98470500D01*
X150703390Y-98470500D01*
X151676610Y-98470500D01*
X151676611Y-98470500D01*
X151847701Y-98443402D01*
X152012445Y-98389873D01*
X152166788Y-98311232D01*
X152306928Y-98209414D01*
X152429414Y-98086928D01*
X152531232Y-97946788D01*
X152609873Y-97792445D01*
X152663402Y-97627701D01*
X152690500Y-97456611D01*
X152690500Y-97413389D01*
X161589500Y-97413389D01*
X161589500Y-97586610D01*
X161610719Y-97720586D01*
X161616598Y-97757701D01*
X161670127Y-97922445D01*
X161748768Y-98076788D01*
X161850586Y-98216928D01*
X161973072Y-98339414D01*
X162113212Y-98441232D01*
X162267555Y-98519873D01*
X162432299Y-98573402D01*
X162603389Y-98600500D01*
X162603390Y-98600500D01*
X162776610Y-98600500D01*
X162776611Y-98600500D01*
X162947701Y-98573402D01*
X163112445Y-98519873D01*
X163266788Y-98441232D01*
X163406928Y-98339414D01*
X163529414Y-98216928D01*
X163631232Y-98076788D01*
X163709873Y-97922445D01*
X163763402Y-97757701D01*
X163790500Y-97586611D01*
X163790500Y-97413389D01*
X163763402Y-97242299D01*
X163709873Y-97077555D01*
X163631232Y-96923212D01*
X163529414Y-96783072D01*
X163406928Y-96660586D01*
X163266788Y-96558768D01*
X163112445Y-96480127D01*
X162947701Y-96426598D01*
X162947699Y-96426597D01*
X162947698Y-96426597D01*
X162816271Y-96405781D01*
X162776611Y-96399500D01*
X162603389Y-96399500D01*
X162563728Y-96405781D01*
X162432302Y-96426597D01*
X162267552Y-96480128D01*
X162113211Y-96558768D01*
X162055652Y-96600588D01*
X161973072Y-96660586D01*
X161973070Y-96660588D01*
X161973069Y-96660588D01*
X161850588Y-96783069D01*
X161850588Y-96783070D01*
X161850586Y-96783072D01*
X161843220Y-96793211D01*
X161748768Y-96923211D01*
X161670128Y-97077552D01*
X161616597Y-97242302D01*
X161589500Y-97413389D01*
X152690500Y-97413389D01*
X152690500Y-97283389D01*
X152663402Y-97112299D01*
X152609873Y-96947555D01*
X152531232Y-96793212D01*
X152429414Y-96653072D01*
X152306928Y-96530586D01*
X152166788Y-96428768D01*
X152044771Y-96366598D01*
X152012447Y-96350128D01*
X152012446Y-96350127D01*
X152012445Y-96350127D01*
X151847701Y-96296598D01*
X151847699Y-96296597D01*
X151847698Y-96296597D01*
X151716271Y-96275781D01*
X151676611Y-96269500D01*
X150703389Y-96269500D01*
X150663728Y-96275781D01*
X150532302Y-96296597D01*
X150367552Y-96350128D01*
X150213211Y-96428768D01*
X150142523Y-96480127D01*
X150073072Y-96530586D01*
X150073070Y-96530588D01*
X150073069Y-96530588D01*
X149950588Y-96653069D01*
X149950588Y-96653070D01*
X149950586Y-96653072D01*
X149906859Y-96713256D01*
X149848768Y-96793211D01*
X149770128Y-96947552D01*
X149716597Y-97112302D01*
X149689500Y-97283389D01*
X147789413Y-97283389D01*
X147773402Y-97182299D01*
X147719873Y-97017555D01*
X147641232Y-96863212D01*
X147539414Y-96723072D01*
X147416928Y-96600586D01*
X147276788Y-96498768D01*
X147122445Y-96420127D01*
X146957701Y-96366598D01*
X146957699Y-96366597D01*
X146957698Y-96366597D01*
X146826271Y-96345781D01*
X146786611Y-96339500D01*
X146613389Y-96339500D01*
X146573728Y-96345781D01*
X146442302Y-96366597D01*
X146277552Y-96420128D01*
X146123211Y-96498768D01*
X146043256Y-96556859D01*
X145983072Y-96600586D01*
X145983070Y-96600588D01*
X145983069Y-96600588D01*
X145860588Y-96723069D01*
X145860588Y-96723070D01*
X145860586Y-96723072D01*
X145816995Y-96783069D01*
X145758768Y-96863211D01*
X145680128Y-97017552D01*
X145626597Y-97182302D01*
X145617095Y-97242299D01*
X145599500Y-97353389D01*
X129500500Y-97353389D01*
X129500500Y-94743389D01*
X149689500Y-94743389D01*
X149689500Y-94916611D01*
X149716598Y-95087701D01*
X149770127Y-95252445D01*
X149848768Y-95406788D01*
X149950586Y-95546928D01*
X150073072Y-95669414D01*
X150213212Y-95771232D01*
X150367555Y-95849873D01*
X150532299Y-95903402D01*
X150703389Y-95930500D01*
X150703390Y-95930500D01*
X151676610Y-95930500D01*
X151676611Y-95930500D01*
X151847701Y-95903402D01*
X152012445Y-95849873D01*
X152166788Y-95771232D01*
X152306928Y-95669414D01*
X152429414Y-95546928D01*
X152531232Y-95406788D01*
X152609873Y-95252445D01*
X152663402Y-95087701D01*
X152690500Y-94916611D01*
X152690500Y-94743389D01*
X152663402Y-94572299D01*
X152609873Y-94407555D01*
X152531232Y-94253212D01*
X152429414Y-94113072D01*
X152306928Y-93990586D01*
X152166788Y-93888768D01*
X152012445Y-93810127D01*
X151847701Y-93756598D01*
X151847699Y-93756597D01*
X151847698Y-93756597D01*
X151716271Y-93735781D01*
X151676611Y-93729500D01*
X150703389Y-93729500D01*
X150663728Y-93735781D01*
X150532302Y-93756597D01*
X150367552Y-93810128D01*
X150213211Y-93888768D01*
X150133256Y-93946859D01*
X150073072Y-93990586D01*
X150073070Y-93990588D01*
X150073069Y-93990588D01*
X149950588Y-94113069D01*
X149950588Y-94113070D01*
X149950586Y-94113072D01*
X149906859Y-94173256D01*
X149848768Y-94253211D01*
X149770128Y-94407552D01*
X149716597Y-94572302D01*
X149689500Y-94743389D01*
X129500500Y-94743389D01*
X129500500Y-92203389D01*
X149689500Y-92203389D01*
X149689500Y-92376611D01*
X149716598Y-92547701D01*
X149770127Y-92712445D01*
X149848768Y-92866788D01*
X149950586Y-93006928D01*
X150073072Y-93129414D01*
X150213212Y-93231232D01*
X150367555Y-93309873D01*
X150532299Y-93363402D01*
X150703389Y-93390500D01*
X150703390Y-93390500D01*
X151676610Y-93390500D01*
X151676611Y-93390500D01*
X151847701Y-93363402D01*
X152012445Y-93309873D01*
X152166788Y-93231232D01*
X152306928Y-93129414D01*
X152429414Y-93006928D01*
X152531232Y-92866788D01*
X152609873Y-92712445D01*
X152663402Y-92547701D01*
X152690500Y-92376611D01*
X152690500Y-92203389D01*
X152663402Y-92032299D01*
X152609873Y-91867555D01*
X152531232Y-91713212D01*
X152429414Y-91573072D01*
X152306928Y-91450586D01*
X152166788Y-91348768D01*
X152012445Y-91270127D01*
X151847701Y-91216598D01*
X151847699Y-91216597D01*
X151847698Y-91216597D01*
X151716271Y-91195781D01*
X151676611Y-91189500D01*
X150703389Y-91189500D01*
X150663728Y-91195781D01*
X150532302Y-91216597D01*
X150367552Y-91270128D01*
X150213211Y-91348768D01*
X150133256Y-91406859D01*
X150073072Y-91450586D01*
X150073070Y-91450588D01*
X150073069Y-91450588D01*
X149950588Y-91573069D01*
X149950588Y-91573070D01*
X149950586Y-91573072D01*
X149906859Y-91633256D01*
X149848768Y-91713211D01*
X149770128Y-91867552D01*
X149716597Y-92032302D01*
X149705796Y-92100500D01*
X149689500Y-92203389D01*
X129500500Y-92203389D01*
X129500500Y-90406898D01*
X142399500Y-90406898D01*
X142399500Y-91593102D01*
X142405126Y-91639954D01*
X142410122Y-91681561D01*
X142465639Y-91822343D01*
X142557077Y-91942922D01*
X142677656Y-92034360D01*
X142677657Y-92034360D01*
X142677658Y-92034361D01*
X142818436Y-92089877D01*
X142906898Y-92100500D01*
X142906903Y-92100500D01*
X144093097Y-92100500D01*
X144093102Y-92100500D01*
X144181564Y-92089877D01*
X144322342Y-92034361D01*
X144442922Y-91942922D01*
X144534361Y-91822342D01*
X144589877Y-91681564D01*
X144600500Y-91593102D01*
X144600500Y-90406898D01*
X144589877Y-90318436D01*
X144534361Y-90177658D01*
X144534360Y-90177657D01*
X144534360Y-90177656D01*
X144442922Y-90057077D01*
X144322343Y-89965639D01*
X144181561Y-89910122D01*
X144135926Y-89904642D01*
X144093102Y-89899500D01*
X142906898Y-89899500D01*
X142867853Y-89904188D01*
X142818438Y-89910122D01*
X142677656Y-89965639D01*
X142557077Y-90057077D01*
X142465639Y-90177656D01*
X142410122Y-90318438D01*
X142404188Y-90367853D01*
X142399500Y-90406898D01*
X129500500Y-90406898D01*
X129500500Y-89156898D01*
X149689500Y-89156898D01*
X149689500Y-90343102D01*
X149694118Y-90381561D01*
X149700122Y-90431561D01*
X149755639Y-90572343D01*
X149847077Y-90692922D01*
X149967656Y-90784360D01*
X149967657Y-90784360D01*
X149967658Y-90784361D01*
X150108436Y-90839877D01*
X150196898Y-90850500D01*
X150196903Y-90850500D01*
X152183097Y-90850500D01*
X152183102Y-90850500D01*
X152271564Y-90839877D01*
X152412342Y-90784361D01*
X152532922Y-90692922D01*
X152624361Y-90572342D01*
X152679877Y-90431564D01*
X152690500Y-90343102D01*
X152690500Y-89156898D01*
X152679877Y-89068436D01*
X152624361Y-88927658D01*
X152624360Y-88927657D01*
X152624360Y-88927656D01*
X152532922Y-88807077D01*
X152526221Y-88801996D01*
X152412343Y-88715639D01*
X152390177Y-88706898D01*
X162831823Y-88706898D01*
X162831823Y-90293102D01*
X162837449Y-90339954D01*
X162842445Y-90381561D01*
X162842445Y-90381563D01*
X162842446Y-90381564D01*
X162860045Y-90426192D01*
X162897962Y-90522343D01*
X162989400Y-90642922D01*
X163109979Y-90734360D01*
X163109980Y-90734360D01*
X163109981Y-90734361D01*
X163250759Y-90789877D01*
X163339221Y-90800500D01*
X163339226Y-90800500D01*
X164925420Y-90800500D01*
X164925425Y-90800500D01*
X165013887Y-90789877D01*
X165154665Y-90734361D01*
X165275245Y-90642922D01*
X165366684Y-90522342D01*
X165422200Y-90381564D01*
X165432823Y-90293102D01*
X165432823Y-89397648D01*
X167831823Y-89397648D01*
X167831823Y-89602351D01*
X167863845Y-89804534D01*
X167927104Y-89999223D01*
X167991014Y-90124653D01*
X168018022Y-90177658D01*
X168020038Y-90181613D01*
X168140351Y-90347213D01*
X168285109Y-90491971D01*
X168395734Y-90572343D01*
X168450713Y-90612287D01*
X168566930Y-90671503D01*
X168633099Y-90705218D01*
X168633101Y-90705218D01*
X168633104Y-90705220D01*
X168722788Y-90734360D01*
X168827788Y-90768477D01*
X168928069Y-90784360D01*
X169029971Y-90800500D01*
X169029972Y-90800500D01*
X169234674Y-90800500D01*
X169234675Y-90800500D01*
X169436857Y-90768477D01*
X169631542Y-90705220D01*
X169813933Y-90612287D01*
X169906913Y-90544732D01*
X169979536Y-90491971D01*
X169979538Y-90491968D01*
X169979542Y-90491966D01*
X170124289Y-90347219D01*
X170124291Y-90347215D01*
X170124294Y-90347213D01*
X170177055Y-90274590D01*
X170244610Y-90181610D01*
X170337543Y-89999219D01*
X170400800Y-89804534D01*
X170432823Y-89602352D01*
X170432823Y-89397648D01*
X170400800Y-89195466D01*
X170388268Y-89156898D01*
X170337541Y-89000776D01*
X170300284Y-88927656D01*
X170244610Y-88818390D01*
X170169958Y-88715639D01*
X170124294Y-88652786D01*
X169979536Y-88508028D01*
X169813936Y-88387715D01*
X169813935Y-88387714D01*
X169813933Y-88387713D01*
X169753807Y-88357077D01*
X169631546Y-88294781D01*
X169436857Y-88231522D01*
X169262318Y-88203878D01*
X169234675Y-88199500D01*
X169029971Y-88199500D01*
X169005652Y-88203351D01*
X168827788Y-88231522D01*
X168633099Y-88294781D01*
X168450709Y-88387715D01*
X168285109Y-88508028D01*
X168140351Y-88652786D01*
X168020038Y-88818386D01*
X167927104Y-89000776D01*
X167863845Y-89195465D01*
X167831823Y-89397648D01*
X165432823Y-89397648D01*
X165432823Y-88706898D01*
X165422200Y-88618436D01*
X165366684Y-88477658D01*
X165366683Y-88477657D01*
X165366683Y-88477656D01*
X165275245Y-88357077D01*
X165154666Y-88265639D01*
X165013884Y-88210122D01*
X164968249Y-88204642D01*
X164925425Y-88199500D01*
X163339221Y-88199500D01*
X163300176Y-88204188D01*
X163250761Y-88210122D01*
X163109979Y-88265639D01*
X162989400Y-88357077D01*
X162897962Y-88477656D01*
X162842445Y-88618438D01*
X162838321Y-88652786D01*
X162831823Y-88706898D01*
X152390177Y-88706898D01*
X152271561Y-88660122D01*
X152225926Y-88654642D01*
X152183102Y-88649500D01*
X150196898Y-88649500D01*
X150157853Y-88654188D01*
X150108438Y-88660122D01*
X149967656Y-88715639D01*
X149847077Y-88807077D01*
X149755639Y-88927656D01*
X149700122Y-89068438D01*
X149694188Y-89117853D01*
X149689500Y-89156898D01*
X129500500Y-89156898D01*
X129500500Y-86413389D01*
X147399500Y-86413389D01*
X147399500Y-86586611D01*
X147426598Y-86757701D01*
X147480127Y-86922445D01*
X147558768Y-87076788D01*
X147660586Y-87216928D01*
X147783072Y-87339414D01*
X147923212Y-87441232D01*
X148077555Y-87519873D01*
X148242299Y-87573402D01*
X148413389Y-87600500D01*
X148413390Y-87600500D01*
X148586610Y-87600500D01*
X148586611Y-87600500D01*
X148757701Y-87573402D01*
X148922445Y-87519873D01*
X149076788Y-87441232D01*
X149216928Y-87339414D01*
X149339414Y-87216928D01*
X149441232Y-87076788D01*
X149519873Y-86922445D01*
X149573402Y-86757701D01*
X149600500Y-86586611D01*
X149600500Y-86413389D01*
X149573402Y-86242299D01*
X149519873Y-86077555D01*
X149441232Y-85923212D01*
X149339414Y-85783072D01*
X149216928Y-85660586D01*
X149076788Y-85558768D01*
X148922445Y-85480127D01*
X148757701Y-85426598D01*
X148757699Y-85426597D01*
X148757698Y-85426597D01*
X148626271Y-85405781D01*
X148586611Y-85399500D01*
X148413389Y-85399500D01*
X148373728Y-85405781D01*
X148242302Y-85426597D01*
X148077552Y-85480128D01*
X147923211Y-85558768D01*
X147843256Y-85616859D01*
X147783072Y-85660586D01*
X147783070Y-85660588D01*
X147783069Y-85660588D01*
X147660588Y-85783069D01*
X147660588Y-85783070D01*
X147660586Y-85783072D01*
X147616859Y-85843256D01*
X147558768Y-85923211D01*
X147480128Y-86077552D01*
X147426597Y-86242302D01*
X147399500Y-86413389D01*
X129500500Y-86413389D01*
X129500500Y-81362332D01*
X129899500Y-81362332D01*
X129899500Y-81637667D01*
X129899501Y-81637684D01*
X129935438Y-81910655D01*
X129935439Y-81910660D01*
X129935440Y-81910666D01*
X129935441Y-81910668D01*
X130006704Y-82176630D01*
X130112075Y-82431017D01*
X130112080Y-82431028D01*
X130177815Y-82544882D01*
X130249751Y-82669479D01*
X130249753Y-82669482D01*
X130249754Y-82669483D01*
X130417370Y-82887926D01*
X130417376Y-82887933D01*
X130612066Y-83082623D01*
X130612072Y-83082628D01*
X130830521Y-83250249D01*
X130983778Y-83338732D01*
X131068971Y-83387919D01*
X131068976Y-83387921D01*
X131068979Y-83387923D01*
X131323368Y-83493295D01*
X131589334Y-83564560D01*
X131862326Y-83600500D01*
X131862333Y-83600500D01*
X132137667Y-83600500D01*
X132137674Y-83600500D01*
X132410666Y-83564560D01*
X132676632Y-83493295D01*
X132931021Y-83387923D01*
X133169479Y-83250249D01*
X133387928Y-83082628D01*
X133582628Y-82887928D01*
X133750249Y-82669479D01*
X133887923Y-82431021D01*
X133993295Y-82176632D01*
X134064560Y-81910666D01*
X134100500Y-81637674D01*
X134100500Y-81362326D01*
X134064560Y-81089334D01*
X133993295Y-80823368D01*
X133887923Y-80568979D01*
X133887921Y-80568976D01*
X133887919Y-80568971D01*
X133838732Y-80483778D01*
X133750249Y-80330521D01*
X133582628Y-80112072D01*
X133582623Y-80112066D01*
X133387933Y-79917376D01*
X133387926Y-79917370D01*
X133169483Y-79749754D01*
X133169482Y-79749753D01*
X133169479Y-79749751D01*
X133074407Y-79694861D01*
X132931028Y-79612080D01*
X132931017Y-79612075D01*
X132676630Y-79506704D01*
X132543649Y-79471072D01*
X132410666Y-79435440D01*
X132410660Y-79435439D01*
X132410655Y-79435438D01*
X132137684Y-79399501D01*
X132137679Y-79399500D01*
X132137674Y-79399500D01*
X131862326Y-79399500D01*
X131862320Y-79399500D01*
X131862315Y-79399501D01*
X131589344Y-79435438D01*
X131589337Y-79435439D01*
X131589334Y-79435440D01*
X131533125Y-79450500D01*
X131323369Y-79506704D01*
X131068982Y-79612075D01*
X131068971Y-79612080D01*
X130830516Y-79749754D01*
X130612073Y-79917370D01*
X130612066Y-79917376D01*
X130417376Y-80112066D01*
X130417370Y-80112073D01*
X130249754Y-80330516D01*
X130112080Y-80568971D01*
X130112075Y-80568982D01*
X130006704Y-80823369D01*
X129935441Y-81089331D01*
X129935438Y-81089344D01*
X129899501Y-81362315D01*
X129899500Y-81362332D01*
X129500500Y-81362332D01*
X129500500Y-79124500D01*
X129520185Y-79057461D01*
X129572989Y-79011706D01*
X129624500Y-79000500D01*
X157099480Y-79000500D01*
X157166519Y-79020185D01*
G37*
%TD.AperFunction*%
%TD*%
M02*
