%TF.GenerationSoftware,KiCad,Pcbnew,9.0.4*%
%TF.CreationDate,2025-08-29T10:03:57+02:00*%
%TF.ProjectId,TDA7267_2x2_panel,54444137-3236-4375-9f32-78325f70616e,rev?*%
%TF.SameCoordinates,Original*%
%TF.FileFunction,Legend,Top*%
%TF.FilePolarity,Positive*%
%FSLAX46Y46*%
G04 Gerber Fmt 4.6, Leading zero omitted, Abs format (unit mm)*
G04 Created by KiCad (PCBNEW 9.0.4) date 2025-08-29 10:03:57*
%MOMM*%
%LPD*%
G01*
G04 APERTURE LIST*
%ADD10C,0.400000*%
%ADD11C,0.500000*%
%ADD12C,0.150000*%
%ADD13C,0.120000*%
G04 APERTURE END LIST*
D10*
X124953633Y-72234438D02*
X126096490Y-72234438D01*
X125525061Y-74234438D02*
X125525061Y-72234438D01*
X126763157Y-74234438D02*
X126763157Y-72234438D01*
X126763157Y-72234438D02*
X127239347Y-72234438D01*
X127239347Y-72234438D02*
X127525062Y-72329676D01*
X127525062Y-72329676D02*
X127715538Y-72520152D01*
X127715538Y-72520152D02*
X127810776Y-72710628D01*
X127810776Y-72710628D02*
X127906014Y-73091580D01*
X127906014Y-73091580D02*
X127906014Y-73377295D01*
X127906014Y-73377295D02*
X127810776Y-73758247D01*
X127810776Y-73758247D02*
X127715538Y-73948723D01*
X127715538Y-73948723D02*
X127525062Y-74139200D01*
X127525062Y-74139200D02*
X127239347Y-74234438D01*
X127239347Y-74234438D02*
X126763157Y-74234438D01*
X128667919Y-73663009D02*
X129620300Y-73663009D01*
X128477443Y-74234438D02*
X129144109Y-72234438D01*
X129144109Y-72234438D02*
X129810776Y-74234438D01*
X130286967Y-72234438D02*
X131620300Y-72234438D01*
X131620300Y-72234438D02*
X130763157Y-74234438D01*
X132286967Y-72424914D02*
X132382205Y-72329676D01*
X132382205Y-72329676D02*
X132572681Y-72234438D01*
X132572681Y-72234438D02*
X133048872Y-72234438D01*
X133048872Y-72234438D02*
X133239348Y-72329676D01*
X133239348Y-72329676D02*
X133334586Y-72424914D01*
X133334586Y-72424914D02*
X133429824Y-72615390D01*
X133429824Y-72615390D02*
X133429824Y-72805866D01*
X133429824Y-72805866D02*
X133334586Y-73091580D01*
X133334586Y-73091580D02*
X132191729Y-74234438D01*
X132191729Y-74234438D02*
X133429824Y-74234438D01*
X135144110Y-72234438D02*
X134763157Y-72234438D01*
X134763157Y-72234438D02*
X134572681Y-72329676D01*
X134572681Y-72329676D02*
X134477443Y-72424914D01*
X134477443Y-72424914D02*
X134286967Y-72710628D01*
X134286967Y-72710628D02*
X134191729Y-73091580D01*
X134191729Y-73091580D02*
X134191729Y-73853485D01*
X134191729Y-73853485D02*
X134286967Y-74043961D01*
X134286967Y-74043961D02*
X134382205Y-74139200D01*
X134382205Y-74139200D02*
X134572681Y-74234438D01*
X134572681Y-74234438D02*
X134953634Y-74234438D01*
X134953634Y-74234438D02*
X135144110Y-74139200D01*
X135144110Y-74139200D02*
X135239348Y-74043961D01*
X135239348Y-74043961D02*
X135334586Y-73853485D01*
X135334586Y-73853485D02*
X135334586Y-73377295D01*
X135334586Y-73377295D02*
X135239348Y-73186819D01*
X135239348Y-73186819D02*
X135144110Y-73091580D01*
X135144110Y-73091580D02*
X134953634Y-72996342D01*
X134953634Y-72996342D02*
X134572681Y-72996342D01*
X134572681Y-72996342D02*
X134382205Y-73091580D01*
X134382205Y-73091580D02*
X134286967Y-73186819D01*
X134286967Y-73186819D02*
X134191729Y-73377295D01*
X136001253Y-72234438D02*
X137334586Y-72234438D01*
X137334586Y-72234438D02*
X136477443Y-74234438D01*
X78953633Y-72234438D02*
X80096490Y-72234438D01*
X79525061Y-74234438D02*
X79525061Y-72234438D01*
X80763157Y-74234438D02*
X80763157Y-72234438D01*
X80763157Y-72234438D02*
X81239347Y-72234438D01*
X81239347Y-72234438D02*
X81525062Y-72329676D01*
X81525062Y-72329676D02*
X81715538Y-72520152D01*
X81715538Y-72520152D02*
X81810776Y-72710628D01*
X81810776Y-72710628D02*
X81906014Y-73091580D01*
X81906014Y-73091580D02*
X81906014Y-73377295D01*
X81906014Y-73377295D02*
X81810776Y-73758247D01*
X81810776Y-73758247D02*
X81715538Y-73948723D01*
X81715538Y-73948723D02*
X81525062Y-74139200D01*
X81525062Y-74139200D02*
X81239347Y-74234438D01*
X81239347Y-74234438D02*
X80763157Y-74234438D01*
X82667919Y-73663009D02*
X83620300Y-73663009D01*
X82477443Y-74234438D02*
X83144109Y-72234438D01*
X83144109Y-72234438D02*
X83810776Y-74234438D01*
X84286967Y-72234438D02*
X85620300Y-72234438D01*
X85620300Y-72234438D02*
X84763157Y-74234438D01*
X86286967Y-72424914D02*
X86382205Y-72329676D01*
X86382205Y-72329676D02*
X86572681Y-72234438D01*
X86572681Y-72234438D02*
X87048872Y-72234438D01*
X87048872Y-72234438D02*
X87239348Y-72329676D01*
X87239348Y-72329676D02*
X87334586Y-72424914D01*
X87334586Y-72424914D02*
X87429824Y-72615390D01*
X87429824Y-72615390D02*
X87429824Y-72805866D01*
X87429824Y-72805866D02*
X87334586Y-73091580D01*
X87334586Y-73091580D02*
X86191729Y-74234438D01*
X86191729Y-74234438D02*
X87429824Y-74234438D01*
X89144110Y-72234438D02*
X88763157Y-72234438D01*
X88763157Y-72234438D02*
X88572681Y-72329676D01*
X88572681Y-72329676D02*
X88477443Y-72424914D01*
X88477443Y-72424914D02*
X88286967Y-72710628D01*
X88286967Y-72710628D02*
X88191729Y-73091580D01*
X88191729Y-73091580D02*
X88191729Y-73853485D01*
X88191729Y-73853485D02*
X88286967Y-74043961D01*
X88286967Y-74043961D02*
X88382205Y-74139200D01*
X88382205Y-74139200D02*
X88572681Y-74234438D01*
X88572681Y-74234438D02*
X88953634Y-74234438D01*
X88953634Y-74234438D02*
X89144110Y-74139200D01*
X89144110Y-74139200D02*
X89239348Y-74043961D01*
X89239348Y-74043961D02*
X89334586Y-73853485D01*
X89334586Y-73853485D02*
X89334586Y-73377295D01*
X89334586Y-73377295D02*
X89239348Y-73186819D01*
X89239348Y-73186819D02*
X89144110Y-73091580D01*
X89144110Y-73091580D02*
X88953634Y-72996342D01*
X88953634Y-72996342D02*
X88572681Y-72996342D01*
X88572681Y-72996342D02*
X88382205Y-73091580D01*
X88382205Y-73091580D02*
X88286967Y-73186819D01*
X88286967Y-73186819D02*
X88191729Y-73377295D01*
X90001253Y-72234438D02*
X91334586Y-72234438D01*
X91334586Y-72234438D02*
X90477443Y-74234438D01*
X78953633Y-30234438D02*
X80096490Y-30234438D01*
X79525061Y-32234438D02*
X79525061Y-30234438D01*
X80763157Y-32234438D02*
X80763157Y-30234438D01*
X80763157Y-30234438D02*
X81239347Y-30234438D01*
X81239347Y-30234438D02*
X81525062Y-30329676D01*
X81525062Y-30329676D02*
X81715538Y-30520152D01*
X81715538Y-30520152D02*
X81810776Y-30710628D01*
X81810776Y-30710628D02*
X81906014Y-31091580D01*
X81906014Y-31091580D02*
X81906014Y-31377295D01*
X81906014Y-31377295D02*
X81810776Y-31758247D01*
X81810776Y-31758247D02*
X81715538Y-31948723D01*
X81715538Y-31948723D02*
X81525062Y-32139200D01*
X81525062Y-32139200D02*
X81239347Y-32234438D01*
X81239347Y-32234438D02*
X80763157Y-32234438D01*
X82667919Y-31663009D02*
X83620300Y-31663009D01*
X82477443Y-32234438D02*
X83144109Y-30234438D01*
X83144109Y-30234438D02*
X83810776Y-32234438D01*
X84286967Y-30234438D02*
X85620300Y-30234438D01*
X85620300Y-30234438D02*
X84763157Y-32234438D01*
X86286967Y-30424914D02*
X86382205Y-30329676D01*
X86382205Y-30329676D02*
X86572681Y-30234438D01*
X86572681Y-30234438D02*
X87048872Y-30234438D01*
X87048872Y-30234438D02*
X87239348Y-30329676D01*
X87239348Y-30329676D02*
X87334586Y-30424914D01*
X87334586Y-30424914D02*
X87429824Y-30615390D01*
X87429824Y-30615390D02*
X87429824Y-30805866D01*
X87429824Y-30805866D02*
X87334586Y-31091580D01*
X87334586Y-31091580D02*
X86191729Y-32234438D01*
X86191729Y-32234438D02*
X87429824Y-32234438D01*
X89144110Y-30234438D02*
X88763157Y-30234438D01*
X88763157Y-30234438D02*
X88572681Y-30329676D01*
X88572681Y-30329676D02*
X88477443Y-30424914D01*
X88477443Y-30424914D02*
X88286967Y-30710628D01*
X88286967Y-30710628D02*
X88191729Y-31091580D01*
X88191729Y-31091580D02*
X88191729Y-31853485D01*
X88191729Y-31853485D02*
X88286967Y-32043961D01*
X88286967Y-32043961D02*
X88382205Y-32139200D01*
X88382205Y-32139200D02*
X88572681Y-32234438D01*
X88572681Y-32234438D02*
X88953634Y-32234438D01*
X88953634Y-32234438D02*
X89144110Y-32139200D01*
X89144110Y-32139200D02*
X89239348Y-32043961D01*
X89239348Y-32043961D02*
X89334586Y-31853485D01*
X89334586Y-31853485D02*
X89334586Y-31377295D01*
X89334586Y-31377295D02*
X89239348Y-31186819D01*
X89239348Y-31186819D02*
X89144110Y-31091580D01*
X89144110Y-31091580D02*
X88953634Y-30996342D01*
X88953634Y-30996342D02*
X88572681Y-30996342D01*
X88572681Y-30996342D02*
X88382205Y-31091580D01*
X88382205Y-31091580D02*
X88286967Y-31186819D01*
X88286967Y-31186819D02*
X88191729Y-31377295D01*
X90001253Y-30234438D02*
X91334586Y-30234438D01*
X91334586Y-30234438D02*
X90477443Y-32234438D01*
X124953633Y-30234438D02*
X126096490Y-30234438D01*
X125525061Y-32234438D02*
X125525061Y-30234438D01*
X126763157Y-32234438D02*
X126763157Y-30234438D01*
X126763157Y-30234438D02*
X127239347Y-30234438D01*
X127239347Y-30234438D02*
X127525062Y-30329676D01*
X127525062Y-30329676D02*
X127715538Y-30520152D01*
X127715538Y-30520152D02*
X127810776Y-30710628D01*
X127810776Y-30710628D02*
X127906014Y-31091580D01*
X127906014Y-31091580D02*
X127906014Y-31377295D01*
X127906014Y-31377295D02*
X127810776Y-31758247D01*
X127810776Y-31758247D02*
X127715538Y-31948723D01*
X127715538Y-31948723D02*
X127525062Y-32139200D01*
X127525062Y-32139200D02*
X127239347Y-32234438D01*
X127239347Y-32234438D02*
X126763157Y-32234438D01*
X128667919Y-31663009D02*
X129620300Y-31663009D01*
X128477443Y-32234438D02*
X129144109Y-30234438D01*
X129144109Y-30234438D02*
X129810776Y-32234438D01*
X130286967Y-30234438D02*
X131620300Y-30234438D01*
X131620300Y-30234438D02*
X130763157Y-32234438D01*
X132286967Y-30424914D02*
X132382205Y-30329676D01*
X132382205Y-30329676D02*
X132572681Y-30234438D01*
X132572681Y-30234438D02*
X133048872Y-30234438D01*
X133048872Y-30234438D02*
X133239348Y-30329676D01*
X133239348Y-30329676D02*
X133334586Y-30424914D01*
X133334586Y-30424914D02*
X133429824Y-30615390D01*
X133429824Y-30615390D02*
X133429824Y-30805866D01*
X133429824Y-30805866D02*
X133334586Y-31091580D01*
X133334586Y-31091580D02*
X132191729Y-32234438D01*
X132191729Y-32234438D02*
X133429824Y-32234438D01*
X135144110Y-30234438D02*
X134763157Y-30234438D01*
X134763157Y-30234438D02*
X134572681Y-30329676D01*
X134572681Y-30329676D02*
X134477443Y-30424914D01*
X134477443Y-30424914D02*
X134286967Y-30710628D01*
X134286967Y-30710628D02*
X134191729Y-31091580D01*
X134191729Y-31091580D02*
X134191729Y-31853485D01*
X134191729Y-31853485D02*
X134286967Y-32043961D01*
X134286967Y-32043961D02*
X134382205Y-32139200D01*
X134382205Y-32139200D02*
X134572681Y-32234438D01*
X134572681Y-32234438D02*
X134953634Y-32234438D01*
X134953634Y-32234438D02*
X135144110Y-32139200D01*
X135144110Y-32139200D02*
X135239348Y-32043961D01*
X135239348Y-32043961D02*
X135334586Y-31853485D01*
X135334586Y-31853485D02*
X135334586Y-31377295D01*
X135334586Y-31377295D02*
X135239348Y-31186819D01*
X135239348Y-31186819D02*
X135144110Y-31091580D01*
X135144110Y-31091580D02*
X134953634Y-30996342D01*
X134953634Y-30996342D02*
X134572681Y-30996342D01*
X134572681Y-30996342D02*
X134382205Y-31091580D01*
X134382205Y-31091580D02*
X134286967Y-31186819D01*
X134286967Y-31186819D02*
X134191729Y-31377295D01*
X136001253Y-30234438D02*
X137334586Y-30234438D01*
X137334586Y-30234438D02*
X136477443Y-32234438D01*
D11*
X116500000Y-29000000D02*
X116500000Y-110000000D01*
X72200000Y-69500000D02*
X160800000Y-69500000D01*
D12*
X150790000Y-102874819D02*
X150790000Y-101874819D01*
X151266190Y-102874819D02*
X151266190Y-101874819D01*
X151266190Y-101874819D02*
X151837618Y-102874819D01*
X151837618Y-102874819D02*
X151837618Y-101874819D01*
X152837618Y-102874819D02*
X152266190Y-102874819D01*
X152551904Y-102874819D02*
X152551904Y-101874819D01*
X152551904Y-101874819D02*
X152456666Y-102017676D01*
X152456666Y-102017676D02*
X152361428Y-102112914D01*
X152361428Y-102112914D02*
X152266190Y-102160533D01*
X133904819Y-93916666D02*
X133428628Y-94249999D01*
X133904819Y-94488094D02*
X132904819Y-94488094D01*
X132904819Y-94488094D02*
X132904819Y-94107142D01*
X132904819Y-94107142D02*
X132952438Y-94011904D01*
X132952438Y-94011904D02*
X133000057Y-93964285D01*
X133000057Y-93964285D02*
X133095295Y-93916666D01*
X133095295Y-93916666D02*
X133238152Y-93916666D01*
X133238152Y-93916666D02*
X133333390Y-93964285D01*
X133333390Y-93964285D02*
X133381009Y-94011904D01*
X133381009Y-94011904D02*
X133428628Y-94107142D01*
X133428628Y-94107142D02*
X133428628Y-94488094D01*
X133904819Y-92964285D02*
X133904819Y-93535713D01*
X133904819Y-93249999D02*
X132904819Y-93249999D01*
X132904819Y-93249999D02*
X133047676Y-93345237D01*
X133047676Y-93345237D02*
X133142914Y-93440475D01*
X133142914Y-93440475D02*
X133190533Y-93535713D01*
X128759580Y-93726666D02*
X128807200Y-93774285D01*
X128807200Y-93774285D02*
X128854819Y-93917142D01*
X128854819Y-93917142D02*
X128854819Y-94012380D01*
X128854819Y-94012380D02*
X128807200Y-94155237D01*
X128807200Y-94155237D02*
X128711961Y-94250475D01*
X128711961Y-94250475D02*
X128616723Y-94298094D01*
X128616723Y-94298094D02*
X128426247Y-94345713D01*
X128426247Y-94345713D02*
X128283390Y-94345713D01*
X128283390Y-94345713D02*
X128092914Y-94298094D01*
X128092914Y-94298094D02*
X127997676Y-94250475D01*
X127997676Y-94250475D02*
X127902438Y-94155237D01*
X127902438Y-94155237D02*
X127854819Y-94012380D01*
X127854819Y-94012380D02*
X127854819Y-93917142D01*
X127854819Y-93917142D02*
X127902438Y-93774285D01*
X127902438Y-93774285D02*
X127950057Y-93726666D01*
X127854819Y-93393332D02*
X127854819Y-92774285D01*
X127854819Y-92774285D02*
X128235771Y-93107618D01*
X128235771Y-93107618D02*
X128235771Y-92964761D01*
X128235771Y-92964761D02*
X128283390Y-92869523D01*
X128283390Y-92869523D02*
X128331009Y-92821904D01*
X128331009Y-92821904D02*
X128426247Y-92774285D01*
X128426247Y-92774285D02*
X128664342Y-92774285D01*
X128664342Y-92774285D02*
X128759580Y-92821904D01*
X128759580Y-92821904D02*
X128807200Y-92869523D01*
X128807200Y-92869523D02*
X128854819Y-92964761D01*
X128854819Y-92964761D02*
X128854819Y-93250475D01*
X128854819Y-93250475D02*
X128807200Y-93345713D01*
X128807200Y-93345713D02*
X128759580Y-93393332D01*
X122911905Y-77654819D02*
X122911905Y-76654819D01*
X122911905Y-76654819D02*
X123150000Y-76654819D01*
X123150000Y-76654819D02*
X123292857Y-76702438D01*
X123292857Y-76702438D02*
X123388095Y-76797676D01*
X123388095Y-76797676D02*
X123435714Y-76892914D01*
X123435714Y-76892914D02*
X123483333Y-77083390D01*
X123483333Y-77083390D02*
X123483333Y-77226247D01*
X123483333Y-77226247D02*
X123435714Y-77416723D01*
X123435714Y-77416723D02*
X123388095Y-77511961D01*
X123388095Y-77511961D02*
X123292857Y-77607200D01*
X123292857Y-77607200D02*
X123150000Y-77654819D01*
X123150000Y-77654819D02*
X122911905Y-77654819D01*
X124435714Y-77654819D02*
X123864286Y-77654819D01*
X124150000Y-77654819D02*
X124150000Y-76654819D01*
X124150000Y-76654819D02*
X124054762Y-76797676D01*
X124054762Y-76797676D02*
X123959524Y-76892914D01*
X123959524Y-76892914D02*
X123864286Y-76940533D01*
X73590476Y-62054819D02*
X73923809Y-63054819D01*
X73923809Y-63054819D02*
X74257142Y-62054819D01*
X75161904Y-62959580D02*
X75114285Y-63007200D01*
X75114285Y-63007200D02*
X74971428Y-63054819D01*
X74971428Y-63054819D02*
X74876190Y-63054819D01*
X74876190Y-63054819D02*
X74733333Y-63007200D01*
X74733333Y-63007200D02*
X74638095Y-62911961D01*
X74638095Y-62911961D02*
X74590476Y-62816723D01*
X74590476Y-62816723D02*
X74542857Y-62626247D01*
X74542857Y-62626247D02*
X74542857Y-62483390D01*
X74542857Y-62483390D02*
X74590476Y-62292914D01*
X74590476Y-62292914D02*
X74638095Y-62197676D01*
X74638095Y-62197676D02*
X74733333Y-62102438D01*
X74733333Y-62102438D02*
X74876190Y-62054819D01*
X74876190Y-62054819D02*
X74971428Y-62054819D01*
X74971428Y-62054819D02*
X75114285Y-62102438D01*
X75114285Y-62102438D02*
X75161904Y-62150057D01*
X76161904Y-62959580D02*
X76114285Y-63007200D01*
X76114285Y-63007200D02*
X75971428Y-63054819D01*
X75971428Y-63054819D02*
X75876190Y-63054819D01*
X75876190Y-63054819D02*
X75733333Y-63007200D01*
X75733333Y-63007200D02*
X75638095Y-62911961D01*
X75638095Y-62911961D02*
X75590476Y-62816723D01*
X75590476Y-62816723D02*
X75542857Y-62626247D01*
X75542857Y-62626247D02*
X75542857Y-62483390D01*
X75542857Y-62483390D02*
X75590476Y-62292914D01*
X75590476Y-62292914D02*
X75638095Y-62197676D01*
X75638095Y-62197676D02*
X75733333Y-62102438D01*
X75733333Y-62102438D02*
X75876190Y-62054819D01*
X75876190Y-62054819D02*
X75971428Y-62054819D01*
X75971428Y-62054819D02*
X76114285Y-62102438D01*
X76114285Y-62102438D02*
X76161904Y-62150057D01*
X77114285Y-63054819D02*
X76542857Y-63054819D01*
X76828571Y-63054819D02*
X76828571Y-62054819D01*
X76828571Y-62054819D02*
X76733333Y-62197676D01*
X76733333Y-62197676D02*
X76638095Y-62292914D01*
X76638095Y-62292914D02*
X76542857Y-62340533D01*
X85504761Y-58654819D02*
X85171428Y-58178628D01*
X84933333Y-58654819D02*
X84933333Y-57654819D01*
X84933333Y-57654819D02*
X85314285Y-57654819D01*
X85314285Y-57654819D02*
X85409523Y-57702438D01*
X85409523Y-57702438D02*
X85457142Y-57750057D01*
X85457142Y-57750057D02*
X85504761Y-57845295D01*
X85504761Y-57845295D02*
X85504761Y-57988152D01*
X85504761Y-57988152D02*
X85457142Y-58083390D01*
X85457142Y-58083390D02*
X85409523Y-58131009D01*
X85409523Y-58131009D02*
X85314285Y-58178628D01*
X85314285Y-58178628D02*
X84933333Y-58178628D01*
X85790476Y-57654819D02*
X86123809Y-58654819D01*
X86123809Y-58654819D02*
X86457142Y-57654819D01*
X87314285Y-58654819D02*
X86742857Y-58654819D01*
X87028571Y-58654819D02*
X87028571Y-57654819D01*
X87028571Y-57654819D02*
X86933333Y-57797676D01*
X86933333Y-57797676D02*
X86838095Y-57892914D01*
X86838095Y-57892914D02*
X86742857Y-57940533D01*
X98873809Y-35654819D02*
X99064285Y-35654819D01*
X99064285Y-35654819D02*
X99159523Y-35702438D01*
X99159523Y-35702438D02*
X99254761Y-35797676D01*
X99254761Y-35797676D02*
X99302380Y-35988152D01*
X99302380Y-35988152D02*
X99302380Y-36321485D01*
X99302380Y-36321485D02*
X99254761Y-36511961D01*
X99254761Y-36511961D02*
X99159523Y-36607200D01*
X99159523Y-36607200D02*
X99064285Y-36654819D01*
X99064285Y-36654819D02*
X98873809Y-36654819D01*
X98873809Y-36654819D02*
X98778571Y-36607200D01*
X98778571Y-36607200D02*
X98683333Y-36511961D01*
X98683333Y-36511961D02*
X98635714Y-36321485D01*
X98635714Y-36321485D02*
X98635714Y-35988152D01*
X98635714Y-35988152D02*
X98683333Y-35797676D01*
X98683333Y-35797676D02*
X98778571Y-35702438D01*
X98778571Y-35702438D02*
X98873809Y-35654819D01*
X99730952Y-35654819D02*
X99730952Y-36464342D01*
X99730952Y-36464342D02*
X99778571Y-36559580D01*
X99778571Y-36559580D02*
X99826190Y-36607200D01*
X99826190Y-36607200D02*
X99921428Y-36654819D01*
X99921428Y-36654819D02*
X100111904Y-36654819D01*
X100111904Y-36654819D02*
X100207142Y-36607200D01*
X100207142Y-36607200D02*
X100254761Y-36559580D01*
X100254761Y-36559580D02*
X100302380Y-36464342D01*
X100302380Y-36464342D02*
X100302380Y-35654819D01*
X100635714Y-35654819D02*
X101207142Y-35654819D01*
X100921428Y-36654819D02*
X100921428Y-35654819D01*
X102064285Y-36654819D02*
X101492857Y-36654819D01*
X101778571Y-36654819D02*
X101778571Y-35654819D01*
X101778571Y-35654819D02*
X101683333Y-35797676D01*
X101683333Y-35797676D02*
X101588095Y-35892914D01*
X101588095Y-35892914D02*
X101492857Y-35940533D01*
X87183333Y-43859580D02*
X87135714Y-43907200D01*
X87135714Y-43907200D02*
X86992857Y-43954819D01*
X86992857Y-43954819D02*
X86897619Y-43954819D01*
X86897619Y-43954819D02*
X86754762Y-43907200D01*
X86754762Y-43907200D02*
X86659524Y-43811961D01*
X86659524Y-43811961D02*
X86611905Y-43716723D01*
X86611905Y-43716723D02*
X86564286Y-43526247D01*
X86564286Y-43526247D02*
X86564286Y-43383390D01*
X86564286Y-43383390D02*
X86611905Y-43192914D01*
X86611905Y-43192914D02*
X86659524Y-43097676D01*
X86659524Y-43097676D02*
X86754762Y-43002438D01*
X86754762Y-43002438D02*
X86897619Y-42954819D01*
X86897619Y-42954819D02*
X86992857Y-42954819D01*
X86992857Y-42954819D02*
X87135714Y-43002438D01*
X87135714Y-43002438D02*
X87183333Y-43050057D01*
X88088095Y-42954819D02*
X87611905Y-42954819D01*
X87611905Y-42954819D02*
X87564286Y-43431009D01*
X87564286Y-43431009D02*
X87611905Y-43383390D01*
X87611905Y-43383390D02*
X87707143Y-43335771D01*
X87707143Y-43335771D02*
X87945238Y-43335771D01*
X87945238Y-43335771D02*
X88040476Y-43383390D01*
X88040476Y-43383390D02*
X88088095Y-43431009D01*
X88088095Y-43431009D02*
X88135714Y-43526247D01*
X88135714Y-43526247D02*
X88135714Y-43764342D01*
X88135714Y-43764342D02*
X88088095Y-43859580D01*
X88088095Y-43859580D02*
X88040476Y-43907200D01*
X88040476Y-43907200D02*
X87945238Y-43954819D01*
X87945238Y-43954819D02*
X87707143Y-43954819D01*
X87707143Y-43954819D02*
X87611905Y-43907200D01*
X87611905Y-43907200D02*
X87564286Y-43859580D01*
X97454819Y-45011904D02*
X98264342Y-45011904D01*
X98264342Y-45011904D02*
X98359580Y-44964285D01*
X98359580Y-44964285D02*
X98407200Y-44916666D01*
X98407200Y-44916666D02*
X98454819Y-44821428D01*
X98454819Y-44821428D02*
X98454819Y-44630952D01*
X98454819Y-44630952D02*
X98407200Y-44535714D01*
X98407200Y-44535714D02*
X98359580Y-44488095D01*
X98359580Y-44488095D02*
X98264342Y-44440476D01*
X98264342Y-44440476D02*
X97454819Y-44440476D01*
X98454819Y-43440476D02*
X98454819Y-44011904D01*
X98454819Y-43726190D02*
X97454819Y-43726190D01*
X97454819Y-43726190D02*
X97597676Y-43821428D01*
X97597676Y-43821428D02*
X97692914Y-43916666D01*
X97692914Y-43916666D02*
X97740533Y-44011904D01*
X97733333Y-52909580D02*
X97685714Y-52957200D01*
X97685714Y-52957200D02*
X97542857Y-53004819D01*
X97542857Y-53004819D02*
X97447619Y-53004819D01*
X97447619Y-53004819D02*
X97304762Y-52957200D01*
X97304762Y-52957200D02*
X97209524Y-52861961D01*
X97209524Y-52861961D02*
X97161905Y-52766723D01*
X97161905Y-52766723D02*
X97114286Y-52576247D01*
X97114286Y-52576247D02*
X97114286Y-52433390D01*
X97114286Y-52433390D02*
X97161905Y-52242914D01*
X97161905Y-52242914D02*
X97209524Y-52147676D01*
X97209524Y-52147676D02*
X97304762Y-52052438D01*
X97304762Y-52052438D02*
X97447619Y-52004819D01*
X97447619Y-52004819D02*
X97542857Y-52004819D01*
X97542857Y-52004819D02*
X97685714Y-52052438D01*
X97685714Y-52052438D02*
X97733333Y-52100057D01*
X98685714Y-53004819D02*
X98114286Y-53004819D01*
X98400000Y-53004819D02*
X98400000Y-52004819D01*
X98400000Y-52004819D02*
X98304762Y-52147676D01*
X98304762Y-52147676D02*
X98209524Y-52242914D01*
X98209524Y-52242914D02*
X98114286Y-52290533D01*
X158885984Y-89459580D02*
X158838365Y-89507200D01*
X158838365Y-89507200D02*
X158695508Y-89554819D01*
X158695508Y-89554819D02*
X158600270Y-89554819D01*
X158600270Y-89554819D02*
X158457413Y-89507200D01*
X158457413Y-89507200D02*
X158362175Y-89411961D01*
X158362175Y-89411961D02*
X158314556Y-89316723D01*
X158314556Y-89316723D02*
X158266937Y-89126247D01*
X158266937Y-89126247D02*
X158266937Y-88983390D01*
X158266937Y-88983390D02*
X158314556Y-88792914D01*
X158314556Y-88792914D02*
X158362175Y-88697676D01*
X158362175Y-88697676D02*
X158457413Y-88602438D01*
X158457413Y-88602438D02*
X158600270Y-88554819D01*
X158600270Y-88554819D02*
X158695508Y-88554819D01*
X158695508Y-88554819D02*
X158838365Y-88602438D01*
X158838365Y-88602438D02*
X158885984Y-88650057D01*
X159266937Y-88650057D02*
X159314556Y-88602438D01*
X159314556Y-88602438D02*
X159409794Y-88554819D01*
X159409794Y-88554819D02*
X159647889Y-88554819D01*
X159647889Y-88554819D02*
X159743127Y-88602438D01*
X159743127Y-88602438D02*
X159790746Y-88650057D01*
X159790746Y-88650057D02*
X159838365Y-88745295D01*
X159838365Y-88745295D02*
X159838365Y-88840533D01*
X159838365Y-88840533D02*
X159790746Y-88983390D01*
X159790746Y-88983390D02*
X159219318Y-89554819D01*
X159219318Y-89554819D02*
X159838365Y-89554819D01*
X122283333Y-88359580D02*
X122235714Y-88407200D01*
X122235714Y-88407200D02*
X122092857Y-88454819D01*
X122092857Y-88454819D02*
X121997619Y-88454819D01*
X121997619Y-88454819D02*
X121854762Y-88407200D01*
X121854762Y-88407200D02*
X121759524Y-88311961D01*
X121759524Y-88311961D02*
X121711905Y-88216723D01*
X121711905Y-88216723D02*
X121664286Y-88026247D01*
X121664286Y-88026247D02*
X121664286Y-87883390D01*
X121664286Y-87883390D02*
X121711905Y-87692914D01*
X121711905Y-87692914D02*
X121759524Y-87597676D01*
X121759524Y-87597676D02*
X121854762Y-87502438D01*
X121854762Y-87502438D02*
X121997619Y-87454819D01*
X121997619Y-87454819D02*
X122092857Y-87454819D01*
X122092857Y-87454819D02*
X122235714Y-87502438D01*
X122235714Y-87502438D02*
X122283333Y-87550057D01*
X123140476Y-87788152D02*
X123140476Y-88454819D01*
X122902381Y-87407200D02*
X122664286Y-88121485D01*
X122664286Y-88121485D02*
X123283333Y-88121485D01*
X152333333Y-76859580D02*
X152285714Y-76907200D01*
X152285714Y-76907200D02*
X152142857Y-76954819D01*
X152142857Y-76954819D02*
X152047619Y-76954819D01*
X152047619Y-76954819D02*
X151904762Y-76907200D01*
X151904762Y-76907200D02*
X151809524Y-76811961D01*
X151809524Y-76811961D02*
X151761905Y-76716723D01*
X151761905Y-76716723D02*
X151714286Y-76526247D01*
X151714286Y-76526247D02*
X151714286Y-76383390D01*
X151714286Y-76383390D02*
X151761905Y-76192914D01*
X151761905Y-76192914D02*
X151809524Y-76097676D01*
X151809524Y-76097676D02*
X151904762Y-76002438D01*
X151904762Y-76002438D02*
X152047619Y-75954819D01*
X152047619Y-75954819D02*
X152142857Y-75954819D01*
X152142857Y-75954819D02*
X152285714Y-76002438D01*
X152285714Y-76002438D02*
X152333333Y-76050057D01*
X153190476Y-75954819D02*
X153000000Y-75954819D01*
X153000000Y-75954819D02*
X152904762Y-76002438D01*
X152904762Y-76002438D02*
X152857143Y-76050057D01*
X152857143Y-76050057D02*
X152761905Y-76192914D01*
X152761905Y-76192914D02*
X152714286Y-76383390D01*
X152714286Y-76383390D02*
X152714286Y-76764342D01*
X152714286Y-76764342D02*
X152761905Y-76859580D01*
X152761905Y-76859580D02*
X152809524Y-76907200D01*
X152809524Y-76907200D02*
X152904762Y-76954819D01*
X152904762Y-76954819D02*
X153095238Y-76954819D01*
X153095238Y-76954819D02*
X153190476Y-76907200D01*
X153190476Y-76907200D02*
X153238095Y-76859580D01*
X153238095Y-76859580D02*
X153285714Y-76764342D01*
X153285714Y-76764342D02*
X153285714Y-76526247D01*
X153285714Y-76526247D02*
X153238095Y-76431009D01*
X153238095Y-76431009D02*
X153190476Y-76383390D01*
X153190476Y-76383390D02*
X153095238Y-76335771D01*
X153095238Y-76335771D02*
X152904762Y-76335771D01*
X152904762Y-76335771D02*
X152809524Y-76383390D01*
X152809524Y-76383390D02*
X152761905Y-76431009D01*
X152761905Y-76431009D02*
X152714286Y-76526247D01*
X131504761Y-100654819D02*
X131171428Y-100178628D01*
X130933333Y-100654819D02*
X130933333Y-99654819D01*
X130933333Y-99654819D02*
X131314285Y-99654819D01*
X131314285Y-99654819D02*
X131409523Y-99702438D01*
X131409523Y-99702438D02*
X131457142Y-99750057D01*
X131457142Y-99750057D02*
X131504761Y-99845295D01*
X131504761Y-99845295D02*
X131504761Y-99988152D01*
X131504761Y-99988152D02*
X131457142Y-100083390D01*
X131457142Y-100083390D02*
X131409523Y-100131009D01*
X131409523Y-100131009D02*
X131314285Y-100178628D01*
X131314285Y-100178628D02*
X130933333Y-100178628D01*
X131790476Y-99654819D02*
X132123809Y-100654819D01*
X132123809Y-100654819D02*
X132457142Y-99654819D01*
X133314285Y-100654819D02*
X132742857Y-100654819D01*
X133028571Y-100654819D02*
X133028571Y-99654819D01*
X133028571Y-99654819D02*
X132933333Y-99797676D01*
X132933333Y-99797676D02*
X132838095Y-99892914D01*
X132838095Y-99892914D02*
X132742857Y-99940533D01*
X76283333Y-46359580D02*
X76235714Y-46407200D01*
X76235714Y-46407200D02*
X76092857Y-46454819D01*
X76092857Y-46454819D02*
X75997619Y-46454819D01*
X75997619Y-46454819D02*
X75854762Y-46407200D01*
X75854762Y-46407200D02*
X75759524Y-46311961D01*
X75759524Y-46311961D02*
X75711905Y-46216723D01*
X75711905Y-46216723D02*
X75664286Y-46026247D01*
X75664286Y-46026247D02*
X75664286Y-45883390D01*
X75664286Y-45883390D02*
X75711905Y-45692914D01*
X75711905Y-45692914D02*
X75759524Y-45597676D01*
X75759524Y-45597676D02*
X75854762Y-45502438D01*
X75854762Y-45502438D02*
X75997619Y-45454819D01*
X75997619Y-45454819D02*
X76092857Y-45454819D01*
X76092857Y-45454819D02*
X76235714Y-45502438D01*
X76235714Y-45502438D02*
X76283333Y-45550057D01*
X77140476Y-45788152D02*
X77140476Y-46454819D01*
X76902381Y-45407200D02*
X76664286Y-46121485D01*
X76664286Y-46121485D02*
X77283333Y-46121485D01*
X76911905Y-35654819D02*
X76911905Y-34654819D01*
X76911905Y-34654819D02*
X77150000Y-34654819D01*
X77150000Y-34654819D02*
X77292857Y-34702438D01*
X77292857Y-34702438D02*
X77388095Y-34797676D01*
X77388095Y-34797676D02*
X77435714Y-34892914D01*
X77435714Y-34892914D02*
X77483333Y-35083390D01*
X77483333Y-35083390D02*
X77483333Y-35226247D01*
X77483333Y-35226247D02*
X77435714Y-35416723D01*
X77435714Y-35416723D02*
X77388095Y-35511961D01*
X77388095Y-35511961D02*
X77292857Y-35607200D01*
X77292857Y-35607200D02*
X77150000Y-35654819D01*
X77150000Y-35654819D02*
X76911905Y-35654819D01*
X78435714Y-35654819D02*
X77864286Y-35654819D01*
X78150000Y-35654819D02*
X78150000Y-34654819D01*
X78150000Y-34654819D02*
X78054762Y-34797676D01*
X78054762Y-34797676D02*
X77959524Y-34892914D01*
X77959524Y-34892914D02*
X77864286Y-34940533D01*
X82759580Y-51726666D02*
X82807200Y-51774285D01*
X82807200Y-51774285D02*
X82854819Y-51917142D01*
X82854819Y-51917142D02*
X82854819Y-52012380D01*
X82854819Y-52012380D02*
X82807200Y-52155237D01*
X82807200Y-52155237D02*
X82711961Y-52250475D01*
X82711961Y-52250475D02*
X82616723Y-52298094D01*
X82616723Y-52298094D02*
X82426247Y-52345713D01*
X82426247Y-52345713D02*
X82283390Y-52345713D01*
X82283390Y-52345713D02*
X82092914Y-52298094D01*
X82092914Y-52298094D02*
X81997676Y-52250475D01*
X81997676Y-52250475D02*
X81902438Y-52155237D01*
X81902438Y-52155237D02*
X81854819Y-52012380D01*
X81854819Y-52012380D02*
X81854819Y-51917142D01*
X81854819Y-51917142D02*
X81902438Y-51774285D01*
X81902438Y-51774285D02*
X81950057Y-51726666D01*
X81854819Y-51393332D02*
X81854819Y-50774285D01*
X81854819Y-50774285D02*
X82235771Y-51107618D01*
X82235771Y-51107618D02*
X82235771Y-50964761D01*
X82235771Y-50964761D02*
X82283390Y-50869523D01*
X82283390Y-50869523D02*
X82331009Y-50821904D01*
X82331009Y-50821904D02*
X82426247Y-50774285D01*
X82426247Y-50774285D02*
X82664342Y-50774285D01*
X82664342Y-50774285D02*
X82759580Y-50821904D01*
X82759580Y-50821904D02*
X82807200Y-50869523D01*
X82807200Y-50869523D02*
X82854819Y-50964761D01*
X82854819Y-50964761D02*
X82854819Y-51250475D01*
X82854819Y-51250475D02*
X82807200Y-51345713D01*
X82807200Y-51345713D02*
X82759580Y-51393332D01*
X112885984Y-47459580D02*
X112838365Y-47507200D01*
X112838365Y-47507200D02*
X112695508Y-47554819D01*
X112695508Y-47554819D02*
X112600270Y-47554819D01*
X112600270Y-47554819D02*
X112457413Y-47507200D01*
X112457413Y-47507200D02*
X112362175Y-47411961D01*
X112362175Y-47411961D02*
X112314556Y-47316723D01*
X112314556Y-47316723D02*
X112266937Y-47126247D01*
X112266937Y-47126247D02*
X112266937Y-46983390D01*
X112266937Y-46983390D02*
X112314556Y-46792914D01*
X112314556Y-46792914D02*
X112362175Y-46697676D01*
X112362175Y-46697676D02*
X112457413Y-46602438D01*
X112457413Y-46602438D02*
X112600270Y-46554819D01*
X112600270Y-46554819D02*
X112695508Y-46554819D01*
X112695508Y-46554819D02*
X112838365Y-46602438D01*
X112838365Y-46602438D02*
X112885984Y-46650057D01*
X113266937Y-46650057D02*
X113314556Y-46602438D01*
X113314556Y-46602438D02*
X113409794Y-46554819D01*
X113409794Y-46554819D02*
X113647889Y-46554819D01*
X113647889Y-46554819D02*
X113743127Y-46602438D01*
X113743127Y-46602438D02*
X113790746Y-46650057D01*
X113790746Y-46650057D02*
X113838365Y-46745295D01*
X113838365Y-46745295D02*
X113838365Y-46840533D01*
X113838365Y-46840533D02*
X113790746Y-46983390D01*
X113790746Y-46983390D02*
X113219318Y-47554819D01*
X113219318Y-47554819D02*
X113838365Y-47554819D01*
X106333333Y-34859580D02*
X106285714Y-34907200D01*
X106285714Y-34907200D02*
X106142857Y-34954819D01*
X106142857Y-34954819D02*
X106047619Y-34954819D01*
X106047619Y-34954819D02*
X105904762Y-34907200D01*
X105904762Y-34907200D02*
X105809524Y-34811961D01*
X105809524Y-34811961D02*
X105761905Y-34716723D01*
X105761905Y-34716723D02*
X105714286Y-34526247D01*
X105714286Y-34526247D02*
X105714286Y-34383390D01*
X105714286Y-34383390D02*
X105761905Y-34192914D01*
X105761905Y-34192914D02*
X105809524Y-34097676D01*
X105809524Y-34097676D02*
X105904762Y-34002438D01*
X105904762Y-34002438D02*
X106047619Y-33954819D01*
X106047619Y-33954819D02*
X106142857Y-33954819D01*
X106142857Y-33954819D02*
X106285714Y-34002438D01*
X106285714Y-34002438D02*
X106333333Y-34050057D01*
X107190476Y-33954819D02*
X107000000Y-33954819D01*
X107000000Y-33954819D02*
X106904762Y-34002438D01*
X106904762Y-34002438D02*
X106857143Y-34050057D01*
X106857143Y-34050057D02*
X106761905Y-34192914D01*
X106761905Y-34192914D02*
X106714286Y-34383390D01*
X106714286Y-34383390D02*
X106714286Y-34764342D01*
X106714286Y-34764342D02*
X106761905Y-34859580D01*
X106761905Y-34859580D02*
X106809524Y-34907200D01*
X106809524Y-34907200D02*
X106904762Y-34954819D01*
X106904762Y-34954819D02*
X107095238Y-34954819D01*
X107095238Y-34954819D02*
X107190476Y-34907200D01*
X107190476Y-34907200D02*
X107238095Y-34859580D01*
X107238095Y-34859580D02*
X107285714Y-34764342D01*
X107285714Y-34764342D02*
X107285714Y-34526247D01*
X107285714Y-34526247D02*
X107238095Y-34431009D01*
X107238095Y-34431009D02*
X107190476Y-34383390D01*
X107190476Y-34383390D02*
X107095238Y-34335771D01*
X107095238Y-34335771D02*
X106904762Y-34335771D01*
X106904762Y-34335771D02*
X106809524Y-34383390D01*
X106809524Y-34383390D02*
X106761905Y-34431009D01*
X106761905Y-34431009D02*
X106714286Y-34526247D01*
X104790000Y-60874819D02*
X104790000Y-59874819D01*
X105266190Y-60874819D02*
X105266190Y-59874819D01*
X105266190Y-59874819D02*
X105837618Y-60874819D01*
X105837618Y-60874819D02*
X105837618Y-59874819D01*
X106837618Y-60874819D02*
X106266190Y-60874819D01*
X106551904Y-60874819D02*
X106551904Y-59874819D01*
X106551904Y-59874819D02*
X106456666Y-60017676D01*
X106456666Y-60017676D02*
X106361428Y-60112914D01*
X106361428Y-60112914D02*
X106266190Y-60160533D01*
X87904819Y-51916666D02*
X87428628Y-52249999D01*
X87904819Y-52488094D02*
X86904819Y-52488094D01*
X86904819Y-52488094D02*
X86904819Y-52107142D01*
X86904819Y-52107142D02*
X86952438Y-52011904D01*
X86952438Y-52011904D02*
X87000057Y-51964285D01*
X87000057Y-51964285D02*
X87095295Y-51916666D01*
X87095295Y-51916666D02*
X87238152Y-51916666D01*
X87238152Y-51916666D02*
X87333390Y-51964285D01*
X87333390Y-51964285D02*
X87381009Y-52011904D01*
X87381009Y-52011904D02*
X87428628Y-52107142D01*
X87428628Y-52107142D02*
X87428628Y-52488094D01*
X87904819Y-50964285D02*
X87904819Y-51535713D01*
X87904819Y-51249999D02*
X86904819Y-51249999D01*
X86904819Y-51249999D02*
X87047676Y-51345237D01*
X87047676Y-51345237D02*
X87142914Y-51440475D01*
X87142914Y-51440475D02*
X87190533Y-51535713D01*
X158885984Y-47459580D02*
X158838365Y-47507200D01*
X158838365Y-47507200D02*
X158695508Y-47554819D01*
X158695508Y-47554819D02*
X158600270Y-47554819D01*
X158600270Y-47554819D02*
X158457413Y-47507200D01*
X158457413Y-47507200D02*
X158362175Y-47411961D01*
X158362175Y-47411961D02*
X158314556Y-47316723D01*
X158314556Y-47316723D02*
X158266937Y-47126247D01*
X158266937Y-47126247D02*
X158266937Y-46983390D01*
X158266937Y-46983390D02*
X158314556Y-46792914D01*
X158314556Y-46792914D02*
X158362175Y-46697676D01*
X158362175Y-46697676D02*
X158457413Y-46602438D01*
X158457413Y-46602438D02*
X158600270Y-46554819D01*
X158600270Y-46554819D02*
X158695508Y-46554819D01*
X158695508Y-46554819D02*
X158838365Y-46602438D01*
X158838365Y-46602438D02*
X158885984Y-46650057D01*
X159266937Y-46650057D02*
X159314556Y-46602438D01*
X159314556Y-46602438D02*
X159409794Y-46554819D01*
X159409794Y-46554819D02*
X159647889Y-46554819D01*
X159647889Y-46554819D02*
X159743127Y-46602438D01*
X159743127Y-46602438D02*
X159790746Y-46650057D01*
X159790746Y-46650057D02*
X159838365Y-46745295D01*
X159838365Y-46745295D02*
X159838365Y-46840533D01*
X159838365Y-46840533D02*
X159790746Y-46983390D01*
X159790746Y-46983390D02*
X159219318Y-47554819D01*
X159219318Y-47554819D02*
X159838365Y-47554819D01*
X122283333Y-46359580D02*
X122235714Y-46407200D01*
X122235714Y-46407200D02*
X122092857Y-46454819D01*
X122092857Y-46454819D02*
X121997619Y-46454819D01*
X121997619Y-46454819D02*
X121854762Y-46407200D01*
X121854762Y-46407200D02*
X121759524Y-46311961D01*
X121759524Y-46311961D02*
X121711905Y-46216723D01*
X121711905Y-46216723D02*
X121664286Y-46026247D01*
X121664286Y-46026247D02*
X121664286Y-45883390D01*
X121664286Y-45883390D02*
X121711905Y-45692914D01*
X121711905Y-45692914D02*
X121759524Y-45597676D01*
X121759524Y-45597676D02*
X121854762Y-45502438D01*
X121854762Y-45502438D02*
X121997619Y-45454819D01*
X121997619Y-45454819D02*
X122092857Y-45454819D01*
X122092857Y-45454819D02*
X122235714Y-45502438D01*
X122235714Y-45502438D02*
X122283333Y-45550057D01*
X123140476Y-45788152D02*
X123140476Y-46454819D01*
X122902381Y-45407200D02*
X122664286Y-46121485D01*
X122664286Y-46121485D02*
X123283333Y-46121485D01*
X152333333Y-34859580D02*
X152285714Y-34907200D01*
X152285714Y-34907200D02*
X152142857Y-34954819D01*
X152142857Y-34954819D02*
X152047619Y-34954819D01*
X152047619Y-34954819D02*
X151904762Y-34907200D01*
X151904762Y-34907200D02*
X151809524Y-34811961D01*
X151809524Y-34811961D02*
X151761905Y-34716723D01*
X151761905Y-34716723D02*
X151714286Y-34526247D01*
X151714286Y-34526247D02*
X151714286Y-34383390D01*
X151714286Y-34383390D02*
X151761905Y-34192914D01*
X151761905Y-34192914D02*
X151809524Y-34097676D01*
X151809524Y-34097676D02*
X151904762Y-34002438D01*
X151904762Y-34002438D02*
X152047619Y-33954819D01*
X152047619Y-33954819D02*
X152142857Y-33954819D01*
X152142857Y-33954819D02*
X152285714Y-34002438D01*
X152285714Y-34002438D02*
X152333333Y-34050057D01*
X153190476Y-33954819D02*
X153000000Y-33954819D01*
X153000000Y-33954819D02*
X152904762Y-34002438D01*
X152904762Y-34002438D02*
X152857143Y-34050057D01*
X152857143Y-34050057D02*
X152761905Y-34192914D01*
X152761905Y-34192914D02*
X152714286Y-34383390D01*
X152714286Y-34383390D02*
X152714286Y-34764342D01*
X152714286Y-34764342D02*
X152761905Y-34859580D01*
X152761905Y-34859580D02*
X152809524Y-34907200D01*
X152809524Y-34907200D02*
X152904762Y-34954819D01*
X152904762Y-34954819D02*
X153095238Y-34954819D01*
X153095238Y-34954819D02*
X153190476Y-34907200D01*
X153190476Y-34907200D02*
X153238095Y-34859580D01*
X153238095Y-34859580D02*
X153285714Y-34764342D01*
X153285714Y-34764342D02*
X153285714Y-34526247D01*
X153285714Y-34526247D02*
X153238095Y-34431009D01*
X153238095Y-34431009D02*
X153190476Y-34383390D01*
X153190476Y-34383390D02*
X153095238Y-34335771D01*
X153095238Y-34335771D02*
X152904762Y-34335771D01*
X152904762Y-34335771D02*
X152809524Y-34383390D01*
X152809524Y-34383390D02*
X152761905Y-34431009D01*
X152761905Y-34431009D02*
X152714286Y-34526247D01*
X128759580Y-51726666D02*
X128807200Y-51774285D01*
X128807200Y-51774285D02*
X128854819Y-51917142D01*
X128854819Y-51917142D02*
X128854819Y-52012380D01*
X128854819Y-52012380D02*
X128807200Y-52155237D01*
X128807200Y-52155237D02*
X128711961Y-52250475D01*
X128711961Y-52250475D02*
X128616723Y-52298094D01*
X128616723Y-52298094D02*
X128426247Y-52345713D01*
X128426247Y-52345713D02*
X128283390Y-52345713D01*
X128283390Y-52345713D02*
X128092914Y-52298094D01*
X128092914Y-52298094D02*
X127997676Y-52250475D01*
X127997676Y-52250475D02*
X127902438Y-52155237D01*
X127902438Y-52155237D02*
X127854819Y-52012380D01*
X127854819Y-52012380D02*
X127854819Y-51917142D01*
X127854819Y-51917142D02*
X127902438Y-51774285D01*
X127902438Y-51774285D02*
X127950057Y-51726666D01*
X127854819Y-51393332D02*
X127854819Y-50774285D01*
X127854819Y-50774285D02*
X128235771Y-51107618D01*
X128235771Y-51107618D02*
X128235771Y-50964761D01*
X128235771Y-50964761D02*
X128283390Y-50869523D01*
X128283390Y-50869523D02*
X128331009Y-50821904D01*
X128331009Y-50821904D02*
X128426247Y-50774285D01*
X128426247Y-50774285D02*
X128664342Y-50774285D01*
X128664342Y-50774285D02*
X128759580Y-50821904D01*
X128759580Y-50821904D02*
X128807200Y-50869523D01*
X128807200Y-50869523D02*
X128854819Y-50964761D01*
X128854819Y-50964761D02*
X128854819Y-51250475D01*
X128854819Y-51250475D02*
X128807200Y-51345713D01*
X128807200Y-51345713D02*
X128759580Y-51393332D01*
X122911905Y-35654819D02*
X122911905Y-34654819D01*
X122911905Y-34654819D02*
X123150000Y-34654819D01*
X123150000Y-34654819D02*
X123292857Y-34702438D01*
X123292857Y-34702438D02*
X123388095Y-34797676D01*
X123388095Y-34797676D02*
X123435714Y-34892914D01*
X123435714Y-34892914D02*
X123483333Y-35083390D01*
X123483333Y-35083390D02*
X123483333Y-35226247D01*
X123483333Y-35226247D02*
X123435714Y-35416723D01*
X123435714Y-35416723D02*
X123388095Y-35511961D01*
X123388095Y-35511961D02*
X123292857Y-35607200D01*
X123292857Y-35607200D02*
X123150000Y-35654819D01*
X123150000Y-35654819D02*
X122911905Y-35654819D01*
X124435714Y-35654819D02*
X123864286Y-35654819D01*
X124150000Y-35654819D02*
X124150000Y-34654819D01*
X124150000Y-34654819D02*
X124054762Y-34797676D01*
X124054762Y-34797676D02*
X123959524Y-34892914D01*
X123959524Y-34892914D02*
X123864286Y-34940533D01*
X85833333Y-38454819D02*
X85500000Y-37978628D01*
X85261905Y-38454819D02*
X85261905Y-37454819D01*
X85261905Y-37454819D02*
X85642857Y-37454819D01*
X85642857Y-37454819D02*
X85738095Y-37502438D01*
X85738095Y-37502438D02*
X85785714Y-37550057D01*
X85785714Y-37550057D02*
X85833333Y-37645295D01*
X85833333Y-37645295D02*
X85833333Y-37788152D01*
X85833333Y-37788152D02*
X85785714Y-37883390D01*
X85785714Y-37883390D02*
X85738095Y-37931009D01*
X85738095Y-37931009D02*
X85642857Y-37978628D01*
X85642857Y-37978628D02*
X85261905Y-37978628D01*
X86214286Y-37550057D02*
X86261905Y-37502438D01*
X86261905Y-37502438D02*
X86357143Y-37454819D01*
X86357143Y-37454819D02*
X86595238Y-37454819D01*
X86595238Y-37454819D02*
X86690476Y-37502438D01*
X86690476Y-37502438D02*
X86738095Y-37550057D01*
X86738095Y-37550057D02*
X86785714Y-37645295D01*
X86785714Y-37645295D02*
X86785714Y-37740533D01*
X86785714Y-37740533D02*
X86738095Y-37883390D01*
X86738095Y-37883390D02*
X86166667Y-38454819D01*
X86166667Y-38454819D02*
X86785714Y-38454819D01*
X133904819Y-51916666D02*
X133428628Y-52249999D01*
X133904819Y-52488094D02*
X132904819Y-52488094D01*
X132904819Y-52488094D02*
X132904819Y-52107142D01*
X132904819Y-52107142D02*
X132952438Y-52011904D01*
X132952438Y-52011904D02*
X133000057Y-51964285D01*
X133000057Y-51964285D02*
X133095295Y-51916666D01*
X133095295Y-51916666D02*
X133238152Y-51916666D01*
X133238152Y-51916666D02*
X133333390Y-51964285D01*
X133333390Y-51964285D02*
X133381009Y-52011904D01*
X133381009Y-52011904D02*
X133428628Y-52107142D01*
X133428628Y-52107142D02*
X133428628Y-52488094D01*
X133904819Y-50964285D02*
X133904819Y-51535713D01*
X133904819Y-51249999D02*
X132904819Y-51249999D01*
X132904819Y-51249999D02*
X133047676Y-51345237D01*
X133047676Y-51345237D02*
X133142914Y-51440475D01*
X133142914Y-51440475D02*
X133190533Y-51535713D01*
X150790000Y-60874819D02*
X150790000Y-59874819D01*
X151266190Y-60874819D02*
X151266190Y-59874819D01*
X151266190Y-59874819D02*
X151837618Y-60874819D01*
X151837618Y-60874819D02*
X151837618Y-59874819D01*
X152837618Y-60874819D02*
X152266190Y-60874819D01*
X152551904Y-60874819D02*
X152551904Y-59874819D01*
X152551904Y-59874819D02*
X152456666Y-60017676D01*
X152456666Y-60017676D02*
X152361428Y-60112914D01*
X152361428Y-60112914D02*
X152266190Y-60160533D01*
X98873809Y-77654819D02*
X99064285Y-77654819D01*
X99064285Y-77654819D02*
X99159523Y-77702438D01*
X99159523Y-77702438D02*
X99254761Y-77797676D01*
X99254761Y-77797676D02*
X99302380Y-77988152D01*
X99302380Y-77988152D02*
X99302380Y-78321485D01*
X99302380Y-78321485D02*
X99254761Y-78511961D01*
X99254761Y-78511961D02*
X99159523Y-78607200D01*
X99159523Y-78607200D02*
X99064285Y-78654819D01*
X99064285Y-78654819D02*
X98873809Y-78654819D01*
X98873809Y-78654819D02*
X98778571Y-78607200D01*
X98778571Y-78607200D02*
X98683333Y-78511961D01*
X98683333Y-78511961D02*
X98635714Y-78321485D01*
X98635714Y-78321485D02*
X98635714Y-77988152D01*
X98635714Y-77988152D02*
X98683333Y-77797676D01*
X98683333Y-77797676D02*
X98778571Y-77702438D01*
X98778571Y-77702438D02*
X98873809Y-77654819D01*
X99730952Y-77654819D02*
X99730952Y-78464342D01*
X99730952Y-78464342D02*
X99778571Y-78559580D01*
X99778571Y-78559580D02*
X99826190Y-78607200D01*
X99826190Y-78607200D02*
X99921428Y-78654819D01*
X99921428Y-78654819D02*
X100111904Y-78654819D01*
X100111904Y-78654819D02*
X100207142Y-78607200D01*
X100207142Y-78607200D02*
X100254761Y-78559580D01*
X100254761Y-78559580D02*
X100302380Y-78464342D01*
X100302380Y-78464342D02*
X100302380Y-77654819D01*
X100635714Y-77654819D02*
X101207142Y-77654819D01*
X100921428Y-78654819D02*
X100921428Y-77654819D01*
X102064285Y-78654819D02*
X101492857Y-78654819D01*
X101778571Y-78654819D02*
X101778571Y-77654819D01*
X101778571Y-77654819D02*
X101683333Y-77797676D01*
X101683333Y-77797676D02*
X101588095Y-77892914D01*
X101588095Y-77892914D02*
X101492857Y-77940533D01*
X111238095Y-97804819D02*
X111238095Y-96804819D01*
X111238095Y-97281009D02*
X111809523Y-97281009D01*
X111809523Y-97804819D02*
X111809523Y-96804819D01*
X112714285Y-97138152D02*
X112714285Y-97804819D01*
X112476190Y-96757200D02*
X112238095Y-97471485D01*
X112238095Y-97471485D02*
X112857142Y-97471485D01*
X97733333Y-94909580D02*
X97685714Y-94957200D01*
X97685714Y-94957200D02*
X97542857Y-95004819D01*
X97542857Y-95004819D02*
X97447619Y-95004819D01*
X97447619Y-95004819D02*
X97304762Y-94957200D01*
X97304762Y-94957200D02*
X97209524Y-94861961D01*
X97209524Y-94861961D02*
X97161905Y-94766723D01*
X97161905Y-94766723D02*
X97114286Y-94576247D01*
X97114286Y-94576247D02*
X97114286Y-94433390D01*
X97114286Y-94433390D02*
X97161905Y-94242914D01*
X97161905Y-94242914D02*
X97209524Y-94147676D01*
X97209524Y-94147676D02*
X97304762Y-94052438D01*
X97304762Y-94052438D02*
X97447619Y-94004819D01*
X97447619Y-94004819D02*
X97542857Y-94004819D01*
X97542857Y-94004819D02*
X97685714Y-94052438D01*
X97685714Y-94052438D02*
X97733333Y-94100057D01*
X98685714Y-95004819D02*
X98114286Y-95004819D01*
X98400000Y-95004819D02*
X98400000Y-94004819D01*
X98400000Y-94004819D02*
X98304762Y-94147676D01*
X98304762Y-94147676D02*
X98209524Y-94242914D01*
X98209524Y-94242914D02*
X98114286Y-94290533D01*
X85504761Y-100654819D02*
X85171428Y-100178628D01*
X84933333Y-100654819D02*
X84933333Y-99654819D01*
X84933333Y-99654819D02*
X85314285Y-99654819D01*
X85314285Y-99654819D02*
X85409523Y-99702438D01*
X85409523Y-99702438D02*
X85457142Y-99750057D01*
X85457142Y-99750057D02*
X85504761Y-99845295D01*
X85504761Y-99845295D02*
X85504761Y-99988152D01*
X85504761Y-99988152D02*
X85457142Y-100083390D01*
X85457142Y-100083390D02*
X85409523Y-100131009D01*
X85409523Y-100131009D02*
X85314285Y-100178628D01*
X85314285Y-100178628D02*
X84933333Y-100178628D01*
X85790476Y-99654819D02*
X86123809Y-100654819D01*
X86123809Y-100654819D02*
X86457142Y-99654819D01*
X87314285Y-100654819D02*
X86742857Y-100654819D01*
X87028571Y-100654819D02*
X87028571Y-99654819D01*
X87028571Y-99654819D02*
X86933333Y-99797676D01*
X86933333Y-99797676D02*
X86838095Y-99892914D01*
X86838095Y-99892914D02*
X86742857Y-99940533D01*
X87183333Y-85859580D02*
X87135714Y-85907200D01*
X87135714Y-85907200D02*
X86992857Y-85954819D01*
X86992857Y-85954819D02*
X86897619Y-85954819D01*
X86897619Y-85954819D02*
X86754762Y-85907200D01*
X86754762Y-85907200D02*
X86659524Y-85811961D01*
X86659524Y-85811961D02*
X86611905Y-85716723D01*
X86611905Y-85716723D02*
X86564286Y-85526247D01*
X86564286Y-85526247D02*
X86564286Y-85383390D01*
X86564286Y-85383390D02*
X86611905Y-85192914D01*
X86611905Y-85192914D02*
X86659524Y-85097676D01*
X86659524Y-85097676D02*
X86754762Y-85002438D01*
X86754762Y-85002438D02*
X86897619Y-84954819D01*
X86897619Y-84954819D02*
X86992857Y-84954819D01*
X86992857Y-84954819D02*
X87135714Y-85002438D01*
X87135714Y-85002438D02*
X87183333Y-85050057D01*
X88088095Y-84954819D02*
X87611905Y-84954819D01*
X87611905Y-84954819D02*
X87564286Y-85431009D01*
X87564286Y-85431009D02*
X87611905Y-85383390D01*
X87611905Y-85383390D02*
X87707143Y-85335771D01*
X87707143Y-85335771D02*
X87945238Y-85335771D01*
X87945238Y-85335771D02*
X88040476Y-85383390D01*
X88040476Y-85383390D02*
X88088095Y-85431009D01*
X88088095Y-85431009D02*
X88135714Y-85526247D01*
X88135714Y-85526247D02*
X88135714Y-85764342D01*
X88135714Y-85764342D02*
X88088095Y-85859580D01*
X88088095Y-85859580D02*
X88040476Y-85907200D01*
X88040476Y-85907200D02*
X87945238Y-85954819D01*
X87945238Y-85954819D02*
X87707143Y-85954819D01*
X87707143Y-85954819D02*
X87611905Y-85907200D01*
X87611905Y-85907200D02*
X87564286Y-85859580D01*
X97454819Y-87011904D02*
X98264342Y-87011904D01*
X98264342Y-87011904D02*
X98359580Y-86964285D01*
X98359580Y-86964285D02*
X98407200Y-86916666D01*
X98407200Y-86916666D02*
X98454819Y-86821428D01*
X98454819Y-86821428D02*
X98454819Y-86630952D01*
X98454819Y-86630952D02*
X98407200Y-86535714D01*
X98407200Y-86535714D02*
X98359580Y-86488095D01*
X98359580Y-86488095D02*
X98264342Y-86440476D01*
X98264342Y-86440476D02*
X97454819Y-86440476D01*
X98454819Y-85440476D02*
X98454819Y-86011904D01*
X98454819Y-85726190D02*
X97454819Y-85726190D01*
X97454819Y-85726190D02*
X97597676Y-85821428D01*
X97597676Y-85821428D02*
X97692914Y-85916666D01*
X97692914Y-85916666D02*
X97740533Y-86011904D01*
X73590476Y-104054819D02*
X73923809Y-105054819D01*
X73923809Y-105054819D02*
X74257142Y-104054819D01*
X75161904Y-104959580D02*
X75114285Y-105007200D01*
X75114285Y-105007200D02*
X74971428Y-105054819D01*
X74971428Y-105054819D02*
X74876190Y-105054819D01*
X74876190Y-105054819D02*
X74733333Y-105007200D01*
X74733333Y-105007200D02*
X74638095Y-104911961D01*
X74638095Y-104911961D02*
X74590476Y-104816723D01*
X74590476Y-104816723D02*
X74542857Y-104626247D01*
X74542857Y-104626247D02*
X74542857Y-104483390D01*
X74542857Y-104483390D02*
X74590476Y-104292914D01*
X74590476Y-104292914D02*
X74638095Y-104197676D01*
X74638095Y-104197676D02*
X74733333Y-104102438D01*
X74733333Y-104102438D02*
X74876190Y-104054819D01*
X74876190Y-104054819D02*
X74971428Y-104054819D01*
X74971428Y-104054819D02*
X75114285Y-104102438D01*
X75114285Y-104102438D02*
X75161904Y-104150057D01*
X76161904Y-104959580D02*
X76114285Y-105007200D01*
X76114285Y-105007200D02*
X75971428Y-105054819D01*
X75971428Y-105054819D02*
X75876190Y-105054819D01*
X75876190Y-105054819D02*
X75733333Y-105007200D01*
X75733333Y-105007200D02*
X75638095Y-104911961D01*
X75638095Y-104911961D02*
X75590476Y-104816723D01*
X75590476Y-104816723D02*
X75542857Y-104626247D01*
X75542857Y-104626247D02*
X75542857Y-104483390D01*
X75542857Y-104483390D02*
X75590476Y-104292914D01*
X75590476Y-104292914D02*
X75638095Y-104197676D01*
X75638095Y-104197676D02*
X75733333Y-104102438D01*
X75733333Y-104102438D02*
X75876190Y-104054819D01*
X75876190Y-104054819D02*
X75971428Y-104054819D01*
X75971428Y-104054819D02*
X76114285Y-104102438D01*
X76114285Y-104102438D02*
X76161904Y-104150057D01*
X77114285Y-105054819D02*
X76542857Y-105054819D01*
X76828571Y-105054819D02*
X76828571Y-104054819D01*
X76828571Y-104054819D02*
X76733333Y-104197676D01*
X76733333Y-104197676D02*
X76638095Y-104292914D01*
X76638095Y-104292914D02*
X76542857Y-104340533D01*
X87904819Y-93916666D02*
X87428628Y-94249999D01*
X87904819Y-94488094D02*
X86904819Y-94488094D01*
X86904819Y-94488094D02*
X86904819Y-94107142D01*
X86904819Y-94107142D02*
X86952438Y-94011904D01*
X86952438Y-94011904D02*
X87000057Y-93964285D01*
X87000057Y-93964285D02*
X87095295Y-93916666D01*
X87095295Y-93916666D02*
X87238152Y-93916666D01*
X87238152Y-93916666D02*
X87333390Y-93964285D01*
X87333390Y-93964285D02*
X87381009Y-94011904D01*
X87381009Y-94011904D02*
X87428628Y-94107142D01*
X87428628Y-94107142D02*
X87428628Y-94488094D01*
X87904819Y-92964285D02*
X87904819Y-93535713D01*
X87904819Y-93249999D02*
X86904819Y-93249999D01*
X86904819Y-93249999D02*
X87047676Y-93345237D01*
X87047676Y-93345237D02*
X87142914Y-93440475D01*
X87142914Y-93440475D02*
X87190533Y-93535713D01*
X76911905Y-77654819D02*
X76911905Y-76654819D01*
X76911905Y-76654819D02*
X77150000Y-76654819D01*
X77150000Y-76654819D02*
X77292857Y-76702438D01*
X77292857Y-76702438D02*
X77388095Y-76797676D01*
X77388095Y-76797676D02*
X77435714Y-76892914D01*
X77435714Y-76892914D02*
X77483333Y-77083390D01*
X77483333Y-77083390D02*
X77483333Y-77226247D01*
X77483333Y-77226247D02*
X77435714Y-77416723D01*
X77435714Y-77416723D02*
X77388095Y-77511961D01*
X77388095Y-77511961D02*
X77292857Y-77607200D01*
X77292857Y-77607200D02*
X77150000Y-77654819D01*
X77150000Y-77654819D02*
X76911905Y-77654819D01*
X78435714Y-77654819D02*
X77864286Y-77654819D01*
X78150000Y-77654819D02*
X78150000Y-76654819D01*
X78150000Y-76654819D02*
X78054762Y-76797676D01*
X78054762Y-76797676D02*
X77959524Y-76892914D01*
X77959524Y-76892914D02*
X77864286Y-76940533D01*
X112885984Y-89459580D02*
X112838365Y-89507200D01*
X112838365Y-89507200D02*
X112695508Y-89554819D01*
X112695508Y-89554819D02*
X112600270Y-89554819D01*
X112600270Y-89554819D02*
X112457413Y-89507200D01*
X112457413Y-89507200D02*
X112362175Y-89411961D01*
X112362175Y-89411961D02*
X112314556Y-89316723D01*
X112314556Y-89316723D02*
X112266937Y-89126247D01*
X112266937Y-89126247D02*
X112266937Y-88983390D01*
X112266937Y-88983390D02*
X112314556Y-88792914D01*
X112314556Y-88792914D02*
X112362175Y-88697676D01*
X112362175Y-88697676D02*
X112457413Y-88602438D01*
X112457413Y-88602438D02*
X112600270Y-88554819D01*
X112600270Y-88554819D02*
X112695508Y-88554819D01*
X112695508Y-88554819D02*
X112838365Y-88602438D01*
X112838365Y-88602438D02*
X112885984Y-88650057D01*
X113266937Y-88650057D02*
X113314556Y-88602438D01*
X113314556Y-88602438D02*
X113409794Y-88554819D01*
X113409794Y-88554819D02*
X113647889Y-88554819D01*
X113647889Y-88554819D02*
X113743127Y-88602438D01*
X113743127Y-88602438D02*
X113790746Y-88650057D01*
X113790746Y-88650057D02*
X113838365Y-88745295D01*
X113838365Y-88745295D02*
X113838365Y-88840533D01*
X113838365Y-88840533D02*
X113790746Y-88983390D01*
X113790746Y-88983390D02*
X113219318Y-89554819D01*
X113219318Y-89554819D02*
X113838365Y-89554819D01*
X131833333Y-38454819D02*
X131500000Y-37978628D01*
X131261905Y-38454819D02*
X131261905Y-37454819D01*
X131261905Y-37454819D02*
X131642857Y-37454819D01*
X131642857Y-37454819D02*
X131738095Y-37502438D01*
X131738095Y-37502438D02*
X131785714Y-37550057D01*
X131785714Y-37550057D02*
X131833333Y-37645295D01*
X131833333Y-37645295D02*
X131833333Y-37788152D01*
X131833333Y-37788152D02*
X131785714Y-37883390D01*
X131785714Y-37883390D02*
X131738095Y-37931009D01*
X131738095Y-37931009D02*
X131642857Y-37978628D01*
X131642857Y-37978628D02*
X131261905Y-37978628D01*
X132214286Y-37550057D02*
X132261905Y-37502438D01*
X132261905Y-37502438D02*
X132357143Y-37454819D01*
X132357143Y-37454819D02*
X132595238Y-37454819D01*
X132595238Y-37454819D02*
X132690476Y-37502438D01*
X132690476Y-37502438D02*
X132738095Y-37550057D01*
X132738095Y-37550057D02*
X132785714Y-37645295D01*
X132785714Y-37645295D02*
X132785714Y-37740533D01*
X132785714Y-37740533D02*
X132738095Y-37883390D01*
X132738095Y-37883390D02*
X132166667Y-38454819D01*
X132166667Y-38454819D02*
X132785714Y-38454819D01*
X104790000Y-102874819D02*
X104790000Y-101874819D01*
X105266190Y-102874819D02*
X105266190Y-101874819D01*
X105266190Y-101874819D02*
X105837618Y-102874819D01*
X105837618Y-102874819D02*
X105837618Y-101874819D01*
X106837618Y-102874819D02*
X106266190Y-102874819D01*
X106551904Y-102874819D02*
X106551904Y-101874819D01*
X106551904Y-101874819D02*
X106456666Y-102017676D01*
X106456666Y-102017676D02*
X106361428Y-102112914D01*
X106361428Y-102112914D02*
X106266190Y-102160533D01*
X82759580Y-93726666D02*
X82807200Y-93774285D01*
X82807200Y-93774285D02*
X82854819Y-93917142D01*
X82854819Y-93917142D02*
X82854819Y-94012380D01*
X82854819Y-94012380D02*
X82807200Y-94155237D01*
X82807200Y-94155237D02*
X82711961Y-94250475D01*
X82711961Y-94250475D02*
X82616723Y-94298094D01*
X82616723Y-94298094D02*
X82426247Y-94345713D01*
X82426247Y-94345713D02*
X82283390Y-94345713D01*
X82283390Y-94345713D02*
X82092914Y-94298094D01*
X82092914Y-94298094D02*
X81997676Y-94250475D01*
X81997676Y-94250475D02*
X81902438Y-94155237D01*
X81902438Y-94155237D02*
X81854819Y-94012380D01*
X81854819Y-94012380D02*
X81854819Y-93917142D01*
X81854819Y-93917142D02*
X81902438Y-93774285D01*
X81902438Y-93774285D02*
X81950057Y-93726666D01*
X81854819Y-93393332D02*
X81854819Y-92774285D01*
X81854819Y-92774285D02*
X82235771Y-93107618D01*
X82235771Y-93107618D02*
X82235771Y-92964761D01*
X82235771Y-92964761D02*
X82283390Y-92869523D01*
X82283390Y-92869523D02*
X82331009Y-92821904D01*
X82331009Y-92821904D02*
X82426247Y-92774285D01*
X82426247Y-92774285D02*
X82664342Y-92774285D01*
X82664342Y-92774285D02*
X82759580Y-92821904D01*
X82759580Y-92821904D02*
X82807200Y-92869523D01*
X82807200Y-92869523D02*
X82854819Y-92964761D01*
X82854819Y-92964761D02*
X82854819Y-93250475D01*
X82854819Y-93250475D02*
X82807200Y-93345713D01*
X82807200Y-93345713D02*
X82759580Y-93393332D01*
X76283333Y-88359580D02*
X76235714Y-88407200D01*
X76235714Y-88407200D02*
X76092857Y-88454819D01*
X76092857Y-88454819D02*
X75997619Y-88454819D01*
X75997619Y-88454819D02*
X75854762Y-88407200D01*
X75854762Y-88407200D02*
X75759524Y-88311961D01*
X75759524Y-88311961D02*
X75711905Y-88216723D01*
X75711905Y-88216723D02*
X75664286Y-88026247D01*
X75664286Y-88026247D02*
X75664286Y-87883390D01*
X75664286Y-87883390D02*
X75711905Y-87692914D01*
X75711905Y-87692914D02*
X75759524Y-87597676D01*
X75759524Y-87597676D02*
X75854762Y-87502438D01*
X75854762Y-87502438D02*
X75997619Y-87454819D01*
X75997619Y-87454819D02*
X76092857Y-87454819D01*
X76092857Y-87454819D02*
X76235714Y-87502438D01*
X76235714Y-87502438D02*
X76283333Y-87550057D01*
X77140476Y-87788152D02*
X77140476Y-88454819D01*
X76902381Y-87407200D02*
X76664286Y-88121485D01*
X76664286Y-88121485D02*
X77283333Y-88121485D01*
X106333333Y-76859580D02*
X106285714Y-76907200D01*
X106285714Y-76907200D02*
X106142857Y-76954819D01*
X106142857Y-76954819D02*
X106047619Y-76954819D01*
X106047619Y-76954819D02*
X105904762Y-76907200D01*
X105904762Y-76907200D02*
X105809524Y-76811961D01*
X105809524Y-76811961D02*
X105761905Y-76716723D01*
X105761905Y-76716723D02*
X105714286Y-76526247D01*
X105714286Y-76526247D02*
X105714286Y-76383390D01*
X105714286Y-76383390D02*
X105761905Y-76192914D01*
X105761905Y-76192914D02*
X105809524Y-76097676D01*
X105809524Y-76097676D02*
X105904762Y-76002438D01*
X105904762Y-76002438D02*
X106047619Y-75954819D01*
X106047619Y-75954819D02*
X106142857Y-75954819D01*
X106142857Y-75954819D02*
X106285714Y-76002438D01*
X106285714Y-76002438D02*
X106333333Y-76050057D01*
X107190476Y-75954819D02*
X107000000Y-75954819D01*
X107000000Y-75954819D02*
X106904762Y-76002438D01*
X106904762Y-76002438D02*
X106857143Y-76050057D01*
X106857143Y-76050057D02*
X106761905Y-76192914D01*
X106761905Y-76192914D02*
X106714286Y-76383390D01*
X106714286Y-76383390D02*
X106714286Y-76764342D01*
X106714286Y-76764342D02*
X106761905Y-76859580D01*
X106761905Y-76859580D02*
X106809524Y-76907200D01*
X106809524Y-76907200D02*
X106904762Y-76954819D01*
X106904762Y-76954819D02*
X107095238Y-76954819D01*
X107095238Y-76954819D02*
X107190476Y-76907200D01*
X107190476Y-76907200D02*
X107238095Y-76859580D01*
X107238095Y-76859580D02*
X107285714Y-76764342D01*
X107285714Y-76764342D02*
X107285714Y-76526247D01*
X107285714Y-76526247D02*
X107238095Y-76431009D01*
X107238095Y-76431009D02*
X107190476Y-76383390D01*
X107190476Y-76383390D02*
X107095238Y-76335771D01*
X107095238Y-76335771D02*
X106904762Y-76335771D01*
X106904762Y-76335771D02*
X106809524Y-76383390D01*
X106809524Y-76383390D02*
X106761905Y-76431009D01*
X106761905Y-76431009D02*
X106714286Y-76526247D01*
X144873809Y-35654819D02*
X145064285Y-35654819D01*
X145064285Y-35654819D02*
X145159523Y-35702438D01*
X145159523Y-35702438D02*
X145254761Y-35797676D01*
X145254761Y-35797676D02*
X145302380Y-35988152D01*
X145302380Y-35988152D02*
X145302380Y-36321485D01*
X145302380Y-36321485D02*
X145254761Y-36511961D01*
X145254761Y-36511961D02*
X145159523Y-36607200D01*
X145159523Y-36607200D02*
X145064285Y-36654819D01*
X145064285Y-36654819D02*
X144873809Y-36654819D01*
X144873809Y-36654819D02*
X144778571Y-36607200D01*
X144778571Y-36607200D02*
X144683333Y-36511961D01*
X144683333Y-36511961D02*
X144635714Y-36321485D01*
X144635714Y-36321485D02*
X144635714Y-35988152D01*
X144635714Y-35988152D02*
X144683333Y-35797676D01*
X144683333Y-35797676D02*
X144778571Y-35702438D01*
X144778571Y-35702438D02*
X144873809Y-35654819D01*
X145730952Y-35654819D02*
X145730952Y-36464342D01*
X145730952Y-36464342D02*
X145778571Y-36559580D01*
X145778571Y-36559580D02*
X145826190Y-36607200D01*
X145826190Y-36607200D02*
X145921428Y-36654819D01*
X145921428Y-36654819D02*
X146111904Y-36654819D01*
X146111904Y-36654819D02*
X146207142Y-36607200D01*
X146207142Y-36607200D02*
X146254761Y-36559580D01*
X146254761Y-36559580D02*
X146302380Y-36464342D01*
X146302380Y-36464342D02*
X146302380Y-35654819D01*
X146635714Y-35654819D02*
X147207142Y-35654819D01*
X146921428Y-36654819D02*
X146921428Y-35654819D01*
X148064285Y-36654819D02*
X147492857Y-36654819D01*
X147778571Y-36654819D02*
X147778571Y-35654819D01*
X147778571Y-35654819D02*
X147683333Y-35797676D01*
X147683333Y-35797676D02*
X147588095Y-35892914D01*
X147588095Y-35892914D02*
X147492857Y-35940533D01*
X143454819Y-45011904D02*
X144264342Y-45011904D01*
X144264342Y-45011904D02*
X144359580Y-44964285D01*
X144359580Y-44964285D02*
X144407200Y-44916666D01*
X144407200Y-44916666D02*
X144454819Y-44821428D01*
X144454819Y-44821428D02*
X144454819Y-44630952D01*
X144454819Y-44630952D02*
X144407200Y-44535714D01*
X144407200Y-44535714D02*
X144359580Y-44488095D01*
X144359580Y-44488095D02*
X144264342Y-44440476D01*
X144264342Y-44440476D02*
X143454819Y-44440476D01*
X144454819Y-43440476D02*
X144454819Y-44011904D01*
X144454819Y-43726190D02*
X143454819Y-43726190D01*
X143454819Y-43726190D02*
X143597676Y-43821428D01*
X143597676Y-43821428D02*
X143692914Y-43916666D01*
X143692914Y-43916666D02*
X143740533Y-44011904D01*
X119590476Y-62054819D02*
X119923809Y-63054819D01*
X119923809Y-63054819D02*
X120257142Y-62054819D01*
X121161904Y-62959580D02*
X121114285Y-63007200D01*
X121114285Y-63007200D02*
X120971428Y-63054819D01*
X120971428Y-63054819D02*
X120876190Y-63054819D01*
X120876190Y-63054819D02*
X120733333Y-63007200D01*
X120733333Y-63007200D02*
X120638095Y-62911961D01*
X120638095Y-62911961D02*
X120590476Y-62816723D01*
X120590476Y-62816723D02*
X120542857Y-62626247D01*
X120542857Y-62626247D02*
X120542857Y-62483390D01*
X120542857Y-62483390D02*
X120590476Y-62292914D01*
X120590476Y-62292914D02*
X120638095Y-62197676D01*
X120638095Y-62197676D02*
X120733333Y-62102438D01*
X120733333Y-62102438D02*
X120876190Y-62054819D01*
X120876190Y-62054819D02*
X120971428Y-62054819D01*
X120971428Y-62054819D02*
X121114285Y-62102438D01*
X121114285Y-62102438D02*
X121161904Y-62150057D01*
X122161904Y-62959580D02*
X122114285Y-63007200D01*
X122114285Y-63007200D02*
X121971428Y-63054819D01*
X121971428Y-63054819D02*
X121876190Y-63054819D01*
X121876190Y-63054819D02*
X121733333Y-63007200D01*
X121733333Y-63007200D02*
X121638095Y-62911961D01*
X121638095Y-62911961D02*
X121590476Y-62816723D01*
X121590476Y-62816723D02*
X121542857Y-62626247D01*
X121542857Y-62626247D02*
X121542857Y-62483390D01*
X121542857Y-62483390D02*
X121590476Y-62292914D01*
X121590476Y-62292914D02*
X121638095Y-62197676D01*
X121638095Y-62197676D02*
X121733333Y-62102438D01*
X121733333Y-62102438D02*
X121876190Y-62054819D01*
X121876190Y-62054819D02*
X121971428Y-62054819D01*
X121971428Y-62054819D02*
X122114285Y-62102438D01*
X122114285Y-62102438D02*
X122161904Y-62150057D01*
X123114285Y-63054819D02*
X122542857Y-63054819D01*
X122828571Y-63054819D02*
X122828571Y-62054819D01*
X122828571Y-62054819D02*
X122733333Y-62197676D01*
X122733333Y-62197676D02*
X122638095Y-62292914D01*
X122638095Y-62292914D02*
X122542857Y-62340533D01*
X131504761Y-58654819D02*
X131171428Y-58178628D01*
X130933333Y-58654819D02*
X130933333Y-57654819D01*
X130933333Y-57654819D02*
X131314285Y-57654819D01*
X131314285Y-57654819D02*
X131409523Y-57702438D01*
X131409523Y-57702438D02*
X131457142Y-57750057D01*
X131457142Y-57750057D02*
X131504761Y-57845295D01*
X131504761Y-57845295D02*
X131504761Y-57988152D01*
X131504761Y-57988152D02*
X131457142Y-58083390D01*
X131457142Y-58083390D02*
X131409523Y-58131009D01*
X131409523Y-58131009D02*
X131314285Y-58178628D01*
X131314285Y-58178628D02*
X130933333Y-58178628D01*
X131790476Y-57654819D02*
X132123809Y-58654819D01*
X132123809Y-58654819D02*
X132457142Y-57654819D01*
X133314285Y-58654819D02*
X132742857Y-58654819D01*
X133028571Y-58654819D02*
X133028571Y-57654819D01*
X133028571Y-57654819D02*
X132933333Y-57797676D01*
X132933333Y-57797676D02*
X132838095Y-57892914D01*
X132838095Y-57892914D02*
X132742857Y-57940533D01*
X143733333Y-52909580D02*
X143685714Y-52957200D01*
X143685714Y-52957200D02*
X143542857Y-53004819D01*
X143542857Y-53004819D02*
X143447619Y-53004819D01*
X143447619Y-53004819D02*
X143304762Y-52957200D01*
X143304762Y-52957200D02*
X143209524Y-52861961D01*
X143209524Y-52861961D02*
X143161905Y-52766723D01*
X143161905Y-52766723D02*
X143114286Y-52576247D01*
X143114286Y-52576247D02*
X143114286Y-52433390D01*
X143114286Y-52433390D02*
X143161905Y-52242914D01*
X143161905Y-52242914D02*
X143209524Y-52147676D01*
X143209524Y-52147676D02*
X143304762Y-52052438D01*
X143304762Y-52052438D02*
X143447619Y-52004819D01*
X143447619Y-52004819D02*
X143542857Y-52004819D01*
X143542857Y-52004819D02*
X143685714Y-52052438D01*
X143685714Y-52052438D02*
X143733333Y-52100057D01*
X144685714Y-53004819D02*
X144114286Y-53004819D01*
X144400000Y-53004819D02*
X144400000Y-52004819D01*
X144400000Y-52004819D02*
X144304762Y-52147676D01*
X144304762Y-52147676D02*
X144209524Y-52242914D01*
X144209524Y-52242914D02*
X144114286Y-52290533D01*
X133183333Y-43859580D02*
X133135714Y-43907200D01*
X133135714Y-43907200D02*
X132992857Y-43954819D01*
X132992857Y-43954819D02*
X132897619Y-43954819D01*
X132897619Y-43954819D02*
X132754762Y-43907200D01*
X132754762Y-43907200D02*
X132659524Y-43811961D01*
X132659524Y-43811961D02*
X132611905Y-43716723D01*
X132611905Y-43716723D02*
X132564286Y-43526247D01*
X132564286Y-43526247D02*
X132564286Y-43383390D01*
X132564286Y-43383390D02*
X132611905Y-43192914D01*
X132611905Y-43192914D02*
X132659524Y-43097676D01*
X132659524Y-43097676D02*
X132754762Y-43002438D01*
X132754762Y-43002438D02*
X132897619Y-42954819D01*
X132897619Y-42954819D02*
X132992857Y-42954819D01*
X132992857Y-42954819D02*
X133135714Y-43002438D01*
X133135714Y-43002438D02*
X133183333Y-43050057D01*
X134088095Y-42954819D02*
X133611905Y-42954819D01*
X133611905Y-42954819D02*
X133564286Y-43431009D01*
X133564286Y-43431009D02*
X133611905Y-43383390D01*
X133611905Y-43383390D02*
X133707143Y-43335771D01*
X133707143Y-43335771D02*
X133945238Y-43335771D01*
X133945238Y-43335771D02*
X134040476Y-43383390D01*
X134040476Y-43383390D02*
X134088095Y-43431009D01*
X134088095Y-43431009D02*
X134135714Y-43526247D01*
X134135714Y-43526247D02*
X134135714Y-43764342D01*
X134135714Y-43764342D02*
X134088095Y-43859580D01*
X134088095Y-43859580D02*
X134040476Y-43907200D01*
X134040476Y-43907200D02*
X133945238Y-43954819D01*
X133945238Y-43954819D02*
X133707143Y-43954819D01*
X133707143Y-43954819D02*
X133611905Y-43907200D01*
X133611905Y-43907200D02*
X133564286Y-43859580D01*
X157238095Y-97804819D02*
X157238095Y-96804819D01*
X157238095Y-97281009D02*
X157809523Y-97281009D01*
X157809523Y-97804819D02*
X157809523Y-96804819D01*
X158714285Y-97138152D02*
X158714285Y-97804819D01*
X158476190Y-96757200D02*
X158238095Y-97471485D01*
X158238095Y-97471485D02*
X158857142Y-97471485D01*
X144873809Y-77654819D02*
X145064285Y-77654819D01*
X145064285Y-77654819D02*
X145159523Y-77702438D01*
X145159523Y-77702438D02*
X145254761Y-77797676D01*
X145254761Y-77797676D02*
X145302380Y-77988152D01*
X145302380Y-77988152D02*
X145302380Y-78321485D01*
X145302380Y-78321485D02*
X145254761Y-78511961D01*
X145254761Y-78511961D02*
X145159523Y-78607200D01*
X145159523Y-78607200D02*
X145064285Y-78654819D01*
X145064285Y-78654819D02*
X144873809Y-78654819D01*
X144873809Y-78654819D02*
X144778571Y-78607200D01*
X144778571Y-78607200D02*
X144683333Y-78511961D01*
X144683333Y-78511961D02*
X144635714Y-78321485D01*
X144635714Y-78321485D02*
X144635714Y-77988152D01*
X144635714Y-77988152D02*
X144683333Y-77797676D01*
X144683333Y-77797676D02*
X144778571Y-77702438D01*
X144778571Y-77702438D02*
X144873809Y-77654819D01*
X145730952Y-77654819D02*
X145730952Y-78464342D01*
X145730952Y-78464342D02*
X145778571Y-78559580D01*
X145778571Y-78559580D02*
X145826190Y-78607200D01*
X145826190Y-78607200D02*
X145921428Y-78654819D01*
X145921428Y-78654819D02*
X146111904Y-78654819D01*
X146111904Y-78654819D02*
X146207142Y-78607200D01*
X146207142Y-78607200D02*
X146254761Y-78559580D01*
X146254761Y-78559580D02*
X146302380Y-78464342D01*
X146302380Y-78464342D02*
X146302380Y-77654819D01*
X146635714Y-77654819D02*
X147207142Y-77654819D01*
X146921428Y-78654819D02*
X146921428Y-77654819D01*
X148064285Y-78654819D02*
X147492857Y-78654819D01*
X147778571Y-78654819D02*
X147778571Y-77654819D01*
X147778571Y-77654819D02*
X147683333Y-77797676D01*
X147683333Y-77797676D02*
X147588095Y-77892914D01*
X147588095Y-77892914D02*
X147492857Y-77940533D01*
X143733333Y-94909580D02*
X143685714Y-94957200D01*
X143685714Y-94957200D02*
X143542857Y-95004819D01*
X143542857Y-95004819D02*
X143447619Y-95004819D01*
X143447619Y-95004819D02*
X143304762Y-94957200D01*
X143304762Y-94957200D02*
X143209524Y-94861961D01*
X143209524Y-94861961D02*
X143161905Y-94766723D01*
X143161905Y-94766723D02*
X143114286Y-94576247D01*
X143114286Y-94576247D02*
X143114286Y-94433390D01*
X143114286Y-94433390D02*
X143161905Y-94242914D01*
X143161905Y-94242914D02*
X143209524Y-94147676D01*
X143209524Y-94147676D02*
X143304762Y-94052438D01*
X143304762Y-94052438D02*
X143447619Y-94004819D01*
X143447619Y-94004819D02*
X143542857Y-94004819D01*
X143542857Y-94004819D02*
X143685714Y-94052438D01*
X143685714Y-94052438D02*
X143733333Y-94100057D01*
X144685714Y-95004819D02*
X144114286Y-95004819D01*
X144400000Y-95004819D02*
X144400000Y-94004819D01*
X144400000Y-94004819D02*
X144304762Y-94147676D01*
X144304762Y-94147676D02*
X144209524Y-94242914D01*
X144209524Y-94242914D02*
X144114286Y-94290533D01*
X133183333Y-85859580D02*
X133135714Y-85907200D01*
X133135714Y-85907200D02*
X132992857Y-85954819D01*
X132992857Y-85954819D02*
X132897619Y-85954819D01*
X132897619Y-85954819D02*
X132754762Y-85907200D01*
X132754762Y-85907200D02*
X132659524Y-85811961D01*
X132659524Y-85811961D02*
X132611905Y-85716723D01*
X132611905Y-85716723D02*
X132564286Y-85526247D01*
X132564286Y-85526247D02*
X132564286Y-85383390D01*
X132564286Y-85383390D02*
X132611905Y-85192914D01*
X132611905Y-85192914D02*
X132659524Y-85097676D01*
X132659524Y-85097676D02*
X132754762Y-85002438D01*
X132754762Y-85002438D02*
X132897619Y-84954819D01*
X132897619Y-84954819D02*
X132992857Y-84954819D01*
X132992857Y-84954819D02*
X133135714Y-85002438D01*
X133135714Y-85002438D02*
X133183333Y-85050057D01*
X134088095Y-84954819D02*
X133611905Y-84954819D01*
X133611905Y-84954819D02*
X133564286Y-85431009D01*
X133564286Y-85431009D02*
X133611905Y-85383390D01*
X133611905Y-85383390D02*
X133707143Y-85335771D01*
X133707143Y-85335771D02*
X133945238Y-85335771D01*
X133945238Y-85335771D02*
X134040476Y-85383390D01*
X134040476Y-85383390D02*
X134088095Y-85431009D01*
X134088095Y-85431009D02*
X134135714Y-85526247D01*
X134135714Y-85526247D02*
X134135714Y-85764342D01*
X134135714Y-85764342D02*
X134088095Y-85859580D01*
X134088095Y-85859580D02*
X134040476Y-85907200D01*
X134040476Y-85907200D02*
X133945238Y-85954819D01*
X133945238Y-85954819D02*
X133707143Y-85954819D01*
X133707143Y-85954819D02*
X133611905Y-85907200D01*
X133611905Y-85907200D02*
X133564286Y-85859580D01*
X143454819Y-87011904D02*
X144264342Y-87011904D01*
X144264342Y-87011904D02*
X144359580Y-86964285D01*
X144359580Y-86964285D02*
X144407200Y-86916666D01*
X144407200Y-86916666D02*
X144454819Y-86821428D01*
X144454819Y-86821428D02*
X144454819Y-86630952D01*
X144454819Y-86630952D02*
X144407200Y-86535714D01*
X144407200Y-86535714D02*
X144359580Y-86488095D01*
X144359580Y-86488095D02*
X144264342Y-86440476D01*
X144264342Y-86440476D02*
X143454819Y-86440476D01*
X144454819Y-85440476D02*
X144454819Y-86011904D01*
X144454819Y-85726190D02*
X143454819Y-85726190D01*
X143454819Y-85726190D02*
X143597676Y-85821428D01*
X143597676Y-85821428D02*
X143692914Y-85916666D01*
X143692914Y-85916666D02*
X143740533Y-86011904D01*
X119590476Y-104054819D02*
X119923809Y-105054819D01*
X119923809Y-105054819D02*
X120257142Y-104054819D01*
X121161904Y-104959580D02*
X121114285Y-105007200D01*
X121114285Y-105007200D02*
X120971428Y-105054819D01*
X120971428Y-105054819D02*
X120876190Y-105054819D01*
X120876190Y-105054819D02*
X120733333Y-105007200D01*
X120733333Y-105007200D02*
X120638095Y-104911961D01*
X120638095Y-104911961D02*
X120590476Y-104816723D01*
X120590476Y-104816723D02*
X120542857Y-104626247D01*
X120542857Y-104626247D02*
X120542857Y-104483390D01*
X120542857Y-104483390D02*
X120590476Y-104292914D01*
X120590476Y-104292914D02*
X120638095Y-104197676D01*
X120638095Y-104197676D02*
X120733333Y-104102438D01*
X120733333Y-104102438D02*
X120876190Y-104054819D01*
X120876190Y-104054819D02*
X120971428Y-104054819D01*
X120971428Y-104054819D02*
X121114285Y-104102438D01*
X121114285Y-104102438D02*
X121161904Y-104150057D01*
X122161904Y-104959580D02*
X122114285Y-105007200D01*
X122114285Y-105007200D02*
X121971428Y-105054819D01*
X121971428Y-105054819D02*
X121876190Y-105054819D01*
X121876190Y-105054819D02*
X121733333Y-105007200D01*
X121733333Y-105007200D02*
X121638095Y-104911961D01*
X121638095Y-104911961D02*
X121590476Y-104816723D01*
X121590476Y-104816723D02*
X121542857Y-104626247D01*
X121542857Y-104626247D02*
X121542857Y-104483390D01*
X121542857Y-104483390D02*
X121590476Y-104292914D01*
X121590476Y-104292914D02*
X121638095Y-104197676D01*
X121638095Y-104197676D02*
X121733333Y-104102438D01*
X121733333Y-104102438D02*
X121876190Y-104054819D01*
X121876190Y-104054819D02*
X121971428Y-104054819D01*
X121971428Y-104054819D02*
X122114285Y-104102438D01*
X122114285Y-104102438D02*
X122161904Y-104150057D01*
X123114285Y-105054819D02*
X122542857Y-105054819D01*
X122828571Y-105054819D02*
X122828571Y-104054819D01*
X122828571Y-104054819D02*
X122733333Y-104197676D01*
X122733333Y-104197676D02*
X122638095Y-104292914D01*
X122638095Y-104292914D02*
X122542857Y-104340533D01*
X131833333Y-80454819D02*
X131500000Y-79978628D01*
X131261905Y-80454819D02*
X131261905Y-79454819D01*
X131261905Y-79454819D02*
X131642857Y-79454819D01*
X131642857Y-79454819D02*
X131738095Y-79502438D01*
X131738095Y-79502438D02*
X131785714Y-79550057D01*
X131785714Y-79550057D02*
X131833333Y-79645295D01*
X131833333Y-79645295D02*
X131833333Y-79788152D01*
X131833333Y-79788152D02*
X131785714Y-79883390D01*
X131785714Y-79883390D02*
X131738095Y-79931009D01*
X131738095Y-79931009D02*
X131642857Y-79978628D01*
X131642857Y-79978628D02*
X131261905Y-79978628D01*
X132214286Y-79550057D02*
X132261905Y-79502438D01*
X132261905Y-79502438D02*
X132357143Y-79454819D01*
X132357143Y-79454819D02*
X132595238Y-79454819D01*
X132595238Y-79454819D02*
X132690476Y-79502438D01*
X132690476Y-79502438D02*
X132738095Y-79550057D01*
X132738095Y-79550057D02*
X132785714Y-79645295D01*
X132785714Y-79645295D02*
X132785714Y-79740533D01*
X132785714Y-79740533D02*
X132738095Y-79883390D01*
X132738095Y-79883390D02*
X132166667Y-80454819D01*
X132166667Y-80454819D02*
X132785714Y-80454819D01*
X85833333Y-80454819D02*
X85500000Y-79978628D01*
X85261905Y-80454819D02*
X85261905Y-79454819D01*
X85261905Y-79454819D02*
X85642857Y-79454819D01*
X85642857Y-79454819D02*
X85738095Y-79502438D01*
X85738095Y-79502438D02*
X85785714Y-79550057D01*
X85785714Y-79550057D02*
X85833333Y-79645295D01*
X85833333Y-79645295D02*
X85833333Y-79788152D01*
X85833333Y-79788152D02*
X85785714Y-79883390D01*
X85785714Y-79883390D02*
X85738095Y-79931009D01*
X85738095Y-79931009D02*
X85642857Y-79978628D01*
X85642857Y-79978628D02*
X85261905Y-79978628D01*
X86214286Y-79550057D02*
X86261905Y-79502438D01*
X86261905Y-79502438D02*
X86357143Y-79454819D01*
X86357143Y-79454819D02*
X86595238Y-79454819D01*
X86595238Y-79454819D02*
X86690476Y-79502438D01*
X86690476Y-79502438D02*
X86738095Y-79550057D01*
X86738095Y-79550057D02*
X86785714Y-79645295D01*
X86785714Y-79645295D02*
X86785714Y-79740533D01*
X86785714Y-79740533D02*
X86738095Y-79883390D01*
X86738095Y-79883390D02*
X86166667Y-80454819D01*
X86166667Y-80454819D02*
X86785714Y-80454819D01*
D13*
%TO.C,IN1*%
X149420000Y-103690000D02*
X149420000Y-110040000D01*
X159580000Y-103690000D02*
X149420000Y-103690000D01*
X159580000Y-110000000D02*
X159580000Y-103690000D01*
X159580000Y-110040000D02*
X149420000Y-110040000D01*
%TO.C,R1*%
X134330000Y-90480000D02*
X134660000Y-90480000D01*
X134330000Y-97020000D02*
X134330000Y-90480000D01*
X134660000Y-97020000D02*
X134330000Y-97020000D01*
X136740000Y-97020000D02*
X137070000Y-97020000D01*
X137070000Y-90480000D02*
X136740000Y-90480000D01*
X137070000Y-97020000D02*
X137070000Y-90480000D01*
%TO.C,C3*%
X129330000Y-90440000D02*
X129865000Y-90440000D01*
X129330000Y-96680000D02*
X129330000Y-90440000D01*
X129865000Y-96680000D02*
X129330000Y-96680000D01*
X131535000Y-90440000D02*
X132070000Y-90440000D01*
X132070000Y-90440000D02*
X132070000Y-96680000D01*
X132070000Y-96680000D02*
X131535000Y-96680000D01*
%TO.C,D1*%
X120170000Y-79455000D02*
X120170000Y-82545000D01*
X120170000Y-79455170D02*
G75*
G02*
X125720000Y-81000000I2560000J-1544830D01*
G01*
X125720000Y-81000000D02*
G75*
G02*
X120170000Y-82544830I-2990000J0D01*
G01*
X125230000Y-81000000D02*
G75*
G02*
X120230000Y-81000000I-2500000J0D01*
G01*
X120230000Y-81000000D02*
G75*
G02*
X125230000Y-81000000I2500000J0D01*
G01*
%TO.C,VCC1*%
X72880000Y-61690000D02*
X72880000Y-68040000D01*
X83040000Y-61690000D02*
X72880000Y-61690000D01*
X83040000Y-68040000D02*
X72880000Y-68040000D01*
X83040000Y-68040000D02*
X83040000Y-61690000D01*
%TO.C,RV1*%
X84890000Y-59140000D02*
X101110000Y-59140000D01*
X84890000Y-66860000D02*
X84890000Y-59140000D01*
X89390000Y-66860000D02*
X96610000Y-66860000D01*
X101110000Y-59140000D02*
X101110000Y-66860000D01*
X101110000Y-66860000D02*
X84890000Y-66860000D01*
%TO.C,OUT1*%
X92570000Y-28960000D02*
X92570000Y-35310000D01*
X92570000Y-28960000D02*
X102730000Y-28960000D01*
X92570000Y-35310000D02*
X102730000Y-35310000D01*
X102730000Y-35310000D02*
X102730000Y-28960000D01*
%TO.C,C5*%
X84380000Y-39630000D02*
X90620000Y-39630000D01*
X84380000Y-40165000D02*
X84380000Y-39630000D01*
X84380000Y-42370000D02*
X84380000Y-41835000D01*
X90620000Y-39630000D02*
X90620000Y-40165000D01*
X90620000Y-41835000D02*
X90620000Y-42370000D01*
X90620000Y-42370000D02*
X84380000Y-42370000D01*
%TO.C,U1*%
X95750000Y-38920000D02*
X95750000Y-49200000D01*
X95750000Y-49200000D02*
X100250000Y-49200000D01*
X97000000Y-38920000D02*
X95750000Y-38920000D01*
X100250000Y-38920000D02*
X99000000Y-38920000D01*
X100250000Y-49200000D02*
X100250000Y-38920000D01*
X99000000Y-38920000D02*
G75*
G02*
X97000000Y-38920000I-1000000J0D01*
G01*
%TO.C,C1*%
X94280000Y-53380000D02*
X101720000Y-53380000D01*
X94280000Y-57120000D02*
X94280000Y-53380000D01*
X101720000Y-53380000D02*
X101720000Y-57120000D01*
X101720000Y-57120000D02*
X94280000Y-57120000D01*
%TO.C,C2*%
X151240302Y-90785000D02*
X152040302Y-90785000D01*
X151640302Y-90385000D02*
X151640302Y-91185000D01*
X155650000Y-89020000D02*
X155650000Y-97180000D01*
X155690000Y-89020000D02*
X155690000Y-97180000D01*
X155730000Y-89021000D02*
X155730000Y-97179000D01*
X155770000Y-89022000D02*
X155770000Y-97178000D01*
X155810000Y-89023000D02*
X155810000Y-97177000D01*
X155850000Y-89025000D02*
X155850000Y-97175000D01*
X155890000Y-89027000D02*
X155890000Y-97173000D01*
X155930000Y-89030000D02*
X155930000Y-97170000D01*
X155970000Y-89032000D02*
X155970000Y-97168000D01*
X156010000Y-89036000D02*
X156010000Y-97164000D01*
X156050000Y-89039000D02*
X156050000Y-97161000D01*
X156090000Y-89044000D02*
X156090000Y-97156000D01*
X156130000Y-89048000D02*
X156130000Y-97152000D01*
X156170000Y-89053000D02*
X156170000Y-97147000D01*
X156210000Y-89058000D02*
X156210000Y-97142000D01*
X156250000Y-89064000D02*
X156250000Y-97136000D01*
X156290000Y-89070000D02*
X156290000Y-97130000D01*
X156330000Y-89077000D02*
X156330000Y-97123000D01*
X156370000Y-89083000D02*
X156370000Y-97117000D01*
X156410000Y-89091000D02*
X156410000Y-97109000D01*
X156450000Y-89098000D02*
X156450000Y-97102000D01*
X156490000Y-89107000D02*
X156490000Y-97093000D01*
X156530000Y-89115000D02*
X156530000Y-92060000D01*
X156530000Y-94140000D02*
X156530000Y-97085000D01*
X156570000Y-89124000D02*
X156570000Y-92060000D01*
X156570000Y-94140000D02*
X156570000Y-97076000D01*
X156610000Y-89133000D02*
X156610000Y-92060000D01*
X156610000Y-94140000D02*
X156610000Y-97067000D01*
X156650000Y-89143000D02*
X156650000Y-92060000D01*
X156650000Y-94140000D02*
X156650000Y-97057000D01*
X156690000Y-89153000D02*
X156690000Y-92060000D01*
X156690000Y-94140000D02*
X156690000Y-97047000D01*
X156730000Y-89164000D02*
X156730000Y-92060000D01*
X156730000Y-94140000D02*
X156730000Y-97036000D01*
X156770000Y-89175000D02*
X156770000Y-92060000D01*
X156770000Y-94140000D02*
X156770000Y-97025000D01*
X156810000Y-89187000D02*
X156810000Y-92060000D01*
X156810000Y-94140000D02*
X156810000Y-97013000D01*
X156850000Y-89199000D02*
X156850000Y-92060000D01*
X156850000Y-94140000D02*
X156850000Y-97001000D01*
X156890000Y-89211000D02*
X156890000Y-92060000D01*
X156890000Y-94140000D02*
X156890000Y-96989000D01*
X156930000Y-89224000D02*
X156930000Y-92060000D01*
X156930000Y-94140000D02*
X156930000Y-96976000D01*
X156970000Y-89237000D02*
X156970000Y-92060000D01*
X156970000Y-94140000D02*
X156970000Y-96963000D01*
X157010000Y-89251000D02*
X157010000Y-92060000D01*
X157010000Y-94140000D02*
X157010000Y-96949000D01*
X157050000Y-89265000D02*
X157050000Y-92060000D01*
X157050000Y-94140000D02*
X157050000Y-96935000D01*
X157090000Y-89280000D02*
X157090000Y-92060000D01*
X157090000Y-94140000D02*
X157090000Y-96920000D01*
X157130000Y-89295000D02*
X157130000Y-92060000D01*
X157130000Y-94140000D02*
X157130000Y-96905000D01*
X157170000Y-89311000D02*
X157170000Y-92060000D01*
X157170000Y-94140000D02*
X157170000Y-96889000D01*
X157210000Y-89327000D02*
X157210000Y-92060000D01*
X157210000Y-94140000D02*
X157210000Y-96873000D01*
X157250000Y-89343000D02*
X157250000Y-92060000D01*
X157250000Y-94140000D02*
X157250000Y-96857000D01*
X157290000Y-89360000D02*
X157290000Y-92060000D01*
X157290000Y-94140000D02*
X157290000Y-96840000D01*
X157330000Y-89378000D02*
X157330000Y-92060000D01*
X157330000Y-94140000D02*
X157330000Y-96822000D01*
X157370000Y-89396000D02*
X157370000Y-92060000D01*
X157370000Y-94140000D02*
X157370000Y-96804000D01*
X157410000Y-89415000D02*
X157410000Y-92060000D01*
X157410000Y-94140000D02*
X157410000Y-96785000D01*
X157450000Y-89434000D02*
X157450000Y-92060000D01*
X157450000Y-94140000D02*
X157450000Y-96766000D01*
X157490000Y-89454000D02*
X157490000Y-92060000D01*
X157490000Y-94140000D02*
X157490000Y-96746000D01*
X157530000Y-89474000D02*
X157530000Y-92060000D01*
X157530000Y-94140000D02*
X157530000Y-96726000D01*
X157570000Y-89495000D02*
X157570000Y-92060000D01*
X157570000Y-94140000D02*
X157570000Y-96705000D01*
X157610000Y-89516000D02*
X157610000Y-92060000D01*
X157610000Y-94140000D02*
X157610000Y-96684000D01*
X157650000Y-89538000D02*
X157650000Y-92060000D01*
X157650000Y-94140000D02*
X157650000Y-96662000D01*
X157690000Y-89561000D02*
X157690000Y-92060000D01*
X157690000Y-94140000D02*
X157690000Y-96639000D01*
X157730000Y-89584000D02*
X157730000Y-92060000D01*
X157730000Y-94140000D02*
X157730000Y-96616000D01*
X157770000Y-89607000D02*
X157770000Y-92060000D01*
X157770000Y-94140000D02*
X157770000Y-96593000D01*
X157810000Y-89632000D02*
X157810000Y-92060000D01*
X157810000Y-94140000D02*
X157810000Y-96568000D01*
X157850000Y-89657000D02*
X157850000Y-92060000D01*
X157850000Y-94140000D02*
X157850000Y-96543000D01*
X157890000Y-89682000D02*
X157890000Y-92060000D01*
X157890000Y-94140000D02*
X157890000Y-96518000D01*
X157930000Y-89708000D02*
X157930000Y-92060000D01*
X157930000Y-94140000D02*
X157930000Y-96492000D01*
X157970000Y-89735000D02*
X157970000Y-92060000D01*
X157970000Y-94140000D02*
X157970000Y-96465000D01*
X158010000Y-89763000D02*
X158010000Y-92060000D01*
X158010000Y-94140000D02*
X158010000Y-96437000D01*
X158050000Y-89791000D02*
X158050000Y-92060000D01*
X158050000Y-94140000D02*
X158050000Y-96409000D01*
X158090000Y-89820000D02*
X158090000Y-92060000D01*
X158090000Y-94140000D02*
X158090000Y-96380000D01*
X158130000Y-89850000D02*
X158130000Y-92060000D01*
X158130000Y-94140000D02*
X158130000Y-96350000D01*
X158170000Y-89881000D02*
X158170000Y-92060000D01*
X158170000Y-94140000D02*
X158170000Y-96319000D01*
X158210000Y-89912000D02*
X158210000Y-92060000D01*
X158210000Y-94140000D02*
X158210000Y-96288000D01*
X158250000Y-89944000D02*
X158250000Y-92060000D01*
X158250000Y-94140000D02*
X158250000Y-96256000D01*
X158290000Y-89977000D02*
X158290000Y-92060000D01*
X158290000Y-94140000D02*
X158290000Y-96223000D01*
X158330000Y-90011000D02*
X158330000Y-92060000D01*
X158330000Y-94140000D02*
X158330000Y-96189000D01*
X158370000Y-90045000D02*
X158370000Y-92060000D01*
X158370000Y-94140000D02*
X158370000Y-96155000D01*
X158410000Y-90081000D02*
X158410000Y-92060000D01*
X158410000Y-94140000D02*
X158410000Y-96119000D01*
X158450000Y-90118000D02*
X158450000Y-92060000D01*
X158450000Y-94140000D02*
X158450000Y-96082000D01*
X158490000Y-90155000D02*
X158490000Y-92060000D01*
X158490000Y-94140000D02*
X158490000Y-96045000D01*
X158530000Y-90194000D02*
X158530000Y-92060000D01*
X158530000Y-94140000D02*
X158530000Y-96006000D01*
X158570000Y-90233000D02*
X158570000Y-92060000D01*
X158570000Y-94140000D02*
X158570000Y-95967000D01*
X158610000Y-90274000D02*
X158610000Y-95926000D01*
X158650000Y-90316000D02*
X158650000Y-95884000D01*
X158690000Y-90359000D02*
X158690000Y-95841000D01*
X158730000Y-90404000D02*
X158730000Y-95796000D01*
X158770000Y-90449000D02*
X158770000Y-95751000D01*
X158810000Y-90496000D02*
X158810000Y-95704000D01*
X158850000Y-90545000D02*
X158850000Y-95655000D01*
X158890000Y-90595000D02*
X158890000Y-95605000D01*
X158930000Y-90647000D02*
X158930000Y-95553000D01*
X158970000Y-90700000D02*
X158970000Y-95500000D01*
X159010000Y-90756000D02*
X159010000Y-95444000D01*
X159050000Y-90813000D02*
X159050000Y-95387000D01*
X159090000Y-90873000D02*
X159090000Y-95327000D01*
X159130000Y-90935000D02*
X159130000Y-95265000D01*
X159170000Y-90999000D02*
X159170000Y-95201000D01*
X159210000Y-91066000D02*
X159210000Y-95134000D01*
X159250000Y-91136000D02*
X159250000Y-95064000D01*
X159290000Y-91210000D02*
X159290000Y-94990000D01*
X159330000Y-91287000D02*
X159330000Y-94913000D01*
X159370000Y-91369000D02*
X159370000Y-94831000D01*
X159410000Y-91456000D02*
X159410000Y-94744000D01*
X159450000Y-91548000D02*
X159450000Y-94652000D01*
X159490000Y-91647000D02*
X159490000Y-94553000D01*
X159530000Y-91754000D02*
X159530000Y-94446000D01*
X159570000Y-91872000D02*
X159570000Y-94328000D01*
X159610000Y-92003000D02*
X159610000Y-94197000D01*
X159650000Y-92153000D02*
X159650000Y-94047000D01*
X159690000Y-92332000D02*
X159690000Y-93868000D01*
X159730000Y-92567000D02*
X159730000Y-93633000D01*
X159770000Y-93100000D02*
G75*
G02*
X151530000Y-93100000I-4120000J0D01*
G01*
X151530000Y-93100000D02*
G75*
G02*
X159770000Y-93100000I4120000J0D01*
G01*
%TO.C,C4*%
X118520000Y-93433000D02*
X118520000Y-92367000D01*
X118560000Y-93668000D02*
X118560000Y-92132000D01*
X118600000Y-93847000D02*
X118600000Y-91953000D01*
X118640000Y-93997000D02*
X118640000Y-91803000D01*
X118680000Y-94128000D02*
X118680000Y-91672000D01*
X118720000Y-94246000D02*
X118720000Y-91554000D01*
X118760000Y-94353000D02*
X118760000Y-91447000D01*
X118800000Y-94452000D02*
X118800000Y-91348000D01*
X118840000Y-94544000D02*
X118840000Y-91256000D01*
X118880000Y-94631000D02*
X118880000Y-91169000D01*
X118920000Y-94713000D02*
X118920000Y-91087000D01*
X118960000Y-94790000D02*
X118960000Y-91010000D01*
X119000000Y-94864000D02*
X119000000Y-90936000D01*
X119040000Y-94934000D02*
X119040000Y-90866000D01*
X119080000Y-95001000D02*
X119080000Y-90799000D01*
X119120000Y-95065000D02*
X119120000Y-90735000D01*
X119160000Y-95127000D02*
X119160000Y-90673000D01*
X119200000Y-95187000D02*
X119200000Y-90613000D01*
X119240000Y-95244000D02*
X119240000Y-90556000D01*
X119280000Y-95300000D02*
X119280000Y-90500000D01*
X119320000Y-95353000D02*
X119320000Y-90447000D01*
X119360000Y-95405000D02*
X119360000Y-90395000D01*
X119400000Y-95455000D02*
X119400000Y-90345000D01*
X119440000Y-95504000D02*
X119440000Y-90296000D01*
X119480000Y-95551000D02*
X119480000Y-90249000D01*
X119520000Y-95596000D02*
X119520000Y-90204000D01*
X119560000Y-95641000D02*
X119560000Y-90159000D01*
X119600000Y-95684000D02*
X119600000Y-90116000D01*
X119640000Y-95726000D02*
X119640000Y-90074000D01*
X119680000Y-91860000D02*
X119680000Y-90033000D01*
X119680000Y-95767000D02*
X119680000Y-93940000D01*
X119720000Y-91860000D02*
X119720000Y-89994000D01*
X119720000Y-95806000D02*
X119720000Y-93940000D01*
X119760000Y-91860000D02*
X119760000Y-89955000D01*
X119760000Y-95845000D02*
X119760000Y-93940000D01*
X119800000Y-91860000D02*
X119800000Y-89918000D01*
X119800000Y-95882000D02*
X119800000Y-93940000D01*
X119840000Y-91860000D02*
X119840000Y-89881000D01*
X119840000Y-95919000D02*
X119840000Y-93940000D01*
X119880000Y-91860000D02*
X119880000Y-89845000D01*
X119880000Y-95955000D02*
X119880000Y-93940000D01*
X119920000Y-91860000D02*
X119920000Y-89811000D01*
X119920000Y-95989000D02*
X119920000Y-93940000D01*
X119960000Y-91860000D02*
X119960000Y-89777000D01*
X119960000Y-96023000D02*
X119960000Y-93940000D01*
X120000000Y-91860000D02*
X120000000Y-89744000D01*
X120000000Y-96056000D02*
X120000000Y-93940000D01*
X120040000Y-91860000D02*
X120040000Y-89712000D01*
X120040000Y-96088000D02*
X120040000Y-93940000D01*
X120080000Y-91860000D02*
X120080000Y-89681000D01*
X120080000Y-96119000D02*
X120080000Y-93940000D01*
X120120000Y-91860000D02*
X120120000Y-89650000D01*
X120120000Y-96150000D02*
X120120000Y-93940000D01*
X120160000Y-91860000D02*
X120160000Y-89620000D01*
X120160000Y-96180000D02*
X120160000Y-93940000D01*
X120200000Y-91860000D02*
X120200000Y-89591000D01*
X120200000Y-96209000D02*
X120200000Y-93940000D01*
X120240000Y-91860000D02*
X120240000Y-89563000D01*
X120240000Y-96237000D02*
X120240000Y-93940000D01*
X120280000Y-91860000D02*
X120280000Y-89535000D01*
X120280000Y-96265000D02*
X120280000Y-93940000D01*
X120320000Y-91860000D02*
X120320000Y-89508000D01*
X120320000Y-96292000D02*
X120320000Y-93940000D01*
X120360000Y-91860000D02*
X120360000Y-89482000D01*
X120360000Y-96318000D02*
X120360000Y-93940000D01*
X120400000Y-91860000D02*
X120400000Y-89457000D01*
X120400000Y-96343000D02*
X120400000Y-93940000D01*
X120440000Y-91860000D02*
X120440000Y-89432000D01*
X120440000Y-96368000D02*
X120440000Y-93940000D01*
X120480000Y-91860000D02*
X120480000Y-89407000D01*
X120480000Y-96393000D02*
X120480000Y-93940000D01*
X120520000Y-91860000D02*
X120520000Y-89384000D01*
X120520000Y-96416000D02*
X120520000Y-93940000D01*
X120560000Y-91860000D02*
X120560000Y-89361000D01*
X120560000Y-96439000D02*
X120560000Y-93940000D01*
X120600000Y-91860000D02*
X120600000Y-89338000D01*
X120600000Y-96462000D02*
X120600000Y-93940000D01*
X120640000Y-91860000D02*
X120640000Y-89316000D01*
X120640000Y-96484000D02*
X120640000Y-93940000D01*
X120680000Y-91860000D02*
X120680000Y-89295000D01*
X120680000Y-96505000D02*
X120680000Y-93940000D01*
X120720000Y-91860000D02*
X120720000Y-89274000D01*
X120720000Y-96526000D02*
X120720000Y-93940000D01*
X120760000Y-91860000D02*
X120760000Y-89254000D01*
X120760000Y-96546000D02*
X120760000Y-93940000D01*
X120800000Y-91860000D02*
X120800000Y-89234000D01*
X120800000Y-96566000D02*
X120800000Y-93940000D01*
X120840000Y-91860000D02*
X120840000Y-89215000D01*
X120840000Y-96585000D02*
X120840000Y-93940000D01*
X120880000Y-91860000D02*
X120880000Y-89196000D01*
X120880000Y-96604000D02*
X120880000Y-93940000D01*
X120920000Y-91860000D02*
X120920000Y-89178000D01*
X120920000Y-96622000D02*
X120920000Y-93940000D01*
X120960000Y-91860000D02*
X120960000Y-89160000D01*
X120960000Y-96640000D02*
X120960000Y-93940000D01*
X121000000Y-91860000D02*
X121000000Y-89143000D01*
X121000000Y-96657000D02*
X121000000Y-93940000D01*
X121040000Y-91860000D02*
X121040000Y-89127000D01*
X121040000Y-96673000D02*
X121040000Y-93940000D01*
X121080000Y-91860000D02*
X121080000Y-89111000D01*
X121080000Y-96689000D02*
X121080000Y-93940000D01*
X121120000Y-91860000D02*
X121120000Y-89095000D01*
X121120000Y-96705000D02*
X121120000Y-93940000D01*
X121160000Y-91860000D02*
X121160000Y-89080000D01*
X121160000Y-96720000D02*
X121160000Y-93940000D01*
X121200000Y-91860000D02*
X121200000Y-89065000D01*
X121200000Y-96735000D02*
X121200000Y-93940000D01*
X121240000Y-91860000D02*
X121240000Y-89051000D01*
X121240000Y-96749000D02*
X121240000Y-93940000D01*
X121280000Y-91860000D02*
X121280000Y-89037000D01*
X121280000Y-96763000D02*
X121280000Y-93940000D01*
X121320000Y-91860000D02*
X121320000Y-89024000D01*
X121320000Y-96776000D02*
X121320000Y-93940000D01*
X121360000Y-91860000D02*
X121360000Y-89011000D01*
X121360000Y-96789000D02*
X121360000Y-93940000D01*
X121400000Y-91860000D02*
X121400000Y-88999000D01*
X121400000Y-96801000D02*
X121400000Y-93940000D01*
X121440000Y-91860000D02*
X121440000Y-88987000D01*
X121440000Y-96813000D02*
X121440000Y-93940000D01*
X121480000Y-91860000D02*
X121480000Y-88975000D01*
X121480000Y-96825000D02*
X121480000Y-93940000D01*
X121520000Y-91860000D02*
X121520000Y-88964000D01*
X121520000Y-96836000D02*
X121520000Y-93940000D01*
X121560000Y-91860000D02*
X121560000Y-88953000D01*
X121560000Y-96847000D02*
X121560000Y-93940000D01*
X121600000Y-91860000D02*
X121600000Y-88943000D01*
X121600000Y-96857000D02*
X121600000Y-93940000D01*
X121640000Y-91860000D02*
X121640000Y-88933000D01*
X121640000Y-96867000D02*
X121640000Y-93940000D01*
X121680000Y-91860000D02*
X121680000Y-88924000D01*
X121680000Y-96876000D02*
X121680000Y-93940000D01*
X121720000Y-91860000D02*
X121720000Y-88915000D01*
X121720000Y-96885000D02*
X121720000Y-93940000D01*
X121760000Y-96893000D02*
X121760000Y-88907000D01*
X121800000Y-96902000D02*
X121800000Y-88898000D01*
X121840000Y-96909000D02*
X121840000Y-88891000D01*
X121880000Y-96917000D02*
X121880000Y-88883000D01*
X121920000Y-96923000D02*
X121920000Y-88877000D01*
X121960000Y-96930000D02*
X121960000Y-88870000D01*
X122000000Y-96936000D02*
X122000000Y-88864000D01*
X122040000Y-96942000D02*
X122040000Y-88858000D01*
X122080000Y-96947000D02*
X122080000Y-88853000D01*
X122120000Y-96952000D02*
X122120000Y-88848000D01*
X122160000Y-96956000D02*
X122160000Y-88844000D01*
X122200000Y-96961000D02*
X122200000Y-88839000D01*
X122240000Y-96964000D02*
X122240000Y-88836000D01*
X122280000Y-96968000D02*
X122280000Y-88832000D01*
X122320000Y-96970000D02*
X122320000Y-88830000D01*
X122360000Y-96973000D02*
X122360000Y-88827000D01*
X122400000Y-96975000D02*
X122400000Y-88825000D01*
X122440000Y-96977000D02*
X122440000Y-88823000D01*
X122480000Y-96978000D02*
X122480000Y-88822000D01*
X122520000Y-96979000D02*
X122520000Y-88821000D01*
X122560000Y-96980000D02*
X122560000Y-88820000D01*
X122600000Y-96980000D02*
X122600000Y-88820000D01*
X126609698Y-95615000D02*
X126609698Y-94815000D01*
X127009698Y-95215000D02*
X126209698Y-95215000D01*
X126720000Y-92900000D02*
G75*
G02*
X118480000Y-92900000I-4120000J0D01*
G01*
X118480000Y-92900000D02*
G75*
G02*
X126720000Y-92900000I4120000J0D01*
G01*
%TO.C,C6*%
X150152677Y-79125000D02*
X151152677Y-79125000D01*
X150652677Y-78625000D02*
X150652677Y-79625000D01*
X155632323Y-76920000D02*
X155632323Y-87080000D01*
X155672323Y-76920000D02*
X155672323Y-87080000D01*
X155712323Y-76921000D02*
X155712323Y-87079000D01*
X155752323Y-76921000D02*
X155752323Y-87079000D01*
X155792323Y-76923000D02*
X155792323Y-87077000D01*
X155832323Y-76924000D02*
X155832323Y-87076000D01*
X155872323Y-76926000D02*
X155872323Y-87074000D01*
X155912323Y-76928000D02*
X155912323Y-87072000D01*
X155952323Y-76930000D02*
X155952323Y-87070000D01*
X155992323Y-76933000D02*
X155992323Y-87067000D01*
X156032323Y-76936000D02*
X156032323Y-87064000D01*
X156072323Y-76939000D02*
X156072323Y-87061000D01*
X156112323Y-76943000D02*
X156112323Y-87057000D01*
X156152323Y-76946000D02*
X156152323Y-87054000D01*
X156192323Y-76951000D02*
X156192323Y-87049000D01*
X156232323Y-76955000D02*
X156232323Y-87045000D01*
X156272323Y-76960000D02*
X156272323Y-87040000D01*
X156312323Y-76965000D02*
X156312323Y-87035000D01*
X156352323Y-76971000D02*
X156352323Y-87029000D01*
X156392323Y-76977000D02*
X156392323Y-87023000D01*
X156432323Y-76983000D02*
X156432323Y-87017000D01*
X156472323Y-76989000D02*
X156472323Y-87011000D01*
X156512323Y-76996000D02*
X156512323Y-87004000D01*
X156552323Y-77003000D02*
X156552323Y-86997000D01*
X156592323Y-77011000D02*
X156592323Y-86989000D01*
X156632323Y-77019000D02*
X156632323Y-86981000D01*
X156672323Y-77027000D02*
X156672323Y-86973000D01*
X156712323Y-77035000D02*
X156712323Y-86965000D01*
X156752323Y-77044000D02*
X156752323Y-86956000D01*
X156792323Y-77053000D02*
X156792323Y-86947000D01*
X156832323Y-77063000D02*
X156832323Y-86937000D01*
X156872323Y-77072000D02*
X156872323Y-86928000D01*
X156912323Y-77083000D02*
X156912323Y-80760000D01*
X156912323Y-83240000D02*
X156912323Y-86917000D01*
X156952323Y-77093000D02*
X156952323Y-80760000D01*
X156952323Y-83240000D02*
X156952323Y-86907000D01*
X156992323Y-77104000D02*
X156992323Y-80760000D01*
X156992323Y-83240000D02*
X156992323Y-86896000D01*
X157032323Y-77115000D02*
X157032323Y-80760000D01*
X157032323Y-83240000D02*
X157032323Y-86885000D01*
X157072323Y-77127000D02*
X157072323Y-80760000D01*
X157072323Y-83240000D02*
X157072323Y-86873000D01*
X157112323Y-77139000D02*
X157112323Y-80760000D01*
X157112323Y-83240000D02*
X157112323Y-86861000D01*
X157152323Y-77151000D02*
X157152323Y-80760000D01*
X157152323Y-83240000D02*
X157152323Y-86849000D01*
X157192323Y-77163000D02*
X157192323Y-80760000D01*
X157192323Y-83240000D02*
X157192323Y-86837000D01*
X157232323Y-77176000D02*
X157232323Y-80760000D01*
X157232323Y-83240000D02*
X157232323Y-86824000D01*
X157272323Y-77190000D02*
X157272323Y-80760000D01*
X157272323Y-83240000D02*
X157272323Y-86810000D01*
X157312323Y-77203000D02*
X157312323Y-80760000D01*
X157312323Y-83240000D02*
X157312323Y-86797000D01*
X157352323Y-77218000D02*
X157352323Y-80760000D01*
X157352323Y-83240000D02*
X157352323Y-86782000D01*
X157392323Y-77232000D02*
X157392323Y-80760000D01*
X157392323Y-83240000D02*
X157392323Y-86768000D01*
X157432323Y-77247000D02*
X157432323Y-80760000D01*
X157432323Y-83240000D02*
X157432323Y-86753000D01*
X157472323Y-77262000D02*
X157472323Y-80760000D01*
X157472323Y-83240000D02*
X157472323Y-86738000D01*
X157512323Y-77278000D02*
X157512323Y-80760000D01*
X157512323Y-83240000D02*
X157512323Y-86722000D01*
X157552323Y-77294000D02*
X157552323Y-80760000D01*
X157552323Y-83240000D02*
X157552323Y-86706000D01*
X157592323Y-77310000D02*
X157592323Y-80760000D01*
X157592323Y-83240000D02*
X157592323Y-86690000D01*
X157632323Y-77327000D02*
X157632323Y-80760000D01*
X157632323Y-83240000D02*
X157632323Y-86673000D01*
X157672323Y-77344000D02*
X157672323Y-80760000D01*
X157672323Y-83240000D02*
X157672323Y-86656000D01*
X157712323Y-77362000D02*
X157712323Y-80760000D01*
X157712323Y-83240000D02*
X157712323Y-86638000D01*
X157752323Y-77380000D02*
X157752323Y-80760000D01*
X157752323Y-83240000D02*
X157752323Y-86620000D01*
X157792323Y-77398000D02*
X157792323Y-80760000D01*
X157792323Y-83240000D02*
X157792323Y-86602000D01*
X157832323Y-77417000D02*
X157832323Y-80760000D01*
X157832323Y-83240000D02*
X157832323Y-86583000D01*
X157872323Y-77436000D02*
X157872323Y-80760000D01*
X157872323Y-83240000D02*
X157872323Y-86564000D01*
X157912323Y-77456000D02*
X157912323Y-80760000D01*
X157912323Y-83240000D02*
X157912323Y-86544000D01*
X157952323Y-77476000D02*
X157952323Y-80760000D01*
X157952323Y-83240000D02*
X157952323Y-86524000D01*
X157992323Y-77496000D02*
X157992323Y-80760000D01*
X157992323Y-83240000D02*
X157992323Y-86504000D01*
X158032323Y-77517000D02*
X158032323Y-80760000D01*
X158032323Y-83240000D02*
X158032323Y-86483000D01*
X158072323Y-77539000D02*
X158072323Y-80760000D01*
X158072323Y-83240000D02*
X158072323Y-86461000D01*
X158112323Y-77561000D02*
X158112323Y-80760000D01*
X158112323Y-83240000D02*
X158112323Y-86439000D01*
X158152323Y-77583000D02*
X158152323Y-80760000D01*
X158152323Y-83240000D02*
X158152323Y-86417000D01*
X158192323Y-77606000D02*
X158192323Y-80760000D01*
X158192323Y-83240000D02*
X158192323Y-86394000D01*
X158232323Y-77629000D02*
X158232323Y-80760000D01*
X158232323Y-83240000D02*
X158232323Y-86371000D01*
X158272323Y-77653000D02*
X158272323Y-80760000D01*
X158272323Y-83240000D02*
X158272323Y-86347000D01*
X158312323Y-77677000D02*
X158312323Y-80760000D01*
X158312323Y-83240000D02*
X158312323Y-86323000D01*
X158352323Y-77702000D02*
X158352323Y-80760000D01*
X158352323Y-83240000D02*
X158352323Y-86298000D01*
X158392323Y-77728000D02*
X158392323Y-80760000D01*
X158392323Y-83240000D02*
X158392323Y-86272000D01*
X158432323Y-77753000D02*
X158432323Y-80760000D01*
X158432323Y-83240000D02*
X158432323Y-86247000D01*
X158472323Y-77780000D02*
X158472323Y-80760000D01*
X158472323Y-83240000D02*
X158472323Y-86220000D01*
X158512323Y-77807000D02*
X158512323Y-80760000D01*
X158512323Y-83240000D02*
X158512323Y-86193000D01*
X158552323Y-77834000D02*
X158552323Y-80760000D01*
X158552323Y-83240000D02*
X158552323Y-86166000D01*
X158592323Y-77862000D02*
X158592323Y-80760000D01*
X158592323Y-83240000D02*
X158592323Y-86138000D01*
X158632323Y-77891000D02*
X158632323Y-80760000D01*
X158632323Y-83240000D02*
X158632323Y-86109000D01*
X158672323Y-77920000D02*
X158672323Y-80760000D01*
X158672323Y-83240000D02*
X158672323Y-86080000D01*
X158712323Y-77950000D02*
X158712323Y-80760000D01*
X158712323Y-83240000D02*
X158712323Y-86050000D01*
X158752323Y-77980000D02*
X158752323Y-80760000D01*
X158752323Y-83240000D02*
X158752323Y-86020000D01*
X158792323Y-78012000D02*
X158792323Y-80760000D01*
X158792323Y-83240000D02*
X158792323Y-85988000D01*
X158832323Y-78043000D02*
X158832323Y-80760000D01*
X158832323Y-83240000D02*
X158832323Y-85957000D01*
X158872323Y-78076000D02*
X158872323Y-80760000D01*
X158872323Y-83240000D02*
X158872323Y-85924000D01*
X158912323Y-78109000D02*
X158912323Y-80760000D01*
X158912323Y-83240000D02*
X158912323Y-85891000D01*
X158952323Y-78142000D02*
X158952323Y-80760000D01*
X158952323Y-83240000D02*
X158952323Y-85858000D01*
X158992323Y-78177000D02*
X158992323Y-80760000D01*
X158992323Y-83240000D02*
X158992323Y-85823000D01*
X159032323Y-78212000D02*
X159032323Y-80760000D01*
X159032323Y-83240000D02*
X159032323Y-85788000D01*
X159072323Y-78248000D02*
X159072323Y-80760000D01*
X159072323Y-83240000D02*
X159072323Y-85752000D01*
X159112323Y-78284000D02*
X159112323Y-80760000D01*
X159112323Y-83240000D02*
X159112323Y-85716000D01*
X159152323Y-78322000D02*
X159152323Y-80760000D01*
X159152323Y-83240000D02*
X159152323Y-85678000D01*
X159192323Y-78360000D02*
X159192323Y-80760000D01*
X159192323Y-83240000D02*
X159192323Y-85640000D01*
X159232323Y-78399000D02*
X159232323Y-80760000D01*
X159232323Y-83240000D02*
X159232323Y-85601000D01*
X159272323Y-78439000D02*
X159272323Y-80760000D01*
X159272323Y-83240000D02*
X159272323Y-85561000D01*
X159312323Y-78480000D02*
X159312323Y-80760000D01*
X159312323Y-83240000D02*
X159312323Y-85520000D01*
X159352323Y-78522000D02*
X159352323Y-80760000D01*
X159352323Y-83240000D02*
X159352323Y-85478000D01*
X159392323Y-78565000D02*
X159392323Y-85435000D01*
X159432323Y-78609000D02*
X159432323Y-85391000D01*
X159472323Y-78653000D02*
X159472323Y-85347000D01*
X159512323Y-78699000D02*
X159512323Y-85301000D01*
X159552323Y-78746000D02*
X159552323Y-85254000D01*
X159592323Y-78795000D02*
X159592323Y-85205000D01*
X159632323Y-78844000D02*
X159632323Y-85156000D01*
X159672323Y-78895000D02*
X159672323Y-85105000D01*
X159712323Y-78947000D02*
X159712323Y-85053000D01*
X159752323Y-79000000D02*
X159752323Y-85000000D01*
X159792323Y-79055000D02*
X159792323Y-84945000D01*
X159832323Y-79112000D02*
X159832323Y-84888000D01*
X159872323Y-79170000D02*
X159872323Y-84830000D01*
X159912323Y-79230000D02*
X159912323Y-84770000D01*
X159952323Y-79292000D02*
X159952323Y-84708000D01*
X159992323Y-79356000D02*
X159992323Y-84644000D01*
X160032323Y-79422000D02*
X160032323Y-84578000D01*
X160072323Y-79490000D02*
X160072323Y-84510000D01*
X160112323Y-79561000D02*
X160112323Y-84439000D01*
X160152323Y-79635000D02*
X160152323Y-84365000D01*
X160192323Y-79712000D02*
X160192323Y-84288000D01*
X160232323Y-79792000D02*
X160232323Y-84208000D01*
X160272323Y-79876000D02*
X160272323Y-84124000D01*
X160312323Y-79963000D02*
X160312323Y-84037000D01*
X160352323Y-80056000D02*
X160352323Y-83944000D01*
X160392323Y-80154000D02*
X160392323Y-83846000D01*
X160432323Y-80258000D02*
X160432323Y-83742000D01*
X160472323Y-80370000D02*
X160472323Y-83630000D01*
X160512323Y-80491000D02*
X160512323Y-83509000D01*
X160552323Y-80623000D02*
X160552323Y-83377000D01*
X160592323Y-80770000D02*
X160592323Y-83230000D01*
X160632323Y-80938000D02*
X160632323Y-83062000D01*
X160672323Y-81138000D02*
X160672323Y-82862000D01*
X160712323Y-81401000D02*
X160712323Y-82599000D01*
X160752323Y-82000000D02*
G75*
G02*
X150512323Y-82000000I-5120000J0D01*
G01*
X150512323Y-82000000D02*
G75*
G02*
X160752323Y-82000000I5120000J0D01*
G01*
%TO.C,RV1*%
X130890000Y-101140000D02*
X147110000Y-101140000D01*
X130890000Y-108860000D02*
X130890000Y-101140000D01*
X135390000Y-108860000D02*
X142610000Y-108860000D01*
X147110000Y-101140000D02*
X147110000Y-108860000D01*
X147110000Y-108860000D02*
X130890000Y-108860000D01*
%TO.C,C4*%
X72520000Y-51433000D02*
X72520000Y-50367000D01*
X72560000Y-51668000D02*
X72560000Y-50132000D01*
X72600000Y-51847000D02*
X72600000Y-49953000D01*
X72640000Y-51997000D02*
X72640000Y-49803000D01*
X72680000Y-52128000D02*
X72680000Y-49672000D01*
X72720000Y-52246000D02*
X72720000Y-49554000D01*
X72760000Y-52353000D02*
X72760000Y-49447000D01*
X72800000Y-52452000D02*
X72800000Y-49348000D01*
X72840000Y-52544000D02*
X72840000Y-49256000D01*
X72880000Y-52631000D02*
X72880000Y-49169000D01*
X72920000Y-52713000D02*
X72920000Y-49087000D01*
X72960000Y-52790000D02*
X72960000Y-49010000D01*
X73000000Y-52864000D02*
X73000000Y-48936000D01*
X73040000Y-52934000D02*
X73040000Y-48866000D01*
X73080000Y-53001000D02*
X73080000Y-48799000D01*
X73120000Y-53065000D02*
X73120000Y-48735000D01*
X73160000Y-53127000D02*
X73160000Y-48673000D01*
X73200000Y-53187000D02*
X73200000Y-48613000D01*
X73240000Y-53244000D02*
X73240000Y-48556000D01*
X73280000Y-53300000D02*
X73280000Y-48500000D01*
X73320000Y-53353000D02*
X73320000Y-48447000D01*
X73360000Y-53405000D02*
X73360000Y-48395000D01*
X73400000Y-53455000D02*
X73400000Y-48345000D01*
X73440000Y-53504000D02*
X73440000Y-48296000D01*
X73480000Y-53551000D02*
X73480000Y-48249000D01*
X73520000Y-53596000D02*
X73520000Y-48204000D01*
X73560000Y-53641000D02*
X73560000Y-48159000D01*
X73600000Y-53684000D02*
X73600000Y-48116000D01*
X73640000Y-53726000D02*
X73640000Y-48074000D01*
X73680000Y-49860000D02*
X73680000Y-48033000D01*
X73680000Y-53767000D02*
X73680000Y-51940000D01*
X73720000Y-49860000D02*
X73720000Y-47994000D01*
X73720000Y-53806000D02*
X73720000Y-51940000D01*
X73760000Y-49860000D02*
X73760000Y-47955000D01*
X73760000Y-53845000D02*
X73760000Y-51940000D01*
X73800000Y-49860000D02*
X73800000Y-47918000D01*
X73800000Y-53882000D02*
X73800000Y-51940000D01*
X73840000Y-49860000D02*
X73840000Y-47881000D01*
X73840000Y-53919000D02*
X73840000Y-51940000D01*
X73880000Y-49860000D02*
X73880000Y-47845000D01*
X73880000Y-53955000D02*
X73880000Y-51940000D01*
X73920000Y-49860000D02*
X73920000Y-47811000D01*
X73920000Y-53989000D02*
X73920000Y-51940000D01*
X73960000Y-49860000D02*
X73960000Y-47777000D01*
X73960000Y-54023000D02*
X73960000Y-51940000D01*
X74000000Y-49860000D02*
X74000000Y-47744000D01*
X74000000Y-54056000D02*
X74000000Y-51940000D01*
X74040000Y-49860000D02*
X74040000Y-47712000D01*
X74040000Y-54088000D02*
X74040000Y-51940000D01*
X74080000Y-49860000D02*
X74080000Y-47681000D01*
X74080000Y-54119000D02*
X74080000Y-51940000D01*
X74120000Y-49860000D02*
X74120000Y-47650000D01*
X74120000Y-54150000D02*
X74120000Y-51940000D01*
X74160000Y-49860000D02*
X74160000Y-47620000D01*
X74160000Y-54180000D02*
X74160000Y-51940000D01*
X74200000Y-49860000D02*
X74200000Y-47591000D01*
X74200000Y-54209000D02*
X74200000Y-51940000D01*
X74240000Y-49860000D02*
X74240000Y-47563000D01*
X74240000Y-54237000D02*
X74240000Y-51940000D01*
X74280000Y-49860000D02*
X74280000Y-47535000D01*
X74280000Y-54265000D02*
X74280000Y-51940000D01*
X74320000Y-49860000D02*
X74320000Y-47508000D01*
X74320000Y-54292000D02*
X74320000Y-51940000D01*
X74360000Y-49860000D02*
X74360000Y-47482000D01*
X74360000Y-54318000D02*
X74360000Y-51940000D01*
X74400000Y-49860000D02*
X74400000Y-47457000D01*
X74400000Y-54343000D02*
X74400000Y-51940000D01*
X74440000Y-49860000D02*
X74440000Y-47432000D01*
X74440000Y-54368000D02*
X74440000Y-51940000D01*
X74480000Y-49860000D02*
X74480000Y-47407000D01*
X74480000Y-54393000D02*
X74480000Y-51940000D01*
X74520000Y-49860000D02*
X74520000Y-47384000D01*
X74520000Y-54416000D02*
X74520000Y-51940000D01*
X74560000Y-49860000D02*
X74560000Y-47361000D01*
X74560000Y-54439000D02*
X74560000Y-51940000D01*
X74600000Y-49860000D02*
X74600000Y-47338000D01*
X74600000Y-54462000D02*
X74600000Y-51940000D01*
X74640000Y-49860000D02*
X74640000Y-47316000D01*
X74640000Y-54484000D02*
X74640000Y-51940000D01*
X74680000Y-49860000D02*
X74680000Y-47295000D01*
X74680000Y-54505000D02*
X74680000Y-51940000D01*
X74720000Y-49860000D02*
X74720000Y-47274000D01*
X74720000Y-54526000D02*
X74720000Y-51940000D01*
X74760000Y-49860000D02*
X74760000Y-47254000D01*
X74760000Y-54546000D02*
X74760000Y-51940000D01*
X74800000Y-49860000D02*
X74800000Y-47234000D01*
X74800000Y-54566000D02*
X74800000Y-51940000D01*
X74840000Y-49860000D02*
X74840000Y-47215000D01*
X74840000Y-54585000D02*
X74840000Y-51940000D01*
X74880000Y-49860000D02*
X74880000Y-47196000D01*
X74880000Y-54604000D02*
X74880000Y-51940000D01*
X74920000Y-49860000D02*
X74920000Y-47178000D01*
X74920000Y-54622000D02*
X74920000Y-51940000D01*
X74960000Y-49860000D02*
X74960000Y-47160000D01*
X74960000Y-54640000D02*
X74960000Y-51940000D01*
X75000000Y-49860000D02*
X75000000Y-47143000D01*
X75000000Y-54657000D02*
X75000000Y-51940000D01*
X75040000Y-49860000D02*
X75040000Y-47127000D01*
X75040000Y-54673000D02*
X75040000Y-51940000D01*
X75080000Y-49860000D02*
X75080000Y-47111000D01*
X75080000Y-54689000D02*
X75080000Y-51940000D01*
X75120000Y-49860000D02*
X75120000Y-47095000D01*
X75120000Y-54705000D02*
X75120000Y-51940000D01*
X75160000Y-49860000D02*
X75160000Y-47080000D01*
X75160000Y-54720000D02*
X75160000Y-51940000D01*
X75200000Y-49860000D02*
X75200000Y-47065000D01*
X75200000Y-54735000D02*
X75200000Y-51940000D01*
X75240000Y-49860000D02*
X75240000Y-47051000D01*
X75240000Y-54749000D02*
X75240000Y-51940000D01*
X75280000Y-49860000D02*
X75280000Y-47037000D01*
X75280000Y-54763000D02*
X75280000Y-51940000D01*
X75320000Y-49860000D02*
X75320000Y-47024000D01*
X75320000Y-54776000D02*
X75320000Y-51940000D01*
X75360000Y-49860000D02*
X75360000Y-47011000D01*
X75360000Y-54789000D02*
X75360000Y-51940000D01*
X75400000Y-49860000D02*
X75400000Y-46999000D01*
X75400000Y-54801000D02*
X75400000Y-51940000D01*
X75440000Y-49860000D02*
X75440000Y-46987000D01*
X75440000Y-54813000D02*
X75440000Y-51940000D01*
X75480000Y-49860000D02*
X75480000Y-46975000D01*
X75480000Y-54825000D02*
X75480000Y-51940000D01*
X75520000Y-49860000D02*
X75520000Y-46964000D01*
X75520000Y-54836000D02*
X75520000Y-51940000D01*
X75560000Y-49860000D02*
X75560000Y-46953000D01*
X75560000Y-54847000D02*
X75560000Y-51940000D01*
X75600000Y-49860000D02*
X75600000Y-46943000D01*
X75600000Y-54857000D02*
X75600000Y-51940000D01*
X75640000Y-49860000D02*
X75640000Y-46933000D01*
X75640000Y-54867000D02*
X75640000Y-51940000D01*
X75680000Y-49860000D02*
X75680000Y-46924000D01*
X75680000Y-54876000D02*
X75680000Y-51940000D01*
X75720000Y-49860000D02*
X75720000Y-46915000D01*
X75720000Y-54885000D02*
X75720000Y-51940000D01*
X75760000Y-54893000D02*
X75760000Y-46907000D01*
X75800000Y-54902000D02*
X75800000Y-46898000D01*
X75840000Y-54909000D02*
X75840000Y-46891000D01*
X75880000Y-54917000D02*
X75880000Y-46883000D01*
X75920000Y-54923000D02*
X75920000Y-46877000D01*
X75960000Y-54930000D02*
X75960000Y-46870000D01*
X76000000Y-54936000D02*
X76000000Y-46864000D01*
X76040000Y-54942000D02*
X76040000Y-46858000D01*
X76080000Y-54947000D02*
X76080000Y-46853000D01*
X76120000Y-54952000D02*
X76120000Y-46848000D01*
X76160000Y-54956000D02*
X76160000Y-46844000D01*
X76200000Y-54961000D02*
X76200000Y-46839000D01*
X76240000Y-54964000D02*
X76240000Y-46836000D01*
X76280000Y-54968000D02*
X76280000Y-46832000D01*
X76320000Y-54970000D02*
X76320000Y-46830000D01*
X76360000Y-54973000D02*
X76360000Y-46827000D01*
X76400000Y-54975000D02*
X76400000Y-46825000D01*
X76440000Y-54977000D02*
X76440000Y-46823000D01*
X76480000Y-54978000D02*
X76480000Y-46822000D01*
X76520000Y-54979000D02*
X76520000Y-46821000D01*
X76560000Y-54980000D02*
X76560000Y-46820000D01*
X76600000Y-54980000D02*
X76600000Y-46820000D01*
X80609698Y-53615000D02*
X80609698Y-52815000D01*
X81009698Y-53215000D02*
X80209698Y-53215000D01*
X80720000Y-50900000D02*
G75*
G02*
X72480000Y-50900000I-4120000J0D01*
G01*
X72480000Y-50900000D02*
G75*
G02*
X80720000Y-50900000I4120000J0D01*
G01*
%TO.C,D1*%
X74170000Y-37455000D02*
X74170000Y-40545000D01*
X74170000Y-37455170D02*
G75*
G02*
X79720000Y-39000000I2560000J-1544830D01*
G01*
X79720000Y-39000000D02*
G75*
G02*
X74170000Y-40544830I-2990000J0D01*
G01*
X79230000Y-39000000D02*
G75*
G02*
X74230000Y-39000000I-2500000J0D01*
G01*
X74230000Y-39000000D02*
G75*
G02*
X79230000Y-39000000I2500000J0D01*
G01*
%TO.C,C3*%
X83330000Y-48440000D02*
X83865000Y-48440000D01*
X83330000Y-54680000D02*
X83330000Y-48440000D01*
X83865000Y-54680000D02*
X83330000Y-54680000D01*
X85535000Y-48440000D02*
X86070000Y-48440000D01*
X86070000Y-48440000D02*
X86070000Y-54680000D01*
X86070000Y-54680000D02*
X85535000Y-54680000D01*
%TO.C,C2*%
X105240302Y-48785000D02*
X106040302Y-48785000D01*
X105640302Y-48385000D02*
X105640302Y-49185000D01*
X109650000Y-47020000D02*
X109650000Y-55180000D01*
X109690000Y-47020000D02*
X109690000Y-55180000D01*
X109730000Y-47021000D02*
X109730000Y-55179000D01*
X109770000Y-47022000D02*
X109770000Y-55178000D01*
X109810000Y-47023000D02*
X109810000Y-55177000D01*
X109850000Y-47025000D02*
X109850000Y-55175000D01*
X109890000Y-47027000D02*
X109890000Y-55173000D01*
X109930000Y-47030000D02*
X109930000Y-55170000D01*
X109970000Y-47032000D02*
X109970000Y-55168000D01*
X110010000Y-47036000D02*
X110010000Y-55164000D01*
X110050000Y-47039000D02*
X110050000Y-55161000D01*
X110090000Y-47044000D02*
X110090000Y-55156000D01*
X110130000Y-47048000D02*
X110130000Y-55152000D01*
X110170000Y-47053000D02*
X110170000Y-55147000D01*
X110210000Y-47058000D02*
X110210000Y-55142000D01*
X110250000Y-47064000D02*
X110250000Y-55136000D01*
X110290000Y-47070000D02*
X110290000Y-55130000D01*
X110330000Y-47077000D02*
X110330000Y-55123000D01*
X110370000Y-47083000D02*
X110370000Y-55117000D01*
X110410000Y-47091000D02*
X110410000Y-55109000D01*
X110450000Y-47098000D02*
X110450000Y-55102000D01*
X110490000Y-47107000D02*
X110490000Y-55093000D01*
X110530000Y-47115000D02*
X110530000Y-50060000D01*
X110530000Y-52140000D02*
X110530000Y-55085000D01*
X110570000Y-47124000D02*
X110570000Y-50060000D01*
X110570000Y-52140000D02*
X110570000Y-55076000D01*
X110610000Y-47133000D02*
X110610000Y-50060000D01*
X110610000Y-52140000D02*
X110610000Y-55067000D01*
X110650000Y-47143000D02*
X110650000Y-50060000D01*
X110650000Y-52140000D02*
X110650000Y-55057000D01*
X110690000Y-47153000D02*
X110690000Y-50060000D01*
X110690000Y-52140000D02*
X110690000Y-55047000D01*
X110730000Y-47164000D02*
X110730000Y-50060000D01*
X110730000Y-52140000D02*
X110730000Y-55036000D01*
X110770000Y-47175000D02*
X110770000Y-50060000D01*
X110770000Y-52140000D02*
X110770000Y-55025000D01*
X110810000Y-47187000D02*
X110810000Y-50060000D01*
X110810000Y-52140000D02*
X110810000Y-55013000D01*
X110850000Y-47199000D02*
X110850000Y-50060000D01*
X110850000Y-52140000D02*
X110850000Y-55001000D01*
X110890000Y-47211000D02*
X110890000Y-50060000D01*
X110890000Y-52140000D02*
X110890000Y-54989000D01*
X110930000Y-47224000D02*
X110930000Y-50060000D01*
X110930000Y-52140000D02*
X110930000Y-54976000D01*
X110970000Y-47237000D02*
X110970000Y-50060000D01*
X110970000Y-52140000D02*
X110970000Y-54963000D01*
X111010000Y-47251000D02*
X111010000Y-50060000D01*
X111010000Y-52140000D02*
X111010000Y-54949000D01*
X111050000Y-47265000D02*
X111050000Y-50060000D01*
X111050000Y-52140000D02*
X111050000Y-54935000D01*
X111090000Y-47280000D02*
X111090000Y-50060000D01*
X111090000Y-52140000D02*
X111090000Y-54920000D01*
X111130000Y-47295000D02*
X111130000Y-50060000D01*
X111130000Y-52140000D02*
X111130000Y-54905000D01*
X111170000Y-47311000D02*
X111170000Y-50060000D01*
X111170000Y-52140000D02*
X111170000Y-54889000D01*
X111210000Y-47327000D02*
X111210000Y-50060000D01*
X111210000Y-52140000D02*
X111210000Y-54873000D01*
X111250000Y-47343000D02*
X111250000Y-50060000D01*
X111250000Y-52140000D02*
X111250000Y-54857000D01*
X111290000Y-47360000D02*
X111290000Y-50060000D01*
X111290000Y-52140000D02*
X111290000Y-54840000D01*
X111330000Y-47378000D02*
X111330000Y-50060000D01*
X111330000Y-52140000D02*
X111330000Y-54822000D01*
X111370000Y-47396000D02*
X111370000Y-50060000D01*
X111370000Y-52140000D02*
X111370000Y-54804000D01*
X111410000Y-47415000D02*
X111410000Y-50060000D01*
X111410000Y-52140000D02*
X111410000Y-54785000D01*
X111450000Y-47434000D02*
X111450000Y-50060000D01*
X111450000Y-52140000D02*
X111450000Y-54766000D01*
X111490000Y-47454000D02*
X111490000Y-50060000D01*
X111490000Y-52140000D02*
X111490000Y-54746000D01*
X111530000Y-47474000D02*
X111530000Y-50060000D01*
X111530000Y-52140000D02*
X111530000Y-54726000D01*
X111570000Y-47495000D02*
X111570000Y-50060000D01*
X111570000Y-52140000D02*
X111570000Y-54705000D01*
X111610000Y-47516000D02*
X111610000Y-50060000D01*
X111610000Y-52140000D02*
X111610000Y-54684000D01*
X111650000Y-47538000D02*
X111650000Y-50060000D01*
X111650000Y-52140000D02*
X111650000Y-54662000D01*
X111690000Y-47561000D02*
X111690000Y-50060000D01*
X111690000Y-52140000D02*
X111690000Y-54639000D01*
X111730000Y-47584000D02*
X111730000Y-50060000D01*
X111730000Y-52140000D02*
X111730000Y-54616000D01*
X111770000Y-47607000D02*
X111770000Y-50060000D01*
X111770000Y-52140000D02*
X111770000Y-54593000D01*
X111810000Y-47632000D02*
X111810000Y-50060000D01*
X111810000Y-52140000D02*
X111810000Y-54568000D01*
X111850000Y-47657000D02*
X111850000Y-50060000D01*
X111850000Y-52140000D02*
X111850000Y-54543000D01*
X111890000Y-47682000D02*
X111890000Y-50060000D01*
X111890000Y-52140000D02*
X111890000Y-54518000D01*
X111930000Y-47708000D02*
X111930000Y-50060000D01*
X111930000Y-52140000D02*
X111930000Y-54492000D01*
X111970000Y-47735000D02*
X111970000Y-50060000D01*
X111970000Y-52140000D02*
X111970000Y-54465000D01*
X112010000Y-47763000D02*
X112010000Y-50060000D01*
X112010000Y-52140000D02*
X112010000Y-54437000D01*
X112050000Y-47791000D02*
X112050000Y-50060000D01*
X112050000Y-52140000D02*
X112050000Y-54409000D01*
X112090000Y-47820000D02*
X112090000Y-50060000D01*
X112090000Y-52140000D02*
X112090000Y-54380000D01*
X112130000Y-47850000D02*
X112130000Y-50060000D01*
X112130000Y-52140000D02*
X112130000Y-54350000D01*
X112170000Y-47881000D02*
X112170000Y-50060000D01*
X112170000Y-52140000D02*
X112170000Y-54319000D01*
X112210000Y-47912000D02*
X112210000Y-50060000D01*
X112210000Y-52140000D02*
X112210000Y-54288000D01*
X112250000Y-47944000D02*
X112250000Y-50060000D01*
X112250000Y-52140000D02*
X112250000Y-54256000D01*
X112290000Y-47977000D02*
X112290000Y-50060000D01*
X112290000Y-52140000D02*
X112290000Y-54223000D01*
X112330000Y-48011000D02*
X112330000Y-50060000D01*
X112330000Y-52140000D02*
X112330000Y-54189000D01*
X112370000Y-48045000D02*
X112370000Y-50060000D01*
X112370000Y-52140000D02*
X112370000Y-54155000D01*
X112410000Y-48081000D02*
X112410000Y-50060000D01*
X112410000Y-52140000D02*
X112410000Y-54119000D01*
X112450000Y-48118000D02*
X112450000Y-50060000D01*
X112450000Y-52140000D02*
X112450000Y-54082000D01*
X112490000Y-48155000D02*
X112490000Y-50060000D01*
X112490000Y-52140000D02*
X112490000Y-54045000D01*
X112530000Y-48194000D02*
X112530000Y-50060000D01*
X112530000Y-52140000D02*
X112530000Y-54006000D01*
X112570000Y-48233000D02*
X112570000Y-50060000D01*
X112570000Y-52140000D02*
X112570000Y-53967000D01*
X112610000Y-48274000D02*
X112610000Y-53926000D01*
X112650000Y-48316000D02*
X112650000Y-53884000D01*
X112690000Y-48359000D02*
X112690000Y-53841000D01*
X112730000Y-48404000D02*
X112730000Y-53796000D01*
X112770000Y-48449000D02*
X112770000Y-53751000D01*
X112810000Y-48496000D02*
X112810000Y-53704000D01*
X112850000Y-48545000D02*
X112850000Y-53655000D01*
X112890000Y-48595000D02*
X112890000Y-53605000D01*
X112930000Y-48647000D02*
X112930000Y-53553000D01*
X112970000Y-48700000D02*
X112970000Y-53500000D01*
X113010000Y-48756000D02*
X113010000Y-53444000D01*
X113050000Y-48813000D02*
X113050000Y-53387000D01*
X113090000Y-48873000D02*
X113090000Y-53327000D01*
X113130000Y-48935000D02*
X113130000Y-53265000D01*
X113170000Y-48999000D02*
X113170000Y-53201000D01*
X113210000Y-49066000D02*
X113210000Y-53134000D01*
X113250000Y-49136000D02*
X113250000Y-53064000D01*
X113290000Y-49210000D02*
X113290000Y-52990000D01*
X113330000Y-49287000D02*
X113330000Y-52913000D01*
X113370000Y-49369000D02*
X113370000Y-52831000D01*
X113410000Y-49456000D02*
X113410000Y-52744000D01*
X113450000Y-49548000D02*
X113450000Y-52652000D01*
X113490000Y-49647000D02*
X113490000Y-52553000D01*
X113530000Y-49754000D02*
X113530000Y-52446000D01*
X113570000Y-49872000D02*
X113570000Y-52328000D01*
X113610000Y-50003000D02*
X113610000Y-52197000D01*
X113650000Y-50153000D02*
X113650000Y-52047000D01*
X113690000Y-50332000D02*
X113690000Y-51868000D01*
X113730000Y-50567000D02*
X113730000Y-51633000D01*
X113770000Y-51100000D02*
G75*
G02*
X105530000Y-51100000I-4120000J0D01*
G01*
X105530000Y-51100000D02*
G75*
G02*
X113770000Y-51100000I4120000J0D01*
G01*
%TO.C,C6*%
X104152677Y-37125000D02*
X105152677Y-37125000D01*
X104652677Y-36625000D02*
X104652677Y-37625000D01*
X109632323Y-34920000D02*
X109632323Y-45080000D01*
X109672323Y-34920000D02*
X109672323Y-45080000D01*
X109712323Y-34921000D02*
X109712323Y-45079000D01*
X109752323Y-34921000D02*
X109752323Y-45079000D01*
X109792323Y-34923000D02*
X109792323Y-45077000D01*
X109832323Y-34924000D02*
X109832323Y-45076000D01*
X109872323Y-34926000D02*
X109872323Y-45074000D01*
X109912323Y-34928000D02*
X109912323Y-45072000D01*
X109952323Y-34930000D02*
X109952323Y-45070000D01*
X109992323Y-34933000D02*
X109992323Y-45067000D01*
X110032323Y-34936000D02*
X110032323Y-45064000D01*
X110072323Y-34939000D02*
X110072323Y-45061000D01*
X110112323Y-34943000D02*
X110112323Y-45057000D01*
X110152323Y-34946000D02*
X110152323Y-45054000D01*
X110192323Y-34951000D02*
X110192323Y-45049000D01*
X110232323Y-34955000D02*
X110232323Y-45045000D01*
X110272323Y-34960000D02*
X110272323Y-45040000D01*
X110312323Y-34965000D02*
X110312323Y-45035000D01*
X110352323Y-34971000D02*
X110352323Y-45029000D01*
X110392323Y-34977000D02*
X110392323Y-45023000D01*
X110432323Y-34983000D02*
X110432323Y-45017000D01*
X110472323Y-34989000D02*
X110472323Y-45011000D01*
X110512323Y-34996000D02*
X110512323Y-45004000D01*
X110552323Y-35003000D02*
X110552323Y-44997000D01*
X110592323Y-35011000D02*
X110592323Y-44989000D01*
X110632323Y-35019000D02*
X110632323Y-44981000D01*
X110672323Y-35027000D02*
X110672323Y-44973000D01*
X110712323Y-35035000D02*
X110712323Y-44965000D01*
X110752323Y-35044000D02*
X110752323Y-44956000D01*
X110792323Y-35053000D02*
X110792323Y-44947000D01*
X110832323Y-35063000D02*
X110832323Y-44937000D01*
X110872323Y-35072000D02*
X110872323Y-44928000D01*
X110912323Y-35083000D02*
X110912323Y-38760000D01*
X110912323Y-41240000D02*
X110912323Y-44917000D01*
X110952323Y-35093000D02*
X110952323Y-38760000D01*
X110952323Y-41240000D02*
X110952323Y-44907000D01*
X110992323Y-35104000D02*
X110992323Y-38760000D01*
X110992323Y-41240000D02*
X110992323Y-44896000D01*
X111032323Y-35115000D02*
X111032323Y-38760000D01*
X111032323Y-41240000D02*
X111032323Y-44885000D01*
X111072323Y-35127000D02*
X111072323Y-38760000D01*
X111072323Y-41240000D02*
X111072323Y-44873000D01*
X111112323Y-35139000D02*
X111112323Y-38760000D01*
X111112323Y-41240000D02*
X111112323Y-44861000D01*
X111152323Y-35151000D02*
X111152323Y-38760000D01*
X111152323Y-41240000D02*
X111152323Y-44849000D01*
X111192323Y-35163000D02*
X111192323Y-38760000D01*
X111192323Y-41240000D02*
X111192323Y-44837000D01*
X111232323Y-35176000D02*
X111232323Y-38760000D01*
X111232323Y-41240000D02*
X111232323Y-44824000D01*
X111272323Y-35190000D02*
X111272323Y-38760000D01*
X111272323Y-41240000D02*
X111272323Y-44810000D01*
X111312323Y-35203000D02*
X111312323Y-38760000D01*
X111312323Y-41240000D02*
X111312323Y-44797000D01*
X111352323Y-35218000D02*
X111352323Y-38760000D01*
X111352323Y-41240000D02*
X111352323Y-44782000D01*
X111392323Y-35232000D02*
X111392323Y-38760000D01*
X111392323Y-41240000D02*
X111392323Y-44768000D01*
X111432323Y-35247000D02*
X111432323Y-38760000D01*
X111432323Y-41240000D02*
X111432323Y-44753000D01*
X111472323Y-35262000D02*
X111472323Y-38760000D01*
X111472323Y-41240000D02*
X111472323Y-44738000D01*
X111512323Y-35278000D02*
X111512323Y-38760000D01*
X111512323Y-41240000D02*
X111512323Y-44722000D01*
X111552323Y-35294000D02*
X111552323Y-38760000D01*
X111552323Y-41240000D02*
X111552323Y-44706000D01*
X111592323Y-35310000D02*
X111592323Y-38760000D01*
X111592323Y-41240000D02*
X111592323Y-44690000D01*
X111632323Y-35327000D02*
X111632323Y-38760000D01*
X111632323Y-41240000D02*
X111632323Y-44673000D01*
X111672323Y-35344000D02*
X111672323Y-38760000D01*
X111672323Y-41240000D02*
X111672323Y-44656000D01*
X111712323Y-35362000D02*
X111712323Y-38760000D01*
X111712323Y-41240000D02*
X111712323Y-44638000D01*
X111752323Y-35380000D02*
X111752323Y-38760000D01*
X111752323Y-41240000D02*
X111752323Y-44620000D01*
X111792323Y-35398000D02*
X111792323Y-38760000D01*
X111792323Y-41240000D02*
X111792323Y-44602000D01*
X111832323Y-35417000D02*
X111832323Y-38760000D01*
X111832323Y-41240000D02*
X111832323Y-44583000D01*
X111872323Y-35436000D02*
X111872323Y-38760000D01*
X111872323Y-41240000D02*
X111872323Y-44564000D01*
X111912323Y-35456000D02*
X111912323Y-38760000D01*
X111912323Y-41240000D02*
X111912323Y-44544000D01*
X111952323Y-35476000D02*
X111952323Y-38760000D01*
X111952323Y-41240000D02*
X111952323Y-44524000D01*
X111992323Y-35496000D02*
X111992323Y-38760000D01*
X111992323Y-41240000D02*
X111992323Y-44504000D01*
X112032323Y-35517000D02*
X112032323Y-38760000D01*
X112032323Y-41240000D02*
X112032323Y-44483000D01*
X112072323Y-35539000D02*
X112072323Y-38760000D01*
X112072323Y-41240000D02*
X112072323Y-44461000D01*
X112112323Y-35561000D02*
X112112323Y-38760000D01*
X112112323Y-41240000D02*
X112112323Y-44439000D01*
X112152323Y-35583000D02*
X112152323Y-38760000D01*
X112152323Y-41240000D02*
X112152323Y-44417000D01*
X112192323Y-35606000D02*
X112192323Y-38760000D01*
X112192323Y-41240000D02*
X112192323Y-44394000D01*
X112232323Y-35629000D02*
X112232323Y-38760000D01*
X112232323Y-41240000D02*
X112232323Y-44371000D01*
X112272323Y-35653000D02*
X112272323Y-38760000D01*
X112272323Y-41240000D02*
X112272323Y-44347000D01*
X112312323Y-35677000D02*
X112312323Y-38760000D01*
X112312323Y-41240000D02*
X112312323Y-44323000D01*
X112352323Y-35702000D02*
X112352323Y-38760000D01*
X112352323Y-41240000D02*
X112352323Y-44298000D01*
X112392323Y-35728000D02*
X112392323Y-38760000D01*
X112392323Y-41240000D02*
X112392323Y-44272000D01*
X112432323Y-35753000D02*
X112432323Y-38760000D01*
X112432323Y-41240000D02*
X112432323Y-44247000D01*
X112472323Y-35780000D02*
X112472323Y-38760000D01*
X112472323Y-41240000D02*
X112472323Y-44220000D01*
X112512323Y-35807000D02*
X112512323Y-38760000D01*
X112512323Y-41240000D02*
X112512323Y-44193000D01*
X112552323Y-35834000D02*
X112552323Y-38760000D01*
X112552323Y-41240000D02*
X112552323Y-44166000D01*
X112592323Y-35862000D02*
X112592323Y-38760000D01*
X112592323Y-41240000D02*
X112592323Y-44138000D01*
X112632323Y-35891000D02*
X112632323Y-38760000D01*
X112632323Y-41240000D02*
X112632323Y-44109000D01*
X112672323Y-35920000D02*
X112672323Y-38760000D01*
X112672323Y-41240000D02*
X112672323Y-44080000D01*
X112712323Y-35950000D02*
X112712323Y-38760000D01*
X112712323Y-41240000D02*
X112712323Y-44050000D01*
X112752323Y-35980000D02*
X112752323Y-38760000D01*
X112752323Y-41240000D02*
X112752323Y-44020000D01*
X112792323Y-36012000D02*
X112792323Y-38760000D01*
X112792323Y-41240000D02*
X112792323Y-43988000D01*
X112832323Y-36043000D02*
X112832323Y-38760000D01*
X112832323Y-41240000D02*
X112832323Y-43957000D01*
X112872323Y-36076000D02*
X112872323Y-38760000D01*
X112872323Y-41240000D02*
X112872323Y-43924000D01*
X112912323Y-36109000D02*
X112912323Y-38760000D01*
X112912323Y-41240000D02*
X112912323Y-43891000D01*
X112952323Y-36142000D02*
X112952323Y-38760000D01*
X112952323Y-41240000D02*
X112952323Y-43858000D01*
X112992323Y-36177000D02*
X112992323Y-38760000D01*
X112992323Y-41240000D02*
X112992323Y-43823000D01*
X113032323Y-36212000D02*
X113032323Y-38760000D01*
X113032323Y-41240000D02*
X113032323Y-43788000D01*
X113072323Y-36248000D02*
X113072323Y-38760000D01*
X113072323Y-41240000D02*
X113072323Y-43752000D01*
X113112323Y-36284000D02*
X113112323Y-38760000D01*
X113112323Y-41240000D02*
X113112323Y-43716000D01*
X113152323Y-36322000D02*
X113152323Y-38760000D01*
X113152323Y-41240000D02*
X113152323Y-43678000D01*
X113192323Y-36360000D02*
X113192323Y-38760000D01*
X113192323Y-41240000D02*
X113192323Y-43640000D01*
X113232323Y-36399000D02*
X113232323Y-38760000D01*
X113232323Y-41240000D02*
X113232323Y-43601000D01*
X113272323Y-36439000D02*
X113272323Y-38760000D01*
X113272323Y-41240000D02*
X113272323Y-43561000D01*
X113312323Y-36480000D02*
X113312323Y-38760000D01*
X113312323Y-41240000D02*
X113312323Y-43520000D01*
X113352323Y-36522000D02*
X113352323Y-38760000D01*
X113352323Y-41240000D02*
X113352323Y-43478000D01*
X113392323Y-36565000D02*
X113392323Y-43435000D01*
X113432323Y-36609000D02*
X113432323Y-43391000D01*
X113472323Y-36653000D02*
X113472323Y-43347000D01*
X113512323Y-36699000D02*
X113512323Y-43301000D01*
X113552323Y-36746000D02*
X113552323Y-43254000D01*
X113592323Y-36795000D02*
X113592323Y-43205000D01*
X113632323Y-36844000D02*
X113632323Y-43156000D01*
X113672323Y-36895000D02*
X113672323Y-43105000D01*
X113712323Y-36947000D02*
X113712323Y-43053000D01*
X113752323Y-37000000D02*
X113752323Y-43000000D01*
X113792323Y-37055000D02*
X113792323Y-42945000D01*
X113832323Y-37112000D02*
X113832323Y-42888000D01*
X113872323Y-37170000D02*
X113872323Y-42830000D01*
X113912323Y-37230000D02*
X113912323Y-42770000D01*
X113952323Y-37292000D02*
X113952323Y-42708000D01*
X113992323Y-37356000D02*
X113992323Y-42644000D01*
X114032323Y-37422000D02*
X114032323Y-42578000D01*
X114072323Y-37490000D02*
X114072323Y-42510000D01*
X114112323Y-37561000D02*
X114112323Y-42439000D01*
X114152323Y-37635000D02*
X114152323Y-42365000D01*
X114192323Y-37712000D02*
X114192323Y-42288000D01*
X114232323Y-37792000D02*
X114232323Y-42208000D01*
X114272323Y-37876000D02*
X114272323Y-42124000D01*
X114312323Y-37963000D02*
X114312323Y-42037000D01*
X114352323Y-38056000D02*
X114352323Y-41944000D01*
X114392323Y-38154000D02*
X114392323Y-41846000D01*
X114432323Y-38258000D02*
X114432323Y-41742000D01*
X114472323Y-38370000D02*
X114472323Y-41630000D01*
X114512323Y-38491000D02*
X114512323Y-41509000D01*
X114552323Y-38623000D02*
X114552323Y-41377000D01*
X114592323Y-38770000D02*
X114592323Y-41230000D01*
X114632323Y-38938000D02*
X114632323Y-41062000D01*
X114672323Y-39138000D02*
X114672323Y-40862000D01*
X114712323Y-39401000D02*
X114712323Y-40599000D01*
X114752323Y-40000000D02*
G75*
G02*
X104512323Y-40000000I-5120000J0D01*
G01*
X104512323Y-40000000D02*
G75*
G02*
X114752323Y-40000000I5120000J0D01*
G01*
%TO.C,IN1*%
X103420000Y-61690000D02*
X103420000Y-68040000D01*
X113580000Y-61690000D02*
X103420000Y-61690000D01*
X113580000Y-68000000D02*
X113580000Y-61690000D01*
X113580000Y-68040000D02*
X103420000Y-68040000D01*
%TO.C,R1*%
X88330000Y-48480000D02*
X88660000Y-48480000D01*
X88330000Y-55020000D02*
X88330000Y-48480000D01*
X88660000Y-55020000D02*
X88330000Y-55020000D01*
X90740000Y-55020000D02*
X91070000Y-55020000D01*
X91070000Y-48480000D02*
X90740000Y-48480000D01*
X91070000Y-55020000D02*
X91070000Y-48480000D01*
%TO.C,C2*%
X151240302Y-48785000D02*
X152040302Y-48785000D01*
X151640302Y-48385000D02*
X151640302Y-49185000D01*
X155650000Y-47020000D02*
X155650000Y-55180000D01*
X155690000Y-47020000D02*
X155690000Y-55180000D01*
X155730000Y-47021000D02*
X155730000Y-55179000D01*
X155770000Y-47022000D02*
X155770000Y-55178000D01*
X155810000Y-47023000D02*
X155810000Y-55177000D01*
X155850000Y-47025000D02*
X155850000Y-55175000D01*
X155890000Y-47027000D02*
X155890000Y-55173000D01*
X155930000Y-47030000D02*
X155930000Y-55170000D01*
X155970000Y-47032000D02*
X155970000Y-55168000D01*
X156010000Y-47036000D02*
X156010000Y-55164000D01*
X156050000Y-47039000D02*
X156050000Y-55161000D01*
X156090000Y-47044000D02*
X156090000Y-55156000D01*
X156130000Y-47048000D02*
X156130000Y-55152000D01*
X156170000Y-47053000D02*
X156170000Y-55147000D01*
X156210000Y-47058000D02*
X156210000Y-55142000D01*
X156250000Y-47064000D02*
X156250000Y-55136000D01*
X156290000Y-47070000D02*
X156290000Y-55130000D01*
X156330000Y-47077000D02*
X156330000Y-55123000D01*
X156370000Y-47083000D02*
X156370000Y-55117000D01*
X156410000Y-47091000D02*
X156410000Y-55109000D01*
X156450000Y-47098000D02*
X156450000Y-55102000D01*
X156490000Y-47107000D02*
X156490000Y-55093000D01*
X156530000Y-47115000D02*
X156530000Y-50060000D01*
X156530000Y-52140000D02*
X156530000Y-55085000D01*
X156570000Y-47124000D02*
X156570000Y-50060000D01*
X156570000Y-52140000D02*
X156570000Y-55076000D01*
X156610000Y-47133000D02*
X156610000Y-50060000D01*
X156610000Y-52140000D02*
X156610000Y-55067000D01*
X156650000Y-47143000D02*
X156650000Y-50060000D01*
X156650000Y-52140000D02*
X156650000Y-55057000D01*
X156690000Y-47153000D02*
X156690000Y-50060000D01*
X156690000Y-52140000D02*
X156690000Y-55047000D01*
X156730000Y-47164000D02*
X156730000Y-50060000D01*
X156730000Y-52140000D02*
X156730000Y-55036000D01*
X156770000Y-47175000D02*
X156770000Y-50060000D01*
X156770000Y-52140000D02*
X156770000Y-55025000D01*
X156810000Y-47187000D02*
X156810000Y-50060000D01*
X156810000Y-52140000D02*
X156810000Y-55013000D01*
X156850000Y-47199000D02*
X156850000Y-50060000D01*
X156850000Y-52140000D02*
X156850000Y-55001000D01*
X156890000Y-47211000D02*
X156890000Y-50060000D01*
X156890000Y-52140000D02*
X156890000Y-54989000D01*
X156930000Y-47224000D02*
X156930000Y-50060000D01*
X156930000Y-52140000D02*
X156930000Y-54976000D01*
X156970000Y-47237000D02*
X156970000Y-50060000D01*
X156970000Y-52140000D02*
X156970000Y-54963000D01*
X157010000Y-47251000D02*
X157010000Y-50060000D01*
X157010000Y-52140000D02*
X157010000Y-54949000D01*
X157050000Y-47265000D02*
X157050000Y-50060000D01*
X157050000Y-52140000D02*
X157050000Y-54935000D01*
X157090000Y-47280000D02*
X157090000Y-50060000D01*
X157090000Y-52140000D02*
X157090000Y-54920000D01*
X157130000Y-47295000D02*
X157130000Y-50060000D01*
X157130000Y-52140000D02*
X157130000Y-54905000D01*
X157170000Y-47311000D02*
X157170000Y-50060000D01*
X157170000Y-52140000D02*
X157170000Y-54889000D01*
X157210000Y-47327000D02*
X157210000Y-50060000D01*
X157210000Y-52140000D02*
X157210000Y-54873000D01*
X157250000Y-47343000D02*
X157250000Y-50060000D01*
X157250000Y-52140000D02*
X157250000Y-54857000D01*
X157290000Y-47360000D02*
X157290000Y-50060000D01*
X157290000Y-52140000D02*
X157290000Y-54840000D01*
X157330000Y-47378000D02*
X157330000Y-50060000D01*
X157330000Y-52140000D02*
X157330000Y-54822000D01*
X157370000Y-47396000D02*
X157370000Y-50060000D01*
X157370000Y-52140000D02*
X157370000Y-54804000D01*
X157410000Y-47415000D02*
X157410000Y-50060000D01*
X157410000Y-52140000D02*
X157410000Y-54785000D01*
X157450000Y-47434000D02*
X157450000Y-50060000D01*
X157450000Y-52140000D02*
X157450000Y-54766000D01*
X157490000Y-47454000D02*
X157490000Y-50060000D01*
X157490000Y-52140000D02*
X157490000Y-54746000D01*
X157530000Y-47474000D02*
X157530000Y-50060000D01*
X157530000Y-52140000D02*
X157530000Y-54726000D01*
X157570000Y-47495000D02*
X157570000Y-50060000D01*
X157570000Y-52140000D02*
X157570000Y-54705000D01*
X157610000Y-47516000D02*
X157610000Y-50060000D01*
X157610000Y-52140000D02*
X157610000Y-54684000D01*
X157650000Y-47538000D02*
X157650000Y-50060000D01*
X157650000Y-52140000D02*
X157650000Y-54662000D01*
X157690000Y-47561000D02*
X157690000Y-50060000D01*
X157690000Y-52140000D02*
X157690000Y-54639000D01*
X157730000Y-47584000D02*
X157730000Y-50060000D01*
X157730000Y-52140000D02*
X157730000Y-54616000D01*
X157770000Y-47607000D02*
X157770000Y-50060000D01*
X157770000Y-52140000D02*
X157770000Y-54593000D01*
X157810000Y-47632000D02*
X157810000Y-50060000D01*
X157810000Y-52140000D02*
X157810000Y-54568000D01*
X157850000Y-47657000D02*
X157850000Y-50060000D01*
X157850000Y-52140000D02*
X157850000Y-54543000D01*
X157890000Y-47682000D02*
X157890000Y-50060000D01*
X157890000Y-52140000D02*
X157890000Y-54518000D01*
X157930000Y-47708000D02*
X157930000Y-50060000D01*
X157930000Y-52140000D02*
X157930000Y-54492000D01*
X157970000Y-47735000D02*
X157970000Y-50060000D01*
X157970000Y-52140000D02*
X157970000Y-54465000D01*
X158010000Y-47763000D02*
X158010000Y-50060000D01*
X158010000Y-52140000D02*
X158010000Y-54437000D01*
X158050000Y-47791000D02*
X158050000Y-50060000D01*
X158050000Y-52140000D02*
X158050000Y-54409000D01*
X158090000Y-47820000D02*
X158090000Y-50060000D01*
X158090000Y-52140000D02*
X158090000Y-54380000D01*
X158130000Y-47850000D02*
X158130000Y-50060000D01*
X158130000Y-52140000D02*
X158130000Y-54350000D01*
X158170000Y-47881000D02*
X158170000Y-50060000D01*
X158170000Y-52140000D02*
X158170000Y-54319000D01*
X158210000Y-47912000D02*
X158210000Y-50060000D01*
X158210000Y-52140000D02*
X158210000Y-54288000D01*
X158250000Y-47944000D02*
X158250000Y-50060000D01*
X158250000Y-52140000D02*
X158250000Y-54256000D01*
X158290000Y-47977000D02*
X158290000Y-50060000D01*
X158290000Y-52140000D02*
X158290000Y-54223000D01*
X158330000Y-48011000D02*
X158330000Y-50060000D01*
X158330000Y-52140000D02*
X158330000Y-54189000D01*
X158370000Y-48045000D02*
X158370000Y-50060000D01*
X158370000Y-52140000D02*
X158370000Y-54155000D01*
X158410000Y-48081000D02*
X158410000Y-50060000D01*
X158410000Y-52140000D02*
X158410000Y-54119000D01*
X158450000Y-48118000D02*
X158450000Y-50060000D01*
X158450000Y-52140000D02*
X158450000Y-54082000D01*
X158490000Y-48155000D02*
X158490000Y-50060000D01*
X158490000Y-52140000D02*
X158490000Y-54045000D01*
X158530000Y-48194000D02*
X158530000Y-50060000D01*
X158530000Y-52140000D02*
X158530000Y-54006000D01*
X158570000Y-48233000D02*
X158570000Y-50060000D01*
X158570000Y-52140000D02*
X158570000Y-53967000D01*
X158610000Y-48274000D02*
X158610000Y-53926000D01*
X158650000Y-48316000D02*
X158650000Y-53884000D01*
X158690000Y-48359000D02*
X158690000Y-53841000D01*
X158730000Y-48404000D02*
X158730000Y-53796000D01*
X158770000Y-48449000D02*
X158770000Y-53751000D01*
X158810000Y-48496000D02*
X158810000Y-53704000D01*
X158850000Y-48545000D02*
X158850000Y-53655000D01*
X158890000Y-48595000D02*
X158890000Y-53605000D01*
X158930000Y-48647000D02*
X158930000Y-53553000D01*
X158970000Y-48700000D02*
X158970000Y-53500000D01*
X159010000Y-48756000D02*
X159010000Y-53444000D01*
X159050000Y-48813000D02*
X159050000Y-53387000D01*
X159090000Y-48873000D02*
X159090000Y-53327000D01*
X159130000Y-48935000D02*
X159130000Y-53265000D01*
X159170000Y-48999000D02*
X159170000Y-53201000D01*
X159210000Y-49066000D02*
X159210000Y-53134000D01*
X159250000Y-49136000D02*
X159250000Y-53064000D01*
X159290000Y-49210000D02*
X159290000Y-52990000D01*
X159330000Y-49287000D02*
X159330000Y-52913000D01*
X159370000Y-49369000D02*
X159370000Y-52831000D01*
X159410000Y-49456000D02*
X159410000Y-52744000D01*
X159450000Y-49548000D02*
X159450000Y-52652000D01*
X159490000Y-49647000D02*
X159490000Y-52553000D01*
X159530000Y-49754000D02*
X159530000Y-52446000D01*
X159570000Y-49872000D02*
X159570000Y-52328000D01*
X159610000Y-50003000D02*
X159610000Y-52197000D01*
X159650000Y-50153000D02*
X159650000Y-52047000D01*
X159690000Y-50332000D02*
X159690000Y-51868000D01*
X159730000Y-50567000D02*
X159730000Y-51633000D01*
X159770000Y-51100000D02*
G75*
G02*
X151530000Y-51100000I-4120000J0D01*
G01*
X151530000Y-51100000D02*
G75*
G02*
X159770000Y-51100000I4120000J0D01*
G01*
%TO.C,C4*%
X118520000Y-51433000D02*
X118520000Y-50367000D01*
X118560000Y-51668000D02*
X118560000Y-50132000D01*
X118600000Y-51847000D02*
X118600000Y-49953000D01*
X118640000Y-51997000D02*
X118640000Y-49803000D01*
X118680000Y-52128000D02*
X118680000Y-49672000D01*
X118720000Y-52246000D02*
X118720000Y-49554000D01*
X118760000Y-52353000D02*
X118760000Y-49447000D01*
X118800000Y-52452000D02*
X118800000Y-49348000D01*
X118840000Y-52544000D02*
X118840000Y-49256000D01*
X118880000Y-52631000D02*
X118880000Y-49169000D01*
X118920000Y-52713000D02*
X118920000Y-49087000D01*
X118960000Y-52790000D02*
X118960000Y-49010000D01*
X119000000Y-52864000D02*
X119000000Y-48936000D01*
X119040000Y-52934000D02*
X119040000Y-48866000D01*
X119080000Y-53001000D02*
X119080000Y-48799000D01*
X119120000Y-53065000D02*
X119120000Y-48735000D01*
X119160000Y-53127000D02*
X119160000Y-48673000D01*
X119200000Y-53187000D02*
X119200000Y-48613000D01*
X119240000Y-53244000D02*
X119240000Y-48556000D01*
X119280000Y-53300000D02*
X119280000Y-48500000D01*
X119320000Y-53353000D02*
X119320000Y-48447000D01*
X119360000Y-53405000D02*
X119360000Y-48395000D01*
X119400000Y-53455000D02*
X119400000Y-48345000D01*
X119440000Y-53504000D02*
X119440000Y-48296000D01*
X119480000Y-53551000D02*
X119480000Y-48249000D01*
X119520000Y-53596000D02*
X119520000Y-48204000D01*
X119560000Y-53641000D02*
X119560000Y-48159000D01*
X119600000Y-53684000D02*
X119600000Y-48116000D01*
X119640000Y-53726000D02*
X119640000Y-48074000D01*
X119680000Y-49860000D02*
X119680000Y-48033000D01*
X119680000Y-53767000D02*
X119680000Y-51940000D01*
X119720000Y-49860000D02*
X119720000Y-47994000D01*
X119720000Y-53806000D02*
X119720000Y-51940000D01*
X119760000Y-49860000D02*
X119760000Y-47955000D01*
X119760000Y-53845000D02*
X119760000Y-51940000D01*
X119800000Y-49860000D02*
X119800000Y-47918000D01*
X119800000Y-53882000D02*
X119800000Y-51940000D01*
X119840000Y-49860000D02*
X119840000Y-47881000D01*
X119840000Y-53919000D02*
X119840000Y-51940000D01*
X119880000Y-49860000D02*
X119880000Y-47845000D01*
X119880000Y-53955000D02*
X119880000Y-51940000D01*
X119920000Y-49860000D02*
X119920000Y-47811000D01*
X119920000Y-53989000D02*
X119920000Y-51940000D01*
X119960000Y-49860000D02*
X119960000Y-47777000D01*
X119960000Y-54023000D02*
X119960000Y-51940000D01*
X120000000Y-49860000D02*
X120000000Y-47744000D01*
X120000000Y-54056000D02*
X120000000Y-51940000D01*
X120040000Y-49860000D02*
X120040000Y-47712000D01*
X120040000Y-54088000D02*
X120040000Y-51940000D01*
X120080000Y-49860000D02*
X120080000Y-47681000D01*
X120080000Y-54119000D02*
X120080000Y-51940000D01*
X120120000Y-49860000D02*
X120120000Y-47650000D01*
X120120000Y-54150000D02*
X120120000Y-51940000D01*
X120160000Y-49860000D02*
X120160000Y-47620000D01*
X120160000Y-54180000D02*
X120160000Y-51940000D01*
X120200000Y-49860000D02*
X120200000Y-47591000D01*
X120200000Y-54209000D02*
X120200000Y-51940000D01*
X120240000Y-49860000D02*
X120240000Y-47563000D01*
X120240000Y-54237000D02*
X120240000Y-51940000D01*
X120280000Y-49860000D02*
X120280000Y-47535000D01*
X120280000Y-54265000D02*
X120280000Y-51940000D01*
X120320000Y-49860000D02*
X120320000Y-47508000D01*
X120320000Y-54292000D02*
X120320000Y-51940000D01*
X120360000Y-49860000D02*
X120360000Y-47482000D01*
X120360000Y-54318000D02*
X120360000Y-51940000D01*
X120400000Y-49860000D02*
X120400000Y-47457000D01*
X120400000Y-54343000D02*
X120400000Y-51940000D01*
X120440000Y-49860000D02*
X120440000Y-47432000D01*
X120440000Y-54368000D02*
X120440000Y-51940000D01*
X120480000Y-49860000D02*
X120480000Y-47407000D01*
X120480000Y-54393000D02*
X120480000Y-51940000D01*
X120520000Y-49860000D02*
X120520000Y-47384000D01*
X120520000Y-54416000D02*
X120520000Y-51940000D01*
X120560000Y-49860000D02*
X120560000Y-47361000D01*
X120560000Y-54439000D02*
X120560000Y-51940000D01*
X120600000Y-49860000D02*
X120600000Y-47338000D01*
X120600000Y-54462000D02*
X120600000Y-51940000D01*
X120640000Y-49860000D02*
X120640000Y-47316000D01*
X120640000Y-54484000D02*
X120640000Y-51940000D01*
X120680000Y-49860000D02*
X120680000Y-47295000D01*
X120680000Y-54505000D02*
X120680000Y-51940000D01*
X120720000Y-49860000D02*
X120720000Y-47274000D01*
X120720000Y-54526000D02*
X120720000Y-51940000D01*
X120760000Y-49860000D02*
X120760000Y-47254000D01*
X120760000Y-54546000D02*
X120760000Y-51940000D01*
X120800000Y-49860000D02*
X120800000Y-47234000D01*
X120800000Y-54566000D02*
X120800000Y-51940000D01*
X120840000Y-49860000D02*
X120840000Y-47215000D01*
X120840000Y-54585000D02*
X120840000Y-51940000D01*
X120880000Y-49860000D02*
X120880000Y-47196000D01*
X120880000Y-54604000D02*
X120880000Y-51940000D01*
X120920000Y-49860000D02*
X120920000Y-47178000D01*
X120920000Y-54622000D02*
X120920000Y-51940000D01*
X120960000Y-49860000D02*
X120960000Y-47160000D01*
X120960000Y-54640000D02*
X120960000Y-51940000D01*
X121000000Y-49860000D02*
X121000000Y-47143000D01*
X121000000Y-54657000D02*
X121000000Y-51940000D01*
X121040000Y-49860000D02*
X121040000Y-47127000D01*
X121040000Y-54673000D02*
X121040000Y-51940000D01*
X121080000Y-49860000D02*
X121080000Y-47111000D01*
X121080000Y-54689000D02*
X121080000Y-51940000D01*
X121120000Y-49860000D02*
X121120000Y-47095000D01*
X121120000Y-54705000D02*
X121120000Y-51940000D01*
X121160000Y-49860000D02*
X121160000Y-47080000D01*
X121160000Y-54720000D02*
X121160000Y-51940000D01*
X121200000Y-49860000D02*
X121200000Y-47065000D01*
X121200000Y-54735000D02*
X121200000Y-51940000D01*
X121240000Y-49860000D02*
X121240000Y-47051000D01*
X121240000Y-54749000D02*
X121240000Y-51940000D01*
X121280000Y-49860000D02*
X121280000Y-47037000D01*
X121280000Y-54763000D02*
X121280000Y-51940000D01*
X121320000Y-49860000D02*
X121320000Y-47024000D01*
X121320000Y-54776000D02*
X121320000Y-51940000D01*
X121360000Y-49860000D02*
X121360000Y-47011000D01*
X121360000Y-54789000D02*
X121360000Y-51940000D01*
X121400000Y-49860000D02*
X121400000Y-46999000D01*
X121400000Y-54801000D02*
X121400000Y-51940000D01*
X121440000Y-49860000D02*
X121440000Y-46987000D01*
X121440000Y-54813000D02*
X121440000Y-51940000D01*
X121480000Y-49860000D02*
X121480000Y-46975000D01*
X121480000Y-54825000D02*
X121480000Y-51940000D01*
X121520000Y-49860000D02*
X121520000Y-46964000D01*
X121520000Y-54836000D02*
X121520000Y-51940000D01*
X121560000Y-49860000D02*
X121560000Y-46953000D01*
X121560000Y-54847000D02*
X121560000Y-51940000D01*
X121600000Y-49860000D02*
X121600000Y-46943000D01*
X121600000Y-54857000D02*
X121600000Y-51940000D01*
X121640000Y-49860000D02*
X121640000Y-46933000D01*
X121640000Y-54867000D02*
X121640000Y-51940000D01*
X121680000Y-49860000D02*
X121680000Y-46924000D01*
X121680000Y-54876000D02*
X121680000Y-51940000D01*
X121720000Y-49860000D02*
X121720000Y-46915000D01*
X121720000Y-54885000D02*
X121720000Y-51940000D01*
X121760000Y-54893000D02*
X121760000Y-46907000D01*
X121800000Y-54902000D02*
X121800000Y-46898000D01*
X121840000Y-54909000D02*
X121840000Y-46891000D01*
X121880000Y-54917000D02*
X121880000Y-46883000D01*
X121920000Y-54923000D02*
X121920000Y-46877000D01*
X121960000Y-54930000D02*
X121960000Y-46870000D01*
X122000000Y-54936000D02*
X122000000Y-46864000D01*
X122040000Y-54942000D02*
X122040000Y-46858000D01*
X122080000Y-54947000D02*
X122080000Y-46853000D01*
X122120000Y-54952000D02*
X122120000Y-46848000D01*
X122160000Y-54956000D02*
X122160000Y-46844000D01*
X122200000Y-54961000D02*
X122200000Y-46839000D01*
X122240000Y-54964000D02*
X122240000Y-46836000D01*
X122280000Y-54968000D02*
X122280000Y-46832000D01*
X122320000Y-54970000D02*
X122320000Y-46830000D01*
X122360000Y-54973000D02*
X122360000Y-46827000D01*
X122400000Y-54975000D02*
X122400000Y-46825000D01*
X122440000Y-54977000D02*
X122440000Y-46823000D01*
X122480000Y-54978000D02*
X122480000Y-46822000D01*
X122520000Y-54979000D02*
X122520000Y-46821000D01*
X122560000Y-54980000D02*
X122560000Y-46820000D01*
X122600000Y-54980000D02*
X122600000Y-46820000D01*
X126609698Y-53615000D02*
X126609698Y-52815000D01*
X127009698Y-53215000D02*
X126209698Y-53215000D01*
X126720000Y-50900000D02*
G75*
G02*
X118480000Y-50900000I-4120000J0D01*
G01*
X118480000Y-50900000D02*
G75*
G02*
X126720000Y-50900000I4120000J0D01*
G01*
%TO.C,C6*%
X150152677Y-37125000D02*
X151152677Y-37125000D01*
X150652677Y-36625000D02*
X150652677Y-37625000D01*
X155632323Y-34920000D02*
X155632323Y-45080000D01*
X155672323Y-34920000D02*
X155672323Y-45080000D01*
X155712323Y-34921000D02*
X155712323Y-45079000D01*
X155752323Y-34921000D02*
X155752323Y-45079000D01*
X155792323Y-34923000D02*
X155792323Y-45077000D01*
X155832323Y-34924000D02*
X155832323Y-45076000D01*
X155872323Y-34926000D02*
X155872323Y-45074000D01*
X155912323Y-34928000D02*
X155912323Y-45072000D01*
X155952323Y-34930000D02*
X155952323Y-45070000D01*
X155992323Y-34933000D02*
X155992323Y-45067000D01*
X156032323Y-34936000D02*
X156032323Y-45064000D01*
X156072323Y-34939000D02*
X156072323Y-45061000D01*
X156112323Y-34943000D02*
X156112323Y-45057000D01*
X156152323Y-34946000D02*
X156152323Y-45054000D01*
X156192323Y-34951000D02*
X156192323Y-45049000D01*
X156232323Y-34955000D02*
X156232323Y-45045000D01*
X156272323Y-34960000D02*
X156272323Y-45040000D01*
X156312323Y-34965000D02*
X156312323Y-45035000D01*
X156352323Y-34971000D02*
X156352323Y-45029000D01*
X156392323Y-34977000D02*
X156392323Y-45023000D01*
X156432323Y-34983000D02*
X156432323Y-45017000D01*
X156472323Y-34989000D02*
X156472323Y-45011000D01*
X156512323Y-34996000D02*
X156512323Y-45004000D01*
X156552323Y-35003000D02*
X156552323Y-44997000D01*
X156592323Y-35011000D02*
X156592323Y-44989000D01*
X156632323Y-35019000D02*
X156632323Y-44981000D01*
X156672323Y-35027000D02*
X156672323Y-44973000D01*
X156712323Y-35035000D02*
X156712323Y-44965000D01*
X156752323Y-35044000D02*
X156752323Y-44956000D01*
X156792323Y-35053000D02*
X156792323Y-44947000D01*
X156832323Y-35063000D02*
X156832323Y-44937000D01*
X156872323Y-35072000D02*
X156872323Y-44928000D01*
X156912323Y-35083000D02*
X156912323Y-38760000D01*
X156912323Y-41240000D02*
X156912323Y-44917000D01*
X156952323Y-35093000D02*
X156952323Y-38760000D01*
X156952323Y-41240000D02*
X156952323Y-44907000D01*
X156992323Y-35104000D02*
X156992323Y-38760000D01*
X156992323Y-41240000D02*
X156992323Y-44896000D01*
X157032323Y-35115000D02*
X157032323Y-38760000D01*
X157032323Y-41240000D02*
X157032323Y-44885000D01*
X157072323Y-35127000D02*
X157072323Y-38760000D01*
X157072323Y-41240000D02*
X157072323Y-44873000D01*
X157112323Y-35139000D02*
X157112323Y-38760000D01*
X157112323Y-41240000D02*
X157112323Y-44861000D01*
X157152323Y-35151000D02*
X157152323Y-38760000D01*
X157152323Y-41240000D02*
X157152323Y-44849000D01*
X157192323Y-35163000D02*
X157192323Y-38760000D01*
X157192323Y-41240000D02*
X157192323Y-44837000D01*
X157232323Y-35176000D02*
X157232323Y-38760000D01*
X157232323Y-41240000D02*
X157232323Y-44824000D01*
X157272323Y-35190000D02*
X157272323Y-38760000D01*
X157272323Y-41240000D02*
X157272323Y-44810000D01*
X157312323Y-35203000D02*
X157312323Y-38760000D01*
X157312323Y-41240000D02*
X157312323Y-44797000D01*
X157352323Y-35218000D02*
X157352323Y-38760000D01*
X157352323Y-41240000D02*
X157352323Y-44782000D01*
X157392323Y-35232000D02*
X157392323Y-38760000D01*
X157392323Y-41240000D02*
X157392323Y-44768000D01*
X157432323Y-35247000D02*
X157432323Y-38760000D01*
X157432323Y-41240000D02*
X157432323Y-44753000D01*
X157472323Y-35262000D02*
X157472323Y-38760000D01*
X157472323Y-41240000D02*
X157472323Y-44738000D01*
X157512323Y-35278000D02*
X157512323Y-38760000D01*
X157512323Y-41240000D02*
X157512323Y-44722000D01*
X157552323Y-35294000D02*
X157552323Y-38760000D01*
X157552323Y-41240000D02*
X157552323Y-44706000D01*
X157592323Y-35310000D02*
X157592323Y-38760000D01*
X157592323Y-41240000D02*
X157592323Y-44690000D01*
X157632323Y-35327000D02*
X157632323Y-38760000D01*
X157632323Y-41240000D02*
X157632323Y-44673000D01*
X157672323Y-35344000D02*
X157672323Y-38760000D01*
X157672323Y-41240000D02*
X157672323Y-44656000D01*
X157712323Y-35362000D02*
X157712323Y-38760000D01*
X157712323Y-41240000D02*
X157712323Y-44638000D01*
X157752323Y-35380000D02*
X157752323Y-38760000D01*
X157752323Y-41240000D02*
X157752323Y-44620000D01*
X157792323Y-35398000D02*
X157792323Y-38760000D01*
X157792323Y-41240000D02*
X157792323Y-44602000D01*
X157832323Y-35417000D02*
X157832323Y-38760000D01*
X157832323Y-41240000D02*
X157832323Y-44583000D01*
X157872323Y-35436000D02*
X157872323Y-38760000D01*
X157872323Y-41240000D02*
X157872323Y-44564000D01*
X157912323Y-35456000D02*
X157912323Y-38760000D01*
X157912323Y-41240000D02*
X157912323Y-44544000D01*
X157952323Y-35476000D02*
X157952323Y-38760000D01*
X157952323Y-41240000D02*
X157952323Y-44524000D01*
X157992323Y-35496000D02*
X157992323Y-38760000D01*
X157992323Y-41240000D02*
X157992323Y-44504000D01*
X158032323Y-35517000D02*
X158032323Y-38760000D01*
X158032323Y-41240000D02*
X158032323Y-44483000D01*
X158072323Y-35539000D02*
X158072323Y-38760000D01*
X158072323Y-41240000D02*
X158072323Y-44461000D01*
X158112323Y-35561000D02*
X158112323Y-38760000D01*
X158112323Y-41240000D02*
X158112323Y-44439000D01*
X158152323Y-35583000D02*
X158152323Y-38760000D01*
X158152323Y-41240000D02*
X158152323Y-44417000D01*
X158192323Y-35606000D02*
X158192323Y-38760000D01*
X158192323Y-41240000D02*
X158192323Y-44394000D01*
X158232323Y-35629000D02*
X158232323Y-38760000D01*
X158232323Y-41240000D02*
X158232323Y-44371000D01*
X158272323Y-35653000D02*
X158272323Y-38760000D01*
X158272323Y-41240000D02*
X158272323Y-44347000D01*
X158312323Y-35677000D02*
X158312323Y-38760000D01*
X158312323Y-41240000D02*
X158312323Y-44323000D01*
X158352323Y-35702000D02*
X158352323Y-38760000D01*
X158352323Y-41240000D02*
X158352323Y-44298000D01*
X158392323Y-35728000D02*
X158392323Y-38760000D01*
X158392323Y-41240000D02*
X158392323Y-44272000D01*
X158432323Y-35753000D02*
X158432323Y-38760000D01*
X158432323Y-41240000D02*
X158432323Y-44247000D01*
X158472323Y-35780000D02*
X158472323Y-38760000D01*
X158472323Y-41240000D02*
X158472323Y-44220000D01*
X158512323Y-35807000D02*
X158512323Y-38760000D01*
X158512323Y-41240000D02*
X158512323Y-44193000D01*
X158552323Y-35834000D02*
X158552323Y-38760000D01*
X158552323Y-41240000D02*
X158552323Y-44166000D01*
X158592323Y-35862000D02*
X158592323Y-38760000D01*
X158592323Y-41240000D02*
X158592323Y-44138000D01*
X158632323Y-35891000D02*
X158632323Y-38760000D01*
X158632323Y-41240000D02*
X158632323Y-44109000D01*
X158672323Y-35920000D02*
X158672323Y-38760000D01*
X158672323Y-41240000D02*
X158672323Y-44080000D01*
X158712323Y-35950000D02*
X158712323Y-38760000D01*
X158712323Y-41240000D02*
X158712323Y-44050000D01*
X158752323Y-35980000D02*
X158752323Y-38760000D01*
X158752323Y-41240000D02*
X158752323Y-44020000D01*
X158792323Y-36012000D02*
X158792323Y-38760000D01*
X158792323Y-41240000D02*
X158792323Y-43988000D01*
X158832323Y-36043000D02*
X158832323Y-38760000D01*
X158832323Y-41240000D02*
X158832323Y-43957000D01*
X158872323Y-36076000D02*
X158872323Y-38760000D01*
X158872323Y-41240000D02*
X158872323Y-43924000D01*
X158912323Y-36109000D02*
X158912323Y-38760000D01*
X158912323Y-41240000D02*
X158912323Y-43891000D01*
X158952323Y-36142000D02*
X158952323Y-38760000D01*
X158952323Y-41240000D02*
X158952323Y-43858000D01*
X158992323Y-36177000D02*
X158992323Y-38760000D01*
X158992323Y-41240000D02*
X158992323Y-43823000D01*
X159032323Y-36212000D02*
X159032323Y-38760000D01*
X159032323Y-41240000D02*
X159032323Y-43788000D01*
X159072323Y-36248000D02*
X159072323Y-38760000D01*
X159072323Y-41240000D02*
X159072323Y-43752000D01*
X159112323Y-36284000D02*
X159112323Y-38760000D01*
X159112323Y-41240000D02*
X159112323Y-43716000D01*
X159152323Y-36322000D02*
X159152323Y-38760000D01*
X159152323Y-41240000D02*
X159152323Y-43678000D01*
X159192323Y-36360000D02*
X159192323Y-38760000D01*
X159192323Y-41240000D02*
X159192323Y-43640000D01*
X159232323Y-36399000D02*
X159232323Y-38760000D01*
X159232323Y-41240000D02*
X159232323Y-43601000D01*
X159272323Y-36439000D02*
X159272323Y-38760000D01*
X159272323Y-41240000D02*
X159272323Y-43561000D01*
X159312323Y-36480000D02*
X159312323Y-38760000D01*
X159312323Y-41240000D02*
X159312323Y-43520000D01*
X159352323Y-36522000D02*
X159352323Y-38760000D01*
X159352323Y-41240000D02*
X159352323Y-43478000D01*
X159392323Y-36565000D02*
X159392323Y-43435000D01*
X159432323Y-36609000D02*
X159432323Y-43391000D01*
X159472323Y-36653000D02*
X159472323Y-43347000D01*
X159512323Y-36699000D02*
X159512323Y-43301000D01*
X159552323Y-36746000D02*
X159552323Y-43254000D01*
X159592323Y-36795000D02*
X159592323Y-43205000D01*
X159632323Y-36844000D02*
X159632323Y-43156000D01*
X159672323Y-36895000D02*
X159672323Y-43105000D01*
X159712323Y-36947000D02*
X159712323Y-43053000D01*
X159752323Y-37000000D02*
X159752323Y-43000000D01*
X159792323Y-37055000D02*
X159792323Y-42945000D01*
X159832323Y-37112000D02*
X159832323Y-42888000D01*
X159872323Y-37170000D02*
X159872323Y-42830000D01*
X159912323Y-37230000D02*
X159912323Y-42770000D01*
X159952323Y-37292000D02*
X159952323Y-42708000D01*
X159992323Y-37356000D02*
X159992323Y-42644000D01*
X160032323Y-37422000D02*
X160032323Y-42578000D01*
X160072323Y-37490000D02*
X160072323Y-42510000D01*
X160112323Y-37561000D02*
X160112323Y-42439000D01*
X160152323Y-37635000D02*
X160152323Y-42365000D01*
X160192323Y-37712000D02*
X160192323Y-42288000D01*
X160232323Y-37792000D02*
X160232323Y-42208000D01*
X160272323Y-37876000D02*
X160272323Y-42124000D01*
X160312323Y-37963000D02*
X160312323Y-42037000D01*
X160352323Y-38056000D02*
X160352323Y-41944000D01*
X160392323Y-38154000D02*
X160392323Y-41846000D01*
X160432323Y-38258000D02*
X160432323Y-41742000D01*
X160472323Y-38370000D02*
X160472323Y-41630000D01*
X160512323Y-38491000D02*
X160512323Y-41509000D01*
X160552323Y-38623000D02*
X160552323Y-41377000D01*
X160592323Y-38770000D02*
X160592323Y-41230000D01*
X160632323Y-38938000D02*
X160632323Y-41062000D01*
X160672323Y-39138000D02*
X160672323Y-40862000D01*
X160712323Y-39401000D02*
X160712323Y-40599000D01*
X160752323Y-40000000D02*
G75*
G02*
X150512323Y-40000000I-5120000J0D01*
G01*
X150512323Y-40000000D02*
G75*
G02*
X160752323Y-40000000I5120000J0D01*
G01*
%TO.C,C3*%
X129330000Y-48440000D02*
X129865000Y-48440000D01*
X129330000Y-54680000D02*
X129330000Y-48440000D01*
X129865000Y-54680000D02*
X129330000Y-54680000D01*
X131535000Y-48440000D02*
X132070000Y-48440000D01*
X132070000Y-48440000D02*
X132070000Y-54680000D01*
X132070000Y-54680000D02*
X131535000Y-54680000D01*
%TO.C,D1*%
X120170000Y-37455000D02*
X120170000Y-40545000D01*
X120170000Y-37455170D02*
G75*
G02*
X125720000Y-39000000I2560000J-1544830D01*
G01*
X125720000Y-39000000D02*
G75*
G02*
X120170000Y-40544830I-2990000J0D01*
G01*
X125230000Y-39000000D02*
G75*
G02*
X120230000Y-39000000I-2500000J0D01*
G01*
X120230000Y-39000000D02*
G75*
G02*
X125230000Y-39000000I2500000J0D01*
G01*
%TO.C,R2*%
X82730000Y-34130000D02*
X89270000Y-34130000D01*
X82730000Y-34460000D02*
X82730000Y-34130000D01*
X82730000Y-36540000D02*
X82730000Y-36870000D01*
X82730000Y-36870000D02*
X89270000Y-36870000D01*
X89270000Y-34130000D02*
X89270000Y-34460000D01*
X89270000Y-36870000D02*
X89270000Y-36540000D01*
%TO.C,R1*%
X134330000Y-48480000D02*
X134660000Y-48480000D01*
X134330000Y-55020000D02*
X134330000Y-48480000D01*
X134660000Y-55020000D02*
X134330000Y-55020000D01*
X136740000Y-55020000D02*
X137070000Y-55020000D01*
X137070000Y-48480000D02*
X136740000Y-48480000D01*
X137070000Y-55020000D02*
X137070000Y-48480000D01*
%TO.C,IN1*%
X149420000Y-61690000D02*
X149420000Y-68040000D01*
X159580000Y-61690000D02*
X149420000Y-61690000D01*
X159580000Y-68000000D02*
X159580000Y-61690000D01*
X159580000Y-68040000D02*
X149420000Y-68040000D01*
%TO.C,OUT1*%
X92570000Y-70960000D02*
X92570000Y-77310000D01*
X92570000Y-70960000D02*
X102730000Y-70960000D01*
X92570000Y-77310000D02*
X102730000Y-77310000D01*
X102730000Y-77310000D02*
X102730000Y-70960000D01*
%TO.C,C1*%
X94280000Y-95380000D02*
X101720000Y-95380000D01*
X94280000Y-99120000D02*
X94280000Y-95380000D01*
X101720000Y-95380000D02*
X101720000Y-99120000D01*
X101720000Y-99120000D02*
X94280000Y-99120000D01*
%TO.C,RV1*%
X84890000Y-101140000D02*
X101110000Y-101140000D01*
X84890000Y-108860000D02*
X84890000Y-101140000D01*
X89390000Y-108860000D02*
X96610000Y-108860000D01*
X101110000Y-101140000D02*
X101110000Y-108860000D01*
X101110000Y-108860000D02*
X84890000Y-108860000D01*
%TO.C,C5*%
X84380000Y-81630000D02*
X90620000Y-81630000D01*
X84380000Y-82165000D02*
X84380000Y-81630000D01*
X84380000Y-84370000D02*
X84380000Y-83835000D01*
X90620000Y-81630000D02*
X90620000Y-82165000D01*
X90620000Y-83835000D02*
X90620000Y-84370000D01*
X90620000Y-84370000D02*
X84380000Y-84370000D01*
%TO.C,U1*%
X95750000Y-80920000D02*
X95750000Y-91200000D01*
X95750000Y-91200000D02*
X100250000Y-91200000D01*
X97000000Y-80920000D02*
X95750000Y-80920000D01*
X100250000Y-80920000D02*
X99000000Y-80920000D01*
X100250000Y-91200000D02*
X100250000Y-80920000D01*
X99000000Y-80920000D02*
G75*
G02*
X97000000Y-80920000I-1000000J0D01*
G01*
%TO.C,VCC1*%
X72880000Y-103690000D02*
X72880000Y-110040000D01*
X83040000Y-103690000D02*
X72880000Y-103690000D01*
X83040000Y-110040000D02*
X72880000Y-110040000D01*
X83040000Y-110040000D02*
X83040000Y-103690000D01*
%TO.C,R1*%
X88330000Y-90480000D02*
X88660000Y-90480000D01*
X88330000Y-97020000D02*
X88330000Y-90480000D01*
X88660000Y-97020000D02*
X88330000Y-97020000D01*
X90740000Y-97020000D02*
X91070000Y-97020000D01*
X91070000Y-90480000D02*
X90740000Y-90480000D01*
X91070000Y-97020000D02*
X91070000Y-90480000D01*
%TO.C,D1*%
X74170000Y-79455000D02*
X74170000Y-82545000D01*
X74170000Y-79455170D02*
G75*
G02*
X79720000Y-81000000I2560000J-1544830D01*
G01*
X79720000Y-81000000D02*
G75*
G02*
X74170000Y-82544830I-2990000J0D01*
G01*
X79230000Y-81000000D02*
G75*
G02*
X74230000Y-81000000I-2500000J0D01*
G01*
X74230000Y-81000000D02*
G75*
G02*
X79230000Y-81000000I2500000J0D01*
G01*
%TO.C,C2*%
X105240302Y-90785000D02*
X106040302Y-90785000D01*
X105640302Y-90385000D02*
X105640302Y-91185000D01*
X109650000Y-89020000D02*
X109650000Y-97180000D01*
X109690000Y-89020000D02*
X109690000Y-97180000D01*
X109730000Y-89021000D02*
X109730000Y-97179000D01*
X109770000Y-89022000D02*
X109770000Y-97178000D01*
X109810000Y-89023000D02*
X109810000Y-97177000D01*
X109850000Y-89025000D02*
X109850000Y-97175000D01*
X109890000Y-89027000D02*
X109890000Y-97173000D01*
X109930000Y-89030000D02*
X109930000Y-97170000D01*
X109970000Y-89032000D02*
X109970000Y-97168000D01*
X110010000Y-89036000D02*
X110010000Y-97164000D01*
X110050000Y-89039000D02*
X110050000Y-97161000D01*
X110090000Y-89044000D02*
X110090000Y-97156000D01*
X110130000Y-89048000D02*
X110130000Y-97152000D01*
X110170000Y-89053000D02*
X110170000Y-97147000D01*
X110210000Y-89058000D02*
X110210000Y-97142000D01*
X110250000Y-89064000D02*
X110250000Y-97136000D01*
X110290000Y-89070000D02*
X110290000Y-97130000D01*
X110330000Y-89077000D02*
X110330000Y-97123000D01*
X110370000Y-89083000D02*
X110370000Y-97117000D01*
X110410000Y-89091000D02*
X110410000Y-97109000D01*
X110450000Y-89098000D02*
X110450000Y-97102000D01*
X110490000Y-89107000D02*
X110490000Y-97093000D01*
X110530000Y-89115000D02*
X110530000Y-92060000D01*
X110530000Y-94140000D02*
X110530000Y-97085000D01*
X110570000Y-89124000D02*
X110570000Y-92060000D01*
X110570000Y-94140000D02*
X110570000Y-97076000D01*
X110610000Y-89133000D02*
X110610000Y-92060000D01*
X110610000Y-94140000D02*
X110610000Y-97067000D01*
X110650000Y-89143000D02*
X110650000Y-92060000D01*
X110650000Y-94140000D02*
X110650000Y-97057000D01*
X110690000Y-89153000D02*
X110690000Y-92060000D01*
X110690000Y-94140000D02*
X110690000Y-97047000D01*
X110730000Y-89164000D02*
X110730000Y-92060000D01*
X110730000Y-94140000D02*
X110730000Y-97036000D01*
X110770000Y-89175000D02*
X110770000Y-92060000D01*
X110770000Y-94140000D02*
X110770000Y-97025000D01*
X110810000Y-89187000D02*
X110810000Y-92060000D01*
X110810000Y-94140000D02*
X110810000Y-97013000D01*
X110850000Y-89199000D02*
X110850000Y-92060000D01*
X110850000Y-94140000D02*
X110850000Y-97001000D01*
X110890000Y-89211000D02*
X110890000Y-92060000D01*
X110890000Y-94140000D02*
X110890000Y-96989000D01*
X110930000Y-89224000D02*
X110930000Y-92060000D01*
X110930000Y-94140000D02*
X110930000Y-96976000D01*
X110970000Y-89237000D02*
X110970000Y-92060000D01*
X110970000Y-94140000D02*
X110970000Y-96963000D01*
X111010000Y-89251000D02*
X111010000Y-92060000D01*
X111010000Y-94140000D02*
X111010000Y-96949000D01*
X111050000Y-89265000D02*
X111050000Y-92060000D01*
X111050000Y-94140000D02*
X111050000Y-96935000D01*
X111090000Y-89280000D02*
X111090000Y-92060000D01*
X111090000Y-94140000D02*
X111090000Y-96920000D01*
X111130000Y-89295000D02*
X111130000Y-92060000D01*
X111130000Y-94140000D02*
X111130000Y-96905000D01*
X111170000Y-89311000D02*
X111170000Y-92060000D01*
X111170000Y-94140000D02*
X111170000Y-96889000D01*
X111210000Y-89327000D02*
X111210000Y-92060000D01*
X111210000Y-94140000D02*
X111210000Y-96873000D01*
X111250000Y-89343000D02*
X111250000Y-92060000D01*
X111250000Y-94140000D02*
X111250000Y-96857000D01*
X111290000Y-89360000D02*
X111290000Y-92060000D01*
X111290000Y-94140000D02*
X111290000Y-96840000D01*
X111330000Y-89378000D02*
X111330000Y-92060000D01*
X111330000Y-94140000D02*
X111330000Y-96822000D01*
X111370000Y-89396000D02*
X111370000Y-92060000D01*
X111370000Y-94140000D02*
X111370000Y-96804000D01*
X111410000Y-89415000D02*
X111410000Y-92060000D01*
X111410000Y-94140000D02*
X111410000Y-96785000D01*
X111450000Y-89434000D02*
X111450000Y-92060000D01*
X111450000Y-94140000D02*
X111450000Y-96766000D01*
X111490000Y-89454000D02*
X111490000Y-92060000D01*
X111490000Y-94140000D02*
X111490000Y-96746000D01*
X111530000Y-89474000D02*
X111530000Y-92060000D01*
X111530000Y-94140000D02*
X111530000Y-96726000D01*
X111570000Y-89495000D02*
X111570000Y-92060000D01*
X111570000Y-94140000D02*
X111570000Y-96705000D01*
X111610000Y-89516000D02*
X111610000Y-92060000D01*
X111610000Y-94140000D02*
X111610000Y-96684000D01*
X111650000Y-89538000D02*
X111650000Y-92060000D01*
X111650000Y-94140000D02*
X111650000Y-96662000D01*
X111690000Y-89561000D02*
X111690000Y-92060000D01*
X111690000Y-94140000D02*
X111690000Y-96639000D01*
X111730000Y-89584000D02*
X111730000Y-92060000D01*
X111730000Y-94140000D02*
X111730000Y-96616000D01*
X111770000Y-89607000D02*
X111770000Y-92060000D01*
X111770000Y-94140000D02*
X111770000Y-96593000D01*
X111810000Y-89632000D02*
X111810000Y-92060000D01*
X111810000Y-94140000D02*
X111810000Y-96568000D01*
X111850000Y-89657000D02*
X111850000Y-92060000D01*
X111850000Y-94140000D02*
X111850000Y-96543000D01*
X111890000Y-89682000D02*
X111890000Y-92060000D01*
X111890000Y-94140000D02*
X111890000Y-96518000D01*
X111930000Y-89708000D02*
X111930000Y-92060000D01*
X111930000Y-94140000D02*
X111930000Y-96492000D01*
X111970000Y-89735000D02*
X111970000Y-92060000D01*
X111970000Y-94140000D02*
X111970000Y-96465000D01*
X112010000Y-89763000D02*
X112010000Y-92060000D01*
X112010000Y-94140000D02*
X112010000Y-96437000D01*
X112050000Y-89791000D02*
X112050000Y-92060000D01*
X112050000Y-94140000D02*
X112050000Y-96409000D01*
X112090000Y-89820000D02*
X112090000Y-92060000D01*
X112090000Y-94140000D02*
X112090000Y-96380000D01*
X112130000Y-89850000D02*
X112130000Y-92060000D01*
X112130000Y-94140000D02*
X112130000Y-96350000D01*
X112170000Y-89881000D02*
X112170000Y-92060000D01*
X112170000Y-94140000D02*
X112170000Y-96319000D01*
X112210000Y-89912000D02*
X112210000Y-92060000D01*
X112210000Y-94140000D02*
X112210000Y-96288000D01*
X112250000Y-89944000D02*
X112250000Y-92060000D01*
X112250000Y-94140000D02*
X112250000Y-96256000D01*
X112290000Y-89977000D02*
X112290000Y-92060000D01*
X112290000Y-94140000D02*
X112290000Y-96223000D01*
X112330000Y-90011000D02*
X112330000Y-92060000D01*
X112330000Y-94140000D02*
X112330000Y-96189000D01*
X112370000Y-90045000D02*
X112370000Y-92060000D01*
X112370000Y-94140000D02*
X112370000Y-96155000D01*
X112410000Y-90081000D02*
X112410000Y-92060000D01*
X112410000Y-94140000D02*
X112410000Y-96119000D01*
X112450000Y-90118000D02*
X112450000Y-92060000D01*
X112450000Y-94140000D02*
X112450000Y-96082000D01*
X112490000Y-90155000D02*
X112490000Y-92060000D01*
X112490000Y-94140000D02*
X112490000Y-96045000D01*
X112530000Y-90194000D02*
X112530000Y-92060000D01*
X112530000Y-94140000D02*
X112530000Y-96006000D01*
X112570000Y-90233000D02*
X112570000Y-92060000D01*
X112570000Y-94140000D02*
X112570000Y-95967000D01*
X112610000Y-90274000D02*
X112610000Y-95926000D01*
X112650000Y-90316000D02*
X112650000Y-95884000D01*
X112690000Y-90359000D02*
X112690000Y-95841000D01*
X112730000Y-90404000D02*
X112730000Y-95796000D01*
X112770000Y-90449000D02*
X112770000Y-95751000D01*
X112810000Y-90496000D02*
X112810000Y-95704000D01*
X112850000Y-90545000D02*
X112850000Y-95655000D01*
X112890000Y-90595000D02*
X112890000Y-95605000D01*
X112930000Y-90647000D02*
X112930000Y-95553000D01*
X112970000Y-90700000D02*
X112970000Y-95500000D01*
X113010000Y-90756000D02*
X113010000Y-95444000D01*
X113050000Y-90813000D02*
X113050000Y-95387000D01*
X113090000Y-90873000D02*
X113090000Y-95327000D01*
X113130000Y-90935000D02*
X113130000Y-95265000D01*
X113170000Y-90999000D02*
X113170000Y-95201000D01*
X113210000Y-91066000D02*
X113210000Y-95134000D01*
X113250000Y-91136000D02*
X113250000Y-95064000D01*
X113290000Y-91210000D02*
X113290000Y-94990000D01*
X113330000Y-91287000D02*
X113330000Y-94913000D01*
X113370000Y-91369000D02*
X113370000Y-94831000D01*
X113410000Y-91456000D02*
X113410000Y-94744000D01*
X113450000Y-91548000D02*
X113450000Y-94652000D01*
X113490000Y-91647000D02*
X113490000Y-94553000D01*
X113530000Y-91754000D02*
X113530000Y-94446000D01*
X113570000Y-91872000D02*
X113570000Y-94328000D01*
X113610000Y-92003000D02*
X113610000Y-94197000D01*
X113650000Y-92153000D02*
X113650000Y-94047000D01*
X113690000Y-92332000D02*
X113690000Y-93868000D01*
X113730000Y-92567000D02*
X113730000Y-93633000D01*
X113770000Y-93100000D02*
G75*
G02*
X105530000Y-93100000I-4120000J0D01*
G01*
X105530000Y-93100000D02*
G75*
G02*
X113770000Y-93100000I4120000J0D01*
G01*
%TO.C,R2*%
X128730000Y-34130000D02*
X135270000Y-34130000D01*
X128730000Y-34460000D02*
X128730000Y-34130000D01*
X128730000Y-36540000D02*
X128730000Y-36870000D01*
X128730000Y-36870000D02*
X135270000Y-36870000D01*
X135270000Y-34130000D02*
X135270000Y-34460000D01*
X135270000Y-36870000D02*
X135270000Y-36540000D01*
%TO.C,IN1*%
X103420000Y-103690000D02*
X103420000Y-110040000D01*
X113580000Y-103690000D02*
X103420000Y-103690000D01*
X113580000Y-110000000D02*
X113580000Y-103690000D01*
X113580000Y-110040000D02*
X103420000Y-110040000D01*
%TO.C,C3*%
X83330000Y-90440000D02*
X83865000Y-90440000D01*
X83330000Y-96680000D02*
X83330000Y-90440000D01*
X83865000Y-96680000D02*
X83330000Y-96680000D01*
X85535000Y-90440000D02*
X86070000Y-90440000D01*
X86070000Y-90440000D02*
X86070000Y-96680000D01*
X86070000Y-96680000D02*
X85535000Y-96680000D01*
%TO.C,C4*%
X72520000Y-93433000D02*
X72520000Y-92367000D01*
X72560000Y-93668000D02*
X72560000Y-92132000D01*
X72600000Y-93847000D02*
X72600000Y-91953000D01*
X72640000Y-93997000D02*
X72640000Y-91803000D01*
X72680000Y-94128000D02*
X72680000Y-91672000D01*
X72720000Y-94246000D02*
X72720000Y-91554000D01*
X72760000Y-94353000D02*
X72760000Y-91447000D01*
X72800000Y-94452000D02*
X72800000Y-91348000D01*
X72840000Y-94544000D02*
X72840000Y-91256000D01*
X72880000Y-94631000D02*
X72880000Y-91169000D01*
X72920000Y-94713000D02*
X72920000Y-91087000D01*
X72960000Y-94790000D02*
X72960000Y-91010000D01*
X73000000Y-94864000D02*
X73000000Y-90936000D01*
X73040000Y-94934000D02*
X73040000Y-90866000D01*
X73080000Y-95001000D02*
X73080000Y-90799000D01*
X73120000Y-95065000D02*
X73120000Y-90735000D01*
X73160000Y-95127000D02*
X73160000Y-90673000D01*
X73200000Y-95187000D02*
X73200000Y-90613000D01*
X73240000Y-95244000D02*
X73240000Y-90556000D01*
X73280000Y-95300000D02*
X73280000Y-90500000D01*
X73320000Y-95353000D02*
X73320000Y-90447000D01*
X73360000Y-95405000D02*
X73360000Y-90395000D01*
X73400000Y-95455000D02*
X73400000Y-90345000D01*
X73440000Y-95504000D02*
X73440000Y-90296000D01*
X73480000Y-95551000D02*
X73480000Y-90249000D01*
X73520000Y-95596000D02*
X73520000Y-90204000D01*
X73560000Y-95641000D02*
X73560000Y-90159000D01*
X73600000Y-95684000D02*
X73600000Y-90116000D01*
X73640000Y-95726000D02*
X73640000Y-90074000D01*
X73680000Y-91860000D02*
X73680000Y-90033000D01*
X73680000Y-95767000D02*
X73680000Y-93940000D01*
X73720000Y-91860000D02*
X73720000Y-89994000D01*
X73720000Y-95806000D02*
X73720000Y-93940000D01*
X73760000Y-91860000D02*
X73760000Y-89955000D01*
X73760000Y-95845000D02*
X73760000Y-93940000D01*
X73800000Y-91860000D02*
X73800000Y-89918000D01*
X73800000Y-95882000D02*
X73800000Y-93940000D01*
X73840000Y-91860000D02*
X73840000Y-89881000D01*
X73840000Y-95919000D02*
X73840000Y-93940000D01*
X73880000Y-91860000D02*
X73880000Y-89845000D01*
X73880000Y-95955000D02*
X73880000Y-93940000D01*
X73920000Y-91860000D02*
X73920000Y-89811000D01*
X73920000Y-95989000D02*
X73920000Y-93940000D01*
X73960000Y-91860000D02*
X73960000Y-89777000D01*
X73960000Y-96023000D02*
X73960000Y-93940000D01*
X74000000Y-91860000D02*
X74000000Y-89744000D01*
X74000000Y-96056000D02*
X74000000Y-93940000D01*
X74040000Y-91860000D02*
X74040000Y-89712000D01*
X74040000Y-96088000D02*
X74040000Y-93940000D01*
X74080000Y-91860000D02*
X74080000Y-89681000D01*
X74080000Y-96119000D02*
X74080000Y-93940000D01*
X74120000Y-91860000D02*
X74120000Y-89650000D01*
X74120000Y-96150000D02*
X74120000Y-93940000D01*
X74160000Y-91860000D02*
X74160000Y-89620000D01*
X74160000Y-96180000D02*
X74160000Y-93940000D01*
X74200000Y-91860000D02*
X74200000Y-89591000D01*
X74200000Y-96209000D02*
X74200000Y-93940000D01*
X74240000Y-91860000D02*
X74240000Y-89563000D01*
X74240000Y-96237000D02*
X74240000Y-93940000D01*
X74280000Y-91860000D02*
X74280000Y-89535000D01*
X74280000Y-96265000D02*
X74280000Y-93940000D01*
X74320000Y-91860000D02*
X74320000Y-89508000D01*
X74320000Y-96292000D02*
X74320000Y-93940000D01*
X74360000Y-91860000D02*
X74360000Y-89482000D01*
X74360000Y-96318000D02*
X74360000Y-93940000D01*
X74400000Y-91860000D02*
X74400000Y-89457000D01*
X74400000Y-96343000D02*
X74400000Y-93940000D01*
X74440000Y-91860000D02*
X74440000Y-89432000D01*
X74440000Y-96368000D02*
X74440000Y-93940000D01*
X74480000Y-91860000D02*
X74480000Y-89407000D01*
X74480000Y-96393000D02*
X74480000Y-93940000D01*
X74520000Y-91860000D02*
X74520000Y-89384000D01*
X74520000Y-96416000D02*
X74520000Y-93940000D01*
X74560000Y-91860000D02*
X74560000Y-89361000D01*
X74560000Y-96439000D02*
X74560000Y-93940000D01*
X74600000Y-91860000D02*
X74600000Y-89338000D01*
X74600000Y-96462000D02*
X74600000Y-93940000D01*
X74640000Y-91860000D02*
X74640000Y-89316000D01*
X74640000Y-96484000D02*
X74640000Y-93940000D01*
X74680000Y-91860000D02*
X74680000Y-89295000D01*
X74680000Y-96505000D02*
X74680000Y-93940000D01*
X74720000Y-91860000D02*
X74720000Y-89274000D01*
X74720000Y-96526000D02*
X74720000Y-93940000D01*
X74760000Y-91860000D02*
X74760000Y-89254000D01*
X74760000Y-96546000D02*
X74760000Y-93940000D01*
X74800000Y-91860000D02*
X74800000Y-89234000D01*
X74800000Y-96566000D02*
X74800000Y-93940000D01*
X74840000Y-91860000D02*
X74840000Y-89215000D01*
X74840000Y-96585000D02*
X74840000Y-93940000D01*
X74880000Y-91860000D02*
X74880000Y-89196000D01*
X74880000Y-96604000D02*
X74880000Y-93940000D01*
X74920000Y-91860000D02*
X74920000Y-89178000D01*
X74920000Y-96622000D02*
X74920000Y-93940000D01*
X74960000Y-91860000D02*
X74960000Y-89160000D01*
X74960000Y-96640000D02*
X74960000Y-93940000D01*
X75000000Y-91860000D02*
X75000000Y-89143000D01*
X75000000Y-96657000D02*
X75000000Y-93940000D01*
X75040000Y-91860000D02*
X75040000Y-89127000D01*
X75040000Y-96673000D02*
X75040000Y-93940000D01*
X75080000Y-91860000D02*
X75080000Y-89111000D01*
X75080000Y-96689000D02*
X75080000Y-93940000D01*
X75120000Y-91860000D02*
X75120000Y-89095000D01*
X75120000Y-96705000D02*
X75120000Y-93940000D01*
X75160000Y-91860000D02*
X75160000Y-89080000D01*
X75160000Y-96720000D02*
X75160000Y-93940000D01*
X75200000Y-91860000D02*
X75200000Y-89065000D01*
X75200000Y-96735000D02*
X75200000Y-93940000D01*
X75240000Y-91860000D02*
X75240000Y-89051000D01*
X75240000Y-96749000D02*
X75240000Y-93940000D01*
X75280000Y-91860000D02*
X75280000Y-89037000D01*
X75280000Y-96763000D02*
X75280000Y-93940000D01*
X75320000Y-91860000D02*
X75320000Y-89024000D01*
X75320000Y-96776000D02*
X75320000Y-93940000D01*
X75360000Y-91860000D02*
X75360000Y-89011000D01*
X75360000Y-96789000D02*
X75360000Y-93940000D01*
X75400000Y-91860000D02*
X75400000Y-88999000D01*
X75400000Y-96801000D02*
X75400000Y-93940000D01*
X75440000Y-91860000D02*
X75440000Y-88987000D01*
X75440000Y-96813000D02*
X75440000Y-93940000D01*
X75480000Y-91860000D02*
X75480000Y-88975000D01*
X75480000Y-96825000D02*
X75480000Y-93940000D01*
X75520000Y-91860000D02*
X75520000Y-88964000D01*
X75520000Y-96836000D02*
X75520000Y-93940000D01*
X75560000Y-91860000D02*
X75560000Y-88953000D01*
X75560000Y-96847000D02*
X75560000Y-93940000D01*
X75600000Y-91860000D02*
X75600000Y-88943000D01*
X75600000Y-96857000D02*
X75600000Y-93940000D01*
X75640000Y-91860000D02*
X75640000Y-88933000D01*
X75640000Y-96867000D02*
X75640000Y-93940000D01*
X75680000Y-91860000D02*
X75680000Y-88924000D01*
X75680000Y-96876000D02*
X75680000Y-93940000D01*
X75720000Y-91860000D02*
X75720000Y-88915000D01*
X75720000Y-96885000D02*
X75720000Y-93940000D01*
X75760000Y-96893000D02*
X75760000Y-88907000D01*
X75800000Y-96902000D02*
X75800000Y-88898000D01*
X75840000Y-96909000D02*
X75840000Y-88891000D01*
X75880000Y-96917000D02*
X75880000Y-88883000D01*
X75920000Y-96923000D02*
X75920000Y-88877000D01*
X75960000Y-96930000D02*
X75960000Y-88870000D01*
X76000000Y-96936000D02*
X76000000Y-88864000D01*
X76040000Y-96942000D02*
X76040000Y-88858000D01*
X76080000Y-96947000D02*
X76080000Y-88853000D01*
X76120000Y-96952000D02*
X76120000Y-88848000D01*
X76160000Y-96956000D02*
X76160000Y-88844000D01*
X76200000Y-96961000D02*
X76200000Y-88839000D01*
X76240000Y-96964000D02*
X76240000Y-88836000D01*
X76280000Y-96968000D02*
X76280000Y-88832000D01*
X76320000Y-96970000D02*
X76320000Y-88830000D01*
X76360000Y-96973000D02*
X76360000Y-88827000D01*
X76400000Y-96975000D02*
X76400000Y-88825000D01*
X76440000Y-96977000D02*
X76440000Y-88823000D01*
X76480000Y-96978000D02*
X76480000Y-88822000D01*
X76520000Y-96979000D02*
X76520000Y-88821000D01*
X76560000Y-96980000D02*
X76560000Y-88820000D01*
X76600000Y-96980000D02*
X76600000Y-88820000D01*
X80609698Y-95615000D02*
X80609698Y-94815000D01*
X81009698Y-95215000D02*
X80209698Y-95215000D01*
X80720000Y-92900000D02*
G75*
G02*
X72480000Y-92900000I-4120000J0D01*
G01*
X72480000Y-92900000D02*
G75*
G02*
X80720000Y-92900000I4120000J0D01*
G01*
%TO.C,C6*%
X104152677Y-79125000D02*
X105152677Y-79125000D01*
X104652677Y-78625000D02*
X104652677Y-79625000D01*
X109632323Y-76920000D02*
X109632323Y-87080000D01*
X109672323Y-76920000D02*
X109672323Y-87080000D01*
X109712323Y-76921000D02*
X109712323Y-87079000D01*
X109752323Y-76921000D02*
X109752323Y-87079000D01*
X109792323Y-76923000D02*
X109792323Y-87077000D01*
X109832323Y-76924000D02*
X109832323Y-87076000D01*
X109872323Y-76926000D02*
X109872323Y-87074000D01*
X109912323Y-76928000D02*
X109912323Y-87072000D01*
X109952323Y-76930000D02*
X109952323Y-87070000D01*
X109992323Y-76933000D02*
X109992323Y-87067000D01*
X110032323Y-76936000D02*
X110032323Y-87064000D01*
X110072323Y-76939000D02*
X110072323Y-87061000D01*
X110112323Y-76943000D02*
X110112323Y-87057000D01*
X110152323Y-76946000D02*
X110152323Y-87054000D01*
X110192323Y-76951000D02*
X110192323Y-87049000D01*
X110232323Y-76955000D02*
X110232323Y-87045000D01*
X110272323Y-76960000D02*
X110272323Y-87040000D01*
X110312323Y-76965000D02*
X110312323Y-87035000D01*
X110352323Y-76971000D02*
X110352323Y-87029000D01*
X110392323Y-76977000D02*
X110392323Y-87023000D01*
X110432323Y-76983000D02*
X110432323Y-87017000D01*
X110472323Y-76989000D02*
X110472323Y-87011000D01*
X110512323Y-76996000D02*
X110512323Y-87004000D01*
X110552323Y-77003000D02*
X110552323Y-86997000D01*
X110592323Y-77011000D02*
X110592323Y-86989000D01*
X110632323Y-77019000D02*
X110632323Y-86981000D01*
X110672323Y-77027000D02*
X110672323Y-86973000D01*
X110712323Y-77035000D02*
X110712323Y-86965000D01*
X110752323Y-77044000D02*
X110752323Y-86956000D01*
X110792323Y-77053000D02*
X110792323Y-86947000D01*
X110832323Y-77063000D02*
X110832323Y-86937000D01*
X110872323Y-77072000D02*
X110872323Y-86928000D01*
X110912323Y-77083000D02*
X110912323Y-80760000D01*
X110912323Y-83240000D02*
X110912323Y-86917000D01*
X110952323Y-77093000D02*
X110952323Y-80760000D01*
X110952323Y-83240000D02*
X110952323Y-86907000D01*
X110992323Y-77104000D02*
X110992323Y-80760000D01*
X110992323Y-83240000D02*
X110992323Y-86896000D01*
X111032323Y-77115000D02*
X111032323Y-80760000D01*
X111032323Y-83240000D02*
X111032323Y-86885000D01*
X111072323Y-77127000D02*
X111072323Y-80760000D01*
X111072323Y-83240000D02*
X111072323Y-86873000D01*
X111112323Y-77139000D02*
X111112323Y-80760000D01*
X111112323Y-83240000D02*
X111112323Y-86861000D01*
X111152323Y-77151000D02*
X111152323Y-80760000D01*
X111152323Y-83240000D02*
X111152323Y-86849000D01*
X111192323Y-77163000D02*
X111192323Y-80760000D01*
X111192323Y-83240000D02*
X111192323Y-86837000D01*
X111232323Y-77176000D02*
X111232323Y-80760000D01*
X111232323Y-83240000D02*
X111232323Y-86824000D01*
X111272323Y-77190000D02*
X111272323Y-80760000D01*
X111272323Y-83240000D02*
X111272323Y-86810000D01*
X111312323Y-77203000D02*
X111312323Y-80760000D01*
X111312323Y-83240000D02*
X111312323Y-86797000D01*
X111352323Y-77218000D02*
X111352323Y-80760000D01*
X111352323Y-83240000D02*
X111352323Y-86782000D01*
X111392323Y-77232000D02*
X111392323Y-80760000D01*
X111392323Y-83240000D02*
X111392323Y-86768000D01*
X111432323Y-77247000D02*
X111432323Y-80760000D01*
X111432323Y-83240000D02*
X111432323Y-86753000D01*
X111472323Y-77262000D02*
X111472323Y-80760000D01*
X111472323Y-83240000D02*
X111472323Y-86738000D01*
X111512323Y-77278000D02*
X111512323Y-80760000D01*
X111512323Y-83240000D02*
X111512323Y-86722000D01*
X111552323Y-77294000D02*
X111552323Y-80760000D01*
X111552323Y-83240000D02*
X111552323Y-86706000D01*
X111592323Y-77310000D02*
X111592323Y-80760000D01*
X111592323Y-83240000D02*
X111592323Y-86690000D01*
X111632323Y-77327000D02*
X111632323Y-80760000D01*
X111632323Y-83240000D02*
X111632323Y-86673000D01*
X111672323Y-77344000D02*
X111672323Y-80760000D01*
X111672323Y-83240000D02*
X111672323Y-86656000D01*
X111712323Y-77362000D02*
X111712323Y-80760000D01*
X111712323Y-83240000D02*
X111712323Y-86638000D01*
X111752323Y-77380000D02*
X111752323Y-80760000D01*
X111752323Y-83240000D02*
X111752323Y-86620000D01*
X111792323Y-77398000D02*
X111792323Y-80760000D01*
X111792323Y-83240000D02*
X111792323Y-86602000D01*
X111832323Y-77417000D02*
X111832323Y-80760000D01*
X111832323Y-83240000D02*
X111832323Y-86583000D01*
X111872323Y-77436000D02*
X111872323Y-80760000D01*
X111872323Y-83240000D02*
X111872323Y-86564000D01*
X111912323Y-77456000D02*
X111912323Y-80760000D01*
X111912323Y-83240000D02*
X111912323Y-86544000D01*
X111952323Y-77476000D02*
X111952323Y-80760000D01*
X111952323Y-83240000D02*
X111952323Y-86524000D01*
X111992323Y-77496000D02*
X111992323Y-80760000D01*
X111992323Y-83240000D02*
X111992323Y-86504000D01*
X112032323Y-77517000D02*
X112032323Y-80760000D01*
X112032323Y-83240000D02*
X112032323Y-86483000D01*
X112072323Y-77539000D02*
X112072323Y-80760000D01*
X112072323Y-83240000D02*
X112072323Y-86461000D01*
X112112323Y-77561000D02*
X112112323Y-80760000D01*
X112112323Y-83240000D02*
X112112323Y-86439000D01*
X112152323Y-77583000D02*
X112152323Y-80760000D01*
X112152323Y-83240000D02*
X112152323Y-86417000D01*
X112192323Y-77606000D02*
X112192323Y-80760000D01*
X112192323Y-83240000D02*
X112192323Y-86394000D01*
X112232323Y-77629000D02*
X112232323Y-80760000D01*
X112232323Y-83240000D02*
X112232323Y-86371000D01*
X112272323Y-77653000D02*
X112272323Y-80760000D01*
X112272323Y-83240000D02*
X112272323Y-86347000D01*
X112312323Y-77677000D02*
X112312323Y-80760000D01*
X112312323Y-83240000D02*
X112312323Y-86323000D01*
X112352323Y-77702000D02*
X112352323Y-80760000D01*
X112352323Y-83240000D02*
X112352323Y-86298000D01*
X112392323Y-77728000D02*
X112392323Y-80760000D01*
X112392323Y-83240000D02*
X112392323Y-86272000D01*
X112432323Y-77753000D02*
X112432323Y-80760000D01*
X112432323Y-83240000D02*
X112432323Y-86247000D01*
X112472323Y-77780000D02*
X112472323Y-80760000D01*
X112472323Y-83240000D02*
X112472323Y-86220000D01*
X112512323Y-77807000D02*
X112512323Y-80760000D01*
X112512323Y-83240000D02*
X112512323Y-86193000D01*
X112552323Y-77834000D02*
X112552323Y-80760000D01*
X112552323Y-83240000D02*
X112552323Y-86166000D01*
X112592323Y-77862000D02*
X112592323Y-80760000D01*
X112592323Y-83240000D02*
X112592323Y-86138000D01*
X112632323Y-77891000D02*
X112632323Y-80760000D01*
X112632323Y-83240000D02*
X112632323Y-86109000D01*
X112672323Y-77920000D02*
X112672323Y-80760000D01*
X112672323Y-83240000D02*
X112672323Y-86080000D01*
X112712323Y-77950000D02*
X112712323Y-80760000D01*
X112712323Y-83240000D02*
X112712323Y-86050000D01*
X112752323Y-77980000D02*
X112752323Y-80760000D01*
X112752323Y-83240000D02*
X112752323Y-86020000D01*
X112792323Y-78012000D02*
X112792323Y-80760000D01*
X112792323Y-83240000D02*
X112792323Y-85988000D01*
X112832323Y-78043000D02*
X112832323Y-80760000D01*
X112832323Y-83240000D02*
X112832323Y-85957000D01*
X112872323Y-78076000D02*
X112872323Y-80760000D01*
X112872323Y-83240000D02*
X112872323Y-85924000D01*
X112912323Y-78109000D02*
X112912323Y-80760000D01*
X112912323Y-83240000D02*
X112912323Y-85891000D01*
X112952323Y-78142000D02*
X112952323Y-80760000D01*
X112952323Y-83240000D02*
X112952323Y-85858000D01*
X112992323Y-78177000D02*
X112992323Y-80760000D01*
X112992323Y-83240000D02*
X112992323Y-85823000D01*
X113032323Y-78212000D02*
X113032323Y-80760000D01*
X113032323Y-83240000D02*
X113032323Y-85788000D01*
X113072323Y-78248000D02*
X113072323Y-80760000D01*
X113072323Y-83240000D02*
X113072323Y-85752000D01*
X113112323Y-78284000D02*
X113112323Y-80760000D01*
X113112323Y-83240000D02*
X113112323Y-85716000D01*
X113152323Y-78322000D02*
X113152323Y-80760000D01*
X113152323Y-83240000D02*
X113152323Y-85678000D01*
X113192323Y-78360000D02*
X113192323Y-80760000D01*
X113192323Y-83240000D02*
X113192323Y-85640000D01*
X113232323Y-78399000D02*
X113232323Y-80760000D01*
X113232323Y-83240000D02*
X113232323Y-85601000D01*
X113272323Y-78439000D02*
X113272323Y-80760000D01*
X113272323Y-83240000D02*
X113272323Y-85561000D01*
X113312323Y-78480000D02*
X113312323Y-80760000D01*
X113312323Y-83240000D02*
X113312323Y-85520000D01*
X113352323Y-78522000D02*
X113352323Y-80760000D01*
X113352323Y-83240000D02*
X113352323Y-85478000D01*
X113392323Y-78565000D02*
X113392323Y-85435000D01*
X113432323Y-78609000D02*
X113432323Y-85391000D01*
X113472323Y-78653000D02*
X113472323Y-85347000D01*
X113512323Y-78699000D02*
X113512323Y-85301000D01*
X113552323Y-78746000D02*
X113552323Y-85254000D01*
X113592323Y-78795000D02*
X113592323Y-85205000D01*
X113632323Y-78844000D02*
X113632323Y-85156000D01*
X113672323Y-78895000D02*
X113672323Y-85105000D01*
X113712323Y-78947000D02*
X113712323Y-85053000D01*
X113752323Y-79000000D02*
X113752323Y-85000000D01*
X113792323Y-79055000D02*
X113792323Y-84945000D01*
X113832323Y-79112000D02*
X113832323Y-84888000D01*
X113872323Y-79170000D02*
X113872323Y-84830000D01*
X113912323Y-79230000D02*
X113912323Y-84770000D01*
X113952323Y-79292000D02*
X113952323Y-84708000D01*
X113992323Y-79356000D02*
X113992323Y-84644000D01*
X114032323Y-79422000D02*
X114032323Y-84578000D01*
X114072323Y-79490000D02*
X114072323Y-84510000D01*
X114112323Y-79561000D02*
X114112323Y-84439000D01*
X114152323Y-79635000D02*
X114152323Y-84365000D01*
X114192323Y-79712000D02*
X114192323Y-84288000D01*
X114232323Y-79792000D02*
X114232323Y-84208000D01*
X114272323Y-79876000D02*
X114272323Y-84124000D01*
X114312323Y-79963000D02*
X114312323Y-84037000D01*
X114352323Y-80056000D02*
X114352323Y-83944000D01*
X114392323Y-80154000D02*
X114392323Y-83846000D01*
X114432323Y-80258000D02*
X114432323Y-83742000D01*
X114472323Y-80370000D02*
X114472323Y-83630000D01*
X114512323Y-80491000D02*
X114512323Y-83509000D01*
X114552323Y-80623000D02*
X114552323Y-83377000D01*
X114592323Y-80770000D02*
X114592323Y-83230000D01*
X114632323Y-80938000D02*
X114632323Y-83062000D01*
X114672323Y-81138000D02*
X114672323Y-82862000D01*
X114712323Y-81401000D02*
X114712323Y-82599000D01*
X114752323Y-82000000D02*
G75*
G02*
X104512323Y-82000000I-5120000J0D01*
G01*
X104512323Y-82000000D02*
G75*
G02*
X114752323Y-82000000I5120000J0D01*
G01*
%TO.C,OUT1*%
X138570000Y-28960000D02*
X138570000Y-35310000D01*
X138570000Y-28960000D02*
X148730000Y-28960000D01*
X138570000Y-35310000D02*
X148730000Y-35310000D01*
X148730000Y-35310000D02*
X148730000Y-28960000D01*
%TO.C,U1*%
X141750000Y-38920000D02*
X141750000Y-49200000D01*
X141750000Y-49200000D02*
X146250000Y-49200000D01*
X143000000Y-38920000D02*
X141750000Y-38920000D01*
X146250000Y-38920000D02*
X145000000Y-38920000D01*
X146250000Y-49200000D02*
X146250000Y-38920000D01*
X145000000Y-38920000D02*
G75*
G02*
X143000000Y-38920000I-1000000J0D01*
G01*
%TO.C,VCC1*%
X118880000Y-61690000D02*
X118880000Y-68040000D01*
X129040000Y-61690000D02*
X118880000Y-61690000D01*
X129040000Y-68040000D02*
X118880000Y-68040000D01*
X129040000Y-68040000D02*
X129040000Y-61690000D01*
%TO.C,RV1*%
X130890000Y-59140000D02*
X147110000Y-59140000D01*
X130890000Y-66860000D02*
X130890000Y-59140000D01*
X135390000Y-66860000D02*
X142610000Y-66860000D01*
X147110000Y-59140000D02*
X147110000Y-66860000D01*
X147110000Y-66860000D02*
X130890000Y-66860000D01*
%TO.C,C1*%
X140280000Y-53380000D02*
X147720000Y-53380000D01*
X140280000Y-57120000D02*
X140280000Y-53380000D01*
X147720000Y-53380000D02*
X147720000Y-57120000D01*
X147720000Y-57120000D02*
X140280000Y-57120000D01*
%TO.C,C5*%
X130380000Y-39630000D02*
X136620000Y-39630000D01*
X130380000Y-40165000D02*
X130380000Y-39630000D01*
X130380000Y-42370000D02*
X130380000Y-41835000D01*
X136620000Y-39630000D02*
X136620000Y-40165000D01*
X136620000Y-41835000D02*
X136620000Y-42370000D01*
X136620000Y-42370000D02*
X130380000Y-42370000D01*
%TO.C,OUT1*%
X138570000Y-70960000D02*
X138570000Y-77310000D01*
X138570000Y-70960000D02*
X148730000Y-70960000D01*
X138570000Y-77310000D02*
X148730000Y-77310000D01*
X148730000Y-77310000D02*
X148730000Y-70960000D01*
%TO.C,C1*%
X140280000Y-95380000D02*
X147720000Y-95380000D01*
X140280000Y-99120000D02*
X140280000Y-95380000D01*
X147720000Y-95380000D02*
X147720000Y-99120000D01*
X147720000Y-99120000D02*
X140280000Y-99120000D01*
%TO.C,C5*%
X130380000Y-81630000D02*
X136620000Y-81630000D01*
X130380000Y-82165000D02*
X130380000Y-81630000D01*
X130380000Y-84370000D02*
X130380000Y-83835000D01*
X136620000Y-81630000D02*
X136620000Y-82165000D01*
X136620000Y-83835000D02*
X136620000Y-84370000D01*
X136620000Y-84370000D02*
X130380000Y-84370000D01*
%TO.C,U1*%
X141750000Y-80920000D02*
X141750000Y-91200000D01*
X141750000Y-91200000D02*
X146250000Y-91200000D01*
X143000000Y-80920000D02*
X141750000Y-80920000D01*
X146250000Y-80920000D02*
X145000000Y-80920000D01*
X146250000Y-91200000D02*
X146250000Y-80920000D01*
X145000000Y-80920000D02*
G75*
G02*
X143000000Y-80920000I-1000000J0D01*
G01*
%TO.C,VCC1*%
X118880000Y-103690000D02*
X118880000Y-110040000D01*
X129040000Y-103690000D02*
X118880000Y-103690000D01*
X129040000Y-110040000D02*
X118880000Y-110040000D01*
X129040000Y-110040000D02*
X129040000Y-103690000D01*
%TO.C,R2*%
X128730000Y-76130000D02*
X135270000Y-76130000D01*
X128730000Y-76460000D02*
X128730000Y-76130000D01*
X128730000Y-78540000D02*
X128730000Y-78870000D01*
X128730000Y-78870000D02*
X135270000Y-78870000D01*
X135270000Y-76130000D02*
X135270000Y-76460000D01*
X135270000Y-78870000D02*
X135270000Y-78540000D01*
X82730000Y-76130000D02*
X89270000Y-76130000D01*
X82730000Y-76460000D02*
X82730000Y-76130000D01*
X82730000Y-78540000D02*
X82730000Y-78870000D01*
X82730000Y-78870000D02*
X89270000Y-78870000D01*
X89270000Y-76130000D02*
X89270000Y-76460000D01*
X89270000Y-78870000D02*
X89270000Y-78540000D01*
%TD*%
M02*
