%TF.GenerationSoftware,KiCad,Pcbnew,9.0.4*%
%TF.CreationDate,2025-09-13T13:10:49+02:00*%
%TF.ProjectId,TDA7267_2x2_panel,54444137-3236-4375-9f32-78325f70616e,rev?*%
%TF.SameCoordinates,Original*%
%TF.FileFunction,Legend,Bot*%
%TF.FilePolarity,Positive*%
%FSLAX46Y46*%
G04 Gerber Fmt 4.6, Leading zero omitted, Abs format (unit mm)*
G04 Created by KiCad (PCBNEW 9.0.4) date 2025-09-13 13:10:49*
%MOMM*%
%LPD*%
G01*
G04 APERTURE LIST*
%ADD10C,0.300000*%
%ADD11C,0.500000*%
G04 APERTURE END LIST*
D10*
X134920774Y-116914912D02*
X134063632Y-116914912D01*
X134492203Y-118414912D02*
X134492203Y-116914912D01*
X133563632Y-118414912D02*
X133563632Y-116914912D01*
X133563632Y-116914912D02*
X133206489Y-116914912D01*
X133206489Y-116914912D02*
X132992203Y-116986341D01*
X132992203Y-116986341D02*
X132849346Y-117129198D01*
X132849346Y-117129198D02*
X132777917Y-117272055D01*
X132777917Y-117272055D02*
X132706489Y-117557769D01*
X132706489Y-117557769D02*
X132706489Y-117772055D01*
X132706489Y-117772055D02*
X132777917Y-118057769D01*
X132777917Y-118057769D02*
X132849346Y-118200626D01*
X132849346Y-118200626D02*
X132992203Y-118343484D01*
X132992203Y-118343484D02*
X133206489Y-118414912D01*
X133206489Y-118414912D02*
X133563632Y-118414912D01*
X132135060Y-117986341D02*
X131420775Y-117986341D01*
X132277917Y-118414912D02*
X131777917Y-116914912D01*
X131777917Y-116914912D02*
X131277917Y-118414912D01*
X130920775Y-116914912D02*
X129920775Y-116914912D01*
X129920775Y-116914912D02*
X130563632Y-118414912D01*
X129420775Y-117057769D02*
X129349347Y-116986341D01*
X129349347Y-116986341D02*
X129206490Y-116914912D01*
X129206490Y-116914912D02*
X128849347Y-116914912D01*
X128849347Y-116914912D02*
X128706490Y-116986341D01*
X128706490Y-116986341D02*
X128635061Y-117057769D01*
X128635061Y-117057769D02*
X128563632Y-117200626D01*
X128563632Y-117200626D02*
X128563632Y-117343484D01*
X128563632Y-117343484D02*
X128635061Y-117557769D01*
X128635061Y-117557769D02*
X129492204Y-118414912D01*
X129492204Y-118414912D02*
X128563632Y-118414912D01*
X127277919Y-116914912D02*
X127563633Y-116914912D01*
X127563633Y-116914912D02*
X127706490Y-116986341D01*
X127706490Y-116986341D02*
X127777919Y-117057769D01*
X127777919Y-117057769D02*
X127920776Y-117272055D01*
X127920776Y-117272055D02*
X127992204Y-117557769D01*
X127992204Y-117557769D02*
X127992204Y-118129198D01*
X127992204Y-118129198D02*
X127920776Y-118272055D01*
X127920776Y-118272055D02*
X127849347Y-118343484D01*
X127849347Y-118343484D02*
X127706490Y-118414912D01*
X127706490Y-118414912D02*
X127420776Y-118414912D01*
X127420776Y-118414912D02*
X127277919Y-118343484D01*
X127277919Y-118343484D02*
X127206490Y-118272055D01*
X127206490Y-118272055D02*
X127135061Y-118129198D01*
X127135061Y-118129198D02*
X127135061Y-117772055D01*
X127135061Y-117772055D02*
X127206490Y-117629198D01*
X127206490Y-117629198D02*
X127277919Y-117557769D01*
X127277919Y-117557769D02*
X127420776Y-117486341D01*
X127420776Y-117486341D02*
X127706490Y-117486341D01*
X127706490Y-117486341D02*
X127849347Y-117557769D01*
X127849347Y-117557769D02*
X127920776Y-117629198D01*
X127920776Y-117629198D02*
X127992204Y-117772055D01*
X126635062Y-116914912D02*
X125635062Y-116914912D01*
X125635062Y-116914912D02*
X126277919Y-118414912D01*
X123992205Y-117057769D02*
X123920777Y-116986341D01*
X123920777Y-116986341D02*
X123777920Y-116914912D01*
X123777920Y-116914912D02*
X123420777Y-116914912D01*
X123420777Y-116914912D02*
X123277920Y-116986341D01*
X123277920Y-116986341D02*
X123206491Y-117057769D01*
X123206491Y-117057769D02*
X123135062Y-117200626D01*
X123135062Y-117200626D02*
X123135062Y-117343484D01*
X123135062Y-117343484D02*
X123206491Y-117557769D01*
X123206491Y-117557769D02*
X124063634Y-118414912D01*
X124063634Y-118414912D02*
X123135062Y-118414912D01*
X122492206Y-118272055D02*
X122420777Y-118343484D01*
X122420777Y-118343484D02*
X122492206Y-118414912D01*
X122492206Y-118414912D02*
X122563634Y-118343484D01*
X122563634Y-118343484D02*
X122492206Y-118272055D01*
X122492206Y-118272055D02*
X122492206Y-118414912D01*
X121920777Y-116914912D02*
X120920777Y-116914912D01*
X120920777Y-116914912D02*
X121563634Y-118414912D01*
X120492206Y-116914912D02*
X120135063Y-118414912D01*
X120135063Y-118414912D02*
X119849349Y-117343484D01*
X119849349Y-117343484D02*
X119563634Y-118414912D01*
X119563634Y-118414912D02*
X119206492Y-116914912D01*
X117563634Y-117986341D02*
X116849349Y-117986341D01*
X117706491Y-118414912D02*
X117206491Y-116914912D01*
X117206491Y-116914912D02*
X116706491Y-118414912D01*
X116206492Y-118414912D02*
X116206492Y-117414912D01*
X116206492Y-117557769D02*
X116135063Y-117486341D01*
X116135063Y-117486341D02*
X115992206Y-117414912D01*
X115992206Y-117414912D02*
X115777920Y-117414912D01*
X115777920Y-117414912D02*
X115635063Y-117486341D01*
X115635063Y-117486341D02*
X115563635Y-117629198D01*
X115563635Y-117629198D02*
X115563635Y-118414912D01*
X115563635Y-117629198D02*
X115492206Y-117486341D01*
X115492206Y-117486341D02*
X115349349Y-117414912D01*
X115349349Y-117414912D02*
X115135063Y-117414912D01*
X115135063Y-117414912D02*
X114992206Y-117486341D01*
X114992206Y-117486341D02*
X114920777Y-117629198D01*
X114920777Y-117629198D02*
X114920777Y-118414912D01*
X114206492Y-117414912D02*
X114206492Y-118914912D01*
X114206492Y-117486341D02*
X114063635Y-117414912D01*
X114063635Y-117414912D02*
X113777920Y-117414912D01*
X113777920Y-117414912D02*
X113635063Y-117486341D01*
X113635063Y-117486341D02*
X113563635Y-117557769D01*
X113563635Y-117557769D02*
X113492206Y-117700626D01*
X113492206Y-117700626D02*
X113492206Y-118129198D01*
X113492206Y-118129198D02*
X113563635Y-118272055D01*
X113563635Y-118272055D02*
X113635063Y-118343484D01*
X113635063Y-118343484D02*
X113777920Y-118414912D01*
X113777920Y-118414912D02*
X114063635Y-118414912D01*
X114063635Y-118414912D02*
X114206492Y-118343484D01*
X112635063Y-118414912D02*
X112777920Y-118343484D01*
X112777920Y-118343484D02*
X112849349Y-118200626D01*
X112849349Y-118200626D02*
X112849349Y-116914912D01*
X112063635Y-118414912D02*
X112063635Y-117414912D01*
X112063635Y-116914912D02*
X112135063Y-116986341D01*
X112135063Y-116986341D02*
X112063635Y-117057769D01*
X112063635Y-117057769D02*
X111992206Y-116986341D01*
X111992206Y-116986341D02*
X112063635Y-116914912D01*
X112063635Y-116914912D02*
X112063635Y-117057769D01*
X111563634Y-117414912D02*
X110992206Y-117414912D01*
X111349349Y-118414912D02*
X111349349Y-117129198D01*
X111349349Y-117129198D02*
X111277920Y-116986341D01*
X111277920Y-116986341D02*
X111135063Y-116914912D01*
X111135063Y-116914912D02*
X110992206Y-116914912D01*
X110492206Y-118414912D02*
X110492206Y-117414912D01*
X110492206Y-116914912D02*
X110563634Y-116986341D01*
X110563634Y-116986341D02*
X110492206Y-117057769D01*
X110492206Y-117057769D02*
X110420777Y-116986341D01*
X110420777Y-116986341D02*
X110492206Y-116914912D01*
X110492206Y-116914912D02*
X110492206Y-117057769D01*
X109206491Y-118343484D02*
X109349348Y-118414912D01*
X109349348Y-118414912D02*
X109635063Y-118414912D01*
X109635063Y-118414912D02*
X109777920Y-118343484D01*
X109777920Y-118343484D02*
X109849348Y-118200626D01*
X109849348Y-118200626D02*
X109849348Y-117629198D01*
X109849348Y-117629198D02*
X109777920Y-117486341D01*
X109777920Y-117486341D02*
X109635063Y-117414912D01*
X109635063Y-117414912D02*
X109349348Y-117414912D01*
X109349348Y-117414912D02*
X109206491Y-117486341D01*
X109206491Y-117486341D02*
X109135063Y-117629198D01*
X109135063Y-117629198D02*
X109135063Y-117772055D01*
X109135063Y-117772055D02*
X109849348Y-117914912D01*
X108492206Y-118414912D02*
X108492206Y-117414912D01*
X108492206Y-117700626D02*
X108420777Y-117557769D01*
X108420777Y-117557769D02*
X108349349Y-117486341D01*
X108349349Y-117486341D02*
X108206491Y-117414912D01*
X108206491Y-117414912D02*
X108063634Y-117414912D01*
X107563635Y-118272055D02*
X107492206Y-118343484D01*
X107492206Y-118343484D02*
X107563635Y-118414912D01*
X107563635Y-118414912D02*
X107635063Y-118343484D01*
X107635063Y-118343484D02*
X107563635Y-118272055D01*
X107563635Y-118272055D02*
X107563635Y-118414912D01*
X133992203Y-119329828D02*
X134706489Y-119329828D01*
X134706489Y-119329828D02*
X134777917Y-120044114D01*
X134777917Y-120044114D02*
X134706489Y-119972685D01*
X134706489Y-119972685D02*
X134563632Y-119901257D01*
X134563632Y-119901257D02*
X134206489Y-119901257D01*
X134206489Y-119901257D02*
X134063632Y-119972685D01*
X134063632Y-119972685D02*
X133992203Y-120044114D01*
X133992203Y-120044114D02*
X133920774Y-120186971D01*
X133920774Y-120186971D02*
X133920774Y-120544114D01*
X133920774Y-120544114D02*
X133992203Y-120686971D01*
X133992203Y-120686971D02*
X134063632Y-120758400D01*
X134063632Y-120758400D02*
X134206489Y-120829828D01*
X134206489Y-120829828D02*
X134563632Y-120829828D01*
X134563632Y-120829828D02*
X134706489Y-120758400D01*
X134706489Y-120758400D02*
X134777917Y-120686971D01*
X132349346Y-119829828D02*
X131777918Y-119829828D01*
X132135061Y-119329828D02*
X132135061Y-120615542D01*
X132135061Y-120615542D02*
X132063632Y-120758400D01*
X132063632Y-120758400D02*
X131920775Y-120829828D01*
X131920775Y-120829828D02*
X131777918Y-120829828D01*
X131063632Y-120829828D02*
X131206489Y-120758400D01*
X131206489Y-120758400D02*
X131277918Y-120686971D01*
X131277918Y-120686971D02*
X131349346Y-120544114D01*
X131349346Y-120544114D02*
X131349346Y-120115542D01*
X131349346Y-120115542D02*
X131277918Y-119972685D01*
X131277918Y-119972685D02*
X131206489Y-119901257D01*
X131206489Y-119901257D02*
X131063632Y-119829828D01*
X131063632Y-119829828D02*
X130849346Y-119829828D01*
X130849346Y-119829828D02*
X130706489Y-119901257D01*
X130706489Y-119901257D02*
X130635061Y-119972685D01*
X130635061Y-119972685D02*
X130563632Y-120115542D01*
X130563632Y-120115542D02*
X130563632Y-120544114D01*
X130563632Y-120544114D02*
X130635061Y-120686971D01*
X130635061Y-120686971D02*
X130706489Y-120758400D01*
X130706489Y-120758400D02*
X130849346Y-120829828D01*
X130849346Y-120829828D02*
X131063632Y-120829828D01*
X127992203Y-120829828D02*
X128849346Y-120829828D01*
X128420775Y-120829828D02*
X128420775Y-119329828D01*
X128420775Y-119329828D02*
X128563632Y-119544114D01*
X128563632Y-119544114D02*
X128706489Y-119686971D01*
X128706489Y-119686971D02*
X128849346Y-119758400D01*
X126635061Y-119329828D02*
X127349347Y-119329828D01*
X127349347Y-119329828D02*
X127420775Y-120044114D01*
X127420775Y-120044114D02*
X127349347Y-119972685D01*
X127349347Y-119972685D02*
X127206490Y-119901257D01*
X127206490Y-119901257D02*
X126849347Y-119901257D01*
X126849347Y-119901257D02*
X126706490Y-119972685D01*
X126706490Y-119972685D02*
X126635061Y-120044114D01*
X126635061Y-120044114D02*
X126563632Y-120186971D01*
X126563632Y-120186971D02*
X126563632Y-120544114D01*
X126563632Y-120544114D02*
X126635061Y-120686971D01*
X126635061Y-120686971D02*
X126706490Y-120758400D01*
X126706490Y-120758400D02*
X126849347Y-120829828D01*
X126849347Y-120829828D02*
X127206490Y-120829828D01*
X127206490Y-120829828D02*
X127349347Y-120758400D01*
X127349347Y-120758400D02*
X127420775Y-120686971D01*
X126135061Y-119329828D02*
X125635061Y-120829828D01*
X125635061Y-120829828D02*
X125135061Y-119329828D01*
X123492205Y-120829828D02*
X123492205Y-119329828D01*
X123492205Y-119329828D02*
X123135062Y-119329828D01*
X123135062Y-119329828D02*
X122920776Y-119401257D01*
X122920776Y-119401257D02*
X122777919Y-119544114D01*
X122777919Y-119544114D02*
X122706490Y-119686971D01*
X122706490Y-119686971D02*
X122635062Y-119972685D01*
X122635062Y-119972685D02*
X122635062Y-120186971D01*
X122635062Y-120186971D02*
X122706490Y-120472685D01*
X122706490Y-120472685D02*
X122777919Y-120615542D01*
X122777919Y-120615542D02*
X122920776Y-120758400D01*
X122920776Y-120758400D02*
X123135062Y-120829828D01*
X123135062Y-120829828D02*
X123492205Y-120829828D01*
X121135062Y-120686971D02*
X121206490Y-120758400D01*
X121206490Y-120758400D02*
X121420776Y-120829828D01*
X121420776Y-120829828D02*
X121563633Y-120829828D01*
X121563633Y-120829828D02*
X121777919Y-120758400D01*
X121777919Y-120758400D02*
X121920776Y-120615542D01*
X121920776Y-120615542D02*
X121992205Y-120472685D01*
X121992205Y-120472685D02*
X122063633Y-120186971D01*
X122063633Y-120186971D02*
X122063633Y-119972685D01*
X122063633Y-119972685D02*
X121992205Y-119686971D01*
X121992205Y-119686971D02*
X121920776Y-119544114D01*
X121920776Y-119544114D02*
X121777919Y-119401257D01*
X121777919Y-119401257D02*
X121563633Y-119329828D01*
X121563633Y-119329828D02*
X121420776Y-119329828D01*
X121420776Y-119329828D02*
X121206490Y-119401257D01*
X121206490Y-119401257D02*
X121135062Y-119472685D01*
X119420776Y-120758400D02*
X119277919Y-120829828D01*
X119277919Y-120829828D02*
X118992205Y-120829828D01*
X118992205Y-120829828D02*
X118849348Y-120758400D01*
X118849348Y-120758400D02*
X118777919Y-120615542D01*
X118777919Y-120615542D02*
X118777919Y-120544114D01*
X118777919Y-120544114D02*
X118849348Y-120401257D01*
X118849348Y-120401257D02*
X118992205Y-120329828D01*
X118992205Y-120329828D02*
X119206491Y-120329828D01*
X119206491Y-120329828D02*
X119349348Y-120258400D01*
X119349348Y-120258400D02*
X119420776Y-120115542D01*
X119420776Y-120115542D02*
X119420776Y-120044114D01*
X119420776Y-120044114D02*
X119349348Y-119901257D01*
X119349348Y-119901257D02*
X119206491Y-119829828D01*
X119206491Y-119829828D02*
X118992205Y-119829828D01*
X118992205Y-119829828D02*
X118849348Y-119901257D01*
X117492205Y-119829828D02*
X117492205Y-120829828D01*
X118135062Y-119829828D02*
X118135062Y-120615542D01*
X118135062Y-120615542D02*
X118063633Y-120758400D01*
X118063633Y-120758400D02*
X117920776Y-120829828D01*
X117920776Y-120829828D02*
X117706490Y-120829828D01*
X117706490Y-120829828D02*
X117563633Y-120758400D01*
X117563633Y-120758400D02*
X117492205Y-120686971D01*
X116777919Y-119829828D02*
X116777919Y-121329828D01*
X116777919Y-119901257D02*
X116635062Y-119829828D01*
X116635062Y-119829828D02*
X116349347Y-119829828D01*
X116349347Y-119829828D02*
X116206490Y-119901257D01*
X116206490Y-119901257D02*
X116135062Y-119972685D01*
X116135062Y-119972685D02*
X116063633Y-120115542D01*
X116063633Y-120115542D02*
X116063633Y-120544114D01*
X116063633Y-120544114D02*
X116135062Y-120686971D01*
X116135062Y-120686971D02*
X116206490Y-120758400D01*
X116206490Y-120758400D02*
X116349347Y-120829828D01*
X116349347Y-120829828D02*
X116635062Y-120829828D01*
X116635062Y-120829828D02*
X116777919Y-120758400D01*
X115420776Y-119829828D02*
X115420776Y-121329828D01*
X115420776Y-119901257D02*
X115277919Y-119829828D01*
X115277919Y-119829828D02*
X114992204Y-119829828D01*
X114992204Y-119829828D02*
X114849347Y-119901257D01*
X114849347Y-119901257D02*
X114777919Y-119972685D01*
X114777919Y-119972685D02*
X114706490Y-120115542D01*
X114706490Y-120115542D02*
X114706490Y-120544114D01*
X114706490Y-120544114D02*
X114777919Y-120686971D01*
X114777919Y-120686971D02*
X114849347Y-120758400D01*
X114849347Y-120758400D02*
X114992204Y-120829828D01*
X114992204Y-120829828D02*
X115277919Y-120829828D01*
X115277919Y-120829828D02*
X115420776Y-120758400D01*
X113849347Y-120829828D02*
X113992204Y-120758400D01*
X113992204Y-120758400D02*
X114063633Y-120615542D01*
X114063633Y-120615542D02*
X114063633Y-119329828D01*
X113420776Y-119829828D02*
X113063633Y-120829828D01*
X112706490Y-119829828D02*
X113063633Y-120829828D01*
X113063633Y-120829828D02*
X113206490Y-121186971D01*
X113206490Y-121186971D02*
X113277919Y-121258400D01*
X113277919Y-121258400D02*
X113420776Y-121329828D01*
X112135062Y-120686971D02*
X112063633Y-120758400D01*
X112063633Y-120758400D02*
X112135062Y-120829828D01*
X112135062Y-120829828D02*
X112206490Y-120758400D01*
X112206490Y-120758400D02*
X112135062Y-120686971D01*
X112135062Y-120686971D02*
X112135062Y-120829828D01*
X179920774Y-75914912D02*
X179063632Y-75914912D01*
X179492203Y-77414912D02*
X179492203Y-75914912D01*
X178563632Y-77414912D02*
X178563632Y-75914912D01*
X178563632Y-75914912D02*
X178206489Y-75914912D01*
X178206489Y-75914912D02*
X177992203Y-75986341D01*
X177992203Y-75986341D02*
X177849346Y-76129198D01*
X177849346Y-76129198D02*
X177777917Y-76272055D01*
X177777917Y-76272055D02*
X177706489Y-76557769D01*
X177706489Y-76557769D02*
X177706489Y-76772055D01*
X177706489Y-76772055D02*
X177777917Y-77057769D01*
X177777917Y-77057769D02*
X177849346Y-77200626D01*
X177849346Y-77200626D02*
X177992203Y-77343484D01*
X177992203Y-77343484D02*
X178206489Y-77414912D01*
X178206489Y-77414912D02*
X178563632Y-77414912D01*
X177135060Y-76986341D02*
X176420775Y-76986341D01*
X177277917Y-77414912D02*
X176777917Y-75914912D01*
X176777917Y-75914912D02*
X176277917Y-77414912D01*
X175920775Y-75914912D02*
X174920775Y-75914912D01*
X174920775Y-75914912D02*
X175563632Y-77414912D01*
X174420775Y-76057769D02*
X174349347Y-75986341D01*
X174349347Y-75986341D02*
X174206490Y-75914912D01*
X174206490Y-75914912D02*
X173849347Y-75914912D01*
X173849347Y-75914912D02*
X173706490Y-75986341D01*
X173706490Y-75986341D02*
X173635061Y-76057769D01*
X173635061Y-76057769D02*
X173563632Y-76200626D01*
X173563632Y-76200626D02*
X173563632Y-76343484D01*
X173563632Y-76343484D02*
X173635061Y-76557769D01*
X173635061Y-76557769D02*
X174492204Y-77414912D01*
X174492204Y-77414912D02*
X173563632Y-77414912D01*
X172277919Y-75914912D02*
X172563633Y-75914912D01*
X172563633Y-75914912D02*
X172706490Y-75986341D01*
X172706490Y-75986341D02*
X172777919Y-76057769D01*
X172777919Y-76057769D02*
X172920776Y-76272055D01*
X172920776Y-76272055D02*
X172992204Y-76557769D01*
X172992204Y-76557769D02*
X172992204Y-77129198D01*
X172992204Y-77129198D02*
X172920776Y-77272055D01*
X172920776Y-77272055D02*
X172849347Y-77343484D01*
X172849347Y-77343484D02*
X172706490Y-77414912D01*
X172706490Y-77414912D02*
X172420776Y-77414912D01*
X172420776Y-77414912D02*
X172277919Y-77343484D01*
X172277919Y-77343484D02*
X172206490Y-77272055D01*
X172206490Y-77272055D02*
X172135061Y-77129198D01*
X172135061Y-77129198D02*
X172135061Y-76772055D01*
X172135061Y-76772055D02*
X172206490Y-76629198D01*
X172206490Y-76629198D02*
X172277919Y-76557769D01*
X172277919Y-76557769D02*
X172420776Y-76486341D01*
X172420776Y-76486341D02*
X172706490Y-76486341D01*
X172706490Y-76486341D02*
X172849347Y-76557769D01*
X172849347Y-76557769D02*
X172920776Y-76629198D01*
X172920776Y-76629198D02*
X172992204Y-76772055D01*
X171635062Y-75914912D02*
X170635062Y-75914912D01*
X170635062Y-75914912D02*
X171277919Y-77414912D01*
X168992205Y-76057769D02*
X168920777Y-75986341D01*
X168920777Y-75986341D02*
X168777920Y-75914912D01*
X168777920Y-75914912D02*
X168420777Y-75914912D01*
X168420777Y-75914912D02*
X168277920Y-75986341D01*
X168277920Y-75986341D02*
X168206491Y-76057769D01*
X168206491Y-76057769D02*
X168135062Y-76200626D01*
X168135062Y-76200626D02*
X168135062Y-76343484D01*
X168135062Y-76343484D02*
X168206491Y-76557769D01*
X168206491Y-76557769D02*
X169063634Y-77414912D01*
X169063634Y-77414912D02*
X168135062Y-77414912D01*
X167492206Y-77272055D02*
X167420777Y-77343484D01*
X167420777Y-77343484D02*
X167492206Y-77414912D01*
X167492206Y-77414912D02*
X167563634Y-77343484D01*
X167563634Y-77343484D02*
X167492206Y-77272055D01*
X167492206Y-77272055D02*
X167492206Y-77414912D01*
X166920777Y-75914912D02*
X165920777Y-75914912D01*
X165920777Y-75914912D02*
X166563634Y-77414912D01*
X165492206Y-75914912D02*
X165135063Y-77414912D01*
X165135063Y-77414912D02*
X164849349Y-76343484D01*
X164849349Y-76343484D02*
X164563634Y-77414912D01*
X164563634Y-77414912D02*
X164206492Y-75914912D01*
X162563634Y-76986341D02*
X161849349Y-76986341D01*
X162706491Y-77414912D02*
X162206491Y-75914912D01*
X162206491Y-75914912D02*
X161706491Y-77414912D01*
X161206492Y-77414912D02*
X161206492Y-76414912D01*
X161206492Y-76557769D02*
X161135063Y-76486341D01*
X161135063Y-76486341D02*
X160992206Y-76414912D01*
X160992206Y-76414912D02*
X160777920Y-76414912D01*
X160777920Y-76414912D02*
X160635063Y-76486341D01*
X160635063Y-76486341D02*
X160563635Y-76629198D01*
X160563635Y-76629198D02*
X160563635Y-77414912D01*
X160563635Y-76629198D02*
X160492206Y-76486341D01*
X160492206Y-76486341D02*
X160349349Y-76414912D01*
X160349349Y-76414912D02*
X160135063Y-76414912D01*
X160135063Y-76414912D02*
X159992206Y-76486341D01*
X159992206Y-76486341D02*
X159920777Y-76629198D01*
X159920777Y-76629198D02*
X159920777Y-77414912D01*
X159206492Y-76414912D02*
X159206492Y-77914912D01*
X159206492Y-76486341D02*
X159063635Y-76414912D01*
X159063635Y-76414912D02*
X158777920Y-76414912D01*
X158777920Y-76414912D02*
X158635063Y-76486341D01*
X158635063Y-76486341D02*
X158563635Y-76557769D01*
X158563635Y-76557769D02*
X158492206Y-76700626D01*
X158492206Y-76700626D02*
X158492206Y-77129198D01*
X158492206Y-77129198D02*
X158563635Y-77272055D01*
X158563635Y-77272055D02*
X158635063Y-77343484D01*
X158635063Y-77343484D02*
X158777920Y-77414912D01*
X158777920Y-77414912D02*
X159063635Y-77414912D01*
X159063635Y-77414912D02*
X159206492Y-77343484D01*
X157635063Y-77414912D02*
X157777920Y-77343484D01*
X157777920Y-77343484D02*
X157849349Y-77200626D01*
X157849349Y-77200626D02*
X157849349Y-75914912D01*
X157063635Y-77414912D02*
X157063635Y-76414912D01*
X157063635Y-75914912D02*
X157135063Y-75986341D01*
X157135063Y-75986341D02*
X157063635Y-76057769D01*
X157063635Y-76057769D02*
X156992206Y-75986341D01*
X156992206Y-75986341D02*
X157063635Y-75914912D01*
X157063635Y-75914912D02*
X157063635Y-76057769D01*
X156563634Y-76414912D02*
X155992206Y-76414912D01*
X156349349Y-77414912D02*
X156349349Y-76129198D01*
X156349349Y-76129198D02*
X156277920Y-75986341D01*
X156277920Y-75986341D02*
X156135063Y-75914912D01*
X156135063Y-75914912D02*
X155992206Y-75914912D01*
X155492206Y-77414912D02*
X155492206Y-76414912D01*
X155492206Y-75914912D02*
X155563634Y-75986341D01*
X155563634Y-75986341D02*
X155492206Y-76057769D01*
X155492206Y-76057769D02*
X155420777Y-75986341D01*
X155420777Y-75986341D02*
X155492206Y-75914912D01*
X155492206Y-75914912D02*
X155492206Y-76057769D01*
X154206491Y-77343484D02*
X154349348Y-77414912D01*
X154349348Y-77414912D02*
X154635063Y-77414912D01*
X154635063Y-77414912D02*
X154777920Y-77343484D01*
X154777920Y-77343484D02*
X154849348Y-77200626D01*
X154849348Y-77200626D02*
X154849348Y-76629198D01*
X154849348Y-76629198D02*
X154777920Y-76486341D01*
X154777920Y-76486341D02*
X154635063Y-76414912D01*
X154635063Y-76414912D02*
X154349348Y-76414912D01*
X154349348Y-76414912D02*
X154206491Y-76486341D01*
X154206491Y-76486341D02*
X154135063Y-76629198D01*
X154135063Y-76629198D02*
X154135063Y-76772055D01*
X154135063Y-76772055D02*
X154849348Y-76914912D01*
X153492206Y-77414912D02*
X153492206Y-76414912D01*
X153492206Y-76700626D02*
X153420777Y-76557769D01*
X153420777Y-76557769D02*
X153349349Y-76486341D01*
X153349349Y-76486341D02*
X153206491Y-76414912D01*
X153206491Y-76414912D02*
X153063634Y-76414912D01*
X152563635Y-77272055D02*
X152492206Y-77343484D01*
X152492206Y-77343484D02*
X152563635Y-77414912D01*
X152563635Y-77414912D02*
X152635063Y-77343484D01*
X152635063Y-77343484D02*
X152563635Y-77272055D01*
X152563635Y-77272055D02*
X152563635Y-77414912D01*
X178992203Y-78329828D02*
X179706489Y-78329828D01*
X179706489Y-78329828D02*
X179777917Y-79044114D01*
X179777917Y-79044114D02*
X179706489Y-78972685D01*
X179706489Y-78972685D02*
X179563632Y-78901257D01*
X179563632Y-78901257D02*
X179206489Y-78901257D01*
X179206489Y-78901257D02*
X179063632Y-78972685D01*
X179063632Y-78972685D02*
X178992203Y-79044114D01*
X178992203Y-79044114D02*
X178920774Y-79186971D01*
X178920774Y-79186971D02*
X178920774Y-79544114D01*
X178920774Y-79544114D02*
X178992203Y-79686971D01*
X178992203Y-79686971D02*
X179063632Y-79758400D01*
X179063632Y-79758400D02*
X179206489Y-79829828D01*
X179206489Y-79829828D02*
X179563632Y-79829828D01*
X179563632Y-79829828D02*
X179706489Y-79758400D01*
X179706489Y-79758400D02*
X179777917Y-79686971D01*
X177349346Y-78829828D02*
X176777918Y-78829828D01*
X177135061Y-78329828D02*
X177135061Y-79615542D01*
X177135061Y-79615542D02*
X177063632Y-79758400D01*
X177063632Y-79758400D02*
X176920775Y-79829828D01*
X176920775Y-79829828D02*
X176777918Y-79829828D01*
X176063632Y-79829828D02*
X176206489Y-79758400D01*
X176206489Y-79758400D02*
X176277918Y-79686971D01*
X176277918Y-79686971D02*
X176349346Y-79544114D01*
X176349346Y-79544114D02*
X176349346Y-79115542D01*
X176349346Y-79115542D02*
X176277918Y-78972685D01*
X176277918Y-78972685D02*
X176206489Y-78901257D01*
X176206489Y-78901257D02*
X176063632Y-78829828D01*
X176063632Y-78829828D02*
X175849346Y-78829828D01*
X175849346Y-78829828D02*
X175706489Y-78901257D01*
X175706489Y-78901257D02*
X175635061Y-78972685D01*
X175635061Y-78972685D02*
X175563632Y-79115542D01*
X175563632Y-79115542D02*
X175563632Y-79544114D01*
X175563632Y-79544114D02*
X175635061Y-79686971D01*
X175635061Y-79686971D02*
X175706489Y-79758400D01*
X175706489Y-79758400D02*
X175849346Y-79829828D01*
X175849346Y-79829828D02*
X176063632Y-79829828D01*
X172992203Y-79829828D02*
X173849346Y-79829828D01*
X173420775Y-79829828D02*
X173420775Y-78329828D01*
X173420775Y-78329828D02*
X173563632Y-78544114D01*
X173563632Y-78544114D02*
X173706489Y-78686971D01*
X173706489Y-78686971D02*
X173849346Y-78758400D01*
X171635061Y-78329828D02*
X172349347Y-78329828D01*
X172349347Y-78329828D02*
X172420775Y-79044114D01*
X172420775Y-79044114D02*
X172349347Y-78972685D01*
X172349347Y-78972685D02*
X172206490Y-78901257D01*
X172206490Y-78901257D02*
X171849347Y-78901257D01*
X171849347Y-78901257D02*
X171706490Y-78972685D01*
X171706490Y-78972685D02*
X171635061Y-79044114D01*
X171635061Y-79044114D02*
X171563632Y-79186971D01*
X171563632Y-79186971D02*
X171563632Y-79544114D01*
X171563632Y-79544114D02*
X171635061Y-79686971D01*
X171635061Y-79686971D02*
X171706490Y-79758400D01*
X171706490Y-79758400D02*
X171849347Y-79829828D01*
X171849347Y-79829828D02*
X172206490Y-79829828D01*
X172206490Y-79829828D02*
X172349347Y-79758400D01*
X172349347Y-79758400D02*
X172420775Y-79686971D01*
X171135061Y-78329828D02*
X170635061Y-79829828D01*
X170635061Y-79829828D02*
X170135061Y-78329828D01*
X168492205Y-79829828D02*
X168492205Y-78329828D01*
X168492205Y-78329828D02*
X168135062Y-78329828D01*
X168135062Y-78329828D02*
X167920776Y-78401257D01*
X167920776Y-78401257D02*
X167777919Y-78544114D01*
X167777919Y-78544114D02*
X167706490Y-78686971D01*
X167706490Y-78686971D02*
X167635062Y-78972685D01*
X167635062Y-78972685D02*
X167635062Y-79186971D01*
X167635062Y-79186971D02*
X167706490Y-79472685D01*
X167706490Y-79472685D02*
X167777919Y-79615542D01*
X167777919Y-79615542D02*
X167920776Y-79758400D01*
X167920776Y-79758400D02*
X168135062Y-79829828D01*
X168135062Y-79829828D02*
X168492205Y-79829828D01*
X166135062Y-79686971D02*
X166206490Y-79758400D01*
X166206490Y-79758400D02*
X166420776Y-79829828D01*
X166420776Y-79829828D02*
X166563633Y-79829828D01*
X166563633Y-79829828D02*
X166777919Y-79758400D01*
X166777919Y-79758400D02*
X166920776Y-79615542D01*
X166920776Y-79615542D02*
X166992205Y-79472685D01*
X166992205Y-79472685D02*
X167063633Y-79186971D01*
X167063633Y-79186971D02*
X167063633Y-78972685D01*
X167063633Y-78972685D02*
X166992205Y-78686971D01*
X166992205Y-78686971D02*
X166920776Y-78544114D01*
X166920776Y-78544114D02*
X166777919Y-78401257D01*
X166777919Y-78401257D02*
X166563633Y-78329828D01*
X166563633Y-78329828D02*
X166420776Y-78329828D01*
X166420776Y-78329828D02*
X166206490Y-78401257D01*
X166206490Y-78401257D02*
X166135062Y-78472685D01*
X164420776Y-79758400D02*
X164277919Y-79829828D01*
X164277919Y-79829828D02*
X163992205Y-79829828D01*
X163992205Y-79829828D02*
X163849348Y-79758400D01*
X163849348Y-79758400D02*
X163777919Y-79615542D01*
X163777919Y-79615542D02*
X163777919Y-79544114D01*
X163777919Y-79544114D02*
X163849348Y-79401257D01*
X163849348Y-79401257D02*
X163992205Y-79329828D01*
X163992205Y-79329828D02*
X164206491Y-79329828D01*
X164206491Y-79329828D02*
X164349348Y-79258400D01*
X164349348Y-79258400D02*
X164420776Y-79115542D01*
X164420776Y-79115542D02*
X164420776Y-79044114D01*
X164420776Y-79044114D02*
X164349348Y-78901257D01*
X164349348Y-78901257D02*
X164206491Y-78829828D01*
X164206491Y-78829828D02*
X163992205Y-78829828D01*
X163992205Y-78829828D02*
X163849348Y-78901257D01*
X162492205Y-78829828D02*
X162492205Y-79829828D01*
X163135062Y-78829828D02*
X163135062Y-79615542D01*
X163135062Y-79615542D02*
X163063633Y-79758400D01*
X163063633Y-79758400D02*
X162920776Y-79829828D01*
X162920776Y-79829828D02*
X162706490Y-79829828D01*
X162706490Y-79829828D02*
X162563633Y-79758400D01*
X162563633Y-79758400D02*
X162492205Y-79686971D01*
X161777919Y-78829828D02*
X161777919Y-80329828D01*
X161777919Y-78901257D02*
X161635062Y-78829828D01*
X161635062Y-78829828D02*
X161349347Y-78829828D01*
X161349347Y-78829828D02*
X161206490Y-78901257D01*
X161206490Y-78901257D02*
X161135062Y-78972685D01*
X161135062Y-78972685D02*
X161063633Y-79115542D01*
X161063633Y-79115542D02*
X161063633Y-79544114D01*
X161063633Y-79544114D02*
X161135062Y-79686971D01*
X161135062Y-79686971D02*
X161206490Y-79758400D01*
X161206490Y-79758400D02*
X161349347Y-79829828D01*
X161349347Y-79829828D02*
X161635062Y-79829828D01*
X161635062Y-79829828D02*
X161777919Y-79758400D01*
X160420776Y-78829828D02*
X160420776Y-80329828D01*
X160420776Y-78901257D02*
X160277919Y-78829828D01*
X160277919Y-78829828D02*
X159992204Y-78829828D01*
X159992204Y-78829828D02*
X159849347Y-78901257D01*
X159849347Y-78901257D02*
X159777919Y-78972685D01*
X159777919Y-78972685D02*
X159706490Y-79115542D01*
X159706490Y-79115542D02*
X159706490Y-79544114D01*
X159706490Y-79544114D02*
X159777919Y-79686971D01*
X159777919Y-79686971D02*
X159849347Y-79758400D01*
X159849347Y-79758400D02*
X159992204Y-79829828D01*
X159992204Y-79829828D02*
X160277919Y-79829828D01*
X160277919Y-79829828D02*
X160420776Y-79758400D01*
X158849347Y-79829828D02*
X158992204Y-79758400D01*
X158992204Y-79758400D02*
X159063633Y-79615542D01*
X159063633Y-79615542D02*
X159063633Y-78329828D01*
X158420776Y-78829828D02*
X158063633Y-79829828D01*
X157706490Y-78829828D02*
X158063633Y-79829828D01*
X158063633Y-79829828D02*
X158206490Y-80186971D01*
X158206490Y-80186971D02*
X158277919Y-80258400D01*
X158277919Y-80258400D02*
X158420776Y-80329828D01*
X157135062Y-79686971D02*
X157063633Y-79758400D01*
X157063633Y-79758400D02*
X157135062Y-79829828D01*
X157135062Y-79829828D02*
X157206490Y-79758400D01*
X157206490Y-79758400D02*
X157135062Y-79686971D01*
X157135062Y-79686971D02*
X157135062Y-79829828D01*
X134920774Y-75914912D02*
X134063632Y-75914912D01*
X134492203Y-77414912D02*
X134492203Y-75914912D01*
X133563632Y-77414912D02*
X133563632Y-75914912D01*
X133563632Y-75914912D02*
X133206489Y-75914912D01*
X133206489Y-75914912D02*
X132992203Y-75986341D01*
X132992203Y-75986341D02*
X132849346Y-76129198D01*
X132849346Y-76129198D02*
X132777917Y-76272055D01*
X132777917Y-76272055D02*
X132706489Y-76557769D01*
X132706489Y-76557769D02*
X132706489Y-76772055D01*
X132706489Y-76772055D02*
X132777917Y-77057769D01*
X132777917Y-77057769D02*
X132849346Y-77200626D01*
X132849346Y-77200626D02*
X132992203Y-77343484D01*
X132992203Y-77343484D02*
X133206489Y-77414912D01*
X133206489Y-77414912D02*
X133563632Y-77414912D01*
X132135060Y-76986341D02*
X131420775Y-76986341D01*
X132277917Y-77414912D02*
X131777917Y-75914912D01*
X131777917Y-75914912D02*
X131277917Y-77414912D01*
X130920775Y-75914912D02*
X129920775Y-75914912D01*
X129920775Y-75914912D02*
X130563632Y-77414912D01*
X129420775Y-76057769D02*
X129349347Y-75986341D01*
X129349347Y-75986341D02*
X129206490Y-75914912D01*
X129206490Y-75914912D02*
X128849347Y-75914912D01*
X128849347Y-75914912D02*
X128706490Y-75986341D01*
X128706490Y-75986341D02*
X128635061Y-76057769D01*
X128635061Y-76057769D02*
X128563632Y-76200626D01*
X128563632Y-76200626D02*
X128563632Y-76343484D01*
X128563632Y-76343484D02*
X128635061Y-76557769D01*
X128635061Y-76557769D02*
X129492204Y-77414912D01*
X129492204Y-77414912D02*
X128563632Y-77414912D01*
X127277919Y-75914912D02*
X127563633Y-75914912D01*
X127563633Y-75914912D02*
X127706490Y-75986341D01*
X127706490Y-75986341D02*
X127777919Y-76057769D01*
X127777919Y-76057769D02*
X127920776Y-76272055D01*
X127920776Y-76272055D02*
X127992204Y-76557769D01*
X127992204Y-76557769D02*
X127992204Y-77129198D01*
X127992204Y-77129198D02*
X127920776Y-77272055D01*
X127920776Y-77272055D02*
X127849347Y-77343484D01*
X127849347Y-77343484D02*
X127706490Y-77414912D01*
X127706490Y-77414912D02*
X127420776Y-77414912D01*
X127420776Y-77414912D02*
X127277919Y-77343484D01*
X127277919Y-77343484D02*
X127206490Y-77272055D01*
X127206490Y-77272055D02*
X127135061Y-77129198D01*
X127135061Y-77129198D02*
X127135061Y-76772055D01*
X127135061Y-76772055D02*
X127206490Y-76629198D01*
X127206490Y-76629198D02*
X127277919Y-76557769D01*
X127277919Y-76557769D02*
X127420776Y-76486341D01*
X127420776Y-76486341D02*
X127706490Y-76486341D01*
X127706490Y-76486341D02*
X127849347Y-76557769D01*
X127849347Y-76557769D02*
X127920776Y-76629198D01*
X127920776Y-76629198D02*
X127992204Y-76772055D01*
X126635062Y-75914912D02*
X125635062Y-75914912D01*
X125635062Y-75914912D02*
X126277919Y-77414912D01*
X123992205Y-76057769D02*
X123920777Y-75986341D01*
X123920777Y-75986341D02*
X123777920Y-75914912D01*
X123777920Y-75914912D02*
X123420777Y-75914912D01*
X123420777Y-75914912D02*
X123277920Y-75986341D01*
X123277920Y-75986341D02*
X123206491Y-76057769D01*
X123206491Y-76057769D02*
X123135062Y-76200626D01*
X123135062Y-76200626D02*
X123135062Y-76343484D01*
X123135062Y-76343484D02*
X123206491Y-76557769D01*
X123206491Y-76557769D02*
X124063634Y-77414912D01*
X124063634Y-77414912D02*
X123135062Y-77414912D01*
X122492206Y-77272055D02*
X122420777Y-77343484D01*
X122420777Y-77343484D02*
X122492206Y-77414912D01*
X122492206Y-77414912D02*
X122563634Y-77343484D01*
X122563634Y-77343484D02*
X122492206Y-77272055D01*
X122492206Y-77272055D02*
X122492206Y-77414912D01*
X121920777Y-75914912D02*
X120920777Y-75914912D01*
X120920777Y-75914912D02*
X121563634Y-77414912D01*
X120492206Y-75914912D02*
X120135063Y-77414912D01*
X120135063Y-77414912D02*
X119849349Y-76343484D01*
X119849349Y-76343484D02*
X119563634Y-77414912D01*
X119563634Y-77414912D02*
X119206492Y-75914912D01*
X117563634Y-76986341D02*
X116849349Y-76986341D01*
X117706491Y-77414912D02*
X117206491Y-75914912D01*
X117206491Y-75914912D02*
X116706491Y-77414912D01*
X116206492Y-77414912D02*
X116206492Y-76414912D01*
X116206492Y-76557769D02*
X116135063Y-76486341D01*
X116135063Y-76486341D02*
X115992206Y-76414912D01*
X115992206Y-76414912D02*
X115777920Y-76414912D01*
X115777920Y-76414912D02*
X115635063Y-76486341D01*
X115635063Y-76486341D02*
X115563635Y-76629198D01*
X115563635Y-76629198D02*
X115563635Y-77414912D01*
X115563635Y-76629198D02*
X115492206Y-76486341D01*
X115492206Y-76486341D02*
X115349349Y-76414912D01*
X115349349Y-76414912D02*
X115135063Y-76414912D01*
X115135063Y-76414912D02*
X114992206Y-76486341D01*
X114992206Y-76486341D02*
X114920777Y-76629198D01*
X114920777Y-76629198D02*
X114920777Y-77414912D01*
X114206492Y-76414912D02*
X114206492Y-77914912D01*
X114206492Y-76486341D02*
X114063635Y-76414912D01*
X114063635Y-76414912D02*
X113777920Y-76414912D01*
X113777920Y-76414912D02*
X113635063Y-76486341D01*
X113635063Y-76486341D02*
X113563635Y-76557769D01*
X113563635Y-76557769D02*
X113492206Y-76700626D01*
X113492206Y-76700626D02*
X113492206Y-77129198D01*
X113492206Y-77129198D02*
X113563635Y-77272055D01*
X113563635Y-77272055D02*
X113635063Y-77343484D01*
X113635063Y-77343484D02*
X113777920Y-77414912D01*
X113777920Y-77414912D02*
X114063635Y-77414912D01*
X114063635Y-77414912D02*
X114206492Y-77343484D01*
X112635063Y-77414912D02*
X112777920Y-77343484D01*
X112777920Y-77343484D02*
X112849349Y-77200626D01*
X112849349Y-77200626D02*
X112849349Y-75914912D01*
X112063635Y-77414912D02*
X112063635Y-76414912D01*
X112063635Y-75914912D02*
X112135063Y-75986341D01*
X112135063Y-75986341D02*
X112063635Y-76057769D01*
X112063635Y-76057769D02*
X111992206Y-75986341D01*
X111992206Y-75986341D02*
X112063635Y-75914912D01*
X112063635Y-75914912D02*
X112063635Y-76057769D01*
X111563634Y-76414912D02*
X110992206Y-76414912D01*
X111349349Y-77414912D02*
X111349349Y-76129198D01*
X111349349Y-76129198D02*
X111277920Y-75986341D01*
X111277920Y-75986341D02*
X111135063Y-75914912D01*
X111135063Y-75914912D02*
X110992206Y-75914912D01*
X110492206Y-77414912D02*
X110492206Y-76414912D01*
X110492206Y-75914912D02*
X110563634Y-75986341D01*
X110563634Y-75986341D02*
X110492206Y-76057769D01*
X110492206Y-76057769D02*
X110420777Y-75986341D01*
X110420777Y-75986341D02*
X110492206Y-75914912D01*
X110492206Y-75914912D02*
X110492206Y-76057769D01*
X109206491Y-77343484D02*
X109349348Y-77414912D01*
X109349348Y-77414912D02*
X109635063Y-77414912D01*
X109635063Y-77414912D02*
X109777920Y-77343484D01*
X109777920Y-77343484D02*
X109849348Y-77200626D01*
X109849348Y-77200626D02*
X109849348Y-76629198D01*
X109849348Y-76629198D02*
X109777920Y-76486341D01*
X109777920Y-76486341D02*
X109635063Y-76414912D01*
X109635063Y-76414912D02*
X109349348Y-76414912D01*
X109349348Y-76414912D02*
X109206491Y-76486341D01*
X109206491Y-76486341D02*
X109135063Y-76629198D01*
X109135063Y-76629198D02*
X109135063Y-76772055D01*
X109135063Y-76772055D02*
X109849348Y-76914912D01*
X108492206Y-77414912D02*
X108492206Y-76414912D01*
X108492206Y-76700626D02*
X108420777Y-76557769D01*
X108420777Y-76557769D02*
X108349349Y-76486341D01*
X108349349Y-76486341D02*
X108206491Y-76414912D01*
X108206491Y-76414912D02*
X108063634Y-76414912D01*
X107563635Y-77272055D02*
X107492206Y-77343484D01*
X107492206Y-77343484D02*
X107563635Y-77414912D01*
X107563635Y-77414912D02*
X107635063Y-77343484D01*
X107635063Y-77343484D02*
X107563635Y-77272055D01*
X107563635Y-77272055D02*
X107563635Y-77414912D01*
X133992203Y-78329828D02*
X134706489Y-78329828D01*
X134706489Y-78329828D02*
X134777917Y-79044114D01*
X134777917Y-79044114D02*
X134706489Y-78972685D01*
X134706489Y-78972685D02*
X134563632Y-78901257D01*
X134563632Y-78901257D02*
X134206489Y-78901257D01*
X134206489Y-78901257D02*
X134063632Y-78972685D01*
X134063632Y-78972685D02*
X133992203Y-79044114D01*
X133992203Y-79044114D02*
X133920774Y-79186971D01*
X133920774Y-79186971D02*
X133920774Y-79544114D01*
X133920774Y-79544114D02*
X133992203Y-79686971D01*
X133992203Y-79686971D02*
X134063632Y-79758400D01*
X134063632Y-79758400D02*
X134206489Y-79829828D01*
X134206489Y-79829828D02*
X134563632Y-79829828D01*
X134563632Y-79829828D02*
X134706489Y-79758400D01*
X134706489Y-79758400D02*
X134777917Y-79686971D01*
X132349346Y-78829828D02*
X131777918Y-78829828D01*
X132135061Y-78329828D02*
X132135061Y-79615542D01*
X132135061Y-79615542D02*
X132063632Y-79758400D01*
X132063632Y-79758400D02*
X131920775Y-79829828D01*
X131920775Y-79829828D02*
X131777918Y-79829828D01*
X131063632Y-79829828D02*
X131206489Y-79758400D01*
X131206489Y-79758400D02*
X131277918Y-79686971D01*
X131277918Y-79686971D02*
X131349346Y-79544114D01*
X131349346Y-79544114D02*
X131349346Y-79115542D01*
X131349346Y-79115542D02*
X131277918Y-78972685D01*
X131277918Y-78972685D02*
X131206489Y-78901257D01*
X131206489Y-78901257D02*
X131063632Y-78829828D01*
X131063632Y-78829828D02*
X130849346Y-78829828D01*
X130849346Y-78829828D02*
X130706489Y-78901257D01*
X130706489Y-78901257D02*
X130635061Y-78972685D01*
X130635061Y-78972685D02*
X130563632Y-79115542D01*
X130563632Y-79115542D02*
X130563632Y-79544114D01*
X130563632Y-79544114D02*
X130635061Y-79686971D01*
X130635061Y-79686971D02*
X130706489Y-79758400D01*
X130706489Y-79758400D02*
X130849346Y-79829828D01*
X130849346Y-79829828D02*
X131063632Y-79829828D01*
X127992203Y-79829828D02*
X128849346Y-79829828D01*
X128420775Y-79829828D02*
X128420775Y-78329828D01*
X128420775Y-78329828D02*
X128563632Y-78544114D01*
X128563632Y-78544114D02*
X128706489Y-78686971D01*
X128706489Y-78686971D02*
X128849346Y-78758400D01*
X126635061Y-78329828D02*
X127349347Y-78329828D01*
X127349347Y-78329828D02*
X127420775Y-79044114D01*
X127420775Y-79044114D02*
X127349347Y-78972685D01*
X127349347Y-78972685D02*
X127206490Y-78901257D01*
X127206490Y-78901257D02*
X126849347Y-78901257D01*
X126849347Y-78901257D02*
X126706490Y-78972685D01*
X126706490Y-78972685D02*
X126635061Y-79044114D01*
X126635061Y-79044114D02*
X126563632Y-79186971D01*
X126563632Y-79186971D02*
X126563632Y-79544114D01*
X126563632Y-79544114D02*
X126635061Y-79686971D01*
X126635061Y-79686971D02*
X126706490Y-79758400D01*
X126706490Y-79758400D02*
X126849347Y-79829828D01*
X126849347Y-79829828D02*
X127206490Y-79829828D01*
X127206490Y-79829828D02*
X127349347Y-79758400D01*
X127349347Y-79758400D02*
X127420775Y-79686971D01*
X126135061Y-78329828D02*
X125635061Y-79829828D01*
X125635061Y-79829828D02*
X125135061Y-78329828D01*
X123492205Y-79829828D02*
X123492205Y-78329828D01*
X123492205Y-78329828D02*
X123135062Y-78329828D01*
X123135062Y-78329828D02*
X122920776Y-78401257D01*
X122920776Y-78401257D02*
X122777919Y-78544114D01*
X122777919Y-78544114D02*
X122706490Y-78686971D01*
X122706490Y-78686971D02*
X122635062Y-78972685D01*
X122635062Y-78972685D02*
X122635062Y-79186971D01*
X122635062Y-79186971D02*
X122706490Y-79472685D01*
X122706490Y-79472685D02*
X122777919Y-79615542D01*
X122777919Y-79615542D02*
X122920776Y-79758400D01*
X122920776Y-79758400D02*
X123135062Y-79829828D01*
X123135062Y-79829828D02*
X123492205Y-79829828D01*
X121135062Y-79686971D02*
X121206490Y-79758400D01*
X121206490Y-79758400D02*
X121420776Y-79829828D01*
X121420776Y-79829828D02*
X121563633Y-79829828D01*
X121563633Y-79829828D02*
X121777919Y-79758400D01*
X121777919Y-79758400D02*
X121920776Y-79615542D01*
X121920776Y-79615542D02*
X121992205Y-79472685D01*
X121992205Y-79472685D02*
X122063633Y-79186971D01*
X122063633Y-79186971D02*
X122063633Y-78972685D01*
X122063633Y-78972685D02*
X121992205Y-78686971D01*
X121992205Y-78686971D02*
X121920776Y-78544114D01*
X121920776Y-78544114D02*
X121777919Y-78401257D01*
X121777919Y-78401257D02*
X121563633Y-78329828D01*
X121563633Y-78329828D02*
X121420776Y-78329828D01*
X121420776Y-78329828D02*
X121206490Y-78401257D01*
X121206490Y-78401257D02*
X121135062Y-78472685D01*
X119420776Y-79758400D02*
X119277919Y-79829828D01*
X119277919Y-79829828D02*
X118992205Y-79829828D01*
X118992205Y-79829828D02*
X118849348Y-79758400D01*
X118849348Y-79758400D02*
X118777919Y-79615542D01*
X118777919Y-79615542D02*
X118777919Y-79544114D01*
X118777919Y-79544114D02*
X118849348Y-79401257D01*
X118849348Y-79401257D02*
X118992205Y-79329828D01*
X118992205Y-79329828D02*
X119206491Y-79329828D01*
X119206491Y-79329828D02*
X119349348Y-79258400D01*
X119349348Y-79258400D02*
X119420776Y-79115542D01*
X119420776Y-79115542D02*
X119420776Y-79044114D01*
X119420776Y-79044114D02*
X119349348Y-78901257D01*
X119349348Y-78901257D02*
X119206491Y-78829828D01*
X119206491Y-78829828D02*
X118992205Y-78829828D01*
X118992205Y-78829828D02*
X118849348Y-78901257D01*
X117492205Y-78829828D02*
X117492205Y-79829828D01*
X118135062Y-78829828D02*
X118135062Y-79615542D01*
X118135062Y-79615542D02*
X118063633Y-79758400D01*
X118063633Y-79758400D02*
X117920776Y-79829828D01*
X117920776Y-79829828D02*
X117706490Y-79829828D01*
X117706490Y-79829828D02*
X117563633Y-79758400D01*
X117563633Y-79758400D02*
X117492205Y-79686971D01*
X116777919Y-78829828D02*
X116777919Y-80329828D01*
X116777919Y-78901257D02*
X116635062Y-78829828D01*
X116635062Y-78829828D02*
X116349347Y-78829828D01*
X116349347Y-78829828D02*
X116206490Y-78901257D01*
X116206490Y-78901257D02*
X116135062Y-78972685D01*
X116135062Y-78972685D02*
X116063633Y-79115542D01*
X116063633Y-79115542D02*
X116063633Y-79544114D01*
X116063633Y-79544114D02*
X116135062Y-79686971D01*
X116135062Y-79686971D02*
X116206490Y-79758400D01*
X116206490Y-79758400D02*
X116349347Y-79829828D01*
X116349347Y-79829828D02*
X116635062Y-79829828D01*
X116635062Y-79829828D02*
X116777919Y-79758400D01*
X115420776Y-78829828D02*
X115420776Y-80329828D01*
X115420776Y-78901257D02*
X115277919Y-78829828D01*
X115277919Y-78829828D02*
X114992204Y-78829828D01*
X114992204Y-78829828D02*
X114849347Y-78901257D01*
X114849347Y-78901257D02*
X114777919Y-78972685D01*
X114777919Y-78972685D02*
X114706490Y-79115542D01*
X114706490Y-79115542D02*
X114706490Y-79544114D01*
X114706490Y-79544114D02*
X114777919Y-79686971D01*
X114777919Y-79686971D02*
X114849347Y-79758400D01*
X114849347Y-79758400D02*
X114992204Y-79829828D01*
X114992204Y-79829828D02*
X115277919Y-79829828D01*
X115277919Y-79829828D02*
X115420776Y-79758400D01*
X113849347Y-79829828D02*
X113992204Y-79758400D01*
X113992204Y-79758400D02*
X114063633Y-79615542D01*
X114063633Y-79615542D02*
X114063633Y-78329828D01*
X113420776Y-78829828D02*
X113063633Y-79829828D01*
X112706490Y-78829828D02*
X113063633Y-79829828D01*
X113063633Y-79829828D02*
X113206490Y-80186971D01*
X113206490Y-80186971D02*
X113277919Y-80258400D01*
X113277919Y-80258400D02*
X113420776Y-80329828D01*
X112135062Y-79686971D02*
X112063633Y-79758400D01*
X112063633Y-79758400D02*
X112135062Y-79829828D01*
X112135062Y-79829828D02*
X112206490Y-79758400D01*
X112206490Y-79758400D02*
X112135062Y-79686971D01*
X112135062Y-79686971D02*
X112135062Y-79829828D01*
X179920774Y-116914912D02*
X179063632Y-116914912D01*
X179492203Y-118414912D02*
X179492203Y-116914912D01*
X178563632Y-118414912D02*
X178563632Y-116914912D01*
X178563632Y-116914912D02*
X178206489Y-116914912D01*
X178206489Y-116914912D02*
X177992203Y-116986341D01*
X177992203Y-116986341D02*
X177849346Y-117129198D01*
X177849346Y-117129198D02*
X177777917Y-117272055D01*
X177777917Y-117272055D02*
X177706489Y-117557769D01*
X177706489Y-117557769D02*
X177706489Y-117772055D01*
X177706489Y-117772055D02*
X177777917Y-118057769D01*
X177777917Y-118057769D02*
X177849346Y-118200626D01*
X177849346Y-118200626D02*
X177992203Y-118343484D01*
X177992203Y-118343484D02*
X178206489Y-118414912D01*
X178206489Y-118414912D02*
X178563632Y-118414912D01*
X177135060Y-117986341D02*
X176420775Y-117986341D01*
X177277917Y-118414912D02*
X176777917Y-116914912D01*
X176777917Y-116914912D02*
X176277917Y-118414912D01*
X175920775Y-116914912D02*
X174920775Y-116914912D01*
X174920775Y-116914912D02*
X175563632Y-118414912D01*
X174420775Y-117057769D02*
X174349347Y-116986341D01*
X174349347Y-116986341D02*
X174206490Y-116914912D01*
X174206490Y-116914912D02*
X173849347Y-116914912D01*
X173849347Y-116914912D02*
X173706490Y-116986341D01*
X173706490Y-116986341D02*
X173635061Y-117057769D01*
X173635061Y-117057769D02*
X173563632Y-117200626D01*
X173563632Y-117200626D02*
X173563632Y-117343484D01*
X173563632Y-117343484D02*
X173635061Y-117557769D01*
X173635061Y-117557769D02*
X174492204Y-118414912D01*
X174492204Y-118414912D02*
X173563632Y-118414912D01*
X172277919Y-116914912D02*
X172563633Y-116914912D01*
X172563633Y-116914912D02*
X172706490Y-116986341D01*
X172706490Y-116986341D02*
X172777919Y-117057769D01*
X172777919Y-117057769D02*
X172920776Y-117272055D01*
X172920776Y-117272055D02*
X172992204Y-117557769D01*
X172992204Y-117557769D02*
X172992204Y-118129198D01*
X172992204Y-118129198D02*
X172920776Y-118272055D01*
X172920776Y-118272055D02*
X172849347Y-118343484D01*
X172849347Y-118343484D02*
X172706490Y-118414912D01*
X172706490Y-118414912D02*
X172420776Y-118414912D01*
X172420776Y-118414912D02*
X172277919Y-118343484D01*
X172277919Y-118343484D02*
X172206490Y-118272055D01*
X172206490Y-118272055D02*
X172135061Y-118129198D01*
X172135061Y-118129198D02*
X172135061Y-117772055D01*
X172135061Y-117772055D02*
X172206490Y-117629198D01*
X172206490Y-117629198D02*
X172277919Y-117557769D01*
X172277919Y-117557769D02*
X172420776Y-117486341D01*
X172420776Y-117486341D02*
X172706490Y-117486341D01*
X172706490Y-117486341D02*
X172849347Y-117557769D01*
X172849347Y-117557769D02*
X172920776Y-117629198D01*
X172920776Y-117629198D02*
X172992204Y-117772055D01*
X171635062Y-116914912D02*
X170635062Y-116914912D01*
X170635062Y-116914912D02*
X171277919Y-118414912D01*
X168992205Y-117057769D02*
X168920777Y-116986341D01*
X168920777Y-116986341D02*
X168777920Y-116914912D01*
X168777920Y-116914912D02*
X168420777Y-116914912D01*
X168420777Y-116914912D02*
X168277920Y-116986341D01*
X168277920Y-116986341D02*
X168206491Y-117057769D01*
X168206491Y-117057769D02*
X168135062Y-117200626D01*
X168135062Y-117200626D02*
X168135062Y-117343484D01*
X168135062Y-117343484D02*
X168206491Y-117557769D01*
X168206491Y-117557769D02*
X169063634Y-118414912D01*
X169063634Y-118414912D02*
X168135062Y-118414912D01*
X167492206Y-118272055D02*
X167420777Y-118343484D01*
X167420777Y-118343484D02*
X167492206Y-118414912D01*
X167492206Y-118414912D02*
X167563634Y-118343484D01*
X167563634Y-118343484D02*
X167492206Y-118272055D01*
X167492206Y-118272055D02*
X167492206Y-118414912D01*
X166920777Y-116914912D02*
X165920777Y-116914912D01*
X165920777Y-116914912D02*
X166563634Y-118414912D01*
X165492206Y-116914912D02*
X165135063Y-118414912D01*
X165135063Y-118414912D02*
X164849349Y-117343484D01*
X164849349Y-117343484D02*
X164563634Y-118414912D01*
X164563634Y-118414912D02*
X164206492Y-116914912D01*
X162563634Y-117986341D02*
X161849349Y-117986341D01*
X162706491Y-118414912D02*
X162206491Y-116914912D01*
X162206491Y-116914912D02*
X161706491Y-118414912D01*
X161206492Y-118414912D02*
X161206492Y-117414912D01*
X161206492Y-117557769D02*
X161135063Y-117486341D01*
X161135063Y-117486341D02*
X160992206Y-117414912D01*
X160992206Y-117414912D02*
X160777920Y-117414912D01*
X160777920Y-117414912D02*
X160635063Y-117486341D01*
X160635063Y-117486341D02*
X160563635Y-117629198D01*
X160563635Y-117629198D02*
X160563635Y-118414912D01*
X160563635Y-117629198D02*
X160492206Y-117486341D01*
X160492206Y-117486341D02*
X160349349Y-117414912D01*
X160349349Y-117414912D02*
X160135063Y-117414912D01*
X160135063Y-117414912D02*
X159992206Y-117486341D01*
X159992206Y-117486341D02*
X159920777Y-117629198D01*
X159920777Y-117629198D02*
X159920777Y-118414912D01*
X159206492Y-117414912D02*
X159206492Y-118914912D01*
X159206492Y-117486341D02*
X159063635Y-117414912D01*
X159063635Y-117414912D02*
X158777920Y-117414912D01*
X158777920Y-117414912D02*
X158635063Y-117486341D01*
X158635063Y-117486341D02*
X158563635Y-117557769D01*
X158563635Y-117557769D02*
X158492206Y-117700626D01*
X158492206Y-117700626D02*
X158492206Y-118129198D01*
X158492206Y-118129198D02*
X158563635Y-118272055D01*
X158563635Y-118272055D02*
X158635063Y-118343484D01*
X158635063Y-118343484D02*
X158777920Y-118414912D01*
X158777920Y-118414912D02*
X159063635Y-118414912D01*
X159063635Y-118414912D02*
X159206492Y-118343484D01*
X157635063Y-118414912D02*
X157777920Y-118343484D01*
X157777920Y-118343484D02*
X157849349Y-118200626D01*
X157849349Y-118200626D02*
X157849349Y-116914912D01*
X157063635Y-118414912D02*
X157063635Y-117414912D01*
X157063635Y-116914912D02*
X157135063Y-116986341D01*
X157135063Y-116986341D02*
X157063635Y-117057769D01*
X157063635Y-117057769D02*
X156992206Y-116986341D01*
X156992206Y-116986341D02*
X157063635Y-116914912D01*
X157063635Y-116914912D02*
X157063635Y-117057769D01*
X156563634Y-117414912D02*
X155992206Y-117414912D01*
X156349349Y-118414912D02*
X156349349Y-117129198D01*
X156349349Y-117129198D02*
X156277920Y-116986341D01*
X156277920Y-116986341D02*
X156135063Y-116914912D01*
X156135063Y-116914912D02*
X155992206Y-116914912D01*
X155492206Y-118414912D02*
X155492206Y-117414912D01*
X155492206Y-116914912D02*
X155563634Y-116986341D01*
X155563634Y-116986341D02*
X155492206Y-117057769D01*
X155492206Y-117057769D02*
X155420777Y-116986341D01*
X155420777Y-116986341D02*
X155492206Y-116914912D01*
X155492206Y-116914912D02*
X155492206Y-117057769D01*
X154206491Y-118343484D02*
X154349348Y-118414912D01*
X154349348Y-118414912D02*
X154635063Y-118414912D01*
X154635063Y-118414912D02*
X154777920Y-118343484D01*
X154777920Y-118343484D02*
X154849348Y-118200626D01*
X154849348Y-118200626D02*
X154849348Y-117629198D01*
X154849348Y-117629198D02*
X154777920Y-117486341D01*
X154777920Y-117486341D02*
X154635063Y-117414912D01*
X154635063Y-117414912D02*
X154349348Y-117414912D01*
X154349348Y-117414912D02*
X154206491Y-117486341D01*
X154206491Y-117486341D02*
X154135063Y-117629198D01*
X154135063Y-117629198D02*
X154135063Y-117772055D01*
X154135063Y-117772055D02*
X154849348Y-117914912D01*
X153492206Y-118414912D02*
X153492206Y-117414912D01*
X153492206Y-117700626D02*
X153420777Y-117557769D01*
X153420777Y-117557769D02*
X153349349Y-117486341D01*
X153349349Y-117486341D02*
X153206491Y-117414912D01*
X153206491Y-117414912D02*
X153063634Y-117414912D01*
X152563635Y-118272055D02*
X152492206Y-118343484D01*
X152492206Y-118343484D02*
X152563635Y-118414912D01*
X152563635Y-118414912D02*
X152635063Y-118343484D01*
X152635063Y-118343484D02*
X152563635Y-118272055D01*
X152563635Y-118272055D02*
X152563635Y-118414912D01*
X178992203Y-119329828D02*
X179706489Y-119329828D01*
X179706489Y-119329828D02*
X179777917Y-120044114D01*
X179777917Y-120044114D02*
X179706489Y-119972685D01*
X179706489Y-119972685D02*
X179563632Y-119901257D01*
X179563632Y-119901257D02*
X179206489Y-119901257D01*
X179206489Y-119901257D02*
X179063632Y-119972685D01*
X179063632Y-119972685D02*
X178992203Y-120044114D01*
X178992203Y-120044114D02*
X178920774Y-120186971D01*
X178920774Y-120186971D02*
X178920774Y-120544114D01*
X178920774Y-120544114D02*
X178992203Y-120686971D01*
X178992203Y-120686971D02*
X179063632Y-120758400D01*
X179063632Y-120758400D02*
X179206489Y-120829828D01*
X179206489Y-120829828D02*
X179563632Y-120829828D01*
X179563632Y-120829828D02*
X179706489Y-120758400D01*
X179706489Y-120758400D02*
X179777917Y-120686971D01*
X177349346Y-119829828D02*
X176777918Y-119829828D01*
X177135061Y-119329828D02*
X177135061Y-120615542D01*
X177135061Y-120615542D02*
X177063632Y-120758400D01*
X177063632Y-120758400D02*
X176920775Y-120829828D01*
X176920775Y-120829828D02*
X176777918Y-120829828D01*
X176063632Y-120829828D02*
X176206489Y-120758400D01*
X176206489Y-120758400D02*
X176277918Y-120686971D01*
X176277918Y-120686971D02*
X176349346Y-120544114D01*
X176349346Y-120544114D02*
X176349346Y-120115542D01*
X176349346Y-120115542D02*
X176277918Y-119972685D01*
X176277918Y-119972685D02*
X176206489Y-119901257D01*
X176206489Y-119901257D02*
X176063632Y-119829828D01*
X176063632Y-119829828D02*
X175849346Y-119829828D01*
X175849346Y-119829828D02*
X175706489Y-119901257D01*
X175706489Y-119901257D02*
X175635061Y-119972685D01*
X175635061Y-119972685D02*
X175563632Y-120115542D01*
X175563632Y-120115542D02*
X175563632Y-120544114D01*
X175563632Y-120544114D02*
X175635061Y-120686971D01*
X175635061Y-120686971D02*
X175706489Y-120758400D01*
X175706489Y-120758400D02*
X175849346Y-120829828D01*
X175849346Y-120829828D02*
X176063632Y-120829828D01*
X172992203Y-120829828D02*
X173849346Y-120829828D01*
X173420775Y-120829828D02*
X173420775Y-119329828D01*
X173420775Y-119329828D02*
X173563632Y-119544114D01*
X173563632Y-119544114D02*
X173706489Y-119686971D01*
X173706489Y-119686971D02*
X173849346Y-119758400D01*
X171635061Y-119329828D02*
X172349347Y-119329828D01*
X172349347Y-119329828D02*
X172420775Y-120044114D01*
X172420775Y-120044114D02*
X172349347Y-119972685D01*
X172349347Y-119972685D02*
X172206490Y-119901257D01*
X172206490Y-119901257D02*
X171849347Y-119901257D01*
X171849347Y-119901257D02*
X171706490Y-119972685D01*
X171706490Y-119972685D02*
X171635061Y-120044114D01*
X171635061Y-120044114D02*
X171563632Y-120186971D01*
X171563632Y-120186971D02*
X171563632Y-120544114D01*
X171563632Y-120544114D02*
X171635061Y-120686971D01*
X171635061Y-120686971D02*
X171706490Y-120758400D01*
X171706490Y-120758400D02*
X171849347Y-120829828D01*
X171849347Y-120829828D02*
X172206490Y-120829828D01*
X172206490Y-120829828D02*
X172349347Y-120758400D01*
X172349347Y-120758400D02*
X172420775Y-120686971D01*
X171135061Y-119329828D02*
X170635061Y-120829828D01*
X170635061Y-120829828D02*
X170135061Y-119329828D01*
X168492205Y-120829828D02*
X168492205Y-119329828D01*
X168492205Y-119329828D02*
X168135062Y-119329828D01*
X168135062Y-119329828D02*
X167920776Y-119401257D01*
X167920776Y-119401257D02*
X167777919Y-119544114D01*
X167777919Y-119544114D02*
X167706490Y-119686971D01*
X167706490Y-119686971D02*
X167635062Y-119972685D01*
X167635062Y-119972685D02*
X167635062Y-120186971D01*
X167635062Y-120186971D02*
X167706490Y-120472685D01*
X167706490Y-120472685D02*
X167777919Y-120615542D01*
X167777919Y-120615542D02*
X167920776Y-120758400D01*
X167920776Y-120758400D02*
X168135062Y-120829828D01*
X168135062Y-120829828D02*
X168492205Y-120829828D01*
X166135062Y-120686971D02*
X166206490Y-120758400D01*
X166206490Y-120758400D02*
X166420776Y-120829828D01*
X166420776Y-120829828D02*
X166563633Y-120829828D01*
X166563633Y-120829828D02*
X166777919Y-120758400D01*
X166777919Y-120758400D02*
X166920776Y-120615542D01*
X166920776Y-120615542D02*
X166992205Y-120472685D01*
X166992205Y-120472685D02*
X167063633Y-120186971D01*
X167063633Y-120186971D02*
X167063633Y-119972685D01*
X167063633Y-119972685D02*
X166992205Y-119686971D01*
X166992205Y-119686971D02*
X166920776Y-119544114D01*
X166920776Y-119544114D02*
X166777919Y-119401257D01*
X166777919Y-119401257D02*
X166563633Y-119329828D01*
X166563633Y-119329828D02*
X166420776Y-119329828D01*
X166420776Y-119329828D02*
X166206490Y-119401257D01*
X166206490Y-119401257D02*
X166135062Y-119472685D01*
X164420776Y-120758400D02*
X164277919Y-120829828D01*
X164277919Y-120829828D02*
X163992205Y-120829828D01*
X163992205Y-120829828D02*
X163849348Y-120758400D01*
X163849348Y-120758400D02*
X163777919Y-120615542D01*
X163777919Y-120615542D02*
X163777919Y-120544114D01*
X163777919Y-120544114D02*
X163849348Y-120401257D01*
X163849348Y-120401257D02*
X163992205Y-120329828D01*
X163992205Y-120329828D02*
X164206491Y-120329828D01*
X164206491Y-120329828D02*
X164349348Y-120258400D01*
X164349348Y-120258400D02*
X164420776Y-120115542D01*
X164420776Y-120115542D02*
X164420776Y-120044114D01*
X164420776Y-120044114D02*
X164349348Y-119901257D01*
X164349348Y-119901257D02*
X164206491Y-119829828D01*
X164206491Y-119829828D02*
X163992205Y-119829828D01*
X163992205Y-119829828D02*
X163849348Y-119901257D01*
X162492205Y-119829828D02*
X162492205Y-120829828D01*
X163135062Y-119829828D02*
X163135062Y-120615542D01*
X163135062Y-120615542D02*
X163063633Y-120758400D01*
X163063633Y-120758400D02*
X162920776Y-120829828D01*
X162920776Y-120829828D02*
X162706490Y-120829828D01*
X162706490Y-120829828D02*
X162563633Y-120758400D01*
X162563633Y-120758400D02*
X162492205Y-120686971D01*
X161777919Y-119829828D02*
X161777919Y-121329828D01*
X161777919Y-119901257D02*
X161635062Y-119829828D01*
X161635062Y-119829828D02*
X161349347Y-119829828D01*
X161349347Y-119829828D02*
X161206490Y-119901257D01*
X161206490Y-119901257D02*
X161135062Y-119972685D01*
X161135062Y-119972685D02*
X161063633Y-120115542D01*
X161063633Y-120115542D02*
X161063633Y-120544114D01*
X161063633Y-120544114D02*
X161135062Y-120686971D01*
X161135062Y-120686971D02*
X161206490Y-120758400D01*
X161206490Y-120758400D02*
X161349347Y-120829828D01*
X161349347Y-120829828D02*
X161635062Y-120829828D01*
X161635062Y-120829828D02*
X161777919Y-120758400D01*
X160420776Y-119829828D02*
X160420776Y-121329828D01*
X160420776Y-119901257D02*
X160277919Y-119829828D01*
X160277919Y-119829828D02*
X159992204Y-119829828D01*
X159992204Y-119829828D02*
X159849347Y-119901257D01*
X159849347Y-119901257D02*
X159777919Y-119972685D01*
X159777919Y-119972685D02*
X159706490Y-120115542D01*
X159706490Y-120115542D02*
X159706490Y-120544114D01*
X159706490Y-120544114D02*
X159777919Y-120686971D01*
X159777919Y-120686971D02*
X159849347Y-120758400D01*
X159849347Y-120758400D02*
X159992204Y-120829828D01*
X159992204Y-120829828D02*
X160277919Y-120829828D01*
X160277919Y-120829828D02*
X160420776Y-120758400D01*
X158849347Y-120829828D02*
X158992204Y-120758400D01*
X158992204Y-120758400D02*
X159063633Y-120615542D01*
X159063633Y-120615542D02*
X159063633Y-119329828D01*
X158420776Y-119829828D02*
X158063633Y-120829828D01*
X157706490Y-119829828D02*
X158063633Y-120829828D01*
X158063633Y-120829828D02*
X158206490Y-121186971D01*
X158206490Y-121186971D02*
X158277919Y-121258400D01*
X158277919Y-121258400D02*
X158420776Y-121329828D01*
X157135062Y-120686971D02*
X157063633Y-120758400D01*
X157063633Y-120758400D02*
X157135062Y-120829828D01*
X157135062Y-120829828D02*
X157206490Y-120758400D01*
X157206490Y-120758400D02*
X157135062Y-120686971D01*
X157135062Y-120686971D02*
X157135062Y-120829828D01*
D11*
X99966948Y-86629000D02*
X188566948Y-86629000D01*
X144266948Y-46129000D02*
X144266948Y-127129000D01*
M02*
