%TF.GenerationSoftware,KiCad,Pcbnew,9.0.4*%
%TF.CreationDate,2025-09-13T13:10:49+02:00*%
%TF.ProjectId,TDA7267_2x2_panel,54444137-3236-4375-9f32-78325f70616e,rev?*%
%TF.SameCoordinates,Original*%
%TF.FileFunction,Soldermask,Bot*%
%TF.FilePolarity,Negative*%
%FSLAX46Y46*%
G04 Gerber Fmt 4.6, Leading zero omitted, Abs format (unit mm)*
G04 Created by KiCad (PCBNEW 9.0.4) date 2025-09-13 13:10:49*
%MOMM*%
%LPD*%
G01*
G04 APERTURE LIST*
G04 Aperture macros list*
%AMRoundRect*
0 Rectangle with rounded corners*
0 $1 Rounding radius*
0 $2 $3 $4 $5 $6 $7 $8 $9 X,Y pos of 4 corners*
0 Add a 4 corners polygon primitive as box body*
4,1,4,$2,$3,$4,$5,$6,$7,$8,$9,$2,$3,0*
0 Add four circle primitives for the rounded corners*
1,1,$1+$1,$2,$3*
1,1,$1+$1,$4,$5*
1,1,$1+$1,$6,$7*
1,1,$1+$1,$8,$9*
0 Add four rect primitives between the rounded corners*
20,1,$1+$1,$2,$3,$4,$5,0*
20,1,$1+$1,$4,$5,$6,$7,0*
20,1,$1+$1,$6,$7,$8,$9,0*
20,1,$1+$1,$8,$9,$2,$3,0*%
G04 Aperture macros list end*
%ADD10C,2.200000*%
%ADD11C,2.000000*%
%ADD12RoundRect,0.250000X-0.750000X-0.750000X0.750000X-0.750000X0.750000X0.750000X-0.750000X0.750000X0*%
%ADD13C,1.600000*%
%ADD14RoundRect,0.250000X0.550000X0.550000X-0.550000X0.550000X-0.550000X-0.550000X0.550000X-0.550000X0*%
%ADD15C,3.000000*%
%ADD16R,3.000000X3.000000*%
%ADD17C,2.340000*%
%ADD18O,2.400000X1.600000*%
%ADD19RoundRect,0.250000X-0.950000X-0.550000X0.950000X-0.550000X0.950000X0.550000X-0.950000X0.550000X0*%
%ADD20C,1.800000*%
%ADD21R,1.800000X1.800000*%
G04 APERTURE END LIST*
D10*
%TO.C,H3*%
X103261000Y-117129000D03*
%TD*%
D11*
%TO.C,C6*%
X140393323Y-98629000D03*
D12*
X135393323Y-98629000D03*
%TD*%
D13*
%TO.C,C4*%
X102961000Y-109529000D03*
D14*
X106761000Y-109529000D03*
%TD*%
D15*
%TO.C,VCC1*%
X108761000Y-124129000D03*
D16*
X103681000Y-124129000D03*
%TD*%
D10*
%TO.C,H4*%
X140261000Y-117129000D03*
%TD*%
D13*
%TO.C,C5*%
X119761000Y-95629000D03*
X119761000Y-90629000D03*
%TD*%
%TO.C,C2*%
X110961000Y-100129000D03*
D14*
X114761000Y-100129000D03*
%TD*%
D10*
%TO.C,H2*%
X140261000Y-90629000D03*
%TD*%
D17*
%TO.C,RV1*%
X126261000Y-123879000D03*
X121261000Y-123879000D03*
X116261000Y-123879000D03*
%TD*%
D18*
%TO.C,U1*%
X130071000Y-98879000D03*
X130071000Y-101419000D03*
X130071000Y-103959000D03*
X130071000Y-106499000D03*
X122451000Y-106499000D03*
X122451000Y-103959000D03*
X122451000Y-101419000D03*
D19*
X122451000Y-98879000D03*
%TD*%
D13*
%TO.C,R2*%
X141571000Y-106629000D03*
X133951000Y-106629000D03*
%TD*%
%TO.C,C1*%
X123761000Y-113879000D03*
X128761000Y-113879000D03*
%TD*%
D10*
%TO.C,H1*%
X103261000Y-90629000D03*
%TD*%
D20*
%TO.C,D1*%
X135761000Y-113129000D03*
D21*
X133221000Y-113129000D03*
%TD*%
D13*
%TO.C,R1*%
X117961000Y-106569000D03*
X117961000Y-114189000D03*
%TD*%
D15*
%TO.C,OUT1*%
X124981000Y-90129000D03*
D16*
X130061000Y-90129000D03*
%TD*%
D13*
%TO.C,C3*%
X112961000Y-107689000D03*
X112961000Y-112689000D03*
%TD*%
D15*
%TO.C,IN1*%
X139301000Y-124129000D03*
D16*
X134221000Y-124129000D03*
%TD*%
D10*
%TO.C,H3*%
X148261000Y-76129000D03*
%TD*%
D11*
%TO.C,C6*%
X185393323Y-57629000D03*
D12*
X180393323Y-57629000D03*
%TD*%
D13*
%TO.C,C4*%
X147961000Y-68529000D03*
D14*
X151761000Y-68529000D03*
%TD*%
D15*
%TO.C,VCC1*%
X153761000Y-83129000D03*
D16*
X148681000Y-83129000D03*
%TD*%
D10*
%TO.C,H4*%
X185261000Y-76129000D03*
%TD*%
D13*
%TO.C,C5*%
X164761000Y-54629000D03*
X164761000Y-49629000D03*
%TD*%
%TO.C,C2*%
X155961000Y-59129000D03*
D14*
X159761000Y-59129000D03*
%TD*%
D10*
%TO.C,H2*%
X185261000Y-49629000D03*
%TD*%
D17*
%TO.C,RV1*%
X171261000Y-82879000D03*
X166261000Y-82879000D03*
X161261000Y-82879000D03*
%TD*%
D18*
%TO.C,U1*%
X175071000Y-57879000D03*
X175071000Y-60419000D03*
X175071000Y-62959000D03*
X175071000Y-65499000D03*
X167451000Y-65499000D03*
X167451000Y-62959000D03*
X167451000Y-60419000D03*
D19*
X167451000Y-57879000D03*
%TD*%
D13*
%TO.C,R2*%
X186571000Y-65629000D03*
X178951000Y-65629000D03*
%TD*%
%TO.C,C1*%
X168761000Y-72879000D03*
X173761000Y-72879000D03*
%TD*%
D10*
%TO.C,H1*%
X148261000Y-49629000D03*
%TD*%
D20*
%TO.C,D1*%
X180761000Y-72129000D03*
D21*
X178221000Y-72129000D03*
%TD*%
D13*
%TO.C,R1*%
X162961000Y-65569000D03*
X162961000Y-73189000D03*
%TD*%
D15*
%TO.C,OUT1*%
X169981000Y-49129000D03*
D16*
X175061000Y-49129000D03*
%TD*%
D13*
%TO.C,C3*%
X157961000Y-66689000D03*
X157961000Y-71689000D03*
%TD*%
D15*
%TO.C,IN1*%
X184301000Y-83129000D03*
D16*
X179221000Y-83129000D03*
%TD*%
D10*
%TO.C,H3*%
X103261000Y-76129000D03*
%TD*%
D11*
%TO.C,C6*%
X140393323Y-57629000D03*
D12*
X135393323Y-57629000D03*
%TD*%
D13*
%TO.C,C4*%
X102961000Y-68529000D03*
D14*
X106761000Y-68529000D03*
%TD*%
D15*
%TO.C,VCC1*%
X108761000Y-83129000D03*
D16*
X103681000Y-83129000D03*
%TD*%
D10*
%TO.C,H4*%
X140261000Y-76129000D03*
%TD*%
D13*
%TO.C,C5*%
X119761000Y-54629000D03*
X119761000Y-49629000D03*
%TD*%
%TO.C,C2*%
X110961000Y-59129000D03*
D14*
X114761000Y-59129000D03*
%TD*%
D10*
%TO.C,H2*%
X140261000Y-49629000D03*
%TD*%
D17*
%TO.C,RV1*%
X126261000Y-82879000D03*
X121261000Y-82879000D03*
X116261000Y-82879000D03*
%TD*%
D18*
%TO.C,U1*%
X130071000Y-57879000D03*
X130071000Y-60419000D03*
X130071000Y-62959000D03*
X130071000Y-65499000D03*
X122451000Y-65499000D03*
X122451000Y-62959000D03*
X122451000Y-60419000D03*
D19*
X122451000Y-57879000D03*
%TD*%
D13*
%TO.C,R2*%
X141571000Y-65629000D03*
X133951000Y-65629000D03*
%TD*%
%TO.C,C1*%
X123761000Y-72879000D03*
X128761000Y-72879000D03*
%TD*%
D10*
%TO.C,H1*%
X103261000Y-49629000D03*
%TD*%
D20*
%TO.C,D1*%
X135761000Y-72129000D03*
D21*
X133221000Y-72129000D03*
%TD*%
D13*
%TO.C,R1*%
X117961000Y-65569000D03*
X117961000Y-73189000D03*
%TD*%
D15*
%TO.C,OUT1*%
X124981000Y-49129000D03*
D16*
X130061000Y-49129000D03*
%TD*%
D13*
%TO.C,C3*%
X112961000Y-66689000D03*
X112961000Y-71689000D03*
%TD*%
D15*
%TO.C,IN1*%
X139301000Y-83129000D03*
D16*
X134221000Y-83129000D03*
%TD*%
D13*
%TO.C,C3*%
X157961000Y-107689000D03*
X157961000Y-112689000D03*
%TD*%
D15*
%TO.C,IN1*%
X184301000Y-124129000D03*
D16*
X179221000Y-124129000D03*
%TD*%
D13*
%TO.C,R1*%
X162961000Y-106569000D03*
X162961000Y-114189000D03*
%TD*%
D20*
%TO.C,D1*%
X180761000Y-113129000D03*
D21*
X178221000Y-113129000D03*
%TD*%
D10*
%TO.C,H1*%
X148261000Y-90629000D03*
%TD*%
D15*
%TO.C,OUT1*%
X169981000Y-90129000D03*
D16*
X175061000Y-90129000D03*
%TD*%
D13*
%TO.C,C5*%
X164761000Y-95629000D03*
X164761000Y-90629000D03*
%TD*%
D10*
%TO.C,H4*%
X185261000Y-117129000D03*
%TD*%
D13*
%TO.C,C1*%
X168761000Y-113879000D03*
X173761000Y-113879000D03*
%TD*%
D18*
%TO.C,U1*%
X175071000Y-98879000D03*
X175071000Y-101419000D03*
X175071000Y-103959000D03*
X175071000Y-106499000D03*
X167451000Y-106499000D03*
X167451000Y-103959000D03*
X167451000Y-101419000D03*
D19*
X167451000Y-98879000D03*
%TD*%
D13*
%TO.C,R2*%
X186571000Y-106629000D03*
X178951000Y-106629000D03*
%TD*%
D15*
%TO.C,VCC1*%
X153761000Y-124129000D03*
D16*
X148681000Y-124129000D03*
%TD*%
D10*
%TO.C,H2*%
X185261000Y-90629000D03*
%TD*%
D13*
%TO.C,C2*%
X155961000Y-100129000D03*
D14*
X159761000Y-100129000D03*
%TD*%
D11*
%TO.C,C6*%
X185393323Y-98629000D03*
D12*
X180393323Y-98629000D03*
%TD*%
D13*
%TO.C,C4*%
X147961000Y-109529000D03*
D14*
X151761000Y-109529000D03*
%TD*%
D17*
%TO.C,RV1*%
X171261000Y-123879000D03*
X166261000Y-123879000D03*
X161261000Y-123879000D03*
%TD*%
D10*
%TO.C,H3*%
X148261000Y-117129000D03*
%TD*%
M02*
