%TF.GenerationSoftware,KiCad,Pcbnew,9.0.4*%
%TF.CreationDate,2025-08-29T10:03:57+02:00*%
%TF.ProjectId,TDA7267_2x2_panel,54444137-3236-4375-9f32-78325f70616e,rev?*%
%TF.SameCoordinates,Original*%
%TF.FileFunction,Legend,Bot*%
%TF.FilePolarity,Positive*%
%FSLAX46Y46*%
G04 Gerber Fmt 4.6, Leading zero omitted, Abs format (unit mm)*
G04 Created by KiCad (PCBNEW 9.0.4) date 2025-08-29 10:03:57*
%MOMM*%
%LPD*%
G01*
G04 APERTURE LIST*
%ADD10C,0.500000*%
%ADD11C,0.300000*%
G04 APERTURE END LIST*
D10*
X72200000Y-69500000D02*
X160800000Y-69500000D01*
X116500000Y-29000000D02*
X116500000Y-110000000D01*
D11*
X151559774Y-100285912D02*
X150702632Y-100285912D01*
X151131203Y-101785912D02*
X151131203Y-100285912D01*
X150202632Y-101785912D02*
X150202632Y-100285912D01*
X150202632Y-100285912D02*
X149845489Y-100285912D01*
X149845489Y-100285912D02*
X149631203Y-100357341D01*
X149631203Y-100357341D02*
X149488346Y-100500198D01*
X149488346Y-100500198D02*
X149416917Y-100643055D01*
X149416917Y-100643055D02*
X149345489Y-100928769D01*
X149345489Y-100928769D02*
X149345489Y-101143055D01*
X149345489Y-101143055D02*
X149416917Y-101428769D01*
X149416917Y-101428769D02*
X149488346Y-101571626D01*
X149488346Y-101571626D02*
X149631203Y-101714484D01*
X149631203Y-101714484D02*
X149845489Y-101785912D01*
X149845489Y-101785912D02*
X150202632Y-101785912D01*
X148774060Y-101357341D02*
X148059775Y-101357341D01*
X148916917Y-101785912D02*
X148416917Y-100285912D01*
X148416917Y-100285912D02*
X147916917Y-101785912D01*
X147559775Y-100285912D02*
X146559775Y-100285912D01*
X146559775Y-100285912D02*
X147202632Y-101785912D01*
X146059775Y-100428769D02*
X145988347Y-100357341D01*
X145988347Y-100357341D02*
X145845490Y-100285912D01*
X145845490Y-100285912D02*
X145488347Y-100285912D01*
X145488347Y-100285912D02*
X145345490Y-100357341D01*
X145345490Y-100357341D02*
X145274061Y-100428769D01*
X145274061Y-100428769D02*
X145202632Y-100571626D01*
X145202632Y-100571626D02*
X145202632Y-100714484D01*
X145202632Y-100714484D02*
X145274061Y-100928769D01*
X145274061Y-100928769D02*
X146131204Y-101785912D01*
X146131204Y-101785912D02*
X145202632Y-101785912D01*
X143916919Y-100285912D02*
X144202633Y-100285912D01*
X144202633Y-100285912D02*
X144345490Y-100357341D01*
X144345490Y-100357341D02*
X144416919Y-100428769D01*
X144416919Y-100428769D02*
X144559776Y-100643055D01*
X144559776Y-100643055D02*
X144631204Y-100928769D01*
X144631204Y-100928769D02*
X144631204Y-101500198D01*
X144631204Y-101500198D02*
X144559776Y-101643055D01*
X144559776Y-101643055D02*
X144488347Y-101714484D01*
X144488347Y-101714484D02*
X144345490Y-101785912D01*
X144345490Y-101785912D02*
X144059776Y-101785912D01*
X144059776Y-101785912D02*
X143916919Y-101714484D01*
X143916919Y-101714484D02*
X143845490Y-101643055D01*
X143845490Y-101643055D02*
X143774061Y-101500198D01*
X143774061Y-101500198D02*
X143774061Y-101143055D01*
X143774061Y-101143055D02*
X143845490Y-101000198D01*
X143845490Y-101000198D02*
X143916919Y-100928769D01*
X143916919Y-100928769D02*
X144059776Y-100857341D01*
X144059776Y-100857341D02*
X144345490Y-100857341D01*
X144345490Y-100857341D02*
X144488347Y-100928769D01*
X144488347Y-100928769D02*
X144559776Y-101000198D01*
X144559776Y-101000198D02*
X144631204Y-101143055D01*
X143274062Y-100285912D02*
X142274062Y-100285912D01*
X142274062Y-100285912D02*
X142916919Y-101785912D01*
X140631205Y-100428769D02*
X140559777Y-100357341D01*
X140559777Y-100357341D02*
X140416920Y-100285912D01*
X140416920Y-100285912D02*
X140059777Y-100285912D01*
X140059777Y-100285912D02*
X139916920Y-100357341D01*
X139916920Y-100357341D02*
X139845491Y-100428769D01*
X139845491Y-100428769D02*
X139774062Y-100571626D01*
X139774062Y-100571626D02*
X139774062Y-100714484D01*
X139774062Y-100714484D02*
X139845491Y-100928769D01*
X139845491Y-100928769D02*
X140702634Y-101785912D01*
X140702634Y-101785912D02*
X139774062Y-101785912D01*
X139274063Y-100285912D02*
X138916920Y-101785912D01*
X138916920Y-101785912D02*
X138631206Y-100714484D01*
X138631206Y-100714484D02*
X138345491Y-101785912D01*
X138345491Y-101785912D02*
X137988349Y-100285912D01*
X136345491Y-101357341D02*
X135631206Y-101357341D01*
X136488348Y-101785912D02*
X135988348Y-100285912D01*
X135988348Y-100285912D02*
X135488348Y-101785912D01*
X134988349Y-101785912D02*
X134988349Y-100785912D01*
X134988349Y-100928769D02*
X134916920Y-100857341D01*
X134916920Y-100857341D02*
X134774063Y-100785912D01*
X134774063Y-100785912D02*
X134559777Y-100785912D01*
X134559777Y-100785912D02*
X134416920Y-100857341D01*
X134416920Y-100857341D02*
X134345492Y-101000198D01*
X134345492Y-101000198D02*
X134345492Y-101785912D01*
X134345492Y-101000198D02*
X134274063Y-100857341D01*
X134274063Y-100857341D02*
X134131206Y-100785912D01*
X134131206Y-100785912D02*
X133916920Y-100785912D01*
X133916920Y-100785912D02*
X133774063Y-100857341D01*
X133774063Y-100857341D02*
X133702634Y-101000198D01*
X133702634Y-101000198D02*
X133702634Y-101785912D01*
X132988349Y-100785912D02*
X132988349Y-102285912D01*
X132988349Y-100857341D02*
X132845492Y-100785912D01*
X132845492Y-100785912D02*
X132559777Y-100785912D01*
X132559777Y-100785912D02*
X132416920Y-100857341D01*
X132416920Y-100857341D02*
X132345492Y-100928769D01*
X132345492Y-100928769D02*
X132274063Y-101071626D01*
X132274063Y-101071626D02*
X132274063Y-101500198D01*
X132274063Y-101500198D02*
X132345492Y-101643055D01*
X132345492Y-101643055D02*
X132416920Y-101714484D01*
X132416920Y-101714484D02*
X132559777Y-101785912D01*
X132559777Y-101785912D02*
X132845492Y-101785912D01*
X132845492Y-101785912D02*
X132988349Y-101714484D01*
X131416920Y-101785912D02*
X131559777Y-101714484D01*
X131559777Y-101714484D02*
X131631206Y-101571626D01*
X131631206Y-101571626D02*
X131631206Y-100285912D01*
X130845492Y-101785912D02*
X130845492Y-100785912D01*
X130845492Y-100285912D02*
X130916920Y-100357341D01*
X130916920Y-100357341D02*
X130845492Y-100428769D01*
X130845492Y-100428769D02*
X130774063Y-100357341D01*
X130774063Y-100357341D02*
X130845492Y-100285912D01*
X130845492Y-100285912D02*
X130845492Y-100428769D01*
X130345491Y-100785912D02*
X129774063Y-100785912D01*
X130131206Y-101785912D02*
X130131206Y-100500198D01*
X130131206Y-100500198D02*
X130059777Y-100357341D01*
X130059777Y-100357341D02*
X129916920Y-100285912D01*
X129916920Y-100285912D02*
X129774063Y-100285912D01*
X129274063Y-101785912D02*
X129274063Y-100785912D01*
X129274063Y-100285912D02*
X129345491Y-100357341D01*
X129345491Y-100357341D02*
X129274063Y-100428769D01*
X129274063Y-100428769D02*
X129202634Y-100357341D01*
X129202634Y-100357341D02*
X129274063Y-100285912D01*
X129274063Y-100285912D02*
X129274063Y-100428769D01*
X127988348Y-101714484D02*
X128131205Y-101785912D01*
X128131205Y-101785912D02*
X128416920Y-101785912D01*
X128416920Y-101785912D02*
X128559777Y-101714484D01*
X128559777Y-101714484D02*
X128631205Y-101571626D01*
X128631205Y-101571626D02*
X128631205Y-101000198D01*
X128631205Y-101000198D02*
X128559777Y-100857341D01*
X128559777Y-100857341D02*
X128416920Y-100785912D01*
X128416920Y-100785912D02*
X128131205Y-100785912D01*
X128131205Y-100785912D02*
X127988348Y-100857341D01*
X127988348Y-100857341D02*
X127916920Y-101000198D01*
X127916920Y-101000198D02*
X127916920Y-101143055D01*
X127916920Y-101143055D02*
X128631205Y-101285912D01*
X127274063Y-101785912D02*
X127274063Y-100785912D01*
X127274063Y-101071626D02*
X127202634Y-100928769D01*
X127202634Y-100928769D02*
X127131206Y-100857341D01*
X127131206Y-100857341D02*
X126988348Y-100785912D01*
X126988348Y-100785912D02*
X126845491Y-100785912D01*
X126345492Y-101643055D02*
X126274063Y-101714484D01*
X126274063Y-101714484D02*
X126345492Y-101785912D01*
X126345492Y-101785912D02*
X126416920Y-101714484D01*
X126416920Y-101714484D02*
X126345492Y-101643055D01*
X126345492Y-101643055D02*
X126345492Y-101785912D01*
X150631203Y-102700828D02*
X151345489Y-102700828D01*
X151345489Y-102700828D02*
X151416917Y-103415114D01*
X151416917Y-103415114D02*
X151345489Y-103343685D01*
X151345489Y-103343685D02*
X151202632Y-103272257D01*
X151202632Y-103272257D02*
X150845489Y-103272257D01*
X150845489Y-103272257D02*
X150702632Y-103343685D01*
X150702632Y-103343685D02*
X150631203Y-103415114D01*
X150631203Y-103415114D02*
X150559774Y-103557971D01*
X150559774Y-103557971D02*
X150559774Y-103915114D01*
X150559774Y-103915114D02*
X150631203Y-104057971D01*
X150631203Y-104057971D02*
X150702632Y-104129400D01*
X150702632Y-104129400D02*
X150845489Y-104200828D01*
X150845489Y-104200828D02*
X151202632Y-104200828D01*
X151202632Y-104200828D02*
X151345489Y-104129400D01*
X151345489Y-104129400D02*
X151416917Y-104057971D01*
X148988346Y-103200828D02*
X148416918Y-103200828D01*
X148774061Y-102700828D02*
X148774061Y-103986542D01*
X148774061Y-103986542D02*
X148702632Y-104129400D01*
X148702632Y-104129400D02*
X148559775Y-104200828D01*
X148559775Y-104200828D02*
X148416918Y-104200828D01*
X147702632Y-104200828D02*
X147845489Y-104129400D01*
X147845489Y-104129400D02*
X147916918Y-104057971D01*
X147916918Y-104057971D02*
X147988346Y-103915114D01*
X147988346Y-103915114D02*
X147988346Y-103486542D01*
X147988346Y-103486542D02*
X147916918Y-103343685D01*
X147916918Y-103343685D02*
X147845489Y-103272257D01*
X147845489Y-103272257D02*
X147702632Y-103200828D01*
X147702632Y-103200828D02*
X147488346Y-103200828D01*
X147488346Y-103200828D02*
X147345489Y-103272257D01*
X147345489Y-103272257D02*
X147274061Y-103343685D01*
X147274061Y-103343685D02*
X147202632Y-103486542D01*
X147202632Y-103486542D02*
X147202632Y-103915114D01*
X147202632Y-103915114D02*
X147274061Y-104057971D01*
X147274061Y-104057971D02*
X147345489Y-104129400D01*
X147345489Y-104129400D02*
X147488346Y-104200828D01*
X147488346Y-104200828D02*
X147702632Y-104200828D01*
X144631203Y-104200828D02*
X145488346Y-104200828D01*
X145059775Y-104200828D02*
X145059775Y-102700828D01*
X145059775Y-102700828D02*
X145202632Y-102915114D01*
X145202632Y-102915114D02*
X145345489Y-103057971D01*
X145345489Y-103057971D02*
X145488346Y-103129400D01*
X143274061Y-102700828D02*
X143988347Y-102700828D01*
X143988347Y-102700828D02*
X144059775Y-103415114D01*
X144059775Y-103415114D02*
X143988347Y-103343685D01*
X143988347Y-103343685D02*
X143845490Y-103272257D01*
X143845490Y-103272257D02*
X143488347Y-103272257D01*
X143488347Y-103272257D02*
X143345490Y-103343685D01*
X143345490Y-103343685D02*
X143274061Y-103415114D01*
X143274061Y-103415114D02*
X143202632Y-103557971D01*
X143202632Y-103557971D02*
X143202632Y-103915114D01*
X143202632Y-103915114D02*
X143274061Y-104057971D01*
X143274061Y-104057971D02*
X143345490Y-104129400D01*
X143345490Y-104129400D02*
X143488347Y-104200828D01*
X143488347Y-104200828D02*
X143845490Y-104200828D01*
X143845490Y-104200828D02*
X143988347Y-104129400D01*
X143988347Y-104129400D02*
X144059775Y-104057971D01*
X142774061Y-102700828D02*
X142274061Y-104200828D01*
X142274061Y-104200828D02*
X141774061Y-102700828D01*
X140131205Y-104200828D02*
X140131205Y-102700828D01*
X140131205Y-102700828D02*
X139774062Y-102700828D01*
X139774062Y-102700828D02*
X139559776Y-102772257D01*
X139559776Y-102772257D02*
X139416919Y-102915114D01*
X139416919Y-102915114D02*
X139345490Y-103057971D01*
X139345490Y-103057971D02*
X139274062Y-103343685D01*
X139274062Y-103343685D02*
X139274062Y-103557971D01*
X139274062Y-103557971D02*
X139345490Y-103843685D01*
X139345490Y-103843685D02*
X139416919Y-103986542D01*
X139416919Y-103986542D02*
X139559776Y-104129400D01*
X139559776Y-104129400D02*
X139774062Y-104200828D01*
X139774062Y-104200828D02*
X140131205Y-104200828D01*
X137774062Y-104057971D02*
X137845490Y-104129400D01*
X137845490Y-104129400D02*
X138059776Y-104200828D01*
X138059776Y-104200828D02*
X138202633Y-104200828D01*
X138202633Y-104200828D02*
X138416919Y-104129400D01*
X138416919Y-104129400D02*
X138559776Y-103986542D01*
X138559776Y-103986542D02*
X138631205Y-103843685D01*
X138631205Y-103843685D02*
X138702633Y-103557971D01*
X138702633Y-103557971D02*
X138702633Y-103343685D01*
X138702633Y-103343685D02*
X138631205Y-103057971D01*
X138631205Y-103057971D02*
X138559776Y-102915114D01*
X138559776Y-102915114D02*
X138416919Y-102772257D01*
X138416919Y-102772257D02*
X138202633Y-102700828D01*
X138202633Y-102700828D02*
X138059776Y-102700828D01*
X138059776Y-102700828D02*
X137845490Y-102772257D01*
X137845490Y-102772257D02*
X137774062Y-102843685D01*
X136059776Y-104129400D02*
X135916919Y-104200828D01*
X135916919Y-104200828D02*
X135631205Y-104200828D01*
X135631205Y-104200828D02*
X135488348Y-104129400D01*
X135488348Y-104129400D02*
X135416919Y-103986542D01*
X135416919Y-103986542D02*
X135416919Y-103915114D01*
X135416919Y-103915114D02*
X135488348Y-103772257D01*
X135488348Y-103772257D02*
X135631205Y-103700828D01*
X135631205Y-103700828D02*
X135845491Y-103700828D01*
X135845491Y-103700828D02*
X135988348Y-103629400D01*
X135988348Y-103629400D02*
X136059776Y-103486542D01*
X136059776Y-103486542D02*
X136059776Y-103415114D01*
X136059776Y-103415114D02*
X135988348Y-103272257D01*
X135988348Y-103272257D02*
X135845491Y-103200828D01*
X135845491Y-103200828D02*
X135631205Y-103200828D01*
X135631205Y-103200828D02*
X135488348Y-103272257D01*
X134131205Y-103200828D02*
X134131205Y-104200828D01*
X134774062Y-103200828D02*
X134774062Y-103986542D01*
X134774062Y-103986542D02*
X134702633Y-104129400D01*
X134702633Y-104129400D02*
X134559776Y-104200828D01*
X134559776Y-104200828D02*
X134345490Y-104200828D01*
X134345490Y-104200828D02*
X134202633Y-104129400D01*
X134202633Y-104129400D02*
X134131205Y-104057971D01*
X133416919Y-103200828D02*
X133416919Y-104700828D01*
X133416919Y-103272257D02*
X133274062Y-103200828D01*
X133274062Y-103200828D02*
X132988347Y-103200828D01*
X132988347Y-103200828D02*
X132845490Y-103272257D01*
X132845490Y-103272257D02*
X132774062Y-103343685D01*
X132774062Y-103343685D02*
X132702633Y-103486542D01*
X132702633Y-103486542D02*
X132702633Y-103915114D01*
X132702633Y-103915114D02*
X132774062Y-104057971D01*
X132774062Y-104057971D02*
X132845490Y-104129400D01*
X132845490Y-104129400D02*
X132988347Y-104200828D01*
X132988347Y-104200828D02*
X133274062Y-104200828D01*
X133274062Y-104200828D02*
X133416919Y-104129400D01*
X132059776Y-103200828D02*
X132059776Y-104700828D01*
X132059776Y-103272257D02*
X131916919Y-103200828D01*
X131916919Y-103200828D02*
X131631204Y-103200828D01*
X131631204Y-103200828D02*
X131488347Y-103272257D01*
X131488347Y-103272257D02*
X131416919Y-103343685D01*
X131416919Y-103343685D02*
X131345490Y-103486542D01*
X131345490Y-103486542D02*
X131345490Y-103915114D01*
X131345490Y-103915114D02*
X131416919Y-104057971D01*
X131416919Y-104057971D02*
X131488347Y-104129400D01*
X131488347Y-104129400D02*
X131631204Y-104200828D01*
X131631204Y-104200828D02*
X131916919Y-104200828D01*
X131916919Y-104200828D02*
X132059776Y-104129400D01*
X130488347Y-104200828D02*
X130631204Y-104129400D01*
X130631204Y-104129400D02*
X130702633Y-103986542D01*
X130702633Y-103986542D02*
X130702633Y-102700828D01*
X130059776Y-103200828D02*
X129702633Y-104200828D01*
X129345490Y-103200828D02*
X129702633Y-104200828D01*
X129702633Y-104200828D02*
X129845490Y-104557971D01*
X129845490Y-104557971D02*
X129916919Y-104629400D01*
X129916919Y-104629400D02*
X130059776Y-104700828D01*
X128774062Y-104057971D02*
X128702633Y-104129400D01*
X128702633Y-104129400D02*
X128774062Y-104200828D01*
X128774062Y-104200828D02*
X128845490Y-104129400D01*
X128845490Y-104129400D02*
X128774062Y-104057971D01*
X128774062Y-104057971D02*
X128774062Y-104200828D01*
X105559774Y-100285912D02*
X104702632Y-100285912D01*
X105131203Y-101785912D02*
X105131203Y-100285912D01*
X104202632Y-101785912D02*
X104202632Y-100285912D01*
X104202632Y-100285912D02*
X103845489Y-100285912D01*
X103845489Y-100285912D02*
X103631203Y-100357341D01*
X103631203Y-100357341D02*
X103488346Y-100500198D01*
X103488346Y-100500198D02*
X103416917Y-100643055D01*
X103416917Y-100643055D02*
X103345489Y-100928769D01*
X103345489Y-100928769D02*
X103345489Y-101143055D01*
X103345489Y-101143055D02*
X103416917Y-101428769D01*
X103416917Y-101428769D02*
X103488346Y-101571626D01*
X103488346Y-101571626D02*
X103631203Y-101714484D01*
X103631203Y-101714484D02*
X103845489Y-101785912D01*
X103845489Y-101785912D02*
X104202632Y-101785912D01*
X102774060Y-101357341D02*
X102059775Y-101357341D01*
X102916917Y-101785912D02*
X102416917Y-100285912D01*
X102416917Y-100285912D02*
X101916917Y-101785912D01*
X101559775Y-100285912D02*
X100559775Y-100285912D01*
X100559775Y-100285912D02*
X101202632Y-101785912D01*
X100059775Y-100428769D02*
X99988347Y-100357341D01*
X99988347Y-100357341D02*
X99845490Y-100285912D01*
X99845490Y-100285912D02*
X99488347Y-100285912D01*
X99488347Y-100285912D02*
X99345490Y-100357341D01*
X99345490Y-100357341D02*
X99274061Y-100428769D01*
X99274061Y-100428769D02*
X99202632Y-100571626D01*
X99202632Y-100571626D02*
X99202632Y-100714484D01*
X99202632Y-100714484D02*
X99274061Y-100928769D01*
X99274061Y-100928769D02*
X100131204Y-101785912D01*
X100131204Y-101785912D02*
X99202632Y-101785912D01*
X97916919Y-100285912D02*
X98202633Y-100285912D01*
X98202633Y-100285912D02*
X98345490Y-100357341D01*
X98345490Y-100357341D02*
X98416919Y-100428769D01*
X98416919Y-100428769D02*
X98559776Y-100643055D01*
X98559776Y-100643055D02*
X98631204Y-100928769D01*
X98631204Y-100928769D02*
X98631204Y-101500198D01*
X98631204Y-101500198D02*
X98559776Y-101643055D01*
X98559776Y-101643055D02*
X98488347Y-101714484D01*
X98488347Y-101714484D02*
X98345490Y-101785912D01*
X98345490Y-101785912D02*
X98059776Y-101785912D01*
X98059776Y-101785912D02*
X97916919Y-101714484D01*
X97916919Y-101714484D02*
X97845490Y-101643055D01*
X97845490Y-101643055D02*
X97774061Y-101500198D01*
X97774061Y-101500198D02*
X97774061Y-101143055D01*
X97774061Y-101143055D02*
X97845490Y-101000198D01*
X97845490Y-101000198D02*
X97916919Y-100928769D01*
X97916919Y-100928769D02*
X98059776Y-100857341D01*
X98059776Y-100857341D02*
X98345490Y-100857341D01*
X98345490Y-100857341D02*
X98488347Y-100928769D01*
X98488347Y-100928769D02*
X98559776Y-101000198D01*
X98559776Y-101000198D02*
X98631204Y-101143055D01*
X97274062Y-100285912D02*
X96274062Y-100285912D01*
X96274062Y-100285912D02*
X96916919Y-101785912D01*
X94631205Y-100428769D02*
X94559777Y-100357341D01*
X94559777Y-100357341D02*
X94416920Y-100285912D01*
X94416920Y-100285912D02*
X94059777Y-100285912D01*
X94059777Y-100285912D02*
X93916920Y-100357341D01*
X93916920Y-100357341D02*
X93845491Y-100428769D01*
X93845491Y-100428769D02*
X93774062Y-100571626D01*
X93774062Y-100571626D02*
X93774062Y-100714484D01*
X93774062Y-100714484D02*
X93845491Y-100928769D01*
X93845491Y-100928769D02*
X94702634Y-101785912D01*
X94702634Y-101785912D02*
X93774062Y-101785912D01*
X93274063Y-100285912D02*
X92916920Y-101785912D01*
X92916920Y-101785912D02*
X92631206Y-100714484D01*
X92631206Y-100714484D02*
X92345491Y-101785912D01*
X92345491Y-101785912D02*
X91988349Y-100285912D01*
X90345491Y-101357341D02*
X89631206Y-101357341D01*
X90488348Y-101785912D02*
X89988348Y-100285912D01*
X89988348Y-100285912D02*
X89488348Y-101785912D01*
X88988349Y-101785912D02*
X88988349Y-100785912D01*
X88988349Y-100928769D02*
X88916920Y-100857341D01*
X88916920Y-100857341D02*
X88774063Y-100785912D01*
X88774063Y-100785912D02*
X88559777Y-100785912D01*
X88559777Y-100785912D02*
X88416920Y-100857341D01*
X88416920Y-100857341D02*
X88345492Y-101000198D01*
X88345492Y-101000198D02*
X88345492Y-101785912D01*
X88345492Y-101000198D02*
X88274063Y-100857341D01*
X88274063Y-100857341D02*
X88131206Y-100785912D01*
X88131206Y-100785912D02*
X87916920Y-100785912D01*
X87916920Y-100785912D02*
X87774063Y-100857341D01*
X87774063Y-100857341D02*
X87702634Y-101000198D01*
X87702634Y-101000198D02*
X87702634Y-101785912D01*
X86988349Y-100785912D02*
X86988349Y-102285912D01*
X86988349Y-100857341D02*
X86845492Y-100785912D01*
X86845492Y-100785912D02*
X86559777Y-100785912D01*
X86559777Y-100785912D02*
X86416920Y-100857341D01*
X86416920Y-100857341D02*
X86345492Y-100928769D01*
X86345492Y-100928769D02*
X86274063Y-101071626D01*
X86274063Y-101071626D02*
X86274063Y-101500198D01*
X86274063Y-101500198D02*
X86345492Y-101643055D01*
X86345492Y-101643055D02*
X86416920Y-101714484D01*
X86416920Y-101714484D02*
X86559777Y-101785912D01*
X86559777Y-101785912D02*
X86845492Y-101785912D01*
X86845492Y-101785912D02*
X86988349Y-101714484D01*
X85416920Y-101785912D02*
X85559777Y-101714484D01*
X85559777Y-101714484D02*
X85631206Y-101571626D01*
X85631206Y-101571626D02*
X85631206Y-100285912D01*
X84845492Y-101785912D02*
X84845492Y-100785912D01*
X84845492Y-100285912D02*
X84916920Y-100357341D01*
X84916920Y-100357341D02*
X84845492Y-100428769D01*
X84845492Y-100428769D02*
X84774063Y-100357341D01*
X84774063Y-100357341D02*
X84845492Y-100285912D01*
X84845492Y-100285912D02*
X84845492Y-100428769D01*
X84345491Y-100785912D02*
X83774063Y-100785912D01*
X84131206Y-101785912D02*
X84131206Y-100500198D01*
X84131206Y-100500198D02*
X84059777Y-100357341D01*
X84059777Y-100357341D02*
X83916920Y-100285912D01*
X83916920Y-100285912D02*
X83774063Y-100285912D01*
X83274063Y-101785912D02*
X83274063Y-100785912D01*
X83274063Y-100285912D02*
X83345491Y-100357341D01*
X83345491Y-100357341D02*
X83274063Y-100428769D01*
X83274063Y-100428769D02*
X83202634Y-100357341D01*
X83202634Y-100357341D02*
X83274063Y-100285912D01*
X83274063Y-100285912D02*
X83274063Y-100428769D01*
X81988348Y-101714484D02*
X82131205Y-101785912D01*
X82131205Y-101785912D02*
X82416920Y-101785912D01*
X82416920Y-101785912D02*
X82559777Y-101714484D01*
X82559777Y-101714484D02*
X82631205Y-101571626D01*
X82631205Y-101571626D02*
X82631205Y-101000198D01*
X82631205Y-101000198D02*
X82559777Y-100857341D01*
X82559777Y-100857341D02*
X82416920Y-100785912D01*
X82416920Y-100785912D02*
X82131205Y-100785912D01*
X82131205Y-100785912D02*
X81988348Y-100857341D01*
X81988348Y-100857341D02*
X81916920Y-101000198D01*
X81916920Y-101000198D02*
X81916920Y-101143055D01*
X81916920Y-101143055D02*
X82631205Y-101285912D01*
X81274063Y-101785912D02*
X81274063Y-100785912D01*
X81274063Y-101071626D02*
X81202634Y-100928769D01*
X81202634Y-100928769D02*
X81131206Y-100857341D01*
X81131206Y-100857341D02*
X80988348Y-100785912D01*
X80988348Y-100785912D02*
X80845491Y-100785912D01*
X80345492Y-101643055D02*
X80274063Y-101714484D01*
X80274063Y-101714484D02*
X80345492Y-101785912D01*
X80345492Y-101785912D02*
X80416920Y-101714484D01*
X80416920Y-101714484D02*
X80345492Y-101643055D01*
X80345492Y-101643055D02*
X80345492Y-101785912D01*
X104631203Y-102700828D02*
X105345489Y-102700828D01*
X105345489Y-102700828D02*
X105416917Y-103415114D01*
X105416917Y-103415114D02*
X105345489Y-103343685D01*
X105345489Y-103343685D02*
X105202632Y-103272257D01*
X105202632Y-103272257D02*
X104845489Y-103272257D01*
X104845489Y-103272257D02*
X104702632Y-103343685D01*
X104702632Y-103343685D02*
X104631203Y-103415114D01*
X104631203Y-103415114D02*
X104559774Y-103557971D01*
X104559774Y-103557971D02*
X104559774Y-103915114D01*
X104559774Y-103915114D02*
X104631203Y-104057971D01*
X104631203Y-104057971D02*
X104702632Y-104129400D01*
X104702632Y-104129400D02*
X104845489Y-104200828D01*
X104845489Y-104200828D02*
X105202632Y-104200828D01*
X105202632Y-104200828D02*
X105345489Y-104129400D01*
X105345489Y-104129400D02*
X105416917Y-104057971D01*
X102988346Y-103200828D02*
X102416918Y-103200828D01*
X102774061Y-102700828D02*
X102774061Y-103986542D01*
X102774061Y-103986542D02*
X102702632Y-104129400D01*
X102702632Y-104129400D02*
X102559775Y-104200828D01*
X102559775Y-104200828D02*
X102416918Y-104200828D01*
X101702632Y-104200828D02*
X101845489Y-104129400D01*
X101845489Y-104129400D02*
X101916918Y-104057971D01*
X101916918Y-104057971D02*
X101988346Y-103915114D01*
X101988346Y-103915114D02*
X101988346Y-103486542D01*
X101988346Y-103486542D02*
X101916918Y-103343685D01*
X101916918Y-103343685D02*
X101845489Y-103272257D01*
X101845489Y-103272257D02*
X101702632Y-103200828D01*
X101702632Y-103200828D02*
X101488346Y-103200828D01*
X101488346Y-103200828D02*
X101345489Y-103272257D01*
X101345489Y-103272257D02*
X101274061Y-103343685D01*
X101274061Y-103343685D02*
X101202632Y-103486542D01*
X101202632Y-103486542D02*
X101202632Y-103915114D01*
X101202632Y-103915114D02*
X101274061Y-104057971D01*
X101274061Y-104057971D02*
X101345489Y-104129400D01*
X101345489Y-104129400D02*
X101488346Y-104200828D01*
X101488346Y-104200828D02*
X101702632Y-104200828D01*
X98631203Y-104200828D02*
X99488346Y-104200828D01*
X99059775Y-104200828D02*
X99059775Y-102700828D01*
X99059775Y-102700828D02*
X99202632Y-102915114D01*
X99202632Y-102915114D02*
X99345489Y-103057971D01*
X99345489Y-103057971D02*
X99488346Y-103129400D01*
X97274061Y-102700828D02*
X97988347Y-102700828D01*
X97988347Y-102700828D02*
X98059775Y-103415114D01*
X98059775Y-103415114D02*
X97988347Y-103343685D01*
X97988347Y-103343685D02*
X97845490Y-103272257D01*
X97845490Y-103272257D02*
X97488347Y-103272257D01*
X97488347Y-103272257D02*
X97345490Y-103343685D01*
X97345490Y-103343685D02*
X97274061Y-103415114D01*
X97274061Y-103415114D02*
X97202632Y-103557971D01*
X97202632Y-103557971D02*
X97202632Y-103915114D01*
X97202632Y-103915114D02*
X97274061Y-104057971D01*
X97274061Y-104057971D02*
X97345490Y-104129400D01*
X97345490Y-104129400D02*
X97488347Y-104200828D01*
X97488347Y-104200828D02*
X97845490Y-104200828D01*
X97845490Y-104200828D02*
X97988347Y-104129400D01*
X97988347Y-104129400D02*
X98059775Y-104057971D01*
X96774061Y-102700828D02*
X96274061Y-104200828D01*
X96274061Y-104200828D02*
X95774061Y-102700828D01*
X94131205Y-104200828D02*
X94131205Y-102700828D01*
X94131205Y-102700828D02*
X93774062Y-102700828D01*
X93774062Y-102700828D02*
X93559776Y-102772257D01*
X93559776Y-102772257D02*
X93416919Y-102915114D01*
X93416919Y-102915114D02*
X93345490Y-103057971D01*
X93345490Y-103057971D02*
X93274062Y-103343685D01*
X93274062Y-103343685D02*
X93274062Y-103557971D01*
X93274062Y-103557971D02*
X93345490Y-103843685D01*
X93345490Y-103843685D02*
X93416919Y-103986542D01*
X93416919Y-103986542D02*
X93559776Y-104129400D01*
X93559776Y-104129400D02*
X93774062Y-104200828D01*
X93774062Y-104200828D02*
X94131205Y-104200828D01*
X91774062Y-104057971D02*
X91845490Y-104129400D01*
X91845490Y-104129400D02*
X92059776Y-104200828D01*
X92059776Y-104200828D02*
X92202633Y-104200828D01*
X92202633Y-104200828D02*
X92416919Y-104129400D01*
X92416919Y-104129400D02*
X92559776Y-103986542D01*
X92559776Y-103986542D02*
X92631205Y-103843685D01*
X92631205Y-103843685D02*
X92702633Y-103557971D01*
X92702633Y-103557971D02*
X92702633Y-103343685D01*
X92702633Y-103343685D02*
X92631205Y-103057971D01*
X92631205Y-103057971D02*
X92559776Y-102915114D01*
X92559776Y-102915114D02*
X92416919Y-102772257D01*
X92416919Y-102772257D02*
X92202633Y-102700828D01*
X92202633Y-102700828D02*
X92059776Y-102700828D01*
X92059776Y-102700828D02*
X91845490Y-102772257D01*
X91845490Y-102772257D02*
X91774062Y-102843685D01*
X90059776Y-104129400D02*
X89916919Y-104200828D01*
X89916919Y-104200828D02*
X89631205Y-104200828D01*
X89631205Y-104200828D02*
X89488348Y-104129400D01*
X89488348Y-104129400D02*
X89416919Y-103986542D01*
X89416919Y-103986542D02*
X89416919Y-103915114D01*
X89416919Y-103915114D02*
X89488348Y-103772257D01*
X89488348Y-103772257D02*
X89631205Y-103700828D01*
X89631205Y-103700828D02*
X89845491Y-103700828D01*
X89845491Y-103700828D02*
X89988348Y-103629400D01*
X89988348Y-103629400D02*
X90059776Y-103486542D01*
X90059776Y-103486542D02*
X90059776Y-103415114D01*
X90059776Y-103415114D02*
X89988348Y-103272257D01*
X89988348Y-103272257D02*
X89845491Y-103200828D01*
X89845491Y-103200828D02*
X89631205Y-103200828D01*
X89631205Y-103200828D02*
X89488348Y-103272257D01*
X88131205Y-103200828D02*
X88131205Y-104200828D01*
X88774062Y-103200828D02*
X88774062Y-103986542D01*
X88774062Y-103986542D02*
X88702633Y-104129400D01*
X88702633Y-104129400D02*
X88559776Y-104200828D01*
X88559776Y-104200828D02*
X88345490Y-104200828D01*
X88345490Y-104200828D02*
X88202633Y-104129400D01*
X88202633Y-104129400D02*
X88131205Y-104057971D01*
X87416919Y-103200828D02*
X87416919Y-104700828D01*
X87416919Y-103272257D02*
X87274062Y-103200828D01*
X87274062Y-103200828D02*
X86988347Y-103200828D01*
X86988347Y-103200828D02*
X86845490Y-103272257D01*
X86845490Y-103272257D02*
X86774062Y-103343685D01*
X86774062Y-103343685D02*
X86702633Y-103486542D01*
X86702633Y-103486542D02*
X86702633Y-103915114D01*
X86702633Y-103915114D02*
X86774062Y-104057971D01*
X86774062Y-104057971D02*
X86845490Y-104129400D01*
X86845490Y-104129400D02*
X86988347Y-104200828D01*
X86988347Y-104200828D02*
X87274062Y-104200828D01*
X87274062Y-104200828D02*
X87416919Y-104129400D01*
X86059776Y-103200828D02*
X86059776Y-104700828D01*
X86059776Y-103272257D02*
X85916919Y-103200828D01*
X85916919Y-103200828D02*
X85631204Y-103200828D01*
X85631204Y-103200828D02*
X85488347Y-103272257D01*
X85488347Y-103272257D02*
X85416919Y-103343685D01*
X85416919Y-103343685D02*
X85345490Y-103486542D01*
X85345490Y-103486542D02*
X85345490Y-103915114D01*
X85345490Y-103915114D02*
X85416919Y-104057971D01*
X85416919Y-104057971D02*
X85488347Y-104129400D01*
X85488347Y-104129400D02*
X85631204Y-104200828D01*
X85631204Y-104200828D02*
X85916919Y-104200828D01*
X85916919Y-104200828D02*
X86059776Y-104129400D01*
X84488347Y-104200828D02*
X84631204Y-104129400D01*
X84631204Y-104129400D02*
X84702633Y-103986542D01*
X84702633Y-103986542D02*
X84702633Y-102700828D01*
X84059776Y-103200828D02*
X83702633Y-104200828D01*
X83345490Y-103200828D02*
X83702633Y-104200828D01*
X83702633Y-104200828D02*
X83845490Y-104557971D01*
X83845490Y-104557971D02*
X83916919Y-104629400D01*
X83916919Y-104629400D02*
X84059776Y-104700828D01*
X82774062Y-104057971D02*
X82702633Y-104129400D01*
X82702633Y-104129400D02*
X82774062Y-104200828D01*
X82774062Y-104200828D02*
X82845490Y-104129400D01*
X82845490Y-104129400D02*
X82774062Y-104057971D01*
X82774062Y-104057971D02*
X82774062Y-104200828D01*
X105559774Y-58285912D02*
X104702632Y-58285912D01*
X105131203Y-59785912D02*
X105131203Y-58285912D01*
X104202632Y-59785912D02*
X104202632Y-58285912D01*
X104202632Y-58285912D02*
X103845489Y-58285912D01*
X103845489Y-58285912D02*
X103631203Y-58357341D01*
X103631203Y-58357341D02*
X103488346Y-58500198D01*
X103488346Y-58500198D02*
X103416917Y-58643055D01*
X103416917Y-58643055D02*
X103345489Y-58928769D01*
X103345489Y-58928769D02*
X103345489Y-59143055D01*
X103345489Y-59143055D02*
X103416917Y-59428769D01*
X103416917Y-59428769D02*
X103488346Y-59571626D01*
X103488346Y-59571626D02*
X103631203Y-59714484D01*
X103631203Y-59714484D02*
X103845489Y-59785912D01*
X103845489Y-59785912D02*
X104202632Y-59785912D01*
X102774060Y-59357341D02*
X102059775Y-59357341D01*
X102916917Y-59785912D02*
X102416917Y-58285912D01*
X102416917Y-58285912D02*
X101916917Y-59785912D01*
X101559775Y-58285912D02*
X100559775Y-58285912D01*
X100559775Y-58285912D02*
X101202632Y-59785912D01*
X100059775Y-58428769D02*
X99988347Y-58357341D01*
X99988347Y-58357341D02*
X99845490Y-58285912D01*
X99845490Y-58285912D02*
X99488347Y-58285912D01*
X99488347Y-58285912D02*
X99345490Y-58357341D01*
X99345490Y-58357341D02*
X99274061Y-58428769D01*
X99274061Y-58428769D02*
X99202632Y-58571626D01*
X99202632Y-58571626D02*
X99202632Y-58714484D01*
X99202632Y-58714484D02*
X99274061Y-58928769D01*
X99274061Y-58928769D02*
X100131204Y-59785912D01*
X100131204Y-59785912D02*
X99202632Y-59785912D01*
X97916919Y-58285912D02*
X98202633Y-58285912D01*
X98202633Y-58285912D02*
X98345490Y-58357341D01*
X98345490Y-58357341D02*
X98416919Y-58428769D01*
X98416919Y-58428769D02*
X98559776Y-58643055D01*
X98559776Y-58643055D02*
X98631204Y-58928769D01*
X98631204Y-58928769D02*
X98631204Y-59500198D01*
X98631204Y-59500198D02*
X98559776Y-59643055D01*
X98559776Y-59643055D02*
X98488347Y-59714484D01*
X98488347Y-59714484D02*
X98345490Y-59785912D01*
X98345490Y-59785912D02*
X98059776Y-59785912D01*
X98059776Y-59785912D02*
X97916919Y-59714484D01*
X97916919Y-59714484D02*
X97845490Y-59643055D01*
X97845490Y-59643055D02*
X97774061Y-59500198D01*
X97774061Y-59500198D02*
X97774061Y-59143055D01*
X97774061Y-59143055D02*
X97845490Y-59000198D01*
X97845490Y-59000198D02*
X97916919Y-58928769D01*
X97916919Y-58928769D02*
X98059776Y-58857341D01*
X98059776Y-58857341D02*
X98345490Y-58857341D01*
X98345490Y-58857341D02*
X98488347Y-58928769D01*
X98488347Y-58928769D02*
X98559776Y-59000198D01*
X98559776Y-59000198D02*
X98631204Y-59143055D01*
X97274062Y-58285912D02*
X96274062Y-58285912D01*
X96274062Y-58285912D02*
X96916919Y-59785912D01*
X94631205Y-58428769D02*
X94559777Y-58357341D01*
X94559777Y-58357341D02*
X94416920Y-58285912D01*
X94416920Y-58285912D02*
X94059777Y-58285912D01*
X94059777Y-58285912D02*
X93916920Y-58357341D01*
X93916920Y-58357341D02*
X93845491Y-58428769D01*
X93845491Y-58428769D02*
X93774062Y-58571626D01*
X93774062Y-58571626D02*
X93774062Y-58714484D01*
X93774062Y-58714484D02*
X93845491Y-58928769D01*
X93845491Y-58928769D02*
X94702634Y-59785912D01*
X94702634Y-59785912D02*
X93774062Y-59785912D01*
X93274063Y-58285912D02*
X92916920Y-59785912D01*
X92916920Y-59785912D02*
X92631206Y-58714484D01*
X92631206Y-58714484D02*
X92345491Y-59785912D01*
X92345491Y-59785912D02*
X91988349Y-58285912D01*
X90345491Y-59357341D02*
X89631206Y-59357341D01*
X90488348Y-59785912D02*
X89988348Y-58285912D01*
X89988348Y-58285912D02*
X89488348Y-59785912D01*
X88988349Y-59785912D02*
X88988349Y-58785912D01*
X88988349Y-58928769D02*
X88916920Y-58857341D01*
X88916920Y-58857341D02*
X88774063Y-58785912D01*
X88774063Y-58785912D02*
X88559777Y-58785912D01*
X88559777Y-58785912D02*
X88416920Y-58857341D01*
X88416920Y-58857341D02*
X88345492Y-59000198D01*
X88345492Y-59000198D02*
X88345492Y-59785912D01*
X88345492Y-59000198D02*
X88274063Y-58857341D01*
X88274063Y-58857341D02*
X88131206Y-58785912D01*
X88131206Y-58785912D02*
X87916920Y-58785912D01*
X87916920Y-58785912D02*
X87774063Y-58857341D01*
X87774063Y-58857341D02*
X87702634Y-59000198D01*
X87702634Y-59000198D02*
X87702634Y-59785912D01*
X86988349Y-58785912D02*
X86988349Y-60285912D01*
X86988349Y-58857341D02*
X86845492Y-58785912D01*
X86845492Y-58785912D02*
X86559777Y-58785912D01*
X86559777Y-58785912D02*
X86416920Y-58857341D01*
X86416920Y-58857341D02*
X86345492Y-58928769D01*
X86345492Y-58928769D02*
X86274063Y-59071626D01*
X86274063Y-59071626D02*
X86274063Y-59500198D01*
X86274063Y-59500198D02*
X86345492Y-59643055D01*
X86345492Y-59643055D02*
X86416920Y-59714484D01*
X86416920Y-59714484D02*
X86559777Y-59785912D01*
X86559777Y-59785912D02*
X86845492Y-59785912D01*
X86845492Y-59785912D02*
X86988349Y-59714484D01*
X85416920Y-59785912D02*
X85559777Y-59714484D01*
X85559777Y-59714484D02*
X85631206Y-59571626D01*
X85631206Y-59571626D02*
X85631206Y-58285912D01*
X84845492Y-59785912D02*
X84845492Y-58785912D01*
X84845492Y-58285912D02*
X84916920Y-58357341D01*
X84916920Y-58357341D02*
X84845492Y-58428769D01*
X84845492Y-58428769D02*
X84774063Y-58357341D01*
X84774063Y-58357341D02*
X84845492Y-58285912D01*
X84845492Y-58285912D02*
X84845492Y-58428769D01*
X84345491Y-58785912D02*
X83774063Y-58785912D01*
X84131206Y-59785912D02*
X84131206Y-58500198D01*
X84131206Y-58500198D02*
X84059777Y-58357341D01*
X84059777Y-58357341D02*
X83916920Y-58285912D01*
X83916920Y-58285912D02*
X83774063Y-58285912D01*
X83274063Y-59785912D02*
X83274063Y-58785912D01*
X83274063Y-58285912D02*
X83345491Y-58357341D01*
X83345491Y-58357341D02*
X83274063Y-58428769D01*
X83274063Y-58428769D02*
X83202634Y-58357341D01*
X83202634Y-58357341D02*
X83274063Y-58285912D01*
X83274063Y-58285912D02*
X83274063Y-58428769D01*
X81988348Y-59714484D02*
X82131205Y-59785912D01*
X82131205Y-59785912D02*
X82416920Y-59785912D01*
X82416920Y-59785912D02*
X82559777Y-59714484D01*
X82559777Y-59714484D02*
X82631205Y-59571626D01*
X82631205Y-59571626D02*
X82631205Y-59000198D01*
X82631205Y-59000198D02*
X82559777Y-58857341D01*
X82559777Y-58857341D02*
X82416920Y-58785912D01*
X82416920Y-58785912D02*
X82131205Y-58785912D01*
X82131205Y-58785912D02*
X81988348Y-58857341D01*
X81988348Y-58857341D02*
X81916920Y-59000198D01*
X81916920Y-59000198D02*
X81916920Y-59143055D01*
X81916920Y-59143055D02*
X82631205Y-59285912D01*
X81274063Y-59785912D02*
X81274063Y-58785912D01*
X81274063Y-59071626D02*
X81202634Y-58928769D01*
X81202634Y-58928769D02*
X81131206Y-58857341D01*
X81131206Y-58857341D02*
X80988348Y-58785912D01*
X80988348Y-58785912D02*
X80845491Y-58785912D01*
X80345492Y-59643055D02*
X80274063Y-59714484D01*
X80274063Y-59714484D02*
X80345492Y-59785912D01*
X80345492Y-59785912D02*
X80416920Y-59714484D01*
X80416920Y-59714484D02*
X80345492Y-59643055D01*
X80345492Y-59643055D02*
X80345492Y-59785912D01*
X104631203Y-60700828D02*
X105345489Y-60700828D01*
X105345489Y-60700828D02*
X105416917Y-61415114D01*
X105416917Y-61415114D02*
X105345489Y-61343685D01*
X105345489Y-61343685D02*
X105202632Y-61272257D01*
X105202632Y-61272257D02*
X104845489Y-61272257D01*
X104845489Y-61272257D02*
X104702632Y-61343685D01*
X104702632Y-61343685D02*
X104631203Y-61415114D01*
X104631203Y-61415114D02*
X104559774Y-61557971D01*
X104559774Y-61557971D02*
X104559774Y-61915114D01*
X104559774Y-61915114D02*
X104631203Y-62057971D01*
X104631203Y-62057971D02*
X104702632Y-62129400D01*
X104702632Y-62129400D02*
X104845489Y-62200828D01*
X104845489Y-62200828D02*
X105202632Y-62200828D01*
X105202632Y-62200828D02*
X105345489Y-62129400D01*
X105345489Y-62129400D02*
X105416917Y-62057971D01*
X102988346Y-61200828D02*
X102416918Y-61200828D01*
X102774061Y-60700828D02*
X102774061Y-61986542D01*
X102774061Y-61986542D02*
X102702632Y-62129400D01*
X102702632Y-62129400D02*
X102559775Y-62200828D01*
X102559775Y-62200828D02*
X102416918Y-62200828D01*
X101702632Y-62200828D02*
X101845489Y-62129400D01*
X101845489Y-62129400D02*
X101916918Y-62057971D01*
X101916918Y-62057971D02*
X101988346Y-61915114D01*
X101988346Y-61915114D02*
X101988346Y-61486542D01*
X101988346Y-61486542D02*
X101916918Y-61343685D01*
X101916918Y-61343685D02*
X101845489Y-61272257D01*
X101845489Y-61272257D02*
X101702632Y-61200828D01*
X101702632Y-61200828D02*
X101488346Y-61200828D01*
X101488346Y-61200828D02*
X101345489Y-61272257D01*
X101345489Y-61272257D02*
X101274061Y-61343685D01*
X101274061Y-61343685D02*
X101202632Y-61486542D01*
X101202632Y-61486542D02*
X101202632Y-61915114D01*
X101202632Y-61915114D02*
X101274061Y-62057971D01*
X101274061Y-62057971D02*
X101345489Y-62129400D01*
X101345489Y-62129400D02*
X101488346Y-62200828D01*
X101488346Y-62200828D02*
X101702632Y-62200828D01*
X98631203Y-62200828D02*
X99488346Y-62200828D01*
X99059775Y-62200828D02*
X99059775Y-60700828D01*
X99059775Y-60700828D02*
X99202632Y-60915114D01*
X99202632Y-60915114D02*
X99345489Y-61057971D01*
X99345489Y-61057971D02*
X99488346Y-61129400D01*
X97274061Y-60700828D02*
X97988347Y-60700828D01*
X97988347Y-60700828D02*
X98059775Y-61415114D01*
X98059775Y-61415114D02*
X97988347Y-61343685D01*
X97988347Y-61343685D02*
X97845490Y-61272257D01*
X97845490Y-61272257D02*
X97488347Y-61272257D01*
X97488347Y-61272257D02*
X97345490Y-61343685D01*
X97345490Y-61343685D02*
X97274061Y-61415114D01*
X97274061Y-61415114D02*
X97202632Y-61557971D01*
X97202632Y-61557971D02*
X97202632Y-61915114D01*
X97202632Y-61915114D02*
X97274061Y-62057971D01*
X97274061Y-62057971D02*
X97345490Y-62129400D01*
X97345490Y-62129400D02*
X97488347Y-62200828D01*
X97488347Y-62200828D02*
X97845490Y-62200828D01*
X97845490Y-62200828D02*
X97988347Y-62129400D01*
X97988347Y-62129400D02*
X98059775Y-62057971D01*
X96774061Y-60700828D02*
X96274061Y-62200828D01*
X96274061Y-62200828D02*
X95774061Y-60700828D01*
X94131205Y-62200828D02*
X94131205Y-60700828D01*
X94131205Y-60700828D02*
X93774062Y-60700828D01*
X93774062Y-60700828D02*
X93559776Y-60772257D01*
X93559776Y-60772257D02*
X93416919Y-60915114D01*
X93416919Y-60915114D02*
X93345490Y-61057971D01*
X93345490Y-61057971D02*
X93274062Y-61343685D01*
X93274062Y-61343685D02*
X93274062Y-61557971D01*
X93274062Y-61557971D02*
X93345490Y-61843685D01*
X93345490Y-61843685D02*
X93416919Y-61986542D01*
X93416919Y-61986542D02*
X93559776Y-62129400D01*
X93559776Y-62129400D02*
X93774062Y-62200828D01*
X93774062Y-62200828D02*
X94131205Y-62200828D01*
X91774062Y-62057971D02*
X91845490Y-62129400D01*
X91845490Y-62129400D02*
X92059776Y-62200828D01*
X92059776Y-62200828D02*
X92202633Y-62200828D01*
X92202633Y-62200828D02*
X92416919Y-62129400D01*
X92416919Y-62129400D02*
X92559776Y-61986542D01*
X92559776Y-61986542D02*
X92631205Y-61843685D01*
X92631205Y-61843685D02*
X92702633Y-61557971D01*
X92702633Y-61557971D02*
X92702633Y-61343685D01*
X92702633Y-61343685D02*
X92631205Y-61057971D01*
X92631205Y-61057971D02*
X92559776Y-60915114D01*
X92559776Y-60915114D02*
X92416919Y-60772257D01*
X92416919Y-60772257D02*
X92202633Y-60700828D01*
X92202633Y-60700828D02*
X92059776Y-60700828D01*
X92059776Y-60700828D02*
X91845490Y-60772257D01*
X91845490Y-60772257D02*
X91774062Y-60843685D01*
X90059776Y-62129400D02*
X89916919Y-62200828D01*
X89916919Y-62200828D02*
X89631205Y-62200828D01*
X89631205Y-62200828D02*
X89488348Y-62129400D01*
X89488348Y-62129400D02*
X89416919Y-61986542D01*
X89416919Y-61986542D02*
X89416919Y-61915114D01*
X89416919Y-61915114D02*
X89488348Y-61772257D01*
X89488348Y-61772257D02*
X89631205Y-61700828D01*
X89631205Y-61700828D02*
X89845491Y-61700828D01*
X89845491Y-61700828D02*
X89988348Y-61629400D01*
X89988348Y-61629400D02*
X90059776Y-61486542D01*
X90059776Y-61486542D02*
X90059776Y-61415114D01*
X90059776Y-61415114D02*
X89988348Y-61272257D01*
X89988348Y-61272257D02*
X89845491Y-61200828D01*
X89845491Y-61200828D02*
X89631205Y-61200828D01*
X89631205Y-61200828D02*
X89488348Y-61272257D01*
X88131205Y-61200828D02*
X88131205Y-62200828D01*
X88774062Y-61200828D02*
X88774062Y-61986542D01*
X88774062Y-61986542D02*
X88702633Y-62129400D01*
X88702633Y-62129400D02*
X88559776Y-62200828D01*
X88559776Y-62200828D02*
X88345490Y-62200828D01*
X88345490Y-62200828D02*
X88202633Y-62129400D01*
X88202633Y-62129400D02*
X88131205Y-62057971D01*
X87416919Y-61200828D02*
X87416919Y-62700828D01*
X87416919Y-61272257D02*
X87274062Y-61200828D01*
X87274062Y-61200828D02*
X86988347Y-61200828D01*
X86988347Y-61200828D02*
X86845490Y-61272257D01*
X86845490Y-61272257D02*
X86774062Y-61343685D01*
X86774062Y-61343685D02*
X86702633Y-61486542D01*
X86702633Y-61486542D02*
X86702633Y-61915114D01*
X86702633Y-61915114D02*
X86774062Y-62057971D01*
X86774062Y-62057971D02*
X86845490Y-62129400D01*
X86845490Y-62129400D02*
X86988347Y-62200828D01*
X86988347Y-62200828D02*
X87274062Y-62200828D01*
X87274062Y-62200828D02*
X87416919Y-62129400D01*
X86059776Y-61200828D02*
X86059776Y-62700828D01*
X86059776Y-61272257D02*
X85916919Y-61200828D01*
X85916919Y-61200828D02*
X85631204Y-61200828D01*
X85631204Y-61200828D02*
X85488347Y-61272257D01*
X85488347Y-61272257D02*
X85416919Y-61343685D01*
X85416919Y-61343685D02*
X85345490Y-61486542D01*
X85345490Y-61486542D02*
X85345490Y-61915114D01*
X85345490Y-61915114D02*
X85416919Y-62057971D01*
X85416919Y-62057971D02*
X85488347Y-62129400D01*
X85488347Y-62129400D02*
X85631204Y-62200828D01*
X85631204Y-62200828D02*
X85916919Y-62200828D01*
X85916919Y-62200828D02*
X86059776Y-62129400D01*
X84488347Y-62200828D02*
X84631204Y-62129400D01*
X84631204Y-62129400D02*
X84702633Y-61986542D01*
X84702633Y-61986542D02*
X84702633Y-60700828D01*
X84059776Y-61200828D02*
X83702633Y-62200828D01*
X83345490Y-61200828D02*
X83702633Y-62200828D01*
X83702633Y-62200828D02*
X83845490Y-62557971D01*
X83845490Y-62557971D02*
X83916919Y-62629400D01*
X83916919Y-62629400D02*
X84059776Y-62700828D01*
X82774062Y-62057971D02*
X82702633Y-62129400D01*
X82702633Y-62129400D02*
X82774062Y-62200828D01*
X82774062Y-62200828D02*
X82845490Y-62129400D01*
X82845490Y-62129400D02*
X82774062Y-62057971D01*
X82774062Y-62057971D02*
X82774062Y-62200828D01*
X151559774Y-58285912D02*
X150702632Y-58285912D01*
X151131203Y-59785912D02*
X151131203Y-58285912D01*
X150202632Y-59785912D02*
X150202632Y-58285912D01*
X150202632Y-58285912D02*
X149845489Y-58285912D01*
X149845489Y-58285912D02*
X149631203Y-58357341D01*
X149631203Y-58357341D02*
X149488346Y-58500198D01*
X149488346Y-58500198D02*
X149416917Y-58643055D01*
X149416917Y-58643055D02*
X149345489Y-58928769D01*
X149345489Y-58928769D02*
X149345489Y-59143055D01*
X149345489Y-59143055D02*
X149416917Y-59428769D01*
X149416917Y-59428769D02*
X149488346Y-59571626D01*
X149488346Y-59571626D02*
X149631203Y-59714484D01*
X149631203Y-59714484D02*
X149845489Y-59785912D01*
X149845489Y-59785912D02*
X150202632Y-59785912D01*
X148774060Y-59357341D02*
X148059775Y-59357341D01*
X148916917Y-59785912D02*
X148416917Y-58285912D01*
X148416917Y-58285912D02*
X147916917Y-59785912D01*
X147559775Y-58285912D02*
X146559775Y-58285912D01*
X146559775Y-58285912D02*
X147202632Y-59785912D01*
X146059775Y-58428769D02*
X145988347Y-58357341D01*
X145988347Y-58357341D02*
X145845490Y-58285912D01*
X145845490Y-58285912D02*
X145488347Y-58285912D01*
X145488347Y-58285912D02*
X145345490Y-58357341D01*
X145345490Y-58357341D02*
X145274061Y-58428769D01*
X145274061Y-58428769D02*
X145202632Y-58571626D01*
X145202632Y-58571626D02*
X145202632Y-58714484D01*
X145202632Y-58714484D02*
X145274061Y-58928769D01*
X145274061Y-58928769D02*
X146131204Y-59785912D01*
X146131204Y-59785912D02*
X145202632Y-59785912D01*
X143916919Y-58285912D02*
X144202633Y-58285912D01*
X144202633Y-58285912D02*
X144345490Y-58357341D01*
X144345490Y-58357341D02*
X144416919Y-58428769D01*
X144416919Y-58428769D02*
X144559776Y-58643055D01*
X144559776Y-58643055D02*
X144631204Y-58928769D01*
X144631204Y-58928769D02*
X144631204Y-59500198D01*
X144631204Y-59500198D02*
X144559776Y-59643055D01*
X144559776Y-59643055D02*
X144488347Y-59714484D01*
X144488347Y-59714484D02*
X144345490Y-59785912D01*
X144345490Y-59785912D02*
X144059776Y-59785912D01*
X144059776Y-59785912D02*
X143916919Y-59714484D01*
X143916919Y-59714484D02*
X143845490Y-59643055D01*
X143845490Y-59643055D02*
X143774061Y-59500198D01*
X143774061Y-59500198D02*
X143774061Y-59143055D01*
X143774061Y-59143055D02*
X143845490Y-59000198D01*
X143845490Y-59000198D02*
X143916919Y-58928769D01*
X143916919Y-58928769D02*
X144059776Y-58857341D01*
X144059776Y-58857341D02*
X144345490Y-58857341D01*
X144345490Y-58857341D02*
X144488347Y-58928769D01*
X144488347Y-58928769D02*
X144559776Y-59000198D01*
X144559776Y-59000198D02*
X144631204Y-59143055D01*
X143274062Y-58285912D02*
X142274062Y-58285912D01*
X142274062Y-58285912D02*
X142916919Y-59785912D01*
X140631205Y-58428769D02*
X140559777Y-58357341D01*
X140559777Y-58357341D02*
X140416920Y-58285912D01*
X140416920Y-58285912D02*
X140059777Y-58285912D01*
X140059777Y-58285912D02*
X139916920Y-58357341D01*
X139916920Y-58357341D02*
X139845491Y-58428769D01*
X139845491Y-58428769D02*
X139774062Y-58571626D01*
X139774062Y-58571626D02*
X139774062Y-58714484D01*
X139774062Y-58714484D02*
X139845491Y-58928769D01*
X139845491Y-58928769D02*
X140702634Y-59785912D01*
X140702634Y-59785912D02*
X139774062Y-59785912D01*
X139274063Y-58285912D02*
X138916920Y-59785912D01*
X138916920Y-59785912D02*
X138631206Y-58714484D01*
X138631206Y-58714484D02*
X138345491Y-59785912D01*
X138345491Y-59785912D02*
X137988349Y-58285912D01*
X136345491Y-59357341D02*
X135631206Y-59357341D01*
X136488348Y-59785912D02*
X135988348Y-58285912D01*
X135988348Y-58285912D02*
X135488348Y-59785912D01*
X134988349Y-59785912D02*
X134988349Y-58785912D01*
X134988349Y-58928769D02*
X134916920Y-58857341D01*
X134916920Y-58857341D02*
X134774063Y-58785912D01*
X134774063Y-58785912D02*
X134559777Y-58785912D01*
X134559777Y-58785912D02*
X134416920Y-58857341D01*
X134416920Y-58857341D02*
X134345492Y-59000198D01*
X134345492Y-59000198D02*
X134345492Y-59785912D01*
X134345492Y-59000198D02*
X134274063Y-58857341D01*
X134274063Y-58857341D02*
X134131206Y-58785912D01*
X134131206Y-58785912D02*
X133916920Y-58785912D01*
X133916920Y-58785912D02*
X133774063Y-58857341D01*
X133774063Y-58857341D02*
X133702634Y-59000198D01*
X133702634Y-59000198D02*
X133702634Y-59785912D01*
X132988349Y-58785912D02*
X132988349Y-60285912D01*
X132988349Y-58857341D02*
X132845492Y-58785912D01*
X132845492Y-58785912D02*
X132559777Y-58785912D01*
X132559777Y-58785912D02*
X132416920Y-58857341D01*
X132416920Y-58857341D02*
X132345492Y-58928769D01*
X132345492Y-58928769D02*
X132274063Y-59071626D01*
X132274063Y-59071626D02*
X132274063Y-59500198D01*
X132274063Y-59500198D02*
X132345492Y-59643055D01*
X132345492Y-59643055D02*
X132416920Y-59714484D01*
X132416920Y-59714484D02*
X132559777Y-59785912D01*
X132559777Y-59785912D02*
X132845492Y-59785912D01*
X132845492Y-59785912D02*
X132988349Y-59714484D01*
X131416920Y-59785912D02*
X131559777Y-59714484D01*
X131559777Y-59714484D02*
X131631206Y-59571626D01*
X131631206Y-59571626D02*
X131631206Y-58285912D01*
X130845492Y-59785912D02*
X130845492Y-58785912D01*
X130845492Y-58285912D02*
X130916920Y-58357341D01*
X130916920Y-58357341D02*
X130845492Y-58428769D01*
X130845492Y-58428769D02*
X130774063Y-58357341D01*
X130774063Y-58357341D02*
X130845492Y-58285912D01*
X130845492Y-58285912D02*
X130845492Y-58428769D01*
X130345491Y-58785912D02*
X129774063Y-58785912D01*
X130131206Y-59785912D02*
X130131206Y-58500198D01*
X130131206Y-58500198D02*
X130059777Y-58357341D01*
X130059777Y-58357341D02*
X129916920Y-58285912D01*
X129916920Y-58285912D02*
X129774063Y-58285912D01*
X129274063Y-59785912D02*
X129274063Y-58785912D01*
X129274063Y-58285912D02*
X129345491Y-58357341D01*
X129345491Y-58357341D02*
X129274063Y-58428769D01*
X129274063Y-58428769D02*
X129202634Y-58357341D01*
X129202634Y-58357341D02*
X129274063Y-58285912D01*
X129274063Y-58285912D02*
X129274063Y-58428769D01*
X127988348Y-59714484D02*
X128131205Y-59785912D01*
X128131205Y-59785912D02*
X128416920Y-59785912D01*
X128416920Y-59785912D02*
X128559777Y-59714484D01*
X128559777Y-59714484D02*
X128631205Y-59571626D01*
X128631205Y-59571626D02*
X128631205Y-59000198D01*
X128631205Y-59000198D02*
X128559777Y-58857341D01*
X128559777Y-58857341D02*
X128416920Y-58785912D01*
X128416920Y-58785912D02*
X128131205Y-58785912D01*
X128131205Y-58785912D02*
X127988348Y-58857341D01*
X127988348Y-58857341D02*
X127916920Y-59000198D01*
X127916920Y-59000198D02*
X127916920Y-59143055D01*
X127916920Y-59143055D02*
X128631205Y-59285912D01*
X127274063Y-59785912D02*
X127274063Y-58785912D01*
X127274063Y-59071626D02*
X127202634Y-58928769D01*
X127202634Y-58928769D02*
X127131206Y-58857341D01*
X127131206Y-58857341D02*
X126988348Y-58785912D01*
X126988348Y-58785912D02*
X126845491Y-58785912D01*
X126345492Y-59643055D02*
X126274063Y-59714484D01*
X126274063Y-59714484D02*
X126345492Y-59785912D01*
X126345492Y-59785912D02*
X126416920Y-59714484D01*
X126416920Y-59714484D02*
X126345492Y-59643055D01*
X126345492Y-59643055D02*
X126345492Y-59785912D01*
X150631203Y-60700828D02*
X151345489Y-60700828D01*
X151345489Y-60700828D02*
X151416917Y-61415114D01*
X151416917Y-61415114D02*
X151345489Y-61343685D01*
X151345489Y-61343685D02*
X151202632Y-61272257D01*
X151202632Y-61272257D02*
X150845489Y-61272257D01*
X150845489Y-61272257D02*
X150702632Y-61343685D01*
X150702632Y-61343685D02*
X150631203Y-61415114D01*
X150631203Y-61415114D02*
X150559774Y-61557971D01*
X150559774Y-61557971D02*
X150559774Y-61915114D01*
X150559774Y-61915114D02*
X150631203Y-62057971D01*
X150631203Y-62057971D02*
X150702632Y-62129400D01*
X150702632Y-62129400D02*
X150845489Y-62200828D01*
X150845489Y-62200828D02*
X151202632Y-62200828D01*
X151202632Y-62200828D02*
X151345489Y-62129400D01*
X151345489Y-62129400D02*
X151416917Y-62057971D01*
X148988346Y-61200828D02*
X148416918Y-61200828D01*
X148774061Y-60700828D02*
X148774061Y-61986542D01*
X148774061Y-61986542D02*
X148702632Y-62129400D01*
X148702632Y-62129400D02*
X148559775Y-62200828D01*
X148559775Y-62200828D02*
X148416918Y-62200828D01*
X147702632Y-62200828D02*
X147845489Y-62129400D01*
X147845489Y-62129400D02*
X147916918Y-62057971D01*
X147916918Y-62057971D02*
X147988346Y-61915114D01*
X147988346Y-61915114D02*
X147988346Y-61486542D01*
X147988346Y-61486542D02*
X147916918Y-61343685D01*
X147916918Y-61343685D02*
X147845489Y-61272257D01*
X147845489Y-61272257D02*
X147702632Y-61200828D01*
X147702632Y-61200828D02*
X147488346Y-61200828D01*
X147488346Y-61200828D02*
X147345489Y-61272257D01*
X147345489Y-61272257D02*
X147274061Y-61343685D01*
X147274061Y-61343685D02*
X147202632Y-61486542D01*
X147202632Y-61486542D02*
X147202632Y-61915114D01*
X147202632Y-61915114D02*
X147274061Y-62057971D01*
X147274061Y-62057971D02*
X147345489Y-62129400D01*
X147345489Y-62129400D02*
X147488346Y-62200828D01*
X147488346Y-62200828D02*
X147702632Y-62200828D01*
X144631203Y-62200828D02*
X145488346Y-62200828D01*
X145059775Y-62200828D02*
X145059775Y-60700828D01*
X145059775Y-60700828D02*
X145202632Y-60915114D01*
X145202632Y-60915114D02*
X145345489Y-61057971D01*
X145345489Y-61057971D02*
X145488346Y-61129400D01*
X143274061Y-60700828D02*
X143988347Y-60700828D01*
X143988347Y-60700828D02*
X144059775Y-61415114D01*
X144059775Y-61415114D02*
X143988347Y-61343685D01*
X143988347Y-61343685D02*
X143845490Y-61272257D01*
X143845490Y-61272257D02*
X143488347Y-61272257D01*
X143488347Y-61272257D02*
X143345490Y-61343685D01*
X143345490Y-61343685D02*
X143274061Y-61415114D01*
X143274061Y-61415114D02*
X143202632Y-61557971D01*
X143202632Y-61557971D02*
X143202632Y-61915114D01*
X143202632Y-61915114D02*
X143274061Y-62057971D01*
X143274061Y-62057971D02*
X143345490Y-62129400D01*
X143345490Y-62129400D02*
X143488347Y-62200828D01*
X143488347Y-62200828D02*
X143845490Y-62200828D01*
X143845490Y-62200828D02*
X143988347Y-62129400D01*
X143988347Y-62129400D02*
X144059775Y-62057971D01*
X142774061Y-60700828D02*
X142274061Y-62200828D01*
X142274061Y-62200828D02*
X141774061Y-60700828D01*
X140131205Y-62200828D02*
X140131205Y-60700828D01*
X140131205Y-60700828D02*
X139774062Y-60700828D01*
X139774062Y-60700828D02*
X139559776Y-60772257D01*
X139559776Y-60772257D02*
X139416919Y-60915114D01*
X139416919Y-60915114D02*
X139345490Y-61057971D01*
X139345490Y-61057971D02*
X139274062Y-61343685D01*
X139274062Y-61343685D02*
X139274062Y-61557971D01*
X139274062Y-61557971D02*
X139345490Y-61843685D01*
X139345490Y-61843685D02*
X139416919Y-61986542D01*
X139416919Y-61986542D02*
X139559776Y-62129400D01*
X139559776Y-62129400D02*
X139774062Y-62200828D01*
X139774062Y-62200828D02*
X140131205Y-62200828D01*
X137774062Y-62057971D02*
X137845490Y-62129400D01*
X137845490Y-62129400D02*
X138059776Y-62200828D01*
X138059776Y-62200828D02*
X138202633Y-62200828D01*
X138202633Y-62200828D02*
X138416919Y-62129400D01*
X138416919Y-62129400D02*
X138559776Y-61986542D01*
X138559776Y-61986542D02*
X138631205Y-61843685D01*
X138631205Y-61843685D02*
X138702633Y-61557971D01*
X138702633Y-61557971D02*
X138702633Y-61343685D01*
X138702633Y-61343685D02*
X138631205Y-61057971D01*
X138631205Y-61057971D02*
X138559776Y-60915114D01*
X138559776Y-60915114D02*
X138416919Y-60772257D01*
X138416919Y-60772257D02*
X138202633Y-60700828D01*
X138202633Y-60700828D02*
X138059776Y-60700828D01*
X138059776Y-60700828D02*
X137845490Y-60772257D01*
X137845490Y-60772257D02*
X137774062Y-60843685D01*
X136059776Y-62129400D02*
X135916919Y-62200828D01*
X135916919Y-62200828D02*
X135631205Y-62200828D01*
X135631205Y-62200828D02*
X135488348Y-62129400D01*
X135488348Y-62129400D02*
X135416919Y-61986542D01*
X135416919Y-61986542D02*
X135416919Y-61915114D01*
X135416919Y-61915114D02*
X135488348Y-61772257D01*
X135488348Y-61772257D02*
X135631205Y-61700828D01*
X135631205Y-61700828D02*
X135845491Y-61700828D01*
X135845491Y-61700828D02*
X135988348Y-61629400D01*
X135988348Y-61629400D02*
X136059776Y-61486542D01*
X136059776Y-61486542D02*
X136059776Y-61415114D01*
X136059776Y-61415114D02*
X135988348Y-61272257D01*
X135988348Y-61272257D02*
X135845491Y-61200828D01*
X135845491Y-61200828D02*
X135631205Y-61200828D01*
X135631205Y-61200828D02*
X135488348Y-61272257D01*
X134131205Y-61200828D02*
X134131205Y-62200828D01*
X134774062Y-61200828D02*
X134774062Y-61986542D01*
X134774062Y-61986542D02*
X134702633Y-62129400D01*
X134702633Y-62129400D02*
X134559776Y-62200828D01*
X134559776Y-62200828D02*
X134345490Y-62200828D01*
X134345490Y-62200828D02*
X134202633Y-62129400D01*
X134202633Y-62129400D02*
X134131205Y-62057971D01*
X133416919Y-61200828D02*
X133416919Y-62700828D01*
X133416919Y-61272257D02*
X133274062Y-61200828D01*
X133274062Y-61200828D02*
X132988347Y-61200828D01*
X132988347Y-61200828D02*
X132845490Y-61272257D01*
X132845490Y-61272257D02*
X132774062Y-61343685D01*
X132774062Y-61343685D02*
X132702633Y-61486542D01*
X132702633Y-61486542D02*
X132702633Y-61915114D01*
X132702633Y-61915114D02*
X132774062Y-62057971D01*
X132774062Y-62057971D02*
X132845490Y-62129400D01*
X132845490Y-62129400D02*
X132988347Y-62200828D01*
X132988347Y-62200828D02*
X133274062Y-62200828D01*
X133274062Y-62200828D02*
X133416919Y-62129400D01*
X132059776Y-61200828D02*
X132059776Y-62700828D01*
X132059776Y-61272257D02*
X131916919Y-61200828D01*
X131916919Y-61200828D02*
X131631204Y-61200828D01*
X131631204Y-61200828D02*
X131488347Y-61272257D01*
X131488347Y-61272257D02*
X131416919Y-61343685D01*
X131416919Y-61343685D02*
X131345490Y-61486542D01*
X131345490Y-61486542D02*
X131345490Y-61915114D01*
X131345490Y-61915114D02*
X131416919Y-62057971D01*
X131416919Y-62057971D02*
X131488347Y-62129400D01*
X131488347Y-62129400D02*
X131631204Y-62200828D01*
X131631204Y-62200828D02*
X131916919Y-62200828D01*
X131916919Y-62200828D02*
X132059776Y-62129400D01*
X130488347Y-62200828D02*
X130631204Y-62129400D01*
X130631204Y-62129400D02*
X130702633Y-61986542D01*
X130702633Y-61986542D02*
X130702633Y-60700828D01*
X130059776Y-61200828D02*
X129702633Y-62200828D01*
X129345490Y-61200828D02*
X129702633Y-62200828D01*
X129702633Y-62200828D02*
X129845490Y-62557971D01*
X129845490Y-62557971D02*
X129916919Y-62629400D01*
X129916919Y-62629400D02*
X130059776Y-62700828D01*
X128774062Y-62057971D02*
X128702633Y-62129400D01*
X128702633Y-62129400D02*
X128774062Y-62200828D01*
X128774062Y-62200828D02*
X128845490Y-62129400D01*
X128845490Y-62129400D02*
X128774062Y-62057971D01*
X128774062Y-62057971D02*
X128774062Y-62200828D01*
M02*
