%TF.GenerationSoftware,KiCad,Pcbnew,9.0.4*%
%TF.CreationDate,2025-09-13T13:10:49+02:00*%
%TF.ProjectId,TDA7267_2x2_panel,54444137-3236-4375-9f32-78325f70616e,rev?*%
%TF.SameCoordinates,Original*%
%TF.FileFunction,Copper,L1,Top*%
%TF.FilePolarity,Positive*%
%FSLAX46Y46*%
G04 Gerber Fmt 4.6, Leading zero omitted, Abs format (unit mm)*
G04 Created by KiCad (PCBNEW 9.0.4) date 2025-09-13 13:10:49*
%MOMM*%
%LPD*%
G01*
G04 APERTURE LIST*
G04 Aperture macros list*
%AMRoundRect*
0 Rectangle with rounded corners*
0 $1 Rounding radius*
0 $2 $3 $4 $5 $6 $7 $8 $9 X,Y pos of 4 corners*
0 Add a 4 corners polygon primitive as box body*
4,1,4,$2,$3,$4,$5,$6,$7,$8,$9,$2,$3,0*
0 Add four circle primitives for the rounded corners*
1,1,$1+$1,$2,$3*
1,1,$1+$1,$4,$5*
1,1,$1+$1,$6,$7*
1,1,$1+$1,$8,$9*
0 Add four rect primitives between the rounded corners*
20,1,$1+$1,$2,$3,$4,$5,0*
20,1,$1+$1,$4,$5,$6,$7,0*
20,1,$1+$1,$6,$7,$8,$9,0*
20,1,$1+$1,$8,$9,$2,$3,0*%
G04 Aperture macros list end*
%TA.AperFunction,ComponentPad*%
%ADD10C,2.000000*%
%TD*%
%TA.AperFunction,ComponentPad*%
%ADD11RoundRect,0.250000X-0.750000X-0.750000X0.750000X-0.750000X0.750000X0.750000X-0.750000X0.750000X0*%
%TD*%
%TA.AperFunction,ComponentPad*%
%ADD12C,1.600000*%
%TD*%
%TA.AperFunction,ComponentPad*%
%ADD13RoundRect,0.250000X0.550000X0.550000X-0.550000X0.550000X-0.550000X-0.550000X0.550000X-0.550000X0*%
%TD*%
%TA.AperFunction,ComponentPad*%
%ADD14C,3.000000*%
%TD*%
%TA.AperFunction,ComponentPad*%
%ADD15R,3.000000X3.000000*%
%TD*%
%TA.AperFunction,ComponentPad*%
%ADD16C,2.340000*%
%TD*%
%TA.AperFunction,ComponentPad*%
%ADD17O,2.400000X1.600000*%
%TD*%
%TA.AperFunction,ComponentPad*%
%ADD18RoundRect,0.250000X-0.950000X-0.550000X0.950000X-0.550000X0.950000X0.550000X-0.950000X0.550000X0*%
%TD*%
%TA.AperFunction,ComponentPad*%
%ADD19C,1.800000*%
%TD*%
%TA.AperFunction,ComponentPad*%
%ADD20R,1.800000X1.800000*%
%TD*%
G04 APERTURE END LIST*
D10*
%TO.P,C6,2*%
%TO.N,Net-(OUT1-Pin_1)*%
X140393323Y-98629000D03*
D11*
%TO.P,C6,1*%
%TO.N,Net-(U1-Out)*%
X135393323Y-98629000D03*
%TD*%
D12*
%TO.P,C4,2*%
%TO.N,GND*%
X102961000Y-109529000D03*
D13*
%TO.P,C4,1*%
%TO.N,/VCC*%
X106761000Y-109529000D03*
%TD*%
D14*
%TO.P,VCC1,2,Pin_2*%
%TO.N,GND*%
X108761000Y-124129000D03*
D15*
%TO.P,VCC1,1,Pin_1*%
%TO.N,/VCC*%
X103681000Y-124129000D03*
%TD*%
D12*
%TO.P,C5,2*%
%TO.N,/VCC*%
X119761000Y-95629000D03*
%TO.P,C5,1*%
%TO.N,GND*%
X119761000Y-90629000D03*
%TD*%
%TO.P,C2,2*%
%TO.N,GND*%
X110961000Y-100129000D03*
D13*
%TO.P,C2,1*%
%TO.N,Net-(U1-SRV)*%
X114761000Y-100129000D03*
%TD*%
D16*
%TO.P,RV1,3,3*%
%TO.N,GND*%
X126261000Y-123879000D03*
%TO.P,RV1,2,2*%
%TO.N,Net-(C1-Pad1)*%
X121261000Y-123879000D03*
%TO.P,RV1,1,1*%
%TO.N,Net-(IN1-Pin_1)*%
X116261000Y-123879000D03*
%TD*%
D17*
%TO.P,U1,8,GND*%
%TO.N,GND*%
X130071000Y-98879000D03*
%TO.P,U1,7,GND*%
X130071000Y-101419000D03*
%TO.P,U1,6,GND*%
X130071000Y-103959000D03*
%TO.P,U1,5,GND*%
X130071000Y-106499000D03*
%TO.P,U1,4,In*%
%TO.N,Net-(U1-In)*%
X122451000Y-106499000D03*
%TO.P,U1,3,SRV*%
%TO.N,Net-(U1-SRV)*%
X122451000Y-103959000D03*
%TO.P,U1,2,Out*%
%TO.N,Net-(U1-Out)*%
X122451000Y-101419000D03*
D18*
%TO.P,U1,1,V+*%
%TO.N,/VCC*%
X122451000Y-98879000D03*
%TD*%
D12*
%TO.P,R2,2*%
%TO.N,/VCC*%
X141571000Y-106629000D03*
%TO.P,R2,1*%
%TO.N,Net-(D1-A)*%
X133951000Y-106629000D03*
%TD*%
%TO.P,C1,2*%
%TO.N,Net-(C1-Pad2)*%
X123761000Y-113879000D03*
%TO.P,C1,1*%
%TO.N,Net-(C1-Pad1)*%
X128761000Y-113879000D03*
%TD*%
D19*
%TO.P,D1,2,A*%
%TO.N,Net-(D1-A)*%
X135761000Y-113129000D03*
D20*
%TO.P,D1,1,K*%
%TO.N,GND*%
X133221000Y-113129000D03*
%TD*%
D12*
%TO.P,R1,2*%
%TO.N,Net-(U1-In)*%
X117961000Y-106569000D03*
%TO.P,R1,1*%
%TO.N,Net-(C1-Pad2)*%
X117961000Y-114189000D03*
%TD*%
D14*
%TO.P,OUT1,2,Pin_2*%
%TO.N,GND*%
X124981000Y-90129000D03*
D15*
%TO.P,OUT1,1,Pin_1*%
%TO.N,Net-(OUT1-Pin_1)*%
X130061000Y-90129000D03*
%TD*%
D12*
%TO.P,C3,2*%
%TO.N,Net-(U1-In)*%
X112961000Y-107689000D03*
%TO.P,C3,1*%
%TO.N,GND*%
X112961000Y-112689000D03*
%TD*%
D14*
%TO.P,IN1,2,Pin_2*%
%TO.N,GND*%
X139301000Y-124129000D03*
D15*
%TO.P,IN1,1,Pin_1*%
%TO.N,Net-(IN1-Pin_1)*%
X134221000Y-124129000D03*
%TD*%
D10*
%TO.P,C6,2*%
%TO.N,Net-(OUT1-Pin_1)*%
X185393323Y-57629000D03*
D11*
%TO.P,C6,1*%
%TO.N,Net-(U1-Out)*%
X180393323Y-57629000D03*
%TD*%
D12*
%TO.P,C4,2*%
%TO.N,GND*%
X147961000Y-68529000D03*
D13*
%TO.P,C4,1*%
%TO.N,/VCC*%
X151761000Y-68529000D03*
%TD*%
D14*
%TO.P,VCC1,2,Pin_2*%
%TO.N,GND*%
X153761000Y-83129000D03*
D15*
%TO.P,VCC1,1,Pin_1*%
%TO.N,/VCC*%
X148681000Y-83129000D03*
%TD*%
D12*
%TO.P,C5,2*%
%TO.N,/VCC*%
X164761000Y-54629000D03*
%TO.P,C5,1*%
%TO.N,GND*%
X164761000Y-49629000D03*
%TD*%
%TO.P,C2,2*%
%TO.N,GND*%
X155961000Y-59129000D03*
D13*
%TO.P,C2,1*%
%TO.N,Net-(U1-SRV)*%
X159761000Y-59129000D03*
%TD*%
D16*
%TO.P,RV1,3,3*%
%TO.N,GND*%
X171261000Y-82879000D03*
%TO.P,RV1,2,2*%
%TO.N,Net-(C1-Pad1)*%
X166261000Y-82879000D03*
%TO.P,RV1,1,1*%
%TO.N,Net-(IN1-Pin_1)*%
X161261000Y-82879000D03*
%TD*%
D17*
%TO.P,U1,8,GND*%
%TO.N,GND*%
X175071000Y-57879000D03*
%TO.P,U1,7,GND*%
X175071000Y-60419000D03*
%TO.P,U1,6,GND*%
X175071000Y-62959000D03*
%TO.P,U1,5,GND*%
X175071000Y-65499000D03*
%TO.P,U1,4,In*%
%TO.N,Net-(U1-In)*%
X167451000Y-65499000D03*
%TO.P,U1,3,SRV*%
%TO.N,Net-(U1-SRV)*%
X167451000Y-62959000D03*
%TO.P,U1,2,Out*%
%TO.N,Net-(U1-Out)*%
X167451000Y-60419000D03*
D18*
%TO.P,U1,1,V+*%
%TO.N,/VCC*%
X167451000Y-57879000D03*
%TD*%
D12*
%TO.P,R2,2*%
%TO.N,/VCC*%
X186571000Y-65629000D03*
%TO.P,R2,1*%
%TO.N,Net-(D1-A)*%
X178951000Y-65629000D03*
%TD*%
%TO.P,C1,2*%
%TO.N,Net-(C1-Pad2)*%
X168761000Y-72879000D03*
%TO.P,C1,1*%
%TO.N,Net-(C1-Pad1)*%
X173761000Y-72879000D03*
%TD*%
D19*
%TO.P,D1,2,A*%
%TO.N,Net-(D1-A)*%
X180761000Y-72129000D03*
D20*
%TO.P,D1,1,K*%
%TO.N,GND*%
X178221000Y-72129000D03*
%TD*%
D12*
%TO.P,R1,2*%
%TO.N,Net-(U1-In)*%
X162961000Y-65569000D03*
%TO.P,R1,1*%
%TO.N,Net-(C1-Pad2)*%
X162961000Y-73189000D03*
%TD*%
D14*
%TO.P,OUT1,2,Pin_2*%
%TO.N,GND*%
X169981000Y-49129000D03*
D15*
%TO.P,OUT1,1,Pin_1*%
%TO.N,Net-(OUT1-Pin_1)*%
X175061000Y-49129000D03*
%TD*%
D12*
%TO.P,C3,2*%
%TO.N,Net-(U1-In)*%
X157961000Y-66689000D03*
%TO.P,C3,1*%
%TO.N,GND*%
X157961000Y-71689000D03*
%TD*%
D14*
%TO.P,IN1,2,Pin_2*%
%TO.N,GND*%
X184301000Y-83129000D03*
D15*
%TO.P,IN1,1,Pin_1*%
%TO.N,Net-(IN1-Pin_1)*%
X179221000Y-83129000D03*
%TD*%
D10*
%TO.P,C6,2*%
%TO.N,Net-(OUT1-Pin_1)*%
X140393323Y-57629000D03*
D11*
%TO.P,C6,1*%
%TO.N,Net-(U1-Out)*%
X135393323Y-57629000D03*
%TD*%
D12*
%TO.P,C4,2*%
%TO.N,GND*%
X102961000Y-68529000D03*
D13*
%TO.P,C4,1*%
%TO.N,/VCC*%
X106761000Y-68529000D03*
%TD*%
D14*
%TO.P,VCC1,2,Pin_2*%
%TO.N,GND*%
X108761000Y-83129000D03*
D15*
%TO.P,VCC1,1,Pin_1*%
%TO.N,/VCC*%
X103681000Y-83129000D03*
%TD*%
D12*
%TO.P,C5,2*%
%TO.N,/VCC*%
X119761000Y-54629000D03*
%TO.P,C5,1*%
%TO.N,GND*%
X119761000Y-49629000D03*
%TD*%
%TO.P,C2,2*%
%TO.N,GND*%
X110961000Y-59129000D03*
D13*
%TO.P,C2,1*%
%TO.N,Net-(U1-SRV)*%
X114761000Y-59129000D03*
%TD*%
D16*
%TO.P,RV1,3,3*%
%TO.N,GND*%
X126261000Y-82879000D03*
%TO.P,RV1,2,2*%
%TO.N,Net-(C1-Pad1)*%
X121261000Y-82879000D03*
%TO.P,RV1,1,1*%
%TO.N,Net-(IN1-Pin_1)*%
X116261000Y-82879000D03*
%TD*%
D17*
%TO.P,U1,8,GND*%
%TO.N,GND*%
X130071000Y-57879000D03*
%TO.P,U1,7,GND*%
X130071000Y-60419000D03*
%TO.P,U1,6,GND*%
X130071000Y-62959000D03*
%TO.P,U1,5,GND*%
X130071000Y-65499000D03*
%TO.P,U1,4,In*%
%TO.N,Net-(U1-In)*%
X122451000Y-65499000D03*
%TO.P,U1,3,SRV*%
%TO.N,Net-(U1-SRV)*%
X122451000Y-62959000D03*
%TO.P,U1,2,Out*%
%TO.N,Net-(U1-Out)*%
X122451000Y-60419000D03*
D18*
%TO.P,U1,1,V+*%
%TO.N,/VCC*%
X122451000Y-57879000D03*
%TD*%
D12*
%TO.P,R2,2*%
%TO.N,/VCC*%
X141571000Y-65629000D03*
%TO.P,R2,1*%
%TO.N,Net-(D1-A)*%
X133951000Y-65629000D03*
%TD*%
%TO.P,C1,2*%
%TO.N,Net-(C1-Pad2)*%
X123761000Y-72879000D03*
%TO.P,C1,1*%
%TO.N,Net-(C1-Pad1)*%
X128761000Y-72879000D03*
%TD*%
D19*
%TO.P,D1,2,A*%
%TO.N,Net-(D1-A)*%
X135761000Y-72129000D03*
D20*
%TO.P,D1,1,K*%
%TO.N,GND*%
X133221000Y-72129000D03*
%TD*%
D12*
%TO.P,R1,2*%
%TO.N,Net-(U1-In)*%
X117961000Y-65569000D03*
%TO.P,R1,1*%
%TO.N,Net-(C1-Pad2)*%
X117961000Y-73189000D03*
%TD*%
D14*
%TO.P,OUT1,2,Pin_2*%
%TO.N,GND*%
X124981000Y-49129000D03*
D15*
%TO.P,OUT1,1,Pin_1*%
%TO.N,Net-(OUT1-Pin_1)*%
X130061000Y-49129000D03*
%TD*%
D12*
%TO.P,C3,2*%
%TO.N,Net-(U1-In)*%
X112961000Y-66689000D03*
%TO.P,C3,1*%
%TO.N,GND*%
X112961000Y-71689000D03*
%TD*%
D14*
%TO.P,IN1,2,Pin_2*%
%TO.N,GND*%
X139301000Y-83129000D03*
D15*
%TO.P,IN1,1,Pin_1*%
%TO.N,Net-(IN1-Pin_1)*%
X134221000Y-83129000D03*
%TD*%
D12*
%TO.P,C3,2*%
%TO.N,Net-(U1-In)*%
X157961000Y-107689000D03*
%TO.P,C3,1*%
%TO.N,GND*%
X157961000Y-112689000D03*
%TD*%
D14*
%TO.P,IN1,2,Pin_2*%
%TO.N,GND*%
X184301000Y-124129000D03*
D15*
%TO.P,IN1,1,Pin_1*%
%TO.N,Net-(IN1-Pin_1)*%
X179221000Y-124129000D03*
%TD*%
D12*
%TO.P,R1,2*%
%TO.N,Net-(U1-In)*%
X162961000Y-106569000D03*
%TO.P,R1,1*%
%TO.N,Net-(C1-Pad2)*%
X162961000Y-114189000D03*
%TD*%
D19*
%TO.P,D1,2,A*%
%TO.N,Net-(D1-A)*%
X180761000Y-113129000D03*
D20*
%TO.P,D1,1,K*%
%TO.N,GND*%
X178221000Y-113129000D03*
%TD*%
D14*
%TO.P,OUT1,2,Pin_2*%
%TO.N,GND*%
X169981000Y-90129000D03*
D15*
%TO.P,OUT1,1,Pin_1*%
%TO.N,Net-(OUT1-Pin_1)*%
X175061000Y-90129000D03*
%TD*%
D12*
%TO.P,C5,2*%
%TO.N,/VCC*%
X164761000Y-95629000D03*
%TO.P,C5,1*%
%TO.N,GND*%
X164761000Y-90629000D03*
%TD*%
%TO.P,C1,2*%
%TO.N,Net-(C1-Pad2)*%
X168761000Y-113879000D03*
%TO.P,C1,1*%
%TO.N,Net-(C1-Pad1)*%
X173761000Y-113879000D03*
%TD*%
D17*
%TO.P,U1,8,GND*%
%TO.N,GND*%
X175071000Y-98879000D03*
%TO.P,U1,7,GND*%
X175071000Y-101419000D03*
%TO.P,U1,6,GND*%
X175071000Y-103959000D03*
%TO.P,U1,5,GND*%
X175071000Y-106499000D03*
%TO.P,U1,4,In*%
%TO.N,Net-(U1-In)*%
X167451000Y-106499000D03*
%TO.P,U1,3,SRV*%
%TO.N,Net-(U1-SRV)*%
X167451000Y-103959000D03*
%TO.P,U1,2,Out*%
%TO.N,Net-(U1-Out)*%
X167451000Y-101419000D03*
D18*
%TO.P,U1,1,V+*%
%TO.N,/VCC*%
X167451000Y-98879000D03*
%TD*%
D12*
%TO.P,R2,2*%
%TO.N,/VCC*%
X186571000Y-106629000D03*
%TO.P,R2,1*%
%TO.N,Net-(D1-A)*%
X178951000Y-106629000D03*
%TD*%
D14*
%TO.P,VCC1,2,Pin_2*%
%TO.N,GND*%
X153761000Y-124129000D03*
D15*
%TO.P,VCC1,1,Pin_1*%
%TO.N,/VCC*%
X148681000Y-124129000D03*
%TD*%
D12*
%TO.P,C2,2*%
%TO.N,GND*%
X155961000Y-100129000D03*
D13*
%TO.P,C2,1*%
%TO.N,Net-(U1-SRV)*%
X159761000Y-100129000D03*
%TD*%
D10*
%TO.P,C6,2*%
%TO.N,Net-(OUT1-Pin_1)*%
X185393323Y-98629000D03*
D11*
%TO.P,C6,1*%
%TO.N,Net-(U1-Out)*%
X180393323Y-98629000D03*
%TD*%
D12*
%TO.P,C4,2*%
%TO.N,GND*%
X147961000Y-109529000D03*
D13*
%TO.P,C4,1*%
%TO.N,/VCC*%
X151761000Y-109529000D03*
%TD*%
D16*
%TO.P,RV1,3,3*%
%TO.N,GND*%
X171261000Y-123879000D03*
%TO.P,RV1,2,2*%
%TO.N,Net-(C1-Pad1)*%
X166261000Y-123879000D03*
%TO.P,RV1,1,1*%
%TO.N,Net-(IN1-Pin_1)*%
X161261000Y-123879000D03*
%TD*%
%TA.AperFunction,Conductor*%
%TO.N,GND*%
G36*
X187709487Y-87648685D02*
G01*
X187755242Y-87701489D01*
X187766448Y-87753000D01*
X187766448Y-106146587D01*
X187746763Y-106213626D01*
X187693959Y-106259381D01*
X187624801Y-106269325D01*
X187561245Y-106240300D01*
X187527887Y-106194040D01*
X187501942Y-106131404D01*
X187461850Y-106071402D01*
X187386977Y-105959345D01*
X187386975Y-105959342D01*
X187240657Y-105813024D01*
X187154626Y-105755541D01*
X187068598Y-105698059D01*
X186877420Y-105618870D01*
X186877412Y-105618868D01*
X186674469Y-105578500D01*
X186674465Y-105578500D01*
X186467535Y-105578500D01*
X186467530Y-105578500D01*
X186264587Y-105618868D01*
X186264579Y-105618870D01*
X186073403Y-105698058D01*
X185901342Y-105813024D01*
X185755024Y-105959342D01*
X185640058Y-106131403D01*
X185560870Y-106322579D01*
X185560868Y-106322587D01*
X185520500Y-106525530D01*
X185520500Y-106732469D01*
X185548935Y-106875420D01*
X185560870Y-106935420D01*
X185640059Y-107126598D01*
X185668162Y-107168657D01*
X185755024Y-107298657D01*
X185901342Y-107444975D01*
X185901345Y-107444977D01*
X186073402Y-107559941D01*
X186264580Y-107639130D01*
X186467530Y-107679499D01*
X186467534Y-107679500D01*
X186467535Y-107679500D01*
X186674466Y-107679500D01*
X186674467Y-107679499D01*
X186877420Y-107639130D01*
X187068598Y-107559941D01*
X187240655Y-107444977D01*
X187386977Y-107298655D01*
X187501941Y-107126598D01*
X187527887Y-107063958D01*
X187571728Y-107009556D01*
X187638022Y-106987491D01*
X187705721Y-107004770D01*
X187753332Y-107055907D01*
X187766448Y-107111412D01*
X187766448Y-126004500D01*
X187746763Y-126071539D01*
X187693959Y-126117294D01*
X187642448Y-126128500D01*
X143261000Y-126128500D01*
X143261000Y-122604321D01*
X146930500Y-122604321D01*
X146930500Y-125653678D01*
X146945032Y-125726735D01*
X146945033Y-125726739D01*
X146945034Y-125726740D01*
X147000399Y-125809601D01*
X147083260Y-125864966D01*
X147083264Y-125864967D01*
X147156321Y-125879499D01*
X147156324Y-125879500D01*
X147156326Y-125879500D01*
X150205676Y-125879500D01*
X150205677Y-125879499D01*
X150278740Y-125864966D01*
X150361601Y-125809601D01*
X150416966Y-125726740D01*
X150431500Y-125653674D01*
X150431500Y-123767204D01*
X159840500Y-123767204D01*
X159840500Y-123990795D01*
X159875478Y-124211635D01*
X159944569Y-124424280D01*
X159944570Y-124424283D01*
X160046080Y-124623504D01*
X160177504Y-124804393D01*
X160335607Y-124962496D01*
X160516496Y-125093920D01*
X160614207Y-125143706D01*
X160715716Y-125195429D01*
X160715719Y-125195430D01*
X160822041Y-125229975D01*
X160928366Y-125264522D01*
X161149204Y-125299500D01*
X161149205Y-125299500D01*
X161372795Y-125299500D01*
X161372796Y-125299500D01*
X161593634Y-125264522D01*
X161806283Y-125195429D01*
X162005504Y-125093920D01*
X162186393Y-124962496D01*
X162344496Y-124804393D01*
X162475920Y-124623504D01*
X162577429Y-124424283D01*
X162646522Y-124211634D01*
X162681500Y-123990796D01*
X162681500Y-123767204D01*
X164840500Y-123767204D01*
X164840500Y-123990795D01*
X164875478Y-124211635D01*
X164944569Y-124424280D01*
X164944570Y-124424283D01*
X165046080Y-124623504D01*
X165177504Y-124804393D01*
X165335607Y-124962496D01*
X165516496Y-125093920D01*
X165614207Y-125143706D01*
X165715716Y-125195429D01*
X165715719Y-125195430D01*
X165822041Y-125229975D01*
X165928366Y-125264522D01*
X166149204Y-125299500D01*
X166149205Y-125299500D01*
X166372795Y-125299500D01*
X166372796Y-125299500D01*
X166593634Y-125264522D01*
X166806283Y-125195429D01*
X167005504Y-125093920D01*
X167186393Y-124962496D01*
X167344496Y-124804393D01*
X167475920Y-124623504D01*
X167577429Y-124424283D01*
X167646522Y-124211634D01*
X167681500Y-123990796D01*
X167681500Y-123767204D01*
X167646522Y-123546366D01*
X167577429Y-123333717D01*
X167577429Y-123333716D01*
X167475919Y-123134495D01*
X167344496Y-122953607D01*
X167186393Y-122795504D01*
X167005504Y-122664080D01*
X166888222Y-122604321D01*
X177470500Y-122604321D01*
X177470500Y-125653678D01*
X177485032Y-125726735D01*
X177485033Y-125726739D01*
X177485034Y-125726740D01*
X177540399Y-125809601D01*
X177623260Y-125864966D01*
X177623264Y-125864967D01*
X177696321Y-125879499D01*
X177696324Y-125879500D01*
X177696326Y-125879500D01*
X180745676Y-125879500D01*
X180745677Y-125879499D01*
X180818740Y-125864966D01*
X180901601Y-125809601D01*
X180956966Y-125726740D01*
X180971500Y-125653674D01*
X180971500Y-122604326D01*
X180971500Y-122604323D01*
X180971499Y-122604321D01*
X180956967Y-122531264D01*
X180956966Y-122531260D01*
X180931721Y-122493478D01*
X180901601Y-122448399D01*
X180818740Y-122393034D01*
X180818739Y-122393033D01*
X180818735Y-122393032D01*
X180745677Y-122378500D01*
X180745674Y-122378500D01*
X177696326Y-122378500D01*
X177696323Y-122378500D01*
X177623264Y-122393032D01*
X177623260Y-122393033D01*
X177540399Y-122448399D01*
X177485033Y-122531260D01*
X177485032Y-122531264D01*
X177470500Y-122604321D01*
X166888222Y-122604321D01*
X166806283Y-122562570D01*
X166806280Y-122562569D01*
X166593635Y-122493478D01*
X166483215Y-122475989D01*
X166372796Y-122458500D01*
X166149204Y-122458500D01*
X166075591Y-122470159D01*
X165928364Y-122493478D01*
X165715719Y-122562569D01*
X165715716Y-122562570D01*
X165516495Y-122664080D01*
X165413291Y-122739062D01*
X165335607Y-122795504D01*
X165335605Y-122795506D01*
X165335604Y-122795506D01*
X165177506Y-122953604D01*
X165177506Y-122953605D01*
X165177504Y-122953607D01*
X165121062Y-123031291D01*
X165046080Y-123134495D01*
X164944570Y-123333716D01*
X164944569Y-123333719D01*
X164875478Y-123546364D01*
X164840500Y-123767204D01*
X162681500Y-123767204D01*
X162646522Y-123546366D01*
X162577429Y-123333717D01*
X162577429Y-123333716D01*
X162475919Y-123134495D01*
X162344496Y-122953607D01*
X162186393Y-122795504D01*
X162005504Y-122664080D01*
X161806283Y-122562570D01*
X161806280Y-122562569D01*
X161593635Y-122493478D01*
X161483215Y-122475989D01*
X161372796Y-122458500D01*
X161149204Y-122458500D01*
X161075591Y-122470159D01*
X160928364Y-122493478D01*
X160715719Y-122562569D01*
X160715716Y-122562570D01*
X160516495Y-122664080D01*
X160413291Y-122739062D01*
X160335607Y-122795504D01*
X160335605Y-122795506D01*
X160335604Y-122795506D01*
X160177506Y-122953604D01*
X160177506Y-122953605D01*
X160177504Y-122953607D01*
X160121062Y-123031291D01*
X160046080Y-123134495D01*
X159944570Y-123333716D01*
X159944569Y-123333719D01*
X159875478Y-123546364D01*
X159840500Y-123767204D01*
X150431500Y-123767204D01*
X150431500Y-122604326D01*
X150431500Y-122604323D01*
X150431499Y-122604321D01*
X150416967Y-122531264D01*
X150416966Y-122531260D01*
X150391721Y-122493478D01*
X150361601Y-122448399D01*
X150278740Y-122393034D01*
X150278739Y-122393033D01*
X150278735Y-122393032D01*
X150205677Y-122378500D01*
X150205674Y-122378500D01*
X147156326Y-122378500D01*
X147156323Y-122378500D01*
X147083264Y-122393032D01*
X147083260Y-122393033D01*
X147000399Y-122448399D01*
X146945033Y-122531260D01*
X146945032Y-122531264D01*
X146930500Y-122604321D01*
X143261000Y-122604321D01*
X143261000Y-116991332D01*
X146160500Y-116991332D01*
X146160500Y-117266667D01*
X146160501Y-117266684D01*
X146196438Y-117539655D01*
X146196439Y-117539660D01*
X146196440Y-117539666D01*
X146196441Y-117539668D01*
X146267704Y-117805630D01*
X146373075Y-118060017D01*
X146373080Y-118060028D01*
X146455861Y-118203407D01*
X146510751Y-118298479D01*
X146510753Y-118298482D01*
X146510754Y-118298483D01*
X146678370Y-118516926D01*
X146678376Y-118516933D01*
X146873066Y-118711623D01*
X146873072Y-118711628D01*
X147091521Y-118879249D01*
X147244778Y-118967732D01*
X147329971Y-119016919D01*
X147329976Y-119016921D01*
X147329979Y-119016923D01*
X147584368Y-119122295D01*
X147850334Y-119193560D01*
X148123326Y-119229500D01*
X148123333Y-119229500D01*
X148398667Y-119229500D01*
X148398674Y-119229500D01*
X148671666Y-119193560D01*
X148937632Y-119122295D01*
X149192021Y-119016923D01*
X149430479Y-118879249D01*
X149648928Y-118711628D01*
X149843628Y-118516928D01*
X150011249Y-118298479D01*
X150148923Y-118060021D01*
X150254295Y-117805632D01*
X150325560Y-117539666D01*
X150361500Y-117266674D01*
X150361500Y-116991332D01*
X183160500Y-116991332D01*
X183160500Y-117266667D01*
X183160501Y-117266684D01*
X183196438Y-117539655D01*
X183196439Y-117539660D01*
X183196440Y-117539666D01*
X183196441Y-117539668D01*
X183267704Y-117805630D01*
X183373075Y-118060017D01*
X183373080Y-118060028D01*
X183455861Y-118203407D01*
X183510751Y-118298479D01*
X183510753Y-118298482D01*
X183510754Y-118298483D01*
X183678370Y-118516926D01*
X183678376Y-118516933D01*
X183873066Y-118711623D01*
X183873072Y-118711628D01*
X184091521Y-118879249D01*
X184244778Y-118967732D01*
X184329971Y-119016919D01*
X184329976Y-119016921D01*
X184329979Y-119016923D01*
X184584368Y-119122295D01*
X184850334Y-119193560D01*
X185123326Y-119229500D01*
X185123333Y-119229500D01*
X185398667Y-119229500D01*
X185398674Y-119229500D01*
X185671666Y-119193560D01*
X185937632Y-119122295D01*
X186192021Y-119016923D01*
X186430479Y-118879249D01*
X186648928Y-118711628D01*
X186843628Y-118516928D01*
X187011249Y-118298479D01*
X187148923Y-118060021D01*
X187254295Y-117805632D01*
X187325560Y-117539666D01*
X187361500Y-117266674D01*
X187361500Y-116991326D01*
X187325560Y-116718334D01*
X187254295Y-116452368D01*
X187148923Y-116197979D01*
X187148921Y-116197976D01*
X187148919Y-116197971D01*
X187099732Y-116112778D01*
X187011249Y-115959521D01*
X186843628Y-115741072D01*
X186843623Y-115741066D01*
X186648933Y-115546376D01*
X186648926Y-115546370D01*
X186430483Y-115378754D01*
X186430482Y-115378753D01*
X186430479Y-115378751D01*
X186335407Y-115323861D01*
X186192028Y-115241080D01*
X186192017Y-115241075D01*
X185937630Y-115135704D01*
X185804649Y-115100072D01*
X185671666Y-115064440D01*
X185671660Y-115064439D01*
X185671655Y-115064438D01*
X185398684Y-115028501D01*
X185398679Y-115028500D01*
X185398674Y-115028500D01*
X185123326Y-115028500D01*
X185123320Y-115028500D01*
X185123315Y-115028501D01*
X184850344Y-115064438D01*
X184850337Y-115064439D01*
X184850334Y-115064440D01*
X184794125Y-115079500D01*
X184584369Y-115135704D01*
X184329982Y-115241075D01*
X184329971Y-115241080D01*
X184091516Y-115378754D01*
X183873073Y-115546370D01*
X183873066Y-115546376D01*
X183678376Y-115741066D01*
X183678370Y-115741073D01*
X183510754Y-115959516D01*
X183373080Y-116197971D01*
X183373075Y-116197982D01*
X183267704Y-116452369D01*
X183196441Y-116718331D01*
X183196438Y-116718344D01*
X183160501Y-116991315D01*
X183160500Y-116991332D01*
X150361500Y-116991332D01*
X150361500Y-116991326D01*
X150325560Y-116718334D01*
X150254295Y-116452368D01*
X150148923Y-116197979D01*
X150148921Y-116197976D01*
X150148919Y-116197971D01*
X150099732Y-116112778D01*
X150011249Y-115959521D01*
X149843628Y-115741072D01*
X149843623Y-115741066D01*
X149648933Y-115546376D01*
X149648926Y-115546370D01*
X149430483Y-115378754D01*
X149430482Y-115378753D01*
X149430479Y-115378751D01*
X149335407Y-115323861D01*
X149192028Y-115241080D01*
X149192017Y-115241075D01*
X148937630Y-115135704D01*
X148804649Y-115100072D01*
X148671666Y-115064440D01*
X148671660Y-115064439D01*
X148671655Y-115064438D01*
X148398684Y-115028501D01*
X148398679Y-115028500D01*
X148398674Y-115028500D01*
X148123326Y-115028500D01*
X148123320Y-115028500D01*
X148123315Y-115028501D01*
X147850344Y-115064438D01*
X147850337Y-115064439D01*
X147850334Y-115064440D01*
X147794125Y-115079500D01*
X147584369Y-115135704D01*
X147329982Y-115241075D01*
X147329971Y-115241080D01*
X147091516Y-115378754D01*
X146873073Y-115546370D01*
X146873066Y-115546376D01*
X146678376Y-115741066D01*
X146678370Y-115741073D01*
X146510754Y-115959516D01*
X146373080Y-116197971D01*
X146373075Y-116197982D01*
X146267704Y-116452369D01*
X146196441Y-116718331D01*
X146196438Y-116718344D01*
X146160501Y-116991315D01*
X146160500Y-116991332D01*
X143261000Y-116991332D01*
X143261000Y-114085530D01*
X161910500Y-114085530D01*
X161910500Y-114292469D01*
X161950868Y-114495412D01*
X161950870Y-114495420D01*
X162030059Y-114686598D01*
X162035658Y-114694977D01*
X162145024Y-114858657D01*
X162291342Y-115004975D01*
X162291345Y-115004977D01*
X162463402Y-115119941D01*
X162654580Y-115199130D01*
X162857530Y-115239499D01*
X162857534Y-115239500D01*
X162857535Y-115239500D01*
X163064466Y-115239500D01*
X163064467Y-115239499D01*
X163267420Y-115199130D01*
X163458598Y-115119941D01*
X163630655Y-115004977D01*
X163776977Y-114858655D01*
X163891941Y-114686598D01*
X163971130Y-114495420D01*
X164011500Y-114292465D01*
X164011500Y-114085535D01*
X163971130Y-113882580D01*
X163971128Y-113882575D01*
X163943923Y-113816895D01*
X163926789Y-113775530D01*
X167710500Y-113775530D01*
X167710500Y-113982469D01*
X167750868Y-114185412D01*
X167750870Y-114185420D01*
X167830058Y-114376596D01*
X167945024Y-114548657D01*
X168091342Y-114694975D01*
X168091345Y-114694977D01*
X168263402Y-114809941D01*
X168454580Y-114889130D01*
X168657530Y-114929499D01*
X168657534Y-114929500D01*
X168657535Y-114929500D01*
X168864466Y-114929500D01*
X168864467Y-114929499D01*
X169067420Y-114889130D01*
X169258598Y-114809941D01*
X169430655Y-114694977D01*
X169576977Y-114548655D01*
X169691941Y-114376598D01*
X169771130Y-114185420D01*
X169811500Y-113982465D01*
X169811500Y-113775535D01*
X169811499Y-113775530D01*
X172710500Y-113775530D01*
X172710500Y-113982469D01*
X172750868Y-114185412D01*
X172750870Y-114185420D01*
X172830058Y-114376596D01*
X172945024Y-114548657D01*
X173091342Y-114694975D01*
X173091345Y-114694977D01*
X173263402Y-114809941D01*
X173454580Y-114889130D01*
X173657530Y-114929499D01*
X173657534Y-114929500D01*
X173657535Y-114929500D01*
X173864466Y-114929500D01*
X173864467Y-114929499D01*
X174067420Y-114889130D01*
X174258598Y-114809941D01*
X174430655Y-114694977D01*
X174576977Y-114548655D01*
X174691941Y-114376598D01*
X174771130Y-114185420D01*
X174811500Y-113982465D01*
X174811500Y-113775535D01*
X174771130Y-113572580D01*
X174691941Y-113381402D01*
X174576977Y-113209345D01*
X174576975Y-113209342D01*
X174430657Y-113063024D01*
X174393876Y-113038448D01*
X179610500Y-113038448D01*
X179610500Y-113219551D01*
X179638829Y-113398410D01*
X179694787Y-113570636D01*
X179694788Y-113570639D01*
X179777006Y-113731997D01*
X179883441Y-113878494D01*
X179883445Y-113878499D01*
X180011500Y-114006554D01*
X180011505Y-114006558D01*
X180120209Y-114085535D01*
X180158006Y-114112996D01*
X180263484Y-114166740D01*
X180319360Y-114195211D01*
X180319363Y-114195212D01*
X180405476Y-114223191D01*
X180491591Y-114251171D01*
X180574429Y-114264291D01*
X180670449Y-114279500D01*
X180670454Y-114279500D01*
X180851551Y-114279500D01*
X180938259Y-114265765D01*
X181030409Y-114251171D01*
X181202639Y-114195211D01*
X181363994Y-114112996D01*
X181510501Y-114006553D01*
X181638553Y-113878501D01*
X181744996Y-113731994D01*
X181827211Y-113570639D01*
X181883171Y-113398409D01*
X181897765Y-113306259D01*
X181911500Y-113219551D01*
X181911500Y-113038448D01*
X181895019Y-112934397D01*
X181883171Y-112859591D01*
X181827211Y-112687361D01*
X181827211Y-112687360D01*
X181798740Y-112631484D01*
X181744996Y-112526006D01*
X181731396Y-112507287D01*
X181638558Y-112379505D01*
X181638554Y-112379500D01*
X181510499Y-112251445D01*
X181510494Y-112251441D01*
X181363997Y-112145006D01*
X181363996Y-112145005D01*
X181363994Y-112145004D01*
X181312300Y-112118664D01*
X181202639Y-112062788D01*
X181202636Y-112062787D01*
X181030410Y-112006829D01*
X180851551Y-111978500D01*
X180851546Y-111978500D01*
X180670454Y-111978500D01*
X180670449Y-111978500D01*
X180491589Y-112006829D01*
X180319363Y-112062787D01*
X180319360Y-112062788D01*
X180158002Y-112145006D01*
X180011505Y-112251441D01*
X180011500Y-112251445D01*
X179883445Y-112379500D01*
X179883441Y-112379505D01*
X179777006Y-112526002D01*
X179694788Y-112687360D01*
X179694787Y-112687363D01*
X179638829Y-112859589D01*
X179610500Y-113038448D01*
X174393876Y-113038448D01*
X174344626Y-113005541D01*
X174258598Y-112948059D01*
X174067420Y-112868870D01*
X174067412Y-112868868D01*
X173864469Y-112828500D01*
X173864465Y-112828500D01*
X173657535Y-112828500D01*
X173657530Y-112828500D01*
X173454587Y-112868868D01*
X173454579Y-112868870D01*
X173263403Y-112948058D01*
X173091342Y-113063024D01*
X172945024Y-113209342D01*
X172830058Y-113381403D01*
X172750870Y-113572579D01*
X172750868Y-113572587D01*
X172710500Y-113775530D01*
X169811499Y-113775530D01*
X169771130Y-113572580D01*
X169691941Y-113381402D01*
X169576977Y-113209345D01*
X169576975Y-113209342D01*
X169430657Y-113063024D01*
X169344626Y-113005541D01*
X169258598Y-112948059D01*
X169067420Y-112868870D01*
X169067412Y-112868868D01*
X168864469Y-112828500D01*
X168864465Y-112828500D01*
X168657535Y-112828500D01*
X168657530Y-112828500D01*
X168454587Y-112868868D01*
X168454579Y-112868870D01*
X168263403Y-112948058D01*
X168091342Y-113063024D01*
X167945024Y-113209342D01*
X167830058Y-113381403D01*
X167750870Y-113572579D01*
X167750868Y-113572587D01*
X167710500Y-113775530D01*
X163926789Y-113775530D01*
X163891942Y-113691404D01*
X163812546Y-113572579D01*
X163776977Y-113519345D01*
X163776975Y-113519342D01*
X163630657Y-113373024D01*
X163544626Y-113315541D01*
X163458598Y-113258059D01*
X163340985Y-113209342D01*
X163267420Y-113178870D01*
X163267412Y-113178868D01*
X163064469Y-113138500D01*
X163064465Y-113138500D01*
X162857535Y-113138500D01*
X162857530Y-113138500D01*
X162654587Y-113178868D01*
X162654579Y-113178870D01*
X162463403Y-113258058D01*
X162291342Y-113373024D01*
X162145024Y-113519342D01*
X162030058Y-113691403D01*
X161950870Y-113882579D01*
X161950868Y-113882587D01*
X161910500Y-114085530D01*
X143261000Y-114085530D01*
X143261000Y-108931135D01*
X150710500Y-108931135D01*
X150710500Y-110126870D01*
X150710501Y-110126876D01*
X150716908Y-110186483D01*
X150767202Y-110321328D01*
X150767206Y-110321335D01*
X150853452Y-110436544D01*
X150853455Y-110436547D01*
X150968664Y-110522793D01*
X150968671Y-110522797D01*
X151103517Y-110573091D01*
X151103516Y-110573091D01*
X151110444Y-110573835D01*
X151163127Y-110579500D01*
X152358872Y-110579499D01*
X152418483Y-110573091D01*
X152553331Y-110522796D01*
X152668546Y-110436546D01*
X152754796Y-110321331D01*
X152805091Y-110186483D01*
X152811500Y-110126873D01*
X152811499Y-108931128D01*
X152805091Y-108871517D01*
X152754796Y-108736669D01*
X152754795Y-108736668D01*
X152754793Y-108736664D01*
X152668547Y-108621455D01*
X152668544Y-108621452D01*
X152553335Y-108535206D01*
X152553328Y-108535202D01*
X152418482Y-108484908D01*
X152418483Y-108484908D01*
X152358883Y-108478501D01*
X152358881Y-108478500D01*
X152358873Y-108478500D01*
X152358864Y-108478500D01*
X151163129Y-108478500D01*
X151163123Y-108478501D01*
X151103516Y-108484908D01*
X150968671Y-108535202D01*
X150968664Y-108535206D01*
X150853455Y-108621452D01*
X150853452Y-108621455D01*
X150767206Y-108736664D01*
X150767202Y-108736671D01*
X150716908Y-108871517D01*
X150710501Y-108931116D01*
X150710501Y-108931123D01*
X150710500Y-108931135D01*
X143261000Y-108931135D01*
X143261000Y-107585530D01*
X156910500Y-107585530D01*
X156910500Y-107792469D01*
X156950868Y-107995412D01*
X156950870Y-107995420D01*
X157030058Y-108186596D01*
X157145024Y-108358657D01*
X157291342Y-108504975D01*
X157291345Y-108504977D01*
X157463402Y-108619941D01*
X157654580Y-108699130D01*
X157843303Y-108736669D01*
X157857530Y-108739499D01*
X157857534Y-108739500D01*
X157857535Y-108739500D01*
X158064466Y-108739500D01*
X158064467Y-108739499D01*
X158267420Y-108699130D01*
X158458598Y-108619941D01*
X158630655Y-108504977D01*
X158776977Y-108358655D01*
X158891941Y-108186598D01*
X158971130Y-107995420D01*
X159011500Y-107792465D01*
X159011500Y-107585535D01*
X158971130Y-107382580D01*
X158891941Y-107191402D01*
X158776977Y-107019345D01*
X158776975Y-107019342D01*
X158630657Y-106873024D01*
X158529467Y-106805412D01*
X158458598Y-106758059D01*
X158396811Y-106732466D01*
X158267420Y-106678870D01*
X158267412Y-106678868D01*
X158064469Y-106638500D01*
X158064465Y-106638500D01*
X157857535Y-106638500D01*
X157857530Y-106638500D01*
X157654587Y-106678868D01*
X157654579Y-106678870D01*
X157463403Y-106758058D01*
X157291342Y-106873024D01*
X157145024Y-107019342D01*
X157030058Y-107191403D01*
X156950870Y-107382579D01*
X156950868Y-107382587D01*
X156910500Y-107585530D01*
X143261000Y-107585530D01*
X143261000Y-106465530D01*
X161910500Y-106465530D01*
X161910500Y-106672469D01*
X161950868Y-106875412D01*
X161950870Y-106875420D01*
X162025630Y-107055907D01*
X162030059Y-107066598D01*
X162087541Y-107152626D01*
X162145024Y-107238657D01*
X162291342Y-107384975D01*
X162291345Y-107384977D01*
X162463402Y-107499941D01*
X162654580Y-107579130D01*
X162857530Y-107619499D01*
X162857534Y-107619500D01*
X162857535Y-107619500D01*
X163064466Y-107619500D01*
X163064467Y-107619499D01*
X163267420Y-107579130D01*
X163458598Y-107499941D01*
X163630655Y-107384977D01*
X163776977Y-107238655D01*
X163891941Y-107066598D01*
X163971130Y-106875420D01*
X164011500Y-106672465D01*
X164011500Y-106465535D01*
X164011417Y-106465120D01*
X164001177Y-106413634D01*
X163997576Y-106395530D01*
X166000500Y-106395530D01*
X166000500Y-106602469D01*
X166026359Y-106732469D01*
X166040870Y-106805420D01*
X166120059Y-106996598D01*
X166128717Y-107009556D01*
X166235024Y-107168657D01*
X166381342Y-107314975D01*
X166381345Y-107314977D01*
X166553402Y-107429941D01*
X166744580Y-107509130D01*
X166947530Y-107549499D01*
X166947534Y-107549500D01*
X166947535Y-107549500D01*
X167954466Y-107549500D01*
X167954467Y-107549499D01*
X168157420Y-107509130D01*
X168348598Y-107429941D01*
X168520655Y-107314977D01*
X168666977Y-107168655D01*
X168781941Y-106996598D01*
X168861130Y-106805420D01*
X168901500Y-106602465D01*
X168901500Y-106525530D01*
X177900500Y-106525530D01*
X177900500Y-106732469D01*
X177928935Y-106875420D01*
X177940870Y-106935420D01*
X178020059Y-107126598D01*
X178048162Y-107168657D01*
X178135024Y-107298657D01*
X178281342Y-107444975D01*
X178281345Y-107444977D01*
X178453402Y-107559941D01*
X178644580Y-107639130D01*
X178847530Y-107679499D01*
X178847534Y-107679500D01*
X178847535Y-107679500D01*
X179054466Y-107679500D01*
X179054467Y-107679499D01*
X179257420Y-107639130D01*
X179448598Y-107559941D01*
X179620655Y-107444977D01*
X179766977Y-107298655D01*
X179881941Y-107126598D01*
X179961130Y-106935420D01*
X180001500Y-106732465D01*
X180001500Y-106525535D01*
X179961130Y-106322580D01*
X179881941Y-106131402D01*
X179766977Y-105959345D01*
X179766975Y-105959342D01*
X179620657Y-105813024D01*
X179534626Y-105755541D01*
X179448598Y-105698059D01*
X179257420Y-105618870D01*
X179257412Y-105618868D01*
X179054469Y-105578500D01*
X179054465Y-105578500D01*
X178847535Y-105578500D01*
X178847530Y-105578500D01*
X178644587Y-105618868D01*
X178644579Y-105618870D01*
X178453403Y-105698058D01*
X178281342Y-105813024D01*
X178135024Y-105959342D01*
X178020058Y-106131403D01*
X177940870Y-106322579D01*
X177940868Y-106322587D01*
X177900500Y-106525530D01*
X168901500Y-106525530D01*
X168901500Y-106395535D01*
X168861130Y-106192580D01*
X168781941Y-106001402D01*
X168666977Y-105829345D01*
X168666975Y-105829342D01*
X168520657Y-105683024D01*
X168364224Y-105578500D01*
X168348598Y-105568059D01*
X168157420Y-105488870D01*
X168157412Y-105488868D01*
X167954469Y-105448500D01*
X167954465Y-105448500D01*
X166947535Y-105448500D01*
X166947530Y-105448500D01*
X166744587Y-105488868D01*
X166744579Y-105488870D01*
X166553403Y-105568058D01*
X166381342Y-105683024D01*
X166235024Y-105829342D01*
X166120058Y-106001403D01*
X166040870Y-106192579D01*
X166040868Y-106192587D01*
X166000500Y-106395530D01*
X163997576Y-106395530D01*
X163982079Y-106317627D01*
X163971130Y-106262580D01*
X163891941Y-106071402D01*
X163776977Y-105899345D01*
X163776975Y-105899342D01*
X163630657Y-105753024D01*
X163525892Y-105683023D01*
X163458598Y-105638059D01*
X163267420Y-105558870D01*
X163267412Y-105558868D01*
X163064469Y-105518500D01*
X163064465Y-105518500D01*
X162857535Y-105518500D01*
X162857530Y-105518500D01*
X162654587Y-105558868D01*
X162654579Y-105558870D01*
X162463403Y-105638058D01*
X162291342Y-105753024D01*
X162145024Y-105899342D01*
X162030058Y-106071403D01*
X161950870Y-106262579D01*
X161950868Y-106262587D01*
X161910500Y-106465530D01*
X143261000Y-106465530D01*
X143261000Y-104029000D01*
X143261000Y-103855530D01*
X166000500Y-103855530D01*
X166000500Y-104062469D01*
X166040868Y-104265412D01*
X166040870Y-104265420D01*
X166120058Y-104456596D01*
X166235024Y-104628657D01*
X166381342Y-104774975D01*
X166381345Y-104774977D01*
X166553402Y-104889941D01*
X166744580Y-104969130D01*
X166947530Y-105009499D01*
X166947534Y-105009500D01*
X166947535Y-105009500D01*
X167954466Y-105009500D01*
X167954467Y-105009499D01*
X168157420Y-104969130D01*
X168348598Y-104889941D01*
X168520655Y-104774977D01*
X168666977Y-104628655D01*
X168781941Y-104456598D01*
X168861130Y-104265420D01*
X168901500Y-104062465D01*
X168901500Y-103855535D01*
X168861130Y-103652580D01*
X168781941Y-103461402D01*
X168666977Y-103289345D01*
X168666975Y-103289342D01*
X168520657Y-103143024D01*
X168434626Y-103085541D01*
X168348598Y-103028059D01*
X168157420Y-102948870D01*
X168157412Y-102948868D01*
X167954469Y-102908500D01*
X167954465Y-102908500D01*
X166947535Y-102908500D01*
X166947530Y-102908500D01*
X166744587Y-102948868D01*
X166744579Y-102948870D01*
X166553403Y-103028058D01*
X166381342Y-103143024D01*
X166235024Y-103289342D01*
X166120058Y-103461403D01*
X166040870Y-103652579D01*
X166040868Y-103652587D01*
X166000500Y-103855530D01*
X143261000Y-103855530D01*
X143261000Y-101315530D01*
X166000500Y-101315530D01*
X166000500Y-101522469D01*
X166040868Y-101725412D01*
X166040870Y-101725420D01*
X166120058Y-101916596D01*
X166235024Y-102088657D01*
X166381342Y-102234975D01*
X166381345Y-102234977D01*
X166553402Y-102349941D01*
X166744580Y-102429130D01*
X166947530Y-102469499D01*
X166947534Y-102469500D01*
X166947535Y-102469500D01*
X167954466Y-102469500D01*
X167954467Y-102469499D01*
X168157420Y-102429130D01*
X168348598Y-102349941D01*
X168520655Y-102234977D01*
X168666977Y-102088655D01*
X168781941Y-101916598D01*
X168861130Y-101725420D01*
X168901500Y-101522465D01*
X168901500Y-101315535D01*
X168861130Y-101112580D01*
X168781941Y-100921402D01*
X168666977Y-100749345D01*
X168666975Y-100749342D01*
X168520657Y-100603024D01*
X168434626Y-100545541D01*
X168348598Y-100488059D01*
X168157420Y-100408870D01*
X168157412Y-100408868D01*
X167954469Y-100368500D01*
X167954465Y-100368500D01*
X166947535Y-100368500D01*
X166947530Y-100368500D01*
X166744587Y-100408868D01*
X166744579Y-100408870D01*
X166553403Y-100488058D01*
X166381342Y-100603024D01*
X166235024Y-100749342D01*
X166120058Y-100921403D01*
X166040870Y-101112579D01*
X166040868Y-101112587D01*
X166000500Y-101315530D01*
X143261000Y-101315530D01*
X143261000Y-99531135D01*
X158710500Y-99531135D01*
X158710500Y-100726870D01*
X158710501Y-100726876D01*
X158716908Y-100786483D01*
X158767202Y-100921328D01*
X158767206Y-100921335D01*
X158853452Y-101036544D01*
X158853455Y-101036547D01*
X158968664Y-101122793D01*
X158968671Y-101122797D01*
X159103517Y-101173091D01*
X159103516Y-101173091D01*
X159110444Y-101173835D01*
X159163127Y-101179500D01*
X160358872Y-101179499D01*
X160418483Y-101173091D01*
X160553331Y-101122796D01*
X160668546Y-101036546D01*
X160754796Y-100921331D01*
X160805091Y-100786483D01*
X160811500Y-100726873D01*
X160811499Y-99531128D01*
X160805091Y-99471517D01*
X160794696Y-99443647D01*
X160754797Y-99336671D01*
X160754793Y-99336664D01*
X160668547Y-99221455D01*
X160668544Y-99221452D01*
X160553335Y-99135206D01*
X160553328Y-99135202D01*
X160418482Y-99084908D01*
X160418483Y-99084908D01*
X160358883Y-99078501D01*
X160358881Y-99078500D01*
X160358873Y-99078500D01*
X160358864Y-99078500D01*
X159163129Y-99078500D01*
X159163123Y-99078501D01*
X159103516Y-99084908D01*
X158968671Y-99135202D01*
X158968664Y-99135206D01*
X158853455Y-99221452D01*
X158853452Y-99221455D01*
X158767206Y-99336664D01*
X158767202Y-99336671D01*
X158716908Y-99471517D01*
X158710501Y-99531116D01*
X158710501Y-99531123D01*
X158710500Y-99531135D01*
X143261000Y-99531135D01*
X143261000Y-98281135D01*
X166000500Y-98281135D01*
X166000500Y-99476870D01*
X166000501Y-99476876D01*
X166006908Y-99536483D01*
X166057202Y-99671328D01*
X166057206Y-99671335D01*
X166143452Y-99786544D01*
X166143455Y-99786547D01*
X166258664Y-99872793D01*
X166258671Y-99872797D01*
X166393517Y-99923091D01*
X166393516Y-99923091D01*
X166400444Y-99923835D01*
X166453127Y-99929500D01*
X168448872Y-99929499D01*
X168508483Y-99923091D01*
X168643331Y-99872796D01*
X168758546Y-99786546D01*
X168844796Y-99671331D01*
X168895091Y-99536483D01*
X168901500Y-99476873D01*
X168901499Y-98281128D01*
X168895091Y-98221517D01*
X168844796Y-98086669D01*
X168844795Y-98086668D01*
X168844793Y-98086664D01*
X168793123Y-98017643D01*
X168758546Y-97971454D01*
X168643331Y-97885204D01*
X168643328Y-97885202D01*
X168508482Y-97834908D01*
X168508483Y-97834908D01*
X168473385Y-97831135D01*
X179142823Y-97831135D01*
X179142823Y-99426870D01*
X179142824Y-99426876D01*
X179149231Y-99486483D01*
X179199525Y-99621328D01*
X179199529Y-99621335D01*
X179285775Y-99736544D01*
X179285778Y-99736547D01*
X179400987Y-99822793D01*
X179400994Y-99822797D01*
X179535840Y-99873091D01*
X179535839Y-99873091D01*
X179542767Y-99873835D01*
X179595450Y-99879500D01*
X181191195Y-99879499D01*
X181250806Y-99873091D01*
X181385654Y-99822796D01*
X181500869Y-99736546D01*
X181587119Y-99621331D01*
X181637414Y-99486483D01*
X181643823Y-99426873D01*
X181643822Y-98530577D01*
X184142823Y-98530577D01*
X184142823Y-98727422D01*
X184173613Y-98921826D01*
X184234440Y-99109029D01*
X184323799Y-99284405D01*
X184439495Y-99443646D01*
X184578677Y-99582828D01*
X184737918Y-99698524D01*
X184812537Y-99736544D01*
X184913293Y-99787882D01*
X184913295Y-99787882D01*
X184913298Y-99787884D01*
X185013640Y-99820487D01*
X185100496Y-99848709D01*
X185294901Y-99879500D01*
X185294906Y-99879500D01*
X185491745Y-99879500D01*
X185686149Y-99848709D01*
X185765897Y-99822797D01*
X185873348Y-99787884D01*
X186048728Y-99698524D01*
X186207969Y-99582828D01*
X186347151Y-99443646D01*
X186462847Y-99284405D01*
X186552207Y-99109025D01*
X186613032Y-98921826D01*
X186643823Y-98727422D01*
X186643823Y-98530577D01*
X186613032Y-98336173D01*
X186552205Y-98148970D01*
X186462846Y-97973594D01*
X186461290Y-97971452D01*
X186347151Y-97814354D01*
X186207969Y-97675172D01*
X186048728Y-97559476D01*
X185873352Y-97470117D01*
X185686149Y-97409290D01*
X185491745Y-97378500D01*
X185491740Y-97378500D01*
X185294906Y-97378500D01*
X185294901Y-97378500D01*
X185100496Y-97409290D01*
X184913293Y-97470117D01*
X184737917Y-97559476D01*
X184647064Y-97625485D01*
X184578677Y-97675172D01*
X184578675Y-97675174D01*
X184578674Y-97675174D01*
X184439497Y-97814351D01*
X184439497Y-97814352D01*
X184439495Y-97814354D01*
X184427303Y-97831135D01*
X184323799Y-97973594D01*
X184234440Y-98148970D01*
X184173613Y-98336173D01*
X184142823Y-98530577D01*
X181643822Y-98530577D01*
X181643822Y-97831128D01*
X181637414Y-97771517D01*
X181601480Y-97675174D01*
X181587120Y-97636671D01*
X181587116Y-97636664D01*
X181500870Y-97521455D01*
X181500867Y-97521452D01*
X181385658Y-97435206D01*
X181385651Y-97435202D01*
X181250805Y-97384908D01*
X181250806Y-97384908D01*
X181191206Y-97378501D01*
X181191204Y-97378500D01*
X181191196Y-97378500D01*
X181191187Y-97378500D01*
X179595452Y-97378500D01*
X179595446Y-97378501D01*
X179535839Y-97384908D01*
X179400994Y-97435202D01*
X179400987Y-97435206D01*
X179285778Y-97521452D01*
X179285775Y-97521455D01*
X179199529Y-97636664D01*
X179199525Y-97636671D01*
X179149231Y-97771517D01*
X179144626Y-97814354D01*
X179142824Y-97831123D01*
X179142823Y-97831135D01*
X168473385Y-97831135D01*
X168448883Y-97828501D01*
X168448881Y-97828500D01*
X168448873Y-97828500D01*
X168448864Y-97828500D01*
X166453129Y-97828500D01*
X166453123Y-97828501D01*
X166393516Y-97834908D01*
X166258671Y-97885202D01*
X166258664Y-97885206D01*
X166143455Y-97971452D01*
X166143452Y-97971455D01*
X166057206Y-98086664D01*
X166057202Y-98086671D01*
X166006908Y-98221517D01*
X166000501Y-98281116D01*
X166000501Y-98281123D01*
X166000500Y-98281135D01*
X143261000Y-98281135D01*
X143261000Y-95525530D01*
X163710500Y-95525530D01*
X163710500Y-95732469D01*
X163750868Y-95935412D01*
X163750870Y-95935420D01*
X163830058Y-96126596D01*
X163945024Y-96298657D01*
X164091342Y-96444975D01*
X164091345Y-96444977D01*
X164263402Y-96559941D01*
X164454580Y-96639130D01*
X164657530Y-96679499D01*
X164657534Y-96679500D01*
X164657535Y-96679500D01*
X164864466Y-96679500D01*
X164864467Y-96679499D01*
X165067420Y-96639130D01*
X165258598Y-96559941D01*
X165430655Y-96444977D01*
X165576977Y-96298655D01*
X165691941Y-96126598D01*
X165771130Y-95935420D01*
X165811500Y-95732465D01*
X165811500Y-95525535D01*
X165771130Y-95322580D01*
X165691941Y-95131402D01*
X165576977Y-94959345D01*
X165576975Y-94959342D01*
X165430657Y-94813024D01*
X165344626Y-94755541D01*
X165258598Y-94698059D01*
X165067420Y-94618870D01*
X165067412Y-94618868D01*
X164864469Y-94578500D01*
X164864465Y-94578500D01*
X164657535Y-94578500D01*
X164657530Y-94578500D01*
X164454587Y-94618868D01*
X164454579Y-94618870D01*
X164263403Y-94698058D01*
X164091342Y-94813024D01*
X163945024Y-94959342D01*
X163830058Y-95131403D01*
X163750870Y-95322579D01*
X163750868Y-95322587D01*
X163710500Y-95525530D01*
X143261000Y-95525530D01*
X143261000Y-90491332D01*
X146160500Y-90491332D01*
X146160500Y-90766667D01*
X146160501Y-90766684D01*
X146196438Y-91039655D01*
X146196439Y-91039660D01*
X146196440Y-91039666D01*
X146196441Y-91039668D01*
X146267704Y-91305630D01*
X146373075Y-91560017D01*
X146373080Y-91560028D01*
X146427150Y-91653678D01*
X146510751Y-91798479D01*
X146510753Y-91798482D01*
X146510754Y-91798483D01*
X146678370Y-92016926D01*
X146678376Y-92016933D01*
X146873066Y-92211623D01*
X146873072Y-92211628D01*
X147091521Y-92379249D01*
X147244778Y-92467732D01*
X147329971Y-92516919D01*
X147329976Y-92516921D01*
X147329979Y-92516923D01*
X147584368Y-92622295D01*
X147850334Y-92693560D01*
X148123326Y-92729500D01*
X148123333Y-92729500D01*
X148398667Y-92729500D01*
X148398674Y-92729500D01*
X148671666Y-92693560D01*
X148937632Y-92622295D01*
X149192021Y-92516923D01*
X149430479Y-92379249D01*
X149648928Y-92211628D01*
X149843628Y-92016928D01*
X150011249Y-91798479D01*
X150148923Y-91560021D01*
X150254295Y-91305632D01*
X150325560Y-91039666D01*
X150361500Y-90766674D01*
X150361500Y-90491326D01*
X150325560Y-90218334D01*
X150254295Y-89952368D01*
X150148923Y-89697979D01*
X150148921Y-89697976D01*
X150148919Y-89697971D01*
X150099732Y-89612778D01*
X150011249Y-89459521D01*
X149843628Y-89241072D01*
X149843623Y-89241066D01*
X149648933Y-89046376D01*
X149648926Y-89046370D01*
X149430483Y-88878754D01*
X149430482Y-88878753D01*
X149430479Y-88878751D01*
X149335407Y-88823861D01*
X149192028Y-88741080D01*
X149192017Y-88741075D01*
X149123743Y-88712795D01*
X148937630Y-88635704D01*
X148820507Y-88604321D01*
X173310500Y-88604321D01*
X173310500Y-91653678D01*
X173325032Y-91726735D01*
X173325033Y-91726739D01*
X173325034Y-91726740D01*
X173380399Y-91809601D01*
X173463260Y-91864966D01*
X173463264Y-91864967D01*
X173536321Y-91879499D01*
X173536324Y-91879500D01*
X173536326Y-91879500D01*
X176585676Y-91879500D01*
X176585677Y-91879499D01*
X176658740Y-91864966D01*
X176741601Y-91809601D01*
X176796966Y-91726740D01*
X176811500Y-91653674D01*
X176811500Y-90491332D01*
X183160500Y-90491332D01*
X183160500Y-90766667D01*
X183160501Y-90766684D01*
X183196438Y-91039655D01*
X183196439Y-91039660D01*
X183196440Y-91039666D01*
X183196441Y-91039668D01*
X183267704Y-91305630D01*
X183373075Y-91560017D01*
X183373080Y-91560028D01*
X183427150Y-91653678D01*
X183510751Y-91798479D01*
X183510753Y-91798482D01*
X183510754Y-91798483D01*
X183678370Y-92016926D01*
X183678376Y-92016933D01*
X183873066Y-92211623D01*
X183873072Y-92211628D01*
X184091521Y-92379249D01*
X184244778Y-92467732D01*
X184329971Y-92516919D01*
X184329976Y-92516921D01*
X184329979Y-92516923D01*
X184584368Y-92622295D01*
X184850334Y-92693560D01*
X185123326Y-92729500D01*
X185123333Y-92729500D01*
X185398667Y-92729500D01*
X185398674Y-92729500D01*
X185671666Y-92693560D01*
X185937632Y-92622295D01*
X186192021Y-92516923D01*
X186430479Y-92379249D01*
X186648928Y-92211628D01*
X186843628Y-92016928D01*
X187011249Y-91798479D01*
X187148923Y-91560021D01*
X187254295Y-91305632D01*
X187325560Y-91039666D01*
X187361500Y-90766674D01*
X187361500Y-90491326D01*
X187325560Y-90218334D01*
X187254295Y-89952368D01*
X187148923Y-89697979D01*
X187148921Y-89697976D01*
X187148919Y-89697971D01*
X187099732Y-89612778D01*
X187011249Y-89459521D01*
X186843628Y-89241072D01*
X186843623Y-89241066D01*
X186648933Y-89046376D01*
X186648926Y-89046370D01*
X186430483Y-88878754D01*
X186430482Y-88878753D01*
X186430479Y-88878751D01*
X186335407Y-88823861D01*
X186192028Y-88741080D01*
X186192017Y-88741075D01*
X185937630Y-88635704D01*
X185804649Y-88600072D01*
X185671666Y-88564440D01*
X185671660Y-88564439D01*
X185671655Y-88564438D01*
X185398684Y-88528501D01*
X185398679Y-88528500D01*
X185398674Y-88528500D01*
X185123326Y-88528500D01*
X185123320Y-88528500D01*
X185123315Y-88528501D01*
X184850344Y-88564438D01*
X184850337Y-88564439D01*
X184850334Y-88564440D01*
X184794125Y-88579500D01*
X184584369Y-88635704D01*
X184329982Y-88741075D01*
X184329971Y-88741080D01*
X184091516Y-88878754D01*
X183873073Y-89046370D01*
X183873066Y-89046376D01*
X183678376Y-89241066D01*
X183678370Y-89241073D01*
X183510754Y-89459516D01*
X183373080Y-89697971D01*
X183373075Y-89697982D01*
X183267704Y-89952369D01*
X183196441Y-90218331D01*
X183196438Y-90218344D01*
X183160501Y-90491315D01*
X183160500Y-90491332D01*
X176811500Y-90491332D01*
X176811500Y-88604326D01*
X176811500Y-88604323D01*
X176811499Y-88604321D01*
X176796967Y-88531264D01*
X176796966Y-88531260D01*
X176741601Y-88448399D01*
X176658740Y-88393034D01*
X176658739Y-88393033D01*
X176658735Y-88393032D01*
X176585677Y-88378500D01*
X176585674Y-88378500D01*
X173536326Y-88378500D01*
X173536323Y-88378500D01*
X173463264Y-88393032D01*
X173463260Y-88393033D01*
X173380399Y-88448399D01*
X173325033Y-88531260D01*
X173325032Y-88531264D01*
X173310500Y-88604321D01*
X148820507Y-88604321D01*
X148804649Y-88600072D01*
X148671666Y-88564440D01*
X148671660Y-88564439D01*
X148671655Y-88564438D01*
X148398684Y-88528501D01*
X148398679Y-88528500D01*
X148398674Y-88528500D01*
X148123326Y-88528500D01*
X148123320Y-88528500D01*
X148123315Y-88528501D01*
X147850344Y-88564438D01*
X147850337Y-88564439D01*
X147850334Y-88564440D01*
X147794125Y-88579500D01*
X147584369Y-88635704D01*
X147329982Y-88741075D01*
X147329971Y-88741080D01*
X147091516Y-88878754D01*
X146873073Y-89046370D01*
X146873066Y-89046376D01*
X146678376Y-89241066D01*
X146678370Y-89241073D01*
X146510754Y-89459516D01*
X146373080Y-89697971D01*
X146373075Y-89697982D01*
X146267704Y-89952369D01*
X146196441Y-90218331D01*
X146196438Y-90218344D01*
X146160501Y-90491315D01*
X146160500Y-90491332D01*
X143261000Y-90491332D01*
X143261000Y-87629000D01*
X187642448Y-87629000D01*
X187709487Y-87648685D01*
G37*
%TD.AperFunction*%
%TD*%
%TA.AperFunction,Conductor*%
%TO.N,GND*%
G36*
X187709487Y-47149185D02*
G01*
X187755242Y-47201989D01*
X187766448Y-47253500D01*
X187766448Y-65146587D01*
X187746763Y-65213626D01*
X187693959Y-65259381D01*
X187624801Y-65269325D01*
X187561245Y-65240300D01*
X187527887Y-65194040D01*
X187501942Y-65131404D01*
X187461850Y-65071402D01*
X187386977Y-64959345D01*
X187386975Y-64959342D01*
X187240657Y-64813024D01*
X187154626Y-64755541D01*
X187068598Y-64698059D01*
X186877420Y-64618870D01*
X186877412Y-64618868D01*
X186674469Y-64578500D01*
X186674465Y-64578500D01*
X186467535Y-64578500D01*
X186467530Y-64578500D01*
X186264587Y-64618868D01*
X186264579Y-64618870D01*
X186073403Y-64698058D01*
X185901342Y-64813024D01*
X185755024Y-64959342D01*
X185640058Y-65131403D01*
X185560870Y-65322579D01*
X185560868Y-65322587D01*
X185520500Y-65525530D01*
X185520500Y-65732469D01*
X185548935Y-65875420D01*
X185560870Y-65935420D01*
X185640059Y-66126598D01*
X185668162Y-66168657D01*
X185755024Y-66298657D01*
X185901342Y-66444975D01*
X185901345Y-66444977D01*
X186073402Y-66559941D01*
X186264580Y-66639130D01*
X186467530Y-66679499D01*
X186467534Y-66679500D01*
X186467535Y-66679500D01*
X186674466Y-66679500D01*
X186674467Y-66679499D01*
X186877420Y-66639130D01*
X187068598Y-66559941D01*
X187240655Y-66444977D01*
X187386977Y-66298655D01*
X187501941Y-66126598D01*
X187527887Y-66063958D01*
X187571728Y-66009556D01*
X187638022Y-65987491D01*
X187705721Y-66004770D01*
X187753332Y-66055907D01*
X187766448Y-66111412D01*
X187766448Y-85505000D01*
X187746763Y-85572039D01*
X187693959Y-85617794D01*
X187642448Y-85629000D01*
X100891448Y-85629000D01*
X100824409Y-85609315D01*
X100778654Y-85556511D01*
X100767448Y-85505000D01*
X100767448Y-81604321D01*
X101930500Y-81604321D01*
X101930500Y-84653678D01*
X101945032Y-84726735D01*
X101945033Y-84726739D01*
X101945034Y-84726740D01*
X102000399Y-84809601D01*
X102083260Y-84864966D01*
X102083264Y-84864967D01*
X102156321Y-84879499D01*
X102156324Y-84879500D01*
X102156326Y-84879500D01*
X105205676Y-84879500D01*
X105205677Y-84879499D01*
X105278740Y-84864966D01*
X105361601Y-84809601D01*
X105416966Y-84726740D01*
X105431500Y-84653674D01*
X105431500Y-82767204D01*
X114840500Y-82767204D01*
X114840500Y-82990795D01*
X114875478Y-83211635D01*
X114944569Y-83424280D01*
X114944570Y-83424283D01*
X115046080Y-83623504D01*
X115177504Y-83804393D01*
X115335607Y-83962496D01*
X115516496Y-84093920D01*
X115614207Y-84143706D01*
X115715716Y-84195429D01*
X115715719Y-84195430D01*
X115822041Y-84229975D01*
X115928366Y-84264522D01*
X116149204Y-84299500D01*
X116149205Y-84299500D01*
X116372795Y-84299500D01*
X116372796Y-84299500D01*
X116593634Y-84264522D01*
X116806283Y-84195429D01*
X117005504Y-84093920D01*
X117186393Y-83962496D01*
X117344496Y-83804393D01*
X117475920Y-83623504D01*
X117577429Y-83424283D01*
X117646522Y-83211634D01*
X117681500Y-82990796D01*
X117681500Y-82767204D01*
X119840500Y-82767204D01*
X119840500Y-82990795D01*
X119875478Y-83211635D01*
X119944569Y-83424280D01*
X119944570Y-83424283D01*
X120046080Y-83623504D01*
X120177504Y-83804393D01*
X120335607Y-83962496D01*
X120516496Y-84093920D01*
X120614207Y-84143706D01*
X120715716Y-84195429D01*
X120715719Y-84195430D01*
X120822041Y-84229975D01*
X120928366Y-84264522D01*
X121149204Y-84299500D01*
X121149205Y-84299500D01*
X121372795Y-84299500D01*
X121372796Y-84299500D01*
X121593634Y-84264522D01*
X121806283Y-84195429D01*
X122005504Y-84093920D01*
X122186393Y-83962496D01*
X122344496Y-83804393D01*
X122475920Y-83623504D01*
X122577429Y-83424283D01*
X122646522Y-83211634D01*
X122681500Y-82990796D01*
X122681500Y-82767204D01*
X122646522Y-82546366D01*
X122577429Y-82333717D01*
X122577429Y-82333716D01*
X122475919Y-82134495D01*
X122344496Y-81953607D01*
X122186393Y-81795504D01*
X122005504Y-81664080D01*
X121888222Y-81604321D01*
X132470500Y-81604321D01*
X132470500Y-84653678D01*
X132485032Y-84726735D01*
X132485033Y-84726739D01*
X132485034Y-84726740D01*
X132540399Y-84809601D01*
X132623260Y-84864966D01*
X132623264Y-84864967D01*
X132696321Y-84879499D01*
X132696324Y-84879500D01*
X132696326Y-84879500D01*
X135745676Y-84879500D01*
X135745677Y-84879499D01*
X135818740Y-84864966D01*
X135901601Y-84809601D01*
X135956966Y-84726740D01*
X135971500Y-84653674D01*
X135971500Y-81604326D01*
X135971500Y-81604323D01*
X135971499Y-81604321D01*
X146930500Y-81604321D01*
X146930500Y-84653678D01*
X146945032Y-84726735D01*
X146945033Y-84726739D01*
X146945034Y-84726740D01*
X147000399Y-84809601D01*
X147083260Y-84864966D01*
X147083264Y-84864967D01*
X147156321Y-84879499D01*
X147156324Y-84879500D01*
X147156326Y-84879500D01*
X150205676Y-84879500D01*
X150205677Y-84879499D01*
X150278740Y-84864966D01*
X150361601Y-84809601D01*
X150416966Y-84726740D01*
X150431500Y-84653674D01*
X150431500Y-82767204D01*
X159840500Y-82767204D01*
X159840500Y-82990795D01*
X159875478Y-83211635D01*
X159944569Y-83424280D01*
X159944570Y-83424283D01*
X160046080Y-83623504D01*
X160177504Y-83804393D01*
X160335607Y-83962496D01*
X160516496Y-84093920D01*
X160614207Y-84143706D01*
X160715716Y-84195429D01*
X160715719Y-84195430D01*
X160822041Y-84229975D01*
X160928366Y-84264522D01*
X161149204Y-84299500D01*
X161149205Y-84299500D01*
X161372795Y-84299500D01*
X161372796Y-84299500D01*
X161593634Y-84264522D01*
X161806283Y-84195429D01*
X162005504Y-84093920D01*
X162186393Y-83962496D01*
X162344496Y-83804393D01*
X162475920Y-83623504D01*
X162577429Y-83424283D01*
X162646522Y-83211634D01*
X162681500Y-82990796D01*
X162681500Y-82767204D01*
X164840500Y-82767204D01*
X164840500Y-82990795D01*
X164875478Y-83211635D01*
X164944569Y-83424280D01*
X164944570Y-83424283D01*
X165046080Y-83623504D01*
X165177504Y-83804393D01*
X165335607Y-83962496D01*
X165516496Y-84093920D01*
X165614207Y-84143706D01*
X165715716Y-84195429D01*
X165715719Y-84195430D01*
X165822041Y-84229975D01*
X165928366Y-84264522D01*
X166149204Y-84299500D01*
X166149205Y-84299500D01*
X166372795Y-84299500D01*
X166372796Y-84299500D01*
X166593634Y-84264522D01*
X166806283Y-84195429D01*
X167005504Y-84093920D01*
X167186393Y-83962496D01*
X167344496Y-83804393D01*
X167475920Y-83623504D01*
X167577429Y-83424283D01*
X167646522Y-83211634D01*
X167681500Y-82990796D01*
X167681500Y-82767204D01*
X167646522Y-82546366D01*
X167577429Y-82333717D01*
X167577429Y-82333716D01*
X167475919Y-82134495D01*
X167344496Y-81953607D01*
X167186393Y-81795504D01*
X167005504Y-81664080D01*
X166888222Y-81604321D01*
X177470500Y-81604321D01*
X177470500Y-84653678D01*
X177485032Y-84726735D01*
X177485033Y-84726739D01*
X177485034Y-84726740D01*
X177540399Y-84809601D01*
X177623260Y-84864966D01*
X177623264Y-84864967D01*
X177696321Y-84879499D01*
X177696324Y-84879500D01*
X177696326Y-84879500D01*
X180745676Y-84879500D01*
X180745677Y-84879499D01*
X180818740Y-84864966D01*
X180901601Y-84809601D01*
X180956966Y-84726740D01*
X180971500Y-84653674D01*
X180971500Y-81604326D01*
X180971500Y-81604323D01*
X180971499Y-81604321D01*
X180956967Y-81531264D01*
X180956966Y-81531260D01*
X180931721Y-81493478D01*
X180901601Y-81448399D01*
X180818740Y-81393034D01*
X180818739Y-81393033D01*
X180818735Y-81393032D01*
X180745677Y-81378500D01*
X180745674Y-81378500D01*
X177696326Y-81378500D01*
X177696323Y-81378500D01*
X177623264Y-81393032D01*
X177623260Y-81393033D01*
X177540399Y-81448399D01*
X177485033Y-81531260D01*
X177485032Y-81531264D01*
X177470500Y-81604321D01*
X166888222Y-81604321D01*
X166806283Y-81562570D01*
X166806280Y-81562569D01*
X166593635Y-81493478D01*
X166483215Y-81475989D01*
X166372796Y-81458500D01*
X166149204Y-81458500D01*
X166075591Y-81470159D01*
X165928364Y-81493478D01*
X165715719Y-81562569D01*
X165715716Y-81562570D01*
X165516495Y-81664080D01*
X165413291Y-81739062D01*
X165335607Y-81795504D01*
X165335605Y-81795506D01*
X165335604Y-81795506D01*
X165177506Y-81953604D01*
X165177506Y-81953605D01*
X165177504Y-81953607D01*
X165121062Y-82031291D01*
X165046080Y-82134495D01*
X164944570Y-82333716D01*
X164944569Y-82333719D01*
X164875478Y-82546364D01*
X164840500Y-82767204D01*
X162681500Y-82767204D01*
X162646522Y-82546366D01*
X162577429Y-82333717D01*
X162577429Y-82333716D01*
X162475919Y-82134495D01*
X162344496Y-81953607D01*
X162186393Y-81795504D01*
X162005504Y-81664080D01*
X161806283Y-81562570D01*
X161806280Y-81562569D01*
X161593635Y-81493478D01*
X161483215Y-81475989D01*
X161372796Y-81458500D01*
X161149204Y-81458500D01*
X161075591Y-81470159D01*
X160928364Y-81493478D01*
X160715719Y-81562569D01*
X160715716Y-81562570D01*
X160516495Y-81664080D01*
X160413291Y-81739062D01*
X160335607Y-81795504D01*
X160335605Y-81795506D01*
X160335604Y-81795506D01*
X160177506Y-81953604D01*
X160177506Y-81953605D01*
X160177504Y-81953607D01*
X160121062Y-82031291D01*
X160046080Y-82134495D01*
X159944570Y-82333716D01*
X159944569Y-82333719D01*
X159875478Y-82546364D01*
X159840500Y-82767204D01*
X150431500Y-82767204D01*
X150431500Y-81604326D01*
X150431500Y-81604323D01*
X150431499Y-81604321D01*
X150416967Y-81531264D01*
X150416966Y-81531260D01*
X150391721Y-81493478D01*
X150361601Y-81448399D01*
X150278740Y-81393034D01*
X150278739Y-81393033D01*
X150278735Y-81393032D01*
X150205677Y-81378500D01*
X150205674Y-81378500D01*
X147156326Y-81378500D01*
X147156323Y-81378500D01*
X147083264Y-81393032D01*
X147083260Y-81393033D01*
X147000399Y-81448399D01*
X146945033Y-81531260D01*
X146945032Y-81531264D01*
X146930500Y-81604321D01*
X135971499Y-81604321D01*
X135956967Y-81531264D01*
X135956966Y-81531260D01*
X135931721Y-81493478D01*
X135901601Y-81448399D01*
X135818740Y-81393034D01*
X135818739Y-81393033D01*
X135818735Y-81393032D01*
X135745677Y-81378500D01*
X135745674Y-81378500D01*
X132696326Y-81378500D01*
X132696323Y-81378500D01*
X132623264Y-81393032D01*
X132623260Y-81393033D01*
X132540399Y-81448399D01*
X132485033Y-81531260D01*
X132485032Y-81531264D01*
X132470500Y-81604321D01*
X121888222Y-81604321D01*
X121806283Y-81562570D01*
X121806280Y-81562569D01*
X121593635Y-81493478D01*
X121483215Y-81475989D01*
X121372796Y-81458500D01*
X121149204Y-81458500D01*
X121075591Y-81470159D01*
X120928364Y-81493478D01*
X120715719Y-81562569D01*
X120715716Y-81562570D01*
X120516495Y-81664080D01*
X120413291Y-81739062D01*
X120335607Y-81795504D01*
X120335605Y-81795506D01*
X120335604Y-81795506D01*
X120177506Y-81953604D01*
X120177506Y-81953605D01*
X120177504Y-81953607D01*
X120121062Y-82031291D01*
X120046080Y-82134495D01*
X119944570Y-82333716D01*
X119944569Y-82333719D01*
X119875478Y-82546364D01*
X119840500Y-82767204D01*
X117681500Y-82767204D01*
X117646522Y-82546366D01*
X117577429Y-82333717D01*
X117577429Y-82333716D01*
X117475919Y-82134495D01*
X117344496Y-81953607D01*
X117186393Y-81795504D01*
X117005504Y-81664080D01*
X116806283Y-81562570D01*
X116806280Y-81562569D01*
X116593635Y-81493478D01*
X116483215Y-81475989D01*
X116372796Y-81458500D01*
X116149204Y-81458500D01*
X116075591Y-81470159D01*
X115928364Y-81493478D01*
X115715719Y-81562569D01*
X115715716Y-81562570D01*
X115516495Y-81664080D01*
X115413291Y-81739062D01*
X115335607Y-81795504D01*
X115335605Y-81795506D01*
X115335604Y-81795506D01*
X115177506Y-81953604D01*
X115177506Y-81953605D01*
X115177504Y-81953607D01*
X115121062Y-82031291D01*
X115046080Y-82134495D01*
X114944570Y-82333716D01*
X114944569Y-82333719D01*
X114875478Y-82546364D01*
X114840500Y-82767204D01*
X105431500Y-82767204D01*
X105431500Y-81604326D01*
X105431500Y-81604323D01*
X105431499Y-81604321D01*
X105416967Y-81531264D01*
X105416966Y-81531260D01*
X105391721Y-81493478D01*
X105361601Y-81448399D01*
X105278740Y-81393034D01*
X105278739Y-81393033D01*
X105278735Y-81393032D01*
X105205677Y-81378500D01*
X105205674Y-81378500D01*
X102156326Y-81378500D01*
X102156323Y-81378500D01*
X102083264Y-81393032D01*
X102083260Y-81393033D01*
X102000399Y-81448399D01*
X101945033Y-81531260D01*
X101945032Y-81531264D01*
X101930500Y-81604321D01*
X100767448Y-81604321D01*
X100767448Y-75991332D01*
X101160500Y-75991332D01*
X101160500Y-76266667D01*
X101160501Y-76266684D01*
X101196438Y-76539655D01*
X101196439Y-76539660D01*
X101196440Y-76539666D01*
X101196441Y-76539668D01*
X101267704Y-76805630D01*
X101373075Y-77060017D01*
X101373080Y-77060028D01*
X101455861Y-77203407D01*
X101510751Y-77298479D01*
X101510753Y-77298482D01*
X101510754Y-77298483D01*
X101678370Y-77516926D01*
X101678376Y-77516933D01*
X101873066Y-77711623D01*
X101873072Y-77711628D01*
X102091521Y-77879249D01*
X102244778Y-77967732D01*
X102329971Y-78016919D01*
X102329976Y-78016921D01*
X102329979Y-78016923D01*
X102584368Y-78122295D01*
X102850334Y-78193560D01*
X103123326Y-78229500D01*
X103123333Y-78229500D01*
X103398667Y-78229500D01*
X103398674Y-78229500D01*
X103671666Y-78193560D01*
X103937632Y-78122295D01*
X104192021Y-78016923D01*
X104430479Y-77879249D01*
X104648928Y-77711628D01*
X104843628Y-77516928D01*
X105011249Y-77298479D01*
X105148923Y-77060021D01*
X105254295Y-76805632D01*
X105325560Y-76539666D01*
X105361500Y-76266674D01*
X105361500Y-75991332D01*
X138160500Y-75991332D01*
X138160500Y-76266667D01*
X138160501Y-76266684D01*
X138196438Y-76539655D01*
X138196439Y-76539660D01*
X138196440Y-76539666D01*
X138196441Y-76539668D01*
X138267704Y-76805630D01*
X138373075Y-77060017D01*
X138373080Y-77060028D01*
X138455861Y-77203407D01*
X138510751Y-77298479D01*
X138510753Y-77298482D01*
X138510754Y-77298483D01*
X138678370Y-77516926D01*
X138678376Y-77516933D01*
X138873066Y-77711623D01*
X138873072Y-77711628D01*
X139091521Y-77879249D01*
X139244778Y-77967732D01*
X139329971Y-78016919D01*
X139329976Y-78016921D01*
X139329979Y-78016923D01*
X139584368Y-78122295D01*
X139850334Y-78193560D01*
X140123326Y-78229500D01*
X140123333Y-78229500D01*
X140398667Y-78229500D01*
X140398674Y-78229500D01*
X140671666Y-78193560D01*
X140937632Y-78122295D01*
X141192021Y-78016923D01*
X141430479Y-77879249D01*
X141648928Y-77711628D01*
X141843628Y-77516928D01*
X142011249Y-77298479D01*
X142148923Y-77060021D01*
X142254295Y-76805632D01*
X142325560Y-76539666D01*
X142361500Y-76266674D01*
X142361500Y-75991332D01*
X146160500Y-75991332D01*
X146160500Y-76266667D01*
X146160501Y-76266684D01*
X146196438Y-76539655D01*
X146196439Y-76539660D01*
X146196440Y-76539666D01*
X146196441Y-76539668D01*
X146267704Y-76805630D01*
X146373075Y-77060017D01*
X146373080Y-77060028D01*
X146455861Y-77203407D01*
X146510751Y-77298479D01*
X146510753Y-77298482D01*
X146510754Y-77298483D01*
X146678370Y-77516926D01*
X146678376Y-77516933D01*
X146873066Y-77711623D01*
X146873072Y-77711628D01*
X147091521Y-77879249D01*
X147244778Y-77967732D01*
X147329971Y-78016919D01*
X147329976Y-78016921D01*
X147329979Y-78016923D01*
X147584368Y-78122295D01*
X147850334Y-78193560D01*
X148123326Y-78229500D01*
X148123333Y-78229500D01*
X148398667Y-78229500D01*
X148398674Y-78229500D01*
X148671666Y-78193560D01*
X148937632Y-78122295D01*
X149192021Y-78016923D01*
X149430479Y-77879249D01*
X149648928Y-77711628D01*
X149843628Y-77516928D01*
X150011249Y-77298479D01*
X150148923Y-77060021D01*
X150254295Y-76805632D01*
X150325560Y-76539666D01*
X150361500Y-76266674D01*
X150361500Y-75991332D01*
X183160500Y-75991332D01*
X183160500Y-76266667D01*
X183160501Y-76266684D01*
X183196438Y-76539655D01*
X183196439Y-76539660D01*
X183196440Y-76539666D01*
X183196441Y-76539668D01*
X183267704Y-76805630D01*
X183373075Y-77060017D01*
X183373080Y-77060028D01*
X183455861Y-77203407D01*
X183510751Y-77298479D01*
X183510753Y-77298482D01*
X183510754Y-77298483D01*
X183678370Y-77516926D01*
X183678376Y-77516933D01*
X183873066Y-77711623D01*
X183873072Y-77711628D01*
X184091521Y-77879249D01*
X184244778Y-77967732D01*
X184329971Y-78016919D01*
X184329976Y-78016921D01*
X184329979Y-78016923D01*
X184584368Y-78122295D01*
X184850334Y-78193560D01*
X185123326Y-78229500D01*
X185123333Y-78229500D01*
X185398667Y-78229500D01*
X185398674Y-78229500D01*
X185671666Y-78193560D01*
X185937632Y-78122295D01*
X186192021Y-78016923D01*
X186430479Y-77879249D01*
X186648928Y-77711628D01*
X186843628Y-77516928D01*
X187011249Y-77298479D01*
X187148923Y-77060021D01*
X187254295Y-76805632D01*
X187325560Y-76539666D01*
X187361500Y-76266674D01*
X187361500Y-75991326D01*
X187325560Y-75718334D01*
X187254295Y-75452368D01*
X187148923Y-75197979D01*
X187148921Y-75197976D01*
X187148919Y-75197971D01*
X187099732Y-75112778D01*
X187011249Y-74959521D01*
X186843628Y-74741072D01*
X186843623Y-74741066D01*
X186648933Y-74546376D01*
X186648926Y-74546370D01*
X186430483Y-74378754D01*
X186430482Y-74378753D01*
X186430479Y-74378751D01*
X186335407Y-74323861D01*
X186192028Y-74241080D01*
X186192017Y-74241075D01*
X185937630Y-74135704D01*
X185804649Y-74100072D01*
X185671666Y-74064440D01*
X185671660Y-74064439D01*
X185671655Y-74064438D01*
X185398684Y-74028501D01*
X185398679Y-74028500D01*
X185398674Y-74028500D01*
X185123326Y-74028500D01*
X185123320Y-74028500D01*
X185123315Y-74028501D01*
X184850344Y-74064438D01*
X184850337Y-74064439D01*
X184850334Y-74064440D01*
X184794125Y-74079500D01*
X184584369Y-74135704D01*
X184329982Y-74241075D01*
X184329971Y-74241080D01*
X184091516Y-74378754D01*
X183873073Y-74546370D01*
X183873066Y-74546376D01*
X183678376Y-74741066D01*
X183678370Y-74741073D01*
X183510754Y-74959516D01*
X183373080Y-75197971D01*
X183373075Y-75197982D01*
X183267704Y-75452369D01*
X183196441Y-75718331D01*
X183196438Y-75718344D01*
X183160501Y-75991315D01*
X183160500Y-75991332D01*
X150361500Y-75991332D01*
X150361500Y-75991326D01*
X150325560Y-75718334D01*
X150254295Y-75452368D01*
X150148923Y-75197979D01*
X150148921Y-75197976D01*
X150148919Y-75197971D01*
X150099732Y-75112778D01*
X150011249Y-74959521D01*
X149843628Y-74741072D01*
X149843623Y-74741066D01*
X149648933Y-74546376D01*
X149648926Y-74546370D01*
X149430483Y-74378754D01*
X149430482Y-74378753D01*
X149430479Y-74378751D01*
X149335407Y-74323861D01*
X149192028Y-74241080D01*
X149192017Y-74241075D01*
X148937630Y-74135704D01*
X148804649Y-74100072D01*
X148671666Y-74064440D01*
X148671660Y-74064439D01*
X148671655Y-74064438D01*
X148398684Y-74028501D01*
X148398679Y-74028500D01*
X148398674Y-74028500D01*
X148123326Y-74028500D01*
X148123320Y-74028500D01*
X148123315Y-74028501D01*
X147850344Y-74064438D01*
X147850337Y-74064439D01*
X147850334Y-74064440D01*
X147794125Y-74079500D01*
X147584369Y-74135704D01*
X147329982Y-74241075D01*
X147329971Y-74241080D01*
X147091516Y-74378754D01*
X146873073Y-74546370D01*
X146873066Y-74546376D01*
X146678376Y-74741066D01*
X146678370Y-74741073D01*
X146510754Y-74959516D01*
X146373080Y-75197971D01*
X146373075Y-75197982D01*
X146267704Y-75452369D01*
X146196441Y-75718331D01*
X146196438Y-75718344D01*
X146160501Y-75991315D01*
X146160500Y-75991332D01*
X142361500Y-75991332D01*
X142361500Y-75991326D01*
X142325560Y-75718334D01*
X142254295Y-75452368D01*
X142148923Y-75197979D01*
X142148921Y-75197976D01*
X142148919Y-75197971D01*
X142099732Y-75112778D01*
X142011249Y-74959521D01*
X141843628Y-74741072D01*
X141843623Y-74741066D01*
X141648933Y-74546376D01*
X141648926Y-74546370D01*
X141430483Y-74378754D01*
X141430482Y-74378753D01*
X141430479Y-74378751D01*
X141335407Y-74323861D01*
X141192028Y-74241080D01*
X141192017Y-74241075D01*
X140937630Y-74135704D01*
X140804649Y-74100072D01*
X140671666Y-74064440D01*
X140671660Y-74064439D01*
X140671655Y-74064438D01*
X140398684Y-74028501D01*
X140398679Y-74028500D01*
X140398674Y-74028500D01*
X140123326Y-74028500D01*
X140123320Y-74028500D01*
X140123315Y-74028501D01*
X139850344Y-74064438D01*
X139850337Y-74064439D01*
X139850334Y-74064440D01*
X139794125Y-74079500D01*
X139584369Y-74135704D01*
X139329982Y-74241075D01*
X139329971Y-74241080D01*
X139091516Y-74378754D01*
X138873073Y-74546370D01*
X138873066Y-74546376D01*
X138678376Y-74741066D01*
X138678370Y-74741073D01*
X138510754Y-74959516D01*
X138373080Y-75197971D01*
X138373075Y-75197982D01*
X138267704Y-75452369D01*
X138196441Y-75718331D01*
X138196438Y-75718344D01*
X138160501Y-75991315D01*
X138160500Y-75991332D01*
X105361500Y-75991332D01*
X105361500Y-75991326D01*
X105325560Y-75718334D01*
X105254295Y-75452368D01*
X105148923Y-75197979D01*
X105148921Y-75197976D01*
X105148919Y-75197971D01*
X105099732Y-75112778D01*
X105011249Y-74959521D01*
X104843628Y-74741072D01*
X104843623Y-74741066D01*
X104648933Y-74546376D01*
X104648926Y-74546370D01*
X104430483Y-74378754D01*
X104430482Y-74378753D01*
X104430479Y-74378751D01*
X104335407Y-74323861D01*
X104192028Y-74241080D01*
X104192017Y-74241075D01*
X103937630Y-74135704D01*
X103804649Y-74100072D01*
X103671666Y-74064440D01*
X103671660Y-74064439D01*
X103671655Y-74064438D01*
X103398684Y-74028501D01*
X103398679Y-74028500D01*
X103398674Y-74028500D01*
X103123326Y-74028500D01*
X103123320Y-74028500D01*
X103123315Y-74028501D01*
X102850344Y-74064438D01*
X102850337Y-74064439D01*
X102850334Y-74064440D01*
X102794125Y-74079500D01*
X102584369Y-74135704D01*
X102329982Y-74241075D01*
X102329971Y-74241080D01*
X102091516Y-74378754D01*
X101873073Y-74546370D01*
X101873066Y-74546376D01*
X101678376Y-74741066D01*
X101678370Y-74741073D01*
X101510754Y-74959516D01*
X101373080Y-75197971D01*
X101373075Y-75197982D01*
X101267704Y-75452369D01*
X101196441Y-75718331D01*
X101196438Y-75718344D01*
X101160501Y-75991315D01*
X101160500Y-75991332D01*
X100767448Y-75991332D01*
X100767448Y-73085530D01*
X116910500Y-73085530D01*
X116910500Y-73292469D01*
X116950868Y-73495412D01*
X116950870Y-73495420D01*
X117030059Y-73686598D01*
X117035658Y-73694977D01*
X117145024Y-73858657D01*
X117291342Y-74004975D01*
X117291345Y-74004977D01*
X117463402Y-74119941D01*
X117654580Y-74199130D01*
X117857530Y-74239499D01*
X117857534Y-74239500D01*
X117857535Y-74239500D01*
X118064466Y-74239500D01*
X118064467Y-74239499D01*
X118267420Y-74199130D01*
X118458598Y-74119941D01*
X118630655Y-74004977D01*
X118776977Y-73858655D01*
X118891941Y-73686598D01*
X118971130Y-73495420D01*
X119011500Y-73292465D01*
X119011500Y-73085535D01*
X118971130Y-72882580D01*
X118971128Y-72882575D01*
X118943923Y-72816895D01*
X118926789Y-72775530D01*
X122710500Y-72775530D01*
X122710500Y-72982469D01*
X122750868Y-73185412D01*
X122750870Y-73185420D01*
X122830058Y-73376596D01*
X122945024Y-73548657D01*
X123091342Y-73694975D01*
X123091345Y-73694977D01*
X123263402Y-73809941D01*
X123454580Y-73889130D01*
X123657530Y-73929499D01*
X123657534Y-73929500D01*
X123657535Y-73929500D01*
X123864466Y-73929500D01*
X123864467Y-73929499D01*
X124067420Y-73889130D01*
X124258598Y-73809941D01*
X124430655Y-73694977D01*
X124576977Y-73548655D01*
X124691941Y-73376598D01*
X124771130Y-73185420D01*
X124811500Y-72982465D01*
X124811500Y-72775535D01*
X124811499Y-72775530D01*
X127710500Y-72775530D01*
X127710500Y-72982469D01*
X127750868Y-73185412D01*
X127750870Y-73185420D01*
X127830058Y-73376596D01*
X127945024Y-73548657D01*
X128091342Y-73694975D01*
X128091345Y-73694977D01*
X128263402Y-73809941D01*
X128454580Y-73889130D01*
X128657530Y-73929499D01*
X128657534Y-73929500D01*
X128657535Y-73929500D01*
X128864466Y-73929500D01*
X128864467Y-73929499D01*
X129067420Y-73889130D01*
X129258598Y-73809941D01*
X129430655Y-73694977D01*
X129576977Y-73548655D01*
X129691941Y-73376598D01*
X129771130Y-73185420D01*
X129811500Y-72982465D01*
X129811500Y-72775535D01*
X129771130Y-72572580D01*
X129691941Y-72381402D01*
X129576977Y-72209345D01*
X129576975Y-72209342D01*
X129430657Y-72063024D01*
X129393876Y-72038448D01*
X134610500Y-72038448D01*
X134610500Y-72219551D01*
X134638829Y-72398410D01*
X134694787Y-72570636D01*
X134694788Y-72570639D01*
X134777006Y-72731997D01*
X134883441Y-72878494D01*
X134883445Y-72878499D01*
X135011500Y-73006554D01*
X135011505Y-73006558D01*
X135120209Y-73085535D01*
X135158006Y-73112996D01*
X135263484Y-73166740D01*
X135319360Y-73195211D01*
X135319363Y-73195212D01*
X135405476Y-73223191D01*
X135491591Y-73251171D01*
X135574429Y-73264291D01*
X135670449Y-73279500D01*
X135670454Y-73279500D01*
X135851551Y-73279500D01*
X135938259Y-73265765D01*
X136030409Y-73251171D01*
X136202639Y-73195211D01*
X136363994Y-73112996D01*
X136401798Y-73085530D01*
X161910500Y-73085530D01*
X161910500Y-73292469D01*
X161950868Y-73495412D01*
X161950870Y-73495420D01*
X162030059Y-73686598D01*
X162035658Y-73694977D01*
X162145024Y-73858657D01*
X162291342Y-74004975D01*
X162291345Y-74004977D01*
X162463402Y-74119941D01*
X162654580Y-74199130D01*
X162857530Y-74239499D01*
X162857534Y-74239500D01*
X162857535Y-74239500D01*
X163064466Y-74239500D01*
X163064467Y-74239499D01*
X163267420Y-74199130D01*
X163458598Y-74119941D01*
X163630655Y-74004977D01*
X163776977Y-73858655D01*
X163891941Y-73686598D01*
X163971130Y-73495420D01*
X164011500Y-73292465D01*
X164011500Y-73085535D01*
X163971130Y-72882580D01*
X163971128Y-72882575D01*
X163943923Y-72816895D01*
X163926789Y-72775530D01*
X167710500Y-72775530D01*
X167710500Y-72982469D01*
X167750868Y-73185412D01*
X167750870Y-73185420D01*
X167830058Y-73376596D01*
X167945024Y-73548657D01*
X168091342Y-73694975D01*
X168091345Y-73694977D01*
X168263402Y-73809941D01*
X168454580Y-73889130D01*
X168657530Y-73929499D01*
X168657534Y-73929500D01*
X168657535Y-73929500D01*
X168864466Y-73929500D01*
X168864467Y-73929499D01*
X169067420Y-73889130D01*
X169258598Y-73809941D01*
X169430655Y-73694977D01*
X169576977Y-73548655D01*
X169691941Y-73376598D01*
X169771130Y-73185420D01*
X169811500Y-72982465D01*
X169811500Y-72775535D01*
X169811499Y-72775530D01*
X172710500Y-72775530D01*
X172710500Y-72982469D01*
X172750868Y-73185412D01*
X172750870Y-73185420D01*
X172830058Y-73376596D01*
X172945024Y-73548657D01*
X173091342Y-73694975D01*
X173091345Y-73694977D01*
X173263402Y-73809941D01*
X173454580Y-73889130D01*
X173657530Y-73929499D01*
X173657534Y-73929500D01*
X173657535Y-73929500D01*
X173864466Y-73929500D01*
X173864467Y-73929499D01*
X174067420Y-73889130D01*
X174258598Y-73809941D01*
X174430655Y-73694977D01*
X174576977Y-73548655D01*
X174691941Y-73376598D01*
X174771130Y-73185420D01*
X174811500Y-72982465D01*
X174811500Y-72775535D01*
X174771130Y-72572580D01*
X174691941Y-72381402D01*
X174576977Y-72209345D01*
X174576975Y-72209342D01*
X174430657Y-72063024D01*
X174393876Y-72038448D01*
X179610500Y-72038448D01*
X179610500Y-72219551D01*
X179638829Y-72398410D01*
X179694787Y-72570636D01*
X179694788Y-72570639D01*
X179777006Y-72731997D01*
X179883441Y-72878494D01*
X179883445Y-72878499D01*
X180011500Y-73006554D01*
X180011505Y-73006558D01*
X180120209Y-73085535D01*
X180158006Y-73112996D01*
X180263484Y-73166740D01*
X180319360Y-73195211D01*
X180319363Y-73195212D01*
X180405476Y-73223191D01*
X180491591Y-73251171D01*
X180574429Y-73264291D01*
X180670449Y-73279500D01*
X180670454Y-73279500D01*
X180851551Y-73279500D01*
X180938259Y-73265765D01*
X181030409Y-73251171D01*
X181202639Y-73195211D01*
X181363994Y-73112996D01*
X181510501Y-73006553D01*
X181638553Y-72878501D01*
X181744996Y-72731994D01*
X181827211Y-72570639D01*
X181883171Y-72398409D01*
X181897765Y-72306259D01*
X181911500Y-72219551D01*
X181911500Y-72038448D01*
X181895019Y-71934397D01*
X181883171Y-71859591D01*
X181827211Y-71687361D01*
X181827211Y-71687360D01*
X181798740Y-71631484D01*
X181744996Y-71526006D01*
X181731396Y-71507287D01*
X181638558Y-71379505D01*
X181638554Y-71379500D01*
X181510499Y-71251445D01*
X181510494Y-71251441D01*
X181363997Y-71145006D01*
X181363996Y-71145005D01*
X181363994Y-71145004D01*
X181312300Y-71118664D01*
X181202639Y-71062788D01*
X181202636Y-71062787D01*
X181030410Y-71006829D01*
X180851551Y-70978500D01*
X180851546Y-70978500D01*
X180670454Y-70978500D01*
X180670449Y-70978500D01*
X180491589Y-71006829D01*
X180319363Y-71062787D01*
X180319360Y-71062788D01*
X180158002Y-71145006D01*
X180011505Y-71251441D01*
X180011500Y-71251445D01*
X179883445Y-71379500D01*
X179883441Y-71379505D01*
X179777006Y-71526002D01*
X179694788Y-71687360D01*
X179694787Y-71687363D01*
X179638829Y-71859589D01*
X179610500Y-72038448D01*
X174393876Y-72038448D01*
X174344626Y-72005541D01*
X174258598Y-71948059D01*
X174067420Y-71868870D01*
X174067412Y-71868868D01*
X173864469Y-71828500D01*
X173864465Y-71828500D01*
X173657535Y-71828500D01*
X173657530Y-71828500D01*
X173454587Y-71868868D01*
X173454579Y-71868870D01*
X173263403Y-71948058D01*
X173091342Y-72063024D01*
X172945024Y-72209342D01*
X172830058Y-72381403D01*
X172750870Y-72572579D01*
X172750868Y-72572587D01*
X172710500Y-72775530D01*
X169811499Y-72775530D01*
X169771130Y-72572580D01*
X169691941Y-72381402D01*
X169576977Y-72209345D01*
X169576975Y-72209342D01*
X169430657Y-72063024D01*
X169344626Y-72005541D01*
X169258598Y-71948059D01*
X169067420Y-71868870D01*
X169067412Y-71868868D01*
X168864469Y-71828500D01*
X168864465Y-71828500D01*
X168657535Y-71828500D01*
X168657530Y-71828500D01*
X168454587Y-71868868D01*
X168454579Y-71868870D01*
X168263403Y-71948058D01*
X168091342Y-72063024D01*
X167945024Y-72209342D01*
X167830058Y-72381403D01*
X167750870Y-72572579D01*
X167750868Y-72572587D01*
X167710500Y-72775530D01*
X163926789Y-72775530D01*
X163891942Y-72691404D01*
X163812546Y-72572579D01*
X163776977Y-72519345D01*
X163776975Y-72519342D01*
X163630657Y-72373024D01*
X163544626Y-72315541D01*
X163458598Y-72258059D01*
X163340985Y-72209342D01*
X163267420Y-72178870D01*
X163267412Y-72178868D01*
X163064469Y-72138500D01*
X163064465Y-72138500D01*
X162857535Y-72138500D01*
X162857530Y-72138500D01*
X162654587Y-72178868D01*
X162654579Y-72178870D01*
X162463403Y-72258058D01*
X162291342Y-72373024D01*
X162145024Y-72519342D01*
X162030058Y-72691403D01*
X161950870Y-72882579D01*
X161950868Y-72882587D01*
X161910500Y-73085530D01*
X136401798Y-73085530D01*
X136510501Y-73006553D01*
X136638553Y-72878501D01*
X136744996Y-72731994D01*
X136827211Y-72570639D01*
X136883171Y-72398409D01*
X136897765Y-72306259D01*
X136911500Y-72219551D01*
X136911500Y-72038448D01*
X136895019Y-71934397D01*
X136883171Y-71859591D01*
X136827211Y-71687361D01*
X136827211Y-71687360D01*
X136798740Y-71631484D01*
X136744996Y-71526006D01*
X136731396Y-71507287D01*
X136638558Y-71379505D01*
X136638554Y-71379500D01*
X136510499Y-71251445D01*
X136510494Y-71251441D01*
X136363997Y-71145006D01*
X136363996Y-71145005D01*
X136363994Y-71145004D01*
X136312300Y-71118664D01*
X136202639Y-71062788D01*
X136202636Y-71062787D01*
X136030410Y-71006829D01*
X135851551Y-70978500D01*
X135851546Y-70978500D01*
X135670454Y-70978500D01*
X135670449Y-70978500D01*
X135491589Y-71006829D01*
X135319363Y-71062787D01*
X135319360Y-71062788D01*
X135158002Y-71145006D01*
X135011505Y-71251441D01*
X135011500Y-71251445D01*
X134883445Y-71379500D01*
X134883441Y-71379505D01*
X134777006Y-71526002D01*
X134694788Y-71687360D01*
X134694787Y-71687363D01*
X134638829Y-71859589D01*
X134610500Y-72038448D01*
X129393876Y-72038448D01*
X129344626Y-72005541D01*
X129258598Y-71948059D01*
X129067420Y-71868870D01*
X129067412Y-71868868D01*
X128864469Y-71828500D01*
X128864465Y-71828500D01*
X128657535Y-71828500D01*
X128657530Y-71828500D01*
X128454587Y-71868868D01*
X128454579Y-71868870D01*
X128263403Y-71948058D01*
X128091342Y-72063024D01*
X127945024Y-72209342D01*
X127830058Y-72381403D01*
X127750870Y-72572579D01*
X127750868Y-72572587D01*
X127710500Y-72775530D01*
X124811499Y-72775530D01*
X124771130Y-72572580D01*
X124691941Y-72381402D01*
X124576977Y-72209345D01*
X124576975Y-72209342D01*
X124430657Y-72063024D01*
X124344626Y-72005541D01*
X124258598Y-71948059D01*
X124067420Y-71868870D01*
X124067412Y-71868868D01*
X123864469Y-71828500D01*
X123864465Y-71828500D01*
X123657535Y-71828500D01*
X123657530Y-71828500D01*
X123454587Y-71868868D01*
X123454579Y-71868870D01*
X123263403Y-71948058D01*
X123091342Y-72063024D01*
X122945024Y-72209342D01*
X122830058Y-72381403D01*
X122750870Y-72572579D01*
X122750868Y-72572587D01*
X122710500Y-72775530D01*
X118926789Y-72775530D01*
X118891942Y-72691404D01*
X118812546Y-72572579D01*
X118776977Y-72519345D01*
X118776975Y-72519342D01*
X118630657Y-72373024D01*
X118544626Y-72315541D01*
X118458598Y-72258059D01*
X118340985Y-72209342D01*
X118267420Y-72178870D01*
X118267412Y-72178868D01*
X118064469Y-72138500D01*
X118064465Y-72138500D01*
X117857535Y-72138500D01*
X117857530Y-72138500D01*
X117654587Y-72178868D01*
X117654579Y-72178870D01*
X117463403Y-72258058D01*
X117291342Y-72373024D01*
X117145024Y-72519342D01*
X117030058Y-72691403D01*
X116950870Y-72882579D01*
X116950868Y-72882587D01*
X116910500Y-73085530D01*
X100767448Y-73085530D01*
X100767448Y-67931135D01*
X105710500Y-67931135D01*
X105710500Y-69126870D01*
X105710501Y-69126876D01*
X105716908Y-69186483D01*
X105767202Y-69321328D01*
X105767206Y-69321335D01*
X105853452Y-69436544D01*
X105853455Y-69436547D01*
X105968664Y-69522793D01*
X105968671Y-69522797D01*
X106103517Y-69573091D01*
X106103516Y-69573091D01*
X106110444Y-69573835D01*
X106163127Y-69579500D01*
X107358872Y-69579499D01*
X107418483Y-69573091D01*
X107553331Y-69522796D01*
X107668546Y-69436546D01*
X107754796Y-69321331D01*
X107805091Y-69186483D01*
X107811500Y-69126873D01*
X107811499Y-67931135D01*
X150710500Y-67931135D01*
X150710500Y-69126870D01*
X150710501Y-69126876D01*
X150716908Y-69186483D01*
X150767202Y-69321328D01*
X150767206Y-69321335D01*
X150853452Y-69436544D01*
X150853455Y-69436547D01*
X150968664Y-69522793D01*
X150968671Y-69522797D01*
X151103517Y-69573091D01*
X151103516Y-69573091D01*
X151110444Y-69573835D01*
X151163127Y-69579500D01*
X152358872Y-69579499D01*
X152418483Y-69573091D01*
X152553331Y-69522796D01*
X152668546Y-69436546D01*
X152754796Y-69321331D01*
X152805091Y-69186483D01*
X152811500Y-69126873D01*
X152811499Y-67931128D01*
X152805091Y-67871517D01*
X152754796Y-67736669D01*
X152754795Y-67736668D01*
X152754793Y-67736664D01*
X152668547Y-67621455D01*
X152668544Y-67621452D01*
X152553335Y-67535206D01*
X152553328Y-67535202D01*
X152418482Y-67484908D01*
X152418483Y-67484908D01*
X152358883Y-67478501D01*
X152358881Y-67478500D01*
X152358873Y-67478500D01*
X152358864Y-67478500D01*
X151163129Y-67478500D01*
X151163123Y-67478501D01*
X151103516Y-67484908D01*
X150968671Y-67535202D01*
X150968664Y-67535206D01*
X150853455Y-67621452D01*
X150853452Y-67621455D01*
X150767206Y-67736664D01*
X150767202Y-67736671D01*
X150716908Y-67871517D01*
X150710501Y-67931116D01*
X150710501Y-67931123D01*
X150710500Y-67931135D01*
X107811499Y-67931135D01*
X107811499Y-67931128D01*
X107805091Y-67871517D01*
X107754796Y-67736669D01*
X107754795Y-67736668D01*
X107754793Y-67736664D01*
X107668547Y-67621455D01*
X107668544Y-67621452D01*
X107553335Y-67535206D01*
X107553328Y-67535202D01*
X107418482Y-67484908D01*
X107418483Y-67484908D01*
X107358883Y-67478501D01*
X107358881Y-67478500D01*
X107358873Y-67478500D01*
X107358864Y-67478500D01*
X106163129Y-67478500D01*
X106163123Y-67478501D01*
X106103516Y-67484908D01*
X105968671Y-67535202D01*
X105968664Y-67535206D01*
X105853455Y-67621452D01*
X105853452Y-67621455D01*
X105767206Y-67736664D01*
X105767202Y-67736671D01*
X105716908Y-67871517D01*
X105710501Y-67931116D01*
X105710501Y-67931123D01*
X105710500Y-67931135D01*
X100767448Y-67931135D01*
X100767448Y-66585530D01*
X111910500Y-66585530D01*
X111910500Y-66792469D01*
X111950868Y-66995412D01*
X111950870Y-66995420D01*
X112030058Y-67186596D01*
X112145024Y-67358657D01*
X112291342Y-67504975D01*
X112291345Y-67504977D01*
X112463402Y-67619941D01*
X112654580Y-67699130D01*
X112843303Y-67736669D01*
X112857530Y-67739499D01*
X112857534Y-67739500D01*
X112857535Y-67739500D01*
X113064466Y-67739500D01*
X113064467Y-67739499D01*
X113267420Y-67699130D01*
X113458598Y-67619941D01*
X113630655Y-67504977D01*
X113776977Y-67358655D01*
X113891941Y-67186598D01*
X113971130Y-66995420D01*
X114011500Y-66792465D01*
X114011500Y-66585535D01*
X113971130Y-66382580D01*
X113891941Y-66191402D01*
X113776977Y-66019345D01*
X113776975Y-66019342D01*
X113630657Y-65873024D01*
X113529467Y-65805412D01*
X113458598Y-65758059D01*
X113396811Y-65732466D01*
X113267420Y-65678870D01*
X113267412Y-65678868D01*
X113064469Y-65638500D01*
X113064465Y-65638500D01*
X112857535Y-65638500D01*
X112857530Y-65638500D01*
X112654587Y-65678868D01*
X112654579Y-65678870D01*
X112463403Y-65758058D01*
X112291342Y-65873024D01*
X112145024Y-66019342D01*
X112030058Y-66191403D01*
X111950870Y-66382579D01*
X111950868Y-66382587D01*
X111910500Y-66585530D01*
X100767448Y-66585530D01*
X100767448Y-65465530D01*
X116910500Y-65465530D01*
X116910500Y-65672469D01*
X116950868Y-65875412D01*
X116950870Y-65875420D01*
X117025630Y-66055907D01*
X117030059Y-66066598D01*
X117087541Y-66152626D01*
X117145024Y-66238657D01*
X117291342Y-66384975D01*
X117291345Y-66384977D01*
X117463402Y-66499941D01*
X117654580Y-66579130D01*
X117857530Y-66619499D01*
X117857534Y-66619500D01*
X117857535Y-66619500D01*
X118064466Y-66619500D01*
X118064467Y-66619499D01*
X118267420Y-66579130D01*
X118458598Y-66499941D01*
X118630655Y-66384977D01*
X118776977Y-66238655D01*
X118891941Y-66066598D01*
X118971130Y-65875420D01*
X119011500Y-65672465D01*
X119011500Y-65465535D01*
X119011417Y-65465120D01*
X119001177Y-65413634D01*
X118997576Y-65395530D01*
X121000500Y-65395530D01*
X121000500Y-65602469D01*
X121026359Y-65732469D01*
X121040870Y-65805420D01*
X121120059Y-65996598D01*
X121128717Y-66009556D01*
X121235024Y-66168657D01*
X121381342Y-66314975D01*
X121381345Y-66314977D01*
X121553402Y-66429941D01*
X121744580Y-66509130D01*
X121947530Y-66549499D01*
X121947534Y-66549500D01*
X121947535Y-66549500D01*
X122954466Y-66549500D01*
X122954467Y-66549499D01*
X123157420Y-66509130D01*
X123348598Y-66429941D01*
X123520655Y-66314977D01*
X123666977Y-66168655D01*
X123781941Y-65996598D01*
X123861130Y-65805420D01*
X123901500Y-65602465D01*
X123901500Y-65525530D01*
X132900500Y-65525530D01*
X132900500Y-65732469D01*
X132928935Y-65875420D01*
X132940870Y-65935420D01*
X133020059Y-66126598D01*
X133048162Y-66168657D01*
X133135024Y-66298657D01*
X133281342Y-66444975D01*
X133281345Y-66444977D01*
X133453402Y-66559941D01*
X133644580Y-66639130D01*
X133847530Y-66679499D01*
X133847534Y-66679500D01*
X133847535Y-66679500D01*
X134054466Y-66679500D01*
X134054467Y-66679499D01*
X134257420Y-66639130D01*
X134448598Y-66559941D01*
X134620655Y-66444977D01*
X134766977Y-66298655D01*
X134881941Y-66126598D01*
X134961130Y-65935420D01*
X135001500Y-65732465D01*
X135001500Y-65525535D01*
X135001499Y-65525530D01*
X140520500Y-65525530D01*
X140520500Y-65732469D01*
X140548935Y-65875420D01*
X140560870Y-65935420D01*
X140640059Y-66126598D01*
X140668162Y-66168657D01*
X140755024Y-66298657D01*
X140901342Y-66444975D01*
X140901345Y-66444977D01*
X141073402Y-66559941D01*
X141264580Y-66639130D01*
X141467530Y-66679499D01*
X141467534Y-66679500D01*
X141467535Y-66679500D01*
X141674466Y-66679500D01*
X141674467Y-66679499D01*
X141877420Y-66639130D01*
X142006821Y-66585530D01*
X156910500Y-66585530D01*
X156910500Y-66792469D01*
X156950868Y-66995412D01*
X156950870Y-66995420D01*
X157030058Y-67186596D01*
X157145024Y-67358657D01*
X157291342Y-67504975D01*
X157291345Y-67504977D01*
X157463402Y-67619941D01*
X157654580Y-67699130D01*
X157843303Y-67736669D01*
X157857530Y-67739499D01*
X157857534Y-67739500D01*
X157857535Y-67739500D01*
X158064466Y-67739500D01*
X158064467Y-67739499D01*
X158267420Y-67699130D01*
X158458598Y-67619941D01*
X158630655Y-67504977D01*
X158776977Y-67358655D01*
X158891941Y-67186598D01*
X158971130Y-66995420D01*
X159011500Y-66792465D01*
X159011500Y-66585535D01*
X158971130Y-66382580D01*
X158891941Y-66191402D01*
X158776977Y-66019345D01*
X158776975Y-66019342D01*
X158630657Y-65873024D01*
X158529467Y-65805412D01*
X158458598Y-65758059D01*
X158396811Y-65732466D01*
X158267420Y-65678870D01*
X158267412Y-65678868D01*
X158064469Y-65638500D01*
X158064465Y-65638500D01*
X157857535Y-65638500D01*
X157857530Y-65638500D01*
X157654587Y-65678868D01*
X157654579Y-65678870D01*
X157463403Y-65758058D01*
X157291342Y-65873024D01*
X157145024Y-66019342D01*
X157030058Y-66191403D01*
X156950870Y-66382579D01*
X156950868Y-66382587D01*
X156910500Y-66585530D01*
X142006821Y-66585530D01*
X142068598Y-66559941D01*
X142240655Y-66444977D01*
X142386977Y-66298655D01*
X142501941Y-66126598D01*
X142581130Y-65935420D01*
X142621500Y-65732465D01*
X142621500Y-65525535D01*
X142621420Y-65525136D01*
X142613166Y-65483634D01*
X142609565Y-65465530D01*
X161910500Y-65465530D01*
X161910500Y-65672469D01*
X161950868Y-65875412D01*
X161950870Y-65875420D01*
X162025630Y-66055907D01*
X162030059Y-66066598D01*
X162087541Y-66152626D01*
X162145024Y-66238657D01*
X162291342Y-66384975D01*
X162291345Y-66384977D01*
X162463402Y-66499941D01*
X162654580Y-66579130D01*
X162857530Y-66619499D01*
X162857534Y-66619500D01*
X162857535Y-66619500D01*
X163064466Y-66619500D01*
X163064467Y-66619499D01*
X163267420Y-66579130D01*
X163458598Y-66499941D01*
X163630655Y-66384977D01*
X163776977Y-66238655D01*
X163891941Y-66066598D01*
X163971130Y-65875420D01*
X164011500Y-65672465D01*
X164011500Y-65465535D01*
X164011417Y-65465120D01*
X164001177Y-65413634D01*
X163997576Y-65395530D01*
X166000500Y-65395530D01*
X166000500Y-65602469D01*
X166026359Y-65732469D01*
X166040870Y-65805420D01*
X166120059Y-65996598D01*
X166128717Y-66009556D01*
X166235024Y-66168657D01*
X166381342Y-66314975D01*
X166381345Y-66314977D01*
X166553402Y-66429941D01*
X166744580Y-66509130D01*
X166947530Y-66549499D01*
X166947534Y-66549500D01*
X166947535Y-66549500D01*
X167954466Y-66549500D01*
X167954467Y-66549499D01*
X168157420Y-66509130D01*
X168348598Y-66429941D01*
X168520655Y-66314977D01*
X168666977Y-66168655D01*
X168781941Y-65996598D01*
X168861130Y-65805420D01*
X168901500Y-65602465D01*
X168901500Y-65525530D01*
X177900500Y-65525530D01*
X177900500Y-65732469D01*
X177928935Y-65875420D01*
X177940870Y-65935420D01*
X178020059Y-66126598D01*
X178048162Y-66168657D01*
X178135024Y-66298657D01*
X178281342Y-66444975D01*
X178281345Y-66444977D01*
X178453402Y-66559941D01*
X178644580Y-66639130D01*
X178847530Y-66679499D01*
X178847534Y-66679500D01*
X178847535Y-66679500D01*
X179054466Y-66679500D01*
X179054467Y-66679499D01*
X179257420Y-66639130D01*
X179448598Y-66559941D01*
X179620655Y-66444977D01*
X179766977Y-66298655D01*
X179881941Y-66126598D01*
X179961130Y-65935420D01*
X180001500Y-65732465D01*
X180001500Y-65525535D01*
X179961130Y-65322580D01*
X179881941Y-65131402D01*
X179766977Y-64959345D01*
X179766975Y-64959342D01*
X179620657Y-64813024D01*
X179534626Y-64755541D01*
X179448598Y-64698059D01*
X179257420Y-64618870D01*
X179257412Y-64618868D01*
X179054469Y-64578500D01*
X179054465Y-64578500D01*
X178847535Y-64578500D01*
X178847530Y-64578500D01*
X178644587Y-64618868D01*
X178644579Y-64618870D01*
X178453403Y-64698058D01*
X178281342Y-64813024D01*
X178135024Y-64959342D01*
X178020058Y-65131403D01*
X177940870Y-65322579D01*
X177940868Y-65322587D01*
X177900500Y-65525530D01*
X168901500Y-65525530D01*
X168901500Y-65395535D01*
X168861130Y-65192580D01*
X168781941Y-65001402D01*
X168666977Y-64829345D01*
X168666975Y-64829342D01*
X168520657Y-64683024D01*
X168364224Y-64578500D01*
X168348598Y-64568059D01*
X168157420Y-64488870D01*
X168157412Y-64488868D01*
X167954469Y-64448500D01*
X167954465Y-64448500D01*
X166947535Y-64448500D01*
X166947530Y-64448500D01*
X166744587Y-64488868D01*
X166744579Y-64488870D01*
X166553403Y-64568058D01*
X166381342Y-64683024D01*
X166235024Y-64829342D01*
X166120058Y-65001403D01*
X166040870Y-65192579D01*
X166040868Y-65192587D01*
X166000500Y-65395530D01*
X163997576Y-65395530D01*
X163982079Y-65317627D01*
X163971130Y-65262580D01*
X163891941Y-65071402D01*
X163776977Y-64899345D01*
X163776975Y-64899342D01*
X163630657Y-64753024D01*
X163525892Y-64683023D01*
X163458598Y-64638059D01*
X163267420Y-64558870D01*
X163267412Y-64558868D01*
X163064469Y-64518500D01*
X163064465Y-64518500D01*
X162857535Y-64518500D01*
X162857530Y-64518500D01*
X162654587Y-64558868D01*
X162654579Y-64558870D01*
X162463403Y-64638058D01*
X162291342Y-64753024D01*
X162145024Y-64899342D01*
X162030058Y-65071403D01*
X161950870Y-65262579D01*
X161950868Y-65262587D01*
X161910500Y-65465530D01*
X142609565Y-65465530D01*
X142581131Y-65322587D01*
X142581130Y-65322580D01*
X142501941Y-65131402D01*
X142386977Y-64959345D01*
X142386975Y-64959342D01*
X142240657Y-64813024D01*
X142154626Y-64755541D01*
X142068598Y-64698059D01*
X141877420Y-64618870D01*
X141877412Y-64618868D01*
X141674469Y-64578500D01*
X141674465Y-64578500D01*
X141467535Y-64578500D01*
X141467530Y-64578500D01*
X141264587Y-64618868D01*
X141264579Y-64618870D01*
X141073403Y-64698058D01*
X140901342Y-64813024D01*
X140755024Y-64959342D01*
X140640058Y-65131403D01*
X140560870Y-65322579D01*
X140560868Y-65322587D01*
X140520500Y-65525530D01*
X135001499Y-65525530D01*
X134961130Y-65322580D01*
X134881941Y-65131402D01*
X134766977Y-64959345D01*
X134766975Y-64959342D01*
X134620657Y-64813024D01*
X134534626Y-64755541D01*
X134448598Y-64698059D01*
X134257420Y-64618870D01*
X134257412Y-64618868D01*
X134054469Y-64578500D01*
X134054465Y-64578500D01*
X133847535Y-64578500D01*
X133847530Y-64578500D01*
X133644587Y-64618868D01*
X133644579Y-64618870D01*
X133453403Y-64698058D01*
X133281342Y-64813024D01*
X133135024Y-64959342D01*
X133020058Y-65131403D01*
X132940870Y-65322579D01*
X132940868Y-65322587D01*
X132900500Y-65525530D01*
X123901500Y-65525530D01*
X123901500Y-65395535D01*
X123861130Y-65192580D01*
X123781941Y-65001402D01*
X123666977Y-64829345D01*
X123666975Y-64829342D01*
X123520657Y-64683024D01*
X123364224Y-64578500D01*
X123348598Y-64568059D01*
X123157420Y-64488870D01*
X123157412Y-64488868D01*
X122954469Y-64448500D01*
X122954465Y-64448500D01*
X121947535Y-64448500D01*
X121947530Y-64448500D01*
X121744587Y-64488868D01*
X121744579Y-64488870D01*
X121553403Y-64568058D01*
X121381342Y-64683024D01*
X121235024Y-64829342D01*
X121120058Y-65001403D01*
X121040870Y-65192579D01*
X121040868Y-65192587D01*
X121000500Y-65395530D01*
X118997576Y-65395530D01*
X118982079Y-65317627D01*
X118971130Y-65262580D01*
X118891941Y-65071402D01*
X118776977Y-64899345D01*
X118776975Y-64899342D01*
X118630657Y-64753024D01*
X118525892Y-64683023D01*
X118458598Y-64638059D01*
X118267420Y-64558870D01*
X118267412Y-64558868D01*
X118064469Y-64518500D01*
X118064465Y-64518500D01*
X117857535Y-64518500D01*
X117857530Y-64518500D01*
X117654587Y-64558868D01*
X117654579Y-64558870D01*
X117463403Y-64638058D01*
X117291342Y-64753024D01*
X117145024Y-64899342D01*
X117030058Y-65071403D01*
X116950870Y-65262579D01*
X116950868Y-65262587D01*
X116910500Y-65465530D01*
X100767448Y-65465530D01*
X100767448Y-62855530D01*
X121000500Y-62855530D01*
X121000500Y-63062469D01*
X121040868Y-63265412D01*
X121040870Y-63265420D01*
X121120058Y-63456596D01*
X121235024Y-63628657D01*
X121381342Y-63774975D01*
X121381345Y-63774977D01*
X121553402Y-63889941D01*
X121744580Y-63969130D01*
X121947530Y-64009499D01*
X121947534Y-64009500D01*
X121947535Y-64009500D01*
X122954466Y-64009500D01*
X122954467Y-64009499D01*
X123157420Y-63969130D01*
X123348598Y-63889941D01*
X123520655Y-63774977D01*
X123666977Y-63628655D01*
X123781941Y-63456598D01*
X123861130Y-63265420D01*
X123901500Y-63062465D01*
X123901500Y-62855535D01*
X123901499Y-62855530D01*
X166000500Y-62855530D01*
X166000500Y-63062469D01*
X166040868Y-63265412D01*
X166040870Y-63265420D01*
X166120058Y-63456596D01*
X166235024Y-63628657D01*
X166381342Y-63774975D01*
X166381345Y-63774977D01*
X166553402Y-63889941D01*
X166744580Y-63969130D01*
X166947530Y-64009499D01*
X166947534Y-64009500D01*
X166947535Y-64009500D01*
X167954466Y-64009500D01*
X167954467Y-64009499D01*
X168157420Y-63969130D01*
X168348598Y-63889941D01*
X168520655Y-63774977D01*
X168666977Y-63628655D01*
X168781941Y-63456598D01*
X168861130Y-63265420D01*
X168901500Y-63062465D01*
X168901500Y-62855535D01*
X168861130Y-62652580D01*
X168781941Y-62461402D01*
X168666977Y-62289345D01*
X168666975Y-62289342D01*
X168520657Y-62143024D01*
X168434626Y-62085541D01*
X168348598Y-62028059D01*
X168157420Y-61948870D01*
X168157412Y-61948868D01*
X167954469Y-61908500D01*
X167954465Y-61908500D01*
X166947535Y-61908500D01*
X166947530Y-61908500D01*
X166744587Y-61948868D01*
X166744579Y-61948870D01*
X166553403Y-62028058D01*
X166381342Y-62143024D01*
X166235024Y-62289342D01*
X166120058Y-62461403D01*
X166040870Y-62652579D01*
X166040868Y-62652587D01*
X166000500Y-62855530D01*
X123901499Y-62855530D01*
X123861130Y-62652580D01*
X123781941Y-62461402D01*
X123666977Y-62289345D01*
X123666975Y-62289342D01*
X123520657Y-62143024D01*
X123434626Y-62085541D01*
X123348598Y-62028059D01*
X123157420Y-61948870D01*
X123157412Y-61948868D01*
X122954469Y-61908500D01*
X122954465Y-61908500D01*
X121947535Y-61908500D01*
X121947530Y-61908500D01*
X121744587Y-61948868D01*
X121744579Y-61948870D01*
X121553403Y-62028058D01*
X121381342Y-62143024D01*
X121235024Y-62289342D01*
X121120058Y-62461403D01*
X121040870Y-62652579D01*
X121040868Y-62652587D01*
X121000500Y-62855530D01*
X100767448Y-62855530D01*
X100767448Y-60315530D01*
X121000500Y-60315530D01*
X121000500Y-60522469D01*
X121040868Y-60725412D01*
X121040870Y-60725420D01*
X121120058Y-60916596D01*
X121235024Y-61088657D01*
X121381342Y-61234975D01*
X121381345Y-61234977D01*
X121553402Y-61349941D01*
X121744580Y-61429130D01*
X121947530Y-61469499D01*
X121947534Y-61469500D01*
X121947535Y-61469500D01*
X122954466Y-61469500D01*
X122954467Y-61469499D01*
X123157420Y-61429130D01*
X123348598Y-61349941D01*
X123520655Y-61234977D01*
X123666977Y-61088655D01*
X123781941Y-60916598D01*
X123861130Y-60725420D01*
X123901500Y-60522465D01*
X123901500Y-60315535D01*
X123901499Y-60315530D01*
X166000500Y-60315530D01*
X166000500Y-60522469D01*
X166040868Y-60725412D01*
X166040870Y-60725420D01*
X166120058Y-60916596D01*
X166235024Y-61088657D01*
X166381342Y-61234975D01*
X166381345Y-61234977D01*
X166553402Y-61349941D01*
X166744580Y-61429130D01*
X166947530Y-61469499D01*
X166947534Y-61469500D01*
X166947535Y-61469500D01*
X167954466Y-61469500D01*
X167954467Y-61469499D01*
X168157420Y-61429130D01*
X168348598Y-61349941D01*
X168520655Y-61234977D01*
X168666977Y-61088655D01*
X168781941Y-60916598D01*
X168861130Y-60725420D01*
X168901500Y-60522465D01*
X168901500Y-60315535D01*
X168861130Y-60112580D01*
X168781941Y-59921402D01*
X168666977Y-59749345D01*
X168666975Y-59749342D01*
X168520657Y-59603024D01*
X168434626Y-59545541D01*
X168348598Y-59488059D01*
X168157420Y-59408870D01*
X168157412Y-59408868D01*
X167954469Y-59368500D01*
X167954465Y-59368500D01*
X166947535Y-59368500D01*
X166947530Y-59368500D01*
X166744587Y-59408868D01*
X166744579Y-59408870D01*
X166553403Y-59488058D01*
X166381342Y-59603024D01*
X166235024Y-59749342D01*
X166120058Y-59921403D01*
X166040870Y-60112579D01*
X166040868Y-60112587D01*
X166000500Y-60315530D01*
X123901499Y-60315530D01*
X123861130Y-60112580D01*
X123781941Y-59921402D01*
X123666977Y-59749345D01*
X123666975Y-59749342D01*
X123520657Y-59603024D01*
X123434626Y-59545541D01*
X123348598Y-59488059D01*
X123157420Y-59408870D01*
X123157412Y-59408868D01*
X122954469Y-59368500D01*
X122954465Y-59368500D01*
X121947535Y-59368500D01*
X121947530Y-59368500D01*
X121744587Y-59408868D01*
X121744579Y-59408870D01*
X121553403Y-59488058D01*
X121381342Y-59603024D01*
X121235024Y-59749342D01*
X121120058Y-59921403D01*
X121040870Y-60112579D01*
X121040868Y-60112587D01*
X121000500Y-60315530D01*
X100767448Y-60315530D01*
X100767448Y-58531135D01*
X113710500Y-58531135D01*
X113710500Y-59726870D01*
X113710501Y-59726876D01*
X113716908Y-59786483D01*
X113767202Y-59921328D01*
X113767206Y-59921335D01*
X113853452Y-60036544D01*
X113853455Y-60036547D01*
X113968664Y-60122793D01*
X113968671Y-60122797D01*
X114103517Y-60173091D01*
X114103516Y-60173091D01*
X114110444Y-60173835D01*
X114163127Y-60179500D01*
X115358872Y-60179499D01*
X115418483Y-60173091D01*
X115553331Y-60122796D01*
X115668546Y-60036546D01*
X115754796Y-59921331D01*
X115805091Y-59786483D01*
X115811500Y-59726873D01*
X115811499Y-58531128D01*
X115805091Y-58471517D01*
X115794696Y-58443647D01*
X115754797Y-58336671D01*
X115754793Y-58336664D01*
X115668547Y-58221455D01*
X115668544Y-58221452D01*
X115553335Y-58135206D01*
X115553328Y-58135202D01*
X115418482Y-58084908D01*
X115418483Y-58084908D01*
X115358883Y-58078501D01*
X115358881Y-58078500D01*
X115358873Y-58078500D01*
X115358864Y-58078500D01*
X114163129Y-58078500D01*
X114163123Y-58078501D01*
X114103516Y-58084908D01*
X113968671Y-58135202D01*
X113968664Y-58135206D01*
X113853455Y-58221452D01*
X113853452Y-58221455D01*
X113767206Y-58336664D01*
X113767202Y-58336671D01*
X113716908Y-58471517D01*
X113710501Y-58531116D01*
X113710501Y-58531123D01*
X113710500Y-58531135D01*
X100767448Y-58531135D01*
X100767448Y-57281135D01*
X121000500Y-57281135D01*
X121000500Y-58476870D01*
X121000501Y-58476876D01*
X121006908Y-58536483D01*
X121057202Y-58671328D01*
X121057206Y-58671335D01*
X121143452Y-58786544D01*
X121143455Y-58786547D01*
X121258664Y-58872793D01*
X121258671Y-58872797D01*
X121393517Y-58923091D01*
X121393516Y-58923091D01*
X121400444Y-58923835D01*
X121453127Y-58929500D01*
X123448872Y-58929499D01*
X123508483Y-58923091D01*
X123643331Y-58872796D01*
X123758546Y-58786546D01*
X123844796Y-58671331D01*
X123895091Y-58536483D01*
X123901500Y-58476873D01*
X123901499Y-57281128D01*
X123895091Y-57221517D01*
X123844796Y-57086669D01*
X123844795Y-57086668D01*
X123844793Y-57086664D01*
X123793123Y-57017643D01*
X123758546Y-56971454D01*
X123643331Y-56885204D01*
X123643328Y-56885202D01*
X123508482Y-56834908D01*
X123508483Y-56834908D01*
X123473385Y-56831135D01*
X134142823Y-56831135D01*
X134142823Y-58426870D01*
X134142824Y-58426876D01*
X134149231Y-58486483D01*
X134199525Y-58621328D01*
X134199529Y-58621335D01*
X134285775Y-58736544D01*
X134285778Y-58736547D01*
X134400987Y-58822793D01*
X134400994Y-58822797D01*
X134535840Y-58873091D01*
X134535839Y-58873091D01*
X134542767Y-58873835D01*
X134595450Y-58879500D01*
X136191195Y-58879499D01*
X136250806Y-58873091D01*
X136385654Y-58822796D01*
X136500869Y-58736546D01*
X136587119Y-58621331D01*
X136637414Y-58486483D01*
X136643823Y-58426873D01*
X136643822Y-57530577D01*
X139142823Y-57530577D01*
X139142823Y-57727422D01*
X139173613Y-57921826D01*
X139234440Y-58109029D01*
X139323799Y-58284405D01*
X139439495Y-58443646D01*
X139578677Y-58582828D01*
X139737918Y-58698524D01*
X139812537Y-58736544D01*
X139913293Y-58787882D01*
X139913295Y-58787882D01*
X139913298Y-58787884D01*
X140013640Y-58820487D01*
X140100496Y-58848709D01*
X140294901Y-58879500D01*
X140294906Y-58879500D01*
X140491745Y-58879500D01*
X140686149Y-58848709D01*
X140765897Y-58822797D01*
X140873348Y-58787884D01*
X141048728Y-58698524D01*
X141207969Y-58582828D01*
X141259662Y-58531135D01*
X158710500Y-58531135D01*
X158710500Y-59726870D01*
X158710501Y-59726876D01*
X158716908Y-59786483D01*
X158767202Y-59921328D01*
X158767206Y-59921335D01*
X158853452Y-60036544D01*
X158853455Y-60036547D01*
X158968664Y-60122793D01*
X158968671Y-60122797D01*
X159103517Y-60173091D01*
X159103516Y-60173091D01*
X159110444Y-60173835D01*
X159163127Y-60179500D01*
X160358872Y-60179499D01*
X160418483Y-60173091D01*
X160553331Y-60122796D01*
X160668546Y-60036546D01*
X160754796Y-59921331D01*
X160805091Y-59786483D01*
X160811500Y-59726873D01*
X160811499Y-58531128D01*
X160805091Y-58471517D01*
X160794696Y-58443647D01*
X160754797Y-58336671D01*
X160754793Y-58336664D01*
X160668547Y-58221455D01*
X160668544Y-58221452D01*
X160553335Y-58135206D01*
X160553328Y-58135202D01*
X160418482Y-58084908D01*
X160418483Y-58084908D01*
X160358883Y-58078501D01*
X160358881Y-58078500D01*
X160358873Y-58078500D01*
X160358864Y-58078500D01*
X159163129Y-58078500D01*
X159163123Y-58078501D01*
X159103516Y-58084908D01*
X158968671Y-58135202D01*
X158968664Y-58135206D01*
X158853455Y-58221452D01*
X158853452Y-58221455D01*
X158767206Y-58336664D01*
X158767202Y-58336671D01*
X158716908Y-58471517D01*
X158710501Y-58531116D01*
X158710501Y-58531123D01*
X158710500Y-58531135D01*
X141259662Y-58531135D01*
X141347151Y-58443646D01*
X141462847Y-58284405D01*
X141552207Y-58109025D01*
X141613032Y-57921826D01*
X141643823Y-57727422D01*
X141643823Y-57530577D01*
X141625909Y-57417483D01*
X141613032Y-57336174D01*
X141613031Y-57336170D01*
X141613031Y-57336169D01*
X141606518Y-57316124D01*
X141595149Y-57281135D01*
X166000500Y-57281135D01*
X166000500Y-58476870D01*
X166000501Y-58476876D01*
X166006908Y-58536483D01*
X166057202Y-58671328D01*
X166057206Y-58671335D01*
X166143452Y-58786544D01*
X166143455Y-58786547D01*
X166258664Y-58872793D01*
X166258671Y-58872797D01*
X166393517Y-58923091D01*
X166393516Y-58923091D01*
X166400444Y-58923835D01*
X166453127Y-58929500D01*
X168448872Y-58929499D01*
X168508483Y-58923091D01*
X168643331Y-58872796D01*
X168758546Y-58786546D01*
X168844796Y-58671331D01*
X168895091Y-58536483D01*
X168901500Y-58476873D01*
X168901499Y-57281128D01*
X168895091Y-57221517D01*
X168844796Y-57086669D01*
X168844795Y-57086668D01*
X168844793Y-57086664D01*
X168793123Y-57017643D01*
X168758546Y-56971454D01*
X168643331Y-56885204D01*
X168643328Y-56885202D01*
X168508482Y-56834908D01*
X168508483Y-56834908D01*
X168473385Y-56831135D01*
X179142823Y-56831135D01*
X179142823Y-58426870D01*
X179142824Y-58426876D01*
X179149231Y-58486483D01*
X179199525Y-58621328D01*
X179199529Y-58621335D01*
X179285775Y-58736544D01*
X179285778Y-58736547D01*
X179400987Y-58822793D01*
X179400994Y-58822797D01*
X179535840Y-58873091D01*
X179535839Y-58873091D01*
X179542767Y-58873835D01*
X179595450Y-58879500D01*
X181191195Y-58879499D01*
X181250806Y-58873091D01*
X181385654Y-58822796D01*
X181500869Y-58736546D01*
X181587119Y-58621331D01*
X181637414Y-58486483D01*
X181643823Y-58426873D01*
X181643822Y-57530577D01*
X184142823Y-57530577D01*
X184142823Y-57727422D01*
X184173613Y-57921826D01*
X184234440Y-58109029D01*
X184323799Y-58284405D01*
X184439495Y-58443646D01*
X184578677Y-58582828D01*
X184737918Y-58698524D01*
X184812537Y-58736544D01*
X184913293Y-58787882D01*
X184913295Y-58787882D01*
X184913298Y-58787884D01*
X185013640Y-58820487D01*
X185100496Y-58848709D01*
X185294901Y-58879500D01*
X185294906Y-58879500D01*
X185491745Y-58879500D01*
X185686149Y-58848709D01*
X185765897Y-58822797D01*
X185873348Y-58787884D01*
X186048728Y-58698524D01*
X186207969Y-58582828D01*
X186347151Y-58443646D01*
X186462847Y-58284405D01*
X186552207Y-58109025D01*
X186613032Y-57921826D01*
X186643823Y-57727422D01*
X186643823Y-57530577D01*
X186613032Y-57336173D01*
X186552205Y-57148970D01*
X186462846Y-56973594D01*
X186461290Y-56971452D01*
X186347151Y-56814354D01*
X186207969Y-56675172D01*
X186048728Y-56559476D01*
X185873352Y-56470117D01*
X185686149Y-56409290D01*
X185491745Y-56378500D01*
X185491740Y-56378500D01*
X185294906Y-56378500D01*
X185294901Y-56378500D01*
X185100496Y-56409290D01*
X184913293Y-56470117D01*
X184737917Y-56559476D01*
X184647064Y-56625485D01*
X184578677Y-56675172D01*
X184578675Y-56675174D01*
X184578674Y-56675174D01*
X184439497Y-56814351D01*
X184439497Y-56814352D01*
X184439495Y-56814354D01*
X184427303Y-56831135D01*
X184323799Y-56973594D01*
X184234440Y-57148970D01*
X184173613Y-57336173D01*
X184142823Y-57530577D01*
X181643822Y-57530577D01*
X181643822Y-56831128D01*
X181637414Y-56771517D01*
X181601480Y-56675174D01*
X181587120Y-56636671D01*
X181587116Y-56636664D01*
X181500870Y-56521455D01*
X181500867Y-56521452D01*
X181385658Y-56435206D01*
X181385651Y-56435202D01*
X181250805Y-56384908D01*
X181250806Y-56384908D01*
X181191206Y-56378501D01*
X181191204Y-56378500D01*
X181191196Y-56378500D01*
X181191187Y-56378500D01*
X179595452Y-56378500D01*
X179595446Y-56378501D01*
X179535839Y-56384908D01*
X179400994Y-56435202D01*
X179400987Y-56435206D01*
X179285778Y-56521452D01*
X179285775Y-56521455D01*
X179199529Y-56636664D01*
X179199525Y-56636671D01*
X179149231Y-56771517D01*
X179144626Y-56814354D01*
X179142824Y-56831123D01*
X179142823Y-56831135D01*
X168473385Y-56831135D01*
X168448883Y-56828501D01*
X168448881Y-56828500D01*
X168448873Y-56828500D01*
X168448864Y-56828500D01*
X166453129Y-56828500D01*
X166453123Y-56828501D01*
X166393516Y-56834908D01*
X166258671Y-56885202D01*
X166258664Y-56885206D01*
X166143455Y-56971452D01*
X166143452Y-56971455D01*
X166057206Y-57086664D01*
X166057202Y-57086671D01*
X166006908Y-57221517D01*
X166000501Y-57281116D01*
X166000501Y-57281123D01*
X166000500Y-57281135D01*
X141595149Y-57281135D01*
X141552205Y-57148970D01*
X141462846Y-56973594D01*
X141461290Y-56971452D01*
X141347151Y-56814354D01*
X141207969Y-56675172D01*
X141048728Y-56559476D01*
X140873352Y-56470117D01*
X140686149Y-56409290D01*
X140491745Y-56378500D01*
X140491740Y-56378500D01*
X140294906Y-56378500D01*
X140294901Y-56378500D01*
X140100496Y-56409290D01*
X139913293Y-56470117D01*
X139737917Y-56559476D01*
X139647064Y-56625485D01*
X139578677Y-56675172D01*
X139578675Y-56675174D01*
X139578674Y-56675174D01*
X139439497Y-56814351D01*
X139439497Y-56814352D01*
X139439495Y-56814354D01*
X139427303Y-56831135D01*
X139323799Y-56973594D01*
X139234440Y-57148970D01*
X139173613Y-57336173D01*
X139142823Y-57530577D01*
X136643822Y-57530577D01*
X136643822Y-56831128D01*
X136637414Y-56771517D01*
X136601480Y-56675174D01*
X136587120Y-56636671D01*
X136587116Y-56636664D01*
X136500870Y-56521455D01*
X136500867Y-56521452D01*
X136385658Y-56435206D01*
X136385651Y-56435202D01*
X136250805Y-56384908D01*
X136250806Y-56384908D01*
X136191206Y-56378501D01*
X136191204Y-56378500D01*
X136191196Y-56378500D01*
X136191187Y-56378500D01*
X134595452Y-56378500D01*
X134595446Y-56378501D01*
X134535839Y-56384908D01*
X134400994Y-56435202D01*
X134400987Y-56435206D01*
X134285778Y-56521452D01*
X134285775Y-56521455D01*
X134199529Y-56636664D01*
X134199525Y-56636671D01*
X134149231Y-56771517D01*
X134144626Y-56814354D01*
X134142824Y-56831123D01*
X134142823Y-56831135D01*
X123473385Y-56831135D01*
X123448883Y-56828501D01*
X123448881Y-56828500D01*
X123448873Y-56828500D01*
X123448864Y-56828500D01*
X121453129Y-56828500D01*
X121453123Y-56828501D01*
X121393516Y-56834908D01*
X121258671Y-56885202D01*
X121258664Y-56885206D01*
X121143455Y-56971452D01*
X121143452Y-56971455D01*
X121057206Y-57086664D01*
X121057202Y-57086671D01*
X121006908Y-57221517D01*
X121000501Y-57281116D01*
X121000501Y-57281123D01*
X121000500Y-57281135D01*
X100767448Y-57281135D01*
X100767448Y-54525530D01*
X118710500Y-54525530D01*
X118710500Y-54732469D01*
X118750868Y-54935412D01*
X118750870Y-54935420D01*
X118830058Y-55126596D01*
X118945024Y-55298657D01*
X119091342Y-55444975D01*
X119091345Y-55444977D01*
X119263402Y-55559941D01*
X119454580Y-55639130D01*
X119657530Y-55679499D01*
X119657534Y-55679500D01*
X119657535Y-55679500D01*
X119864466Y-55679500D01*
X119864467Y-55679499D01*
X120067420Y-55639130D01*
X120258598Y-55559941D01*
X120430655Y-55444977D01*
X120576977Y-55298655D01*
X120691941Y-55126598D01*
X120771130Y-54935420D01*
X120811500Y-54732465D01*
X120811500Y-54525535D01*
X120811499Y-54525530D01*
X163710500Y-54525530D01*
X163710500Y-54732469D01*
X163750868Y-54935412D01*
X163750870Y-54935420D01*
X163830058Y-55126596D01*
X163945024Y-55298657D01*
X164091342Y-55444975D01*
X164091345Y-55444977D01*
X164263402Y-55559941D01*
X164454580Y-55639130D01*
X164657530Y-55679499D01*
X164657534Y-55679500D01*
X164657535Y-55679500D01*
X164864466Y-55679500D01*
X164864467Y-55679499D01*
X165067420Y-55639130D01*
X165258598Y-55559941D01*
X165430655Y-55444977D01*
X165576977Y-55298655D01*
X165691941Y-55126598D01*
X165771130Y-54935420D01*
X165811500Y-54732465D01*
X165811500Y-54525535D01*
X165771130Y-54322580D01*
X165691941Y-54131402D01*
X165576977Y-53959345D01*
X165576975Y-53959342D01*
X165430657Y-53813024D01*
X165344626Y-53755541D01*
X165258598Y-53698059D01*
X165067420Y-53618870D01*
X165067412Y-53618868D01*
X164864469Y-53578500D01*
X164864465Y-53578500D01*
X164657535Y-53578500D01*
X164657530Y-53578500D01*
X164454587Y-53618868D01*
X164454579Y-53618870D01*
X164263403Y-53698058D01*
X164091342Y-53813024D01*
X163945024Y-53959342D01*
X163830058Y-54131403D01*
X163750870Y-54322579D01*
X163750868Y-54322587D01*
X163710500Y-54525530D01*
X120811499Y-54525530D01*
X120771130Y-54322580D01*
X120691941Y-54131402D01*
X120576977Y-53959345D01*
X120576975Y-53959342D01*
X120430657Y-53813024D01*
X120344626Y-53755541D01*
X120258598Y-53698059D01*
X120067420Y-53618870D01*
X120067412Y-53618868D01*
X119864469Y-53578500D01*
X119864465Y-53578500D01*
X119657535Y-53578500D01*
X119657530Y-53578500D01*
X119454587Y-53618868D01*
X119454579Y-53618870D01*
X119263403Y-53698058D01*
X119091342Y-53813024D01*
X118945024Y-53959342D01*
X118830058Y-54131403D01*
X118750870Y-54322579D01*
X118750868Y-54322587D01*
X118710500Y-54525530D01*
X100767448Y-54525530D01*
X100767448Y-49491332D01*
X101160500Y-49491332D01*
X101160500Y-49766667D01*
X101160501Y-49766684D01*
X101196438Y-50039655D01*
X101196439Y-50039660D01*
X101196440Y-50039666D01*
X101196441Y-50039668D01*
X101267704Y-50305630D01*
X101373075Y-50560017D01*
X101373080Y-50560028D01*
X101427150Y-50653678D01*
X101510751Y-50798479D01*
X101510753Y-50798482D01*
X101510754Y-50798483D01*
X101678370Y-51016926D01*
X101678376Y-51016933D01*
X101873066Y-51211623D01*
X101873072Y-51211628D01*
X102091521Y-51379249D01*
X102244778Y-51467732D01*
X102329971Y-51516919D01*
X102329976Y-51516921D01*
X102329979Y-51516923D01*
X102584368Y-51622295D01*
X102850334Y-51693560D01*
X103123326Y-51729500D01*
X103123333Y-51729500D01*
X103398667Y-51729500D01*
X103398674Y-51729500D01*
X103671666Y-51693560D01*
X103937632Y-51622295D01*
X104192021Y-51516923D01*
X104430479Y-51379249D01*
X104648928Y-51211628D01*
X104843628Y-51016928D01*
X105011249Y-50798479D01*
X105148923Y-50560021D01*
X105254295Y-50305632D01*
X105325560Y-50039666D01*
X105361500Y-49766674D01*
X105361500Y-49491326D01*
X105325560Y-49218334D01*
X105254295Y-48952368D01*
X105148923Y-48697979D01*
X105148921Y-48697976D01*
X105148919Y-48697971D01*
X105099732Y-48612778D01*
X105011249Y-48459521D01*
X104843628Y-48241072D01*
X104843623Y-48241066D01*
X104648933Y-48046376D01*
X104648926Y-48046370D01*
X104430483Y-47878754D01*
X104430482Y-47878753D01*
X104430479Y-47878751D01*
X104335407Y-47823861D01*
X104192028Y-47741080D01*
X104192017Y-47741075D01*
X104123743Y-47712795D01*
X103937630Y-47635704D01*
X103820507Y-47604321D01*
X128310500Y-47604321D01*
X128310500Y-50653678D01*
X128325032Y-50726735D01*
X128325033Y-50726739D01*
X128325034Y-50726740D01*
X128380399Y-50809601D01*
X128463260Y-50864966D01*
X128463264Y-50864967D01*
X128536321Y-50879499D01*
X128536324Y-50879500D01*
X128536326Y-50879500D01*
X131585676Y-50879500D01*
X131585677Y-50879499D01*
X131658740Y-50864966D01*
X131741601Y-50809601D01*
X131796966Y-50726740D01*
X131811500Y-50653674D01*
X131811500Y-49491332D01*
X138160500Y-49491332D01*
X138160500Y-49766667D01*
X138160501Y-49766684D01*
X138196438Y-50039655D01*
X138196439Y-50039660D01*
X138196440Y-50039666D01*
X138196441Y-50039668D01*
X138267704Y-50305630D01*
X138373075Y-50560017D01*
X138373080Y-50560028D01*
X138427150Y-50653678D01*
X138510751Y-50798479D01*
X138510753Y-50798482D01*
X138510754Y-50798483D01*
X138678370Y-51016926D01*
X138678376Y-51016933D01*
X138873066Y-51211623D01*
X138873072Y-51211628D01*
X139091521Y-51379249D01*
X139244778Y-51467732D01*
X139329971Y-51516919D01*
X139329976Y-51516921D01*
X139329979Y-51516923D01*
X139584368Y-51622295D01*
X139850334Y-51693560D01*
X140123326Y-51729500D01*
X140123333Y-51729500D01*
X140398667Y-51729500D01*
X140398674Y-51729500D01*
X140671666Y-51693560D01*
X140937632Y-51622295D01*
X141192021Y-51516923D01*
X141430479Y-51379249D01*
X141648928Y-51211628D01*
X141843628Y-51016928D01*
X142011249Y-50798479D01*
X142148923Y-50560021D01*
X142254295Y-50305632D01*
X142325560Y-50039666D01*
X142361500Y-49766674D01*
X142361500Y-49491332D01*
X146160500Y-49491332D01*
X146160500Y-49766667D01*
X146160501Y-49766684D01*
X146196438Y-50039655D01*
X146196439Y-50039660D01*
X146196440Y-50039666D01*
X146196441Y-50039668D01*
X146267704Y-50305630D01*
X146373075Y-50560017D01*
X146373080Y-50560028D01*
X146427150Y-50653678D01*
X146510751Y-50798479D01*
X146510753Y-50798482D01*
X146510754Y-50798483D01*
X146678370Y-51016926D01*
X146678376Y-51016933D01*
X146873066Y-51211623D01*
X146873072Y-51211628D01*
X147091521Y-51379249D01*
X147244778Y-51467732D01*
X147329971Y-51516919D01*
X147329976Y-51516921D01*
X147329979Y-51516923D01*
X147584368Y-51622295D01*
X147850334Y-51693560D01*
X148123326Y-51729500D01*
X148123333Y-51729500D01*
X148398667Y-51729500D01*
X148398674Y-51729500D01*
X148671666Y-51693560D01*
X148937632Y-51622295D01*
X149192021Y-51516923D01*
X149430479Y-51379249D01*
X149648928Y-51211628D01*
X149843628Y-51016928D01*
X150011249Y-50798479D01*
X150148923Y-50560021D01*
X150254295Y-50305632D01*
X150325560Y-50039666D01*
X150361500Y-49766674D01*
X150361500Y-49491326D01*
X150325560Y-49218334D01*
X150254295Y-48952368D01*
X150148923Y-48697979D01*
X150148921Y-48697976D01*
X150148919Y-48697971D01*
X150099732Y-48612778D01*
X150011249Y-48459521D01*
X149843628Y-48241072D01*
X149843623Y-48241066D01*
X149648933Y-48046376D01*
X149648926Y-48046370D01*
X149430483Y-47878754D01*
X149430482Y-47878753D01*
X149430479Y-47878751D01*
X149335407Y-47823861D01*
X149192028Y-47741080D01*
X149192017Y-47741075D01*
X149123743Y-47712795D01*
X148937630Y-47635704D01*
X148820507Y-47604321D01*
X173310500Y-47604321D01*
X173310500Y-50653678D01*
X173325032Y-50726735D01*
X173325033Y-50726739D01*
X173325034Y-50726740D01*
X173380399Y-50809601D01*
X173463260Y-50864966D01*
X173463264Y-50864967D01*
X173536321Y-50879499D01*
X173536324Y-50879500D01*
X173536326Y-50879500D01*
X176585676Y-50879500D01*
X176585677Y-50879499D01*
X176658740Y-50864966D01*
X176741601Y-50809601D01*
X176796966Y-50726740D01*
X176811500Y-50653674D01*
X176811500Y-49491332D01*
X183160500Y-49491332D01*
X183160500Y-49766667D01*
X183160501Y-49766684D01*
X183196438Y-50039655D01*
X183196439Y-50039660D01*
X183196440Y-50039666D01*
X183196441Y-50039668D01*
X183267704Y-50305630D01*
X183373075Y-50560017D01*
X183373080Y-50560028D01*
X183427150Y-50653678D01*
X183510751Y-50798479D01*
X183510753Y-50798482D01*
X183510754Y-50798483D01*
X183678370Y-51016926D01*
X183678376Y-51016933D01*
X183873066Y-51211623D01*
X183873072Y-51211628D01*
X184091521Y-51379249D01*
X184244778Y-51467732D01*
X184329971Y-51516919D01*
X184329976Y-51516921D01*
X184329979Y-51516923D01*
X184584368Y-51622295D01*
X184850334Y-51693560D01*
X185123326Y-51729500D01*
X185123333Y-51729500D01*
X185398667Y-51729500D01*
X185398674Y-51729500D01*
X185671666Y-51693560D01*
X185937632Y-51622295D01*
X186192021Y-51516923D01*
X186430479Y-51379249D01*
X186648928Y-51211628D01*
X186843628Y-51016928D01*
X187011249Y-50798479D01*
X187148923Y-50560021D01*
X187254295Y-50305632D01*
X187325560Y-50039666D01*
X187361500Y-49766674D01*
X187361500Y-49491326D01*
X187325560Y-49218334D01*
X187254295Y-48952368D01*
X187148923Y-48697979D01*
X187148921Y-48697976D01*
X187148919Y-48697971D01*
X187099732Y-48612778D01*
X187011249Y-48459521D01*
X186843628Y-48241072D01*
X186843623Y-48241066D01*
X186648933Y-48046376D01*
X186648926Y-48046370D01*
X186430483Y-47878754D01*
X186430482Y-47878753D01*
X186430479Y-47878751D01*
X186335407Y-47823861D01*
X186192028Y-47741080D01*
X186192017Y-47741075D01*
X185937630Y-47635704D01*
X185804649Y-47600072D01*
X185671666Y-47564440D01*
X185671660Y-47564439D01*
X185671655Y-47564438D01*
X185398684Y-47528501D01*
X185398679Y-47528500D01*
X185398674Y-47528500D01*
X185123326Y-47528500D01*
X185123320Y-47528500D01*
X185123315Y-47528501D01*
X184850344Y-47564438D01*
X184850337Y-47564439D01*
X184850334Y-47564440D01*
X184794125Y-47579500D01*
X184584369Y-47635704D01*
X184329982Y-47741075D01*
X184329971Y-47741080D01*
X184091516Y-47878754D01*
X183873073Y-48046370D01*
X183873066Y-48046376D01*
X183678376Y-48241066D01*
X183678370Y-48241073D01*
X183510754Y-48459516D01*
X183373080Y-48697971D01*
X183373075Y-48697982D01*
X183267704Y-48952369D01*
X183196441Y-49218331D01*
X183196438Y-49218344D01*
X183160501Y-49491315D01*
X183160500Y-49491332D01*
X176811500Y-49491332D01*
X176811500Y-47604326D01*
X176811500Y-47604323D01*
X176811499Y-47604321D01*
X176796967Y-47531264D01*
X176796966Y-47531260D01*
X176741601Y-47448399D01*
X176658740Y-47393034D01*
X176658739Y-47393033D01*
X176658735Y-47393032D01*
X176585677Y-47378500D01*
X176585674Y-47378500D01*
X173536326Y-47378500D01*
X173536323Y-47378500D01*
X173463264Y-47393032D01*
X173463260Y-47393033D01*
X173380399Y-47448399D01*
X173325033Y-47531260D01*
X173325032Y-47531264D01*
X173310500Y-47604321D01*
X148820507Y-47604321D01*
X148804649Y-47600072D01*
X148671666Y-47564440D01*
X148671660Y-47564439D01*
X148671655Y-47564438D01*
X148398684Y-47528501D01*
X148398679Y-47528500D01*
X148398674Y-47528500D01*
X148123326Y-47528500D01*
X148123320Y-47528500D01*
X148123315Y-47528501D01*
X147850344Y-47564438D01*
X147850337Y-47564439D01*
X147850334Y-47564440D01*
X147794125Y-47579500D01*
X147584369Y-47635704D01*
X147329982Y-47741075D01*
X147329971Y-47741080D01*
X147091516Y-47878754D01*
X146873073Y-48046370D01*
X146873066Y-48046376D01*
X146678376Y-48241066D01*
X146678370Y-48241073D01*
X146510754Y-48459516D01*
X146373080Y-48697971D01*
X146373075Y-48697982D01*
X146267704Y-48952369D01*
X146196441Y-49218331D01*
X146196438Y-49218344D01*
X146160501Y-49491315D01*
X146160500Y-49491332D01*
X142361500Y-49491332D01*
X142361500Y-49491326D01*
X142325560Y-49218334D01*
X142254295Y-48952368D01*
X142148923Y-48697979D01*
X142148921Y-48697976D01*
X142148919Y-48697971D01*
X142099732Y-48612778D01*
X142011249Y-48459521D01*
X141843628Y-48241072D01*
X141843623Y-48241066D01*
X141648933Y-48046376D01*
X141648926Y-48046370D01*
X141430483Y-47878754D01*
X141430482Y-47878753D01*
X141430479Y-47878751D01*
X141335407Y-47823861D01*
X141192028Y-47741080D01*
X141192017Y-47741075D01*
X140937630Y-47635704D01*
X140804649Y-47600072D01*
X140671666Y-47564440D01*
X140671660Y-47564439D01*
X140671655Y-47564438D01*
X140398684Y-47528501D01*
X140398679Y-47528500D01*
X140398674Y-47528500D01*
X140123326Y-47528500D01*
X140123320Y-47528500D01*
X140123315Y-47528501D01*
X139850344Y-47564438D01*
X139850337Y-47564439D01*
X139850334Y-47564440D01*
X139794125Y-47579500D01*
X139584369Y-47635704D01*
X139329982Y-47741075D01*
X139329971Y-47741080D01*
X139091516Y-47878754D01*
X138873073Y-48046370D01*
X138873066Y-48046376D01*
X138678376Y-48241066D01*
X138678370Y-48241073D01*
X138510754Y-48459516D01*
X138373080Y-48697971D01*
X138373075Y-48697982D01*
X138267704Y-48952369D01*
X138196441Y-49218331D01*
X138196438Y-49218344D01*
X138160501Y-49491315D01*
X138160500Y-49491332D01*
X131811500Y-49491332D01*
X131811500Y-47604326D01*
X131811500Y-47604323D01*
X131811499Y-47604321D01*
X131796967Y-47531264D01*
X131796966Y-47531260D01*
X131741601Y-47448399D01*
X131658740Y-47393034D01*
X131658739Y-47393033D01*
X131658735Y-47393032D01*
X131585677Y-47378500D01*
X131585674Y-47378500D01*
X128536326Y-47378500D01*
X128536323Y-47378500D01*
X128463264Y-47393032D01*
X128463260Y-47393033D01*
X128380399Y-47448399D01*
X128325033Y-47531260D01*
X128325032Y-47531264D01*
X128310500Y-47604321D01*
X103820507Y-47604321D01*
X103804649Y-47600072D01*
X103671666Y-47564440D01*
X103671660Y-47564439D01*
X103671655Y-47564438D01*
X103398684Y-47528501D01*
X103398679Y-47528500D01*
X103398674Y-47528500D01*
X103123326Y-47528500D01*
X103123320Y-47528500D01*
X103123315Y-47528501D01*
X102850344Y-47564438D01*
X102850337Y-47564439D01*
X102850334Y-47564440D01*
X102794125Y-47579500D01*
X102584369Y-47635704D01*
X102329982Y-47741075D01*
X102329971Y-47741080D01*
X102091516Y-47878754D01*
X101873073Y-48046370D01*
X101873066Y-48046376D01*
X101678376Y-48241066D01*
X101678370Y-48241073D01*
X101510754Y-48459516D01*
X101373080Y-48697971D01*
X101373075Y-48697982D01*
X101267704Y-48952369D01*
X101196441Y-49218331D01*
X101196438Y-49218344D01*
X101160501Y-49491315D01*
X101160500Y-49491332D01*
X100767448Y-49491332D01*
X100767448Y-47253500D01*
X100787133Y-47186461D01*
X100839937Y-47140706D01*
X100891448Y-47129500D01*
X187642448Y-47129500D01*
X187709487Y-47149185D01*
G37*
%TD.AperFunction*%
%TD*%
%TA.AperFunction,Conductor*%
%TO.N,GND*%
G36*
X145261000Y-126128500D02*
G01*
X100891448Y-126128500D01*
X100824409Y-126108815D01*
X100778654Y-126056011D01*
X100767448Y-126004500D01*
X100767448Y-122604321D01*
X101930500Y-122604321D01*
X101930500Y-125653678D01*
X101945032Y-125726735D01*
X101945033Y-125726739D01*
X101945034Y-125726740D01*
X102000399Y-125809601D01*
X102083260Y-125864966D01*
X102083264Y-125864967D01*
X102156321Y-125879499D01*
X102156324Y-125879500D01*
X102156326Y-125879500D01*
X105205676Y-125879500D01*
X105205677Y-125879499D01*
X105278740Y-125864966D01*
X105361601Y-125809601D01*
X105416966Y-125726740D01*
X105431500Y-125653674D01*
X105431500Y-123767204D01*
X114840500Y-123767204D01*
X114840500Y-123990795D01*
X114875478Y-124211635D01*
X114944569Y-124424280D01*
X114944570Y-124424283D01*
X115046080Y-124623504D01*
X115177504Y-124804393D01*
X115335607Y-124962496D01*
X115516496Y-125093920D01*
X115614207Y-125143706D01*
X115715716Y-125195429D01*
X115715719Y-125195430D01*
X115822041Y-125229975D01*
X115928366Y-125264522D01*
X116149204Y-125299500D01*
X116149205Y-125299500D01*
X116372795Y-125299500D01*
X116372796Y-125299500D01*
X116593634Y-125264522D01*
X116806283Y-125195429D01*
X117005504Y-125093920D01*
X117186393Y-124962496D01*
X117344496Y-124804393D01*
X117475920Y-124623504D01*
X117577429Y-124424283D01*
X117646522Y-124211634D01*
X117681500Y-123990796D01*
X117681500Y-123767204D01*
X119840500Y-123767204D01*
X119840500Y-123990795D01*
X119875478Y-124211635D01*
X119944569Y-124424280D01*
X119944570Y-124424283D01*
X120046080Y-124623504D01*
X120177504Y-124804393D01*
X120335607Y-124962496D01*
X120516496Y-125093920D01*
X120614207Y-125143706D01*
X120715716Y-125195429D01*
X120715719Y-125195430D01*
X120822041Y-125229975D01*
X120928366Y-125264522D01*
X121149204Y-125299500D01*
X121149205Y-125299500D01*
X121372795Y-125299500D01*
X121372796Y-125299500D01*
X121593634Y-125264522D01*
X121806283Y-125195429D01*
X122005504Y-125093920D01*
X122186393Y-124962496D01*
X122344496Y-124804393D01*
X122475920Y-124623504D01*
X122577429Y-124424283D01*
X122646522Y-124211634D01*
X122681500Y-123990796D01*
X122681500Y-123767204D01*
X122646522Y-123546366D01*
X122577429Y-123333717D01*
X122577429Y-123333716D01*
X122475919Y-123134495D01*
X122344496Y-122953607D01*
X122186393Y-122795504D01*
X122005504Y-122664080D01*
X121888222Y-122604321D01*
X132470500Y-122604321D01*
X132470500Y-125653678D01*
X132485032Y-125726735D01*
X132485033Y-125726739D01*
X132485034Y-125726740D01*
X132540399Y-125809601D01*
X132623260Y-125864966D01*
X132623264Y-125864967D01*
X132696321Y-125879499D01*
X132696324Y-125879500D01*
X132696326Y-125879500D01*
X135745676Y-125879500D01*
X135745677Y-125879499D01*
X135818740Y-125864966D01*
X135901601Y-125809601D01*
X135956966Y-125726740D01*
X135971500Y-125653674D01*
X135971500Y-122604326D01*
X135971500Y-122604323D01*
X135971499Y-122604321D01*
X135956967Y-122531264D01*
X135956966Y-122531260D01*
X135931721Y-122493478D01*
X135901601Y-122448399D01*
X135818740Y-122393034D01*
X135818739Y-122393033D01*
X135818735Y-122393032D01*
X135745677Y-122378500D01*
X135745674Y-122378500D01*
X132696326Y-122378500D01*
X132696323Y-122378500D01*
X132623264Y-122393032D01*
X132623260Y-122393033D01*
X132540399Y-122448399D01*
X132485033Y-122531260D01*
X132485032Y-122531264D01*
X132470500Y-122604321D01*
X121888222Y-122604321D01*
X121806283Y-122562570D01*
X121806280Y-122562569D01*
X121593635Y-122493478D01*
X121483215Y-122475989D01*
X121372796Y-122458500D01*
X121149204Y-122458500D01*
X121075591Y-122470159D01*
X120928364Y-122493478D01*
X120715719Y-122562569D01*
X120715716Y-122562570D01*
X120516495Y-122664080D01*
X120413291Y-122739062D01*
X120335607Y-122795504D01*
X120335605Y-122795506D01*
X120335604Y-122795506D01*
X120177506Y-122953604D01*
X120177506Y-122953605D01*
X120177504Y-122953607D01*
X120121062Y-123031291D01*
X120046080Y-123134495D01*
X119944570Y-123333716D01*
X119944569Y-123333719D01*
X119875478Y-123546364D01*
X119840500Y-123767204D01*
X117681500Y-123767204D01*
X117646522Y-123546366D01*
X117577429Y-123333717D01*
X117577429Y-123333716D01*
X117475919Y-123134495D01*
X117344496Y-122953607D01*
X117186393Y-122795504D01*
X117005504Y-122664080D01*
X116806283Y-122562570D01*
X116806280Y-122562569D01*
X116593635Y-122493478D01*
X116483215Y-122475989D01*
X116372796Y-122458500D01*
X116149204Y-122458500D01*
X116075591Y-122470159D01*
X115928364Y-122493478D01*
X115715719Y-122562569D01*
X115715716Y-122562570D01*
X115516495Y-122664080D01*
X115413291Y-122739062D01*
X115335607Y-122795504D01*
X115335605Y-122795506D01*
X115335604Y-122795506D01*
X115177506Y-122953604D01*
X115177506Y-122953605D01*
X115177504Y-122953607D01*
X115121062Y-123031291D01*
X115046080Y-123134495D01*
X114944570Y-123333716D01*
X114944569Y-123333719D01*
X114875478Y-123546364D01*
X114840500Y-123767204D01*
X105431500Y-123767204D01*
X105431500Y-122604326D01*
X105431500Y-122604323D01*
X105431499Y-122604321D01*
X105416967Y-122531264D01*
X105416966Y-122531260D01*
X105391721Y-122493478D01*
X105361601Y-122448399D01*
X105278740Y-122393034D01*
X105278739Y-122393033D01*
X105278735Y-122393032D01*
X105205677Y-122378500D01*
X105205674Y-122378500D01*
X102156326Y-122378500D01*
X102156323Y-122378500D01*
X102083264Y-122393032D01*
X102083260Y-122393033D01*
X102000399Y-122448399D01*
X101945033Y-122531260D01*
X101945032Y-122531264D01*
X101930500Y-122604321D01*
X100767448Y-122604321D01*
X100767448Y-116991332D01*
X101160500Y-116991332D01*
X101160500Y-117266667D01*
X101160501Y-117266684D01*
X101196438Y-117539655D01*
X101196439Y-117539660D01*
X101196440Y-117539666D01*
X101196441Y-117539668D01*
X101267704Y-117805630D01*
X101373075Y-118060017D01*
X101373080Y-118060028D01*
X101455861Y-118203407D01*
X101510751Y-118298479D01*
X101510753Y-118298482D01*
X101510754Y-118298483D01*
X101678370Y-118516926D01*
X101678376Y-118516933D01*
X101873066Y-118711623D01*
X101873072Y-118711628D01*
X102091521Y-118879249D01*
X102244778Y-118967732D01*
X102329971Y-119016919D01*
X102329976Y-119016921D01*
X102329979Y-119016923D01*
X102584368Y-119122295D01*
X102850334Y-119193560D01*
X103123326Y-119229500D01*
X103123333Y-119229500D01*
X103398667Y-119229500D01*
X103398674Y-119229500D01*
X103671666Y-119193560D01*
X103937632Y-119122295D01*
X104192021Y-119016923D01*
X104430479Y-118879249D01*
X104648928Y-118711628D01*
X104843628Y-118516928D01*
X105011249Y-118298479D01*
X105148923Y-118060021D01*
X105254295Y-117805632D01*
X105325560Y-117539666D01*
X105361500Y-117266674D01*
X105361500Y-116991332D01*
X138160500Y-116991332D01*
X138160500Y-117266667D01*
X138160501Y-117266684D01*
X138196438Y-117539655D01*
X138196439Y-117539660D01*
X138196440Y-117539666D01*
X138196441Y-117539668D01*
X138267704Y-117805630D01*
X138373075Y-118060017D01*
X138373080Y-118060028D01*
X138455861Y-118203407D01*
X138510751Y-118298479D01*
X138510753Y-118298482D01*
X138510754Y-118298483D01*
X138678370Y-118516926D01*
X138678376Y-118516933D01*
X138873066Y-118711623D01*
X138873072Y-118711628D01*
X139091521Y-118879249D01*
X139244778Y-118967732D01*
X139329971Y-119016919D01*
X139329976Y-119016921D01*
X139329979Y-119016923D01*
X139584368Y-119122295D01*
X139850334Y-119193560D01*
X140123326Y-119229500D01*
X140123333Y-119229500D01*
X140398667Y-119229500D01*
X140398674Y-119229500D01*
X140671666Y-119193560D01*
X140937632Y-119122295D01*
X141192021Y-119016923D01*
X141430479Y-118879249D01*
X141648928Y-118711628D01*
X141843628Y-118516928D01*
X142011249Y-118298479D01*
X142148923Y-118060021D01*
X142254295Y-117805632D01*
X142325560Y-117539666D01*
X142361500Y-117266674D01*
X142361500Y-116991326D01*
X142325560Y-116718334D01*
X142254295Y-116452368D01*
X142148923Y-116197979D01*
X142148921Y-116197976D01*
X142148919Y-116197971D01*
X142099732Y-116112778D01*
X142011249Y-115959521D01*
X141843628Y-115741072D01*
X141843623Y-115741066D01*
X141648933Y-115546376D01*
X141648926Y-115546370D01*
X141430483Y-115378754D01*
X141430482Y-115378753D01*
X141430479Y-115378751D01*
X141335407Y-115323861D01*
X141192028Y-115241080D01*
X141192017Y-115241075D01*
X140937630Y-115135704D01*
X140804649Y-115100072D01*
X140671666Y-115064440D01*
X140671660Y-115064439D01*
X140671655Y-115064438D01*
X140398684Y-115028501D01*
X140398679Y-115028500D01*
X140398674Y-115028500D01*
X140123326Y-115028500D01*
X140123320Y-115028500D01*
X140123315Y-115028501D01*
X139850344Y-115064438D01*
X139850337Y-115064439D01*
X139850334Y-115064440D01*
X139794125Y-115079500D01*
X139584369Y-115135704D01*
X139329982Y-115241075D01*
X139329971Y-115241080D01*
X139091516Y-115378754D01*
X138873073Y-115546370D01*
X138873066Y-115546376D01*
X138678376Y-115741066D01*
X138678370Y-115741073D01*
X138510754Y-115959516D01*
X138373080Y-116197971D01*
X138373075Y-116197982D01*
X138267704Y-116452369D01*
X138196441Y-116718331D01*
X138196438Y-116718344D01*
X138160501Y-116991315D01*
X138160500Y-116991332D01*
X105361500Y-116991332D01*
X105361500Y-116991326D01*
X105325560Y-116718334D01*
X105254295Y-116452368D01*
X105148923Y-116197979D01*
X105148921Y-116197976D01*
X105148919Y-116197971D01*
X105099732Y-116112778D01*
X105011249Y-115959521D01*
X104843628Y-115741072D01*
X104843623Y-115741066D01*
X104648933Y-115546376D01*
X104648926Y-115546370D01*
X104430483Y-115378754D01*
X104430482Y-115378753D01*
X104430479Y-115378751D01*
X104335407Y-115323861D01*
X104192028Y-115241080D01*
X104192017Y-115241075D01*
X103937630Y-115135704D01*
X103804649Y-115100072D01*
X103671666Y-115064440D01*
X103671660Y-115064439D01*
X103671655Y-115064438D01*
X103398684Y-115028501D01*
X103398679Y-115028500D01*
X103398674Y-115028500D01*
X103123326Y-115028500D01*
X103123320Y-115028500D01*
X103123315Y-115028501D01*
X102850344Y-115064438D01*
X102850337Y-115064439D01*
X102850334Y-115064440D01*
X102794125Y-115079500D01*
X102584369Y-115135704D01*
X102329982Y-115241075D01*
X102329971Y-115241080D01*
X102091516Y-115378754D01*
X101873073Y-115546370D01*
X101873066Y-115546376D01*
X101678376Y-115741066D01*
X101678370Y-115741073D01*
X101510754Y-115959516D01*
X101373080Y-116197971D01*
X101373075Y-116197982D01*
X101267704Y-116452369D01*
X101196441Y-116718331D01*
X101196438Y-116718344D01*
X101160501Y-116991315D01*
X101160500Y-116991332D01*
X100767448Y-116991332D01*
X100767448Y-114085530D01*
X116910500Y-114085530D01*
X116910500Y-114292469D01*
X116950868Y-114495412D01*
X116950870Y-114495420D01*
X117030059Y-114686598D01*
X117035658Y-114694977D01*
X117145024Y-114858657D01*
X117291342Y-115004975D01*
X117291345Y-115004977D01*
X117463402Y-115119941D01*
X117654580Y-115199130D01*
X117857530Y-115239499D01*
X117857534Y-115239500D01*
X117857535Y-115239500D01*
X118064466Y-115239500D01*
X118064467Y-115239499D01*
X118267420Y-115199130D01*
X118458598Y-115119941D01*
X118630655Y-115004977D01*
X118776977Y-114858655D01*
X118891941Y-114686598D01*
X118971130Y-114495420D01*
X119011500Y-114292465D01*
X119011500Y-114085535D01*
X118971130Y-113882580D01*
X118971128Y-113882575D01*
X118943923Y-113816895D01*
X118926789Y-113775530D01*
X122710500Y-113775530D01*
X122710500Y-113982469D01*
X122750868Y-114185412D01*
X122750870Y-114185420D01*
X122830058Y-114376596D01*
X122945024Y-114548657D01*
X123091342Y-114694975D01*
X123091345Y-114694977D01*
X123263402Y-114809941D01*
X123454580Y-114889130D01*
X123657530Y-114929499D01*
X123657534Y-114929500D01*
X123657535Y-114929500D01*
X123864466Y-114929500D01*
X123864467Y-114929499D01*
X124067420Y-114889130D01*
X124258598Y-114809941D01*
X124430655Y-114694977D01*
X124576977Y-114548655D01*
X124691941Y-114376598D01*
X124771130Y-114185420D01*
X124811500Y-113982465D01*
X124811500Y-113775535D01*
X124811499Y-113775530D01*
X127710500Y-113775530D01*
X127710500Y-113982469D01*
X127750868Y-114185412D01*
X127750870Y-114185420D01*
X127830058Y-114376596D01*
X127945024Y-114548657D01*
X128091342Y-114694975D01*
X128091345Y-114694977D01*
X128263402Y-114809941D01*
X128454580Y-114889130D01*
X128657530Y-114929499D01*
X128657534Y-114929500D01*
X128657535Y-114929500D01*
X128864466Y-114929500D01*
X128864467Y-114929499D01*
X129067420Y-114889130D01*
X129258598Y-114809941D01*
X129430655Y-114694977D01*
X129576977Y-114548655D01*
X129691941Y-114376598D01*
X129771130Y-114185420D01*
X129811500Y-113982465D01*
X129811500Y-113775535D01*
X129771130Y-113572580D01*
X129691941Y-113381402D01*
X129576977Y-113209345D01*
X129576975Y-113209342D01*
X129430657Y-113063024D01*
X129393876Y-113038448D01*
X134610500Y-113038448D01*
X134610500Y-113219551D01*
X134638829Y-113398410D01*
X134694787Y-113570636D01*
X134694788Y-113570639D01*
X134777006Y-113731997D01*
X134883441Y-113878494D01*
X134883445Y-113878499D01*
X135011500Y-114006554D01*
X135011505Y-114006558D01*
X135120209Y-114085535D01*
X135158006Y-114112996D01*
X135263484Y-114166740D01*
X135319360Y-114195211D01*
X135319363Y-114195212D01*
X135405476Y-114223191D01*
X135491591Y-114251171D01*
X135574429Y-114264291D01*
X135670449Y-114279500D01*
X135670454Y-114279500D01*
X135851551Y-114279500D01*
X135938259Y-114265765D01*
X136030409Y-114251171D01*
X136202639Y-114195211D01*
X136363994Y-114112996D01*
X136510501Y-114006553D01*
X136638553Y-113878501D01*
X136744996Y-113731994D01*
X136827211Y-113570639D01*
X136883171Y-113398409D01*
X136897765Y-113306259D01*
X136911500Y-113219551D01*
X136911500Y-113038448D01*
X136895019Y-112934397D01*
X136883171Y-112859591D01*
X136827211Y-112687361D01*
X136827211Y-112687360D01*
X136798740Y-112631484D01*
X136744996Y-112526006D01*
X136731396Y-112507287D01*
X136638558Y-112379505D01*
X136638554Y-112379500D01*
X136510499Y-112251445D01*
X136510494Y-112251441D01*
X136363997Y-112145006D01*
X136363996Y-112145005D01*
X136363994Y-112145004D01*
X136312300Y-112118664D01*
X136202639Y-112062788D01*
X136202636Y-112062787D01*
X136030410Y-112006829D01*
X135851551Y-111978500D01*
X135851546Y-111978500D01*
X135670454Y-111978500D01*
X135670449Y-111978500D01*
X135491589Y-112006829D01*
X135319363Y-112062787D01*
X135319360Y-112062788D01*
X135158002Y-112145006D01*
X135011505Y-112251441D01*
X135011500Y-112251445D01*
X134883445Y-112379500D01*
X134883441Y-112379505D01*
X134777006Y-112526002D01*
X134694788Y-112687360D01*
X134694787Y-112687363D01*
X134638829Y-112859589D01*
X134610500Y-113038448D01*
X129393876Y-113038448D01*
X129344626Y-113005541D01*
X129258598Y-112948059D01*
X129067420Y-112868870D01*
X129067412Y-112868868D01*
X128864469Y-112828500D01*
X128864465Y-112828500D01*
X128657535Y-112828500D01*
X128657530Y-112828500D01*
X128454587Y-112868868D01*
X128454579Y-112868870D01*
X128263403Y-112948058D01*
X128091342Y-113063024D01*
X127945024Y-113209342D01*
X127830058Y-113381403D01*
X127750870Y-113572579D01*
X127750868Y-113572587D01*
X127710500Y-113775530D01*
X124811499Y-113775530D01*
X124771130Y-113572580D01*
X124691941Y-113381402D01*
X124576977Y-113209345D01*
X124576975Y-113209342D01*
X124430657Y-113063024D01*
X124344626Y-113005541D01*
X124258598Y-112948059D01*
X124067420Y-112868870D01*
X124067412Y-112868868D01*
X123864469Y-112828500D01*
X123864465Y-112828500D01*
X123657535Y-112828500D01*
X123657530Y-112828500D01*
X123454587Y-112868868D01*
X123454579Y-112868870D01*
X123263403Y-112948058D01*
X123091342Y-113063024D01*
X122945024Y-113209342D01*
X122830058Y-113381403D01*
X122750870Y-113572579D01*
X122750868Y-113572587D01*
X122710500Y-113775530D01*
X118926789Y-113775530D01*
X118891942Y-113691404D01*
X118812546Y-113572579D01*
X118776977Y-113519345D01*
X118776975Y-113519342D01*
X118630657Y-113373024D01*
X118544626Y-113315541D01*
X118458598Y-113258059D01*
X118340985Y-113209342D01*
X118267420Y-113178870D01*
X118267412Y-113178868D01*
X118064469Y-113138500D01*
X118064465Y-113138500D01*
X117857535Y-113138500D01*
X117857530Y-113138500D01*
X117654587Y-113178868D01*
X117654579Y-113178870D01*
X117463403Y-113258058D01*
X117291342Y-113373024D01*
X117145024Y-113519342D01*
X117030058Y-113691403D01*
X116950870Y-113882579D01*
X116950868Y-113882587D01*
X116910500Y-114085530D01*
X100767448Y-114085530D01*
X100767448Y-108931135D01*
X105710500Y-108931135D01*
X105710500Y-110126870D01*
X105710501Y-110126876D01*
X105716908Y-110186483D01*
X105767202Y-110321328D01*
X105767206Y-110321335D01*
X105853452Y-110436544D01*
X105853455Y-110436547D01*
X105968664Y-110522793D01*
X105968671Y-110522797D01*
X106103517Y-110573091D01*
X106103516Y-110573091D01*
X106110444Y-110573835D01*
X106163127Y-110579500D01*
X107358872Y-110579499D01*
X107418483Y-110573091D01*
X107553331Y-110522796D01*
X107668546Y-110436546D01*
X107754796Y-110321331D01*
X107805091Y-110186483D01*
X107811500Y-110126873D01*
X107811499Y-108931128D01*
X107805091Y-108871517D01*
X107754796Y-108736669D01*
X107754795Y-108736668D01*
X107754793Y-108736664D01*
X107668547Y-108621455D01*
X107668544Y-108621452D01*
X107553335Y-108535206D01*
X107553328Y-108535202D01*
X107418482Y-108484908D01*
X107418483Y-108484908D01*
X107358883Y-108478501D01*
X107358881Y-108478500D01*
X107358873Y-108478500D01*
X107358864Y-108478500D01*
X106163129Y-108478500D01*
X106163123Y-108478501D01*
X106103516Y-108484908D01*
X105968671Y-108535202D01*
X105968664Y-108535206D01*
X105853455Y-108621452D01*
X105853452Y-108621455D01*
X105767206Y-108736664D01*
X105767202Y-108736671D01*
X105716908Y-108871517D01*
X105710501Y-108931116D01*
X105710501Y-108931123D01*
X105710500Y-108931135D01*
X100767448Y-108931135D01*
X100767448Y-107585530D01*
X111910500Y-107585530D01*
X111910500Y-107792469D01*
X111950868Y-107995412D01*
X111950870Y-107995420D01*
X112030058Y-108186596D01*
X112145024Y-108358657D01*
X112291342Y-108504975D01*
X112291345Y-108504977D01*
X112463402Y-108619941D01*
X112654580Y-108699130D01*
X112843303Y-108736669D01*
X112857530Y-108739499D01*
X112857534Y-108739500D01*
X112857535Y-108739500D01*
X113064466Y-108739500D01*
X113064467Y-108739499D01*
X113267420Y-108699130D01*
X113458598Y-108619941D01*
X113630655Y-108504977D01*
X113776977Y-108358655D01*
X113891941Y-108186598D01*
X113971130Y-107995420D01*
X114011500Y-107792465D01*
X114011500Y-107585535D01*
X113971130Y-107382580D01*
X113891941Y-107191402D01*
X113776977Y-107019345D01*
X113776975Y-107019342D01*
X113630657Y-106873024D01*
X113529467Y-106805412D01*
X113458598Y-106758059D01*
X113396811Y-106732466D01*
X113267420Y-106678870D01*
X113267412Y-106678868D01*
X113064469Y-106638500D01*
X113064465Y-106638500D01*
X112857535Y-106638500D01*
X112857530Y-106638500D01*
X112654587Y-106678868D01*
X112654579Y-106678870D01*
X112463403Y-106758058D01*
X112291342Y-106873024D01*
X112145024Y-107019342D01*
X112030058Y-107191403D01*
X111950870Y-107382579D01*
X111950868Y-107382587D01*
X111910500Y-107585530D01*
X100767448Y-107585530D01*
X100767448Y-106465530D01*
X116910500Y-106465530D01*
X116910500Y-106672469D01*
X116936946Y-106805420D01*
X116950870Y-106875420D01*
X117030059Y-107066598D01*
X117087541Y-107152626D01*
X117145024Y-107238657D01*
X117291342Y-107384975D01*
X117291345Y-107384977D01*
X117463402Y-107499941D01*
X117654580Y-107579130D01*
X117857530Y-107619499D01*
X117857534Y-107619500D01*
X117857535Y-107619500D01*
X118064466Y-107619500D01*
X118064467Y-107619499D01*
X118267420Y-107579130D01*
X118458598Y-107499941D01*
X118630655Y-107384977D01*
X118776977Y-107238655D01*
X118891941Y-107066598D01*
X118971130Y-106875420D01*
X119011500Y-106672465D01*
X119011500Y-106465535D01*
X119011417Y-106465120D01*
X119001177Y-106413634D01*
X118997576Y-106395530D01*
X121000500Y-106395530D01*
X121000500Y-106602469D01*
X121040868Y-106805412D01*
X121040870Y-106805420D01*
X121120058Y-106996596D01*
X121235024Y-107168657D01*
X121381342Y-107314975D01*
X121381345Y-107314977D01*
X121553402Y-107429941D01*
X121744580Y-107509130D01*
X121947530Y-107549499D01*
X121947534Y-107549500D01*
X121947535Y-107549500D01*
X122954466Y-107549500D01*
X122954467Y-107549499D01*
X123157420Y-107509130D01*
X123348598Y-107429941D01*
X123520655Y-107314977D01*
X123666977Y-107168655D01*
X123781941Y-106996598D01*
X123861130Y-106805420D01*
X123901500Y-106602465D01*
X123901500Y-106525530D01*
X132900500Y-106525530D01*
X132900500Y-106732469D01*
X132928935Y-106875420D01*
X132940870Y-106935420D01*
X133020059Y-107126598D01*
X133048162Y-107168657D01*
X133135024Y-107298657D01*
X133281342Y-107444975D01*
X133281345Y-107444977D01*
X133453402Y-107559941D01*
X133644580Y-107639130D01*
X133847530Y-107679499D01*
X133847534Y-107679500D01*
X133847535Y-107679500D01*
X134054466Y-107679500D01*
X134054467Y-107679499D01*
X134257420Y-107639130D01*
X134448598Y-107559941D01*
X134620655Y-107444977D01*
X134766977Y-107298655D01*
X134881941Y-107126598D01*
X134961130Y-106935420D01*
X135001500Y-106732465D01*
X135001500Y-106525535D01*
X135001499Y-106525530D01*
X140520500Y-106525530D01*
X140520500Y-106732469D01*
X140548935Y-106875420D01*
X140560870Y-106935420D01*
X140640059Y-107126598D01*
X140668162Y-107168657D01*
X140755024Y-107298657D01*
X140901342Y-107444975D01*
X140901345Y-107444977D01*
X141073402Y-107559941D01*
X141264580Y-107639130D01*
X141467530Y-107679499D01*
X141467534Y-107679500D01*
X141467535Y-107679500D01*
X141674466Y-107679500D01*
X141674467Y-107679499D01*
X141877420Y-107639130D01*
X142068598Y-107559941D01*
X142240655Y-107444977D01*
X142386977Y-107298655D01*
X142501941Y-107126598D01*
X142581130Y-106935420D01*
X142621500Y-106732465D01*
X142621500Y-106525535D01*
X142581130Y-106322580D01*
X142501941Y-106131402D01*
X142386977Y-105959345D01*
X142386975Y-105959342D01*
X142240657Y-105813024D01*
X142154626Y-105755541D01*
X142068598Y-105698059D01*
X141877420Y-105618870D01*
X141877412Y-105618868D01*
X141674469Y-105578500D01*
X141674465Y-105578500D01*
X141467535Y-105578500D01*
X141467530Y-105578500D01*
X141264587Y-105618868D01*
X141264579Y-105618870D01*
X141073403Y-105698058D01*
X140901342Y-105813024D01*
X140755024Y-105959342D01*
X140640058Y-106131403D01*
X140560870Y-106322579D01*
X140560868Y-106322587D01*
X140520500Y-106525530D01*
X135001499Y-106525530D01*
X134961130Y-106322580D01*
X134881941Y-106131402D01*
X134766977Y-105959345D01*
X134766975Y-105959342D01*
X134620657Y-105813024D01*
X134534626Y-105755541D01*
X134448598Y-105698059D01*
X134257420Y-105618870D01*
X134257412Y-105618868D01*
X134054469Y-105578500D01*
X134054465Y-105578500D01*
X133847535Y-105578500D01*
X133847530Y-105578500D01*
X133644587Y-105618868D01*
X133644579Y-105618870D01*
X133453403Y-105698058D01*
X133281342Y-105813024D01*
X133135024Y-105959342D01*
X133020058Y-106131403D01*
X132940870Y-106322579D01*
X132940868Y-106322587D01*
X132900500Y-106525530D01*
X123901500Y-106525530D01*
X123901500Y-106395535D01*
X123861130Y-106192580D01*
X123781941Y-106001402D01*
X123666977Y-105829345D01*
X123666975Y-105829342D01*
X123520657Y-105683024D01*
X123364224Y-105578500D01*
X123348598Y-105568059D01*
X123157420Y-105488870D01*
X123157412Y-105488868D01*
X122954469Y-105448500D01*
X122954465Y-105448500D01*
X121947535Y-105448500D01*
X121947530Y-105448500D01*
X121744587Y-105488868D01*
X121744579Y-105488870D01*
X121553403Y-105568058D01*
X121381342Y-105683024D01*
X121235024Y-105829342D01*
X121120058Y-106001403D01*
X121040870Y-106192579D01*
X121040868Y-106192587D01*
X121000500Y-106395530D01*
X118997576Y-106395530D01*
X118971131Y-106262587D01*
X118971130Y-106262580D01*
X118891941Y-106071402D01*
X118776977Y-105899345D01*
X118776975Y-105899342D01*
X118630657Y-105753024D01*
X118525892Y-105683023D01*
X118458598Y-105638059D01*
X118267420Y-105558870D01*
X118267412Y-105558868D01*
X118064469Y-105518500D01*
X118064465Y-105518500D01*
X117857535Y-105518500D01*
X117857530Y-105518500D01*
X117654587Y-105558868D01*
X117654579Y-105558870D01*
X117463403Y-105638058D01*
X117291342Y-105753024D01*
X117145024Y-105899342D01*
X117030058Y-106071403D01*
X116950870Y-106262579D01*
X116950868Y-106262587D01*
X116910500Y-106465530D01*
X100767448Y-106465530D01*
X100767448Y-103855530D01*
X121000500Y-103855530D01*
X121000500Y-104062469D01*
X121040868Y-104265412D01*
X121040870Y-104265420D01*
X121120058Y-104456596D01*
X121235024Y-104628657D01*
X121381342Y-104774975D01*
X121381345Y-104774977D01*
X121553402Y-104889941D01*
X121744580Y-104969130D01*
X121947530Y-105009499D01*
X121947534Y-105009500D01*
X121947535Y-105009500D01*
X122954466Y-105009500D01*
X122954467Y-105009499D01*
X123157420Y-104969130D01*
X123348598Y-104889941D01*
X123520655Y-104774977D01*
X123666977Y-104628655D01*
X123781941Y-104456598D01*
X123861130Y-104265420D01*
X123901500Y-104062465D01*
X123901500Y-103855535D01*
X123861130Y-103652580D01*
X123781941Y-103461402D01*
X123666977Y-103289345D01*
X123666975Y-103289342D01*
X123520657Y-103143024D01*
X123434626Y-103085541D01*
X123348598Y-103028059D01*
X123157420Y-102948870D01*
X123157412Y-102948868D01*
X122954469Y-102908500D01*
X122954465Y-102908500D01*
X121947535Y-102908500D01*
X121947530Y-102908500D01*
X121744587Y-102948868D01*
X121744579Y-102948870D01*
X121553403Y-103028058D01*
X121381342Y-103143024D01*
X121235024Y-103289342D01*
X121120058Y-103461403D01*
X121040870Y-103652579D01*
X121040868Y-103652587D01*
X121000500Y-103855530D01*
X100767448Y-103855530D01*
X100767448Y-101315530D01*
X121000500Y-101315530D01*
X121000500Y-101522469D01*
X121040868Y-101725412D01*
X121040870Y-101725420D01*
X121120058Y-101916596D01*
X121235024Y-102088657D01*
X121381342Y-102234975D01*
X121381345Y-102234977D01*
X121553402Y-102349941D01*
X121744580Y-102429130D01*
X121947530Y-102469499D01*
X121947534Y-102469500D01*
X121947535Y-102469500D01*
X122954466Y-102469500D01*
X122954467Y-102469499D01*
X123157420Y-102429130D01*
X123348598Y-102349941D01*
X123520655Y-102234977D01*
X123666977Y-102088655D01*
X123781941Y-101916598D01*
X123861130Y-101725420D01*
X123901500Y-101522465D01*
X123901500Y-101315535D01*
X123861130Y-101112580D01*
X123781941Y-100921402D01*
X123666977Y-100749345D01*
X123666975Y-100749342D01*
X123520657Y-100603024D01*
X123434626Y-100545541D01*
X123348598Y-100488059D01*
X123157420Y-100408870D01*
X123157412Y-100408868D01*
X122954469Y-100368500D01*
X122954465Y-100368500D01*
X121947535Y-100368500D01*
X121947530Y-100368500D01*
X121744587Y-100408868D01*
X121744579Y-100408870D01*
X121553403Y-100488058D01*
X121381342Y-100603024D01*
X121235024Y-100749342D01*
X121120058Y-100921403D01*
X121040870Y-101112579D01*
X121040868Y-101112587D01*
X121000500Y-101315530D01*
X100767448Y-101315530D01*
X100767448Y-99531135D01*
X113710500Y-99531135D01*
X113710500Y-100726870D01*
X113710501Y-100726876D01*
X113716908Y-100786483D01*
X113767202Y-100921328D01*
X113767206Y-100921335D01*
X113853452Y-101036544D01*
X113853455Y-101036547D01*
X113968664Y-101122793D01*
X113968671Y-101122797D01*
X114103517Y-101173091D01*
X114103516Y-101173091D01*
X114110444Y-101173835D01*
X114163127Y-101179500D01*
X115358872Y-101179499D01*
X115418483Y-101173091D01*
X115553331Y-101122796D01*
X115668546Y-101036546D01*
X115754796Y-100921331D01*
X115805091Y-100786483D01*
X115811500Y-100726873D01*
X115811499Y-99531128D01*
X115805091Y-99471517D01*
X115794696Y-99443647D01*
X115754797Y-99336671D01*
X115754793Y-99336664D01*
X115668547Y-99221455D01*
X115668544Y-99221452D01*
X115553335Y-99135206D01*
X115553328Y-99135202D01*
X115418482Y-99084908D01*
X115418483Y-99084908D01*
X115358883Y-99078501D01*
X115358881Y-99078500D01*
X115358873Y-99078500D01*
X115358864Y-99078500D01*
X114163129Y-99078500D01*
X114163123Y-99078501D01*
X114103516Y-99084908D01*
X113968671Y-99135202D01*
X113968664Y-99135206D01*
X113853455Y-99221452D01*
X113853452Y-99221455D01*
X113767206Y-99336664D01*
X113767202Y-99336671D01*
X113716908Y-99471517D01*
X113710501Y-99531116D01*
X113710501Y-99531123D01*
X113710500Y-99531135D01*
X100767448Y-99531135D01*
X100767448Y-98281135D01*
X121000500Y-98281135D01*
X121000500Y-99476870D01*
X121000501Y-99476876D01*
X121006908Y-99536483D01*
X121057202Y-99671328D01*
X121057206Y-99671335D01*
X121143452Y-99786544D01*
X121143455Y-99786547D01*
X121258664Y-99872793D01*
X121258671Y-99872797D01*
X121393517Y-99923091D01*
X121393516Y-99923091D01*
X121400444Y-99923835D01*
X121453127Y-99929500D01*
X123448872Y-99929499D01*
X123508483Y-99923091D01*
X123643331Y-99872796D01*
X123758546Y-99786546D01*
X123844796Y-99671331D01*
X123895091Y-99536483D01*
X123901500Y-99476873D01*
X123901499Y-98281128D01*
X123895091Y-98221517D01*
X123844796Y-98086669D01*
X123844795Y-98086668D01*
X123844793Y-98086664D01*
X123793123Y-98017643D01*
X123758546Y-97971454D01*
X123643331Y-97885204D01*
X123643328Y-97885202D01*
X123508482Y-97834908D01*
X123508483Y-97834908D01*
X123473385Y-97831135D01*
X134142823Y-97831135D01*
X134142823Y-99426870D01*
X134142824Y-99426876D01*
X134149231Y-99486483D01*
X134199525Y-99621328D01*
X134199529Y-99621335D01*
X134285775Y-99736544D01*
X134285778Y-99736547D01*
X134400987Y-99822793D01*
X134400994Y-99822797D01*
X134535840Y-99873091D01*
X134535839Y-99873091D01*
X134542767Y-99873835D01*
X134595450Y-99879500D01*
X136191195Y-99879499D01*
X136250806Y-99873091D01*
X136385654Y-99822796D01*
X136500869Y-99736546D01*
X136587119Y-99621331D01*
X136637414Y-99486483D01*
X136643823Y-99426873D01*
X136643822Y-98530577D01*
X139142823Y-98530577D01*
X139142823Y-98727422D01*
X139173613Y-98921826D01*
X139234440Y-99109029D01*
X139323799Y-99284405D01*
X139439495Y-99443646D01*
X139578677Y-99582828D01*
X139737918Y-99698524D01*
X139812537Y-99736544D01*
X139913293Y-99787882D01*
X139913295Y-99787882D01*
X139913298Y-99787884D01*
X140013640Y-99820487D01*
X140100496Y-99848709D01*
X140294901Y-99879500D01*
X140294906Y-99879500D01*
X140491745Y-99879500D01*
X140686149Y-99848709D01*
X140765897Y-99822797D01*
X140873348Y-99787884D01*
X141048728Y-99698524D01*
X141207969Y-99582828D01*
X141347151Y-99443646D01*
X141462847Y-99284405D01*
X141552207Y-99109025D01*
X141613032Y-98921826D01*
X141643823Y-98727422D01*
X141643823Y-98530577D01*
X141613032Y-98336173D01*
X141552205Y-98148970D01*
X141462846Y-97973594D01*
X141461290Y-97971452D01*
X141347151Y-97814354D01*
X141207969Y-97675172D01*
X141048728Y-97559476D01*
X140873352Y-97470117D01*
X140686149Y-97409290D01*
X140491745Y-97378500D01*
X140491740Y-97378500D01*
X140294906Y-97378500D01*
X140294901Y-97378500D01*
X140100496Y-97409290D01*
X139913293Y-97470117D01*
X139737917Y-97559476D01*
X139647064Y-97625485D01*
X139578677Y-97675172D01*
X139578675Y-97675174D01*
X139578674Y-97675174D01*
X139439497Y-97814351D01*
X139439497Y-97814352D01*
X139439495Y-97814354D01*
X139427303Y-97831135D01*
X139323799Y-97973594D01*
X139234440Y-98148970D01*
X139173613Y-98336173D01*
X139142823Y-98530577D01*
X136643822Y-98530577D01*
X136643822Y-97831128D01*
X136637414Y-97771517D01*
X136601480Y-97675174D01*
X136587120Y-97636671D01*
X136587116Y-97636664D01*
X136500870Y-97521455D01*
X136500867Y-97521452D01*
X136385658Y-97435206D01*
X136385651Y-97435202D01*
X136250805Y-97384908D01*
X136250806Y-97384908D01*
X136191206Y-97378501D01*
X136191204Y-97378500D01*
X136191196Y-97378500D01*
X136191187Y-97378500D01*
X134595452Y-97378500D01*
X134595446Y-97378501D01*
X134535839Y-97384908D01*
X134400994Y-97435202D01*
X134400987Y-97435206D01*
X134285778Y-97521452D01*
X134285775Y-97521455D01*
X134199529Y-97636664D01*
X134199525Y-97636671D01*
X134149231Y-97771517D01*
X134144626Y-97814354D01*
X134142824Y-97831123D01*
X134142823Y-97831135D01*
X123473385Y-97831135D01*
X123448883Y-97828501D01*
X123448881Y-97828500D01*
X123448873Y-97828500D01*
X123448864Y-97828500D01*
X121453129Y-97828500D01*
X121453123Y-97828501D01*
X121393516Y-97834908D01*
X121258671Y-97885202D01*
X121258664Y-97885206D01*
X121143455Y-97971452D01*
X121143452Y-97971455D01*
X121057206Y-98086664D01*
X121057202Y-98086671D01*
X121006908Y-98221517D01*
X121000501Y-98281116D01*
X121000501Y-98281123D01*
X121000500Y-98281135D01*
X100767448Y-98281135D01*
X100767448Y-95525530D01*
X118710500Y-95525530D01*
X118710500Y-95732469D01*
X118750868Y-95935412D01*
X118750870Y-95935420D01*
X118830058Y-96126596D01*
X118945024Y-96298657D01*
X119091342Y-96444975D01*
X119091345Y-96444977D01*
X119263402Y-96559941D01*
X119454580Y-96639130D01*
X119657530Y-96679499D01*
X119657534Y-96679500D01*
X119657535Y-96679500D01*
X119864466Y-96679500D01*
X119864467Y-96679499D01*
X120067420Y-96639130D01*
X120258598Y-96559941D01*
X120430655Y-96444977D01*
X120576977Y-96298655D01*
X120691941Y-96126598D01*
X120771130Y-95935420D01*
X120811500Y-95732465D01*
X120811500Y-95525535D01*
X120771130Y-95322580D01*
X120691941Y-95131402D01*
X120576977Y-94959345D01*
X120576975Y-94959342D01*
X120430657Y-94813024D01*
X120344626Y-94755541D01*
X120258598Y-94698059D01*
X120067420Y-94618870D01*
X120067412Y-94618868D01*
X119864469Y-94578500D01*
X119864465Y-94578500D01*
X119657535Y-94578500D01*
X119657530Y-94578500D01*
X119454587Y-94618868D01*
X119454579Y-94618870D01*
X119263403Y-94698058D01*
X119091342Y-94813024D01*
X118945024Y-94959342D01*
X118830058Y-95131403D01*
X118750870Y-95322579D01*
X118750868Y-95322587D01*
X118710500Y-95525530D01*
X100767448Y-95525530D01*
X100767448Y-90491332D01*
X101160500Y-90491332D01*
X101160500Y-90766667D01*
X101160501Y-90766684D01*
X101196438Y-91039655D01*
X101196439Y-91039660D01*
X101196440Y-91039666D01*
X101196441Y-91039668D01*
X101267704Y-91305630D01*
X101373075Y-91560017D01*
X101373080Y-91560028D01*
X101427150Y-91653678D01*
X101510751Y-91798479D01*
X101510753Y-91798482D01*
X101510754Y-91798483D01*
X101678370Y-92016926D01*
X101678376Y-92016933D01*
X101873066Y-92211623D01*
X101873072Y-92211628D01*
X102091521Y-92379249D01*
X102244778Y-92467732D01*
X102329971Y-92516919D01*
X102329976Y-92516921D01*
X102329979Y-92516923D01*
X102584368Y-92622295D01*
X102850334Y-92693560D01*
X103123326Y-92729500D01*
X103123333Y-92729500D01*
X103398667Y-92729500D01*
X103398674Y-92729500D01*
X103671666Y-92693560D01*
X103937632Y-92622295D01*
X104192021Y-92516923D01*
X104430479Y-92379249D01*
X104648928Y-92211628D01*
X104843628Y-92016928D01*
X105011249Y-91798479D01*
X105148923Y-91560021D01*
X105254295Y-91305632D01*
X105325560Y-91039666D01*
X105361500Y-90766674D01*
X105361500Y-90491326D01*
X105325560Y-90218334D01*
X105254295Y-89952368D01*
X105148923Y-89697979D01*
X105148921Y-89697976D01*
X105148919Y-89697971D01*
X105099732Y-89612778D01*
X105011249Y-89459521D01*
X104843628Y-89241072D01*
X104843623Y-89241066D01*
X104648933Y-89046376D01*
X104648926Y-89046370D01*
X104430483Y-88878754D01*
X104430482Y-88878753D01*
X104430479Y-88878751D01*
X104335407Y-88823861D01*
X104192028Y-88741080D01*
X104192017Y-88741075D01*
X104123743Y-88712795D01*
X103937630Y-88635704D01*
X103820507Y-88604321D01*
X128310500Y-88604321D01*
X128310500Y-91653678D01*
X128325032Y-91726735D01*
X128325033Y-91726739D01*
X128325034Y-91726740D01*
X128380399Y-91809601D01*
X128463260Y-91864966D01*
X128463264Y-91864967D01*
X128536321Y-91879499D01*
X128536324Y-91879500D01*
X128536326Y-91879500D01*
X131585676Y-91879500D01*
X131585677Y-91879499D01*
X131658740Y-91864966D01*
X131741601Y-91809601D01*
X131796966Y-91726740D01*
X131811500Y-91653674D01*
X131811500Y-90491332D01*
X138160500Y-90491332D01*
X138160500Y-90766667D01*
X138160501Y-90766684D01*
X138196438Y-91039655D01*
X138196439Y-91039660D01*
X138196440Y-91039666D01*
X138196441Y-91039668D01*
X138267704Y-91305630D01*
X138373075Y-91560017D01*
X138373080Y-91560028D01*
X138427150Y-91653678D01*
X138510751Y-91798479D01*
X138510753Y-91798482D01*
X138510754Y-91798483D01*
X138678370Y-92016926D01*
X138678376Y-92016933D01*
X138873066Y-92211623D01*
X138873072Y-92211628D01*
X139091521Y-92379249D01*
X139244778Y-92467732D01*
X139329971Y-92516919D01*
X139329976Y-92516921D01*
X139329979Y-92516923D01*
X139584368Y-92622295D01*
X139850334Y-92693560D01*
X140123326Y-92729500D01*
X140123333Y-92729500D01*
X140398667Y-92729500D01*
X140398674Y-92729500D01*
X140671666Y-92693560D01*
X140937632Y-92622295D01*
X141192021Y-92516923D01*
X141430479Y-92379249D01*
X141648928Y-92211628D01*
X141843628Y-92016928D01*
X142011249Y-91798479D01*
X142148923Y-91560021D01*
X142254295Y-91305632D01*
X142325560Y-91039666D01*
X142361500Y-90766674D01*
X142361500Y-90491326D01*
X142325560Y-90218334D01*
X142254295Y-89952368D01*
X142148923Y-89697979D01*
X142148921Y-89697976D01*
X142148919Y-89697971D01*
X142099732Y-89612778D01*
X142011249Y-89459521D01*
X141843628Y-89241072D01*
X141843623Y-89241066D01*
X141648933Y-89046376D01*
X141648926Y-89046370D01*
X141430483Y-88878754D01*
X141430482Y-88878753D01*
X141430479Y-88878751D01*
X141335407Y-88823861D01*
X141192028Y-88741080D01*
X141192017Y-88741075D01*
X140937630Y-88635704D01*
X140804649Y-88600072D01*
X140671666Y-88564440D01*
X140671660Y-88564439D01*
X140671655Y-88564438D01*
X140398684Y-88528501D01*
X140398679Y-88528500D01*
X140398674Y-88528500D01*
X140123326Y-88528500D01*
X140123320Y-88528500D01*
X140123315Y-88528501D01*
X139850344Y-88564438D01*
X139850337Y-88564439D01*
X139850334Y-88564440D01*
X139794125Y-88579500D01*
X139584369Y-88635704D01*
X139329982Y-88741075D01*
X139329971Y-88741080D01*
X139091516Y-88878754D01*
X138873073Y-89046370D01*
X138873066Y-89046376D01*
X138678376Y-89241066D01*
X138678370Y-89241073D01*
X138510754Y-89459516D01*
X138373080Y-89697971D01*
X138373075Y-89697982D01*
X138267704Y-89952369D01*
X138196441Y-90218331D01*
X138196438Y-90218344D01*
X138160501Y-90491315D01*
X138160500Y-90491332D01*
X131811500Y-90491332D01*
X131811500Y-88604326D01*
X131811500Y-88604323D01*
X131811499Y-88604321D01*
X131796967Y-88531264D01*
X131796966Y-88531260D01*
X131741601Y-88448399D01*
X131658740Y-88393034D01*
X131658739Y-88393033D01*
X131658735Y-88393032D01*
X131585677Y-88378500D01*
X131585674Y-88378500D01*
X128536326Y-88378500D01*
X128536323Y-88378500D01*
X128463264Y-88393032D01*
X128463260Y-88393033D01*
X128380399Y-88448399D01*
X128325033Y-88531260D01*
X128325032Y-88531264D01*
X128310500Y-88604321D01*
X103820507Y-88604321D01*
X103804649Y-88600072D01*
X103671666Y-88564440D01*
X103671660Y-88564439D01*
X103671655Y-88564438D01*
X103398684Y-88528501D01*
X103398679Y-88528500D01*
X103398674Y-88528500D01*
X103123326Y-88528500D01*
X103123320Y-88528500D01*
X103123315Y-88528501D01*
X102850344Y-88564438D01*
X102850337Y-88564439D01*
X102850334Y-88564440D01*
X102794125Y-88579500D01*
X102584369Y-88635704D01*
X102329982Y-88741075D01*
X102329971Y-88741080D01*
X102091516Y-88878754D01*
X101873073Y-89046370D01*
X101873066Y-89046376D01*
X101678376Y-89241066D01*
X101678370Y-89241073D01*
X101510754Y-89459516D01*
X101373080Y-89697971D01*
X101373075Y-89697982D01*
X101267704Y-89952369D01*
X101196441Y-90218331D01*
X101196438Y-90218344D01*
X101160501Y-90491315D01*
X101160500Y-90491332D01*
X100767448Y-90491332D01*
X100767448Y-87753000D01*
X100787133Y-87685961D01*
X100839937Y-87640206D01*
X100891448Y-87629000D01*
X145261000Y-87629000D01*
X145261000Y-126128500D01*
G37*
%TD.AperFunction*%
%TD*%
M02*
