%TF.GenerationSoftware,KiCad,Pcbnew,9.0.4*%
%TF.CreationDate,2025-09-13T21:46:14+02:00*%
%TF.ProjectId,TDA7267_2x2_panel,54444137-3236-4375-9f32-78325f70616e,rev?*%
%TF.SameCoordinates,Original*%
%TF.FileFunction,Copper,L1,Top*%
%TF.FilePolarity,Positive*%
%FSLAX46Y46*%
G04 Gerber Fmt 4.6, Leading zero omitted, Abs format (unit mm)*
G04 Created by KiCad (PCBNEW 9.0.4) date 2025-09-13 21:46:14*
%MOMM*%
%LPD*%
G01*
G04 APERTURE LIST*
G04 Aperture macros list*
%AMRoundRect*
0 Rectangle with rounded corners*
0 $1 Rounding radius*
0 $2 $3 $4 $5 $6 $7 $8 $9 X,Y pos of 4 corners*
0 Add a 4 corners polygon primitive as box body*
4,1,4,$2,$3,$4,$5,$6,$7,$8,$9,$2,$3,0*
0 Add four circle primitives for the rounded corners*
1,1,$1+$1,$2,$3*
1,1,$1+$1,$4,$5*
1,1,$1+$1,$6,$7*
1,1,$1+$1,$8,$9*
0 Add four rect primitives between the rounded corners*
20,1,$1+$1,$2,$3,$4,$5,0*
20,1,$1+$1,$4,$5,$6,$7,0*
20,1,$1+$1,$6,$7,$8,$9,0*
20,1,$1+$1,$8,$9,$2,$3,0*%
G04 Aperture macros list end*
%TA.AperFunction,ComponentPad*%
%ADD10C,1.600000*%
%TD*%
%TA.AperFunction,ComponentPad*%
%ADD11RoundRect,0.250000X0.550000X0.550000X-0.550000X0.550000X-0.550000X-0.550000X0.550000X-0.550000X0*%
%TD*%
%TA.AperFunction,ComponentPad*%
%ADD12R,3.000000X3.000000*%
%TD*%
%TA.AperFunction,ComponentPad*%
%ADD13C,3.000000*%
%TD*%
%TA.AperFunction,ComponentPad*%
%ADD14C,2.340000*%
%TD*%
%TA.AperFunction,ComponentPad*%
%ADD15RoundRect,0.250000X-0.750000X-0.750000X0.750000X-0.750000X0.750000X0.750000X-0.750000X0.750000X0*%
%TD*%
%TA.AperFunction,ComponentPad*%
%ADD16C,2.000000*%
%TD*%
%TA.AperFunction,ComponentPad*%
%ADD17RoundRect,0.250000X-0.950000X-0.550000X0.950000X-0.550000X0.950000X0.550000X-0.950000X0.550000X0*%
%TD*%
%TA.AperFunction,ComponentPad*%
%ADD18O,2.400000X1.600000*%
%TD*%
%TA.AperFunction,ComponentPad*%
%ADD19R,1.800000X1.800000*%
%TD*%
%TA.AperFunction,ComponentPad*%
%ADD20C,1.800000*%
%TD*%
G04 APERTURE END LIST*
D10*
%TO.P,C1,2*%
%TO.N,Net-(C1-Pad2)*%
X123761000Y-72879000D03*
%TO.P,C1,1*%
%TO.N,Net-(C1-Pad1)*%
X128761000Y-72879000D03*
%TD*%
D11*
%TO.P,C4,1*%
%TO.N,/VCC*%
X151761000Y-109529000D03*
D10*
%TO.P,C4,2*%
%TO.N,GND*%
X147961000Y-109529000D03*
%TD*%
D11*
%TO.P,C2,1*%
%TO.N,Net-(U1-SRV)*%
X114761000Y-100129000D03*
D10*
%TO.P,C2,2*%
%TO.N,GND*%
X110961000Y-100129000D03*
%TD*%
D12*
%TO.P,VCC1,1,Pin_1*%
%TO.N,/VCC*%
X148681000Y-83129000D03*
D13*
%TO.P,VCC1,2,Pin_2*%
%TO.N,GND*%
X153761000Y-83129000D03*
%TD*%
D12*
%TO.P,VCC1,1,Pin_1*%
%TO.N,/VCC*%
X103681000Y-83129000D03*
D13*
%TO.P,VCC1,2,Pin_2*%
%TO.N,GND*%
X108761000Y-83129000D03*
%TD*%
D12*
%TO.P,IN1,1,Pin_1*%
%TO.N,Net-(IN1-Pin_1)*%
X134221000Y-124129000D03*
D13*
%TO.P,IN1,2,Pin_2*%
%TO.N,GND*%
X139301000Y-124129000D03*
%TD*%
D12*
%TO.P,VCC1,1,Pin_1*%
%TO.N,/VCC*%
X148681000Y-124129000D03*
D13*
%TO.P,VCC1,2,Pin_2*%
%TO.N,GND*%
X153761000Y-124129000D03*
%TD*%
D10*
%TO.P,C5,1*%
%TO.N,GND*%
X164761000Y-90629000D03*
%TO.P,C5,2*%
%TO.N,/VCC*%
X164761000Y-95629000D03*
%TD*%
%TO.P,C5,1*%
%TO.N,GND*%
X119761000Y-90629000D03*
%TO.P,C5,2*%
%TO.N,/VCC*%
X119761000Y-95629000D03*
%TD*%
D12*
%TO.P,OUT1,1,Pin_1*%
%TO.N,Net-(OUT1-Pin_1)*%
X130061000Y-90129000D03*
D13*
%TO.P,OUT1,2,Pin_2*%
%TO.N,GND*%
X124981000Y-90129000D03*
%TD*%
D10*
%TO.P,R1,1*%
%TO.N,Net-(C1-Pad2)*%
X117961000Y-73189000D03*
%TO.P,R1,2*%
%TO.N,Net-(U1-In)*%
X117961000Y-65569000D03*
%TD*%
D12*
%TO.P,IN1,1,Pin_1*%
%TO.N,Net-(IN1-Pin_1)*%
X179221000Y-83129000D03*
D13*
%TO.P,IN1,2,Pin_2*%
%TO.N,GND*%
X184301000Y-83129000D03*
%TD*%
D14*
%TO.P,RV1,1,1*%
%TO.N,Net-(IN1-Pin_1)*%
X116261000Y-82879000D03*
%TO.P,RV1,2,2*%
%TO.N,Net-(C1-Pad1)*%
X121261000Y-82879000D03*
%TO.P,RV1,3,3*%
%TO.N,GND*%
X126261000Y-82879000D03*
%TD*%
%TO.P,RV1,1,1*%
%TO.N,Net-(IN1-Pin_1)*%
X161261000Y-123879000D03*
%TO.P,RV1,2,2*%
%TO.N,Net-(C1-Pad1)*%
X166261000Y-123879000D03*
%TO.P,RV1,3,3*%
%TO.N,GND*%
X171261000Y-123879000D03*
%TD*%
D10*
%TO.P,R1,1*%
%TO.N,Net-(C1-Pad2)*%
X162961000Y-73189000D03*
%TO.P,R1,2*%
%TO.N,Net-(U1-In)*%
X162961000Y-65569000D03*
%TD*%
D12*
%TO.P,OUT1,1,Pin_1*%
%TO.N,Net-(OUT1-Pin_1)*%
X175061000Y-49129000D03*
D13*
%TO.P,OUT1,2,Pin_2*%
%TO.N,GND*%
X169981000Y-49129000D03*
%TD*%
D10*
%TO.P,C5,1*%
%TO.N,GND*%
X164761000Y-49629000D03*
%TO.P,C5,2*%
%TO.N,/VCC*%
X164761000Y-54629000D03*
%TD*%
D11*
%TO.P,C2,1*%
%TO.N,Net-(U1-SRV)*%
X159761000Y-100129000D03*
D10*
%TO.P,C2,2*%
%TO.N,GND*%
X155961000Y-100129000D03*
%TD*%
D15*
%TO.P,C6,1*%
%TO.N,Net-(U1-Out)*%
X180393323Y-98629000D03*
D16*
%TO.P,C6,2*%
%TO.N,Net-(OUT1-Pin_1)*%
X185393323Y-98629000D03*
%TD*%
D17*
%TO.P,U1,1,V+*%
%TO.N,/VCC*%
X167451000Y-57879000D03*
D18*
%TO.P,U1,2,Out*%
%TO.N,Net-(U1-Out)*%
X167451000Y-60419000D03*
%TO.P,U1,3,SRV*%
%TO.N,Net-(U1-SRV)*%
X167451000Y-62959000D03*
%TO.P,U1,4,In*%
%TO.N,Net-(U1-In)*%
X167451000Y-65499000D03*
%TO.P,U1,5,GND*%
%TO.N,GND*%
X175071000Y-65499000D03*
%TO.P,U1,6,GND*%
X175071000Y-62959000D03*
%TO.P,U1,7,GND*%
X175071000Y-60419000D03*
%TO.P,U1,8,GND*%
X175071000Y-57879000D03*
%TD*%
D11*
%TO.P,C2,1*%
%TO.N,Net-(U1-SRV)*%
X114761000Y-59129000D03*
D10*
%TO.P,C2,2*%
%TO.N,GND*%
X110961000Y-59129000D03*
%TD*%
D19*
%TO.P,D1,1,K*%
%TO.N,GND*%
X133221000Y-113129000D03*
D20*
%TO.P,D1,2,A*%
%TO.N,Net-(D1-A)*%
X135761000Y-113129000D03*
%TD*%
D11*
%TO.P,C2,1*%
%TO.N,Net-(U1-SRV)*%
X159761000Y-59129000D03*
D10*
%TO.P,C2,2*%
%TO.N,GND*%
X155961000Y-59129000D03*
%TD*%
D11*
%TO.P,C4,1*%
%TO.N,/VCC*%
X106761000Y-68529000D03*
D10*
%TO.P,C4,2*%
%TO.N,GND*%
X102961000Y-68529000D03*
%TD*%
D12*
%TO.P,IN1,1,Pin_1*%
%TO.N,Net-(IN1-Pin_1)*%
X134221000Y-83129000D03*
D13*
%TO.P,IN1,2,Pin_2*%
%TO.N,GND*%
X139301000Y-83129000D03*
%TD*%
D15*
%TO.P,C6,1*%
%TO.N,Net-(U1-Out)*%
X180393323Y-57629000D03*
D16*
%TO.P,C6,2*%
%TO.N,Net-(OUT1-Pin_1)*%
X185393323Y-57629000D03*
%TD*%
D10*
%TO.P,C5,1*%
%TO.N,GND*%
X119761000Y-49629000D03*
%TO.P,C5,2*%
%TO.N,/VCC*%
X119761000Y-54629000D03*
%TD*%
%TO.P,R2,1*%
%TO.N,Net-(D1-A)*%
X178951000Y-65629000D03*
%TO.P,R2,2*%
%TO.N,/VCC*%
X186571000Y-65629000D03*
%TD*%
%TO.P,C1,1*%
%TO.N,Net-(C1-Pad1)*%
X173761000Y-113879000D03*
%TO.P,C1,2*%
%TO.N,Net-(C1-Pad2)*%
X168761000Y-113879000D03*
%TD*%
%TO.P,C3,1*%
%TO.N,GND*%
X112961000Y-112689000D03*
%TO.P,C3,2*%
%TO.N,Net-(U1-In)*%
X112961000Y-107689000D03*
%TD*%
%TO.P,R2,1*%
%TO.N,Net-(D1-A)*%
X178951000Y-106629000D03*
%TO.P,R2,2*%
%TO.N,/VCC*%
X186571000Y-106629000D03*
%TD*%
%TO.P,R1,1*%
%TO.N,Net-(C1-Pad2)*%
X117961000Y-114189000D03*
%TO.P,R1,2*%
%TO.N,Net-(U1-In)*%
X117961000Y-106569000D03*
%TD*%
D12*
%TO.P,OUT1,1,Pin_1*%
%TO.N,Net-(OUT1-Pin_1)*%
X130061000Y-49129000D03*
D13*
%TO.P,OUT1,2,Pin_2*%
%TO.N,GND*%
X124981000Y-49129000D03*
%TD*%
D19*
%TO.P,D1,1,K*%
%TO.N,GND*%
X178221000Y-72129000D03*
D20*
%TO.P,D1,2,A*%
%TO.N,Net-(D1-A)*%
X180761000Y-72129000D03*
%TD*%
D10*
%TO.P,C3,1*%
%TO.N,GND*%
X112961000Y-71689000D03*
%TO.P,C3,2*%
%TO.N,Net-(U1-In)*%
X112961000Y-66689000D03*
%TD*%
D11*
%TO.P,C4,1*%
%TO.N,/VCC*%
X151761000Y-68529000D03*
D10*
%TO.P,C4,2*%
%TO.N,GND*%
X147961000Y-68529000D03*
%TD*%
%TO.P,R1,1*%
%TO.N,Net-(C1-Pad2)*%
X162961000Y-114189000D03*
%TO.P,R1,2*%
%TO.N,Net-(U1-In)*%
X162961000Y-106569000D03*
%TD*%
D17*
%TO.P,U1,1,V+*%
%TO.N,/VCC*%
X122451000Y-57879000D03*
D18*
%TO.P,U1,2,Out*%
%TO.N,Net-(U1-Out)*%
X122451000Y-60419000D03*
%TO.P,U1,3,SRV*%
%TO.N,Net-(U1-SRV)*%
X122451000Y-62959000D03*
%TO.P,U1,4,In*%
%TO.N,Net-(U1-In)*%
X122451000Y-65499000D03*
%TO.P,U1,5,GND*%
%TO.N,GND*%
X130071000Y-65499000D03*
%TO.P,U1,6,GND*%
X130071000Y-62959000D03*
%TO.P,U1,7,GND*%
X130071000Y-60419000D03*
%TO.P,U1,8,GND*%
X130071000Y-57879000D03*
%TD*%
D17*
%TO.P,U1,1,V+*%
%TO.N,/VCC*%
X122451000Y-98879000D03*
D18*
%TO.P,U1,2,Out*%
%TO.N,Net-(U1-Out)*%
X122451000Y-101419000D03*
%TO.P,U1,3,SRV*%
%TO.N,Net-(U1-SRV)*%
X122451000Y-103959000D03*
%TO.P,U1,4,In*%
%TO.N,Net-(U1-In)*%
X122451000Y-106499000D03*
%TO.P,U1,5,GND*%
%TO.N,GND*%
X130071000Y-106499000D03*
%TO.P,U1,6,GND*%
X130071000Y-103959000D03*
%TO.P,U1,7,GND*%
X130071000Y-101419000D03*
%TO.P,U1,8,GND*%
X130071000Y-98879000D03*
%TD*%
D19*
%TO.P,D1,1,K*%
%TO.N,GND*%
X133221000Y-72129000D03*
D20*
%TO.P,D1,2,A*%
%TO.N,Net-(D1-A)*%
X135761000Y-72129000D03*
%TD*%
D10*
%TO.P,C3,1*%
%TO.N,GND*%
X157961000Y-71689000D03*
%TO.P,C3,2*%
%TO.N,Net-(U1-In)*%
X157961000Y-66689000D03*
%TD*%
D12*
%TO.P,OUT1,1,Pin_1*%
%TO.N,Net-(OUT1-Pin_1)*%
X175061000Y-90129000D03*
D13*
%TO.P,OUT1,2,Pin_2*%
%TO.N,GND*%
X169981000Y-90129000D03*
%TD*%
D10*
%TO.P,C3,1*%
%TO.N,GND*%
X157961000Y-112689000D03*
%TO.P,C3,2*%
%TO.N,Net-(U1-In)*%
X157961000Y-107689000D03*
%TD*%
D12*
%TO.P,VCC1,1,Pin_1*%
%TO.N,/VCC*%
X103681000Y-124129000D03*
D13*
%TO.P,VCC1,2,Pin_2*%
%TO.N,GND*%
X108761000Y-124129000D03*
%TD*%
D10*
%TO.P,R2,1*%
%TO.N,Net-(D1-A)*%
X133951000Y-65629000D03*
%TO.P,R2,2*%
%TO.N,/VCC*%
X141571000Y-65629000D03*
%TD*%
D14*
%TO.P,RV1,1,1*%
%TO.N,Net-(IN1-Pin_1)*%
X116261000Y-123879000D03*
%TO.P,RV1,2,2*%
%TO.N,Net-(C1-Pad1)*%
X121261000Y-123879000D03*
%TO.P,RV1,3,3*%
%TO.N,GND*%
X126261000Y-123879000D03*
%TD*%
D12*
%TO.P,IN1,1,Pin_1*%
%TO.N,Net-(IN1-Pin_1)*%
X179221000Y-124129000D03*
D13*
%TO.P,IN1,2,Pin_2*%
%TO.N,GND*%
X184301000Y-124129000D03*
%TD*%
D11*
%TO.P,C4,1*%
%TO.N,/VCC*%
X106761000Y-109529000D03*
D10*
%TO.P,C4,2*%
%TO.N,GND*%
X102961000Y-109529000D03*
%TD*%
D15*
%TO.P,C6,1*%
%TO.N,Net-(U1-Out)*%
X135393323Y-98629000D03*
D16*
%TO.P,C6,2*%
%TO.N,Net-(OUT1-Pin_1)*%
X140393323Y-98629000D03*
%TD*%
D17*
%TO.P,U1,1,V+*%
%TO.N,/VCC*%
X167451000Y-98879000D03*
D18*
%TO.P,U1,2,Out*%
%TO.N,Net-(U1-Out)*%
X167451000Y-101419000D03*
%TO.P,U1,3,SRV*%
%TO.N,Net-(U1-SRV)*%
X167451000Y-103959000D03*
%TO.P,U1,4,In*%
%TO.N,Net-(U1-In)*%
X167451000Y-106499000D03*
%TO.P,U1,5,GND*%
%TO.N,GND*%
X175071000Y-106499000D03*
%TO.P,U1,6,GND*%
X175071000Y-103959000D03*
%TO.P,U1,7,GND*%
X175071000Y-101419000D03*
%TO.P,U1,8,GND*%
X175071000Y-98879000D03*
%TD*%
D10*
%TO.P,C1,1*%
%TO.N,Net-(C1-Pad1)*%
X173761000Y-72879000D03*
%TO.P,C1,2*%
%TO.N,Net-(C1-Pad2)*%
X168761000Y-72879000D03*
%TD*%
D15*
%TO.P,C6,1*%
%TO.N,Net-(U1-Out)*%
X135393323Y-57629000D03*
D16*
%TO.P,C6,2*%
%TO.N,Net-(OUT1-Pin_1)*%
X140393323Y-57629000D03*
%TD*%
D10*
%TO.P,R2,1*%
%TO.N,Net-(D1-A)*%
X133951000Y-106629000D03*
%TO.P,R2,2*%
%TO.N,/VCC*%
X141571000Y-106629000D03*
%TD*%
D19*
%TO.P,D1,1,K*%
%TO.N,GND*%
X178221000Y-113129000D03*
D20*
%TO.P,D1,2,A*%
%TO.N,Net-(D1-A)*%
X180761000Y-113129000D03*
%TD*%
D10*
%TO.P,C1,1*%
%TO.N,Net-(C1-Pad1)*%
X128761000Y-113879000D03*
%TO.P,C1,2*%
%TO.N,Net-(C1-Pad2)*%
X123761000Y-113879000D03*
%TD*%
D14*
%TO.P,RV1,1,1*%
%TO.N,Net-(IN1-Pin_1)*%
X161261000Y-82879000D03*
%TO.P,RV1,2,2*%
%TO.N,Net-(C1-Pad1)*%
X166261000Y-82879000D03*
%TO.P,RV1,3,3*%
%TO.N,GND*%
X171261000Y-82879000D03*
%TD*%
%TA.AperFunction,Conductor*%
%TO.N,GND*%
G36*
X187709487Y-87648685D02*
G01*
X187755242Y-87701489D01*
X187766448Y-87753000D01*
X187766448Y-106034641D01*
X187746763Y-106101680D01*
X187693959Y-106147435D01*
X187624801Y-106157379D01*
X187561245Y-106128354D01*
X187531963Y-106090936D01*
X187512231Y-106052211D01*
X187410414Y-105912072D01*
X187287928Y-105789586D01*
X187147788Y-105687768D01*
X186993445Y-105609127D01*
X186828701Y-105555598D01*
X186828699Y-105555597D01*
X186828698Y-105555597D01*
X186697271Y-105534781D01*
X186657611Y-105528500D01*
X186484389Y-105528500D01*
X186444728Y-105534781D01*
X186313302Y-105555597D01*
X186148552Y-105609128D01*
X185994211Y-105687768D01*
X185936652Y-105729588D01*
X185854072Y-105789586D01*
X185854070Y-105789588D01*
X185854069Y-105789588D01*
X185731588Y-105912069D01*
X185731588Y-105912070D01*
X185731586Y-105912072D01*
X185724220Y-105922211D01*
X185629768Y-106052211D01*
X185551128Y-106206552D01*
X185497597Y-106371302D01*
X185470500Y-106542389D01*
X185470500Y-106715610D01*
X185491719Y-106849586D01*
X185497598Y-106886701D01*
X185551127Y-107051445D01*
X185629768Y-107205788D01*
X185731586Y-107345928D01*
X185854072Y-107468414D01*
X185994212Y-107570232D01*
X186148555Y-107648873D01*
X186313299Y-107702402D01*
X186484389Y-107729500D01*
X186484390Y-107729500D01*
X186657610Y-107729500D01*
X186657611Y-107729500D01*
X186828701Y-107702402D01*
X186993445Y-107648873D01*
X187147788Y-107570232D01*
X187287928Y-107468414D01*
X187410414Y-107345928D01*
X187512232Y-107205788D01*
X187531963Y-107167064D01*
X187579937Y-107116267D01*
X187647758Y-107099472D01*
X187713893Y-107122009D01*
X187757345Y-107176724D01*
X187766448Y-107223358D01*
X187766448Y-126004500D01*
X187746763Y-126071539D01*
X187693959Y-126117294D01*
X187642448Y-126128500D01*
X180921520Y-126128500D01*
X180854481Y-126108815D01*
X180808726Y-126056011D01*
X180798782Y-125986853D01*
X180827807Y-125923297D01*
X180871430Y-125891067D01*
X180893765Y-125881206D01*
X180973206Y-125801765D01*
X181018585Y-125698991D01*
X181021500Y-125673865D01*
X181021499Y-122584136D01*
X181021497Y-122584117D01*
X181018586Y-122559012D01*
X181018585Y-122559010D01*
X181018585Y-122559009D01*
X180973206Y-122456235D01*
X180893765Y-122376794D01*
X180893763Y-122376793D01*
X180790992Y-122331415D01*
X180765865Y-122328500D01*
X177676143Y-122328500D01*
X177676117Y-122328502D01*
X177651012Y-122331413D01*
X177651008Y-122331415D01*
X177548235Y-122376793D01*
X177468794Y-122456234D01*
X177423415Y-122559006D01*
X177423415Y-122559008D01*
X177420500Y-122584131D01*
X177420500Y-125673856D01*
X177420502Y-125673882D01*
X177423413Y-125698987D01*
X177423415Y-125698991D01*
X177468793Y-125801764D01*
X177468794Y-125801765D01*
X177548235Y-125881206D01*
X177570564Y-125891065D01*
X177570566Y-125891066D01*
X177623942Y-125936152D01*
X177644469Y-126002939D01*
X177625630Y-126070221D01*
X177573407Y-126116637D01*
X177520479Y-126128500D01*
X150381520Y-126128500D01*
X150314481Y-126108815D01*
X150268726Y-126056011D01*
X150258782Y-125986853D01*
X150287807Y-125923297D01*
X150331430Y-125891067D01*
X150353765Y-125881206D01*
X150433206Y-125801765D01*
X150478585Y-125698991D01*
X150481500Y-125673865D01*
X150481499Y-123763269D01*
X159790500Y-123763269D01*
X159790500Y-123994730D01*
X159826709Y-124223344D01*
X159898232Y-124443473D01*
X159898233Y-124443476D01*
X160003318Y-124649713D01*
X160139359Y-124836959D01*
X160139363Y-124836964D01*
X160303035Y-125000636D01*
X160303040Y-125000640D01*
X160466366Y-125119302D01*
X160490290Y-125136684D01*
X160625106Y-125205376D01*
X160696523Y-125241766D01*
X160696526Y-125241767D01*
X160806590Y-125277528D01*
X160916657Y-125313291D01*
X161145269Y-125349500D01*
X161145270Y-125349500D01*
X161376730Y-125349500D01*
X161376731Y-125349500D01*
X161605343Y-125313291D01*
X161825476Y-125241766D01*
X162031710Y-125136684D01*
X162218966Y-125000635D01*
X162382635Y-124836966D01*
X162518684Y-124649710D01*
X162623766Y-124443476D01*
X162695291Y-124223343D01*
X162731500Y-123994731D01*
X162731500Y-123763269D01*
X164790500Y-123763269D01*
X164790500Y-123994730D01*
X164826709Y-124223344D01*
X164898232Y-124443473D01*
X164898233Y-124443476D01*
X165003318Y-124649713D01*
X165139359Y-124836959D01*
X165139363Y-124836964D01*
X165303035Y-125000636D01*
X165303040Y-125000640D01*
X165466366Y-125119302D01*
X165490290Y-125136684D01*
X165625106Y-125205376D01*
X165696523Y-125241766D01*
X165696526Y-125241767D01*
X165806590Y-125277528D01*
X165916657Y-125313291D01*
X166145269Y-125349500D01*
X166145270Y-125349500D01*
X166376730Y-125349500D01*
X166376731Y-125349500D01*
X166605343Y-125313291D01*
X166825476Y-125241766D01*
X167031710Y-125136684D01*
X167218966Y-125000635D01*
X167382635Y-124836966D01*
X167518684Y-124649710D01*
X167623766Y-124443476D01*
X167695291Y-124223343D01*
X167731500Y-123994731D01*
X167731500Y-123763269D01*
X167695291Y-123534657D01*
X167623766Y-123314524D01*
X167623766Y-123314523D01*
X167587376Y-123243106D01*
X167518684Y-123108290D01*
X167501302Y-123084366D01*
X167382640Y-122921040D01*
X167382636Y-122921035D01*
X167218964Y-122757363D01*
X167218959Y-122757359D01*
X167031713Y-122621318D01*
X167031712Y-122621317D01*
X167031710Y-122621316D01*
X166958703Y-122584117D01*
X166825476Y-122516233D01*
X166825473Y-122516232D01*
X166605344Y-122444709D01*
X166491037Y-122426604D01*
X166376731Y-122408500D01*
X166145269Y-122408500D01*
X166069065Y-122420569D01*
X165916655Y-122444709D01*
X165696526Y-122516232D01*
X165696523Y-122516233D01*
X165490286Y-122621318D01*
X165303040Y-122757359D01*
X165303035Y-122757363D01*
X165139363Y-122921035D01*
X165139359Y-122921040D01*
X165003318Y-123108286D01*
X164898233Y-123314523D01*
X164898232Y-123314526D01*
X164826709Y-123534655D01*
X164790500Y-123763269D01*
X162731500Y-123763269D01*
X162695291Y-123534657D01*
X162623766Y-123314524D01*
X162623766Y-123314523D01*
X162587376Y-123243106D01*
X162518684Y-123108290D01*
X162501302Y-123084366D01*
X162382640Y-122921040D01*
X162382636Y-122921035D01*
X162218964Y-122757363D01*
X162218959Y-122757359D01*
X162031713Y-122621318D01*
X162031712Y-122621317D01*
X162031710Y-122621316D01*
X161958703Y-122584117D01*
X161825476Y-122516233D01*
X161825473Y-122516232D01*
X161605344Y-122444709D01*
X161491037Y-122426604D01*
X161376731Y-122408500D01*
X161145269Y-122408500D01*
X161069065Y-122420569D01*
X160916655Y-122444709D01*
X160696526Y-122516232D01*
X160696523Y-122516233D01*
X160490286Y-122621318D01*
X160303040Y-122757359D01*
X160303035Y-122757363D01*
X160139363Y-122921035D01*
X160139359Y-122921040D01*
X160003318Y-123108286D01*
X159898233Y-123314523D01*
X159898232Y-123314526D01*
X159826709Y-123534655D01*
X159790500Y-123763269D01*
X150481499Y-123763269D01*
X150481499Y-122584136D01*
X150481497Y-122584117D01*
X150478586Y-122559012D01*
X150478585Y-122559010D01*
X150478585Y-122559009D01*
X150433206Y-122456235D01*
X150353765Y-122376794D01*
X150353763Y-122376793D01*
X150250992Y-122331415D01*
X150225865Y-122328500D01*
X147136143Y-122328500D01*
X147136117Y-122328502D01*
X147111012Y-122331413D01*
X147111008Y-122331415D01*
X147008235Y-122376793D01*
X146928794Y-122456234D01*
X146883415Y-122559006D01*
X146883415Y-122559008D01*
X146880500Y-122584131D01*
X146880500Y-125673856D01*
X146880502Y-125673882D01*
X146883413Y-125698987D01*
X146883415Y-125698991D01*
X146928793Y-125801764D01*
X146928794Y-125801765D01*
X147008235Y-125881206D01*
X147030564Y-125891065D01*
X147030566Y-125891066D01*
X147083942Y-125936152D01*
X147104469Y-126002939D01*
X147085630Y-126070221D01*
X147033407Y-126116637D01*
X146980479Y-126128500D01*
X135921520Y-126128500D01*
X135854481Y-126108815D01*
X135808726Y-126056011D01*
X135798782Y-125986853D01*
X135827807Y-125923297D01*
X135871430Y-125891067D01*
X135893765Y-125881206D01*
X135973206Y-125801765D01*
X136018585Y-125698991D01*
X136021500Y-125673865D01*
X136021499Y-122584136D01*
X136021497Y-122584117D01*
X136018586Y-122559012D01*
X136018585Y-122559010D01*
X136018585Y-122559009D01*
X135973206Y-122456235D01*
X135893765Y-122376794D01*
X135893763Y-122376793D01*
X135790992Y-122331415D01*
X135765865Y-122328500D01*
X132676143Y-122328500D01*
X132676117Y-122328502D01*
X132651012Y-122331413D01*
X132651008Y-122331415D01*
X132548235Y-122376793D01*
X132468794Y-122456234D01*
X132423415Y-122559006D01*
X132423415Y-122559008D01*
X132420500Y-122584131D01*
X132420500Y-125673856D01*
X132420502Y-125673882D01*
X132423413Y-125698987D01*
X132423415Y-125698991D01*
X132468793Y-125801764D01*
X132468794Y-125801765D01*
X132548235Y-125881206D01*
X132570564Y-125891065D01*
X132570566Y-125891066D01*
X132623942Y-125936152D01*
X132644469Y-126002939D01*
X132625630Y-126070221D01*
X132573407Y-126116637D01*
X132520479Y-126128500D01*
X105381520Y-126128500D01*
X105314481Y-126108815D01*
X105268726Y-126056011D01*
X105258782Y-125986853D01*
X105287807Y-125923297D01*
X105331430Y-125891067D01*
X105353765Y-125881206D01*
X105433206Y-125801765D01*
X105478585Y-125698991D01*
X105481500Y-125673865D01*
X105481499Y-123763269D01*
X114790500Y-123763269D01*
X114790500Y-123994730D01*
X114826709Y-124223344D01*
X114898232Y-124443473D01*
X114898233Y-124443476D01*
X115003318Y-124649713D01*
X115139359Y-124836959D01*
X115139363Y-124836964D01*
X115303035Y-125000636D01*
X115303040Y-125000640D01*
X115466366Y-125119302D01*
X115490290Y-125136684D01*
X115625106Y-125205376D01*
X115696523Y-125241766D01*
X115696526Y-125241767D01*
X115806590Y-125277528D01*
X115916657Y-125313291D01*
X116145269Y-125349500D01*
X116145270Y-125349500D01*
X116376730Y-125349500D01*
X116376731Y-125349500D01*
X116605343Y-125313291D01*
X116825476Y-125241766D01*
X117031710Y-125136684D01*
X117218966Y-125000635D01*
X117382635Y-124836966D01*
X117518684Y-124649710D01*
X117623766Y-124443476D01*
X117695291Y-124223343D01*
X117731500Y-123994731D01*
X117731500Y-123763269D01*
X119790500Y-123763269D01*
X119790500Y-123994730D01*
X119826709Y-124223344D01*
X119898232Y-124443473D01*
X119898233Y-124443476D01*
X120003318Y-124649713D01*
X120139359Y-124836959D01*
X120139363Y-124836964D01*
X120303035Y-125000636D01*
X120303040Y-125000640D01*
X120466366Y-125119302D01*
X120490290Y-125136684D01*
X120625106Y-125205376D01*
X120696523Y-125241766D01*
X120696526Y-125241767D01*
X120806590Y-125277528D01*
X120916657Y-125313291D01*
X121145269Y-125349500D01*
X121145270Y-125349500D01*
X121376730Y-125349500D01*
X121376731Y-125349500D01*
X121605343Y-125313291D01*
X121825476Y-125241766D01*
X122031710Y-125136684D01*
X122218966Y-125000635D01*
X122382635Y-124836966D01*
X122518684Y-124649710D01*
X122623766Y-124443476D01*
X122695291Y-124223343D01*
X122731500Y-123994731D01*
X122731500Y-123763269D01*
X122695291Y-123534657D01*
X122623766Y-123314524D01*
X122623766Y-123314523D01*
X122587376Y-123243106D01*
X122518684Y-123108290D01*
X122501302Y-123084366D01*
X122382640Y-122921040D01*
X122382636Y-122921035D01*
X122218964Y-122757363D01*
X122218959Y-122757359D01*
X122031713Y-122621318D01*
X122031712Y-122621317D01*
X122031710Y-122621316D01*
X121958703Y-122584117D01*
X121825476Y-122516233D01*
X121825473Y-122516232D01*
X121605344Y-122444709D01*
X121491037Y-122426604D01*
X121376731Y-122408500D01*
X121145269Y-122408500D01*
X121069065Y-122420569D01*
X120916655Y-122444709D01*
X120696526Y-122516232D01*
X120696523Y-122516233D01*
X120490286Y-122621318D01*
X120303040Y-122757359D01*
X120303035Y-122757363D01*
X120139363Y-122921035D01*
X120139359Y-122921040D01*
X120003318Y-123108286D01*
X119898233Y-123314523D01*
X119898232Y-123314526D01*
X119826709Y-123534655D01*
X119790500Y-123763269D01*
X117731500Y-123763269D01*
X117695291Y-123534657D01*
X117623766Y-123314524D01*
X117623766Y-123314523D01*
X117587376Y-123243106D01*
X117518684Y-123108290D01*
X117501302Y-123084366D01*
X117382640Y-122921040D01*
X117382636Y-122921035D01*
X117218964Y-122757363D01*
X117218959Y-122757359D01*
X117031713Y-122621318D01*
X117031712Y-122621317D01*
X117031710Y-122621316D01*
X116958703Y-122584117D01*
X116825476Y-122516233D01*
X116825473Y-122516232D01*
X116605344Y-122444709D01*
X116491037Y-122426604D01*
X116376731Y-122408500D01*
X116145269Y-122408500D01*
X116069065Y-122420569D01*
X115916655Y-122444709D01*
X115696526Y-122516232D01*
X115696523Y-122516233D01*
X115490286Y-122621318D01*
X115303040Y-122757359D01*
X115303035Y-122757363D01*
X115139363Y-122921035D01*
X115139359Y-122921040D01*
X115003318Y-123108286D01*
X114898233Y-123314523D01*
X114898232Y-123314526D01*
X114826709Y-123534655D01*
X114790500Y-123763269D01*
X105481499Y-123763269D01*
X105481499Y-122584136D01*
X105481497Y-122584117D01*
X105478586Y-122559012D01*
X105478585Y-122559010D01*
X105478585Y-122559009D01*
X105433206Y-122456235D01*
X105353765Y-122376794D01*
X105353763Y-122376793D01*
X105250992Y-122331415D01*
X105225865Y-122328500D01*
X102136143Y-122328500D01*
X102136117Y-122328502D01*
X102111012Y-122331413D01*
X102111008Y-122331415D01*
X102008235Y-122376793D01*
X101928794Y-122456234D01*
X101883415Y-122559006D01*
X101883415Y-122559008D01*
X101880500Y-122584131D01*
X101880500Y-125673856D01*
X101880502Y-125673882D01*
X101883413Y-125698987D01*
X101883415Y-125698991D01*
X101928793Y-125801764D01*
X101928794Y-125801765D01*
X102008235Y-125881206D01*
X102030564Y-125891065D01*
X102030566Y-125891066D01*
X102083942Y-125936152D01*
X102104469Y-126002939D01*
X102085630Y-126070221D01*
X102033407Y-126116637D01*
X101980479Y-126128500D01*
X100891448Y-126128500D01*
X100824409Y-126108815D01*
X100778654Y-126056011D01*
X100767448Y-126004500D01*
X100767448Y-116991332D01*
X101160500Y-116991332D01*
X101160500Y-117266667D01*
X101160501Y-117266684D01*
X101196438Y-117539655D01*
X101196439Y-117539660D01*
X101196440Y-117539666D01*
X101196441Y-117539668D01*
X101267704Y-117805630D01*
X101373075Y-118060017D01*
X101373080Y-118060028D01*
X101455861Y-118203407D01*
X101510751Y-118298479D01*
X101510753Y-118298482D01*
X101510754Y-118298483D01*
X101678370Y-118516926D01*
X101678376Y-118516933D01*
X101873066Y-118711623D01*
X101873072Y-118711628D01*
X102091521Y-118879249D01*
X102244778Y-118967732D01*
X102329971Y-119016919D01*
X102329976Y-119016921D01*
X102329979Y-119016923D01*
X102584368Y-119122295D01*
X102850334Y-119193560D01*
X103123326Y-119229500D01*
X103123333Y-119229500D01*
X103398667Y-119229500D01*
X103398674Y-119229500D01*
X103671666Y-119193560D01*
X103937632Y-119122295D01*
X104192021Y-119016923D01*
X104430479Y-118879249D01*
X104648928Y-118711628D01*
X104843628Y-118516928D01*
X105011249Y-118298479D01*
X105148923Y-118060021D01*
X105254295Y-117805632D01*
X105325560Y-117539666D01*
X105361500Y-117266674D01*
X105361500Y-116991332D01*
X138160500Y-116991332D01*
X138160500Y-117266667D01*
X138160501Y-117266684D01*
X138196438Y-117539655D01*
X138196439Y-117539660D01*
X138196440Y-117539666D01*
X138196441Y-117539668D01*
X138267704Y-117805630D01*
X138373075Y-118060017D01*
X138373080Y-118060028D01*
X138455861Y-118203407D01*
X138510751Y-118298479D01*
X138510753Y-118298482D01*
X138510754Y-118298483D01*
X138678370Y-118516926D01*
X138678376Y-118516933D01*
X138873066Y-118711623D01*
X138873072Y-118711628D01*
X139091521Y-118879249D01*
X139244778Y-118967732D01*
X139329971Y-119016919D01*
X139329976Y-119016921D01*
X139329979Y-119016923D01*
X139584368Y-119122295D01*
X139850334Y-119193560D01*
X140123326Y-119229500D01*
X140123333Y-119229500D01*
X140398667Y-119229500D01*
X140398674Y-119229500D01*
X140671666Y-119193560D01*
X140937632Y-119122295D01*
X141192021Y-119016923D01*
X141430479Y-118879249D01*
X141648928Y-118711628D01*
X141843628Y-118516928D01*
X142011249Y-118298479D01*
X142148923Y-118060021D01*
X142254295Y-117805632D01*
X142325560Y-117539666D01*
X142361500Y-117266674D01*
X142361500Y-116991332D01*
X146160500Y-116991332D01*
X146160500Y-117266667D01*
X146160501Y-117266684D01*
X146196438Y-117539655D01*
X146196439Y-117539660D01*
X146196440Y-117539666D01*
X146196441Y-117539668D01*
X146267704Y-117805630D01*
X146373075Y-118060017D01*
X146373080Y-118060028D01*
X146455861Y-118203407D01*
X146510751Y-118298479D01*
X146510753Y-118298482D01*
X146510754Y-118298483D01*
X146678370Y-118516926D01*
X146678376Y-118516933D01*
X146873066Y-118711623D01*
X146873072Y-118711628D01*
X147091521Y-118879249D01*
X147244778Y-118967732D01*
X147329971Y-119016919D01*
X147329976Y-119016921D01*
X147329979Y-119016923D01*
X147584368Y-119122295D01*
X147850334Y-119193560D01*
X148123326Y-119229500D01*
X148123333Y-119229500D01*
X148398667Y-119229500D01*
X148398674Y-119229500D01*
X148671666Y-119193560D01*
X148937632Y-119122295D01*
X149192021Y-119016923D01*
X149430479Y-118879249D01*
X149648928Y-118711628D01*
X149843628Y-118516928D01*
X150011249Y-118298479D01*
X150148923Y-118060021D01*
X150254295Y-117805632D01*
X150325560Y-117539666D01*
X150361500Y-117266674D01*
X150361500Y-116991332D01*
X183160500Y-116991332D01*
X183160500Y-117266667D01*
X183160501Y-117266684D01*
X183196438Y-117539655D01*
X183196439Y-117539660D01*
X183196440Y-117539666D01*
X183196441Y-117539668D01*
X183267704Y-117805630D01*
X183373075Y-118060017D01*
X183373080Y-118060028D01*
X183455861Y-118203407D01*
X183510751Y-118298479D01*
X183510753Y-118298482D01*
X183510754Y-118298483D01*
X183678370Y-118516926D01*
X183678376Y-118516933D01*
X183873066Y-118711623D01*
X183873072Y-118711628D01*
X184091521Y-118879249D01*
X184244778Y-118967732D01*
X184329971Y-119016919D01*
X184329976Y-119016921D01*
X184329979Y-119016923D01*
X184584368Y-119122295D01*
X184850334Y-119193560D01*
X185123326Y-119229500D01*
X185123333Y-119229500D01*
X185398667Y-119229500D01*
X185398674Y-119229500D01*
X185671666Y-119193560D01*
X185937632Y-119122295D01*
X186192021Y-119016923D01*
X186430479Y-118879249D01*
X186648928Y-118711628D01*
X186843628Y-118516928D01*
X187011249Y-118298479D01*
X187148923Y-118060021D01*
X187254295Y-117805632D01*
X187325560Y-117539666D01*
X187361500Y-117266674D01*
X187361500Y-116991326D01*
X187325560Y-116718334D01*
X187254295Y-116452368D01*
X187148923Y-116197979D01*
X187148921Y-116197976D01*
X187148919Y-116197971D01*
X187099732Y-116112778D01*
X187011249Y-115959521D01*
X186843628Y-115741072D01*
X186843623Y-115741066D01*
X186648933Y-115546376D01*
X186648926Y-115546370D01*
X186430483Y-115378754D01*
X186430482Y-115378753D01*
X186430479Y-115378751D01*
X186335407Y-115323861D01*
X186192028Y-115241080D01*
X186192017Y-115241075D01*
X185937630Y-115135704D01*
X185804649Y-115100072D01*
X185671666Y-115064440D01*
X185671660Y-115064439D01*
X185671655Y-115064438D01*
X185398684Y-115028501D01*
X185398679Y-115028500D01*
X185398674Y-115028500D01*
X185123326Y-115028500D01*
X185123320Y-115028500D01*
X185123315Y-115028501D01*
X184850344Y-115064438D01*
X184850337Y-115064439D01*
X184850334Y-115064440D01*
X184794125Y-115079500D01*
X184584369Y-115135704D01*
X184329982Y-115241075D01*
X184329971Y-115241080D01*
X184091516Y-115378754D01*
X183873073Y-115546370D01*
X183873066Y-115546376D01*
X183678376Y-115741066D01*
X183678370Y-115741073D01*
X183510754Y-115959516D01*
X183373080Y-116197971D01*
X183373075Y-116197982D01*
X183267704Y-116452369D01*
X183196441Y-116718331D01*
X183196438Y-116718344D01*
X183160501Y-116991315D01*
X183160500Y-116991332D01*
X150361500Y-116991332D01*
X150361500Y-116991326D01*
X150325560Y-116718334D01*
X150254295Y-116452368D01*
X150148923Y-116197979D01*
X150148921Y-116197976D01*
X150148919Y-116197971D01*
X150099732Y-116112778D01*
X150011249Y-115959521D01*
X149843628Y-115741072D01*
X149843623Y-115741066D01*
X149648933Y-115546376D01*
X149648926Y-115546370D01*
X149430483Y-115378754D01*
X149430482Y-115378753D01*
X149430479Y-115378751D01*
X149335407Y-115323861D01*
X149192028Y-115241080D01*
X149192017Y-115241075D01*
X148937630Y-115135704D01*
X148804649Y-115100072D01*
X148671666Y-115064440D01*
X148671660Y-115064439D01*
X148671655Y-115064438D01*
X148398684Y-115028501D01*
X148398679Y-115028500D01*
X148398674Y-115028500D01*
X148123326Y-115028500D01*
X148123320Y-115028500D01*
X148123315Y-115028501D01*
X147850344Y-115064438D01*
X147850337Y-115064439D01*
X147850334Y-115064440D01*
X147794125Y-115079500D01*
X147584369Y-115135704D01*
X147329982Y-115241075D01*
X147329971Y-115241080D01*
X147091516Y-115378754D01*
X146873073Y-115546370D01*
X146873066Y-115546376D01*
X146678376Y-115741066D01*
X146678370Y-115741073D01*
X146510754Y-115959516D01*
X146373080Y-116197971D01*
X146373075Y-116197982D01*
X146267704Y-116452369D01*
X146196441Y-116718331D01*
X146196438Y-116718344D01*
X146160501Y-116991315D01*
X146160500Y-116991332D01*
X142361500Y-116991332D01*
X142361500Y-116991326D01*
X142325560Y-116718334D01*
X142254295Y-116452368D01*
X142148923Y-116197979D01*
X142148921Y-116197976D01*
X142148919Y-116197971D01*
X142099732Y-116112778D01*
X142011249Y-115959521D01*
X141843628Y-115741072D01*
X141843623Y-115741066D01*
X141648933Y-115546376D01*
X141648926Y-115546370D01*
X141430483Y-115378754D01*
X141430482Y-115378753D01*
X141430479Y-115378751D01*
X141335407Y-115323861D01*
X141192028Y-115241080D01*
X141192017Y-115241075D01*
X140937630Y-115135704D01*
X140804649Y-115100072D01*
X140671666Y-115064440D01*
X140671660Y-115064439D01*
X140671655Y-115064438D01*
X140398684Y-115028501D01*
X140398679Y-115028500D01*
X140398674Y-115028500D01*
X140123326Y-115028500D01*
X140123320Y-115028500D01*
X140123315Y-115028501D01*
X139850344Y-115064438D01*
X139850337Y-115064439D01*
X139850334Y-115064440D01*
X139794125Y-115079500D01*
X139584369Y-115135704D01*
X139329982Y-115241075D01*
X139329971Y-115241080D01*
X139091516Y-115378754D01*
X138873073Y-115546370D01*
X138873066Y-115546376D01*
X138678376Y-115741066D01*
X138678370Y-115741073D01*
X138510754Y-115959516D01*
X138373080Y-116197971D01*
X138373075Y-116197982D01*
X138267704Y-116452369D01*
X138196441Y-116718331D01*
X138196438Y-116718344D01*
X138160501Y-116991315D01*
X138160500Y-116991332D01*
X105361500Y-116991332D01*
X105361500Y-116991326D01*
X105325560Y-116718334D01*
X105254295Y-116452368D01*
X105148923Y-116197979D01*
X105148921Y-116197976D01*
X105148919Y-116197971D01*
X105099732Y-116112778D01*
X105011249Y-115959521D01*
X104843628Y-115741072D01*
X104843623Y-115741066D01*
X104648933Y-115546376D01*
X104648926Y-115546370D01*
X104430483Y-115378754D01*
X104430482Y-115378753D01*
X104430479Y-115378751D01*
X104335407Y-115323861D01*
X104192028Y-115241080D01*
X104192017Y-115241075D01*
X103937630Y-115135704D01*
X103804649Y-115100072D01*
X103671666Y-115064440D01*
X103671660Y-115064439D01*
X103671655Y-115064438D01*
X103398684Y-115028501D01*
X103398679Y-115028500D01*
X103398674Y-115028500D01*
X103123326Y-115028500D01*
X103123320Y-115028500D01*
X103123315Y-115028501D01*
X102850344Y-115064438D01*
X102850337Y-115064439D01*
X102850334Y-115064440D01*
X102794125Y-115079500D01*
X102584369Y-115135704D01*
X102329982Y-115241075D01*
X102329971Y-115241080D01*
X102091516Y-115378754D01*
X101873073Y-115546370D01*
X101873066Y-115546376D01*
X101678376Y-115741066D01*
X101678370Y-115741073D01*
X101510754Y-115959516D01*
X101373080Y-116197971D01*
X101373075Y-116197982D01*
X101267704Y-116452369D01*
X101196441Y-116718331D01*
X101196438Y-116718344D01*
X101160501Y-116991315D01*
X101160500Y-116991332D01*
X100767448Y-116991332D01*
X100767448Y-114102389D01*
X116860500Y-114102389D01*
X116860500Y-114275611D01*
X116887598Y-114446701D01*
X116941127Y-114611445D01*
X117019768Y-114765788D01*
X117121586Y-114905928D01*
X117244072Y-115028414D01*
X117384212Y-115130232D01*
X117538555Y-115208873D01*
X117703299Y-115262402D01*
X117874389Y-115289500D01*
X117874390Y-115289500D01*
X118047610Y-115289500D01*
X118047611Y-115289500D01*
X118218701Y-115262402D01*
X118383445Y-115208873D01*
X118537788Y-115130232D01*
X118677928Y-115028414D01*
X118800414Y-114905928D01*
X118902232Y-114765788D01*
X118980873Y-114611445D01*
X119034402Y-114446701D01*
X119061500Y-114275611D01*
X119061500Y-114102389D01*
X119034402Y-113931299D01*
X118989267Y-113792389D01*
X122660500Y-113792389D01*
X122660500Y-113965610D01*
X122682163Y-114102389D01*
X122687598Y-114136701D01*
X122741127Y-114301445D01*
X122819768Y-114455788D01*
X122921586Y-114595928D01*
X123044072Y-114718414D01*
X123184212Y-114820232D01*
X123338555Y-114898873D01*
X123503299Y-114952402D01*
X123674389Y-114979500D01*
X123674390Y-114979500D01*
X123847610Y-114979500D01*
X123847611Y-114979500D01*
X124018701Y-114952402D01*
X124183445Y-114898873D01*
X124337788Y-114820232D01*
X124477928Y-114718414D01*
X124600414Y-114595928D01*
X124702232Y-114455788D01*
X124780873Y-114301445D01*
X124834402Y-114136701D01*
X124861500Y-113965611D01*
X124861500Y-113792389D01*
X127660500Y-113792389D01*
X127660500Y-113965610D01*
X127682163Y-114102389D01*
X127687598Y-114136701D01*
X127741127Y-114301445D01*
X127819768Y-114455788D01*
X127921586Y-114595928D01*
X128044072Y-114718414D01*
X128184212Y-114820232D01*
X128338555Y-114898873D01*
X128503299Y-114952402D01*
X128674389Y-114979500D01*
X128674390Y-114979500D01*
X128847610Y-114979500D01*
X128847611Y-114979500D01*
X129018701Y-114952402D01*
X129183445Y-114898873D01*
X129337788Y-114820232D01*
X129477928Y-114718414D01*
X129600414Y-114595928D01*
X129702232Y-114455788D01*
X129780873Y-114301445D01*
X129834402Y-114136701D01*
X129861500Y-113965611D01*
X129861500Y-113792389D01*
X129834402Y-113621299D01*
X129780873Y-113456555D01*
X129702232Y-113302212D01*
X129600414Y-113162072D01*
X129477928Y-113039586D01*
X129470946Y-113034513D01*
X134560500Y-113034513D01*
X134560500Y-113223486D01*
X134590059Y-113410118D01*
X134648454Y-113589836D01*
X134734240Y-113758199D01*
X134845310Y-113911073D01*
X134978927Y-114044690D01*
X135131801Y-114155760D01*
X135211347Y-114196290D01*
X135300163Y-114241545D01*
X135300165Y-114241545D01*
X135300168Y-114241547D01*
X135396497Y-114272846D01*
X135479881Y-114299940D01*
X135666514Y-114329500D01*
X135666519Y-114329500D01*
X135855486Y-114329500D01*
X136042118Y-114299940D01*
X136116994Y-114275611D01*
X136221832Y-114241547D01*
X136390199Y-114155760D01*
X136463658Y-114102389D01*
X161860500Y-114102389D01*
X161860500Y-114275611D01*
X161887598Y-114446701D01*
X161941127Y-114611445D01*
X162019768Y-114765788D01*
X162121586Y-114905928D01*
X162244072Y-115028414D01*
X162384212Y-115130232D01*
X162538555Y-115208873D01*
X162703299Y-115262402D01*
X162874389Y-115289500D01*
X162874390Y-115289500D01*
X163047610Y-115289500D01*
X163047611Y-115289500D01*
X163218701Y-115262402D01*
X163383445Y-115208873D01*
X163537788Y-115130232D01*
X163677928Y-115028414D01*
X163800414Y-114905928D01*
X163902232Y-114765788D01*
X163980873Y-114611445D01*
X164034402Y-114446701D01*
X164061500Y-114275611D01*
X164061500Y-114102389D01*
X164034402Y-113931299D01*
X163989267Y-113792389D01*
X167660500Y-113792389D01*
X167660500Y-113965610D01*
X167682163Y-114102389D01*
X167687598Y-114136701D01*
X167741127Y-114301445D01*
X167819768Y-114455788D01*
X167921586Y-114595928D01*
X168044072Y-114718414D01*
X168184212Y-114820232D01*
X168338555Y-114898873D01*
X168503299Y-114952402D01*
X168674389Y-114979500D01*
X168674390Y-114979500D01*
X168847610Y-114979500D01*
X168847611Y-114979500D01*
X169018701Y-114952402D01*
X169183445Y-114898873D01*
X169337788Y-114820232D01*
X169477928Y-114718414D01*
X169600414Y-114595928D01*
X169702232Y-114455788D01*
X169780873Y-114301445D01*
X169834402Y-114136701D01*
X169861500Y-113965611D01*
X169861500Y-113792389D01*
X172660500Y-113792389D01*
X172660500Y-113965610D01*
X172682163Y-114102389D01*
X172687598Y-114136701D01*
X172741127Y-114301445D01*
X172819768Y-114455788D01*
X172921586Y-114595928D01*
X173044072Y-114718414D01*
X173184212Y-114820232D01*
X173338555Y-114898873D01*
X173503299Y-114952402D01*
X173674389Y-114979500D01*
X173674390Y-114979500D01*
X173847610Y-114979500D01*
X173847611Y-114979500D01*
X174018701Y-114952402D01*
X174183445Y-114898873D01*
X174337788Y-114820232D01*
X174477928Y-114718414D01*
X174600414Y-114595928D01*
X174702232Y-114455788D01*
X174780873Y-114301445D01*
X174834402Y-114136701D01*
X174861500Y-113965611D01*
X174861500Y-113792389D01*
X174834402Y-113621299D01*
X174780873Y-113456555D01*
X174702232Y-113302212D01*
X174600414Y-113162072D01*
X174477928Y-113039586D01*
X174470946Y-113034513D01*
X179560500Y-113034513D01*
X179560500Y-113223486D01*
X179590059Y-113410118D01*
X179648454Y-113589836D01*
X179734240Y-113758199D01*
X179845310Y-113911073D01*
X179978927Y-114044690D01*
X180131801Y-114155760D01*
X180211347Y-114196290D01*
X180300163Y-114241545D01*
X180300165Y-114241545D01*
X180300168Y-114241547D01*
X180396497Y-114272846D01*
X180479881Y-114299940D01*
X180666514Y-114329500D01*
X180666519Y-114329500D01*
X180855486Y-114329500D01*
X181042118Y-114299940D01*
X181116994Y-114275611D01*
X181221832Y-114241547D01*
X181390199Y-114155760D01*
X181543073Y-114044690D01*
X181676690Y-113911073D01*
X181787760Y-113758199D01*
X181873547Y-113589832D01*
X181931940Y-113410118D01*
X181941527Y-113349586D01*
X181961500Y-113223486D01*
X181961500Y-113034513D01*
X181931940Y-112847881D01*
X181873545Y-112668163D01*
X181787759Y-112499800D01*
X181676690Y-112346927D01*
X181543073Y-112213310D01*
X181390199Y-112102240D01*
X181221836Y-112016454D01*
X181042118Y-111958059D01*
X180855486Y-111928500D01*
X180855481Y-111928500D01*
X180666519Y-111928500D01*
X180666514Y-111928500D01*
X180479881Y-111958059D01*
X180300163Y-112016454D01*
X180131800Y-112102240D01*
X180044579Y-112165610D01*
X179978927Y-112213310D01*
X179978925Y-112213312D01*
X179978924Y-112213312D01*
X179845312Y-112346924D01*
X179845312Y-112346925D01*
X179845310Y-112346927D01*
X179797610Y-112412579D01*
X179734240Y-112499800D01*
X179648454Y-112668163D01*
X179590059Y-112847881D01*
X179560500Y-113034513D01*
X174470946Y-113034513D01*
X174337788Y-112937768D01*
X174183445Y-112859127D01*
X174018701Y-112805598D01*
X174018699Y-112805597D01*
X174018698Y-112805597D01*
X173887271Y-112784781D01*
X173847611Y-112778500D01*
X173674389Y-112778500D01*
X173634728Y-112784781D01*
X173503302Y-112805597D01*
X173338552Y-112859128D01*
X173184211Y-112937768D01*
X173104256Y-112995859D01*
X173044072Y-113039586D01*
X173044070Y-113039588D01*
X173044069Y-113039588D01*
X172921588Y-113162069D01*
X172921588Y-113162070D01*
X172921586Y-113162072D01*
X172877859Y-113222256D01*
X172819768Y-113302211D01*
X172741128Y-113456552D01*
X172687597Y-113621302D01*
X172660500Y-113792389D01*
X169861500Y-113792389D01*
X169834402Y-113621299D01*
X169780873Y-113456555D01*
X169702232Y-113302212D01*
X169600414Y-113162072D01*
X169477928Y-113039586D01*
X169337788Y-112937768D01*
X169183445Y-112859127D01*
X169018701Y-112805598D01*
X169018699Y-112805597D01*
X169018698Y-112805597D01*
X168887271Y-112784781D01*
X168847611Y-112778500D01*
X168674389Y-112778500D01*
X168634728Y-112784781D01*
X168503302Y-112805597D01*
X168338552Y-112859128D01*
X168184211Y-112937768D01*
X168104256Y-112995859D01*
X168044072Y-113039586D01*
X168044070Y-113039588D01*
X168044069Y-113039588D01*
X167921588Y-113162069D01*
X167921588Y-113162070D01*
X167921586Y-113162072D01*
X167877859Y-113222256D01*
X167819768Y-113302211D01*
X167741128Y-113456552D01*
X167687597Y-113621302D01*
X167660500Y-113792389D01*
X163989267Y-113792389D01*
X163980873Y-113766555D01*
X163902232Y-113612212D01*
X163800414Y-113472072D01*
X163677928Y-113349586D01*
X163537788Y-113247768D01*
X163383445Y-113169127D01*
X163218701Y-113115598D01*
X163218699Y-113115597D01*
X163218698Y-113115597D01*
X163087271Y-113094781D01*
X163047611Y-113088500D01*
X162874389Y-113088500D01*
X162834728Y-113094781D01*
X162703302Y-113115597D01*
X162538552Y-113169128D01*
X162384211Y-113247768D01*
X162304256Y-113305859D01*
X162244072Y-113349586D01*
X162244070Y-113349588D01*
X162244069Y-113349588D01*
X162121588Y-113472069D01*
X162121588Y-113472070D01*
X162121586Y-113472072D01*
X162077859Y-113532256D01*
X162019768Y-113612211D01*
X161941128Y-113766552D01*
X161887597Y-113931302D01*
X161860500Y-114102389D01*
X136463658Y-114102389D01*
X136543073Y-114044690D01*
X136676690Y-113911073D01*
X136787760Y-113758199D01*
X136873547Y-113589832D01*
X136931940Y-113410118D01*
X136941527Y-113349586D01*
X136961500Y-113223486D01*
X136961500Y-113034513D01*
X136931940Y-112847881D01*
X136873545Y-112668163D01*
X136787759Y-112499800D01*
X136676690Y-112346927D01*
X136543073Y-112213310D01*
X136390199Y-112102240D01*
X136221836Y-112016454D01*
X136042118Y-111958059D01*
X135855486Y-111928500D01*
X135855481Y-111928500D01*
X135666519Y-111928500D01*
X135666514Y-111928500D01*
X135479881Y-111958059D01*
X135300163Y-112016454D01*
X135131800Y-112102240D01*
X135044579Y-112165610D01*
X134978927Y-112213310D01*
X134978925Y-112213312D01*
X134978924Y-112213312D01*
X134845312Y-112346924D01*
X134845312Y-112346925D01*
X134845310Y-112346927D01*
X134797610Y-112412579D01*
X134734240Y-112499800D01*
X134648454Y-112668163D01*
X134590059Y-112847881D01*
X134560500Y-113034513D01*
X129470946Y-113034513D01*
X129337788Y-112937768D01*
X129183445Y-112859127D01*
X129018701Y-112805598D01*
X129018699Y-112805597D01*
X129018698Y-112805597D01*
X128887271Y-112784781D01*
X128847611Y-112778500D01*
X128674389Y-112778500D01*
X128634728Y-112784781D01*
X128503302Y-112805597D01*
X128338552Y-112859128D01*
X128184211Y-112937768D01*
X128104256Y-112995859D01*
X128044072Y-113039586D01*
X128044070Y-113039588D01*
X128044069Y-113039588D01*
X127921588Y-113162069D01*
X127921588Y-113162070D01*
X127921586Y-113162072D01*
X127877859Y-113222256D01*
X127819768Y-113302211D01*
X127741128Y-113456552D01*
X127687597Y-113621302D01*
X127660500Y-113792389D01*
X124861500Y-113792389D01*
X124834402Y-113621299D01*
X124780873Y-113456555D01*
X124702232Y-113302212D01*
X124600414Y-113162072D01*
X124477928Y-113039586D01*
X124337788Y-112937768D01*
X124183445Y-112859127D01*
X124018701Y-112805598D01*
X124018699Y-112805597D01*
X124018698Y-112805597D01*
X123887271Y-112784781D01*
X123847611Y-112778500D01*
X123674389Y-112778500D01*
X123634728Y-112784781D01*
X123503302Y-112805597D01*
X123338552Y-112859128D01*
X123184211Y-112937768D01*
X123104256Y-112995859D01*
X123044072Y-113039586D01*
X123044070Y-113039588D01*
X123044069Y-113039588D01*
X122921588Y-113162069D01*
X122921588Y-113162070D01*
X122921586Y-113162072D01*
X122877859Y-113222256D01*
X122819768Y-113302211D01*
X122741128Y-113456552D01*
X122687597Y-113621302D01*
X122660500Y-113792389D01*
X118989267Y-113792389D01*
X118980873Y-113766555D01*
X118902232Y-113612212D01*
X118800414Y-113472072D01*
X118677928Y-113349586D01*
X118537788Y-113247768D01*
X118383445Y-113169127D01*
X118218701Y-113115598D01*
X118218699Y-113115597D01*
X118218698Y-113115597D01*
X118087271Y-113094781D01*
X118047611Y-113088500D01*
X117874389Y-113088500D01*
X117834728Y-113094781D01*
X117703302Y-113115597D01*
X117538552Y-113169128D01*
X117384211Y-113247768D01*
X117304256Y-113305859D01*
X117244072Y-113349586D01*
X117244070Y-113349588D01*
X117244069Y-113349588D01*
X117121588Y-113472069D01*
X117121588Y-113472070D01*
X117121586Y-113472072D01*
X117077859Y-113532256D01*
X117019768Y-113612211D01*
X116941128Y-113766552D01*
X116887597Y-113931302D01*
X116860500Y-114102389D01*
X100767448Y-114102389D01*
X100767448Y-108935898D01*
X105660500Y-108935898D01*
X105660500Y-110122102D01*
X105666126Y-110168954D01*
X105671122Y-110210561D01*
X105726639Y-110351343D01*
X105818077Y-110471922D01*
X105938656Y-110563360D01*
X105938657Y-110563360D01*
X105938658Y-110563361D01*
X106079436Y-110618877D01*
X106167898Y-110629500D01*
X106167903Y-110629500D01*
X107354097Y-110629500D01*
X107354102Y-110629500D01*
X107442564Y-110618877D01*
X107583342Y-110563361D01*
X107703922Y-110471922D01*
X107795361Y-110351342D01*
X107850877Y-110210564D01*
X107861500Y-110122102D01*
X107861500Y-108935898D01*
X150660500Y-108935898D01*
X150660500Y-110122102D01*
X150666126Y-110168954D01*
X150671122Y-110210561D01*
X150726639Y-110351343D01*
X150818077Y-110471922D01*
X150938656Y-110563360D01*
X150938657Y-110563360D01*
X150938658Y-110563361D01*
X151079436Y-110618877D01*
X151167898Y-110629500D01*
X151167903Y-110629500D01*
X152354097Y-110629500D01*
X152354102Y-110629500D01*
X152442564Y-110618877D01*
X152583342Y-110563361D01*
X152703922Y-110471922D01*
X152795361Y-110351342D01*
X152850877Y-110210564D01*
X152861500Y-110122102D01*
X152861500Y-108935898D01*
X152850877Y-108847436D01*
X152795361Y-108706658D01*
X152795360Y-108706657D01*
X152795360Y-108706656D01*
X152703922Y-108586077D01*
X152583343Y-108494639D01*
X152442561Y-108439122D01*
X152396926Y-108433642D01*
X152354102Y-108428500D01*
X151167898Y-108428500D01*
X151128853Y-108433188D01*
X151079438Y-108439122D01*
X150938656Y-108494639D01*
X150818077Y-108586077D01*
X150726639Y-108706656D01*
X150671122Y-108847438D01*
X150665188Y-108896853D01*
X150660500Y-108935898D01*
X107861500Y-108935898D01*
X107850877Y-108847436D01*
X107795361Y-108706658D01*
X107795360Y-108706657D01*
X107795360Y-108706656D01*
X107703922Y-108586077D01*
X107583343Y-108494639D01*
X107442561Y-108439122D01*
X107396926Y-108433642D01*
X107354102Y-108428500D01*
X106167898Y-108428500D01*
X106128853Y-108433188D01*
X106079438Y-108439122D01*
X105938656Y-108494639D01*
X105818077Y-108586077D01*
X105726639Y-108706656D01*
X105671122Y-108847438D01*
X105665188Y-108896853D01*
X105660500Y-108935898D01*
X100767448Y-108935898D01*
X100767448Y-107602389D01*
X111860500Y-107602389D01*
X111860500Y-107775611D01*
X111887598Y-107946701D01*
X111941127Y-108111445D01*
X112019768Y-108265788D01*
X112121586Y-108405928D01*
X112244072Y-108528414D01*
X112384212Y-108630232D01*
X112538555Y-108708873D01*
X112703299Y-108762402D01*
X112874389Y-108789500D01*
X112874390Y-108789500D01*
X113047610Y-108789500D01*
X113047611Y-108789500D01*
X113218701Y-108762402D01*
X113383445Y-108708873D01*
X113537788Y-108630232D01*
X113677928Y-108528414D01*
X113800414Y-108405928D01*
X113902232Y-108265788D01*
X113980873Y-108111445D01*
X114034402Y-107946701D01*
X114061500Y-107775611D01*
X114061500Y-107602389D01*
X114034402Y-107431299D01*
X113980873Y-107266555D01*
X113902232Y-107112212D01*
X113800414Y-106972072D01*
X113677928Y-106849586D01*
X113537788Y-106747768D01*
X113383445Y-106669127D01*
X113218701Y-106615598D01*
X113218699Y-106615597D01*
X113218698Y-106615597D01*
X113120156Y-106599990D01*
X113119335Y-106599860D01*
X113047611Y-106588500D01*
X112874389Y-106588500D01*
X112834728Y-106594781D01*
X112703302Y-106615597D01*
X112538552Y-106669128D01*
X112384211Y-106747768D01*
X112304256Y-106805859D01*
X112244072Y-106849586D01*
X112244070Y-106849588D01*
X112244069Y-106849588D01*
X112121588Y-106972069D01*
X112121588Y-106972070D01*
X112121586Y-106972072D01*
X112077859Y-107032256D01*
X112019768Y-107112211D01*
X111941128Y-107266552D01*
X111887597Y-107431302D01*
X111865593Y-107570231D01*
X111860500Y-107602389D01*
X100767448Y-107602389D01*
X100767448Y-106482389D01*
X116860500Y-106482389D01*
X116860500Y-106655611D01*
X116887598Y-106826701D01*
X116941127Y-106991445D01*
X117019768Y-107145788D01*
X117121586Y-107285928D01*
X117244072Y-107408414D01*
X117384212Y-107510232D01*
X117538555Y-107588873D01*
X117703299Y-107642402D01*
X117874389Y-107669500D01*
X117874390Y-107669500D01*
X118047610Y-107669500D01*
X118047611Y-107669500D01*
X118218701Y-107642402D01*
X118383445Y-107588873D01*
X118537788Y-107510232D01*
X118677928Y-107408414D01*
X118800414Y-107285928D01*
X118902232Y-107145788D01*
X118980873Y-106991445D01*
X119034402Y-106826701D01*
X119061500Y-106655611D01*
X119061500Y-106482389D01*
X119050413Y-106412389D01*
X120950500Y-106412389D01*
X120950500Y-106585611D01*
X120977598Y-106756701D01*
X121007778Y-106849586D01*
X121031128Y-106921447D01*
X121056923Y-106972072D01*
X121109768Y-107075788D01*
X121211586Y-107215928D01*
X121334072Y-107338414D01*
X121474212Y-107440232D01*
X121628555Y-107518873D01*
X121793299Y-107572402D01*
X121964389Y-107599500D01*
X121964390Y-107599500D01*
X122937610Y-107599500D01*
X122937611Y-107599500D01*
X123108701Y-107572402D01*
X123273445Y-107518873D01*
X123427788Y-107440232D01*
X123567928Y-107338414D01*
X123690414Y-107215928D01*
X123792232Y-107075788D01*
X123870873Y-106921445D01*
X123924402Y-106756701D01*
X123951500Y-106585611D01*
X123951500Y-106542389D01*
X132850500Y-106542389D01*
X132850500Y-106715610D01*
X132871719Y-106849586D01*
X132877598Y-106886701D01*
X132931127Y-107051445D01*
X133009768Y-107205788D01*
X133111586Y-107345928D01*
X133234072Y-107468414D01*
X133374212Y-107570232D01*
X133528555Y-107648873D01*
X133693299Y-107702402D01*
X133864389Y-107729500D01*
X133864390Y-107729500D01*
X134037610Y-107729500D01*
X134037611Y-107729500D01*
X134208701Y-107702402D01*
X134373445Y-107648873D01*
X134527788Y-107570232D01*
X134667928Y-107468414D01*
X134790414Y-107345928D01*
X134892232Y-107205788D01*
X134970873Y-107051445D01*
X135024402Y-106886701D01*
X135051500Y-106715611D01*
X135051500Y-106542389D01*
X140470500Y-106542389D01*
X140470500Y-106715610D01*
X140491719Y-106849586D01*
X140497598Y-106886701D01*
X140551127Y-107051445D01*
X140629768Y-107205788D01*
X140731586Y-107345928D01*
X140854072Y-107468414D01*
X140994212Y-107570232D01*
X141148555Y-107648873D01*
X141313299Y-107702402D01*
X141484389Y-107729500D01*
X141484390Y-107729500D01*
X141657610Y-107729500D01*
X141657611Y-107729500D01*
X141828701Y-107702402D01*
X141993445Y-107648873D01*
X142084676Y-107602389D01*
X156860500Y-107602389D01*
X156860500Y-107775611D01*
X156887598Y-107946701D01*
X156941127Y-108111445D01*
X157019768Y-108265788D01*
X157121586Y-108405928D01*
X157244072Y-108528414D01*
X157384212Y-108630232D01*
X157538555Y-108708873D01*
X157703299Y-108762402D01*
X157874389Y-108789500D01*
X157874390Y-108789500D01*
X158047610Y-108789500D01*
X158047611Y-108789500D01*
X158218701Y-108762402D01*
X158383445Y-108708873D01*
X158537788Y-108630232D01*
X158677928Y-108528414D01*
X158800414Y-108405928D01*
X158902232Y-108265788D01*
X158980873Y-108111445D01*
X159034402Y-107946701D01*
X159061500Y-107775611D01*
X159061500Y-107602389D01*
X159034402Y-107431299D01*
X158980873Y-107266555D01*
X158902232Y-107112212D01*
X158800414Y-106972072D01*
X158677928Y-106849586D01*
X158537788Y-106747768D01*
X158383445Y-106669127D01*
X158218701Y-106615598D01*
X158218699Y-106615597D01*
X158218698Y-106615597D01*
X158120156Y-106599990D01*
X158119335Y-106599860D01*
X158047611Y-106588500D01*
X157874389Y-106588500D01*
X157834728Y-106594781D01*
X157703302Y-106615597D01*
X157538552Y-106669128D01*
X157384211Y-106747768D01*
X157304256Y-106805859D01*
X157244072Y-106849586D01*
X157244070Y-106849588D01*
X157244069Y-106849588D01*
X157121588Y-106972069D01*
X157121588Y-106972070D01*
X157121586Y-106972072D01*
X157077859Y-107032256D01*
X157019768Y-107112211D01*
X156941128Y-107266552D01*
X156887597Y-107431302D01*
X156865593Y-107570231D01*
X156860500Y-107602389D01*
X142084676Y-107602389D01*
X142147788Y-107570232D01*
X142287928Y-107468414D01*
X142410414Y-107345928D01*
X142512232Y-107205788D01*
X142590873Y-107051445D01*
X142644402Y-106886701D01*
X142671500Y-106715611D01*
X142671500Y-106542389D01*
X142661997Y-106482389D01*
X161860500Y-106482389D01*
X161860500Y-106655611D01*
X161887598Y-106826701D01*
X161941127Y-106991445D01*
X162019768Y-107145788D01*
X162121586Y-107285928D01*
X162244072Y-107408414D01*
X162384212Y-107510232D01*
X162538555Y-107588873D01*
X162703299Y-107642402D01*
X162874389Y-107669500D01*
X162874390Y-107669500D01*
X163047610Y-107669500D01*
X163047611Y-107669500D01*
X163218701Y-107642402D01*
X163383445Y-107588873D01*
X163537788Y-107510232D01*
X163677928Y-107408414D01*
X163800414Y-107285928D01*
X163902232Y-107145788D01*
X163980873Y-106991445D01*
X164034402Y-106826701D01*
X164061500Y-106655611D01*
X164061500Y-106482389D01*
X164050413Y-106412389D01*
X165950500Y-106412389D01*
X165950500Y-106585611D01*
X165977598Y-106756701D01*
X166007778Y-106849586D01*
X166031128Y-106921447D01*
X166056923Y-106972072D01*
X166109768Y-107075788D01*
X166211586Y-107215928D01*
X166334072Y-107338414D01*
X166474212Y-107440232D01*
X166628555Y-107518873D01*
X166793299Y-107572402D01*
X166964389Y-107599500D01*
X166964390Y-107599500D01*
X167937610Y-107599500D01*
X167937611Y-107599500D01*
X168108701Y-107572402D01*
X168273445Y-107518873D01*
X168427788Y-107440232D01*
X168567928Y-107338414D01*
X168690414Y-107215928D01*
X168792232Y-107075788D01*
X168870873Y-106921445D01*
X168924402Y-106756701D01*
X168951500Y-106585611D01*
X168951500Y-106542389D01*
X177850500Y-106542389D01*
X177850500Y-106715610D01*
X177871719Y-106849586D01*
X177877598Y-106886701D01*
X177931127Y-107051445D01*
X178009768Y-107205788D01*
X178111586Y-107345928D01*
X178234072Y-107468414D01*
X178374212Y-107570232D01*
X178528555Y-107648873D01*
X178693299Y-107702402D01*
X178864389Y-107729500D01*
X178864390Y-107729500D01*
X179037610Y-107729500D01*
X179037611Y-107729500D01*
X179208701Y-107702402D01*
X179373445Y-107648873D01*
X179527788Y-107570232D01*
X179667928Y-107468414D01*
X179790414Y-107345928D01*
X179892232Y-107205788D01*
X179970873Y-107051445D01*
X180024402Y-106886701D01*
X180051500Y-106715611D01*
X180051500Y-106542389D01*
X180024402Y-106371299D01*
X179970873Y-106206555D01*
X179892232Y-106052212D01*
X179790414Y-105912072D01*
X179667928Y-105789586D01*
X179527788Y-105687768D01*
X179373445Y-105609127D01*
X179208701Y-105555598D01*
X179208699Y-105555597D01*
X179208698Y-105555597D01*
X179077271Y-105534781D01*
X179037611Y-105528500D01*
X178864389Y-105528500D01*
X178824728Y-105534781D01*
X178693302Y-105555597D01*
X178528552Y-105609128D01*
X178374211Y-105687768D01*
X178316652Y-105729588D01*
X178234072Y-105789586D01*
X178234070Y-105789588D01*
X178234069Y-105789588D01*
X178111588Y-105912069D01*
X178111588Y-105912070D01*
X178111586Y-105912072D01*
X178104220Y-105922211D01*
X178009768Y-106052211D01*
X177931128Y-106206552D01*
X177877597Y-106371302D01*
X177850500Y-106542389D01*
X168951500Y-106542389D01*
X168951500Y-106412389D01*
X168924402Y-106241299D01*
X168870873Y-106076555D01*
X168792232Y-105922212D01*
X168690414Y-105782072D01*
X168567928Y-105659586D01*
X168427788Y-105557768D01*
X168305771Y-105495598D01*
X168273447Y-105479128D01*
X168273446Y-105479127D01*
X168273445Y-105479127D01*
X168108701Y-105425598D01*
X168108699Y-105425597D01*
X168108698Y-105425597D01*
X167977271Y-105404781D01*
X167937611Y-105398500D01*
X166964389Y-105398500D01*
X166924728Y-105404781D01*
X166793302Y-105425597D01*
X166628552Y-105479128D01*
X166474211Y-105557768D01*
X166403523Y-105609127D01*
X166334072Y-105659586D01*
X166334070Y-105659588D01*
X166334069Y-105659588D01*
X166211588Y-105782069D01*
X166211588Y-105782070D01*
X166211586Y-105782072D01*
X166167859Y-105842256D01*
X166109768Y-105922211D01*
X166031128Y-106076552D01*
X165977597Y-106241302D01*
X165950500Y-106412389D01*
X164050413Y-106412389D01*
X164034402Y-106311299D01*
X163980873Y-106146555D01*
X163902232Y-105992212D01*
X163800414Y-105852072D01*
X163677928Y-105729586D01*
X163537788Y-105627768D01*
X163383445Y-105549127D01*
X163218701Y-105495598D01*
X163218699Y-105495597D01*
X163218698Y-105495597D01*
X163087271Y-105474781D01*
X163047611Y-105468500D01*
X162874389Y-105468500D01*
X162834728Y-105474781D01*
X162703302Y-105495597D01*
X162538552Y-105549128D01*
X162384211Y-105627768D01*
X162304256Y-105685859D01*
X162244072Y-105729586D01*
X162244070Y-105729588D01*
X162244069Y-105729588D01*
X162121588Y-105852069D01*
X162121588Y-105852070D01*
X162121586Y-105852072D01*
X162077995Y-105912069D01*
X162019768Y-105992211D01*
X161941128Y-106146552D01*
X161887597Y-106311302D01*
X161878095Y-106371299D01*
X161860500Y-106482389D01*
X142661997Y-106482389D01*
X142644402Y-106371299D01*
X142590873Y-106206555D01*
X142512232Y-106052212D01*
X142410414Y-105912072D01*
X142287928Y-105789586D01*
X142147788Y-105687768D01*
X141993445Y-105609127D01*
X141828701Y-105555598D01*
X141828699Y-105555597D01*
X141828698Y-105555597D01*
X141697271Y-105534781D01*
X141657611Y-105528500D01*
X141484389Y-105528500D01*
X141444728Y-105534781D01*
X141313302Y-105555597D01*
X141148552Y-105609128D01*
X140994211Y-105687768D01*
X140936652Y-105729588D01*
X140854072Y-105789586D01*
X140854070Y-105789588D01*
X140854069Y-105789588D01*
X140731588Y-105912069D01*
X140731588Y-105912070D01*
X140731586Y-105912072D01*
X140724220Y-105922211D01*
X140629768Y-106052211D01*
X140551128Y-106206552D01*
X140497597Y-106371302D01*
X140470500Y-106542389D01*
X135051500Y-106542389D01*
X135024402Y-106371299D01*
X134970873Y-106206555D01*
X134892232Y-106052212D01*
X134790414Y-105912072D01*
X134667928Y-105789586D01*
X134527788Y-105687768D01*
X134373445Y-105609127D01*
X134208701Y-105555598D01*
X134208699Y-105555597D01*
X134208698Y-105555597D01*
X134077271Y-105534781D01*
X134037611Y-105528500D01*
X133864389Y-105528500D01*
X133824728Y-105534781D01*
X133693302Y-105555597D01*
X133528552Y-105609128D01*
X133374211Y-105687768D01*
X133316652Y-105729588D01*
X133234072Y-105789586D01*
X133234070Y-105789588D01*
X133234069Y-105789588D01*
X133111588Y-105912069D01*
X133111588Y-105912070D01*
X133111586Y-105912072D01*
X133104220Y-105922211D01*
X133009768Y-106052211D01*
X132931128Y-106206552D01*
X132877597Y-106371302D01*
X132850500Y-106542389D01*
X123951500Y-106542389D01*
X123951500Y-106412389D01*
X123924402Y-106241299D01*
X123870873Y-106076555D01*
X123792232Y-105922212D01*
X123690414Y-105782072D01*
X123567928Y-105659586D01*
X123427788Y-105557768D01*
X123305771Y-105495598D01*
X123273447Y-105479128D01*
X123273446Y-105479127D01*
X123273445Y-105479127D01*
X123108701Y-105425598D01*
X123108699Y-105425597D01*
X123108698Y-105425597D01*
X122977271Y-105404781D01*
X122937611Y-105398500D01*
X121964389Y-105398500D01*
X121924728Y-105404781D01*
X121793302Y-105425597D01*
X121628552Y-105479128D01*
X121474211Y-105557768D01*
X121403523Y-105609127D01*
X121334072Y-105659586D01*
X121334070Y-105659588D01*
X121334069Y-105659588D01*
X121211588Y-105782069D01*
X121211588Y-105782070D01*
X121211586Y-105782072D01*
X121167859Y-105842256D01*
X121109768Y-105922211D01*
X121031128Y-106076552D01*
X120977597Y-106241302D01*
X120950500Y-106412389D01*
X119050413Y-106412389D01*
X119034402Y-106311299D01*
X118980873Y-106146555D01*
X118902232Y-105992212D01*
X118800414Y-105852072D01*
X118677928Y-105729586D01*
X118537788Y-105627768D01*
X118383445Y-105549127D01*
X118218701Y-105495598D01*
X118218699Y-105495597D01*
X118218698Y-105495597D01*
X118087271Y-105474781D01*
X118047611Y-105468500D01*
X117874389Y-105468500D01*
X117834728Y-105474781D01*
X117703302Y-105495597D01*
X117538552Y-105549128D01*
X117384211Y-105627768D01*
X117304256Y-105685859D01*
X117244072Y-105729586D01*
X117244070Y-105729588D01*
X117244069Y-105729588D01*
X117121588Y-105852069D01*
X117121588Y-105852070D01*
X117121586Y-105852072D01*
X117077995Y-105912069D01*
X117019768Y-105992211D01*
X116941128Y-106146552D01*
X116887597Y-106311302D01*
X116878095Y-106371299D01*
X116860500Y-106482389D01*
X100767448Y-106482389D01*
X100767448Y-103872389D01*
X120950500Y-103872389D01*
X120950500Y-104045611D01*
X120977598Y-104216701D01*
X121031127Y-104381445D01*
X121109768Y-104535788D01*
X121211586Y-104675928D01*
X121334072Y-104798414D01*
X121474212Y-104900232D01*
X121628555Y-104978873D01*
X121793299Y-105032402D01*
X121964389Y-105059500D01*
X121964390Y-105059500D01*
X122937610Y-105059500D01*
X122937611Y-105059500D01*
X123108701Y-105032402D01*
X123273445Y-104978873D01*
X123427788Y-104900232D01*
X123567928Y-104798414D01*
X123690414Y-104675928D01*
X123792232Y-104535788D01*
X123870873Y-104381445D01*
X123924402Y-104216701D01*
X123951500Y-104045611D01*
X123951500Y-103872389D01*
X165950500Y-103872389D01*
X165950500Y-104045611D01*
X165977598Y-104216701D01*
X166031127Y-104381445D01*
X166109768Y-104535788D01*
X166211586Y-104675928D01*
X166334072Y-104798414D01*
X166474212Y-104900232D01*
X166628555Y-104978873D01*
X166793299Y-105032402D01*
X166964389Y-105059500D01*
X166964390Y-105059500D01*
X167937610Y-105059500D01*
X167937611Y-105059500D01*
X168108701Y-105032402D01*
X168273445Y-104978873D01*
X168427788Y-104900232D01*
X168567928Y-104798414D01*
X168690414Y-104675928D01*
X168792232Y-104535788D01*
X168870873Y-104381445D01*
X168924402Y-104216701D01*
X168951500Y-104045611D01*
X168951500Y-103872389D01*
X168924402Y-103701299D01*
X168870873Y-103536555D01*
X168792232Y-103382212D01*
X168690414Y-103242072D01*
X168567928Y-103119586D01*
X168427788Y-103017768D01*
X168273445Y-102939127D01*
X168108701Y-102885598D01*
X168108699Y-102885597D01*
X168108698Y-102885597D01*
X167977271Y-102864781D01*
X167937611Y-102858500D01*
X166964389Y-102858500D01*
X166924728Y-102864781D01*
X166793302Y-102885597D01*
X166628552Y-102939128D01*
X166474211Y-103017768D01*
X166394256Y-103075859D01*
X166334072Y-103119586D01*
X166334070Y-103119588D01*
X166334069Y-103119588D01*
X166211588Y-103242069D01*
X166211588Y-103242070D01*
X166211586Y-103242072D01*
X166167859Y-103302256D01*
X166109768Y-103382211D01*
X166031128Y-103536552D01*
X165977597Y-103701302D01*
X165950500Y-103872389D01*
X123951500Y-103872389D01*
X123924402Y-103701299D01*
X123870873Y-103536555D01*
X123792232Y-103382212D01*
X123690414Y-103242072D01*
X123567928Y-103119586D01*
X123427788Y-103017768D01*
X123273445Y-102939127D01*
X123108701Y-102885598D01*
X123108699Y-102885597D01*
X123108698Y-102885597D01*
X122977271Y-102864781D01*
X122937611Y-102858500D01*
X121964389Y-102858500D01*
X121924728Y-102864781D01*
X121793302Y-102885597D01*
X121628552Y-102939128D01*
X121474211Y-103017768D01*
X121394256Y-103075859D01*
X121334072Y-103119586D01*
X121334070Y-103119588D01*
X121334069Y-103119588D01*
X121211588Y-103242069D01*
X121211588Y-103242070D01*
X121211586Y-103242072D01*
X121167859Y-103302256D01*
X121109768Y-103382211D01*
X121031128Y-103536552D01*
X120977597Y-103701302D01*
X120950500Y-103872389D01*
X100767448Y-103872389D01*
X100767448Y-101332389D01*
X120950500Y-101332389D01*
X120950500Y-101505611D01*
X120977598Y-101676701D01*
X121031127Y-101841445D01*
X121109768Y-101995788D01*
X121211586Y-102135928D01*
X121334072Y-102258414D01*
X121474212Y-102360232D01*
X121628555Y-102438873D01*
X121793299Y-102492402D01*
X121964389Y-102519500D01*
X121964390Y-102519500D01*
X122937610Y-102519500D01*
X122937611Y-102519500D01*
X123108701Y-102492402D01*
X123273445Y-102438873D01*
X123427788Y-102360232D01*
X123567928Y-102258414D01*
X123690414Y-102135928D01*
X123792232Y-101995788D01*
X123870873Y-101841445D01*
X123924402Y-101676701D01*
X123951500Y-101505611D01*
X123951500Y-101332389D01*
X165950500Y-101332389D01*
X165950500Y-101505611D01*
X165977598Y-101676701D01*
X166031127Y-101841445D01*
X166109768Y-101995788D01*
X166211586Y-102135928D01*
X166334072Y-102258414D01*
X166474212Y-102360232D01*
X166628555Y-102438873D01*
X166793299Y-102492402D01*
X166964389Y-102519500D01*
X166964390Y-102519500D01*
X167937610Y-102519500D01*
X167937611Y-102519500D01*
X168108701Y-102492402D01*
X168273445Y-102438873D01*
X168427788Y-102360232D01*
X168567928Y-102258414D01*
X168690414Y-102135928D01*
X168792232Y-101995788D01*
X168870873Y-101841445D01*
X168924402Y-101676701D01*
X168951500Y-101505611D01*
X168951500Y-101332389D01*
X168924402Y-101161299D01*
X168870873Y-100996555D01*
X168792232Y-100842212D01*
X168690414Y-100702072D01*
X168567928Y-100579586D01*
X168427788Y-100477768D01*
X168273445Y-100399127D01*
X168108701Y-100345598D01*
X168108699Y-100345597D01*
X168108698Y-100345597D01*
X167977271Y-100324781D01*
X167937611Y-100318500D01*
X166964389Y-100318500D01*
X166924728Y-100324781D01*
X166793302Y-100345597D01*
X166628552Y-100399128D01*
X166474211Y-100477768D01*
X166394256Y-100535859D01*
X166334072Y-100579586D01*
X166334070Y-100579588D01*
X166334069Y-100579588D01*
X166211588Y-100702069D01*
X166211588Y-100702070D01*
X166211586Y-100702072D01*
X166167859Y-100762256D01*
X166109768Y-100842211D01*
X166031128Y-100996552D01*
X165977597Y-101161302D01*
X165966796Y-101229500D01*
X165950500Y-101332389D01*
X123951500Y-101332389D01*
X123924402Y-101161299D01*
X123870873Y-100996555D01*
X123792232Y-100842212D01*
X123690414Y-100702072D01*
X123567928Y-100579586D01*
X123427788Y-100477768D01*
X123273445Y-100399127D01*
X123108701Y-100345598D01*
X123108699Y-100345597D01*
X123108698Y-100345597D01*
X122977271Y-100324781D01*
X122937611Y-100318500D01*
X121964389Y-100318500D01*
X121924728Y-100324781D01*
X121793302Y-100345597D01*
X121628552Y-100399128D01*
X121474211Y-100477768D01*
X121394256Y-100535859D01*
X121334072Y-100579586D01*
X121334070Y-100579588D01*
X121334069Y-100579588D01*
X121211588Y-100702069D01*
X121211588Y-100702070D01*
X121211586Y-100702072D01*
X121167859Y-100762256D01*
X121109768Y-100842211D01*
X121031128Y-100996552D01*
X120977597Y-101161302D01*
X120966796Y-101229500D01*
X120950500Y-101332389D01*
X100767448Y-101332389D01*
X100767448Y-99535898D01*
X113660500Y-99535898D01*
X113660500Y-100722102D01*
X113666126Y-100768954D01*
X113671122Y-100810561D01*
X113726639Y-100951343D01*
X113818077Y-101071922D01*
X113938656Y-101163360D01*
X113938657Y-101163360D01*
X113938658Y-101163361D01*
X114079436Y-101218877D01*
X114167898Y-101229500D01*
X114167903Y-101229500D01*
X115354097Y-101229500D01*
X115354102Y-101229500D01*
X115442564Y-101218877D01*
X115583342Y-101163361D01*
X115703922Y-101071922D01*
X115795361Y-100951342D01*
X115850877Y-100810564D01*
X115861500Y-100722102D01*
X115861500Y-99535898D01*
X115850877Y-99447436D01*
X115795361Y-99306658D01*
X115795360Y-99306657D01*
X115795360Y-99306656D01*
X115703922Y-99186077D01*
X115583343Y-99094639D01*
X115442561Y-99039122D01*
X115396926Y-99033642D01*
X115354102Y-99028500D01*
X114167898Y-99028500D01*
X114128853Y-99033188D01*
X114079438Y-99039122D01*
X113938656Y-99094639D01*
X113818077Y-99186077D01*
X113726639Y-99306656D01*
X113671122Y-99447438D01*
X113665188Y-99496853D01*
X113660500Y-99535898D01*
X100767448Y-99535898D01*
X100767448Y-98285898D01*
X120950500Y-98285898D01*
X120950500Y-99472102D01*
X120955118Y-99510561D01*
X120961122Y-99560561D01*
X121016639Y-99701343D01*
X121108077Y-99821922D01*
X121228656Y-99913360D01*
X121228657Y-99913360D01*
X121228658Y-99913361D01*
X121369436Y-99968877D01*
X121457898Y-99979500D01*
X121457903Y-99979500D01*
X123444097Y-99979500D01*
X123444102Y-99979500D01*
X123532564Y-99968877D01*
X123673342Y-99913361D01*
X123793922Y-99821922D01*
X123885361Y-99701342D01*
X123940877Y-99560564D01*
X123951500Y-99472102D01*
X123951500Y-98285898D01*
X123940877Y-98197436D01*
X123885361Y-98056658D01*
X123885360Y-98056657D01*
X123885360Y-98056656D01*
X123793922Y-97936077D01*
X123787221Y-97930996D01*
X123673343Y-97844639D01*
X123651177Y-97835898D01*
X134092823Y-97835898D01*
X134092823Y-99422102D01*
X134097291Y-99459307D01*
X134103445Y-99510561D01*
X134103445Y-99510563D01*
X134103446Y-99510564D01*
X134121045Y-99555192D01*
X134158962Y-99651343D01*
X134250400Y-99771922D01*
X134370979Y-99863360D01*
X134370980Y-99863360D01*
X134370981Y-99863361D01*
X134511759Y-99918877D01*
X134600221Y-99929500D01*
X134600226Y-99929500D01*
X136186420Y-99929500D01*
X136186425Y-99929500D01*
X136274887Y-99918877D01*
X136415665Y-99863361D01*
X136536245Y-99771922D01*
X136627684Y-99651342D01*
X136683200Y-99510564D01*
X136693823Y-99422102D01*
X136693823Y-98526648D01*
X139092823Y-98526648D01*
X139092823Y-98731351D01*
X139124845Y-98933534D01*
X139188104Y-99128223D01*
X139252014Y-99253653D01*
X139279022Y-99306658D01*
X139281038Y-99310613D01*
X139401351Y-99476213D01*
X139546109Y-99620971D01*
X139656734Y-99701343D01*
X139711713Y-99741287D01*
X139827930Y-99800503D01*
X139894099Y-99834218D01*
X139894101Y-99834218D01*
X139894104Y-99834220D01*
X139983788Y-99863360D01*
X140088788Y-99897477D01*
X140189069Y-99913360D01*
X140290971Y-99929500D01*
X140290972Y-99929500D01*
X140495674Y-99929500D01*
X140495675Y-99929500D01*
X140697857Y-99897477D01*
X140892542Y-99834220D01*
X141074933Y-99741287D01*
X141167913Y-99673732D01*
X141240536Y-99620971D01*
X141240538Y-99620968D01*
X141240542Y-99620966D01*
X141325610Y-99535898D01*
X158660500Y-99535898D01*
X158660500Y-100722102D01*
X158666126Y-100768954D01*
X158671122Y-100810561D01*
X158726639Y-100951343D01*
X158818077Y-101071922D01*
X158938656Y-101163360D01*
X158938657Y-101163360D01*
X158938658Y-101163361D01*
X159079436Y-101218877D01*
X159167898Y-101229500D01*
X159167903Y-101229500D01*
X160354097Y-101229500D01*
X160354102Y-101229500D01*
X160442564Y-101218877D01*
X160583342Y-101163361D01*
X160703922Y-101071922D01*
X160795361Y-100951342D01*
X160850877Y-100810564D01*
X160861500Y-100722102D01*
X160861500Y-99535898D01*
X160850877Y-99447436D01*
X160795361Y-99306658D01*
X160795360Y-99306657D01*
X160795360Y-99306656D01*
X160703922Y-99186077D01*
X160583343Y-99094639D01*
X160442561Y-99039122D01*
X160396926Y-99033642D01*
X160354102Y-99028500D01*
X159167898Y-99028500D01*
X159128853Y-99033188D01*
X159079438Y-99039122D01*
X158938656Y-99094639D01*
X158818077Y-99186077D01*
X158726639Y-99306656D01*
X158671122Y-99447438D01*
X158665188Y-99496853D01*
X158660500Y-99535898D01*
X141325610Y-99535898D01*
X141385289Y-99476219D01*
X141388285Y-99472096D01*
X141397576Y-99459308D01*
X141397576Y-99459307D01*
X141424611Y-99422096D01*
X141505610Y-99310610D01*
X141598543Y-99128219D01*
X141661800Y-98933534D01*
X141693823Y-98731352D01*
X141693823Y-98526648D01*
X141661800Y-98324466D01*
X141649268Y-98285898D01*
X165950500Y-98285898D01*
X165950500Y-99472102D01*
X165955118Y-99510561D01*
X165961122Y-99560561D01*
X166016639Y-99701343D01*
X166108077Y-99821922D01*
X166228656Y-99913360D01*
X166228657Y-99913360D01*
X166228658Y-99913361D01*
X166369436Y-99968877D01*
X166457898Y-99979500D01*
X166457903Y-99979500D01*
X168444097Y-99979500D01*
X168444102Y-99979500D01*
X168532564Y-99968877D01*
X168673342Y-99913361D01*
X168793922Y-99821922D01*
X168885361Y-99701342D01*
X168940877Y-99560564D01*
X168951500Y-99472102D01*
X168951500Y-98285898D01*
X168940877Y-98197436D01*
X168885361Y-98056658D01*
X168885360Y-98056657D01*
X168885360Y-98056656D01*
X168793922Y-97936077D01*
X168787221Y-97930996D01*
X168673343Y-97844639D01*
X168651177Y-97835898D01*
X179092823Y-97835898D01*
X179092823Y-99422102D01*
X179097291Y-99459307D01*
X179103445Y-99510561D01*
X179103445Y-99510563D01*
X179103446Y-99510564D01*
X179121045Y-99555192D01*
X179158962Y-99651343D01*
X179250400Y-99771922D01*
X179370979Y-99863360D01*
X179370980Y-99863360D01*
X179370981Y-99863361D01*
X179511759Y-99918877D01*
X179600221Y-99929500D01*
X179600226Y-99929500D01*
X181186420Y-99929500D01*
X181186425Y-99929500D01*
X181274887Y-99918877D01*
X181415665Y-99863361D01*
X181536245Y-99771922D01*
X181627684Y-99651342D01*
X181683200Y-99510564D01*
X181693823Y-99422102D01*
X181693823Y-98526648D01*
X184092823Y-98526648D01*
X184092823Y-98731351D01*
X184124845Y-98933534D01*
X184188104Y-99128223D01*
X184252014Y-99253653D01*
X184279022Y-99306658D01*
X184281038Y-99310613D01*
X184401351Y-99476213D01*
X184546109Y-99620971D01*
X184656734Y-99701343D01*
X184711713Y-99741287D01*
X184827930Y-99800503D01*
X184894099Y-99834218D01*
X184894101Y-99834218D01*
X184894104Y-99834220D01*
X184983788Y-99863360D01*
X185088788Y-99897477D01*
X185189069Y-99913360D01*
X185290971Y-99929500D01*
X185290972Y-99929500D01*
X185495674Y-99929500D01*
X185495675Y-99929500D01*
X185697857Y-99897477D01*
X185892542Y-99834220D01*
X186074933Y-99741287D01*
X186167913Y-99673732D01*
X186240536Y-99620971D01*
X186240538Y-99620968D01*
X186240542Y-99620966D01*
X186385289Y-99476219D01*
X186385291Y-99476215D01*
X186385294Y-99476213D01*
X186438055Y-99403590D01*
X186505610Y-99310610D01*
X186598543Y-99128219D01*
X186661800Y-98933534D01*
X186693823Y-98731352D01*
X186693823Y-98526648D01*
X186661800Y-98324466D01*
X186661799Y-98324464D01*
X186598541Y-98129776D01*
X186561284Y-98056656D01*
X186505610Y-97947390D01*
X186430958Y-97844639D01*
X186385294Y-97781786D01*
X186240536Y-97637028D01*
X186074936Y-97516715D01*
X186074935Y-97516714D01*
X186074933Y-97516713D01*
X186014807Y-97486077D01*
X185892546Y-97423781D01*
X185697857Y-97360522D01*
X185523318Y-97332878D01*
X185495675Y-97328500D01*
X185290971Y-97328500D01*
X185266652Y-97332351D01*
X185088788Y-97360522D01*
X184894099Y-97423781D01*
X184711709Y-97516715D01*
X184546109Y-97637028D01*
X184401351Y-97781786D01*
X184281038Y-97947386D01*
X184188104Y-98129776D01*
X184124845Y-98324465D01*
X184092823Y-98526648D01*
X181693823Y-98526648D01*
X181693823Y-97835898D01*
X181683200Y-97747436D01*
X181627684Y-97606658D01*
X181627683Y-97606657D01*
X181627683Y-97606656D01*
X181536245Y-97486077D01*
X181415666Y-97394639D01*
X181274884Y-97339122D01*
X181229249Y-97333642D01*
X181186425Y-97328500D01*
X179600221Y-97328500D01*
X179561176Y-97333188D01*
X179511761Y-97339122D01*
X179370979Y-97394639D01*
X179250400Y-97486077D01*
X179158962Y-97606656D01*
X179103445Y-97747438D01*
X179099321Y-97781786D01*
X179092823Y-97835898D01*
X168651177Y-97835898D01*
X168532561Y-97789122D01*
X168486926Y-97783642D01*
X168444102Y-97778500D01*
X166457898Y-97778500D01*
X166418853Y-97783188D01*
X166369438Y-97789122D01*
X166228656Y-97844639D01*
X166108077Y-97936077D01*
X166016639Y-98056656D01*
X165961122Y-98197438D01*
X165955188Y-98246853D01*
X165950500Y-98285898D01*
X141649268Y-98285898D01*
X141620525Y-98197436D01*
X141598543Y-98129781D01*
X141505610Y-97947390D01*
X141430958Y-97844639D01*
X141385294Y-97781786D01*
X141240536Y-97637028D01*
X141074936Y-97516715D01*
X141074935Y-97516714D01*
X141074933Y-97516713D01*
X141014807Y-97486077D01*
X140892546Y-97423781D01*
X140697857Y-97360522D01*
X140523318Y-97332878D01*
X140495675Y-97328500D01*
X140290971Y-97328500D01*
X140266652Y-97332351D01*
X140088788Y-97360522D01*
X139894099Y-97423781D01*
X139711709Y-97516715D01*
X139546109Y-97637028D01*
X139401351Y-97781786D01*
X139281038Y-97947386D01*
X139188104Y-98129776D01*
X139124845Y-98324465D01*
X139092823Y-98526648D01*
X136693823Y-98526648D01*
X136693823Y-97835898D01*
X136683200Y-97747436D01*
X136627684Y-97606658D01*
X136627683Y-97606657D01*
X136627683Y-97606656D01*
X136536245Y-97486077D01*
X136415666Y-97394639D01*
X136274884Y-97339122D01*
X136229249Y-97333642D01*
X136186425Y-97328500D01*
X134600221Y-97328500D01*
X134561176Y-97333188D01*
X134511761Y-97339122D01*
X134370979Y-97394639D01*
X134250400Y-97486077D01*
X134158962Y-97606656D01*
X134103445Y-97747438D01*
X134099321Y-97781786D01*
X134092823Y-97835898D01*
X123651177Y-97835898D01*
X123532561Y-97789122D01*
X123486926Y-97783642D01*
X123444102Y-97778500D01*
X121457898Y-97778500D01*
X121418853Y-97783188D01*
X121369438Y-97789122D01*
X121228656Y-97844639D01*
X121108077Y-97936077D01*
X121016639Y-98056656D01*
X120961122Y-98197438D01*
X120955188Y-98246853D01*
X120950500Y-98285898D01*
X100767448Y-98285898D01*
X100767448Y-95542389D01*
X118660500Y-95542389D01*
X118660500Y-95715611D01*
X118687598Y-95886701D01*
X118741127Y-96051445D01*
X118819768Y-96205788D01*
X118921586Y-96345928D01*
X119044072Y-96468414D01*
X119184212Y-96570232D01*
X119338555Y-96648873D01*
X119503299Y-96702402D01*
X119674389Y-96729500D01*
X119674390Y-96729500D01*
X119847610Y-96729500D01*
X119847611Y-96729500D01*
X120018701Y-96702402D01*
X120183445Y-96648873D01*
X120337788Y-96570232D01*
X120477928Y-96468414D01*
X120600414Y-96345928D01*
X120702232Y-96205788D01*
X120780873Y-96051445D01*
X120834402Y-95886701D01*
X120861500Y-95715611D01*
X120861500Y-95542389D01*
X163660500Y-95542389D01*
X163660500Y-95715611D01*
X163687598Y-95886701D01*
X163741127Y-96051445D01*
X163819768Y-96205788D01*
X163921586Y-96345928D01*
X164044072Y-96468414D01*
X164184212Y-96570232D01*
X164338555Y-96648873D01*
X164503299Y-96702402D01*
X164674389Y-96729500D01*
X164674390Y-96729500D01*
X164847610Y-96729500D01*
X164847611Y-96729500D01*
X165018701Y-96702402D01*
X165183445Y-96648873D01*
X165337788Y-96570232D01*
X165477928Y-96468414D01*
X165600414Y-96345928D01*
X165702232Y-96205788D01*
X165780873Y-96051445D01*
X165834402Y-95886701D01*
X165861500Y-95715611D01*
X165861500Y-95542389D01*
X165834402Y-95371299D01*
X165780873Y-95206555D01*
X165702232Y-95052212D01*
X165600414Y-94912072D01*
X165477928Y-94789586D01*
X165337788Y-94687768D01*
X165183445Y-94609127D01*
X165018701Y-94555598D01*
X165018699Y-94555597D01*
X165018698Y-94555597D01*
X164887271Y-94534781D01*
X164847611Y-94528500D01*
X164674389Y-94528500D01*
X164634728Y-94534781D01*
X164503302Y-94555597D01*
X164338552Y-94609128D01*
X164184211Y-94687768D01*
X164104256Y-94745859D01*
X164044072Y-94789586D01*
X164044070Y-94789588D01*
X164044069Y-94789588D01*
X163921588Y-94912069D01*
X163921588Y-94912070D01*
X163921586Y-94912072D01*
X163877859Y-94972256D01*
X163819768Y-95052211D01*
X163741128Y-95206552D01*
X163687597Y-95371302D01*
X163660500Y-95542389D01*
X120861500Y-95542389D01*
X120834402Y-95371299D01*
X120780873Y-95206555D01*
X120702232Y-95052212D01*
X120600414Y-94912072D01*
X120477928Y-94789586D01*
X120337788Y-94687768D01*
X120183445Y-94609127D01*
X120018701Y-94555598D01*
X120018699Y-94555597D01*
X120018698Y-94555597D01*
X119887271Y-94534781D01*
X119847611Y-94528500D01*
X119674389Y-94528500D01*
X119634728Y-94534781D01*
X119503302Y-94555597D01*
X119338552Y-94609128D01*
X119184211Y-94687768D01*
X119104256Y-94745859D01*
X119044072Y-94789586D01*
X119044070Y-94789588D01*
X119044069Y-94789588D01*
X118921588Y-94912069D01*
X118921588Y-94912070D01*
X118921586Y-94912072D01*
X118877859Y-94972256D01*
X118819768Y-95052211D01*
X118741128Y-95206552D01*
X118687597Y-95371302D01*
X118660500Y-95542389D01*
X100767448Y-95542389D01*
X100767448Y-90491332D01*
X101160500Y-90491332D01*
X101160500Y-90766667D01*
X101160501Y-90766684D01*
X101196438Y-91039655D01*
X101196439Y-91039660D01*
X101196440Y-91039666D01*
X101196441Y-91039668D01*
X101267704Y-91305630D01*
X101373075Y-91560017D01*
X101373080Y-91560028D01*
X101438815Y-91673882D01*
X101510751Y-91798479D01*
X101510753Y-91798482D01*
X101510754Y-91798483D01*
X101678370Y-92016926D01*
X101678376Y-92016933D01*
X101873066Y-92211623D01*
X101873072Y-92211628D01*
X102091521Y-92379249D01*
X102244778Y-92467732D01*
X102329971Y-92516919D01*
X102329976Y-92516921D01*
X102329979Y-92516923D01*
X102584368Y-92622295D01*
X102850334Y-92693560D01*
X103123326Y-92729500D01*
X103123333Y-92729500D01*
X103398667Y-92729500D01*
X103398674Y-92729500D01*
X103671666Y-92693560D01*
X103937632Y-92622295D01*
X104192021Y-92516923D01*
X104430479Y-92379249D01*
X104648928Y-92211628D01*
X104843628Y-92016928D01*
X105011249Y-91798479D01*
X105148923Y-91560021D01*
X105254295Y-91305632D01*
X105325560Y-91039666D01*
X105361500Y-90766674D01*
X105361500Y-90491326D01*
X105325560Y-90218334D01*
X105254295Y-89952368D01*
X105148923Y-89697979D01*
X105148921Y-89697976D01*
X105148919Y-89697971D01*
X105099732Y-89612778D01*
X105011249Y-89459521D01*
X104843628Y-89241072D01*
X104843623Y-89241066D01*
X104648933Y-89046376D01*
X104648926Y-89046370D01*
X104430483Y-88878754D01*
X104430482Y-88878753D01*
X104430479Y-88878751D01*
X104335407Y-88823861D01*
X104192028Y-88741080D01*
X104192017Y-88741075D01*
X104081060Y-88695115D01*
X103937630Y-88635704D01*
X103804649Y-88600072D01*
X103745155Y-88584131D01*
X128260500Y-88584131D01*
X128260500Y-91673856D01*
X128260502Y-91673882D01*
X128263413Y-91698987D01*
X128263415Y-91698991D01*
X128308793Y-91801764D01*
X128308794Y-91801765D01*
X128388235Y-91881206D01*
X128491009Y-91926585D01*
X128516135Y-91929500D01*
X131605864Y-91929499D01*
X131605879Y-91929497D01*
X131605882Y-91929497D01*
X131630987Y-91926586D01*
X131630988Y-91926585D01*
X131630991Y-91926585D01*
X131733765Y-91881206D01*
X131813206Y-91801765D01*
X131858585Y-91698991D01*
X131861500Y-91673865D01*
X131861499Y-90491332D01*
X138160500Y-90491332D01*
X138160500Y-90766667D01*
X138160501Y-90766684D01*
X138196438Y-91039655D01*
X138196439Y-91039660D01*
X138196440Y-91039666D01*
X138196441Y-91039668D01*
X138267704Y-91305630D01*
X138373075Y-91560017D01*
X138373080Y-91560028D01*
X138438815Y-91673882D01*
X138510751Y-91798479D01*
X138510753Y-91798482D01*
X138510754Y-91798483D01*
X138678370Y-92016926D01*
X138678376Y-92016933D01*
X138873066Y-92211623D01*
X138873072Y-92211628D01*
X139091521Y-92379249D01*
X139244778Y-92467732D01*
X139329971Y-92516919D01*
X139329976Y-92516921D01*
X139329979Y-92516923D01*
X139584368Y-92622295D01*
X139850334Y-92693560D01*
X140123326Y-92729500D01*
X140123333Y-92729500D01*
X140398667Y-92729500D01*
X140398674Y-92729500D01*
X140671666Y-92693560D01*
X140937632Y-92622295D01*
X141192021Y-92516923D01*
X141430479Y-92379249D01*
X141648928Y-92211628D01*
X141843628Y-92016928D01*
X142011249Y-91798479D01*
X142148923Y-91560021D01*
X142254295Y-91305632D01*
X142325560Y-91039666D01*
X142361500Y-90766674D01*
X142361500Y-90491332D01*
X146160500Y-90491332D01*
X146160500Y-90766667D01*
X146160501Y-90766684D01*
X146196438Y-91039655D01*
X146196439Y-91039660D01*
X146196440Y-91039666D01*
X146196441Y-91039668D01*
X146267704Y-91305630D01*
X146373075Y-91560017D01*
X146373080Y-91560028D01*
X146438815Y-91673882D01*
X146510751Y-91798479D01*
X146510753Y-91798482D01*
X146510754Y-91798483D01*
X146678370Y-92016926D01*
X146678376Y-92016933D01*
X146873066Y-92211623D01*
X146873072Y-92211628D01*
X147091521Y-92379249D01*
X147244778Y-92467732D01*
X147329971Y-92516919D01*
X147329976Y-92516921D01*
X147329979Y-92516923D01*
X147584368Y-92622295D01*
X147850334Y-92693560D01*
X148123326Y-92729500D01*
X148123333Y-92729500D01*
X148398667Y-92729500D01*
X148398674Y-92729500D01*
X148671666Y-92693560D01*
X148937632Y-92622295D01*
X149192021Y-92516923D01*
X149430479Y-92379249D01*
X149648928Y-92211628D01*
X149843628Y-92016928D01*
X150011249Y-91798479D01*
X150148923Y-91560021D01*
X150254295Y-91305632D01*
X150325560Y-91039666D01*
X150361500Y-90766674D01*
X150361500Y-90491326D01*
X150325560Y-90218334D01*
X150254295Y-89952368D01*
X150148923Y-89697979D01*
X150148921Y-89697976D01*
X150148919Y-89697971D01*
X150099732Y-89612778D01*
X150011249Y-89459521D01*
X149843628Y-89241072D01*
X149843623Y-89241066D01*
X149648933Y-89046376D01*
X149648926Y-89046370D01*
X149430483Y-88878754D01*
X149430482Y-88878753D01*
X149430479Y-88878751D01*
X149335407Y-88823861D01*
X149192028Y-88741080D01*
X149192017Y-88741075D01*
X149081060Y-88695115D01*
X148937630Y-88635704D01*
X148804649Y-88600072D01*
X148745155Y-88584131D01*
X173260500Y-88584131D01*
X173260500Y-91673856D01*
X173260502Y-91673882D01*
X173263413Y-91698987D01*
X173263415Y-91698991D01*
X173308793Y-91801764D01*
X173308794Y-91801765D01*
X173388235Y-91881206D01*
X173491009Y-91926585D01*
X173516135Y-91929500D01*
X176605864Y-91929499D01*
X176605879Y-91929497D01*
X176605882Y-91929497D01*
X176630987Y-91926586D01*
X176630988Y-91926585D01*
X176630991Y-91926585D01*
X176733765Y-91881206D01*
X176813206Y-91801765D01*
X176858585Y-91698991D01*
X176861500Y-91673865D01*
X176861499Y-90491332D01*
X183160500Y-90491332D01*
X183160500Y-90766667D01*
X183160501Y-90766684D01*
X183196438Y-91039655D01*
X183196439Y-91039660D01*
X183196440Y-91039666D01*
X183196441Y-91039668D01*
X183267704Y-91305630D01*
X183373075Y-91560017D01*
X183373080Y-91560028D01*
X183438815Y-91673882D01*
X183510751Y-91798479D01*
X183510753Y-91798482D01*
X183510754Y-91798483D01*
X183678370Y-92016926D01*
X183678376Y-92016933D01*
X183873066Y-92211623D01*
X183873072Y-92211628D01*
X184091521Y-92379249D01*
X184244778Y-92467732D01*
X184329971Y-92516919D01*
X184329976Y-92516921D01*
X184329979Y-92516923D01*
X184584368Y-92622295D01*
X184850334Y-92693560D01*
X185123326Y-92729500D01*
X185123333Y-92729500D01*
X185398667Y-92729500D01*
X185398674Y-92729500D01*
X185671666Y-92693560D01*
X185937632Y-92622295D01*
X186192021Y-92516923D01*
X186430479Y-92379249D01*
X186648928Y-92211628D01*
X186843628Y-92016928D01*
X187011249Y-91798479D01*
X187148923Y-91560021D01*
X187254295Y-91305632D01*
X187325560Y-91039666D01*
X187361500Y-90766674D01*
X187361500Y-90491326D01*
X187325560Y-90218334D01*
X187254295Y-89952368D01*
X187148923Y-89697979D01*
X187148921Y-89697976D01*
X187148919Y-89697971D01*
X187099732Y-89612778D01*
X187011249Y-89459521D01*
X186843628Y-89241072D01*
X186843623Y-89241066D01*
X186648933Y-89046376D01*
X186648926Y-89046370D01*
X186430483Y-88878754D01*
X186430482Y-88878753D01*
X186430479Y-88878751D01*
X186335407Y-88823861D01*
X186192028Y-88741080D01*
X186192017Y-88741075D01*
X185937630Y-88635704D01*
X185804649Y-88600072D01*
X185671666Y-88564440D01*
X185671660Y-88564439D01*
X185671655Y-88564438D01*
X185398684Y-88528501D01*
X185398679Y-88528500D01*
X185398674Y-88528500D01*
X185123326Y-88528500D01*
X185123320Y-88528500D01*
X185123315Y-88528501D01*
X184850344Y-88564438D01*
X184850337Y-88564439D01*
X184850334Y-88564440D01*
X184794125Y-88579500D01*
X184584369Y-88635704D01*
X184329982Y-88741075D01*
X184329971Y-88741080D01*
X184091516Y-88878754D01*
X183873073Y-89046370D01*
X183873066Y-89046376D01*
X183678376Y-89241066D01*
X183678370Y-89241073D01*
X183510754Y-89459516D01*
X183373080Y-89697971D01*
X183373075Y-89697982D01*
X183267704Y-89952369D01*
X183196441Y-90218331D01*
X183196438Y-90218344D01*
X183160501Y-90491315D01*
X183160500Y-90491332D01*
X176861499Y-90491332D01*
X176861499Y-89952369D01*
X176861499Y-88584143D01*
X176861499Y-88584136D01*
X176861497Y-88584117D01*
X176858586Y-88559012D01*
X176858585Y-88559010D01*
X176858585Y-88559009D01*
X176813206Y-88456235D01*
X176733765Y-88376794D01*
X176733763Y-88376793D01*
X176630992Y-88331415D01*
X176605865Y-88328500D01*
X173516143Y-88328500D01*
X173516117Y-88328502D01*
X173491012Y-88331413D01*
X173491008Y-88331415D01*
X173388235Y-88376793D01*
X173308794Y-88456234D01*
X173263415Y-88559006D01*
X173263415Y-88559008D01*
X173260500Y-88584131D01*
X148745155Y-88584131D01*
X148671666Y-88564440D01*
X148671660Y-88564439D01*
X148671655Y-88564438D01*
X148398684Y-88528501D01*
X148398679Y-88528500D01*
X148398674Y-88528500D01*
X148123326Y-88528500D01*
X148123320Y-88528500D01*
X148123315Y-88528501D01*
X147850344Y-88564438D01*
X147850337Y-88564439D01*
X147850334Y-88564440D01*
X147794125Y-88579500D01*
X147584369Y-88635704D01*
X147329982Y-88741075D01*
X147329971Y-88741080D01*
X147091516Y-88878754D01*
X146873073Y-89046370D01*
X146873066Y-89046376D01*
X146678376Y-89241066D01*
X146678370Y-89241073D01*
X146510754Y-89459516D01*
X146373080Y-89697971D01*
X146373075Y-89697982D01*
X146267704Y-89952369D01*
X146196441Y-90218331D01*
X146196438Y-90218344D01*
X146160501Y-90491315D01*
X146160500Y-90491332D01*
X142361500Y-90491332D01*
X142361500Y-90491326D01*
X142325560Y-90218334D01*
X142254295Y-89952368D01*
X142148923Y-89697979D01*
X142148921Y-89697976D01*
X142148919Y-89697971D01*
X142099732Y-89612778D01*
X142011249Y-89459521D01*
X141843628Y-89241072D01*
X141843623Y-89241066D01*
X141648933Y-89046376D01*
X141648926Y-89046370D01*
X141430483Y-88878754D01*
X141430482Y-88878753D01*
X141430479Y-88878751D01*
X141335407Y-88823861D01*
X141192028Y-88741080D01*
X141192017Y-88741075D01*
X140937630Y-88635704D01*
X140804649Y-88600072D01*
X140671666Y-88564440D01*
X140671660Y-88564439D01*
X140671655Y-88564438D01*
X140398684Y-88528501D01*
X140398679Y-88528500D01*
X140398674Y-88528500D01*
X140123326Y-88528500D01*
X140123320Y-88528500D01*
X140123315Y-88528501D01*
X139850344Y-88564438D01*
X139850337Y-88564439D01*
X139850334Y-88564440D01*
X139794125Y-88579500D01*
X139584369Y-88635704D01*
X139329982Y-88741075D01*
X139329971Y-88741080D01*
X139091516Y-88878754D01*
X138873073Y-89046370D01*
X138873066Y-89046376D01*
X138678376Y-89241066D01*
X138678370Y-89241073D01*
X138510754Y-89459516D01*
X138373080Y-89697971D01*
X138373075Y-89697982D01*
X138267704Y-89952369D01*
X138196441Y-90218331D01*
X138196438Y-90218344D01*
X138160501Y-90491315D01*
X138160500Y-90491332D01*
X131861499Y-90491332D01*
X131861499Y-89952369D01*
X131861499Y-88584143D01*
X131861499Y-88584136D01*
X131861497Y-88584117D01*
X131858586Y-88559012D01*
X131858585Y-88559010D01*
X131858585Y-88559009D01*
X131813206Y-88456235D01*
X131733765Y-88376794D01*
X131733763Y-88376793D01*
X131630992Y-88331415D01*
X131605865Y-88328500D01*
X128516143Y-88328500D01*
X128516117Y-88328502D01*
X128491012Y-88331413D01*
X128491008Y-88331415D01*
X128388235Y-88376793D01*
X128308794Y-88456234D01*
X128263415Y-88559006D01*
X128263415Y-88559008D01*
X128260500Y-88584131D01*
X103745155Y-88584131D01*
X103671666Y-88564440D01*
X103671660Y-88564439D01*
X103671655Y-88564438D01*
X103398684Y-88528501D01*
X103398679Y-88528500D01*
X103398674Y-88528500D01*
X103123326Y-88528500D01*
X103123320Y-88528500D01*
X103123315Y-88528501D01*
X102850344Y-88564438D01*
X102850337Y-88564439D01*
X102850334Y-88564440D01*
X102794125Y-88579500D01*
X102584369Y-88635704D01*
X102329982Y-88741075D01*
X102329971Y-88741080D01*
X102091516Y-88878754D01*
X101873073Y-89046370D01*
X101873066Y-89046376D01*
X101678376Y-89241066D01*
X101678370Y-89241073D01*
X101510754Y-89459516D01*
X101373080Y-89697971D01*
X101373075Y-89697982D01*
X101267704Y-89952369D01*
X101196441Y-90218331D01*
X101196438Y-90218344D01*
X101160501Y-90491315D01*
X101160500Y-90491332D01*
X100767448Y-90491332D01*
X100767448Y-87753000D01*
X100787133Y-87685961D01*
X100839937Y-87640206D01*
X100891448Y-87629000D01*
X187642448Y-87629000D01*
X187709487Y-87648685D01*
G37*
%TD.AperFunction*%
%TD*%
%TA.AperFunction,Conductor*%
%TO.N,GND*%
G36*
X128427519Y-47149185D02*
G01*
X128473274Y-47201989D01*
X128483218Y-47271147D01*
X128454193Y-47334703D01*
X128410569Y-47366932D01*
X128388235Y-47376794D01*
X128388233Y-47376795D01*
X128308794Y-47456234D01*
X128263415Y-47559006D01*
X128263415Y-47559008D01*
X128260500Y-47584131D01*
X128260500Y-50673856D01*
X128260502Y-50673882D01*
X128263413Y-50698987D01*
X128263415Y-50698991D01*
X128308793Y-50801764D01*
X128308794Y-50801765D01*
X128388235Y-50881206D01*
X128491009Y-50926585D01*
X128516135Y-50929500D01*
X131605864Y-50929499D01*
X131605879Y-50929497D01*
X131605882Y-50929497D01*
X131630987Y-50926586D01*
X131630988Y-50926585D01*
X131630991Y-50926585D01*
X131733765Y-50881206D01*
X131813206Y-50801765D01*
X131858585Y-50698991D01*
X131861500Y-50673865D01*
X131861499Y-49491332D01*
X138160500Y-49491332D01*
X138160500Y-49766667D01*
X138160501Y-49766684D01*
X138196438Y-50039655D01*
X138196439Y-50039660D01*
X138196440Y-50039666D01*
X138196441Y-50039668D01*
X138267704Y-50305630D01*
X138373075Y-50560017D01*
X138373080Y-50560028D01*
X138438815Y-50673882D01*
X138510751Y-50798479D01*
X138510753Y-50798482D01*
X138510754Y-50798483D01*
X138678370Y-51016926D01*
X138678376Y-51016933D01*
X138873066Y-51211623D01*
X138873072Y-51211628D01*
X139091521Y-51379249D01*
X139244778Y-51467732D01*
X139329971Y-51516919D01*
X139329976Y-51516921D01*
X139329979Y-51516923D01*
X139584368Y-51622295D01*
X139850334Y-51693560D01*
X140123326Y-51729500D01*
X140123333Y-51729500D01*
X140398667Y-51729500D01*
X140398674Y-51729500D01*
X140671666Y-51693560D01*
X140937632Y-51622295D01*
X141192021Y-51516923D01*
X141430479Y-51379249D01*
X141648928Y-51211628D01*
X141843628Y-51016928D01*
X142011249Y-50798479D01*
X142148923Y-50560021D01*
X142254295Y-50305632D01*
X142325560Y-50039666D01*
X142361500Y-49766674D01*
X142361500Y-49491332D01*
X146160500Y-49491332D01*
X146160500Y-49766667D01*
X146160501Y-49766684D01*
X146196438Y-50039655D01*
X146196439Y-50039660D01*
X146196440Y-50039666D01*
X146196441Y-50039668D01*
X146267704Y-50305630D01*
X146373075Y-50560017D01*
X146373080Y-50560028D01*
X146438815Y-50673882D01*
X146510751Y-50798479D01*
X146510753Y-50798482D01*
X146510754Y-50798483D01*
X146678370Y-51016926D01*
X146678376Y-51016933D01*
X146873066Y-51211623D01*
X146873072Y-51211628D01*
X147091521Y-51379249D01*
X147244778Y-51467732D01*
X147329971Y-51516919D01*
X147329976Y-51516921D01*
X147329979Y-51516923D01*
X147584368Y-51622295D01*
X147850334Y-51693560D01*
X148123326Y-51729500D01*
X148123333Y-51729500D01*
X148398667Y-51729500D01*
X148398674Y-51729500D01*
X148671666Y-51693560D01*
X148937632Y-51622295D01*
X149192021Y-51516923D01*
X149430479Y-51379249D01*
X149648928Y-51211628D01*
X149843628Y-51016928D01*
X150011249Y-50798479D01*
X150148923Y-50560021D01*
X150254295Y-50305632D01*
X150325560Y-50039666D01*
X150361500Y-49766674D01*
X150361500Y-49491326D01*
X150325560Y-49218334D01*
X150254295Y-48952368D01*
X150148923Y-48697979D01*
X150148921Y-48697976D01*
X150148919Y-48697971D01*
X150099732Y-48612778D01*
X150011249Y-48459521D01*
X149843628Y-48241072D01*
X149843623Y-48241066D01*
X149648933Y-48046376D01*
X149648926Y-48046370D01*
X149430483Y-47878754D01*
X149430482Y-47878753D01*
X149430479Y-47878751D01*
X149335407Y-47823861D01*
X149192028Y-47741080D01*
X149192017Y-47741075D01*
X148937630Y-47635704D01*
X148804649Y-47600072D01*
X148671666Y-47564440D01*
X148671660Y-47564439D01*
X148671655Y-47564438D01*
X148398684Y-47528501D01*
X148398679Y-47528500D01*
X148398674Y-47528500D01*
X148123326Y-47528500D01*
X148123320Y-47528500D01*
X148123315Y-47528501D01*
X147850344Y-47564438D01*
X147850337Y-47564439D01*
X147850334Y-47564440D01*
X147794125Y-47579500D01*
X147584369Y-47635704D01*
X147329982Y-47741075D01*
X147329971Y-47741080D01*
X147091516Y-47878754D01*
X146873073Y-48046370D01*
X146873066Y-48046376D01*
X146678376Y-48241066D01*
X146678370Y-48241073D01*
X146510754Y-48459516D01*
X146373080Y-48697971D01*
X146373075Y-48697982D01*
X146267704Y-48952369D01*
X146196441Y-49218331D01*
X146196438Y-49218344D01*
X146160501Y-49491315D01*
X146160500Y-49491332D01*
X142361500Y-49491332D01*
X142361500Y-49491326D01*
X142325560Y-49218334D01*
X142254295Y-48952368D01*
X142148923Y-48697979D01*
X142148921Y-48697976D01*
X142148919Y-48697971D01*
X142099732Y-48612778D01*
X142011249Y-48459521D01*
X141843628Y-48241072D01*
X141843623Y-48241066D01*
X141648933Y-48046376D01*
X141648926Y-48046370D01*
X141430483Y-47878754D01*
X141430482Y-47878753D01*
X141430479Y-47878751D01*
X141335407Y-47823861D01*
X141192028Y-47741080D01*
X141192017Y-47741075D01*
X140937630Y-47635704D01*
X140804649Y-47600072D01*
X140671666Y-47564440D01*
X140671660Y-47564439D01*
X140671655Y-47564438D01*
X140398684Y-47528501D01*
X140398679Y-47528500D01*
X140398674Y-47528500D01*
X140123326Y-47528500D01*
X140123320Y-47528500D01*
X140123315Y-47528501D01*
X139850344Y-47564438D01*
X139850337Y-47564439D01*
X139850334Y-47564440D01*
X139794125Y-47579500D01*
X139584369Y-47635704D01*
X139329982Y-47741075D01*
X139329971Y-47741080D01*
X139091516Y-47878754D01*
X138873073Y-48046370D01*
X138873066Y-48046376D01*
X138678376Y-48241066D01*
X138678370Y-48241073D01*
X138510754Y-48459516D01*
X138373080Y-48697971D01*
X138373075Y-48697982D01*
X138267704Y-48952369D01*
X138196441Y-49218331D01*
X138196438Y-49218344D01*
X138160501Y-49491315D01*
X138160500Y-49491332D01*
X131861499Y-49491332D01*
X131861499Y-48952369D01*
X131861499Y-47584143D01*
X131861499Y-47584136D01*
X131861497Y-47584117D01*
X131858586Y-47559012D01*
X131858585Y-47559010D01*
X131858585Y-47559009D01*
X131813206Y-47456235D01*
X131733765Y-47376794D01*
X131711433Y-47366933D01*
X131658058Y-47321848D01*
X131637531Y-47255061D01*
X131656370Y-47187779D01*
X131708593Y-47141363D01*
X131761521Y-47129500D01*
X173360480Y-47129500D01*
X173427519Y-47149185D01*
X173473274Y-47201989D01*
X173483218Y-47271147D01*
X173454193Y-47334703D01*
X173410569Y-47366932D01*
X173388235Y-47376794D01*
X173388233Y-47376795D01*
X173308794Y-47456234D01*
X173263415Y-47559006D01*
X173263415Y-47559008D01*
X173260500Y-47584131D01*
X173260500Y-50673856D01*
X173260502Y-50673882D01*
X173263413Y-50698987D01*
X173263415Y-50698991D01*
X173308793Y-50801764D01*
X173308794Y-50801765D01*
X173388235Y-50881206D01*
X173491009Y-50926585D01*
X173516135Y-50929500D01*
X176605864Y-50929499D01*
X176605879Y-50929497D01*
X176605882Y-50929497D01*
X176630987Y-50926586D01*
X176630988Y-50926585D01*
X176630991Y-50926585D01*
X176733765Y-50881206D01*
X176813206Y-50801765D01*
X176858585Y-50698991D01*
X176861500Y-50673865D01*
X176861499Y-49491332D01*
X183160500Y-49491332D01*
X183160500Y-49766667D01*
X183160501Y-49766684D01*
X183196438Y-50039655D01*
X183196439Y-50039660D01*
X183196440Y-50039666D01*
X183196441Y-50039668D01*
X183267704Y-50305630D01*
X183373075Y-50560017D01*
X183373080Y-50560028D01*
X183438815Y-50673882D01*
X183510751Y-50798479D01*
X183510753Y-50798482D01*
X183510754Y-50798483D01*
X183678370Y-51016926D01*
X183678376Y-51016933D01*
X183873066Y-51211623D01*
X183873072Y-51211628D01*
X184091521Y-51379249D01*
X184244778Y-51467732D01*
X184329971Y-51516919D01*
X184329976Y-51516921D01*
X184329979Y-51516923D01*
X184584368Y-51622295D01*
X184850334Y-51693560D01*
X185123326Y-51729500D01*
X185123333Y-51729500D01*
X185398667Y-51729500D01*
X185398674Y-51729500D01*
X185671666Y-51693560D01*
X185937632Y-51622295D01*
X186192021Y-51516923D01*
X186430479Y-51379249D01*
X186648928Y-51211628D01*
X186843628Y-51016928D01*
X187011249Y-50798479D01*
X187148923Y-50560021D01*
X187254295Y-50305632D01*
X187325560Y-50039666D01*
X187361500Y-49766674D01*
X187361500Y-49491326D01*
X187325560Y-49218334D01*
X187254295Y-48952368D01*
X187148923Y-48697979D01*
X187148921Y-48697976D01*
X187148919Y-48697971D01*
X187099732Y-48612778D01*
X187011249Y-48459521D01*
X186843628Y-48241072D01*
X186843623Y-48241066D01*
X186648933Y-48046376D01*
X186648926Y-48046370D01*
X186430483Y-47878754D01*
X186430482Y-47878753D01*
X186430479Y-47878751D01*
X186335407Y-47823861D01*
X186192028Y-47741080D01*
X186192017Y-47741075D01*
X185937630Y-47635704D01*
X185804649Y-47600072D01*
X185671666Y-47564440D01*
X185671660Y-47564439D01*
X185671655Y-47564438D01*
X185398684Y-47528501D01*
X185398679Y-47528500D01*
X185398674Y-47528500D01*
X185123326Y-47528500D01*
X185123320Y-47528500D01*
X185123315Y-47528501D01*
X184850344Y-47564438D01*
X184850337Y-47564439D01*
X184850334Y-47564440D01*
X184794125Y-47579500D01*
X184584369Y-47635704D01*
X184329982Y-47741075D01*
X184329971Y-47741080D01*
X184091516Y-47878754D01*
X183873073Y-48046370D01*
X183873066Y-48046376D01*
X183678376Y-48241066D01*
X183678370Y-48241073D01*
X183510754Y-48459516D01*
X183373080Y-48697971D01*
X183373075Y-48697982D01*
X183267704Y-48952369D01*
X183196441Y-49218331D01*
X183196438Y-49218344D01*
X183160501Y-49491315D01*
X183160500Y-49491332D01*
X176861499Y-49491332D01*
X176861499Y-48952369D01*
X176861499Y-47584143D01*
X176861499Y-47584136D01*
X176861497Y-47584117D01*
X176858586Y-47559012D01*
X176858585Y-47559010D01*
X176858585Y-47559009D01*
X176813206Y-47456235D01*
X176733765Y-47376794D01*
X176711433Y-47366933D01*
X176658058Y-47321848D01*
X176637531Y-47255061D01*
X176656370Y-47187779D01*
X176708593Y-47141363D01*
X176761521Y-47129500D01*
X187642448Y-47129500D01*
X187709487Y-47149185D01*
X187755242Y-47201989D01*
X187766448Y-47253500D01*
X187766448Y-65034641D01*
X187746763Y-65101680D01*
X187693959Y-65147435D01*
X187624801Y-65157379D01*
X187561245Y-65128354D01*
X187531963Y-65090936D01*
X187512231Y-65052211D01*
X187410414Y-64912072D01*
X187287928Y-64789586D01*
X187147788Y-64687768D01*
X186993445Y-64609127D01*
X186828701Y-64555598D01*
X186828699Y-64555597D01*
X186828698Y-64555597D01*
X186697271Y-64534781D01*
X186657611Y-64528500D01*
X186484389Y-64528500D01*
X186444728Y-64534781D01*
X186313302Y-64555597D01*
X186148552Y-64609128D01*
X185994211Y-64687768D01*
X185936652Y-64729588D01*
X185854072Y-64789586D01*
X185854070Y-64789588D01*
X185854069Y-64789588D01*
X185731588Y-64912069D01*
X185731588Y-64912070D01*
X185731586Y-64912072D01*
X185724220Y-64922211D01*
X185629768Y-65052211D01*
X185551128Y-65206552D01*
X185497597Y-65371302D01*
X185470500Y-65542389D01*
X185470500Y-65715610D01*
X185491719Y-65849586D01*
X185497598Y-65886701D01*
X185551127Y-66051445D01*
X185629768Y-66205788D01*
X185731586Y-66345928D01*
X185854072Y-66468414D01*
X185994212Y-66570232D01*
X186148555Y-66648873D01*
X186313299Y-66702402D01*
X186484389Y-66729500D01*
X186484390Y-66729500D01*
X186657610Y-66729500D01*
X186657611Y-66729500D01*
X186828701Y-66702402D01*
X186993445Y-66648873D01*
X187147788Y-66570232D01*
X187287928Y-66468414D01*
X187410414Y-66345928D01*
X187512232Y-66205788D01*
X187531963Y-66167064D01*
X187579937Y-66116267D01*
X187647758Y-66099472D01*
X187713893Y-66122009D01*
X187757345Y-66176724D01*
X187766448Y-66223358D01*
X187766448Y-85505000D01*
X187746763Y-85572039D01*
X187693959Y-85617794D01*
X187642448Y-85629000D01*
X100891448Y-85629000D01*
X100824409Y-85609315D01*
X100778654Y-85556511D01*
X100767448Y-85505000D01*
X100767448Y-81584131D01*
X101880500Y-81584131D01*
X101880500Y-84673856D01*
X101880502Y-84673882D01*
X101883413Y-84698987D01*
X101883415Y-84698991D01*
X101928793Y-84801764D01*
X101928794Y-84801765D01*
X102008235Y-84881206D01*
X102111009Y-84926585D01*
X102136135Y-84929500D01*
X105225864Y-84929499D01*
X105225879Y-84929497D01*
X105225882Y-84929497D01*
X105250987Y-84926586D01*
X105250988Y-84926585D01*
X105250991Y-84926585D01*
X105353765Y-84881206D01*
X105433206Y-84801765D01*
X105478585Y-84698991D01*
X105481500Y-84673865D01*
X105481499Y-82763269D01*
X114790500Y-82763269D01*
X114790500Y-82994730D01*
X114826709Y-83223344D01*
X114898232Y-83443473D01*
X114898233Y-83443476D01*
X115003318Y-83649713D01*
X115139359Y-83836959D01*
X115139363Y-83836964D01*
X115303035Y-84000636D01*
X115303040Y-84000640D01*
X115466366Y-84119302D01*
X115490290Y-84136684D01*
X115625106Y-84205376D01*
X115696523Y-84241766D01*
X115696526Y-84241767D01*
X115806590Y-84277528D01*
X115916657Y-84313291D01*
X116145269Y-84349500D01*
X116145270Y-84349500D01*
X116376730Y-84349500D01*
X116376731Y-84349500D01*
X116605343Y-84313291D01*
X116825476Y-84241766D01*
X117031710Y-84136684D01*
X117218966Y-84000635D01*
X117382635Y-83836966D01*
X117518684Y-83649710D01*
X117623766Y-83443476D01*
X117695291Y-83223343D01*
X117731500Y-82994731D01*
X117731500Y-82763269D01*
X119790500Y-82763269D01*
X119790500Y-82994730D01*
X119826709Y-83223344D01*
X119898232Y-83443473D01*
X119898233Y-83443476D01*
X120003318Y-83649713D01*
X120139359Y-83836959D01*
X120139363Y-83836964D01*
X120303035Y-84000636D01*
X120303040Y-84000640D01*
X120466366Y-84119302D01*
X120490290Y-84136684D01*
X120625106Y-84205376D01*
X120696523Y-84241766D01*
X120696526Y-84241767D01*
X120806590Y-84277528D01*
X120916657Y-84313291D01*
X121145269Y-84349500D01*
X121145270Y-84349500D01*
X121376730Y-84349500D01*
X121376731Y-84349500D01*
X121605343Y-84313291D01*
X121825476Y-84241766D01*
X122031710Y-84136684D01*
X122218966Y-84000635D01*
X122382635Y-83836966D01*
X122518684Y-83649710D01*
X122623766Y-83443476D01*
X122695291Y-83223343D01*
X122731500Y-82994731D01*
X122731500Y-82763269D01*
X122695291Y-82534657D01*
X122623766Y-82314524D01*
X122623766Y-82314523D01*
X122587376Y-82243106D01*
X122518684Y-82108290D01*
X122501302Y-82084366D01*
X122382640Y-81921040D01*
X122382636Y-81921035D01*
X122218964Y-81757363D01*
X122218959Y-81757359D01*
X122113683Y-81680872D01*
X122031713Y-81621318D01*
X122031712Y-81621317D01*
X122031710Y-81621316D01*
X121958730Y-81584131D01*
X132420500Y-81584131D01*
X132420500Y-84673856D01*
X132420502Y-84673882D01*
X132423413Y-84698987D01*
X132423415Y-84698991D01*
X132468793Y-84801764D01*
X132468794Y-84801765D01*
X132548235Y-84881206D01*
X132651009Y-84926585D01*
X132676135Y-84929500D01*
X135765864Y-84929499D01*
X135765879Y-84929497D01*
X135765882Y-84929497D01*
X135790987Y-84926586D01*
X135790988Y-84926585D01*
X135790991Y-84926585D01*
X135893765Y-84881206D01*
X135973206Y-84801765D01*
X136018585Y-84698991D01*
X136021500Y-84673865D01*
X136021499Y-81584136D01*
X136021499Y-81584135D01*
X136021499Y-81584131D01*
X146880500Y-81584131D01*
X146880500Y-84673856D01*
X146880502Y-84673882D01*
X146883413Y-84698987D01*
X146883415Y-84698991D01*
X146928793Y-84801764D01*
X146928794Y-84801765D01*
X147008235Y-84881206D01*
X147111009Y-84926585D01*
X147136135Y-84929500D01*
X150225864Y-84929499D01*
X150225879Y-84929497D01*
X150225882Y-84929497D01*
X150250987Y-84926586D01*
X150250988Y-84926585D01*
X150250991Y-84926585D01*
X150353765Y-84881206D01*
X150433206Y-84801765D01*
X150478585Y-84698991D01*
X150481500Y-84673865D01*
X150481499Y-82763269D01*
X159790500Y-82763269D01*
X159790500Y-82994730D01*
X159826709Y-83223344D01*
X159898232Y-83443473D01*
X159898233Y-83443476D01*
X160003318Y-83649713D01*
X160139359Y-83836959D01*
X160139363Y-83836964D01*
X160303035Y-84000636D01*
X160303040Y-84000640D01*
X160466366Y-84119302D01*
X160490290Y-84136684D01*
X160625106Y-84205376D01*
X160696523Y-84241766D01*
X160696526Y-84241767D01*
X160806590Y-84277528D01*
X160916657Y-84313291D01*
X161145269Y-84349500D01*
X161145270Y-84349500D01*
X161376730Y-84349500D01*
X161376731Y-84349500D01*
X161605343Y-84313291D01*
X161825476Y-84241766D01*
X162031710Y-84136684D01*
X162218966Y-84000635D01*
X162382635Y-83836966D01*
X162518684Y-83649710D01*
X162623766Y-83443476D01*
X162695291Y-83223343D01*
X162731500Y-82994731D01*
X162731500Y-82763269D01*
X164790500Y-82763269D01*
X164790500Y-82994730D01*
X164826709Y-83223344D01*
X164898232Y-83443473D01*
X164898233Y-83443476D01*
X165003318Y-83649713D01*
X165139359Y-83836959D01*
X165139363Y-83836964D01*
X165303035Y-84000636D01*
X165303040Y-84000640D01*
X165466366Y-84119302D01*
X165490290Y-84136684D01*
X165625106Y-84205376D01*
X165696523Y-84241766D01*
X165696526Y-84241767D01*
X165806590Y-84277528D01*
X165916657Y-84313291D01*
X166145269Y-84349500D01*
X166145270Y-84349500D01*
X166376730Y-84349500D01*
X166376731Y-84349500D01*
X166605343Y-84313291D01*
X166825476Y-84241766D01*
X167031710Y-84136684D01*
X167218966Y-84000635D01*
X167382635Y-83836966D01*
X167518684Y-83649710D01*
X167623766Y-83443476D01*
X167695291Y-83223343D01*
X167731500Y-82994731D01*
X167731500Y-82763269D01*
X167695291Y-82534657D01*
X167623766Y-82314524D01*
X167623766Y-82314523D01*
X167587376Y-82243106D01*
X167518684Y-82108290D01*
X167501302Y-82084366D01*
X167382640Y-81921040D01*
X167382636Y-81921035D01*
X167218964Y-81757363D01*
X167218959Y-81757359D01*
X167113683Y-81680872D01*
X167031713Y-81621318D01*
X167031712Y-81621317D01*
X167031710Y-81621316D01*
X166958730Y-81584131D01*
X177420500Y-81584131D01*
X177420500Y-84673856D01*
X177420502Y-84673882D01*
X177423413Y-84698987D01*
X177423415Y-84698991D01*
X177468793Y-84801764D01*
X177468794Y-84801765D01*
X177548235Y-84881206D01*
X177651009Y-84926585D01*
X177676135Y-84929500D01*
X180765864Y-84929499D01*
X180765879Y-84929497D01*
X180765882Y-84929497D01*
X180790987Y-84926586D01*
X180790988Y-84926585D01*
X180790991Y-84926585D01*
X180893765Y-84881206D01*
X180973206Y-84801765D01*
X181018585Y-84698991D01*
X181021500Y-84673865D01*
X181021499Y-81584136D01*
X181021497Y-81584117D01*
X181018586Y-81559012D01*
X181018585Y-81559010D01*
X181018585Y-81559009D01*
X180973206Y-81456235D01*
X180893765Y-81376794D01*
X180893763Y-81376793D01*
X180790992Y-81331415D01*
X180765865Y-81328500D01*
X177676143Y-81328500D01*
X177676117Y-81328502D01*
X177651012Y-81331413D01*
X177651008Y-81331415D01*
X177548235Y-81376793D01*
X177468794Y-81456234D01*
X177423415Y-81559006D01*
X177423415Y-81559008D01*
X177420500Y-81584131D01*
X166958730Y-81584131D01*
X166958703Y-81584117D01*
X166825476Y-81516233D01*
X166825473Y-81516232D01*
X166605344Y-81444709D01*
X166491037Y-81426604D01*
X166376731Y-81408500D01*
X166145269Y-81408500D01*
X166069065Y-81420569D01*
X165916655Y-81444709D01*
X165696526Y-81516232D01*
X165696523Y-81516233D01*
X165490286Y-81621318D01*
X165303040Y-81757359D01*
X165303035Y-81757363D01*
X165139363Y-81921035D01*
X165139359Y-81921040D01*
X165003318Y-82108286D01*
X164898233Y-82314523D01*
X164898232Y-82314526D01*
X164826709Y-82534655D01*
X164790500Y-82763269D01*
X162731500Y-82763269D01*
X162695291Y-82534657D01*
X162623766Y-82314524D01*
X162623766Y-82314523D01*
X162587376Y-82243106D01*
X162518684Y-82108290D01*
X162501302Y-82084366D01*
X162382640Y-81921040D01*
X162382636Y-81921035D01*
X162218964Y-81757363D01*
X162218959Y-81757359D01*
X162031713Y-81621318D01*
X162031712Y-81621317D01*
X162031710Y-81621316D01*
X161958703Y-81584117D01*
X161825476Y-81516233D01*
X161825473Y-81516232D01*
X161605344Y-81444709D01*
X161491037Y-81426604D01*
X161376731Y-81408500D01*
X161145269Y-81408500D01*
X161069065Y-81420569D01*
X160916655Y-81444709D01*
X160696526Y-81516232D01*
X160696523Y-81516233D01*
X160490286Y-81621318D01*
X160303040Y-81757359D01*
X160303035Y-81757363D01*
X160139363Y-81921035D01*
X160139359Y-81921040D01*
X160003318Y-82108286D01*
X159898233Y-82314523D01*
X159898232Y-82314526D01*
X159826709Y-82534655D01*
X159790500Y-82763269D01*
X150481499Y-82763269D01*
X150481499Y-81584136D01*
X150481497Y-81584117D01*
X150478586Y-81559012D01*
X150478585Y-81559010D01*
X150478585Y-81559009D01*
X150433206Y-81456235D01*
X150353765Y-81376794D01*
X150353763Y-81376793D01*
X150250992Y-81331415D01*
X150225865Y-81328500D01*
X147136143Y-81328500D01*
X147136117Y-81328502D01*
X147111012Y-81331413D01*
X147111008Y-81331415D01*
X147008235Y-81376793D01*
X146928794Y-81456234D01*
X146883415Y-81559006D01*
X146883415Y-81559008D01*
X146880500Y-81584131D01*
X136021499Y-81584131D01*
X136021499Y-81584130D01*
X136018586Y-81559012D01*
X136018585Y-81559010D01*
X136018585Y-81559009D01*
X135973206Y-81456235D01*
X135893765Y-81376794D01*
X135893763Y-81376793D01*
X135790992Y-81331415D01*
X135765865Y-81328500D01*
X132676143Y-81328500D01*
X132676117Y-81328502D01*
X132651012Y-81331413D01*
X132651008Y-81331415D01*
X132548235Y-81376793D01*
X132468794Y-81456234D01*
X132423415Y-81559006D01*
X132423415Y-81559008D01*
X132420500Y-81584131D01*
X121958730Y-81584131D01*
X121958703Y-81584117D01*
X121825476Y-81516233D01*
X121825473Y-81516232D01*
X121605344Y-81444709D01*
X121491037Y-81426604D01*
X121376731Y-81408500D01*
X121145269Y-81408500D01*
X121069065Y-81420569D01*
X120916655Y-81444709D01*
X120696526Y-81516232D01*
X120696523Y-81516233D01*
X120490286Y-81621318D01*
X120303040Y-81757359D01*
X120303035Y-81757363D01*
X120139363Y-81921035D01*
X120139359Y-81921040D01*
X120003318Y-82108286D01*
X119898233Y-82314523D01*
X119898232Y-82314526D01*
X119826709Y-82534655D01*
X119790500Y-82763269D01*
X117731500Y-82763269D01*
X117695291Y-82534657D01*
X117623766Y-82314524D01*
X117623766Y-82314523D01*
X117587376Y-82243106D01*
X117518684Y-82108290D01*
X117501302Y-82084366D01*
X117382640Y-81921040D01*
X117382636Y-81921035D01*
X117218964Y-81757363D01*
X117218959Y-81757359D01*
X117031713Y-81621318D01*
X117031712Y-81621317D01*
X117031710Y-81621316D01*
X116958703Y-81584117D01*
X116825476Y-81516233D01*
X116825473Y-81516232D01*
X116605344Y-81444709D01*
X116491037Y-81426604D01*
X116376731Y-81408500D01*
X116145269Y-81408500D01*
X116069065Y-81420569D01*
X115916655Y-81444709D01*
X115696526Y-81516232D01*
X115696523Y-81516233D01*
X115490286Y-81621318D01*
X115303040Y-81757359D01*
X115303035Y-81757363D01*
X115139363Y-81921035D01*
X115139359Y-81921040D01*
X115003318Y-82108286D01*
X114898233Y-82314523D01*
X114898232Y-82314526D01*
X114826709Y-82534655D01*
X114790500Y-82763269D01*
X105481499Y-82763269D01*
X105481499Y-81584136D01*
X105481497Y-81584117D01*
X105478586Y-81559012D01*
X105478585Y-81559010D01*
X105478585Y-81559009D01*
X105433206Y-81456235D01*
X105353765Y-81376794D01*
X105353763Y-81376793D01*
X105250992Y-81331415D01*
X105225865Y-81328500D01*
X102136143Y-81328500D01*
X102136117Y-81328502D01*
X102111012Y-81331413D01*
X102111008Y-81331415D01*
X102008235Y-81376793D01*
X101928794Y-81456234D01*
X101883415Y-81559006D01*
X101883415Y-81559008D01*
X101880500Y-81584131D01*
X100767448Y-81584131D01*
X100767448Y-75991332D01*
X101160500Y-75991332D01*
X101160500Y-76266667D01*
X101160501Y-76266684D01*
X101196438Y-76539655D01*
X101196439Y-76539660D01*
X101196440Y-76539666D01*
X101196441Y-76539668D01*
X101267704Y-76805630D01*
X101373075Y-77060017D01*
X101373080Y-77060028D01*
X101455861Y-77203407D01*
X101510751Y-77298479D01*
X101510753Y-77298482D01*
X101510754Y-77298483D01*
X101678370Y-77516926D01*
X101678376Y-77516933D01*
X101873066Y-77711623D01*
X101873072Y-77711628D01*
X102091521Y-77879249D01*
X102244778Y-77967732D01*
X102329971Y-78016919D01*
X102329976Y-78016921D01*
X102329979Y-78016923D01*
X102584368Y-78122295D01*
X102850334Y-78193560D01*
X103123326Y-78229500D01*
X103123333Y-78229500D01*
X103398667Y-78229500D01*
X103398674Y-78229500D01*
X103671666Y-78193560D01*
X103937632Y-78122295D01*
X104192021Y-78016923D01*
X104430479Y-77879249D01*
X104648928Y-77711628D01*
X104843628Y-77516928D01*
X105011249Y-77298479D01*
X105148923Y-77060021D01*
X105254295Y-76805632D01*
X105325560Y-76539666D01*
X105361500Y-76266674D01*
X105361500Y-75991332D01*
X138160500Y-75991332D01*
X138160500Y-76266667D01*
X138160501Y-76266684D01*
X138196438Y-76539655D01*
X138196439Y-76539660D01*
X138196440Y-76539666D01*
X138196441Y-76539668D01*
X138267704Y-76805630D01*
X138373075Y-77060017D01*
X138373080Y-77060028D01*
X138455861Y-77203407D01*
X138510751Y-77298479D01*
X138510753Y-77298482D01*
X138510754Y-77298483D01*
X138678370Y-77516926D01*
X138678376Y-77516933D01*
X138873066Y-77711623D01*
X138873072Y-77711628D01*
X139091521Y-77879249D01*
X139244778Y-77967732D01*
X139329971Y-78016919D01*
X139329976Y-78016921D01*
X139329979Y-78016923D01*
X139584368Y-78122295D01*
X139850334Y-78193560D01*
X140123326Y-78229500D01*
X140123333Y-78229500D01*
X140398667Y-78229500D01*
X140398674Y-78229500D01*
X140671666Y-78193560D01*
X140937632Y-78122295D01*
X141192021Y-78016923D01*
X141430479Y-77879249D01*
X141648928Y-77711628D01*
X141843628Y-77516928D01*
X142011249Y-77298479D01*
X142148923Y-77060021D01*
X142254295Y-76805632D01*
X142325560Y-76539666D01*
X142361500Y-76266674D01*
X142361500Y-75991332D01*
X146160500Y-75991332D01*
X146160500Y-76266667D01*
X146160501Y-76266684D01*
X146196438Y-76539655D01*
X146196439Y-76539660D01*
X146196440Y-76539666D01*
X146196441Y-76539668D01*
X146267704Y-76805630D01*
X146373075Y-77060017D01*
X146373080Y-77060028D01*
X146455861Y-77203407D01*
X146510751Y-77298479D01*
X146510753Y-77298482D01*
X146510754Y-77298483D01*
X146678370Y-77516926D01*
X146678376Y-77516933D01*
X146873066Y-77711623D01*
X146873072Y-77711628D01*
X147091521Y-77879249D01*
X147244778Y-77967732D01*
X147329971Y-78016919D01*
X147329976Y-78016921D01*
X147329979Y-78016923D01*
X147584368Y-78122295D01*
X147850334Y-78193560D01*
X148123326Y-78229500D01*
X148123333Y-78229500D01*
X148398667Y-78229500D01*
X148398674Y-78229500D01*
X148671666Y-78193560D01*
X148937632Y-78122295D01*
X149192021Y-78016923D01*
X149430479Y-77879249D01*
X149648928Y-77711628D01*
X149843628Y-77516928D01*
X150011249Y-77298479D01*
X150148923Y-77060021D01*
X150254295Y-76805632D01*
X150325560Y-76539666D01*
X150361500Y-76266674D01*
X150361500Y-75991332D01*
X183160500Y-75991332D01*
X183160500Y-76266667D01*
X183160501Y-76266684D01*
X183196438Y-76539655D01*
X183196439Y-76539660D01*
X183196440Y-76539666D01*
X183196441Y-76539668D01*
X183267704Y-76805630D01*
X183373075Y-77060017D01*
X183373080Y-77060028D01*
X183455861Y-77203407D01*
X183510751Y-77298479D01*
X183510753Y-77298482D01*
X183510754Y-77298483D01*
X183678370Y-77516926D01*
X183678376Y-77516933D01*
X183873066Y-77711623D01*
X183873072Y-77711628D01*
X184091521Y-77879249D01*
X184244778Y-77967732D01*
X184329971Y-78016919D01*
X184329976Y-78016921D01*
X184329979Y-78016923D01*
X184584368Y-78122295D01*
X184850334Y-78193560D01*
X185123326Y-78229500D01*
X185123333Y-78229500D01*
X185398667Y-78229500D01*
X185398674Y-78229500D01*
X185671666Y-78193560D01*
X185937632Y-78122295D01*
X186192021Y-78016923D01*
X186430479Y-77879249D01*
X186648928Y-77711628D01*
X186843628Y-77516928D01*
X187011249Y-77298479D01*
X187148923Y-77060021D01*
X187254295Y-76805632D01*
X187325560Y-76539666D01*
X187361500Y-76266674D01*
X187361500Y-75991326D01*
X187325560Y-75718334D01*
X187254295Y-75452368D01*
X187148923Y-75197979D01*
X187148921Y-75197976D01*
X187148919Y-75197971D01*
X187099732Y-75112778D01*
X187011249Y-74959521D01*
X186843628Y-74741072D01*
X186843623Y-74741066D01*
X186648933Y-74546376D01*
X186648926Y-74546370D01*
X186430483Y-74378754D01*
X186430482Y-74378753D01*
X186430479Y-74378751D01*
X186335407Y-74323861D01*
X186192028Y-74241080D01*
X186192017Y-74241075D01*
X185937630Y-74135704D01*
X185804649Y-74100072D01*
X185671666Y-74064440D01*
X185671660Y-74064439D01*
X185671655Y-74064438D01*
X185398684Y-74028501D01*
X185398679Y-74028500D01*
X185398674Y-74028500D01*
X185123326Y-74028500D01*
X185123320Y-74028500D01*
X185123315Y-74028501D01*
X184850344Y-74064438D01*
X184850337Y-74064439D01*
X184850334Y-74064440D01*
X184794125Y-74079500D01*
X184584369Y-74135704D01*
X184329982Y-74241075D01*
X184329971Y-74241080D01*
X184091516Y-74378754D01*
X183873073Y-74546370D01*
X183873066Y-74546376D01*
X183678376Y-74741066D01*
X183678370Y-74741073D01*
X183510754Y-74959516D01*
X183373080Y-75197971D01*
X183373075Y-75197982D01*
X183267704Y-75452369D01*
X183196441Y-75718331D01*
X183196438Y-75718344D01*
X183160501Y-75991315D01*
X183160500Y-75991332D01*
X150361500Y-75991332D01*
X150361500Y-75991326D01*
X150325560Y-75718334D01*
X150254295Y-75452368D01*
X150148923Y-75197979D01*
X150148921Y-75197976D01*
X150148919Y-75197971D01*
X150099732Y-75112778D01*
X150011249Y-74959521D01*
X149843628Y-74741072D01*
X149843623Y-74741066D01*
X149648933Y-74546376D01*
X149648926Y-74546370D01*
X149430483Y-74378754D01*
X149430482Y-74378753D01*
X149430479Y-74378751D01*
X149335407Y-74323861D01*
X149192028Y-74241080D01*
X149192017Y-74241075D01*
X148937630Y-74135704D01*
X148804649Y-74100072D01*
X148671666Y-74064440D01*
X148671660Y-74064439D01*
X148671655Y-74064438D01*
X148398684Y-74028501D01*
X148398679Y-74028500D01*
X148398674Y-74028500D01*
X148123326Y-74028500D01*
X148123320Y-74028500D01*
X148123315Y-74028501D01*
X147850344Y-74064438D01*
X147850337Y-74064439D01*
X147850334Y-74064440D01*
X147794125Y-74079500D01*
X147584369Y-74135704D01*
X147329982Y-74241075D01*
X147329971Y-74241080D01*
X147091516Y-74378754D01*
X146873073Y-74546370D01*
X146873066Y-74546376D01*
X146678376Y-74741066D01*
X146678370Y-74741073D01*
X146510754Y-74959516D01*
X146373080Y-75197971D01*
X146373075Y-75197982D01*
X146267704Y-75452369D01*
X146196441Y-75718331D01*
X146196438Y-75718344D01*
X146160501Y-75991315D01*
X146160500Y-75991332D01*
X142361500Y-75991332D01*
X142361500Y-75991326D01*
X142325560Y-75718334D01*
X142254295Y-75452368D01*
X142148923Y-75197979D01*
X142148921Y-75197976D01*
X142148919Y-75197971D01*
X142099732Y-75112778D01*
X142011249Y-74959521D01*
X141843628Y-74741072D01*
X141843623Y-74741066D01*
X141648933Y-74546376D01*
X141648926Y-74546370D01*
X141430483Y-74378754D01*
X141430482Y-74378753D01*
X141430479Y-74378751D01*
X141335407Y-74323861D01*
X141192028Y-74241080D01*
X141192017Y-74241075D01*
X140937630Y-74135704D01*
X140804649Y-74100072D01*
X140671666Y-74064440D01*
X140671660Y-74064439D01*
X140671655Y-74064438D01*
X140398684Y-74028501D01*
X140398679Y-74028500D01*
X140398674Y-74028500D01*
X140123326Y-74028500D01*
X140123320Y-74028500D01*
X140123315Y-74028501D01*
X139850344Y-74064438D01*
X139850337Y-74064439D01*
X139850334Y-74064440D01*
X139794125Y-74079500D01*
X139584369Y-74135704D01*
X139329982Y-74241075D01*
X139329971Y-74241080D01*
X139091516Y-74378754D01*
X138873073Y-74546370D01*
X138873066Y-74546376D01*
X138678376Y-74741066D01*
X138678370Y-74741073D01*
X138510754Y-74959516D01*
X138373080Y-75197971D01*
X138373075Y-75197982D01*
X138267704Y-75452369D01*
X138196441Y-75718331D01*
X138196438Y-75718344D01*
X138160501Y-75991315D01*
X138160500Y-75991332D01*
X105361500Y-75991332D01*
X105361500Y-75991326D01*
X105325560Y-75718334D01*
X105254295Y-75452368D01*
X105148923Y-75197979D01*
X105148921Y-75197976D01*
X105148919Y-75197971D01*
X105099732Y-75112778D01*
X105011249Y-74959521D01*
X104843628Y-74741072D01*
X104843623Y-74741066D01*
X104648933Y-74546376D01*
X104648926Y-74546370D01*
X104430483Y-74378754D01*
X104430482Y-74378753D01*
X104430479Y-74378751D01*
X104335407Y-74323861D01*
X104192028Y-74241080D01*
X104192017Y-74241075D01*
X103937630Y-74135704D01*
X103804649Y-74100072D01*
X103671666Y-74064440D01*
X103671660Y-74064439D01*
X103671655Y-74064438D01*
X103398684Y-74028501D01*
X103398679Y-74028500D01*
X103398674Y-74028500D01*
X103123326Y-74028500D01*
X103123320Y-74028500D01*
X103123315Y-74028501D01*
X102850344Y-74064438D01*
X102850337Y-74064439D01*
X102850334Y-74064440D01*
X102794125Y-74079500D01*
X102584369Y-74135704D01*
X102329982Y-74241075D01*
X102329971Y-74241080D01*
X102091516Y-74378754D01*
X101873073Y-74546370D01*
X101873066Y-74546376D01*
X101678376Y-74741066D01*
X101678370Y-74741073D01*
X101510754Y-74959516D01*
X101373080Y-75197971D01*
X101373075Y-75197982D01*
X101267704Y-75452369D01*
X101196441Y-75718331D01*
X101196438Y-75718344D01*
X101160501Y-75991315D01*
X101160500Y-75991332D01*
X100767448Y-75991332D01*
X100767448Y-73102389D01*
X116860500Y-73102389D01*
X116860500Y-73275611D01*
X116887598Y-73446701D01*
X116941127Y-73611445D01*
X117019768Y-73765788D01*
X117121586Y-73905928D01*
X117244072Y-74028414D01*
X117384212Y-74130232D01*
X117538555Y-74208873D01*
X117703299Y-74262402D01*
X117874389Y-74289500D01*
X117874390Y-74289500D01*
X118047610Y-74289500D01*
X118047611Y-74289500D01*
X118218701Y-74262402D01*
X118383445Y-74208873D01*
X118537788Y-74130232D01*
X118677928Y-74028414D01*
X118800414Y-73905928D01*
X118902232Y-73765788D01*
X118980873Y-73611445D01*
X119034402Y-73446701D01*
X119061500Y-73275611D01*
X119061500Y-73102389D01*
X119034402Y-72931299D01*
X118989267Y-72792389D01*
X122660500Y-72792389D01*
X122660500Y-72965610D01*
X122682163Y-73102389D01*
X122687598Y-73136701D01*
X122741127Y-73301445D01*
X122819768Y-73455788D01*
X122921586Y-73595928D01*
X123044072Y-73718414D01*
X123184212Y-73820232D01*
X123338555Y-73898873D01*
X123503299Y-73952402D01*
X123674389Y-73979500D01*
X123674390Y-73979500D01*
X123847610Y-73979500D01*
X123847611Y-73979500D01*
X124018701Y-73952402D01*
X124183445Y-73898873D01*
X124337788Y-73820232D01*
X124477928Y-73718414D01*
X124600414Y-73595928D01*
X124702232Y-73455788D01*
X124780873Y-73301445D01*
X124834402Y-73136701D01*
X124861500Y-72965611D01*
X124861500Y-72792389D01*
X127660500Y-72792389D01*
X127660500Y-72965610D01*
X127682163Y-73102389D01*
X127687598Y-73136701D01*
X127741127Y-73301445D01*
X127819768Y-73455788D01*
X127921586Y-73595928D01*
X128044072Y-73718414D01*
X128184212Y-73820232D01*
X128338555Y-73898873D01*
X128503299Y-73952402D01*
X128674389Y-73979500D01*
X128674390Y-73979500D01*
X128847610Y-73979500D01*
X128847611Y-73979500D01*
X129018701Y-73952402D01*
X129183445Y-73898873D01*
X129337788Y-73820232D01*
X129477928Y-73718414D01*
X129600414Y-73595928D01*
X129702232Y-73455788D01*
X129780873Y-73301445D01*
X129834402Y-73136701D01*
X129861500Y-72965611D01*
X129861500Y-72792389D01*
X129834402Y-72621299D01*
X129780873Y-72456555D01*
X129702232Y-72302212D01*
X129600414Y-72162072D01*
X129477928Y-72039586D01*
X129470946Y-72034513D01*
X134560500Y-72034513D01*
X134560500Y-72223486D01*
X134590059Y-72410118D01*
X134648454Y-72589836D01*
X134734240Y-72758199D01*
X134845310Y-72911073D01*
X134978927Y-73044690D01*
X135131801Y-73155760D01*
X135211347Y-73196290D01*
X135300163Y-73241545D01*
X135300165Y-73241545D01*
X135300168Y-73241547D01*
X135396497Y-73272846D01*
X135479881Y-73299940D01*
X135666514Y-73329500D01*
X135666519Y-73329500D01*
X135855486Y-73329500D01*
X136042118Y-73299940D01*
X136116994Y-73275611D01*
X136221832Y-73241547D01*
X136390199Y-73155760D01*
X136463658Y-73102389D01*
X161860500Y-73102389D01*
X161860500Y-73275611D01*
X161887598Y-73446701D01*
X161941127Y-73611445D01*
X162019768Y-73765788D01*
X162121586Y-73905928D01*
X162244072Y-74028414D01*
X162384212Y-74130232D01*
X162538555Y-74208873D01*
X162703299Y-74262402D01*
X162874389Y-74289500D01*
X162874390Y-74289500D01*
X163047610Y-74289500D01*
X163047611Y-74289500D01*
X163218701Y-74262402D01*
X163383445Y-74208873D01*
X163537788Y-74130232D01*
X163677928Y-74028414D01*
X163800414Y-73905928D01*
X163902232Y-73765788D01*
X163980873Y-73611445D01*
X164034402Y-73446701D01*
X164061500Y-73275611D01*
X164061500Y-73102389D01*
X164034402Y-72931299D01*
X163989267Y-72792389D01*
X167660500Y-72792389D01*
X167660500Y-72965610D01*
X167682163Y-73102389D01*
X167687598Y-73136701D01*
X167741127Y-73301445D01*
X167819768Y-73455788D01*
X167921586Y-73595928D01*
X168044072Y-73718414D01*
X168184212Y-73820232D01*
X168338555Y-73898873D01*
X168503299Y-73952402D01*
X168674389Y-73979500D01*
X168674390Y-73979500D01*
X168847610Y-73979500D01*
X168847611Y-73979500D01*
X169018701Y-73952402D01*
X169183445Y-73898873D01*
X169337788Y-73820232D01*
X169477928Y-73718414D01*
X169600414Y-73595928D01*
X169702232Y-73455788D01*
X169780873Y-73301445D01*
X169834402Y-73136701D01*
X169861500Y-72965611D01*
X169861500Y-72792389D01*
X172660500Y-72792389D01*
X172660500Y-72965610D01*
X172682163Y-73102389D01*
X172687598Y-73136701D01*
X172741127Y-73301445D01*
X172819768Y-73455788D01*
X172921586Y-73595928D01*
X173044072Y-73718414D01*
X173184212Y-73820232D01*
X173338555Y-73898873D01*
X173503299Y-73952402D01*
X173674389Y-73979500D01*
X173674390Y-73979500D01*
X173847610Y-73979500D01*
X173847611Y-73979500D01*
X174018701Y-73952402D01*
X174183445Y-73898873D01*
X174337788Y-73820232D01*
X174477928Y-73718414D01*
X174600414Y-73595928D01*
X174702232Y-73455788D01*
X174780873Y-73301445D01*
X174834402Y-73136701D01*
X174861500Y-72965611D01*
X174861500Y-72792389D01*
X174834402Y-72621299D01*
X174780873Y-72456555D01*
X174702232Y-72302212D01*
X174600414Y-72162072D01*
X174477928Y-72039586D01*
X174470946Y-72034513D01*
X179560500Y-72034513D01*
X179560500Y-72223486D01*
X179590059Y-72410118D01*
X179648454Y-72589836D01*
X179734240Y-72758199D01*
X179845310Y-72911073D01*
X179978927Y-73044690D01*
X180131801Y-73155760D01*
X180211347Y-73196290D01*
X180300163Y-73241545D01*
X180300165Y-73241545D01*
X180300168Y-73241547D01*
X180396497Y-73272846D01*
X180479881Y-73299940D01*
X180666514Y-73329500D01*
X180666519Y-73329500D01*
X180855486Y-73329500D01*
X181042118Y-73299940D01*
X181116994Y-73275611D01*
X181221832Y-73241547D01*
X181390199Y-73155760D01*
X181543073Y-73044690D01*
X181676690Y-72911073D01*
X181787760Y-72758199D01*
X181873547Y-72589832D01*
X181931940Y-72410118D01*
X181941527Y-72349586D01*
X181961500Y-72223486D01*
X181961500Y-72034513D01*
X181931940Y-71847881D01*
X181873545Y-71668163D01*
X181787759Y-71499800D01*
X181676690Y-71346927D01*
X181543073Y-71213310D01*
X181390199Y-71102240D01*
X181221836Y-71016454D01*
X181042118Y-70958059D01*
X180855486Y-70928500D01*
X180855481Y-70928500D01*
X180666519Y-70928500D01*
X180666514Y-70928500D01*
X180479881Y-70958059D01*
X180300163Y-71016454D01*
X180131800Y-71102240D01*
X180044579Y-71165610D01*
X179978927Y-71213310D01*
X179978925Y-71213312D01*
X179978924Y-71213312D01*
X179845312Y-71346924D01*
X179845312Y-71346925D01*
X179845310Y-71346927D01*
X179797610Y-71412579D01*
X179734240Y-71499800D01*
X179648454Y-71668163D01*
X179590059Y-71847881D01*
X179560500Y-72034513D01*
X174470946Y-72034513D01*
X174337788Y-71937768D01*
X174183445Y-71859127D01*
X174018701Y-71805598D01*
X174018699Y-71805597D01*
X174018698Y-71805597D01*
X173887271Y-71784781D01*
X173847611Y-71778500D01*
X173674389Y-71778500D01*
X173634728Y-71784781D01*
X173503302Y-71805597D01*
X173338552Y-71859128D01*
X173184211Y-71937768D01*
X173104256Y-71995859D01*
X173044072Y-72039586D01*
X173044070Y-72039588D01*
X173044069Y-72039588D01*
X172921588Y-72162069D01*
X172921588Y-72162070D01*
X172921586Y-72162072D01*
X172877859Y-72222256D01*
X172819768Y-72302211D01*
X172741128Y-72456552D01*
X172687597Y-72621302D01*
X172660500Y-72792389D01*
X169861500Y-72792389D01*
X169834402Y-72621299D01*
X169780873Y-72456555D01*
X169702232Y-72302212D01*
X169600414Y-72162072D01*
X169477928Y-72039586D01*
X169337788Y-71937768D01*
X169183445Y-71859127D01*
X169018701Y-71805598D01*
X169018699Y-71805597D01*
X169018698Y-71805597D01*
X168887271Y-71784781D01*
X168847611Y-71778500D01*
X168674389Y-71778500D01*
X168634728Y-71784781D01*
X168503302Y-71805597D01*
X168338552Y-71859128D01*
X168184211Y-71937768D01*
X168104256Y-71995859D01*
X168044072Y-72039586D01*
X168044070Y-72039588D01*
X168044069Y-72039588D01*
X167921588Y-72162069D01*
X167921588Y-72162070D01*
X167921586Y-72162072D01*
X167877859Y-72222256D01*
X167819768Y-72302211D01*
X167741128Y-72456552D01*
X167687597Y-72621302D01*
X167660500Y-72792389D01*
X163989267Y-72792389D01*
X163980873Y-72766555D01*
X163902232Y-72612212D01*
X163800414Y-72472072D01*
X163677928Y-72349586D01*
X163537788Y-72247768D01*
X163383445Y-72169127D01*
X163218701Y-72115598D01*
X163218699Y-72115597D01*
X163218698Y-72115597D01*
X163087271Y-72094781D01*
X163047611Y-72088500D01*
X162874389Y-72088500D01*
X162834728Y-72094781D01*
X162703302Y-72115597D01*
X162538552Y-72169128D01*
X162384211Y-72247768D01*
X162304256Y-72305859D01*
X162244072Y-72349586D01*
X162244070Y-72349588D01*
X162244069Y-72349588D01*
X162121588Y-72472069D01*
X162121588Y-72472070D01*
X162121586Y-72472072D01*
X162077859Y-72532256D01*
X162019768Y-72612211D01*
X161941128Y-72766552D01*
X161887597Y-72931302D01*
X161860500Y-73102389D01*
X136463658Y-73102389D01*
X136543073Y-73044690D01*
X136676690Y-72911073D01*
X136787760Y-72758199D01*
X136873547Y-72589832D01*
X136931940Y-72410118D01*
X136941527Y-72349586D01*
X136961500Y-72223486D01*
X136961500Y-72034513D01*
X136931940Y-71847881D01*
X136873545Y-71668163D01*
X136787759Y-71499800D01*
X136676690Y-71346927D01*
X136543073Y-71213310D01*
X136390199Y-71102240D01*
X136221836Y-71016454D01*
X136042118Y-70958059D01*
X135855486Y-70928500D01*
X135855481Y-70928500D01*
X135666519Y-70928500D01*
X135666514Y-70928500D01*
X135479881Y-70958059D01*
X135300163Y-71016454D01*
X135131800Y-71102240D01*
X135044579Y-71165610D01*
X134978927Y-71213310D01*
X134978925Y-71213312D01*
X134978924Y-71213312D01*
X134845312Y-71346924D01*
X134845312Y-71346925D01*
X134845310Y-71346927D01*
X134797610Y-71412579D01*
X134734240Y-71499800D01*
X134648454Y-71668163D01*
X134590059Y-71847881D01*
X134560500Y-72034513D01*
X129470946Y-72034513D01*
X129337788Y-71937768D01*
X129183445Y-71859127D01*
X129018701Y-71805598D01*
X129018699Y-71805597D01*
X129018698Y-71805597D01*
X128887271Y-71784781D01*
X128847611Y-71778500D01*
X128674389Y-71778500D01*
X128634728Y-71784781D01*
X128503302Y-71805597D01*
X128338552Y-71859128D01*
X128184211Y-71937768D01*
X128104256Y-71995859D01*
X128044072Y-72039586D01*
X128044070Y-72039588D01*
X128044069Y-72039588D01*
X127921588Y-72162069D01*
X127921588Y-72162070D01*
X127921586Y-72162072D01*
X127877859Y-72222256D01*
X127819768Y-72302211D01*
X127741128Y-72456552D01*
X127687597Y-72621302D01*
X127660500Y-72792389D01*
X124861500Y-72792389D01*
X124834402Y-72621299D01*
X124780873Y-72456555D01*
X124702232Y-72302212D01*
X124600414Y-72162072D01*
X124477928Y-72039586D01*
X124337788Y-71937768D01*
X124183445Y-71859127D01*
X124018701Y-71805598D01*
X124018699Y-71805597D01*
X124018698Y-71805597D01*
X123887271Y-71784781D01*
X123847611Y-71778500D01*
X123674389Y-71778500D01*
X123634728Y-71784781D01*
X123503302Y-71805597D01*
X123338552Y-71859128D01*
X123184211Y-71937768D01*
X123104256Y-71995859D01*
X123044072Y-72039586D01*
X123044070Y-72039588D01*
X123044069Y-72039588D01*
X122921588Y-72162069D01*
X122921588Y-72162070D01*
X122921586Y-72162072D01*
X122877859Y-72222256D01*
X122819768Y-72302211D01*
X122741128Y-72456552D01*
X122687597Y-72621302D01*
X122660500Y-72792389D01*
X118989267Y-72792389D01*
X118980873Y-72766555D01*
X118902232Y-72612212D01*
X118800414Y-72472072D01*
X118677928Y-72349586D01*
X118537788Y-72247768D01*
X118383445Y-72169127D01*
X118218701Y-72115598D01*
X118218699Y-72115597D01*
X118218698Y-72115597D01*
X118087271Y-72094781D01*
X118047611Y-72088500D01*
X117874389Y-72088500D01*
X117834728Y-72094781D01*
X117703302Y-72115597D01*
X117538552Y-72169128D01*
X117384211Y-72247768D01*
X117304256Y-72305859D01*
X117244072Y-72349586D01*
X117244070Y-72349588D01*
X117244069Y-72349588D01*
X117121588Y-72472069D01*
X117121588Y-72472070D01*
X117121586Y-72472072D01*
X117077859Y-72532256D01*
X117019768Y-72612211D01*
X116941128Y-72766552D01*
X116887597Y-72931302D01*
X116860500Y-73102389D01*
X100767448Y-73102389D01*
X100767448Y-67935898D01*
X105660500Y-67935898D01*
X105660500Y-69122102D01*
X105666126Y-69168954D01*
X105671122Y-69210561D01*
X105726639Y-69351343D01*
X105818077Y-69471922D01*
X105938656Y-69563360D01*
X105938657Y-69563360D01*
X105938658Y-69563361D01*
X106079436Y-69618877D01*
X106167898Y-69629500D01*
X106167903Y-69629500D01*
X107354097Y-69629500D01*
X107354102Y-69629500D01*
X107442564Y-69618877D01*
X107583342Y-69563361D01*
X107703922Y-69471922D01*
X107795361Y-69351342D01*
X107850877Y-69210564D01*
X107861500Y-69122102D01*
X107861500Y-67935898D01*
X150660500Y-67935898D01*
X150660500Y-69122102D01*
X150666126Y-69168954D01*
X150671122Y-69210561D01*
X150726639Y-69351343D01*
X150818077Y-69471922D01*
X150938656Y-69563360D01*
X150938657Y-69563360D01*
X150938658Y-69563361D01*
X151079436Y-69618877D01*
X151167898Y-69629500D01*
X151167903Y-69629500D01*
X152354097Y-69629500D01*
X152354102Y-69629500D01*
X152442564Y-69618877D01*
X152583342Y-69563361D01*
X152703922Y-69471922D01*
X152795361Y-69351342D01*
X152850877Y-69210564D01*
X152861500Y-69122102D01*
X152861500Y-67935898D01*
X152850877Y-67847436D01*
X152795361Y-67706658D01*
X152795360Y-67706657D01*
X152795360Y-67706656D01*
X152703922Y-67586077D01*
X152583343Y-67494639D01*
X152442561Y-67439122D01*
X152396926Y-67433642D01*
X152354102Y-67428500D01*
X151167898Y-67428500D01*
X151128853Y-67433188D01*
X151079438Y-67439122D01*
X150938656Y-67494639D01*
X150818077Y-67586077D01*
X150726639Y-67706656D01*
X150671122Y-67847438D01*
X150665188Y-67896853D01*
X150660500Y-67935898D01*
X107861500Y-67935898D01*
X107850877Y-67847436D01*
X107795361Y-67706658D01*
X107795360Y-67706657D01*
X107795360Y-67706656D01*
X107703922Y-67586077D01*
X107583343Y-67494639D01*
X107442561Y-67439122D01*
X107396926Y-67433642D01*
X107354102Y-67428500D01*
X106167898Y-67428500D01*
X106128853Y-67433188D01*
X106079438Y-67439122D01*
X105938656Y-67494639D01*
X105818077Y-67586077D01*
X105726639Y-67706656D01*
X105671122Y-67847438D01*
X105665188Y-67896853D01*
X105660500Y-67935898D01*
X100767448Y-67935898D01*
X100767448Y-66602389D01*
X111860500Y-66602389D01*
X111860500Y-66775611D01*
X111887598Y-66946701D01*
X111941127Y-67111445D01*
X112019768Y-67265788D01*
X112121586Y-67405928D01*
X112244072Y-67528414D01*
X112384212Y-67630232D01*
X112538555Y-67708873D01*
X112703299Y-67762402D01*
X112874389Y-67789500D01*
X112874390Y-67789500D01*
X113047610Y-67789500D01*
X113047611Y-67789500D01*
X113218701Y-67762402D01*
X113383445Y-67708873D01*
X113537788Y-67630232D01*
X113677928Y-67528414D01*
X113800414Y-67405928D01*
X113902232Y-67265788D01*
X113980873Y-67111445D01*
X114034402Y-66946701D01*
X114061500Y-66775611D01*
X114061500Y-66602389D01*
X114034402Y-66431299D01*
X113980873Y-66266555D01*
X113902232Y-66112212D01*
X113800414Y-65972072D01*
X113677928Y-65849586D01*
X113537788Y-65747768D01*
X113383445Y-65669127D01*
X113218701Y-65615598D01*
X113218699Y-65615597D01*
X113218698Y-65615597D01*
X113120156Y-65599990D01*
X113119335Y-65599860D01*
X113047611Y-65588500D01*
X112874389Y-65588500D01*
X112834728Y-65594781D01*
X112703302Y-65615597D01*
X112538552Y-65669128D01*
X112384211Y-65747768D01*
X112304256Y-65805859D01*
X112244072Y-65849586D01*
X112244070Y-65849588D01*
X112244069Y-65849588D01*
X112121588Y-65972069D01*
X112121588Y-65972070D01*
X112121586Y-65972072D01*
X112077859Y-66032256D01*
X112019768Y-66112211D01*
X111941128Y-66266552D01*
X111887597Y-66431302D01*
X111865593Y-66570231D01*
X111860500Y-66602389D01*
X100767448Y-66602389D01*
X100767448Y-65482389D01*
X116860500Y-65482389D01*
X116860500Y-65655611D01*
X116887598Y-65826701D01*
X116941127Y-65991445D01*
X117019768Y-66145788D01*
X117121586Y-66285928D01*
X117244072Y-66408414D01*
X117384212Y-66510232D01*
X117538555Y-66588873D01*
X117703299Y-66642402D01*
X117874389Y-66669500D01*
X117874390Y-66669500D01*
X118047610Y-66669500D01*
X118047611Y-66669500D01*
X118218701Y-66642402D01*
X118383445Y-66588873D01*
X118537788Y-66510232D01*
X118677928Y-66408414D01*
X118800414Y-66285928D01*
X118902232Y-66145788D01*
X118980873Y-65991445D01*
X119034402Y-65826701D01*
X119061500Y-65655611D01*
X119061500Y-65482389D01*
X119050413Y-65412389D01*
X120950500Y-65412389D01*
X120950500Y-65585611D01*
X120977598Y-65756701D01*
X121007778Y-65849586D01*
X121031128Y-65921447D01*
X121056923Y-65972072D01*
X121109768Y-66075788D01*
X121211586Y-66215928D01*
X121334072Y-66338414D01*
X121474212Y-66440232D01*
X121628555Y-66518873D01*
X121793299Y-66572402D01*
X121964389Y-66599500D01*
X121964390Y-66599500D01*
X122937610Y-66599500D01*
X122937611Y-66599500D01*
X123108701Y-66572402D01*
X123273445Y-66518873D01*
X123427788Y-66440232D01*
X123567928Y-66338414D01*
X123690414Y-66215928D01*
X123792232Y-66075788D01*
X123870873Y-65921445D01*
X123924402Y-65756701D01*
X123951500Y-65585611D01*
X123951500Y-65542389D01*
X132850500Y-65542389D01*
X132850500Y-65715610D01*
X132871719Y-65849586D01*
X132877598Y-65886701D01*
X132931127Y-66051445D01*
X133009768Y-66205788D01*
X133111586Y-66345928D01*
X133234072Y-66468414D01*
X133374212Y-66570232D01*
X133528555Y-66648873D01*
X133693299Y-66702402D01*
X133864389Y-66729500D01*
X133864390Y-66729500D01*
X134037610Y-66729500D01*
X134037611Y-66729500D01*
X134208701Y-66702402D01*
X134373445Y-66648873D01*
X134527788Y-66570232D01*
X134667928Y-66468414D01*
X134790414Y-66345928D01*
X134892232Y-66205788D01*
X134970873Y-66051445D01*
X135024402Y-65886701D01*
X135051500Y-65715611D01*
X135051500Y-65542389D01*
X140470500Y-65542389D01*
X140470500Y-65715610D01*
X140491719Y-65849586D01*
X140497598Y-65886701D01*
X140551127Y-66051445D01*
X140629768Y-66205788D01*
X140731586Y-66345928D01*
X140854072Y-66468414D01*
X140994212Y-66570232D01*
X141148555Y-66648873D01*
X141313299Y-66702402D01*
X141484389Y-66729500D01*
X141484390Y-66729500D01*
X141657610Y-66729500D01*
X141657611Y-66729500D01*
X141828701Y-66702402D01*
X141993445Y-66648873D01*
X142084676Y-66602389D01*
X156860500Y-66602389D01*
X156860500Y-66775611D01*
X156887598Y-66946701D01*
X156941127Y-67111445D01*
X157019768Y-67265788D01*
X157121586Y-67405928D01*
X157244072Y-67528414D01*
X157384212Y-67630232D01*
X157538555Y-67708873D01*
X157703299Y-67762402D01*
X157874389Y-67789500D01*
X157874390Y-67789500D01*
X158047610Y-67789500D01*
X158047611Y-67789500D01*
X158218701Y-67762402D01*
X158383445Y-67708873D01*
X158537788Y-67630232D01*
X158677928Y-67528414D01*
X158800414Y-67405928D01*
X158902232Y-67265788D01*
X158980873Y-67111445D01*
X159034402Y-66946701D01*
X159061500Y-66775611D01*
X159061500Y-66602389D01*
X159034402Y-66431299D01*
X158980873Y-66266555D01*
X158902232Y-66112212D01*
X158800414Y-65972072D01*
X158677928Y-65849586D01*
X158537788Y-65747768D01*
X158383445Y-65669127D01*
X158218701Y-65615598D01*
X158218699Y-65615597D01*
X158218698Y-65615597D01*
X158120156Y-65599990D01*
X158119335Y-65599860D01*
X158047611Y-65588500D01*
X157874389Y-65588500D01*
X157834728Y-65594781D01*
X157703302Y-65615597D01*
X157538552Y-65669128D01*
X157384211Y-65747768D01*
X157304256Y-65805859D01*
X157244072Y-65849586D01*
X157244070Y-65849588D01*
X157244069Y-65849588D01*
X157121588Y-65972069D01*
X157121588Y-65972070D01*
X157121586Y-65972072D01*
X157077859Y-66032256D01*
X157019768Y-66112211D01*
X156941128Y-66266552D01*
X156887597Y-66431302D01*
X156865593Y-66570231D01*
X156860500Y-66602389D01*
X142084676Y-66602389D01*
X142147788Y-66570232D01*
X142287928Y-66468414D01*
X142410414Y-66345928D01*
X142512232Y-66205788D01*
X142590873Y-66051445D01*
X142644402Y-65886701D01*
X142671500Y-65715611D01*
X142671500Y-65542389D01*
X142661997Y-65482389D01*
X161860500Y-65482389D01*
X161860500Y-65655611D01*
X161887598Y-65826701D01*
X161941127Y-65991445D01*
X162019768Y-66145788D01*
X162121586Y-66285928D01*
X162244072Y-66408414D01*
X162384212Y-66510232D01*
X162538555Y-66588873D01*
X162703299Y-66642402D01*
X162874389Y-66669500D01*
X162874390Y-66669500D01*
X163047610Y-66669500D01*
X163047611Y-66669500D01*
X163218701Y-66642402D01*
X163383445Y-66588873D01*
X163537788Y-66510232D01*
X163677928Y-66408414D01*
X163800414Y-66285928D01*
X163902232Y-66145788D01*
X163980873Y-65991445D01*
X164034402Y-65826701D01*
X164061500Y-65655611D01*
X164061500Y-65482389D01*
X164050413Y-65412389D01*
X165950500Y-65412389D01*
X165950500Y-65585611D01*
X165977598Y-65756701D01*
X166007778Y-65849586D01*
X166031128Y-65921447D01*
X166056923Y-65972072D01*
X166109768Y-66075788D01*
X166211586Y-66215928D01*
X166334072Y-66338414D01*
X166474212Y-66440232D01*
X166628555Y-66518873D01*
X166793299Y-66572402D01*
X166964389Y-66599500D01*
X166964390Y-66599500D01*
X167937610Y-66599500D01*
X167937611Y-66599500D01*
X168108701Y-66572402D01*
X168273445Y-66518873D01*
X168427788Y-66440232D01*
X168567928Y-66338414D01*
X168690414Y-66215928D01*
X168792232Y-66075788D01*
X168870873Y-65921445D01*
X168924402Y-65756701D01*
X168951500Y-65585611D01*
X168951500Y-65542389D01*
X177850500Y-65542389D01*
X177850500Y-65715610D01*
X177871719Y-65849586D01*
X177877598Y-65886701D01*
X177931127Y-66051445D01*
X178009768Y-66205788D01*
X178111586Y-66345928D01*
X178234072Y-66468414D01*
X178374212Y-66570232D01*
X178528555Y-66648873D01*
X178693299Y-66702402D01*
X178864389Y-66729500D01*
X178864390Y-66729500D01*
X179037610Y-66729500D01*
X179037611Y-66729500D01*
X179208701Y-66702402D01*
X179373445Y-66648873D01*
X179527788Y-66570232D01*
X179667928Y-66468414D01*
X179790414Y-66345928D01*
X179892232Y-66205788D01*
X179970873Y-66051445D01*
X180024402Y-65886701D01*
X180051500Y-65715611D01*
X180051500Y-65542389D01*
X180024402Y-65371299D01*
X179970873Y-65206555D01*
X179892232Y-65052212D01*
X179790414Y-64912072D01*
X179667928Y-64789586D01*
X179527788Y-64687768D01*
X179373445Y-64609127D01*
X179208701Y-64555598D01*
X179208699Y-64555597D01*
X179208698Y-64555597D01*
X179077271Y-64534781D01*
X179037611Y-64528500D01*
X178864389Y-64528500D01*
X178824728Y-64534781D01*
X178693302Y-64555597D01*
X178528552Y-64609128D01*
X178374211Y-64687768D01*
X178316652Y-64729588D01*
X178234072Y-64789586D01*
X178234070Y-64789588D01*
X178234069Y-64789588D01*
X178111588Y-64912069D01*
X178111588Y-64912070D01*
X178111586Y-64912072D01*
X178104220Y-64922211D01*
X178009768Y-65052211D01*
X177931128Y-65206552D01*
X177877597Y-65371302D01*
X177850500Y-65542389D01*
X168951500Y-65542389D01*
X168951500Y-65412389D01*
X168924402Y-65241299D01*
X168870873Y-65076555D01*
X168792232Y-64922212D01*
X168690414Y-64782072D01*
X168567928Y-64659586D01*
X168427788Y-64557768D01*
X168305771Y-64495598D01*
X168273447Y-64479128D01*
X168273446Y-64479127D01*
X168273445Y-64479127D01*
X168108701Y-64425598D01*
X168108699Y-64425597D01*
X168108698Y-64425597D01*
X167977271Y-64404781D01*
X167937611Y-64398500D01*
X166964389Y-64398500D01*
X166924728Y-64404781D01*
X166793302Y-64425597D01*
X166628552Y-64479128D01*
X166474211Y-64557768D01*
X166403523Y-64609127D01*
X166334072Y-64659586D01*
X166334070Y-64659588D01*
X166334069Y-64659588D01*
X166211588Y-64782069D01*
X166211588Y-64782070D01*
X166211586Y-64782072D01*
X166167859Y-64842256D01*
X166109768Y-64922211D01*
X166031128Y-65076552D01*
X165977597Y-65241302D01*
X165950500Y-65412389D01*
X164050413Y-65412389D01*
X164034402Y-65311299D01*
X163980873Y-65146555D01*
X163902232Y-64992212D01*
X163800414Y-64852072D01*
X163677928Y-64729586D01*
X163537788Y-64627768D01*
X163383445Y-64549127D01*
X163218701Y-64495598D01*
X163218699Y-64495597D01*
X163218698Y-64495597D01*
X163087271Y-64474781D01*
X163047611Y-64468500D01*
X162874389Y-64468500D01*
X162834728Y-64474781D01*
X162703302Y-64495597D01*
X162538552Y-64549128D01*
X162384211Y-64627768D01*
X162304256Y-64685859D01*
X162244072Y-64729586D01*
X162244070Y-64729588D01*
X162244069Y-64729588D01*
X162121588Y-64852069D01*
X162121588Y-64852070D01*
X162121586Y-64852072D01*
X162077995Y-64912069D01*
X162019768Y-64992211D01*
X161941128Y-65146552D01*
X161887597Y-65311302D01*
X161878095Y-65371299D01*
X161860500Y-65482389D01*
X142661997Y-65482389D01*
X142644402Y-65371299D01*
X142590873Y-65206555D01*
X142512232Y-65052212D01*
X142410414Y-64912072D01*
X142287928Y-64789586D01*
X142147788Y-64687768D01*
X141993445Y-64609127D01*
X141828701Y-64555598D01*
X141828699Y-64555597D01*
X141828698Y-64555597D01*
X141697271Y-64534781D01*
X141657611Y-64528500D01*
X141484389Y-64528500D01*
X141444728Y-64534781D01*
X141313302Y-64555597D01*
X141148552Y-64609128D01*
X140994211Y-64687768D01*
X140936652Y-64729588D01*
X140854072Y-64789586D01*
X140854070Y-64789588D01*
X140854069Y-64789588D01*
X140731588Y-64912069D01*
X140731588Y-64912070D01*
X140731586Y-64912072D01*
X140724220Y-64922211D01*
X140629768Y-65052211D01*
X140551128Y-65206552D01*
X140497597Y-65371302D01*
X140470500Y-65542389D01*
X135051500Y-65542389D01*
X135024402Y-65371299D01*
X134970873Y-65206555D01*
X134892232Y-65052212D01*
X134790414Y-64912072D01*
X134667928Y-64789586D01*
X134527788Y-64687768D01*
X134373445Y-64609127D01*
X134208701Y-64555598D01*
X134208699Y-64555597D01*
X134208698Y-64555597D01*
X134077271Y-64534781D01*
X134037611Y-64528500D01*
X133864389Y-64528500D01*
X133824728Y-64534781D01*
X133693302Y-64555597D01*
X133528552Y-64609128D01*
X133374211Y-64687768D01*
X133316652Y-64729588D01*
X133234072Y-64789586D01*
X133234070Y-64789588D01*
X133234069Y-64789588D01*
X133111588Y-64912069D01*
X133111588Y-64912070D01*
X133111586Y-64912072D01*
X133104220Y-64922211D01*
X133009768Y-65052211D01*
X132931128Y-65206552D01*
X132877597Y-65371302D01*
X132850500Y-65542389D01*
X123951500Y-65542389D01*
X123951500Y-65412389D01*
X123924402Y-65241299D01*
X123870873Y-65076555D01*
X123792232Y-64922212D01*
X123690414Y-64782072D01*
X123567928Y-64659586D01*
X123427788Y-64557768D01*
X123305771Y-64495598D01*
X123273447Y-64479128D01*
X123273446Y-64479127D01*
X123273445Y-64479127D01*
X123108701Y-64425598D01*
X123108699Y-64425597D01*
X123108698Y-64425597D01*
X122977271Y-64404781D01*
X122937611Y-64398500D01*
X121964389Y-64398500D01*
X121924728Y-64404781D01*
X121793302Y-64425597D01*
X121628552Y-64479128D01*
X121474211Y-64557768D01*
X121403523Y-64609127D01*
X121334072Y-64659586D01*
X121334070Y-64659588D01*
X121334069Y-64659588D01*
X121211588Y-64782069D01*
X121211588Y-64782070D01*
X121211586Y-64782072D01*
X121167859Y-64842256D01*
X121109768Y-64922211D01*
X121031128Y-65076552D01*
X120977597Y-65241302D01*
X120950500Y-65412389D01*
X119050413Y-65412389D01*
X119034402Y-65311299D01*
X118980873Y-65146555D01*
X118902232Y-64992212D01*
X118800414Y-64852072D01*
X118677928Y-64729586D01*
X118537788Y-64627768D01*
X118383445Y-64549127D01*
X118218701Y-64495598D01*
X118218699Y-64495597D01*
X118218698Y-64495597D01*
X118087271Y-64474781D01*
X118047611Y-64468500D01*
X117874389Y-64468500D01*
X117834728Y-64474781D01*
X117703302Y-64495597D01*
X117538552Y-64549128D01*
X117384211Y-64627768D01*
X117304256Y-64685859D01*
X117244072Y-64729586D01*
X117244070Y-64729588D01*
X117244069Y-64729588D01*
X117121588Y-64852069D01*
X117121588Y-64852070D01*
X117121586Y-64852072D01*
X117077995Y-64912069D01*
X117019768Y-64992211D01*
X116941128Y-65146552D01*
X116887597Y-65311302D01*
X116878095Y-65371299D01*
X116860500Y-65482389D01*
X100767448Y-65482389D01*
X100767448Y-62872389D01*
X120950500Y-62872389D01*
X120950500Y-63045611D01*
X120977598Y-63216701D01*
X121031127Y-63381445D01*
X121109768Y-63535788D01*
X121211586Y-63675928D01*
X121334072Y-63798414D01*
X121474212Y-63900232D01*
X121628555Y-63978873D01*
X121793299Y-64032402D01*
X121964389Y-64059500D01*
X121964390Y-64059500D01*
X122937610Y-64059500D01*
X122937611Y-64059500D01*
X123108701Y-64032402D01*
X123273445Y-63978873D01*
X123427788Y-63900232D01*
X123567928Y-63798414D01*
X123690414Y-63675928D01*
X123792232Y-63535788D01*
X123870873Y-63381445D01*
X123924402Y-63216701D01*
X123951500Y-63045611D01*
X123951500Y-62872389D01*
X165950500Y-62872389D01*
X165950500Y-63045611D01*
X165977598Y-63216701D01*
X166031127Y-63381445D01*
X166109768Y-63535788D01*
X166211586Y-63675928D01*
X166334072Y-63798414D01*
X166474212Y-63900232D01*
X166628555Y-63978873D01*
X166793299Y-64032402D01*
X166964389Y-64059500D01*
X166964390Y-64059500D01*
X167937610Y-64059500D01*
X167937611Y-64059500D01*
X168108701Y-64032402D01*
X168273445Y-63978873D01*
X168427788Y-63900232D01*
X168567928Y-63798414D01*
X168690414Y-63675928D01*
X168792232Y-63535788D01*
X168870873Y-63381445D01*
X168924402Y-63216701D01*
X168951500Y-63045611D01*
X168951500Y-62872389D01*
X168924402Y-62701299D01*
X168870873Y-62536555D01*
X168792232Y-62382212D01*
X168690414Y-62242072D01*
X168567928Y-62119586D01*
X168427788Y-62017768D01*
X168273445Y-61939127D01*
X168108701Y-61885598D01*
X168108699Y-61885597D01*
X168108698Y-61885597D01*
X167977271Y-61864781D01*
X167937611Y-61858500D01*
X166964389Y-61858500D01*
X166924728Y-61864781D01*
X166793302Y-61885597D01*
X166628552Y-61939128D01*
X166474211Y-62017768D01*
X166394256Y-62075859D01*
X166334072Y-62119586D01*
X166334070Y-62119588D01*
X166334069Y-62119588D01*
X166211588Y-62242069D01*
X166211588Y-62242070D01*
X166211586Y-62242072D01*
X166167859Y-62302256D01*
X166109768Y-62382211D01*
X166031128Y-62536552D01*
X165977597Y-62701302D01*
X165950500Y-62872389D01*
X123951500Y-62872389D01*
X123924402Y-62701299D01*
X123870873Y-62536555D01*
X123792232Y-62382212D01*
X123690414Y-62242072D01*
X123567928Y-62119586D01*
X123427788Y-62017768D01*
X123273445Y-61939127D01*
X123108701Y-61885598D01*
X123108699Y-61885597D01*
X123108698Y-61885597D01*
X122977271Y-61864781D01*
X122937611Y-61858500D01*
X121964389Y-61858500D01*
X121924728Y-61864781D01*
X121793302Y-61885597D01*
X121628552Y-61939128D01*
X121474211Y-62017768D01*
X121394256Y-62075859D01*
X121334072Y-62119586D01*
X121334070Y-62119588D01*
X121334069Y-62119588D01*
X121211588Y-62242069D01*
X121211588Y-62242070D01*
X121211586Y-62242072D01*
X121167859Y-62302256D01*
X121109768Y-62382211D01*
X121031128Y-62536552D01*
X120977597Y-62701302D01*
X120950500Y-62872389D01*
X100767448Y-62872389D01*
X100767448Y-60332389D01*
X120950500Y-60332389D01*
X120950500Y-60505611D01*
X120977598Y-60676701D01*
X121031127Y-60841445D01*
X121109768Y-60995788D01*
X121211586Y-61135928D01*
X121334072Y-61258414D01*
X121474212Y-61360232D01*
X121628555Y-61438873D01*
X121793299Y-61492402D01*
X121964389Y-61519500D01*
X121964390Y-61519500D01*
X122937610Y-61519500D01*
X122937611Y-61519500D01*
X123108701Y-61492402D01*
X123273445Y-61438873D01*
X123427788Y-61360232D01*
X123567928Y-61258414D01*
X123690414Y-61135928D01*
X123792232Y-60995788D01*
X123870873Y-60841445D01*
X123924402Y-60676701D01*
X123951500Y-60505611D01*
X123951500Y-60332389D01*
X165950500Y-60332389D01*
X165950500Y-60505611D01*
X165977598Y-60676701D01*
X166031127Y-60841445D01*
X166109768Y-60995788D01*
X166211586Y-61135928D01*
X166334072Y-61258414D01*
X166474212Y-61360232D01*
X166628555Y-61438873D01*
X166793299Y-61492402D01*
X166964389Y-61519500D01*
X166964390Y-61519500D01*
X167937610Y-61519500D01*
X167937611Y-61519500D01*
X168108701Y-61492402D01*
X168273445Y-61438873D01*
X168427788Y-61360232D01*
X168567928Y-61258414D01*
X168690414Y-61135928D01*
X168792232Y-60995788D01*
X168870873Y-60841445D01*
X168924402Y-60676701D01*
X168951500Y-60505611D01*
X168951500Y-60332389D01*
X168924402Y-60161299D01*
X168870873Y-59996555D01*
X168792232Y-59842212D01*
X168690414Y-59702072D01*
X168567928Y-59579586D01*
X168427788Y-59477768D01*
X168273445Y-59399127D01*
X168108701Y-59345598D01*
X168108699Y-59345597D01*
X168108698Y-59345597D01*
X167977271Y-59324781D01*
X167937611Y-59318500D01*
X166964389Y-59318500D01*
X166924728Y-59324781D01*
X166793302Y-59345597D01*
X166628552Y-59399128D01*
X166474211Y-59477768D01*
X166394256Y-59535859D01*
X166334072Y-59579586D01*
X166334070Y-59579588D01*
X166334069Y-59579588D01*
X166211588Y-59702069D01*
X166211588Y-59702070D01*
X166211586Y-59702072D01*
X166167859Y-59762256D01*
X166109768Y-59842211D01*
X166031128Y-59996552D01*
X165977597Y-60161302D01*
X165966796Y-60229500D01*
X165950500Y-60332389D01*
X123951500Y-60332389D01*
X123924402Y-60161299D01*
X123870873Y-59996555D01*
X123792232Y-59842212D01*
X123690414Y-59702072D01*
X123567928Y-59579586D01*
X123427788Y-59477768D01*
X123273445Y-59399127D01*
X123108701Y-59345598D01*
X123108699Y-59345597D01*
X123108698Y-59345597D01*
X122977271Y-59324781D01*
X122937611Y-59318500D01*
X121964389Y-59318500D01*
X121924728Y-59324781D01*
X121793302Y-59345597D01*
X121628552Y-59399128D01*
X121474211Y-59477768D01*
X121394256Y-59535859D01*
X121334072Y-59579586D01*
X121334070Y-59579588D01*
X121334069Y-59579588D01*
X121211588Y-59702069D01*
X121211588Y-59702070D01*
X121211586Y-59702072D01*
X121167859Y-59762256D01*
X121109768Y-59842211D01*
X121031128Y-59996552D01*
X120977597Y-60161302D01*
X120966796Y-60229500D01*
X120950500Y-60332389D01*
X100767448Y-60332389D01*
X100767448Y-58535898D01*
X113660500Y-58535898D01*
X113660500Y-59722102D01*
X113666126Y-59768954D01*
X113671122Y-59810561D01*
X113726639Y-59951343D01*
X113818077Y-60071922D01*
X113938656Y-60163360D01*
X113938657Y-60163360D01*
X113938658Y-60163361D01*
X114079436Y-60218877D01*
X114167898Y-60229500D01*
X114167903Y-60229500D01*
X115354097Y-60229500D01*
X115354102Y-60229500D01*
X115442564Y-60218877D01*
X115583342Y-60163361D01*
X115703922Y-60071922D01*
X115795361Y-59951342D01*
X115850877Y-59810564D01*
X115861500Y-59722102D01*
X115861500Y-58535898D01*
X115850877Y-58447436D01*
X115795361Y-58306658D01*
X115795360Y-58306657D01*
X115795360Y-58306656D01*
X115703922Y-58186077D01*
X115583343Y-58094639D01*
X115442561Y-58039122D01*
X115396926Y-58033642D01*
X115354102Y-58028500D01*
X114167898Y-58028500D01*
X114128853Y-58033188D01*
X114079438Y-58039122D01*
X113938656Y-58094639D01*
X113818077Y-58186077D01*
X113726639Y-58306656D01*
X113671122Y-58447438D01*
X113665188Y-58496853D01*
X113660500Y-58535898D01*
X100767448Y-58535898D01*
X100767448Y-57285898D01*
X120950500Y-57285898D01*
X120950500Y-58472102D01*
X120955118Y-58510561D01*
X120961122Y-58560561D01*
X121016639Y-58701343D01*
X121108077Y-58821922D01*
X121228656Y-58913360D01*
X121228657Y-58913360D01*
X121228658Y-58913361D01*
X121369436Y-58968877D01*
X121457898Y-58979500D01*
X121457903Y-58979500D01*
X123444097Y-58979500D01*
X123444102Y-58979500D01*
X123532564Y-58968877D01*
X123673342Y-58913361D01*
X123793922Y-58821922D01*
X123885361Y-58701342D01*
X123940877Y-58560564D01*
X123951500Y-58472102D01*
X123951500Y-57285898D01*
X123940877Y-57197436D01*
X123885361Y-57056658D01*
X123885360Y-57056657D01*
X123885360Y-57056656D01*
X123793922Y-56936077D01*
X123787221Y-56930996D01*
X123673343Y-56844639D01*
X123651177Y-56835898D01*
X134092823Y-56835898D01*
X134092823Y-58422102D01*
X134097291Y-58459307D01*
X134103445Y-58510561D01*
X134103445Y-58510563D01*
X134103446Y-58510564D01*
X134121045Y-58555192D01*
X134158962Y-58651343D01*
X134250400Y-58771922D01*
X134370979Y-58863360D01*
X134370980Y-58863360D01*
X134370981Y-58863361D01*
X134511759Y-58918877D01*
X134600221Y-58929500D01*
X134600226Y-58929500D01*
X136186420Y-58929500D01*
X136186425Y-58929500D01*
X136274887Y-58918877D01*
X136415665Y-58863361D01*
X136536245Y-58771922D01*
X136627684Y-58651342D01*
X136683200Y-58510564D01*
X136693823Y-58422102D01*
X136693823Y-57526648D01*
X139092823Y-57526648D01*
X139092823Y-57731351D01*
X139124845Y-57933534D01*
X139188104Y-58128223D01*
X139252014Y-58253653D01*
X139279022Y-58306658D01*
X139281038Y-58310613D01*
X139401351Y-58476213D01*
X139546109Y-58620971D01*
X139656734Y-58701343D01*
X139711713Y-58741287D01*
X139827930Y-58800503D01*
X139894099Y-58834218D01*
X139894101Y-58834218D01*
X139894104Y-58834220D01*
X139983788Y-58863360D01*
X140088788Y-58897477D01*
X140189069Y-58913360D01*
X140290971Y-58929500D01*
X140290972Y-58929500D01*
X140495674Y-58929500D01*
X140495675Y-58929500D01*
X140697857Y-58897477D01*
X140892542Y-58834220D01*
X141074933Y-58741287D01*
X141167913Y-58673732D01*
X141240536Y-58620971D01*
X141240538Y-58620968D01*
X141240542Y-58620966D01*
X141325610Y-58535898D01*
X158660500Y-58535898D01*
X158660500Y-59722102D01*
X158666126Y-59768954D01*
X158671122Y-59810561D01*
X158726639Y-59951343D01*
X158818077Y-60071922D01*
X158938656Y-60163360D01*
X158938657Y-60163360D01*
X158938658Y-60163361D01*
X159079436Y-60218877D01*
X159167898Y-60229500D01*
X159167903Y-60229500D01*
X160354097Y-60229500D01*
X160354102Y-60229500D01*
X160442564Y-60218877D01*
X160583342Y-60163361D01*
X160703922Y-60071922D01*
X160795361Y-59951342D01*
X160850877Y-59810564D01*
X160861500Y-59722102D01*
X160861500Y-58535898D01*
X160850877Y-58447436D01*
X160795361Y-58306658D01*
X160795360Y-58306657D01*
X160795360Y-58306656D01*
X160703922Y-58186077D01*
X160583343Y-58094639D01*
X160442561Y-58039122D01*
X160396926Y-58033642D01*
X160354102Y-58028500D01*
X159167898Y-58028500D01*
X159128853Y-58033188D01*
X159079438Y-58039122D01*
X158938656Y-58094639D01*
X158818077Y-58186077D01*
X158726639Y-58306656D01*
X158671122Y-58447438D01*
X158665188Y-58496853D01*
X158660500Y-58535898D01*
X141325610Y-58535898D01*
X141385289Y-58476219D01*
X141388285Y-58472096D01*
X141397576Y-58459308D01*
X141397576Y-58459307D01*
X141424611Y-58422096D01*
X141505610Y-58310610D01*
X141598543Y-58128219D01*
X141661800Y-57933534D01*
X141693823Y-57731352D01*
X141693823Y-57526648D01*
X141661800Y-57324466D01*
X141649268Y-57285898D01*
X165950500Y-57285898D01*
X165950500Y-58472102D01*
X165955118Y-58510561D01*
X165961122Y-58560561D01*
X166016639Y-58701343D01*
X166108077Y-58821922D01*
X166228656Y-58913360D01*
X166228657Y-58913360D01*
X166228658Y-58913361D01*
X166369436Y-58968877D01*
X166457898Y-58979500D01*
X166457903Y-58979500D01*
X168444097Y-58979500D01*
X168444102Y-58979500D01*
X168532564Y-58968877D01*
X168673342Y-58913361D01*
X168793922Y-58821922D01*
X168885361Y-58701342D01*
X168940877Y-58560564D01*
X168951500Y-58472102D01*
X168951500Y-57285898D01*
X168940877Y-57197436D01*
X168885361Y-57056658D01*
X168885360Y-57056657D01*
X168885360Y-57056656D01*
X168793922Y-56936077D01*
X168787221Y-56930996D01*
X168673343Y-56844639D01*
X168651177Y-56835898D01*
X179092823Y-56835898D01*
X179092823Y-58422102D01*
X179097291Y-58459307D01*
X179103445Y-58510561D01*
X179103445Y-58510563D01*
X179103446Y-58510564D01*
X179121045Y-58555192D01*
X179158962Y-58651343D01*
X179250400Y-58771922D01*
X179370979Y-58863360D01*
X179370980Y-58863360D01*
X179370981Y-58863361D01*
X179511759Y-58918877D01*
X179600221Y-58929500D01*
X179600226Y-58929500D01*
X181186420Y-58929500D01*
X181186425Y-58929500D01*
X181274887Y-58918877D01*
X181415665Y-58863361D01*
X181536245Y-58771922D01*
X181627684Y-58651342D01*
X181683200Y-58510564D01*
X181693823Y-58422102D01*
X181693823Y-57526648D01*
X184092823Y-57526648D01*
X184092823Y-57731351D01*
X184124845Y-57933534D01*
X184188104Y-58128223D01*
X184252014Y-58253653D01*
X184279022Y-58306658D01*
X184281038Y-58310613D01*
X184401351Y-58476213D01*
X184546109Y-58620971D01*
X184656734Y-58701343D01*
X184711713Y-58741287D01*
X184827930Y-58800503D01*
X184894099Y-58834218D01*
X184894101Y-58834218D01*
X184894104Y-58834220D01*
X184983788Y-58863360D01*
X185088788Y-58897477D01*
X185189069Y-58913360D01*
X185290971Y-58929500D01*
X185290972Y-58929500D01*
X185495674Y-58929500D01*
X185495675Y-58929500D01*
X185697857Y-58897477D01*
X185892542Y-58834220D01*
X186074933Y-58741287D01*
X186167913Y-58673732D01*
X186240536Y-58620971D01*
X186240538Y-58620968D01*
X186240542Y-58620966D01*
X186385289Y-58476219D01*
X186385291Y-58476215D01*
X186385294Y-58476213D01*
X186438055Y-58403590D01*
X186505610Y-58310610D01*
X186598543Y-58128219D01*
X186661800Y-57933534D01*
X186693823Y-57731352D01*
X186693823Y-57526648D01*
X186661800Y-57324466D01*
X186661799Y-57324464D01*
X186598541Y-57129776D01*
X186561284Y-57056656D01*
X186505610Y-56947390D01*
X186430958Y-56844639D01*
X186385294Y-56781786D01*
X186240536Y-56637028D01*
X186074936Y-56516715D01*
X186074935Y-56516714D01*
X186074933Y-56516713D01*
X186014807Y-56486077D01*
X185892546Y-56423781D01*
X185697857Y-56360522D01*
X185523318Y-56332878D01*
X185495675Y-56328500D01*
X185290971Y-56328500D01*
X185266652Y-56332351D01*
X185088788Y-56360522D01*
X184894099Y-56423781D01*
X184711709Y-56516715D01*
X184546109Y-56637028D01*
X184401351Y-56781786D01*
X184281038Y-56947386D01*
X184188104Y-57129776D01*
X184124845Y-57324465D01*
X184092823Y-57526648D01*
X181693823Y-57526648D01*
X181693823Y-56835898D01*
X181683200Y-56747436D01*
X181627684Y-56606658D01*
X181627683Y-56606657D01*
X181627683Y-56606656D01*
X181536245Y-56486077D01*
X181415666Y-56394639D01*
X181274884Y-56339122D01*
X181229249Y-56333642D01*
X181186425Y-56328500D01*
X179600221Y-56328500D01*
X179561176Y-56333188D01*
X179511761Y-56339122D01*
X179370979Y-56394639D01*
X179250400Y-56486077D01*
X179158962Y-56606656D01*
X179103445Y-56747438D01*
X179099321Y-56781786D01*
X179092823Y-56835898D01*
X168651177Y-56835898D01*
X168532561Y-56789122D01*
X168486926Y-56783642D01*
X168444102Y-56778500D01*
X166457898Y-56778500D01*
X166418853Y-56783188D01*
X166369438Y-56789122D01*
X166228656Y-56844639D01*
X166108077Y-56936077D01*
X166016639Y-57056656D01*
X165961122Y-57197438D01*
X165955188Y-57246853D01*
X165950500Y-57285898D01*
X141649268Y-57285898D01*
X141620525Y-57197436D01*
X141598543Y-57129781D01*
X141505610Y-56947390D01*
X141430958Y-56844639D01*
X141385294Y-56781786D01*
X141240536Y-56637028D01*
X141074936Y-56516715D01*
X141074935Y-56516714D01*
X141074933Y-56516713D01*
X141014807Y-56486077D01*
X140892546Y-56423781D01*
X140697857Y-56360522D01*
X140523318Y-56332878D01*
X140495675Y-56328500D01*
X140290971Y-56328500D01*
X140266652Y-56332351D01*
X140088788Y-56360522D01*
X139894099Y-56423781D01*
X139711709Y-56516715D01*
X139546109Y-56637028D01*
X139401351Y-56781786D01*
X139281038Y-56947386D01*
X139188104Y-57129776D01*
X139124845Y-57324465D01*
X139092823Y-57526648D01*
X136693823Y-57526648D01*
X136693823Y-56835898D01*
X136683200Y-56747436D01*
X136627684Y-56606658D01*
X136627683Y-56606657D01*
X136627683Y-56606656D01*
X136536245Y-56486077D01*
X136415666Y-56394639D01*
X136274884Y-56339122D01*
X136229249Y-56333642D01*
X136186425Y-56328500D01*
X134600221Y-56328500D01*
X134561176Y-56333188D01*
X134511761Y-56339122D01*
X134370979Y-56394639D01*
X134250400Y-56486077D01*
X134158962Y-56606656D01*
X134103445Y-56747438D01*
X134099321Y-56781786D01*
X134092823Y-56835898D01*
X123651177Y-56835898D01*
X123532561Y-56789122D01*
X123486926Y-56783642D01*
X123444102Y-56778500D01*
X121457898Y-56778500D01*
X121418853Y-56783188D01*
X121369438Y-56789122D01*
X121228656Y-56844639D01*
X121108077Y-56936077D01*
X121016639Y-57056656D01*
X120961122Y-57197438D01*
X120955188Y-57246853D01*
X120950500Y-57285898D01*
X100767448Y-57285898D01*
X100767448Y-54542389D01*
X118660500Y-54542389D01*
X118660500Y-54715611D01*
X118687598Y-54886701D01*
X118741127Y-55051445D01*
X118819768Y-55205788D01*
X118921586Y-55345928D01*
X119044072Y-55468414D01*
X119184212Y-55570232D01*
X119338555Y-55648873D01*
X119503299Y-55702402D01*
X119674389Y-55729500D01*
X119674390Y-55729500D01*
X119847610Y-55729500D01*
X119847611Y-55729500D01*
X120018701Y-55702402D01*
X120183445Y-55648873D01*
X120337788Y-55570232D01*
X120477928Y-55468414D01*
X120600414Y-55345928D01*
X120702232Y-55205788D01*
X120780873Y-55051445D01*
X120834402Y-54886701D01*
X120861500Y-54715611D01*
X120861500Y-54542389D01*
X163660500Y-54542389D01*
X163660500Y-54715611D01*
X163687598Y-54886701D01*
X163741127Y-55051445D01*
X163819768Y-55205788D01*
X163921586Y-55345928D01*
X164044072Y-55468414D01*
X164184212Y-55570232D01*
X164338555Y-55648873D01*
X164503299Y-55702402D01*
X164674389Y-55729500D01*
X164674390Y-55729500D01*
X164847610Y-55729500D01*
X164847611Y-55729500D01*
X165018701Y-55702402D01*
X165183445Y-55648873D01*
X165337788Y-55570232D01*
X165477928Y-55468414D01*
X165600414Y-55345928D01*
X165702232Y-55205788D01*
X165780873Y-55051445D01*
X165834402Y-54886701D01*
X165861500Y-54715611D01*
X165861500Y-54542389D01*
X165834402Y-54371299D01*
X165780873Y-54206555D01*
X165702232Y-54052212D01*
X165600414Y-53912072D01*
X165477928Y-53789586D01*
X165337788Y-53687768D01*
X165183445Y-53609127D01*
X165018701Y-53555598D01*
X165018699Y-53555597D01*
X165018698Y-53555597D01*
X164887271Y-53534781D01*
X164847611Y-53528500D01*
X164674389Y-53528500D01*
X164634728Y-53534781D01*
X164503302Y-53555597D01*
X164338552Y-53609128D01*
X164184211Y-53687768D01*
X164104256Y-53745859D01*
X164044072Y-53789586D01*
X164044070Y-53789588D01*
X164044069Y-53789588D01*
X163921588Y-53912069D01*
X163921588Y-53912070D01*
X163921586Y-53912072D01*
X163877859Y-53972256D01*
X163819768Y-54052211D01*
X163741128Y-54206552D01*
X163687597Y-54371302D01*
X163660500Y-54542389D01*
X120861500Y-54542389D01*
X120834402Y-54371299D01*
X120780873Y-54206555D01*
X120702232Y-54052212D01*
X120600414Y-53912072D01*
X120477928Y-53789586D01*
X120337788Y-53687768D01*
X120183445Y-53609127D01*
X120018701Y-53555598D01*
X120018699Y-53555597D01*
X120018698Y-53555597D01*
X119887271Y-53534781D01*
X119847611Y-53528500D01*
X119674389Y-53528500D01*
X119634728Y-53534781D01*
X119503302Y-53555597D01*
X119338552Y-53609128D01*
X119184211Y-53687768D01*
X119104256Y-53745859D01*
X119044072Y-53789586D01*
X119044070Y-53789588D01*
X119044069Y-53789588D01*
X118921588Y-53912069D01*
X118921588Y-53912070D01*
X118921586Y-53912072D01*
X118877859Y-53972256D01*
X118819768Y-54052211D01*
X118741128Y-54206552D01*
X118687597Y-54371302D01*
X118660500Y-54542389D01*
X100767448Y-54542389D01*
X100767448Y-49491332D01*
X101160500Y-49491332D01*
X101160500Y-49766667D01*
X101160501Y-49766684D01*
X101196438Y-50039655D01*
X101196439Y-50039660D01*
X101196440Y-50039666D01*
X101196441Y-50039668D01*
X101267704Y-50305630D01*
X101373075Y-50560017D01*
X101373080Y-50560028D01*
X101438815Y-50673882D01*
X101510751Y-50798479D01*
X101510753Y-50798482D01*
X101510754Y-50798483D01*
X101678370Y-51016926D01*
X101678376Y-51016933D01*
X101873066Y-51211623D01*
X101873072Y-51211628D01*
X102091521Y-51379249D01*
X102244778Y-51467732D01*
X102329971Y-51516919D01*
X102329976Y-51516921D01*
X102329979Y-51516923D01*
X102584368Y-51622295D01*
X102850334Y-51693560D01*
X103123326Y-51729500D01*
X103123333Y-51729500D01*
X103398667Y-51729500D01*
X103398674Y-51729500D01*
X103671666Y-51693560D01*
X103937632Y-51622295D01*
X104192021Y-51516923D01*
X104430479Y-51379249D01*
X104648928Y-51211628D01*
X104843628Y-51016928D01*
X105011249Y-50798479D01*
X105148923Y-50560021D01*
X105254295Y-50305632D01*
X105325560Y-50039666D01*
X105361500Y-49766674D01*
X105361500Y-49491326D01*
X105325560Y-49218334D01*
X105254295Y-48952368D01*
X105148923Y-48697979D01*
X105148921Y-48697976D01*
X105148919Y-48697971D01*
X105099732Y-48612778D01*
X105011249Y-48459521D01*
X104843628Y-48241072D01*
X104843623Y-48241066D01*
X104648933Y-48046376D01*
X104648926Y-48046370D01*
X104430483Y-47878754D01*
X104430482Y-47878753D01*
X104430479Y-47878751D01*
X104335407Y-47823861D01*
X104192028Y-47741080D01*
X104192017Y-47741075D01*
X103937630Y-47635704D01*
X103804649Y-47600072D01*
X103671666Y-47564440D01*
X103671660Y-47564439D01*
X103671655Y-47564438D01*
X103398684Y-47528501D01*
X103398679Y-47528500D01*
X103398674Y-47528500D01*
X103123326Y-47528500D01*
X103123320Y-47528500D01*
X103123315Y-47528501D01*
X102850344Y-47564438D01*
X102850337Y-47564439D01*
X102850334Y-47564440D01*
X102794125Y-47579500D01*
X102584369Y-47635704D01*
X102329982Y-47741075D01*
X102329971Y-47741080D01*
X102091516Y-47878754D01*
X101873073Y-48046370D01*
X101873066Y-48046376D01*
X101678376Y-48241066D01*
X101678370Y-48241073D01*
X101510754Y-48459516D01*
X101373080Y-48697971D01*
X101373075Y-48697982D01*
X101267704Y-48952369D01*
X101196441Y-49218331D01*
X101196438Y-49218344D01*
X101160501Y-49491315D01*
X101160500Y-49491332D01*
X100767448Y-49491332D01*
X100767448Y-47253500D01*
X100787133Y-47186461D01*
X100839937Y-47140706D01*
X100891448Y-47129500D01*
X128360480Y-47129500D01*
X128427519Y-47149185D01*
G37*
%TD.AperFunction*%
%TD*%
M02*
