%TF.GenerationSoftware,KiCad,Pcbnew,9.0.4*%
%TF.CreationDate,2025-08-29T10:03:57+02:00*%
%TF.ProjectId,TDA7267_2x2_panel,54444137-3236-4375-9f32-78325f70616e,rev?*%
%TF.SameCoordinates,Original*%
%TF.FileFunction,Soldermask,Top*%
%TF.FilePolarity,Negative*%
%FSLAX46Y46*%
G04 Gerber Fmt 4.6, Leading zero omitted, Abs format (unit mm)*
G04 Created by KiCad (PCBNEW 9.0.4) date 2025-08-29 10:03:57*
%MOMM*%
%LPD*%
G01*
G04 APERTURE LIST*
G04 Aperture macros list*
%AMRoundRect*
0 Rectangle with rounded corners*
0 $1 Rounding radius*
0 $2 $3 $4 $5 $6 $7 $8 $9 X,Y pos of 4 corners*
0 Add a 4 corners polygon primitive as box body*
4,1,4,$2,$3,$4,$5,$6,$7,$8,$9,$2,$3,0*
0 Add four circle primitives for the rounded corners*
1,1,$1+$1,$2,$3*
1,1,$1+$1,$4,$5*
1,1,$1+$1,$6,$7*
1,1,$1+$1,$8,$9*
0 Add four rect primitives between the rounded corners*
20,1,$1+$1,$2,$3,$4,$5,0*
20,1,$1+$1,$4,$5,$6,$7,0*
20,1,$1+$1,$6,$7,$8,$9,0*
20,1,$1+$1,$8,$9,$2,$3,0*%
G04 Aperture macros list end*
%ADD10R,3.000000X3.000000*%
%ADD11C,3.000000*%
%ADD12C,1.600000*%
%ADD13R,1.800000X1.800000*%
%ADD14C,1.800000*%
%ADD15C,2.200000*%
%ADD16C,2.340000*%
%ADD17RoundRect,0.250000X-0.950000X-0.550000X0.950000X-0.550000X0.950000X0.550000X-0.950000X0.550000X0*%
%ADD18O,2.400000X1.600000*%
%ADD19RoundRect,0.250000X-0.550000X-0.550000X0.550000X-0.550000X0.550000X0.550000X-0.550000X0.550000X0*%
%ADD20RoundRect,0.250000X0.550000X0.550000X-0.550000X0.550000X-0.550000X-0.550000X0.550000X-0.550000X0*%
%ADD21RoundRect,0.250000X-0.750000X-0.750000X0.750000X-0.750000X0.750000X0.750000X-0.750000X0.750000X0*%
%ADD22C,2.000000*%
G04 APERTURE END LIST*
D10*
%TO.C,IN1*%
X151960000Y-107500000D03*
D11*
X157040000Y-107500000D03*
%TD*%
D12*
%TO.C,R1*%
X135700000Y-97560000D03*
X135700000Y-89940000D03*
%TD*%
%TO.C,C3*%
X130700000Y-96060000D03*
X130700000Y-91060000D03*
%TD*%
D13*
%TO.C,D1*%
X121460000Y-81000000D03*
D14*
X124000000Y-81000000D03*
%TD*%
D15*
%TO.C,H4*%
X112000000Y-58500000D03*
%TD*%
D10*
%TO.C,VCC1*%
X75420000Y-65500000D03*
D11*
X80500000Y-65500000D03*
%TD*%
D15*
%TO.C,H1*%
X75000000Y-32000000D03*
%TD*%
D16*
%TO.C,RV1*%
X88000000Y-65250000D03*
X93000000Y-65250000D03*
X98000000Y-65250000D03*
%TD*%
D15*
%TO.C,H2*%
X112000000Y-32000000D03*
%TD*%
D10*
%TO.C,OUT1*%
X100190000Y-31500000D03*
D11*
X95110000Y-31500000D03*
%TD*%
D12*
%TO.C,C5*%
X85000000Y-41000000D03*
X90000000Y-41000000D03*
%TD*%
D17*
%TO.C,U1*%
X94190000Y-40250000D03*
D18*
X94190000Y-42790000D03*
X94190000Y-45330000D03*
X94190000Y-47870000D03*
X101810000Y-47870000D03*
X101810000Y-45330000D03*
X101810000Y-42790000D03*
X101810000Y-40250000D03*
%TD*%
D12*
%TO.C,C1*%
X100500000Y-55250000D03*
X95500000Y-55250000D03*
%TD*%
D19*
%TO.C,C2*%
X153750000Y-93100000D03*
D12*
X157550000Y-93100000D03*
%TD*%
D20*
%TO.C,C4*%
X124500000Y-92900000D03*
D12*
X120700000Y-92900000D03*
%TD*%
D21*
%TO.C,C6*%
X153132323Y-82000000D03*
D22*
X158132323Y-82000000D03*
%TD*%
D16*
%TO.C,RV1*%
X134000000Y-107250000D03*
X139000000Y-107250000D03*
X144000000Y-107250000D03*
%TD*%
D20*
%TO.C,C4*%
X78500000Y-50900000D03*
D12*
X74700000Y-50900000D03*
%TD*%
D13*
%TO.C,D1*%
X75460000Y-39000000D03*
D14*
X78000000Y-39000000D03*
%TD*%
D12*
%TO.C,C3*%
X84700000Y-54060000D03*
X84700000Y-49060000D03*
%TD*%
D19*
%TO.C,C2*%
X107750000Y-51100000D03*
D12*
X111550000Y-51100000D03*
%TD*%
D21*
%TO.C,C6*%
X107132323Y-40000000D03*
D22*
X112132323Y-40000000D03*
%TD*%
D10*
%TO.C,IN1*%
X105960000Y-65500000D03*
D11*
X111040000Y-65500000D03*
%TD*%
D12*
%TO.C,R1*%
X89700000Y-55560000D03*
X89700000Y-47940000D03*
%TD*%
D15*
%TO.C,H3*%
X75000000Y-58500000D03*
%TD*%
D19*
%TO.C,C2*%
X153750000Y-51100000D03*
D12*
X157550000Y-51100000D03*
%TD*%
D20*
%TO.C,C4*%
X124500000Y-50900000D03*
D12*
X120700000Y-50900000D03*
%TD*%
D21*
%TO.C,C6*%
X153132323Y-40000000D03*
D22*
X158132323Y-40000000D03*
%TD*%
D12*
%TO.C,C3*%
X130700000Y-54060000D03*
X130700000Y-49060000D03*
%TD*%
D13*
%TO.C,D1*%
X121460000Y-39000000D03*
D14*
X124000000Y-39000000D03*
%TD*%
D12*
%TO.C,R2*%
X82190000Y-35500000D03*
X89810000Y-35500000D03*
%TD*%
%TO.C,R1*%
X135700000Y-55560000D03*
X135700000Y-47940000D03*
%TD*%
D10*
%TO.C,IN1*%
X151960000Y-65500000D03*
D11*
X157040000Y-65500000D03*
%TD*%
D10*
%TO.C,OUT1*%
X100190000Y-73500000D03*
D11*
X95110000Y-73500000D03*
%TD*%
D15*
%TO.C,H4*%
X112000000Y-100500000D03*
%TD*%
D12*
%TO.C,C1*%
X100500000Y-97250000D03*
X95500000Y-97250000D03*
%TD*%
D15*
%TO.C,H1*%
X75000000Y-74000000D03*
%TD*%
D16*
%TO.C,RV1*%
X88000000Y-107250000D03*
X93000000Y-107250000D03*
X98000000Y-107250000D03*
%TD*%
D12*
%TO.C,C5*%
X85000000Y-83000000D03*
X90000000Y-83000000D03*
%TD*%
D17*
%TO.C,U1*%
X94190000Y-82250000D03*
D18*
X94190000Y-84790000D03*
X94190000Y-87330000D03*
X94190000Y-89870000D03*
X101810000Y-89870000D03*
X101810000Y-87330000D03*
X101810000Y-84790000D03*
X101810000Y-82250000D03*
%TD*%
D10*
%TO.C,VCC1*%
X75420000Y-107500000D03*
D11*
X80500000Y-107500000D03*
%TD*%
D15*
%TO.C,H2*%
X112000000Y-74000000D03*
%TD*%
D12*
%TO.C,R1*%
X89700000Y-97560000D03*
X89700000Y-89940000D03*
%TD*%
D13*
%TO.C,D1*%
X75460000Y-81000000D03*
D14*
X78000000Y-81000000D03*
%TD*%
D19*
%TO.C,C2*%
X107750000Y-93100000D03*
D12*
X111550000Y-93100000D03*
%TD*%
%TO.C,R2*%
X128190000Y-35500000D03*
X135810000Y-35500000D03*
%TD*%
D15*
%TO.C,H3*%
X121000000Y-58500000D03*
%TD*%
D10*
%TO.C,IN1*%
X105960000Y-107500000D03*
D11*
X111040000Y-107500000D03*
%TD*%
D12*
%TO.C,C3*%
X84700000Y-96060000D03*
X84700000Y-91060000D03*
%TD*%
D20*
%TO.C,C4*%
X78500000Y-92900000D03*
D12*
X74700000Y-92900000D03*
%TD*%
D21*
%TO.C,C6*%
X107132323Y-82000000D03*
D22*
X112132323Y-82000000D03*
%TD*%
D15*
%TO.C,H4*%
X158000000Y-58500000D03*
%TD*%
%TO.C,H1*%
X121000000Y-32000000D03*
%TD*%
D10*
%TO.C,OUT1*%
X146190000Y-31500000D03*
D11*
X141110000Y-31500000D03*
%TD*%
D17*
%TO.C,U1*%
X140190000Y-40250000D03*
D18*
X140190000Y-42790000D03*
X140190000Y-45330000D03*
X140190000Y-47870000D03*
X147810000Y-47870000D03*
X147810000Y-45330000D03*
X147810000Y-42790000D03*
X147810000Y-40250000D03*
%TD*%
D10*
%TO.C,VCC1*%
X121420000Y-65500000D03*
D11*
X126500000Y-65500000D03*
%TD*%
D16*
%TO.C,RV1*%
X134000000Y-65250000D03*
X139000000Y-65250000D03*
X144000000Y-65250000D03*
%TD*%
D12*
%TO.C,C1*%
X146500000Y-55250000D03*
X141500000Y-55250000D03*
%TD*%
D15*
%TO.C,H2*%
X158000000Y-32000000D03*
%TD*%
D12*
%TO.C,C5*%
X131000000Y-41000000D03*
X136000000Y-41000000D03*
%TD*%
D15*
%TO.C,H4*%
X158000000Y-100500000D03*
%TD*%
%TO.C,H2*%
X158000000Y-74000000D03*
%TD*%
D10*
%TO.C,OUT1*%
X146190000Y-73500000D03*
D11*
X141110000Y-73500000D03*
%TD*%
D12*
%TO.C,C1*%
X146500000Y-97250000D03*
X141500000Y-97250000D03*
%TD*%
D15*
%TO.C,H1*%
X121000000Y-74000000D03*
%TD*%
D12*
%TO.C,C5*%
X131000000Y-83000000D03*
X136000000Y-83000000D03*
%TD*%
D17*
%TO.C,U1*%
X140190000Y-82250000D03*
D18*
X140190000Y-84790000D03*
X140190000Y-87330000D03*
X140190000Y-89870000D03*
X147810000Y-89870000D03*
X147810000Y-87330000D03*
X147810000Y-84790000D03*
X147810000Y-82250000D03*
%TD*%
D10*
%TO.C,VCC1*%
X121420000Y-107500000D03*
D11*
X126500000Y-107500000D03*
%TD*%
D12*
%TO.C,R2*%
X128190000Y-77500000D03*
X135810000Y-77500000D03*
%TD*%
D15*
%TO.C,H3*%
X121000000Y-100500000D03*
%TD*%
%TO.C,H3*%
X75000000Y-100500000D03*
%TD*%
D12*
%TO.C,R2*%
X82190000Y-77500000D03*
X89810000Y-77500000D03*
%TD*%
M02*
