M48
; DRILL file {KiCad 9.0.4} date 2025-08-29T10:03:51+0200
; FORMAT={-:-/ absolute / inch / decimal}
; #@! TF.CreationDate,2025-08-29T10:03:51+02:00
; #@! TF.GenerationSoftware,Kicad,Pcbnew,9.0.4
; #@! TF.FileFunction,Plated,1,2,PTH
FMAT,2
INCH
; #@! TA.AperFunction,Plated,PTH,ComponentDrill
T1C0.0315
; #@! TA.AperFunction,Plated,PTH,ComponentDrill
T2C0.0354
; #@! TA.AperFunction,Plated,PTH,ComponentDrill
T3C0.0394
; #@! TA.AperFunction,Plated,PTH,ComponentDrill
T4C0.0512
; #@! TA.AperFunction,Plated,PTH,ComponentDrill
T5C0.0598
%
G90
G05
T1
X2.9409Y-2.0039
X2.9409Y-3.6575
X3.0906Y-2.0039
X3.0906Y-3.6575
X3.2358Y-1.3976
X3.2358Y-3.0512
X3.3346Y-1.9315
X3.3346Y-2.1283
X3.3346Y-3.585
X3.3346Y-3.7819
X3.3465Y-1.6142
X3.3465Y-3.2677
X3.5315Y-1.8874
X3.5315Y-2.1874
X3.5315Y-3.5409
X3.5315Y-3.8409
X3.5358Y-1.3976
X3.5358Y-3.0512
X3.5433Y-1.6142
X3.5433Y-3.2677
X3.7083Y-1.5846
X3.7083Y-1.6846
X3.7083Y-1.7846
X3.7083Y-1.8846
X3.7083Y-3.2382
X3.7083Y-3.3382
X3.7083Y-3.4382
X3.7083Y-3.5382
X3.7598Y-2.1752
X3.7598Y-3.8287
X3.9567Y-2.1752
X3.9567Y-3.8287
X4.0083Y-1.5846
X4.0083Y-1.6846
X4.0083Y-1.7846
X4.0083Y-1.8846
X4.0083Y-3.2382
X4.0083Y-3.3382
X4.0083Y-3.4382
X4.0083Y-3.5382
X4.2421Y-2.0118
X4.2421Y-3.6654
X4.3917Y-2.0118
X4.3917Y-3.6654
X4.752Y-2.0039
X4.752Y-3.6575
X4.9016Y-2.0039
X4.9016Y-3.6575
X5.0469Y-1.3976
X5.0469Y-3.0512
X5.1457Y-1.9315
X5.1457Y-2.1283
X5.1457Y-3.585
X5.1457Y-3.7819
X5.1575Y-1.6142
X5.1575Y-3.2677
X5.3425Y-1.8874
X5.3425Y-2.1874
X5.3425Y-3.5409
X5.3425Y-3.8409
X5.3469Y-1.3976
X5.3469Y-3.0512
X5.3543Y-1.6142
X5.3543Y-3.2677
X5.5193Y-1.5846
X5.5193Y-1.6846
X5.5193Y-1.7846
X5.5193Y-1.8846
X5.5193Y-3.2382
X5.5193Y-3.3382
X5.5193Y-3.4382
X5.5193Y-3.5382
X5.5709Y-2.1752
X5.5709Y-3.8287
X5.7677Y-2.1752
X5.7677Y-3.8287
X5.8193Y-1.5846
X5.8193Y-1.6846
X5.8193Y-1.7846
X5.8193Y-1.8846
X5.8193Y-3.2382
X5.8193Y-3.3382
X5.8193Y-3.4382
X5.8193Y-3.5382
X6.0531Y-2.0118
X6.0531Y-3.6654
X6.2028Y-2.0118
X6.2028Y-3.6654
T2
X2.9709Y-1.5354
X2.9709Y-3.189
X3.0709Y-1.5354
X3.0709Y-3.189
X4.7819Y-1.5354
X4.7819Y-3.189
X4.8819Y-1.5354
X4.8819Y-3.189
T3
X4.2178Y-1.5748
X4.2178Y-3.2283
X4.4147Y-1.5748
X4.4147Y-3.2283
X6.0288Y-1.5748
X6.0288Y-3.2283
X6.2257Y-1.5748
X6.2257Y-3.2283
T4
X3.4646Y-2.5689
X3.4646Y-4.2224
X3.6614Y-2.5689
X3.6614Y-4.2224
X3.8583Y-2.5689
X3.8583Y-4.2224
X5.2756Y-2.5689
X5.2756Y-4.2224
X5.4724Y-2.5689
X5.4724Y-4.2224
X5.6693Y-2.5689
X5.6693Y-4.2224
T5
X2.9693Y-2.5787
X2.9693Y-4.2323
X3.1693Y-2.5787
X3.1693Y-4.2323
X3.7445Y-1.2402
X3.7445Y-2.8937
X3.9445Y-1.2402
X3.9445Y-2.8937
X4.1717Y-2.5787
X4.1717Y-4.2323
X4.3717Y-2.5787
X4.3717Y-4.2323
X4.7803Y-2.5787
X4.7803Y-4.2323
X4.9803Y-2.5787
X4.9803Y-4.2323
X5.5555Y-1.2402
X5.5555Y-2.8937
X5.7555Y-1.2402
X5.7555Y-2.8937
X5.9827Y-2.5787
X5.9827Y-4.2323
X6.1827Y-2.5787
X6.1827Y-4.2323
M30
