M48
; DRILL file {KiCad 9.0.4} date 2025-09-13T13:10:46+0200
; FORMAT={-:-/ absolute / inch / decimal}
; #@! TF.CreationDate,2025-09-13T13:10:46+02:00
; #@! TF.GenerationSoftware,Kicad,Pcbnew,9.0.4
; #@! TF.FileFunction,Plated,1,2,PTH
FMAT,2
INCH
; #@! TA.AperFunction,Plated,PTH,ComponentDrill
T1C0.0315
; #@! TA.AperFunction,Plated,PTH,ComponentDrill
T2C0.0354
; #@! TA.AperFunction,Plated,PTH,ComponentDrill
T3C0.0394
; #@! TA.AperFunction,Plated,PTH,ComponentDrill
T4C0.0512
; #@! TA.AperFunction,Plated,PTH,ComponentDrill
T5C0.0598
%
G90
G05
T1
X4.0536Y-2.698
X4.0536Y-4.3122
X4.2032Y-2.698
X4.2032Y-4.3122
X4.3685Y-2.3279
X4.3685Y-3.9421
X4.4473Y-2.6256
X4.4473Y-2.8224
X4.4473Y-4.2397
X4.4473Y-4.4366
X4.5181Y-2.3279
X4.5181Y-3.9421
X4.6441Y-2.5815
X4.6441Y-2.8815
X4.6441Y-4.1956
X4.6441Y-4.4956
X4.715Y-1.9539
X4.715Y-2.1507
X4.715Y-3.5681
X4.715Y-3.7649
X4.8209Y-2.2787
X4.8209Y-2.3787
X4.8209Y-2.4787
X4.8209Y-2.5787
X4.8209Y-3.8929
X4.8209Y-3.9929
X4.8209Y-4.0929
X4.8209Y-4.1929
X4.8725Y-2.8693
X4.8725Y-4.4834
X5.0693Y-2.8693
X5.0693Y-4.4834
X5.1209Y-2.2787
X5.1209Y-2.3787
X5.1209Y-2.4787
X5.1209Y-2.5787
X5.1209Y-3.8929
X5.1209Y-3.9929
X5.1209Y-4.0929
X5.1209Y-4.1929
X5.2737Y-2.5838
X5.2737Y-4.198
X5.5737Y-2.5838
X5.5737Y-4.198
X5.8252Y-2.698
X5.8252Y-4.3122
X5.9748Y-2.698
X5.9748Y-4.3122
X6.1402Y-2.3279
X6.1402Y-3.9421
X6.2189Y-2.6256
X6.2189Y-2.8224
X6.2189Y-4.2397
X6.2189Y-4.4366
X6.2898Y-2.3279
X6.2898Y-3.9421
X6.4158Y-2.5815
X6.4158Y-2.8815
X6.4158Y-4.1956
X6.4158Y-4.4956
X6.4867Y-1.9539
X6.4867Y-2.1507
X6.4867Y-3.5681
X6.4867Y-3.7649
X6.5926Y-2.2787
X6.5926Y-2.3787
X6.5926Y-2.4787
X6.5926Y-2.5787
X6.5926Y-3.8929
X6.5926Y-3.9929
X6.5926Y-4.0929
X6.5926Y-4.1929
X6.6441Y-2.8693
X6.6441Y-4.4834
X6.841Y-2.8693
X6.841Y-4.4834
X6.8926Y-2.2787
X6.8926Y-2.3787
X6.8926Y-2.4787
X6.8926Y-2.5787
X6.8926Y-3.8929
X6.8926Y-3.9929
X6.8926Y-4.0929
X6.8926Y-4.1929
X7.0453Y-2.5838
X7.0453Y-4.198
X7.3453Y-2.5838
X7.3453Y-4.198
T2
X5.2449Y-2.8397
X5.2449Y-4.4539
X5.3449Y-2.8397
X5.3449Y-4.4539
X7.0166Y-2.8397
X7.0166Y-4.4539
X7.1166Y-2.8397
X7.1166Y-4.4539
T3
X5.3304Y-2.2689
X5.3304Y-3.883
X5.5273Y-2.2689
X5.5273Y-3.883
X7.1021Y-2.2689
X7.1021Y-3.883
X7.2989Y-2.2689
X7.2989Y-3.883
T4
X4.5772Y-3.263
X4.5772Y-4.8771
X4.7741Y-3.263
X4.7741Y-4.8771
X4.9709Y-3.263
X4.9709Y-4.8771
X6.3489Y-3.263
X6.3489Y-4.8771
X6.5457Y-3.263
X6.5457Y-4.8771
X6.7426Y-3.263
X6.7426Y-4.8771
T5
X4.0819Y-3.2728
X4.0819Y-4.887
X4.2819Y-3.2728
X4.2819Y-4.887
X4.9205Y-1.9342
X4.9205Y-3.5484
X5.1205Y-1.9342
X5.1205Y-3.5484
X5.2843Y-3.2728
X5.2843Y-4.887
X5.4843Y-3.2728
X5.4843Y-4.887
X5.8536Y-3.2728
X5.8536Y-4.887
X6.0536Y-3.2728
X6.0536Y-4.887
X6.6922Y-1.9342
X6.6922Y-3.5484
X6.8922Y-1.9342
X6.8922Y-3.5484
X7.0559Y-3.2728
X7.0559Y-4.887
X7.2559Y-3.2728
X7.2559Y-4.887
M30
