%TF.GenerationSoftware,KiCad,Pcbnew,9.0.4*%
%TF.CreationDate,2025-08-26T10:36:07+02:00*%
%TF.ProjectId,TDA7267_2x2_panel,54444137-3236-4375-9f32-78325f70616e,rev?*%
%TF.SameCoordinates,Original*%
%TF.FileFunction,Copper,L1,Top*%
%TF.FilePolarity,Positive*%
%FSLAX46Y46*%
G04 Gerber Fmt 4.6, Leading zero omitted, Abs format (unit mm)*
G04 Created by KiCad (PCBNEW 9.0.4) date 2025-08-26 10:36:07*
%MOMM*%
%LPD*%
G01*
G04 APERTURE LIST*
G04 Aperture macros list*
%AMRoundRect*
0 Rectangle with rounded corners*
0 $1 Rounding radius*
0 $2 $3 $4 $5 $6 $7 $8 $9 X,Y pos of 4 corners*
0 Add a 4 corners polygon primitive as box body*
4,1,4,$2,$3,$4,$5,$6,$7,$8,$9,$2,$3,0*
0 Add four circle primitives for the rounded corners*
1,1,$1+$1,$2,$3*
1,1,$1+$1,$4,$5*
1,1,$1+$1,$6,$7*
1,1,$1+$1,$8,$9*
0 Add four rect primitives between the rounded corners*
20,1,$1+$1,$2,$3,$4,$5,0*
20,1,$1+$1,$4,$5,$6,$7,0*
20,1,$1+$1,$6,$7,$8,$9,0*
20,1,$1+$1,$8,$9,$2,$3,0*%
G04 Aperture macros list end*
%TA.AperFunction,ComponentPad*%
%ADD10C,2.340000*%
%TD*%
%TA.AperFunction,ComponentPad*%
%ADD11C,1.600000*%
%TD*%
%TA.AperFunction,ComponentPad*%
%ADD12RoundRect,0.250000X-0.550000X-0.550000X0.550000X-0.550000X0.550000X0.550000X-0.550000X0.550000X0*%
%TD*%
%TA.AperFunction,ComponentPad*%
%ADD13R,1.800000X1.800000*%
%TD*%
%TA.AperFunction,ComponentPad*%
%ADD14C,1.800000*%
%TD*%
%TA.AperFunction,ComponentPad*%
%ADD15R,3.000000X3.000000*%
%TD*%
%TA.AperFunction,ComponentPad*%
%ADD16C,3.000000*%
%TD*%
%TA.AperFunction,ComponentPad*%
%ADD17C,2.000000*%
%TD*%
%TA.AperFunction,ComponentPad*%
%ADD18RoundRect,0.250000X-0.750000X-0.750000X0.750000X-0.750000X0.750000X0.750000X-0.750000X0.750000X0*%
%TD*%
%TA.AperFunction,ComponentPad*%
%ADD19O,2.400000X1.600000*%
%TD*%
%TA.AperFunction,ComponentPad*%
%ADD20RoundRect,0.250000X-0.950000X-0.550000X0.950000X-0.550000X0.950000X0.550000X-0.950000X0.550000X0*%
%TD*%
%TA.AperFunction,Conductor*%
%ADD21C,0.500000*%
%TD*%
G04 APERTURE END LIST*
D10*
%TO.P,RV1,1,1*%
%TO.N,Net-(IN1-Pin_1)*%
X176000000Y-96500000D03*
%TO.P,RV1,2,2*%
%TO.N,Net-(C1-Pad1)*%
X181000000Y-96500000D03*
%TO.P,RV1,3,3*%
%TO.N,GND*%
X186000000Y-96500000D03*
%TD*%
%TO.P,RV1,1,1*%
%TO.N,Net-(IN1-Pin_1)*%
X129000000Y-96500000D03*
%TO.P,RV1,2,2*%
%TO.N,Net-(C1-Pad1)*%
X134000000Y-96500000D03*
%TO.P,RV1,3,3*%
%TO.N,GND*%
X139000000Y-96500000D03*
%TD*%
%TO.P,RV1,3,3*%
%TO.N,GND*%
X186000000Y-141500000D03*
%TO.P,RV1,2,2*%
%TO.N,Net-(C1-Pad1)*%
X181000000Y-141500000D03*
%TO.P,RV1,1,1*%
%TO.N,Net-(IN1-Pin_1)*%
X176000000Y-141500000D03*
%TD*%
D11*
%TO.P,C2,2*%
%TO.N,GND*%
X138997349Y-84000000D03*
D12*
%TO.P,C2,1*%
%TO.N,Net-(U1-SRV)*%
X135197349Y-84000000D03*
%TD*%
D11*
%TO.P,C3,2*%
%TO.N,Net-(U1-In)*%
X112000000Y-76880000D03*
%TO.P,C3,1*%
%TO.N,GND*%
X112000000Y-81880000D03*
%TD*%
%TO.P,R1,2*%
%TO.N,Net-(U1-In)*%
X117000000Y-76880000D03*
%TO.P,R1,1*%
%TO.N,Net-(C1-Pad2)*%
X117000000Y-84500000D03*
%TD*%
D13*
%TO.P,D1,1,K*%
%TO.N,GND*%
X149960000Y-68500000D03*
D14*
%TO.P,D1,2,A*%
%TO.N,Net-(D1-A)*%
X152500000Y-68500000D03*
%TD*%
D11*
%TO.P,C5,1*%
%TO.N,GND*%
X159000000Y-63250000D03*
%TO.P,C5,2*%
%TO.N,Net-(U1-V+)*%
X164000000Y-63250000D03*
%TD*%
D15*
%TO.P,OUT1,1,Pin_1*%
%TO.N,Net-(OUT1-Pin_1)*%
X174690000Y-62500000D03*
D16*
%TO.P,OUT1,2,Pin_2*%
%TO.N,GND*%
X169610000Y-62500000D03*
%TD*%
D11*
%TO.P,C3,1*%
%TO.N,GND*%
X159000000Y-81880000D03*
%TO.P,C3,2*%
%TO.N,Net-(U1-In)*%
X159000000Y-76880000D03*
%TD*%
D17*
%TO.P,C6,2*%
%TO.N,Net-(OUT1-Pin_1)*%
X139632323Y-65500000D03*
D18*
%TO.P,C6,1*%
%TO.N,Net-(U1-Out)*%
X134632323Y-65500000D03*
%TD*%
D15*
%TO.P,IN1,1,Pin_1*%
%TO.N,Net-(IN1-Pin_1)*%
X162920000Y-96500000D03*
D16*
%TO.P,IN1,2,Pin_2*%
%TO.N,GND*%
X168000000Y-96500000D03*
%TD*%
D11*
%TO.P,C4,2*%
%TO.N,GND*%
X106000000Y-81880000D03*
D12*
%TO.P,C4,1*%
%TO.N,Net-(U1-V+)*%
X102200000Y-81880000D03*
%TD*%
D11*
%TO.P,R1,1*%
%TO.N,Net-(C1-Pad2)*%
X164000000Y-84500000D03*
%TO.P,R1,2*%
%TO.N,Net-(U1-In)*%
X164000000Y-76880000D03*
%TD*%
%TO.P,C1,2*%
%TO.N,Net-(C1-Pad2)*%
X122000000Y-87000000D03*
%TO.P,C1,1*%
%TO.N,Net-(C1-Pad1)*%
X127000000Y-87000000D03*
%TD*%
D19*
%TO.P,U1,8,GND*%
%TO.N,GND*%
X129310000Y-72880000D03*
%TO.P,U1,7,GND*%
X129310000Y-75420000D03*
%TO.P,U1,6,GND*%
X129310000Y-77960000D03*
%TO.P,U1,5,GND*%
X129310000Y-80500000D03*
%TO.P,U1,4,In*%
%TO.N,Net-(U1-In)*%
X121690000Y-80500000D03*
%TO.P,U1,3,SRV*%
%TO.N,Net-(U1-SRV)*%
X121690000Y-77960000D03*
%TO.P,U1,2,Out*%
%TO.N,Net-(U1-Out)*%
X121690000Y-75420000D03*
D20*
%TO.P,U1,1,V+*%
%TO.N,Net-(U1-V+)*%
X121690000Y-72880000D03*
%TD*%
D14*
%TO.P,D1,2,A*%
%TO.N,Net-(D1-A)*%
X105500000Y-68500000D03*
D13*
%TO.P,D1,1,K*%
%TO.N,GND*%
X102960000Y-68500000D03*
%TD*%
D16*
%TO.P,IN1,2,Pin_2*%
%TO.N,GND*%
X121000000Y-96500000D03*
D15*
%TO.P,IN1,1,Pin_1*%
%TO.N,Net-(IN1-Pin_1)*%
X115920000Y-96500000D03*
%TD*%
D11*
%TO.P,C5,2*%
%TO.N,Net-(U1-V+)*%
X117000000Y-63250000D03*
%TO.P,C5,1*%
%TO.N,GND*%
X112000000Y-63250000D03*
%TD*%
D16*
%TO.P,OUT1,2,Pin_2*%
%TO.N,GND*%
X122610000Y-62500000D03*
D15*
%TO.P,OUT1,1,Pin_1*%
%TO.N,Net-(OUT1-Pin_1)*%
X127690000Y-62500000D03*
%TD*%
D13*
%TO.P,D1,1,K*%
%TO.N,GND*%
X102960000Y-113500000D03*
D14*
%TO.P,D1,2,A*%
%TO.N,Net-(D1-A)*%
X105500000Y-113500000D03*
%TD*%
D12*
%TO.P,C2,1*%
%TO.N,Net-(U1-SRV)*%
X135197349Y-129000000D03*
D11*
%TO.P,C2,2*%
%TO.N,GND*%
X138997349Y-129000000D03*
%TD*%
D15*
%TO.P,IN1,1,Pin_1*%
%TO.N,Net-(IN1-Pin_1)*%
X115920000Y-141500000D03*
D16*
%TO.P,IN1,2,Pin_2*%
%TO.N,GND*%
X121000000Y-141500000D03*
%TD*%
D11*
%TO.P,R1,1*%
%TO.N,Net-(C1-Pad2)*%
X117000000Y-129500000D03*
%TO.P,R1,2*%
%TO.N,Net-(U1-In)*%
X117000000Y-121880000D03*
%TD*%
%TO.P,C1,1*%
%TO.N,Net-(C1-Pad1)*%
X127000000Y-132000000D03*
%TO.P,C1,2*%
%TO.N,Net-(C1-Pad2)*%
X122000000Y-132000000D03*
%TD*%
D16*
%TO.P,OUT1,2,Pin_2*%
%TO.N,GND*%
X122610000Y-107500000D03*
D15*
%TO.P,OUT1,1,Pin_1*%
%TO.N,Net-(OUT1-Pin_1)*%
X127690000Y-107500000D03*
%TD*%
D20*
%TO.P,U1,1,V+*%
%TO.N,Net-(U1-V+)*%
X121690000Y-117880000D03*
D19*
%TO.P,U1,2,Out*%
%TO.N,Net-(U1-Out)*%
X121690000Y-120420000D03*
%TO.P,U1,3,SRV*%
%TO.N,Net-(U1-SRV)*%
X121690000Y-122960000D03*
%TO.P,U1,4,In*%
%TO.N,Net-(U1-In)*%
X121690000Y-125500000D03*
%TO.P,U1,5,GND*%
%TO.N,GND*%
X129310000Y-125500000D03*
%TO.P,U1,6,GND*%
X129310000Y-122960000D03*
%TO.P,U1,7,GND*%
X129310000Y-120420000D03*
%TO.P,U1,8,GND*%
X129310000Y-117880000D03*
%TD*%
D11*
%TO.P,R2,1*%
%TO.N,Net-(D1-A)*%
X109380000Y-113500000D03*
%TO.P,R2,2*%
%TO.N,Net-(U1-V+)*%
X117000000Y-113500000D03*
%TD*%
D15*
%TO.P,VCC1,1,Pin_1*%
%TO.N,Net-(U1-V+)*%
X102920000Y-141500000D03*
D16*
%TO.P,VCC1,2,Pin_2*%
%TO.N,GND*%
X108000000Y-141500000D03*
%TD*%
D11*
%TO.P,C5,1*%
%TO.N,GND*%
X112000000Y-108250000D03*
%TO.P,C5,2*%
%TO.N,Net-(U1-V+)*%
X117000000Y-108250000D03*
%TD*%
%TO.P,R1,2*%
%TO.N,Net-(U1-In)*%
X164000000Y-121880000D03*
%TO.P,R1,1*%
%TO.N,Net-(C1-Pad2)*%
X164000000Y-129500000D03*
%TD*%
D15*
%TO.P,OUT1,1,Pin_1*%
%TO.N,Net-(OUT1-Pin_1)*%
X174690000Y-107500000D03*
D16*
%TO.P,OUT1,2,Pin_2*%
%TO.N,GND*%
X169610000Y-107500000D03*
%TD*%
D18*
%TO.P,C6,1*%
%TO.N,Net-(U1-Out)*%
X134632323Y-110500000D03*
D17*
%TO.P,C6,2*%
%TO.N,Net-(OUT1-Pin_1)*%
X139632323Y-110500000D03*
%TD*%
D12*
%TO.P,C4,1*%
%TO.N,Net-(U1-V+)*%
X102200000Y-126880000D03*
D11*
%TO.P,C4,2*%
%TO.N,GND*%
X106000000Y-126880000D03*
%TD*%
D10*
%TO.P,RV1,3,3*%
%TO.N,GND*%
X139000000Y-141500000D03*
%TO.P,RV1,2,2*%
%TO.N,Net-(C1-Pad1)*%
X134000000Y-141500000D03*
%TO.P,RV1,1,1*%
%TO.N,Net-(IN1-Pin_1)*%
X129000000Y-141500000D03*
%TD*%
D11*
%TO.P,C3,2*%
%TO.N,Net-(U1-In)*%
X159000000Y-121880000D03*
%TO.P,C3,1*%
%TO.N,GND*%
X159000000Y-126880000D03*
%TD*%
D16*
%TO.P,IN1,2,Pin_2*%
%TO.N,GND*%
X168000000Y-141500000D03*
D15*
%TO.P,IN1,1,Pin_1*%
%TO.N,Net-(IN1-Pin_1)*%
X162920000Y-141500000D03*
%TD*%
D14*
%TO.P,D1,2,A*%
%TO.N,Net-(D1-A)*%
X152500000Y-113500000D03*
D13*
%TO.P,D1,1,K*%
%TO.N,GND*%
X149960000Y-113500000D03*
%TD*%
D12*
%TO.P,C2,1*%
%TO.N,Net-(U1-SRV)*%
X182197349Y-84000000D03*
D11*
%TO.P,C2,2*%
%TO.N,GND*%
X185997349Y-84000000D03*
%TD*%
%TO.P,R2,1*%
%TO.N,Net-(D1-A)*%
X156380000Y-68500000D03*
%TO.P,R2,2*%
%TO.N,Net-(U1-V+)*%
X164000000Y-68500000D03*
%TD*%
D18*
%TO.P,C6,1*%
%TO.N,Net-(U1-Out)*%
X181632323Y-65500000D03*
D17*
%TO.P,C6,2*%
%TO.N,Net-(OUT1-Pin_1)*%
X186632323Y-65500000D03*
%TD*%
D12*
%TO.P,C4,1*%
%TO.N,Net-(U1-V+)*%
X149200000Y-81880000D03*
D11*
%TO.P,C4,2*%
%TO.N,GND*%
X153000000Y-81880000D03*
%TD*%
%TO.P,C3,1*%
%TO.N,GND*%
X112000000Y-126880000D03*
%TO.P,C3,2*%
%TO.N,Net-(U1-In)*%
X112000000Y-121880000D03*
%TD*%
D20*
%TO.P,U1,1,V+*%
%TO.N,Net-(U1-V+)*%
X168690000Y-72880000D03*
D19*
%TO.P,U1,2,Out*%
%TO.N,Net-(U1-Out)*%
X168690000Y-75420000D03*
%TO.P,U1,3,SRV*%
%TO.N,Net-(U1-SRV)*%
X168690000Y-77960000D03*
%TO.P,U1,4,In*%
%TO.N,Net-(U1-In)*%
X168690000Y-80500000D03*
%TO.P,U1,5,GND*%
%TO.N,GND*%
X176310000Y-80500000D03*
%TO.P,U1,6,GND*%
X176310000Y-77960000D03*
%TO.P,U1,7,GND*%
X176310000Y-75420000D03*
%TO.P,U1,8,GND*%
X176310000Y-72880000D03*
%TD*%
D11*
%TO.P,C1,1*%
%TO.N,Net-(C1-Pad1)*%
X174000000Y-87000000D03*
%TO.P,C1,2*%
%TO.N,Net-(C1-Pad2)*%
X169000000Y-87000000D03*
%TD*%
D15*
%TO.P,VCC1,1,Pin_1*%
%TO.N,Net-(U1-V+)*%
X149920000Y-96500000D03*
D16*
%TO.P,VCC1,2,Pin_2*%
%TO.N,GND*%
X155000000Y-96500000D03*
%TD*%
%TO.P,VCC1,2,Pin_2*%
%TO.N,GND*%
X155000000Y-141500000D03*
D15*
%TO.P,VCC1,1,Pin_1*%
%TO.N,Net-(U1-V+)*%
X149920000Y-141500000D03*
%TD*%
D19*
%TO.P,U1,8,GND*%
%TO.N,GND*%
X176310000Y-117880000D03*
%TO.P,U1,7,GND*%
X176310000Y-120420000D03*
%TO.P,U1,6,GND*%
X176310000Y-122960000D03*
%TO.P,U1,5,GND*%
X176310000Y-125500000D03*
%TO.P,U1,4,In*%
%TO.N,Net-(U1-In)*%
X168690000Y-125500000D03*
%TO.P,U1,3,SRV*%
%TO.N,Net-(U1-SRV)*%
X168690000Y-122960000D03*
%TO.P,U1,2,Out*%
%TO.N,Net-(U1-Out)*%
X168690000Y-120420000D03*
D20*
%TO.P,U1,1,V+*%
%TO.N,Net-(U1-V+)*%
X168690000Y-117880000D03*
%TD*%
D11*
%TO.P,C1,2*%
%TO.N,Net-(C1-Pad2)*%
X169000000Y-132000000D03*
%TO.P,C1,1*%
%TO.N,Net-(C1-Pad1)*%
X174000000Y-132000000D03*
%TD*%
%TO.P,C2,2*%
%TO.N,GND*%
X185997349Y-129000000D03*
D12*
%TO.P,C2,1*%
%TO.N,Net-(U1-SRV)*%
X182197349Y-129000000D03*
%TD*%
D11*
%TO.P,C5,2*%
%TO.N,Net-(U1-V+)*%
X164000000Y-108250000D03*
%TO.P,C5,1*%
%TO.N,GND*%
X159000000Y-108250000D03*
%TD*%
%TO.P,R2,2*%
%TO.N,Net-(U1-V+)*%
X164000000Y-113500000D03*
%TO.P,R2,1*%
%TO.N,Net-(D1-A)*%
X156380000Y-113500000D03*
%TD*%
D17*
%TO.P,C6,2*%
%TO.N,Net-(OUT1-Pin_1)*%
X186632323Y-110500000D03*
D18*
%TO.P,C6,1*%
%TO.N,Net-(U1-Out)*%
X181632323Y-110500000D03*
%TD*%
D11*
%TO.P,C4,2*%
%TO.N,GND*%
X153000000Y-126880000D03*
D12*
%TO.P,C4,1*%
%TO.N,Net-(U1-V+)*%
X149200000Y-126880000D03*
%TD*%
D11*
%TO.P,R2,2*%
%TO.N,Net-(U1-V+)*%
X117000000Y-68500000D03*
%TO.P,R2,1*%
%TO.N,Net-(D1-A)*%
X109380000Y-68500000D03*
%TD*%
D16*
%TO.P,VCC1,2,Pin_2*%
%TO.N,GND*%
X108000000Y-96500000D03*
D15*
%TO.P,VCC1,1,Pin_1*%
%TO.N,Net-(U1-V+)*%
X102920000Y-96500000D03*
%TD*%
D21*
%TO.N,Net-(U1-SRV)*%
X172750000Y-79500000D02*
X171210000Y-77960000D01*
%TO.N,Net-(C1-Pad2)*%
X122000000Y-87000000D02*
X119500000Y-87000000D01*
%TO.N,Net-(C1-Pad1)*%
X134000000Y-96500000D02*
X134000000Y-94000000D01*
%TO.N,Net-(U1-SRV)*%
X125750000Y-81500000D02*
X125750000Y-79500000D01*
X124210000Y-77960000D02*
X121690000Y-77960000D01*
%TO.N,Net-(C1-Pad1)*%
X134000000Y-94000000D02*
X127000000Y-87000000D01*
%TO.N,Net-(U1-SRV)*%
X135197349Y-84000000D02*
X132500000Y-84000000D01*
X172750000Y-126500000D02*
X172750000Y-124500000D01*
%TO.N,Net-(C1-Pad2)*%
X119500000Y-87000000D02*
X117000000Y-84500000D01*
%TO.N,Net-(U1-V+)*%
X102200000Y-126880000D02*
X102200000Y-124050000D01*
%TO.N,Net-(C1-Pad1)*%
X181000000Y-141500000D02*
X181000000Y-139000000D01*
%TO.N,Net-(D1-A)*%
X109380000Y-113500000D02*
X105500000Y-113500000D01*
%TO.N,Net-(IN1-Pin_1)*%
X119000000Y-137500000D02*
X115920000Y-140580000D01*
X127500000Y-137500000D02*
X119000000Y-137500000D01*
%TO.N,Net-(C1-Pad2)*%
X169000000Y-132000000D02*
X166500000Y-132000000D01*
%TO.N,Net-(IN1-Pin_1)*%
X129000000Y-139000000D02*
X127500000Y-137500000D01*
X129000000Y-141500000D02*
X129000000Y-139000000D01*
%TO.N,Net-(C1-Pad2)*%
X166500000Y-132000000D02*
X164000000Y-129500000D01*
%TO.N,Net-(IN1-Pin_1)*%
X115920000Y-140580000D02*
X115920000Y-141500000D01*
%TO.N,Net-(C1-Pad1)*%
X181000000Y-139000000D02*
X174000000Y-132000000D01*
%TO.N,Net-(OUT1-Pin_1)*%
X131000000Y-105750000D02*
X130250000Y-106500000D01*
%TO.N,Net-(U1-V+)*%
X149200000Y-81880000D02*
X149200000Y-79050000D01*
X149920000Y-96500000D02*
X149920000Y-90420000D01*
X161750000Y-72250000D02*
X164000000Y-70000000D01*
X156000000Y-72250000D02*
X161750000Y-72250000D01*
%TO.N,Net-(U1-In)*%
X164000000Y-76880000D02*
X159000000Y-76880000D01*
%TO.N,Net-(U1-V+)*%
X164000000Y-70000000D02*
X164000000Y-68500000D01*
X149200000Y-89700000D02*
X149200000Y-81880000D01*
%TO.N,Net-(U1-In)*%
X164000000Y-78250000D02*
X164000000Y-76880000D01*
%TO.N,Net-(U1-V+)*%
X149920000Y-90420000D02*
X149200000Y-89700000D01*
%TO.N,Net-(U1-In)*%
X166250000Y-80500000D02*
X164000000Y-78250000D01*
%TO.N,Net-(U1-SRV)*%
X179500000Y-84000000D02*
X179000000Y-83500000D01*
%TO.N,Net-(U1-V+)*%
X164000000Y-68500000D02*
X164000000Y-63250000D01*
X162380000Y-72880000D02*
X161750000Y-72250000D01*
X168690000Y-72880000D02*
X162380000Y-72880000D01*
X149200000Y-79050000D02*
X156000000Y-72250000D01*
%TO.N,Net-(U1-Out)*%
X172500000Y-74250000D02*
X172500000Y-71000000D01*
X168690000Y-75420000D02*
X171330000Y-75420000D01*
X175000000Y-68500000D02*
X178632323Y-68500000D01*
%TO.N,Net-(U1-In)*%
X168690000Y-80500000D02*
X166250000Y-80500000D01*
%TO.N,Net-(U1-SRV)*%
X179000000Y-83500000D02*
X174750000Y-83500000D01*
X172750000Y-81500000D02*
X172750000Y-79500000D01*
X171210000Y-77960000D02*
X168690000Y-77960000D01*
X182197349Y-84000000D02*
X179500000Y-84000000D01*
X174750000Y-83500000D02*
X172750000Y-81500000D01*
%TO.N,Net-(C1-Pad2)*%
X169000000Y-87000000D02*
X166500000Y-87000000D01*
%TO.N,Net-(C1-Pad1)*%
X181000000Y-94000000D02*
X174000000Y-87000000D01*
%TO.N,Net-(C1-Pad2)*%
X166500000Y-87000000D02*
X164000000Y-84500000D01*
%TO.N,Net-(C1-Pad1)*%
X181000000Y-96500000D02*
X181000000Y-94000000D01*
%TO.N,Net-(U1-V+)*%
X102200000Y-124050000D02*
X109000000Y-117250000D01*
X117000000Y-113500000D02*
X117000000Y-108250000D01*
X109000000Y-117250000D02*
X114750000Y-117250000D01*
X102200000Y-134700000D02*
X102200000Y-126880000D01*
X114750000Y-117250000D02*
X117000000Y-115000000D01*
%TO.N,Net-(U1-Out)*%
X121690000Y-120420000D02*
X124330000Y-120420000D01*
X128000000Y-113500000D02*
X131632323Y-113500000D01*
X124330000Y-120420000D02*
X125500000Y-119250000D01*
X131632323Y-113500000D02*
X134632323Y-110500000D01*
X125500000Y-116000000D02*
X128000000Y-113500000D01*
%TO.N,Net-(OUT1-Pin_1)*%
X139632323Y-107132323D02*
X138250000Y-105750000D01*
X138250000Y-105750000D02*
X131000000Y-105750000D01*
X130250000Y-106500000D02*
X128690000Y-106500000D01*
X128690000Y-106500000D02*
X127690000Y-107500000D01*
%TO.N,Net-(U1-V+)*%
X102920000Y-135420000D02*
X102200000Y-134700000D01*
%TO.N,Net-(OUT1-Pin_1)*%
X139632323Y-110500000D02*
X139632323Y-107132323D01*
%TO.N,Net-(U1-Out)*%
X125500000Y-119250000D02*
X125500000Y-116000000D01*
%TO.N,Net-(U1-V+)*%
X102920000Y-141500000D02*
X102920000Y-135420000D01*
X115380000Y-117880000D02*
X114750000Y-117250000D01*
X121690000Y-117880000D02*
X115380000Y-117880000D01*
%TO.N,Net-(C1-Pad1)*%
X134000000Y-139000000D02*
X127000000Y-132000000D01*
%TO.N,Net-(U1-SRV)*%
X127750000Y-128500000D02*
X125750000Y-126500000D01*
%TO.N,Net-(U1-In)*%
X117000000Y-121880000D02*
X112000000Y-121880000D01*
%TO.N,Net-(U1-SRV)*%
X132500000Y-129000000D02*
X132000000Y-128500000D01*
%TO.N,Net-(U1-In)*%
X119250000Y-125500000D02*
X117000000Y-123250000D01*
%TO.N,Net-(U1-SRV)*%
X124210000Y-122960000D02*
X121690000Y-122960000D01*
%TO.N,Net-(C1-Pad2)*%
X119500000Y-132000000D02*
X117000000Y-129500000D01*
X122000000Y-132000000D02*
X119500000Y-132000000D01*
%TO.N,Net-(U1-In)*%
X121690000Y-125500000D02*
X119250000Y-125500000D01*
%TO.N,Net-(U1-V+)*%
X117000000Y-115000000D02*
X117000000Y-113500000D01*
%TO.N,Net-(C1-Pad1)*%
X134000000Y-141500000D02*
X134000000Y-139000000D01*
%TO.N,Net-(U1-SRV)*%
X135197349Y-129000000D02*
X132500000Y-129000000D01*
X125750000Y-124500000D02*
X124210000Y-122960000D01*
X132000000Y-128500000D02*
X127750000Y-128500000D01*
%TO.N,Net-(U1-In)*%
X117000000Y-123250000D02*
X117000000Y-121880000D01*
%TO.N,Net-(U1-SRV)*%
X125750000Y-126500000D02*
X125750000Y-124500000D01*
%TO.N,Net-(OUT1-Pin_1)*%
X178000000Y-105750000D02*
X177250000Y-106500000D01*
X186632323Y-110500000D02*
X186632323Y-107132323D01*
%TO.N,Net-(U1-Out)*%
X175000000Y-113500000D02*
X178632323Y-113500000D01*
X172500000Y-116000000D02*
X175000000Y-113500000D01*
%TO.N,Net-(OUT1-Pin_1)*%
X177250000Y-106500000D02*
X175690000Y-106500000D01*
%TO.N,Net-(IN1-Pin_1)*%
X166000000Y-137500000D02*
X162920000Y-140580000D01*
%TO.N,Net-(U1-Out)*%
X178632323Y-113500000D02*
X181632323Y-110500000D01*
%TO.N,Net-(IN1-Pin_1)*%
X176000000Y-141500000D02*
X176000000Y-139000000D01*
X174500000Y-137500000D02*
X166000000Y-137500000D01*
%TO.N,Net-(OUT1-Pin_1)*%
X185250000Y-105750000D02*
X178000000Y-105750000D01*
%TO.N,Net-(U1-Out)*%
X168690000Y-120420000D02*
X171330000Y-120420000D01*
%TO.N,Net-(IN1-Pin_1)*%
X176000000Y-139000000D02*
X174500000Y-137500000D01*
X162920000Y-140580000D02*
X162920000Y-141500000D01*
%TO.N,Net-(OUT1-Pin_1)*%
X175690000Y-106500000D02*
X174690000Y-107500000D01*
%TO.N,Net-(U1-Out)*%
X171330000Y-120420000D02*
X172500000Y-119250000D01*
%TO.N,Net-(OUT1-Pin_1)*%
X186632323Y-107132323D02*
X185250000Y-105750000D01*
%TO.N,Net-(D1-A)*%
X156380000Y-113500000D02*
X152500000Y-113500000D01*
%TO.N,Net-(U1-Out)*%
X172500000Y-119250000D02*
X172500000Y-116000000D01*
%TO.N,Net-(U1-In)*%
X168690000Y-125500000D02*
X166250000Y-125500000D01*
%TO.N,Net-(U1-V+)*%
X149200000Y-124050000D02*
X156000000Y-117250000D01*
X168690000Y-117880000D02*
X162380000Y-117880000D01*
X164000000Y-115000000D02*
X164000000Y-113500000D01*
X149200000Y-134700000D02*
X149200000Y-126880000D01*
X149200000Y-126880000D02*
X149200000Y-124050000D01*
X149920000Y-141500000D02*
X149920000Y-135420000D01*
%TO.N,Net-(U1-SRV)*%
X182197349Y-129000000D02*
X179500000Y-129000000D01*
X179500000Y-129000000D02*
X179000000Y-128500000D01*
%TO.N,Net-(U1-V+)*%
X161750000Y-117250000D02*
X164000000Y-115000000D01*
X156000000Y-117250000D02*
X161750000Y-117250000D01*
X164000000Y-113500000D02*
X164000000Y-108250000D01*
%TO.N,Net-(U1-In)*%
X164000000Y-123250000D02*
X164000000Y-121880000D01*
%TO.N,Net-(U1-SRV)*%
X172750000Y-124500000D02*
X171210000Y-122960000D01*
%TO.N,Net-(U1-V+)*%
X162380000Y-117880000D02*
X161750000Y-117250000D01*
%TO.N,Net-(U1-In)*%
X166250000Y-125500000D02*
X164000000Y-123250000D01*
%TO.N,Net-(U1-V+)*%
X149920000Y-135420000D02*
X149200000Y-134700000D01*
%TO.N,Net-(U1-In)*%
X164000000Y-121880000D02*
X159000000Y-121880000D01*
%TO.N,Net-(U1-SRV)*%
X174750000Y-128500000D02*
X172750000Y-126500000D01*
X179000000Y-128500000D02*
X174750000Y-128500000D01*
X132500000Y-84000000D02*
X132000000Y-83500000D01*
%TO.N,Net-(U1-In)*%
X117000000Y-76880000D02*
X112000000Y-76880000D01*
X119250000Y-80500000D02*
X117000000Y-78250000D01*
X121690000Y-80500000D02*
X119250000Y-80500000D01*
%TO.N,Net-(U1-V+)*%
X117000000Y-70000000D02*
X117000000Y-68500000D01*
X102920000Y-96500000D02*
X102920000Y-90420000D01*
%TO.N,Net-(U1-SRV)*%
X127750000Y-83500000D02*
X125750000Y-81500000D01*
%TO.N,Net-(U1-In)*%
X117000000Y-78250000D02*
X117000000Y-76880000D01*
%TO.N,Net-(U1-V+)*%
X102200000Y-81880000D02*
X102200000Y-79050000D01*
X109000000Y-72250000D02*
X114750000Y-72250000D01*
X117000000Y-68500000D02*
X117000000Y-63250000D01*
X121690000Y-72880000D02*
X115380000Y-72880000D01*
%TO.N,Net-(U1-SRV)*%
X125750000Y-79500000D02*
X124210000Y-77960000D01*
%TO.N,Net-(U1-V+)*%
X102200000Y-89700000D02*
X102200000Y-81880000D01*
X102200000Y-79050000D02*
X109000000Y-72250000D01*
X114750000Y-72250000D02*
X117000000Y-70000000D01*
%TO.N,Net-(U1-SRV)*%
X132000000Y-83500000D02*
X127750000Y-83500000D01*
%TO.N,Net-(U1-V+)*%
X115380000Y-72880000D02*
X114750000Y-72250000D01*
X102920000Y-90420000D02*
X102200000Y-89700000D01*
%TO.N,Net-(U1-Out)*%
X125500000Y-74250000D02*
X125500000Y-71000000D01*
X172500000Y-71000000D02*
X175000000Y-68500000D01*
%TO.N,Net-(OUT1-Pin_1)*%
X175690000Y-61500000D02*
X174690000Y-62500000D01*
X186632323Y-62132323D02*
X185250000Y-60750000D01*
%TO.N,Net-(IN1-Pin_1)*%
X174500000Y-92500000D02*
X166000000Y-92500000D01*
%TO.N,Net-(U1-Out)*%
X178632323Y-68500000D02*
X181632323Y-65500000D01*
%TO.N,Net-(OUT1-Pin_1)*%
X185250000Y-60750000D02*
X178000000Y-60750000D01*
X186632323Y-65500000D02*
X186632323Y-62132323D01*
X177250000Y-61500000D02*
X175690000Y-61500000D01*
%TO.N,Net-(IN1-Pin_1)*%
X176000000Y-94000000D02*
X174500000Y-92500000D01*
X162920000Y-95580000D02*
X162920000Y-96500000D01*
%TO.N,Net-(D1-A)*%
X156380000Y-68500000D02*
X152500000Y-68500000D01*
%TO.N,Net-(U1-Out)*%
X171330000Y-75420000D02*
X172500000Y-74250000D01*
%TO.N,Net-(IN1-Pin_1)*%
X166000000Y-92500000D02*
X162920000Y-95580000D01*
X176000000Y-96500000D02*
X176000000Y-94000000D01*
%TO.N,Net-(OUT1-Pin_1)*%
X178000000Y-60750000D02*
X177250000Y-61500000D01*
%TO.N,Net-(U1-SRV)*%
X171210000Y-122960000D02*
X168690000Y-122960000D01*
%TO.N,Net-(IN1-Pin_1)*%
X115920000Y-95580000D02*
X115920000Y-96500000D01*
%TO.N,Net-(OUT1-Pin_1)*%
X128690000Y-61500000D02*
X127690000Y-62500000D01*
%TO.N,Net-(U1-Out)*%
X121690000Y-75420000D02*
X124330000Y-75420000D01*
%TO.N,Net-(OUT1-Pin_1)*%
X130250000Y-61500000D02*
X128690000Y-61500000D01*
%TO.N,Net-(U1-Out)*%
X131632323Y-68500000D02*
X134632323Y-65500000D01*
X128000000Y-68500000D02*
X131632323Y-68500000D01*
%TO.N,Net-(OUT1-Pin_1)*%
X139632323Y-65500000D02*
X139632323Y-62132323D01*
%TO.N,Net-(IN1-Pin_1)*%
X129000000Y-94000000D02*
X127500000Y-92500000D01*
%TO.N,Net-(U1-Out)*%
X124330000Y-75420000D02*
X125500000Y-74250000D01*
%TO.N,Net-(IN1-Pin_1)*%
X129000000Y-96500000D02*
X129000000Y-94000000D01*
%TO.N,Net-(U1-Out)*%
X125500000Y-71000000D02*
X128000000Y-68500000D01*
%TO.N,Net-(IN1-Pin_1)*%
X127500000Y-92500000D02*
X119000000Y-92500000D01*
%TO.N,Net-(OUT1-Pin_1)*%
X138250000Y-60750000D02*
X131000000Y-60750000D01*
X139632323Y-62132323D02*
X138250000Y-60750000D01*
X131000000Y-60750000D02*
X130250000Y-61500000D01*
%TO.N,Net-(D1-A)*%
X109380000Y-68500000D02*
X105500000Y-68500000D01*
%TO.N,Net-(IN1-Pin_1)*%
X119000000Y-92500000D02*
X115920000Y-95580000D01*
%TD*%
%TA.AperFunction,Conductor*%
%TO.N,GND*%
G36*
X142443039Y-104019685D02*
G01*
X142488794Y-104072489D01*
X142500000Y-104124000D01*
X142500000Y-143375500D01*
X142480315Y-143442539D01*
X142427511Y-143488294D01*
X142376000Y-143499500D01*
X117919001Y-143499500D01*
X117851962Y-143479815D01*
X117806207Y-143427011D01*
X117796263Y-143357853D01*
X117819734Y-143301189D01*
X117863796Y-143242331D01*
X117914091Y-143107483D01*
X117920500Y-143047873D01*
X117920499Y-139952128D01*
X117914091Y-139892517D01*
X117875318Y-139788561D01*
X117870334Y-139718870D01*
X117903817Y-139657549D01*
X119274549Y-138286819D01*
X119335872Y-138253334D01*
X119362230Y-138250500D01*
X127137770Y-138250500D01*
X127204809Y-138270185D01*
X127225451Y-138286819D01*
X128213181Y-139274548D01*
X128246666Y-139335871D01*
X128249500Y-139362229D01*
X128249500Y-139932783D01*
X128229815Y-139999822D01*
X128187500Y-140040170D01*
X128069929Y-140108049D01*
X127896201Y-140241355D01*
X127896194Y-140241361D01*
X127741361Y-140396194D01*
X127741355Y-140396201D01*
X127608049Y-140569929D01*
X127498565Y-140759561D01*
X127498560Y-140759573D01*
X127414758Y-140961884D01*
X127358084Y-141173399D01*
X127358082Y-141173410D01*
X127329500Y-141390502D01*
X127329500Y-141609497D01*
X127353306Y-141790314D01*
X127358083Y-141826598D01*
X127414759Y-142038117D01*
X127498560Y-142240428D01*
X127498562Y-142240433D01*
X127498565Y-142240438D01*
X127608049Y-142430070D01*
X127741355Y-142603798D01*
X127741361Y-142603805D01*
X127896194Y-142758638D01*
X127896201Y-142758644D01*
X128069929Y-142891950D01*
X128259561Y-143001434D01*
X128259563Y-143001434D01*
X128259572Y-143001440D01*
X128461883Y-143085241D01*
X128673402Y-143141917D01*
X128890510Y-143170500D01*
X128890517Y-143170500D01*
X129109483Y-143170500D01*
X129109490Y-143170500D01*
X129326598Y-143141917D01*
X129538117Y-143085241D01*
X129740428Y-143001440D01*
X129930071Y-142891950D01*
X130103800Y-142758643D01*
X130258643Y-142603800D01*
X130391950Y-142430071D01*
X130501440Y-142240428D01*
X130585241Y-142038117D01*
X130641917Y-141826598D01*
X130670500Y-141609490D01*
X130670500Y-141390510D01*
X130641917Y-141173402D01*
X130585241Y-140961883D01*
X130501440Y-140759572D01*
X130391950Y-140569929D01*
X130258643Y-140396200D01*
X130258638Y-140396194D01*
X130103805Y-140241361D01*
X130103798Y-140241355D01*
X129930070Y-140108049D01*
X129812500Y-140040170D01*
X129764284Y-139989603D01*
X129750500Y-139932783D01*
X129750500Y-138926079D01*
X129721659Y-138781092D01*
X129721658Y-138781091D01*
X129721658Y-138781087D01*
X129721656Y-138781082D01*
X129665087Y-138644511D01*
X129665080Y-138644498D01*
X129582952Y-138521585D01*
X129582951Y-138521584D01*
X129478416Y-138417049D01*
X129311867Y-138250500D01*
X127978421Y-136917052D01*
X127978414Y-136917046D01*
X127904729Y-136867812D01*
X127904729Y-136867813D01*
X127855491Y-136834913D01*
X127718917Y-136778343D01*
X127718907Y-136778340D01*
X127573920Y-136749500D01*
X127573918Y-136749500D01*
X118926082Y-136749500D01*
X118926080Y-136749500D01*
X118781092Y-136778340D01*
X118781086Y-136778342D01*
X118644508Y-136834914D01*
X118644496Y-136834921D01*
X118595269Y-136867813D01*
X118521588Y-136917044D01*
X118521580Y-136917050D01*
X115975449Y-139463181D01*
X115914126Y-139496666D01*
X115887768Y-139499500D01*
X114372129Y-139499500D01*
X114372123Y-139499501D01*
X114312516Y-139505908D01*
X114177671Y-139556202D01*
X114177664Y-139556206D01*
X114062455Y-139642452D01*
X114062452Y-139642455D01*
X113976206Y-139757664D01*
X113976202Y-139757671D01*
X113925908Y-139892517D01*
X113919501Y-139952116D01*
X113919501Y-139952123D01*
X113919500Y-139952135D01*
X113919500Y-143047870D01*
X113919501Y-143047876D01*
X113925908Y-143107483D01*
X113976202Y-143242328D01*
X113976204Y-143242331D01*
X114020265Y-143301189D01*
X114044683Y-143366652D01*
X114029832Y-143434925D01*
X113980427Y-143484331D01*
X113920999Y-143499500D01*
X104919001Y-143499500D01*
X104851962Y-143479815D01*
X104806207Y-143427011D01*
X104796263Y-143357853D01*
X104819734Y-143301189D01*
X104863796Y-143242331D01*
X104914091Y-143107483D01*
X104920500Y-143047873D01*
X104920499Y-139952128D01*
X104914091Y-139892517D01*
X104863796Y-139757669D01*
X104863795Y-139757668D01*
X104863793Y-139757664D01*
X104777547Y-139642455D01*
X104777544Y-139642452D01*
X104662335Y-139556206D01*
X104662328Y-139556202D01*
X104527482Y-139505908D01*
X104527483Y-139505908D01*
X104467883Y-139499501D01*
X104467881Y-139499500D01*
X104467873Y-139499500D01*
X104467865Y-139499500D01*
X103794500Y-139499500D01*
X103727461Y-139479815D01*
X103681706Y-139427011D01*
X103670500Y-139375500D01*
X103670500Y-135346079D01*
X103641659Y-135201092D01*
X103641658Y-135201091D01*
X103641658Y-135201087D01*
X103641656Y-135201082D01*
X103585086Y-135064508D01*
X103552186Y-135015270D01*
X103552185Y-135015268D01*
X103502956Y-134941589D01*
X103502952Y-134941584D01*
X102986819Y-134425451D01*
X102953334Y-134364128D01*
X102950500Y-134337770D01*
X102950500Y-129397648D01*
X115699500Y-129397648D01*
X115699500Y-129602351D01*
X115731522Y-129804534D01*
X115794781Y-129999223D01*
X115858691Y-130124653D01*
X115867893Y-130142712D01*
X115887715Y-130181613D01*
X116008028Y-130347213D01*
X116152786Y-130491971D01*
X116307749Y-130604556D01*
X116318390Y-130612287D01*
X116434607Y-130671503D01*
X116500776Y-130705218D01*
X116500778Y-130705218D01*
X116500781Y-130705220D01*
X116605137Y-130739127D01*
X116695465Y-130768477D01*
X116779564Y-130781797D01*
X116897648Y-130800500D01*
X116897649Y-130800500D01*
X117102350Y-130800500D01*
X117102352Y-130800500D01*
X117158026Y-130791681D01*
X117227318Y-130800635D01*
X117265105Y-130826473D01*
X119021586Y-132582954D01*
X119051058Y-132602645D01*
X119095270Y-132632186D01*
X119144505Y-132665084D01*
X119144506Y-132665084D01*
X119144507Y-132665085D01*
X119144509Y-132665086D01*
X119281082Y-132721656D01*
X119281087Y-132721658D01*
X119281091Y-132721658D01*
X119281092Y-132721659D01*
X119426079Y-132750500D01*
X119426082Y-132750500D01*
X119426083Y-132750500D01*
X119573917Y-132750500D01*
X120874582Y-132750500D01*
X120941621Y-132770185D01*
X120974900Y-132801615D01*
X121008028Y-132847212D01*
X121008032Y-132847217D01*
X121152786Y-132991971D01*
X121307749Y-133104556D01*
X121318390Y-133112287D01*
X121434607Y-133171503D01*
X121500776Y-133205218D01*
X121500778Y-133205218D01*
X121500781Y-133205220D01*
X121605137Y-133239127D01*
X121695465Y-133268477D01*
X121779564Y-133281797D01*
X121897648Y-133300500D01*
X121897649Y-133300500D01*
X122102351Y-133300500D01*
X122102352Y-133300500D01*
X122304534Y-133268477D01*
X122499219Y-133205220D01*
X122681610Y-133112287D01*
X122774590Y-133044732D01*
X122847213Y-132991971D01*
X122847215Y-132991968D01*
X122847219Y-132991966D01*
X122991966Y-132847219D01*
X122991968Y-132847215D01*
X122991971Y-132847213D01*
X123062236Y-132750500D01*
X123112287Y-132681610D01*
X123205220Y-132499219D01*
X123268477Y-132304534D01*
X123300500Y-132102352D01*
X123300500Y-131897648D01*
X125699500Y-131897648D01*
X125699500Y-132102351D01*
X125731522Y-132304534D01*
X125794781Y-132499223D01*
X125887715Y-132681613D01*
X126008028Y-132847213D01*
X126152786Y-132991971D01*
X126307749Y-133104556D01*
X126318390Y-133112287D01*
X126434607Y-133171503D01*
X126500776Y-133205218D01*
X126500778Y-133205218D01*
X126500781Y-133205220D01*
X126605137Y-133239127D01*
X126695465Y-133268477D01*
X126779564Y-133281797D01*
X126897648Y-133300500D01*
X126897649Y-133300500D01*
X127102350Y-133300500D01*
X127102352Y-133300500D01*
X127158026Y-133291681D01*
X127227318Y-133300635D01*
X127265105Y-133326473D01*
X133213181Y-139274549D01*
X133246666Y-139335872D01*
X133249500Y-139362230D01*
X133249500Y-139932783D01*
X133229815Y-139999822D01*
X133187500Y-140040170D01*
X133069929Y-140108049D01*
X132896201Y-140241355D01*
X132896194Y-140241361D01*
X132741361Y-140396194D01*
X132741355Y-140396201D01*
X132608049Y-140569929D01*
X132498565Y-140759561D01*
X132498560Y-140759573D01*
X132414758Y-140961884D01*
X132358084Y-141173399D01*
X132358082Y-141173410D01*
X132329500Y-141390502D01*
X132329500Y-141609497D01*
X132353306Y-141790314D01*
X132358083Y-141826598D01*
X132414759Y-142038117D01*
X132498560Y-142240428D01*
X132498562Y-142240433D01*
X132498565Y-142240438D01*
X132608049Y-142430070D01*
X132741355Y-142603798D01*
X132741361Y-142603805D01*
X132896194Y-142758638D01*
X132896201Y-142758644D01*
X133069929Y-142891950D01*
X133259561Y-143001434D01*
X133259563Y-143001434D01*
X133259572Y-143001440D01*
X133461883Y-143085241D01*
X133673402Y-143141917D01*
X133890510Y-143170500D01*
X133890517Y-143170500D01*
X134109483Y-143170500D01*
X134109490Y-143170500D01*
X134326598Y-143141917D01*
X134538117Y-143085241D01*
X134740428Y-143001440D01*
X134930071Y-142891950D01*
X135103800Y-142758643D01*
X135258643Y-142603800D01*
X135391950Y-142430071D01*
X135501440Y-142240428D01*
X135585241Y-142038117D01*
X135641917Y-141826598D01*
X135670500Y-141609490D01*
X135670500Y-141390510D01*
X135641917Y-141173402D01*
X135585241Y-140961883D01*
X135501440Y-140759572D01*
X135391950Y-140569929D01*
X135258643Y-140396200D01*
X135258638Y-140396194D01*
X135103805Y-140241361D01*
X135103798Y-140241355D01*
X134930070Y-140108049D01*
X134812500Y-140040170D01*
X134764284Y-139989603D01*
X134750500Y-139932783D01*
X134750500Y-138926079D01*
X134721659Y-138781092D01*
X134721658Y-138781091D01*
X134721658Y-138781087D01*
X134721656Y-138781082D01*
X134665086Y-138644509D01*
X134665085Y-138644507D01*
X134632186Y-138595270D01*
X134632185Y-138595268D01*
X134582956Y-138521589D01*
X134582952Y-138521584D01*
X128326473Y-132265105D01*
X128292988Y-132203782D01*
X128291681Y-132158027D01*
X128300500Y-132102352D01*
X128300500Y-131897648D01*
X128268477Y-131695466D01*
X128205220Y-131500781D01*
X128205218Y-131500778D01*
X128205218Y-131500776D01*
X128171503Y-131434607D01*
X128112287Y-131318390D01*
X128062236Y-131249500D01*
X127991971Y-131152786D01*
X127847213Y-131008028D01*
X127681613Y-130887715D01*
X127681612Y-130887714D01*
X127681610Y-130887713D01*
X127624653Y-130858691D01*
X127499223Y-130794781D01*
X127304534Y-130731522D01*
X127129995Y-130703878D01*
X127102352Y-130699500D01*
X126897648Y-130699500D01*
X126873329Y-130703351D01*
X126695465Y-130731522D01*
X126500776Y-130794781D01*
X126318386Y-130887715D01*
X126152786Y-131008028D01*
X126008028Y-131152786D01*
X125887715Y-131318386D01*
X125794781Y-131500776D01*
X125731522Y-131695465D01*
X125699500Y-131897648D01*
X123300500Y-131897648D01*
X123268477Y-131695466D01*
X123205220Y-131500781D01*
X123205218Y-131500778D01*
X123205218Y-131500776D01*
X123171503Y-131434607D01*
X123112287Y-131318390D01*
X123062236Y-131249500D01*
X122991971Y-131152786D01*
X122847213Y-131008028D01*
X122681613Y-130887715D01*
X122681612Y-130887714D01*
X122681610Y-130887713D01*
X122624653Y-130858691D01*
X122499223Y-130794781D01*
X122304534Y-130731522D01*
X122129995Y-130703878D01*
X122102352Y-130699500D01*
X121897648Y-130699500D01*
X121873329Y-130703351D01*
X121695465Y-130731522D01*
X121500776Y-130794781D01*
X121318386Y-130887715D01*
X121152786Y-131008028D01*
X121008032Y-131152782D01*
X121008028Y-131152787D01*
X120974900Y-131198385D01*
X120919571Y-131241051D01*
X120874582Y-131249500D01*
X119862230Y-131249500D01*
X119795191Y-131229815D01*
X119774549Y-131213181D01*
X118326473Y-129765105D01*
X118292988Y-129703782D01*
X118291681Y-129658027D01*
X118300500Y-129602352D01*
X118300500Y-129397648D01*
X118272626Y-129221659D01*
X118268477Y-129195465D01*
X118205218Y-129000776D01*
X118171503Y-128934607D01*
X118112287Y-128818390D01*
X118104556Y-128807749D01*
X117991971Y-128652786D01*
X117847213Y-128508028D01*
X117681613Y-128387715D01*
X117681612Y-128387714D01*
X117681610Y-128387713D01*
X117624653Y-128358691D01*
X117499223Y-128294781D01*
X117304534Y-128231522D01*
X117129995Y-128203878D01*
X117102352Y-128199500D01*
X116897648Y-128199500D01*
X116873329Y-128203351D01*
X116695465Y-128231522D01*
X116500776Y-128294781D01*
X116318386Y-128387715D01*
X116152786Y-128508028D01*
X116008028Y-128652786D01*
X115887715Y-128818386D01*
X115794781Y-129000776D01*
X115731522Y-129195465D01*
X115699500Y-129397648D01*
X102950500Y-129397648D01*
X102950500Y-128243732D01*
X102970185Y-128176693D01*
X103022989Y-128130938D01*
X103035495Y-128126026D01*
X103069334Y-128114814D01*
X103218656Y-128022712D01*
X103342712Y-127898656D01*
X103434814Y-127749334D01*
X103489999Y-127582797D01*
X103500500Y-127480009D01*
X103500499Y-126279992D01*
X103489999Y-126177203D01*
X103434814Y-126010666D01*
X103342712Y-125861344D01*
X103218656Y-125737288D01*
X103069334Y-125645186D01*
X103069328Y-125645184D01*
X103035494Y-125633972D01*
X102978050Y-125594199D01*
X102951228Y-125529683D01*
X102950500Y-125516267D01*
X102950500Y-124412229D01*
X102970185Y-124345190D01*
X102986819Y-124324548D01*
X109274548Y-118036819D01*
X109335871Y-118003334D01*
X109362229Y-118000500D01*
X114387770Y-118000500D01*
X114454809Y-118020185D01*
X114475451Y-118036819D01*
X114901579Y-118462947D01*
X114901582Y-118462949D01*
X114901585Y-118462952D01*
X114927113Y-118480009D01*
X114927114Y-118480010D01*
X115024508Y-118545086D01*
X115074665Y-118565861D01*
X115081080Y-118568518D01*
X115161088Y-118601659D01*
X115277241Y-118624763D01*
X115300380Y-118629365D01*
X115306081Y-118630500D01*
X115306082Y-118630500D01*
X115306083Y-118630500D01*
X115453918Y-118630500D01*
X119926267Y-118630500D01*
X119993306Y-118650185D01*
X120039061Y-118702989D01*
X120043972Y-118715494D01*
X120055186Y-118749334D01*
X120147288Y-118898656D01*
X120271344Y-119022712D01*
X120420666Y-119114814D01*
X120502570Y-119141954D01*
X120560015Y-119181727D01*
X120586838Y-119246243D01*
X120574523Y-119315018D01*
X120536451Y-119359978D01*
X120442787Y-119428028D01*
X120442782Y-119428032D01*
X120298028Y-119572786D01*
X120177715Y-119738386D01*
X120084781Y-119920776D01*
X120021522Y-120115465D01*
X119989500Y-120317648D01*
X119989500Y-120522351D01*
X120021522Y-120724534D01*
X120084781Y-120919223D01*
X120127443Y-121002950D01*
X120165879Y-121078385D01*
X120177715Y-121101613D01*
X120298028Y-121267213D01*
X120442786Y-121411971D01*
X120597749Y-121524556D01*
X120608390Y-121532287D01*
X120699840Y-121578883D01*
X120701080Y-121579515D01*
X120751876Y-121627490D01*
X120768671Y-121695311D01*
X120746134Y-121761446D01*
X120701080Y-121800485D01*
X120608386Y-121847715D01*
X120442786Y-121968028D01*
X120298028Y-122112786D01*
X120177715Y-122278386D01*
X120084781Y-122460776D01*
X120021522Y-122655465D01*
X119989500Y-122857648D01*
X119989500Y-123062351D01*
X120021522Y-123264534D01*
X120084781Y-123459223D01*
X120142030Y-123571578D01*
X120177712Y-123641609D01*
X120177715Y-123641613D01*
X120298028Y-123807213D01*
X120442786Y-123951971D01*
X120597749Y-124064556D01*
X120608390Y-124072287D01*
X120699840Y-124118883D01*
X120701080Y-124119515D01*
X120751876Y-124167490D01*
X120768671Y-124235311D01*
X120746134Y-124301446D01*
X120701080Y-124340485D01*
X120608386Y-124387715D01*
X120442786Y-124508028D01*
X120298032Y-124652782D01*
X120298028Y-124652787D01*
X120264900Y-124698385D01*
X120209571Y-124741051D01*
X120164582Y-124749500D01*
X119612229Y-124749500D01*
X119545190Y-124729815D01*
X119524548Y-124713181D01*
X117852957Y-123041589D01*
X117819472Y-122980266D01*
X117824456Y-122910574D01*
X117852953Y-122866231D01*
X117991966Y-122727219D01*
X118112287Y-122561610D01*
X118205220Y-122379219D01*
X118268477Y-122184534D01*
X118300500Y-121982352D01*
X118300500Y-121777648D01*
X118286618Y-121690000D01*
X118268477Y-121575465D01*
X118215354Y-121411971D01*
X118205220Y-121380781D01*
X118205218Y-121380778D01*
X118205218Y-121380776D01*
X118147354Y-121267213D01*
X118112287Y-121198390D01*
X118071070Y-121141659D01*
X117991971Y-121032786D01*
X117847213Y-120888028D01*
X117681613Y-120767715D01*
X117681612Y-120767714D01*
X117681610Y-120767713D01*
X117596867Y-120724534D01*
X117499223Y-120674781D01*
X117304534Y-120611522D01*
X117129995Y-120583878D01*
X117102352Y-120579500D01*
X116897648Y-120579500D01*
X116873329Y-120583351D01*
X116695465Y-120611522D01*
X116500776Y-120674781D01*
X116318386Y-120767715D01*
X116152786Y-120888028D01*
X116008032Y-121032782D01*
X116008028Y-121032787D01*
X115974900Y-121078385D01*
X115919571Y-121121051D01*
X115874582Y-121129500D01*
X113125418Y-121129500D01*
X113058379Y-121109815D01*
X113025100Y-121078385D01*
X112991971Y-121032787D01*
X112991967Y-121032782D01*
X112847213Y-120888028D01*
X112681613Y-120767715D01*
X112681612Y-120767714D01*
X112681610Y-120767713D01*
X112596867Y-120724534D01*
X112499223Y-120674781D01*
X112304534Y-120611522D01*
X112129995Y-120583878D01*
X112102352Y-120579500D01*
X111897648Y-120579500D01*
X111873329Y-120583351D01*
X111695465Y-120611522D01*
X111500776Y-120674781D01*
X111318386Y-120767715D01*
X111152786Y-120888028D01*
X111008028Y-121032786D01*
X110887715Y-121198386D01*
X110794781Y-121380776D01*
X110731522Y-121575465D01*
X110699500Y-121777648D01*
X110699500Y-121982351D01*
X110731522Y-122184534D01*
X110794781Y-122379223D01*
X110887715Y-122561613D01*
X111008028Y-122727213D01*
X111152786Y-122871971D01*
X111274535Y-122960425D01*
X111318390Y-122992287D01*
X111434607Y-123051503D01*
X111500776Y-123085218D01*
X111500778Y-123085218D01*
X111500781Y-123085220D01*
X111605137Y-123119127D01*
X111695465Y-123148477D01*
X111796557Y-123164488D01*
X111897648Y-123180500D01*
X111897649Y-123180500D01*
X112102351Y-123180500D01*
X112102352Y-123180500D01*
X112304534Y-123148477D01*
X112499219Y-123085220D01*
X112681610Y-122992287D01*
X112801619Y-122905096D01*
X112847213Y-122871971D01*
X112847215Y-122871968D01*
X112847219Y-122871966D01*
X112991966Y-122727219D01*
X112994650Y-122723524D01*
X113025100Y-122681615D01*
X113080429Y-122638949D01*
X113125418Y-122630500D01*
X115874582Y-122630500D01*
X115941621Y-122650185D01*
X115974900Y-122681615D01*
X116008028Y-122727212D01*
X116008032Y-122727217D01*
X116008034Y-122727219D01*
X116152781Y-122871966D01*
X116198384Y-122905098D01*
X116241050Y-122960425D01*
X116249500Y-123005416D01*
X116249500Y-123323918D01*
X116249500Y-123323920D01*
X116249499Y-123323920D01*
X116278340Y-123468907D01*
X116278343Y-123468917D01*
X116334912Y-123605488D01*
X116334918Y-123605499D01*
X116348002Y-123625079D01*
X116348004Y-123625084D01*
X116417046Y-123728414D01*
X116417052Y-123728421D01*
X118667049Y-125978416D01*
X118771584Y-126082951D01*
X118771587Y-126082953D01*
X118771588Y-126082954D01*
X118894503Y-126165083D01*
X118894506Y-126165085D01*
X118944665Y-126185861D01*
X118951080Y-126188518D01*
X119031088Y-126221659D01*
X119147241Y-126244763D01*
X119170380Y-126249365D01*
X119176081Y-126250500D01*
X119176082Y-126250500D01*
X119176083Y-126250500D01*
X119323918Y-126250500D01*
X120164582Y-126250500D01*
X120231621Y-126270185D01*
X120264900Y-126301615D01*
X120298028Y-126347212D01*
X120298032Y-126347217D01*
X120442786Y-126491971D01*
X120597749Y-126604556D01*
X120608390Y-126612287D01*
X120724607Y-126671503D01*
X120790776Y-126705218D01*
X120790778Y-126705218D01*
X120790781Y-126705220D01*
X120895137Y-126739127D01*
X120985465Y-126768477D01*
X121086557Y-126784488D01*
X121187648Y-126800500D01*
X121187649Y-126800500D01*
X122192351Y-126800500D01*
X122192352Y-126800500D01*
X122394534Y-126768477D01*
X122589219Y-126705220D01*
X122771610Y-126612287D01*
X122864590Y-126544732D01*
X122937213Y-126491971D01*
X122937215Y-126491968D01*
X122937219Y-126491966D01*
X123081966Y-126347219D01*
X123081968Y-126347215D01*
X123081971Y-126347213D01*
X123156404Y-126244763D01*
X123202287Y-126181610D01*
X123295220Y-125999219D01*
X123358477Y-125804534D01*
X123390500Y-125602352D01*
X123390500Y-125397648D01*
X123358477Y-125195466D01*
X123295220Y-125000781D01*
X123295218Y-125000778D01*
X123295218Y-125000776D01*
X123261503Y-124934607D01*
X123202287Y-124818390D01*
X123152236Y-124749500D01*
X123081971Y-124652786D01*
X122937213Y-124508028D01*
X122771614Y-124387715D01*
X122765006Y-124384348D01*
X122678917Y-124340483D01*
X122628123Y-124292511D01*
X122611328Y-124224690D01*
X122633865Y-124158555D01*
X122678917Y-124119516D01*
X122771610Y-124072287D01*
X122792770Y-124056913D01*
X122937213Y-123951971D01*
X122937215Y-123951968D01*
X122937219Y-123951966D01*
X123081966Y-123807219D01*
X123084650Y-123803524D01*
X123115100Y-123761615D01*
X123170429Y-123718949D01*
X123215418Y-123710500D01*
X123847770Y-123710500D01*
X123914809Y-123730185D01*
X123935451Y-123746819D01*
X124963181Y-124774549D01*
X124996666Y-124835872D01*
X124999500Y-124862230D01*
X124999500Y-126573918D01*
X124999500Y-126573920D01*
X124999499Y-126573920D01*
X125028340Y-126718907D01*
X125028343Y-126718917D01*
X125084914Y-126855492D01*
X125117812Y-126904727D01*
X125117813Y-126904730D01*
X125167046Y-126978414D01*
X125167052Y-126978421D01*
X127167049Y-128978416D01*
X127271584Y-129082951D01*
X127271585Y-129082952D01*
X127394498Y-129165080D01*
X127394511Y-129165087D01*
X127531082Y-129221656D01*
X127531087Y-129221658D01*
X127531091Y-129221658D01*
X127531092Y-129221659D01*
X127676079Y-129250500D01*
X127676082Y-129250500D01*
X127676083Y-129250500D01*
X127823917Y-129250500D01*
X131637770Y-129250500D01*
X131704809Y-129270185D01*
X131725451Y-129286819D01*
X132021586Y-129582954D01*
X132047112Y-129600009D01*
X132095270Y-129632186D01*
X132144505Y-129665084D01*
X132144506Y-129665084D01*
X132144507Y-129665085D01*
X132144509Y-129665086D01*
X132235552Y-129702797D01*
X132281087Y-129721658D01*
X132281091Y-129721658D01*
X132281092Y-129721659D01*
X132426079Y-129750500D01*
X132426082Y-129750500D01*
X132426083Y-129750500D01*
X132573918Y-129750500D01*
X133833616Y-129750500D01*
X133900655Y-129770185D01*
X133946410Y-129822989D01*
X133951321Y-129835494D01*
X133962535Y-129869334D01*
X134054637Y-130018656D01*
X134178693Y-130142712D01*
X134328015Y-130234814D01*
X134494552Y-130289999D01*
X134597340Y-130300500D01*
X135797357Y-130300499D01*
X135900146Y-130289999D01*
X136066683Y-130234814D01*
X136216005Y-130142712D01*
X136340061Y-130018656D01*
X136432163Y-129869334D01*
X136487348Y-129702797D01*
X136497849Y-129600009D01*
X136497848Y-128399992D01*
X136487348Y-128297203D01*
X136432163Y-128130666D01*
X136340061Y-127981344D01*
X136216005Y-127857288D01*
X136088014Y-127778343D01*
X136066685Y-127765187D01*
X136066680Y-127765185D01*
X136065211Y-127764698D01*
X135900146Y-127710001D01*
X135900144Y-127710000D01*
X135797359Y-127699500D01*
X134597347Y-127699500D01*
X134597330Y-127699501D01*
X134494552Y-127710000D01*
X134494549Y-127710001D01*
X134328017Y-127765185D01*
X134328012Y-127765187D01*
X134178691Y-127857289D01*
X134054638Y-127981342D01*
X133962536Y-128130663D01*
X133962533Y-128130671D01*
X133951321Y-128164506D01*
X133911548Y-128221950D01*
X133847032Y-128248772D01*
X133833616Y-128249500D01*
X132862230Y-128249500D01*
X132795191Y-128229815D01*
X132774549Y-128213181D01*
X132478421Y-127917052D01*
X132478420Y-127917051D01*
X132388977Y-127857288D01*
X132388976Y-127857287D01*
X132355500Y-127834919D01*
X132355488Y-127834912D01*
X132218917Y-127778343D01*
X132218907Y-127778340D01*
X132073920Y-127749500D01*
X132073918Y-127749500D01*
X128112229Y-127749500D01*
X128045190Y-127729815D01*
X128024548Y-127713181D01*
X126536819Y-126225451D01*
X126503334Y-126164128D01*
X126500500Y-126137770D01*
X126500500Y-124426079D01*
X126471659Y-124281092D01*
X126471658Y-124281091D01*
X126471658Y-124281087D01*
X126415084Y-124144505D01*
X126366830Y-124072287D01*
X126366830Y-124072286D01*
X126332950Y-124021581D01*
X124688421Y-122377052D01*
X124688414Y-122377046D01*
X124614729Y-122327812D01*
X124614729Y-122327813D01*
X124565491Y-122294913D01*
X124428917Y-122238343D01*
X124428907Y-122238340D01*
X124283920Y-122209500D01*
X124283918Y-122209500D01*
X123215418Y-122209500D01*
X123148379Y-122189815D01*
X123115100Y-122158385D01*
X123081971Y-122112787D01*
X123081967Y-122112782D01*
X122937213Y-121968028D01*
X122771614Y-121847715D01*
X122765006Y-121844348D01*
X122678917Y-121800483D01*
X122628123Y-121752511D01*
X122611328Y-121684690D01*
X122633865Y-121618555D01*
X122678917Y-121579516D01*
X122771610Y-121532287D01*
X122792770Y-121516913D01*
X122937213Y-121411971D01*
X122937215Y-121411968D01*
X122937219Y-121411966D01*
X123081966Y-121267219D01*
X123084650Y-121263524D01*
X123115100Y-121221615D01*
X123170429Y-121178949D01*
X123215418Y-121170500D01*
X124403920Y-121170500D01*
X124501462Y-121151096D01*
X124548913Y-121141658D01*
X124685495Y-121085084D01*
X124734729Y-121052186D01*
X124808416Y-121002952D01*
X126082952Y-119728416D01*
X126154064Y-119621987D01*
X126165084Y-119605495D01*
X126221658Y-119468913D01*
X126250500Y-119323918D01*
X126250500Y-116362230D01*
X126270185Y-116295191D01*
X126286819Y-116274549D01*
X128274549Y-114286819D01*
X128335872Y-114253334D01*
X128362230Y-114250500D01*
X131706243Y-114250500D01*
X131803785Y-114231096D01*
X131851236Y-114221658D01*
X131987818Y-114165084D01*
X132037052Y-114132186D01*
X132110739Y-114082952D01*
X134156871Y-112036817D01*
X134218194Y-112003333D01*
X134244552Y-112000499D01*
X135432325Y-112000499D01*
X135432331Y-112000499D01*
X135535120Y-111989999D01*
X135701657Y-111934814D01*
X135850979Y-111842712D01*
X135975035Y-111718656D01*
X136067137Y-111569334D01*
X136122322Y-111402797D01*
X136132823Y-111300009D01*
X136132822Y-109699992D01*
X136122322Y-109597203D01*
X136067137Y-109430666D01*
X135975035Y-109281344D01*
X135850979Y-109157288D01*
X135701657Y-109065186D01*
X135535120Y-109010001D01*
X135535118Y-109010000D01*
X135432333Y-108999500D01*
X133832321Y-108999500D01*
X133832304Y-108999501D01*
X133729526Y-109010000D01*
X133729523Y-109010001D01*
X133562991Y-109065185D01*
X133562986Y-109065187D01*
X133413665Y-109157289D01*
X133289612Y-109281342D01*
X133197510Y-109430663D01*
X133197509Y-109430666D01*
X133142324Y-109597203D01*
X133142324Y-109597204D01*
X133142323Y-109597204D01*
X133131823Y-109699983D01*
X133131823Y-110887769D01*
X133112138Y-110954808D01*
X133095504Y-110975450D01*
X131357774Y-112713181D01*
X131296451Y-112746666D01*
X131270093Y-112749500D01*
X127926080Y-112749500D01*
X127781092Y-112778340D01*
X127781086Y-112778342D01*
X127644508Y-112834914D01*
X127644496Y-112834921D01*
X127595269Y-112867813D01*
X127521588Y-112917044D01*
X127521580Y-112917050D01*
X124917048Y-115521583D01*
X124896478Y-115552369D01*
X124876045Y-115582951D01*
X124834919Y-115644499D01*
X124834912Y-115644511D01*
X124778343Y-115781082D01*
X124778340Y-115781092D01*
X124749500Y-115926079D01*
X124749500Y-118887770D01*
X124729815Y-118954809D01*
X124713181Y-118975451D01*
X124055451Y-119633181D01*
X123994128Y-119666666D01*
X123967770Y-119669500D01*
X123215418Y-119669500D01*
X123148379Y-119649815D01*
X123115100Y-119618385D01*
X123081971Y-119572787D01*
X123081967Y-119572782D01*
X122937219Y-119428034D01*
X122937211Y-119428028D01*
X122843547Y-119359978D01*
X122800882Y-119304649D01*
X122794903Y-119235036D01*
X122827508Y-119173240D01*
X122877426Y-119141955D01*
X122959334Y-119114814D01*
X123108656Y-119022712D01*
X123232712Y-118898656D01*
X123324814Y-118749334D01*
X123379999Y-118582797D01*
X123390500Y-118480009D01*
X123390499Y-117279992D01*
X123379999Y-117177203D01*
X123324814Y-117010666D01*
X123232712Y-116861344D01*
X123108656Y-116737288D01*
X122959334Y-116645186D01*
X122792797Y-116590001D01*
X122792795Y-116590000D01*
X122690010Y-116579500D01*
X120689998Y-116579500D01*
X120689981Y-116579501D01*
X120587203Y-116590000D01*
X120587200Y-116590001D01*
X120420668Y-116645185D01*
X120420663Y-116645187D01*
X120271342Y-116737289D01*
X120147289Y-116861342D01*
X120055187Y-117010663D01*
X120055184Y-117010671D01*
X120043972Y-117044506D01*
X120004199Y-117101950D01*
X119939683Y-117128772D01*
X119926267Y-117129500D01*
X116231230Y-117129500D01*
X116164191Y-117109815D01*
X116118436Y-117057011D01*
X116108492Y-116987853D01*
X116137517Y-116924297D01*
X116143549Y-116917819D01*
X117582947Y-115478420D01*
X117582950Y-115478417D01*
X117582949Y-115478417D01*
X117582952Y-115478415D01*
X117623955Y-115417049D01*
X117665084Y-115355495D01*
X117697042Y-115278342D01*
X117721659Y-115218912D01*
X117750500Y-115073917D01*
X117750500Y-114926082D01*
X117750500Y-114625416D01*
X117770185Y-114558377D01*
X117801613Y-114525099D01*
X117847219Y-114491966D01*
X117991966Y-114347219D01*
X117991968Y-114347215D01*
X117991971Y-114347213D01*
X118062236Y-114250500D01*
X118112287Y-114181610D01*
X118205220Y-113999219D01*
X118268477Y-113804534D01*
X118300500Y-113602352D01*
X118300500Y-113397648D01*
X118268477Y-113195465D01*
X118205218Y-113000776D01*
X118137469Y-112867813D01*
X118112287Y-112818390D01*
X118060177Y-112746666D01*
X117991971Y-112652786D01*
X117847217Y-112508032D01*
X117847212Y-112508028D01*
X117801615Y-112474900D01*
X117758949Y-112419571D01*
X117750500Y-112374582D01*
X117750500Y-109375416D01*
X117770185Y-109308377D01*
X117801613Y-109275099D01*
X117847219Y-109241966D01*
X117991966Y-109097219D01*
X117991968Y-109097215D01*
X117991971Y-109097213D01*
X118055334Y-109010000D01*
X118112287Y-108931610D01*
X118205220Y-108749219D01*
X118268477Y-108554534D01*
X118300500Y-108352352D01*
X118300500Y-108147648D01*
X118268477Y-107945466D01*
X118205220Y-107750781D01*
X118205218Y-107750778D01*
X118205218Y-107750776D01*
X118171503Y-107684607D01*
X118112287Y-107568390D01*
X118039492Y-107468195D01*
X117991971Y-107402786D01*
X117847213Y-107258028D01*
X117681613Y-107137715D01*
X117681612Y-107137714D01*
X117681610Y-107137713D01*
X117574136Y-107082952D01*
X117499223Y-107044781D01*
X117304534Y-106981522D01*
X117129995Y-106953878D01*
X117102352Y-106949500D01*
X116897648Y-106949500D01*
X116873329Y-106953351D01*
X116695465Y-106981522D01*
X116500776Y-107044781D01*
X116318386Y-107137715D01*
X116152786Y-107258028D01*
X116008028Y-107402786D01*
X115887715Y-107568386D01*
X115794781Y-107750776D01*
X115731522Y-107945465D01*
X115699500Y-108147648D01*
X115699500Y-108352351D01*
X115731522Y-108554534D01*
X115794781Y-108749223D01*
X115887715Y-108931613D01*
X116008028Y-109097213D01*
X116008034Y-109097219D01*
X116152781Y-109241966D01*
X116198384Y-109275098D01*
X116241050Y-109330425D01*
X116249500Y-109375416D01*
X116249500Y-112374582D01*
X116229815Y-112441621D01*
X116198385Y-112474900D01*
X116152787Y-112508028D01*
X116152782Y-112508032D01*
X116008028Y-112652786D01*
X115887715Y-112818386D01*
X115794781Y-113000776D01*
X115731522Y-113195465D01*
X115699500Y-113397648D01*
X115699500Y-113602351D01*
X115731522Y-113804534D01*
X115794781Y-113999223D01*
X115887715Y-114181613D01*
X116008028Y-114347213D01*
X116008034Y-114347219D01*
X116152781Y-114491966D01*
X116198384Y-114525098D01*
X116201724Y-114529429D01*
X116206703Y-114531703D01*
X116222832Y-114556801D01*
X116241050Y-114580425D01*
X116242303Y-114587098D01*
X116244477Y-114590481D01*
X116249500Y-114625416D01*
X116249500Y-114637770D01*
X116229815Y-114704809D01*
X116213181Y-114725451D01*
X114475451Y-116463181D01*
X114414128Y-116496666D01*
X114387770Y-116499500D01*
X108926080Y-116499500D01*
X108781092Y-116528340D01*
X108781082Y-116528343D01*
X108644511Y-116584912D01*
X108644498Y-116584919D01*
X108521584Y-116667048D01*
X108521580Y-116667051D01*
X101617052Y-123571578D01*
X101617049Y-123571581D01*
X101570258Y-123641609D01*
X101570259Y-123641610D01*
X101534914Y-123694508D01*
X101478343Y-123831082D01*
X101478340Y-123831092D01*
X101449500Y-123976079D01*
X101449500Y-125516267D01*
X101429815Y-125583306D01*
X101377011Y-125629061D01*
X101364506Y-125633972D01*
X101330671Y-125645184D01*
X101330663Y-125645187D01*
X101181342Y-125737289D01*
X101057289Y-125861342D01*
X100965187Y-126010663D01*
X100965186Y-126010666D01*
X100910001Y-126177203D01*
X100910001Y-126177204D01*
X100910000Y-126177204D01*
X100899500Y-126279983D01*
X100899500Y-127480001D01*
X100899501Y-127480018D01*
X100910000Y-127582796D01*
X100910001Y-127582799D01*
X100965185Y-127749331D01*
X100965187Y-127749336D01*
X100974964Y-127765187D01*
X101057288Y-127898656D01*
X101181344Y-128022712D01*
X101330666Y-128114814D01*
X101364500Y-128126025D01*
X101421947Y-128165796D01*
X101448772Y-128230311D01*
X101449500Y-128243732D01*
X101449500Y-134773918D01*
X101449500Y-134773920D01*
X101449499Y-134773920D01*
X101478340Y-134918907D01*
X101478343Y-134918917D01*
X101534913Y-135055490D01*
X101534914Y-135055491D01*
X101534916Y-135055495D01*
X101540936Y-135064504D01*
X101540937Y-135064507D01*
X101617046Y-135178414D01*
X101617052Y-135178421D01*
X102133181Y-135694549D01*
X102166666Y-135755872D01*
X102169500Y-135782230D01*
X102169500Y-139375500D01*
X102149815Y-139442539D01*
X102097011Y-139488294D01*
X102045500Y-139499500D01*
X101372129Y-139499500D01*
X101372123Y-139499501D01*
X101312516Y-139505908D01*
X101177671Y-139556202D01*
X101177664Y-139556206D01*
X101062455Y-139642452D01*
X101062452Y-139642455D01*
X100976206Y-139757664D01*
X100976202Y-139757671D01*
X100925908Y-139892517D01*
X100919501Y-139952116D01*
X100919501Y-139952123D01*
X100919500Y-139952135D01*
X100919500Y-143047870D01*
X100919501Y-143047876D01*
X100925908Y-143107483D01*
X100976202Y-143242328D01*
X100976204Y-143242331D01*
X101020265Y-143301189D01*
X101044683Y-143366652D01*
X101029832Y-143434925D01*
X100980427Y-143484331D01*
X100920999Y-143499500D01*
X100124500Y-143499500D01*
X100057461Y-143479815D01*
X100011706Y-143427011D01*
X100000500Y-143375500D01*
X100000500Y-113389778D01*
X104099500Y-113389778D01*
X104099500Y-113610221D01*
X104133985Y-113827952D01*
X104202103Y-114037603D01*
X104202104Y-114037606D01*
X104225209Y-114082950D01*
X104295885Y-114221658D01*
X104302187Y-114234025D01*
X104431752Y-114412358D01*
X104431756Y-114412363D01*
X104587636Y-114568243D01*
X104587641Y-114568247D01*
X104743192Y-114681260D01*
X104765978Y-114697815D01*
X104894375Y-114763237D01*
X104962393Y-114797895D01*
X104962396Y-114797896D01*
X105067221Y-114831955D01*
X105172049Y-114866015D01*
X105389778Y-114900500D01*
X105389779Y-114900500D01*
X105610221Y-114900500D01*
X105610222Y-114900500D01*
X105827951Y-114866015D01*
X106037606Y-114797895D01*
X106234022Y-114697815D01*
X106412365Y-114568242D01*
X106568242Y-114412365D01*
X106648705Y-114301615D01*
X106704035Y-114258949D01*
X106749024Y-114250500D01*
X108254582Y-114250500D01*
X108321621Y-114270185D01*
X108354900Y-114301615D01*
X108388028Y-114347212D01*
X108388032Y-114347217D01*
X108532786Y-114491971D01*
X108654535Y-114580425D01*
X108698390Y-114612287D01*
X108814607Y-114671503D01*
X108880776Y-114705218D01*
X108880778Y-114705218D01*
X108880781Y-114705220D01*
X108943046Y-114725451D01*
X109075465Y-114768477D01*
X109176557Y-114784488D01*
X109277648Y-114800500D01*
X109277649Y-114800500D01*
X109482351Y-114800500D01*
X109482352Y-114800500D01*
X109684534Y-114768477D01*
X109879219Y-114705220D01*
X110061610Y-114612287D01*
X110181619Y-114525096D01*
X110227213Y-114491971D01*
X110227215Y-114491968D01*
X110227219Y-114491966D01*
X110371966Y-114347219D01*
X110371968Y-114347215D01*
X110371971Y-114347213D01*
X110442236Y-114250500D01*
X110492287Y-114181610D01*
X110585220Y-113999219D01*
X110648477Y-113804534D01*
X110680500Y-113602352D01*
X110680500Y-113397648D01*
X110648477Y-113195465D01*
X110585218Y-113000776D01*
X110517469Y-112867813D01*
X110492287Y-112818390D01*
X110440177Y-112746666D01*
X110371971Y-112652786D01*
X110227213Y-112508028D01*
X110061613Y-112387715D01*
X110061612Y-112387714D01*
X110061610Y-112387713D01*
X110004653Y-112358691D01*
X109879223Y-112294781D01*
X109684534Y-112231522D01*
X109498799Y-112202105D01*
X109482352Y-112199500D01*
X109277648Y-112199500D01*
X109261201Y-112202105D01*
X109075465Y-112231522D01*
X108880776Y-112294781D01*
X108698386Y-112387715D01*
X108532786Y-112508028D01*
X108388032Y-112652782D01*
X108388028Y-112652787D01*
X108354900Y-112698385D01*
X108299571Y-112741051D01*
X108254582Y-112749500D01*
X106749024Y-112749500D01*
X106681985Y-112729815D01*
X106648705Y-112698384D01*
X106568245Y-112587638D01*
X106412363Y-112431756D01*
X106412358Y-112431752D01*
X106234025Y-112302187D01*
X106234024Y-112302186D01*
X106234022Y-112302185D01*
X106171096Y-112270122D01*
X106037606Y-112202104D01*
X106037603Y-112202103D01*
X105827952Y-112133985D01*
X105719086Y-112116742D01*
X105610222Y-112099500D01*
X105389778Y-112099500D01*
X105317201Y-112110995D01*
X105172047Y-112133985D01*
X104962396Y-112202103D01*
X104962393Y-112202104D01*
X104765974Y-112302187D01*
X104587641Y-112431752D01*
X104587636Y-112431756D01*
X104431756Y-112587636D01*
X104431752Y-112587641D01*
X104302187Y-112765974D01*
X104202104Y-112962393D01*
X104202103Y-112962396D01*
X104133985Y-113172047D01*
X104099500Y-113389778D01*
X100000500Y-113389778D01*
X100000500Y-105952135D01*
X125689500Y-105952135D01*
X125689500Y-109047870D01*
X125689501Y-109047876D01*
X125695908Y-109107483D01*
X125746202Y-109242328D01*
X125746206Y-109242335D01*
X125832452Y-109357544D01*
X125832455Y-109357547D01*
X125947664Y-109443793D01*
X125947671Y-109443797D01*
X126082517Y-109494091D01*
X126082516Y-109494091D01*
X126089444Y-109494835D01*
X126142127Y-109500500D01*
X129237872Y-109500499D01*
X129297483Y-109494091D01*
X129432331Y-109443796D01*
X129547546Y-109357546D01*
X129633796Y-109242331D01*
X129684091Y-109107483D01*
X129690500Y-109047873D01*
X129690499Y-107374499D01*
X129710184Y-107307461D01*
X129762987Y-107261706D01*
X129814499Y-107250500D01*
X130323920Y-107250500D01*
X130421462Y-107231096D01*
X130468913Y-107221658D01*
X130605495Y-107165084D01*
X130654729Y-107132186D01*
X130728416Y-107082952D01*
X131274548Y-106536818D01*
X131335871Y-106503334D01*
X131362229Y-106500500D01*
X137887770Y-106500500D01*
X137954809Y-106520185D01*
X137975451Y-106536819D01*
X138845504Y-107406872D01*
X138878989Y-107468195D01*
X138881823Y-107494553D01*
X138881823Y-109127368D01*
X138862138Y-109194407D01*
X138830709Y-109227686D01*
X138654811Y-109355484D01*
X138487808Y-109522487D01*
X138487808Y-109522488D01*
X138487806Y-109522490D01*
X138433526Y-109597200D01*
X138348980Y-109713566D01*
X138241756Y-109924003D01*
X138168769Y-110148631D01*
X138131823Y-110381902D01*
X138131823Y-110618097D01*
X138168769Y-110851368D01*
X138241756Y-111075996D01*
X138348980Y-111286433D01*
X138487806Y-111477510D01*
X138654813Y-111644517D01*
X138845890Y-111783343D01*
X138945314Y-111834002D01*
X139056326Y-111890566D01*
X139056328Y-111890566D01*
X139056331Y-111890568D01*
X139176735Y-111929689D01*
X139280954Y-111963553D01*
X139514226Y-112000500D01*
X139514231Y-112000500D01*
X139750420Y-112000500D01*
X139983691Y-111963553D01*
X140208315Y-111890568D01*
X140418756Y-111783343D01*
X140609833Y-111644517D01*
X140776840Y-111477510D01*
X140915666Y-111286433D01*
X141022891Y-111075992D01*
X141095876Y-110851368D01*
X141132823Y-110618097D01*
X141132823Y-110381902D01*
X141095876Y-110148631D01*
X141022889Y-109924003D01*
X140915665Y-109713566D01*
X140776840Y-109522490D01*
X140609833Y-109355483D01*
X140507787Y-109281342D01*
X140433937Y-109227686D01*
X140391272Y-109172355D01*
X140382823Y-109127368D01*
X140382823Y-107058402D01*
X140353982Y-106913415D01*
X140353981Y-106913414D01*
X140353981Y-106913410D01*
X140297407Y-106776828D01*
X140258709Y-106718912D01*
X140258708Y-106718910D01*
X140258707Y-106718908D01*
X140215276Y-106653908D01*
X140215270Y-106653901D01*
X138728421Y-105167052D01*
X138728414Y-105167046D01*
X138654729Y-105117812D01*
X138654729Y-105117813D01*
X138605491Y-105084913D01*
X138468917Y-105028343D01*
X138468907Y-105028340D01*
X138323920Y-104999500D01*
X138323918Y-104999500D01*
X131073917Y-104999500D01*
X130926082Y-104999500D01*
X130926080Y-104999500D01*
X130781092Y-105028340D01*
X130781082Y-105028343D01*
X130644511Y-105084912D01*
X130644498Y-105084919D01*
X130521584Y-105167048D01*
X130521580Y-105167051D01*
X129975451Y-105713181D01*
X129948523Y-105727884D01*
X129922705Y-105744477D01*
X129916504Y-105745368D01*
X129914128Y-105746666D01*
X129887770Y-105749500D01*
X129689751Y-105749500D01*
X129622712Y-105729815D01*
X129590485Y-105699812D01*
X129547548Y-105642457D01*
X129547546Y-105642454D01*
X129547542Y-105642451D01*
X129432335Y-105556206D01*
X129432328Y-105556202D01*
X129297482Y-105505908D01*
X129297483Y-105505908D01*
X129237883Y-105499501D01*
X129237881Y-105499500D01*
X129237873Y-105499500D01*
X129237864Y-105499500D01*
X126142129Y-105499500D01*
X126142123Y-105499501D01*
X126082516Y-105505908D01*
X125947671Y-105556202D01*
X125947664Y-105556206D01*
X125832455Y-105642452D01*
X125832452Y-105642455D01*
X125746206Y-105757664D01*
X125746202Y-105757671D01*
X125695908Y-105892517D01*
X125689501Y-105952116D01*
X125689500Y-105952135D01*
X100000500Y-105952135D01*
X100000500Y-104124000D01*
X100020185Y-104056961D01*
X100072989Y-104011206D01*
X100124500Y-104000000D01*
X142376000Y-104000000D01*
X142443039Y-104019685D01*
G37*
%TD.AperFunction*%
%TD*%
%TA.AperFunction,Conductor*%
%TO.N,GND*%
G36*
X172758038Y-60520185D02*
G01*
X172803793Y-60572989D01*
X172813737Y-60642147D01*
X172790265Y-60698810D01*
X172770238Y-60725562D01*
X172746204Y-60757668D01*
X172746202Y-60757671D01*
X172695908Y-60892517D01*
X172689501Y-60952116D01*
X172689500Y-60952135D01*
X172689500Y-64047870D01*
X172689501Y-64047876D01*
X172695908Y-64107483D01*
X172746202Y-64242328D01*
X172746206Y-64242335D01*
X172832452Y-64357544D01*
X172832455Y-64357547D01*
X172947664Y-64443793D01*
X172947671Y-64443797D01*
X173082517Y-64494091D01*
X173082516Y-64494091D01*
X173089444Y-64494835D01*
X173142127Y-64500500D01*
X176237872Y-64500499D01*
X176297483Y-64494091D01*
X176432331Y-64443796D01*
X176547546Y-64357546D01*
X176633796Y-64242331D01*
X176684091Y-64107483D01*
X176690500Y-64047873D01*
X176690499Y-62374499D01*
X176710184Y-62307461D01*
X176762987Y-62261706D01*
X176814499Y-62250500D01*
X177323920Y-62250500D01*
X177421462Y-62231096D01*
X177468913Y-62221658D01*
X177605495Y-62165084D01*
X177654729Y-62132186D01*
X177728416Y-62082952D01*
X178274548Y-61536818D01*
X178335871Y-61503334D01*
X178362229Y-61500500D01*
X184887770Y-61500500D01*
X184954809Y-61520185D01*
X184975451Y-61536819D01*
X185845504Y-62406872D01*
X185878989Y-62468195D01*
X185881823Y-62494553D01*
X185881823Y-64127368D01*
X185862138Y-64194407D01*
X185830709Y-64227686D01*
X185654811Y-64355484D01*
X185487808Y-64522487D01*
X185487808Y-64522488D01*
X185487806Y-64522490D01*
X185433526Y-64597200D01*
X185348980Y-64713566D01*
X185241756Y-64924003D01*
X185168769Y-65148631D01*
X185131823Y-65381902D01*
X185131823Y-65618097D01*
X185168769Y-65851368D01*
X185241756Y-66075996D01*
X185348980Y-66286433D01*
X185487806Y-66477510D01*
X185654813Y-66644517D01*
X185845890Y-66783343D01*
X185945314Y-66834002D01*
X186056326Y-66890566D01*
X186056328Y-66890566D01*
X186056331Y-66890568D01*
X186176735Y-66929689D01*
X186280954Y-66963553D01*
X186514226Y-67000500D01*
X186514231Y-67000500D01*
X186750420Y-67000500D01*
X186983691Y-66963553D01*
X187208315Y-66890568D01*
X187418756Y-66783343D01*
X187609833Y-66644517D01*
X187776840Y-66477510D01*
X187915666Y-66286433D01*
X188022891Y-66075992D01*
X188095876Y-65851368D01*
X188132823Y-65618097D01*
X188132823Y-65381902D01*
X188095876Y-65148631D01*
X188022889Y-64924003D01*
X187915665Y-64713566D01*
X187776840Y-64522490D01*
X187609833Y-64355483D01*
X187507787Y-64281342D01*
X187433937Y-64227686D01*
X187391272Y-64172355D01*
X187382823Y-64127368D01*
X187382823Y-62058402D01*
X187353982Y-61913415D01*
X187353981Y-61913414D01*
X187353981Y-61913410D01*
X187297407Y-61776828D01*
X187258709Y-61718912D01*
X187258708Y-61718910D01*
X187258707Y-61718908D01*
X187215276Y-61653908D01*
X187215270Y-61653901D01*
X186273549Y-60712181D01*
X186240064Y-60650858D01*
X186245048Y-60581167D01*
X186286920Y-60525233D01*
X186352384Y-60500816D01*
X186361230Y-60500500D01*
X188875500Y-60500500D01*
X188942539Y-60520185D01*
X188988294Y-60572989D01*
X188999500Y-60624500D01*
X188999500Y-99876000D01*
X188979815Y-99943039D01*
X188927011Y-99988794D01*
X188875500Y-100000000D01*
X146624000Y-100000000D01*
X146556961Y-99980315D01*
X146511206Y-99927511D01*
X146500000Y-99876000D01*
X146500000Y-81279983D01*
X147899500Y-81279983D01*
X147899500Y-82480001D01*
X147899501Y-82480018D01*
X147910000Y-82582796D01*
X147910001Y-82582799D01*
X147965185Y-82749331D01*
X147965187Y-82749336D01*
X147974964Y-82765187D01*
X148057288Y-82898656D01*
X148181344Y-83022712D01*
X148330666Y-83114814D01*
X148364500Y-83126025D01*
X148421947Y-83165796D01*
X148448772Y-83230311D01*
X148449500Y-83243732D01*
X148449500Y-89773918D01*
X148449500Y-89773920D01*
X148449499Y-89773920D01*
X148478340Y-89918907D01*
X148478343Y-89918917D01*
X148534913Y-90055490D01*
X148534914Y-90055491D01*
X148534916Y-90055495D01*
X148540936Y-90064504D01*
X148540937Y-90064507D01*
X148617046Y-90178414D01*
X148617052Y-90178421D01*
X149133181Y-90694549D01*
X149166666Y-90755872D01*
X149169500Y-90782230D01*
X149169500Y-94375500D01*
X149149815Y-94442539D01*
X149097011Y-94488294D01*
X149045500Y-94499500D01*
X148372129Y-94499500D01*
X148372123Y-94499501D01*
X148312516Y-94505908D01*
X148177671Y-94556202D01*
X148177664Y-94556206D01*
X148062455Y-94642452D01*
X148062452Y-94642455D01*
X147976206Y-94757664D01*
X147976202Y-94757671D01*
X147925908Y-94892517D01*
X147919501Y-94952116D01*
X147919501Y-94952123D01*
X147919500Y-94952135D01*
X147919500Y-98047870D01*
X147919501Y-98047876D01*
X147925908Y-98107483D01*
X147976202Y-98242328D01*
X147976206Y-98242335D01*
X148062452Y-98357544D01*
X148062455Y-98357547D01*
X148177664Y-98443793D01*
X148177671Y-98443797D01*
X148312517Y-98494091D01*
X148312516Y-98494091D01*
X148319444Y-98494835D01*
X148372127Y-98500500D01*
X151467872Y-98500499D01*
X151527483Y-98494091D01*
X151662331Y-98443796D01*
X151777546Y-98357546D01*
X151863796Y-98242331D01*
X151914091Y-98107483D01*
X151920500Y-98047873D01*
X151920499Y-94952135D01*
X160919500Y-94952135D01*
X160919500Y-98047870D01*
X160919501Y-98047876D01*
X160925908Y-98107483D01*
X160976202Y-98242328D01*
X160976206Y-98242335D01*
X161062452Y-98357544D01*
X161062455Y-98357547D01*
X161177664Y-98443793D01*
X161177671Y-98443797D01*
X161312517Y-98494091D01*
X161312516Y-98494091D01*
X161319444Y-98494835D01*
X161372127Y-98500500D01*
X164467872Y-98500499D01*
X164527483Y-98494091D01*
X164662331Y-98443796D01*
X164777546Y-98357546D01*
X164863796Y-98242331D01*
X164914091Y-98107483D01*
X164920500Y-98047873D01*
X164920499Y-94952128D01*
X164914091Y-94892517D01*
X164875318Y-94788561D01*
X164870334Y-94718870D01*
X164903817Y-94657549D01*
X166274549Y-93286819D01*
X166335872Y-93253334D01*
X166362230Y-93250500D01*
X174137770Y-93250500D01*
X174204809Y-93270185D01*
X174225451Y-93286819D01*
X175213181Y-94274548D01*
X175246666Y-94335871D01*
X175249500Y-94362229D01*
X175249500Y-94932783D01*
X175229815Y-94999822D01*
X175187500Y-95040170D01*
X175069929Y-95108049D01*
X174896201Y-95241355D01*
X174896194Y-95241361D01*
X174741361Y-95396194D01*
X174741355Y-95396201D01*
X174608049Y-95569929D01*
X174498565Y-95759561D01*
X174498560Y-95759573D01*
X174414758Y-95961884D01*
X174358084Y-96173399D01*
X174358082Y-96173410D01*
X174329500Y-96390502D01*
X174329500Y-96609497D01*
X174353306Y-96790314D01*
X174358083Y-96826598D01*
X174414759Y-97038117D01*
X174498560Y-97240428D01*
X174498562Y-97240433D01*
X174498565Y-97240438D01*
X174608049Y-97430070D01*
X174741355Y-97603798D01*
X174741361Y-97603805D01*
X174896194Y-97758638D01*
X174896201Y-97758644D01*
X175069929Y-97891950D01*
X175259561Y-98001434D01*
X175259563Y-98001434D01*
X175259572Y-98001440D01*
X175461883Y-98085241D01*
X175673402Y-98141917D01*
X175890510Y-98170500D01*
X175890517Y-98170500D01*
X176109483Y-98170500D01*
X176109490Y-98170500D01*
X176326598Y-98141917D01*
X176538117Y-98085241D01*
X176740428Y-98001440D01*
X176930071Y-97891950D01*
X177103800Y-97758643D01*
X177258643Y-97603800D01*
X177391950Y-97430071D01*
X177501440Y-97240428D01*
X177585241Y-97038117D01*
X177641917Y-96826598D01*
X177670500Y-96609490D01*
X177670500Y-96390510D01*
X177641917Y-96173402D01*
X177585241Y-95961883D01*
X177501440Y-95759572D01*
X177391950Y-95569929D01*
X177258643Y-95396200D01*
X177258638Y-95396194D01*
X177103805Y-95241361D01*
X177103798Y-95241355D01*
X176930070Y-95108049D01*
X176812500Y-95040170D01*
X176764284Y-94989603D01*
X176750500Y-94932783D01*
X176750500Y-93926079D01*
X176721659Y-93781092D01*
X176721658Y-93781091D01*
X176721658Y-93781087D01*
X176721656Y-93781082D01*
X176665087Y-93644511D01*
X176665080Y-93644498D01*
X176582952Y-93521585D01*
X176582951Y-93521584D01*
X176478416Y-93417049D01*
X176311867Y-93250500D01*
X174978421Y-91917052D01*
X174978414Y-91917046D01*
X174904729Y-91867812D01*
X174904729Y-91867813D01*
X174855491Y-91834913D01*
X174718917Y-91778343D01*
X174718907Y-91778340D01*
X174573920Y-91749500D01*
X174573918Y-91749500D01*
X165926082Y-91749500D01*
X165926080Y-91749500D01*
X165781092Y-91778340D01*
X165781086Y-91778342D01*
X165644508Y-91834914D01*
X165644496Y-91834921D01*
X165595269Y-91867813D01*
X165521588Y-91917044D01*
X165521580Y-91917050D01*
X162975449Y-94463181D01*
X162914126Y-94496666D01*
X162887768Y-94499500D01*
X161372129Y-94499500D01*
X161372123Y-94499501D01*
X161312516Y-94505908D01*
X161177671Y-94556202D01*
X161177664Y-94556206D01*
X161062455Y-94642452D01*
X161062452Y-94642455D01*
X160976206Y-94757664D01*
X160976202Y-94757671D01*
X160925908Y-94892517D01*
X160919501Y-94952116D01*
X160919501Y-94952123D01*
X160919500Y-94952135D01*
X151920499Y-94952135D01*
X151920499Y-94952128D01*
X151914091Y-94892517D01*
X151863796Y-94757669D01*
X151863795Y-94757668D01*
X151863793Y-94757664D01*
X151777547Y-94642455D01*
X151777544Y-94642452D01*
X151662335Y-94556206D01*
X151662328Y-94556202D01*
X151527482Y-94505908D01*
X151527483Y-94505908D01*
X151467883Y-94499501D01*
X151467881Y-94499500D01*
X151467873Y-94499500D01*
X151467865Y-94499500D01*
X150794500Y-94499500D01*
X150727461Y-94479815D01*
X150681706Y-94427011D01*
X150670500Y-94375500D01*
X150670500Y-90346079D01*
X150641659Y-90201092D01*
X150641658Y-90201091D01*
X150641658Y-90201087D01*
X150641656Y-90201082D01*
X150585086Y-90064508D01*
X150552186Y-90015270D01*
X150552185Y-90015268D01*
X150502956Y-89941589D01*
X150502952Y-89941584D01*
X149986819Y-89425451D01*
X149953334Y-89364128D01*
X149950500Y-89337770D01*
X149950500Y-84397648D01*
X162699500Y-84397648D01*
X162699500Y-84602351D01*
X162731522Y-84804534D01*
X162794781Y-84999223D01*
X162858691Y-85124653D01*
X162867893Y-85142712D01*
X162887715Y-85181613D01*
X163008028Y-85347213D01*
X163152786Y-85491971D01*
X163307749Y-85604556D01*
X163318390Y-85612287D01*
X163434607Y-85671503D01*
X163500776Y-85705218D01*
X163500778Y-85705218D01*
X163500781Y-85705220D01*
X163605137Y-85739127D01*
X163695465Y-85768477D01*
X163779564Y-85781797D01*
X163897648Y-85800500D01*
X163897649Y-85800500D01*
X164102350Y-85800500D01*
X164102352Y-85800500D01*
X164158026Y-85791681D01*
X164227318Y-85800635D01*
X164265105Y-85826473D01*
X166021586Y-87582954D01*
X166051058Y-87602645D01*
X166095270Y-87632186D01*
X166144505Y-87665084D01*
X166144506Y-87665084D01*
X166144507Y-87665085D01*
X166144509Y-87665086D01*
X166281082Y-87721656D01*
X166281087Y-87721658D01*
X166281091Y-87721658D01*
X166281092Y-87721659D01*
X166426079Y-87750500D01*
X166426082Y-87750500D01*
X166426083Y-87750500D01*
X166573917Y-87750500D01*
X167874582Y-87750500D01*
X167941621Y-87770185D01*
X167974900Y-87801615D01*
X168008028Y-87847212D01*
X168008032Y-87847217D01*
X168152786Y-87991971D01*
X168307749Y-88104556D01*
X168318390Y-88112287D01*
X168434607Y-88171503D01*
X168500776Y-88205218D01*
X168500778Y-88205218D01*
X168500781Y-88205220D01*
X168605137Y-88239127D01*
X168695465Y-88268477D01*
X168779564Y-88281797D01*
X168897648Y-88300500D01*
X168897649Y-88300500D01*
X169102351Y-88300500D01*
X169102352Y-88300500D01*
X169304534Y-88268477D01*
X169499219Y-88205220D01*
X169681610Y-88112287D01*
X169774590Y-88044732D01*
X169847213Y-87991971D01*
X169847215Y-87991968D01*
X169847219Y-87991966D01*
X169991966Y-87847219D01*
X169991968Y-87847215D01*
X169991971Y-87847213D01*
X170062236Y-87750500D01*
X170112287Y-87681610D01*
X170205220Y-87499219D01*
X170268477Y-87304534D01*
X170300500Y-87102352D01*
X170300500Y-86897648D01*
X172699500Y-86897648D01*
X172699500Y-87102351D01*
X172731522Y-87304534D01*
X172794781Y-87499223D01*
X172887715Y-87681613D01*
X173008028Y-87847213D01*
X173152786Y-87991971D01*
X173307749Y-88104556D01*
X173318390Y-88112287D01*
X173434607Y-88171503D01*
X173500776Y-88205218D01*
X173500778Y-88205218D01*
X173500781Y-88205220D01*
X173605137Y-88239127D01*
X173695465Y-88268477D01*
X173779564Y-88281797D01*
X173897648Y-88300500D01*
X173897649Y-88300500D01*
X174102350Y-88300500D01*
X174102352Y-88300500D01*
X174158026Y-88291681D01*
X174227318Y-88300635D01*
X174265105Y-88326473D01*
X180213181Y-94274549D01*
X180246666Y-94335872D01*
X180249500Y-94362230D01*
X180249500Y-94932783D01*
X180229815Y-94999822D01*
X180187500Y-95040170D01*
X180069929Y-95108049D01*
X179896201Y-95241355D01*
X179896194Y-95241361D01*
X179741361Y-95396194D01*
X179741355Y-95396201D01*
X179608049Y-95569929D01*
X179498565Y-95759561D01*
X179498560Y-95759573D01*
X179414758Y-95961884D01*
X179358084Y-96173399D01*
X179358082Y-96173410D01*
X179329500Y-96390502D01*
X179329500Y-96609497D01*
X179353306Y-96790314D01*
X179358083Y-96826598D01*
X179414759Y-97038117D01*
X179498560Y-97240428D01*
X179498562Y-97240433D01*
X179498565Y-97240438D01*
X179608049Y-97430070D01*
X179741355Y-97603798D01*
X179741361Y-97603805D01*
X179896194Y-97758638D01*
X179896201Y-97758644D01*
X180069929Y-97891950D01*
X180259561Y-98001434D01*
X180259563Y-98001434D01*
X180259572Y-98001440D01*
X180461883Y-98085241D01*
X180673402Y-98141917D01*
X180890510Y-98170500D01*
X180890517Y-98170500D01*
X181109483Y-98170500D01*
X181109490Y-98170500D01*
X181326598Y-98141917D01*
X181538117Y-98085241D01*
X181740428Y-98001440D01*
X181930071Y-97891950D01*
X182103800Y-97758643D01*
X182258643Y-97603800D01*
X182391950Y-97430071D01*
X182501440Y-97240428D01*
X182585241Y-97038117D01*
X182641917Y-96826598D01*
X182670500Y-96609490D01*
X182670500Y-96390510D01*
X182641917Y-96173402D01*
X182585241Y-95961883D01*
X182501440Y-95759572D01*
X182391950Y-95569929D01*
X182258643Y-95396200D01*
X182258638Y-95396194D01*
X182103805Y-95241361D01*
X182103798Y-95241355D01*
X181930070Y-95108049D01*
X181812500Y-95040170D01*
X181764284Y-94989603D01*
X181750500Y-94932783D01*
X181750500Y-93926079D01*
X181721659Y-93781092D01*
X181721658Y-93781091D01*
X181721658Y-93781087D01*
X181721656Y-93781082D01*
X181665086Y-93644509D01*
X181665085Y-93644507D01*
X181632186Y-93595270D01*
X181632185Y-93595268D01*
X181582956Y-93521589D01*
X181582952Y-93521584D01*
X175326473Y-87265105D01*
X175292988Y-87203782D01*
X175291681Y-87158027D01*
X175300500Y-87102352D01*
X175300500Y-86897648D01*
X175268477Y-86695466D01*
X175205220Y-86500781D01*
X175205218Y-86500778D01*
X175205218Y-86500776D01*
X175171503Y-86434607D01*
X175112287Y-86318390D01*
X175062236Y-86249500D01*
X174991971Y-86152786D01*
X174847213Y-86008028D01*
X174681613Y-85887715D01*
X174681612Y-85887714D01*
X174681610Y-85887713D01*
X174624653Y-85858691D01*
X174499223Y-85794781D01*
X174304534Y-85731522D01*
X174129995Y-85703878D01*
X174102352Y-85699500D01*
X173897648Y-85699500D01*
X173873329Y-85703351D01*
X173695465Y-85731522D01*
X173500776Y-85794781D01*
X173318386Y-85887715D01*
X173152786Y-86008028D01*
X173008028Y-86152786D01*
X172887715Y-86318386D01*
X172794781Y-86500776D01*
X172731522Y-86695465D01*
X172699500Y-86897648D01*
X170300500Y-86897648D01*
X170268477Y-86695466D01*
X170205220Y-86500781D01*
X170205218Y-86500778D01*
X170205218Y-86500776D01*
X170171503Y-86434607D01*
X170112287Y-86318390D01*
X170062236Y-86249500D01*
X169991971Y-86152786D01*
X169847213Y-86008028D01*
X169681613Y-85887715D01*
X169681612Y-85887714D01*
X169681610Y-85887713D01*
X169624653Y-85858691D01*
X169499223Y-85794781D01*
X169304534Y-85731522D01*
X169129995Y-85703878D01*
X169102352Y-85699500D01*
X168897648Y-85699500D01*
X168873329Y-85703351D01*
X168695465Y-85731522D01*
X168500776Y-85794781D01*
X168318386Y-85887715D01*
X168152786Y-86008028D01*
X168008032Y-86152782D01*
X168008028Y-86152787D01*
X167974900Y-86198385D01*
X167919571Y-86241051D01*
X167874582Y-86249500D01*
X166862230Y-86249500D01*
X166795191Y-86229815D01*
X166774549Y-86213181D01*
X165326473Y-84765105D01*
X165292988Y-84703782D01*
X165291681Y-84658027D01*
X165300500Y-84602352D01*
X165300500Y-84397648D01*
X165272626Y-84221659D01*
X165268477Y-84195465D01*
X165205218Y-84000776D01*
X165171503Y-83934607D01*
X165112287Y-83818390D01*
X165104556Y-83807749D01*
X164991971Y-83652786D01*
X164847213Y-83508028D01*
X164681613Y-83387715D01*
X164681612Y-83387714D01*
X164681610Y-83387713D01*
X164624653Y-83358691D01*
X164499223Y-83294781D01*
X164304534Y-83231522D01*
X164129995Y-83203878D01*
X164102352Y-83199500D01*
X163897648Y-83199500D01*
X163873329Y-83203351D01*
X163695465Y-83231522D01*
X163500776Y-83294781D01*
X163318386Y-83387715D01*
X163152786Y-83508028D01*
X163008028Y-83652786D01*
X162887715Y-83818386D01*
X162794781Y-84000776D01*
X162731522Y-84195465D01*
X162699500Y-84397648D01*
X149950500Y-84397648D01*
X149950500Y-83243732D01*
X149970185Y-83176693D01*
X150022989Y-83130938D01*
X150035495Y-83126026D01*
X150069334Y-83114814D01*
X150218656Y-83022712D01*
X150342712Y-82898656D01*
X150434814Y-82749334D01*
X150489999Y-82582797D01*
X150500500Y-82480009D01*
X150500499Y-81279992D01*
X150489999Y-81177203D01*
X150434814Y-81010666D01*
X150342712Y-80861344D01*
X150218656Y-80737288D01*
X150069334Y-80645186D01*
X150069328Y-80645184D01*
X150035494Y-80633972D01*
X149978050Y-80594199D01*
X149951228Y-80529683D01*
X149950500Y-80516267D01*
X149950500Y-79412229D01*
X149970185Y-79345190D01*
X149986819Y-79324548D01*
X156274548Y-73036819D01*
X156335871Y-73003334D01*
X156362229Y-73000500D01*
X161387770Y-73000500D01*
X161454809Y-73020185D01*
X161475451Y-73036819D01*
X161901579Y-73462947D01*
X161901582Y-73462949D01*
X161901585Y-73462952D01*
X161927113Y-73480009D01*
X161927114Y-73480010D01*
X162024508Y-73545086D01*
X162074665Y-73565861D01*
X162081080Y-73568518D01*
X162161088Y-73601659D01*
X162277241Y-73624763D01*
X162300380Y-73629365D01*
X162306081Y-73630500D01*
X162306082Y-73630500D01*
X162306083Y-73630500D01*
X162453918Y-73630500D01*
X166926267Y-73630500D01*
X166993306Y-73650185D01*
X167039061Y-73702989D01*
X167043972Y-73715494D01*
X167055186Y-73749334D01*
X167147288Y-73898656D01*
X167271344Y-74022712D01*
X167420666Y-74114814D01*
X167502570Y-74141954D01*
X167560015Y-74181727D01*
X167586838Y-74246243D01*
X167574523Y-74315018D01*
X167536451Y-74359978D01*
X167442787Y-74428028D01*
X167442782Y-74428032D01*
X167298028Y-74572786D01*
X167177715Y-74738386D01*
X167084781Y-74920776D01*
X167021522Y-75115465D01*
X166989500Y-75317648D01*
X166989500Y-75522351D01*
X167021522Y-75724534D01*
X167084781Y-75919223D01*
X167127443Y-76002950D01*
X167165879Y-76078385D01*
X167177715Y-76101613D01*
X167298028Y-76267213D01*
X167442786Y-76411971D01*
X167597749Y-76524556D01*
X167608390Y-76532287D01*
X167699840Y-76578883D01*
X167701080Y-76579515D01*
X167751876Y-76627490D01*
X167768671Y-76695311D01*
X167746134Y-76761446D01*
X167701080Y-76800485D01*
X167608386Y-76847715D01*
X167442786Y-76968028D01*
X167298028Y-77112786D01*
X167177715Y-77278386D01*
X167084781Y-77460776D01*
X167021522Y-77655465D01*
X166989500Y-77857648D01*
X166989500Y-78062351D01*
X167021522Y-78264534D01*
X167084781Y-78459223D01*
X167142030Y-78571578D01*
X167177712Y-78641609D01*
X167177715Y-78641613D01*
X167298028Y-78807213D01*
X167442786Y-78951971D01*
X167597749Y-79064556D01*
X167608390Y-79072287D01*
X167699840Y-79118883D01*
X167701080Y-79119515D01*
X167751876Y-79167490D01*
X167768671Y-79235311D01*
X167746134Y-79301446D01*
X167701080Y-79340485D01*
X167608386Y-79387715D01*
X167442786Y-79508028D01*
X167298032Y-79652782D01*
X167298028Y-79652787D01*
X167264900Y-79698385D01*
X167209571Y-79741051D01*
X167164582Y-79749500D01*
X166612229Y-79749500D01*
X166545190Y-79729815D01*
X166524548Y-79713181D01*
X164852957Y-78041589D01*
X164819472Y-77980266D01*
X164824456Y-77910574D01*
X164852953Y-77866231D01*
X164991966Y-77727219D01*
X165112287Y-77561610D01*
X165205220Y-77379219D01*
X165268477Y-77184534D01*
X165300500Y-76982352D01*
X165300500Y-76777648D01*
X165286618Y-76690000D01*
X165268477Y-76575465D01*
X165215354Y-76411971D01*
X165205220Y-76380781D01*
X165205218Y-76380778D01*
X165205218Y-76380776D01*
X165147354Y-76267213D01*
X165112287Y-76198390D01*
X165071070Y-76141659D01*
X164991971Y-76032786D01*
X164847213Y-75888028D01*
X164681613Y-75767715D01*
X164681612Y-75767714D01*
X164681610Y-75767713D01*
X164596867Y-75724534D01*
X164499223Y-75674781D01*
X164304534Y-75611522D01*
X164129995Y-75583878D01*
X164102352Y-75579500D01*
X163897648Y-75579500D01*
X163873329Y-75583351D01*
X163695465Y-75611522D01*
X163500776Y-75674781D01*
X163318386Y-75767715D01*
X163152786Y-75888028D01*
X163008032Y-76032782D01*
X163008028Y-76032787D01*
X162974900Y-76078385D01*
X162919571Y-76121051D01*
X162874582Y-76129500D01*
X160125418Y-76129500D01*
X160058379Y-76109815D01*
X160025100Y-76078385D01*
X159991971Y-76032787D01*
X159991967Y-76032782D01*
X159847213Y-75888028D01*
X159681613Y-75767715D01*
X159681612Y-75767714D01*
X159681610Y-75767713D01*
X159596867Y-75724534D01*
X159499223Y-75674781D01*
X159304534Y-75611522D01*
X159129995Y-75583878D01*
X159102352Y-75579500D01*
X158897648Y-75579500D01*
X158873329Y-75583351D01*
X158695465Y-75611522D01*
X158500776Y-75674781D01*
X158318386Y-75767715D01*
X158152786Y-75888028D01*
X158008028Y-76032786D01*
X157887715Y-76198386D01*
X157794781Y-76380776D01*
X157731522Y-76575465D01*
X157699500Y-76777648D01*
X157699500Y-76982351D01*
X157731522Y-77184534D01*
X157794781Y-77379223D01*
X157887715Y-77561613D01*
X158008028Y-77727213D01*
X158152786Y-77871971D01*
X158274535Y-77960425D01*
X158318390Y-77992287D01*
X158434607Y-78051503D01*
X158500776Y-78085218D01*
X158500778Y-78085218D01*
X158500781Y-78085220D01*
X158605137Y-78119127D01*
X158695465Y-78148477D01*
X158796557Y-78164488D01*
X158897648Y-78180500D01*
X158897649Y-78180500D01*
X159102351Y-78180500D01*
X159102352Y-78180500D01*
X159304534Y-78148477D01*
X159499219Y-78085220D01*
X159681610Y-77992287D01*
X159801619Y-77905096D01*
X159847213Y-77871971D01*
X159847215Y-77871968D01*
X159847219Y-77871966D01*
X159991966Y-77727219D01*
X159994650Y-77723524D01*
X160025100Y-77681615D01*
X160080429Y-77638949D01*
X160125418Y-77630500D01*
X162874582Y-77630500D01*
X162941621Y-77650185D01*
X162974900Y-77681615D01*
X163008028Y-77727212D01*
X163008032Y-77727217D01*
X163008034Y-77727219D01*
X163152781Y-77871966D01*
X163198384Y-77905098D01*
X163241050Y-77960425D01*
X163249500Y-78005416D01*
X163249500Y-78323918D01*
X163249500Y-78323920D01*
X163249499Y-78323920D01*
X163278340Y-78468907D01*
X163278343Y-78468917D01*
X163334912Y-78605488D01*
X163334918Y-78605499D01*
X163348002Y-78625079D01*
X163348004Y-78625084D01*
X163417046Y-78728414D01*
X163417052Y-78728421D01*
X165667049Y-80978416D01*
X165771584Y-81082951D01*
X165771587Y-81082953D01*
X165771588Y-81082954D01*
X165894503Y-81165083D01*
X165894506Y-81165085D01*
X165944665Y-81185861D01*
X165951080Y-81188518D01*
X166031088Y-81221659D01*
X166147241Y-81244763D01*
X166170380Y-81249365D01*
X166176081Y-81250500D01*
X166176082Y-81250500D01*
X166176083Y-81250500D01*
X166323918Y-81250500D01*
X167164582Y-81250500D01*
X167231621Y-81270185D01*
X167264900Y-81301615D01*
X167298028Y-81347212D01*
X167298032Y-81347217D01*
X167442786Y-81491971D01*
X167597749Y-81604556D01*
X167608390Y-81612287D01*
X167724607Y-81671503D01*
X167790776Y-81705218D01*
X167790778Y-81705218D01*
X167790781Y-81705220D01*
X167895137Y-81739127D01*
X167985465Y-81768477D01*
X168086557Y-81784488D01*
X168187648Y-81800500D01*
X168187649Y-81800500D01*
X169192351Y-81800500D01*
X169192352Y-81800500D01*
X169394534Y-81768477D01*
X169589219Y-81705220D01*
X169771610Y-81612287D01*
X169864590Y-81544732D01*
X169937213Y-81491971D01*
X169937215Y-81491968D01*
X169937219Y-81491966D01*
X170081966Y-81347219D01*
X170081968Y-81347215D01*
X170081971Y-81347213D01*
X170156404Y-81244763D01*
X170202287Y-81181610D01*
X170295220Y-80999219D01*
X170358477Y-80804534D01*
X170390500Y-80602352D01*
X170390500Y-80397648D01*
X170358477Y-80195466D01*
X170295220Y-80000781D01*
X170295218Y-80000778D01*
X170295218Y-80000776D01*
X170261503Y-79934607D01*
X170202287Y-79818390D01*
X170152236Y-79749500D01*
X170081971Y-79652786D01*
X169937213Y-79508028D01*
X169771614Y-79387715D01*
X169765006Y-79384348D01*
X169678917Y-79340483D01*
X169628123Y-79292511D01*
X169611328Y-79224690D01*
X169633865Y-79158555D01*
X169678917Y-79119516D01*
X169771610Y-79072287D01*
X169792770Y-79056913D01*
X169937213Y-78951971D01*
X169937215Y-78951968D01*
X169937219Y-78951966D01*
X170081966Y-78807219D01*
X170084650Y-78803524D01*
X170115100Y-78761615D01*
X170170429Y-78718949D01*
X170215418Y-78710500D01*
X170847770Y-78710500D01*
X170914809Y-78730185D01*
X170935451Y-78746819D01*
X171963181Y-79774549D01*
X171996666Y-79835872D01*
X171999500Y-79862230D01*
X171999500Y-81573918D01*
X171999500Y-81573920D01*
X171999499Y-81573920D01*
X172028340Y-81718907D01*
X172028343Y-81718917D01*
X172084914Y-81855492D01*
X172117812Y-81904727D01*
X172117813Y-81904730D01*
X172167046Y-81978414D01*
X172167052Y-81978421D01*
X174167049Y-83978416D01*
X174271584Y-84082951D01*
X174271585Y-84082952D01*
X174394498Y-84165080D01*
X174394511Y-84165087D01*
X174531082Y-84221656D01*
X174531087Y-84221658D01*
X174531091Y-84221658D01*
X174531092Y-84221659D01*
X174676079Y-84250500D01*
X174676082Y-84250500D01*
X174676083Y-84250500D01*
X174823917Y-84250500D01*
X178637770Y-84250500D01*
X178704809Y-84270185D01*
X178725451Y-84286819D01*
X179021586Y-84582954D01*
X179047112Y-84600009D01*
X179095270Y-84632186D01*
X179144505Y-84665084D01*
X179144506Y-84665084D01*
X179144507Y-84665085D01*
X179144509Y-84665086D01*
X179235552Y-84702797D01*
X179281087Y-84721658D01*
X179281091Y-84721658D01*
X179281092Y-84721659D01*
X179426079Y-84750500D01*
X179426082Y-84750500D01*
X179426083Y-84750500D01*
X179573918Y-84750500D01*
X180833616Y-84750500D01*
X180900655Y-84770185D01*
X180946410Y-84822989D01*
X180951321Y-84835494D01*
X180962535Y-84869334D01*
X181054637Y-85018656D01*
X181178693Y-85142712D01*
X181328015Y-85234814D01*
X181494552Y-85289999D01*
X181597340Y-85300500D01*
X182797357Y-85300499D01*
X182900146Y-85289999D01*
X183066683Y-85234814D01*
X183216005Y-85142712D01*
X183340061Y-85018656D01*
X183432163Y-84869334D01*
X183487348Y-84702797D01*
X183497849Y-84600009D01*
X183497848Y-83399992D01*
X183487348Y-83297203D01*
X183432163Y-83130666D01*
X183340061Y-82981344D01*
X183216005Y-82857288D01*
X183088014Y-82778343D01*
X183066685Y-82765187D01*
X183066680Y-82765185D01*
X183065211Y-82764698D01*
X182900146Y-82710001D01*
X182900144Y-82710000D01*
X182797359Y-82699500D01*
X181597347Y-82699500D01*
X181597330Y-82699501D01*
X181494552Y-82710000D01*
X181494549Y-82710001D01*
X181328017Y-82765185D01*
X181328012Y-82765187D01*
X181178691Y-82857289D01*
X181054638Y-82981342D01*
X180962536Y-83130663D01*
X180962533Y-83130671D01*
X180951321Y-83164506D01*
X180911548Y-83221950D01*
X180847032Y-83248772D01*
X180833616Y-83249500D01*
X179862230Y-83249500D01*
X179795191Y-83229815D01*
X179774549Y-83213181D01*
X179478421Y-82917052D01*
X179478420Y-82917051D01*
X179388977Y-82857288D01*
X179388976Y-82857287D01*
X179355500Y-82834919D01*
X179355488Y-82834912D01*
X179218917Y-82778343D01*
X179218907Y-82778340D01*
X179073920Y-82749500D01*
X179073918Y-82749500D01*
X175112229Y-82749500D01*
X175045190Y-82729815D01*
X175024548Y-82713181D01*
X173536819Y-81225451D01*
X173503334Y-81164128D01*
X173500500Y-81137770D01*
X173500500Y-79426079D01*
X173471659Y-79281092D01*
X173471658Y-79281091D01*
X173471658Y-79281087D01*
X173415084Y-79144505D01*
X173366830Y-79072287D01*
X173366830Y-79072286D01*
X173332950Y-79021581D01*
X171688421Y-77377052D01*
X171688414Y-77377046D01*
X171614729Y-77327812D01*
X171614729Y-77327813D01*
X171565491Y-77294913D01*
X171428917Y-77238343D01*
X171428907Y-77238340D01*
X171283920Y-77209500D01*
X171283918Y-77209500D01*
X170215418Y-77209500D01*
X170148379Y-77189815D01*
X170115100Y-77158385D01*
X170081971Y-77112787D01*
X170081967Y-77112782D01*
X169937213Y-76968028D01*
X169771614Y-76847715D01*
X169765006Y-76844348D01*
X169678917Y-76800483D01*
X169628123Y-76752511D01*
X169611328Y-76684690D01*
X169633865Y-76618555D01*
X169678917Y-76579516D01*
X169771610Y-76532287D01*
X169792770Y-76516913D01*
X169937213Y-76411971D01*
X169937215Y-76411968D01*
X169937219Y-76411966D01*
X170081966Y-76267219D01*
X170084650Y-76263524D01*
X170115100Y-76221615D01*
X170170429Y-76178949D01*
X170215418Y-76170500D01*
X171403920Y-76170500D01*
X171501462Y-76151096D01*
X171548913Y-76141658D01*
X171685495Y-76085084D01*
X171734729Y-76052186D01*
X171808416Y-76002952D01*
X173082952Y-74728416D01*
X173154064Y-74621987D01*
X173165084Y-74605495D01*
X173221658Y-74468913D01*
X173250500Y-74323918D01*
X173250500Y-71362230D01*
X173270185Y-71295191D01*
X173286819Y-71274549D01*
X175274549Y-69286819D01*
X175335872Y-69253334D01*
X175362230Y-69250500D01*
X178706243Y-69250500D01*
X178803785Y-69231096D01*
X178851236Y-69221658D01*
X178987818Y-69165084D01*
X179037052Y-69132186D01*
X179110739Y-69082952D01*
X181156871Y-67036817D01*
X181218194Y-67003333D01*
X181244552Y-67000499D01*
X182432325Y-67000499D01*
X182432331Y-67000499D01*
X182535120Y-66989999D01*
X182701657Y-66934814D01*
X182850979Y-66842712D01*
X182975035Y-66718656D01*
X183067137Y-66569334D01*
X183122322Y-66402797D01*
X183132823Y-66300009D01*
X183132822Y-64699992D01*
X183122322Y-64597203D01*
X183067137Y-64430666D01*
X182975035Y-64281344D01*
X182850979Y-64157288D01*
X182701657Y-64065186D01*
X182535120Y-64010001D01*
X182535118Y-64010000D01*
X182432333Y-63999500D01*
X180832321Y-63999500D01*
X180832304Y-63999501D01*
X180729526Y-64010000D01*
X180729523Y-64010001D01*
X180562991Y-64065185D01*
X180562986Y-64065187D01*
X180413665Y-64157289D01*
X180289612Y-64281342D01*
X180197510Y-64430663D01*
X180197509Y-64430666D01*
X180142324Y-64597203D01*
X180142324Y-64597204D01*
X180142323Y-64597204D01*
X180131823Y-64699983D01*
X180131823Y-65887769D01*
X180112138Y-65954808D01*
X180095504Y-65975450D01*
X178357774Y-67713181D01*
X178296451Y-67746666D01*
X178270093Y-67749500D01*
X174926080Y-67749500D01*
X174781092Y-67778340D01*
X174781086Y-67778342D01*
X174644508Y-67834914D01*
X174644496Y-67834921D01*
X174595269Y-67867813D01*
X174521588Y-67917044D01*
X174521580Y-67917050D01*
X171917048Y-70521583D01*
X171896478Y-70552369D01*
X171876045Y-70582951D01*
X171834919Y-70644499D01*
X171834912Y-70644511D01*
X171778343Y-70781082D01*
X171778340Y-70781092D01*
X171749500Y-70926079D01*
X171749500Y-73887770D01*
X171729815Y-73954809D01*
X171713181Y-73975451D01*
X171055451Y-74633181D01*
X170994128Y-74666666D01*
X170967770Y-74669500D01*
X170215418Y-74669500D01*
X170148379Y-74649815D01*
X170115100Y-74618385D01*
X170081971Y-74572787D01*
X170081967Y-74572782D01*
X169937219Y-74428034D01*
X169937211Y-74428028D01*
X169843547Y-74359978D01*
X169800882Y-74304649D01*
X169794903Y-74235036D01*
X169827508Y-74173240D01*
X169877426Y-74141955D01*
X169959334Y-74114814D01*
X170108656Y-74022712D01*
X170232712Y-73898656D01*
X170324814Y-73749334D01*
X170379999Y-73582797D01*
X170390500Y-73480009D01*
X170390499Y-72279992D01*
X170379999Y-72177203D01*
X170324814Y-72010666D01*
X170232712Y-71861344D01*
X170108656Y-71737288D01*
X169959334Y-71645186D01*
X169792797Y-71590001D01*
X169792795Y-71590000D01*
X169690010Y-71579500D01*
X167689998Y-71579500D01*
X167689981Y-71579501D01*
X167587203Y-71590000D01*
X167587200Y-71590001D01*
X167420668Y-71645185D01*
X167420663Y-71645187D01*
X167271342Y-71737289D01*
X167147289Y-71861342D01*
X167055187Y-72010663D01*
X167055184Y-72010671D01*
X167043972Y-72044506D01*
X167004199Y-72101950D01*
X166939683Y-72128772D01*
X166926267Y-72129500D01*
X163231230Y-72129500D01*
X163164191Y-72109815D01*
X163118436Y-72057011D01*
X163108492Y-71987853D01*
X163137517Y-71924297D01*
X163143549Y-71917819D01*
X164582947Y-70478420D01*
X164582950Y-70478417D01*
X164582949Y-70478417D01*
X164582952Y-70478415D01*
X164623955Y-70417049D01*
X164665084Y-70355495D01*
X164697042Y-70278342D01*
X164721659Y-70218912D01*
X164750500Y-70073917D01*
X164750500Y-69926082D01*
X164750500Y-69625416D01*
X164770185Y-69558377D01*
X164801613Y-69525099D01*
X164847219Y-69491966D01*
X164991966Y-69347219D01*
X164991968Y-69347215D01*
X164991971Y-69347213D01*
X165062236Y-69250500D01*
X165112287Y-69181610D01*
X165205220Y-68999219D01*
X165268477Y-68804534D01*
X165300500Y-68602352D01*
X165300500Y-68397648D01*
X165268477Y-68195465D01*
X165205218Y-68000776D01*
X165137469Y-67867813D01*
X165112287Y-67818390D01*
X165060177Y-67746666D01*
X164991971Y-67652786D01*
X164847217Y-67508032D01*
X164847212Y-67508028D01*
X164801615Y-67474900D01*
X164758949Y-67419571D01*
X164750500Y-67374582D01*
X164750500Y-64375416D01*
X164770185Y-64308377D01*
X164801613Y-64275099D01*
X164847219Y-64241966D01*
X164991966Y-64097219D01*
X164991968Y-64097215D01*
X164991971Y-64097213D01*
X165055334Y-64010000D01*
X165112287Y-63931610D01*
X165205220Y-63749219D01*
X165268477Y-63554534D01*
X165300500Y-63352352D01*
X165300500Y-63147648D01*
X165268477Y-62945466D01*
X165205220Y-62750781D01*
X165205218Y-62750778D01*
X165205218Y-62750776D01*
X165171503Y-62684607D01*
X165112287Y-62568390D01*
X165039492Y-62468195D01*
X164991971Y-62402786D01*
X164847213Y-62258028D01*
X164681613Y-62137715D01*
X164681612Y-62137714D01*
X164681610Y-62137713D01*
X164574136Y-62082952D01*
X164499223Y-62044781D01*
X164304534Y-61981522D01*
X164129995Y-61953878D01*
X164102352Y-61949500D01*
X163897648Y-61949500D01*
X163873329Y-61953351D01*
X163695465Y-61981522D01*
X163500776Y-62044781D01*
X163318386Y-62137715D01*
X163152786Y-62258028D01*
X163008028Y-62402786D01*
X162887715Y-62568386D01*
X162794781Y-62750776D01*
X162731522Y-62945465D01*
X162699500Y-63147648D01*
X162699500Y-63352351D01*
X162731522Y-63554534D01*
X162794781Y-63749223D01*
X162887715Y-63931613D01*
X163008028Y-64097213D01*
X163008034Y-64097219D01*
X163152781Y-64241966D01*
X163198384Y-64275098D01*
X163241050Y-64330425D01*
X163249500Y-64375416D01*
X163249500Y-67374582D01*
X163229815Y-67441621D01*
X163198385Y-67474900D01*
X163152787Y-67508028D01*
X163152782Y-67508032D01*
X163008028Y-67652786D01*
X162887715Y-67818386D01*
X162794781Y-68000776D01*
X162731522Y-68195465D01*
X162699500Y-68397648D01*
X162699500Y-68602351D01*
X162731522Y-68804534D01*
X162794781Y-68999223D01*
X162887715Y-69181613D01*
X163008028Y-69347213D01*
X163008034Y-69347219D01*
X163152781Y-69491966D01*
X163198384Y-69525098D01*
X163201724Y-69529429D01*
X163206703Y-69531703D01*
X163222832Y-69556801D01*
X163241050Y-69580425D01*
X163242303Y-69587098D01*
X163244477Y-69590481D01*
X163249500Y-69625416D01*
X163249500Y-69637770D01*
X163229815Y-69704809D01*
X163213181Y-69725451D01*
X161475451Y-71463181D01*
X161414128Y-71496666D01*
X161387770Y-71499500D01*
X155926080Y-71499500D01*
X155781092Y-71528340D01*
X155781082Y-71528343D01*
X155644511Y-71584912D01*
X155644498Y-71584919D01*
X155521584Y-71667048D01*
X155521580Y-71667051D01*
X148617052Y-78571578D01*
X148617049Y-78571581D01*
X148570258Y-78641609D01*
X148570259Y-78641610D01*
X148534914Y-78694508D01*
X148478343Y-78831082D01*
X148478340Y-78831092D01*
X148449500Y-78976079D01*
X148449500Y-80516267D01*
X148429815Y-80583306D01*
X148377011Y-80629061D01*
X148364506Y-80633972D01*
X148330671Y-80645184D01*
X148330663Y-80645187D01*
X148181342Y-80737289D01*
X148057289Y-80861342D01*
X147965187Y-81010663D01*
X147965186Y-81010666D01*
X147910001Y-81177203D01*
X147910001Y-81177204D01*
X147910000Y-81177204D01*
X147899500Y-81279983D01*
X146500000Y-81279983D01*
X146500000Y-68389778D01*
X151099500Y-68389778D01*
X151099500Y-68610221D01*
X151133985Y-68827952D01*
X151202103Y-69037603D01*
X151202104Y-69037606D01*
X151225209Y-69082950D01*
X151295885Y-69221658D01*
X151302187Y-69234025D01*
X151431752Y-69412358D01*
X151431756Y-69412363D01*
X151587636Y-69568243D01*
X151587641Y-69568247D01*
X151743192Y-69681260D01*
X151765978Y-69697815D01*
X151894375Y-69763237D01*
X151962393Y-69797895D01*
X151962396Y-69797896D01*
X152067221Y-69831955D01*
X152172049Y-69866015D01*
X152389778Y-69900500D01*
X152389779Y-69900500D01*
X152610221Y-69900500D01*
X152610222Y-69900500D01*
X152827951Y-69866015D01*
X153037606Y-69797895D01*
X153234022Y-69697815D01*
X153412365Y-69568242D01*
X153568242Y-69412365D01*
X153648705Y-69301615D01*
X153704035Y-69258949D01*
X153749024Y-69250500D01*
X155254582Y-69250500D01*
X155321621Y-69270185D01*
X155354900Y-69301615D01*
X155388028Y-69347212D01*
X155388032Y-69347217D01*
X155532786Y-69491971D01*
X155654535Y-69580425D01*
X155698390Y-69612287D01*
X155814607Y-69671503D01*
X155880776Y-69705218D01*
X155880778Y-69705218D01*
X155880781Y-69705220D01*
X155943046Y-69725451D01*
X156075465Y-69768477D01*
X156176557Y-69784488D01*
X156277648Y-69800500D01*
X156277649Y-69800500D01*
X156482351Y-69800500D01*
X156482352Y-69800500D01*
X156684534Y-69768477D01*
X156879219Y-69705220D01*
X157061610Y-69612287D01*
X157181619Y-69525096D01*
X157227213Y-69491971D01*
X157227215Y-69491968D01*
X157227219Y-69491966D01*
X157371966Y-69347219D01*
X157371968Y-69347215D01*
X157371971Y-69347213D01*
X157442236Y-69250500D01*
X157492287Y-69181610D01*
X157585220Y-68999219D01*
X157648477Y-68804534D01*
X157680500Y-68602352D01*
X157680500Y-68397648D01*
X157648477Y-68195465D01*
X157585218Y-68000776D01*
X157517469Y-67867813D01*
X157492287Y-67818390D01*
X157440177Y-67746666D01*
X157371971Y-67652786D01*
X157227213Y-67508028D01*
X157061613Y-67387715D01*
X157061612Y-67387714D01*
X157061610Y-67387713D01*
X157004653Y-67358691D01*
X156879223Y-67294781D01*
X156684534Y-67231522D01*
X156498799Y-67202105D01*
X156482352Y-67199500D01*
X156277648Y-67199500D01*
X156261201Y-67202105D01*
X156075465Y-67231522D01*
X155880776Y-67294781D01*
X155698386Y-67387715D01*
X155532786Y-67508028D01*
X155388032Y-67652782D01*
X155388028Y-67652787D01*
X155354900Y-67698385D01*
X155299571Y-67741051D01*
X155254582Y-67749500D01*
X153749024Y-67749500D01*
X153681985Y-67729815D01*
X153648705Y-67698384D01*
X153568245Y-67587638D01*
X153412363Y-67431756D01*
X153412358Y-67431752D01*
X153234025Y-67302187D01*
X153234024Y-67302186D01*
X153234022Y-67302185D01*
X153171096Y-67270122D01*
X153037606Y-67202104D01*
X153037603Y-67202103D01*
X152827952Y-67133985D01*
X152719086Y-67116742D01*
X152610222Y-67099500D01*
X152389778Y-67099500D01*
X152317201Y-67110995D01*
X152172047Y-67133985D01*
X151962396Y-67202103D01*
X151962393Y-67202104D01*
X151765974Y-67302187D01*
X151587641Y-67431752D01*
X151587636Y-67431756D01*
X151431756Y-67587636D01*
X151431752Y-67587641D01*
X151302187Y-67765974D01*
X151202104Y-67962393D01*
X151202103Y-67962396D01*
X151133985Y-68172047D01*
X151099500Y-68389778D01*
X146500000Y-68389778D01*
X146500000Y-60624500D01*
X146519685Y-60557461D01*
X146572489Y-60511706D01*
X146624000Y-60500500D01*
X172690999Y-60500500D01*
X172758038Y-60520185D01*
G37*
%TD.AperFunction*%
%TD*%
%TA.AperFunction,Conductor*%
%TO.N,GND*%
G36*
X125758038Y-60520185D02*
G01*
X125803793Y-60572989D01*
X125813737Y-60642147D01*
X125790265Y-60698810D01*
X125770238Y-60725562D01*
X125746204Y-60757668D01*
X125746202Y-60757671D01*
X125695908Y-60892517D01*
X125689501Y-60952116D01*
X125689500Y-60952135D01*
X125689500Y-64047870D01*
X125689501Y-64047876D01*
X125695908Y-64107483D01*
X125746202Y-64242328D01*
X125746206Y-64242335D01*
X125832452Y-64357544D01*
X125832455Y-64357547D01*
X125947664Y-64443793D01*
X125947671Y-64443797D01*
X126082517Y-64494091D01*
X126082516Y-64494091D01*
X126089444Y-64494835D01*
X126142127Y-64500500D01*
X129237872Y-64500499D01*
X129297483Y-64494091D01*
X129432331Y-64443796D01*
X129547546Y-64357546D01*
X129633796Y-64242331D01*
X129684091Y-64107483D01*
X129690500Y-64047873D01*
X129690499Y-62374499D01*
X129710184Y-62307461D01*
X129762987Y-62261706D01*
X129814499Y-62250500D01*
X130323920Y-62250500D01*
X130421462Y-62231096D01*
X130468913Y-62221658D01*
X130605495Y-62165084D01*
X130654729Y-62132186D01*
X130728416Y-62082952D01*
X131274548Y-61536818D01*
X131335871Y-61503334D01*
X131362229Y-61500500D01*
X137887770Y-61500500D01*
X137954809Y-61520185D01*
X137975451Y-61536819D01*
X138845504Y-62406872D01*
X138878989Y-62468195D01*
X138881823Y-62494553D01*
X138881823Y-64127368D01*
X138862138Y-64194407D01*
X138830709Y-64227686D01*
X138654811Y-64355484D01*
X138487808Y-64522487D01*
X138487808Y-64522488D01*
X138487806Y-64522490D01*
X138433526Y-64597200D01*
X138348980Y-64713566D01*
X138241756Y-64924003D01*
X138168769Y-65148631D01*
X138131823Y-65381902D01*
X138131823Y-65618097D01*
X138168769Y-65851368D01*
X138241756Y-66075996D01*
X138348980Y-66286433D01*
X138487806Y-66477510D01*
X138654813Y-66644517D01*
X138845890Y-66783343D01*
X138945314Y-66834002D01*
X139056326Y-66890566D01*
X139056328Y-66890566D01*
X139056331Y-66890568D01*
X139176735Y-66929689D01*
X139280954Y-66963553D01*
X139514226Y-67000500D01*
X139514231Y-67000500D01*
X139750420Y-67000500D01*
X139983691Y-66963553D01*
X140208315Y-66890568D01*
X140418756Y-66783343D01*
X140609833Y-66644517D01*
X140776840Y-66477510D01*
X140915666Y-66286433D01*
X141022891Y-66075992D01*
X141095876Y-65851368D01*
X141132823Y-65618097D01*
X141132823Y-65381902D01*
X141095876Y-65148631D01*
X141022889Y-64924003D01*
X140915665Y-64713566D01*
X140776840Y-64522490D01*
X140609833Y-64355483D01*
X140507787Y-64281342D01*
X140433937Y-64227686D01*
X140391272Y-64172355D01*
X140382823Y-64127368D01*
X140382823Y-62058402D01*
X140353982Y-61913415D01*
X140353981Y-61913414D01*
X140353981Y-61913410D01*
X140297407Y-61776828D01*
X140258709Y-61718912D01*
X140258708Y-61718910D01*
X140258707Y-61718908D01*
X140215276Y-61653908D01*
X140215270Y-61653901D01*
X139273549Y-60712181D01*
X139240064Y-60650858D01*
X139245048Y-60581167D01*
X139286920Y-60525233D01*
X139352384Y-60500816D01*
X139361230Y-60500500D01*
X142376000Y-60500500D01*
X142443039Y-60520185D01*
X142488794Y-60572989D01*
X142500000Y-60624500D01*
X142500000Y-99876000D01*
X142480315Y-99943039D01*
X142427511Y-99988794D01*
X142376000Y-100000000D01*
X100124500Y-100000000D01*
X100057461Y-99980315D01*
X100011706Y-99927511D01*
X100000500Y-99876000D01*
X100000500Y-81279983D01*
X100899500Y-81279983D01*
X100899500Y-82480001D01*
X100899501Y-82480018D01*
X100910000Y-82582796D01*
X100910001Y-82582799D01*
X100965185Y-82749331D01*
X100965187Y-82749336D01*
X100974964Y-82765187D01*
X101057288Y-82898656D01*
X101181344Y-83022712D01*
X101330666Y-83114814D01*
X101364500Y-83126025D01*
X101421947Y-83165796D01*
X101448772Y-83230311D01*
X101449500Y-83243732D01*
X101449500Y-89773918D01*
X101449500Y-89773920D01*
X101449499Y-89773920D01*
X101478340Y-89918907D01*
X101478343Y-89918917D01*
X101534913Y-90055490D01*
X101534914Y-90055491D01*
X101534916Y-90055495D01*
X101540936Y-90064504D01*
X101540937Y-90064507D01*
X101617046Y-90178414D01*
X101617052Y-90178421D01*
X102133181Y-90694549D01*
X102166666Y-90755872D01*
X102169500Y-90782230D01*
X102169500Y-94375500D01*
X102149815Y-94442539D01*
X102097011Y-94488294D01*
X102045500Y-94499500D01*
X101372129Y-94499500D01*
X101372123Y-94499501D01*
X101312516Y-94505908D01*
X101177671Y-94556202D01*
X101177664Y-94556206D01*
X101062455Y-94642452D01*
X101062452Y-94642455D01*
X100976206Y-94757664D01*
X100976202Y-94757671D01*
X100925908Y-94892517D01*
X100919501Y-94952116D01*
X100919501Y-94952123D01*
X100919500Y-94952135D01*
X100919500Y-98047870D01*
X100919501Y-98047876D01*
X100925908Y-98107483D01*
X100976202Y-98242328D01*
X100976206Y-98242335D01*
X101062452Y-98357544D01*
X101062455Y-98357547D01*
X101177664Y-98443793D01*
X101177671Y-98443797D01*
X101312517Y-98494091D01*
X101312516Y-98494091D01*
X101319444Y-98494835D01*
X101372127Y-98500500D01*
X104467872Y-98500499D01*
X104527483Y-98494091D01*
X104662331Y-98443796D01*
X104777546Y-98357546D01*
X104863796Y-98242331D01*
X104914091Y-98107483D01*
X104920500Y-98047873D01*
X104920499Y-94952135D01*
X113919500Y-94952135D01*
X113919500Y-98047870D01*
X113919501Y-98047876D01*
X113925908Y-98107483D01*
X113976202Y-98242328D01*
X113976206Y-98242335D01*
X114062452Y-98357544D01*
X114062455Y-98357547D01*
X114177664Y-98443793D01*
X114177671Y-98443797D01*
X114312517Y-98494091D01*
X114312516Y-98494091D01*
X114319444Y-98494835D01*
X114372127Y-98500500D01*
X117467872Y-98500499D01*
X117527483Y-98494091D01*
X117662331Y-98443796D01*
X117777546Y-98357546D01*
X117863796Y-98242331D01*
X117914091Y-98107483D01*
X117920500Y-98047873D01*
X117920499Y-94952128D01*
X117914091Y-94892517D01*
X117875318Y-94788561D01*
X117870334Y-94718870D01*
X117903817Y-94657549D01*
X119274549Y-93286819D01*
X119335872Y-93253334D01*
X119362230Y-93250500D01*
X127137770Y-93250500D01*
X127204809Y-93270185D01*
X127225451Y-93286819D01*
X128213181Y-94274548D01*
X128246666Y-94335871D01*
X128249500Y-94362229D01*
X128249500Y-94932783D01*
X128229815Y-94999822D01*
X128187500Y-95040170D01*
X128069929Y-95108049D01*
X127896201Y-95241355D01*
X127896194Y-95241361D01*
X127741361Y-95396194D01*
X127741355Y-95396201D01*
X127608049Y-95569929D01*
X127498565Y-95759561D01*
X127498560Y-95759573D01*
X127414758Y-95961884D01*
X127358084Y-96173399D01*
X127358082Y-96173410D01*
X127329500Y-96390502D01*
X127329500Y-96609497D01*
X127353306Y-96790314D01*
X127358083Y-96826598D01*
X127414759Y-97038117D01*
X127498560Y-97240428D01*
X127498562Y-97240433D01*
X127498565Y-97240438D01*
X127608049Y-97430070D01*
X127741355Y-97603798D01*
X127741361Y-97603805D01*
X127896194Y-97758638D01*
X127896201Y-97758644D01*
X128069929Y-97891950D01*
X128259561Y-98001434D01*
X128259563Y-98001434D01*
X128259572Y-98001440D01*
X128461883Y-98085241D01*
X128673402Y-98141917D01*
X128890510Y-98170500D01*
X128890517Y-98170500D01*
X129109483Y-98170500D01*
X129109490Y-98170500D01*
X129326598Y-98141917D01*
X129538117Y-98085241D01*
X129740428Y-98001440D01*
X129930071Y-97891950D01*
X130103800Y-97758643D01*
X130258643Y-97603800D01*
X130391950Y-97430071D01*
X130501440Y-97240428D01*
X130585241Y-97038117D01*
X130641917Y-96826598D01*
X130670500Y-96609490D01*
X130670500Y-96390510D01*
X130641917Y-96173402D01*
X130585241Y-95961883D01*
X130501440Y-95759572D01*
X130391950Y-95569929D01*
X130258643Y-95396200D01*
X130258638Y-95396194D01*
X130103805Y-95241361D01*
X130103798Y-95241355D01*
X129930070Y-95108049D01*
X129812500Y-95040170D01*
X129764284Y-94989603D01*
X129750500Y-94932783D01*
X129750500Y-93926079D01*
X129721659Y-93781092D01*
X129721658Y-93781091D01*
X129721658Y-93781087D01*
X129721656Y-93781082D01*
X129665087Y-93644511D01*
X129665080Y-93644498D01*
X129582952Y-93521585D01*
X129582951Y-93521584D01*
X129478416Y-93417049D01*
X129311867Y-93250500D01*
X127978421Y-91917052D01*
X127978414Y-91917046D01*
X127904729Y-91867812D01*
X127904729Y-91867813D01*
X127855491Y-91834913D01*
X127718917Y-91778343D01*
X127718907Y-91778340D01*
X127573920Y-91749500D01*
X127573918Y-91749500D01*
X118926082Y-91749500D01*
X118926080Y-91749500D01*
X118781092Y-91778340D01*
X118781086Y-91778342D01*
X118644508Y-91834914D01*
X118644496Y-91834921D01*
X118595269Y-91867813D01*
X118521588Y-91917044D01*
X118521580Y-91917050D01*
X115975449Y-94463181D01*
X115914126Y-94496666D01*
X115887768Y-94499500D01*
X114372129Y-94499500D01*
X114372123Y-94499501D01*
X114312516Y-94505908D01*
X114177671Y-94556202D01*
X114177664Y-94556206D01*
X114062455Y-94642452D01*
X114062452Y-94642455D01*
X113976206Y-94757664D01*
X113976202Y-94757671D01*
X113925908Y-94892517D01*
X113919501Y-94952116D01*
X113919501Y-94952123D01*
X113919500Y-94952135D01*
X104920499Y-94952135D01*
X104920499Y-94952128D01*
X104914091Y-94892517D01*
X104863796Y-94757669D01*
X104863795Y-94757668D01*
X104863793Y-94757664D01*
X104777547Y-94642455D01*
X104777544Y-94642452D01*
X104662335Y-94556206D01*
X104662328Y-94556202D01*
X104527482Y-94505908D01*
X104527483Y-94505908D01*
X104467883Y-94499501D01*
X104467881Y-94499500D01*
X104467873Y-94499500D01*
X104467865Y-94499500D01*
X103794500Y-94499500D01*
X103727461Y-94479815D01*
X103681706Y-94427011D01*
X103670500Y-94375500D01*
X103670500Y-90346079D01*
X103641659Y-90201092D01*
X103641658Y-90201091D01*
X103641658Y-90201087D01*
X103641656Y-90201082D01*
X103585086Y-90064508D01*
X103552186Y-90015270D01*
X103552185Y-90015268D01*
X103502956Y-89941589D01*
X103502952Y-89941584D01*
X102986819Y-89425451D01*
X102953334Y-89364128D01*
X102950500Y-89337770D01*
X102950500Y-84397648D01*
X115699500Y-84397648D01*
X115699500Y-84602351D01*
X115731522Y-84804534D01*
X115794781Y-84999223D01*
X115858691Y-85124653D01*
X115867893Y-85142712D01*
X115887715Y-85181613D01*
X116008028Y-85347213D01*
X116152786Y-85491971D01*
X116307749Y-85604556D01*
X116318390Y-85612287D01*
X116434607Y-85671503D01*
X116500776Y-85705218D01*
X116500778Y-85705218D01*
X116500781Y-85705220D01*
X116605137Y-85739127D01*
X116695465Y-85768477D01*
X116779564Y-85781797D01*
X116897648Y-85800500D01*
X116897649Y-85800500D01*
X117102350Y-85800500D01*
X117102352Y-85800500D01*
X117158026Y-85791681D01*
X117227318Y-85800635D01*
X117265105Y-85826473D01*
X119021586Y-87582954D01*
X119051058Y-87602645D01*
X119095270Y-87632186D01*
X119144505Y-87665084D01*
X119144506Y-87665084D01*
X119144507Y-87665085D01*
X119144509Y-87665086D01*
X119281082Y-87721656D01*
X119281087Y-87721658D01*
X119281091Y-87721658D01*
X119281092Y-87721659D01*
X119426079Y-87750500D01*
X119426082Y-87750500D01*
X119426083Y-87750500D01*
X119573917Y-87750500D01*
X120874582Y-87750500D01*
X120941621Y-87770185D01*
X120974900Y-87801615D01*
X121008028Y-87847212D01*
X121008032Y-87847217D01*
X121152786Y-87991971D01*
X121307749Y-88104556D01*
X121318390Y-88112287D01*
X121434607Y-88171503D01*
X121500776Y-88205218D01*
X121500778Y-88205218D01*
X121500781Y-88205220D01*
X121605137Y-88239127D01*
X121695465Y-88268477D01*
X121779564Y-88281797D01*
X121897648Y-88300500D01*
X121897649Y-88300500D01*
X122102351Y-88300500D01*
X122102352Y-88300500D01*
X122304534Y-88268477D01*
X122499219Y-88205220D01*
X122681610Y-88112287D01*
X122774590Y-88044732D01*
X122847213Y-87991971D01*
X122847215Y-87991968D01*
X122847219Y-87991966D01*
X122991966Y-87847219D01*
X122991968Y-87847215D01*
X122991971Y-87847213D01*
X123062236Y-87750500D01*
X123112287Y-87681610D01*
X123205220Y-87499219D01*
X123268477Y-87304534D01*
X123300500Y-87102352D01*
X123300500Y-86897648D01*
X125699500Y-86897648D01*
X125699500Y-87102351D01*
X125731522Y-87304534D01*
X125794781Y-87499223D01*
X125887715Y-87681613D01*
X126008028Y-87847213D01*
X126152786Y-87991971D01*
X126307749Y-88104556D01*
X126318390Y-88112287D01*
X126434607Y-88171503D01*
X126500776Y-88205218D01*
X126500778Y-88205218D01*
X126500781Y-88205220D01*
X126605137Y-88239127D01*
X126695465Y-88268477D01*
X126779564Y-88281797D01*
X126897648Y-88300500D01*
X126897649Y-88300500D01*
X127102350Y-88300500D01*
X127102352Y-88300500D01*
X127158026Y-88291681D01*
X127227318Y-88300635D01*
X127265105Y-88326473D01*
X133213181Y-94274549D01*
X133246666Y-94335872D01*
X133249500Y-94362230D01*
X133249500Y-94932783D01*
X133229815Y-94999822D01*
X133187500Y-95040170D01*
X133069929Y-95108049D01*
X132896201Y-95241355D01*
X132896194Y-95241361D01*
X132741361Y-95396194D01*
X132741355Y-95396201D01*
X132608049Y-95569929D01*
X132498565Y-95759561D01*
X132498560Y-95759573D01*
X132414758Y-95961884D01*
X132358084Y-96173399D01*
X132358082Y-96173410D01*
X132329500Y-96390502D01*
X132329500Y-96609497D01*
X132353306Y-96790314D01*
X132358083Y-96826598D01*
X132414759Y-97038117D01*
X132498560Y-97240428D01*
X132498562Y-97240433D01*
X132498565Y-97240438D01*
X132608049Y-97430070D01*
X132741355Y-97603798D01*
X132741361Y-97603805D01*
X132896194Y-97758638D01*
X132896201Y-97758644D01*
X133069929Y-97891950D01*
X133259561Y-98001434D01*
X133259563Y-98001434D01*
X133259572Y-98001440D01*
X133461883Y-98085241D01*
X133673402Y-98141917D01*
X133890510Y-98170500D01*
X133890517Y-98170500D01*
X134109483Y-98170500D01*
X134109490Y-98170500D01*
X134326598Y-98141917D01*
X134538117Y-98085241D01*
X134740428Y-98001440D01*
X134930071Y-97891950D01*
X135103800Y-97758643D01*
X135258643Y-97603800D01*
X135391950Y-97430071D01*
X135501440Y-97240428D01*
X135585241Y-97038117D01*
X135641917Y-96826598D01*
X135670500Y-96609490D01*
X135670500Y-96390510D01*
X135641917Y-96173402D01*
X135585241Y-95961883D01*
X135501440Y-95759572D01*
X135391950Y-95569929D01*
X135258643Y-95396200D01*
X135258638Y-95396194D01*
X135103805Y-95241361D01*
X135103798Y-95241355D01*
X134930070Y-95108049D01*
X134812500Y-95040170D01*
X134764284Y-94989603D01*
X134750500Y-94932783D01*
X134750500Y-93926079D01*
X134721659Y-93781092D01*
X134721658Y-93781091D01*
X134721658Y-93781087D01*
X134721656Y-93781082D01*
X134665086Y-93644509D01*
X134665085Y-93644507D01*
X134632186Y-93595270D01*
X134632185Y-93595268D01*
X134582956Y-93521589D01*
X134582952Y-93521584D01*
X128326473Y-87265105D01*
X128292988Y-87203782D01*
X128291681Y-87158027D01*
X128300500Y-87102352D01*
X128300500Y-86897648D01*
X128268477Y-86695466D01*
X128205220Y-86500781D01*
X128205218Y-86500778D01*
X128205218Y-86500776D01*
X128171503Y-86434607D01*
X128112287Y-86318390D01*
X128062236Y-86249500D01*
X127991971Y-86152786D01*
X127847213Y-86008028D01*
X127681613Y-85887715D01*
X127681612Y-85887714D01*
X127681610Y-85887713D01*
X127624653Y-85858691D01*
X127499223Y-85794781D01*
X127304534Y-85731522D01*
X127129995Y-85703878D01*
X127102352Y-85699500D01*
X126897648Y-85699500D01*
X126873329Y-85703351D01*
X126695465Y-85731522D01*
X126500776Y-85794781D01*
X126318386Y-85887715D01*
X126152786Y-86008028D01*
X126008028Y-86152786D01*
X125887715Y-86318386D01*
X125794781Y-86500776D01*
X125731522Y-86695465D01*
X125699500Y-86897648D01*
X123300500Y-86897648D01*
X123268477Y-86695466D01*
X123205220Y-86500781D01*
X123205218Y-86500778D01*
X123205218Y-86500776D01*
X123171503Y-86434607D01*
X123112287Y-86318390D01*
X123062236Y-86249500D01*
X122991971Y-86152786D01*
X122847213Y-86008028D01*
X122681613Y-85887715D01*
X122681612Y-85887714D01*
X122681610Y-85887713D01*
X122624653Y-85858691D01*
X122499223Y-85794781D01*
X122304534Y-85731522D01*
X122129995Y-85703878D01*
X122102352Y-85699500D01*
X121897648Y-85699500D01*
X121873329Y-85703351D01*
X121695465Y-85731522D01*
X121500776Y-85794781D01*
X121318386Y-85887715D01*
X121152786Y-86008028D01*
X121008032Y-86152782D01*
X121008028Y-86152787D01*
X120974900Y-86198385D01*
X120919571Y-86241051D01*
X120874582Y-86249500D01*
X119862230Y-86249500D01*
X119795191Y-86229815D01*
X119774549Y-86213181D01*
X118326473Y-84765105D01*
X118292988Y-84703782D01*
X118291681Y-84658027D01*
X118300500Y-84602352D01*
X118300500Y-84397648D01*
X118272626Y-84221659D01*
X118268477Y-84195465D01*
X118205218Y-84000776D01*
X118171503Y-83934607D01*
X118112287Y-83818390D01*
X118104556Y-83807749D01*
X117991971Y-83652786D01*
X117847213Y-83508028D01*
X117681613Y-83387715D01*
X117681612Y-83387714D01*
X117681610Y-83387713D01*
X117624653Y-83358691D01*
X117499223Y-83294781D01*
X117304534Y-83231522D01*
X117129995Y-83203878D01*
X117102352Y-83199500D01*
X116897648Y-83199500D01*
X116873329Y-83203351D01*
X116695465Y-83231522D01*
X116500776Y-83294781D01*
X116318386Y-83387715D01*
X116152786Y-83508028D01*
X116008028Y-83652786D01*
X115887715Y-83818386D01*
X115794781Y-84000776D01*
X115731522Y-84195465D01*
X115699500Y-84397648D01*
X102950500Y-84397648D01*
X102950500Y-83243732D01*
X102970185Y-83176693D01*
X103022989Y-83130938D01*
X103035495Y-83126026D01*
X103069334Y-83114814D01*
X103218656Y-83022712D01*
X103342712Y-82898656D01*
X103434814Y-82749334D01*
X103489999Y-82582797D01*
X103500500Y-82480009D01*
X103500499Y-81279992D01*
X103489999Y-81177203D01*
X103434814Y-81010666D01*
X103342712Y-80861344D01*
X103218656Y-80737288D01*
X103069334Y-80645186D01*
X103069328Y-80645184D01*
X103035494Y-80633972D01*
X102978050Y-80594199D01*
X102951228Y-80529683D01*
X102950500Y-80516267D01*
X102950500Y-79412229D01*
X102970185Y-79345190D01*
X102986819Y-79324548D01*
X109274548Y-73036819D01*
X109335871Y-73003334D01*
X109362229Y-73000500D01*
X114387770Y-73000500D01*
X114454809Y-73020185D01*
X114475451Y-73036819D01*
X114901579Y-73462947D01*
X114901582Y-73462949D01*
X114901585Y-73462952D01*
X114927113Y-73480009D01*
X114927114Y-73480010D01*
X115024508Y-73545086D01*
X115074665Y-73565861D01*
X115081080Y-73568518D01*
X115161088Y-73601659D01*
X115277241Y-73624763D01*
X115300380Y-73629365D01*
X115306081Y-73630500D01*
X115306082Y-73630500D01*
X115306083Y-73630500D01*
X115453918Y-73630500D01*
X119926267Y-73630500D01*
X119993306Y-73650185D01*
X120039061Y-73702989D01*
X120043972Y-73715494D01*
X120055186Y-73749334D01*
X120147288Y-73898656D01*
X120271344Y-74022712D01*
X120420666Y-74114814D01*
X120502570Y-74141954D01*
X120560015Y-74181727D01*
X120586838Y-74246243D01*
X120574523Y-74315018D01*
X120536451Y-74359978D01*
X120442787Y-74428028D01*
X120442782Y-74428032D01*
X120298028Y-74572786D01*
X120177715Y-74738386D01*
X120084781Y-74920776D01*
X120021522Y-75115465D01*
X119989500Y-75317648D01*
X119989500Y-75522351D01*
X120021522Y-75724534D01*
X120084781Y-75919223D01*
X120127443Y-76002950D01*
X120165879Y-76078385D01*
X120177715Y-76101613D01*
X120298028Y-76267213D01*
X120442786Y-76411971D01*
X120597749Y-76524556D01*
X120608390Y-76532287D01*
X120699840Y-76578883D01*
X120701080Y-76579515D01*
X120751876Y-76627490D01*
X120768671Y-76695311D01*
X120746134Y-76761446D01*
X120701080Y-76800485D01*
X120608386Y-76847715D01*
X120442786Y-76968028D01*
X120298028Y-77112786D01*
X120177715Y-77278386D01*
X120084781Y-77460776D01*
X120021522Y-77655465D01*
X119989500Y-77857648D01*
X119989500Y-78062351D01*
X120021522Y-78264534D01*
X120084781Y-78459223D01*
X120142030Y-78571578D01*
X120177712Y-78641609D01*
X120177715Y-78641613D01*
X120298028Y-78807213D01*
X120442786Y-78951971D01*
X120597749Y-79064556D01*
X120608390Y-79072287D01*
X120699840Y-79118883D01*
X120701080Y-79119515D01*
X120751876Y-79167490D01*
X120768671Y-79235311D01*
X120746134Y-79301446D01*
X120701080Y-79340485D01*
X120608386Y-79387715D01*
X120442786Y-79508028D01*
X120298032Y-79652782D01*
X120298028Y-79652787D01*
X120264900Y-79698385D01*
X120209571Y-79741051D01*
X120164582Y-79749500D01*
X119612229Y-79749500D01*
X119545190Y-79729815D01*
X119524548Y-79713181D01*
X117852957Y-78041589D01*
X117819472Y-77980266D01*
X117824456Y-77910574D01*
X117852953Y-77866231D01*
X117991966Y-77727219D01*
X118112287Y-77561610D01*
X118205220Y-77379219D01*
X118268477Y-77184534D01*
X118300500Y-76982352D01*
X118300500Y-76777648D01*
X118286618Y-76690000D01*
X118268477Y-76575465D01*
X118215354Y-76411971D01*
X118205220Y-76380781D01*
X118205218Y-76380778D01*
X118205218Y-76380776D01*
X118147354Y-76267213D01*
X118112287Y-76198390D01*
X118071070Y-76141659D01*
X117991971Y-76032786D01*
X117847213Y-75888028D01*
X117681613Y-75767715D01*
X117681612Y-75767714D01*
X117681610Y-75767713D01*
X117596867Y-75724534D01*
X117499223Y-75674781D01*
X117304534Y-75611522D01*
X117129995Y-75583878D01*
X117102352Y-75579500D01*
X116897648Y-75579500D01*
X116873329Y-75583351D01*
X116695465Y-75611522D01*
X116500776Y-75674781D01*
X116318386Y-75767715D01*
X116152786Y-75888028D01*
X116008032Y-76032782D01*
X116008028Y-76032787D01*
X115974900Y-76078385D01*
X115919571Y-76121051D01*
X115874582Y-76129500D01*
X113125418Y-76129500D01*
X113058379Y-76109815D01*
X113025100Y-76078385D01*
X112991971Y-76032787D01*
X112991967Y-76032782D01*
X112847213Y-75888028D01*
X112681613Y-75767715D01*
X112681612Y-75767714D01*
X112681610Y-75767713D01*
X112596867Y-75724534D01*
X112499223Y-75674781D01*
X112304534Y-75611522D01*
X112129995Y-75583878D01*
X112102352Y-75579500D01*
X111897648Y-75579500D01*
X111873329Y-75583351D01*
X111695465Y-75611522D01*
X111500776Y-75674781D01*
X111318386Y-75767715D01*
X111152786Y-75888028D01*
X111008028Y-76032786D01*
X110887715Y-76198386D01*
X110794781Y-76380776D01*
X110731522Y-76575465D01*
X110699500Y-76777648D01*
X110699500Y-76982351D01*
X110731522Y-77184534D01*
X110794781Y-77379223D01*
X110887715Y-77561613D01*
X111008028Y-77727213D01*
X111152786Y-77871971D01*
X111274535Y-77960425D01*
X111318390Y-77992287D01*
X111434607Y-78051503D01*
X111500776Y-78085218D01*
X111500778Y-78085218D01*
X111500781Y-78085220D01*
X111605137Y-78119127D01*
X111695465Y-78148477D01*
X111796557Y-78164488D01*
X111897648Y-78180500D01*
X111897649Y-78180500D01*
X112102351Y-78180500D01*
X112102352Y-78180500D01*
X112304534Y-78148477D01*
X112499219Y-78085220D01*
X112681610Y-77992287D01*
X112801619Y-77905096D01*
X112847213Y-77871971D01*
X112847215Y-77871968D01*
X112847219Y-77871966D01*
X112991966Y-77727219D01*
X112994650Y-77723524D01*
X113025100Y-77681615D01*
X113080429Y-77638949D01*
X113125418Y-77630500D01*
X115874582Y-77630500D01*
X115941621Y-77650185D01*
X115974900Y-77681615D01*
X116008028Y-77727212D01*
X116008032Y-77727217D01*
X116008034Y-77727219D01*
X116152781Y-77871966D01*
X116198384Y-77905098D01*
X116241050Y-77960425D01*
X116249500Y-78005416D01*
X116249500Y-78323918D01*
X116249500Y-78323920D01*
X116249499Y-78323920D01*
X116278340Y-78468907D01*
X116278343Y-78468917D01*
X116334912Y-78605488D01*
X116334918Y-78605499D01*
X116348002Y-78625079D01*
X116348004Y-78625084D01*
X116417046Y-78728414D01*
X116417052Y-78728421D01*
X118667049Y-80978416D01*
X118771584Y-81082951D01*
X118771587Y-81082953D01*
X118771588Y-81082954D01*
X118894503Y-81165083D01*
X118894506Y-81165085D01*
X118944665Y-81185861D01*
X118951080Y-81188518D01*
X119031088Y-81221659D01*
X119147241Y-81244763D01*
X119170380Y-81249365D01*
X119176081Y-81250500D01*
X119176082Y-81250500D01*
X119176083Y-81250500D01*
X119323918Y-81250500D01*
X120164582Y-81250500D01*
X120231621Y-81270185D01*
X120264900Y-81301615D01*
X120298028Y-81347212D01*
X120298032Y-81347217D01*
X120442786Y-81491971D01*
X120597749Y-81604556D01*
X120608390Y-81612287D01*
X120724607Y-81671503D01*
X120790776Y-81705218D01*
X120790778Y-81705218D01*
X120790781Y-81705220D01*
X120895137Y-81739127D01*
X120985465Y-81768477D01*
X121086557Y-81784488D01*
X121187648Y-81800500D01*
X121187649Y-81800500D01*
X122192351Y-81800500D01*
X122192352Y-81800500D01*
X122394534Y-81768477D01*
X122589219Y-81705220D01*
X122771610Y-81612287D01*
X122864590Y-81544732D01*
X122937213Y-81491971D01*
X122937215Y-81491968D01*
X122937219Y-81491966D01*
X123081966Y-81347219D01*
X123081968Y-81347215D01*
X123081971Y-81347213D01*
X123156404Y-81244763D01*
X123202287Y-81181610D01*
X123295220Y-80999219D01*
X123358477Y-80804534D01*
X123390500Y-80602352D01*
X123390500Y-80397648D01*
X123358477Y-80195466D01*
X123295220Y-80000781D01*
X123295218Y-80000778D01*
X123295218Y-80000776D01*
X123261503Y-79934607D01*
X123202287Y-79818390D01*
X123152236Y-79749500D01*
X123081971Y-79652786D01*
X122937213Y-79508028D01*
X122771614Y-79387715D01*
X122765006Y-79384348D01*
X122678917Y-79340483D01*
X122628123Y-79292511D01*
X122611328Y-79224690D01*
X122633865Y-79158555D01*
X122678917Y-79119516D01*
X122771610Y-79072287D01*
X122792770Y-79056913D01*
X122937213Y-78951971D01*
X122937215Y-78951968D01*
X122937219Y-78951966D01*
X123081966Y-78807219D01*
X123084650Y-78803524D01*
X123115100Y-78761615D01*
X123170429Y-78718949D01*
X123215418Y-78710500D01*
X123847770Y-78710500D01*
X123914809Y-78730185D01*
X123935451Y-78746819D01*
X124963181Y-79774549D01*
X124996666Y-79835872D01*
X124999500Y-79862230D01*
X124999500Y-81573918D01*
X124999500Y-81573920D01*
X124999499Y-81573920D01*
X125028340Y-81718907D01*
X125028343Y-81718917D01*
X125084914Y-81855492D01*
X125117812Y-81904727D01*
X125117813Y-81904730D01*
X125167046Y-81978414D01*
X125167052Y-81978421D01*
X127167049Y-83978416D01*
X127271584Y-84082951D01*
X127271585Y-84082952D01*
X127394498Y-84165080D01*
X127394511Y-84165087D01*
X127531082Y-84221656D01*
X127531087Y-84221658D01*
X127531091Y-84221658D01*
X127531092Y-84221659D01*
X127676079Y-84250500D01*
X127676082Y-84250500D01*
X127676083Y-84250500D01*
X127823917Y-84250500D01*
X131637770Y-84250500D01*
X131704809Y-84270185D01*
X131725451Y-84286819D01*
X132021586Y-84582954D01*
X132047112Y-84600009D01*
X132095270Y-84632186D01*
X132144505Y-84665084D01*
X132144506Y-84665084D01*
X132144507Y-84665085D01*
X132144509Y-84665086D01*
X132235552Y-84702797D01*
X132281087Y-84721658D01*
X132281091Y-84721658D01*
X132281092Y-84721659D01*
X132426079Y-84750500D01*
X132426082Y-84750500D01*
X132426083Y-84750500D01*
X132573918Y-84750500D01*
X133833616Y-84750500D01*
X133900655Y-84770185D01*
X133946410Y-84822989D01*
X133951321Y-84835494D01*
X133962535Y-84869334D01*
X134054637Y-85018656D01*
X134178693Y-85142712D01*
X134328015Y-85234814D01*
X134494552Y-85289999D01*
X134597340Y-85300500D01*
X135797357Y-85300499D01*
X135900146Y-85289999D01*
X136066683Y-85234814D01*
X136216005Y-85142712D01*
X136340061Y-85018656D01*
X136432163Y-84869334D01*
X136487348Y-84702797D01*
X136497849Y-84600009D01*
X136497848Y-83399992D01*
X136487348Y-83297203D01*
X136432163Y-83130666D01*
X136340061Y-82981344D01*
X136216005Y-82857288D01*
X136088014Y-82778343D01*
X136066685Y-82765187D01*
X136066680Y-82765185D01*
X136065211Y-82764698D01*
X135900146Y-82710001D01*
X135900144Y-82710000D01*
X135797359Y-82699500D01*
X134597347Y-82699500D01*
X134597330Y-82699501D01*
X134494552Y-82710000D01*
X134494549Y-82710001D01*
X134328017Y-82765185D01*
X134328012Y-82765187D01*
X134178691Y-82857289D01*
X134054638Y-82981342D01*
X133962536Y-83130663D01*
X133962533Y-83130671D01*
X133951321Y-83164506D01*
X133911548Y-83221950D01*
X133847032Y-83248772D01*
X133833616Y-83249500D01*
X132862230Y-83249500D01*
X132795191Y-83229815D01*
X132774549Y-83213181D01*
X132478421Y-82917052D01*
X132478420Y-82917051D01*
X132388977Y-82857288D01*
X132388976Y-82857287D01*
X132355500Y-82834919D01*
X132355488Y-82834912D01*
X132218917Y-82778343D01*
X132218907Y-82778340D01*
X132073920Y-82749500D01*
X132073918Y-82749500D01*
X128112229Y-82749500D01*
X128045190Y-82729815D01*
X128024548Y-82713181D01*
X126536819Y-81225451D01*
X126503334Y-81164128D01*
X126500500Y-81137770D01*
X126500500Y-79426079D01*
X126471659Y-79281092D01*
X126471658Y-79281091D01*
X126471658Y-79281087D01*
X126415084Y-79144505D01*
X126366830Y-79072287D01*
X126366830Y-79072286D01*
X126332950Y-79021581D01*
X124688421Y-77377052D01*
X124688414Y-77377046D01*
X124614729Y-77327812D01*
X124614729Y-77327813D01*
X124565491Y-77294913D01*
X124428917Y-77238343D01*
X124428907Y-77238340D01*
X124283920Y-77209500D01*
X124283918Y-77209500D01*
X123215418Y-77209500D01*
X123148379Y-77189815D01*
X123115100Y-77158385D01*
X123081971Y-77112787D01*
X123081967Y-77112782D01*
X122937213Y-76968028D01*
X122771614Y-76847715D01*
X122765006Y-76844348D01*
X122678917Y-76800483D01*
X122628123Y-76752511D01*
X122611328Y-76684690D01*
X122633865Y-76618555D01*
X122678917Y-76579516D01*
X122771610Y-76532287D01*
X122792770Y-76516913D01*
X122937213Y-76411971D01*
X122937215Y-76411968D01*
X122937219Y-76411966D01*
X123081966Y-76267219D01*
X123084650Y-76263524D01*
X123115100Y-76221615D01*
X123170429Y-76178949D01*
X123215418Y-76170500D01*
X124403920Y-76170500D01*
X124501462Y-76151096D01*
X124548913Y-76141658D01*
X124685495Y-76085084D01*
X124734729Y-76052186D01*
X124808416Y-76002952D01*
X126082952Y-74728416D01*
X126154064Y-74621987D01*
X126165084Y-74605495D01*
X126221658Y-74468913D01*
X126250500Y-74323918D01*
X126250500Y-71362230D01*
X126270185Y-71295191D01*
X126286819Y-71274549D01*
X128274549Y-69286819D01*
X128335872Y-69253334D01*
X128362230Y-69250500D01*
X131706243Y-69250500D01*
X131803785Y-69231096D01*
X131851236Y-69221658D01*
X131987818Y-69165084D01*
X132037052Y-69132186D01*
X132110739Y-69082952D01*
X134156871Y-67036817D01*
X134218194Y-67003333D01*
X134244552Y-67000499D01*
X135432325Y-67000499D01*
X135432331Y-67000499D01*
X135535120Y-66989999D01*
X135701657Y-66934814D01*
X135850979Y-66842712D01*
X135975035Y-66718656D01*
X136067137Y-66569334D01*
X136122322Y-66402797D01*
X136132823Y-66300009D01*
X136132822Y-64699992D01*
X136122322Y-64597203D01*
X136067137Y-64430666D01*
X135975035Y-64281344D01*
X135850979Y-64157288D01*
X135701657Y-64065186D01*
X135535120Y-64010001D01*
X135535118Y-64010000D01*
X135432333Y-63999500D01*
X133832321Y-63999500D01*
X133832304Y-63999501D01*
X133729526Y-64010000D01*
X133729523Y-64010001D01*
X133562991Y-64065185D01*
X133562986Y-64065187D01*
X133413665Y-64157289D01*
X133289612Y-64281342D01*
X133197510Y-64430663D01*
X133197509Y-64430666D01*
X133142324Y-64597203D01*
X133142324Y-64597204D01*
X133142323Y-64597204D01*
X133131823Y-64699983D01*
X133131823Y-65887769D01*
X133112138Y-65954808D01*
X133095504Y-65975450D01*
X131357774Y-67713181D01*
X131296451Y-67746666D01*
X131270093Y-67749500D01*
X127926080Y-67749500D01*
X127781092Y-67778340D01*
X127781086Y-67778342D01*
X127644508Y-67834914D01*
X127644496Y-67834921D01*
X127595269Y-67867813D01*
X127521588Y-67917044D01*
X127521580Y-67917050D01*
X124917048Y-70521583D01*
X124896478Y-70552369D01*
X124876045Y-70582951D01*
X124834919Y-70644499D01*
X124834912Y-70644511D01*
X124778343Y-70781082D01*
X124778340Y-70781092D01*
X124749500Y-70926079D01*
X124749500Y-73887770D01*
X124729815Y-73954809D01*
X124713181Y-73975451D01*
X124055451Y-74633181D01*
X123994128Y-74666666D01*
X123967770Y-74669500D01*
X123215418Y-74669500D01*
X123148379Y-74649815D01*
X123115100Y-74618385D01*
X123081971Y-74572787D01*
X123081967Y-74572782D01*
X122937219Y-74428034D01*
X122937211Y-74428028D01*
X122843547Y-74359978D01*
X122800882Y-74304649D01*
X122794903Y-74235036D01*
X122827508Y-74173240D01*
X122877426Y-74141955D01*
X122959334Y-74114814D01*
X123108656Y-74022712D01*
X123232712Y-73898656D01*
X123324814Y-73749334D01*
X123379999Y-73582797D01*
X123390500Y-73480009D01*
X123390499Y-72279992D01*
X123379999Y-72177203D01*
X123324814Y-72010666D01*
X123232712Y-71861344D01*
X123108656Y-71737288D01*
X122959334Y-71645186D01*
X122792797Y-71590001D01*
X122792795Y-71590000D01*
X122690010Y-71579500D01*
X120689998Y-71579500D01*
X120689981Y-71579501D01*
X120587203Y-71590000D01*
X120587200Y-71590001D01*
X120420668Y-71645185D01*
X120420663Y-71645187D01*
X120271342Y-71737289D01*
X120147289Y-71861342D01*
X120055187Y-72010663D01*
X120055184Y-72010671D01*
X120043972Y-72044506D01*
X120004199Y-72101950D01*
X119939683Y-72128772D01*
X119926267Y-72129500D01*
X116231230Y-72129500D01*
X116164191Y-72109815D01*
X116118436Y-72057011D01*
X116108492Y-71987853D01*
X116137517Y-71924297D01*
X116143549Y-71917819D01*
X117582947Y-70478420D01*
X117582950Y-70478417D01*
X117582949Y-70478417D01*
X117582952Y-70478415D01*
X117623955Y-70417049D01*
X117665084Y-70355495D01*
X117697042Y-70278342D01*
X117721659Y-70218912D01*
X117750500Y-70073917D01*
X117750500Y-69926082D01*
X117750500Y-69625416D01*
X117770185Y-69558377D01*
X117801613Y-69525099D01*
X117847219Y-69491966D01*
X117991966Y-69347219D01*
X117991968Y-69347215D01*
X117991971Y-69347213D01*
X118062236Y-69250500D01*
X118112287Y-69181610D01*
X118205220Y-68999219D01*
X118268477Y-68804534D01*
X118300500Y-68602352D01*
X118300500Y-68397648D01*
X118268477Y-68195465D01*
X118205218Y-68000776D01*
X118137469Y-67867813D01*
X118112287Y-67818390D01*
X118060177Y-67746666D01*
X117991971Y-67652786D01*
X117847217Y-67508032D01*
X117847212Y-67508028D01*
X117801615Y-67474900D01*
X117758949Y-67419571D01*
X117750500Y-67374582D01*
X117750500Y-64375416D01*
X117770185Y-64308377D01*
X117801613Y-64275099D01*
X117847219Y-64241966D01*
X117991966Y-64097219D01*
X117991968Y-64097215D01*
X117991971Y-64097213D01*
X118055334Y-64010000D01*
X118112287Y-63931610D01*
X118205220Y-63749219D01*
X118268477Y-63554534D01*
X118300500Y-63352352D01*
X118300500Y-63147648D01*
X118268477Y-62945466D01*
X118205220Y-62750781D01*
X118205218Y-62750778D01*
X118205218Y-62750776D01*
X118171503Y-62684607D01*
X118112287Y-62568390D01*
X118039492Y-62468195D01*
X117991971Y-62402786D01*
X117847213Y-62258028D01*
X117681613Y-62137715D01*
X117681612Y-62137714D01*
X117681610Y-62137713D01*
X117574136Y-62082952D01*
X117499223Y-62044781D01*
X117304534Y-61981522D01*
X117129995Y-61953878D01*
X117102352Y-61949500D01*
X116897648Y-61949500D01*
X116873329Y-61953351D01*
X116695465Y-61981522D01*
X116500776Y-62044781D01*
X116318386Y-62137715D01*
X116152786Y-62258028D01*
X116008028Y-62402786D01*
X115887715Y-62568386D01*
X115794781Y-62750776D01*
X115731522Y-62945465D01*
X115699500Y-63147648D01*
X115699500Y-63352351D01*
X115731522Y-63554534D01*
X115794781Y-63749223D01*
X115887715Y-63931613D01*
X116008028Y-64097213D01*
X116008034Y-64097219D01*
X116152781Y-64241966D01*
X116198384Y-64275098D01*
X116241050Y-64330425D01*
X116249500Y-64375416D01*
X116249500Y-67374582D01*
X116229815Y-67441621D01*
X116198385Y-67474900D01*
X116152787Y-67508028D01*
X116152782Y-67508032D01*
X116008028Y-67652786D01*
X115887715Y-67818386D01*
X115794781Y-68000776D01*
X115731522Y-68195465D01*
X115699500Y-68397648D01*
X115699500Y-68602351D01*
X115731522Y-68804534D01*
X115794781Y-68999223D01*
X115887715Y-69181613D01*
X116008028Y-69347213D01*
X116008034Y-69347219D01*
X116152781Y-69491966D01*
X116198384Y-69525098D01*
X116201724Y-69529429D01*
X116206703Y-69531703D01*
X116222832Y-69556801D01*
X116241050Y-69580425D01*
X116242303Y-69587098D01*
X116244477Y-69590481D01*
X116249500Y-69625416D01*
X116249500Y-69637770D01*
X116229815Y-69704809D01*
X116213181Y-69725451D01*
X114475451Y-71463181D01*
X114414128Y-71496666D01*
X114387770Y-71499500D01*
X108926080Y-71499500D01*
X108781092Y-71528340D01*
X108781082Y-71528343D01*
X108644511Y-71584912D01*
X108644498Y-71584919D01*
X108521584Y-71667048D01*
X108521580Y-71667051D01*
X101617052Y-78571578D01*
X101617049Y-78571581D01*
X101570258Y-78641609D01*
X101570259Y-78641610D01*
X101534914Y-78694508D01*
X101478343Y-78831082D01*
X101478340Y-78831092D01*
X101449500Y-78976079D01*
X101449500Y-80516267D01*
X101429815Y-80583306D01*
X101377011Y-80629061D01*
X101364506Y-80633972D01*
X101330671Y-80645184D01*
X101330663Y-80645187D01*
X101181342Y-80737289D01*
X101057289Y-80861342D01*
X100965187Y-81010663D01*
X100965186Y-81010666D01*
X100910001Y-81177203D01*
X100910001Y-81177204D01*
X100910000Y-81177204D01*
X100899500Y-81279983D01*
X100000500Y-81279983D01*
X100000500Y-68389778D01*
X104099500Y-68389778D01*
X104099500Y-68610221D01*
X104133985Y-68827952D01*
X104202103Y-69037603D01*
X104202104Y-69037606D01*
X104225209Y-69082950D01*
X104295885Y-69221658D01*
X104302187Y-69234025D01*
X104431752Y-69412358D01*
X104431756Y-69412363D01*
X104587636Y-69568243D01*
X104587641Y-69568247D01*
X104743192Y-69681260D01*
X104765978Y-69697815D01*
X104894375Y-69763237D01*
X104962393Y-69797895D01*
X104962396Y-69797896D01*
X105067221Y-69831955D01*
X105172049Y-69866015D01*
X105389778Y-69900500D01*
X105389779Y-69900500D01*
X105610221Y-69900500D01*
X105610222Y-69900500D01*
X105827951Y-69866015D01*
X106037606Y-69797895D01*
X106234022Y-69697815D01*
X106412365Y-69568242D01*
X106568242Y-69412365D01*
X106648705Y-69301615D01*
X106704035Y-69258949D01*
X106749024Y-69250500D01*
X108254582Y-69250500D01*
X108321621Y-69270185D01*
X108354900Y-69301615D01*
X108388028Y-69347212D01*
X108388032Y-69347217D01*
X108532786Y-69491971D01*
X108654535Y-69580425D01*
X108698390Y-69612287D01*
X108814607Y-69671503D01*
X108880776Y-69705218D01*
X108880778Y-69705218D01*
X108880781Y-69705220D01*
X108943046Y-69725451D01*
X109075465Y-69768477D01*
X109176557Y-69784488D01*
X109277648Y-69800500D01*
X109277649Y-69800500D01*
X109482351Y-69800500D01*
X109482352Y-69800500D01*
X109684534Y-69768477D01*
X109879219Y-69705220D01*
X110061610Y-69612287D01*
X110181619Y-69525096D01*
X110227213Y-69491971D01*
X110227215Y-69491968D01*
X110227219Y-69491966D01*
X110371966Y-69347219D01*
X110371968Y-69347215D01*
X110371971Y-69347213D01*
X110442236Y-69250500D01*
X110492287Y-69181610D01*
X110585220Y-68999219D01*
X110648477Y-68804534D01*
X110680500Y-68602352D01*
X110680500Y-68397648D01*
X110648477Y-68195465D01*
X110585218Y-68000776D01*
X110517469Y-67867813D01*
X110492287Y-67818390D01*
X110440177Y-67746666D01*
X110371971Y-67652786D01*
X110227213Y-67508028D01*
X110061613Y-67387715D01*
X110061612Y-67387714D01*
X110061610Y-67387713D01*
X110004653Y-67358691D01*
X109879223Y-67294781D01*
X109684534Y-67231522D01*
X109498799Y-67202105D01*
X109482352Y-67199500D01*
X109277648Y-67199500D01*
X109261201Y-67202105D01*
X109075465Y-67231522D01*
X108880776Y-67294781D01*
X108698386Y-67387715D01*
X108532786Y-67508028D01*
X108388032Y-67652782D01*
X108388028Y-67652787D01*
X108354900Y-67698385D01*
X108299571Y-67741051D01*
X108254582Y-67749500D01*
X106749024Y-67749500D01*
X106681985Y-67729815D01*
X106648705Y-67698384D01*
X106568245Y-67587638D01*
X106412363Y-67431756D01*
X106412358Y-67431752D01*
X106234025Y-67302187D01*
X106234024Y-67302186D01*
X106234022Y-67302185D01*
X106171096Y-67270122D01*
X106037606Y-67202104D01*
X106037603Y-67202103D01*
X105827952Y-67133985D01*
X105719086Y-67116742D01*
X105610222Y-67099500D01*
X105389778Y-67099500D01*
X105317201Y-67110995D01*
X105172047Y-67133985D01*
X104962396Y-67202103D01*
X104962393Y-67202104D01*
X104765974Y-67302187D01*
X104587641Y-67431752D01*
X104587636Y-67431756D01*
X104431756Y-67587636D01*
X104431752Y-67587641D01*
X104302187Y-67765974D01*
X104202104Y-67962393D01*
X104202103Y-67962396D01*
X104133985Y-68172047D01*
X104099500Y-68389778D01*
X100000500Y-68389778D01*
X100000500Y-60624500D01*
X100020185Y-60557461D01*
X100072989Y-60511706D01*
X100124500Y-60500500D01*
X125690999Y-60500500D01*
X125758038Y-60520185D01*
G37*
%TD.AperFunction*%
%TD*%
%TA.AperFunction,Conductor*%
%TO.N,GND*%
G36*
X188942539Y-104019685D02*
G01*
X188988294Y-104072489D01*
X188999500Y-104124000D01*
X188999500Y-143375500D01*
X188979815Y-143442539D01*
X188927011Y-143488294D01*
X188875500Y-143499500D01*
X164919001Y-143499500D01*
X164851962Y-143479815D01*
X164806207Y-143427011D01*
X164796263Y-143357853D01*
X164819734Y-143301189D01*
X164863796Y-143242331D01*
X164914091Y-143107483D01*
X164920500Y-143047873D01*
X164920499Y-139952128D01*
X164914091Y-139892517D01*
X164875318Y-139788561D01*
X164870334Y-139718870D01*
X164903817Y-139657549D01*
X166274549Y-138286819D01*
X166335872Y-138253334D01*
X166362230Y-138250500D01*
X174137770Y-138250500D01*
X174204809Y-138270185D01*
X174225451Y-138286819D01*
X175213181Y-139274548D01*
X175246666Y-139335871D01*
X175249500Y-139362229D01*
X175249500Y-139932783D01*
X175229815Y-139999822D01*
X175187500Y-140040170D01*
X175069929Y-140108049D01*
X174896201Y-140241355D01*
X174896194Y-140241361D01*
X174741361Y-140396194D01*
X174741355Y-140396201D01*
X174608049Y-140569929D01*
X174498565Y-140759561D01*
X174498560Y-140759573D01*
X174414758Y-140961884D01*
X174358084Y-141173399D01*
X174358082Y-141173410D01*
X174329500Y-141390502D01*
X174329500Y-141609497D01*
X174353306Y-141790314D01*
X174358083Y-141826598D01*
X174414759Y-142038117D01*
X174498560Y-142240428D01*
X174498562Y-142240433D01*
X174498565Y-142240438D01*
X174608049Y-142430070D01*
X174741355Y-142603798D01*
X174741361Y-142603805D01*
X174896194Y-142758638D01*
X174896201Y-142758644D01*
X175069929Y-142891950D01*
X175259561Y-143001434D01*
X175259563Y-143001434D01*
X175259572Y-143001440D01*
X175461883Y-143085241D01*
X175673402Y-143141917D01*
X175890510Y-143170500D01*
X175890517Y-143170500D01*
X176109483Y-143170500D01*
X176109490Y-143170500D01*
X176326598Y-143141917D01*
X176538117Y-143085241D01*
X176740428Y-143001440D01*
X176930071Y-142891950D01*
X177103800Y-142758643D01*
X177258643Y-142603800D01*
X177391950Y-142430071D01*
X177501440Y-142240428D01*
X177585241Y-142038117D01*
X177641917Y-141826598D01*
X177670500Y-141609490D01*
X177670500Y-141390510D01*
X177641917Y-141173402D01*
X177585241Y-140961883D01*
X177501440Y-140759572D01*
X177391950Y-140569929D01*
X177258643Y-140396200D01*
X177258638Y-140396194D01*
X177103805Y-140241361D01*
X177103798Y-140241355D01*
X176930070Y-140108049D01*
X176812500Y-140040170D01*
X176764284Y-139989603D01*
X176750500Y-139932783D01*
X176750500Y-138926079D01*
X176721659Y-138781092D01*
X176721658Y-138781091D01*
X176721658Y-138781087D01*
X176721656Y-138781082D01*
X176665087Y-138644511D01*
X176665080Y-138644498D01*
X176582952Y-138521585D01*
X176582951Y-138521584D01*
X176478416Y-138417049D01*
X176311867Y-138250500D01*
X174978421Y-136917052D01*
X174978414Y-136917046D01*
X174904729Y-136867812D01*
X174904729Y-136867813D01*
X174855491Y-136834913D01*
X174718917Y-136778343D01*
X174718907Y-136778340D01*
X174573920Y-136749500D01*
X174573918Y-136749500D01*
X165926082Y-136749500D01*
X165926080Y-136749500D01*
X165781092Y-136778340D01*
X165781086Y-136778342D01*
X165644508Y-136834914D01*
X165644496Y-136834921D01*
X165595269Y-136867813D01*
X165521588Y-136917044D01*
X165521580Y-136917050D01*
X162975449Y-139463181D01*
X162914126Y-139496666D01*
X162887768Y-139499500D01*
X161372129Y-139499500D01*
X161372123Y-139499501D01*
X161312516Y-139505908D01*
X161177671Y-139556202D01*
X161177664Y-139556206D01*
X161062455Y-139642452D01*
X161062452Y-139642455D01*
X160976206Y-139757664D01*
X160976202Y-139757671D01*
X160925908Y-139892517D01*
X160919501Y-139952116D01*
X160919501Y-139952123D01*
X160919500Y-139952135D01*
X160919500Y-143047870D01*
X160919501Y-143047876D01*
X160925908Y-143107483D01*
X160976202Y-143242328D01*
X160976204Y-143242331D01*
X161020265Y-143301189D01*
X161044683Y-143366652D01*
X161029832Y-143434925D01*
X160980427Y-143484331D01*
X160920999Y-143499500D01*
X151919001Y-143499500D01*
X151851962Y-143479815D01*
X151806207Y-143427011D01*
X151796263Y-143357853D01*
X151819734Y-143301189D01*
X151863796Y-143242331D01*
X151914091Y-143107483D01*
X151920500Y-143047873D01*
X151920499Y-139952128D01*
X151914091Y-139892517D01*
X151863796Y-139757669D01*
X151863795Y-139757668D01*
X151863793Y-139757664D01*
X151777547Y-139642455D01*
X151777544Y-139642452D01*
X151662335Y-139556206D01*
X151662328Y-139556202D01*
X151527482Y-139505908D01*
X151527483Y-139505908D01*
X151467883Y-139499501D01*
X151467881Y-139499500D01*
X151467873Y-139499500D01*
X151467865Y-139499500D01*
X150794500Y-139499500D01*
X150727461Y-139479815D01*
X150681706Y-139427011D01*
X150670500Y-139375500D01*
X150670500Y-135346079D01*
X150641659Y-135201092D01*
X150641658Y-135201091D01*
X150641658Y-135201087D01*
X150641656Y-135201082D01*
X150585086Y-135064508D01*
X150552186Y-135015270D01*
X150552185Y-135015268D01*
X150502956Y-134941589D01*
X150502952Y-134941584D01*
X149986819Y-134425451D01*
X149953334Y-134364128D01*
X149950500Y-134337770D01*
X149950500Y-129397648D01*
X162699500Y-129397648D01*
X162699500Y-129602351D01*
X162731522Y-129804534D01*
X162794781Y-129999223D01*
X162858691Y-130124653D01*
X162867893Y-130142712D01*
X162887715Y-130181613D01*
X163008028Y-130347213D01*
X163152786Y-130491971D01*
X163307749Y-130604556D01*
X163318390Y-130612287D01*
X163434607Y-130671503D01*
X163500776Y-130705218D01*
X163500778Y-130705218D01*
X163500781Y-130705220D01*
X163605137Y-130739127D01*
X163695465Y-130768477D01*
X163779564Y-130781797D01*
X163897648Y-130800500D01*
X163897649Y-130800500D01*
X164102350Y-130800500D01*
X164102352Y-130800500D01*
X164158026Y-130791681D01*
X164227318Y-130800635D01*
X164265105Y-130826473D01*
X166021586Y-132582954D01*
X166051058Y-132602645D01*
X166095270Y-132632186D01*
X166144505Y-132665084D01*
X166144506Y-132665084D01*
X166144507Y-132665085D01*
X166144509Y-132665086D01*
X166281082Y-132721656D01*
X166281087Y-132721658D01*
X166281091Y-132721658D01*
X166281092Y-132721659D01*
X166426079Y-132750500D01*
X166426082Y-132750500D01*
X166426083Y-132750500D01*
X166573917Y-132750500D01*
X167874582Y-132750500D01*
X167941621Y-132770185D01*
X167974900Y-132801615D01*
X168008028Y-132847212D01*
X168008032Y-132847217D01*
X168152786Y-132991971D01*
X168307749Y-133104556D01*
X168318390Y-133112287D01*
X168434607Y-133171503D01*
X168500776Y-133205218D01*
X168500778Y-133205218D01*
X168500781Y-133205220D01*
X168605137Y-133239127D01*
X168695465Y-133268477D01*
X168779564Y-133281797D01*
X168897648Y-133300500D01*
X168897649Y-133300500D01*
X169102351Y-133300500D01*
X169102352Y-133300500D01*
X169304534Y-133268477D01*
X169499219Y-133205220D01*
X169681610Y-133112287D01*
X169774590Y-133044732D01*
X169847213Y-132991971D01*
X169847215Y-132991968D01*
X169847219Y-132991966D01*
X169991966Y-132847219D01*
X169991968Y-132847215D01*
X169991971Y-132847213D01*
X170062236Y-132750500D01*
X170112287Y-132681610D01*
X170205220Y-132499219D01*
X170268477Y-132304534D01*
X170300500Y-132102352D01*
X170300500Y-131897648D01*
X172699500Y-131897648D01*
X172699500Y-132102351D01*
X172731522Y-132304534D01*
X172794781Y-132499223D01*
X172887715Y-132681613D01*
X173008028Y-132847213D01*
X173152786Y-132991971D01*
X173307749Y-133104556D01*
X173318390Y-133112287D01*
X173434607Y-133171503D01*
X173500776Y-133205218D01*
X173500778Y-133205218D01*
X173500781Y-133205220D01*
X173605137Y-133239127D01*
X173695465Y-133268477D01*
X173779564Y-133281797D01*
X173897648Y-133300500D01*
X173897649Y-133300500D01*
X174102350Y-133300500D01*
X174102352Y-133300500D01*
X174158026Y-133291681D01*
X174227318Y-133300635D01*
X174265105Y-133326473D01*
X180213181Y-139274549D01*
X180246666Y-139335872D01*
X180249500Y-139362230D01*
X180249500Y-139932783D01*
X180229815Y-139999822D01*
X180187500Y-140040170D01*
X180069929Y-140108049D01*
X179896201Y-140241355D01*
X179896194Y-140241361D01*
X179741361Y-140396194D01*
X179741355Y-140396201D01*
X179608049Y-140569929D01*
X179498565Y-140759561D01*
X179498560Y-140759573D01*
X179414758Y-140961884D01*
X179358084Y-141173399D01*
X179358082Y-141173410D01*
X179329500Y-141390502D01*
X179329500Y-141609497D01*
X179353306Y-141790314D01*
X179358083Y-141826598D01*
X179414759Y-142038117D01*
X179498560Y-142240428D01*
X179498562Y-142240433D01*
X179498565Y-142240438D01*
X179608049Y-142430070D01*
X179741355Y-142603798D01*
X179741361Y-142603805D01*
X179896194Y-142758638D01*
X179896201Y-142758644D01*
X180069929Y-142891950D01*
X180259561Y-143001434D01*
X180259563Y-143001434D01*
X180259572Y-143001440D01*
X180461883Y-143085241D01*
X180673402Y-143141917D01*
X180890510Y-143170500D01*
X180890517Y-143170500D01*
X181109483Y-143170500D01*
X181109490Y-143170500D01*
X181326598Y-143141917D01*
X181538117Y-143085241D01*
X181740428Y-143001440D01*
X181930071Y-142891950D01*
X182103800Y-142758643D01*
X182258643Y-142603800D01*
X182391950Y-142430071D01*
X182501440Y-142240428D01*
X182585241Y-142038117D01*
X182641917Y-141826598D01*
X182670500Y-141609490D01*
X182670500Y-141390510D01*
X182641917Y-141173402D01*
X182585241Y-140961883D01*
X182501440Y-140759572D01*
X182391950Y-140569929D01*
X182258643Y-140396200D01*
X182258638Y-140396194D01*
X182103805Y-140241361D01*
X182103798Y-140241355D01*
X181930070Y-140108049D01*
X181812500Y-140040170D01*
X181764284Y-139989603D01*
X181750500Y-139932783D01*
X181750500Y-138926079D01*
X181721659Y-138781092D01*
X181721658Y-138781091D01*
X181721658Y-138781087D01*
X181721656Y-138781082D01*
X181665086Y-138644509D01*
X181665085Y-138644507D01*
X181632186Y-138595270D01*
X181632185Y-138595268D01*
X181582956Y-138521589D01*
X181582952Y-138521584D01*
X175326473Y-132265105D01*
X175292988Y-132203782D01*
X175291681Y-132158027D01*
X175300500Y-132102352D01*
X175300500Y-131897648D01*
X175268477Y-131695466D01*
X175205220Y-131500781D01*
X175205218Y-131500778D01*
X175205218Y-131500776D01*
X175171503Y-131434607D01*
X175112287Y-131318390D01*
X175062236Y-131249500D01*
X174991971Y-131152786D01*
X174847213Y-131008028D01*
X174681613Y-130887715D01*
X174681612Y-130887714D01*
X174681610Y-130887713D01*
X174624653Y-130858691D01*
X174499223Y-130794781D01*
X174304534Y-130731522D01*
X174129995Y-130703878D01*
X174102352Y-130699500D01*
X173897648Y-130699500D01*
X173873329Y-130703351D01*
X173695465Y-130731522D01*
X173500776Y-130794781D01*
X173318386Y-130887715D01*
X173152786Y-131008028D01*
X173008028Y-131152786D01*
X172887715Y-131318386D01*
X172794781Y-131500776D01*
X172731522Y-131695465D01*
X172699500Y-131897648D01*
X170300500Y-131897648D01*
X170268477Y-131695466D01*
X170205220Y-131500781D01*
X170205218Y-131500778D01*
X170205218Y-131500776D01*
X170171503Y-131434607D01*
X170112287Y-131318390D01*
X170062236Y-131249500D01*
X169991971Y-131152786D01*
X169847213Y-131008028D01*
X169681613Y-130887715D01*
X169681612Y-130887714D01*
X169681610Y-130887713D01*
X169624653Y-130858691D01*
X169499223Y-130794781D01*
X169304534Y-130731522D01*
X169129995Y-130703878D01*
X169102352Y-130699500D01*
X168897648Y-130699500D01*
X168873329Y-130703351D01*
X168695465Y-130731522D01*
X168500776Y-130794781D01*
X168318386Y-130887715D01*
X168152786Y-131008028D01*
X168008032Y-131152782D01*
X168008028Y-131152787D01*
X167974900Y-131198385D01*
X167919571Y-131241051D01*
X167874582Y-131249500D01*
X166862230Y-131249500D01*
X166795191Y-131229815D01*
X166774549Y-131213181D01*
X165326473Y-129765105D01*
X165292988Y-129703782D01*
X165291681Y-129658027D01*
X165300500Y-129602352D01*
X165300500Y-129397648D01*
X165272626Y-129221659D01*
X165268477Y-129195465D01*
X165205218Y-129000776D01*
X165171503Y-128934607D01*
X165112287Y-128818390D01*
X165104556Y-128807749D01*
X164991971Y-128652786D01*
X164847213Y-128508028D01*
X164681613Y-128387715D01*
X164681612Y-128387714D01*
X164681610Y-128387713D01*
X164624653Y-128358691D01*
X164499223Y-128294781D01*
X164304534Y-128231522D01*
X164129995Y-128203878D01*
X164102352Y-128199500D01*
X163897648Y-128199500D01*
X163873329Y-128203351D01*
X163695465Y-128231522D01*
X163500776Y-128294781D01*
X163318386Y-128387715D01*
X163152786Y-128508028D01*
X163008028Y-128652786D01*
X162887715Y-128818386D01*
X162794781Y-129000776D01*
X162731522Y-129195465D01*
X162699500Y-129397648D01*
X149950500Y-129397648D01*
X149950500Y-128243732D01*
X149970185Y-128176693D01*
X150022989Y-128130938D01*
X150035495Y-128126026D01*
X150069334Y-128114814D01*
X150218656Y-128022712D01*
X150342712Y-127898656D01*
X150434814Y-127749334D01*
X150489999Y-127582797D01*
X150500500Y-127480009D01*
X150500499Y-126279992D01*
X150489999Y-126177203D01*
X150434814Y-126010666D01*
X150342712Y-125861344D01*
X150218656Y-125737288D01*
X150069334Y-125645186D01*
X150069328Y-125645184D01*
X150035494Y-125633972D01*
X149978050Y-125594199D01*
X149951228Y-125529683D01*
X149950500Y-125516267D01*
X149950500Y-124412229D01*
X149970185Y-124345190D01*
X149986819Y-124324548D01*
X156274548Y-118036819D01*
X156335871Y-118003334D01*
X156362229Y-118000500D01*
X161387770Y-118000500D01*
X161454809Y-118020185D01*
X161475451Y-118036819D01*
X161901579Y-118462947D01*
X161901582Y-118462949D01*
X161901585Y-118462952D01*
X161927113Y-118480009D01*
X161927114Y-118480010D01*
X162024508Y-118545086D01*
X162074665Y-118565861D01*
X162081080Y-118568518D01*
X162161088Y-118601659D01*
X162277241Y-118624763D01*
X162300380Y-118629365D01*
X162306081Y-118630500D01*
X162306082Y-118630500D01*
X162306083Y-118630500D01*
X162453918Y-118630500D01*
X166926267Y-118630500D01*
X166993306Y-118650185D01*
X167039061Y-118702989D01*
X167043972Y-118715494D01*
X167055186Y-118749334D01*
X167147288Y-118898656D01*
X167271344Y-119022712D01*
X167420666Y-119114814D01*
X167502570Y-119141954D01*
X167560015Y-119181727D01*
X167586838Y-119246243D01*
X167574523Y-119315018D01*
X167536451Y-119359978D01*
X167442787Y-119428028D01*
X167442782Y-119428032D01*
X167298028Y-119572786D01*
X167177715Y-119738386D01*
X167084781Y-119920776D01*
X167021522Y-120115465D01*
X166989500Y-120317648D01*
X166989500Y-120522351D01*
X167021522Y-120724534D01*
X167084781Y-120919223D01*
X167127443Y-121002950D01*
X167165879Y-121078385D01*
X167177715Y-121101613D01*
X167298028Y-121267213D01*
X167442786Y-121411971D01*
X167597749Y-121524556D01*
X167608390Y-121532287D01*
X167699840Y-121578883D01*
X167701080Y-121579515D01*
X167751876Y-121627490D01*
X167768671Y-121695311D01*
X167746134Y-121761446D01*
X167701080Y-121800485D01*
X167608386Y-121847715D01*
X167442786Y-121968028D01*
X167298028Y-122112786D01*
X167177715Y-122278386D01*
X167084781Y-122460776D01*
X167021522Y-122655465D01*
X166989500Y-122857648D01*
X166989500Y-123062351D01*
X167021522Y-123264534D01*
X167084781Y-123459223D01*
X167142030Y-123571578D01*
X167177712Y-123641609D01*
X167177715Y-123641613D01*
X167298028Y-123807213D01*
X167442786Y-123951971D01*
X167597749Y-124064556D01*
X167608390Y-124072287D01*
X167699840Y-124118883D01*
X167701080Y-124119515D01*
X167751876Y-124167490D01*
X167768671Y-124235311D01*
X167746134Y-124301446D01*
X167701080Y-124340485D01*
X167608386Y-124387715D01*
X167442786Y-124508028D01*
X167298032Y-124652782D01*
X167298028Y-124652787D01*
X167264900Y-124698385D01*
X167209571Y-124741051D01*
X167164582Y-124749500D01*
X166612229Y-124749500D01*
X166545190Y-124729815D01*
X166524548Y-124713181D01*
X164852957Y-123041589D01*
X164819472Y-122980266D01*
X164824456Y-122910574D01*
X164852953Y-122866231D01*
X164991966Y-122727219D01*
X165112287Y-122561610D01*
X165205220Y-122379219D01*
X165268477Y-122184534D01*
X165300500Y-121982352D01*
X165300500Y-121777648D01*
X165286618Y-121690000D01*
X165268477Y-121575465D01*
X165215354Y-121411971D01*
X165205220Y-121380781D01*
X165205218Y-121380778D01*
X165205218Y-121380776D01*
X165147354Y-121267213D01*
X165112287Y-121198390D01*
X165071070Y-121141659D01*
X164991971Y-121032786D01*
X164847213Y-120888028D01*
X164681613Y-120767715D01*
X164681612Y-120767714D01*
X164681610Y-120767713D01*
X164596867Y-120724534D01*
X164499223Y-120674781D01*
X164304534Y-120611522D01*
X164129995Y-120583878D01*
X164102352Y-120579500D01*
X163897648Y-120579500D01*
X163873329Y-120583351D01*
X163695465Y-120611522D01*
X163500776Y-120674781D01*
X163318386Y-120767715D01*
X163152786Y-120888028D01*
X163008032Y-121032782D01*
X163008028Y-121032787D01*
X162974900Y-121078385D01*
X162919571Y-121121051D01*
X162874582Y-121129500D01*
X160125418Y-121129500D01*
X160058379Y-121109815D01*
X160025100Y-121078385D01*
X159991971Y-121032787D01*
X159991967Y-121032782D01*
X159847213Y-120888028D01*
X159681613Y-120767715D01*
X159681612Y-120767714D01*
X159681610Y-120767713D01*
X159596867Y-120724534D01*
X159499223Y-120674781D01*
X159304534Y-120611522D01*
X159129995Y-120583878D01*
X159102352Y-120579500D01*
X158897648Y-120579500D01*
X158873329Y-120583351D01*
X158695465Y-120611522D01*
X158500776Y-120674781D01*
X158318386Y-120767715D01*
X158152786Y-120888028D01*
X158008028Y-121032786D01*
X157887715Y-121198386D01*
X157794781Y-121380776D01*
X157731522Y-121575465D01*
X157699500Y-121777648D01*
X157699500Y-121982351D01*
X157731522Y-122184534D01*
X157794781Y-122379223D01*
X157887715Y-122561613D01*
X158008028Y-122727213D01*
X158152786Y-122871971D01*
X158274535Y-122960425D01*
X158318390Y-122992287D01*
X158434607Y-123051503D01*
X158500776Y-123085218D01*
X158500778Y-123085218D01*
X158500781Y-123085220D01*
X158605137Y-123119127D01*
X158695465Y-123148477D01*
X158796557Y-123164488D01*
X158897648Y-123180500D01*
X158897649Y-123180500D01*
X159102351Y-123180500D01*
X159102352Y-123180500D01*
X159304534Y-123148477D01*
X159499219Y-123085220D01*
X159681610Y-122992287D01*
X159801619Y-122905096D01*
X159847213Y-122871971D01*
X159847215Y-122871968D01*
X159847219Y-122871966D01*
X159991966Y-122727219D01*
X159994650Y-122723524D01*
X160025100Y-122681615D01*
X160080429Y-122638949D01*
X160125418Y-122630500D01*
X162874582Y-122630500D01*
X162941621Y-122650185D01*
X162974900Y-122681615D01*
X163008028Y-122727212D01*
X163008032Y-122727217D01*
X163008034Y-122727219D01*
X163152781Y-122871966D01*
X163198384Y-122905098D01*
X163241050Y-122960425D01*
X163249500Y-123005416D01*
X163249500Y-123323918D01*
X163249500Y-123323920D01*
X163249499Y-123323920D01*
X163278340Y-123468907D01*
X163278343Y-123468917D01*
X163334912Y-123605488D01*
X163334918Y-123605499D01*
X163348002Y-123625079D01*
X163348004Y-123625084D01*
X163417046Y-123728414D01*
X163417052Y-123728421D01*
X165667049Y-125978416D01*
X165771584Y-126082951D01*
X165771587Y-126082953D01*
X165771588Y-126082954D01*
X165894503Y-126165083D01*
X165894506Y-126165085D01*
X165944665Y-126185861D01*
X165951080Y-126188518D01*
X166031088Y-126221659D01*
X166147241Y-126244763D01*
X166170380Y-126249365D01*
X166176081Y-126250500D01*
X166176082Y-126250500D01*
X166176083Y-126250500D01*
X166323918Y-126250500D01*
X167164582Y-126250500D01*
X167231621Y-126270185D01*
X167264900Y-126301615D01*
X167298028Y-126347212D01*
X167298032Y-126347217D01*
X167442786Y-126491971D01*
X167597749Y-126604556D01*
X167608390Y-126612287D01*
X167724607Y-126671503D01*
X167790776Y-126705218D01*
X167790778Y-126705218D01*
X167790781Y-126705220D01*
X167895137Y-126739127D01*
X167985465Y-126768477D01*
X168086557Y-126784488D01*
X168187648Y-126800500D01*
X168187649Y-126800500D01*
X169192351Y-126800500D01*
X169192352Y-126800500D01*
X169394534Y-126768477D01*
X169589219Y-126705220D01*
X169771610Y-126612287D01*
X169864590Y-126544732D01*
X169937213Y-126491971D01*
X169937215Y-126491968D01*
X169937219Y-126491966D01*
X170081966Y-126347219D01*
X170081968Y-126347215D01*
X170081971Y-126347213D01*
X170156404Y-126244763D01*
X170202287Y-126181610D01*
X170295220Y-125999219D01*
X170358477Y-125804534D01*
X170390500Y-125602352D01*
X170390500Y-125397648D01*
X170358477Y-125195466D01*
X170295220Y-125000781D01*
X170295218Y-125000778D01*
X170295218Y-125000776D01*
X170261503Y-124934607D01*
X170202287Y-124818390D01*
X170152236Y-124749500D01*
X170081971Y-124652786D01*
X169937213Y-124508028D01*
X169771614Y-124387715D01*
X169765006Y-124384348D01*
X169678917Y-124340483D01*
X169628123Y-124292511D01*
X169611328Y-124224690D01*
X169633865Y-124158555D01*
X169678917Y-124119516D01*
X169771610Y-124072287D01*
X169792770Y-124056913D01*
X169937213Y-123951971D01*
X169937215Y-123951968D01*
X169937219Y-123951966D01*
X170081966Y-123807219D01*
X170084650Y-123803524D01*
X170115100Y-123761615D01*
X170170429Y-123718949D01*
X170215418Y-123710500D01*
X170847770Y-123710500D01*
X170914809Y-123730185D01*
X170935451Y-123746819D01*
X171963181Y-124774549D01*
X171996666Y-124835872D01*
X171999500Y-124862230D01*
X171999500Y-126573918D01*
X171999500Y-126573920D01*
X171999499Y-126573920D01*
X172028340Y-126718907D01*
X172028343Y-126718917D01*
X172084914Y-126855492D01*
X172117812Y-126904727D01*
X172117813Y-126904730D01*
X172167046Y-126978414D01*
X172167052Y-126978421D01*
X174167049Y-128978416D01*
X174271584Y-129082951D01*
X174271585Y-129082952D01*
X174394498Y-129165080D01*
X174394511Y-129165087D01*
X174531082Y-129221656D01*
X174531087Y-129221658D01*
X174531091Y-129221658D01*
X174531092Y-129221659D01*
X174676079Y-129250500D01*
X174676082Y-129250500D01*
X174676083Y-129250500D01*
X174823917Y-129250500D01*
X178637770Y-129250500D01*
X178704809Y-129270185D01*
X178725451Y-129286819D01*
X179021586Y-129582954D01*
X179047112Y-129600009D01*
X179095270Y-129632186D01*
X179144505Y-129665084D01*
X179144506Y-129665084D01*
X179144507Y-129665085D01*
X179144509Y-129665086D01*
X179235552Y-129702797D01*
X179281087Y-129721658D01*
X179281091Y-129721658D01*
X179281092Y-129721659D01*
X179426079Y-129750500D01*
X179426082Y-129750500D01*
X179426083Y-129750500D01*
X179573918Y-129750500D01*
X180833616Y-129750500D01*
X180900655Y-129770185D01*
X180946410Y-129822989D01*
X180951321Y-129835494D01*
X180962535Y-129869334D01*
X181054637Y-130018656D01*
X181178693Y-130142712D01*
X181328015Y-130234814D01*
X181494552Y-130289999D01*
X181597340Y-130300500D01*
X182797357Y-130300499D01*
X182900146Y-130289999D01*
X183066683Y-130234814D01*
X183216005Y-130142712D01*
X183340061Y-130018656D01*
X183432163Y-129869334D01*
X183487348Y-129702797D01*
X183497849Y-129600009D01*
X183497848Y-128399992D01*
X183487348Y-128297203D01*
X183432163Y-128130666D01*
X183340061Y-127981344D01*
X183216005Y-127857288D01*
X183088014Y-127778343D01*
X183066685Y-127765187D01*
X183066680Y-127765185D01*
X183065211Y-127764698D01*
X182900146Y-127710001D01*
X182900144Y-127710000D01*
X182797359Y-127699500D01*
X181597347Y-127699500D01*
X181597330Y-127699501D01*
X181494552Y-127710000D01*
X181494549Y-127710001D01*
X181328017Y-127765185D01*
X181328012Y-127765187D01*
X181178691Y-127857289D01*
X181054638Y-127981342D01*
X180962536Y-128130663D01*
X180962533Y-128130671D01*
X180951321Y-128164506D01*
X180911548Y-128221950D01*
X180847032Y-128248772D01*
X180833616Y-128249500D01*
X179862230Y-128249500D01*
X179795191Y-128229815D01*
X179774549Y-128213181D01*
X179478421Y-127917052D01*
X179478420Y-127917051D01*
X179388977Y-127857288D01*
X179388976Y-127857287D01*
X179355500Y-127834919D01*
X179355488Y-127834912D01*
X179218917Y-127778343D01*
X179218907Y-127778340D01*
X179073920Y-127749500D01*
X179073918Y-127749500D01*
X175112229Y-127749500D01*
X175045190Y-127729815D01*
X175024548Y-127713181D01*
X173536819Y-126225451D01*
X173503334Y-126164128D01*
X173500500Y-126137770D01*
X173500500Y-124426079D01*
X173471659Y-124281092D01*
X173471658Y-124281091D01*
X173471658Y-124281087D01*
X173415084Y-124144505D01*
X173366830Y-124072287D01*
X173366830Y-124072286D01*
X173332950Y-124021581D01*
X171688421Y-122377052D01*
X171688414Y-122377046D01*
X171614729Y-122327812D01*
X171614729Y-122327813D01*
X171565491Y-122294913D01*
X171428917Y-122238343D01*
X171428907Y-122238340D01*
X171283920Y-122209500D01*
X171283918Y-122209500D01*
X170215418Y-122209500D01*
X170148379Y-122189815D01*
X170115100Y-122158385D01*
X170081971Y-122112787D01*
X170081967Y-122112782D01*
X169937213Y-121968028D01*
X169771614Y-121847715D01*
X169765006Y-121844348D01*
X169678917Y-121800483D01*
X169628123Y-121752511D01*
X169611328Y-121684690D01*
X169633865Y-121618555D01*
X169678917Y-121579516D01*
X169771610Y-121532287D01*
X169792770Y-121516913D01*
X169937213Y-121411971D01*
X169937215Y-121411968D01*
X169937219Y-121411966D01*
X170081966Y-121267219D01*
X170084650Y-121263524D01*
X170115100Y-121221615D01*
X170170429Y-121178949D01*
X170215418Y-121170500D01*
X171403920Y-121170500D01*
X171501462Y-121151096D01*
X171548913Y-121141658D01*
X171685495Y-121085084D01*
X171734729Y-121052186D01*
X171808416Y-121002952D01*
X173082952Y-119728416D01*
X173154064Y-119621987D01*
X173165084Y-119605495D01*
X173221658Y-119468913D01*
X173250500Y-119323918D01*
X173250500Y-116362230D01*
X173270185Y-116295191D01*
X173286819Y-116274549D01*
X175274549Y-114286819D01*
X175335872Y-114253334D01*
X175362230Y-114250500D01*
X178706243Y-114250500D01*
X178803785Y-114231096D01*
X178851236Y-114221658D01*
X178987818Y-114165084D01*
X179037052Y-114132186D01*
X179110739Y-114082952D01*
X181156871Y-112036817D01*
X181218194Y-112003333D01*
X181244552Y-112000499D01*
X182432325Y-112000499D01*
X182432331Y-112000499D01*
X182535120Y-111989999D01*
X182701657Y-111934814D01*
X182850979Y-111842712D01*
X182975035Y-111718656D01*
X183067137Y-111569334D01*
X183122322Y-111402797D01*
X183132823Y-111300009D01*
X183132822Y-109699992D01*
X183122322Y-109597203D01*
X183067137Y-109430666D01*
X182975035Y-109281344D01*
X182850979Y-109157288D01*
X182701657Y-109065186D01*
X182535120Y-109010001D01*
X182535118Y-109010000D01*
X182432333Y-108999500D01*
X180832321Y-108999500D01*
X180832304Y-108999501D01*
X180729526Y-109010000D01*
X180729523Y-109010001D01*
X180562991Y-109065185D01*
X180562986Y-109065187D01*
X180413665Y-109157289D01*
X180289612Y-109281342D01*
X180197510Y-109430663D01*
X180197509Y-109430666D01*
X180142324Y-109597203D01*
X180142324Y-109597204D01*
X180142323Y-109597204D01*
X180131823Y-109699983D01*
X180131823Y-110887769D01*
X180112138Y-110954808D01*
X180095504Y-110975450D01*
X178357774Y-112713181D01*
X178296451Y-112746666D01*
X178270093Y-112749500D01*
X174926080Y-112749500D01*
X174781092Y-112778340D01*
X174781086Y-112778342D01*
X174644508Y-112834914D01*
X174644496Y-112834921D01*
X174595269Y-112867813D01*
X174521588Y-112917044D01*
X174521580Y-112917050D01*
X171917048Y-115521583D01*
X171896478Y-115552369D01*
X171876045Y-115582951D01*
X171834919Y-115644499D01*
X171834912Y-115644511D01*
X171778343Y-115781082D01*
X171778340Y-115781092D01*
X171749500Y-115926079D01*
X171749500Y-118887770D01*
X171729815Y-118954809D01*
X171713181Y-118975451D01*
X171055451Y-119633181D01*
X170994128Y-119666666D01*
X170967770Y-119669500D01*
X170215418Y-119669500D01*
X170148379Y-119649815D01*
X170115100Y-119618385D01*
X170081971Y-119572787D01*
X170081967Y-119572782D01*
X169937219Y-119428034D01*
X169937211Y-119428028D01*
X169843547Y-119359978D01*
X169800882Y-119304649D01*
X169794903Y-119235036D01*
X169827508Y-119173240D01*
X169877426Y-119141955D01*
X169959334Y-119114814D01*
X170108656Y-119022712D01*
X170232712Y-118898656D01*
X170324814Y-118749334D01*
X170379999Y-118582797D01*
X170390500Y-118480009D01*
X170390499Y-117279992D01*
X170379999Y-117177203D01*
X170324814Y-117010666D01*
X170232712Y-116861344D01*
X170108656Y-116737288D01*
X169959334Y-116645186D01*
X169792797Y-116590001D01*
X169792795Y-116590000D01*
X169690010Y-116579500D01*
X167689998Y-116579500D01*
X167689981Y-116579501D01*
X167587203Y-116590000D01*
X167587200Y-116590001D01*
X167420668Y-116645185D01*
X167420663Y-116645187D01*
X167271342Y-116737289D01*
X167147289Y-116861342D01*
X167055187Y-117010663D01*
X167055184Y-117010671D01*
X167043972Y-117044506D01*
X167004199Y-117101950D01*
X166939683Y-117128772D01*
X166926267Y-117129500D01*
X163231230Y-117129500D01*
X163164191Y-117109815D01*
X163118436Y-117057011D01*
X163108492Y-116987853D01*
X163137517Y-116924297D01*
X163143549Y-116917819D01*
X164582947Y-115478420D01*
X164582950Y-115478417D01*
X164582949Y-115478417D01*
X164582952Y-115478415D01*
X164623955Y-115417049D01*
X164665084Y-115355495D01*
X164697042Y-115278342D01*
X164721659Y-115218912D01*
X164750500Y-115073917D01*
X164750500Y-114926082D01*
X164750500Y-114625416D01*
X164770185Y-114558377D01*
X164801613Y-114525099D01*
X164847219Y-114491966D01*
X164991966Y-114347219D01*
X164991968Y-114347215D01*
X164991971Y-114347213D01*
X165062236Y-114250500D01*
X165112287Y-114181610D01*
X165205220Y-113999219D01*
X165268477Y-113804534D01*
X165300500Y-113602352D01*
X165300500Y-113397648D01*
X165268477Y-113195465D01*
X165205218Y-113000776D01*
X165137469Y-112867813D01*
X165112287Y-112818390D01*
X165060177Y-112746666D01*
X164991971Y-112652786D01*
X164847217Y-112508032D01*
X164847212Y-112508028D01*
X164801615Y-112474900D01*
X164758949Y-112419571D01*
X164750500Y-112374582D01*
X164750500Y-109375416D01*
X164770185Y-109308377D01*
X164801613Y-109275099D01*
X164847219Y-109241966D01*
X164991966Y-109097219D01*
X164991968Y-109097215D01*
X164991971Y-109097213D01*
X165055334Y-109010000D01*
X165112287Y-108931610D01*
X165205220Y-108749219D01*
X165268477Y-108554534D01*
X165300500Y-108352352D01*
X165300500Y-108147648D01*
X165268477Y-107945466D01*
X165205220Y-107750781D01*
X165205218Y-107750778D01*
X165205218Y-107750776D01*
X165171503Y-107684607D01*
X165112287Y-107568390D01*
X165039492Y-107468195D01*
X164991971Y-107402786D01*
X164847213Y-107258028D01*
X164681613Y-107137715D01*
X164681612Y-107137714D01*
X164681610Y-107137713D01*
X164574136Y-107082952D01*
X164499223Y-107044781D01*
X164304534Y-106981522D01*
X164129995Y-106953878D01*
X164102352Y-106949500D01*
X163897648Y-106949500D01*
X163873329Y-106953351D01*
X163695465Y-106981522D01*
X163500776Y-107044781D01*
X163318386Y-107137715D01*
X163152786Y-107258028D01*
X163008028Y-107402786D01*
X162887715Y-107568386D01*
X162794781Y-107750776D01*
X162731522Y-107945465D01*
X162699500Y-108147648D01*
X162699500Y-108352351D01*
X162731522Y-108554534D01*
X162794781Y-108749223D01*
X162887715Y-108931613D01*
X163008028Y-109097213D01*
X163008034Y-109097219D01*
X163152781Y-109241966D01*
X163198384Y-109275098D01*
X163241050Y-109330425D01*
X163249500Y-109375416D01*
X163249500Y-112374582D01*
X163229815Y-112441621D01*
X163198385Y-112474900D01*
X163152787Y-112508028D01*
X163152782Y-112508032D01*
X163008028Y-112652786D01*
X162887715Y-112818386D01*
X162794781Y-113000776D01*
X162731522Y-113195465D01*
X162699500Y-113397648D01*
X162699500Y-113602351D01*
X162731522Y-113804534D01*
X162794781Y-113999223D01*
X162887715Y-114181613D01*
X163008028Y-114347213D01*
X163008034Y-114347219D01*
X163152781Y-114491966D01*
X163198384Y-114525098D01*
X163201724Y-114529429D01*
X163206703Y-114531703D01*
X163222832Y-114556801D01*
X163241050Y-114580425D01*
X163242303Y-114587098D01*
X163244477Y-114590481D01*
X163249500Y-114625416D01*
X163249500Y-114637770D01*
X163229815Y-114704809D01*
X163213181Y-114725451D01*
X161475451Y-116463181D01*
X161414128Y-116496666D01*
X161387770Y-116499500D01*
X155926080Y-116499500D01*
X155781092Y-116528340D01*
X155781082Y-116528343D01*
X155644511Y-116584912D01*
X155644498Y-116584919D01*
X155521584Y-116667048D01*
X155521580Y-116667051D01*
X148617052Y-123571578D01*
X148617049Y-123571581D01*
X148570258Y-123641609D01*
X148570259Y-123641610D01*
X148534914Y-123694508D01*
X148478343Y-123831082D01*
X148478340Y-123831092D01*
X148449500Y-123976079D01*
X148449500Y-125516267D01*
X148429815Y-125583306D01*
X148377011Y-125629061D01*
X148364506Y-125633972D01*
X148330671Y-125645184D01*
X148330663Y-125645187D01*
X148181342Y-125737289D01*
X148057289Y-125861342D01*
X147965187Y-126010663D01*
X147965186Y-126010666D01*
X147910001Y-126177203D01*
X147910001Y-126177204D01*
X147910000Y-126177204D01*
X147899500Y-126279983D01*
X147899500Y-127480001D01*
X147899501Y-127480018D01*
X147910000Y-127582796D01*
X147910001Y-127582799D01*
X147965185Y-127749331D01*
X147965187Y-127749336D01*
X147974964Y-127765187D01*
X148057288Y-127898656D01*
X148181344Y-128022712D01*
X148330666Y-128114814D01*
X148364500Y-128126025D01*
X148421947Y-128165796D01*
X148448772Y-128230311D01*
X148449500Y-128243732D01*
X148449500Y-134773918D01*
X148449500Y-134773920D01*
X148449499Y-134773920D01*
X148478340Y-134918907D01*
X148478343Y-134918917D01*
X148534913Y-135055490D01*
X148534914Y-135055491D01*
X148534916Y-135055495D01*
X148540936Y-135064504D01*
X148540937Y-135064507D01*
X148617046Y-135178414D01*
X148617052Y-135178421D01*
X149133181Y-135694549D01*
X149166666Y-135755872D01*
X149169500Y-135782230D01*
X149169500Y-139375500D01*
X149149815Y-139442539D01*
X149097011Y-139488294D01*
X149045500Y-139499500D01*
X148372129Y-139499500D01*
X148372123Y-139499501D01*
X148312516Y-139505908D01*
X148177671Y-139556202D01*
X148177664Y-139556206D01*
X148062455Y-139642452D01*
X148062452Y-139642455D01*
X147976206Y-139757664D01*
X147976202Y-139757671D01*
X147925908Y-139892517D01*
X147919501Y-139952116D01*
X147919501Y-139952123D01*
X147919500Y-139952135D01*
X147919500Y-143047870D01*
X147919501Y-143047876D01*
X147925908Y-143107483D01*
X147976202Y-143242328D01*
X147976204Y-143242331D01*
X148020265Y-143301189D01*
X148044683Y-143366652D01*
X148029832Y-143434925D01*
X147980427Y-143484331D01*
X147920999Y-143499500D01*
X146624000Y-143499500D01*
X146556961Y-143479815D01*
X146511206Y-143427011D01*
X146500000Y-143375500D01*
X146500000Y-113389778D01*
X151099500Y-113389778D01*
X151099500Y-113610221D01*
X151133985Y-113827952D01*
X151202103Y-114037603D01*
X151202104Y-114037606D01*
X151225209Y-114082950D01*
X151295885Y-114221658D01*
X151302187Y-114234025D01*
X151431752Y-114412358D01*
X151431756Y-114412363D01*
X151587636Y-114568243D01*
X151587641Y-114568247D01*
X151743192Y-114681260D01*
X151765978Y-114697815D01*
X151894375Y-114763237D01*
X151962393Y-114797895D01*
X151962396Y-114797896D01*
X152067221Y-114831955D01*
X152172049Y-114866015D01*
X152389778Y-114900500D01*
X152389779Y-114900500D01*
X152610221Y-114900500D01*
X152610222Y-114900500D01*
X152827951Y-114866015D01*
X153037606Y-114797895D01*
X153234022Y-114697815D01*
X153412365Y-114568242D01*
X153568242Y-114412365D01*
X153648705Y-114301615D01*
X153704035Y-114258949D01*
X153749024Y-114250500D01*
X155254582Y-114250500D01*
X155321621Y-114270185D01*
X155354900Y-114301615D01*
X155388028Y-114347212D01*
X155388032Y-114347217D01*
X155532786Y-114491971D01*
X155654535Y-114580425D01*
X155698390Y-114612287D01*
X155814607Y-114671503D01*
X155880776Y-114705218D01*
X155880778Y-114705218D01*
X155880781Y-114705220D01*
X155943046Y-114725451D01*
X156075465Y-114768477D01*
X156176557Y-114784488D01*
X156277648Y-114800500D01*
X156277649Y-114800500D01*
X156482351Y-114800500D01*
X156482352Y-114800500D01*
X156684534Y-114768477D01*
X156879219Y-114705220D01*
X157061610Y-114612287D01*
X157181619Y-114525096D01*
X157227213Y-114491971D01*
X157227215Y-114491968D01*
X157227219Y-114491966D01*
X157371966Y-114347219D01*
X157371968Y-114347215D01*
X157371971Y-114347213D01*
X157442236Y-114250500D01*
X157492287Y-114181610D01*
X157585220Y-113999219D01*
X157648477Y-113804534D01*
X157680500Y-113602352D01*
X157680500Y-113397648D01*
X157648477Y-113195465D01*
X157585218Y-113000776D01*
X157517469Y-112867813D01*
X157492287Y-112818390D01*
X157440177Y-112746666D01*
X157371971Y-112652786D01*
X157227213Y-112508028D01*
X157061613Y-112387715D01*
X157061612Y-112387714D01*
X157061610Y-112387713D01*
X157004653Y-112358691D01*
X156879223Y-112294781D01*
X156684534Y-112231522D01*
X156498799Y-112202105D01*
X156482352Y-112199500D01*
X156277648Y-112199500D01*
X156261201Y-112202105D01*
X156075465Y-112231522D01*
X155880776Y-112294781D01*
X155698386Y-112387715D01*
X155532786Y-112508028D01*
X155388032Y-112652782D01*
X155388028Y-112652787D01*
X155354900Y-112698385D01*
X155299571Y-112741051D01*
X155254582Y-112749500D01*
X153749024Y-112749500D01*
X153681985Y-112729815D01*
X153648705Y-112698384D01*
X153568245Y-112587638D01*
X153412363Y-112431756D01*
X153412358Y-112431752D01*
X153234025Y-112302187D01*
X153234024Y-112302186D01*
X153234022Y-112302185D01*
X153171096Y-112270122D01*
X153037606Y-112202104D01*
X153037603Y-112202103D01*
X152827952Y-112133985D01*
X152719086Y-112116742D01*
X152610222Y-112099500D01*
X152389778Y-112099500D01*
X152317201Y-112110995D01*
X152172047Y-112133985D01*
X151962396Y-112202103D01*
X151962393Y-112202104D01*
X151765974Y-112302187D01*
X151587641Y-112431752D01*
X151587636Y-112431756D01*
X151431756Y-112587636D01*
X151431752Y-112587641D01*
X151302187Y-112765974D01*
X151202104Y-112962393D01*
X151202103Y-112962396D01*
X151133985Y-113172047D01*
X151099500Y-113389778D01*
X146500000Y-113389778D01*
X146500000Y-105952135D01*
X172689500Y-105952135D01*
X172689500Y-109047870D01*
X172689501Y-109047876D01*
X172695908Y-109107483D01*
X172746202Y-109242328D01*
X172746206Y-109242335D01*
X172832452Y-109357544D01*
X172832455Y-109357547D01*
X172947664Y-109443793D01*
X172947671Y-109443797D01*
X173082517Y-109494091D01*
X173082516Y-109494091D01*
X173089444Y-109494835D01*
X173142127Y-109500500D01*
X176237872Y-109500499D01*
X176297483Y-109494091D01*
X176432331Y-109443796D01*
X176547546Y-109357546D01*
X176633796Y-109242331D01*
X176684091Y-109107483D01*
X176690500Y-109047873D01*
X176690499Y-107374499D01*
X176710184Y-107307461D01*
X176762987Y-107261706D01*
X176814499Y-107250500D01*
X177323920Y-107250500D01*
X177421462Y-107231096D01*
X177468913Y-107221658D01*
X177605495Y-107165084D01*
X177654729Y-107132186D01*
X177728416Y-107082952D01*
X178274548Y-106536818D01*
X178335871Y-106503334D01*
X178362229Y-106500500D01*
X184887770Y-106500500D01*
X184954809Y-106520185D01*
X184975451Y-106536819D01*
X185845504Y-107406872D01*
X185878989Y-107468195D01*
X185881823Y-107494553D01*
X185881823Y-109127368D01*
X185862138Y-109194407D01*
X185830709Y-109227686D01*
X185654811Y-109355484D01*
X185487808Y-109522487D01*
X185487808Y-109522488D01*
X185487806Y-109522490D01*
X185433526Y-109597200D01*
X185348980Y-109713566D01*
X185241756Y-109924003D01*
X185168769Y-110148631D01*
X185131823Y-110381902D01*
X185131823Y-110618097D01*
X185168769Y-110851368D01*
X185241756Y-111075996D01*
X185348980Y-111286433D01*
X185487806Y-111477510D01*
X185654813Y-111644517D01*
X185845890Y-111783343D01*
X185945314Y-111834002D01*
X186056326Y-111890566D01*
X186056328Y-111890566D01*
X186056331Y-111890568D01*
X186176735Y-111929689D01*
X186280954Y-111963553D01*
X186514226Y-112000500D01*
X186514231Y-112000500D01*
X186750420Y-112000500D01*
X186983691Y-111963553D01*
X187208315Y-111890568D01*
X187418756Y-111783343D01*
X187609833Y-111644517D01*
X187776840Y-111477510D01*
X187915666Y-111286433D01*
X188022891Y-111075992D01*
X188095876Y-110851368D01*
X188132823Y-110618097D01*
X188132823Y-110381902D01*
X188095876Y-110148631D01*
X188022889Y-109924003D01*
X187915665Y-109713566D01*
X187776840Y-109522490D01*
X187609833Y-109355483D01*
X187507787Y-109281342D01*
X187433937Y-109227686D01*
X187391272Y-109172355D01*
X187382823Y-109127368D01*
X187382823Y-107058402D01*
X187353982Y-106913415D01*
X187353981Y-106913414D01*
X187353981Y-106913410D01*
X187297407Y-106776828D01*
X187258709Y-106718912D01*
X187258708Y-106718910D01*
X187258707Y-106718908D01*
X187215276Y-106653908D01*
X187215270Y-106653901D01*
X185728421Y-105167052D01*
X185728414Y-105167046D01*
X185654729Y-105117812D01*
X185654729Y-105117813D01*
X185605491Y-105084913D01*
X185468917Y-105028343D01*
X185468907Y-105028340D01*
X185323920Y-104999500D01*
X185323918Y-104999500D01*
X178073917Y-104999500D01*
X177926082Y-104999500D01*
X177926080Y-104999500D01*
X177781092Y-105028340D01*
X177781082Y-105028343D01*
X177644511Y-105084912D01*
X177644498Y-105084919D01*
X177521584Y-105167048D01*
X177521580Y-105167051D01*
X176975451Y-105713181D01*
X176948523Y-105727884D01*
X176922705Y-105744477D01*
X176916504Y-105745368D01*
X176914128Y-105746666D01*
X176887770Y-105749500D01*
X176689751Y-105749500D01*
X176622712Y-105729815D01*
X176590485Y-105699812D01*
X176547548Y-105642457D01*
X176547546Y-105642454D01*
X176547542Y-105642451D01*
X176432335Y-105556206D01*
X176432328Y-105556202D01*
X176297482Y-105505908D01*
X176297483Y-105505908D01*
X176237883Y-105499501D01*
X176237881Y-105499500D01*
X176237873Y-105499500D01*
X176237864Y-105499500D01*
X173142129Y-105499500D01*
X173142123Y-105499501D01*
X173082516Y-105505908D01*
X172947671Y-105556202D01*
X172947664Y-105556206D01*
X172832455Y-105642452D01*
X172832452Y-105642455D01*
X172746206Y-105757664D01*
X172746202Y-105757671D01*
X172695908Y-105892517D01*
X172689501Y-105952116D01*
X172689500Y-105952135D01*
X146500000Y-105952135D01*
X146500000Y-104124000D01*
X146519685Y-104056961D01*
X146572489Y-104011206D01*
X146624000Y-104000000D01*
X188875500Y-104000000D01*
X188942539Y-104019685D01*
G37*
%TD.AperFunction*%
%TD*%
M02*
