%TF.GenerationSoftware,KiCad,Pcbnew,9.0.4*%
%TF.CreationDate,2025-08-26T10:36:07+02:00*%
%TF.ProjectId,TDA7267_2x2_panel,54444137-3236-4375-9f32-78325f70616e,rev?*%
%TF.SameCoordinates,Original*%
%TF.FileFunction,Copper,L2,Bot*%
%TF.FilePolarity,Positive*%
%FSLAX46Y46*%
G04 Gerber Fmt 4.6, Leading zero omitted, Abs format (unit mm)*
G04 Created by KiCad (PCBNEW 9.0.4) date 2025-08-26 10:36:07*
%MOMM*%
%LPD*%
G01*
G04 APERTURE LIST*
G04 Aperture macros list*
%AMRoundRect*
0 Rectangle with rounded corners*
0 $1 Rounding radius*
0 $2 $3 $4 $5 $6 $7 $8 $9 X,Y pos of 4 corners*
0 Add a 4 corners polygon primitive as box body*
4,1,4,$2,$3,$4,$5,$6,$7,$8,$9,$2,$3,0*
0 Add four circle primitives for the rounded corners*
1,1,$1+$1,$2,$3*
1,1,$1+$1,$4,$5*
1,1,$1+$1,$6,$7*
1,1,$1+$1,$8,$9*
0 Add four rect primitives between the rounded corners*
20,1,$1+$1,$2,$3,$4,$5,0*
20,1,$1+$1,$4,$5,$6,$7,0*
20,1,$1+$1,$6,$7,$8,$9,0*
20,1,$1+$1,$8,$9,$2,$3,0*%
G04 Aperture macros list end*
%TA.AperFunction,ComponentPad*%
%ADD10C,2.340000*%
%TD*%
%TA.AperFunction,ComponentPad*%
%ADD11C,1.600000*%
%TD*%
%TA.AperFunction,ComponentPad*%
%ADD12RoundRect,0.250000X-0.550000X-0.550000X0.550000X-0.550000X0.550000X0.550000X-0.550000X0.550000X0*%
%TD*%
%TA.AperFunction,ComponentPad*%
%ADD13R,1.800000X1.800000*%
%TD*%
%TA.AperFunction,ComponentPad*%
%ADD14C,1.800000*%
%TD*%
%TA.AperFunction,ComponentPad*%
%ADD15R,3.000000X3.000000*%
%TD*%
%TA.AperFunction,ComponentPad*%
%ADD16C,3.000000*%
%TD*%
%TA.AperFunction,ComponentPad*%
%ADD17C,2.000000*%
%TD*%
%TA.AperFunction,ComponentPad*%
%ADD18RoundRect,0.250000X-0.750000X-0.750000X0.750000X-0.750000X0.750000X0.750000X-0.750000X0.750000X0*%
%TD*%
%TA.AperFunction,ComponentPad*%
%ADD19O,2.400000X1.600000*%
%TD*%
%TA.AperFunction,ComponentPad*%
%ADD20RoundRect,0.250000X-0.950000X-0.550000X0.950000X-0.550000X0.950000X0.550000X-0.950000X0.550000X0*%
%TD*%
G04 APERTURE END LIST*
D10*
%TO.P,RV1,1,1*%
%TO.N,Net-(IN1-Pin_1)*%
X176000000Y-96500000D03*
%TO.P,RV1,2,2*%
%TO.N,Net-(C1-Pad1)*%
X181000000Y-96500000D03*
%TO.P,RV1,3,3*%
%TO.N,GND*%
X186000000Y-96500000D03*
%TD*%
%TO.P,RV1,1,1*%
%TO.N,Net-(IN1-Pin_1)*%
X129000000Y-96500000D03*
%TO.P,RV1,2,2*%
%TO.N,Net-(C1-Pad1)*%
X134000000Y-96500000D03*
%TO.P,RV1,3,3*%
%TO.N,GND*%
X139000000Y-96500000D03*
%TD*%
%TO.P,RV1,3,3*%
%TO.N,GND*%
X186000000Y-141500000D03*
%TO.P,RV1,2,2*%
%TO.N,Net-(C1-Pad1)*%
X181000000Y-141500000D03*
%TO.P,RV1,1,1*%
%TO.N,Net-(IN1-Pin_1)*%
X176000000Y-141500000D03*
%TD*%
D11*
%TO.P,C2,2*%
%TO.N,GND*%
X138997349Y-84000000D03*
D12*
%TO.P,C2,1*%
%TO.N,Net-(U1-SRV)*%
X135197349Y-84000000D03*
%TD*%
D11*
%TO.P,C3,2*%
%TO.N,Net-(U1-In)*%
X112000000Y-76880000D03*
%TO.P,C3,1*%
%TO.N,GND*%
X112000000Y-81880000D03*
%TD*%
%TO.P,R1,2*%
%TO.N,Net-(U1-In)*%
X117000000Y-76880000D03*
%TO.P,R1,1*%
%TO.N,Net-(C1-Pad2)*%
X117000000Y-84500000D03*
%TD*%
D13*
%TO.P,D1,1,K*%
%TO.N,GND*%
X149960000Y-68500000D03*
D14*
%TO.P,D1,2,A*%
%TO.N,Net-(D1-A)*%
X152500000Y-68500000D03*
%TD*%
D11*
%TO.P,C5,1*%
%TO.N,GND*%
X159000000Y-63250000D03*
%TO.P,C5,2*%
%TO.N,Net-(U1-V+)*%
X164000000Y-63250000D03*
%TD*%
D15*
%TO.P,OUT1,1,Pin_1*%
%TO.N,Net-(OUT1-Pin_1)*%
X174690000Y-62500000D03*
D16*
%TO.P,OUT1,2,Pin_2*%
%TO.N,GND*%
X169610000Y-62500000D03*
%TD*%
D11*
%TO.P,C3,1*%
%TO.N,GND*%
X159000000Y-81880000D03*
%TO.P,C3,2*%
%TO.N,Net-(U1-In)*%
X159000000Y-76880000D03*
%TD*%
D17*
%TO.P,C6,2*%
%TO.N,Net-(OUT1-Pin_1)*%
X139632323Y-65500000D03*
D18*
%TO.P,C6,1*%
%TO.N,Net-(U1-Out)*%
X134632323Y-65500000D03*
%TD*%
D15*
%TO.P,IN1,1,Pin_1*%
%TO.N,Net-(IN1-Pin_1)*%
X162920000Y-96500000D03*
D16*
%TO.P,IN1,2,Pin_2*%
%TO.N,GND*%
X168000000Y-96500000D03*
%TD*%
D11*
%TO.P,C4,2*%
%TO.N,GND*%
X106000000Y-81880000D03*
D12*
%TO.P,C4,1*%
%TO.N,Net-(U1-V+)*%
X102200000Y-81880000D03*
%TD*%
D11*
%TO.P,R1,1*%
%TO.N,Net-(C1-Pad2)*%
X164000000Y-84500000D03*
%TO.P,R1,2*%
%TO.N,Net-(U1-In)*%
X164000000Y-76880000D03*
%TD*%
%TO.P,C1,2*%
%TO.N,Net-(C1-Pad2)*%
X122000000Y-87000000D03*
%TO.P,C1,1*%
%TO.N,Net-(C1-Pad1)*%
X127000000Y-87000000D03*
%TD*%
D19*
%TO.P,U1,8,GND*%
%TO.N,GND*%
X129310000Y-72880000D03*
%TO.P,U1,7,GND*%
X129310000Y-75420000D03*
%TO.P,U1,6,GND*%
X129310000Y-77960000D03*
%TO.P,U1,5,GND*%
X129310000Y-80500000D03*
%TO.P,U1,4,In*%
%TO.N,Net-(U1-In)*%
X121690000Y-80500000D03*
%TO.P,U1,3,SRV*%
%TO.N,Net-(U1-SRV)*%
X121690000Y-77960000D03*
%TO.P,U1,2,Out*%
%TO.N,Net-(U1-Out)*%
X121690000Y-75420000D03*
D20*
%TO.P,U1,1,V+*%
%TO.N,Net-(U1-V+)*%
X121690000Y-72880000D03*
%TD*%
D14*
%TO.P,D1,2,A*%
%TO.N,Net-(D1-A)*%
X105500000Y-68500000D03*
D13*
%TO.P,D1,1,K*%
%TO.N,GND*%
X102960000Y-68500000D03*
%TD*%
D16*
%TO.P,IN1,2,Pin_2*%
%TO.N,GND*%
X121000000Y-96500000D03*
D15*
%TO.P,IN1,1,Pin_1*%
%TO.N,Net-(IN1-Pin_1)*%
X115920000Y-96500000D03*
%TD*%
D11*
%TO.P,C5,2*%
%TO.N,Net-(U1-V+)*%
X117000000Y-63250000D03*
%TO.P,C5,1*%
%TO.N,GND*%
X112000000Y-63250000D03*
%TD*%
D16*
%TO.P,OUT1,2,Pin_2*%
%TO.N,GND*%
X122610000Y-62500000D03*
D15*
%TO.P,OUT1,1,Pin_1*%
%TO.N,Net-(OUT1-Pin_1)*%
X127690000Y-62500000D03*
%TD*%
D13*
%TO.P,D1,1,K*%
%TO.N,GND*%
X102960000Y-113500000D03*
D14*
%TO.P,D1,2,A*%
%TO.N,Net-(D1-A)*%
X105500000Y-113500000D03*
%TD*%
D12*
%TO.P,C2,1*%
%TO.N,Net-(U1-SRV)*%
X135197349Y-129000000D03*
D11*
%TO.P,C2,2*%
%TO.N,GND*%
X138997349Y-129000000D03*
%TD*%
D15*
%TO.P,IN1,1,Pin_1*%
%TO.N,Net-(IN1-Pin_1)*%
X115920000Y-141500000D03*
D16*
%TO.P,IN1,2,Pin_2*%
%TO.N,GND*%
X121000000Y-141500000D03*
%TD*%
D11*
%TO.P,R1,1*%
%TO.N,Net-(C1-Pad2)*%
X117000000Y-129500000D03*
%TO.P,R1,2*%
%TO.N,Net-(U1-In)*%
X117000000Y-121880000D03*
%TD*%
%TO.P,C1,1*%
%TO.N,Net-(C1-Pad1)*%
X127000000Y-132000000D03*
%TO.P,C1,2*%
%TO.N,Net-(C1-Pad2)*%
X122000000Y-132000000D03*
%TD*%
D16*
%TO.P,OUT1,2,Pin_2*%
%TO.N,GND*%
X122610000Y-107500000D03*
D15*
%TO.P,OUT1,1,Pin_1*%
%TO.N,Net-(OUT1-Pin_1)*%
X127690000Y-107500000D03*
%TD*%
D20*
%TO.P,U1,1,V+*%
%TO.N,Net-(U1-V+)*%
X121690000Y-117880000D03*
D19*
%TO.P,U1,2,Out*%
%TO.N,Net-(U1-Out)*%
X121690000Y-120420000D03*
%TO.P,U1,3,SRV*%
%TO.N,Net-(U1-SRV)*%
X121690000Y-122960000D03*
%TO.P,U1,4,In*%
%TO.N,Net-(U1-In)*%
X121690000Y-125500000D03*
%TO.P,U1,5,GND*%
%TO.N,GND*%
X129310000Y-125500000D03*
%TO.P,U1,6,GND*%
X129310000Y-122960000D03*
%TO.P,U1,7,GND*%
X129310000Y-120420000D03*
%TO.P,U1,8,GND*%
X129310000Y-117880000D03*
%TD*%
D11*
%TO.P,R2,1*%
%TO.N,Net-(D1-A)*%
X109380000Y-113500000D03*
%TO.P,R2,2*%
%TO.N,Net-(U1-V+)*%
X117000000Y-113500000D03*
%TD*%
D15*
%TO.P,VCC1,1,Pin_1*%
%TO.N,Net-(U1-V+)*%
X102920000Y-141500000D03*
D16*
%TO.P,VCC1,2,Pin_2*%
%TO.N,GND*%
X108000000Y-141500000D03*
%TD*%
D11*
%TO.P,C5,1*%
%TO.N,GND*%
X112000000Y-108250000D03*
%TO.P,C5,2*%
%TO.N,Net-(U1-V+)*%
X117000000Y-108250000D03*
%TD*%
%TO.P,R1,2*%
%TO.N,Net-(U1-In)*%
X164000000Y-121880000D03*
%TO.P,R1,1*%
%TO.N,Net-(C1-Pad2)*%
X164000000Y-129500000D03*
%TD*%
D15*
%TO.P,OUT1,1,Pin_1*%
%TO.N,Net-(OUT1-Pin_1)*%
X174690000Y-107500000D03*
D16*
%TO.P,OUT1,2,Pin_2*%
%TO.N,GND*%
X169610000Y-107500000D03*
%TD*%
D18*
%TO.P,C6,1*%
%TO.N,Net-(U1-Out)*%
X134632323Y-110500000D03*
D17*
%TO.P,C6,2*%
%TO.N,Net-(OUT1-Pin_1)*%
X139632323Y-110500000D03*
%TD*%
D12*
%TO.P,C4,1*%
%TO.N,Net-(U1-V+)*%
X102200000Y-126880000D03*
D11*
%TO.P,C4,2*%
%TO.N,GND*%
X106000000Y-126880000D03*
%TD*%
D10*
%TO.P,RV1,3,3*%
%TO.N,GND*%
X139000000Y-141500000D03*
%TO.P,RV1,2,2*%
%TO.N,Net-(C1-Pad1)*%
X134000000Y-141500000D03*
%TO.P,RV1,1,1*%
%TO.N,Net-(IN1-Pin_1)*%
X129000000Y-141500000D03*
%TD*%
D11*
%TO.P,C3,2*%
%TO.N,Net-(U1-In)*%
X159000000Y-121880000D03*
%TO.P,C3,1*%
%TO.N,GND*%
X159000000Y-126880000D03*
%TD*%
D16*
%TO.P,IN1,2,Pin_2*%
%TO.N,GND*%
X168000000Y-141500000D03*
D15*
%TO.P,IN1,1,Pin_1*%
%TO.N,Net-(IN1-Pin_1)*%
X162920000Y-141500000D03*
%TD*%
D14*
%TO.P,D1,2,A*%
%TO.N,Net-(D1-A)*%
X152500000Y-113500000D03*
D13*
%TO.P,D1,1,K*%
%TO.N,GND*%
X149960000Y-113500000D03*
%TD*%
D12*
%TO.P,C2,1*%
%TO.N,Net-(U1-SRV)*%
X182197349Y-84000000D03*
D11*
%TO.P,C2,2*%
%TO.N,GND*%
X185997349Y-84000000D03*
%TD*%
%TO.P,R2,1*%
%TO.N,Net-(D1-A)*%
X156380000Y-68500000D03*
%TO.P,R2,2*%
%TO.N,Net-(U1-V+)*%
X164000000Y-68500000D03*
%TD*%
D18*
%TO.P,C6,1*%
%TO.N,Net-(U1-Out)*%
X181632323Y-65500000D03*
D17*
%TO.P,C6,2*%
%TO.N,Net-(OUT1-Pin_1)*%
X186632323Y-65500000D03*
%TD*%
D12*
%TO.P,C4,1*%
%TO.N,Net-(U1-V+)*%
X149200000Y-81880000D03*
D11*
%TO.P,C4,2*%
%TO.N,GND*%
X153000000Y-81880000D03*
%TD*%
%TO.P,C3,1*%
%TO.N,GND*%
X112000000Y-126880000D03*
%TO.P,C3,2*%
%TO.N,Net-(U1-In)*%
X112000000Y-121880000D03*
%TD*%
D20*
%TO.P,U1,1,V+*%
%TO.N,Net-(U1-V+)*%
X168690000Y-72880000D03*
D19*
%TO.P,U1,2,Out*%
%TO.N,Net-(U1-Out)*%
X168690000Y-75420000D03*
%TO.P,U1,3,SRV*%
%TO.N,Net-(U1-SRV)*%
X168690000Y-77960000D03*
%TO.P,U1,4,In*%
%TO.N,Net-(U1-In)*%
X168690000Y-80500000D03*
%TO.P,U1,5,GND*%
%TO.N,GND*%
X176310000Y-80500000D03*
%TO.P,U1,6,GND*%
X176310000Y-77960000D03*
%TO.P,U1,7,GND*%
X176310000Y-75420000D03*
%TO.P,U1,8,GND*%
X176310000Y-72880000D03*
%TD*%
D11*
%TO.P,C1,1*%
%TO.N,Net-(C1-Pad1)*%
X174000000Y-87000000D03*
%TO.P,C1,2*%
%TO.N,Net-(C1-Pad2)*%
X169000000Y-87000000D03*
%TD*%
D15*
%TO.P,VCC1,1,Pin_1*%
%TO.N,Net-(U1-V+)*%
X149920000Y-96500000D03*
D16*
%TO.P,VCC1,2,Pin_2*%
%TO.N,GND*%
X155000000Y-96500000D03*
%TD*%
%TO.P,VCC1,2,Pin_2*%
%TO.N,GND*%
X155000000Y-141500000D03*
D15*
%TO.P,VCC1,1,Pin_1*%
%TO.N,Net-(U1-V+)*%
X149920000Y-141500000D03*
%TD*%
D19*
%TO.P,U1,8,GND*%
%TO.N,GND*%
X176310000Y-117880000D03*
%TO.P,U1,7,GND*%
X176310000Y-120420000D03*
%TO.P,U1,6,GND*%
X176310000Y-122960000D03*
%TO.P,U1,5,GND*%
X176310000Y-125500000D03*
%TO.P,U1,4,In*%
%TO.N,Net-(U1-In)*%
X168690000Y-125500000D03*
%TO.P,U1,3,SRV*%
%TO.N,Net-(U1-SRV)*%
X168690000Y-122960000D03*
%TO.P,U1,2,Out*%
%TO.N,Net-(U1-Out)*%
X168690000Y-120420000D03*
D20*
%TO.P,U1,1,V+*%
%TO.N,Net-(U1-V+)*%
X168690000Y-117880000D03*
%TD*%
D11*
%TO.P,C1,2*%
%TO.N,Net-(C1-Pad2)*%
X169000000Y-132000000D03*
%TO.P,C1,1*%
%TO.N,Net-(C1-Pad1)*%
X174000000Y-132000000D03*
%TD*%
%TO.P,C2,2*%
%TO.N,GND*%
X185997349Y-129000000D03*
D12*
%TO.P,C2,1*%
%TO.N,Net-(U1-SRV)*%
X182197349Y-129000000D03*
%TD*%
D11*
%TO.P,C5,2*%
%TO.N,Net-(U1-V+)*%
X164000000Y-108250000D03*
%TO.P,C5,1*%
%TO.N,GND*%
X159000000Y-108250000D03*
%TD*%
%TO.P,R2,2*%
%TO.N,Net-(U1-V+)*%
X164000000Y-113500000D03*
%TO.P,R2,1*%
%TO.N,Net-(D1-A)*%
X156380000Y-113500000D03*
%TD*%
D17*
%TO.P,C6,2*%
%TO.N,Net-(OUT1-Pin_1)*%
X186632323Y-110500000D03*
D18*
%TO.P,C6,1*%
%TO.N,Net-(U1-Out)*%
X181632323Y-110500000D03*
%TD*%
D11*
%TO.P,C4,2*%
%TO.N,GND*%
X153000000Y-126880000D03*
D12*
%TO.P,C4,1*%
%TO.N,Net-(U1-V+)*%
X149200000Y-126880000D03*
%TD*%
D11*
%TO.P,R2,2*%
%TO.N,Net-(U1-V+)*%
X117000000Y-68500000D03*
%TO.P,R2,1*%
%TO.N,Net-(D1-A)*%
X109380000Y-68500000D03*
%TD*%
D16*
%TO.P,VCC1,2,Pin_2*%
%TO.N,GND*%
X108000000Y-96500000D03*
D15*
%TO.P,VCC1,1,Pin_1*%
%TO.N,Net-(U1-V+)*%
X102920000Y-96500000D03*
%TD*%
%TA.AperFunction,Conductor*%
%TO.N,GND*%
G36*
X125758038Y-60520185D02*
G01*
X125803793Y-60572989D01*
X125813737Y-60642147D01*
X125790265Y-60698810D01*
X125770238Y-60725562D01*
X125746204Y-60757668D01*
X125746202Y-60757671D01*
X125695908Y-60892517D01*
X125689501Y-60952116D01*
X125689501Y-60952123D01*
X125689500Y-60952135D01*
X125689500Y-64047870D01*
X125689501Y-64047876D01*
X125695908Y-64107483D01*
X125746202Y-64242328D01*
X125746206Y-64242335D01*
X125832452Y-64357544D01*
X125832455Y-64357547D01*
X125947664Y-64443793D01*
X125947671Y-64443797D01*
X126082517Y-64494091D01*
X126082516Y-64494091D01*
X126089444Y-64494835D01*
X126142127Y-64500500D01*
X129237872Y-64500499D01*
X129297483Y-64494091D01*
X129432331Y-64443796D01*
X129547546Y-64357546D01*
X129633796Y-64242331D01*
X129684091Y-64107483D01*
X129690500Y-64047873D01*
X129690499Y-60952128D01*
X129684091Y-60892517D01*
X129633796Y-60757669D01*
X129589734Y-60698810D01*
X129565317Y-60633348D01*
X129580168Y-60565075D01*
X129629573Y-60515669D01*
X129689001Y-60500500D01*
X142376000Y-60500500D01*
X142443039Y-60520185D01*
X142488794Y-60572989D01*
X142500000Y-60624500D01*
X142500000Y-99876000D01*
X142480315Y-99943039D01*
X142427511Y-99988794D01*
X142376000Y-100000000D01*
X100124500Y-100000000D01*
X100057461Y-99980315D01*
X100011706Y-99927511D01*
X100000500Y-99876000D01*
X100000500Y-94952135D01*
X100919500Y-94952135D01*
X100919500Y-98047870D01*
X100919501Y-98047876D01*
X100925908Y-98107483D01*
X100976202Y-98242328D01*
X100976206Y-98242335D01*
X101062452Y-98357544D01*
X101062455Y-98357547D01*
X101177664Y-98443793D01*
X101177671Y-98443797D01*
X101312517Y-98494091D01*
X101312516Y-98494091D01*
X101319444Y-98494835D01*
X101372127Y-98500500D01*
X104467872Y-98500499D01*
X104527483Y-98494091D01*
X104662331Y-98443796D01*
X104777546Y-98357546D01*
X104863796Y-98242331D01*
X104914091Y-98107483D01*
X104920500Y-98047873D01*
X104920499Y-94952135D01*
X113919500Y-94952135D01*
X113919500Y-98047870D01*
X113919501Y-98047876D01*
X113925908Y-98107483D01*
X113976202Y-98242328D01*
X113976206Y-98242335D01*
X114062452Y-98357544D01*
X114062455Y-98357547D01*
X114177664Y-98443793D01*
X114177671Y-98443797D01*
X114312517Y-98494091D01*
X114312516Y-98494091D01*
X114319444Y-98494835D01*
X114372127Y-98500500D01*
X117467872Y-98500499D01*
X117527483Y-98494091D01*
X117662331Y-98443796D01*
X117777546Y-98357546D01*
X117863796Y-98242331D01*
X117914091Y-98107483D01*
X117920500Y-98047873D01*
X117920499Y-96390502D01*
X127329500Y-96390502D01*
X127329500Y-96609497D01*
X127353306Y-96790314D01*
X127358083Y-96826598D01*
X127414759Y-97038117D01*
X127498560Y-97240428D01*
X127498562Y-97240433D01*
X127498565Y-97240438D01*
X127608049Y-97430070D01*
X127741355Y-97603798D01*
X127741361Y-97603805D01*
X127896194Y-97758638D01*
X127896201Y-97758644D01*
X128069929Y-97891950D01*
X128259561Y-98001434D01*
X128259563Y-98001434D01*
X128259572Y-98001440D01*
X128461883Y-98085241D01*
X128673402Y-98141917D01*
X128890510Y-98170500D01*
X128890517Y-98170500D01*
X129109483Y-98170500D01*
X129109490Y-98170500D01*
X129326598Y-98141917D01*
X129538117Y-98085241D01*
X129740428Y-98001440D01*
X129930071Y-97891950D01*
X130103800Y-97758643D01*
X130258643Y-97603800D01*
X130391950Y-97430071D01*
X130501440Y-97240428D01*
X130585241Y-97038117D01*
X130641917Y-96826598D01*
X130670500Y-96609490D01*
X130670500Y-96390510D01*
X130670499Y-96390502D01*
X132329500Y-96390502D01*
X132329500Y-96609497D01*
X132353306Y-96790314D01*
X132358083Y-96826598D01*
X132414759Y-97038117D01*
X132498560Y-97240428D01*
X132498562Y-97240433D01*
X132498565Y-97240438D01*
X132608049Y-97430070D01*
X132741355Y-97603798D01*
X132741361Y-97603805D01*
X132896194Y-97758638D01*
X132896201Y-97758644D01*
X133069929Y-97891950D01*
X133259561Y-98001434D01*
X133259563Y-98001434D01*
X133259572Y-98001440D01*
X133461883Y-98085241D01*
X133673402Y-98141917D01*
X133890510Y-98170500D01*
X133890517Y-98170500D01*
X134109483Y-98170500D01*
X134109490Y-98170500D01*
X134326598Y-98141917D01*
X134538117Y-98085241D01*
X134740428Y-98001440D01*
X134930071Y-97891950D01*
X135103800Y-97758643D01*
X135258643Y-97603800D01*
X135391950Y-97430071D01*
X135501440Y-97240428D01*
X135585241Y-97038117D01*
X135641917Y-96826598D01*
X135670500Y-96609490D01*
X135670500Y-96390510D01*
X135641917Y-96173402D01*
X135585241Y-95961883D01*
X135501440Y-95759572D01*
X135391950Y-95569929D01*
X135258643Y-95396200D01*
X135258638Y-95396194D01*
X135103805Y-95241361D01*
X135103798Y-95241355D01*
X134930070Y-95108049D01*
X134740438Y-94998565D01*
X134740433Y-94998562D01*
X134740428Y-94998560D01*
X134538117Y-94914759D01*
X134538118Y-94914759D01*
X134538115Y-94914758D01*
X134432357Y-94886421D01*
X134326598Y-94858083D01*
X134290314Y-94853306D01*
X134109497Y-94829500D01*
X134109490Y-94829500D01*
X133890510Y-94829500D01*
X133890502Y-94829500D01*
X133683853Y-94856707D01*
X133673402Y-94858083D01*
X133628699Y-94870060D01*
X133461884Y-94914758D01*
X133371650Y-94952135D01*
X133259572Y-94998560D01*
X133259569Y-94998561D01*
X133259561Y-94998565D01*
X133069929Y-95108049D01*
X132896201Y-95241355D01*
X132896194Y-95241361D01*
X132741361Y-95396194D01*
X132741355Y-95396201D01*
X132608049Y-95569929D01*
X132498565Y-95759561D01*
X132498560Y-95759573D01*
X132414758Y-95961884D01*
X132358084Y-96173399D01*
X132358082Y-96173410D01*
X132329500Y-96390502D01*
X130670499Y-96390502D01*
X130641917Y-96173402D01*
X130585241Y-95961883D01*
X130501440Y-95759572D01*
X130391950Y-95569929D01*
X130258643Y-95396200D01*
X130258638Y-95396194D01*
X130103805Y-95241361D01*
X130103798Y-95241355D01*
X129930070Y-95108049D01*
X129740438Y-94998565D01*
X129740433Y-94998562D01*
X129740428Y-94998560D01*
X129538117Y-94914759D01*
X129538118Y-94914759D01*
X129538115Y-94914758D01*
X129432357Y-94886421D01*
X129326598Y-94858083D01*
X129290314Y-94853306D01*
X129109497Y-94829500D01*
X129109490Y-94829500D01*
X128890510Y-94829500D01*
X128890502Y-94829500D01*
X128683853Y-94856707D01*
X128673402Y-94858083D01*
X128628699Y-94870060D01*
X128461884Y-94914758D01*
X128371650Y-94952135D01*
X128259572Y-94998560D01*
X128259569Y-94998561D01*
X128259561Y-94998565D01*
X128069929Y-95108049D01*
X127896201Y-95241355D01*
X127896194Y-95241361D01*
X127741361Y-95396194D01*
X127741355Y-95396201D01*
X127608049Y-95569929D01*
X127498565Y-95759561D01*
X127498560Y-95759573D01*
X127414758Y-95961884D01*
X127358084Y-96173399D01*
X127358082Y-96173410D01*
X127329500Y-96390502D01*
X117920499Y-96390502D01*
X117920499Y-94952128D01*
X117914091Y-94892517D01*
X117901248Y-94858084D01*
X117863797Y-94757671D01*
X117863793Y-94757664D01*
X117777547Y-94642455D01*
X117777544Y-94642452D01*
X117662335Y-94556206D01*
X117662328Y-94556202D01*
X117527482Y-94505908D01*
X117527483Y-94505908D01*
X117467883Y-94499501D01*
X117467881Y-94499500D01*
X117467873Y-94499500D01*
X117467864Y-94499500D01*
X114372129Y-94499500D01*
X114372123Y-94499501D01*
X114312516Y-94505908D01*
X114177671Y-94556202D01*
X114177664Y-94556206D01*
X114062455Y-94642452D01*
X114062452Y-94642455D01*
X113976206Y-94757664D01*
X113976202Y-94757671D01*
X113925908Y-94892517D01*
X113919501Y-94952116D01*
X113919501Y-94952123D01*
X113919500Y-94952135D01*
X104920499Y-94952135D01*
X104920499Y-94952128D01*
X104914091Y-94892517D01*
X104901248Y-94858084D01*
X104863797Y-94757671D01*
X104863793Y-94757664D01*
X104777547Y-94642455D01*
X104777544Y-94642452D01*
X104662335Y-94556206D01*
X104662328Y-94556202D01*
X104527482Y-94505908D01*
X104527483Y-94505908D01*
X104467883Y-94499501D01*
X104467881Y-94499500D01*
X104467873Y-94499500D01*
X104467864Y-94499500D01*
X101372129Y-94499500D01*
X101372123Y-94499501D01*
X101312516Y-94505908D01*
X101177671Y-94556202D01*
X101177664Y-94556206D01*
X101062455Y-94642452D01*
X101062452Y-94642455D01*
X100976206Y-94757664D01*
X100976202Y-94757671D01*
X100925908Y-94892517D01*
X100919501Y-94952116D01*
X100919501Y-94952123D01*
X100919500Y-94952135D01*
X100000500Y-94952135D01*
X100000500Y-86897648D01*
X120699500Y-86897648D01*
X120699500Y-87102351D01*
X120731522Y-87304534D01*
X120794781Y-87499223D01*
X120887715Y-87681613D01*
X121008028Y-87847213D01*
X121152786Y-87991971D01*
X121307749Y-88104556D01*
X121318390Y-88112287D01*
X121434607Y-88171503D01*
X121500776Y-88205218D01*
X121500778Y-88205218D01*
X121500781Y-88205220D01*
X121605137Y-88239127D01*
X121695465Y-88268477D01*
X121796557Y-88284488D01*
X121897648Y-88300500D01*
X121897649Y-88300500D01*
X122102351Y-88300500D01*
X122102352Y-88300500D01*
X122304534Y-88268477D01*
X122499219Y-88205220D01*
X122681610Y-88112287D01*
X122774590Y-88044732D01*
X122847213Y-87991971D01*
X122847215Y-87991968D01*
X122847219Y-87991966D01*
X122991966Y-87847219D01*
X122991968Y-87847215D01*
X122991971Y-87847213D01*
X123044732Y-87774590D01*
X123112287Y-87681610D01*
X123205220Y-87499219D01*
X123268477Y-87304534D01*
X123300500Y-87102352D01*
X123300500Y-86897648D01*
X125699500Y-86897648D01*
X125699500Y-87102351D01*
X125731522Y-87304534D01*
X125794781Y-87499223D01*
X125887715Y-87681613D01*
X126008028Y-87847213D01*
X126152786Y-87991971D01*
X126307749Y-88104556D01*
X126318390Y-88112287D01*
X126434607Y-88171503D01*
X126500776Y-88205218D01*
X126500778Y-88205218D01*
X126500781Y-88205220D01*
X126605137Y-88239127D01*
X126695465Y-88268477D01*
X126796557Y-88284488D01*
X126897648Y-88300500D01*
X126897649Y-88300500D01*
X127102351Y-88300500D01*
X127102352Y-88300500D01*
X127304534Y-88268477D01*
X127499219Y-88205220D01*
X127681610Y-88112287D01*
X127774590Y-88044732D01*
X127847213Y-87991971D01*
X127847215Y-87991968D01*
X127847219Y-87991966D01*
X127991966Y-87847219D01*
X127991968Y-87847215D01*
X127991971Y-87847213D01*
X128044732Y-87774590D01*
X128112287Y-87681610D01*
X128205220Y-87499219D01*
X128268477Y-87304534D01*
X128300500Y-87102352D01*
X128300500Y-86897648D01*
X128268477Y-86695466D01*
X128205220Y-86500781D01*
X128205218Y-86500778D01*
X128205218Y-86500776D01*
X128171503Y-86434607D01*
X128112287Y-86318390D01*
X128104556Y-86307749D01*
X127991971Y-86152786D01*
X127847213Y-86008028D01*
X127681613Y-85887715D01*
X127681612Y-85887714D01*
X127681610Y-85887713D01*
X127624653Y-85858691D01*
X127499223Y-85794781D01*
X127304534Y-85731522D01*
X127129995Y-85703878D01*
X127102352Y-85699500D01*
X126897648Y-85699500D01*
X126873329Y-85703351D01*
X126695465Y-85731522D01*
X126500776Y-85794781D01*
X126318386Y-85887715D01*
X126152786Y-86008028D01*
X126008028Y-86152786D01*
X125887715Y-86318386D01*
X125794781Y-86500776D01*
X125731522Y-86695465D01*
X125699500Y-86897648D01*
X123300500Y-86897648D01*
X123268477Y-86695466D01*
X123205220Y-86500781D01*
X123205218Y-86500778D01*
X123205218Y-86500776D01*
X123171503Y-86434607D01*
X123112287Y-86318390D01*
X123104556Y-86307749D01*
X122991971Y-86152786D01*
X122847213Y-86008028D01*
X122681613Y-85887715D01*
X122681612Y-85887714D01*
X122681610Y-85887713D01*
X122624653Y-85858691D01*
X122499223Y-85794781D01*
X122304534Y-85731522D01*
X122129995Y-85703878D01*
X122102352Y-85699500D01*
X121897648Y-85699500D01*
X121873329Y-85703351D01*
X121695465Y-85731522D01*
X121500776Y-85794781D01*
X121318386Y-85887715D01*
X121152786Y-86008028D01*
X121008028Y-86152786D01*
X120887715Y-86318386D01*
X120794781Y-86500776D01*
X120731522Y-86695465D01*
X120699500Y-86897648D01*
X100000500Y-86897648D01*
X100000500Y-84397648D01*
X115699500Y-84397648D01*
X115699500Y-84602351D01*
X115731522Y-84804534D01*
X115794781Y-84999223D01*
X115858691Y-85124653D01*
X115867893Y-85142712D01*
X115887715Y-85181613D01*
X116008028Y-85347213D01*
X116152786Y-85491971D01*
X116307749Y-85604556D01*
X116318390Y-85612287D01*
X116434607Y-85671503D01*
X116500776Y-85705218D01*
X116500778Y-85705218D01*
X116500781Y-85705220D01*
X116605137Y-85739127D01*
X116695465Y-85768477D01*
X116796557Y-85784488D01*
X116897648Y-85800500D01*
X116897649Y-85800500D01*
X117102351Y-85800500D01*
X117102352Y-85800500D01*
X117304534Y-85768477D01*
X117499219Y-85705220D01*
X117681610Y-85612287D01*
X117774590Y-85544732D01*
X117847213Y-85491971D01*
X117847215Y-85491968D01*
X117847219Y-85491966D01*
X117991966Y-85347219D01*
X117991968Y-85347215D01*
X117991971Y-85347213D01*
X118073632Y-85234814D01*
X118112287Y-85181610D01*
X118205220Y-84999219D01*
X118268477Y-84804534D01*
X118300500Y-84602352D01*
X118300500Y-84397648D01*
X118268477Y-84195466D01*
X118205220Y-84000781D01*
X118205218Y-84000778D01*
X118205218Y-84000776D01*
X118171503Y-83934607D01*
X118112287Y-83818390D01*
X118104556Y-83807749D01*
X117991971Y-83652786D01*
X117847215Y-83508030D01*
X117832243Y-83497153D01*
X117832242Y-83497152D01*
X117698499Y-83399983D01*
X133896849Y-83399983D01*
X133896849Y-84600001D01*
X133896850Y-84600018D01*
X133907349Y-84702796D01*
X133907350Y-84702799D01*
X133941062Y-84804534D01*
X133962535Y-84869334D01*
X134054637Y-85018656D01*
X134178693Y-85142712D01*
X134328015Y-85234814D01*
X134494552Y-85289999D01*
X134597340Y-85300500D01*
X135797357Y-85300499D01*
X135900146Y-85289999D01*
X136066683Y-85234814D01*
X136216005Y-85142712D01*
X136340061Y-85018656D01*
X136432163Y-84869334D01*
X136487348Y-84702797D01*
X136497849Y-84600009D01*
X136497848Y-83399992D01*
X136487348Y-83297203D01*
X136432163Y-83130666D01*
X136340061Y-82981344D01*
X136216005Y-82857288D01*
X136066683Y-82765186D01*
X135900146Y-82710001D01*
X135900144Y-82710000D01*
X135797359Y-82699500D01*
X134597347Y-82699500D01*
X134597330Y-82699501D01*
X134494552Y-82710000D01*
X134494549Y-82710001D01*
X134328017Y-82765185D01*
X134328012Y-82765187D01*
X134178691Y-82857289D01*
X134054638Y-82981342D01*
X133962536Y-83130663D01*
X133962534Y-83130668D01*
X133939726Y-83199500D01*
X133907350Y-83297203D01*
X133907350Y-83297204D01*
X133907349Y-83297204D01*
X133896849Y-83399983D01*
X117698499Y-83399983D01*
X117681613Y-83387715D01*
X117681612Y-83387714D01*
X117681610Y-83387713D01*
X117624653Y-83358691D01*
X117499223Y-83294781D01*
X117304534Y-83231522D01*
X117129995Y-83203878D01*
X117102352Y-83199500D01*
X116897648Y-83199500D01*
X116873329Y-83203351D01*
X116695465Y-83231522D01*
X116500776Y-83294781D01*
X116318386Y-83387715D01*
X116152786Y-83508028D01*
X116008028Y-83652786D01*
X115887715Y-83818386D01*
X115794781Y-84000776D01*
X115731522Y-84195465D01*
X115699500Y-84397648D01*
X100000500Y-84397648D01*
X100000500Y-81279983D01*
X100899500Y-81279983D01*
X100899500Y-82480001D01*
X100899501Y-82480018D01*
X100910000Y-82582796D01*
X100910001Y-82582799D01*
X100965185Y-82749331D01*
X100965187Y-82749336D01*
X100974964Y-82765187D01*
X101057288Y-82898656D01*
X101181344Y-83022712D01*
X101330666Y-83114814D01*
X101497203Y-83169999D01*
X101599991Y-83180500D01*
X102800008Y-83180499D01*
X102902797Y-83169999D01*
X103069334Y-83114814D01*
X103218656Y-83022712D01*
X103342712Y-82898656D01*
X103434814Y-82749334D01*
X103489999Y-82582797D01*
X103500500Y-82480009D01*
X103500499Y-81279992D01*
X103489999Y-81177203D01*
X103434814Y-81010666D01*
X103342712Y-80861344D01*
X103218656Y-80737288D01*
X103069334Y-80645186D01*
X102902797Y-80590001D01*
X102902795Y-80590000D01*
X102800010Y-80579500D01*
X101599998Y-80579500D01*
X101599981Y-80579501D01*
X101497203Y-80590000D01*
X101497200Y-80590001D01*
X101330668Y-80645185D01*
X101330663Y-80645187D01*
X101181342Y-80737289D01*
X101057289Y-80861342D01*
X100965187Y-81010663D01*
X100965186Y-81010666D01*
X100910001Y-81177203D01*
X100910001Y-81177204D01*
X100910000Y-81177204D01*
X100899500Y-81279983D01*
X100000500Y-81279983D01*
X100000500Y-76777648D01*
X110699500Y-76777648D01*
X110699500Y-76982351D01*
X110731522Y-77184534D01*
X110794781Y-77379223D01*
X110887715Y-77561613D01*
X111008028Y-77727213D01*
X111152786Y-77871971D01*
X111307749Y-77984556D01*
X111318390Y-77992287D01*
X111434607Y-78051503D01*
X111500776Y-78085218D01*
X111500778Y-78085218D01*
X111500781Y-78085220D01*
X111605137Y-78119127D01*
X111695465Y-78148477D01*
X111796557Y-78164488D01*
X111897648Y-78180500D01*
X111897649Y-78180500D01*
X112102351Y-78180500D01*
X112102352Y-78180500D01*
X112304534Y-78148477D01*
X112499219Y-78085220D01*
X112681610Y-77992287D01*
X112774590Y-77924732D01*
X112847213Y-77871971D01*
X112847215Y-77871968D01*
X112847219Y-77871966D01*
X112991966Y-77727219D01*
X112991968Y-77727215D01*
X112991971Y-77727213D01*
X113044732Y-77654590D01*
X113112287Y-77561610D01*
X113205220Y-77379219D01*
X113268477Y-77184534D01*
X113300500Y-76982352D01*
X113300500Y-76777648D01*
X115699500Y-76777648D01*
X115699500Y-76982351D01*
X115731522Y-77184534D01*
X115794781Y-77379223D01*
X115887715Y-77561613D01*
X116008028Y-77727213D01*
X116152786Y-77871971D01*
X116307749Y-77984556D01*
X116318390Y-77992287D01*
X116434607Y-78051503D01*
X116500776Y-78085218D01*
X116500778Y-78085218D01*
X116500781Y-78085220D01*
X116605137Y-78119127D01*
X116695465Y-78148477D01*
X116796557Y-78164488D01*
X116897648Y-78180500D01*
X116897649Y-78180500D01*
X117102351Y-78180500D01*
X117102352Y-78180500D01*
X117304534Y-78148477D01*
X117499219Y-78085220D01*
X117681610Y-77992287D01*
X117774590Y-77924732D01*
X117847213Y-77871971D01*
X117847215Y-77871968D01*
X117847219Y-77871966D01*
X117991966Y-77727219D01*
X117991968Y-77727215D01*
X117991971Y-77727213D01*
X118044732Y-77654590D01*
X118112287Y-77561610D01*
X118205220Y-77379219D01*
X118268477Y-77184534D01*
X118300500Y-76982352D01*
X118300500Y-76777648D01*
X118286618Y-76690000D01*
X118268477Y-76575465D01*
X118215354Y-76411971D01*
X118205220Y-76380781D01*
X118205218Y-76380778D01*
X118205218Y-76380776D01*
X118147354Y-76267213D01*
X118112287Y-76198390D01*
X118104556Y-76187749D01*
X117991971Y-76032786D01*
X117847213Y-75888028D01*
X117681613Y-75767715D01*
X117681612Y-75767714D01*
X117681610Y-75767713D01*
X117596867Y-75724534D01*
X117499223Y-75674781D01*
X117304534Y-75611522D01*
X117129995Y-75583878D01*
X117102352Y-75579500D01*
X116897648Y-75579500D01*
X116873329Y-75583351D01*
X116695465Y-75611522D01*
X116500776Y-75674781D01*
X116318386Y-75767715D01*
X116152786Y-75888028D01*
X116008028Y-76032786D01*
X115887715Y-76198386D01*
X115794781Y-76380776D01*
X115731522Y-76575465D01*
X115699500Y-76777648D01*
X113300500Y-76777648D01*
X113286618Y-76690000D01*
X113268477Y-76575465D01*
X113215354Y-76411971D01*
X113205220Y-76380781D01*
X113205218Y-76380778D01*
X113205218Y-76380776D01*
X113147354Y-76267213D01*
X113112287Y-76198390D01*
X113104556Y-76187749D01*
X112991971Y-76032786D01*
X112847213Y-75888028D01*
X112681613Y-75767715D01*
X112681612Y-75767714D01*
X112681610Y-75767713D01*
X112596867Y-75724534D01*
X112499223Y-75674781D01*
X112304534Y-75611522D01*
X112129995Y-75583878D01*
X112102352Y-75579500D01*
X111897648Y-75579500D01*
X111873329Y-75583351D01*
X111695465Y-75611522D01*
X111500776Y-75674781D01*
X111318386Y-75767715D01*
X111152786Y-75888028D01*
X111008028Y-76032786D01*
X110887715Y-76198386D01*
X110794781Y-76380776D01*
X110731522Y-76575465D01*
X110699500Y-76777648D01*
X100000500Y-76777648D01*
X100000500Y-72279983D01*
X119989500Y-72279983D01*
X119989500Y-73480001D01*
X119989501Y-73480018D01*
X120000000Y-73582796D01*
X120000001Y-73582799D01*
X120055185Y-73749331D01*
X120055186Y-73749334D01*
X120147288Y-73898656D01*
X120271344Y-74022712D01*
X120420666Y-74114814D01*
X120502570Y-74141954D01*
X120560015Y-74181727D01*
X120586838Y-74246243D01*
X120574523Y-74315018D01*
X120536451Y-74359978D01*
X120442787Y-74428028D01*
X120442782Y-74428032D01*
X120298028Y-74572786D01*
X120177715Y-74738386D01*
X120084781Y-74920776D01*
X120021522Y-75115465D01*
X119989500Y-75317648D01*
X119989500Y-75522351D01*
X120021522Y-75724534D01*
X120084781Y-75919223D01*
X120177715Y-76101613D01*
X120298028Y-76267213D01*
X120442786Y-76411971D01*
X120597749Y-76524556D01*
X120608390Y-76532287D01*
X120699840Y-76578883D01*
X120701080Y-76579515D01*
X120751876Y-76627490D01*
X120768671Y-76695311D01*
X120746134Y-76761446D01*
X120701080Y-76800485D01*
X120608386Y-76847715D01*
X120442786Y-76968028D01*
X120298028Y-77112786D01*
X120177715Y-77278386D01*
X120084781Y-77460776D01*
X120021522Y-77655465D01*
X119989500Y-77857648D01*
X119989500Y-78062351D01*
X120021522Y-78264534D01*
X120084781Y-78459223D01*
X120177715Y-78641613D01*
X120298028Y-78807213D01*
X120442786Y-78951971D01*
X120597749Y-79064556D01*
X120608390Y-79072287D01*
X120699840Y-79118883D01*
X120701080Y-79119515D01*
X120751876Y-79167490D01*
X120768671Y-79235311D01*
X120746134Y-79301446D01*
X120701080Y-79340485D01*
X120608386Y-79387715D01*
X120442786Y-79508028D01*
X120298028Y-79652786D01*
X120177715Y-79818386D01*
X120084781Y-80000776D01*
X120021522Y-80195465D01*
X119989500Y-80397648D01*
X119989500Y-80602351D01*
X120021522Y-80804534D01*
X120084781Y-80999223D01*
X120177715Y-81181613D01*
X120298028Y-81347213D01*
X120442786Y-81491971D01*
X120597749Y-81604556D01*
X120608390Y-81612287D01*
X120724607Y-81671503D01*
X120790776Y-81705218D01*
X120790778Y-81705218D01*
X120790781Y-81705220D01*
X120895137Y-81739127D01*
X120985465Y-81768477D01*
X121086557Y-81784488D01*
X121187648Y-81800500D01*
X121187649Y-81800500D01*
X122192351Y-81800500D01*
X122192352Y-81800500D01*
X122394534Y-81768477D01*
X122589219Y-81705220D01*
X122771610Y-81612287D01*
X122864590Y-81544732D01*
X122937213Y-81491971D01*
X122937215Y-81491968D01*
X122937219Y-81491966D01*
X123081966Y-81347219D01*
X123081968Y-81347215D01*
X123081971Y-81347213D01*
X123134732Y-81274590D01*
X123202287Y-81181610D01*
X123295220Y-80999219D01*
X123358477Y-80804534D01*
X123390500Y-80602352D01*
X123390500Y-80397648D01*
X123358477Y-80195466D01*
X123295220Y-80000781D01*
X123295218Y-80000778D01*
X123295218Y-80000776D01*
X123261503Y-79934607D01*
X123202287Y-79818390D01*
X123194556Y-79807749D01*
X123081971Y-79652786D01*
X122937213Y-79508028D01*
X122771614Y-79387715D01*
X122765006Y-79384348D01*
X122678917Y-79340483D01*
X122628123Y-79292511D01*
X122611328Y-79224690D01*
X122633865Y-79158555D01*
X122678917Y-79119516D01*
X122771610Y-79072287D01*
X122792770Y-79056913D01*
X122937213Y-78951971D01*
X122937215Y-78951968D01*
X122937219Y-78951966D01*
X123081966Y-78807219D01*
X123081968Y-78807215D01*
X123081971Y-78807213D01*
X123134732Y-78734590D01*
X123202287Y-78641610D01*
X123295220Y-78459219D01*
X123358477Y-78264534D01*
X123390500Y-78062352D01*
X123390500Y-77857648D01*
X123358477Y-77655466D01*
X123295220Y-77460781D01*
X123295218Y-77460778D01*
X123295218Y-77460776D01*
X123253662Y-77379219D01*
X123202287Y-77278390D01*
X123194556Y-77267749D01*
X123081971Y-77112786D01*
X122937213Y-76968028D01*
X122771614Y-76847715D01*
X122765006Y-76844348D01*
X122678917Y-76800483D01*
X122628123Y-76752511D01*
X122611328Y-76684690D01*
X122633865Y-76618555D01*
X122678917Y-76579516D01*
X122771610Y-76532287D01*
X122792770Y-76516913D01*
X122937213Y-76411971D01*
X122937215Y-76411968D01*
X122937219Y-76411966D01*
X123081966Y-76267219D01*
X123081968Y-76267215D01*
X123081971Y-76267213D01*
X123134732Y-76194590D01*
X123202287Y-76101610D01*
X123295220Y-75919219D01*
X123358477Y-75724534D01*
X123390500Y-75522352D01*
X123390500Y-75317648D01*
X123358477Y-75115466D01*
X123295220Y-74920781D01*
X123295218Y-74920778D01*
X123295218Y-74920776D01*
X123261503Y-74854607D01*
X123202287Y-74738390D01*
X123194556Y-74727749D01*
X123081971Y-74572786D01*
X122937219Y-74428034D01*
X122937211Y-74428028D01*
X122843547Y-74359978D01*
X122800882Y-74304649D01*
X122794903Y-74235036D01*
X122827508Y-74173240D01*
X122877426Y-74141955D01*
X122959334Y-74114814D01*
X123108656Y-74022712D01*
X123232712Y-73898656D01*
X123324814Y-73749334D01*
X123379999Y-73582797D01*
X123390500Y-73480009D01*
X123390499Y-72279992D01*
X123379999Y-72177203D01*
X123324814Y-72010666D01*
X123232712Y-71861344D01*
X123108656Y-71737288D01*
X122959334Y-71645186D01*
X122792797Y-71590001D01*
X122792795Y-71590000D01*
X122690010Y-71579500D01*
X120689998Y-71579500D01*
X120689981Y-71579501D01*
X120587203Y-71590000D01*
X120587200Y-71590001D01*
X120420668Y-71645185D01*
X120420663Y-71645187D01*
X120271342Y-71737289D01*
X120147289Y-71861342D01*
X120055187Y-72010663D01*
X120055186Y-72010666D01*
X120000001Y-72177203D01*
X120000001Y-72177204D01*
X120000000Y-72177204D01*
X119989500Y-72279983D01*
X100000500Y-72279983D01*
X100000500Y-68389778D01*
X104099500Y-68389778D01*
X104099500Y-68610221D01*
X104133985Y-68827952D01*
X104202103Y-69037603D01*
X104202104Y-69037606D01*
X104270122Y-69171096D01*
X104275479Y-69181610D01*
X104302187Y-69234025D01*
X104431752Y-69412358D01*
X104431756Y-69412363D01*
X104587636Y-69568243D01*
X104587641Y-69568247D01*
X104648258Y-69612287D01*
X104765978Y-69697815D01*
X104894375Y-69763237D01*
X104962393Y-69797895D01*
X104962396Y-69797896D01*
X105067221Y-69831955D01*
X105172049Y-69866015D01*
X105389778Y-69900500D01*
X105389779Y-69900500D01*
X105610221Y-69900500D01*
X105610222Y-69900500D01*
X105827951Y-69866015D01*
X106037606Y-69797895D01*
X106234022Y-69697815D01*
X106412365Y-69568242D01*
X106568242Y-69412365D01*
X106697815Y-69234022D01*
X106797895Y-69037606D01*
X106866015Y-68827951D01*
X106900500Y-68610222D01*
X106900500Y-68397648D01*
X108079500Y-68397648D01*
X108079500Y-68602351D01*
X108111522Y-68804534D01*
X108174781Y-68999223D01*
X108267715Y-69181613D01*
X108388028Y-69347213D01*
X108532786Y-69491971D01*
X108687749Y-69604556D01*
X108698390Y-69612287D01*
X108814607Y-69671503D01*
X108880776Y-69705218D01*
X108880778Y-69705218D01*
X108880781Y-69705220D01*
X108985137Y-69739127D01*
X109075465Y-69768477D01*
X109176557Y-69784488D01*
X109277648Y-69800500D01*
X109277649Y-69800500D01*
X109482351Y-69800500D01*
X109482352Y-69800500D01*
X109684534Y-69768477D01*
X109879219Y-69705220D01*
X110061610Y-69612287D01*
X110154590Y-69544732D01*
X110227213Y-69491971D01*
X110227215Y-69491968D01*
X110227219Y-69491966D01*
X110371966Y-69347219D01*
X110371968Y-69347215D01*
X110371971Y-69347213D01*
X110424732Y-69274590D01*
X110492287Y-69181610D01*
X110585220Y-68999219D01*
X110648477Y-68804534D01*
X110680500Y-68602352D01*
X110680500Y-68397648D01*
X115699500Y-68397648D01*
X115699500Y-68602351D01*
X115731522Y-68804534D01*
X115794781Y-68999223D01*
X115887715Y-69181613D01*
X116008028Y-69347213D01*
X116152786Y-69491971D01*
X116307749Y-69604556D01*
X116318390Y-69612287D01*
X116434607Y-69671503D01*
X116500776Y-69705218D01*
X116500778Y-69705218D01*
X116500781Y-69705220D01*
X116605137Y-69739127D01*
X116695465Y-69768477D01*
X116796557Y-69784488D01*
X116897648Y-69800500D01*
X116897649Y-69800500D01*
X117102351Y-69800500D01*
X117102352Y-69800500D01*
X117304534Y-69768477D01*
X117499219Y-69705220D01*
X117681610Y-69612287D01*
X117774590Y-69544732D01*
X117847213Y-69491971D01*
X117847215Y-69491968D01*
X117847219Y-69491966D01*
X117991966Y-69347219D01*
X117991968Y-69347215D01*
X117991971Y-69347213D01*
X118044732Y-69274590D01*
X118112287Y-69181610D01*
X118205220Y-68999219D01*
X118268477Y-68804534D01*
X118300500Y-68602352D01*
X118300500Y-68397648D01*
X118268477Y-68195465D01*
X118205218Y-68000776D01*
X118171503Y-67934607D01*
X118112287Y-67818390D01*
X118074205Y-67765974D01*
X117991971Y-67652786D01*
X117847213Y-67508028D01*
X117681613Y-67387715D01*
X117681612Y-67387714D01*
X117681610Y-67387713D01*
X117624653Y-67358691D01*
X117499223Y-67294781D01*
X117304534Y-67231522D01*
X117118799Y-67202105D01*
X117102352Y-67199500D01*
X116897648Y-67199500D01*
X116881201Y-67202105D01*
X116695465Y-67231522D01*
X116500776Y-67294781D01*
X116318386Y-67387715D01*
X116152786Y-67508028D01*
X116008028Y-67652786D01*
X115887715Y-67818386D01*
X115794781Y-68000776D01*
X115731522Y-68195465D01*
X115699500Y-68397648D01*
X110680500Y-68397648D01*
X110648477Y-68195465D01*
X110585218Y-68000776D01*
X110551503Y-67934607D01*
X110492287Y-67818390D01*
X110454205Y-67765974D01*
X110371971Y-67652786D01*
X110227213Y-67508028D01*
X110061613Y-67387715D01*
X110061612Y-67387714D01*
X110061610Y-67387713D01*
X110004653Y-67358691D01*
X109879223Y-67294781D01*
X109684534Y-67231522D01*
X109498799Y-67202105D01*
X109482352Y-67199500D01*
X109277648Y-67199500D01*
X109261201Y-67202105D01*
X109075465Y-67231522D01*
X108880776Y-67294781D01*
X108698386Y-67387715D01*
X108532786Y-67508028D01*
X108388028Y-67652786D01*
X108267715Y-67818386D01*
X108174781Y-68000776D01*
X108111522Y-68195465D01*
X108079500Y-68397648D01*
X106900500Y-68397648D01*
X106900500Y-68389778D01*
X106866015Y-68172049D01*
X106797895Y-67962394D01*
X106797895Y-67962393D01*
X106763237Y-67894375D01*
X106697815Y-67765978D01*
X106615573Y-67652781D01*
X106568247Y-67587641D01*
X106568243Y-67587636D01*
X106412363Y-67431756D01*
X106412358Y-67431752D01*
X106234025Y-67302187D01*
X106234024Y-67302186D01*
X106234022Y-67302185D01*
X106171096Y-67270122D01*
X106037606Y-67202104D01*
X106037603Y-67202103D01*
X105827952Y-67133985D01*
X105719086Y-67116742D01*
X105610222Y-67099500D01*
X105389778Y-67099500D01*
X105317201Y-67110995D01*
X105172047Y-67133985D01*
X104962396Y-67202103D01*
X104962393Y-67202104D01*
X104765974Y-67302187D01*
X104587641Y-67431752D01*
X104587636Y-67431756D01*
X104431756Y-67587636D01*
X104431752Y-67587641D01*
X104302187Y-67765974D01*
X104202104Y-67962393D01*
X104202103Y-67962396D01*
X104133985Y-68172047D01*
X104099500Y-68389778D01*
X100000500Y-68389778D01*
X100000500Y-64699983D01*
X133131823Y-64699983D01*
X133131823Y-66300001D01*
X133131824Y-66300018D01*
X133142323Y-66402796D01*
X133142324Y-66402799D01*
X133167082Y-66477512D01*
X133197509Y-66569334D01*
X133289611Y-66718656D01*
X133413667Y-66842712D01*
X133562989Y-66934814D01*
X133729526Y-66989999D01*
X133832314Y-67000500D01*
X135432331Y-67000499D01*
X135535120Y-66989999D01*
X135701657Y-66934814D01*
X135850979Y-66842712D01*
X135975035Y-66718656D01*
X136067137Y-66569334D01*
X136122322Y-66402797D01*
X136132823Y-66300009D01*
X136132822Y-65381902D01*
X138131823Y-65381902D01*
X138131823Y-65618097D01*
X138168769Y-65851368D01*
X138241756Y-66075996D01*
X138348980Y-66286433D01*
X138487806Y-66477510D01*
X138654813Y-66644517D01*
X138845890Y-66783343D01*
X138945314Y-66834002D01*
X139056326Y-66890566D01*
X139056328Y-66890566D01*
X139056331Y-66890568D01*
X139176735Y-66929689D01*
X139280954Y-66963553D01*
X139514226Y-67000500D01*
X139514231Y-67000500D01*
X139750420Y-67000500D01*
X139983691Y-66963553D01*
X140208315Y-66890568D01*
X140418756Y-66783343D01*
X140609833Y-66644517D01*
X140776840Y-66477510D01*
X140915666Y-66286433D01*
X141022891Y-66075992D01*
X141095876Y-65851368D01*
X141132823Y-65618097D01*
X141132823Y-65381902D01*
X141095876Y-65148631D01*
X141022889Y-64924003D01*
X140915665Y-64713566D01*
X140776840Y-64522490D01*
X140609833Y-64355483D01*
X140418756Y-64216657D01*
X140208319Y-64109433D01*
X139983691Y-64036446D01*
X139750420Y-63999500D01*
X139750415Y-63999500D01*
X139514231Y-63999500D01*
X139514226Y-63999500D01*
X139280954Y-64036446D01*
X139056326Y-64109433D01*
X138845889Y-64216657D01*
X138810547Y-64242335D01*
X138654813Y-64355483D01*
X138654811Y-64355485D01*
X138654810Y-64355485D01*
X138487808Y-64522487D01*
X138487808Y-64522488D01*
X138487806Y-64522490D01*
X138433526Y-64597200D01*
X138348980Y-64713566D01*
X138241756Y-64924003D01*
X138168769Y-65148631D01*
X138131823Y-65381902D01*
X136132822Y-65381902D01*
X136132822Y-64699992D01*
X136122322Y-64597203D01*
X136067137Y-64430666D01*
X135975035Y-64281344D01*
X135850979Y-64157288D01*
X135701657Y-64065186D01*
X135535120Y-64010001D01*
X135535118Y-64010000D01*
X135432333Y-63999500D01*
X133832321Y-63999500D01*
X133832304Y-63999501D01*
X133729526Y-64010000D01*
X133729523Y-64010001D01*
X133562991Y-64065185D01*
X133562986Y-64065187D01*
X133413665Y-64157289D01*
X133289612Y-64281342D01*
X133197510Y-64430663D01*
X133197508Y-64430668D01*
X133176492Y-64494091D01*
X133142324Y-64597203D01*
X133142324Y-64597204D01*
X133142323Y-64597204D01*
X133131823Y-64699983D01*
X100000500Y-64699983D01*
X100000500Y-63147648D01*
X115699500Y-63147648D01*
X115699500Y-63352351D01*
X115731522Y-63554534D01*
X115794781Y-63749223D01*
X115887715Y-63931613D01*
X116008028Y-64097213D01*
X116152786Y-64241971D01*
X116307749Y-64354556D01*
X116318390Y-64362287D01*
X116434607Y-64421503D01*
X116500776Y-64455218D01*
X116500778Y-64455218D01*
X116500781Y-64455220D01*
X116605137Y-64489127D01*
X116695465Y-64518477D01*
X116796557Y-64534488D01*
X116897648Y-64550500D01*
X116897649Y-64550500D01*
X117102351Y-64550500D01*
X117102352Y-64550500D01*
X117304534Y-64518477D01*
X117499219Y-64455220D01*
X117681610Y-64362287D01*
X117774590Y-64294732D01*
X117847213Y-64241971D01*
X117847215Y-64241968D01*
X117847219Y-64241966D01*
X117991966Y-64097219D01*
X117991968Y-64097215D01*
X117991971Y-64097213D01*
X118055334Y-64010000D01*
X118112287Y-63931610D01*
X118205220Y-63749219D01*
X118268477Y-63554534D01*
X118300500Y-63352352D01*
X118300500Y-63147648D01*
X118268477Y-62945466D01*
X118205220Y-62750781D01*
X118205218Y-62750778D01*
X118205218Y-62750776D01*
X118171503Y-62684607D01*
X118112287Y-62568390D01*
X118104556Y-62557749D01*
X117991971Y-62402786D01*
X117847213Y-62258028D01*
X117681613Y-62137715D01*
X117681612Y-62137714D01*
X117681610Y-62137713D01*
X117624653Y-62108691D01*
X117499223Y-62044781D01*
X117304534Y-61981522D01*
X117129995Y-61953878D01*
X117102352Y-61949500D01*
X116897648Y-61949500D01*
X116873329Y-61953351D01*
X116695465Y-61981522D01*
X116500776Y-62044781D01*
X116318386Y-62137715D01*
X116152786Y-62258028D01*
X116008028Y-62402786D01*
X115887715Y-62568386D01*
X115794781Y-62750776D01*
X115731522Y-62945465D01*
X115699500Y-63147648D01*
X100000500Y-63147648D01*
X100000500Y-60624500D01*
X100020185Y-60557461D01*
X100072989Y-60511706D01*
X100124500Y-60500500D01*
X125690999Y-60500500D01*
X125758038Y-60520185D01*
G37*
%TD.AperFunction*%
%TD*%
%TA.AperFunction,Conductor*%
%TO.N,GND*%
G36*
X172758038Y-60520185D02*
G01*
X172803793Y-60572989D01*
X172813737Y-60642147D01*
X172790265Y-60698810D01*
X172770238Y-60725562D01*
X172746204Y-60757668D01*
X172746202Y-60757671D01*
X172695908Y-60892517D01*
X172689501Y-60952116D01*
X172689501Y-60952123D01*
X172689500Y-60952135D01*
X172689500Y-64047870D01*
X172689501Y-64047876D01*
X172695908Y-64107483D01*
X172746202Y-64242328D01*
X172746206Y-64242335D01*
X172832452Y-64357544D01*
X172832455Y-64357547D01*
X172947664Y-64443793D01*
X172947671Y-64443797D01*
X173082517Y-64494091D01*
X173082516Y-64494091D01*
X173089444Y-64494835D01*
X173142127Y-64500500D01*
X176237872Y-64500499D01*
X176297483Y-64494091D01*
X176432331Y-64443796D01*
X176547546Y-64357546D01*
X176633796Y-64242331D01*
X176684091Y-64107483D01*
X176690500Y-64047873D01*
X176690499Y-60952128D01*
X176684091Y-60892517D01*
X176633796Y-60757669D01*
X176589734Y-60698810D01*
X176565317Y-60633348D01*
X176580168Y-60565075D01*
X176629573Y-60515669D01*
X176689001Y-60500500D01*
X188875500Y-60500500D01*
X188942539Y-60520185D01*
X188988294Y-60572989D01*
X188999500Y-60624500D01*
X188999500Y-99876000D01*
X188979815Y-99943039D01*
X188927011Y-99988794D01*
X188875500Y-100000000D01*
X146624000Y-100000000D01*
X146556961Y-99980315D01*
X146511206Y-99927511D01*
X146500000Y-99876000D01*
X146500000Y-94952135D01*
X147919500Y-94952135D01*
X147919500Y-98047870D01*
X147919501Y-98047876D01*
X147925908Y-98107483D01*
X147976202Y-98242328D01*
X147976206Y-98242335D01*
X148062452Y-98357544D01*
X148062455Y-98357547D01*
X148177664Y-98443793D01*
X148177671Y-98443797D01*
X148312517Y-98494091D01*
X148312516Y-98494091D01*
X148319444Y-98494835D01*
X148372127Y-98500500D01*
X151467872Y-98500499D01*
X151527483Y-98494091D01*
X151662331Y-98443796D01*
X151777546Y-98357546D01*
X151863796Y-98242331D01*
X151914091Y-98107483D01*
X151920500Y-98047873D01*
X151920499Y-94952135D01*
X160919500Y-94952135D01*
X160919500Y-98047870D01*
X160919501Y-98047876D01*
X160925908Y-98107483D01*
X160976202Y-98242328D01*
X160976206Y-98242335D01*
X161062452Y-98357544D01*
X161062455Y-98357547D01*
X161177664Y-98443793D01*
X161177671Y-98443797D01*
X161312517Y-98494091D01*
X161312516Y-98494091D01*
X161319444Y-98494835D01*
X161372127Y-98500500D01*
X164467872Y-98500499D01*
X164527483Y-98494091D01*
X164662331Y-98443796D01*
X164777546Y-98357546D01*
X164863796Y-98242331D01*
X164914091Y-98107483D01*
X164920500Y-98047873D01*
X164920499Y-96390502D01*
X174329500Y-96390502D01*
X174329500Y-96609497D01*
X174353306Y-96790314D01*
X174358083Y-96826598D01*
X174414759Y-97038117D01*
X174498560Y-97240428D01*
X174498562Y-97240433D01*
X174498565Y-97240438D01*
X174608049Y-97430070D01*
X174741355Y-97603798D01*
X174741361Y-97603805D01*
X174896194Y-97758638D01*
X174896201Y-97758644D01*
X175069929Y-97891950D01*
X175259561Y-98001434D01*
X175259563Y-98001434D01*
X175259572Y-98001440D01*
X175461883Y-98085241D01*
X175673402Y-98141917D01*
X175890510Y-98170500D01*
X175890517Y-98170500D01*
X176109483Y-98170500D01*
X176109490Y-98170500D01*
X176326598Y-98141917D01*
X176538117Y-98085241D01*
X176740428Y-98001440D01*
X176930071Y-97891950D01*
X177103800Y-97758643D01*
X177258643Y-97603800D01*
X177391950Y-97430071D01*
X177501440Y-97240428D01*
X177585241Y-97038117D01*
X177641917Y-96826598D01*
X177670500Y-96609490D01*
X177670500Y-96390510D01*
X177670499Y-96390502D01*
X179329500Y-96390502D01*
X179329500Y-96609497D01*
X179353306Y-96790314D01*
X179358083Y-96826598D01*
X179414759Y-97038117D01*
X179498560Y-97240428D01*
X179498562Y-97240433D01*
X179498565Y-97240438D01*
X179608049Y-97430070D01*
X179741355Y-97603798D01*
X179741361Y-97603805D01*
X179896194Y-97758638D01*
X179896201Y-97758644D01*
X180069929Y-97891950D01*
X180259561Y-98001434D01*
X180259563Y-98001434D01*
X180259572Y-98001440D01*
X180461883Y-98085241D01*
X180673402Y-98141917D01*
X180890510Y-98170500D01*
X180890517Y-98170500D01*
X181109483Y-98170500D01*
X181109490Y-98170500D01*
X181326598Y-98141917D01*
X181538117Y-98085241D01*
X181740428Y-98001440D01*
X181930071Y-97891950D01*
X182103800Y-97758643D01*
X182258643Y-97603800D01*
X182391950Y-97430071D01*
X182501440Y-97240428D01*
X182585241Y-97038117D01*
X182641917Y-96826598D01*
X182670500Y-96609490D01*
X182670500Y-96390510D01*
X182641917Y-96173402D01*
X182585241Y-95961883D01*
X182501440Y-95759572D01*
X182391950Y-95569929D01*
X182258643Y-95396200D01*
X182258638Y-95396194D01*
X182103805Y-95241361D01*
X182103798Y-95241355D01*
X181930070Y-95108049D01*
X181740438Y-94998565D01*
X181740433Y-94998562D01*
X181740428Y-94998560D01*
X181538117Y-94914759D01*
X181538118Y-94914759D01*
X181538115Y-94914758D01*
X181432357Y-94886421D01*
X181326598Y-94858083D01*
X181290314Y-94853306D01*
X181109497Y-94829500D01*
X181109490Y-94829500D01*
X180890510Y-94829500D01*
X180890502Y-94829500D01*
X180683853Y-94856707D01*
X180673402Y-94858083D01*
X180628699Y-94870060D01*
X180461884Y-94914758D01*
X180371650Y-94952135D01*
X180259572Y-94998560D01*
X180259569Y-94998561D01*
X180259561Y-94998565D01*
X180069929Y-95108049D01*
X179896201Y-95241355D01*
X179896194Y-95241361D01*
X179741361Y-95396194D01*
X179741355Y-95396201D01*
X179608049Y-95569929D01*
X179498565Y-95759561D01*
X179498560Y-95759573D01*
X179414758Y-95961884D01*
X179358084Y-96173399D01*
X179358082Y-96173410D01*
X179329500Y-96390502D01*
X177670499Y-96390502D01*
X177641917Y-96173402D01*
X177585241Y-95961883D01*
X177501440Y-95759572D01*
X177391950Y-95569929D01*
X177258643Y-95396200D01*
X177258638Y-95396194D01*
X177103805Y-95241361D01*
X177103798Y-95241355D01*
X176930070Y-95108049D01*
X176740438Y-94998565D01*
X176740433Y-94998562D01*
X176740428Y-94998560D01*
X176538117Y-94914759D01*
X176538118Y-94914759D01*
X176538115Y-94914758D01*
X176432357Y-94886421D01*
X176326598Y-94858083D01*
X176290314Y-94853306D01*
X176109497Y-94829500D01*
X176109490Y-94829500D01*
X175890510Y-94829500D01*
X175890502Y-94829500D01*
X175683853Y-94856707D01*
X175673402Y-94858083D01*
X175628699Y-94870060D01*
X175461884Y-94914758D01*
X175371650Y-94952135D01*
X175259572Y-94998560D01*
X175259569Y-94998561D01*
X175259561Y-94998565D01*
X175069929Y-95108049D01*
X174896201Y-95241355D01*
X174896194Y-95241361D01*
X174741361Y-95396194D01*
X174741355Y-95396201D01*
X174608049Y-95569929D01*
X174498565Y-95759561D01*
X174498560Y-95759573D01*
X174414758Y-95961884D01*
X174358084Y-96173399D01*
X174358082Y-96173410D01*
X174329500Y-96390502D01*
X164920499Y-96390502D01*
X164920499Y-94952128D01*
X164914091Y-94892517D01*
X164901248Y-94858084D01*
X164863797Y-94757671D01*
X164863793Y-94757664D01*
X164777547Y-94642455D01*
X164777544Y-94642452D01*
X164662335Y-94556206D01*
X164662328Y-94556202D01*
X164527482Y-94505908D01*
X164527483Y-94505908D01*
X164467883Y-94499501D01*
X164467881Y-94499500D01*
X164467873Y-94499500D01*
X164467864Y-94499500D01*
X161372129Y-94499500D01*
X161372123Y-94499501D01*
X161312516Y-94505908D01*
X161177671Y-94556202D01*
X161177664Y-94556206D01*
X161062455Y-94642452D01*
X161062452Y-94642455D01*
X160976206Y-94757664D01*
X160976202Y-94757671D01*
X160925908Y-94892517D01*
X160919501Y-94952116D01*
X160919501Y-94952123D01*
X160919500Y-94952135D01*
X151920499Y-94952135D01*
X151920499Y-94952128D01*
X151914091Y-94892517D01*
X151901248Y-94858084D01*
X151863797Y-94757671D01*
X151863793Y-94757664D01*
X151777547Y-94642455D01*
X151777544Y-94642452D01*
X151662335Y-94556206D01*
X151662328Y-94556202D01*
X151527482Y-94505908D01*
X151527483Y-94505908D01*
X151467883Y-94499501D01*
X151467881Y-94499500D01*
X151467873Y-94499500D01*
X151467864Y-94499500D01*
X148372129Y-94499500D01*
X148372123Y-94499501D01*
X148312516Y-94505908D01*
X148177671Y-94556202D01*
X148177664Y-94556206D01*
X148062455Y-94642452D01*
X148062452Y-94642455D01*
X147976206Y-94757664D01*
X147976202Y-94757671D01*
X147925908Y-94892517D01*
X147919501Y-94952116D01*
X147919501Y-94952123D01*
X147919500Y-94952135D01*
X146500000Y-94952135D01*
X146500000Y-86897648D01*
X167699500Y-86897648D01*
X167699500Y-87102351D01*
X167731522Y-87304534D01*
X167794781Y-87499223D01*
X167887715Y-87681613D01*
X168008028Y-87847213D01*
X168152786Y-87991971D01*
X168307749Y-88104556D01*
X168318390Y-88112287D01*
X168434607Y-88171503D01*
X168500776Y-88205218D01*
X168500778Y-88205218D01*
X168500781Y-88205220D01*
X168605137Y-88239127D01*
X168695465Y-88268477D01*
X168796557Y-88284488D01*
X168897648Y-88300500D01*
X168897649Y-88300500D01*
X169102351Y-88300500D01*
X169102352Y-88300500D01*
X169304534Y-88268477D01*
X169499219Y-88205220D01*
X169681610Y-88112287D01*
X169774590Y-88044732D01*
X169847213Y-87991971D01*
X169847215Y-87991968D01*
X169847219Y-87991966D01*
X169991966Y-87847219D01*
X169991968Y-87847215D01*
X169991971Y-87847213D01*
X170044732Y-87774590D01*
X170112287Y-87681610D01*
X170205220Y-87499219D01*
X170268477Y-87304534D01*
X170300500Y-87102352D01*
X170300500Y-86897648D01*
X172699500Y-86897648D01*
X172699500Y-87102351D01*
X172731522Y-87304534D01*
X172794781Y-87499223D01*
X172887715Y-87681613D01*
X173008028Y-87847213D01*
X173152786Y-87991971D01*
X173307749Y-88104556D01*
X173318390Y-88112287D01*
X173434607Y-88171503D01*
X173500776Y-88205218D01*
X173500778Y-88205218D01*
X173500781Y-88205220D01*
X173605137Y-88239127D01*
X173695465Y-88268477D01*
X173796557Y-88284488D01*
X173897648Y-88300500D01*
X173897649Y-88300500D01*
X174102351Y-88300500D01*
X174102352Y-88300500D01*
X174304534Y-88268477D01*
X174499219Y-88205220D01*
X174681610Y-88112287D01*
X174774590Y-88044732D01*
X174847213Y-87991971D01*
X174847215Y-87991968D01*
X174847219Y-87991966D01*
X174991966Y-87847219D01*
X174991968Y-87847215D01*
X174991971Y-87847213D01*
X175044732Y-87774590D01*
X175112287Y-87681610D01*
X175205220Y-87499219D01*
X175268477Y-87304534D01*
X175300500Y-87102352D01*
X175300500Y-86897648D01*
X175268477Y-86695466D01*
X175205220Y-86500781D01*
X175205218Y-86500778D01*
X175205218Y-86500776D01*
X175171503Y-86434607D01*
X175112287Y-86318390D01*
X175104556Y-86307749D01*
X174991971Y-86152786D01*
X174847213Y-86008028D01*
X174681613Y-85887715D01*
X174681612Y-85887714D01*
X174681610Y-85887713D01*
X174624653Y-85858691D01*
X174499223Y-85794781D01*
X174304534Y-85731522D01*
X174129995Y-85703878D01*
X174102352Y-85699500D01*
X173897648Y-85699500D01*
X173873329Y-85703351D01*
X173695465Y-85731522D01*
X173500776Y-85794781D01*
X173318386Y-85887715D01*
X173152786Y-86008028D01*
X173008028Y-86152786D01*
X172887715Y-86318386D01*
X172794781Y-86500776D01*
X172731522Y-86695465D01*
X172699500Y-86897648D01*
X170300500Y-86897648D01*
X170268477Y-86695466D01*
X170205220Y-86500781D01*
X170205218Y-86500778D01*
X170205218Y-86500776D01*
X170171503Y-86434607D01*
X170112287Y-86318390D01*
X170104556Y-86307749D01*
X169991971Y-86152786D01*
X169847213Y-86008028D01*
X169681613Y-85887715D01*
X169681612Y-85887714D01*
X169681610Y-85887713D01*
X169624653Y-85858691D01*
X169499223Y-85794781D01*
X169304534Y-85731522D01*
X169129995Y-85703878D01*
X169102352Y-85699500D01*
X168897648Y-85699500D01*
X168873329Y-85703351D01*
X168695465Y-85731522D01*
X168500776Y-85794781D01*
X168318386Y-85887715D01*
X168152786Y-86008028D01*
X168008028Y-86152786D01*
X167887715Y-86318386D01*
X167794781Y-86500776D01*
X167731522Y-86695465D01*
X167699500Y-86897648D01*
X146500000Y-86897648D01*
X146500000Y-84397648D01*
X162699500Y-84397648D01*
X162699500Y-84602351D01*
X162731522Y-84804534D01*
X162794781Y-84999223D01*
X162858691Y-85124653D01*
X162867893Y-85142712D01*
X162887715Y-85181613D01*
X163008028Y-85347213D01*
X163152786Y-85491971D01*
X163307749Y-85604556D01*
X163318390Y-85612287D01*
X163434607Y-85671503D01*
X163500776Y-85705218D01*
X163500778Y-85705218D01*
X163500781Y-85705220D01*
X163605137Y-85739127D01*
X163695465Y-85768477D01*
X163796557Y-85784488D01*
X163897648Y-85800500D01*
X163897649Y-85800500D01*
X164102351Y-85800500D01*
X164102352Y-85800500D01*
X164304534Y-85768477D01*
X164499219Y-85705220D01*
X164681610Y-85612287D01*
X164774590Y-85544732D01*
X164847213Y-85491971D01*
X164847215Y-85491968D01*
X164847219Y-85491966D01*
X164991966Y-85347219D01*
X164991968Y-85347215D01*
X164991971Y-85347213D01*
X165073632Y-85234814D01*
X165112287Y-85181610D01*
X165205220Y-84999219D01*
X165268477Y-84804534D01*
X165300500Y-84602352D01*
X165300500Y-84397648D01*
X165268477Y-84195466D01*
X165205220Y-84000781D01*
X165205218Y-84000778D01*
X165205218Y-84000776D01*
X165171503Y-83934607D01*
X165112287Y-83818390D01*
X165104556Y-83807749D01*
X164991971Y-83652786D01*
X164847215Y-83508030D01*
X164832243Y-83497153D01*
X164832242Y-83497152D01*
X164698499Y-83399983D01*
X180896849Y-83399983D01*
X180896849Y-84600001D01*
X180896850Y-84600018D01*
X180907349Y-84702796D01*
X180907350Y-84702799D01*
X180941062Y-84804534D01*
X180962535Y-84869334D01*
X181054637Y-85018656D01*
X181178693Y-85142712D01*
X181328015Y-85234814D01*
X181494552Y-85289999D01*
X181597340Y-85300500D01*
X182797357Y-85300499D01*
X182900146Y-85289999D01*
X183066683Y-85234814D01*
X183216005Y-85142712D01*
X183340061Y-85018656D01*
X183432163Y-84869334D01*
X183487348Y-84702797D01*
X183497849Y-84600009D01*
X183497848Y-83399992D01*
X183487348Y-83297203D01*
X183432163Y-83130666D01*
X183340061Y-82981344D01*
X183216005Y-82857288D01*
X183066683Y-82765186D01*
X182900146Y-82710001D01*
X182900144Y-82710000D01*
X182797359Y-82699500D01*
X181597347Y-82699500D01*
X181597330Y-82699501D01*
X181494552Y-82710000D01*
X181494549Y-82710001D01*
X181328017Y-82765185D01*
X181328012Y-82765187D01*
X181178691Y-82857289D01*
X181054638Y-82981342D01*
X180962536Y-83130663D01*
X180962534Y-83130668D01*
X180939726Y-83199500D01*
X180907350Y-83297203D01*
X180907350Y-83297204D01*
X180907349Y-83297204D01*
X180896849Y-83399983D01*
X164698499Y-83399983D01*
X164681613Y-83387715D01*
X164681612Y-83387714D01*
X164681610Y-83387713D01*
X164624653Y-83358691D01*
X164499223Y-83294781D01*
X164304534Y-83231522D01*
X164129995Y-83203878D01*
X164102352Y-83199500D01*
X163897648Y-83199500D01*
X163873329Y-83203351D01*
X163695465Y-83231522D01*
X163500776Y-83294781D01*
X163318386Y-83387715D01*
X163152786Y-83508028D01*
X163008028Y-83652786D01*
X162887715Y-83818386D01*
X162794781Y-84000776D01*
X162731522Y-84195465D01*
X162699500Y-84397648D01*
X146500000Y-84397648D01*
X146500000Y-81279983D01*
X147899500Y-81279983D01*
X147899500Y-82480001D01*
X147899501Y-82480018D01*
X147910000Y-82582796D01*
X147910001Y-82582799D01*
X147965185Y-82749331D01*
X147965187Y-82749336D01*
X147974964Y-82765187D01*
X148057288Y-82898656D01*
X148181344Y-83022712D01*
X148330666Y-83114814D01*
X148497203Y-83169999D01*
X148599991Y-83180500D01*
X149800008Y-83180499D01*
X149902797Y-83169999D01*
X150069334Y-83114814D01*
X150218656Y-83022712D01*
X150342712Y-82898656D01*
X150434814Y-82749334D01*
X150489999Y-82582797D01*
X150500500Y-82480009D01*
X150500499Y-81279992D01*
X150489999Y-81177203D01*
X150434814Y-81010666D01*
X150342712Y-80861344D01*
X150218656Y-80737288D01*
X150069334Y-80645186D01*
X149902797Y-80590001D01*
X149902795Y-80590000D01*
X149800010Y-80579500D01*
X148599998Y-80579500D01*
X148599981Y-80579501D01*
X148497203Y-80590000D01*
X148497200Y-80590001D01*
X148330668Y-80645185D01*
X148330663Y-80645187D01*
X148181342Y-80737289D01*
X148057289Y-80861342D01*
X147965187Y-81010663D01*
X147965186Y-81010666D01*
X147910001Y-81177203D01*
X147910001Y-81177204D01*
X147910000Y-81177204D01*
X147899500Y-81279983D01*
X146500000Y-81279983D01*
X146500000Y-76777648D01*
X157699500Y-76777648D01*
X157699500Y-76982351D01*
X157731522Y-77184534D01*
X157794781Y-77379223D01*
X157887715Y-77561613D01*
X158008028Y-77727213D01*
X158152786Y-77871971D01*
X158307749Y-77984556D01*
X158318390Y-77992287D01*
X158434607Y-78051503D01*
X158500776Y-78085218D01*
X158500778Y-78085218D01*
X158500781Y-78085220D01*
X158605137Y-78119127D01*
X158695465Y-78148477D01*
X158796557Y-78164488D01*
X158897648Y-78180500D01*
X158897649Y-78180500D01*
X159102351Y-78180500D01*
X159102352Y-78180500D01*
X159304534Y-78148477D01*
X159499219Y-78085220D01*
X159681610Y-77992287D01*
X159774590Y-77924732D01*
X159847213Y-77871971D01*
X159847215Y-77871968D01*
X159847219Y-77871966D01*
X159991966Y-77727219D01*
X159991968Y-77727215D01*
X159991971Y-77727213D01*
X160044732Y-77654590D01*
X160112287Y-77561610D01*
X160205220Y-77379219D01*
X160268477Y-77184534D01*
X160300500Y-76982352D01*
X160300500Y-76777648D01*
X162699500Y-76777648D01*
X162699500Y-76982351D01*
X162731522Y-77184534D01*
X162794781Y-77379223D01*
X162887715Y-77561613D01*
X163008028Y-77727213D01*
X163152786Y-77871971D01*
X163307749Y-77984556D01*
X163318390Y-77992287D01*
X163434607Y-78051503D01*
X163500776Y-78085218D01*
X163500778Y-78085218D01*
X163500781Y-78085220D01*
X163605137Y-78119127D01*
X163695465Y-78148477D01*
X163796557Y-78164488D01*
X163897648Y-78180500D01*
X163897649Y-78180500D01*
X164102351Y-78180500D01*
X164102352Y-78180500D01*
X164304534Y-78148477D01*
X164499219Y-78085220D01*
X164681610Y-77992287D01*
X164774590Y-77924732D01*
X164847213Y-77871971D01*
X164847215Y-77871968D01*
X164847219Y-77871966D01*
X164991966Y-77727219D01*
X164991968Y-77727215D01*
X164991971Y-77727213D01*
X165044732Y-77654590D01*
X165112287Y-77561610D01*
X165205220Y-77379219D01*
X165268477Y-77184534D01*
X165300500Y-76982352D01*
X165300500Y-76777648D01*
X165286618Y-76690000D01*
X165268477Y-76575465D01*
X165215354Y-76411971D01*
X165205220Y-76380781D01*
X165205218Y-76380778D01*
X165205218Y-76380776D01*
X165147354Y-76267213D01*
X165112287Y-76198390D01*
X165104556Y-76187749D01*
X164991971Y-76032786D01*
X164847213Y-75888028D01*
X164681613Y-75767715D01*
X164681612Y-75767714D01*
X164681610Y-75767713D01*
X164596867Y-75724534D01*
X164499223Y-75674781D01*
X164304534Y-75611522D01*
X164129995Y-75583878D01*
X164102352Y-75579500D01*
X163897648Y-75579500D01*
X163873329Y-75583351D01*
X163695465Y-75611522D01*
X163500776Y-75674781D01*
X163318386Y-75767715D01*
X163152786Y-75888028D01*
X163008028Y-76032786D01*
X162887715Y-76198386D01*
X162794781Y-76380776D01*
X162731522Y-76575465D01*
X162699500Y-76777648D01*
X160300500Y-76777648D01*
X160286618Y-76690000D01*
X160268477Y-76575465D01*
X160215354Y-76411971D01*
X160205220Y-76380781D01*
X160205218Y-76380778D01*
X160205218Y-76380776D01*
X160147354Y-76267213D01*
X160112287Y-76198390D01*
X160104556Y-76187749D01*
X159991971Y-76032786D01*
X159847213Y-75888028D01*
X159681613Y-75767715D01*
X159681612Y-75767714D01*
X159681610Y-75767713D01*
X159596867Y-75724534D01*
X159499223Y-75674781D01*
X159304534Y-75611522D01*
X159129995Y-75583878D01*
X159102352Y-75579500D01*
X158897648Y-75579500D01*
X158873329Y-75583351D01*
X158695465Y-75611522D01*
X158500776Y-75674781D01*
X158318386Y-75767715D01*
X158152786Y-75888028D01*
X158008028Y-76032786D01*
X157887715Y-76198386D01*
X157794781Y-76380776D01*
X157731522Y-76575465D01*
X157699500Y-76777648D01*
X146500000Y-76777648D01*
X146500000Y-72279983D01*
X166989500Y-72279983D01*
X166989500Y-73480001D01*
X166989501Y-73480018D01*
X167000000Y-73582796D01*
X167000001Y-73582799D01*
X167055185Y-73749331D01*
X167055186Y-73749334D01*
X167147288Y-73898656D01*
X167271344Y-74022712D01*
X167420666Y-74114814D01*
X167502570Y-74141954D01*
X167560015Y-74181727D01*
X167586838Y-74246243D01*
X167574523Y-74315018D01*
X167536451Y-74359978D01*
X167442787Y-74428028D01*
X167442782Y-74428032D01*
X167298028Y-74572786D01*
X167177715Y-74738386D01*
X167084781Y-74920776D01*
X167021522Y-75115465D01*
X166989500Y-75317648D01*
X166989500Y-75522351D01*
X167021522Y-75724534D01*
X167084781Y-75919223D01*
X167177715Y-76101613D01*
X167298028Y-76267213D01*
X167442786Y-76411971D01*
X167597749Y-76524556D01*
X167608390Y-76532287D01*
X167699840Y-76578883D01*
X167701080Y-76579515D01*
X167751876Y-76627490D01*
X167768671Y-76695311D01*
X167746134Y-76761446D01*
X167701080Y-76800485D01*
X167608386Y-76847715D01*
X167442786Y-76968028D01*
X167298028Y-77112786D01*
X167177715Y-77278386D01*
X167084781Y-77460776D01*
X167021522Y-77655465D01*
X166989500Y-77857648D01*
X166989500Y-78062351D01*
X167021522Y-78264534D01*
X167084781Y-78459223D01*
X167177715Y-78641613D01*
X167298028Y-78807213D01*
X167442786Y-78951971D01*
X167597749Y-79064556D01*
X167608390Y-79072287D01*
X167699840Y-79118883D01*
X167701080Y-79119515D01*
X167751876Y-79167490D01*
X167768671Y-79235311D01*
X167746134Y-79301446D01*
X167701080Y-79340485D01*
X167608386Y-79387715D01*
X167442786Y-79508028D01*
X167298028Y-79652786D01*
X167177715Y-79818386D01*
X167084781Y-80000776D01*
X167021522Y-80195465D01*
X166989500Y-80397648D01*
X166989500Y-80602351D01*
X167021522Y-80804534D01*
X167084781Y-80999223D01*
X167177715Y-81181613D01*
X167298028Y-81347213D01*
X167442786Y-81491971D01*
X167597749Y-81604556D01*
X167608390Y-81612287D01*
X167724607Y-81671503D01*
X167790776Y-81705218D01*
X167790778Y-81705218D01*
X167790781Y-81705220D01*
X167895137Y-81739127D01*
X167985465Y-81768477D01*
X168086557Y-81784488D01*
X168187648Y-81800500D01*
X168187649Y-81800500D01*
X169192351Y-81800500D01*
X169192352Y-81800500D01*
X169394534Y-81768477D01*
X169589219Y-81705220D01*
X169771610Y-81612287D01*
X169864590Y-81544732D01*
X169937213Y-81491971D01*
X169937215Y-81491968D01*
X169937219Y-81491966D01*
X170081966Y-81347219D01*
X170081968Y-81347215D01*
X170081971Y-81347213D01*
X170134732Y-81274590D01*
X170202287Y-81181610D01*
X170295220Y-80999219D01*
X170358477Y-80804534D01*
X170390500Y-80602352D01*
X170390500Y-80397648D01*
X170358477Y-80195466D01*
X170295220Y-80000781D01*
X170295218Y-80000778D01*
X170295218Y-80000776D01*
X170261503Y-79934607D01*
X170202287Y-79818390D01*
X170194556Y-79807749D01*
X170081971Y-79652786D01*
X169937213Y-79508028D01*
X169771614Y-79387715D01*
X169765006Y-79384348D01*
X169678917Y-79340483D01*
X169628123Y-79292511D01*
X169611328Y-79224690D01*
X169633865Y-79158555D01*
X169678917Y-79119516D01*
X169771610Y-79072287D01*
X169792770Y-79056913D01*
X169937213Y-78951971D01*
X169937215Y-78951968D01*
X169937219Y-78951966D01*
X170081966Y-78807219D01*
X170081968Y-78807215D01*
X170081971Y-78807213D01*
X170134732Y-78734590D01*
X170202287Y-78641610D01*
X170295220Y-78459219D01*
X170358477Y-78264534D01*
X170390500Y-78062352D01*
X170390500Y-77857648D01*
X170358477Y-77655466D01*
X170295220Y-77460781D01*
X170295218Y-77460778D01*
X170295218Y-77460776D01*
X170253662Y-77379219D01*
X170202287Y-77278390D01*
X170194556Y-77267749D01*
X170081971Y-77112786D01*
X169937213Y-76968028D01*
X169771614Y-76847715D01*
X169765006Y-76844348D01*
X169678917Y-76800483D01*
X169628123Y-76752511D01*
X169611328Y-76684690D01*
X169633865Y-76618555D01*
X169678917Y-76579516D01*
X169771610Y-76532287D01*
X169792770Y-76516913D01*
X169937213Y-76411971D01*
X169937215Y-76411968D01*
X169937219Y-76411966D01*
X170081966Y-76267219D01*
X170081968Y-76267215D01*
X170081971Y-76267213D01*
X170134732Y-76194590D01*
X170202287Y-76101610D01*
X170295220Y-75919219D01*
X170358477Y-75724534D01*
X170390500Y-75522352D01*
X170390500Y-75317648D01*
X170358477Y-75115466D01*
X170295220Y-74920781D01*
X170295218Y-74920778D01*
X170295218Y-74920776D01*
X170261503Y-74854607D01*
X170202287Y-74738390D01*
X170194556Y-74727749D01*
X170081971Y-74572786D01*
X169937219Y-74428034D01*
X169937211Y-74428028D01*
X169843547Y-74359978D01*
X169800882Y-74304649D01*
X169794903Y-74235036D01*
X169827508Y-74173240D01*
X169877426Y-74141955D01*
X169959334Y-74114814D01*
X170108656Y-74022712D01*
X170232712Y-73898656D01*
X170324814Y-73749334D01*
X170379999Y-73582797D01*
X170390500Y-73480009D01*
X170390499Y-72279992D01*
X170379999Y-72177203D01*
X170324814Y-72010666D01*
X170232712Y-71861344D01*
X170108656Y-71737288D01*
X169959334Y-71645186D01*
X169792797Y-71590001D01*
X169792795Y-71590000D01*
X169690010Y-71579500D01*
X167689998Y-71579500D01*
X167689981Y-71579501D01*
X167587203Y-71590000D01*
X167587200Y-71590001D01*
X167420668Y-71645185D01*
X167420663Y-71645187D01*
X167271342Y-71737289D01*
X167147289Y-71861342D01*
X167055187Y-72010663D01*
X167055186Y-72010666D01*
X167000001Y-72177203D01*
X167000001Y-72177204D01*
X167000000Y-72177204D01*
X166989500Y-72279983D01*
X146500000Y-72279983D01*
X146500000Y-68389778D01*
X151099500Y-68389778D01*
X151099500Y-68610221D01*
X151133985Y-68827952D01*
X151202103Y-69037603D01*
X151202104Y-69037606D01*
X151270122Y-69171096D01*
X151275479Y-69181610D01*
X151302187Y-69234025D01*
X151431752Y-69412358D01*
X151431756Y-69412363D01*
X151587636Y-69568243D01*
X151587641Y-69568247D01*
X151648258Y-69612287D01*
X151765978Y-69697815D01*
X151894375Y-69763237D01*
X151962393Y-69797895D01*
X151962396Y-69797896D01*
X152067221Y-69831955D01*
X152172049Y-69866015D01*
X152389778Y-69900500D01*
X152389779Y-69900500D01*
X152610221Y-69900500D01*
X152610222Y-69900500D01*
X152827951Y-69866015D01*
X153037606Y-69797895D01*
X153234022Y-69697815D01*
X153412365Y-69568242D01*
X153568242Y-69412365D01*
X153697815Y-69234022D01*
X153797895Y-69037606D01*
X153866015Y-68827951D01*
X153900500Y-68610222D01*
X153900500Y-68397648D01*
X155079500Y-68397648D01*
X155079500Y-68602351D01*
X155111522Y-68804534D01*
X155174781Y-68999223D01*
X155267715Y-69181613D01*
X155388028Y-69347213D01*
X155532786Y-69491971D01*
X155687749Y-69604556D01*
X155698390Y-69612287D01*
X155814607Y-69671503D01*
X155880776Y-69705218D01*
X155880778Y-69705218D01*
X155880781Y-69705220D01*
X155985137Y-69739127D01*
X156075465Y-69768477D01*
X156176557Y-69784488D01*
X156277648Y-69800500D01*
X156277649Y-69800500D01*
X156482351Y-69800500D01*
X156482352Y-69800500D01*
X156684534Y-69768477D01*
X156879219Y-69705220D01*
X157061610Y-69612287D01*
X157154590Y-69544732D01*
X157227213Y-69491971D01*
X157227215Y-69491968D01*
X157227219Y-69491966D01*
X157371966Y-69347219D01*
X157371968Y-69347215D01*
X157371971Y-69347213D01*
X157424732Y-69274590D01*
X157492287Y-69181610D01*
X157585220Y-68999219D01*
X157648477Y-68804534D01*
X157680500Y-68602352D01*
X157680500Y-68397648D01*
X162699500Y-68397648D01*
X162699500Y-68602351D01*
X162731522Y-68804534D01*
X162794781Y-68999223D01*
X162887715Y-69181613D01*
X163008028Y-69347213D01*
X163152786Y-69491971D01*
X163307749Y-69604556D01*
X163318390Y-69612287D01*
X163434607Y-69671503D01*
X163500776Y-69705218D01*
X163500778Y-69705218D01*
X163500781Y-69705220D01*
X163605137Y-69739127D01*
X163695465Y-69768477D01*
X163796557Y-69784488D01*
X163897648Y-69800500D01*
X163897649Y-69800500D01*
X164102351Y-69800500D01*
X164102352Y-69800500D01*
X164304534Y-69768477D01*
X164499219Y-69705220D01*
X164681610Y-69612287D01*
X164774590Y-69544732D01*
X164847213Y-69491971D01*
X164847215Y-69491968D01*
X164847219Y-69491966D01*
X164991966Y-69347219D01*
X164991968Y-69347215D01*
X164991971Y-69347213D01*
X165044732Y-69274590D01*
X165112287Y-69181610D01*
X165205220Y-68999219D01*
X165268477Y-68804534D01*
X165300500Y-68602352D01*
X165300500Y-68397648D01*
X165268477Y-68195465D01*
X165205218Y-68000776D01*
X165171503Y-67934607D01*
X165112287Y-67818390D01*
X165074205Y-67765974D01*
X164991971Y-67652786D01*
X164847213Y-67508028D01*
X164681613Y-67387715D01*
X164681612Y-67387714D01*
X164681610Y-67387713D01*
X164624653Y-67358691D01*
X164499223Y-67294781D01*
X164304534Y-67231522D01*
X164118799Y-67202105D01*
X164102352Y-67199500D01*
X163897648Y-67199500D01*
X163881201Y-67202105D01*
X163695465Y-67231522D01*
X163500776Y-67294781D01*
X163318386Y-67387715D01*
X163152786Y-67508028D01*
X163008028Y-67652786D01*
X162887715Y-67818386D01*
X162794781Y-68000776D01*
X162731522Y-68195465D01*
X162699500Y-68397648D01*
X157680500Y-68397648D01*
X157648477Y-68195465D01*
X157585218Y-68000776D01*
X157551503Y-67934607D01*
X157492287Y-67818390D01*
X157454205Y-67765974D01*
X157371971Y-67652786D01*
X157227213Y-67508028D01*
X157061613Y-67387715D01*
X157061612Y-67387714D01*
X157061610Y-67387713D01*
X157004653Y-67358691D01*
X156879223Y-67294781D01*
X156684534Y-67231522D01*
X156498799Y-67202105D01*
X156482352Y-67199500D01*
X156277648Y-67199500D01*
X156261201Y-67202105D01*
X156075465Y-67231522D01*
X155880776Y-67294781D01*
X155698386Y-67387715D01*
X155532786Y-67508028D01*
X155388028Y-67652786D01*
X155267715Y-67818386D01*
X155174781Y-68000776D01*
X155111522Y-68195465D01*
X155079500Y-68397648D01*
X153900500Y-68397648D01*
X153900500Y-68389778D01*
X153866015Y-68172049D01*
X153797895Y-67962394D01*
X153797895Y-67962393D01*
X153763237Y-67894375D01*
X153697815Y-67765978D01*
X153615573Y-67652781D01*
X153568247Y-67587641D01*
X153568243Y-67587636D01*
X153412363Y-67431756D01*
X153412358Y-67431752D01*
X153234025Y-67302187D01*
X153234024Y-67302186D01*
X153234022Y-67302185D01*
X153171096Y-67270122D01*
X153037606Y-67202104D01*
X153037603Y-67202103D01*
X152827952Y-67133985D01*
X152719086Y-67116742D01*
X152610222Y-67099500D01*
X152389778Y-67099500D01*
X152317201Y-67110995D01*
X152172047Y-67133985D01*
X151962396Y-67202103D01*
X151962393Y-67202104D01*
X151765974Y-67302187D01*
X151587641Y-67431752D01*
X151587636Y-67431756D01*
X151431756Y-67587636D01*
X151431752Y-67587641D01*
X151302187Y-67765974D01*
X151202104Y-67962393D01*
X151202103Y-67962396D01*
X151133985Y-68172047D01*
X151099500Y-68389778D01*
X146500000Y-68389778D01*
X146500000Y-64699983D01*
X180131823Y-64699983D01*
X180131823Y-66300001D01*
X180131824Y-66300018D01*
X180142323Y-66402796D01*
X180142324Y-66402799D01*
X180167082Y-66477512D01*
X180197509Y-66569334D01*
X180289611Y-66718656D01*
X180413667Y-66842712D01*
X180562989Y-66934814D01*
X180729526Y-66989999D01*
X180832314Y-67000500D01*
X182432331Y-67000499D01*
X182535120Y-66989999D01*
X182701657Y-66934814D01*
X182850979Y-66842712D01*
X182975035Y-66718656D01*
X183067137Y-66569334D01*
X183122322Y-66402797D01*
X183132823Y-66300009D01*
X183132822Y-65381902D01*
X185131823Y-65381902D01*
X185131823Y-65618097D01*
X185168769Y-65851368D01*
X185241756Y-66075996D01*
X185348980Y-66286433D01*
X185487806Y-66477510D01*
X185654813Y-66644517D01*
X185845890Y-66783343D01*
X185945314Y-66834002D01*
X186056326Y-66890566D01*
X186056328Y-66890566D01*
X186056331Y-66890568D01*
X186176735Y-66929689D01*
X186280954Y-66963553D01*
X186514226Y-67000500D01*
X186514231Y-67000500D01*
X186750420Y-67000500D01*
X186983691Y-66963553D01*
X187208315Y-66890568D01*
X187418756Y-66783343D01*
X187609833Y-66644517D01*
X187776840Y-66477510D01*
X187915666Y-66286433D01*
X188022891Y-66075992D01*
X188095876Y-65851368D01*
X188132823Y-65618097D01*
X188132823Y-65381902D01*
X188095876Y-65148631D01*
X188022889Y-64924003D01*
X187915665Y-64713566D01*
X187776840Y-64522490D01*
X187609833Y-64355483D01*
X187418756Y-64216657D01*
X187208319Y-64109433D01*
X186983691Y-64036446D01*
X186750420Y-63999500D01*
X186750415Y-63999500D01*
X186514231Y-63999500D01*
X186514226Y-63999500D01*
X186280954Y-64036446D01*
X186056326Y-64109433D01*
X185845889Y-64216657D01*
X185810547Y-64242335D01*
X185654813Y-64355483D01*
X185654811Y-64355485D01*
X185654810Y-64355485D01*
X185487808Y-64522487D01*
X185487808Y-64522488D01*
X185487806Y-64522490D01*
X185433526Y-64597200D01*
X185348980Y-64713566D01*
X185241756Y-64924003D01*
X185168769Y-65148631D01*
X185131823Y-65381902D01*
X183132822Y-65381902D01*
X183132822Y-64699992D01*
X183122322Y-64597203D01*
X183067137Y-64430666D01*
X182975035Y-64281344D01*
X182850979Y-64157288D01*
X182701657Y-64065186D01*
X182535120Y-64010001D01*
X182535118Y-64010000D01*
X182432333Y-63999500D01*
X180832321Y-63999500D01*
X180832304Y-63999501D01*
X180729526Y-64010000D01*
X180729523Y-64010001D01*
X180562991Y-64065185D01*
X180562986Y-64065187D01*
X180413665Y-64157289D01*
X180289612Y-64281342D01*
X180197510Y-64430663D01*
X180197508Y-64430668D01*
X180176492Y-64494091D01*
X180142324Y-64597203D01*
X180142324Y-64597204D01*
X180142323Y-64597204D01*
X180131823Y-64699983D01*
X146500000Y-64699983D01*
X146500000Y-63147648D01*
X162699500Y-63147648D01*
X162699500Y-63352351D01*
X162731522Y-63554534D01*
X162794781Y-63749223D01*
X162887715Y-63931613D01*
X163008028Y-64097213D01*
X163152786Y-64241971D01*
X163307749Y-64354556D01*
X163318390Y-64362287D01*
X163434607Y-64421503D01*
X163500776Y-64455218D01*
X163500778Y-64455218D01*
X163500781Y-64455220D01*
X163605137Y-64489127D01*
X163695465Y-64518477D01*
X163796557Y-64534488D01*
X163897648Y-64550500D01*
X163897649Y-64550500D01*
X164102351Y-64550500D01*
X164102352Y-64550500D01*
X164304534Y-64518477D01*
X164499219Y-64455220D01*
X164681610Y-64362287D01*
X164774590Y-64294732D01*
X164847213Y-64241971D01*
X164847215Y-64241968D01*
X164847219Y-64241966D01*
X164991966Y-64097219D01*
X164991968Y-64097215D01*
X164991971Y-64097213D01*
X165055334Y-64010000D01*
X165112287Y-63931610D01*
X165205220Y-63749219D01*
X165268477Y-63554534D01*
X165300500Y-63352352D01*
X165300500Y-63147648D01*
X165268477Y-62945466D01*
X165205220Y-62750781D01*
X165205218Y-62750778D01*
X165205218Y-62750776D01*
X165171503Y-62684607D01*
X165112287Y-62568390D01*
X165104556Y-62557749D01*
X164991971Y-62402786D01*
X164847213Y-62258028D01*
X164681613Y-62137715D01*
X164681612Y-62137714D01*
X164681610Y-62137713D01*
X164624653Y-62108691D01*
X164499223Y-62044781D01*
X164304534Y-61981522D01*
X164129995Y-61953878D01*
X164102352Y-61949500D01*
X163897648Y-61949500D01*
X163873329Y-61953351D01*
X163695465Y-61981522D01*
X163500776Y-62044781D01*
X163318386Y-62137715D01*
X163152786Y-62258028D01*
X163008028Y-62402786D01*
X162887715Y-62568386D01*
X162794781Y-62750776D01*
X162731522Y-62945465D01*
X162699500Y-63147648D01*
X146500000Y-63147648D01*
X146500000Y-60624500D01*
X146519685Y-60557461D01*
X146572489Y-60511706D01*
X146624000Y-60500500D01*
X172690999Y-60500500D01*
X172758038Y-60520185D01*
G37*
%TD.AperFunction*%
%TD*%
%TA.AperFunction,Conductor*%
%TO.N,GND*%
G36*
X142443039Y-104019685D02*
G01*
X142488794Y-104072489D01*
X142500000Y-104124000D01*
X142500000Y-143375500D01*
X142480315Y-143442539D01*
X142427511Y-143488294D01*
X142376000Y-143499500D01*
X117919001Y-143499500D01*
X117851962Y-143479815D01*
X117806207Y-143427011D01*
X117796263Y-143357853D01*
X117819734Y-143301189D01*
X117863796Y-143242331D01*
X117914091Y-143107483D01*
X117920500Y-143047873D01*
X117920499Y-141390502D01*
X127329500Y-141390502D01*
X127329500Y-141609497D01*
X127353306Y-141790314D01*
X127358083Y-141826598D01*
X127414759Y-142038117D01*
X127498560Y-142240428D01*
X127498562Y-142240433D01*
X127498565Y-142240438D01*
X127608049Y-142430070D01*
X127741355Y-142603798D01*
X127741361Y-142603805D01*
X127896194Y-142758638D01*
X127896201Y-142758644D01*
X128069929Y-142891950D01*
X128259561Y-143001434D01*
X128259563Y-143001434D01*
X128259572Y-143001440D01*
X128461883Y-143085241D01*
X128673402Y-143141917D01*
X128890510Y-143170500D01*
X128890517Y-143170500D01*
X129109483Y-143170500D01*
X129109490Y-143170500D01*
X129326598Y-143141917D01*
X129538117Y-143085241D01*
X129740428Y-143001440D01*
X129930071Y-142891950D01*
X130103800Y-142758643D01*
X130258643Y-142603800D01*
X130391950Y-142430071D01*
X130501440Y-142240428D01*
X130585241Y-142038117D01*
X130641917Y-141826598D01*
X130670500Y-141609490D01*
X130670500Y-141390510D01*
X130670499Y-141390502D01*
X132329500Y-141390502D01*
X132329500Y-141609497D01*
X132353306Y-141790314D01*
X132358083Y-141826598D01*
X132414759Y-142038117D01*
X132498560Y-142240428D01*
X132498562Y-142240433D01*
X132498565Y-142240438D01*
X132608049Y-142430070D01*
X132741355Y-142603798D01*
X132741361Y-142603805D01*
X132896194Y-142758638D01*
X132896201Y-142758644D01*
X133069929Y-142891950D01*
X133259561Y-143001434D01*
X133259563Y-143001434D01*
X133259572Y-143001440D01*
X133461883Y-143085241D01*
X133673402Y-143141917D01*
X133890510Y-143170500D01*
X133890517Y-143170500D01*
X134109483Y-143170500D01*
X134109490Y-143170500D01*
X134326598Y-143141917D01*
X134538117Y-143085241D01*
X134740428Y-143001440D01*
X134930071Y-142891950D01*
X135103800Y-142758643D01*
X135258643Y-142603800D01*
X135391950Y-142430071D01*
X135501440Y-142240428D01*
X135585241Y-142038117D01*
X135641917Y-141826598D01*
X135670500Y-141609490D01*
X135670500Y-141390510D01*
X135641917Y-141173402D01*
X135585241Y-140961883D01*
X135501440Y-140759572D01*
X135391950Y-140569929D01*
X135258643Y-140396200D01*
X135258638Y-140396194D01*
X135103805Y-140241361D01*
X135103798Y-140241355D01*
X134930070Y-140108049D01*
X134740438Y-139998565D01*
X134740433Y-139998562D01*
X134740428Y-139998560D01*
X134538117Y-139914759D01*
X134538118Y-139914759D01*
X134538115Y-139914758D01*
X134432357Y-139886421D01*
X134326598Y-139858083D01*
X134290314Y-139853306D01*
X134109497Y-139829500D01*
X134109490Y-139829500D01*
X133890510Y-139829500D01*
X133890502Y-139829500D01*
X133683853Y-139856707D01*
X133673402Y-139858083D01*
X133628699Y-139870060D01*
X133461884Y-139914758D01*
X133371667Y-139952128D01*
X133259572Y-139998560D01*
X133259569Y-139998561D01*
X133259561Y-139998565D01*
X133069929Y-140108049D01*
X132896201Y-140241355D01*
X132896194Y-140241361D01*
X132741361Y-140396194D01*
X132741355Y-140396201D01*
X132608049Y-140569929D01*
X132498565Y-140759561D01*
X132498560Y-140759573D01*
X132414758Y-140961884D01*
X132358084Y-141173399D01*
X132358082Y-141173410D01*
X132329500Y-141390502D01*
X130670499Y-141390502D01*
X130641917Y-141173402D01*
X130585241Y-140961883D01*
X130501440Y-140759572D01*
X130391950Y-140569929D01*
X130258643Y-140396200D01*
X130258638Y-140396194D01*
X130103805Y-140241361D01*
X130103798Y-140241355D01*
X129930070Y-140108049D01*
X129740438Y-139998565D01*
X129740433Y-139998562D01*
X129740428Y-139998560D01*
X129538117Y-139914759D01*
X129538118Y-139914759D01*
X129538115Y-139914758D01*
X129432357Y-139886421D01*
X129326598Y-139858083D01*
X129290314Y-139853306D01*
X129109497Y-139829500D01*
X129109490Y-139829500D01*
X128890510Y-139829500D01*
X128890502Y-139829500D01*
X128683853Y-139856707D01*
X128673402Y-139858083D01*
X128628699Y-139870060D01*
X128461884Y-139914758D01*
X128371667Y-139952128D01*
X128259572Y-139998560D01*
X128259569Y-139998561D01*
X128259561Y-139998565D01*
X128069929Y-140108049D01*
X127896201Y-140241355D01*
X127896194Y-140241361D01*
X127741361Y-140396194D01*
X127741355Y-140396201D01*
X127608049Y-140569929D01*
X127498565Y-140759561D01*
X127498560Y-140759573D01*
X127414758Y-140961884D01*
X127358084Y-141173399D01*
X127358082Y-141173410D01*
X127329500Y-141390502D01*
X117920499Y-141390502D01*
X117920499Y-139952128D01*
X117914091Y-139892517D01*
X117901248Y-139858084D01*
X117863797Y-139757671D01*
X117863793Y-139757664D01*
X117777547Y-139642455D01*
X117777544Y-139642452D01*
X117662335Y-139556206D01*
X117662328Y-139556202D01*
X117527482Y-139505908D01*
X117527483Y-139505908D01*
X117467883Y-139499501D01*
X117467881Y-139499500D01*
X117467873Y-139499500D01*
X117467864Y-139499500D01*
X114372129Y-139499500D01*
X114372123Y-139499501D01*
X114312516Y-139505908D01*
X114177671Y-139556202D01*
X114177664Y-139556206D01*
X114062455Y-139642452D01*
X114062452Y-139642455D01*
X113976206Y-139757664D01*
X113976202Y-139757671D01*
X113925908Y-139892517D01*
X113919501Y-139952116D01*
X113919501Y-139952123D01*
X113919500Y-139952135D01*
X113919500Y-143047870D01*
X113919501Y-143047876D01*
X113925908Y-143107483D01*
X113976202Y-143242328D01*
X113976204Y-143242331D01*
X114020265Y-143301189D01*
X114044683Y-143366652D01*
X114029832Y-143434925D01*
X113980427Y-143484331D01*
X113920999Y-143499500D01*
X104919001Y-143499500D01*
X104851962Y-143479815D01*
X104806207Y-143427011D01*
X104796263Y-143357853D01*
X104819734Y-143301189D01*
X104863796Y-143242331D01*
X104914091Y-143107483D01*
X104920500Y-143047873D01*
X104920499Y-139952128D01*
X104914091Y-139892517D01*
X104901248Y-139858084D01*
X104863797Y-139757671D01*
X104863793Y-139757664D01*
X104777547Y-139642455D01*
X104777544Y-139642452D01*
X104662335Y-139556206D01*
X104662328Y-139556202D01*
X104527482Y-139505908D01*
X104527483Y-139505908D01*
X104467883Y-139499501D01*
X104467881Y-139499500D01*
X104467873Y-139499500D01*
X104467864Y-139499500D01*
X101372129Y-139499500D01*
X101372123Y-139499501D01*
X101312516Y-139505908D01*
X101177671Y-139556202D01*
X101177664Y-139556206D01*
X101062455Y-139642452D01*
X101062452Y-139642455D01*
X100976206Y-139757664D01*
X100976202Y-139757671D01*
X100925908Y-139892517D01*
X100919501Y-139952116D01*
X100919501Y-139952123D01*
X100919500Y-139952135D01*
X100919500Y-143047870D01*
X100919501Y-143047876D01*
X100925908Y-143107483D01*
X100976202Y-143242328D01*
X100976204Y-143242331D01*
X101020265Y-143301189D01*
X101044683Y-143366652D01*
X101029832Y-143434925D01*
X100980427Y-143484331D01*
X100920999Y-143499500D01*
X100124500Y-143499500D01*
X100057461Y-143479815D01*
X100011706Y-143427011D01*
X100000500Y-143375500D01*
X100000500Y-131897648D01*
X120699500Y-131897648D01*
X120699500Y-132102351D01*
X120731522Y-132304534D01*
X120794781Y-132499223D01*
X120887715Y-132681613D01*
X121008028Y-132847213D01*
X121152786Y-132991971D01*
X121307749Y-133104556D01*
X121318390Y-133112287D01*
X121434607Y-133171503D01*
X121500776Y-133205218D01*
X121500778Y-133205218D01*
X121500781Y-133205220D01*
X121605137Y-133239127D01*
X121695465Y-133268477D01*
X121796557Y-133284488D01*
X121897648Y-133300500D01*
X121897649Y-133300500D01*
X122102351Y-133300500D01*
X122102352Y-133300500D01*
X122304534Y-133268477D01*
X122499219Y-133205220D01*
X122681610Y-133112287D01*
X122774590Y-133044732D01*
X122847213Y-132991971D01*
X122847215Y-132991968D01*
X122847219Y-132991966D01*
X122991966Y-132847219D01*
X122991968Y-132847215D01*
X122991971Y-132847213D01*
X123044732Y-132774590D01*
X123112287Y-132681610D01*
X123205220Y-132499219D01*
X123268477Y-132304534D01*
X123300500Y-132102352D01*
X123300500Y-131897648D01*
X125699500Y-131897648D01*
X125699500Y-132102351D01*
X125731522Y-132304534D01*
X125794781Y-132499223D01*
X125887715Y-132681613D01*
X126008028Y-132847213D01*
X126152786Y-132991971D01*
X126307749Y-133104556D01*
X126318390Y-133112287D01*
X126434607Y-133171503D01*
X126500776Y-133205218D01*
X126500778Y-133205218D01*
X126500781Y-133205220D01*
X126605137Y-133239127D01*
X126695465Y-133268477D01*
X126796557Y-133284488D01*
X126897648Y-133300500D01*
X126897649Y-133300500D01*
X127102351Y-133300500D01*
X127102352Y-133300500D01*
X127304534Y-133268477D01*
X127499219Y-133205220D01*
X127681610Y-133112287D01*
X127774590Y-133044732D01*
X127847213Y-132991971D01*
X127847215Y-132991968D01*
X127847219Y-132991966D01*
X127991966Y-132847219D01*
X127991968Y-132847215D01*
X127991971Y-132847213D01*
X128044732Y-132774590D01*
X128112287Y-132681610D01*
X128205220Y-132499219D01*
X128268477Y-132304534D01*
X128300500Y-132102352D01*
X128300500Y-131897648D01*
X128268477Y-131695466D01*
X128205220Y-131500781D01*
X128205218Y-131500778D01*
X128205218Y-131500776D01*
X128171503Y-131434607D01*
X128112287Y-131318390D01*
X128104556Y-131307749D01*
X127991971Y-131152786D01*
X127847213Y-131008028D01*
X127681613Y-130887715D01*
X127681612Y-130887714D01*
X127681610Y-130887713D01*
X127624653Y-130858691D01*
X127499223Y-130794781D01*
X127304534Y-130731522D01*
X127129995Y-130703878D01*
X127102352Y-130699500D01*
X126897648Y-130699500D01*
X126873329Y-130703351D01*
X126695465Y-130731522D01*
X126500776Y-130794781D01*
X126318386Y-130887715D01*
X126152786Y-131008028D01*
X126008028Y-131152786D01*
X125887715Y-131318386D01*
X125794781Y-131500776D01*
X125731522Y-131695465D01*
X125699500Y-131897648D01*
X123300500Y-131897648D01*
X123268477Y-131695466D01*
X123205220Y-131500781D01*
X123205218Y-131500778D01*
X123205218Y-131500776D01*
X123171503Y-131434607D01*
X123112287Y-131318390D01*
X123104556Y-131307749D01*
X122991971Y-131152786D01*
X122847213Y-131008028D01*
X122681613Y-130887715D01*
X122681612Y-130887714D01*
X122681610Y-130887713D01*
X122624653Y-130858691D01*
X122499223Y-130794781D01*
X122304534Y-130731522D01*
X122129995Y-130703878D01*
X122102352Y-130699500D01*
X121897648Y-130699500D01*
X121873329Y-130703351D01*
X121695465Y-130731522D01*
X121500776Y-130794781D01*
X121318386Y-130887715D01*
X121152786Y-131008028D01*
X121008028Y-131152786D01*
X120887715Y-131318386D01*
X120794781Y-131500776D01*
X120731522Y-131695465D01*
X120699500Y-131897648D01*
X100000500Y-131897648D01*
X100000500Y-129397648D01*
X115699500Y-129397648D01*
X115699500Y-129602351D01*
X115731522Y-129804534D01*
X115794781Y-129999223D01*
X115858691Y-130124653D01*
X115867893Y-130142712D01*
X115887715Y-130181613D01*
X116008028Y-130347213D01*
X116152786Y-130491971D01*
X116307749Y-130604556D01*
X116318390Y-130612287D01*
X116434607Y-130671503D01*
X116500776Y-130705218D01*
X116500778Y-130705218D01*
X116500781Y-130705220D01*
X116605137Y-130739127D01*
X116695465Y-130768477D01*
X116796557Y-130784488D01*
X116897648Y-130800500D01*
X116897649Y-130800500D01*
X117102351Y-130800500D01*
X117102352Y-130800500D01*
X117304534Y-130768477D01*
X117499219Y-130705220D01*
X117681610Y-130612287D01*
X117774590Y-130544732D01*
X117847213Y-130491971D01*
X117847215Y-130491968D01*
X117847219Y-130491966D01*
X117991966Y-130347219D01*
X117991968Y-130347215D01*
X117991971Y-130347213D01*
X118073632Y-130234814D01*
X118112287Y-130181610D01*
X118205220Y-129999219D01*
X118268477Y-129804534D01*
X118300500Y-129602352D01*
X118300500Y-129397648D01*
X118268477Y-129195466D01*
X118205220Y-129000781D01*
X118205218Y-129000778D01*
X118205218Y-129000776D01*
X118171503Y-128934607D01*
X118112287Y-128818390D01*
X118104556Y-128807749D01*
X117991971Y-128652786D01*
X117847215Y-128508030D01*
X117832243Y-128497153D01*
X117832242Y-128497152D01*
X117698499Y-128399983D01*
X133896849Y-128399983D01*
X133896849Y-129600001D01*
X133896850Y-129600018D01*
X133907349Y-129702796D01*
X133907350Y-129702799D01*
X133941062Y-129804534D01*
X133962535Y-129869334D01*
X134054637Y-130018656D01*
X134178693Y-130142712D01*
X134328015Y-130234814D01*
X134494552Y-130289999D01*
X134597340Y-130300500D01*
X135797357Y-130300499D01*
X135900146Y-130289999D01*
X136066683Y-130234814D01*
X136216005Y-130142712D01*
X136340061Y-130018656D01*
X136432163Y-129869334D01*
X136487348Y-129702797D01*
X136497849Y-129600009D01*
X136497848Y-128399992D01*
X136487348Y-128297203D01*
X136432163Y-128130666D01*
X136340061Y-127981344D01*
X136216005Y-127857288D01*
X136066683Y-127765186D01*
X135900146Y-127710001D01*
X135900144Y-127710000D01*
X135797359Y-127699500D01*
X134597347Y-127699500D01*
X134597330Y-127699501D01*
X134494552Y-127710000D01*
X134494549Y-127710001D01*
X134328017Y-127765185D01*
X134328012Y-127765187D01*
X134178691Y-127857289D01*
X134054638Y-127981342D01*
X133962536Y-128130663D01*
X133962534Y-128130668D01*
X133939726Y-128199500D01*
X133907350Y-128297203D01*
X133907350Y-128297204D01*
X133907349Y-128297204D01*
X133896849Y-128399983D01*
X117698499Y-128399983D01*
X117681613Y-128387715D01*
X117681612Y-128387714D01*
X117681610Y-128387713D01*
X117624653Y-128358691D01*
X117499223Y-128294781D01*
X117304534Y-128231522D01*
X117129995Y-128203878D01*
X117102352Y-128199500D01*
X116897648Y-128199500D01*
X116873329Y-128203351D01*
X116695465Y-128231522D01*
X116500776Y-128294781D01*
X116318386Y-128387715D01*
X116152786Y-128508028D01*
X116008028Y-128652786D01*
X115887715Y-128818386D01*
X115794781Y-129000776D01*
X115731522Y-129195465D01*
X115699500Y-129397648D01*
X100000500Y-129397648D01*
X100000500Y-126279983D01*
X100899500Y-126279983D01*
X100899500Y-127480001D01*
X100899501Y-127480018D01*
X100910000Y-127582796D01*
X100910001Y-127582799D01*
X100965185Y-127749331D01*
X100965187Y-127749336D01*
X100974964Y-127765187D01*
X101057288Y-127898656D01*
X101181344Y-128022712D01*
X101330666Y-128114814D01*
X101497203Y-128169999D01*
X101599991Y-128180500D01*
X102800008Y-128180499D01*
X102902797Y-128169999D01*
X103069334Y-128114814D01*
X103218656Y-128022712D01*
X103342712Y-127898656D01*
X103434814Y-127749334D01*
X103489999Y-127582797D01*
X103500500Y-127480009D01*
X103500499Y-126279992D01*
X103489999Y-126177203D01*
X103434814Y-126010666D01*
X103342712Y-125861344D01*
X103218656Y-125737288D01*
X103069334Y-125645186D01*
X102902797Y-125590001D01*
X102902795Y-125590000D01*
X102800010Y-125579500D01*
X101599998Y-125579500D01*
X101599981Y-125579501D01*
X101497203Y-125590000D01*
X101497200Y-125590001D01*
X101330668Y-125645185D01*
X101330663Y-125645187D01*
X101181342Y-125737289D01*
X101057289Y-125861342D01*
X100965187Y-126010663D01*
X100965186Y-126010666D01*
X100910001Y-126177203D01*
X100910001Y-126177204D01*
X100910000Y-126177204D01*
X100899500Y-126279983D01*
X100000500Y-126279983D01*
X100000500Y-121777648D01*
X110699500Y-121777648D01*
X110699500Y-121982351D01*
X110731522Y-122184534D01*
X110794781Y-122379223D01*
X110887715Y-122561613D01*
X111008028Y-122727213D01*
X111152786Y-122871971D01*
X111307749Y-122984556D01*
X111318390Y-122992287D01*
X111434607Y-123051503D01*
X111500776Y-123085218D01*
X111500778Y-123085218D01*
X111500781Y-123085220D01*
X111605137Y-123119127D01*
X111695465Y-123148477D01*
X111796557Y-123164488D01*
X111897648Y-123180500D01*
X111897649Y-123180500D01*
X112102351Y-123180500D01*
X112102352Y-123180500D01*
X112304534Y-123148477D01*
X112499219Y-123085220D01*
X112681610Y-122992287D01*
X112774590Y-122924732D01*
X112847213Y-122871971D01*
X112847215Y-122871968D01*
X112847219Y-122871966D01*
X112991966Y-122727219D01*
X112991968Y-122727215D01*
X112991971Y-122727213D01*
X113044732Y-122654590D01*
X113112287Y-122561610D01*
X113205220Y-122379219D01*
X113268477Y-122184534D01*
X113300500Y-121982352D01*
X113300500Y-121777648D01*
X115699500Y-121777648D01*
X115699500Y-121982351D01*
X115731522Y-122184534D01*
X115794781Y-122379223D01*
X115887715Y-122561613D01*
X116008028Y-122727213D01*
X116152786Y-122871971D01*
X116307749Y-122984556D01*
X116318390Y-122992287D01*
X116434607Y-123051503D01*
X116500776Y-123085218D01*
X116500778Y-123085218D01*
X116500781Y-123085220D01*
X116605137Y-123119127D01*
X116695465Y-123148477D01*
X116796557Y-123164488D01*
X116897648Y-123180500D01*
X116897649Y-123180500D01*
X117102351Y-123180500D01*
X117102352Y-123180500D01*
X117304534Y-123148477D01*
X117499219Y-123085220D01*
X117681610Y-122992287D01*
X117774590Y-122924732D01*
X117847213Y-122871971D01*
X117847215Y-122871968D01*
X117847219Y-122871966D01*
X117991966Y-122727219D01*
X117991968Y-122727215D01*
X117991971Y-122727213D01*
X118044732Y-122654590D01*
X118112287Y-122561610D01*
X118205220Y-122379219D01*
X118268477Y-122184534D01*
X118300500Y-121982352D01*
X118300500Y-121777648D01*
X118286618Y-121690000D01*
X118268477Y-121575465D01*
X118215354Y-121411971D01*
X118205220Y-121380781D01*
X118205218Y-121380778D01*
X118205218Y-121380776D01*
X118147354Y-121267213D01*
X118112287Y-121198390D01*
X118104556Y-121187749D01*
X117991971Y-121032786D01*
X117847213Y-120888028D01*
X117681613Y-120767715D01*
X117681612Y-120767714D01*
X117681610Y-120767713D01*
X117596867Y-120724534D01*
X117499223Y-120674781D01*
X117304534Y-120611522D01*
X117129995Y-120583878D01*
X117102352Y-120579500D01*
X116897648Y-120579500D01*
X116873329Y-120583351D01*
X116695465Y-120611522D01*
X116500776Y-120674781D01*
X116318386Y-120767715D01*
X116152786Y-120888028D01*
X116008028Y-121032786D01*
X115887715Y-121198386D01*
X115794781Y-121380776D01*
X115731522Y-121575465D01*
X115699500Y-121777648D01*
X113300500Y-121777648D01*
X113286618Y-121690000D01*
X113268477Y-121575465D01*
X113215354Y-121411971D01*
X113205220Y-121380781D01*
X113205218Y-121380778D01*
X113205218Y-121380776D01*
X113147354Y-121267213D01*
X113112287Y-121198390D01*
X113104556Y-121187749D01*
X112991971Y-121032786D01*
X112847213Y-120888028D01*
X112681613Y-120767715D01*
X112681612Y-120767714D01*
X112681610Y-120767713D01*
X112596867Y-120724534D01*
X112499223Y-120674781D01*
X112304534Y-120611522D01*
X112129995Y-120583878D01*
X112102352Y-120579500D01*
X111897648Y-120579500D01*
X111873329Y-120583351D01*
X111695465Y-120611522D01*
X111500776Y-120674781D01*
X111318386Y-120767715D01*
X111152786Y-120888028D01*
X111008028Y-121032786D01*
X110887715Y-121198386D01*
X110794781Y-121380776D01*
X110731522Y-121575465D01*
X110699500Y-121777648D01*
X100000500Y-121777648D01*
X100000500Y-117279983D01*
X119989500Y-117279983D01*
X119989500Y-118480001D01*
X119989501Y-118480018D01*
X120000000Y-118582796D01*
X120000001Y-118582799D01*
X120055185Y-118749331D01*
X120055186Y-118749334D01*
X120147288Y-118898656D01*
X120271344Y-119022712D01*
X120420666Y-119114814D01*
X120502570Y-119141954D01*
X120560015Y-119181727D01*
X120586838Y-119246243D01*
X120574523Y-119315018D01*
X120536451Y-119359978D01*
X120442787Y-119428028D01*
X120442782Y-119428032D01*
X120298028Y-119572786D01*
X120177715Y-119738386D01*
X120084781Y-119920776D01*
X120021522Y-120115465D01*
X119989500Y-120317648D01*
X119989500Y-120522351D01*
X120021522Y-120724534D01*
X120084781Y-120919223D01*
X120177715Y-121101613D01*
X120298028Y-121267213D01*
X120442786Y-121411971D01*
X120597749Y-121524556D01*
X120608390Y-121532287D01*
X120699840Y-121578883D01*
X120701080Y-121579515D01*
X120751876Y-121627490D01*
X120768671Y-121695311D01*
X120746134Y-121761446D01*
X120701080Y-121800485D01*
X120608386Y-121847715D01*
X120442786Y-121968028D01*
X120298028Y-122112786D01*
X120177715Y-122278386D01*
X120084781Y-122460776D01*
X120021522Y-122655465D01*
X119989500Y-122857648D01*
X119989500Y-123062351D01*
X120021522Y-123264534D01*
X120084781Y-123459223D01*
X120177715Y-123641613D01*
X120298028Y-123807213D01*
X120442786Y-123951971D01*
X120597749Y-124064556D01*
X120608390Y-124072287D01*
X120699840Y-124118883D01*
X120701080Y-124119515D01*
X120751876Y-124167490D01*
X120768671Y-124235311D01*
X120746134Y-124301446D01*
X120701080Y-124340485D01*
X120608386Y-124387715D01*
X120442786Y-124508028D01*
X120298028Y-124652786D01*
X120177715Y-124818386D01*
X120084781Y-125000776D01*
X120021522Y-125195465D01*
X119989500Y-125397648D01*
X119989500Y-125602351D01*
X120021522Y-125804534D01*
X120084781Y-125999223D01*
X120177715Y-126181613D01*
X120298028Y-126347213D01*
X120442786Y-126491971D01*
X120597749Y-126604556D01*
X120608390Y-126612287D01*
X120724607Y-126671503D01*
X120790776Y-126705218D01*
X120790778Y-126705218D01*
X120790781Y-126705220D01*
X120895137Y-126739127D01*
X120985465Y-126768477D01*
X121086557Y-126784488D01*
X121187648Y-126800500D01*
X121187649Y-126800500D01*
X122192351Y-126800500D01*
X122192352Y-126800500D01*
X122394534Y-126768477D01*
X122589219Y-126705220D01*
X122771610Y-126612287D01*
X122864590Y-126544732D01*
X122937213Y-126491971D01*
X122937215Y-126491968D01*
X122937219Y-126491966D01*
X123081966Y-126347219D01*
X123081968Y-126347215D01*
X123081971Y-126347213D01*
X123134732Y-126274590D01*
X123202287Y-126181610D01*
X123295220Y-125999219D01*
X123358477Y-125804534D01*
X123390500Y-125602352D01*
X123390500Y-125397648D01*
X123358477Y-125195466D01*
X123295220Y-125000781D01*
X123295218Y-125000778D01*
X123295218Y-125000776D01*
X123261503Y-124934607D01*
X123202287Y-124818390D01*
X123194556Y-124807749D01*
X123081971Y-124652786D01*
X122937213Y-124508028D01*
X122771614Y-124387715D01*
X122765006Y-124384348D01*
X122678917Y-124340483D01*
X122628123Y-124292511D01*
X122611328Y-124224690D01*
X122633865Y-124158555D01*
X122678917Y-124119516D01*
X122771610Y-124072287D01*
X122792770Y-124056913D01*
X122937213Y-123951971D01*
X122937215Y-123951968D01*
X122937219Y-123951966D01*
X123081966Y-123807219D01*
X123081968Y-123807215D01*
X123081971Y-123807213D01*
X123134732Y-123734590D01*
X123202287Y-123641610D01*
X123295220Y-123459219D01*
X123358477Y-123264534D01*
X123390500Y-123062352D01*
X123390500Y-122857648D01*
X123358477Y-122655466D01*
X123295220Y-122460781D01*
X123295218Y-122460778D01*
X123295218Y-122460776D01*
X123253662Y-122379219D01*
X123202287Y-122278390D01*
X123194556Y-122267749D01*
X123081971Y-122112786D01*
X122937213Y-121968028D01*
X122771614Y-121847715D01*
X122765006Y-121844348D01*
X122678917Y-121800483D01*
X122628123Y-121752511D01*
X122611328Y-121684690D01*
X122633865Y-121618555D01*
X122678917Y-121579516D01*
X122771610Y-121532287D01*
X122792770Y-121516913D01*
X122937213Y-121411971D01*
X122937215Y-121411968D01*
X122937219Y-121411966D01*
X123081966Y-121267219D01*
X123081968Y-121267215D01*
X123081971Y-121267213D01*
X123134732Y-121194590D01*
X123202287Y-121101610D01*
X123295220Y-120919219D01*
X123358477Y-120724534D01*
X123390500Y-120522352D01*
X123390500Y-120317648D01*
X123358477Y-120115466D01*
X123295220Y-119920781D01*
X123295218Y-119920778D01*
X123295218Y-119920776D01*
X123261503Y-119854607D01*
X123202287Y-119738390D01*
X123194556Y-119727749D01*
X123081971Y-119572786D01*
X122937219Y-119428034D01*
X122937211Y-119428028D01*
X122843547Y-119359978D01*
X122800882Y-119304649D01*
X122794903Y-119235036D01*
X122827508Y-119173240D01*
X122877426Y-119141955D01*
X122959334Y-119114814D01*
X123108656Y-119022712D01*
X123232712Y-118898656D01*
X123324814Y-118749334D01*
X123379999Y-118582797D01*
X123390500Y-118480009D01*
X123390499Y-117279992D01*
X123379999Y-117177203D01*
X123324814Y-117010666D01*
X123232712Y-116861344D01*
X123108656Y-116737288D01*
X122959334Y-116645186D01*
X122792797Y-116590001D01*
X122792795Y-116590000D01*
X122690010Y-116579500D01*
X120689998Y-116579500D01*
X120689981Y-116579501D01*
X120587203Y-116590000D01*
X120587200Y-116590001D01*
X120420668Y-116645185D01*
X120420663Y-116645187D01*
X120271342Y-116737289D01*
X120147289Y-116861342D01*
X120055187Y-117010663D01*
X120055186Y-117010666D01*
X120000001Y-117177203D01*
X120000001Y-117177204D01*
X120000000Y-117177204D01*
X119989500Y-117279983D01*
X100000500Y-117279983D01*
X100000500Y-113389778D01*
X104099500Y-113389778D01*
X104099500Y-113610221D01*
X104133985Y-113827952D01*
X104202103Y-114037603D01*
X104202104Y-114037606D01*
X104270122Y-114171096D01*
X104275479Y-114181610D01*
X104302187Y-114234025D01*
X104431752Y-114412358D01*
X104431756Y-114412363D01*
X104587636Y-114568243D01*
X104587641Y-114568247D01*
X104648258Y-114612287D01*
X104765978Y-114697815D01*
X104894375Y-114763237D01*
X104962393Y-114797895D01*
X104962396Y-114797896D01*
X105067221Y-114831955D01*
X105172049Y-114866015D01*
X105389778Y-114900500D01*
X105389779Y-114900500D01*
X105610221Y-114900500D01*
X105610222Y-114900500D01*
X105827951Y-114866015D01*
X106037606Y-114797895D01*
X106234022Y-114697815D01*
X106412365Y-114568242D01*
X106568242Y-114412365D01*
X106697815Y-114234022D01*
X106797895Y-114037606D01*
X106866015Y-113827951D01*
X106900500Y-113610222D01*
X106900500Y-113397648D01*
X108079500Y-113397648D01*
X108079500Y-113602351D01*
X108111522Y-113804534D01*
X108174781Y-113999223D01*
X108267715Y-114181613D01*
X108388028Y-114347213D01*
X108532786Y-114491971D01*
X108687749Y-114604556D01*
X108698390Y-114612287D01*
X108814607Y-114671503D01*
X108880776Y-114705218D01*
X108880778Y-114705218D01*
X108880781Y-114705220D01*
X108985137Y-114739127D01*
X109075465Y-114768477D01*
X109176557Y-114784488D01*
X109277648Y-114800500D01*
X109277649Y-114800500D01*
X109482351Y-114800500D01*
X109482352Y-114800500D01*
X109684534Y-114768477D01*
X109879219Y-114705220D01*
X110061610Y-114612287D01*
X110154590Y-114544732D01*
X110227213Y-114491971D01*
X110227215Y-114491968D01*
X110227219Y-114491966D01*
X110371966Y-114347219D01*
X110371968Y-114347215D01*
X110371971Y-114347213D01*
X110424732Y-114274590D01*
X110492287Y-114181610D01*
X110585220Y-113999219D01*
X110648477Y-113804534D01*
X110680500Y-113602352D01*
X110680500Y-113397648D01*
X115699500Y-113397648D01*
X115699500Y-113602351D01*
X115731522Y-113804534D01*
X115794781Y-113999223D01*
X115887715Y-114181613D01*
X116008028Y-114347213D01*
X116152786Y-114491971D01*
X116307749Y-114604556D01*
X116318390Y-114612287D01*
X116434607Y-114671503D01*
X116500776Y-114705218D01*
X116500778Y-114705218D01*
X116500781Y-114705220D01*
X116605137Y-114739127D01*
X116695465Y-114768477D01*
X116796557Y-114784488D01*
X116897648Y-114800500D01*
X116897649Y-114800500D01*
X117102351Y-114800500D01*
X117102352Y-114800500D01*
X117304534Y-114768477D01*
X117499219Y-114705220D01*
X117681610Y-114612287D01*
X117774590Y-114544732D01*
X117847213Y-114491971D01*
X117847215Y-114491968D01*
X117847219Y-114491966D01*
X117991966Y-114347219D01*
X117991968Y-114347215D01*
X117991971Y-114347213D01*
X118044732Y-114274590D01*
X118112287Y-114181610D01*
X118205220Y-113999219D01*
X118268477Y-113804534D01*
X118300500Y-113602352D01*
X118300500Y-113397648D01*
X118268477Y-113195465D01*
X118205218Y-113000776D01*
X118171503Y-112934607D01*
X118112287Y-112818390D01*
X118074205Y-112765974D01*
X117991971Y-112652786D01*
X117847213Y-112508028D01*
X117681613Y-112387715D01*
X117681612Y-112387714D01*
X117681610Y-112387713D01*
X117624653Y-112358691D01*
X117499223Y-112294781D01*
X117304534Y-112231522D01*
X117118799Y-112202105D01*
X117102352Y-112199500D01*
X116897648Y-112199500D01*
X116881201Y-112202105D01*
X116695465Y-112231522D01*
X116500776Y-112294781D01*
X116318386Y-112387715D01*
X116152786Y-112508028D01*
X116008028Y-112652786D01*
X115887715Y-112818386D01*
X115794781Y-113000776D01*
X115731522Y-113195465D01*
X115699500Y-113397648D01*
X110680500Y-113397648D01*
X110648477Y-113195465D01*
X110585218Y-113000776D01*
X110551503Y-112934607D01*
X110492287Y-112818390D01*
X110454205Y-112765974D01*
X110371971Y-112652786D01*
X110227213Y-112508028D01*
X110061613Y-112387715D01*
X110061612Y-112387714D01*
X110061610Y-112387713D01*
X110004653Y-112358691D01*
X109879223Y-112294781D01*
X109684534Y-112231522D01*
X109498799Y-112202105D01*
X109482352Y-112199500D01*
X109277648Y-112199500D01*
X109261201Y-112202105D01*
X109075465Y-112231522D01*
X108880776Y-112294781D01*
X108698386Y-112387715D01*
X108532786Y-112508028D01*
X108388028Y-112652786D01*
X108267715Y-112818386D01*
X108174781Y-113000776D01*
X108111522Y-113195465D01*
X108079500Y-113397648D01*
X106900500Y-113397648D01*
X106900500Y-113389778D01*
X106866015Y-113172049D01*
X106797895Y-112962394D01*
X106797895Y-112962393D01*
X106763237Y-112894375D01*
X106697815Y-112765978D01*
X106615573Y-112652781D01*
X106568247Y-112587641D01*
X106568243Y-112587636D01*
X106412363Y-112431756D01*
X106412358Y-112431752D01*
X106234025Y-112302187D01*
X106234024Y-112302186D01*
X106234022Y-112302185D01*
X106171096Y-112270122D01*
X106037606Y-112202104D01*
X106037603Y-112202103D01*
X105827952Y-112133985D01*
X105719086Y-112116742D01*
X105610222Y-112099500D01*
X105389778Y-112099500D01*
X105317201Y-112110995D01*
X105172047Y-112133985D01*
X104962396Y-112202103D01*
X104962393Y-112202104D01*
X104765974Y-112302187D01*
X104587641Y-112431752D01*
X104587636Y-112431756D01*
X104431756Y-112587636D01*
X104431752Y-112587641D01*
X104302187Y-112765974D01*
X104202104Y-112962393D01*
X104202103Y-112962396D01*
X104133985Y-113172047D01*
X104099500Y-113389778D01*
X100000500Y-113389778D01*
X100000500Y-109699983D01*
X133131823Y-109699983D01*
X133131823Y-111300001D01*
X133131824Y-111300018D01*
X133142323Y-111402796D01*
X133142324Y-111402799D01*
X133167082Y-111477512D01*
X133197509Y-111569334D01*
X133289611Y-111718656D01*
X133413667Y-111842712D01*
X133562989Y-111934814D01*
X133729526Y-111989999D01*
X133832314Y-112000500D01*
X135432331Y-112000499D01*
X135535120Y-111989999D01*
X135701657Y-111934814D01*
X135850979Y-111842712D01*
X135975035Y-111718656D01*
X136067137Y-111569334D01*
X136122322Y-111402797D01*
X136132823Y-111300009D01*
X136132822Y-110381902D01*
X138131823Y-110381902D01*
X138131823Y-110618097D01*
X138168769Y-110851368D01*
X138241756Y-111075996D01*
X138348980Y-111286433D01*
X138487806Y-111477510D01*
X138654813Y-111644517D01*
X138845890Y-111783343D01*
X138945314Y-111834002D01*
X139056326Y-111890566D01*
X139056328Y-111890566D01*
X139056331Y-111890568D01*
X139176735Y-111929689D01*
X139280954Y-111963553D01*
X139514226Y-112000500D01*
X139514231Y-112000500D01*
X139750420Y-112000500D01*
X139983691Y-111963553D01*
X140208315Y-111890568D01*
X140418756Y-111783343D01*
X140609833Y-111644517D01*
X140776840Y-111477510D01*
X140915666Y-111286433D01*
X141022891Y-111075992D01*
X141095876Y-110851368D01*
X141132823Y-110618097D01*
X141132823Y-110381902D01*
X141095876Y-110148631D01*
X141022889Y-109924003D01*
X140915665Y-109713566D01*
X140776840Y-109522490D01*
X140609833Y-109355483D01*
X140418756Y-109216657D01*
X140208319Y-109109433D01*
X139983691Y-109036446D01*
X139750420Y-108999500D01*
X139750415Y-108999500D01*
X139514231Y-108999500D01*
X139514226Y-108999500D01*
X139280954Y-109036446D01*
X139056326Y-109109433D01*
X138845889Y-109216657D01*
X138810547Y-109242335D01*
X138654813Y-109355483D01*
X138654811Y-109355485D01*
X138654810Y-109355485D01*
X138487808Y-109522487D01*
X138487808Y-109522488D01*
X138487806Y-109522490D01*
X138433526Y-109597200D01*
X138348980Y-109713566D01*
X138241756Y-109924003D01*
X138168769Y-110148631D01*
X138131823Y-110381902D01*
X136132822Y-110381902D01*
X136132822Y-109699992D01*
X136122322Y-109597203D01*
X136067137Y-109430666D01*
X135975035Y-109281344D01*
X135850979Y-109157288D01*
X135701657Y-109065186D01*
X135535120Y-109010001D01*
X135535118Y-109010000D01*
X135432333Y-108999500D01*
X133832321Y-108999500D01*
X133832304Y-108999501D01*
X133729526Y-109010000D01*
X133729523Y-109010001D01*
X133562991Y-109065185D01*
X133562986Y-109065187D01*
X133413665Y-109157289D01*
X133289612Y-109281342D01*
X133197510Y-109430663D01*
X133197508Y-109430668D01*
X133176492Y-109494091D01*
X133142324Y-109597203D01*
X133142324Y-109597204D01*
X133142323Y-109597204D01*
X133131823Y-109699983D01*
X100000500Y-109699983D01*
X100000500Y-108147648D01*
X115699500Y-108147648D01*
X115699500Y-108352351D01*
X115731522Y-108554534D01*
X115794781Y-108749223D01*
X115887715Y-108931613D01*
X116008028Y-109097213D01*
X116152786Y-109241971D01*
X116307749Y-109354556D01*
X116318390Y-109362287D01*
X116434607Y-109421503D01*
X116500776Y-109455218D01*
X116500778Y-109455218D01*
X116500781Y-109455220D01*
X116605137Y-109489127D01*
X116695465Y-109518477D01*
X116796557Y-109534488D01*
X116897648Y-109550500D01*
X116897649Y-109550500D01*
X117102351Y-109550500D01*
X117102352Y-109550500D01*
X117304534Y-109518477D01*
X117499219Y-109455220D01*
X117681610Y-109362287D01*
X117774590Y-109294732D01*
X117847213Y-109241971D01*
X117847215Y-109241968D01*
X117847219Y-109241966D01*
X117991966Y-109097219D01*
X117991968Y-109097215D01*
X117991971Y-109097213D01*
X118055334Y-109010000D01*
X118112287Y-108931610D01*
X118205220Y-108749219D01*
X118268477Y-108554534D01*
X118300500Y-108352352D01*
X118300500Y-108147648D01*
X118268477Y-107945466D01*
X118205220Y-107750781D01*
X118205218Y-107750778D01*
X118205218Y-107750776D01*
X118171503Y-107684607D01*
X118112287Y-107568390D01*
X118104556Y-107557749D01*
X117991971Y-107402786D01*
X117847213Y-107258028D01*
X117681613Y-107137715D01*
X117681612Y-107137714D01*
X117681610Y-107137713D01*
X117624653Y-107108691D01*
X117499223Y-107044781D01*
X117304534Y-106981522D01*
X117129995Y-106953878D01*
X117102352Y-106949500D01*
X116897648Y-106949500D01*
X116873329Y-106953351D01*
X116695465Y-106981522D01*
X116500776Y-107044781D01*
X116318386Y-107137715D01*
X116152786Y-107258028D01*
X116008028Y-107402786D01*
X115887715Y-107568386D01*
X115794781Y-107750776D01*
X115731522Y-107945465D01*
X115699500Y-108147648D01*
X100000500Y-108147648D01*
X100000500Y-105952135D01*
X125689500Y-105952135D01*
X125689500Y-109047870D01*
X125689501Y-109047876D01*
X125695908Y-109107483D01*
X125746202Y-109242328D01*
X125746206Y-109242335D01*
X125832452Y-109357544D01*
X125832455Y-109357547D01*
X125947664Y-109443793D01*
X125947671Y-109443797D01*
X126082517Y-109494091D01*
X126082516Y-109494091D01*
X126089444Y-109494835D01*
X126142127Y-109500500D01*
X129237872Y-109500499D01*
X129297483Y-109494091D01*
X129432331Y-109443796D01*
X129547546Y-109357546D01*
X129633796Y-109242331D01*
X129684091Y-109107483D01*
X129690500Y-109047873D01*
X129690499Y-105952128D01*
X129684091Y-105892517D01*
X129633796Y-105757669D01*
X129633795Y-105757668D01*
X129633793Y-105757664D01*
X129547547Y-105642455D01*
X129547544Y-105642452D01*
X129432335Y-105556206D01*
X129432328Y-105556202D01*
X129297482Y-105505908D01*
X129297483Y-105505908D01*
X129237883Y-105499501D01*
X129237881Y-105499500D01*
X129237873Y-105499500D01*
X129237864Y-105499500D01*
X126142129Y-105499500D01*
X126142123Y-105499501D01*
X126082516Y-105505908D01*
X125947671Y-105556202D01*
X125947664Y-105556206D01*
X125832455Y-105642452D01*
X125832452Y-105642455D01*
X125746206Y-105757664D01*
X125746202Y-105757671D01*
X125695908Y-105892517D01*
X125689501Y-105952116D01*
X125689501Y-105952123D01*
X125689500Y-105952135D01*
X100000500Y-105952135D01*
X100000500Y-104124000D01*
X100020185Y-104056961D01*
X100072989Y-104011206D01*
X100124500Y-104000000D01*
X142376000Y-104000000D01*
X142443039Y-104019685D01*
G37*
%TD.AperFunction*%
%TD*%
%TA.AperFunction,Conductor*%
%TO.N,GND*%
G36*
X188942539Y-104019685D02*
G01*
X188988294Y-104072489D01*
X188999500Y-104124000D01*
X188999500Y-143375500D01*
X188979815Y-143442539D01*
X188927011Y-143488294D01*
X188875500Y-143499500D01*
X164919001Y-143499500D01*
X164851962Y-143479815D01*
X164806207Y-143427011D01*
X164796263Y-143357853D01*
X164819734Y-143301189D01*
X164863796Y-143242331D01*
X164914091Y-143107483D01*
X164920500Y-143047873D01*
X164920499Y-141390502D01*
X174329500Y-141390502D01*
X174329500Y-141609497D01*
X174353306Y-141790314D01*
X174358083Y-141826598D01*
X174414759Y-142038117D01*
X174498560Y-142240428D01*
X174498562Y-142240433D01*
X174498565Y-142240438D01*
X174608049Y-142430070D01*
X174741355Y-142603798D01*
X174741361Y-142603805D01*
X174896194Y-142758638D01*
X174896201Y-142758644D01*
X175069929Y-142891950D01*
X175259561Y-143001434D01*
X175259563Y-143001434D01*
X175259572Y-143001440D01*
X175461883Y-143085241D01*
X175673402Y-143141917D01*
X175890510Y-143170500D01*
X175890517Y-143170500D01*
X176109483Y-143170500D01*
X176109490Y-143170500D01*
X176326598Y-143141917D01*
X176538117Y-143085241D01*
X176740428Y-143001440D01*
X176930071Y-142891950D01*
X177103800Y-142758643D01*
X177258643Y-142603800D01*
X177391950Y-142430071D01*
X177501440Y-142240428D01*
X177585241Y-142038117D01*
X177641917Y-141826598D01*
X177670500Y-141609490D01*
X177670500Y-141390510D01*
X177670499Y-141390502D01*
X179329500Y-141390502D01*
X179329500Y-141609497D01*
X179353306Y-141790314D01*
X179358083Y-141826598D01*
X179414759Y-142038117D01*
X179498560Y-142240428D01*
X179498562Y-142240433D01*
X179498565Y-142240438D01*
X179608049Y-142430070D01*
X179741355Y-142603798D01*
X179741361Y-142603805D01*
X179896194Y-142758638D01*
X179896201Y-142758644D01*
X180069929Y-142891950D01*
X180259561Y-143001434D01*
X180259563Y-143001434D01*
X180259572Y-143001440D01*
X180461883Y-143085241D01*
X180673402Y-143141917D01*
X180890510Y-143170500D01*
X180890517Y-143170500D01*
X181109483Y-143170500D01*
X181109490Y-143170500D01*
X181326598Y-143141917D01*
X181538117Y-143085241D01*
X181740428Y-143001440D01*
X181930071Y-142891950D01*
X182103800Y-142758643D01*
X182258643Y-142603800D01*
X182391950Y-142430071D01*
X182501440Y-142240428D01*
X182585241Y-142038117D01*
X182641917Y-141826598D01*
X182670500Y-141609490D01*
X182670500Y-141390510D01*
X182641917Y-141173402D01*
X182585241Y-140961883D01*
X182501440Y-140759572D01*
X182391950Y-140569929D01*
X182258643Y-140396200D01*
X182258638Y-140396194D01*
X182103805Y-140241361D01*
X182103798Y-140241355D01*
X181930070Y-140108049D01*
X181740438Y-139998565D01*
X181740433Y-139998562D01*
X181740428Y-139998560D01*
X181538117Y-139914759D01*
X181538118Y-139914759D01*
X181538115Y-139914758D01*
X181432357Y-139886421D01*
X181326598Y-139858083D01*
X181290314Y-139853306D01*
X181109497Y-139829500D01*
X181109490Y-139829500D01*
X180890510Y-139829500D01*
X180890502Y-139829500D01*
X180683853Y-139856707D01*
X180673402Y-139858083D01*
X180628699Y-139870060D01*
X180461884Y-139914758D01*
X180371667Y-139952128D01*
X180259572Y-139998560D01*
X180259569Y-139998561D01*
X180259561Y-139998565D01*
X180069929Y-140108049D01*
X179896201Y-140241355D01*
X179896194Y-140241361D01*
X179741361Y-140396194D01*
X179741355Y-140396201D01*
X179608049Y-140569929D01*
X179498565Y-140759561D01*
X179498560Y-140759573D01*
X179414758Y-140961884D01*
X179358084Y-141173399D01*
X179358082Y-141173410D01*
X179329500Y-141390502D01*
X177670499Y-141390502D01*
X177641917Y-141173402D01*
X177585241Y-140961883D01*
X177501440Y-140759572D01*
X177391950Y-140569929D01*
X177258643Y-140396200D01*
X177258638Y-140396194D01*
X177103805Y-140241361D01*
X177103798Y-140241355D01*
X176930070Y-140108049D01*
X176740438Y-139998565D01*
X176740433Y-139998562D01*
X176740428Y-139998560D01*
X176538117Y-139914759D01*
X176538118Y-139914759D01*
X176538115Y-139914758D01*
X176432357Y-139886421D01*
X176326598Y-139858083D01*
X176290314Y-139853306D01*
X176109497Y-139829500D01*
X176109490Y-139829500D01*
X175890510Y-139829500D01*
X175890502Y-139829500D01*
X175683853Y-139856707D01*
X175673402Y-139858083D01*
X175628699Y-139870060D01*
X175461884Y-139914758D01*
X175371667Y-139952128D01*
X175259572Y-139998560D01*
X175259569Y-139998561D01*
X175259561Y-139998565D01*
X175069929Y-140108049D01*
X174896201Y-140241355D01*
X174896194Y-140241361D01*
X174741361Y-140396194D01*
X174741355Y-140396201D01*
X174608049Y-140569929D01*
X174498565Y-140759561D01*
X174498560Y-140759573D01*
X174414758Y-140961884D01*
X174358084Y-141173399D01*
X174358082Y-141173410D01*
X174329500Y-141390502D01*
X164920499Y-141390502D01*
X164920499Y-139952128D01*
X164914091Y-139892517D01*
X164901248Y-139858084D01*
X164863797Y-139757671D01*
X164863793Y-139757664D01*
X164777547Y-139642455D01*
X164777544Y-139642452D01*
X164662335Y-139556206D01*
X164662328Y-139556202D01*
X164527482Y-139505908D01*
X164527483Y-139505908D01*
X164467883Y-139499501D01*
X164467881Y-139499500D01*
X164467873Y-139499500D01*
X164467864Y-139499500D01*
X161372129Y-139499500D01*
X161372123Y-139499501D01*
X161312516Y-139505908D01*
X161177671Y-139556202D01*
X161177664Y-139556206D01*
X161062455Y-139642452D01*
X161062452Y-139642455D01*
X160976206Y-139757664D01*
X160976202Y-139757671D01*
X160925908Y-139892517D01*
X160919501Y-139952116D01*
X160919501Y-139952123D01*
X160919500Y-139952135D01*
X160919500Y-143047870D01*
X160919501Y-143047876D01*
X160925908Y-143107483D01*
X160976202Y-143242328D01*
X160976204Y-143242331D01*
X161020265Y-143301189D01*
X161044683Y-143366652D01*
X161029832Y-143434925D01*
X160980427Y-143484331D01*
X160920999Y-143499500D01*
X151919001Y-143499500D01*
X151851962Y-143479815D01*
X151806207Y-143427011D01*
X151796263Y-143357853D01*
X151819734Y-143301189D01*
X151863796Y-143242331D01*
X151914091Y-143107483D01*
X151920500Y-143047873D01*
X151920499Y-139952128D01*
X151914091Y-139892517D01*
X151901248Y-139858084D01*
X151863797Y-139757671D01*
X151863793Y-139757664D01*
X151777547Y-139642455D01*
X151777544Y-139642452D01*
X151662335Y-139556206D01*
X151662328Y-139556202D01*
X151527482Y-139505908D01*
X151527483Y-139505908D01*
X151467883Y-139499501D01*
X151467881Y-139499500D01*
X151467873Y-139499500D01*
X151467864Y-139499500D01*
X148372129Y-139499500D01*
X148372123Y-139499501D01*
X148312516Y-139505908D01*
X148177671Y-139556202D01*
X148177664Y-139556206D01*
X148062455Y-139642452D01*
X148062452Y-139642455D01*
X147976206Y-139757664D01*
X147976202Y-139757671D01*
X147925908Y-139892517D01*
X147919501Y-139952116D01*
X147919501Y-139952123D01*
X147919500Y-139952135D01*
X147919500Y-143047870D01*
X147919501Y-143047876D01*
X147925908Y-143107483D01*
X147976202Y-143242328D01*
X147976204Y-143242331D01*
X148020265Y-143301189D01*
X148044683Y-143366652D01*
X148029832Y-143434925D01*
X147980427Y-143484331D01*
X147920999Y-143499500D01*
X146624000Y-143499500D01*
X146556961Y-143479815D01*
X146511206Y-143427011D01*
X146500000Y-143375500D01*
X146500000Y-131897648D01*
X167699500Y-131897648D01*
X167699500Y-132102351D01*
X167731522Y-132304534D01*
X167794781Y-132499223D01*
X167887715Y-132681613D01*
X168008028Y-132847213D01*
X168152786Y-132991971D01*
X168307749Y-133104556D01*
X168318390Y-133112287D01*
X168434607Y-133171503D01*
X168500776Y-133205218D01*
X168500778Y-133205218D01*
X168500781Y-133205220D01*
X168605137Y-133239127D01*
X168695465Y-133268477D01*
X168796557Y-133284488D01*
X168897648Y-133300500D01*
X168897649Y-133300500D01*
X169102351Y-133300500D01*
X169102352Y-133300500D01*
X169304534Y-133268477D01*
X169499219Y-133205220D01*
X169681610Y-133112287D01*
X169774590Y-133044732D01*
X169847213Y-132991971D01*
X169847215Y-132991968D01*
X169847219Y-132991966D01*
X169991966Y-132847219D01*
X169991968Y-132847215D01*
X169991971Y-132847213D01*
X170044732Y-132774590D01*
X170112287Y-132681610D01*
X170205220Y-132499219D01*
X170268477Y-132304534D01*
X170300500Y-132102352D01*
X170300500Y-131897648D01*
X172699500Y-131897648D01*
X172699500Y-132102351D01*
X172731522Y-132304534D01*
X172794781Y-132499223D01*
X172887715Y-132681613D01*
X173008028Y-132847213D01*
X173152786Y-132991971D01*
X173307749Y-133104556D01*
X173318390Y-133112287D01*
X173434607Y-133171503D01*
X173500776Y-133205218D01*
X173500778Y-133205218D01*
X173500781Y-133205220D01*
X173605137Y-133239127D01*
X173695465Y-133268477D01*
X173796557Y-133284488D01*
X173897648Y-133300500D01*
X173897649Y-133300500D01*
X174102351Y-133300500D01*
X174102352Y-133300500D01*
X174304534Y-133268477D01*
X174499219Y-133205220D01*
X174681610Y-133112287D01*
X174774590Y-133044732D01*
X174847213Y-132991971D01*
X174847215Y-132991968D01*
X174847219Y-132991966D01*
X174991966Y-132847219D01*
X174991968Y-132847215D01*
X174991971Y-132847213D01*
X175044732Y-132774590D01*
X175112287Y-132681610D01*
X175205220Y-132499219D01*
X175268477Y-132304534D01*
X175300500Y-132102352D01*
X175300500Y-131897648D01*
X175268477Y-131695466D01*
X175205220Y-131500781D01*
X175205218Y-131500778D01*
X175205218Y-131500776D01*
X175171503Y-131434607D01*
X175112287Y-131318390D01*
X175104556Y-131307749D01*
X174991971Y-131152786D01*
X174847213Y-131008028D01*
X174681613Y-130887715D01*
X174681612Y-130887714D01*
X174681610Y-130887713D01*
X174624653Y-130858691D01*
X174499223Y-130794781D01*
X174304534Y-130731522D01*
X174129995Y-130703878D01*
X174102352Y-130699500D01*
X173897648Y-130699500D01*
X173873329Y-130703351D01*
X173695465Y-130731522D01*
X173500776Y-130794781D01*
X173318386Y-130887715D01*
X173152786Y-131008028D01*
X173008028Y-131152786D01*
X172887715Y-131318386D01*
X172794781Y-131500776D01*
X172731522Y-131695465D01*
X172699500Y-131897648D01*
X170300500Y-131897648D01*
X170268477Y-131695466D01*
X170205220Y-131500781D01*
X170205218Y-131500778D01*
X170205218Y-131500776D01*
X170171503Y-131434607D01*
X170112287Y-131318390D01*
X170104556Y-131307749D01*
X169991971Y-131152786D01*
X169847213Y-131008028D01*
X169681613Y-130887715D01*
X169681612Y-130887714D01*
X169681610Y-130887713D01*
X169624653Y-130858691D01*
X169499223Y-130794781D01*
X169304534Y-130731522D01*
X169129995Y-130703878D01*
X169102352Y-130699500D01*
X168897648Y-130699500D01*
X168873329Y-130703351D01*
X168695465Y-130731522D01*
X168500776Y-130794781D01*
X168318386Y-130887715D01*
X168152786Y-131008028D01*
X168008028Y-131152786D01*
X167887715Y-131318386D01*
X167794781Y-131500776D01*
X167731522Y-131695465D01*
X167699500Y-131897648D01*
X146500000Y-131897648D01*
X146500000Y-129397648D01*
X162699500Y-129397648D01*
X162699500Y-129602351D01*
X162731522Y-129804534D01*
X162794781Y-129999223D01*
X162858691Y-130124653D01*
X162867893Y-130142712D01*
X162887715Y-130181613D01*
X163008028Y-130347213D01*
X163152786Y-130491971D01*
X163307749Y-130604556D01*
X163318390Y-130612287D01*
X163434607Y-130671503D01*
X163500776Y-130705218D01*
X163500778Y-130705218D01*
X163500781Y-130705220D01*
X163605137Y-130739127D01*
X163695465Y-130768477D01*
X163796557Y-130784488D01*
X163897648Y-130800500D01*
X163897649Y-130800500D01*
X164102351Y-130800500D01*
X164102352Y-130800500D01*
X164304534Y-130768477D01*
X164499219Y-130705220D01*
X164681610Y-130612287D01*
X164774590Y-130544732D01*
X164847213Y-130491971D01*
X164847215Y-130491968D01*
X164847219Y-130491966D01*
X164991966Y-130347219D01*
X164991968Y-130347215D01*
X164991971Y-130347213D01*
X165073632Y-130234814D01*
X165112287Y-130181610D01*
X165205220Y-129999219D01*
X165268477Y-129804534D01*
X165300500Y-129602352D01*
X165300500Y-129397648D01*
X165268477Y-129195466D01*
X165205220Y-129000781D01*
X165205218Y-129000778D01*
X165205218Y-129000776D01*
X165171503Y-128934607D01*
X165112287Y-128818390D01*
X165104556Y-128807749D01*
X164991971Y-128652786D01*
X164847215Y-128508030D01*
X164832243Y-128497153D01*
X164832242Y-128497152D01*
X164698499Y-128399983D01*
X180896849Y-128399983D01*
X180896849Y-129600001D01*
X180896850Y-129600018D01*
X180907349Y-129702796D01*
X180907350Y-129702799D01*
X180941062Y-129804534D01*
X180962535Y-129869334D01*
X181054637Y-130018656D01*
X181178693Y-130142712D01*
X181328015Y-130234814D01*
X181494552Y-130289999D01*
X181597340Y-130300500D01*
X182797357Y-130300499D01*
X182900146Y-130289999D01*
X183066683Y-130234814D01*
X183216005Y-130142712D01*
X183340061Y-130018656D01*
X183432163Y-129869334D01*
X183487348Y-129702797D01*
X183497849Y-129600009D01*
X183497848Y-128399992D01*
X183487348Y-128297203D01*
X183432163Y-128130666D01*
X183340061Y-127981344D01*
X183216005Y-127857288D01*
X183066683Y-127765186D01*
X182900146Y-127710001D01*
X182900144Y-127710000D01*
X182797359Y-127699500D01*
X181597347Y-127699500D01*
X181597330Y-127699501D01*
X181494552Y-127710000D01*
X181494549Y-127710001D01*
X181328017Y-127765185D01*
X181328012Y-127765187D01*
X181178691Y-127857289D01*
X181054638Y-127981342D01*
X180962536Y-128130663D01*
X180962534Y-128130668D01*
X180939726Y-128199500D01*
X180907350Y-128297203D01*
X180907350Y-128297204D01*
X180907349Y-128297204D01*
X180896849Y-128399983D01*
X164698499Y-128399983D01*
X164681613Y-128387715D01*
X164681612Y-128387714D01*
X164681610Y-128387713D01*
X164624653Y-128358691D01*
X164499223Y-128294781D01*
X164304534Y-128231522D01*
X164129995Y-128203878D01*
X164102352Y-128199500D01*
X163897648Y-128199500D01*
X163873329Y-128203351D01*
X163695465Y-128231522D01*
X163500776Y-128294781D01*
X163318386Y-128387715D01*
X163152786Y-128508028D01*
X163008028Y-128652786D01*
X162887715Y-128818386D01*
X162794781Y-129000776D01*
X162731522Y-129195465D01*
X162699500Y-129397648D01*
X146500000Y-129397648D01*
X146500000Y-126279983D01*
X147899500Y-126279983D01*
X147899500Y-127480001D01*
X147899501Y-127480018D01*
X147910000Y-127582796D01*
X147910001Y-127582799D01*
X147965185Y-127749331D01*
X147965187Y-127749336D01*
X147974964Y-127765187D01*
X148057288Y-127898656D01*
X148181344Y-128022712D01*
X148330666Y-128114814D01*
X148497203Y-128169999D01*
X148599991Y-128180500D01*
X149800008Y-128180499D01*
X149902797Y-128169999D01*
X150069334Y-128114814D01*
X150218656Y-128022712D01*
X150342712Y-127898656D01*
X150434814Y-127749334D01*
X150489999Y-127582797D01*
X150500500Y-127480009D01*
X150500499Y-126279992D01*
X150489999Y-126177203D01*
X150434814Y-126010666D01*
X150342712Y-125861344D01*
X150218656Y-125737288D01*
X150069334Y-125645186D01*
X149902797Y-125590001D01*
X149902795Y-125590000D01*
X149800010Y-125579500D01*
X148599998Y-125579500D01*
X148599981Y-125579501D01*
X148497203Y-125590000D01*
X148497200Y-125590001D01*
X148330668Y-125645185D01*
X148330663Y-125645187D01*
X148181342Y-125737289D01*
X148057289Y-125861342D01*
X147965187Y-126010663D01*
X147965186Y-126010666D01*
X147910001Y-126177203D01*
X147910001Y-126177204D01*
X147910000Y-126177204D01*
X147899500Y-126279983D01*
X146500000Y-126279983D01*
X146500000Y-121777648D01*
X157699500Y-121777648D01*
X157699500Y-121982351D01*
X157731522Y-122184534D01*
X157794781Y-122379223D01*
X157887715Y-122561613D01*
X158008028Y-122727213D01*
X158152786Y-122871971D01*
X158307749Y-122984556D01*
X158318390Y-122992287D01*
X158434607Y-123051503D01*
X158500776Y-123085218D01*
X158500778Y-123085218D01*
X158500781Y-123085220D01*
X158605137Y-123119127D01*
X158695465Y-123148477D01*
X158796557Y-123164488D01*
X158897648Y-123180500D01*
X158897649Y-123180500D01*
X159102351Y-123180500D01*
X159102352Y-123180500D01*
X159304534Y-123148477D01*
X159499219Y-123085220D01*
X159681610Y-122992287D01*
X159774590Y-122924732D01*
X159847213Y-122871971D01*
X159847215Y-122871968D01*
X159847219Y-122871966D01*
X159991966Y-122727219D01*
X159991968Y-122727215D01*
X159991971Y-122727213D01*
X160044732Y-122654590D01*
X160112287Y-122561610D01*
X160205220Y-122379219D01*
X160268477Y-122184534D01*
X160300500Y-121982352D01*
X160300500Y-121777648D01*
X162699500Y-121777648D01*
X162699500Y-121982351D01*
X162731522Y-122184534D01*
X162794781Y-122379223D01*
X162887715Y-122561613D01*
X163008028Y-122727213D01*
X163152786Y-122871971D01*
X163307749Y-122984556D01*
X163318390Y-122992287D01*
X163434607Y-123051503D01*
X163500776Y-123085218D01*
X163500778Y-123085218D01*
X163500781Y-123085220D01*
X163605137Y-123119127D01*
X163695465Y-123148477D01*
X163796557Y-123164488D01*
X163897648Y-123180500D01*
X163897649Y-123180500D01*
X164102351Y-123180500D01*
X164102352Y-123180500D01*
X164304534Y-123148477D01*
X164499219Y-123085220D01*
X164681610Y-122992287D01*
X164774590Y-122924732D01*
X164847213Y-122871971D01*
X164847215Y-122871968D01*
X164847219Y-122871966D01*
X164991966Y-122727219D01*
X164991968Y-122727215D01*
X164991971Y-122727213D01*
X165044732Y-122654590D01*
X165112287Y-122561610D01*
X165205220Y-122379219D01*
X165268477Y-122184534D01*
X165300500Y-121982352D01*
X165300500Y-121777648D01*
X165286618Y-121690000D01*
X165268477Y-121575465D01*
X165215354Y-121411971D01*
X165205220Y-121380781D01*
X165205218Y-121380778D01*
X165205218Y-121380776D01*
X165147354Y-121267213D01*
X165112287Y-121198390D01*
X165104556Y-121187749D01*
X164991971Y-121032786D01*
X164847213Y-120888028D01*
X164681613Y-120767715D01*
X164681612Y-120767714D01*
X164681610Y-120767713D01*
X164596867Y-120724534D01*
X164499223Y-120674781D01*
X164304534Y-120611522D01*
X164129995Y-120583878D01*
X164102352Y-120579500D01*
X163897648Y-120579500D01*
X163873329Y-120583351D01*
X163695465Y-120611522D01*
X163500776Y-120674781D01*
X163318386Y-120767715D01*
X163152786Y-120888028D01*
X163008028Y-121032786D01*
X162887715Y-121198386D01*
X162794781Y-121380776D01*
X162731522Y-121575465D01*
X162699500Y-121777648D01*
X160300500Y-121777648D01*
X160286618Y-121690000D01*
X160268477Y-121575465D01*
X160215354Y-121411971D01*
X160205220Y-121380781D01*
X160205218Y-121380778D01*
X160205218Y-121380776D01*
X160147354Y-121267213D01*
X160112287Y-121198390D01*
X160104556Y-121187749D01*
X159991971Y-121032786D01*
X159847213Y-120888028D01*
X159681613Y-120767715D01*
X159681612Y-120767714D01*
X159681610Y-120767713D01*
X159596867Y-120724534D01*
X159499223Y-120674781D01*
X159304534Y-120611522D01*
X159129995Y-120583878D01*
X159102352Y-120579500D01*
X158897648Y-120579500D01*
X158873329Y-120583351D01*
X158695465Y-120611522D01*
X158500776Y-120674781D01*
X158318386Y-120767715D01*
X158152786Y-120888028D01*
X158008028Y-121032786D01*
X157887715Y-121198386D01*
X157794781Y-121380776D01*
X157731522Y-121575465D01*
X157699500Y-121777648D01*
X146500000Y-121777648D01*
X146500000Y-117279983D01*
X166989500Y-117279983D01*
X166989500Y-118480001D01*
X166989501Y-118480018D01*
X167000000Y-118582796D01*
X167000001Y-118582799D01*
X167055185Y-118749331D01*
X167055186Y-118749334D01*
X167147288Y-118898656D01*
X167271344Y-119022712D01*
X167420666Y-119114814D01*
X167502570Y-119141954D01*
X167560015Y-119181727D01*
X167586838Y-119246243D01*
X167574523Y-119315018D01*
X167536451Y-119359978D01*
X167442787Y-119428028D01*
X167442782Y-119428032D01*
X167298028Y-119572786D01*
X167177715Y-119738386D01*
X167084781Y-119920776D01*
X167021522Y-120115465D01*
X166989500Y-120317648D01*
X166989500Y-120522351D01*
X167021522Y-120724534D01*
X167084781Y-120919223D01*
X167177715Y-121101613D01*
X167298028Y-121267213D01*
X167442786Y-121411971D01*
X167597749Y-121524556D01*
X167608390Y-121532287D01*
X167699840Y-121578883D01*
X167701080Y-121579515D01*
X167751876Y-121627490D01*
X167768671Y-121695311D01*
X167746134Y-121761446D01*
X167701080Y-121800485D01*
X167608386Y-121847715D01*
X167442786Y-121968028D01*
X167298028Y-122112786D01*
X167177715Y-122278386D01*
X167084781Y-122460776D01*
X167021522Y-122655465D01*
X166989500Y-122857648D01*
X166989500Y-123062351D01*
X167021522Y-123264534D01*
X167084781Y-123459223D01*
X167177715Y-123641613D01*
X167298028Y-123807213D01*
X167442786Y-123951971D01*
X167597749Y-124064556D01*
X167608390Y-124072287D01*
X167699840Y-124118883D01*
X167701080Y-124119515D01*
X167751876Y-124167490D01*
X167768671Y-124235311D01*
X167746134Y-124301446D01*
X167701080Y-124340485D01*
X167608386Y-124387715D01*
X167442786Y-124508028D01*
X167298028Y-124652786D01*
X167177715Y-124818386D01*
X167084781Y-125000776D01*
X167021522Y-125195465D01*
X166989500Y-125397648D01*
X166989500Y-125602351D01*
X167021522Y-125804534D01*
X167084781Y-125999223D01*
X167177715Y-126181613D01*
X167298028Y-126347213D01*
X167442786Y-126491971D01*
X167597749Y-126604556D01*
X167608390Y-126612287D01*
X167724607Y-126671503D01*
X167790776Y-126705218D01*
X167790778Y-126705218D01*
X167790781Y-126705220D01*
X167895137Y-126739127D01*
X167985465Y-126768477D01*
X168086557Y-126784488D01*
X168187648Y-126800500D01*
X168187649Y-126800500D01*
X169192351Y-126800500D01*
X169192352Y-126800500D01*
X169394534Y-126768477D01*
X169589219Y-126705220D01*
X169771610Y-126612287D01*
X169864590Y-126544732D01*
X169937213Y-126491971D01*
X169937215Y-126491968D01*
X169937219Y-126491966D01*
X170081966Y-126347219D01*
X170081968Y-126347215D01*
X170081971Y-126347213D01*
X170134732Y-126274590D01*
X170202287Y-126181610D01*
X170295220Y-125999219D01*
X170358477Y-125804534D01*
X170390500Y-125602352D01*
X170390500Y-125397648D01*
X170358477Y-125195466D01*
X170295220Y-125000781D01*
X170295218Y-125000778D01*
X170295218Y-125000776D01*
X170261503Y-124934607D01*
X170202287Y-124818390D01*
X170194556Y-124807749D01*
X170081971Y-124652786D01*
X169937213Y-124508028D01*
X169771614Y-124387715D01*
X169765006Y-124384348D01*
X169678917Y-124340483D01*
X169628123Y-124292511D01*
X169611328Y-124224690D01*
X169633865Y-124158555D01*
X169678917Y-124119516D01*
X169771610Y-124072287D01*
X169792770Y-124056913D01*
X169937213Y-123951971D01*
X169937215Y-123951968D01*
X169937219Y-123951966D01*
X170081966Y-123807219D01*
X170081968Y-123807215D01*
X170081971Y-123807213D01*
X170134732Y-123734590D01*
X170202287Y-123641610D01*
X170295220Y-123459219D01*
X170358477Y-123264534D01*
X170390500Y-123062352D01*
X170390500Y-122857648D01*
X170358477Y-122655466D01*
X170295220Y-122460781D01*
X170295218Y-122460778D01*
X170295218Y-122460776D01*
X170253662Y-122379219D01*
X170202287Y-122278390D01*
X170194556Y-122267749D01*
X170081971Y-122112786D01*
X169937213Y-121968028D01*
X169771614Y-121847715D01*
X169765006Y-121844348D01*
X169678917Y-121800483D01*
X169628123Y-121752511D01*
X169611328Y-121684690D01*
X169633865Y-121618555D01*
X169678917Y-121579516D01*
X169771610Y-121532287D01*
X169792770Y-121516913D01*
X169937213Y-121411971D01*
X169937215Y-121411968D01*
X169937219Y-121411966D01*
X170081966Y-121267219D01*
X170081968Y-121267215D01*
X170081971Y-121267213D01*
X170134732Y-121194590D01*
X170202287Y-121101610D01*
X170295220Y-120919219D01*
X170358477Y-120724534D01*
X170390500Y-120522352D01*
X170390500Y-120317648D01*
X170358477Y-120115466D01*
X170295220Y-119920781D01*
X170295218Y-119920778D01*
X170295218Y-119920776D01*
X170261503Y-119854607D01*
X170202287Y-119738390D01*
X170194556Y-119727749D01*
X170081971Y-119572786D01*
X169937219Y-119428034D01*
X169937211Y-119428028D01*
X169843547Y-119359978D01*
X169800882Y-119304649D01*
X169794903Y-119235036D01*
X169827508Y-119173240D01*
X169877426Y-119141955D01*
X169959334Y-119114814D01*
X170108656Y-119022712D01*
X170232712Y-118898656D01*
X170324814Y-118749334D01*
X170379999Y-118582797D01*
X170390500Y-118480009D01*
X170390499Y-117279992D01*
X170379999Y-117177203D01*
X170324814Y-117010666D01*
X170232712Y-116861344D01*
X170108656Y-116737288D01*
X169959334Y-116645186D01*
X169792797Y-116590001D01*
X169792795Y-116590000D01*
X169690010Y-116579500D01*
X167689998Y-116579500D01*
X167689981Y-116579501D01*
X167587203Y-116590000D01*
X167587200Y-116590001D01*
X167420668Y-116645185D01*
X167420663Y-116645187D01*
X167271342Y-116737289D01*
X167147289Y-116861342D01*
X167055187Y-117010663D01*
X167055186Y-117010666D01*
X167000001Y-117177203D01*
X167000001Y-117177204D01*
X167000000Y-117177204D01*
X166989500Y-117279983D01*
X146500000Y-117279983D01*
X146500000Y-113389778D01*
X151099500Y-113389778D01*
X151099500Y-113610221D01*
X151133985Y-113827952D01*
X151202103Y-114037603D01*
X151202104Y-114037606D01*
X151270122Y-114171096D01*
X151275479Y-114181610D01*
X151302187Y-114234025D01*
X151431752Y-114412358D01*
X151431756Y-114412363D01*
X151587636Y-114568243D01*
X151587641Y-114568247D01*
X151648258Y-114612287D01*
X151765978Y-114697815D01*
X151894375Y-114763237D01*
X151962393Y-114797895D01*
X151962396Y-114797896D01*
X152067221Y-114831955D01*
X152172049Y-114866015D01*
X152389778Y-114900500D01*
X152389779Y-114900500D01*
X152610221Y-114900500D01*
X152610222Y-114900500D01*
X152827951Y-114866015D01*
X153037606Y-114797895D01*
X153234022Y-114697815D01*
X153412365Y-114568242D01*
X153568242Y-114412365D01*
X153697815Y-114234022D01*
X153797895Y-114037606D01*
X153866015Y-113827951D01*
X153900500Y-113610222D01*
X153900500Y-113397648D01*
X155079500Y-113397648D01*
X155079500Y-113602351D01*
X155111522Y-113804534D01*
X155174781Y-113999223D01*
X155267715Y-114181613D01*
X155388028Y-114347213D01*
X155532786Y-114491971D01*
X155687749Y-114604556D01*
X155698390Y-114612287D01*
X155814607Y-114671503D01*
X155880776Y-114705218D01*
X155880778Y-114705218D01*
X155880781Y-114705220D01*
X155985137Y-114739127D01*
X156075465Y-114768477D01*
X156176557Y-114784488D01*
X156277648Y-114800500D01*
X156277649Y-114800500D01*
X156482351Y-114800500D01*
X156482352Y-114800500D01*
X156684534Y-114768477D01*
X156879219Y-114705220D01*
X157061610Y-114612287D01*
X157154590Y-114544732D01*
X157227213Y-114491971D01*
X157227215Y-114491968D01*
X157227219Y-114491966D01*
X157371966Y-114347219D01*
X157371968Y-114347215D01*
X157371971Y-114347213D01*
X157424732Y-114274590D01*
X157492287Y-114181610D01*
X157585220Y-113999219D01*
X157648477Y-113804534D01*
X157680500Y-113602352D01*
X157680500Y-113397648D01*
X162699500Y-113397648D01*
X162699500Y-113602351D01*
X162731522Y-113804534D01*
X162794781Y-113999223D01*
X162887715Y-114181613D01*
X163008028Y-114347213D01*
X163152786Y-114491971D01*
X163307749Y-114604556D01*
X163318390Y-114612287D01*
X163434607Y-114671503D01*
X163500776Y-114705218D01*
X163500778Y-114705218D01*
X163500781Y-114705220D01*
X163605137Y-114739127D01*
X163695465Y-114768477D01*
X163796557Y-114784488D01*
X163897648Y-114800500D01*
X163897649Y-114800500D01*
X164102351Y-114800500D01*
X164102352Y-114800500D01*
X164304534Y-114768477D01*
X164499219Y-114705220D01*
X164681610Y-114612287D01*
X164774590Y-114544732D01*
X164847213Y-114491971D01*
X164847215Y-114491968D01*
X164847219Y-114491966D01*
X164991966Y-114347219D01*
X164991968Y-114347215D01*
X164991971Y-114347213D01*
X165044732Y-114274590D01*
X165112287Y-114181610D01*
X165205220Y-113999219D01*
X165268477Y-113804534D01*
X165300500Y-113602352D01*
X165300500Y-113397648D01*
X165268477Y-113195465D01*
X165205218Y-113000776D01*
X165171503Y-112934607D01*
X165112287Y-112818390D01*
X165074205Y-112765974D01*
X164991971Y-112652786D01*
X164847213Y-112508028D01*
X164681613Y-112387715D01*
X164681612Y-112387714D01*
X164681610Y-112387713D01*
X164624653Y-112358691D01*
X164499223Y-112294781D01*
X164304534Y-112231522D01*
X164118799Y-112202105D01*
X164102352Y-112199500D01*
X163897648Y-112199500D01*
X163881201Y-112202105D01*
X163695465Y-112231522D01*
X163500776Y-112294781D01*
X163318386Y-112387715D01*
X163152786Y-112508028D01*
X163008028Y-112652786D01*
X162887715Y-112818386D01*
X162794781Y-113000776D01*
X162731522Y-113195465D01*
X162699500Y-113397648D01*
X157680500Y-113397648D01*
X157648477Y-113195465D01*
X157585218Y-113000776D01*
X157551503Y-112934607D01*
X157492287Y-112818390D01*
X157454205Y-112765974D01*
X157371971Y-112652786D01*
X157227213Y-112508028D01*
X157061613Y-112387715D01*
X157061612Y-112387714D01*
X157061610Y-112387713D01*
X157004653Y-112358691D01*
X156879223Y-112294781D01*
X156684534Y-112231522D01*
X156498799Y-112202105D01*
X156482352Y-112199500D01*
X156277648Y-112199500D01*
X156261201Y-112202105D01*
X156075465Y-112231522D01*
X155880776Y-112294781D01*
X155698386Y-112387715D01*
X155532786Y-112508028D01*
X155388028Y-112652786D01*
X155267715Y-112818386D01*
X155174781Y-113000776D01*
X155111522Y-113195465D01*
X155079500Y-113397648D01*
X153900500Y-113397648D01*
X153900500Y-113389778D01*
X153866015Y-113172049D01*
X153797895Y-112962394D01*
X153797895Y-112962393D01*
X153763237Y-112894375D01*
X153697815Y-112765978D01*
X153615573Y-112652781D01*
X153568247Y-112587641D01*
X153568243Y-112587636D01*
X153412363Y-112431756D01*
X153412358Y-112431752D01*
X153234025Y-112302187D01*
X153234024Y-112302186D01*
X153234022Y-112302185D01*
X153171096Y-112270122D01*
X153037606Y-112202104D01*
X153037603Y-112202103D01*
X152827952Y-112133985D01*
X152719086Y-112116742D01*
X152610222Y-112099500D01*
X152389778Y-112099500D01*
X152317201Y-112110995D01*
X152172047Y-112133985D01*
X151962396Y-112202103D01*
X151962393Y-112202104D01*
X151765974Y-112302187D01*
X151587641Y-112431752D01*
X151587636Y-112431756D01*
X151431756Y-112587636D01*
X151431752Y-112587641D01*
X151302187Y-112765974D01*
X151202104Y-112962393D01*
X151202103Y-112962396D01*
X151133985Y-113172047D01*
X151099500Y-113389778D01*
X146500000Y-113389778D01*
X146500000Y-109699983D01*
X180131823Y-109699983D01*
X180131823Y-111300001D01*
X180131824Y-111300018D01*
X180142323Y-111402796D01*
X180142324Y-111402799D01*
X180167082Y-111477512D01*
X180197509Y-111569334D01*
X180289611Y-111718656D01*
X180413667Y-111842712D01*
X180562989Y-111934814D01*
X180729526Y-111989999D01*
X180832314Y-112000500D01*
X182432331Y-112000499D01*
X182535120Y-111989999D01*
X182701657Y-111934814D01*
X182850979Y-111842712D01*
X182975035Y-111718656D01*
X183067137Y-111569334D01*
X183122322Y-111402797D01*
X183132823Y-111300009D01*
X183132822Y-110381902D01*
X185131823Y-110381902D01*
X185131823Y-110618097D01*
X185168769Y-110851368D01*
X185241756Y-111075996D01*
X185348980Y-111286433D01*
X185487806Y-111477510D01*
X185654813Y-111644517D01*
X185845890Y-111783343D01*
X185945314Y-111834002D01*
X186056326Y-111890566D01*
X186056328Y-111890566D01*
X186056331Y-111890568D01*
X186176735Y-111929689D01*
X186280954Y-111963553D01*
X186514226Y-112000500D01*
X186514231Y-112000500D01*
X186750420Y-112000500D01*
X186983691Y-111963553D01*
X187208315Y-111890568D01*
X187418756Y-111783343D01*
X187609833Y-111644517D01*
X187776840Y-111477510D01*
X187915666Y-111286433D01*
X188022891Y-111075992D01*
X188095876Y-110851368D01*
X188132823Y-110618097D01*
X188132823Y-110381902D01*
X188095876Y-110148631D01*
X188022889Y-109924003D01*
X187915665Y-109713566D01*
X187776840Y-109522490D01*
X187609833Y-109355483D01*
X187418756Y-109216657D01*
X187208319Y-109109433D01*
X186983691Y-109036446D01*
X186750420Y-108999500D01*
X186750415Y-108999500D01*
X186514231Y-108999500D01*
X186514226Y-108999500D01*
X186280954Y-109036446D01*
X186056326Y-109109433D01*
X185845889Y-109216657D01*
X185810547Y-109242335D01*
X185654813Y-109355483D01*
X185654811Y-109355485D01*
X185654810Y-109355485D01*
X185487808Y-109522487D01*
X185487808Y-109522488D01*
X185487806Y-109522490D01*
X185433526Y-109597200D01*
X185348980Y-109713566D01*
X185241756Y-109924003D01*
X185168769Y-110148631D01*
X185131823Y-110381902D01*
X183132822Y-110381902D01*
X183132822Y-109699992D01*
X183122322Y-109597203D01*
X183067137Y-109430666D01*
X182975035Y-109281344D01*
X182850979Y-109157288D01*
X182701657Y-109065186D01*
X182535120Y-109010001D01*
X182535118Y-109010000D01*
X182432333Y-108999500D01*
X180832321Y-108999500D01*
X180832304Y-108999501D01*
X180729526Y-109010000D01*
X180729523Y-109010001D01*
X180562991Y-109065185D01*
X180562986Y-109065187D01*
X180413665Y-109157289D01*
X180289612Y-109281342D01*
X180197510Y-109430663D01*
X180197508Y-109430668D01*
X180176492Y-109494091D01*
X180142324Y-109597203D01*
X180142324Y-109597204D01*
X180142323Y-109597204D01*
X180131823Y-109699983D01*
X146500000Y-109699983D01*
X146500000Y-108147648D01*
X162699500Y-108147648D01*
X162699500Y-108352351D01*
X162731522Y-108554534D01*
X162794781Y-108749223D01*
X162887715Y-108931613D01*
X163008028Y-109097213D01*
X163152786Y-109241971D01*
X163307749Y-109354556D01*
X163318390Y-109362287D01*
X163434607Y-109421503D01*
X163500776Y-109455218D01*
X163500778Y-109455218D01*
X163500781Y-109455220D01*
X163605137Y-109489127D01*
X163695465Y-109518477D01*
X163796557Y-109534488D01*
X163897648Y-109550500D01*
X163897649Y-109550500D01*
X164102351Y-109550500D01*
X164102352Y-109550500D01*
X164304534Y-109518477D01*
X164499219Y-109455220D01*
X164681610Y-109362287D01*
X164774590Y-109294732D01*
X164847213Y-109241971D01*
X164847215Y-109241968D01*
X164847219Y-109241966D01*
X164991966Y-109097219D01*
X164991968Y-109097215D01*
X164991971Y-109097213D01*
X165055334Y-109010000D01*
X165112287Y-108931610D01*
X165205220Y-108749219D01*
X165268477Y-108554534D01*
X165300500Y-108352352D01*
X165300500Y-108147648D01*
X165268477Y-107945466D01*
X165205220Y-107750781D01*
X165205218Y-107750778D01*
X165205218Y-107750776D01*
X165171503Y-107684607D01*
X165112287Y-107568390D01*
X165104556Y-107557749D01*
X164991971Y-107402786D01*
X164847213Y-107258028D01*
X164681613Y-107137715D01*
X164681612Y-107137714D01*
X164681610Y-107137713D01*
X164624653Y-107108691D01*
X164499223Y-107044781D01*
X164304534Y-106981522D01*
X164129995Y-106953878D01*
X164102352Y-106949500D01*
X163897648Y-106949500D01*
X163873329Y-106953351D01*
X163695465Y-106981522D01*
X163500776Y-107044781D01*
X163318386Y-107137715D01*
X163152786Y-107258028D01*
X163008028Y-107402786D01*
X162887715Y-107568386D01*
X162794781Y-107750776D01*
X162731522Y-107945465D01*
X162699500Y-108147648D01*
X146500000Y-108147648D01*
X146500000Y-105952135D01*
X172689500Y-105952135D01*
X172689500Y-109047870D01*
X172689501Y-109047876D01*
X172695908Y-109107483D01*
X172746202Y-109242328D01*
X172746206Y-109242335D01*
X172832452Y-109357544D01*
X172832455Y-109357547D01*
X172947664Y-109443793D01*
X172947671Y-109443797D01*
X173082517Y-109494091D01*
X173082516Y-109494091D01*
X173089444Y-109494835D01*
X173142127Y-109500500D01*
X176237872Y-109500499D01*
X176297483Y-109494091D01*
X176432331Y-109443796D01*
X176547546Y-109357546D01*
X176633796Y-109242331D01*
X176684091Y-109107483D01*
X176690500Y-109047873D01*
X176690499Y-105952128D01*
X176684091Y-105892517D01*
X176633796Y-105757669D01*
X176633795Y-105757668D01*
X176633793Y-105757664D01*
X176547547Y-105642455D01*
X176547544Y-105642452D01*
X176432335Y-105556206D01*
X176432328Y-105556202D01*
X176297482Y-105505908D01*
X176297483Y-105505908D01*
X176237883Y-105499501D01*
X176237881Y-105499500D01*
X176237873Y-105499500D01*
X176237864Y-105499500D01*
X173142129Y-105499500D01*
X173142123Y-105499501D01*
X173082516Y-105505908D01*
X172947671Y-105556202D01*
X172947664Y-105556206D01*
X172832455Y-105642452D01*
X172832452Y-105642455D01*
X172746206Y-105757664D01*
X172746202Y-105757671D01*
X172695908Y-105892517D01*
X172689501Y-105952116D01*
X172689501Y-105952123D01*
X172689500Y-105952135D01*
X146500000Y-105952135D01*
X146500000Y-104124000D01*
X146519685Y-104056961D01*
X146572489Y-104011206D01*
X146624000Y-104000000D01*
X188875500Y-104000000D01*
X188942539Y-104019685D01*
G37*
%TD.AperFunction*%
%TD*%
M02*
