%TF.GenerationSoftware,KiCad,Pcbnew,9.0.4*%
%TF.CreationDate,2025-08-26T10:36:07+02:00*%
%TF.ProjectId,TDA7267_2x2_panel,54444137-3236-4375-9f32-78325f70616e,rev?*%
%TF.SameCoordinates,Original*%
%TF.FileFunction,Legend,Top*%
%TF.FilePolarity,Positive*%
%FSLAX46Y46*%
G04 Gerber Fmt 4.6, Leading zero omitted, Abs format (unit mm)*
G04 Created by KiCad (PCBNEW 9.0.4) date 2025-08-26 10:36:07*
%MOMM*%
%LPD*%
G01*
G04 APERTURE LIST*
%ADD10C,0.500000*%
%ADD11C,0.400000*%
%ADD12C,0.150000*%
%ADD13C,0.120000*%
G04 APERTURE END LIST*
D10*
X98000000Y-102000000D02*
X192500000Y-102000000D01*
X144500000Y-59000000D02*
X144500000Y-146000000D01*
D11*
X152453633Y-87234438D02*
X153596490Y-87234438D01*
X153025061Y-89234438D02*
X153025061Y-87234438D01*
X154263157Y-89234438D02*
X154263157Y-87234438D01*
X154263157Y-87234438D02*
X154739347Y-87234438D01*
X154739347Y-87234438D02*
X155025062Y-87329676D01*
X155025062Y-87329676D02*
X155215538Y-87520152D01*
X155215538Y-87520152D02*
X155310776Y-87710628D01*
X155310776Y-87710628D02*
X155406014Y-88091580D01*
X155406014Y-88091580D02*
X155406014Y-88377295D01*
X155406014Y-88377295D02*
X155310776Y-88758247D01*
X155310776Y-88758247D02*
X155215538Y-88948723D01*
X155215538Y-88948723D02*
X155025062Y-89139200D01*
X155025062Y-89139200D02*
X154739347Y-89234438D01*
X154739347Y-89234438D02*
X154263157Y-89234438D01*
X156167919Y-88663009D02*
X157120300Y-88663009D01*
X155977443Y-89234438D02*
X156644109Y-87234438D01*
X156644109Y-87234438D02*
X157310776Y-89234438D01*
X157786967Y-87234438D02*
X159120300Y-87234438D01*
X159120300Y-87234438D02*
X158263157Y-89234438D01*
X159786967Y-87424914D02*
X159882205Y-87329676D01*
X159882205Y-87329676D02*
X160072681Y-87234438D01*
X160072681Y-87234438D02*
X160548872Y-87234438D01*
X160548872Y-87234438D02*
X160739348Y-87329676D01*
X160739348Y-87329676D02*
X160834586Y-87424914D01*
X160834586Y-87424914D02*
X160929824Y-87615390D01*
X160929824Y-87615390D02*
X160929824Y-87805866D01*
X160929824Y-87805866D02*
X160834586Y-88091580D01*
X160834586Y-88091580D02*
X159691729Y-89234438D01*
X159691729Y-89234438D02*
X160929824Y-89234438D01*
X162644110Y-87234438D02*
X162263157Y-87234438D01*
X162263157Y-87234438D02*
X162072681Y-87329676D01*
X162072681Y-87329676D02*
X161977443Y-87424914D01*
X161977443Y-87424914D02*
X161786967Y-87710628D01*
X161786967Y-87710628D02*
X161691729Y-88091580D01*
X161691729Y-88091580D02*
X161691729Y-88853485D01*
X161691729Y-88853485D02*
X161786967Y-89043961D01*
X161786967Y-89043961D02*
X161882205Y-89139200D01*
X161882205Y-89139200D02*
X162072681Y-89234438D01*
X162072681Y-89234438D02*
X162453634Y-89234438D01*
X162453634Y-89234438D02*
X162644110Y-89139200D01*
X162644110Y-89139200D02*
X162739348Y-89043961D01*
X162739348Y-89043961D02*
X162834586Y-88853485D01*
X162834586Y-88853485D02*
X162834586Y-88377295D01*
X162834586Y-88377295D02*
X162739348Y-88186819D01*
X162739348Y-88186819D02*
X162644110Y-88091580D01*
X162644110Y-88091580D02*
X162453634Y-87996342D01*
X162453634Y-87996342D02*
X162072681Y-87996342D01*
X162072681Y-87996342D02*
X161882205Y-88091580D01*
X161882205Y-88091580D02*
X161786967Y-88186819D01*
X161786967Y-88186819D02*
X161691729Y-88377295D01*
X163501253Y-87234438D02*
X164834586Y-87234438D01*
X164834586Y-87234438D02*
X163977443Y-89234438D01*
X105453633Y-87234438D02*
X106596490Y-87234438D01*
X106025061Y-89234438D02*
X106025061Y-87234438D01*
X107263157Y-89234438D02*
X107263157Y-87234438D01*
X107263157Y-87234438D02*
X107739347Y-87234438D01*
X107739347Y-87234438D02*
X108025062Y-87329676D01*
X108025062Y-87329676D02*
X108215538Y-87520152D01*
X108215538Y-87520152D02*
X108310776Y-87710628D01*
X108310776Y-87710628D02*
X108406014Y-88091580D01*
X108406014Y-88091580D02*
X108406014Y-88377295D01*
X108406014Y-88377295D02*
X108310776Y-88758247D01*
X108310776Y-88758247D02*
X108215538Y-88948723D01*
X108215538Y-88948723D02*
X108025062Y-89139200D01*
X108025062Y-89139200D02*
X107739347Y-89234438D01*
X107739347Y-89234438D02*
X107263157Y-89234438D01*
X109167919Y-88663009D02*
X110120300Y-88663009D01*
X108977443Y-89234438D02*
X109644109Y-87234438D01*
X109644109Y-87234438D02*
X110310776Y-89234438D01*
X110786967Y-87234438D02*
X112120300Y-87234438D01*
X112120300Y-87234438D02*
X111263157Y-89234438D01*
X112786967Y-87424914D02*
X112882205Y-87329676D01*
X112882205Y-87329676D02*
X113072681Y-87234438D01*
X113072681Y-87234438D02*
X113548872Y-87234438D01*
X113548872Y-87234438D02*
X113739348Y-87329676D01*
X113739348Y-87329676D02*
X113834586Y-87424914D01*
X113834586Y-87424914D02*
X113929824Y-87615390D01*
X113929824Y-87615390D02*
X113929824Y-87805866D01*
X113929824Y-87805866D02*
X113834586Y-88091580D01*
X113834586Y-88091580D02*
X112691729Y-89234438D01*
X112691729Y-89234438D02*
X113929824Y-89234438D01*
X115644110Y-87234438D02*
X115263157Y-87234438D01*
X115263157Y-87234438D02*
X115072681Y-87329676D01*
X115072681Y-87329676D02*
X114977443Y-87424914D01*
X114977443Y-87424914D02*
X114786967Y-87710628D01*
X114786967Y-87710628D02*
X114691729Y-88091580D01*
X114691729Y-88091580D02*
X114691729Y-88853485D01*
X114691729Y-88853485D02*
X114786967Y-89043961D01*
X114786967Y-89043961D02*
X114882205Y-89139200D01*
X114882205Y-89139200D02*
X115072681Y-89234438D01*
X115072681Y-89234438D02*
X115453634Y-89234438D01*
X115453634Y-89234438D02*
X115644110Y-89139200D01*
X115644110Y-89139200D02*
X115739348Y-89043961D01*
X115739348Y-89043961D02*
X115834586Y-88853485D01*
X115834586Y-88853485D02*
X115834586Y-88377295D01*
X115834586Y-88377295D02*
X115739348Y-88186819D01*
X115739348Y-88186819D02*
X115644110Y-88091580D01*
X115644110Y-88091580D02*
X115453634Y-87996342D01*
X115453634Y-87996342D02*
X115072681Y-87996342D01*
X115072681Y-87996342D02*
X114882205Y-88091580D01*
X114882205Y-88091580D02*
X114786967Y-88186819D01*
X114786967Y-88186819D02*
X114691729Y-88377295D01*
X116501253Y-87234438D02*
X117834586Y-87234438D01*
X117834586Y-87234438D02*
X116977443Y-89234438D01*
X105453633Y-132234438D02*
X106596490Y-132234438D01*
X106025061Y-134234438D02*
X106025061Y-132234438D01*
X107263157Y-134234438D02*
X107263157Y-132234438D01*
X107263157Y-132234438D02*
X107739347Y-132234438D01*
X107739347Y-132234438D02*
X108025062Y-132329676D01*
X108025062Y-132329676D02*
X108215538Y-132520152D01*
X108215538Y-132520152D02*
X108310776Y-132710628D01*
X108310776Y-132710628D02*
X108406014Y-133091580D01*
X108406014Y-133091580D02*
X108406014Y-133377295D01*
X108406014Y-133377295D02*
X108310776Y-133758247D01*
X108310776Y-133758247D02*
X108215538Y-133948723D01*
X108215538Y-133948723D02*
X108025062Y-134139200D01*
X108025062Y-134139200D02*
X107739347Y-134234438D01*
X107739347Y-134234438D02*
X107263157Y-134234438D01*
X109167919Y-133663009D02*
X110120300Y-133663009D01*
X108977443Y-134234438D02*
X109644109Y-132234438D01*
X109644109Y-132234438D02*
X110310776Y-134234438D01*
X110786967Y-132234438D02*
X112120300Y-132234438D01*
X112120300Y-132234438D02*
X111263157Y-134234438D01*
X112786967Y-132424914D02*
X112882205Y-132329676D01*
X112882205Y-132329676D02*
X113072681Y-132234438D01*
X113072681Y-132234438D02*
X113548872Y-132234438D01*
X113548872Y-132234438D02*
X113739348Y-132329676D01*
X113739348Y-132329676D02*
X113834586Y-132424914D01*
X113834586Y-132424914D02*
X113929824Y-132615390D01*
X113929824Y-132615390D02*
X113929824Y-132805866D01*
X113929824Y-132805866D02*
X113834586Y-133091580D01*
X113834586Y-133091580D02*
X112691729Y-134234438D01*
X112691729Y-134234438D02*
X113929824Y-134234438D01*
X115644110Y-132234438D02*
X115263157Y-132234438D01*
X115263157Y-132234438D02*
X115072681Y-132329676D01*
X115072681Y-132329676D02*
X114977443Y-132424914D01*
X114977443Y-132424914D02*
X114786967Y-132710628D01*
X114786967Y-132710628D02*
X114691729Y-133091580D01*
X114691729Y-133091580D02*
X114691729Y-133853485D01*
X114691729Y-133853485D02*
X114786967Y-134043961D01*
X114786967Y-134043961D02*
X114882205Y-134139200D01*
X114882205Y-134139200D02*
X115072681Y-134234438D01*
X115072681Y-134234438D02*
X115453634Y-134234438D01*
X115453634Y-134234438D02*
X115644110Y-134139200D01*
X115644110Y-134139200D02*
X115739348Y-134043961D01*
X115739348Y-134043961D02*
X115834586Y-133853485D01*
X115834586Y-133853485D02*
X115834586Y-133377295D01*
X115834586Y-133377295D02*
X115739348Y-133186819D01*
X115739348Y-133186819D02*
X115644110Y-133091580D01*
X115644110Y-133091580D02*
X115453634Y-132996342D01*
X115453634Y-132996342D02*
X115072681Y-132996342D01*
X115072681Y-132996342D02*
X114882205Y-133091580D01*
X114882205Y-133091580D02*
X114786967Y-133186819D01*
X114786967Y-133186819D02*
X114691729Y-133377295D01*
X116501253Y-132234438D02*
X117834586Y-132234438D01*
X117834586Y-132234438D02*
X116977443Y-134234438D01*
X152453633Y-132234438D02*
X153596490Y-132234438D01*
X153025061Y-134234438D02*
X153025061Y-132234438D01*
X154263157Y-134234438D02*
X154263157Y-132234438D01*
X154263157Y-132234438D02*
X154739347Y-132234438D01*
X154739347Y-132234438D02*
X155025062Y-132329676D01*
X155025062Y-132329676D02*
X155215538Y-132520152D01*
X155215538Y-132520152D02*
X155310776Y-132710628D01*
X155310776Y-132710628D02*
X155406014Y-133091580D01*
X155406014Y-133091580D02*
X155406014Y-133377295D01*
X155406014Y-133377295D02*
X155310776Y-133758247D01*
X155310776Y-133758247D02*
X155215538Y-133948723D01*
X155215538Y-133948723D02*
X155025062Y-134139200D01*
X155025062Y-134139200D02*
X154739347Y-134234438D01*
X154739347Y-134234438D02*
X154263157Y-134234438D01*
X156167919Y-133663009D02*
X157120300Y-133663009D01*
X155977443Y-134234438D02*
X156644109Y-132234438D01*
X156644109Y-132234438D02*
X157310776Y-134234438D01*
X157786967Y-132234438D02*
X159120300Y-132234438D01*
X159120300Y-132234438D02*
X158263157Y-134234438D01*
X159786967Y-132424914D02*
X159882205Y-132329676D01*
X159882205Y-132329676D02*
X160072681Y-132234438D01*
X160072681Y-132234438D02*
X160548872Y-132234438D01*
X160548872Y-132234438D02*
X160739348Y-132329676D01*
X160739348Y-132329676D02*
X160834586Y-132424914D01*
X160834586Y-132424914D02*
X160929824Y-132615390D01*
X160929824Y-132615390D02*
X160929824Y-132805866D01*
X160929824Y-132805866D02*
X160834586Y-133091580D01*
X160834586Y-133091580D02*
X159691729Y-134234438D01*
X159691729Y-134234438D02*
X160929824Y-134234438D01*
X162644110Y-132234438D02*
X162263157Y-132234438D01*
X162263157Y-132234438D02*
X162072681Y-132329676D01*
X162072681Y-132329676D02*
X161977443Y-132424914D01*
X161977443Y-132424914D02*
X161786967Y-132710628D01*
X161786967Y-132710628D02*
X161691729Y-133091580D01*
X161691729Y-133091580D02*
X161691729Y-133853485D01*
X161691729Y-133853485D02*
X161786967Y-134043961D01*
X161786967Y-134043961D02*
X161882205Y-134139200D01*
X161882205Y-134139200D02*
X162072681Y-134234438D01*
X162072681Y-134234438D02*
X162453634Y-134234438D01*
X162453634Y-134234438D02*
X162644110Y-134139200D01*
X162644110Y-134139200D02*
X162739348Y-134043961D01*
X162739348Y-134043961D02*
X162834586Y-133853485D01*
X162834586Y-133853485D02*
X162834586Y-133377295D01*
X162834586Y-133377295D02*
X162739348Y-133186819D01*
X162739348Y-133186819D02*
X162644110Y-133091580D01*
X162644110Y-133091580D02*
X162453634Y-132996342D01*
X162453634Y-132996342D02*
X162072681Y-132996342D01*
X162072681Y-132996342D02*
X161882205Y-133091580D01*
X161882205Y-133091580D02*
X161786967Y-133186819D01*
X161786967Y-133186819D02*
X161691729Y-133377295D01*
X163501253Y-132234438D02*
X164834586Y-132234438D01*
X164834586Y-132234438D02*
X163977443Y-134234438D01*
D12*
X190704819Y-97095238D02*
X190228628Y-97428571D01*
X190704819Y-97666666D02*
X189704819Y-97666666D01*
X189704819Y-97666666D02*
X189704819Y-97285714D01*
X189704819Y-97285714D02*
X189752438Y-97190476D01*
X189752438Y-97190476D02*
X189800057Y-97142857D01*
X189800057Y-97142857D02*
X189895295Y-97095238D01*
X189895295Y-97095238D02*
X190038152Y-97095238D01*
X190038152Y-97095238D02*
X190133390Y-97142857D01*
X190133390Y-97142857D02*
X190181009Y-97190476D01*
X190181009Y-97190476D02*
X190228628Y-97285714D01*
X190228628Y-97285714D02*
X190228628Y-97666666D01*
X189704819Y-96809523D02*
X190704819Y-96476190D01*
X190704819Y-96476190D02*
X189704819Y-96142857D01*
X190704819Y-95285714D02*
X190704819Y-95857142D01*
X190704819Y-95571428D02*
X189704819Y-95571428D01*
X189704819Y-95571428D02*
X189847676Y-95666666D01*
X189847676Y-95666666D02*
X189942914Y-95761904D01*
X189942914Y-95761904D02*
X189990533Y-95857142D01*
X143704819Y-97095238D02*
X143228628Y-97428571D01*
X143704819Y-97666666D02*
X142704819Y-97666666D01*
X142704819Y-97666666D02*
X142704819Y-97285714D01*
X142704819Y-97285714D02*
X142752438Y-97190476D01*
X142752438Y-97190476D02*
X142800057Y-97142857D01*
X142800057Y-97142857D02*
X142895295Y-97095238D01*
X142895295Y-97095238D02*
X143038152Y-97095238D01*
X143038152Y-97095238D02*
X143133390Y-97142857D01*
X143133390Y-97142857D02*
X143181009Y-97190476D01*
X143181009Y-97190476D02*
X143228628Y-97285714D01*
X143228628Y-97285714D02*
X143228628Y-97666666D01*
X142704819Y-96809523D02*
X143704819Y-96476190D01*
X143704819Y-96476190D02*
X142704819Y-96142857D01*
X143704819Y-95285714D02*
X143704819Y-95857142D01*
X143704819Y-95571428D02*
X142704819Y-95571428D01*
X142704819Y-95571428D02*
X142847676Y-95666666D01*
X142847676Y-95666666D02*
X142942914Y-95761904D01*
X142942914Y-95761904D02*
X142990533Y-95857142D01*
X191204819Y-142095238D02*
X190728628Y-142428571D01*
X191204819Y-142666666D02*
X190204819Y-142666666D01*
X190204819Y-142666666D02*
X190204819Y-142285714D01*
X190204819Y-142285714D02*
X190252438Y-142190476D01*
X190252438Y-142190476D02*
X190300057Y-142142857D01*
X190300057Y-142142857D02*
X190395295Y-142095238D01*
X190395295Y-142095238D02*
X190538152Y-142095238D01*
X190538152Y-142095238D02*
X190633390Y-142142857D01*
X190633390Y-142142857D02*
X190681009Y-142190476D01*
X190681009Y-142190476D02*
X190728628Y-142285714D01*
X190728628Y-142285714D02*
X190728628Y-142666666D01*
X190204819Y-141809523D02*
X191204819Y-141476190D01*
X191204819Y-141476190D02*
X190204819Y-141142857D01*
X191204819Y-140285714D02*
X191204819Y-140857142D01*
X191204819Y-140571428D02*
X190204819Y-140571428D01*
X190204819Y-140571428D02*
X190347676Y-140666666D01*
X190347676Y-140666666D02*
X190442914Y-140761904D01*
X190442914Y-140761904D02*
X190490533Y-140857142D01*
X136930682Y-79109580D02*
X136883063Y-79157200D01*
X136883063Y-79157200D02*
X136740206Y-79204819D01*
X136740206Y-79204819D02*
X136644968Y-79204819D01*
X136644968Y-79204819D02*
X136502111Y-79157200D01*
X136502111Y-79157200D02*
X136406873Y-79061961D01*
X136406873Y-79061961D02*
X136359254Y-78966723D01*
X136359254Y-78966723D02*
X136311635Y-78776247D01*
X136311635Y-78776247D02*
X136311635Y-78633390D01*
X136311635Y-78633390D02*
X136359254Y-78442914D01*
X136359254Y-78442914D02*
X136406873Y-78347676D01*
X136406873Y-78347676D02*
X136502111Y-78252438D01*
X136502111Y-78252438D02*
X136644968Y-78204819D01*
X136644968Y-78204819D02*
X136740206Y-78204819D01*
X136740206Y-78204819D02*
X136883063Y-78252438D01*
X136883063Y-78252438D02*
X136930682Y-78300057D01*
X137311635Y-78300057D02*
X137359254Y-78252438D01*
X137359254Y-78252438D02*
X137454492Y-78204819D01*
X137454492Y-78204819D02*
X137692587Y-78204819D01*
X137692587Y-78204819D02*
X137787825Y-78252438D01*
X137787825Y-78252438D02*
X137835444Y-78300057D01*
X137835444Y-78300057D02*
X137883063Y-78395295D01*
X137883063Y-78395295D02*
X137883063Y-78490533D01*
X137883063Y-78490533D02*
X137835444Y-78633390D01*
X137835444Y-78633390D02*
X137264016Y-79204819D01*
X137264016Y-79204819D02*
X137883063Y-79204819D01*
X109859580Y-79546666D02*
X109907200Y-79594285D01*
X109907200Y-79594285D02*
X109954819Y-79737142D01*
X109954819Y-79737142D02*
X109954819Y-79832380D01*
X109954819Y-79832380D02*
X109907200Y-79975237D01*
X109907200Y-79975237D02*
X109811961Y-80070475D01*
X109811961Y-80070475D02*
X109716723Y-80118094D01*
X109716723Y-80118094D02*
X109526247Y-80165713D01*
X109526247Y-80165713D02*
X109383390Y-80165713D01*
X109383390Y-80165713D02*
X109192914Y-80118094D01*
X109192914Y-80118094D02*
X109097676Y-80070475D01*
X109097676Y-80070475D02*
X109002438Y-79975237D01*
X109002438Y-79975237D02*
X108954819Y-79832380D01*
X108954819Y-79832380D02*
X108954819Y-79737142D01*
X108954819Y-79737142D02*
X109002438Y-79594285D01*
X109002438Y-79594285D02*
X109050057Y-79546666D01*
X108954819Y-79213332D02*
X108954819Y-78594285D01*
X108954819Y-78594285D02*
X109335771Y-78927618D01*
X109335771Y-78927618D02*
X109335771Y-78784761D01*
X109335771Y-78784761D02*
X109383390Y-78689523D01*
X109383390Y-78689523D02*
X109431009Y-78641904D01*
X109431009Y-78641904D02*
X109526247Y-78594285D01*
X109526247Y-78594285D02*
X109764342Y-78594285D01*
X109764342Y-78594285D02*
X109859580Y-78641904D01*
X109859580Y-78641904D02*
X109907200Y-78689523D01*
X109907200Y-78689523D02*
X109954819Y-78784761D01*
X109954819Y-78784761D02*
X109954819Y-79070475D01*
X109954819Y-79070475D02*
X109907200Y-79165713D01*
X109907200Y-79165713D02*
X109859580Y-79213332D01*
X115084819Y-80856666D02*
X114608628Y-81189999D01*
X115084819Y-81428094D02*
X114084819Y-81428094D01*
X114084819Y-81428094D02*
X114084819Y-81047142D01*
X114084819Y-81047142D02*
X114132438Y-80951904D01*
X114132438Y-80951904D02*
X114180057Y-80904285D01*
X114180057Y-80904285D02*
X114275295Y-80856666D01*
X114275295Y-80856666D02*
X114418152Y-80856666D01*
X114418152Y-80856666D02*
X114513390Y-80904285D01*
X114513390Y-80904285D02*
X114561009Y-80951904D01*
X114561009Y-80951904D02*
X114608628Y-81047142D01*
X114608628Y-81047142D02*
X114608628Y-81428094D01*
X115084819Y-79904285D02*
X115084819Y-80475713D01*
X115084819Y-80189999D02*
X114084819Y-80189999D01*
X114084819Y-80189999D02*
X114227676Y-80285237D01*
X114227676Y-80285237D02*
X114322914Y-80380475D01*
X114322914Y-80380475D02*
X114370533Y-80475713D01*
X150491905Y-64994819D02*
X150491905Y-63994819D01*
X150491905Y-63994819D02*
X150730000Y-63994819D01*
X150730000Y-63994819D02*
X150872857Y-64042438D01*
X150872857Y-64042438D02*
X150968095Y-64137676D01*
X150968095Y-64137676D02*
X151015714Y-64232914D01*
X151015714Y-64232914D02*
X151063333Y-64423390D01*
X151063333Y-64423390D02*
X151063333Y-64566247D01*
X151063333Y-64566247D02*
X151015714Y-64756723D01*
X151015714Y-64756723D02*
X150968095Y-64851961D01*
X150968095Y-64851961D02*
X150872857Y-64947200D01*
X150872857Y-64947200D02*
X150730000Y-64994819D01*
X150730000Y-64994819D02*
X150491905Y-64994819D01*
X152015714Y-64994819D02*
X151444286Y-64994819D01*
X151730000Y-64994819D02*
X151730000Y-63994819D01*
X151730000Y-63994819D02*
X151634762Y-64137676D01*
X151634762Y-64137676D02*
X151539524Y-64232914D01*
X151539524Y-64232914D02*
X151444286Y-64280533D01*
X156333333Y-63609580D02*
X156285714Y-63657200D01*
X156285714Y-63657200D02*
X156142857Y-63704819D01*
X156142857Y-63704819D02*
X156047619Y-63704819D01*
X156047619Y-63704819D02*
X155904762Y-63657200D01*
X155904762Y-63657200D02*
X155809524Y-63561961D01*
X155809524Y-63561961D02*
X155761905Y-63466723D01*
X155761905Y-63466723D02*
X155714286Y-63276247D01*
X155714286Y-63276247D02*
X155714286Y-63133390D01*
X155714286Y-63133390D02*
X155761905Y-62942914D01*
X155761905Y-62942914D02*
X155809524Y-62847676D01*
X155809524Y-62847676D02*
X155904762Y-62752438D01*
X155904762Y-62752438D02*
X156047619Y-62704819D01*
X156047619Y-62704819D02*
X156142857Y-62704819D01*
X156142857Y-62704819D02*
X156285714Y-62752438D01*
X156285714Y-62752438D02*
X156333333Y-62800057D01*
X157238095Y-62704819D02*
X156761905Y-62704819D01*
X156761905Y-62704819D02*
X156714286Y-63181009D01*
X156714286Y-63181009D02*
X156761905Y-63133390D01*
X156761905Y-63133390D02*
X156857143Y-63085771D01*
X156857143Y-63085771D02*
X157095238Y-63085771D01*
X157095238Y-63085771D02*
X157190476Y-63133390D01*
X157190476Y-63133390D02*
X157238095Y-63181009D01*
X157238095Y-63181009D02*
X157285714Y-63276247D01*
X157285714Y-63276247D02*
X157285714Y-63514342D01*
X157285714Y-63514342D02*
X157238095Y-63609580D01*
X157238095Y-63609580D02*
X157190476Y-63657200D01*
X157190476Y-63657200D02*
X157095238Y-63704819D01*
X157095238Y-63704819D02*
X156857143Y-63704819D01*
X156857143Y-63704819D02*
X156761905Y-63657200D01*
X156761905Y-63657200D02*
X156714286Y-63609580D01*
X173273809Y-66954819D02*
X173464285Y-66954819D01*
X173464285Y-66954819D02*
X173559523Y-67002438D01*
X173559523Y-67002438D02*
X173654761Y-67097676D01*
X173654761Y-67097676D02*
X173702380Y-67288152D01*
X173702380Y-67288152D02*
X173702380Y-67621485D01*
X173702380Y-67621485D02*
X173654761Y-67811961D01*
X173654761Y-67811961D02*
X173559523Y-67907200D01*
X173559523Y-67907200D02*
X173464285Y-67954819D01*
X173464285Y-67954819D02*
X173273809Y-67954819D01*
X173273809Y-67954819D02*
X173178571Y-67907200D01*
X173178571Y-67907200D02*
X173083333Y-67811961D01*
X173083333Y-67811961D02*
X173035714Y-67621485D01*
X173035714Y-67621485D02*
X173035714Y-67288152D01*
X173035714Y-67288152D02*
X173083333Y-67097676D01*
X173083333Y-67097676D02*
X173178571Y-67002438D01*
X173178571Y-67002438D02*
X173273809Y-66954819D01*
X174130952Y-66954819D02*
X174130952Y-67764342D01*
X174130952Y-67764342D02*
X174178571Y-67859580D01*
X174178571Y-67859580D02*
X174226190Y-67907200D01*
X174226190Y-67907200D02*
X174321428Y-67954819D01*
X174321428Y-67954819D02*
X174511904Y-67954819D01*
X174511904Y-67954819D02*
X174607142Y-67907200D01*
X174607142Y-67907200D02*
X174654761Y-67859580D01*
X174654761Y-67859580D02*
X174702380Y-67764342D01*
X174702380Y-67764342D02*
X174702380Y-66954819D01*
X175035714Y-66954819D02*
X175607142Y-66954819D01*
X175321428Y-67954819D02*
X175321428Y-66954819D01*
X176464285Y-67954819D02*
X175892857Y-67954819D01*
X176178571Y-67954819D02*
X176178571Y-66954819D01*
X176178571Y-66954819D02*
X176083333Y-67097676D01*
X176083333Y-67097676D02*
X175988095Y-67192914D01*
X175988095Y-67192914D02*
X175892857Y-67240533D01*
X156859580Y-79546666D02*
X156907200Y-79594285D01*
X156907200Y-79594285D02*
X156954819Y-79737142D01*
X156954819Y-79737142D02*
X156954819Y-79832380D01*
X156954819Y-79832380D02*
X156907200Y-79975237D01*
X156907200Y-79975237D02*
X156811961Y-80070475D01*
X156811961Y-80070475D02*
X156716723Y-80118094D01*
X156716723Y-80118094D02*
X156526247Y-80165713D01*
X156526247Y-80165713D02*
X156383390Y-80165713D01*
X156383390Y-80165713D02*
X156192914Y-80118094D01*
X156192914Y-80118094D02*
X156097676Y-80070475D01*
X156097676Y-80070475D02*
X156002438Y-79975237D01*
X156002438Y-79975237D02*
X155954819Y-79832380D01*
X155954819Y-79832380D02*
X155954819Y-79737142D01*
X155954819Y-79737142D02*
X156002438Y-79594285D01*
X156002438Y-79594285D02*
X156050057Y-79546666D01*
X155954819Y-79213332D02*
X155954819Y-78594285D01*
X155954819Y-78594285D02*
X156335771Y-78927618D01*
X156335771Y-78927618D02*
X156335771Y-78784761D01*
X156335771Y-78784761D02*
X156383390Y-78689523D01*
X156383390Y-78689523D02*
X156431009Y-78641904D01*
X156431009Y-78641904D02*
X156526247Y-78594285D01*
X156526247Y-78594285D02*
X156764342Y-78594285D01*
X156764342Y-78594285D02*
X156859580Y-78641904D01*
X156859580Y-78641904D02*
X156907200Y-78689523D01*
X156907200Y-78689523D02*
X156954819Y-78784761D01*
X156954819Y-78784761D02*
X156954819Y-79070475D01*
X156954819Y-79070475D02*
X156907200Y-79165713D01*
X156907200Y-79165713D02*
X156859580Y-79213332D01*
X136965656Y-72359580D02*
X136918037Y-72407200D01*
X136918037Y-72407200D02*
X136775180Y-72454819D01*
X136775180Y-72454819D02*
X136679942Y-72454819D01*
X136679942Y-72454819D02*
X136537085Y-72407200D01*
X136537085Y-72407200D02*
X136441847Y-72311961D01*
X136441847Y-72311961D02*
X136394228Y-72216723D01*
X136394228Y-72216723D02*
X136346609Y-72026247D01*
X136346609Y-72026247D02*
X136346609Y-71883390D01*
X136346609Y-71883390D02*
X136394228Y-71692914D01*
X136394228Y-71692914D02*
X136441847Y-71597676D01*
X136441847Y-71597676D02*
X136537085Y-71502438D01*
X136537085Y-71502438D02*
X136679942Y-71454819D01*
X136679942Y-71454819D02*
X136775180Y-71454819D01*
X136775180Y-71454819D02*
X136918037Y-71502438D01*
X136918037Y-71502438D02*
X136965656Y-71550057D01*
X137822799Y-71454819D02*
X137632323Y-71454819D01*
X137632323Y-71454819D02*
X137537085Y-71502438D01*
X137537085Y-71502438D02*
X137489466Y-71550057D01*
X137489466Y-71550057D02*
X137394228Y-71692914D01*
X137394228Y-71692914D02*
X137346609Y-71883390D01*
X137346609Y-71883390D02*
X137346609Y-72264342D01*
X137346609Y-72264342D02*
X137394228Y-72359580D01*
X137394228Y-72359580D02*
X137441847Y-72407200D01*
X137441847Y-72407200D02*
X137537085Y-72454819D01*
X137537085Y-72454819D02*
X137727561Y-72454819D01*
X137727561Y-72454819D02*
X137822799Y-72407200D01*
X137822799Y-72407200D02*
X137870418Y-72359580D01*
X137870418Y-72359580D02*
X137918037Y-72264342D01*
X137918037Y-72264342D02*
X137918037Y-72026247D01*
X137918037Y-72026247D02*
X137870418Y-71931009D01*
X137870418Y-71931009D02*
X137822799Y-71883390D01*
X137822799Y-71883390D02*
X137727561Y-71835771D01*
X137727561Y-71835771D02*
X137537085Y-71835771D01*
X137537085Y-71835771D02*
X137441847Y-71883390D01*
X137441847Y-71883390D02*
X137394228Y-71931009D01*
X137394228Y-71931009D02*
X137346609Y-72026247D01*
X161750000Y-91874819D02*
X161750000Y-90874819D01*
X162226190Y-91874819D02*
X162226190Y-90874819D01*
X162226190Y-90874819D02*
X162797618Y-91874819D01*
X162797618Y-91874819D02*
X162797618Y-90874819D01*
X163797618Y-91874819D02*
X163226190Y-91874819D01*
X163511904Y-91874819D02*
X163511904Y-90874819D01*
X163511904Y-90874819D02*
X163416666Y-91017676D01*
X163416666Y-91017676D02*
X163321428Y-91112914D01*
X163321428Y-91112914D02*
X163226190Y-91160533D01*
X103933333Y-76989580D02*
X103885714Y-77037200D01*
X103885714Y-77037200D02*
X103742857Y-77084819D01*
X103742857Y-77084819D02*
X103647619Y-77084819D01*
X103647619Y-77084819D02*
X103504762Y-77037200D01*
X103504762Y-77037200D02*
X103409524Y-76941961D01*
X103409524Y-76941961D02*
X103361905Y-76846723D01*
X103361905Y-76846723D02*
X103314286Y-76656247D01*
X103314286Y-76656247D02*
X103314286Y-76513390D01*
X103314286Y-76513390D02*
X103361905Y-76322914D01*
X103361905Y-76322914D02*
X103409524Y-76227676D01*
X103409524Y-76227676D02*
X103504762Y-76132438D01*
X103504762Y-76132438D02*
X103647619Y-76084819D01*
X103647619Y-76084819D02*
X103742857Y-76084819D01*
X103742857Y-76084819D02*
X103885714Y-76132438D01*
X103885714Y-76132438D02*
X103933333Y-76180057D01*
X104790476Y-76418152D02*
X104790476Y-77084819D01*
X104552381Y-76037200D02*
X104314286Y-76751485D01*
X104314286Y-76751485D02*
X104933333Y-76751485D01*
X162084819Y-80856666D02*
X161608628Y-81189999D01*
X162084819Y-81428094D02*
X161084819Y-81428094D01*
X161084819Y-81428094D02*
X161084819Y-81047142D01*
X161084819Y-81047142D02*
X161132438Y-80951904D01*
X161132438Y-80951904D02*
X161180057Y-80904285D01*
X161180057Y-80904285D02*
X161275295Y-80856666D01*
X161275295Y-80856666D02*
X161418152Y-80856666D01*
X161418152Y-80856666D02*
X161513390Y-80904285D01*
X161513390Y-80904285D02*
X161561009Y-80951904D01*
X161561009Y-80951904D02*
X161608628Y-81047142D01*
X161608628Y-81047142D02*
X161608628Y-81428094D01*
X162084819Y-79904285D02*
X162084819Y-80475713D01*
X162084819Y-80189999D02*
X161084819Y-80189999D01*
X161084819Y-80189999D02*
X161227676Y-80285237D01*
X161227676Y-80285237D02*
X161322914Y-80380475D01*
X161322914Y-80380475D02*
X161370533Y-80475713D01*
X124333333Y-89859580D02*
X124285714Y-89907200D01*
X124285714Y-89907200D02*
X124142857Y-89954819D01*
X124142857Y-89954819D02*
X124047619Y-89954819D01*
X124047619Y-89954819D02*
X123904762Y-89907200D01*
X123904762Y-89907200D02*
X123809524Y-89811961D01*
X123809524Y-89811961D02*
X123761905Y-89716723D01*
X123761905Y-89716723D02*
X123714286Y-89526247D01*
X123714286Y-89526247D02*
X123714286Y-89383390D01*
X123714286Y-89383390D02*
X123761905Y-89192914D01*
X123761905Y-89192914D02*
X123809524Y-89097676D01*
X123809524Y-89097676D02*
X123904762Y-89002438D01*
X123904762Y-89002438D02*
X124047619Y-88954819D01*
X124047619Y-88954819D02*
X124142857Y-88954819D01*
X124142857Y-88954819D02*
X124285714Y-89002438D01*
X124285714Y-89002438D02*
X124333333Y-89050057D01*
X125285714Y-89954819D02*
X124714286Y-89954819D01*
X125000000Y-89954819D02*
X125000000Y-88954819D01*
X125000000Y-88954819D02*
X124904762Y-89097676D01*
X124904762Y-89097676D02*
X124809524Y-89192914D01*
X124809524Y-89192914D02*
X124714286Y-89240533D01*
X124738095Y-70004819D02*
X124738095Y-70814342D01*
X124738095Y-70814342D02*
X124785714Y-70909580D01*
X124785714Y-70909580D02*
X124833333Y-70957200D01*
X124833333Y-70957200D02*
X124928571Y-71004819D01*
X124928571Y-71004819D02*
X125119047Y-71004819D01*
X125119047Y-71004819D02*
X125214285Y-70957200D01*
X125214285Y-70957200D02*
X125261904Y-70909580D01*
X125261904Y-70909580D02*
X125309523Y-70814342D01*
X125309523Y-70814342D02*
X125309523Y-70004819D01*
X126309523Y-71004819D02*
X125738095Y-71004819D01*
X126023809Y-71004819D02*
X126023809Y-70004819D01*
X126023809Y-70004819D02*
X125928571Y-70147676D01*
X125928571Y-70147676D02*
X125833333Y-70242914D01*
X125833333Y-70242914D02*
X125738095Y-70290533D01*
X103491905Y-64994819D02*
X103491905Y-63994819D01*
X103491905Y-63994819D02*
X103730000Y-63994819D01*
X103730000Y-63994819D02*
X103872857Y-64042438D01*
X103872857Y-64042438D02*
X103968095Y-64137676D01*
X103968095Y-64137676D02*
X104015714Y-64232914D01*
X104015714Y-64232914D02*
X104063333Y-64423390D01*
X104063333Y-64423390D02*
X104063333Y-64566247D01*
X104063333Y-64566247D02*
X104015714Y-64756723D01*
X104015714Y-64756723D02*
X103968095Y-64851961D01*
X103968095Y-64851961D02*
X103872857Y-64947200D01*
X103872857Y-64947200D02*
X103730000Y-64994819D01*
X103730000Y-64994819D02*
X103491905Y-64994819D01*
X105015714Y-64994819D02*
X104444286Y-64994819D01*
X104730000Y-64994819D02*
X104730000Y-63994819D01*
X104730000Y-63994819D02*
X104634762Y-64137676D01*
X104634762Y-64137676D02*
X104539524Y-64232914D01*
X104539524Y-64232914D02*
X104444286Y-64280533D01*
X114750000Y-91874819D02*
X114750000Y-90874819D01*
X115226190Y-91874819D02*
X115226190Y-90874819D01*
X115226190Y-90874819D02*
X115797618Y-91874819D01*
X115797618Y-91874819D02*
X115797618Y-90874819D01*
X116797618Y-91874819D02*
X116226190Y-91874819D01*
X116511904Y-91874819D02*
X116511904Y-90874819D01*
X116511904Y-90874819D02*
X116416666Y-91017676D01*
X116416666Y-91017676D02*
X116321428Y-91112914D01*
X116321428Y-91112914D02*
X116226190Y-91160533D01*
X109333333Y-63609580D02*
X109285714Y-63657200D01*
X109285714Y-63657200D02*
X109142857Y-63704819D01*
X109142857Y-63704819D02*
X109047619Y-63704819D01*
X109047619Y-63704819D02*
X108904762Y-63657200D01*
X108904762Y-63657200D02*
X108809524Y-63561961D01*
X108809524Y-63561961D02*
X108761905Y-63466723D01*
X108761905Y-63466723D02*
X108714286Y-63276247D01*
X108714286Y-63276247D02*
X108714286Y-63133390D01*
X108714286Y-63133390D02*
X108761905Y-62942914D01*
X108761905Y-62942914D02*
X108809524Y-62847676D01*
X108809524Y-62847676D02*
X108904762Y-62752438D01*
X108904762Y-62752438D02*
X109047619Y-62704819D01*
X109047619Y-62704819D02*
X109142857Y-62704819D01*
X109142857Y-62704819D02*
X109285714Y-62752438D01*
X109285714Y-62752438D02*
X109333333Y-62800057D01*
X110238095Y-62704819D02*
X109761905Y-62704819D01*
X109761905Y-62704819D02*
X109714286Y-63181009D01*
X109714286Y-63181009D02*
X109761905Y-63133390D01*
X109761905Y-63133390D02*
X109857143Y-63085771D01*
X109857143Y-63085771D02*
X110095238Y-63085771D01*
X110095238Y-63085771D02*
X110190476Y-63133390D01*
X110190476Y-63133390D02*
X110238095Y-63181009D01*
X110238095Y-63181009D02*
X110285714Y-63276247D01*
X110285714Y-63276247D02*
X110285714Y-63514342D01*
X110285714Y-63514342D02*
X110238095Y-63609580D01*
X110238095Y-63609580D02*
X110190476Y-63657200D01*
X110190476Y-63657200D02*
X110095238Y-63704819D01*
X110095238Y-63704819D02*
X109857143Y-63704819D01*
X109857143Y-63704819D02*
X109761905Y-63657200D01*
X109761905Y-63657200D02*
X109714286Y-63609580D01*
X126273809Y-66954819D02*
X126464285Y-66954819D01*
X126464285Y-66954819D02*
X126559523Y-67002438D01*
X126559523Y-67002438D02*
X126654761Y-67097676D01*
X126654761Y-67097676D02*
X126702380Y-67288152D01*
X126702380Y-67288152D02*
X126702380Y-67621485D01*
X126702380Y-67621485D02*
X126654761Y-67811961D01*
X126654761Y-67811961D02*
X126559523Y-67907200D01*
X126559523Y-67907200D02*
X126464285Y-67954819D01*
X126464285Y-67954819D02*
X126273809Y-67954819D01*
X126273809Y-67954819D02*
X126178571Y-67907200D01*
X126178571Y-67907200D02*
X126083333Y-67811961D01*
X126083333Y-67811961D02*
X126035714Y-67621485D01*
X126035714Y-67621485D02*
X126035714Y-67288152D01*
X126035714Y-67288152D02*
X126083333Y-67097676D01*
X126083333Y-67097676D02*
X126178571Y-67002438D01*
X126178571Y-67002438D02*
X126273809Y-66954819D01*
X127130952Y-66954819D02*
X127130952Y-67764342D01*
X127130952Y-67764342D02*
X127178571Y-67859580D01*
X127178571Y-67859580D02*
X127226190Y-67907200D01*
X127226190Y-67907200D02*
X127321428Y-67954819D01*
X127321428Y-67954819D02*
X127511904Y-67954819D01*
X127511904Y-67954819D02*
X127607142Y-67907200D01*
X127607142Y-67907200D02*
X127654761Y-67859580D01*
X127654761Y-67859580D02*
X127702380Y-67764342D01*
X127702380Y-67764342D02*
X127702380Y-66954819D01*
X128035714Y-66954819D02*
X128607142Y-66954819D01*
X128321428Y-67954819D02*
X128321428Y-66954819D01*
X129464285Y-67954819D02*
X128892857Y-67954819D01*
X129178571Y-67954819D02*
X129178571Y-66954819D01*
X129178571Y-66954819D02*
X129083333Y-67097676D01*
X129083333Y-67097676D02*
X128988095Y-67192914D01*
X128988095Y-67192914D02*
X128892857Y-67240533D01*
X103491905Y-109994819D02*
X103491905Y-108994819D01*
X103491905Y-108994819D02*
X103730000Y-108994819D01*
X103730000Y-108994819D02*
X103872857Y-109042438D01*
X103872857Y-109042438D02*
X103968095Y-109137676D01*
X103968095Y-109137676D02*
X104015714Y-109232914D01*
X104015714Y-109232914D02*
X104063333Y-109423390D01*
X104063333Y-109423390D02*
X104063333Y-109566247D01*
X104063333Y-109566247D02*
X104015714Y-109756723D01*
X104015714Y-109756723D02*
X103968095Y-109851961D01*
X103968095Y-109851961D02*
X103872857Y-109947200D01*
X103872857Y-109947200D02*
X103730000Y-109994819D01*
X103730000Y-109994819D02*
X103491905Y-109994819D01*
X105015714Y-109994819D02*
X104444286Y-109994819D01*
X104730000Y-109994819D02*
X104730000Y-108994819D01*
X104730000Y-108994819D02*
X104634762Y-109137676D01*
X104634762Y-109137676D02*
X104539524Y-109232914D01*
X104539524Y-109232914D02*
X104444286Y-109280533D01*
X136930682Y-124109580D02*
X136883063Y-124157200D01*
X136883063Y-124157200D02*
X136740206Y-124204819D01*
X136740206Y-124204819D02*
X136644968Y-124204819D01*
X136644968Y-124204819D02*
X136502111Y-124157200D01*
X136502111Y-124157200D02*
X136406873Y-124061961D01*
X136406873Y-124061961D02*
X136359254Y-123966723D01*
X136359254Y-123966723D02*
X136311635Y-123776247D01*
X136311635Y-123776247D02*
X136311635Y-123633390D01*
X136311635Y-123633390D02*
X136359254Y-123442914D01*
X136359254Y-123442914D02*
X136406873Y-123347676D01*
X136406873Y-123347676D02*
X136502111Y-123252438D01*
X136502111Y-123252438D02*
X136644968Y-123204819D01*
X136644968Y-123204819D02*
X136740206Y-123204819D01*
X136740206Y-123204819D02*
X136883063Y-123252438D01*
X136883063Y-123252438D02*
X136930682Y-123300057D01*
X137311635Y-123300057D02*
X137359254Y-123252438D01*
X137359254Y-123252438D02*
X137454492Y-123204819D01*
X137454492Y-123204819D02*
X137692587Y-123204819D01*
X137692587Y-123204819D02*
X137787825Y-123252438D01*
X137787825Y-123252438D02*
X137835444Y-123300057D01*
X137835444Y-123300057D02*
X137883063Y-123395295D01*
X137883063Y-123395295D02*
X137883063Y-123490533D01*
X137883063Y-123490533D02*
X137835444Y-123633390D01*
X137835444Y-123633390D02*
X137264016Y-124204819D01*
X137264016Y-124204819D02*
X137883063Y-124204819D01*
X114750000Y-136874819D02*
X114750000Y-135874819D01*
X115226190Y-136874819D02*
X115226190Y-135874819D01*
X115226190Y-135874819D02*
X115797618Y-136874819D01*
X115797618Y-136874819D02*
X115797618Y-135874819D01*
X116797618Y-136874819D02*
X116226190Y-136874819D01*
X116511904Y-136874819D02*
X116511904Y-135874819D01*
X116511904Y-135874819D02*
X116416666Y-136017676D01*
X116416666Y-136017676D02*
X116321428Y-136112914D01*
X116321428Y-136112914D02*
X116226190Y-136160533D01*
X115084819Y-125856666D02*
X114608628Y-126189999D01*
X115084819Y-126428094D02*
X114084819Y-126428094D01*
X114084819Y-126428094D02*
X114084819Y-126047142D01*
X114084819Y-126047142D02*
X114132438Y-125951904D01*
X114132438Y-125951904D02*
X114180057Y-125904285D01*
X114180057Y-125904285D02*
X114275295Y-125856666D01*
X114275295Y-125856666D02*
X114418152Y-125856666D01*
X114418152Y-125856666D02*
X114513390Y-125904285D01*
X114513390Y-125904285D02*
X114561009Y-125951904D01*
X114561009Y-125951904D02*
X114608628Y-126047142D01*
X114608628Y-126047142D02*
X114608628Y-126428094D01*
X115084819Y-124904285D02*
X115084819Y-125475713D01*
X115084819Y-125189999D02*
X114084819Y-125189999D01*
X114084819Y-125189999D02*
X114227676Y-125285237D01*
X114227676Y-125285237D02*
X114322914Y-125380475D01*
X114322914Y-125380475D02*
X114370533Y-125475713D01*
X124333333Y-134859580D02*
X124285714Y-134907200D01*
X124285714Y-134907200D02*
X124142857Y-134954819D01*
X124142857Y-134954819D02*
X124047619Y-134954819D01*
X124047619Y-134954819D02*
X123904762Y-134907200D01*
X123904762Y-134907200D02*
X123809524Y-134811961D01*
X123809524Y-134811961D02*
X123761905Y-134716723D01*
X123761905Y-134716723D02*
X123714286Y-134526247D01*
X123714286Y-134526247D02*
X123714286Y-134383390D01*
X123714286Y-134383390D02*
X123761905Y-134192914D01*
X123761905Y-134192914D02*
X123809524Y-134097676D01*
X123809524Y-134097676D02*
X123904762Y-134002438D01*
X123904762Y-134002438D02*
X124047619Y-133954819D01*
X124047619Y-133954819D02*
X124142857Y-133954819D01*
X124142857Y-133954819D02*
X124285714Y-134002438D01*
X124285714Y-134002438D02*
X124333333Y-134050057D01*
X125285714Y-134954819D02*
X124714286Y-134954819D01*
X125000000Y-134954819D02*
X125000000Y-133954819D01*
X125000000Y-133954819D02*
X124904762Y-134097676D01*
X124904762Y-134097676D02*
X124809524Y-134192914D01*
X124809524Y-134192914D02*
X124714286Y-134240533D01*
X126273809Y-111954819D02*
X126464285Y-111954819D01*
X126464285Y-111954819D02*
X126559523Y-112002438D01*
X126559523Y-112002438D02*
X126654761Y-112097676D01*
X126654761Y-112097676D02*
X126702380Y-112288152D01*
X126702380Y-112288152D02*
X126702380Y-112621485D01*
X126702380Y-112621485D02*
X126654761Y-112811961D01*
X126654761Y-112811961D02*
X126559523Y-112907200D01*
X126559523Y-112907200D02*
X126464285Y-112954819D01*
X126464285Y-112954819D02*
X126273809Y-112954819D01*
X126273809Y-112954819D02*
X126178571Y-112907200D01*
X126178571Y-112907200D02*
X126083333Y-112811961D01*
X126083333Y-112811961D02*
X126035714Y-112621485D01*
X126035714Y-112621485D02*
X126035714Y-112288152D01*
X126035714Y-112288152D02*
X126083333Y-112097676D01*
X126083333Y-112097676D02*
X126178571Y-112002438D01*
X126178571Y-112002438D02*
X126273809Y-111954819D01*
X127130952Y-111954819D02*
X127130952Y-112764342D01*
X127130952Y-112764342D02*
X127178571Y-112859580D01*
X127178571Y-112859580D02*
X127226190Y-112907200D01*
X127226190Y-112907200D02*
X127321428Y-112954819D01*
X127321428Y-112954819D02*
X127511904Y-112954819D01*
X127511904Y-112954819D02*
X127607142Y-112907200D01*
X127607142Y-112907200D02*
X127654761Y-112859580D01*
X127654761Y-112859580D02*
X127702380Y-112764342D01*
X127702380Y-112764342D02*
X127702380Y-111954819D01*
X128035714Y-111954819D02*
X128607142Y-111954819D01*
X128321428Y-112954819D02*
X128321428Y-111954819D01*
X129464285Y-112954819D02*
X128892857Y-112954819D01*
X129178571Y-112954819D02*
X129178571Y-111954819D01*
X129178571Y-111954819D02*
X129083333Y-112097676D01*
X129083333Y-112097676D02*
X128988095Y-112192914D01*
X128988095Y-112192914D02*
X128892857Y-112240533D01*
X124738095Y-115004819D02*
X124738095Y-115814342D01*
X124738095Y-115814342D02*
X124785714Y-115909580D01*
X124785714Y-115909580D02*
X124833333Y-115957200D01*
X124833333Y-115957200D02*
X124928571Y-116004819D01*
X124928571Y-116004819D02*
X125119047Y-116004819D01*
X125119047Y-116004819D02*
X125214285Y-115957200D01*
X125214285Y-115957200D02*
X125261904Y-115909580D01*
X125261904Y-115909580D02*
X125309523Y-115814342D01*
X125309523Y-115814342D02*
X125309523Y-115004819D01*
X126309523Y-116004819D02*
X125738095Y-116004819D01*
X126023809Y-116004819D02*
X126023809Y-115004819D01*
X126023809Y-115004819D02*
X125928571Y-115147676D01*
X125928571Y-115147676D02*
X125833333Y-115242914D01*
X125833333Y-115242914D02*
X125738095Y-115290533D01*
X113023333Y-111584819D02*
X112690000Y-111108628D01*
X112451905Y-111584819D02*
X112451905Y-110584819D01*
X112451905Y-110584819D02*
X112832857Y-110584819D01*
X112832857Y-110584819D02*
X112928095Y-110632438D01*
X112928095Y-110632438D02*
X112975714Y-110680057D01*
X112975714Y-110680057D02*
X113023333Y-110775295D01*
X113023333Y-110775295D02*
X113023333Y-110918152D01*
X113023333Y-110918152D02*
X112975714Y-111013390D01*
X112975714Y-111013390D02*
X112928095Y-111061009D01*
X112928095Y-111061009D02*
X112832857Y-111108628D01*
X112832857Y-111108628D02*
X112451905Y-111108628D01*
X113404286Y-110680057D02*
X113451905Y-110632438D01*
X113451905Y-110632438D02*
X113547143Y-110584819D01*
X113547143Y-110584819D02*
X113785238Y-110584819D01*
X113785238Y-110584819D02*
X113880476Y-110632438D01*
X113880476Y-110632438D02*
X113928095Y-110680057D01*
X113928095Y-110680057D02*
X113975714Y-110775295D01*
X113975714Y-110775295D02*
X113975714Y-110870533D01*
X113975714Y-110870533D02*
X113928095Y-111013390D01*
X113928095Y-111013390D02*
X113356667Y-111584819D01*
X113356667Y-111584819D02*
X113975714Y-111584819D01*
X100690476Y-135704819D02*
X101023809Y-136704819D01*
X101023809Y-136704819D02*
X101357142Y-135704819D01*
X102261904Y-136609580D02*
X102214285Y-136657200D01*
X102214285Y-136657200D02*
X102071428Y-136704819D01*
X102071428Y-136704819D02*
X101976190Y-136704819D01*
X101976190Y-136704819D02*
X101833333Y-136657200D01*
X101833333Y-136657200D02*
X101738095Y-136561961D01*
X101738095Y-136561961D02*
X101690476Y-136466723D01*
X101690476Y-136466723D02*
X101642857Y-136276247D01*
X101642857Y-136276247D02*
X101642857Y-136133390D01*
X101642857Y-136133390D02*
X101690476Y-135942914D01*
X101690476Y-135942914D02*
X101738095Y-135847676D01*
X101738095Y-135847676D02*
X101833333Y-135752438D01*
X101833333Y-135752438D02*
X101976190Y-135704819D01*
X101976190Y-135704819D02*
X102071428Y-135704819D01*
X102071428Y-135704819D02*
X102214285Y-135752438D01*
X102214285Y-135752438D02*
X102261904Y-135800057D01*
X103261904Y-136609580D02*
X103214285Y-136657200D01*
X103214285Y-136657200D02*
X103071428Y-136704819D01*
X103071428Y-136704819D02*
X102976190Y-136704819D01*
X102976190Y-136704819D02*
X102833333Y-136657200D01*
X102833333Y-136657200D02*
X102738095Y-136561961D01*
X102738095Y-136561961D02*
X102690476Y-136466723D01*
X102690476Y-136466723D02*
X102642857Y-136276247D01*
X102642857Y-136276247D02*
X102642857Y-136133390D01*
X102642857Y-136133390D02*
X102690476Y-135942914D01*
X102690476Y-135942914D02*
X102738095Y-135847676D01*
X102738095Y-135847676D02*
X102833333Y-135752438D01*
X102833333Y-135752438D02*
X102976190Y-135704819D01*
X102976190Y-135704819D02*
X103071428Y-135704819D01*
X103071428Y-135704819D02*
X103214285Y-135752438D01*
X103214285Y-135752438D02*
X103261904Y-135800057D01*
X104214285Y-136704819D02*
X103642857Y-136704819D01*
X103928571Y-136704819D02*
X103928571Y-135704819D01*
X103928571Y-135704819D02*
X103833333Y-135847676D01*
X103833333Y-135847676D02*
X103738095Y-135942914D01*
X103738095Y-135942914D02*
X103642857Y-135990533D01*
X109333333Y-108609580D02*
X109285714Y-108657200D01*
X109285714Y-108657200D02*
X109142857Y-108704819D01*
X109142857Y-108704819D02*
X109047619Y-108704819D01*
X109047619Y-108704819D02*
X108904762Y-108657200D01*
X108904762Y-108657200D02*
X108809524Y-108561961D01*
X108809524Y-108561961D02*
X108761905Y-108466723D01*
X108761905Y-108466723D02*
X108714286Y-108276247D01*
X108714286Y-108276247D02*
X108714286Y-108133390D01*
X108714286Y-108133390D02*
X108761905Y-107942914D01*
X108761905Y-107942914D02*
X108809524Y-107847676D01*
X108809524Y-107847676D02*
X108904762Y-107752438D01*
X108904762Y-107752438D02*
X109047619Y-107704819D01*
X109047619Y-107704819D02*
X109142857Y-107704819D01*
X109142857Y-107704819D02*
X109285714Y-107752438D01*
X109285714Y-107752438D02*
X109333333Y-107800057D01*
X110238095Y-107704819D02*
X109761905Y-107704819D01*
X109761905Y-107704819D02*
X109714286Y-108181009D01*
X109714286Y-108181009D02*
X109761905Y-108133390D01*
X109761905Y-108133390D02*
X109857143Y-108085771D01*
X109857143Y-108085771D02*
X110095238Y-108085771D01*
X110095238Y-108085771D02*
X110190476Y-108133390D01*
X110190476Y-108133390D02*
X110238095Y-108181009D01*
X110238095Y-108181009D02*
X110285714Y-108276247D01*
X110285714Y-108276247D02*
X110285714Y-108514342D01*
X110285714Y-108514342D02*
X110238095Y-108609580D01*
X110238095Y-108609580D02*
X110190476Y-108657200D01*
X110190476Y-108657200D02*
X110095238Y-108704819D01*
X110095238Y-108704819D02*
X109857143Y-108704819D01*
X109857143Y-108704819D02*
X109761905Y-108657200D01*
X109761905Y-108657200D02*
X109714286Y-108609580D01*
X162084819Y-125856666D02*
X161608628Y-126189999D01*
X162084819Y-126428094D02*
X161084819Y-126428094D01*
X161084819Y-126428094D02*
X161084819Y-126047142D01*
X161084819Y-126047142D02*
X161132438Y-125951904D01*
X161132438Y-125951904D02*
X161180057Y-125904285D01*
X161180057Y-125904285D02*
X161275295Y-125856666D01*
X161275295Y-125856666D02*
X161418152Y-125856666D01*
X161418152Y-125856666D02*
X161513390Y-125904285D01*
X161513390Y-125904285D02*
X161561009Y-125951904D01*
X161561009Y-125951904D02*
X161608628Y-126047142D01*
X161608628Y-126047142D02*
X161608628Y-126428094D01*
X162084819Y-124904285D02*
X162084819Y-125475713D01*
X162084819Y-125189999D02*
X161084819Y-125189999D01*
X161084819Y-125189999D02*
X161227676Y-125285237D01*
X161227676Y-125285237D02*
X161322914Y-125380475D01*
X161322914Y-125380475D02*
X161370533Y-125475713D01*
X173273809Y-111954819D02*
X173464285Y-111954819D01*
X173464285Y-111954819D02*
X173559523Y-112002438D01*
X173559523Y-112002438D02*
X173654761Y-112097676D01*
X173654761Y-112097676D02*
X173702380Y-112288152D01*
X173702380Y-112288152D02*
X173702380Y-112621485D01*
X173702380Y-112621485D02*
X173654761Y-112811961D01*
X173654761Y-112811961D02*
X173559523Y-112907200D01*
X173559523Y-112907200D02*
X173464285Y-112954819D01*
X173464285Y-112954819D02*
X173273809Y-112954819D01*
X173273809Y-112954819D02*
X173178571Y-112907200D01*
X173178571Y-112907200D02*
X173083333Y-112811961D01*
X173083333Y-112811961D02*
X173035714Y-112621485D01*
X173035714Y-112621485D02*
X173035714Y-112288152D01*
X173035714Y-112288152D02*
X173083333Y-112097676D01*
X173083333Y-112097676D02*
X173178571Y-112002438D01*
X173178571Y-112002438D02*
X173273809Y-111954819D01*
X174130952Y-111954819D02*
X174130952Y-112764342D01*
X174130952Y-112764342D02*
X174178571Y-112859580D01*
X174178571Y-112859580D02*
X174226190Y-112907200D01*
X174226190Y-112907200D02*
X174321428Y-112954819D01*
X174321428Y-112954819D02*
X174511904Y-112954819D01*
X174511904Y-112954819D02*
X174607142Y-112907200D01*
X174607142Y-112907200D02*
X174654761Y-112859580D01*
X174654761Y-112859580D02*
X174702380Y-112764342D01*
X174702380Y-112764342D02*
X174702380Y-111954819D01*
X175035714Y-111954819D02*
X175607142Y-111954819D01*
X175321428Y-112954819D02*
X175321428Y-111954819D01*
X176464285Y-112954819D02*
X175892857Y-112954819D01*
X176178571Y-112954819D02*
X176178571Y-111954819D01*
X176178571Y-111954819D02*
X176083333Y-112097676D01*
X176083333Y-112097676D02*
X175988095Y-112192914D01*
X175988095Y-112192914D02*
X175892857Y-112240533D01*
X136965656Y-117359580D02*
X136918037Y-117407200D01*
X136918037Y-117407200D02*
X136775180Y-117454819D01*
X136775180Y-117454819D02*
X136679942Y-117454819D01*
X136679942Y-117454819D02*
X136537085Y-117407200D01*
X136537085Y-117407200D02*
X136441847Y-117311961D01*
X136441847Y-117311961D02*
X136394228Y-117216723D01*
X136394228Y-117216723D02*
X136346609Y-117026247D01*
X136346609Y-117026247D02*
X136346609Y-116883390D01*
X136346609Y-116883390D02*
X136394228Y-116692914D01*
X136394228Y-116692914D02*
X136441847Y-116597676D01*
X136441847Y-116597676D02*
X136537085Y-116502438D01*
X136537085Y-116502438D02*
X136679942Y-116454819D01*
X136679942Y-116454819D02*
X136775180Y-116454819D01*
X136775180Y-116454819D02*
X136918037Y-116502438D01*
X136918037Y-116502438D02*
X136965656Y-116550057D01*
X137822799Y-116454819D02*
X137632323Y-116454819D01*
X137632323Y-116454819D02*
X137537085Y-116502438D01*
X137537085Y-116502438D02*
X137489466Y-116550057D01*
X137489466Y-116550057D02*
X137394228Y-116692914D01*
X137394228Y-116692914D02*
X137346609Y-116883390D01*
X137346609Y-116883390D02*
X137346609Y-117264342D01*
X137346609Y-117264342D02*
X137394228Y-117359580D01*
X137394228Y-117359580D02*
X137441847Y-117407200D01*
X137441847Y-117407200D02*
X137537085Y-117454819D01*
X137537085Y-117454819D02*
X137727561Y-117454819D01*
X137727561Y-117454819D02*
X137822799Y-117407200D01*
X137822799Y-117407200D02*
X137870418Y-117359580D01*
X137870418Y-117359580D02*
X137918037Y-117264342D01*
X137918037Y-117264342D02*
X137918037Y-117026247D01*
X137918037Y-117026247D02*
X137870418Y-116931009D01*
X137870418Y-116931009D02*
X137822799Y-116883390D01*
X137822799Y-116883390D02*
X137727561Y-116835771D01*
X137727561Y-116835771D02*
X137537085Y-116835771D01*
X137537085Y-116835771D02*
X137441847Y-116883390D01*
X137441847Y-116883390D02*
X137394228Y-116931009D01*
X137394228Y-116931009D02*
X137346609Y-117026247D01*
X103933333Y-121989580D02*
X103885714Y-122037200D01*
X103885714Y-122037200D02*
X103742857Y-122084819D01*
X103742857Y-122084819D02*
X103647619Y-122084819D01*
X103647619Y-122084819D02*
X103504762Y-122037200D01*
X103504762Y-122037200D02*
X103409524Y-121941961D01*
X103409524Y-121941961D02*
X103361905Y-121846723D01*
X103361905Y-121846723D02*
X103314286Y-121656247D01*
X103314286Y-121656247D02*
X103314286Y-121513390D01*
X103314286Y-121513390D02*
X103361905Y-121322914D01*
X103361905Y-121322914D02*
X103409524Y-121227676D01*
X103409524Y-121227676D02*
X103504762Y-121132438D01*
X103504762Y-121132438D02*
X103647619Y-121084819D01*
X103647619Y-121084819D02*
X103742857Y-121084819D01*
X103742857Y-121084819D02*
X103885714Y-121132438D01*
X103885714Y-121132438D02*
X103933333Y-121180057D01*
X104790476Y-121418152D02*
X104790476Y-122084819D01*
X104552381Y-121037200D02*
X104314286Y-121751485D01*
X104314286Y-121751485D02*
X104933333Y-121751485D01*
X143704819Y-142095238D02*
X143228628Y-142428571D01*
X143704819Y-142666666D02*
X142704819Y-142666666D01*
X142704819Y-142666666D02*
X142704819Y-142285714D01*
X142704819Y-142285714D02*
X142752438Y-142190476D01*
X142752438Y-142190476D02*
X142800057Y-142142857D01*
X142800057Y-142142857D02*
X142895295Y-142095238D01*
X142895295Y-142095238D02*
X143038152Y-142095238D01*
X143038152Y-142095238D02*
X143133390Y-142142857D01*
X143133390Y-142142857D02*
X143181009Y-142190476D01*
X143181009Y-142190476D02*
X143228628Y-142285714D01*
X143228628Y-142285714D02*
X143228628Y-142666666D01*
X142704819Y-141809523D02*
X143704819Y-141476190D01*
X143704819Y-141476190D02*
X142704819Y-141142857D01*
X143704819Y-140285714D02*
X143704819Y-140857142D01*
X143704819Y-140571428D02*
X142704819Y-140571428D01*
X142704819Y-140571428D02*
X142847676Y-140666666D01*
X142847676Y-140666666D02*
X142942914Y-140761904D01*
X142942914Y-140761904D02*
X142990533Y-140857142D01*
X156859580Y-124546666D02*
X156907200Y-124594285D01*
X156907200Y-124594285D02*
X156954819Y-124737142D01*
X156954819Y-124737142D02*
X156954819Y-124832380D01*
X156954819Y-124832380D02*
X156907200Y-124975237D01*
X156907200Y-124975237D02*
X156811961Y-125070475D01*
X156811961Y-125070475D02*
X156716723Y-125118094D01*
X156716723Y-125118094D02*
X156526247Y-125165713D01*
X156526247Y-125165713D02*
X156383390Y-125165713D01*
X156383390Y-125165713D02*
X156192914Y-125118094D01*
X156192914Y-125118094D02*
X156097676Y-125070475D01*
X156097676Y-125070475D02*
X156002438Y-124975237D01*
X156002438Y-124975237D02*
X155954819Y-124832380D01*
X155954819Y-124832380D02*
X155954819Y-124737142D01*
X155954819Y-124737142D02*
X156002438Y-124594285D01*
X156002438Y-124594285D02*
X156050057Y-124546666D01*
X155954819Y-124213332D02*
X155954819Y-123594285D01*
X155954819Y-123594285D02*
X156335771Y-123927618D01*
X156335771Y-123927618D02*
X156335771Y-123784761D01*
X156335771Y-123784761D02*
X156383390Y-123689523D01*
X156383390Y-123689523D02*
X156431009Y-123641904D01*
X156431009Y-123641904D02*
X156526247Y-123594285D01*
X156526247Y-123594285D02*
X156764342Y-123594285D01*
X156764342Y-123594285D02*
X156859580Y-123641904D01*
X156859580Y-123641904D02*
X156907200Y-123689523D01*
X156907200Y-123689523D02*
X156954819Y-123784761D01*
X156954819Y-123784761D02*
X156954819Y-124070475D01*
X156954819Y-124070475D02*
X156907200Y-124165713D01*
X156907200Y-124165713D02*
X156859580Y-124213332D01*
X161750000Y-136874819D02*
X161750000Y-135874819D01*
X162226190Y-136874819D02*
X162226190Y-135874819D01*
X162226190Y-135874819D02*
X162797618Y-136874819D01*
X162797618Y-136874819D02*
X162797618Y-135874819D01*
X163797618Y-136874819D02*
X163226190Y-136874819D01*
X163511904Y-136874819D02*
X163511904Y-135874819D01*
X163511904Y-135874819D02*
X163416666Y-136017676D01*
X163416666Y-136017676D02*
X163321428Y-136112914D01*
X163321428Y-136112914D02*
X163226190Y-136160533D01*
X150491905Y-109994819D02*
X150491905Y-108994819D01*
X150491905Y-108994819D02*
X150730000Y-108994819D01*
X150730000Y-108994819D02*
X150872857Y-109042438D01*
X150872857Y-109042438D02*
X150968095Y-109137676D01*
X150968095Y-109137676D02*
X151015714Y-109232914D01*
X151015714Y-109232914D02*
X151063333Y-109423390D01*
X151063333Y-109423390D02*
X151063333Y-109566247D01*
X151063333Y-109566247D02*
X151015714Y-109756723D01*
X151015714Y-109756723D02*
X150968095Y-109851961D01*
X150968095Y-109851961D02*
X150872857Y-109947200D01*
X150872857Y-109947200D02*
X150730000Y-109994819D01*
X150730000Y-109994819D02*
X150491905Y-109994819D01*
X152015714Y-109994819D02*
X151444286Y-109994819D01*
X151730000Y-109994819D02*
X151730000Y-108994819D01*
X151730000Y-108994819D02*
X151634762Y-109137676D01*
X151634762Y-109137676D02*
X151539524Y-109232914D01*
X151539524Y-109232914D02*
X151444286Y-109280533D01*
X183930682Y-79109580D02*
X183883063Y-79157200D01*
X183883063Y-79157200D02*
X183740206Y-79204819D01*
X183740206Y-79204819D02*
X183644968Y-79204819D01*
X183644968Y-79204819D02*
X183502111Y-79157200D01*
X183502111Y-79157200D02*
X183406873Y-79061961D01*
X183406873Y-79061961D02*
X183359254Y-78966723D01*
X183359254Y-78966723D02*
X183311635Y-78776247D01*
X183311635Y-78776247D02*
X183311635Y-78633390D01*
X183311635Y-78633390D02*
X183359254Y-78442914D01*
X183359254Y-78442914D02*
X183406873Y-78347676D01*
X183406873Y-78347676D02*
X183502111Y-78252438D01*
X183502111Y-78252438D02*
X183644968Y-78204819D01*
X183644968Y-78204819D02*
X183740206Y-78204819D01*
X183740206Y-78204819D02*
X183883063Y-78252438D01*
X183883063Y-78252438D02*
X183930682Y-78300057D01*
X184311635Y-78300057D02*
X184359254Y-78252438D01*
X184359254Y-78252438D02*
X184454492Y-78204819D01*
X184454492Y-78204819D02*
X184692587Y-78204819D01*
X184692587Y-78204819D02*
X184787825Y-78252438D01*
X184787825Y-78252438D02*
X184835444Y-78300057D01*
X184835444Y-78300057D02*
X184883063Y-78395295D01*
X184883063Y-78395295D02*
X184883063Y-78490533D01*
X184883063Y-78490533D02*
X184835444Y-78633390D01*
X184835444Y-78633390D02*
X184264016Y-79204819D01*
X184264016Y-79204819D02*
X184883063Y-79204819D01*
X160023333Y-66584819D02*
X159690000Y-66108628D01*
X159451905Y-66584819D02*
X159451905Y-65584819D01*
X159451905Y-65584819D02*
X159832857Y-65584819D01*
X159832857Y-65584819D02*
X159928095Y-65632438D01*
X159928095Y-65632438D02*
X159975714Y-65680057D01*
X159975714Y-65680057D02*
X160023333Y-65775295D01*
X160023333Y-65775295D02*
X160023333Y-65918152D01*
X160023333Y-65918152D02*
X159975714Y-66013390D01*
X159975714Y-66013390D02*
X159928095Y-66061009D01*
X159928095Y-66061009D02*
X159832857Y-66108628D01*
X159832857Y-66108628D02*
X159451905Y-66108628D01*
X160404286Y-65680057D02*
X160451905Y-65632438D01*
X160451905Y-65632438D02*
X160547143Y-65584819D01*
X160547143Y-65584819D02*
X160785238Y-65584819D01*
X160785238Y-65584819D02*
X160880476Y-65632438D01*
X160880476Y-65632438D02*
X160928095Y-65680057D01*
X160928095Y-65680057D02*
X160975714Y-65775295D01*
X160975714Y-65775295D02*
X160975714Y-65870533D01*
X160975714Y-65870533D02*
X160928095Y-66013390D01*
X160928095Y-66013390D02*
X160356667Y-66584819D01*
X160356667Y-66584819D02*
X160975714Y-66584819D01*
X183965656Y-72359580D02*
X183918037Y-72407200D01*
X183918037Y-72407200D02*
X183775180Y-72454819D01*
X183775180Y-72454819D02*
X183679942Y-72454819D01*
X183679942Y-72454819D02*
X183537085Y-72407200D01*
X183537085Y-72407200D02*
X183441847Y-72311961D01*
X183441847Y-72311961D02*
X183394228Y-72216723D01*
X183394228Y-72216723D02*
X183346609Y-72026247D01*
X183346609Y-72026247D02*
X183346609Y-71883390D01*
X183346609Y-71883390D02*
X183394228Y-71692914D01*
X183394228Y-71692914D02*
X183441847Y-71597676D01*
X183441847Y-71597676D02*
X183537085Y-71502438D01*
X183537085Y-71502438D02*
X183679942Y-71454819D01*
X183679942Y-71454819D02*
X183775180Y-71454819D01*
X183775180Y-71454819D02*
X183918037Y-71502438D01*
X183918037Y-71502438D02*
X183965656Y-71550057D01*
X184822799Y-71454819D02*
X184632323Y-71454819D01*
X184632323Y-71454819D02*
X184537085Y-71502438D01*
X184537085Y-71502438D02*
X184489466Y-71550057D01*
X184489466Y-71550057D02*
X184394228Y-71692914D01*
X184394228Y-71692914D02*
X184346609Y-71883390D01*
X184346609Y-71883390D02*
X184346609Y-72264342D01*
X184346609Y-72264342D02*
X184394228Y-72359580D01*
X184394228Y-72359580D02*
X184441847Y-72407200D01*
X184441847Y-72407200D02*
X184537085Y-72454819D01*
X184537085Y-72454819D02*
X184727561Y-72454819D01*
X184727561Y-72454819D02*
X184822799Y-72407200D01*
X184822799Y-72407200D02*
X184870418Y-72359580D01*
X184870418Y-72359580D02*
X184918037Y-72264342D01*
X184918037Y-72264342D02*
X184918037Y-72026247D01*
X184918037Y-72026247D02*
X184870418Y-71931009D01*
X184870418Y-71931009D02*
X184822799Y-71883390D01*
X184822799Y-71883390D02*
X184727561Y-71835771D01*
X184727561Y-71835771D02*
X184537085Y-71835771D01*
X184537085Y-71835771D02*
X184441847Y-71883390D01*
X184441847Y-71883390D02*
X184394228Y-71931009D01*
X184394228Y-71931009D02*
X184346609Y-72026247D01*
X150933333Y-76989580D02*
X150885714Y-77037200D01*
X150885714Y-77037200D02*
X150742857Y-77084819D01*
X150742857Y-77084819D02*
X150647619Y-77084819D01*
X150647619Y-77084819D02*
X150504762Y-77037200D01*
X150504762Y-77037200D02*
X150409524Y-76941961D01*
X150409524Y-76941961D02*
X150361905Y-76846723D01*
X150361905Y-76846723D02*
X150314286Y-76656247D01*
X150314286Y-76656247D02*
X150314286Y-76513390D01*
X150314286Y-76513390D02*
X150361905Y-76322914D01*
X150361905Y-76322914D02*
X150409524Y-76227676D01*
X150409524Y-76227676D02*
X150504762Y-76132438D01*
X150504762Y-76132438D02*
X150647619Y-76084819D01*
X150647619Y-76084819D02*
X150742857Y-76084819D01*
X150742857Y-76084819D02*
X150885714Y-76132438D01*
X150885714Y-76132438D02*
X150933333Y-76180057D01*
X151790476Y-76418152D02*
X151790476Y-77084819D01*
X151552381Y-76037200D02*
X151314286Y-76751485D01*
X151314286Y-76751485D02*
X151933333Y-76751485D01*
X109859580Y-124546666D02*
X109907200Y-124594285D01*
X109907200Y-124594285D02*
X109954819Y-124737142D01*
X109954819Y-124737142D02*
X109954819Y-124832380D01*
X109954819Y-124832380D02*
X109907200Y-124975237D01*
X109907200Y-124975237D02*
X109811961Y-125070475D01*
X109811961Y-125070475D02*
X109716723Y-125118094D01*
X109716723Y-125118094D02*
X109526247Y-125165713D01*
X109526247Y-125165713D02*
X109383390Y-125165713D01*
X109383390Y-125165713D02*
X109192914Y-125118094D01*
X109192914Y-125118094D02*
X109097676Y-125070475D01*
X109097676Y-125070475D02*
X109002438Y-124975237D01*
X109002438Y-124975237D02*
X108954819Y-124832380D01*
X108954819Y-124832380D02*
X108954819Y-124737142D01*
X108954819Y-124737142D02*
X109002438Y-124594285D01*
X109002438Y-124594285D02*
X109050057Y-124546666D01*
X108954819Y-124213332D02*
X108954819Y-123594285D01*
X108954819Y-123594285D02*
X109335771Y-123927618D01*
X109335771Y-123927618D02*
X109335771Y-123784761D01*
X109335771Y-123784761D02*
X109383390Y-123689523D01*
X109383390Y-123689523D02*
X109431009Y-123641904D01*
X109431009Y-123641904D02*
X109526247Y-123594285D01*
X109526247Y-123594285D02*
X109764342Y-123594285D01*
X109764342Y-123594285D02*
X109859580Y-123641904D01*
X109859580Y-123641904D02*
X109907200Y-123689523D01*
X109907200Y-123689523D02*
X109954819Y-123784761D01*
X109954819Y-123784761D02*
X109954819Y-124070475D01*
X109954819Y-124070475D02*
X109907200Y-124165713D01*
X109907200Y-124165713D02*
X109859580Y-124213332D01*
X171738095Y-70004819D02*
X171738095Y-70814342D01*
X171738095Y-70814342D02*
X171785714Y-70909580D01*
X171785714Y-70909580D02*
X171833333Y-70957200D01*
X171833333Y-70957200D02*
X171928571Y-71004819D01*
X171928571Y-71004819D02*
X172119047Y-71004819D01*
X172119047Y-71004819D02*
X172214285Y-70957200D01*
X172214285Y-70957200D02*
X172261904Y-70909580D01*
X172261904Y-70909580D02*
X172309523Y-70814342D01*
X172309523Y-70814342D02*
X172309523Y-70004819D01*
X173309523Y-71004819D02*
X172738095Y-71004819D01*
X173023809Y-71004819D02*
X173023809Y-70004819D01*
X173023809Y-70004819D02*
X172928571Y-70147676D01*
X172928571Y-70147676D02*
X172833333Y-70242914D01*
X172833333Y-70242914D02*
X172738095Y-70290533D01*
X171333333Y-89859580D02*
X171285714Y-89907200D01*
X171285714Y-89907200D02*
X171142857Y-89954819D01*
X171142857Y-89954819D02*
X171047619Y-89954819D01*
X171047619Y-89954819D02*
X170904762Y-89907200D01*
X170904762Y-89907200D02*
X170809524Y-89811961D01*
X170809524Y-89811961D02*
X170761905Y-89716723D01*
X170761905Y-89716723D02*
X170714286Y-89526247D01*
X170714286Y-89526247D02*
X170714286Y-89383390D01*
X170714286Y-89383390D02*
X170761905Y-89192914D01*
X170761905Y-89192914D02*
X170809524Y-89097676D01*
X170809524Y-89097676D02*
X170904762Y-89002438D01*
X170904762Y-89002438D02*
X171047619Y-88954819D01*
X171047619Y-88954819D02*
X171142857Y-88954819D01*
X171142857Y-88954819D02*
X171285714Y-89002438D01*
X171285714Y-89002438D02*
X171333333Y-89050057D01*
X172285714Y-89954819D02*
X171714286Y-89954819D01*
X172000000Y-89954819D02*
X172000000Y-88954819D01*
X172000000Y-88954819D02*
X171904762Y-89097676D01*
X171904762Y-89097676D02*
X171809524Y-89192914D01*
X171809524Y-89192914D02*
X171714286Y-89240533D01*
X147690476Y-90704819D02*
X148023809Y-91704819D01*
X148023809Y-91704819D02*
X148357142Y-90704819D01*
X149261904Y-91609580D02*
X149214285Y-91657200D01*
X149214285Y-91657200D02*
X149071428Y-91704819D01*
X149071428Y-91704819D02*
X148976190Y-91704819D01*
X148976190Y-91704819D02*
X148833333Y-91657200D01*
X148833333Y-91657200D02*
X148738095Y-91561961D01*
X148738095Y-91561961D02*
X148690476Y-91466723D01*
X148690476Y-91466723D02*
X148642857Y-91276247D01*
X148642857Y-91276247D02*
X148642857Y-91133390D01*
X148642857Y-91133390D02*
X148690476Y-90942914D01*
X148690476Y-90942914D02*
X148738095Y-90847676D01*
X148738095Y-90847676D02*
X148833333Y-90752438D01*
X148833333Y-90752438D02*
X148976190Y-90704819D01*
X148976190Y-90704819D02*
X149071428Y-90704819D01*
X149071428Y-90704819D02*
X149214285Y-90752438D01*
X149214285Y-90752438D02*
X149261904Y-90800057D01*
X150261904Y-91609580D02*
X150214285Y-91657200D01*
X150214285Y-91657200D02*
X150071428Y-91704819D01*
X150071428Y-91704819D02*
X149976190Y-91704819D01*
X149976190Y-91704819D02*
X149833333Y-91657200D01*
X149833333Y-91657200D02*
X149738095Y-91561961D01*
X149738095Y-91561961D02*
X149690476Y-91466723D01*
X149690476Y-91466723D02*
X149642857Y-91276247D01*
X149642857Y-91276247D02*
X149642857Y-91133390D01*
X149642857Y-91133390D02*
X149690476Y-90942914D01*
X149690476Y-90942914D02*
X149738095Y-90847676D01*
X149738095Y-90847676D02*
X149833333Y-90752438D01*
X149833333Y-90752438D02*
X149976190Y-90704819D01*
X149976190Y-90704819D02*
X150071428Y-90704819D01*
X150071428Y-90704819D02*
X150214285Y-90752438D01*
X150214285Y-90752438D02*
X150261904Y-90800057D01*
X151214285Y-91704819D02*
X150642857Y-91704819D01*
X150928571Y-91704819D02*
X150928571Y-90704819D01*
X150928571Y-90704819D02*
X150833333Y-90847676D01*
X150833333Y-90847676D02*
X150738095Y-90942914D01*
X150738095Y-90942914D02*
X150642857Y-90990533D01*
X147690476Y-135704819D02*
X148023809Y-136704819D01*
X148023809Y-136704819D02*
X148357142Y-135704819D01*
X149261904Y-136609580D02*
X149214285Y-136657200D01*
X149214285Y-136657200D02*
X149071428Y-136704819D01*
X149071428Y-136704819D02*
X148976190Y-136704819D01*
X148976190Y-136704819D02*
X148833333Y-136657200D01*
X148833333Y-136657200D02*
X148738095Y-136561961D01*
X148738095Y-136561961D02*
X148690476Y-136466723D01*
X148690476Y-136466723D02*
X148642857Y-136276247D01*
X148642857Y-136276247D02*
X148642857Y-136133390D01*
X148642857Y-136133390D02*
X148690476Y-135942914D01*
X148690476Y-135942914D02*
X148738095Y-135847676D01*
X148738095Y-135847676D02*
X148833333Y-135752438D01*
X148833333Y-135752438D02*
X148976190Y-135704819D01*
X148976190Y-135704819D02*
X149071428Y-135704819D01*
X149071428Y-135704819D02*
X149214285Y-135752438D01*
X149214285Y-135752438D02*
X149261904Y-135800057D01*
X150261904Y-136609580D02*
X150214285Y-136657200D01*
X150214285Y-136657200D02*
X150071428Y-136704819D01*
X150071428Y-136704819D02*
X149976190Y-136704819D01*
X149976190Y-136704819D02*
X149833333Y-136657200D01*
X149833333Y-136657200D02*
X149738095Y-136561961D01*
X149738095Y-136561961D02*
X149690476Y-136466723D01*
X149690476Y-136466723D02*
X149642857Y-136276247D01*
X149642857Y-136276247D02*
X149642857Y-136133390D01*
X149642857Y-136133390D02*
X149690476Y-135942914D01*
X149690476Y-135942914D02*
X149738095Y-135847676D01*
X149738095Y-135847676D02*
X149833333Y-135752438D01*
X149833333Y-135752438D02*
X149976190Y-135704819D01*
X149976190Y-135704819D02*
X150071428Y-135704819D01*
X150071428Y-135704819D02*
X150214285Y-135752438D01*
X150214285Y-135752438D02*
X150261904Y-135800057D01*
X151214285Y-136704819D02*
X150642857Y-136704819D01*
X150928571Y-136704819D02*
X150928571Y-135704819D01*
X150928571Y-135704819D02*
X150833333Y-135847676D01*
X150833333Y-135847676D02*
X150738095Y-135942914D01*
X150738095Y-135942914D02*
X150642857Y-135990533D01*
X171738095Y-115004819D02*
X171738095Y-115814342D01*
X171738095Y-115814342D02*
X171785714Y-115909580D01*
X171785714Y-115909580D02*
X171833333Y-115957200D01*
X171833333Y-115957200D02*
X171928571Y-116004819D01*
X171928571Y-116004819D02*
X172119047Y-116004819D01*
X172119047Y-116004819D02*
X172214285Y-115957200D01*
X172214285Y-115957200D02*
X172261904Y-115909580D01*
X172261904Y-115909580D02*
X172309523Y-115814342D01*
X172309523Y-115814342D02*
X172309523Y-115004819D01*
X173309523Y-116004819D02*
X172738095Y-116004819D01*
X173023809Y-116004819D02*
X173023809Y-115004819D01*
X173023809Y-115004819D02*
X172928571Y-115147676D01*
X172928571Y-115147676D02*
X172833333Y-115242914D01*
X172833333Y-115242914D02*
X172738095Y-115290533D01*
X171333333Y-134859580D02*
X171285714Y-134907200D01*
X171285714Y-134907200D02*
X171142857Y-134954819D01*
X171142857Y-134954819D02*
X171047619Y-134954819D01*
X171047619Y-134954819D02*
X170904762Y-134907200D01*
X170904762Y-134907200D02*
X170809524Y-134811961D01*
X170809524Y-134811961D02*
X170761905Y-134716723D01*
X170761905Y-134716723D02*
X170714286Y-134526247D01*
X170714286Y-134526247D02*
X170714286Y-134383390D01*
X170714286Y-134383390D02*
X170761905Y-134192914D01*
X170761905Y-134192914D02*
X170809524Y-134097676D01*
X170809524Y-134097676D02*
X170904762Y-134002438D01*
X170904762Y-134002438D02*
X171047619Y-133954819D01*
X171047619Y-133954819D02*
X171142857Y-133954819D01*
X171142857Y-133954819D02*
X171285714Y-134002438D01*
X171285714Y-134002438D02*
X171333333Y-134050057D01*
X172285714Y-134954819D02*
X171714286Y-134954819D01*
X172000000Y-134954819D02*
X172000000Y-133954819D01*
X172000000Y-133954819D02*
X171904762Y-134097676D01*
X171904762Y-134097676D02*
X171809524Y-134192914D01*
X171809524Y-134192914D02*
X171714286Y-134240533D01*
X183930682Y-124109580D02*
X183883063Y-124157200D01*
X183883063Y-124157200D02*
X183740206Y-124204819D01*
X183740206Y-124204819D02*
X183644968Y-124204819D01*
X183644968Y-124204819D02*
X183502111Y-124157200D01*
X183502111Y-124157200D02*
X183406873Y-124061961D01*
X183406873Y-124061961D02*
X183359254Y-123966723D01*
X183359254Y-123966723D02*
X183311635Y-123776247D01*
X183311635Y-123776247D02*
X183311635Y-123633390D01*
X183311635Y-123633390D02*
X183359254Y-123442914D01*
X183359254Y-123442914D02*
X183406873Y-123347676D01*
X183406873Y-123347676D02*
X183502111Y-123252438D01*
X183502111Y-123252438D02*
X183644968Y-123204819D01*
X183644968Y-123204819D02*
X183740206Y-123204819D01*
X183740206Y-123204819D02*
X183883063Y-123252438D01*
X183883063Y-123252438D02*
X183930682Y-123300057D01*
X184311635Y-123300057D02*
X184359254Y-123252438D01*
X184359254Y-123252438D02*
X184454492Y-123204819D01*
X184454492Y-123204819D02*
X184692587Y-123204819D01*
X184692587Y-123204819D02*
X184787825Y-123252438D01*
X184787825Y-123252438D02*
X184835444Y-123300057D01*
X184835444Y-123300057D02*
X184883063Y-123395295D01*
X184883063Y-123395295D02*
X184883063Y-123490533D01*
X184883063Y-123490533D02*
X184835444Y-123633390D01*
X184835444Y-123633390D02*
X184264016Y-124204819D01*
X184264016Y-124204819D02*
X184883063Y-124204819D01*
X156333333Y-108609580D02*
X156285714Y-108657200D01*
X156285714Y-108657200D02*
X156142857Y-108704819D01*
X156142857Y-108704819D02*
X156047619Y-108704819D01*
X156047619Y-108704819D02*
X155904762Y-108657200D01*
X155904762Y-108657200D02*
X155809524Y-108561961D01*
X155809524Y-108561961D02*
X155761905Y-108466723D01*
X155761905Y-108466723D02*
X155714286Y-108276247D01*
X155714286Y-108276247D02*
X155714286Y-108133390D01*
X155714286Y-108133390D02*
X155761905Y-107942914D01*
X155761905Y-107942914D02*
X155809524Y-107847676D01*
X155809524Y-107847676D02*
X155904762Y-107752438D01*
X155904762Y-107752438D02*
X156047619Y-107704819D01*
X156047619Y-107704819D02*
X156142857Y-107704819D01*
X156142857Y-107704819D02*
X156285714Y-107752438D01*
X156285714Y-107752438D02*
X156333333Y-107800057D01*
X157238095Y-107704819D02*
X156761905Y-107704819D01*
X156761905Y-107704819D02*
X156714286Y-108181009D01*
X156714286Y-108181009D02*
X156761905Y-108133390D01*
X156761905Y-108133390D02*
X156857143Y-108085771D01*
X156857143Y-108085771D02*
X157095238Y-108085771D01*
X157095238Y-108085771D02*
X157190476Y-108133390D01*
X157190476Y-108133390D02*
X157238095Y-108181009D01*
X157238095Y-108181009D02*
X157285714Y-108276247D01*
X157285714Y-108276247D02*
X157285714Y-108514342D01*
X157285714Y-108514342D02*
X157238095Y-108609580D01*
X157238095Y-108609580D02*
X157190476Y-108657200D01*
X157190476Y-108657200D02*
X157095238Y-108704819D01*
X157095238Y-108704819D02*
X156857143Y-108704819D01*
X156857143Y-108704819D02*
X156761905Y-108657200D01*
X156761905Y-108657200D02*
X156714286Y-108609580D01*
X160023333Y-111584819D02*
X159690000Y-111108628D01*
X159451905Y-111584819D02*
X159451905Y-110584819D01*
X159451905Y-110584819D02*
X159832857Y-110584819D01*
X159832857Y-110584819D02*
X159928095Y-110632438D01*
X159928095Y-110632438D02*
X159975714Y-110680057D01*
X159975714Y-110680057D02*
X160023333Y-110775295D01*
X160023333Y-110775295D02*
X160023333Y-110918152D01*
X160023333Y-110918152D02*
X159975714Y-111013390D01*
X159975714Y-111013390D02*
X159928095Y-111061009D01*
X159928095Y-111061009D02*
X159832857Y-111108628D01*
X159832857Y-111108628D02*
X159451905Y-111108628D01*
X160404286Y-110680057D02*
X160451905Y-110632438D01*
X160451905Y-110632438D02*
X160547143Y-110584819D01*
X160547143Y-110584819D02*
X160785238Y-110584819D01*
X160785238Y-110584819D02*
X160880476Y-110632438D01*
X160880476Y-110632438D02*
X160928095Y-110680057D01*
X160928095Y-110680057D02*
X160975714Y-110775295D01*
X160975714Y-110775295D02*
X160975714Y-110870533D01*
X160975714Y-110870533D02*
X160928095Y-111013390D01*
X160928095Y-111013390D02*
X160356667Y-111584819D01*
X160356667Y-111584819D02*
X160975714Y-111584819D01*
X183965656Y-117359580D02*
X183918037Y-117407200D01*
X183918037Y-117407200D02*
X183775180Y-117454819D01*
X183775180Y-117454819D02*
X183679942Y-117454819D01*
X183679942Y-117454819D02*
X183537085Y-117407200D01*
X183537085Y-117407200D02*
X183441847Y-117311961D01*
X183441847Y-117311961D02*
X183394228Y-117216723D01*
X183394228Y-117216723D02*
X183346609Y-117026247D01*
X183346609Y-117026247D02*
X183346609Y-116883390D01*
X183346609Y-116883390D02*
X183394228Y-116692914D01*
X183394228Y-116692914D02*
X183441847Y-116597676D01*
X183441847Y-116597676D02*
X183537085Y-116502438D01*
X183537085Y-116502438D02*
X183679942Y-116454819D01*
X183679942Y-116454819D02*
X183775180Y-116454819D01*
X183775180Y-116454819D02*
X183918037Y-116502438D01*
X183918037Y-116502438D02*
X183965656Y-116550057D01*
X184822799Y-116454819D02*
X184632323Y-116454819D01*
X184632323Y-116454819D02*
X184537085Y-116502438D01*
X184537085Y-116502438D02*
X184489466Y-116550057D01*
X184489466Y-116550057D02*
X184394228Y-116692914D01*
X184394228Y-116692914D02*
X184346609Y-116883390D01*
X184346609Y-116883390D02*
X184346609Y-117264342D01*
X184346609Y-117264342D02*
X184394228Y-117359580D01*
X184394228Y-117359580D02*
X184441847Y-117407200D01*
X184441847Y-117407200D02*
X184537085Y-117454819D01*
X184537085Y-117454819D02*
X184727561Y-117454819D01*
X184727561Y-117454819D02*
X184822799Y-117407200D01*
X184822799Y-117407200D02*
X184870418Y-117359580D01*
X184870418Y-117359580D02*
X184918037Y-117264342D01*
X184918037Y-117264342D02*
X184918037Y-117026247D01*
X184918037Y-117026247D02*
X184870418Y-116931009D01*
X184870418Y-116931009D02*
X184822799Y-116883390D01*
X184822799Y-116883390D02*
X184727561Y-116835771D01*
X184727561Y-116835771D02*
X184537085Y-116835771D01*
X184537085Y-116835771D02*
X184441847Y-116883390D01*
X184441847Y-116883390D02*
X184394228Y-116931009D01*
X184394228Y-116931009D02*
X184346609Y-117026247D01*
X150933333Y-121989580D02*
X150885714Y-122037200D01*
X150885714Y-122037200D02*
X150742857Y-122084819D01*
X150742857Y-122084819D02*
X150647619Y-122084819D01*
X150647619Y-122084819D02*
X150504762Y-122037200D01*
X150504762Y-122037200D02*
X150409524Y-121941961D01*
X150409524Y-121941961D02*
X150361905Y-121846723D01*
X150361905Y-121846723D02*
X150314286Y-121656247D01*
X150314286Y-121656247D02*
X150314286Y-121513390D01*
X150314286Y-121513390D02*
X150361905Y-121322914D01*
X150361905Y-121322914D02*
X150409524Y-121227676D01*
X150409524Y-121227676D02*
X150504762Y-121132438D01*
X150504762Y-121132438D02*
X150647619Y-121084819D01*
X150647619Y-121084819D02*
X150742857Y-121084819D01*
X150742857Y-121084819D02*
X150885714Y-121132438D01*
X150885714Y-121132438D02*
X150933333Y-121180057D01*
X151790476Y-121418152D02*
X151790476Y-122084819D01*
X151552381Y-121037200D02*
X151314286Y-121751485D01*
X151314286Y-121751485D02*
X151933333Y-121751485D01*
X113023333Y-66584819D02*
X112690000Y-66108628D01*
X112451905Y-66584819D02*
X112451905Y-65584819D01*
X112451905Y-65584819D02*
X112832857Y-65584819D01*
X112832857Y-65584819D02*
X112928095Y-65632438D01*
X112928095Y-65632438D02*
X112975714Y-65680057D01*
X112975714Y-65680057D02*
X113023333Y-65775295D01*
X113023333Y-65775295D02*
X113023333Y-65918152D01*
X113023333Y-65918152D02*
X112975714Y-66013390D01*
X112975714Y-66013390D02*
X112928095Y-66061009D01*
X112928095Y-66061009D02*
X112832857Y-66108628D01*
X112832857Y-66108628D02*
X112451905Y-66108628D01*
X113404286Y-65680057D02*
X113451905Y-65632438D01*
X113451905Y-65632438D02*
X113547143Y-65584819D01*
X113547143Y-65584819D02*
X113785238Y-65584819D01*
X113785238Y-65584819D02*
X113880476Y-65632438D01*
X113880476Y-65632438D02*
X113928095Y-65680057D01*
X113928095Y-65680057D02*
X113975714Y-65775295D01*
X113975714Y-65775295D02*
X113975714Y-65870533D01*
X113975714Y-65870533D02*
X113928095Y-66013390D01*
X113928095Y-66013390D02*
X113356667Y-66584819D01*
X113356667Y-66584819D02*
X113975714Y-66584819D01*
X100690476Y-90704819D02*
X101023809Y-91704819D01*
X101023809Y-91704819D02*
X101357142Y-90704819D01*
X102261904Y-91609580D02*
X102214285Y-91657200D01*
X102214285Y-91657200D02*
X102071428Y-91704819D01*
X102071428Y-91704819D02*
X101976190Y-91704819D01*
X101976190Y-91704819D02*
X101833333Y-91657200D01*
X101833333Y-91657200D02*
X101738095Y-91561961D01*
X101738095Y-91561961D02*
X101690476Y-91466723D01*
X101690476Y-91466723D02*
X101642857Y-91276247D01*
X101642857Y-91276247D02*
X101642857Y-91133390D01*
X101642857Y-91133390D02*
X101690476Y-90942914D01*
X101690476Y-90942914D02*
X101738095Y-90847676D01*
X101738095Y-90847676D02*
X101833333Y-90752438D01*
X101833333Y-90752438D02*
X101976190Y-90704819D01*
X101976190Y-90704819D02*
X102071428Y-90704819D01*
X102071428Y-90704819D02*
X102214285Y-90752438D01*
X102214285Y-90752438D02*
X102261904Y-90800057D01*
X103261904Y-91609580D02*
X103214285Y-91657200D01*
X103214285Y-91657200D02*
X103071428Y-91704819D01*
X103071428Y-91704819D02*
X102976190Y-91704819D01*
X102976190Y-91704819D02*
X102833333Y-91657200D01*
X102833333Y-91657200D02*
X102738095Y-91561961D01*
X102738095Y-91561961D02*
X102690476Y-91466723D01*
X102690476Y-91466723D02*
X102642857Y-91276247D01*
X102642857Y-91276247D02*
X102642857Y-91133390D01*
X102642857Y-91133390D02*
X102690476Y-90942914D01*
X102690476Y-90942914D02*
X102738095Y-90847676D01*
X102738095Y-90847676D02*
X102833333Y-90752438D01*
X102833333Y-90752438D02*
X102976190Y-90704819D01*
X102976190Y-90704819D02*
X103071428Y-90704819D01*
X103071428Y-90704819D02*
X103214285Y-90752438D01*
X103214285Y-90752438D02*
X103261904Y-90800057D01*
X104214285Y-91704819D02*
X103642857Y-91704819D01*
X103928571Y-91704819D02*
X103928571Y-90704819D01*
X103928571Y-90704819D02*
X103833333Y-90847676D01*
X103833333Y-90847676D02*
X103738095Y-90942914D01*
X103738095Y-90942914D02*
X103642857Y-90990533D01*
D13*
%TO.C,RV1*%
X172890000Y-90390000D02*
X189110000Y-90390000D01*
X172890000Y-98110000D02*
X172890000Y-90390000D01*
X177390000Y-98110000D02*
X184610000Y-98110000D01*
X189110000Y-90390000D02*
X189110000Y-98110000D01*
X189110000Y-98110000D02*
X172890000Y-98110000D01*
X125890000Y-90390000D02*
X142110000Y-90390000D01*
X125890000Y-98110000D02*
X125890000Y-90390000D01*
X130390000Y-98110000D02*
X137610000Y-98110000D01*
X142110000Y-90390000D02*
X142110000Y-98110000D01*
X142110000Y-98110000D02*
X125890000Y-98110000D01*
X189110000Y-143110000D02*
X172890000Y-143110000D01*
X189110000Y-135390000D02*
X189110000Y-143110000D01*
X184610000Y-148110000D02*
X177390000Y-148110000D01*
X184610000Y-143110000D02*
X184610000Y-148110000D01*
X183110000Y-158110000D02*
X178890000Y-158110000D01*
X183110000Y-148110000D02*
X183110000Y-158110000D01*
X178890000Y-158110000D02*
X178890000Y-148110000D01*
X178890000Y-148110000D02*
X183110000Y-148110000D01*
X177390000Y-148110000D02*
X177390000Y-143110000D01*
X177390000Y-143110000D02*
X184610000Y-143110000D01*
X172890000Y-143110000D02*
X172890000Y-135390000D01*
X172890000Y-135390000D02*
X189110000Y-135390000D01*
%TO.C,C2*%
X141217349Y-84000000D02*
G75*
G02*
X132977349Y-84000000I-4120000J0D01*
G01*
X132977349Y-84000000D02*
G75*
G02*
X141217349Y-84000000I4120000J0D01*
G01*
X141177349Y-83467000D02*
X141177349Y-84533000D01*
X141137349Y-83232000D02*
X141137349Y-84768000D01*
X141097349Y-83053000D02*
X141097349Y-84947000D01*
X141057349Y-82903000D02*
X141057349Y-85097000D01*
X141017349Y-82772000D02*
X141017349Y-85228000D01*
X140977349Y-82654000D02*
X140977349Y-85346000D01*
X140937349Y-82547000D02*
X140937349Y-85453000D01*
X140897349Y-82448000D02*
X140897349Y-85552000D01*
X140857349Y-82356000D02*
X140857349Y-85644000D01*
X140817349Y-82269000D02*
X140817349Y-85731000D01*
X140777349Y-82187000D02*
X140777349Y-85813000D01*
X140737349Y-82110000D02*
X140737349Y-85890000D01*
X140697349Y-82036000D02*
X140697349Y-85964000D01*
X140657349Y-81966000D02*
X140657349Y-86034000D01*
X140617349Y-81899000D02*
X140617349Y-86101000D01*
X140577349Y-81835000D02*
X140577349Y-86165000D01*
X140537349Y-81773000D02*
X140537349Y-86227000D01*
X140497349Y-81713000D02*
X140497349Y-86287000D01*
X140457349Y-81656000D02*
X140457349Y-86344000D01*
X140417349Y-81600000D02*
X140417349Y-86400000D01*
X140377349Y-81547000D02*
X140377349Y-86453000D01*
X140337349Y-81495000D02*
X140337349Y-86505000D01*
X140297349Y-81445000D02*
X140297349Y-86555000D01*
X140257349Y-81396000D02*
X140257349Y-86604000D01*
X140217349Y-81349000D02*
X140217349Y-86651000D01*
X140177349Y-81304000D02*
X140177349Y-86696000D01*
X140137349Y-81259000D02*
X140137349Y-86741000D01*
X140097349Y-81216000D02*
X140097349Y-86784000D01*
X140057349Y-81174000D02*
X140057349Y-86826000D01*
X140017349Y-85040000D02*
X140017349Y-86867000D01*
X140017349Y-81133000D02*
X140017349Y-82960000D01*
X139977349Y-85040000D02*
X139977349Y-86906000D01*
X139977349Y-81094000D02*
X139977349Y-82960000D01*
X139937349Y-85040000D02*
X139937349Y-86945000D01*
X139937349Y-81055000D02*
X139937349Y-82960000D01*
X139897349Y-85040000D02*
X139897349Y-86982000D01*
X139897349Y-81018000D02*
X139897349Y-82960000D01*
X139857349Y-85040000D02*
X139857349Y-87019000D01*
X139857349Y-80981000D02*
X139857349Y-82960000D01*
X139817349Y-85040000D02*
X139817349Y-87055000D01*
X139817349Y-80945000D02*
X139817349Y-82960000D01*
X139777349Y-85040000D02*
X139777349Y-87089000D01*
X139777349Y-80911000D02*
X139777349Y-82960000D01*
X139737349Y-85040000D02*
X139737349Y-87123000D01*
X139737349Y-80877000D02*
X139737349Y-82960000D01*
X139697349Y-85040000D02*
X139697349Y-87156000D01*
X139697349Y-80844000D02*
X139697349Y-82960000D01*
X139657349Y-85040000D02*
X139657349Y-87188000D01*
X139657349Y-80812000D02*
X139657349Y-82960000D01*
X139617349Y-85040000D02*
X139617349Y-87219000D01*
X139617349Y-80781000D02*
X139617349Y-82960000D01*
X139577349Y-85040000D02*
X139577349Y-87250000D01*
X139577349Y-80750000D02*
X139577349Y-82960000D01*
X139537349Y-85040000D02*
X139537349Y-87280000D01*
X139537349Y-80720000D02*
X139537349Y-82960000D01*
X139497349Y-85040000D02*
X139497349Y-87309000D01*
X139497349Y-80691000D02*
X139497349Y-82960000D01*
X139457349Y-85040000D02*
X139457349Y-87337000D01*
X139457349Y-80663000D02*
X139457349Y-82960000D01*
X139417349Y-85040000D02*
X139417349Y-87365000D01*
X139417349Y-80635000D02*
X139417349Y-82960000D01*
X139377349Y-85040000D02*
X139377349Y-87392000D01*
X139377349Y-80608000D02*
X139377349Y-82960000D01*
X139337349Y-85040000D02*
X139337349Y-87418000D01*
X139337349Y-80582000D02*
X139337349Y-82960000D01*
X139297349Y-85040000D02*
X139297349Y-87443000D01*
X139297349Y-80557000D02*
X139297349Y-82960000D01*
X139257349Y-85040000D02*
X139257349Y-87468000D01*
X139257349Y-80532000D02*
X139257349Y-82960000D01*
X139217349Y-85040000D02*
X139217349Y-87493000D01*
X139217349Y-80507000D02*
X139217349Y-82960000D01*
X139177349Y-85040000D02*
X139177349Y-87516000D01*
X139177349Y-80484000D02*
X139177349Y-82960000D01*
X139137349Y-85040000D02*
X139137349Y-87539000D01*
X139137349Y-80461000D02*
X139137349Y-82960000D01*
X139097349Y-85040000D02*
X139097349Y-87562000D01*
X139097349Y-80438000D02*
X139097349Y-82960000D01*
X139057349Y-85040000D02*
X139057349Y-87584000D01*
X139057349Y-80416000D02*
X139057349Y-82960000D01*
X139017349Y-85040000D02*
X139017349Y-87605000D01*
X139017349Y-80395000D02*
X139017349Y-82960000D01*
X138977349Y-85040000D02*
X138977349Y-87626000D01*
X138977349Y-80374000D02*
X138977349Y-82960000D01*
X138937349Y-85040000D02*
X138937349Y-87646000D01*
X138937349Y-80354000D02*
X138937349Y-82960000D01*
X138897349Y-85040000D02*
X138897349Y-87666000D01*
X138897349Y-80334000D02*
X138897349Y-82960000D01*
X138857349Y-85040000D02*
X138857349Y-87685000D01*
X138857349Y-80315000D02*
X138857349Y-82960000D01*
X138817349Y-85040000D02*
X138817349Y-87704000D01*
X138817349Y-80296000D02*
X138817349Y-82960000D01*
X138777349Y-85040000D02*
X138777349Y-87722000D01*
X138777349Y-80278000D02*
X138777349Y-82960000D01*
X138737349Y-85040000D02*
X138737349Y-87740000D01*
X138737349Y-80260000D02*
X138737349Y-82960000D01*
X138697349Y-85040000D02*
X138697349Y-87757000D01*
X138697349Y-80243000D02*
X138697349Y-82960000D01*
X138657349Y-85040000D02*
X138657349Y-87773000D01*
X138657349Y-80227000D02*
X138657349Y-82960000D01*
X138617349Y-85040000D02*
X138617349Y-87789000D01*
X138617349Y-80211000D02*
X138617349Y-82960000D01*
X138577349Y-85040000D02*
X138577349Y-87805000D01*
X138577349Y-80195000D02*
X138577349Y-82960000D01*
X138537349Y-85040000D02*
X138537349Y-87820000D01*
X138537349Y-80180000D02*
X138537349Y-82960000D01*
X138497349Y-85040000D02*
X138497349Y-87835000D01*
X138497349Y-80165000D02*
X138497349Y-82960000D01*
X138457349Y-85040000D02*
X138457349Y-87849000D01*
X138457349Y-80151000D02*
X138457349Y-82960000D01*
X138417349Y-85040000D02*
X138417349Y-87863000D01*
X138417349Y-80137000D02*
X138417349Y-82960000D01*
X138377349Y-85040000D02*
X138377349Y-87876000D01*
X138377349Y-80124000D02*
X138377349Y-82960000D01*
X138337349Y-85040000D02*
X138337349Y-87889000D01*
X138337349Y-80111000D02*
X138337349Y-82960000D01*
X138297349Y-85040000D02*
X138297349Y-87901000D01*
X138297349Y-80099000D02*
X138297349Y-82960000D01*
X138257349Y-85040000D02*
X138257349Y-87913000D01*
X138257349Y-80087000D02*
X138257349Y-82960000D01*
X138217349Y-85040000D02*
X138217349Y-87925000D01*
X138217349Y-80075000D02*
X138217349Y-82960000D01*
X138177349Y-85040000D02*
X138177349Y-87936000D01*
X138177349Y-80064000D02*
X138177349Y-82960000D01*
X138137349Y-85040000D02*
X138137349Y-87947000D01*
X138137349Y-80053000D02*
X138137349Y-82960000D01*
X138097349Y-85040000D02*
X138097349Y-87957000D01*
X138097349Y-80043000D02*
X138097349Y-82960000D01*
X138057349Y-85040000D02*
X138057349Y-87967000D01*
X138057349Y-80033000D02*
X138057349Y-82960000D01*
X138017349Y-85040000D02*
X138017349Y-87976000D01*
X138017349Y-80024000D02*
X138017349Y-82960000D01*
X137977349Y-85040000D02*
X137977349Y-87985000D01*
X137977349Y-80015000D02*
X137977349Y-82960000D01*
X137937349Y-80007000D02*
X137937349Y-87993000D01*
X137897349Y-79998000D02*
X137897349Y-88002000D01*
X137857349Y-79991000D02*
X137857349Y-88009000D01*
X137817349Y-79983000D02*
X137817349Y-88017000D01*
X137777349Y-79977000D02*
X137777349Y-88023000D01*
X137737349Y-79970000D02*
X137737349Y-88030000D01*
X137697349Y-79964000D02*
X137697349Y-88036000D01*
X137657349Y-79958000D02*
X137657349Y-88042000D01*
X137617349Y-79953000D02*
X137617349Y-88047000D01*
X137577349Y-79948000D02*
X137577349Y-88052000D01*
X137537349Y-79944000D02*
X137537349Y-88056000D01*
X137497349Y-79939000D02*
X137497349Y-88061000D01*
X137457349Y-79936000D02*
X137457349Y-88064000D01*
X137417349Y-79932000D02*
X137417349Y-88068000D01*
X137377349Y-79930000D02*
X137377349Y-88070000D01*
X137337349Y-79927000D02*
X137337349Y-88073000D01*
X137297349Y-79925000D02*
X137297349Y-88075000D01*
X137257349Y-79923000D02*
X137257349Y-88077000D01*
X137217349Y-79922000D02*
X137217349Y-88078000D01*
X137177349Y-79921000D02*
X137177349Y-88079000D01*
X137137349Y-79920000D02*
X137137349Y-88080000D01*
X137097349Y-79920000D02*
X137097349Y-88080000D01*
X133087651Y-81285000D02*
X133087651Y-82085000D01*
X132687651Y-81685000D02*
X133487651Y-81685000D01*
%TO.C,C3*%
X113370000Y-82500000D02*
X112835000Y-82500000D01*
X113370000Y-76260000D02*
X113370000Y-82500000D01*
X112835000Y-76260000D02*
X113370000Y-76260000D01*
X111165000Y-82500000D02*
X110630000Y-82500000D01*
X110630000Y-82500000D02*
X110630000Y-76260000D01*
X110630000Y-76260000D02*
X111165000Y-76260000D01*
%TO.C,R1*%
X118370000Y-83960000D02*
X118370000Y-77420000D01*
X118370000Y-77420000D02*
X118040000Y-77420000D01*
X118040000Y-83960000D02*
X118370000Y-83960000D01*
X115960000Y-83960000D02*
X115630000Y-83960000D01*
X115630000Y-83960000D02*
X115630000Y-77420000D01*
X115630000Y-77420000D02*
X115960000Y-77420000D01*
%TO.C,D1*%
X148670000Y-66955000D02*
X148670000Y-70045000D01*
X148670000Y-66955170D02*
G75*
G02*
X154220000Y-68500000I2560000J-1544830D01*
G01*
X154220000Y-68500000D02*
G75*
G02*
X148670000Y-70044830I-2990000J0D01*
G01*
X153730000Y-68500000D02*
G75*
G02*
X148730000Y-68500000I-2500000J0D01*
G01*
X148730000Y-68500000D02*
G75*
G02*
X153730000Y-68500000I2500000J0D01*
G01*
%TO.C,C5*%
X158380000Y-61880000D02*
X164620000Y-61880000D01*
X158380000Y-62415000D02*
X158380000Y-61880000D01*
X158380000Y-64620000D02*
X158380000Y-64085000D01*
X164620000Y-61880000D02*
X164620000Y-62415000D01*
X164620000Y-64085000D02*
X164620000Y-64620000D01*
X164620000Y-64620000D02*
X158380000Y-64620000D01*
%TO.C,OUT1*%
X167070000Y-58690000D02*
X167070000Y-66310000D01*
X167070000Y-59960000D02*
X177230000Y-59960000D01*
X167070000Y-66310000D02*
X177230000Y-66310000D01*
X177230000Y-58690000D02*
X167070000Y-58690000D01*
X177230000Y-66310000D02*
X177230000Y-58690000D01*
%TO.C,C3*%
X157630000Y-76260000D02*
X158165000Y-76260000D01*
X157630000Y-82500000D02*
X157630000Y-76260000D01*
X158165000Y-82500000D02*
X157630000Y-82500000D01*
X159835000Y-76260000D02*
X160370000Y-76260000D01*
X160370000Y-76260000D02*
X160370000Y-82500000D01*
X160370000Y-82500000D02*
X159835000Y-82500000D01*
%TO.C,C6*%
X142252323Y-65500000D02*
G75*
G02*
X132012323Y-65500000I-5120000J0D01*
G01*
X132012323Y-65500000D02*
G75*
G02*
X142252323Y-65500000I5120000J0D01*
G01*
X142212323Y-64901000D02*
X142212323Y-66099000D01*
X142172323Y-64638000D02*
X142172323Y-66362000D01*
X142132323Y-64438000D02*
X142132323Y-66562000D01*
X142092323Y-64270000D02*
X142092323Y-66730000D01*
X142052323Y-64123000D02*
X142052323Y-66877000D01*
X142012323Y-63991000D02*
X142012323Y-67009000D01*
X141972323Y-63870000D02*
X141972323Y-67130000D01*
X141932323Y-63758000D02*
X141932323Y-67242000D01*
X141892323Y-63654000D02*
X141892323Y-67346000D01*
X141852323Y-63556000D02*
X141852323Y-67444000D01*
X141812323Y-63463000D02*
X141812323Y-67537000D01*
X141772323Y-63376000D02*
X141772323Y-67624000D01*
X141732323Y-63292000D02*
X141732323Y-67708000D01*
X141692323Y-63212000D02*
X141692323Y-67788000D01*
X141652323Y-63135000D02*
X141652323Y-67865000D01*
X141612323Y-63061000D02*
X141612323Y-67939000D01*
X141572323Y-62990000D02*
X141572323Y-68010000D01*
X141532323Y-62922000D02*
X141532323Y-68078000D01*
X141492323Y-62856000D02*
X141492323Y-68144000D01*
X141452323Y-62792000D02*
X141452323Y-68208000D01*
X141412323Y-62730000D02*
X141412323Y-68270000D01*
X141372323Y-62670000D02*
X141372323Y-68330000D01*
X141332323Y-62612000D02*
X141332323Y-68388000D01*
X141292323Y-62555000D02*
X141292323Y-68445000D01*
X141252323Y-62500000D02*
X141252323Y-68500000D01*
X141212323Y-62447000D02*
X141212323Y-68553000D01*
X141172323Y-62395000D02*
X141172323Y-68605000D01*
X141132323Y-62344000D02*
X141132323Y-68656000D01*
X141092323Y-62295000D02*
X141092323Y-68705000D01*
X141052323Y-62246000D02*
X141052323Y-68754000D01*
X141012323Y-62199000D02*
X141012323Y-68801000D01*
X140972323Y-62153000D02*
X140972323Y-68847000D01*
X140932323Y-62109000D02*
X140932323Y-68891000D01*
X140892323Y-62065000D02*
X140892323Y-68935000D01*
X140852323Y-66740000D02*
X140852323Y-68978000D01*
X140852323Y-62022000D02*
X140852323Y-64260000D01*
X140812323Y-66740000D02*
X140812323Y-69020000D01*
X140812323Y-61980000D02*
X140812323Y-64260000D01*
X140772323Y-66740000D02*
X140772323Y-69061000D01*
X140772323Y-61939000D02*
X140772323Y-64260000D01*
X140732323Y-66740000D02*
X140732323Y-69101000D01*
X140732323Y-61899000D02*
X140732323Y-64260000D01*
X140692323Y-66740000D02*
X140692323Y-69140000D01*
X140692323Y-61860000D02*
X140692323Y-64260000D01*
X140652323Y-66740000D02*
X140652323Y-69178000D01*
X140652323Y-61822000D02*
X140652323Y-64260000D01*
X140612323Y-66740000D02*
X140612323Y-69216000D01*
X140612323Y-61784000D02*
X140612323Y-64260000D01*
X140572323Y-66740000D02*
X140572323Y-69252000D01*
X140572323Y-61748000D02*
X140572323Y-64260000D01*
X140532323Y-66740000D02*
X140532323Y-69288000D01*
X140532323Y-61712000D02*
X140532323Y-64260000D01*
X140492323Y-66740000D02*
X140492323Y-69323000D01*
X140492323Y-61677000D02*
X140492323Y-64260000D01*
X140452323Y-66740000D02*
X140452323Y-69358000D01*
X140452323Y-61642000D02*
X140452323Y-64260000D01*
X140412323Y-66740000D02*
X140412323Y-69391000D01*
X140412323Y-61609000D02*
X140412323Y-64260000D01*
X140372323Y-66740000D02*
X140372323Y-69424000D01*
X140372323Y-61576000D02*
X140372323Y-64260000D01*
X140332323Y-66740000D02*
X140332323Y-69457000D01*
X140332323Y-61543000D02*
X140332323Y-64260000D01*
X140292323Y-66740000D02*
X140292323Y-69488000D01*
X140292323Y-61512000D02*
X140292323Y-64260000D01*
X140252323Y-66740000D02*
X140252323Y-69520000D01*
X140252323Y-61480000D02*
X140252323Y-64260000D01*
X140212323Y-66740000D02*
X140212323Y-69550000D01*
X140212323Y-61450000D02*
X140212323Y-64260000D01*
X140172323Y-66740000D02*
X140172323Y-69580000D01*
X140172323Y-61420000D02*
X140172323Y-64260000D01*
X140132323Y-66740000D02*
X140132323Y-69609000D01*
X140132323Y-61391000D02*
X140132323Y-64260000D01*
X140092323Y-66740000D02*
X140092323Y-69638000D01*
X140092323Y-61362000D02*
X140092323Y-64260000D01*
X140052323Y-66740000D02*
X140052323Y-69666000D01*
X140052323Y-61334000D02*
X140052323Y-64260000D01*
X140012323Y-66740000D02*
X140012323Y-69693000D01*
X140012323Y-61307000D02*
X140012323Y-64260000D01*
X139972323Y-66740000D02*
X139972323Y-69720000D01*
X139972323Y-61280000D02*
X139972323Y-64260000D01*
X139932323Y-66740000D02*
X139932323Y-69747000D01*
X139932323Y-61253000D02*
X139932323Y-64260000D01*
X139892323Y-66740000D02*
X139892323Y-69772000D01*
X139892323Y-61228000D02*
X139892323Y-64260000D01*
X139852323Y-66740000D02*
X139852323Y-69798000D01*
X139852323Y-61202000D02*
X139852323Y-64260000D01*
X139812323Y-66740000D02*
X139812323Y-69823000D01*
X139812323Y-61177000D02*
X139812323Y-64260000D01*
X139772323Y-66740000D02*
X139772323Y-69847000D01*
X139772323Y-61153000D02*
X139772323Y-64260000D01*
X139732323Y-66740000D02*
X139732323Y-69871000D01*
X139732323Y-61129000D02*
X139732323Y-64260000D01*
X139692323Y-66740000D02*
X139692323Y-69894000D01*
X139692323Y-61106000D02*
X139692323Y-64260000D01*
X139652323Y-66740000D02*
X139652323Y-69917000D01*
X139652323Y-61083000D02*
X139652323Y-64260000D01*
X139612323Y-66740000D02*
X139612323Y-69939000D01*
X139612323Y-61061000D02*
X139612323Y-64260000D01*
X139572323Y-66740000D02*
X139572323Y-69961000D01*
X139572323Y-61039000D02*
X139572323Y-64260000D01*
X139532323Y-66740000D02*
X139532323Y-69983000D01*
X139532323Y-61017000D02*
X139532323Y-64260000D01*
X139492323Y-66740000D02*
X139492323Y-70004000D01*
X139492323Y-60996000D02*
X139492323Y-64260000D01*
X139452323Y-66740000D02*
X139452323Y-70024000D01*
X139452323Y-60976000D02*
X139452323Y-64260000D01*
X139412323Y-66740000D02*
X139412323Y-70044000D01*
X139412323Y-60956000D02*
X139412323Y-64260000D01*
X139372323Y-66740000D02*
X139372323Y-70064000D01*
X139372323Y-60936000D02*
X139372323Y-64260000D01*
X139332323Y-66740000D02*
X139332323Y-70083000D01*
X139332323Y-60917000D02*
X139332323Y-64260000D01*
X139292323Y-66740000D02*
X139292323Y-70102000D01*
X139292323Y-60898000D02*
X139292323Y-64260000D01*
X139252323Y-66740000D02*
X139252323Y-70120000D01*
X139252323Y-60880000D02*
X139252323Y-64260000D01*
X139212323Y-66740000D02*
X139212323Y-70138000D01*
X139212323Y-60862000D02*
X139212323Y-64260000D01*
X139172323Y-66740000D02*
X139172323Y-70156000D01*
X139172323Y-60844000D02*
X139172323Y-64260000D01*
X139132323Y-66740000D02*
X139132323Y-70173000D01*
X139132323Y-60827000D02*
X139132323Y-64260000D01*
X139092323Y-66740000D02*
X139092323Y-70190000D01*
X139092323Y-60810000D02*
X139092323Y-64260000D01*
X139052323Y-66740000D02*
X139052323Y-70206000D01*
X139052323Y-60794000D02*
X139052323Y-64260000D01*
X139012323Y-66740000D02*
X139012323Y-70222000D01*
X139012323Y-60778000D02*
X139012323Y-64260000D01*
X138972323Y-66740000D02*
X138972323Y-70238000D01*
X138972323Y-60762000D02*
X138972323Y-64260000D01*
X138932323Y-66740000D02*
X138932323Y-70253000D01*
X138932323Y-60747000D02*
X138932323Y-64260000D01*
X138892323Y-66740000D02*
X138892323Y-70268000D01*
X138892323Y-60732000D02*
X138892323Y-64260000D01*
X138852323Y-66740000D02*
X138852323Y-70282000D01*
X138852323Y-60718000D02*
X138852323Y-64260000D01*
X138812323Y-66740000D02*
X138812323Y-70297000D01*
X138812323Y-60703000D02*
X138812323Y-64260000D01*
X138772323Y-66740000D02*
X138772323Y-70310000D01*
X138772323Y-60690000D02*
X138772323Y-64260000D01*
X138732323Y-66740000D02*
X138732323Y-70324000D01*
X138732323Y-60676000D02*
X138732323Y-64260000D01*
X138692323Y-66740000D02*
X138692323Y-70337000D01*
X138692323Y-60663000D02*
X138692323Y-64260000D01*
X138652323Y-66740000D02*
X138652323Y-70349000D01*
X138652323Y-60651000D02*
X138652323Y-64260000D01*
X138612323Y-66740000D02*
X138612323Y-70361000D01*
X138612323Y-60639000D02*
X138612323Y-64260000D01*
X138572323Y-66740000D02*
X138572323Y-70373000D01*
X138572323Y-60627000D02*
X138572323Y-64260000D01*
X138532323Y-66740000D02*
X138532323Y-70385000D01*
X138532323Y-60615000D02*
X138532323Y-64260000D01*
X138492323Y-66740000D02*
X138492323Y-70396000D01*
X138492323Y-60604000D02*
X138492323Y-64260000D01*
X138452323Y-66740000D02*
X138452323Y-70407000D01*
X138452323Y-60593000D02*
X138452323Y-64260000D01*
X138412323Y-66740000D02*
X138412323Y-70417000D01*
X138412323Y-60583000D02*
X138412323Y-64260000D01*
X138372323Y-60572000D02*
X138372323Y-70428000D01*
X138332323Y-60563000D02*
X138332323Y-70437000D01*
X138292323Y-60553000D02*
X138292323Y-70447000D01*
X138252323Y-60544000D02*
X138252323Y-70456000D01*
X138212323Y-60535000D02*
X138212323Y-70465000D01*
X138172323Y-60527000D02*
X138172323Y-70473000D01*
X138132323Y-60519000D02*
X138132323Y-70481000D01*
X138092323Y-60511000D02*
X138092323Y-70489000D01*
X138052323Y-60503000D02*
X138052323Y-70497000D01*
X138012323Y-60496000D02*
X138012323Y-70504000D01*
X137972323Y-60489000D02*
X137972323Y-70511000D01*
X137932323Y-60483000D02*
X137932323Y-70517000D01*
X137892323Y-60477000D02*
X137892323Y-70523000D01*
X137852323Y-60471000D02*
X137852323Y-70529000D01*
X137812323Y-60465000D02*
X137812323Y-70535000D01*
X137772323Y-60460000D02*
X137772323Y-70540000D01*
X137732323Y-60455000D02*
X137732323Y-70545000D01*
X137692323Y-60451000D02*
X137692323Y-70549000D01*
X137652323Y-60446000D02*
X137652323Y-70554000D01*
X137612323Y-60443000D02*
X137612323Y-70557000D01*
X137572323Y-60439000D02*
X137572323Y-70561000D01*
X137532323Y-60436000D02*
X137532323Y-70564000D01*
X137492323Y-60433000D02*
X137492323Y-70567000D01*
X137452323Y-60430000D02*
X137452323Y-70570000D01*
X137412323Y-60428000D02*
X137412323Y-70572000D01*
X137372323Y-60426000D02*
X137372323Y-70574000D01*
X137332323Y-60424000D02*
X137332323Y-70576000D01*
X137292323Y-60423000D02*
X137292323Y-70577000D01*
X137252323Y-60421000D02*
X137252323Y-70579000D01*
X137212323Y-60421000D02*
X137212323Y-70579000D01*
X137172323Y-60420000D02*
X137172323Y-70580000D01*
X137132323Y-60420000D02*
X137132323Y-70580000D01*
X132152677Y-62125000D02*
X132152677Y-63125000D01*
X131652677Y-62625000D02*
X132652677Y-62625000D01*
%TO.C,IN1*%
X160380000Y-92690000D02*
X160380000Y-100310000D01*
X160380000Y-100310000D02*
X170540000Y-100310000D01*
X170540000Y-92690000D02*
X160380000Y-92690000D01*
X170540000Y-99040000D02*
X160380000Y-99040000D01*
X170540000Y-100310000D02*
X170540000Y-92690000D01*
%TO.C,C4*%
X108220000Y-81880000D02*
G75*
G02*
X99980000Y-81880000I-4120000J0D01*
G01*
X99980000Y-81880000D02*
G75*
G02*
X108220000Y-81880000I4120000J0D01*
G01*
X108180000Y-81347000D02*
X108180000Y-82413000D01*
X108140000Y-81112000D02*
X108140000Y-82648000D01*
X108100000Y-80933000D02*
X108100000Y-82827000D01*
X108060000Y-80783000D02*
X108060000Y-82977000D01*
X108020000Y-80652000D02*
X108020000Y-83108000D01*
X107980000Y-80534000D02*
X107980000Y-83226000D01*
X107940000Y-80427000D02*
X107940000Y-83333000D01*
X107900000Y-80328000D02*
X107900000Y-83432000D01*
X107860000Y-80236000D02*
X107860000Y-83524000D01*
X107820000Y-80149000D02*
X107820000Y-83611000D01*
X107780000Y-80067000D02*
X107780000Y-83693000D01*
X107740000Y-79990000D02*
X107740000Y-83770000D01*
X107700000Y-79916000D02*
X107700000Y-83844000D01*
X107660000Y-79846000D02*
X107660000Y-83914000D01*
X107620000Y-79779000D02*
X107620000Y-83981000D01*
X107580000Y-79715000D02*
X107580000Y-84045000D01*
X107540000Y-79653000D02*
X107540000Y-84107000D01*
X107500000Y-79593000D02*
X107500000Y-84167000D01*
X107460000Y-79536000D02*
X107460000Y-84224000D01*
X107420000Y-79480000D02*
X107420000Y-84280000D01*
X107380000Y-79427000D02*
X107380000Y-84333000D01*
X107340000Y-79375000D02*
X107340000Y-84385000D01*
X107300000Y-79325000D02*
X107300000Y-84435000D01*
X107260000Y-79276000D02*
X107260000Y-84484000D01*
X107220000Y-79229000D02*
X107220000Y-84531000D01*
X107180000Y-79184000D02*
X107180000Y-84576000D01*
X107140000Y-79139000D02*
X107140000Y-84621000D01*
X107100000Y-79096000D02*
X107100000Y-84664000D01*
X107060000Y-79054000D02*
X107060000Y-84706000D01*
X107020000Y-82920000D02*
X107020000Y-84747000D01*
X107020000Y-79013000D02*
X107020000Y-80840000D01*
X106980000Y-82920000D02*
X106980000Y-84786000D01*
X106980000Y-78974000D02*
X106980000Y-80840000D01*
X106940000Y-82920000D02*
X106940000Y-84825000D01*
X106940000Y-78935000D02*
X106940000Y-80840000D01*
X106900000Y-82920000D02*
X106900000Y-84862000D01*
X106900000Y-78898000D02*
X106900000Y-80840000D01*
X106860000Y-82920000D02*
X106860000Y-84899000D01*
X106860000Y-78861000D02*
X106860000Y-80840000D01*
X106820000Y-82920000D02*
X106820000Y-84935000D01*
X106820000Y-78825000D02*
X106820000Y-80840000D01*
X106780000Y-82920000D02*
X106780000Y-84969000D01*
X106780000Y-78791000D02*
X106780000Y-80840000D01*
X106740000Y-82920000D02*
X106740000Y-85003000D01*
X106740000Y-78757000D02*
X106740000Y-80840000D01*
X106700000Y-82920000D02*
X106700000Y-85036000D01*
X106700000Y-78724000D02*
X106700000Y-80840000D01*
X106660000Y-82920000D02*
X106660000Y-85068000D01*
X106660000Y-78692000D02*
X106660000Y-80840000D01*
X106620000Y-82920000D02*
X106620000Y-85099000D01*
X106620000Y-78661000D02*
X106620000Y-80840000D01*
X106580000Y-82920000D02*
X106580000Y-85130000D01*
X106580000Y-78630000D02*
X106580000Y-80840000D01*
X106540000Y-82920000D02*
X106540000Y-85160000D01*
X106540000Y-78600000D02*
X106540000Y-80840000D01*
X106500000Y-82920000D02*
X106500000Y-85189000D01*
X106500000Y-78571000D02*
X106500000Y-80840000D01*
X106460000Y-82920000D02*
X106460000Y-85217000D01*
X106460000Y-78543000D02*
X106460000Y-80840000D01*
X106420000Y-82920000D02*
X106420000Y-85245000D01*
X106420000Y-78515000D02*
X106420000Y-80840000D01*
X106380000Y-82920000D02*
X106380000Y-85272000D01*
X106380000Y-78488000D02*
X106380000Y-80840000D01*
X106340000Y-82920000D02*
X106340000Y-85298000D01*
X106340000Y-78462000D02*
X106340000Y-80840000D01*
X106300000Y-82920000D02*
X106300000Y-85323000D01*
X106300000Y-78437000D02*
X106300000Y-80840000D01*
X106260000Y-82920000D02*
X106260000Y-85348000D01*
X106260000Y-78412000D02*
X106260000Y-80840000D01*
X106220000Y-82920000D02*
X106220000Y-85373000D01*
X106220000Y-78387000D02*
X106220000Y-80840000D01*
X106180000Y-82920000D02*
X106180000Y-85396000D01*
X106180000Y-78364000D02*
X106180000Y-80840000D01*
X106140000Y-82920000D02*
X106140000Y-85419000D01*
X106140000Y-78341000D02*
X106140000Y-80840000D01*
X106100000Y-82920000D02*
X106100000Y-85442000D01*
X106100000Y-78318000D02*
X106100000Y-80840000D01*
X106060000Y-82920000D02*
X106060000Y-85464000D01*
X106060000Y-78296000D02*
X106060000Y-80840000D01*
X106020000Y-82920000D02*
X106020000Y-85485000D01*
X106020000Y-78275000D02*
X106020000Y-80840000D01*
X105980000Y-82920000D02*
X105980000Y-85506000D01*
X105980000Y-78254000D02*
X105980000Y-80840000D01*
X105940000Y-82920000D02*
X105940000Y-85526000D01*
X105940000Y-78234000D02*
X105940000Y-80840000D01*
X105900000Y-82920000D02*
X105900000Y-85546000D01*
X105900000Y-78214000D02*
X105900000Y-80840000D01*
X105860000Y-82920000D02*
X105860000Y-85565000D01*
X105860000Y-78195000D02*
X105860000Y-80840000D01*
X105820000Y-82920000D02*
X105820000Y-85584000D01*
X105820000Y-78176000D02*
X105820000Y-80840000D01*
X105780000Y-82920000D02*
X105780000Y-85602000D01*
X105780000Y-78158000D02*
X105780000Y-80840000D01*
X105740000Y-82920000D02*
X105740000Y-85620000D01*
X105740000Y-78140000D02*
X105740000Y-80840000D01*
X105700000Y-82920000D02*
X105700000Y-85637000D01*
X105700000Y-78123000D02*
X105700000Y-80840000D01*
X105660000Y-82920000D02*
X105660000Y-85653000D01*
X105660000Y-78107000D02*
X105660000Y-80840000D01*
X105620000Y-82920000D02*
X105620000Y-85669000D01*
X105620000Y-78091000D02*
X105620000Y-80840000D01*
X105580000Y-82920000D02*
X105580000Y-85685000D01*
X105580000Y-78075000D02*
X105580000Y-80840000D01*
X105540000Y-82920000D02*
X105540000Y-85700000D01*
X105540000Y-78060000D02*
X105540000Y-80840000D01*
X105500000Y-82920000D02*
X105500000Y-85715000D01*
X105500000Y-78045000D02*
X105500000Y-80840000D01*
X105460000Y-82920000D02*
X105460000Y-85729000D01*
X105460000Y-78031000D02*
X105460000Y-80840000D01*
X105420000Y-82920000D02*
X105420000Y-85743000D01*
X105420000Y-78017000D02*
X105420000Y-80840000D01*
X105380000Y-82920000D02*
X105380000Y-85756000D01*
X105380000Y-78004000D02*
X105380000Y-80840000D01*
X105340000Y-82920000D02*
X105340000Y-85769000D01*
X105340000Y-77991000D02*
X105340000Y-80840000D01*
X105300000Y-82920000D02*
X105300000Y-85781000D01*
X105300000Y-77979000D02*
X105300000Y-80840000D01*
X105260000Y-82920000D02*
X105260000Y-85793000D01*
X105260000Y-77967000D02*
X105260000Y-80840000D01*
X105220000Y-82920000D02*
X105220000Y-85805000D01*
X105220000Y-77955000D02*
X105220000Y-80840000D01*
X105180000Y-82920000D02*
X105180000Y-85816000D01*
X105180000Y-77944000D02*
X105180000Y-80840000D01*
X105140000Y-82920000D02*
X105140000Y-85827000D01*
X105140000Y-77933000D02*
X105140000Y-80840000D01*
X105100000Y-82920000D02*
X105100000Y-85837000D01*
X105100000Y-77923000D02*
X105100000Y-80840000D01*
X105060000Y-82920000D02*
X105060000Y-85847000D01*
X105060000Y-77913000D02*
X105060000Y-80840000D01*
X105020000Y-82920000D02*
X105020000Y-85856000D01*
X105020000Y-77904000D02*
X105020000Y-80840000D01*
X104980000Y-82920000D02*
X104980000Y-85865000D01*
X104980000Y-77895000D02*
X104980000Y-80840000D01*
X104940000Y-77887000D02*
X104940000Y-85873000D01*
X104900000Y-77878000D02*
X104900000Y-85882000D01*
X104860000Y-77871000D02*
X104860000Y-85889000D01*
X104820000Y-77863000D02*
X104820000Y-85897000D01*
X104780000Y-77857000D02*
X104780000Y-85903000D01*
X104740000Y-77850000D02*
X104740000Y-85910000D01*
X104700000Y-77844000D02*
X104700000Y-85916000D01*
X104660000Y-77838000D02*
X104660000Y-85922000D01*
X104620000Y-77833000D02*
X104620000Y-85927000D01*
X104580000Y-77828000D02*
X104580000Y-85932000D01*
X104540000Y-77824000D02*
X104540000Y-85936000D01*
X104500000Y-77819000D02*
X104500000Y-85941000D01*
X104460000Y-77816000D02*
X104460000Y-85944000D01*
X104420000Y-77812000D02*
X104420000Y-85948000D01*
X104380000Y-77810000D02*
X104380000Y-85950000D01*
X104340000Y-77807000D02*
X104340000Y-85953000D01*
X104300000Y-77805000D02*
X104300000Y-85955000D01*
X104260000Y-77803000D02*
X104260000Y-85957000D01*
X104220000Y-77802000D02*
X104220000Y-85958000D01*
X104180000Y-77801000D02*
X104180000Y-85959000D01*
X104140000Y-77800000D02*
X104140000Y-85960000D01*
X104100000Y-77800000D02*
X104100000Y-85960000D01*
X100090302Y-79165000D02*
X100090302Y-79965000D01*
X99690302Y-79565000D02*
X100490302Y-79565000D01*
%TO.C,R1*%
X162630000Y-77420000D02*
X162960000Y-77420000D01*
X162630000Y-83960000D02*
X162630000Y-77420000D01*
X162960000Y-83960000D02*
X162630000Y-83960000D01*
X165040000Y-83960000D02*
X165370000Y-83960000D01*
X165370000Y-77420000D02*
X165040000Y-77420000D01*
X165370000Y-83960000D02*
X165370000Y-77420000D01*
%TO.C,C1*%
X127620000Y-88370000D02*
X121380000Y-88370000D01*
X127620000Y-87835000D02*
X127620000Y-88370000D01*
X127620000Y-85630000D02*
X127620000Y-86165000D01*
X121380000Y-88370000D02*
X121380000Y-87835000D01*
X121380000Y-86165000D02*
X121380000Y-85630000D01*
X121380000Y-85630000D02*
X127620000Y-85630000D01*
%TO.C,U1*%
X126500000Y-71550000D02*
G75*
G02*
X124500000Y-71550000I-1000000J0D01*
G01*
X120250000Y-71490000D02*
X130750000Y-71490000D01*
X130750000Y-81890000D01*
X120250000Y-81890000D01*
X120250000Y-71490000D01*
X127750000Y-81830000D02*
X127750000Y-71550000D01*
X127750000Y-71550000D02*
X126500000Y-71550000D01*
X124500000Y-71550000D02*
X123250000Y-71550000D01*
X123250000Y-81830000D02*
X127750000Y-81830000D01*
X123250000Y-71550000D02*
X123250000Y-81830000D01*
%TO.C,D1*%
X106730000Y-68500000D02*
G75*
G02*
X101730000Y-68500000I-2500000J0D01*
G01*
X101730000Y-68500000D02*
G75*
G02*
X106730000Y-68500000I2500000J0D01*
G01*
X107220000Y-68500000D02*
G75*
G02*
X101670000Y-70044830I-2990000J0D01*
G01*
X101670000Y-66955170D02*
G75*
G02*
X107220000Y-68500000I2560000J-1544830D01*
G01*
X101670000Y-66955000D02*
X101670000Y-70045000D01*
%TO.C,IN1*%
X123540000Y-100310000D02*
X123540000Y-92690000D01*
X123540000Y-99040000D02*
X113380000Y-99040000D01*
X123540000Y-92690000D02*
X113380000Y-92690000D01*
X113380000Y-100310000D02*
X123540000Y-100310000D01*
X113380000Y-92690000D02*
X113380000Y-100310000D01*
%TO.C,C5*%
X117620000Y-64620000D02*
X111380000Y-64620000D01*
X117620000Y-64085000D02*
X117620000Y-64620000D01*
X117620000Y-61880000D02*
X117620000Y-62415000D01*
X111380000Y-64620000D02*
X111380000Y-64085000D01*
X111380000Y-62415000D02*
X111380000Y-61880000D01*
X111380000Y-61880000D02*
X117620000Y-61880000D01*
%TO.C,OUT1*%
X130230000Y-66310000D02*
X130230000Y-58690000D01*
X130230000Y-58690000D02*
X120070000Y-58690000D01*
X120070000Y-66310000D02*
X130230000Y-66310000D01*
X120070000Y-59960000D02*
X130230000Y-59960000D01*
X120070000Y-58690000D02*
X120070000Y-66310000D01*
%TO.C,D1*%
X101670000Y-111955000D02*
X101670000Y-115045000D01*
X101670000Y-111955170D02*
G75*
G02*
X107220000Y-113500000I2560000J-1544830D01*
G01*
X107220000Y-113500000D02*
G75*
G02*
X101670000Y-115044830I-2990000J0D01*
G01*
X106730000Y-113500000D02*
G75*
G02*
X101730000Y-113500000I-2500000J0D01*
G01*
X101730000Y-113500000D02*
G75*
G02*
X106730000Y-113500000I2500000J0D01*
G01*
%TO.C,C2*%
X132687651Y-126685000D02*
X133487651Y-126685000D01*
X133087651Y-126285000D02*
X133087651Y-127085000D01*
X137097349Y-124920000D02*
X137097349Y-133080000D01*
X137137349Y-124920000D02*
X137137349Y-133080000D01*
X137177349Y-124921000D02*
X137177349Y-133079000D01*
X137217349Y-124922000D02*
X137217349Y-133078000D01*
X137257349Y-124923000D02*
X137257349Y-133077000D01*
X137297349Y-124925000D02*
X137297349Y-133075000D01*
X137337349Y-124927000D02*
X137337349Y-133073000D01*
X137377349Y-124930000D02*
X137377349Y-133070000D01*
X137417349Y-124932000D02*
X137417349Y-133068000D01*
X137457349Y-124936000D02*
X137457349Y-133064000D01*
X137497349Y-124939000D02*
X137497349Y-133061000D01*
X137537349Y-124944000D02*
X137537349Y-133056000D01*
X137577349Y-124948000D02*
X137577349Y-133052000D01*
X137617349Y-124953000D02*
X137617349Y-133047000D01*
X137657349Y-124958000D02*
X137657349Y-133042000D01*
X137697349Y-124964000D02*
X137697349Y-133036000D01*
X137737349Y-124970000D02*
X137737349Y-133030000D01*
X137777349Y-124977000D02*
X137777349Y-133023000D01*
X137817349Y-124983000D02*
X137817349Y-133017000D01*
X137857349Y-124991000D02*
X137857349Y-133009000D01*
X137897349Y-124998000D02*
X137897349Y-133002000D01*
X137937349Y-125007000D02*
X137937349Y-132993000D01*
X137977349Y-125015000D02*
X137977349Y-127960000D01*
X137977349Y-130040000D02*
X137977349Y-132985000D01*
X138017349Y-125024000D02*
X138017349Y-127960000D01*
X138017349Y-130040000D02*
X138017349Y-132976000D01*
X138057349Y-125033000D02*
X138057349Y-127960000D01*
X138057349Y-130040000D02*
X138057349Y-132967000D01*
X138097349Y-125043000D02*
X138097349Y-127960000D01*
X138097349Y-130040000D02*
X138097349Y-132957000D01*
X138137349Y-125053000D02*
X138137349Y-127960000D01*
X138137349Y-130040000D02*
X138137349Y-132947000D01*
X138177349Y-125064000D02*
X138177349Y-127960000D01*
X138177349Y-130040000D02*
X138177349Y-132936000D01*
X138217349Y-125075000D02*
X138217349Y-127960000D01*
X138217349Y-130040000D02*
X138217349Y-132925000D01*
X138257349Y-125087000D02*
X138257349Y-127960000D01*
X138257349Y-130040000D02*
X138257349Y-132913000D01*
X138297349Y-125099000D02*
X138297349Y-127960000D01*
X138297349Y-130040000D02*
X138297349Y-132901000D01*
X138337349Y-125111000D02*
X138337349Y-127960000D01*
X138337349Y-130040000D02*
X138337349Y-132889000D01*
X138377349Y-125124000D02*
X138377349Y-127960000D01*
X138377349Y-130040000D02*
X138377349Y-132876000D01*
X138417349Y-125137000D02*
X138417349Y-127960000D01*
X138417349Y-130040000D02*
X138417349Y-132863000D01*
X138457349Y-125151000D02*
X138457349Y-127960000D01*
X138457349Y-130040000D02*
X138457349Y-132849000D01*
X138497349Y-125165000D02*
X138497349Y-127960000D01*
X138497349Y-130040000D02*
X138497349Y-132835000D01*
X138537349Y-125180000D02*
X138537349Y-127960000D01*
X138537349Y-130040000D02*
X138537349Y-132820000D01*
X138577349Y-125195000D02*
X138577349Y-127960000D01*
X138577349Y-130040000D02*
X138577349Y-132805000D01*
X138617349Y-125211000D02*
X138617349Y-127960000D01*
X138617349Y-130040000D02*
X138617349Y-132789000D01*
X138657349Y-125227000D02*
X138657349Y-127960000D01*
X138657349Y-130040000D02*
X138657349Y-132773000D01*
X138697349Y-125243000D02*
X138697349Y-127960000D01*
X138697349Y-130040000D02*
X138697349Y-132757000D01*
X138737349Y-125260000D02*
X138737349Y-127960000D01*
X138737349Y-130040000D02*
X138737349Y-132740000D01*
X138777349Y-125278000D02*
X138777349Y-127960000D01*
X138777349Y-130040000D02*
X138777349Y-132722000D01*
X138817349Y-125296000D02*
X138817349Y-127960000D01*
X138817349Y-130040000D02*
X138817349Y-132704000D01*
X138857349Y-125315000D02*
X138857349Y-127960000D01*
X138857349Y-130040000D02*
X138857349Y-132685000D01*
X138897349Y-125334000D02*
X138897349Y-127960000D01*
X138897349Y-130040000D02*
X138897349Y-132666000D01*
X138937349Y-125354000D02*
X138937349Y-127960000D01*
X138937349Y-130040000D02*
X138937349Y-132646000D01*
X138977349Y-125374000D02*
X138977349Y-127960000D01*
X138977349Y-130040000D02*
X138977349Y-132626000D01*
X139017349Y-125395000D02*
X139017349Y-127960000D01*
X139017349Y-130040000D02*
X139017349Y-132605000D01*
X139057349Y-125416000D02*
X139057349Y-127960000D01*
X139057349Y-130040000D02*
X139057349Y-132584000D01*
X139097349Y-125438000D02*
X139097349Y-127960000D01*
X139097349Y-130040000D02*
X139097349Y-132562000D01*
X139137349Y-125461000D02*
X139137349Y-127960000D01*
X139137349Y-130040000D02*
X139137349Y-132539000D01*
X139177349Y-125484000D02*
X139177349Y-127960000D01*
X139177349Y-130040000D02*
X139177349Y-132516000D01*
X139217349Y-125507000D02*
X139217349Y-127960000D01*
X139217349Y-130040000D02*
X139217349Y-132493000D01*
X139257349Y-125532000D02*
X139257349Y-127960000D01*
X139257349Y-130040000D02*
X139257349Y-132468000D01*
X139297349Y-125557000D02*
X139297349Y-127960000D01*
X139297349Y-130040000D02*
X139297349Y-132443000D01*
X139337349Y-125582000D02*
X139337349Y-127960000D01*
X139337349Y-130040000D02*
X139337349Y-132418000D01*
X139377349Y-125608000D02*
X139377349Y-127960000D01*
X139377349Y-130040000D02*
X139377349Y-132392000D01*
X139417349Y-125635000D02*
X139417349Y-127960000D01*
X139417349Y-130040000D02*
X139417349Y-132365000D01*
X139457349Y-125663000D02*
X139457349Y-127960000D01*
X139457349Y-130040000D02*
X139457349Y-132337000D01*
X139497349Y-125691000D02*
X139497349Y-127960000D01*
X139497349Y-130040000D02*
X139497349Y-132309000D01*
X139537349Y-125720000D02*
X139537349Y-127960000D01*
X139537349Y-130040000D02*
X139537349Y-132280000D01*
X139577349Y-125750000D02*
X139577349Y-127960000D01*
X139577349Y-130040000D02*
X139577349Y-132250000D01*
X139617349Y-125781000D02*
X139617349Y-127960000D01*
X139617349Y-130040000D02*
X139617349Y-132219000D01*
X139657349Y-125812000D02*
X139657349Y-127960000D01*
X139657349Y-130040000D02*
X139657349Y-132188000D01*
X139697349Y-125844000D02*
X139697349Y-127960000D01*
X139697349Y-130040000D02*
X139697349Y-132156000D01*
X139737349Y-125877000D02*
X139737349Y-127960000D01*
X139737349Y-130040000D02*
X139737349Y-132123000D01*
X139777349Y-125911000D02*
X139777349Y-127960000D01*
X139777349Y-130040000D02*
X139777349Y-132089000D01*
X139817349Y-125945000D02*
X139817349Y-127960000D01*
X139817349Y-130040000D02*
X139817349Y-132055000D01*
X139857349Y-125981000D02*
X139857349Y-127960000D01*
X139857349Y-130040000D02*
X139857349Y-132019000D01*
X139897349Y-126018000D02*
X139897349Y-127960000D01*
X139897349Y-130040000D02*
X139897349Y-131982000D01*
X139937349Y-126055000D02*
X139937349Y-127960000D01*
X139937349Y-130040000D02*
X139937349Y-131945000D01*
X139977349Y-126094000D02*
X139977349Y-127960000D01*
X139977349Y-130040000D02*
X139977349Y-131906000D01*
X140017349Y-126133000D02*
X140017349Y-127960000D01*
X140017349Y-130040000D02*
X140017349Y-131867000D01*
X140057349Y-126174000D02*
X140057349Y-131826000D01*
X140097349Y-126216000D02*
X140097349Y-131784000D01*
X140137349Y-126259000D02*
X140137349Y-131741000D01*
X140177349Y-126304000D02*
X140177349Y-131696000D01*
X140217349Y-126349000D02*
X140217349Y-131651000D01*
X140257349Y-126396000D02*
X140257349Y-131604000D01*
X140297349Y-126445000D02*
X140297349Y-131555000D01*
X140337349Y-126495000D02*
X140337349Y-131505000D01*
X140377349Y-126547000D02*
X140377349Y-131453000D01*
X140417349Y-126600000D02*
X140417349Y-131400000D01*
X140457349Y-126656000D02*
X140457349Y-131344000D01*
X140497349Y-126713000D02*
X140497349Y-131287000D01*
X140537349Y-126773000D02*
X140537349Y-131227000D01*
X140577349Y-126835000D02*
X140577349Y-131165000D01*
X140617349Y-126899000D02*
X140617349Y-131101000D01*
X140657349Y-126966000D02*
X140657349Y-131034000D01*
X140697349Y-127036000D02*
X140697349Y-130964000D01*
X140737349Y-127110000D02*
X140737349Y-130890000D01*
X140777349Y-127187000D02*
X140777349Y-130813000D01*
X140817349Y-127269000D02*
X140817349Y-130731000D01*
X140857349Y-127356000D02*
X140857349Y-130644000D01*
X140897349Y-127448000D02*
X140897349Y-130552000D01*
X140937349Y-127547000D02*
X140937349Y-130453000D01*
X140977349Y-127654000D02*
X140977349Y-130346000D01*
X141017349Y-127772000D02*
X141017349Y-130228000D01*
X141057349Y-127903000D02*
X141057349Y-130097000D01*
X141097349Y-128053000D02*
X141097349Y-129947000D01*
X141137349Y-128232000D02*
X141137349Y-129768000D01*
X141177349Y-128467000D02*
X141177349Y-129533000D01*
X141217349Y-129000000D02*
G75*
G02*
X132977349Y-129000000I-4120000J0D01*
G01*
X132977349Y-129000000D02*
G75*
G02*
X141217349Y-129000000I4120000J0D01*
G01*
%TO.C,IN1*%
X113380000Y-137690000D02*
X113380000Y-145310000D01*
X113380000Y-145310000D02*
X123540000Y-145310000D01*
X123540000Y-137690000D02*
X113380000Y-137690000D01*
X123540000Y-144040000D02*
X113380000Y-144040000D01*
X123540000Y-145310000D02*
X123540000Y-137690000D01*
%TO.C,R1*%
X115630000Y-122420000D02*
X115960000Y-122420000D01*
X115630000Y-128960000D02*
X115630000Y-122420000D01*
X115960000Y-128960000D02*
X115630000Y-128960000D01*
X118040000Y-128960000D02*
X118370000Y-128960000D01*
X118370000Y-122420000D02*
X118040000Y-122420000D01*
X118370000Y-128960000D02*
X118370000Y-122420000D01*
%TO.C,C1*%
X121380000Y-130630000D02*
X127620000Y-130630000D01*
X121380000Y-131165000D02*
X121380000Y-130630000D01*
X121380000Y-133370000D02*
X121380000Y-132835000D01*
X127620000Y-130630000D02*
X127620000Y-131165000D01*
X127620000Y-132835000D02*
X127620000Y-133370000D01*
X127620000Y-133370000D02*
X121380000Y-133370000D01*
%TO.C,OUT1*%
X130230000Y-111310000D02*
X130230000Y-103690000D01*
X130230000Y-103690000D02*
X120070000Y-103690000D01*
X120070000Y-111310000D02*
X130230000Y-111310000D01*
X120070000Y-104960000D02*
X130230000Y-104960000D01*
X120070000Y-103690000D02*
X120070000Y-111310000D01*
%TO.C,U1*%
X123250000Y-116550000D02*
X123250000Y-126830000D01*
X123250000Y-126830000D02*
X127750000Y-126830000D01*
X124500000Y-116550000D02*
X123250000Y-116550000D01*
X127750000Y-116550000D02*
X126500000Y-116550000D01*
X127750000Y-126830000D02*
X127750000Y-116550000D01*
X120250000Y-116490000D02*
X130750000Y-116490000D01*
X130750000Y-126890000D01*
X120250000Y-126890000D01*
X120250000Y-116490000D01*
X126500000Y-116550000D02*
G75*
G02*
X124500000Y-116550000I-1000000J0D01*
G01*
%TO.C,R2*%
X109920000Y-112130000D02*
X116460000Y-112130000D01*
X109920000Y-112460000D02*
X109920000Y-112130000D01*
X109920000Y-114540000D02*
X109920000Y-114870000D01*
X109920000Y-114870000D02*
X116460000Y-114870000D01*
X116460000Y-112130000D02*
X116460000Y-112460000D01*
X116460000Y-114870000D02*
X116460000Y-114540000D01*
%TO.C,VCC1*%
X100380000Y-137690000D02*
X100380000Y-145310000D01*
X100380000Y-145310000D02*
X110540000Y-145310000D01*
X110540000Y-137690000D02*
X100380000Y-137690000D01*
X110540000Y-144040000D02*
X100380000Y-144040000D01*
X110540000Y-145310000D02*
X110540000Y-137690000D01*
%TO.C,C5*%
X111380000Y-106880000D02*
X117620000Y-106880000D01*
X111380000Y-107415000D02*
X111380000Y-106880000D01*
X111380000Y-109620000D02*
X111380000Y-109085000D01*
X117620000Y-106880000D02*
X117620000Y-107415000D01*
X117620000Y-109085000D02*
X117620000Y-109620000D01*
X117620000Y-109620000D02*
X111380000Y-109620000D01*
%TO.C,R1*%
X165370000Y-128960000D02*
X165370000Y-122420000D01*
X165370000Y-122420000D02*
X165040000Y-122420000D01*
X165040000Y-128960000D02*
X165370000Y-128960000D01*
X162960000Y-128960000D02*
X162630000Y-128960000D01*
X162630000Y-128960000D02*
X162630000Y-122420000D01*
X162630000Y-122420000D02*
X162960000Y-122420000D01*
%TO.C,OUT1*%
X167070000Y-103690000D02*
X167070000Y-111310000D01*
X167070000Y-104960000D02*
X177230000Y-104960000D01*
X167070000Y-111310000D02*
X177230000Y-111310000D01*
X177230000Y-103690000D02*
X167070000Y-103690000D01*
X177230000Y-111310000D02*
X177230000Y-103690000D01*
%TO.C,C6*%
X131652677Y-107625000D02*
X132652677Y-107625000D01*
X132152677Y-107125000D02*
X132152677Y-108125000D01*
X137132323Y-105420000D02*
X137132323Y-115580000D01*
X137172323Y-105420000D02*
X137172323Y-115580000D01*
X137212323Y-105421000D02*
X137212323Y-115579000D01*
X137252323Y-105421000D02*
X137252323Y-115579000D01*
X137292323Y-105423000D02*
X137292323Y-115577000D01*
X137332323Y-105424000D02*
X137332323Y-115576000D01*
X137372323Y-105426000D02*
X137372323Y-115574000D01*
X137412323Y-105428000D02*
X137412323Y-115572000D01*
X137452323Y-105430000D02*
X137452323Y-115570000D01*
X137492323Y-105433000D02*
X137492323Y-115567000D01*
X137532323Y-105436000D02*
X137532323Y-115564000D01*
X137572323Y-105439000D02*
X137572323Y-115561000D01*
X137612323Y-105443000D02*
X137612323Y-115557000D01*
X137652323Y-105446000D02*
X137652323Y-115554000D01*
X137692323Y-105451000D02*
X137692323Y-115549000D01*
X137732323Y-105455000D02*
X137732323Y-115545000D01*
X137772323Y-105460000D02*
X137772323Y-115540000D01*
X137812323Y-105465000D02*
X137812323Y-115535000D01*
X137852323Y-105471000D02*
X137852323Y-115529000D01*
X137892323Y-105477000D02*
X137892323Y-115523000D01*
X137932323Y-105483000D02*
X137932323Y-115517000D01*
X137972323Y-105489000D02*
X137972323Y-115511000D01*
X138012323Y-105496000D02*
X138012323Y-115504000D01*
X138052323Y-105503000D02*
X138052323Y-115497000D01*
X138092323Y-105511000D02*
X138092323Y-115489000D01*
X138132323Y-105519000D02*
X138132323Y-115481000D01*
X138172323Y-105527000D02*
X138172323Y-115473000D01*
X138212323Y-105535000D02*
X138212323Y-115465000D01*
X138252323Y-105544000D02*
X138252323Y-115456000D01*
X138292323Y-105553000D02*
X138292323Y-115447000D01*
X138332323Y-105563000D02*
X138332323Y-115437000D01*
X138372323Y-105572000D02*
X138372323Y-115428000D01*
X138412323Y-105583000D02*
X138412323Y-109260000D01*
X138412323Y-111740000D02*
X138412323Y-115417000D01*
X138452323Y-105593000D02*
X138452323Y-109260000D01*
X138452323Y-111740000D02*
X138452323Y-115407000D01*
X138492323Y-105604000D02*
X138492323Y-109260000D01*
X138492323Y-111740000D02*
X138492323Y-115396000D01*
X138532323Y-105615000D02*
X138532323Y-109260000D01*
X138532323Y-111740000D02*
X138532323Y-115385000D01*
X138572323Y-105627000D02*
X138572323Y-109260000D01*
X138572323Y-111740000D02*
X138572323Y-115373000D01*
X138612323Y-105639000D02*
X138612323Y-109260000D01*
X138612323Y-111740000D02*
X138612323Y-115361000D01*
X138652323Y-105651000D02*
X138652323Y-109260000D01*
X138652323Y-111740000D02*
X138652323Y-115349000D01*
X138692323Y-105663000D02*
X138692323Y-109260000D01*
X138692323Y-111740000D02*
X138692323Y-115337000D01*
X138732323Y-105676000D02*
X138732323Y-109260000D01*
X138732323Y-111740000D02*
X138732323Y-115324000D01*
X138772323Y-105690000D02*
X138772323Y-109260000D01*
X138772323Y-111740000D02*
X138772323Y-115310000D01*
X138812323Y-105703000D02*
X138812323Y-109260000D01*
X138812323Y-111740000D02*
X138812323Y-115297000D01*
X138852323Y-105718000D02*
X138852323Y-109260000D01*
X138852323Y-111740000D02*
X138852323Y-115282000D01*
X138892323Y-105732000D02*
X138892323Y-109260000D01*
X138892323Y-111740000D02*
X138892323Y-115268000D01*
X138932323Y-105747000D02*
X138932323Y-109260000D01*
X138932323Y-111740000D02*
X138932323Y-115253000D01*
X138972323Y-105762000D02*
X138972323Y-109260000D01*
X138972323Y-111740000D02*
X138972323Y-115238000D01*
X139012323Y-105778000D02*
X139012323Y-109260000D01*
X139012323Y-111740000D02*
X139012323Y-115222000D01*
X139052323Y-105794000D02*
X139052323Y-109260000D01*
X139052323Y-111740000D02*
X139052323Y-115206000D01*
X139092323Y-105810000D02*
X139092323Y-109260000D01*
X139092323Y-111740000D02*
X139092323Y-115190000D01*
X139132323Y-105827000D02*
X139132323Y-109260000D01*
X139132323Y-111740000D02*
X139132323Y-115173000D01*
X139172323Y-105844000D02*
X139172323Y-109260000D01*
X139172323Y-111740000D02*
X139172323Y-115156000D01*
X139212323Y-105862000D02*
X139212323Y-109260000D01*
X139212323Y-111740000D02*
X139212323Y-115138000D01*
X139252323Y-105880000D02*
X139252323Y-109260000D01*
X139252323Y-111740000D02*
X139252323Y-115120000D01*
X139292323Y-105898000D02*
X139292323Y-109260000D01*
X139292323Y-111740000D02*
X139292323Y-115102000D01*
X139332323Y-105917000D02*
X139332323Y-109260000D01*
X139332323Y-111740000D02*
X139332323Y-115083000D01*
X139372323Y-105936000D02*
X139372323Y-109260000D01*
X139372323Y-111740000D02*
X139372323Y-115064000D01*
X139412323Y-105956000D02*
X139412323Y-109260000D01*
X139412323Y-111740000D02*
X139412323Y-115044000D01*
X139452323Y-105976000D02*
X139452323Y-109260000D01*
X139452323Y-111740000D02*
X139452323Y-115024000D01*
X139492323Y-105996000D02*
X139492323Y-109260000D01*
X139492323Y-111740000D02*
X139492323Y-115004000D01*
X139532323Y-106017000D02*
X139532323Y-109260000D01*
X139532323Y-111740000D02*
X139532323Y-114983000D01*
X139572323Y-106039000D02*
X139572323Y-109260000D01*
X139572323Y-111740000D02*
X139572323Y-114961000D01*
X139612323Y-106061000D02*
X139612323Y-109260000D01*
X139612323Y-111740000D02*
X139612323Y-114939000D01*
X139652323Y-106083000D02*
X139652323Y-109260000D01*
X139652323Y-111740000D02*
X139652323Y-114917000D01*
X139692323Y-106106000D02*
X139692323Y-109260000D01*
X139692323Y-111740000D02*
X139692323Y-114894000D01*
X139732323Y-106129000D02*
X139732323Y-109260000D01*
X139732323Y-111740000D02*
X139732323Y-114871000D01*
X139772323Y-106153000D02*
X139772323Y-109260000D01*
X139772323Y-111740000D02*
X139772323Y-114847000D01*
X139812323Y-106177000D02*
X139812323Y-109260000D01*
X139812323Y-111740000D02*
X139812323Y-114823000D01*
X139852323Y-106202000D02*
X139852323Y-109260000D01*
X139852323Y-111740000D02*
X139852323Y-114798000D01*
X139892323Y-106228000D02*
X139892323Y-109260000D01*
X139892323Y-111740000D02*
X139892323Y-114772000D01*
X139932323Y-106253000D02*
X139932323Y-109260000D01*
X139932323Y-111740000D02*
X139932323Y-114747000D01*
X139972323Y-106280000D02*
X139972323Y-109260000D01*
X139972323Y-111740000D02*
X139972323Y-114720000D01*
X140012323Y-106307000D02*
X140012323Y-109260000D01*
X140012323Y-111740000D02*
X140012323Y-114693000D01*
X140052323Y-106334000D02*
X140052323Y-109260000D01*
X140052323Y-111740000D02*
X140052323Y-114666000D01*
X140092323Y-106362000D02*
X140092323Y-109260000D01*
X140092323Y-111740000D02*
X140092323Y-114638000D01*
X140132323Y-106391000D02*
X140132323Y-109260000D01*
X140132323Y-111740000D02*
X140132323Y-114609000D01*
X140172323Y-106420000D02*
X140172323Y-109260000D01*
X140172323Y-111740000D02*
X140172323Y-114580000D01*
X140212323Y-106450000D02*
X140212323Y-109260000D01*
X140212323Y-111740000D02*
X140212323Y-114550000D01*
X140252323Y-106480000D02*
X140252323Y-109260000D01*
X140252323Y-111740000D02*
X140252323Y-114520000D01*
X140292323Y-106512000D02*
X140292323Y-109260000D01*
X140292323Y-111740000D02*
X140292323Y-114488000D01*
X140332323Y-106543000D02*
X140332323Y-109260000D01*
X140332323Y-111740000D02*
X140332323Y-114457000D01*
X140372323Y-106576000D02*
X140372323Y-109260000D01*
X140372323Y-111740000D02*
X140372323Y-114424000D01*
X140412323Y-106609000D02*
X140412323Y-109260000D01*
X140412323Y-111740000D02*
X140412323Y-114391000D01*
X140452323Y-106642000D02*
X140452323Y-109260000D01*
X140452323Y-111740000D02*
X140452323Y-114358000D01*
X140492323Y-106677000D02*
X140492323Y-109260000D01*
X140492323Y-111740000D02*
X140492323Y-114323000D01*
X140532323Y-106712000D02*
X140532323Y-109260000D01*
X140532323Y-111740000D02*
X140532323Y-114288000D01*
X140572323Y-106748000D02*
X140572323Y-109260000D01*
X140572323Y-111740000D02*
X140572323Y-114252000D01*
X140612323Y-106784000D02*
X140612323Y-109260000D01*
X140612323Y-111740000D02*
X140612323Y-114216000D01*
X140652323Y-106822000D02*
X140652323Y-109260000D01*
X140652323Y-111740000D02*
X140652323Y-114178000D01*
X140692323Y-106860000D02*
X140692323Y-109260000D01*
X140692323Y-111740000D02*
X140692323Y-114140000D01*
X140732323Y-106899000D02*
X140732323Y-109260000D01*
X140732323Y-111740000D02*
X140732323Y-114101000D01*
X140772323Y-106939000D02*
X140772323Y-109260000D01*
X140772323Y-111740000D02*
X140772323Y-114061000D01*
X140812323Y-106980000D02*
X140812323Y-109260000D01*
X140812323Y-111740000D02*
X140812323Y-114020000D01*
X140852323Y-107022000D02*
X140852323Y-109260000D01*
X140852323Y-111740000D02*
X140852323Y-113978000D01*
X140892323Y-107065000D02*
X140892323Y-113935000D01*
X140932323Y-107109000D02*
X140932323Y-113891000D01*
X140972323Y-107153000D02*
X140972323Y-113847000D01*
X141012323Y-107199000D02*
X141012323Y-113801000D01*
X141052323Y-107246000D02*
X141052323Y-113754000D01*
X141092323Y-107295000D02*
X141092323Y-113705000D01*
X141132323Y-107344000D02*
X141132323Y-113656000D01*
X141172323Y-107395000D02*
X141172323Y-113605000D01*
X141212323Y-107447000D02*
X141212323Y-113553000D01*
X141252323Y-107500000D02*
X141252323Y-113500000D01*
X141292323Y-107555000D02*
X141292323Y-113445000D01*
X141332323Y-107612000D02*
X141332323Y-113388000D01*
X141372323Y-107670000D02*
X141372323Y-113330000D01*
X141412323Y-107730000D02*
X141412323Y-113270000D01*
X141452323Y-107792000D02*
X141452323Y-113208000D01*
X141492323Y-107856000D02*
X141492323Y-113144000D01*
X141532323Y-107922000D02*
X141532323Y-113078000D01*
X141572323Y-107990000D02*
X141572323Y-113010000D01*
X141612323Y-108061000D02*
X141612323Y-112939000D01*
X141652323Y-108135000D02*
X141652323Y-112865000D01*
X141692323Y-108212000D02*
X141692323Y-112788000D01*
X141732323Y-108292000D02*
X141732323Y-112708000D01*
X141772323Y-108376000D02*
X141772323Y-112624000D01*
X141812323Y-108463000D02*
X141812323Y-112537000D01*
X141852323Y-108556000D02*
X141852323Y-112444000D01*
X141892323Y-108654000D02*
X141892323Y-112346000D01*
X141932323Y-108758000D02*
X141932323Y-112242000D01*
X141972323Y-108870000D02*
X141972323Y-112130000D01*
X142012323Y-108991000D02*
X142012323Y-112009000D01*
X142052323Y-109123000D02*
X142052323Y-111877000D01*
X142092323Y-109270000D02*
X142092323Y-111730000D01*
X142132323Y-109438000D02*
X142132323Y-111562000D01*
X142172323Y-109638000D02*
X142172323Y-111362000D01*
X142212323Y-109901000D02*
X142212323Y-111099000D01*
X142252323Y-110500000D02*
G75*
G02*
X132012323Y-110500000I-5120000J0D01*
G01*
X132012323Y-110500000D02*
G75*
G02*
X142252323Y-110500000I5120000J0D01*
G01*
%TO.C,C4*%
X99690302Y-124565000D02*
X100490302Y-124565000D01*
X100090302Y-124165000D02*
X100090302Y-124965000D01*
X104100000Y-122800000D02*
X104100000Y-130960000D01*
X104140000Y-122800000D02*
X104140000Y-130960000D01*
X104180000Y-122801000D02*
X104180000Y-130959000D01*
X104220000Y-122802000D02*
X104220000Y-130958000D01*
X104260000Y-122803000D02*
X104260000Y-130957000D01*
X104300000Y-122805000D02*
X104300000Y-130955000D01*
X104340000Y-122807000D02*
X104340000Y-130953000D01*
X104380000Y-122810000D02*
X104380000Y-130950000D01*
X104420000Y-122812000D02*
X104420000Y-130948000D01*
X104460000Y-122816000D02*
X104460000Y-130944000D01*
X104500000Y-122819000D02*
X104500000Y-130941000D01*
X104540000Y-122824000D02*
X104540000Y-130936000D01*
X104580000Y-122828000D02*
X104580000Y-130932000D01*
X104620000Y-122833000D02*
X104620000Y-130927000D01*
X104660000Y-122838000D02*
X104660000Y-130922000D01*
X104700000Y-122844000D02*
X104700000Y-130916000D01*
X104740000Y-122850000D02*
X104740000Y-130910000D01*
X104780000Y-122857000D02*
X104780000Y-130903000D01*
X104820000Y-122863000D02*
X104820000Y-130897000D01*
X104860000Y-122871000D02*
X104860000Y-130889000D01*
X104900000Y-122878000D02*
X104900000Y-130882000D01*
X104940000Y-122887000D02*
X104940000Y-130873000D01*
X104980000Y-122895000D02*
X104980000Y-125840000D01*
X104980000Y-127920000D02*
X104980000Y-130865000D01*
X105020000Y-122904000D02*
X105020000Y-125840000D01*
X105020000Y-127920000D02*
X105020000Y-130856000D01*
X105060000Y-122913000D02*
X105060000Y-125840000D01*
X105060000Y-127920000D02*
X105060000Y-130847000D01*
X105100000Y-122923000D02*
X105100000Y-125840000D01*
X105100000Y-127920000D02*
X105100000Y-130837000D01*
X105140000Y-122933000D02*
X105140000Y-125840000D01*
X105140000Y-127920000D02*
X105140000Y-130827000D01*
X105180000Y-122944000D02*
X105180000Y-125840000D01*
X105180000Y-127920000D02*
X105180000Y-130816000D01*
X105220000Y-122955000D02*
X105220000Y-125840000D01*
X105220000Y-127920000D02*
X105220000Y-130805000D01*
X105260000Y-122967000D02*
X105260000Y-125840000D01*
X105260000Y-127920000D02*
X105260000Y-130793000D01*
X105300000Y-122979000D02*
X105300000Y-125840000D01*
X105300000Y-127920000D02*
X105300000Y-130781000D01*
X105340000Y-122991000D02*
X105340000Y-125840000D01*
X105340000Y-127920000D02*
X105340000Y-130769000D01*
X105380000Y-123004000D02*
X105380000Y-125840000D01*
X105380000Y-127920000D02*
X105380000Y-130756000D01*
X105420000Y-123017000D02*
X105420000Y-125840000D01*
X105420000Y-127920000D02*
X105420000Y-130743000D01*
X105460000Y-123031000D02*
X105460000Y-125840000D01*
X105460000Y-127920000D02*
X105460000Y-130729000D01*
X105500000Y-123045000D02*
X105500000Y-125840000D01*
X105500000Y-127920000D02*
X105500000Y-130715000D01*
X105540000Y-123060000D02*
X105540000Y-125840000D01*
X105540000Y-127920000D02*
X105540000Y-130700000D01*
X105580000Y-123075000D02*
X105580000Y-125840000D01*
X105580000Y-127920000D02*
X105580000Y-130685000D01*
X105620000Y-123091000D02*
X105620000Y-125840000D01*
X105620000Y-127920000D02*
X105620000Y-130669000D01*
X105660000Y-123107000D02*
X105660000Y-125840000D01*
X105660000Y-127920000D02*
X105660000Y-130653000D01*
X105700000Y-123123000D02*
X105700000Y-125840000D01*
X105700000Y-127920000D02*
X105700000Y-130637000D01*
X105740000Y-123140000D02*
X105740000Y-125840000D01*
X105740000Y-127920000D02*
X105740000Y-130620000D01*
X105780000Y-123158000D02*
X105780000Y-125840000D01*
X105780000Y-127920000D02*
X105780000Y-130602000D01*
X105820000Y-123176000D02*
X105820000Y-125840000D01*
X105820000Y-127920000D02*
X105820000Y-130584000D01*
X105860000Y-123195000D02*
X105860000Y-125840000D01*
X105860000Y-127920000D02*
X105860000Y-130565000D01*
X105900000Y-123214000D02*
X105900000Y-125840000D01*
X105900000Y-127920000D02*
X105900000Y-130546000D01*
X105940000Y-123234000D02*
X105940000Y-125840000D01*
X105940000Y-127920000D02*
X105940000Y-130526000D01*
X105980000Y-123254000D02*
X105980000Y-125840000D01*
X105980000Y-127920000D02*
X105980000Y-130506000D01*
X106020000Y-123275000D02*
X106020000Y-125840000D01*
X106020000Y-127920000D02*
X106020000Y-130485000D01*
X106060000Y-123296000D02*
X106060000Y-125840000D01*
X106060000Y-127920000D02*
X106060000Y-130464000D01*
X106100000Y-123318000D02*
X106100000Y-125840000D01*
X106100000Y-127920000D02*
X106100000Y-130442000D01*
X106140000Y-123341000D02*
X106140000Y-125840000D01*
X106140000Y-127920000D02*
X106140000Y-130419000D01*
X106180000Y-123364000D02*
X106180000Y-125840000D01*
X106180000Y-127920000D02*
X106180000Y-130396000D01*
X106220000Y-123387000D02*
X106220000Y-125840000D01*
X106220000Y-127920000D02*
X106220000Y-130373000D01*
X106260000Y-123412000D02*
X106260000Y-125840000D01*
X106260000Y-127920000D02*
X106260000Y-130348000D01*
X106300000Y-123437000D02*
X106300000Y-125840000D01*
X106300000Y-127920000D02*
X106300000Y-130323000D01*
X106340000Y-123462000D02*
X106340000Y-125840000D01*
X106340000Y-127920000D02*
X106340000Y-130298000D01*
X106380000Y-123488000D02*
X106380000Y-125840000D01*
X106380000Y-127920000D02*
X106380000Y-130272000D01*
X106420000Y-123515000D02*
X106420000Y-125840000D01*
X106420000Y-127920000D02*
X106420000Y-130245000D01*
X106460000Y-123543000D02*
X106460000Y-125840000D01*
X106460000Y-127920000D02*
X106460000Y-130217000D01*
X106500000Y-123571000D02*
X106500000Y-125840000D01*
X106500000Y-127920000D02*
X106500000Y-130189000D01*
X106540000Y-123600000D02*
X106540000Y-125840000D01*
X106540000Y-127920000D02*
X106540000Y-130160000D01*
X106580000Y-123630000D02*
X106580000Y-125840000D01*
X106580000Y-127920000D02*
X106580000Y-130130000D01*
X106620000Y-123661000D02*
X106620000Y-125840000D01*
X106620000Y-127920000D02*
X106620000Y-130099000D01*
X106660000Y-123692000D02*
X106660000Y-125840000D01*
X106660000Y-127920000D02*
X106660000Y-130068000D01*
X106700000Y-123724000D02*
X106700000Y-125840000D01*
X106700000Y-127920000D02*
X106700000Y-130036000D01*
X106740000Y-123757000D02*
X106740000Y-125840000D01*
X106740000Y-127920000D02*
X106740000Y-130003000D01*
X106780000Y-123791000D02*
X106780000Y-125840000D01*
X106780000Y-127920000D02*
X106780000Y-129969000D01*
X106820000Y-123825000D02*
X106820000Y-125840000D01*
X106820000Y-127920000D02*
X106820000Y-129935000D01*
X106860000Y-123861000D02*
X106860000Y-125840000D01*
X106860000Y-127920000D02*
X106860000Y-129899000D01*
X106900000Y-123898000D02*
X106900000Y-125840000D01*
X106900000Y-127920000D02*
X106900000Y-129862000D01*
X106940000Y-123935000D02*
X106940000Y-125840000D01*
X106940000Y-127920000D02*
X106940000Y-129825000D01*
X106980000Y-123974000D02*
X106980000Y-125840000D01*
X106980000Y-127920000D02*
X106980000Y-129786000D01*
X107020000Y-124013000D02*
X107020000Y-125840000D01*
X107020000Y-127920000D02*
X107020000Y-129747000D01*
X107060000Y-124054000D02*
X107060000Y-129706000D01*
X107100000Y-124096000D02*
X107100000Y-129664000D01*
X107140000Y-124139000D02*
X107140000Y-129621000D01*
X107180000Y-124184000D02*
X107180000Y-129576000D01*
X107220000Y-124229000D02*
X107220000Y-129531000D01*
X107260000Y-124276000D02*
X107260000Y-129484000D01*
X107300000Y-124325000D02*
X107300000Y-129435000D01*
X107340000Y-124375000D02*
X107340000Y-129385000D01*
X107380000Y-124427000D02*
X107380000Y-129333000D01*
X107420000Y-124480000D02*
X107420000Y-129280000D01*
X107460000Y-124536000D02*
X107460000Y-129224000D01*
X107500000Y-124593000D02*
X107500000Y-129167000D01*
X107540000Y-124653000D02*
X107540000Y-129107000D01*
X107580000Y-124715000D02*
X107580000Y-129045000D01*
X107620000Y-124779000D02*
X107620000Y-128981000D01*
X107660000Y-124846000D02*
X107660000Y-128914000D01*
X107700000Y-124916000D02*
X107700000Y-128844000D01*
X107740000Y-124990000D02*
X107740000Y-128770000D01*
X107780000Y-125067000D02*
X107780000Y-128693000D01*
X107820000Y-125149000D02*
X107820000Y-128611000D01*
X107860000Y-125236000D02*
X107860000Y-128524000D01*
X107900000Y-125328000D02*
X107900000Y-128432000D01*
X107940000Y-125427000D02*
X107940000Y-128333000D01*
X107980000Y-125534000D02*
X107980000Y-128226000D01*
X108020000Y-125652000D02*
X108020000Y-128108000D01*
X108060000Y-125783000D02*
X108060000Y-127977000D01*
X108100000Y-125933000D02*
X108100000Y-127827000D01*
X108140000Y-126112000D02*
X108140000Y-127648000D01*
X108180000Y-126347000D02*
X108180000Y-127413000D01*
X108220000Y-126880000D02*
G75*
G02*
X99980000Y-126880000I-4120000J0D01*
G01*
X99980000Y-126880000D02*
G75*
G02*
X108220000Y-126880000I4120000J0D01*
G01*
%TO.C,RV1*%
X142110000Y-143110000D02*
X125890000Y-143110000D01*
X142110000Y-135390000D02*
X142110000Y-143110000D01*
X137610000Y-148110000D02*
X130390000Y-148110000D01*
X137610000Y-143110000D02*
X137610000Y-148110000D01*
X136110000Y-158110000D02*
X131890000Y-158110000D01*
X136110000Y-148110000D02*
X136110000Y-158110000D01*
X131890000Y-158110000D02*
X131890000Y-148110000D01*
X131890000Y-148110000D02*
X136110000Y-148110000D01*
X130390000Y-148110000D02*
X130390000Y-143110000D01*
X130390000Y-143110000D02*
X137610000Y-143110000D01*
X125890000Y-143110000D02*
X125890000Y-135390000D01*
X125890000Y-135390000D02*
X142110000Y-135390000D01*
%TO.C,C3*%
X160370000Y-127500000D02*
X159835000Y-127500000D01*
X160370000Y-121260000D02*
X160370000Y-127500000D01*
X159835000Y-121260000D02*
X160370000Y-121260000D01*
X158165000Y-127500000D02*
X157630000Y-127500000D01*
X157630000Y-127500000D02*
X157630000Y-121260000D01*
X157630000Y-121260000D02*
X158165000Y-121260000D01*
%TO.C,IN1*%
X170540000Y-145310000D02*
X170540000Y-137690000D01*
X170540000Y-144040000D02*
X160380000Y-144040000D01*
X170540000Y-137690000D02*
X160380000Y-137690000D01*
X160380000Y-145310000D02*
X170540000Y-145310000D01*
X160380000Y-137690000D02*
X160380000Y-145310000D01*
%TO.C,D1*%
X153730000Y-113500000D02*
G75*
G02*
X148730000Y-113500000I-2500000J0D01*
G01*
X148730000Y-113500000D02*
G75*
G02*
X153730000Y-113500000I2500000J0D01*
G01*
X154220000Y-113500000D02*
G75*
G02*
X148670000Y-115044830I-2990000J0D01*
G01*
X148670000Y-111955170D02*
G75*
G02*
X154220000Y-113500000I2560000J-1544830D01*
G01*
X148670000Y-111955000D02*
X148670000Y-115045000D01*
%TO.C,C2*%
X179687651Y-81685000D02*
X180487651Y-81685000D01*
X180087651Y-81285000D02*
X180087651Y-82085000D01*
X184097349Y-79920000D02*
X184097349Y-88080000D01*
X184137349Y-79920000D02*
X184137349Y-88080000D01*
X184177349Y-79921000D02*
X184177349Y-88079000D01*
X184217349Y-79922000D02*
X184217349Y-88078000D01*
X184257349Y-79923000D02*
X184257349Y-88077000D01*
X184297349Y-79925000D02*
X184297349Y-88075000D01*
X184337349Y-79927000D02*
X184337349Y-88073000D01*
X184377349Y-79930000D02*
X184377349Y-88070000D01*
X184417349Y-79932000D02*
X184417349Y-88068000D01*
X184457349Y-79936000D02*
X184457349Y-88064000D01*
X184497349Y-79939000D02*
X184497349Y-88061000D01*
X184537349Y-79944000D02*
X184537349Y-88056000D01*
X184577349Y-79948000D02*
X184577349Y-88052000D01*
X184617349Y-79953000D02*
X184617349Y-88047000D01*
X184657349Y-79958000D02*
X184657349Y-88042000D01*
X184697349Y-79964000D02*
X184697349Y-88036000D01*
X184737349Y-79970000D02*
X184737349Y-88030000D01*
X184777349Y-79977000D02*
X184777349Y-88023000D01*
X184817349Y-79983000D02*
X184817349Y-88017000D01*
X184857349Y-79991000D02*
X184857349Y-88009000D01*
X184897349Y-79998000D02*
X184897349Y-88002000D01*
X184937349Y-80007000D02*
X184937349Y-87993000D01*
X184977349Y-80015000D02*
X184977349Y-82960000D01*
X184977349Y-85040000D02*
X184977349Y-87985000D01*
X185017349Y-80024000D02*
X185017349Y-82960000D01*
X185017349Y-85040000D02*
X185017349Y-87976000D01*
X185057349Y-80033000D02*
X185057349Y-82960000D01*
X185057349Y-85040000D02*
X185057349Y-87967000D01*
X185097349Y-80043000D02*
X185097349Y-82960000D01*
X185097349Y-85040000D02*
X185097349Y-87957000D01*
X185137349Y-80053000D02*
X185137349Y-82960000D01*
X185137349Y-85040000D02*
X185137349Y-87947000D01*
X185177349Y-80064000D02*
X185177349Y-82960000D01*
X185177349Y-85040000D02*
X185177349Y-87936000D01*
X185217349Y-80075000D02*
X185217349Y-82960000D01*
X185217349Y-85040000D02*
X185217349Y-87925000D01*
X185257349Y-80087000D02*
X185257349Y-82960000D01*
X185257349Y-85040000D02*
X185257349Y-87913000D01*
X185297349Y-80099000D02*
X185297349Y-82960000D01*
X185297349Y-85040000D02*
X185297349Y-87901000D01*
X185337349Y-80111000D02*
X185337349Y-82960000D01*
X185337349Y-85040000D02*
X185337349Y-87889000D01*
X185377349Y-80124000D02*
X185377349Y-82960000D01*
X185377349Y-85040000D02*
X185377349Y-87876000D01*
X185417349Y-80137000D02*
X185417349Y-82960000D01*
X185417349Y-85040000D02*
X185417349Y-87863000D01*
X185457349Y-80151000D02*
X185457349Y-82960000D01*
X185457349Y-85040000D02*
X185457349Y-87849000D01*
X185497349Y-80165000D02*
X185497349Y-82960000D01*
X185497349Y-85040000D02*
X185497349Y-87835000D01*
X185537349Y-80180000D02*
X185537349Y-82960000D01*
X185537349Y-85040000D02*
X185537349Y-87820000D01*
X185577349Y-80195000D02*
X185577349Y-82960000D01*
X185577349Y-85040000D02*
X185577349Y-87805000D01*
X185617349Y-80211000D02*
X185617349Y-82960000D01*
X185617349Y-85040000D02*
X185617349Y-87789000D01*
X185657349Y-80227000D02*
X185657349Y-82960000D01*
X185657349Y-85040000D02*
X185657349Y-87773000D01*
X185697349Y-80243000D02*
X185697349Y-82960000D01*
X185697349Y-85040000D02*
X185697349Y-87757000D01*
X185737349Y-80260000D02*
X185737349Y-82960000D01*
X185737349Y-85040000D02*
X185737349Y-87740000D01*
X185777349Y-80278000D02*
X185777349Y-82960000D01*
X185777349Y-85040000D02*
X185777349Y-87722000D01*
X185817349Y-80296000D02*
X185817349Y-82960000D01*
X185817349Y-85040000D02*
X185817349Y-87704000D01*
X185857349Y-80315000D02*
X185857349Y-82960000D01*
X185857349Y-85040000D02*
X185857349Y-87685000D01*
X185897349Y-80334000D02*
X185897349Y-82960000D01*
X185897349Y-85040000D02*
X185897349Y-87666000D01*
X185937349Y-80354000D02*
X185937349Y-82960000D01*
X185937349Y-85040000D02*
X185937349Y-87646000D01*
X185977349Y-80374000D02*
X185977349Y-82960000D01*
X185977349Y-85040000D02*
X185977349Y-87626000D01*
X186017349Y-80395000D02*
X186017349Y-82960000D01*
X186017349Y-85040000D02*
X186017349Y-87605000D01*
X186057349Y-80416000D02*
X186057349Y-82960000D01*
X186057349Y-85040000D02*
X186057349Y-87584000D01*
X186097349Y-80438000D02*
X186097349Y-82960000D01*
X186097349Y-85040000D02*
X186097349Y-87562000D01*
X186137349Y-80461000D02*
X186137349Y-82960000D01*
X186137349Y-85040000D02*
X186137349Y-87539000D01*
X186177349Y-80484000D02*
X186177349Y-82960000D01*
X186177349Y-85040000D02*
X186177349Y-87516000D01*
X186217349Y-80507000D02*
X186217349Y-82960000D01*
X186217349Y-85040000D02*
X186217349Y-87493000D01*
X186257349Y-80532000D02*
X186257349Y-82960000D01*
X186257349Y-85040000D02*
X186257349Y-87468000D01*
X186297349Y-80557000D02*
X186297349Y-82960000D01*
X186297349Y-85040000D02*
X186297349Y-87443000D01*
X186337349Y-80582000D02*
X186337349Y-82960000D01*
X186337349Y-85040000D02*
X186337349Y-87418000D01*
X186377349Y-80608000D02*
X186377349Y-82960000D01*
X186377349Y-85040000D02*
X186377349Y-87392000D01*
X186417349Y-80635000D02*
X186417349Y-82960000D01*
X186417349Y-85040000D02*
X186417349Y-87365000D01*
X186457349Y-80663000D02*
X186457349Y-82960000D01*
X186457349Y-85040000D02*
X186457349Y-87337000D01*
X186497349Y-80691000D02*
X186497349Y-82960000D01*
X186497349Y-85040000D02*
X186497349Y-87309000D01*
X186537349Y-80720000D02*
X186537349Y-82960000D01*
X186537349Y-85040000D02*
X186537349Y-87280000D01*
X186577349Y-80750000D02*
X186577349Y-82960000D01*
X186577349Y-85040000D02*
X186577349Y-87250000D01*
X186617349Y-80781000D02*
X186617349Y-82960000D01*
X186617349Y-85040000D02*
X186617349Y-87219000D01*
X186657349Y-80812000D02*
X186657349Y-82960000D01*
X186657349Y-85040000D02*
X186657349Y-87188000D01*
X186697349Y-80844000D02*
X186697349Y-82960000D01*
X186697349Y-85040000D02*
X186697349Y-87156000D01*
X186737349Y-80877000D02*
X186737349Y-82960000D01*
X186737349Y-85040000D02*
X186737349Y-87123000D01*
X186777349Y-80911000D02*
X186777349Y-82960000D01*
X186777349Y-85040000D02*
X186777349Y-87089000D01*
X186817349Y-80945000D02*
X186817349Y-82960000D01*
X186817349Y-85040000D02*
X186817349Y-87055000D01*
X186857349Y-80981000D02*
X186857349Y-82960000D01*
X186857349Y-85040000D02*
X186857349Y-87019000D01*
X186897349Y-81018000D02*
X186897349Y-82960000D01*
X186897349Y-85040000D02*
X186897349Y-86982000D01*
X186937349Y-81055000D02*
X186937349Y-82960000D01*
X186937349Y-85040000D02*
X186937349Y-86945000D01*
X186977349Y-81094000D02*
X186977349Y-82960000D01*
X186977349Y-85040000D02*
X186977349Y-86906000D01*
X187017349Y-81133000D02*
X187017349Y-82960000D01*
X187017349Y-85040000D02*
X187017349Y-86867000D01*
X187057349Y-81174000D02*
X187057349Y-86826000D01*
X187097349Y-81216000D02*
X187097349Y-86784000D01*
X187137349Y-81259000D02*
X187137349Y-86741000D01*
X187177349Y-81304000D02*
X187177349Y-86696000D01*
X187217349Y-81349000D02*
X187217349Y-86651000D01*
X187257349Y-81396000D02*
X187257349Y-86604000D01*
X187297349Y-81445000D02*
X187297349Y-86555000D01*
X187337349Y-81495000D02*
X187337349Y-86505000D01*
X187377349Y-81547000D02*
X187377349Y-86453000D01*
X187417349Y-81600000D02*
X187417349Y-86400000D01*
X187457349Y-81656000D02*
X187457349Y-86344000D01*
X187497349Y-81713000D02*
X187497349Y-86287000D01*
X187537349Y-81773000D02*
X187537349Y-86227000D01*
X187577349Y-81835000D02*
X187577349Y-86165000D01*
X187617349Y-81899000D02*
X187617349Y-86101000D01*
X187657349Y-81966000D02*
X187657349Y-86034000D01*
X187697349Y-82036000D02*
X187697349Y-85964000D01*
X187737349Y-82110000D02*
X187737349Y-85890000D01*
X187777349Y-82187000D02*
X187777349Y-85813000D01*
X187817349Y-82269000D02*
X187817349Y-85731000D01*
X187857349Y-82356000D02*
X187857349Y-85644000D01*
X187897349Y-82448000D02*
X187897349Y-85552000D01*
X187937349Y-82547000D02*
X187937349Y-85453000D01*
X187977349Y-82654000D02*
X187977349Y-85346000D01*
X188017349Y-82772000D02*
X188017349Y-85228000D01*
X188057349Y-82903000D02*
X188057349Y-85097000D01*
X188097349Y-83053000D02*
X188097349Y-84947000D01*
X188137349Y-83232000D02*
X188137349Y-84768000D01*
X188177349Y-83467000D02*
X188177349Y-84533000D01*
X188217349Y-84000000D02*
G75*
G02*
X179977349Y-84000000I-4120000J0D01*
G01*
X179977349Y-84000000D02*
G75*
G02*
X188217349Y-84000000I4120000J0D01*
G01*
%TO.C,R2*%
X156920000Y-67130000D02*
X163460000Y-67130000D01*
X156920000Y-67460000D02*
X156920000Y-67130000D01*
X156920000Y-69540000D02*
X156920000Y-69870000D01*
X156920000Y-69870000D02*
X163460000Y-69870000D01*
X163460000Y-67130000D02*
X163460000Y-67460000D01*
X163460000Y-69870000D02*
X163460000Y-69540000D01*
%TO.C,C6*%
X178652677Y-62625000D02*
X179652677Y-62625000D01*
X179152677Y-62125000D02*
X179152677Y-63125000D01*
X184132323Y-60420000D02*
X184132323Y-70580000D01*
X184172323Y-60420000D02*
X184172323Y-70580000D01*
X184212323Y-60421000D02*
X184212323Y-70579000D01*
X184252323Y-60421000D02*
X184252323Y-70579000D01*
X184292323Y-60423000D02*
X184292323Y-70577000D01*
X184332323Y-60424000D02*
X184332323Y-70576000D01*
X184372323Y-60426000D02*
X184372323Y-70574000D01*
X184412323Y-60428000D02*
X184412323Y-70572000D01*
X184452323Y-60430000D02*
X184452323Y-70570000D01*
X184492323Y-60433000D02*
X184492323Y-70567000D01*
X184532323Y-60436000D02*
X184532323Y-70564000D01*
X184572323Y-60439000D02*
X184572323Y-70561000D01*
X184612323Y-60443000D02*
X184612323Y-70557000D01*
X184652323Y-60446000D02*
X184652323Y-70554000D01*
X184692323Y-60451000D02*
X184692323Y-70549000D01*
X184732323Y-60455000D02*
X184732323Y-70545000D01*
X184772323Y-60460000D02*
X184772323Y-70540000D01*
X184812323Y-60465000D02*
X184812323Y-70535000D01*
X184852323Y-60471000D02*
X184852323Y-70529000D01*
X184892323Y-60477000D02*
X184892323Y-70523000D01*
X184932323Y-60483000D02*
X184932323Y-70517000D01*
X184972323Y-60489000D02*
X184972323Y-70511000D01*
X185012323Y-60496000D02*
X185012323Y-70504000D01*
X185052323Y-60503000D02*
X185052323Y-70497000D01*
X185092323Y-60511000D02*
X185092323Y-70489000D01*
X185132323Y-60519000D02*
X185132323Y-70481000D01*
X185172323Y-60527000D02*
X185172323Y-70473000D01*
X185212323Y-60535000D02*
X185212323Y-70465000D01*
X185252323Y-60544000D02*
X185252323Y-70456000D01*
X185292323Y-60553000D02*
X185292323Y-70447000D01*
X185332323Y-60563000D02*
X185332323Y-70437000D01*
X185372323Y-60572000D02*
X185372323Y-70428000D01*
X185412323Y-60583000D02*
X185412323Y-64260000D01*
X185412323Y-66740000D02*
X185412323Y-70417000D01*
X185452323Y-60593000D02*
X185452323Y-64260000D01*
X185452323Y-66740000D02*
X185452323Y-70407000D01*
X185492323Y-60604000D02*
X185492323Y-64260000D01*
X185492323Y-66740000D02*
X185492323Y-70396000D01*
X185532323Y-60615000D02*
X185532323Y-64260000D01*
X185532323Y-66740000D02*
X185532323Y-70385000D01*
X185572323Y-60627000D02*
X185572323Y-64260000D01*
X185572323Y-66740000D02*
X185572323Y-70373000D01*
X185612323Y-60639000D02*
X185612323Y-64260000D01*
X185612323Y-66740000D02*
X185612323Y-70361000D01*
X185652323Y-60651000D02*
X185652323Y-64260000D01*
X185652323Y-66740000D02*
X185652323Y-70349000D01*
X185692323Y-60663000D02*
X185692323Y-64260000D01*
X185692323Y-66740000D02*
X185692323Y-70337000D01*
X185732323Y-60676000D02*
X185732323Y-64260000D01*
X185732323Y-66740000D02*
X185732323Y-70324000D01*
X185772323Y-60690000D02*
X185772323Y-64260000D01*
X185772323Y-66740000D02*
X185772323Y-70310000D01*
X185812323Y-60703000D02*
X185812323Y-64260000D01*
X185812323Y-66740000D02*
X185812323Y-70297000D01*
X185852323Y-60718000D02*
X185852323Y-64260000D01*
X185852323Y-66740000D02*
X185852323Y-70282000D01*
X185892323Y-60732000D02*
X185892323Y-64260000D01*
X185892323Y-66740000D02*
X185892323Y-70268000D01*
X185932323Y-60747000D02*
X185932323Y-64260000D01*
X185932323Y-66740000D02*
X185932323Y-70253000D01*
X185972323Y-60762000D02*
X185972323Y-64260000D01*
X185972323Y-66740000D02*
X185972323Y-70238000D01*
X186012323Y-60778000D02*
X186012323Y-64260000D01*
X186012323Y-66740000D02*
X186012323Y-70222000D01*
X186052323Y-60794000D02*
X186052323Y-64260000D01*
X186052323Y-66740000D02*
X186052323Y-70206000D01*
X186092323Y-60810000D02*
X186092323Y-64260000D01*
X186092323Y-66740000D02*
X186092323Y-70190000D01*
X186132323Y-60827000D02*
X186132323Y-64260000D01*
X186132323Y-66740000D02*
X186132323Y-70173000D01*
X186172323Y-60844000D02*
X186172323Y-64260000D01*
X186172323Y-66740000D02*
X186172323Y-70156000D01*
X186212323Y-60862000D02*
X186212323Y-64260000D01*
X186212323Y-66740000D02*
X186212323Y-70138000D01*
X186252323Y-60880000D02*
X186252323Y-64260000D01*
X186252323Y-66740000D02*
X186252323Y-70120000D01*
X186292323Y-60898000D02*
X186292323Y-64260000D01*
X186292323Y-66740000D02*
X186292323Y-70102000D01*
X186332323Y-60917000D02*
X186332323Y-64260000D01*
X186332323Y-66740000D02*
X186332323Y-70083000D01*
X186372323Y-60936000D02*
X186372323Y-64260000D01*
X186372323Y-66740000D02*
X186372323Y-70064000D01*
X186412323Y-60956000D02*
X186412323Y-64260000D01*
X186412323Y-66740000D02*
X186412323Y-70044000D01*
X186452323Y-60976000D02*
X186452323Y-64260000D01*
X186452323Y-66740000D02*
X186452323Y-70024000D01*
X186492323Y-60996000D02*
X186492323Y-64260000D01*
X186492323Y-66740000D02*
X186492323Y-70004000D01*
X186532323Y-61017000D02*
X186532323Y-64260000D01*
X186532323Y-66740000D02*
X186532323Y-69983000D01*
X186572323Y-61039000D02*
X186572323Y-64260000D01*
X186572323Y-66740000D02*
X186572323Y-69961000D01*
X186612323Y-61061000D02*
X186612323Y-64260000D01*
X186612323Y-66740000D02*
X186612323Y-69939000D01*
X186652323Y-61083000D02*
X186652323Y-64260000D01*
X186652323Y-66740000D02*
X186652323Y-69917000D01*
X186692323Y-61106000D02*
X186692323Y-64260000D01*
X186692323Y-66740000D02*
X186692323Y-69894000D01*
X186732323Y-61129000D02*
X186732323Y-64260000D01*
X186732323Y-66740000D02*
X186732323Y-69871000D01*
X186772323Y-61153000D02*
X186772323Y-64260000D01*
X186772323Y-66740000D02*
X186772323Y-69847000D01*
X186812323Y-61177000D02*
X186812323Y-64260000D01*
X186812323Y-66740000D02*
X186812323Y-69823000D01*
X186852323Y-61202000D02*
X186852323Y-64260000D01*
X186852323Y-66740000D02*
X186852323Y-69798000D01*
X186892323Y-61228000D02*
X186892323Y-64260000D01*
X186892323Y-66740000D02*
X186892323Y-69772000D01*
X186932323Y-61253000D02*
X186932323Y-64260000D01*
X186932323Y-66740000D02*
X186932323Y-69747000D01*
X186972323Y-61280000D02*
X186972323Y-64260000D01*
X186972323Y-66740000D02*
X186972323Y-69720000D01*
X187012323Y-61307000D02*
X187012323Y-64260000D01*
X187012323Y-66740000D02*
X187012323Y-69693000D01*
X187052323Y-61334000D02*
X187052323Y-64260000D01*
X187052323Y-66740000D02*
X187052323Y-69666000D01*
X187092323Y-61362000D02*
X187092323Y-64260000D01*
X187092323Y-66740000D02*
X187092323Y-69638000D01*
X187132323Y-61391000D02*
X187132323Y-64260000D01*
X187132323Y-66740000D02*
X187132323Y-69609000D01*
X187172323Y-61420000D02*
X187172323Y-64260000D01*
X187172323Y-66740000D02*
X187172323Y-69580000D01*
X187212323Y-61450000D02*
X187212323Y-64260000D01*
X187212323Y-66740000D02*
X187212323Y-69550000D01*
X187252323Y-61480000D02*
X187252323Y-64260000D01*
X187252323Y-66740000D02*
X187252323Y-69520000D01*
X187292323Y-61512000D02*
X187292323Y-64260000D01*
X187292323Y-66740000D02*
X187292323Y-69488000D01*
X187332323Y-61543000D02*
X187332323Y-64260000D01*
X187332323Y-66740000D02*
X187332323Y-69457000D01*
X187372323Y-61576000D02*
X187372323Y-64260000D01*
X187372323Y-66740000D02*
X187372323Y-69424000D01*
X187412323Y-61609000D02*
X187412323Y-64260000D01*
X187412323Y-66740000D02*
X187412323Y-69391000D01*
X187452323Y-61642000D02*
X187452323Y-64260000D01*
X187452323Y-66740000D02*
X187452323Y-69358000D01*
X187492323Y-61677000D02*
X187492323Y-64260000D01*
X187492323Y-66740000D02*
X187492323Y-69323000D01*
X187532323Y-61712000D02*
X187532323Y-64260000D01*
X187532323Y-66740000D02*
X187532323Y-69288000D01*
X187572323Y-61748000D02*
X187572323Y-64260000D01*
X187572323Y-66740000D02*
X187572323Y-69252000D01*
X187612323Y-61784000D02*
X187612323Y-64260000D01*
X187612323Y-66740000D02*
X187612323Y-69216000D01*
X187652323Y-61822000D02*
X187652323Y-64260000D01*
X187652323Y-66740000D02*
X187652323Y-69178000D01*
X187692323Y-61860000D02*
X187692323Y-64260000D01*
X187692323Y-66740000D02*
X187692323Y-69140000D01*
X187732323Y-61899000D02*
X187732323Y-64260000D01*
X187732323Y-66740000D02*
X187732323Y-69101000D01*
X187772323Y-61939000D02*
X187772323Y-64260000D01*
X187772323Y-66740000D02*
X187772323Y-69061000D01*
X187812323Y-61980000D02*
X187812323Y-64260000D01*
X187812323Y-66740000D02*
X187812323Y-69020000D01*
X187852323Y-62022000D02*
X187852323Y-64260000D01*
X187852323Y-66740000D02*
X187852323Y-68978000D01*
X187892323Y-62065000D02*
X187892323Y-68935000D01*
X187932323Y-62109000D02*
X187932323Y-68891000D01*
X187972323Y-62153000D02*
X187972323Y-68847000D01*
X188012323Y-62199000D02*
X188012323Y-68801000D01*
X188052323Y-62246000D02*
X188052323Y-68754000D01*
X188092323Y-62295000D02*
X188092323Y-68705000D01*
X188132323Y-62344000D02*
X188132323Y-68656000D01*
X188172323Y-62395000D02*
X188172323Y-68605000D01*
X188212323Y-62447000D02*
X188212323Y-68553000D01*
X188252323Y-62500000D02*
X188252323Y-68500000D01*
X188292323Y-62555000D02*
X188292323Y-68445000D01*
X188332323Y-62612000D02*
X188332323Y-68388000D01*
X188372323Y-62670000D02*
X188372323Y-68330000D01*
X188412323Y-62730000D02*
X188412323Y-68270000D01*
X188452323Y-62792000D02*
X188452323Y-68208000D01*
X188492323Y-62856000D02*
X188492323Y-68144000D01*
X188532323Y-62922000D02*
X188532323Y-68078000D01*
X188572323Y-62990000D02*
X188572323Y-68010000D01*
X188612323Y-63061000D02*
X188612323Y-67939000D01*
X188652323Y-63135000D02*
X188652323Y-67865000D01*
X188692323Y-63212000D02*
X188692323Y-67788000D01*
X188732323Y-63292000D02*
X188732323Y-67708000D01*
X188772323Y-63376000D02*
X188772323Y-67624000D01*
X188812323Y-63463000D02*
X188812323Y-67537000D01*
X188852323Y-63556000D02*
X188852323Y-67444000D01*
X188892323Y-63654000D02*
X188892323Y-67346000D01*
X188932323Y-63758000D02*
X188932323Y-67242000D01*
X188972323Y-63870000D02*
X188972323Y-67130000D01*
X189012323Y-63991000D02*
X189012323Y-67009000D01*
X189052323Y-64123000D02*
X189052323Y-66877000D01*
X189092323Y-64270000D02*
X189092323Y-66730000D01*
X189132323Y-64438000D02*
X189132323Y-66562000D01*
X189172323Y-64638000D02*
X189172323Y-66362000D01*
X189212323Y-64901000D02*
X189212323Y-66099000D01*
X189252323Y-65500000D02*
G75*
G02*
X179012323Y-65500000I-5120000J0D01*
G01*
X179012323Y-65500000D02*
G75*
G02*
X189252323Y-65500000I5120000J0D01*
G01*
%TO.C,C4*%
X146690302Y-79565000D02*
X147490302Y-79565000D01*
X147090302Y-79165000D02*
X147090302Y-79965000D01*
X151100000Y-77800000D02*
X151100000Y-85960000D01*
X151140000Y-77800000D02*
X151140000Y-85960000D01*
X151180000Y-77801000D02*
X151180000Y-85959000D01*
X151220000Y-77802000D02*
X151220000Y-85958000D01*
X151260000Y-77803000D02*
X151260000Y-85957000D01*
X151300000Y-77805000D02*
X151300000Y-85955000D01*
X151340000Y-77807000D02*
X151340000Y-85953000D01*
X151380000Y-77810000D02*
X151380000Y-85950000D01*
X151420000Y-77812000D02*
X151420000Y-85948000D01*
X151460000Y-77816000D02*
X151460000Y-85944000D01*
X151500000Y-77819000D02*
X151500000Y-85941000D01*
X151540000Y-77824000D02*
X151540000Y-85936000D01*
X151580000Y-77828000D02*
X151580000Y-85932000D01*
X151620000Y-77833000D02*
X151620000Y-85927000D01*
X151660000Y-77838000D02*
X151660000Y-85922000D01*
X151700000Y-77844000D02*
X151700000Y-85916000D01*
X151740000Y-77850000D02*
X151740000Y-85910000D01*
X151780000Y-77857000D02*
X151780000Y-85903000D01*
X151820000Y-77863000D02*
X151820000Y-85897000D01*
X151860000Y-77871000D02*
X151860000Y-85889000D01*
X151900000Y-77878000D02*
X151900000Y-85882000D01*
X151940000Y-77887000D02*
X151940000Y-85873000D01*
X151980000Y-77895000D02*
X151980000Y-80840000D01*
X151980000Y-82920000D02*
X151980000Y-85865000D01*
X152020000Y-77904000D02*
X152020000Y-80840000D01*
X152020000Y-82920000D02*
X152020000Y-85856000D01*
X152060000Y-77913000D02*
X152060000Y-80840000D01*
X152060000Y-82920000D02*
X152060000Y-85847000D01*
X152100000Y-77923000D02*
X152100000Y-80840000D01*
X152100000Y-82920000D02*
X152100000Y-85837000D01*
X152140000Y-77933000D02*
X152140000Y-80840000D01*
X152140000Y-82920000D02*
X152140000Y-85827000D01*
X152180000Y-77944000D02*
X152180000Y-80840000D01*
X152180000Y-82920000D02*
X152180000Y-85816000D01*
X152220000Y-77955000D02*
X152220000Y-80840000D01*
X152220000Y-82920000D02*
X152220000Y-85805000D01*
X152260000Y-77967000D02*
X152260000Y-80840000D01*
X152260000Y-82920000D02*
X152260000Y-85793000D01*
X152300000Y-77979000D02*
X152300000Y-80840000D01*
X152300000Y-82920000D02*
X152300000Y-85781000D01*
X152340000Y-77991000D02*
X152340000Y-80840000D01*
X152340000Y-82920000D02*
X152340000Y-85769000D01*
X152380000Y-78004000D02*
X152380000Y-80840000D01*
X152380000Y-82920000D02*
X152380000Y-85756000D01*
X152420000Y-78017000D02*
X152420000Y-80840000D01*
X152420000Y-82920000D02*
X152420000Y-85743000D01*
X152460000Y-78031000D02*
X152460000Y-80840000D01*
X152460000Y-82920000D02*
X152460000Y-85729000D01*
X152500000Y-78045000D02*
X152500000Y-80840000D01*
X152500000Y-82920000D02*
X152500000Y-85715000D01*
X152540000Y-78060000D02*
X152540000Y-80840000D01*
X152540000Y-82920000D02*
X152540000Y-85700000D01*
X152580000Y-78075000D02*
X152580000Y-80840000D01*
X152580000Y-82920000D02*
X152580000Y-85685000D01*
X152620000Y-78091000D02*
X152620000Y-80840000D01*
X152620000Y-82920000D02*
X152620000Y-85669000D01*
X152660000Y-78107000D02*
X152660000Y-80840000D01*
X152660000Y-82920000D02*
X152660000Y-85653000D01*
X152700000Y-78123000D02*
X152700000Y-80840000D01*
X152700000Y-82920000D02*
X152700000Y-85637000D01*
X152740000Y-78140000D02*
X152740000Y-80840000D01*
X152740000Y-82920000D02*
X152740000Y-85620000D01*
X152780000Y-78158000D02*
X152780000Y-80840000D01*
X152780000Y-82920000D02*
X152780000Y-85602000D01*
X152820000Y-78176000D02*
X152820000Y-80840000D01*
X152820000Y-82920000D02*
X152820000Y-85584000D01*
X152860000Y-78195000D02*
X152860000Y-80840000D01*
X152860000Y-82920000D02*
X152860000Y-85565000D01*
X152900000Y-78214000D02*
X152900000Y-80840000D01*
X152900000Y-82920000D02*
X152900000Y-85546000D01*
X152940000Y-78234000D02*
X152940000Y-80840000D01*
X152940000Y-82920000D02*
X152940000Y-85526000D01*
X152980000Y-78254000D02*
X152980000Y-80840000D01*
X152980000Y-82920000D02*
X152980000Y-85506000D01*
X153020000Y-78275000D02*
X153020000Y-80840000D01*
X153020000Y-82920000D02*
X153020000Y-85485000D01*
X153060000Y-78296000D02*
X153060000Y-80840000D01*
X153060000Y-82920000D02*
X153060000Y-85464000D01*
X153100000Y-78318000D02*
X153100000Y-80840000D01*
X153100000Y-82920000D02*
X153100000Y-85442000D01*
X153140000Y-78341000D02*
X153140000Y-80840000D01*
X153140000Y-82920000D02*
X153140000Y-85419000D01*
X153180000Y-78364000D02*
X153180000Y-80840000D01*
X153180000Y-82920000D02*
X153180000Y-85396000D01*
X153220000Y-78387000D02*
X153220000Y-80840000D01*
X153220000Y-82920000D02*
X153220000Y-85373000D01*
X153260000Y-78412000D02*
X153260000Y-80840000D01*
X153260000Y-82920000D02*
X153260000Y-85348000D01*
X153300000Y-78437000D02*
X153300000Y-80840000D01*
X153300000Y-82920000D02*
X153300000Y-85323000D01*
X153340000Y-78462000D02*
X153340000Y-80840000D01*
X153340000Y-82920000D02*
X153340000Y-85298000D01*
X153380000Y-78488000D02*
X153380000Y-80840000D01*
X153380000Y-82920000D02*
X153380000Y-85272000D01*
X153420000Y-78515000D02*
X153420000Y-80840000D01*
X153420000Y-82920000D02*
X153420000Y-85245000D01*
X153460000Y-78543000D02*
X153460000Y-80840000D01*
X153460000Y-82920000D02*
X153460000Y-85217000D01*
X153500000Y-78571000D02*
X153500000Y-80840000D01*
X153500000Y-82920000D02*
X153500000Y-85189000D01*
X153540000Y-78600000D02*
X153540000Y-80840000D01*
X153540000Y-82920000D02*
X153540000Y-85160000D01*
X153580000Y-78630000D02*
X153580000Y-80840000D01*
X153580000Y-82920000D02*
X153580000Y-85130000D01*
X153620000Y-78661000D02*
X153620000Y-80840000D01*
X153620000Y-82920000D02*
X153620000Y-85099000D01*
X153660000Y-78692000D02*
X153660000Y-80840000D01*
X153660000Y-82920000D02*
X153660000Y-85068000D01*
X153700000Y-78724000D02*
X153700000Y-80840000D01*
X153700000Y-82920000D02*
X153700000Y-85036000D01*
X153740000Y-78757000D02*
X153740000Y-80840000D01*
X153740000Y-82920000D02*
X153740000Y-85003000D01*
X153780000Y-78791000D02*
X153780000Y-80840000D01*
X153780000Y-82920000D02*
X153780000Y-84969000D01*
X153820000Y-78825000D02*
X153820000Y-80840000D01*
X153820000Y-82920000D02*
X153820000Y-84935000D01*
X153860000Y-78861000D02*
X153860000Y-80840000D01*
X153860000Y-82920000D02*
X153860000Y-84899000D01*
X153900000Y-78898000D02*
X153900000Y-80840000D01*
X153900000Y-82920000D02*
X153900000Y-84862000D01*
X153940000Y-78935000D02*
X153940000Y-80840000D01*
X153940000Y-82920000D02*
X153940000Y-84825000D01*
X153980000Y-78974000D02*
X153980000Y-80840000D01*
X153980000Y-82920000D02*
X153980000Y-84786000D01*
X154020000Y-79013000D02*
X154020000Y-80840000D01*
X154020000Y-82920000D02*
X154020000Y-84747000D01*
X154060000Y-79054000D02*
X154060000Y-84706000D01*
X154100000Y-79096000D02*
X154100000Y-84664000D01*
X154140000Y-79139000D02*
X154140000Y-84621000D01*
X154180000Y-79184000D02*
X154180000Y-84576000D01*
X154220000Y-79229000D02*
X154220000Y-84531000D01*
X154260000Y-79276000D02*
X154260000Y-84484000D01*
X154300000Y-79325000D02*
X154300000Y-84435000D01*
X154340000Y-79375000D02*
X154340000Y-84385000D01*
X154380000Y-79427000D02*
X154380000Y-84333000D01*
X154420000Y-79480000D02*
X154420000Y-84280000D01*
X154460000Y-79536000D02*
X154460000Y-84224000D01*
X154500000Y-79593000D02*
X154500000Y-84167000D01*
X154540000Y-79653000D02*
X154540000Y-84107000D01*
X154580000Y-79715000D02*
X154580000Y-84045000D01*
X154620000Y-79779000D02*
X154620000Y-83981000D01*
X154660000Y-79846000D02*
X154660000Y-83914000D01*
X154700000Y-79916000D02*
X154700000Y-83844000D01*
X154740000Y-79990000D02*
X154740000Y-83770000D01*
X154780000Y-80067000D02*
X154780000Y-83693000D01*
X154820000Y-80149000D02*
X154820000Y-83611000D01*
X154860000Y-80236000D02*
X154860000Y-83524000D01*
X154900000Y-80328000D02*
X154900000Y-83432000D01*
X154940000Y-80427000D02*
X154940000Y-83333000D01*
X154980000Y-80534000D02*
X154980000Y-83226000D01*
X155020000Y-80652000D02*
X155020000Y-83108000D01*
X155060000Y-80783000D02*
X155060000Y-82977000D01*
X155100000Y-80933000D02*
X155100000Y-82827000D01*
X155140000Y-81112000D02*
X155140000Y-82648000D01*
X155180000Y-81347000D02*
X155180000Y-82413000D01*
X155220000Y-81880000D02*
G75*
G02*
X146980000Y-81880000I-4120000J0D01*
G01*
X146980000Y-81880000D02*
G75*
G02*
X155220000Y-81880000I4120000J0D01*
G01*
%TO.C,C3*%
X110630000Y-121260000D02*
X111165000Y-121260000D01*
X110630000Y-127500000D02*
X110630000Y-121260000D01*
X111165000Y-127500000D02*
X110630000Y-127500000D01*
X112835000Y-121260000D02*
X113370000Y-121260000D01*
X113370000Y-121260000D02*
X113370000Y-127500000D01*
X113370000Y-127500000D02*
X112835000Y-127500000D01*
%TO.C,U1*%
X170250000Y-71550000D02*
X170250000Y-81830000D01*
X170250000Y-81830000D02*
X174750000Y-81830000D01*
X171500000Y-71550000D02*
X170250000Y-71550000D01*
X174750000Y-71550000D02*
X173500000Y-71550000D01*
X174750000Y-81830000D02*
X174750000Y-71550000D01*
X167250000Y-71490000D02*
X177750000Y-71490000D01*
X177750000Y-81890000D01*
X167250000Y-81890000D01*
X167250000Y-71490000D01*
X173500000Y-71550000D02*
G75*
G02*
X171500000Y-71550000I-1000000J0D01*
G01*
%TO.C,C1*%
X168380000Y-85630000D02*
X174620000Y-85630000D01*
X168380000Y-86165000D02*
X168380000Y-85630000D01*
X168380000Y-88370000D02*
X168380000Y-87835000D01*
X174620000Y-85630000D02*
X174620000Y-86165000D01*
X174620000Y-87835000D02*
X174620000Y-88370000D01*
X174620000Y-88370000D02*
X168380000Y-88370000D01*
%TO.C,VCC1*%
X147380000Y-92690000D02*
X147380000Y-100310000D01*
X147380000Y-100310000D02*
X157540000Y-100310000D01*
X157540000Y-92690000D02*
X147380000Y-92690000D01*
X157540000Y-99040000D02*
X147380000Y-99040000D01*
X157540000Y-100310000D02*
X157540000Y-92690000D01*
X157540000Y-145310000D02*
X157540000Y-137690000D01*
X157540000Y-144040000D02*
X147380000Y-144040000D01*
X157540000Y-137690000D02*
X147380000Y-137690000D01*
X147380000Y-145310000D02*
X157540000Y-145310000D01*
X147380000Y-137690000D02*
X147380000Y-145310000D01*
%TO.C,U1*%
X173500000Y-116550000D02*
G75*
G02*
X171500000Y-116550000I-1000000J0D01*
G01*
X167250000Y-116490000D02*
X177750000Y-116490000D01*
X177750000Y-126890000D01*
X167250000Y-126890000D01*
X167250000Y-116490000D01*
X174750000Y-126830000D02*
X174750000Y-116550000D01*
X174750000Y-116550000D02*
X173500000Y-116550000D01*
X171500000Y-116550000D02*
X170250000Y-116550000D01*
X170250000Y-126830000D02*
X174750000Y-126830000D01*
X170250000Y-116550000D02*
X170250000Y-126830000D01*
%TO.C,C1*%
X174620000Y-133370000D02*
X168380000Y-133370000D01*
X174620000Y-132835000D02*
X174620000Y-133370000D01*
X174620000Y-130630000D02*
X174620000Y-131165000D01*
X168380000Y-133370000D02*
X168380000Y-132835000D01*
X168380000Y-131165000D02*
X168380000Y-130630000D01*
X168380000Y-130630000D02*
X174620000Y-130630000D01*
%TO.C,C2*%
X188217349Y-129000000D02*
G75*
G02*
X179977349Y-129000000I-4120000J0D01*
G01*
X179977349Y-129000000D02*
G75*
G02*
X188217349Y-129000000I4120000J0D01*
G01*
X188177349Y-128467000D02*
X188177349Y-129533000D01*
X188137349Y-128232000D02*
X188137349Y-129768000D01*
X188097349Y-128053000D02*
X188097349Y-129947000D01*
X188057349Y-127903000D02*
X188057349Y-130097000D01*
X188017349Y-127772000D02*
X188017349Y-130228000D01*
X187977349Y-127654000D02*
X187977349Y-130346000D01*
X187937349Y-127547000D02*
X187937349Y-130453000D01*
X187897349Y-127448000D02*
X187897349Y-130552000D01*
X187857349Y-127356000D02*
X187857349Y-130644000D01*
X187817349Y-127269000D02*
X187817349Y-130731000D01*
X187777349Y-127187000D02*
X187777349Y-130813000D01*
X187737349Y-127110000D02*
X187737349Y-130890000D01*
X187697349Y-127036000D02*
X187697349Y-130964000D01*
X187657349Y-126966000D02*
X187657349Y-131034000D01*
X187617349Y-126899000D02*
X187617349Y-131101000D01*
X187577349Y-126835000D02*
X187577349Y-131165000D01*
X187537349Y-126773000D02*
X187537349Y-131227000D01*
X187497349Y-126713000D02*
X187497349Y-131287000D01*
X187457349Y-126656000D02*
X187457349Y-131344000D01*
X187417349Y-126600000D02*
X187417349Y-131400000D01*
X187377349Y-126547000D02*
X187377349Y-131453000D01*
X187337349Y-126495000D02*
X187337349Y-131505000D01*
X187297349Y-126445000D02*
X187297349Y-131555000D01*
X187257349Y-126396000D02*
X187257349Y-131604000D01*
X187217349Y-126349000D02*
X187217349Y-131651000D01*
X187177349Y-126304000D02*
X187177349Y-131696000D01*
X187137349Y-126259000D02*
X187137349Y-131741000D01*
X187097349Y-126216000D02*
X187097349Y-131784000D01*
X187057349Y-126174000D02*
X187057349Y-131826000D01*
X187017349Y-130040000D02*
X187017349Y-131867000D01*
X187017349Y-126133000D02*
X187017349Y-127960000D01*
X186977349Y-130040000D02*
X186977349Y-131906000D01*
X186977349Y-126094000D02*
X186977349Y-127960000D01*
X186937349Y-130040000D02*
X186937349Y-131945000D01*
X186937349Y-126055000D02*
X186937349Y-127960000D01*
X186897349Y-130040000D02*
X186897349Y-131982000D01*
X186897349Y-126018000D02*
X186897349Y-127960000D01*
X186857349Y-130040000D02*
X186857349Y-132019000D01*
X186857349Y-125981000D02*
X186857349Y-127960000D01*
X186817349Y-130040000D02*
X186817349Y-132055000D01*
X186817349Y-125945000D02*
X186817349Y-127960000D01*
X186777349Y-130040000D02*
X186777349Y-132089000D01*
X186777349Y-125911000D02*
X186777349Y-127960000D01*
X186737349Y-130040000D02*
X186737349Y-132123000D01*
X186737349Y-125877000D02*
X186737349Y-127960000D01*
X186697349Y-130040000D02*
X186697349Y-132156000D01*
X186697349Y-125844000D02*
X186697349Y-127960000D01*
X186657349Y-130040000D02*
X186657349Y-132188000D01*
X186657349Y-125812000D02*
X186657349Y-127960000D01*
X186617349Y-130040000D02*
X186617349Y-132219000D01*
X186617349Y-125781000D02*
X186617349Y-127960000D01*
X186577349Y-130040000D02*
X186577349Y-132250000D01*
X186577349Y-125750000D02*
X186577349Y-127960000D01*
X186537349Y-130040000D02*
X186537349Y-132280000D01*
X186537349Y-125720000D02*
X186537349Y-127960000D01*
X186497349Y-130040000D02*
X186497349Y-132309000D01*
X186497349Y-125691000D02*
X186497349Y-127960000D01*
X186457349Y-130040000D02*
X186457349Y-132337000D01*
X186457349Y-125663000D02*
X186457349Y-127960000D01*
X186417349Y-130040000D02*
X186417349Y-132365000D01*
X186417349Y-125635000D02*
X186417349Y-127960000D01*
X186377349Y-130040000D02*
X186377349Y-132392000D01*
X186377349Y-125608000D02*
X186377349Y-127960000D01*
X186337349Y-130040000D02*
X186337349Y-132418000D01*
X186337349Y-125582000D02*
X186337349Y-127960000D01*
X186297349Y-130040000D02*
X186297349Y-132443000D01*
X186297349Y-125557000D02*
X186297349Y-127960000D01*
X186257349Y-130040000D02*
X186257349Y-132468000D01*
X186257349Y-125532000D02*
X186257349Y-127960000D01*
X186217349Y-130040000D02*
X186217349Y-132493000D01*
X186217349Y-125507000D02*
X186217349Y-127960000D01*
X186177349Y-130040000D02*
X186177349Y-132516000D01*
X186177349Y-125484000D02*
X186177349Y-127960000D01*
X186137349Y-130040000D02*
X186137349Y-132539000D01*
X186137349Y-125461000D02*
X186137349Y-127960000D01*
X186097349Y-130040000D02*
X186097349Y-132562000D01*
X186097349Y-125438000D02*
X186097349Y-127960000D01*
X186057349Y-130040000D02*
X186057349Y-132584000D01*
X186057349Y-125416000D02*
X186057349Y-127960000D01*
X186017349Y-130040000D02*
X186017349Y-132605000D01*
X186017349Y-125395000D02*
X186017349Y-127960000D01*
X185977349Y-130040000D02*
X185977349Y-132626000D01*
X185977349Y-125374000D02*
X185977349Y-127960000D01*
X185937349Y-130040000D02*
X185937349Y-132646000D01*
X185937349Y-125354000D02*
X185937349Y-127960000D01*
X185897349Y-130040000D02*
X185897349Y-132666000D01*
X185897349Y-125334000D02*
X185897349Y-127960000D01*
X185857349Y-130040000D02*
X185857349Y-132685000D01*
X185857349Y-125315000D02*
X185857349Y-127960000D01*
X185817349Y-130040000D02*
X185817349Y-132704000D01*
X185817349Y-125296000D02*
X185817349Y-127960000D01*
X185777349Y-130040000D02*
X185777349Y-132722000D01*
X185777349Y-125278000D02*
X185777349Y-127960000D01*
X185737349Y-130040000D02*
X185737349Y-132740000D01*
X185737349Y-125260000D02*
X185737349Y-127960000D01*
X185697349Y-130040000D02*
X185697349Y-132757000D01*
X185697349Y-125243000D02*
X185697349Y-127960000D01*
X185657349Y-130040000D02*
X185657349Y-132773000D01*
X185657349Y-125227000D02*
X185657349Y-127960000D01*
X185617349Y-130040000D02*
X185617349Y-132789000D01*
X185617349Y-125211000D02*
X185617349Y-127960000D01*
X185577349Y-130040000D02*
X185577349Y-132805000D01*
X185577349Y-125195000D02*
X185577349Y-127960000D01*
X185537349Y-130040000D02*
X185537349Y-132820000D01*
X185537349Y-125180000D02*
X185537349Y-127960000D01*
X185497349Y-130040000D02*
X185497349Y-132835000D01*
X185497349Y-125165000D02*
X185497349Y-127960000D01*
X185457349Y-130040000D02*
X185457349Y-132849000D01*
X185457349Y-125151000D02*
X185457349Y-127960000D01*
X185417349Y-130040000D02*
X185417349Y-132863000D01*
X185417349Y-125137000D02*
X185417349Y-127960000D01*
X185377349Y-130040000D02*
X185377349Y-132876000D01*
X185377349Y-125124000D02*
X185377349Y-127960000D01*
X185337349Y-130040000D02*
X185337349Y-132889000D01*
X185337349Y-125111000D02*
X185337349Y-127960000D01*
X185297349Y-130040000D02*
X185297349Y-132901000D01*
X185297349Y-125099000D02*
X185297349Y-127960000D01*
X185257349Y-130040000D02*
X185257349Y-132913000D01*
X185257349Y-125087000D02*
X185257349Y-127960000D01*
X185217349Y-130040000D02*
X185217349Y-132925000D01*
X185217349Y-125075000D02*
X185217349Y-127960000D01*
X185177349Y-130040000D02*
X185177349Y-132936000D01*
X185177349Y-125064000D02*
X185177349Y-127960000D01*
X185137349Y-130040000D02*
X185137349Y-132947000D01*
X185137349Y-125053000D02*
X185137349Y-127960000D01*
X185097349Y-130040000D02*
X185097349Y-132957000D01*
X185097349Y-125043000D02*
X185097349Y-127960000D01*
X185057349Y-130040000D02*
X185057349Y-132967000D01*
X185057349Y-125033000D02*
X185057349Y-127960000D01*
X185017349Y-130040000D02*
X185017349Y-132976000D01*
X185017349Y-125024000D02*
X185017349Y-127960000D01*
X184977349Y-130040000D02*
X184977349Y-132985000D01*
X184977349Y-125015000D02*
X184977349Y-127960000D01*
X184937349Y-125007000D02*
X184937349Y-132993000D01*
X184897349Y-124998000D02*
X184897349Y-133002000D01*
X184857349Y-124991000D02*
X184857349Y-133009000D01*
X184817349Y-124983000D02*
X184817349Y-133017000D01*
X184777349Y-124977000D02*
X184777349Y-133023000D01*
X184737349Y-124970000D02*
X184737349Y-133030000D01*
X184697349Y-124964000D02*
X184697349Y-133036000D01*
X184657349Y-124958000D02*
X184657349Y-133042000D01*
X184617349Y-124953000D02*
X184617349Y-133047000D01*
X184577349Y-124948000D02*
X184577349Y-133052000D01*
X184537349Y-124944000D02*
X184537349Y-133056000D01*
X184497349Y-124939000D02*
X184497349Y-133061000D01*
X184457349Y-124936000D02*
X184457349Y-133064000D01*
X184417349Y-124932000D02*
X184417349Y-133068000D01*
X184377349Y-124930000D02*
X184377349Y-133070000D01*
X184337349Y-124927000D02*
X184337349Y-133073000D01*
X184297349Y-124925000D02*
X184297349Y-133075000D01*
X184257349Y-124923000D02*
X184257349Y-133077000D01*
X184217349Y-124922000D02*
X184217349Y-133078000D01*
X184177349Y-124921000D02*
X184177349Y-133079000D01*
X184137349Y-124920000D02*
X184137349Y-133080000D01*
X184097349Y-124920000D02*
X184097349Y-133080000D01*
X180087651Y-126285000D02*
X180087651Y-127085000D01*
X179687651Y-126685000D02*
X180487651Y-126685000D01*
%TO.C,C5*%
X164620000Y-109620000D02*
X158380000Y-109620000D01*
X164620000Y-109085000D02*
X164620000Y-109620000D01*
X164620000Y-106880000D02*
X164620000Y-107415000D01*
X158380000Y-109620000D02*
X158380000Y-109085000D01*
X158380000Y-107415000D02*
X158380000Y-106880000D01*
X158380000Y-106880000D02*
X164620000Y-106880000D01*
%TO.C,R2*%
X163460000Y-114870000D02*
X163460000Y-114540000D01*
X163460000Y-112130000D02*
X163460000Y-112460000D01*
X156920000Y-114870000D02*
X163460000Y-114870000D01*
X156920000Y-114540000D02*
X156920000Y-114870000D01*
X156920000Y-112460000D02*
X156920000Y-112130000D01*
X156920000Y-112130000D02*
X163460000Y-112130000D01*
%TO.C,C6*%
X189252323Y-110500000D02*
G75*
G02*
X179012323Y-110500000I-5120000J0D01*
G01*
X179012323Y-110500000D02*
G75*
G02*
X189252323Y-110500000I5120000J0D01*
G01*
X189212323Y-109901000D02*
X189212323Y-111099000D01*
X189172323Y-109638000D02*
X189172323Y-111362000D01*
X189132323Y-109438000D02*
X189132323Y-111562000D01*
X189092323Y-109270000D02*
X189092323Y-111730000D01*
X189052323Y-109123000D02*
X189052323Y-111877000D01*
X189012323Y-108991000D02*
X189012323Y-112009000D01*
X188972323Y-108870000D02*
X188972323Y-112130000D01*
X188932323Y-108758000D02*
X188932323Y-112242000D01*
X188892323Y-108654000D02*
X188892323Y-112346000D01*
X188852323Y-108556000D02*
X188852323Y-112444000D01*
X188812323Y-108463000D02*
X188812323Y-112537000D01*
X188772323Y-108376000D02*
X188772323Y-112624000D01*
X188732323Y-108292000D02*
X188732323Y-112708000D01*
X188692323Y-108212000D02*
X188692323Y-112788000D01*
X188652323Y-108135000D02*
X188652323Y-112865000D01*
X188612323Y-108061000D02*
X188612323Y-112939000D01*
X188572323Y-107990000D02*
X188572323Y-113010000D01*
X188532323Y-107922000D02*
X188532323Y-113078000D01*
X188492323Y-107856000D02*
X188492323Y-113144000D01*
X188452323Y-107792000D02*
X188452323Y-113208000D01*
X188412323Y-107730000D02*
X188412323Y-113270000D01*
X188372323Y-107670000D02*
X188372323Y-113330000D01*
X188332323Y-107612000D02*
X188332323Y-113388000D01*
X188292323Y-107555000D02*
X188292323Y-113445000D01*
X188252323Y-107500000D02*
X188252323Y-113500000D01*
X188212323Y-107447000D02*
X188212323Y-113553000D01*
X188172323Y-107395000D02*
X188172323Y-113605000D01*
X188132323Y-107344000D02*
X188132323Y-113656000D01*
X188092323Y-107295000D02*
X188092323Y-113705000D01*
X188052323Y-107246000D02*
X188052323Y-113754000D01*
X188012323Y-107199000D02*
X188012323Y-113801000D01*
X187972323Y-107153000D02*
X187972323Y-113847000D01*
X187932323Y-107109000D02*
X187932323Y-113891000D01*
X187892323Y-107065000D02*
X187892323Y-113935000D01*
X187852323Y-111740000D02*
X187852323Y-113978000D01*
X187852323Y-107022000D02*
X187852323Y-109260000D01*
X187812323Y-111740000D02*
X187812323Y-114020000D01*
X187812323Y-106980000D02*
X187812323Y-109260000D01*
X187772323Y-111740000D02*
X187772323Y-114061000D01*
X187772323Y-106939000D02*
X187772323Y-109260000D01*
X187732323Y-111740000D02*
X187732323Y-114101000D01*
X187732323Y-106899000D02*
X187732323Y-109260000D01*
X187692323Y-111740000D02*
X187692323Y-114140000D01*
X187692323Y-106860000D02*
X187692323Y-109260000D01*
X187652323Y-111740000D02*
X187652323Y-114178000D01*
X187652323Y-106822000D02*
X187652323Y-109260000D01*
X187612323Y-111740000D02*
X187612323Y-114216000D01*
X187612323Y-106784000D02*
X187612323Y-109260000D01*
X187572323Y-111740000D02*
X187572323Y-114252000D01*
X187572323Y-106748000D02*
X187572323Y-109260000D01*
X187532323Y-111740000D02*
X187532323Y-114288000D01*
X187532323Y-106712000D02*
X187532323Y-109260000D01*
X187492323Y-111740000D02*
X187492323Y-114323000D01*
X187492323Y-106677000D02*
X187492323Y-109260000D01*
X187452323Y-111740000D02*
X187452323Y-114358000D01*
X187452323Y-106642000D02*
X187452323Y-109260000D01*
X187412323Y-111740000D02*
X187412323Y-114391000D01*
X187412323Y-106609000D02*
X187412323Y-109260000D01*
X187372323Y-111740000D02*
X187372323Y-114424000D01*
X187372323Y-106576000D02*
X187372323Y-109260000D01*
X187332323Y-111740000D02*
X187332323Y-114457000D01*
X187332323Y-106543000D02*
X187332323Y-109260000D01*
X187292323Y-111740000D02*
X187292323Y-114488000D01*
X187292323Y-106512000D02*
X187292323Y-109260000D01*
X187252323Y-111740000D02*
X187252323Y-114520000D01*
X187252323Y-106480000D02*
X187252323Y-109260000D01*
X187212323Y-111740000D02*
X187212323Y-114550000D01*
X187212323Y-106450000D02*
X187212323Y-109260000D01*
X187172323Y-111740000D02*
X187172323Y-114580000D01*
X187172323Y-106420000D02*
X187172323Y-109260000D01*
X187132323Y-111740000D02*
X187132323Y-114609000D01*
X187132323Y-106391000D02*
X187132323Y-109260000D01*
X187092323Y-111740000D02*
X187092323Y-114638000D01*
X187092323Y-106362000D02*
X187092323Y-109260000D01*
X187052323Y-111740000D02*
X187052323Y-114666000D01*
X187052323Y-106334000D02*
X187052323Y-109260000D01*
X187012323Y-111740000D02*
X187012323Y-114693000D01*
X187012323Y-106307000D02*
X187012323Y-109260000D01*
X186972323Y-111740000D02*
X186972323Y-114720000D01*
X186972323Y-106280000D02*
X186972323Y-109260000D01*
X186932323Y-111740000D02*
X186932323Y-114747000D01*
X186932323Y-106253000D02*
X186932323Y-109260000D01*
X186892323Y-111740000D02*
X186892323Y-114772000D01*
X186892323Y-106228000D02*
X186892323Y-109260000D01*
X186852323Y-111740000D02*
X186852323Y-114798000D01*
X186852323Y-106202000D02*
X186852323Y-109260000D01*
X186812323Y-111740000D02*
X186812323Y-114823000D01*
X186812323Y-106177000D02*
X186812323Y-109260000D01*
X186772323Y-111740000D02*
X186772323Y-114847000D01*
X186772323Y-106153000D02*
X186772323Y-109260000D01*
X186732323Y-111740000D02*
X186732323Y-114871000D01*
X186732323Y-106129000D02*
X186732323Y-109260000D01*
X186692323Y-111740000D02*
X186692323Y-114894000D01*
X186692323Y-106106000D02*
X186692323Y-109260000D01*
X186652323Y-111740000D02*
X186652323Y-114917000D01*
X186652323Y-106083000D02*
X186652323Y-109260000D01*
X186612323Y-111740000D02*
X186612323Y-114939000D01*
X186612323Y-106061000D02*
X186612323Y-109260000D01*
X186572323Y-111740000D02*
X186572323Y-114961000D01*
X186572323Y-106039000D02*
X186572323Y-109260000D01*
X186532323Y-111740000D02*
X186532323Y-114983000D01*
X186532323Y-106017000D02*
X186532323Y-109260000D01*
X186492323Y-111740000D02*
X186492323Y-115004000D01*
X186492323Y-105996000D02*
X186492323Y-109260000D01*
X186452323Y-111740000D02*
X186452323Y-115024000D01*
X186452323Y-105976000D02*
X186452323Y-109260000D01*
X186412323Y-111740000D02*
X186412323Y-115044000D01*
X186412323Y-105956000D02*
X186412323Y-109260000D01*
X186372323Y-111740000D02*
X186372323Y-115064000D01*
X186372323Y-105936000D02*
X186372323Y-109260000D01*
X186332323Y-111740000D02*
X186332323Y-115083000D01*
X186332323Y-105917000D02*
X186332323Y-109260000D01*
X186292323Y-111740000D02*
X186292323Y-115102000D01*
X186292323Y-105898000D02*
X186292323Y-109260000D01*
X186252323Y-111740000D02*
X186252323Y-115120000D01*
X186252323Y-105880000D02*
X186252323Y-109260000D01*
X186212323Y-111740000D02*
X186212323Y-115138000D01*
X186212323Y-105862000D02*
X186212323Y-109260000D01*
X186172323Y-111740000D02*
X186172323Y-115156000D01*
X186172323Y-105844000D02*
X186172323Y-109260000D01*
X186132323Y-111740000D02*
X186132323Y-115173000D01*
X186132323Y-105827000D02*
X186132323Y-109260000D01*
X186092323Y-111740000D02*
X186092323Y-115190000D01*
X186092323Y-105810000D02*
X186092323Y-109260000D01*
X186052323Y-111740000D02*
X186052323Y-115206000D01*
X186052323Y-105794000D02*
X186052323Y-109260000D01*
X186012323Y-111740000D02*
X186012323Y-115222000D01*
X186012323Y-105778000D02*
X186012323Y-109260000D01*
X185972323Y-111740000D02*
X185972323Y-115238000D01*
X185972323Y-105762000D02*
X185972323Y-109260000D01*
X185932323Y-111740000D02*
X185932323Y-115253000D01*
X185932323Y-105747000D02*
X185932323Y-109260000D01*
X185892323Y-111740000D02*
X185892323Y-115268000D01*
X185892323Y-105732000D02*
X185892323Y-109260000D01*
X185852323Y-111740000D02*
X185852323Y-115282000D01*
X185852323Y-105718000D02*
X185852323Y-109260000D01*
X185812323Y-111740000D02*
X185812323Y-115297000D01*
X185812323Y-105703000D02*
X185812323Y-109260000D01*
X185772323Y-111740000D02*
X185772323Y-115310000D01*
X185772323Y-105690000D02*
X185772323Y-109260000D01*
X185732323Y-111740000D02*
X185732323Y-115324000D01*
X185732323Y-105676000D02*
X185732323Y-109260000D01*
X185692323Y-111740000D02*
X185692323Y-115337000D01*
X185692323Y-105663000D02*
X185692323Y-109260000D01*
X185652323Y-111740000D02*
X185652323Y-115349000D01*
X185652323Y-105651000D02*
X185652323Y-109260000D01*
X185612323Y-111740000D02*
X185612323Y-115361000D01*
X185612323Y-105639000D02*
X185612323Y-109260000D01*
X185572323Y-111740000D02*
X185572323Y-115373000D01*
X185572323Y-105627000D02*
X185572323Y-109260000D01*
X185532323Y-111740000D02*
X185532323Y-115385000D01*
X185532323Y-105615000D02*
X185532323Y-109260000D01*
X185492323Y-111740000D02*
X185492323Y-115396000D01*
X185492323Y-105604000D02*
X185492323Y-109260000D01*
X185452323Y-111740000D02*
X185452323Y-115407000D01*
X185452323Y-105593000D02*
X185452323Y-109260000D01*
X185412323Y-111740000D02*
X185412323Y-115417000D01*
X185412323Y-105583000D02*
X185412323Y-109260000D01*
X185372323Y-105572000D02*
X185372323Y-115428000D01*
X185332323Y-105563000D02*
X185332323Y-115437000D01*
X185292323Y-105553000D02*
X185292323Y-115447000D01*
X185252323Y-105544000D02*
X185252323Y-115456000D01*
X185212323Y-105535000D02*
X185212323Y-115465000D01*
X185172323Y-105527000D02*
X185172323Y-115473000D01*
X185132323Y-105519000D02*
X185132323Y-115481000D01*
X185092323Y-105511000D02*
X185092323Y-115489000D01*
X185052323Y-105503000D02*
X185052323Y-115497000D01*
X185012323Y-105496000D02*
X185012323Y-115504000D01*
X184972323Y-105489000D02*
X184972323Y-115511000D01*
X184932323Y-105483000D02*
X184932323Y-115517000D01*
X184892323Y-105477000D02*
X184892323Y-115523000D01*
X184852323Y-105471000D02*
X184852323Y-115529000D01*
X184812323Y-105465000D02*
X184812323Y-115535000D01*
X184772323Y-105460000D02*
X184772323Y-115540000D01*
X184732323Y-105455000D02*
X184732323Y-115545000D01*
X184692323Y-105451000D02*
X184692323Y-115549000D01*
X184652323Y-105446000D02*
X184652323Y-115554000D01*
X184612323Y-105443000D02*
X184612323Y-115557000D01*
X184572323Y-105439000D02*
X184572323Y-115561000D01*
X184532323Y-105436000D02*
X184532323Y-115564000D01*
X184492323Y-105433000D02*
X184492323Y-115567000D01*
X184452323Y-105430000D02*
X184452323Y-115570000D01*
X184412323Y-105428000D02*
X184412323Y-115572000D01*
X184372323Y-105426000D02*
X184372323Y-115574000D01*
X184332323Y-105424000D02*
X184332323Y-115576000D01*
X184292323Y-105423000D02*
X184292323Y-115577000D01*
X184252323Y-105421000D02*
X184252323Y-115579000D01*
X184212323Y-105421000D02*
X184212323Y-115579000D01*
X184172323Y-105420000D02*
X184172323Y-115580000D01*
X184132323Y-105420000D02*
X184132323Y-115580000D01*
X179152677Y-107125000D02*
X179152677Y-108125000D01*
X178652677Y-107625000D02*
X179652677Y-107625000D01*
%TO.C,C4*%
X155220000Y-126880000D02*
G75*
G02*
X146980000Y-126880000I-4120000J0D01*
G01*
X146980000Y-126880000D02*
G75*
G02*
X155220000Y-126880000I4120000J0D01*
G01*
X155180000Y-126347000D02*
X155180000Y-127413000D01*
X155140000Y-126112000D02*
X155140000Y-127648000D01*
X155100000Y-125933000D02*
X155100000Y-127827000D01*
X155060000Y-125783000D02*
X155060000Y-127977000D01*
X155020000Y-125652000D02*
X155020000Y-128108000D01*
X154980000Y-125534000D02*
X154980000Y-128226000D01*
X154940000Y-125427000D02*
X154940000Y-128333000D01*
X154900000Y-125328000D02*
X154900000Y-128432000D01*
X154860000Y-125236000D02*
X154860000Y-128524000D01*
X154820000Y-125149000D02*
X154820000Y-128611000D01*
X154780000Y-125067000D02*
X154780000Y-128693000D01*
X154740000Y-124990000D02*
X154740000Y-128770000D01*
X154700000Y-124916000D02*
X154700000Y-128844000D01*
X154660000Y-124846000D02*
X154660000Y-128914000D01*
X154620000Y-124779000D02*
X154620000Y-128981000D01*
X154580000Y-124715000D02*
X154580000Y-129045000D01*
X154540000Y-124653000D02*
X154540000Y-129107000D01*
X154500000Y-124593000D02*
X154500000Y-129167000D01*
X154460000Y-124536000D02*
X154460000Y-129224000D01*
X154420000Y-124480000D02*
X154420000Y-129280000D01*
X154380000Y-124427000D02*
X154380000Y-129333000D01*
X154340000Y-124375000D02*
X154340000Y-129385000D01*
X154300000Y-124325000D02*
X154300000Y-129435000D01*
X154260000Y-124276000D02*
X154260000Y-129484000D01*
X154220000Y-124229000D02*
X154220000Y-129531000D01*
X154180000Y-124184000D02*
X154180000Y-129576000D01*
X154140000Y-124139000D02*
X154140000Y-129621000D01*
X154100000Y-124096000D02*
X154100000Y-129664000D01*
X154060000Y-124054000D02*
X154060000Y-129706000D01*
X154020000Y-127920000D02*
X154020000Y-129747000D01*
X154020000Y-124013000D02*
X154020000Y-125840000D01*
X153980000Y-127920000D02*
X153980000Y-129786000D01*
X153980000Y-123974000D02*
X153980000Y-125840000D01*
X153940000Y-127920000D02*
X153940000Y-129825000D01*
X153940000Y-123935000D02*
X153940000Y-125840000D01*
X153900000Y-127920000D02*
X153900000Y-129862000D01*
X153900000Y-123898000D02*
X153900000Y-125840000D01*
X153860000Y-127920000D02*
X153860000Y-129899000D01*
X153860000Y-123861000D02*
X153860000Y-125840000D01*
X153820000Y-127920000D02*
X153820000Y-129935000D01*
X153820000Y-123825000D02*
X153820000Y-125840000D01*
X153780000Y-127920000D02*
X153780000Y-129969000D01*
X153780000Y-123791000D02*
X153780000Y-125840000D01*
X153740000Y-127920000D02*
X153740000Y-130003000D01*
X153740000Y-123757000D02*
X153740000Y-125840000D01*
X153700000Y-127920000D02*
X153700000Y-130036000D01*
X153700000Y-123724000D02*
X153700000Y-125840000D01*
X153660000Y-127920000D02*
X153660000Y-130068000D01*
X153660000Y-123692000D02*
X153660000Y-125840000D01*
X153620000Y-127920000D02*
X153620000Y-130099000D01*
X153620000Y-123661000D02*
X153620000Y-125840000D01*
X153580000Y-127920000D02*
X153580000Y-130130000D01*
X153580000Y-123630000D02*
X153580000Y-125840000D01*
X153540000Y-127920000D02*
X153540000Y-130160000D01*
X153540000Y-123600000D02*
X153540000Y-125840000D01*
X153500000Y-127920000D02*
X153500000Y-130189000D01*
X153500000Y-123571000D02*
X153500000Y-125840000D01*
X153460000Y-127920000D02*
X153460000Y-130217000D01*
X153460000Y-123543000D02*
X153460000Y-125840000D01*
X153420000Y-127920000D02*
X153420000Y-130245000D01*
X153420000Y-123515000D02*
X153420000Y-125840000D01*
X153380000Y-127920000D02*
X153380000Y-130272000D01*
X153380000Y-123488000D02*
X153380000Y-125840000D01*
X153340000Y-127920000D02*
X153340000Y-130298000D01*
X153340000Y-123462000D02*
X153340000Y-125840000D01*
X153300000Y-127920000D02*
X153300000Y-130323000D01*
X153300000Y-123437000D02*
X153300000Y-125840000D01*
X153260000Y-127920000D02*
X153260000Y-130348000D01*
X153260000Y-123412000D02*
X153260000Y-125840000D01*
X153220000Y-127920000D02*
X153220000Y-130373000D01*
X153220000Y-123387000D02*
X153220000Y-125840000D01*
X153180000Y-127920000D02*
X153180000Y-130396000D01*
X153180000Y-123364000D02*
X153180000Y-125840000D01*
X153140000Y-127920000D02*
X153140000Y-130419000D01*
X153140000Y-123341000D02*
X153140000Y-125840000D01*
X153100000Y-127920000D02*
X153100000Y-130442000D01*
X153100000Y-123318000D02*
X153100000Y-125840000D01*
X153060000Y-127920000D02*
X153060000Y-130464000D01*
X153060000Y-123296000D02*
X153060000Y-125840000D01*
X153020000Y-127920000D02*
X153020000Y-130485000D01*
X153020000Y-123275000D02*
X153020000Y-125840000D01*
X152980000Y-127920000D02*
X152980000Y-130506000D01*
X152980000Y-123254000D02*
X152980000Y-125840000D01*
X152940000Y-127920000D02*
X152940000Y-130526000D01*
X152940000Y-123234000D02*
X152940000Y-125840000D01*
X152900000Y-127920000D02*
X152900000Y-130546000D01*
X152900000Y-123214000D02*
X152900000Y-125840000D01*
X152860000Y-127920000D02*
X152860000Y-130565000D01*
X152860000Y-123195000D02*
X152860000Y-125840000D01*
X152820000Y-127920000D02*
X152820000Y-130584000D01*
X152820000Y-123176000D02*
X152820000Y-125840000D01*
X152780000Y-127920000D02*
X152780000Y-130602000D01*
X152780000Y-123158000D02*
X152780000Y-125840000D01*
X152740000Y-127920000D02*
X152740000Y-130620000D01*
X152740000Y-123140000D02*
X152740000Y-125840000D01*
X152700000Y-127920000D02*
X152700000Y-130637000D01*
X152700000Y-123123000D02*
X152700000Y-125840000D01*
X152660000Y-127920000D02*
X152660000Y-130653000D01*
X152660000Y-123107000D02*
X152660000Y-125840000D01*
X152620000Y-127920000D02*
X152620000Y-130669000D01*
X152620000Y-123091000D02*
X152620000Y-125840000D01*
X152580000Y-127920000D02*
X152580000Y-130685000D01*
X152580000Y-123075000D02*
X152580000Y-125840000D01*
X152540000Y-127920000D02*
X152540000Y-130700000D01*
X152540000Y-123060000D02*
X152540000Y-125840000D01*
X152500000Y-127920000D02*
X152500000Y-130715000D01*
X152500000Y-123045000D02*
X152500000Y-125840000D01*
X152460000Y-127920000D02*
X152460000Y-130729000D01*
X152460000Y-123031000D02*
X152460000Y-125840000D01*
X152420000Y-127920000D02*
X152420000Y-130743000D01*
X152420000Y-123017000D02*
X152420000Y-125840000D01*
X152380000Y-127920000D02*
X152380000Y-130756000D01*
X152380000Y-123004000D02*
X152380000Y-125840000D01*
X152340000Y-127920000D02*
X152340000Y-130769000D01*
X152340000Y-122991000D02*
X152340000Y-125840000D01*
X152300000Y-127920000D02*
X152300000Y-130781000D01*
X152300000Y-122979000D02*
X152300000Y-125840000D01*
X152260000Y-127920000D02*
X152260000Y-130793000D01*
X152260000Y-122967000D02*
X152260000Y-125840000D01*
X152220000Y-127920000D02*
X152220000Y-130805000D01*
X152220000Y-122955000D02*
X152220000Y-125840000D01*
X152180000Y-127920000D02*
X152180000Y-130816000D01*
X152180000Y-122944000D02*
X152180000Y-125840000D01*
X152140000Y-127920000D02*
X152140000Y-130827000D01*
X152140000Y-122933000D02*
X152140000Y-125840000D01*
X152100000Y-127920000D02*
X152100000Y-130837000D01*
X152100000Y-122923000D02*
X152100000Y-125840000D01*
X152060000Y-127920000D02*
X152060000Y-130847000D01*
X152060000Y-122913000D02*
X152060000Y-125840000D01*
X152020000Y-127920000D02*
X152020000Y-130856000D01*
X152020000Y-122904000D02*
X152020000Y-125840000D01*
X151980000Y-127920000D02*
X151980000Y-130865000D01*
X151980000Y-122895000D02*
X151980000Y-125840000D01*
X151940000Y-122887000D02*
X151940000Y-130873000D01*
X151900000Y-122878000D02*
X151900000Y-130882000D01*
X151860000Y-122871000D02*
X151860000Y-130889000D01*
X151820000Y-122863000D02*
X151820000Y-130897000D01*
X151780000Y-122857000D02*
X151780000Y-130903000D01*
X151740000Y-122850000D02*
X151740000Y-130910000D01*
X151700000Y-122844000D02*
X151700000Y-130916000D01*
X151660000Y-122838000D02*
X151660000Y-130922000D01*
X151620000Y-122833000D02*
X151620000Y-130927000D01*
X151580000Y-122828000D02*
X151580000Y-130932000D01*
X151540000Y-122824000D02*
X151540000Y-130936000D01*
X151500000Y-122819000D02*
X151500000Y-130941000D01*
X151460000Y-122816000D02*
X151460000Y-130944000D01*
X151420000Y-122812000D02*
X151420000Y-130948000D01*
X151380000Y-122810000D02*
X151380000Y-130950000D01*
X151340000Y-122807000D02*
X151340000Y-130953000D01*
X151300000Y-122805000D02*
X151300000Y-130955000D01*
X151260000Y-122803000D02*
X151260000Y-130957000D01*
X151220000Y-122802000D02*
X151220000Y-130958000D01*
X151180000Y-122801000D02*
X151180000Y-130959000D01*
X151140000Y-122800000D02*
X151140000Y-130960000D01*
X151100000Y-122800000D02*
X151100000Y-130960000D01*
X147090302Y-124165000D02*
X147090302Y-124965000D01*
X146690302Y-124565000D02*
X147490302Y-124565000D01*
%TO.C,R2*%
X116460000Y-69870000D02*
X116460000Y-69540000D01*
X116460000Y-67130000D02*
X116460000Y-67460000D01*
X109920000Y-69870000D02*
X116460000Y-69870000D01*
X109920000Y-69540000D02*
X109920000Y-69870000D01*
X109920000Y-67460000D02*
X109920000Y-67130000D01*
X109920000Y-67130000D02*
X116460000Y-67130000D01*
%TO.C,VCC1*%
X110540000Y-100310000D02*
X110540000Y-92690000D01*
X110540000Y-99040000D02*
X100380000Y-99040000D01*
X110540000Y-92690000D02*
X100380000Y-92690000D01*
X100380000Y-100310000D02*
X110540000Y-100310000D01*
X100380000Y-92690000D02*
X100380000Y-100310000D01*
%TD*%
M02*
