%TF.GenerationSoftware,KiCad,Pcbnew,9.0.4*%
%TF.CreationDate,2025-08-26T10:36:07+02:00*%
%TF.ProjectId,TDA7267_2x2_panel,54444137-3236-4375-9f32-78325f70616e,rev?*%
%TF.SameCoordinates,Original*%
%TF.FileFunction,Soldermask,Top*%
%TF.FilePolarity,Negative*%
%FSLAX46Y46*%
G04 Gerber Fmt 4.6, Leading zero omitted, Abs format (unit mm)*
G04 Created by KiCad (PCBNEW 9.0.4) date 2025-08-26 10:36:07*
%MOMM*%
%LPD*%
G01*
G04 APERTURE LIST*
G04 Aperture macros list*
%AMRoundRect*
0 Rectangle with rounded corners*
0 $1 Rounding radius*
0 $2 $3 $4 $5 $6 $7 $8 $9 X,Y pos of 4 corners*
0 Add a 4 corners polygon primitive as box body*
4,1,4,$2,$3,$4,$5,$6,$7,$8,$9,$2,$3,0*
0 Add four circle primitives for the rounded corners*
1,1,$1+$1,$2,$3*
1,1,$1+$1,$4,$5*
1,1,$1+$1,$6,$7*
1,1,$1+$1,$8,$9*
0 Add four rect primitives between the rounded corners*
20,1,$1+$1,$2,$3,$4,$5,0*
20,1,$1+$1,$4,$5,$6,$7,0*
20,1,$1+$1,$6,$7,$8,$9,0*
20,1,$1+$1,$8,$9,$2,$3,0*%
G04 Aperture macros list end*
%ADD10C,2.340000*%
%ADD11C,1.600000*%
%ADD12RoundRect,0.250000X-0.550000X-0.550000X0.550000X-0.550000X0.550000X0.550000X-0.550000X0.550000X0*%
%ADD13R,1.800000X1.800000*%
%ADD14C,1.800000*%
%ADD15R,3.000000X3.000000*%
%ADD16C,3.000000*%
%ADD17C,2.000000*%
%ADD18RoundRect,0.250000X-0.750000X-0.750000X0.750000X-0.750000X0.750000X0.750000X-0.750000X0.750000X0*%
%ADD19O,2.400000X1.600000*%
%ADD20RoundRect,0.250000X-0.950000X-0.550000X0.950000X-0.550000X0.950000X0.550000X-0.950000X0.550000X0*%
G04 APERTURE END LIST*
D10*
%TO.C,RV1*%
X176000000Y-96500000D03*
X181000000Y-96500000D03*
X186000000Y-96500000D03*
%TD*%
%TO.C,RV1*%
X129000000Y-96500000D03*
X134000000Y-96500000D03*
X139000000Y-96500000D03*
%TD*%
%TO.C,RV1*%
X186000000Y-141500000D03*
X181000000Y-141500000D03*
X176000000Y-141500000D03*
%TD*%
D11*
%TO.C,C2*%
X138997349Y-84000000D03*
D12*
X135197349Y-84000000D03*
%TD*%
D11*
%TO.C,C3*%
X112000000Y-76880000D03*
X112000000Y-81880000D03*
%TD*%
%TO.C,R1*%
X117000000Y-76880000D03*
X117000000Y-84500000D03*
%TD*%
D13*
%TO.C,D1*%
X149960000Y-68500000D03*
D14*
X152500000Y-68500000D03*
%TD*%
D11*
%TO.C,C5*%
X159000000Y-63250000D03*
X164000000Y-63250000D03*
%TD*%
D15*
%TO.C,OUT1*%
X174690000Y-62500000D03*
D16*
X169610000Y-62500000D03*
%TD*%
D11*
%TO.C,C3*%
X159000000Y-81880000D03*
X159000000Y-76880000D03*
%TD*%
D17*
%TO.C,C6*%
X139632323Y-65500000D03*
D18*
X134632323Y-65500000D03*
%TD*%
D15*
%TO.C,IN1*%
X162920000Y-96500000D03*
D16*
X168000000Y-96500000D03*
%TD*%
D11*
%TO.C,C4*%
X106000000Y-81880000D03*
D12*
X102200000Y-81880000D03*
%TD*%
D11*
%TO.C,R1*%
X164000000Y-84500000D03*
X164000000Y-76880000D03*
%TD*%
%TO.C,C1*%
X122000000Y-87000000D03*
X127000000Y-87000000D03*
%TD*%
D19*
%TO.C,U1*%
X129310000Y-72880000D03*
X129310000Y-75420000D03*
X129310000Y-77960000D03*
X129310000Y-80500000D03*
X121690000Y-80500000D03*
X121690000Y-77960000D03*
X121690000Y-75420000D03*
D20*
X121690000Y-72880000D03*
%TD*%
D14*
%TO.C,D1*%
X105500000Y-68500000D03*
D13*
X102960000Y-68500000D03*
%TD*%
D16*
%TO.C,IN1*%
X121000000Y-96500000D03*
D15*
X115920000Y-96500000D03*
%TD*%
D11*
%TO.C,C5*%
X117000000Y-63250000D03*
X112000000Y-63250000D03*
%TD*%
D16*
%TO.C,OUT1*%
X122610000Y-62500000D03*
D15*
X127690000Y-62500000D03*
%TD*%
D13*
%TO.C,D1*%
X102960000Y-113500000D03*
D14*
X105500000Y-113500000D03*
%TD*%
D12*
%TO.C,C2*%
X135197349Y-129000000D03*
D11*
X138997349Y-129000000D03*
%TD*%
D15*
%TO.C,IN1*%
X115920000Y-141500000D03*
D16*
X121000000Y-141500000D03*
%TD*%
D11*
%TO.C,R1*%
X117000000Y-129500000D03*
X117000000Y-121880000D03*
%TD*%
%TO.C,C1*%
X127000000Y-132000000D03*
X122000000Y-132000000D03*
%TD*%
D16*
%TO.C,OUT1*%
X122610000Y-107500000D03*
D15*
X127690000Y-107500000D03*
%TD*%
D20*
%TO.C,U1*%
X121690000Y-117880000D03*
D19*
X121690000Y-120420000D03*
X121690000Y-122960000D03*
X121690000Y-125500000D03*
X129310000Y-125500000D03*
X129310000Y-122960000D03*
X129310000Y-120420000D03*
X129310000Y-117880000D03*
%TD*%
D11*
%TO.C,R2*%
X109380000Y-113500000D03*
X117000000Y-113500000D03*
%TD*%
D15*
%TO.C,VCC1*%
X102920000Y-141500000D03*
D16*
X108000000Y-141500000D03*
%TD*%
D11*
%TO.C,C5*%
X112000000Y-108250000D03*
X117000000Y-108250000D03*
%TD*%
%TO.C,R1*%
X164000000Y-121880000D03*
X164000000Y-129500000D03*
%TD*%
D15*
%TO.C,OUT1*%
X174690000Y-107500000D03*
D16*
X169610000Y-107500000D03*
%TD*%
D18*
%TO.C,C6*%
X134632323Y-110500000D03*
D17*
X139632323Y-110500000D03*
%TD*%
D12*
%TO.C,C4*%
X102200000Y-126880000D03*
D11*
X106000000Y-126880000D03*
%TD*%
D10*
%TO.C,RV1*%
X139000000Y-141500000D03*
X134000000Y-141500000D03*
X129000000Y-141500000D03*
%TD*%
D11*
%TO.C,C3*%
X159000000Y-121880000D03*
X159000000Y-126880000D03*
%TD*%
D16*
%TO.C,IN1*%
X168000000Y-141500000D03*
D15*
X162920000Y-141500000D03*
%TD*%
D14*
%TO.C,D1*%
X152500000Y-113500000D03*
D13*
X149960000Y-113500000D03*
%TD*%
D12*
%TO.C,C2*%
X182197349Y-84000000D03*
D11*
X185997349Y-84000000D03*
%TD*%
%TO.C,R2*%
X156380000Y-68500000D03*
X164000000Y-68500000D03*
%TD*%
D18*
%TO.C,C6*%
X181632323Y-65500000D03*
D17*
X186632323Y-65500000D03*
%TD*%
D12*
%TO.C,C4*%
X149200000Y-81880000D03*
D11*
X153000000Y-81880000D03*
%TD*%
%TO.C,C3*%
X112000000Y-126880000D03*
X112000000Y-121880000D03*
%TD*%
D20*
%TO.C,U1*%
X168690000Y-72880000D03*
D19*
X168690000Y-75420000D03*
X168690000Y-77960000D03*
X168690000Y-80500000D03*
X176310000Y-80500000D03*
X176310000Y-77960000D03*
X176310000Y-75420000D03*
X176310000Y-72880000D03*
%TD*%
D11*
%TO.C,C1*%
X174000000Y-87000000D03*
X169000000Y-87000000D03*
%TD*%
D15*
%TO.C,VCC1*%
X149920000Y-96500000D03*
D16*
X155000000Y-96500000D03*
%TD*%
%TO.C,VCC1*%
X155000000Y-141500000D03*
D15*
X149920000Y-141500000D03*
%TD*%
D19*
%TO.C,U1*%
X176310000Y-117880000D03*
X176310000Y-120420000D03*
X176310000Y-122960000D03*
X176310000Y-125500000D03*
X168690000Y-125500000D03*
X168690000Y-122960000D03*
X168690000Y-120420000D03*
D20*
X168690000Y-117880000D03*
%TD*%
D11*
%TO.C,C1*%
X169000000Y-132000000D03*
X174000000Y-132000000D03*
%TD*%
%TO.C,C2*%
X185997349Y-129000000D03*
D12*
X182197349Y-129000000D03*
%TD*%
D11*
%TO.C,C5*%
X164000000Y-108250000D03*
X159000000Y-108250000D03*
%TD*%
%TO.C,R2*%
X164000000Y-113500000D03*
X156380000Y-113500000D03*
%TD*%
D17*
%TO.C,C6*%
X186632323Y-110500000D03*
D18*
X181632323Y-110500000D03*
%TD*%
D11*
%TO.C,C4*%
X153000000Y-126880000D03*
D12*
X149200000Y-126880000D03*
%TD*%
D11*
%TO.C,R2*%
X117000000Y-68500000D03*
X109380000Y-68500000D03*
%TD*%
D16*
%TO.C,VCC1*%
X108000000Y-96500000D03*
D15*
X102920000Y-96500000D03*
%TD*%
M02*
