M48
; DRILL file {KiCad 9.0.4} date 2025-08-26T10:36:04+0200
; FORMAT={-:-/ absolute / inch / decimal}
; #@! TF.CreationDate,2025-08-26T10:36:04+02:00
; #@! TF.GenerationSoftware,Kicad,Pcbnew,9.0.4
; #@! TF.FileFunction,Plated,1,2,PTH
FMAT,2
INCH
; #@! TA.AperFunction,Plated,PTH,ComponentDrill
T1C0.0315
; #@! TA.AperFunction,Plated,PTH,ComponentDrill
T2C0.0354
; #@! TA.AperFunction,Plated,PTH,ComponentDrill
T3C0.0394
; #@! TA.AperFunction,Plated,PTH,ComponentDrill
T4C0.0512
; #@! TA.AperFunction,Plated,PTH,ComponentDrill
T5C0.0598
%
G90
G05
T1
X4.0236Y-3.2236
X4.0236Y-4.9953
X4.1732Y-3.2236
X4.1732Y-4.9953
X4.3063Y-2.6969
X4.3063Y-4.4685
X4.4094Y-2.4902
X4.4094Y-3.0268
X4.4094Y-3.2236
X4.4094Y-4.2618
X4.4094Y-4.7984
X4.4094Y-4.9953
X4.6063Y-2.4902
X4.6063Y-2.6969
X4.6063Y-3.0268
X4.6063Y-3.3268
X4.6063Y-4.2618
X4.6063Y-4.4685
X4.6063Y-4.7984
X4.6063Y-5.0984
X4.7909Y-2.8693
X4.7909Y-2.9693
X4.7909Y-3.0693
X4.7909Y-3.1693
X4.7909Y-4.6409
X4.7909Y-4.7409
X4.7909Y-4.8409
X4.7909Y-4.9409
X4.8031Y-3.4252
X4.8031Y-5.1969
X5.0Y-3.4252
X5.0Y-5.1969
X5.0909Y-2.8693
X5.0909Y-2.9693
X5.0909Y-3.0693
X5.0909Y-3.1693
X5.0909Y-4.6409
X5.0909Y-4.7409
X5.0909Y-4.8409
X5.0909Y-4.9409
X5.3227Y-3.3071
X5.3227Y-5.0787
X5.4723Y-3.3071
X5.4723Y-5.0787
X5.874Y-3.2236
X5.874Y-4.9953
X6.0236Y-3.2236
X6.0236Y-4.9953
X6.1567Y-2.6969
X6.1567Y-4.4685
X6.2598Y-2.4902
X6.2598Y-3.0268
X6.2598Y-3.2236
X6.2598Y-4.2618
X6.2598Y-4.7984
X6.2598Y-4.9953
X6.4567Y-2.4902
X6.4567Y-2.6969
X6.4567Y-3.0268
X6.4567Y-3.3268
X6.4567Y-4.2618
X6.4567Y-4.4685
X6.4567Y-4.7984
X6.4567Y-5.0984
X6.6413Y-2.8693
X6.6413Y-2.9693
X6.6413Y-3.0693
X6.6413Y-3.1693
X6.6413Y-4.6409
X6.6413Y-4.7409
X6.6413Y-4.8409
X6.6413Y-4.9409
X6.6535Y-3.4252
X6.6535Y-5.1969
X6.8504Y-3.4252
X6.8504Y-5.1969
X6.9413Y-2.8693
X6.9413Y-2.9693
X6.9413Y-3.0693
X6.9413Y-3.1693
X6.9413Y-4.6409
X6.9413Y-4.7409
X6.9413Y-4.8409
X6.9413Y-4.9409
X7.1731Y-3.3071
X7.1731Y-5.0787
X7.3227Y-3.3071
X7.3227Y-5.0787
T2
X4.0535Y-2.6969
X4.0535Y-4.4685
X4.1535Y-2.6969
X4.1535Y-4.4685
X5.9039Y-2.6969
X5.9039Y-4.4685
X6.0039Y-2.6969
X6.0039Y-4.4685
T3
X5.3005Y-2.5787
X5.3005Y-4.3504
X5.4973Y-2.5787
X5.4973Y-4.3504
X7.1509Y-2.5787
X7.1509Y-4.3504
X7.3477Y-2.5787
X7.3477Y-4.3504
T4
X5.0787Y-3.7992
X5.0787Y-5.5709
X5.2756Y-3.7992
X5.2756Y-5.5709
X5.4724Y-3.7992
X5.4724Y-5.5709
X6.9291Y-3.7992
X6.9291Y-5.5709
X7.126Y-3.7992
X7.126Y-5.5709
X7.3228Y-3.7992
X7.3228Y-5.5709
T5
X4.052Y-3.7992
X4.052Y-5.5709
X4.252Y-3.7992
X4.252Y-5.5709
X4.5638Y-3.7992
X4.5638Y-5.5709
X4.7638Y-3.7992
X4.7638Y-5.5709
X4.8272Y-2.4606
X4.8272Y-4.2323
X5.0272Y-2.4606
X5.0272Y-4.2323
X5.9024Y-3.7992
X5.9024Y-5.5709
X6.1024Y-3.7992
X6.1024Y-5.5709
X6.4142Y-3.7992
X6.4142Y-5.5709
X6.6142Y-3.7992
X6.6142Y-5.5709
X6.6776Y-2.4606
X6.6776Y-4.2323
X6.8776Y-2.4606
X6.8776Y-4.2323
M30
